<?xml version="1.0" encoding="utf-8" standalone="no"?>
<!DOCTYPE svg PUBLIC "-//W3C//DTD SVG 1.1//EN"
  "http://www.w3.org/Graphics/SVG/1.1/DTD/svg11.dtd">
<!-- Created with matplotlib (https://matplotlib.org/) -->
<svg height="432pt" version="1.1" viewBox="0 0 864 432" width="864pt" xmlns="http://www.w3.org/2000/svg" xmlns:xlink="http://www.w3.org/1999/xlink">
 <defs>
  <style type="text/css">
*{stroke-linecap:butt;stroke-linejoin:round;white-space:pre;}
  </style>
 </defs>
 <g id="figure_1">
  <g id="patch_1">
   <path d="M 0 432 
L 864 432 
L 864 0 
L 0 0 
z
" style="fill:#ffffff;"/>
  </g>
  <g id="axes_1">
   <g id="patch_2">
    <path d="M 108 378 
L 777.6 378 
L 777.6 51.84 
L 108 51.84 
z
" style="fill:#eaeaf2;"/>
   </g>
   <g id="matplotlib.axis_1">
    <g id="xtick_1">
     <g id="text_1">
      <!-- None -->
      <defs>
       <path d="M 7.625 0 
L 7.625 71.578125 
L 17.328125 71.578125 
L 54.9375 15.375 
L 54.9375 71.578125 
L 64.015625 71.578125 
L 64.015625 0 
L 54.296875 0 
L 16.703125 56.25 
L 16.703125 0 
z
" id="ArialMT-78"/>
       <path d="M 3.328125 25.921875 
Q 3.328125 40.328125 11.328125 47.265625 
Q 18.015625 53.03125 27.640625 53.03125 
Q 38.328125 53.03125 45.109375 46.015625 
Q 51.90625 39.015625 51.90625 26.65625 
Q 51.90625 16.65625 48.90625 10.90625 
Q 45.90625 5.171875 40.15625 2 
Q 34.421875 -1.171875 27.640625 -1.171875 
Q 16.75 -1.171875 10.03125 5.8125 
Q 3.328125 12.796875 3.328125 25.921875 
z
M 12.359375 25.921875 
Q 12.359375 15.96875 16.703125 11.015625 
Q 21.046875 6.0625 27.640625 6.0625 
Q 34.1875 6.0625 38.53125 11.03125 
Q 42.875 16.015625 42.875 26.21875 
Q 42.875 35.84375 38.5 40.796875 
Q 34.125 45.75 27.640625 45.75 
Q 21.046875 45.75 16.703125 40.8125 
Q 12.359375 35.890625 12.359375 25.921875 
z
" id="ArialMT-111"/>
       <path d="M 6.59375 0 
L 6.59375 51.859375 
L 14.5 51.859375 
L 14.5 44.484375 
Q 20.21875 53.03125 31 53.03125 
Q 35.6875 53.03125 39.625 51.34375 
Q 43.5625 49.65625 45.515625 46.921875 
Q 47.46875 44.1875 48.25 40.4375 
Q 48.734375 37.984375 48.734375 31.890625 
L 48.734375 0 
L 39.9375 0 
L 39.9375 31.546875 
Q 39.9375 36.921875 38.90625 39.578125 
Q 37.890625 42.234375 35.28125 43.8125 
Q 32.671875 45.40625 29.15625 45.40625 
Q 23.53125 45.40625 19.453125 41.84375 
Q 15.375 38.28125 15.375 28.328125 
L 15.375 0 
z
" id="ArialMT-110"/>
       <path d="M 42.09375 16.703125 
L 51.171875 15.578125 
Q 49.03125 7.625 43.21875 3.21875 
Q 37.40625 -1.171875 28.375 -1.171875 
Q 17 -1.171875 10.328125 5.828125 
Q 3.65625 12.84375 3.65625 25.484375 
Q 3.65625 38.578125 10.390625 45.796875 
Q 17.140625 53.03125 27.875 53.03125 
Q 38.28125 53.03125 44.875 45.953125 
Q 51.46875 38.875 51.46875 26.03125 
Q 51.46875 25.25 51.421875 23.6875 
L 12.75 23.6875 
Q 13.234375 15.140625 17.578125 10.59375 
Q 21.921875 6.0625 28.421875 6.0625 
Q 33.25 6.0625 36.671875 8.59375 
Q 40.09375 11.140625 42.09375 16.703125 
z
M 13.234375 30.90625 
L 42.1875 30.90625 
Q 41.609375 37.453125 38.875 40.71875 
Q 34.671875 45.796875 27.984375 45.796875 
Q 21.921875 45.796875 17.796875 41.75 
Q 13.671875 37.703125 13.234375 30.90625 
z
" id="ArialMT-101"/>
      </defs>
      <g style="fill:#262626;" transform="translate(161.812422 395.373594)scale(0.11 -0.11)">
       <use xlink:href="#ArialMT-78"/>
       <use x="72.216797" xlink:href="#ArialMT-111"/>
       <use x="127.832031" xlink:href="#ArialMT-110"/>
       <use x="183.447266" xlink:href="#ArialMT-101"/>
      </g>
     </g>
    </g>
    <g id="xtick_2">
     <g id="text_2">
      <!-- Associate -->
      <defs>
       <path d="M -0.140625 0 
L 27.34375 71.578125 
L 37.546875 71.578125 
L 66.84375 0 
L 56.0625 0 
L 47.703125 21.6875 
L 17.78125 21.6875 
L 9.90625 0 
z
M 20.515625 29.390625 
L 44.78125 29.390625 
L 37.3125 49.21875 
Q 33.890625 58.25 32.234375 64.0625 
Q 30.859375 57.171875 28.375 50.390625 
z
" id="ArialMT-65"/>
       <path d="M 3.078125 15.484375 
L 11.765625 16.84375 
Q 12.5 11.625 15.84375 8.84375 
Q 19.1875 6.0625 25.203125 6.0625 
Q 31.25 6.0625 34.171875 8.515625 
Q 37.109375 10.984375 37.109375 14.3125 
Q 37.109375 17.28125 34.515625 19 
Q 32.71875 20.171875 25.53125 21.96875 
Q 15.875 24.421875 12.140625 26.203125 
Q 8.40625 27.984375 6.46875 31.125 
Q 4.546875 34.28125 4.546875 38.09375 
Q 4.546875 41.546875 6.125 44.5 
Q 7.71875 47.46875 10.453125 49.421875 
Q 12.5 50.921875 16.03125 51.96875 
Q 19.578125 53.03125 23.640625 53.03125 
Q 29.734375 53.03125 34.34375 51.265625 
Q 38.96875 49.515625 41.15625 46.5 
Q 43.359375 43.5 44.1875 38.484375 
L 35.59375 37.3125 
Q 35.015625 41.3125 32.203125 43.546875 
Q 29.390625 45.796875 24.265625 45.796875 
Q 18.21875 45.796875 15.625 43.796875 
Q 13.03125 41.796875 13.03125 39.109375 
Q 13.03125 37.40625 14.109375 36.03125 
Q 15.1875 34.625 17.484375 33.6875 
Q 18.796875 33.203125 25.25 31.453125 
Q 34.578125 28.953125 38.25 27.359375 
Q 41.9375 25.78125 44.03125 22.75 
Q 46.140625 19.734375 46.140625 15.234375 
Q 46.140625 10.84375 43.578125 6.953125 
Q 41.015625 3.078125 36.171875 0.953125 
Q 31.34375 -1.171875 25.25 -1.171875 
Q 15.140625 -1.171875 9.84375 3.03125 
Q 4.546875 7.234375 3.078125 15.484375 
z
" id="ArialMT-115"/>
       <path d="M 40.4375 19 
L 49.078125 17.875 
Q 47.65625 8.9375 41.8125 3.875 
Q 35.984375 -1.171875 27.484375 -1.171875 
Q 16.84375 -1.171875 10.375 5.78125 
Q 3.90625 12.75 3.90625 25.734375 
Q 3.90625 34.125 6.6875 40.421875 
Q 9.46875 46.734375 15.15625 49.875 
Q 20.84375 53.03125 27.546875 53.03125 
Q 35.984375 53.03125 41.359375 48.75 
Q 46.734375 44.484375 48.25 36.625 
L 39.703125 35.296875 
Q 38.484375 40.53125 35.375 43.15625 
Q 32.28125 45.796875 27.875 45.796875 
Q 21.234375 45.796875 17.078125 41.03125 
Q 12.9375 36.28125 12.9375 25.984375 
Q 12.9375 15.53125 16.9375 10.796875 
Q 20.953125 6.0625 27.390625 6.0625 
Q 32.5625 6.0625 36.03125 9.234375 
Q 39.5 12.40625 40.4375 19 
z
" id="ArialMT-99"/>
       <path d="M 6.640625 61.46875 
L 6.640625 71.578125 
L 15.4375 71.578125 
L 15.4375 61.46875 
z
M 6.640625 0 
L 6.640625 51.859375 
L 15.4375 51.859375 
L 15.4375 0 
z
" id="ArialMT-105"/>
       <path d="M 40.4375 6.390625 
Q 35.546875 2.25 31.03125 0.53125 
Q 26.515625 -1.171875 21.34375 -1.171875 
Q 12.796875 -1.171875 8.203125 3 
Q 3.609375 7.171875 3.609375 13.671875 
Q 3.609375 17.484375 5.34375 20.625 
Q 7.078125 23.78125 9.890625 25.6875 
Q 12.703125 27.59375 16.21875 28.5625 
Q 18.796875 29.25 24.03125 29.890625 
Q 34.671875 31.15625 39.703125 32.90625 
Q 39.75 34.71875 39.75 35.203125 
Q 39.75 40.578125 37.25 42.78125 
Q 33.890625 45.75 27.25 45.75 
Q 21.046875 45.75 18.09375 43.578125 
Q 15.140625 41.40625 13.71875 35.890625 
L 5.125 37.0625 
Q 6.296875 42.578125 8.984375 45.96875 
Q 11.671875 49.359375 16.75 51.1875 
Q 21.828125 53.03125 28.515625 53.03125 
Q 35.15625 53.03125 39.296875 51.46875 
Q 43.453125 49.90625 45.40625 47.53125 
Q 47.359375 45.171875 48.140625 41.546875 
Q 48.578125 39.3125 48.578125 33.453125 
L 48.578125 21.734375 
Q 48.578125 9.46875 49.140625 6.21875 
Q 49.703125 2.984375 51.375 0 
L 42.1875 0 
Q 40.828125 2.734375 40.4375 6.390625 
z
M 39.703125 26.03125 
Q 34.90625 24.078125 25.34375 22.703125 
Q 19.921875 21.921875 17.671875 20.9375 
Q 15.4375 19.96875 14.203125 18.09375 
Q 12.984375 16.21875 12.984375 13.921875 
Q 12.984375 10.40625 15.640625 8.0625 
Q 18.3125 5.71875 23.4375 5.71875 
Q 28.515625 5.71875 32.46875 7.9375 
Q 36.421875 10.15625 38.28125 14.015625 
Q 39.703125 17 39.703125 22.796875 
z
" id="ArialMT-97"/>
       <path d="M 25.78125 7.859375 
L 27.046875 0.09375 
Q 23.34375 -0.6875 20.40625 -0.6875 
Q 15.625 -0.6875 12.984375 0.828125 
Q 10.359375 2.34375 9.28125 4.8125 
Q 8.203125 7.28125 8.203125 15.1875 
L 8.203125 45.015625 
L 1.765625 45.015625 
L 1.765625 51.859375 
L 8.203125 51.859375 
L 8.203125 64.703125 
L 16.9375 69.96875 
L 16.9375 51.859375 
L 25.78125 51.859375 
L 25.78125 45.015625 
L 16.9375 45.015625 
L 16.9375 14.703125 
Q 16.9375 10.9375 17.40625 9.859375 
Q 17.875 8.796875 18.921875 8.15625 
Q 19.96875 7.515625 21.921875 7.515625 
Q 23.390625 7.515625 25.78125 7.859375 
z
" id="ArialMT-116"/>
      </defs>
      <g style="fill:#262626;" transform="translate(285.035781 395.373594)scale(0.11 -0.11)">
       <use xlink:href="#ArialMT-65"/>
       <use x="66.699219" xlink:href="#ArialMT-115"/>
       <use x="116.699219" xlink:href="#ArialMT-115"/>
       <use x="166.699219" xlink:href="#ArialMT-111"/>
       <use x="222.314453" xlink:href="#ArialMT-99"/>
       <use x="272.314453" xlink:href="#ArialMT-105"/>
       <use x="294.53125" xlink:href="#ArialMT-97"/>
       <use x="350.146484" xlink:href="#ArialMT-116"/>
       <use x="377.929688" xlink:href="#ArialMT-101"/>
      </g>
     </g>
    </g>
    <g id="xtick_3">
     <g id="text_3">
      <!-- Bachelor's -->
      <defs>
       <path d="M 7.328125 0 
L 7.328125 71.578125 
L 34.1875 71.578125 
Q 42.390625 71.578125 47.34375 69.40625 
Q 52.296875 67.234375 55.09375 62.71875 
Q 57.90625 58.203125 57.90625 53.265625 
Q 57.90625 48.6875 55.421875 44.625 
Q 52.9375 40.578125 47.90625 38.09375 
Q 54.390625 36.1875 57.875 31.59375 
Q 61.375 27 61.375 20.75 
Q 61.375 15.71875 59.25 11.390625 
Q 57.125 7.078125 54 4.734375 
Q 50.875 2.390625 46.15625 1.1875 
Q 41.453125 0 34.625 0 
z
M 16.796875 41.5 
L 32.28125 41.5 
Q 38.578125 41.5 41.3125 42.328125 
Q 44.921875 43.40625 46.75 45.890625 
Q 48.578125 48.390625 48.578125 52.15625 
Q 48.578125 55.71875 46.875 58.421875 
Q 45.171875 61.140625 41.984375 62.140625 
Q 38.8125 63.140625 31.109375 63.140625 
L 16.796875 63.140625 
z
M 16.796875 8.453125 
L 34.625 8.453125 
Q 39.203125 8.453125 41.0625 8.796875 
Q 44.34375 9.375 46.53125 10.734375 
Q 48.734375 12.109375 50.140625 14.71875 
Q 51.5625 17.328125 51.5625 20.75 
Q 51.5625 24.75 49.515625 27.703125 
Q 47.46875 30.671875 43.828125 31.859375 
Q 40.1875 33.0625 33.34375 33.0625 
L 16.796875 33.0625 
z
" id="ArialMT-66"/>
       <path d="M 6.59375 0 
L 6.59375 71.578125 
L 15.375 71.578125 
L 15.375 45.90625 
Q 21.53125 53.03125 30.90625 53.03125 
Q 36.671875 53.03125 40.921875 50.75 
Q 45.171875 48.484375 47 44.484375 
Q 48.828125 40.484375 48.828125 32.859375 
L 48.828125 0 
L 40.046875 0 
L 40.046875 32.859375 
Q 40.046875 39.453125 37.1875 42.453125 
Q 34.328125 45.453125 29.109375 45.453125 
Q 25.203125 45.453125 21.75 43.421875 
Q 18.3125 41.40625 16.84375 37.9375 
Q 15.375 34.46875 15.375 28.375 
L 15.375 0 
z
" id="ArialMT-104"/>
       <path d="M 6.390625 0 
L 6.390625 71.578125 
L 15.1875 71.578125 
L 15.1875 0 
z
" id="ArialMT-108"/>
       <path d="M 6.5 0 
L 6.5 51.859375 
L 14.40625 51.859375 
L 14.40625 44 
Q 17.4375 49.515625 20 51.265625 
Q 22.5625 53.03125 25.640625 53.03125 
Q 30.078125 53.03125 34.671875 50.203125 
L 31.640625 42.046875 
Q 28.421875 43.953125 25.203125 43.953125 
Q 22.3125 43.953125 20.015625 42.21875 
Q 17.71875 40.484375 16.75 37.40625 
Q 15.28125 32.71875 15.28125 27.15625 
L 15.28125 0 
z
" id="ArialMT-114"/>
       <path d="M 6.640625 46.234375 
L 4.390625 59.625 
L 4.390625 71.578125 
L 14.40625 71.578125 
L 14.40625 59.625 
L 12.0625 46.234375 
z
" id="ArialMT-39"/>
      </defs>
      <g style="fill:#262626;" transform="translate(417.29375 395.373594)scale(0.11 -0.11)">
       <use xlink:href="#ArialMT-66"/>
       <use x="66.699219" xlink:href="#ArialMT-97"/>
       <use x="122.314453" xlink:href="#ArialMT-99"/>
       <use x="172.314453" xlink:href="#ArialMT-104"/>
       <use x="227.929688" xlink:href="#ArialMT-101"/>
       <use x="283.544922" xlink:href="#ArialMT-108"/>
       <use x="305.761719" xlink:href="#ArialMT-111"/>
       <use x="361.376953" xlink:href="#ArialMT-114"/>
       <use x="394.677734" xlink:href="#ArialMT-39"/>
       <use x="413.769531" xlink:href="#ArialMT-115"/>
      </g>
     </g>
    </g>
    <g id="xtick_4">
     <g id="text_4">
      <!-- Master's -->
      <defs>
       <path d="M 7.421875 0 
L 7.421875 71.578125 
L 21.6875 71.578125 
L 38.625 20.90625 
Q 40.96875 13.8125 42.046875 10.296875 
Q 43.265625 14.203125 45.84375 21.78125 
L 62.984375 71.578125 
L 75.734375 71.578125 
L 75.734375 0 
L 66.609375 0 
L 66.609375 59.90625 
L 45.796875 0 
L 37.25 0 
L 16.546875 60.9375 
L 16.546875 0 
z
" id="ArialMT-77"/>
      </defs>
      <g style="fill:#262626;" transform="translate(556.112188 395.373594)scale(0.11 -0.11)">
       <use xlink:href="#ArialMT-77"/>
       <use x="83.300781" xlink:href="#ArialMT-97"/>
       <use x="138.916016" xlink:href="#ArialMT-115"/>
       <use x="188.916016" xlink:href="#ArialMT-116"/>
       <use x="216.699219" xlink:href="#ArialMT-101"/>
       <use x="272.314453" xlink:href="#ArialMT-114"/>
       <use x="305.615234" xlink:href="#ArialMT-39"/>
       <use x="324.707031" xlink:href="#ArialMT-115"/>
      </g>
     </g>
    </g>
    <g id="xtick_5">
     <g id="text_5">
      <!-- PhD -->
      <defs>
       <path d="M 7.71875 0 
L 7.71875 71.578125 
L 34.71875 71.578125 
Q 41.84375 71.578125 45.609375 70.90625 
Q 50.875 70.015625 54.4375 67.546875 
Q 58.015625 65.09375 60.1875 60.640625 
Q 62.359375 56.203125 62.359375 50.875 
Q 62.359375 41.75 56.546875 35.421875 
Q 50.734375 29.109375 35.546875 29.109375 
L 17.1875 29.109375 
L 17.1875 0 
z
M 17.1875 37.546875 
L 35.6875 37.546875 
Q 44.875 37.546875 48.734375 40.96875 
Q 52.59375 44.390625 52.59375 50.59375 
Q 52.59375 55.078125 50.3125 58.265625 
Q 48.046875 61.46875 44.34375 62.5 
Q 41.9375 63.140625 35.5 63.140625 
L 17.1875 63.140625 
z
" id="ArialMT-80"/>
       <path d="M 7.71875 0 
L 7.71875 71.578125 
L 32.375 71.578125 
Q 40.71875 71.578125 45.125 70.5625 
Q 51.265625 69.140625 55.609375 65.4375 
Q 61.28125 60.640625 64.078125 53.1875 
Q 66.890625 45.75 66.890625 36.1875 
Q 66.890625 28.03125 64.984375 21.734375 
Q 63.09375 15.4375 60.109375 11.296875 
Q 57.125 7.171875 53.578125 4.796875 
Q 50.046875 2.4375 45.046875 1.21875 
Q 40.046875 0 33.546875 0 
z
M 17.1875 8.453125 
L 32.46875 8.453125 
Q 39.546875 8.453125 43.578125 9.765625 
Q 47.609375 11.078125 50 13.484375 
Q 53.375 16.84375 55.25 22.53125 
Q 57.125 28.21875 57.125 36.328125 
Q 57.125 47.5625 53.4375 53.59375 
Q 49.75 59.625 44.484375 61.671875 
Q 40.671875 63.140625 32.234375 63.140625 
L 17.1875 63.140625 
z
" id="ArialMT-68"/>
      </defs>
      <g style="fill:#262626;" transform="translate(699.940781 395.373594)scale(0.11 -0.11)">
       <use xlink:href="#ArialMT-80"/>
       <use x="66.699219" xlink:href="#ArialMT-104"/>
       <use x="122.314453" xlink:href="#ArialMT-68"/>
      </g>
     </g>
    </g>
    <g id="text_6">
     <!-- Highest Level of Post-Secondary Education -->
     <defs>
      <path d="M 8.015625 0 
L 8.015625 71.578125 
L 17.484375 71.578125 
L 17.484375 42.1875 
L 54.6875 42.1875 
L 54.6875 71.578125 
L 64.15625 71.578125 
L 64.15625 0 
L 54.6875 0 
L 54.6875 33.734375 
L 17.484375 33.734375 
L 17.484375 0 
z
" id="ArialMT-72"/>
      <path d="M 4.984375 -4.296875 
L 13.53125 -5.5625 
Q 14.0625 -9.515625 16.5 -11.328125 
Q 19.78125 -13.765625 25.4375 -13.765625 
Q 31.546875 -13.765625 34.859375 -11.328125 
Q 38.1875 -8.890625 39.359375 -4.5 
Q 40.046875 -1.8125 39.984375 6.78125 
Q 34.234375 0 25.640625 0 
Q 14.9375 0 9.078125 7.71875 
Q 3.21875 15.4375 3.21875 26.21875 
Q 3.21875 33.640625 5.90625 39.90625 
Q 8.59375 46.1875 13.6875 49.609375 
Q 18.796875 53.03125 25.6875 53.03125 
Q 34.859375 53.03125 40.828125 45.609375 
L 40.828125 51.859375 
L 48.921875 51.859375 
L 48.921875 7.03125 
Q 48.921875 -5.078125 46.453125 -10.125 
Q 44 -15.1875 38.640625 -18.109375 
Q 33.296875 -21.046875 25.484375 -21.046875 
Q 16.21875 -21.046875 10.5 -16.875 
Q 4.78125 -12.703125 4.984375 -4.296875 
z
M 12.25 26.859375 
Q 12.25 16.65625 16.296875 11.96875 
Q 20.359375 7.28125 26.46875 7.28125 
Q 32.515625 7.28125 36.609375 11.9375 
Q 40.71875 16.609375 40.71875 26.5625 
Q 40.71875 36.078125 36.5 40.90625 
Q 32.28125 45.75 26.3125 45.75 
Q 20.453125 45.75 16.34375 40.984375 
Q 12.25 36.234375 12.25 26.859375 
z
" id="ArialMT-103"/>
      <path id="ArialMT-32"/>
      <path d="M 7.328125 0 
L 7.328125 71.578125 
L 16.796875 71.578125 
L 16.796875 8.453125 
L 52.046875 8.453125 
L 52.046875 0 
z
" id="ArialMT-76"/>
      <path d="M 21 0 
L 1.265625 51.859375 
L 10.546875 51.859375 
L 21.6875 20.796875 
Q 23.484375 15.765625 25 10.359375 
Q 26.171875 14.453125 28.265625 20.21875 
L 39.796875 51.859375 
L 48.828125 51.859375 
L 29.203125 0 
z
" id="ArialMT-118"/>
      <path d="M 8.6875 0 
L 8.6875 45.015625 
L 0.921875 45.015625 
L 0.921875 51.859375 
L 8.6875 51.859375 
L 8.6875 57.375 
Q 8.6875 62.59375 9.625 65.140625 
Q 10.890625 68.5625 14.078125 70.671875 
Q 17.28125 72.796875 23.046875 72.796875 
Q 26.765625 72.796875 31.25 71.921875 
L 29.9375 64.265625 
Q 27.203125 64.75 24.75 64.75 
Q 20.75 64.75 19.09375 63.03125 
Q 17.4375 61.328125 17.4375 56.640625 
L 17.4375 51.859375 
L 27.546875 51.859375 
L 27.546875 45.015625 
L 17.4375 45.015625 
L 17.4375 0 
z
" id="ArialMT-102"/>
      <path d="M 3.171875 21.484375 
L 3.171875 30.328125 
L 30.171875 30.328125 
L 30.171875 21.484375 
z
" id="ArialMT-45"/>
      <path d="M 4.5 23 
L 13.421875 23.78125 
Q 14.0625 18.40625 16.375 14.96875 
Q 18.703125 11.53125 23.578125 9.40625 
Q 28.46875 7.28125 34.578125 7.28125 
Q 39.984375 7.28125 44.140625 8.890625 
Q 48.296875 10.5 50.3125 13.296875 
Q 52.34375 16.109375 52.34375 19.4375 
Q 52.34375 22.796875 50.390625 25.3125 
Q 48.4375 27.828125 43.953125 29.546875 
Q 41.0625 30.671875 31.203125 33.03125 
Q 21.34375 35.40625 17.390625 37.5 
Q 12.25 40.1875 9.734375 44.15625 
Q 7.234375 48.140625 7.234375 53.078125 
Q 7.234375 58.5 10.296875 63.203125 
Q 13.375 67.921875 19.28125 70.359375 
Q 25.203125 72.796875 32.421875 72.796875 
Q 40.375 72.796875 46.453125 70.234375 
Q 52.546875 67.671875 55.8125 62.6875 
Q 59.078125 57.71875 59.328125 51.421875 
L 50.25 50.734375 
Q 49.515625 57.515625 45.28125 60.984375 
Q 41.0625 64.453125 32.8125 64.453125 
Q 24.21875 64.453125 20.28125 61.296875 
Q 16.359375 58.15625 16.359375 53.71875 
Q 16.359375 49.859375 19.140625 47.359375 
Q 21.875 44.875 33.421875 42.265625 
Q 44.96875 39.65625 49.265625 37.703125 
Q 55.515625 34.8125 58.484375 30.390625 
Q 61.46875 25.984375 61.46875 20.21875 
Q 61.46875 14.5 58.203125 9.4375 
Q 54.9375 4.390625 48.796875 1.578125 
Q 42.671875 -1.21875 35.015625 -1.21875 
Q 25.296875 -1.21875 18.71875 1.609375 
Q 12.15625 4.4375 8.421875 10.125 
Q 4.6875 15.828125 4.5 23 
z
" id="ArialMT-83"/>
      <path d="M 40.234375 0 
L 40.234375 6.546875 
Q 35.296875 -1.171875 25.734375 -1.171875 
Q 19.53125 -1.171875 14.328125 2.25 
Q 9.125 5.671875 6.265625 11.796875 
Q 3.421875 17.921875 3.421875 25.875 
Q 3.421875 33.640625 6 39.96875 
Q 8.59375 46.296875 13.765625 49.65625 
Q 18.953125 53.03125 25.34375 53.03125 
Q 30.03125 53.03125 33.6875 51.046875 
Q 37.359375 49.078125 39.65625 45.90625 
L 39.65625 71.578125 
L 48.390625 71.578125 
L 48.390625 0 
z
M 12.453125 25.875 
Q 12.453125 15.921875 16.640625 10.984375 
Q 20.84375 6.0625 26.5625 6.0625 
Q 32.328125 6.0625 36.34375 10.765625 
Q 40.375 15.484375 40.375 25.140625 
Q 40.375 35.796875 36.265625 40.765625 
Q 32.171875 45.75 26.171875 45.75 
Q 20.3125 45.75 16.375 40.96875 
Q 12.453125 36.1875 12.453125 25.875 
z
" id="ArialMT-100"/>
      <path d="M 6.203125 -19.96875 
L 5.21875 -11.71875 
Q 8.109375 -12.5 10.25 -12.5 
Q 13.1875 -12.5 14.9375 -11.515625 
Q 16.703125 -10.546875 17.828125 -8.796875 
Q 18.65625 -7.46875 20.515625 -2.25 
Q 20.75 -1.515625 21.296875 -0.09375 
L 1.609375 51.859375 
L 11.078125 51.859375 
L 21.875 21.828125 
Q 23.96875 16.109375 25.640625 9.8125 
Q 27.15625 15.875 29.25 21.625 
L 40.328125 51.859375 
L 49.125 51.859375 
L 29.390625 -0.875 
Q 26.21875 -9.421875 24.46875 -12.640625 
Q 22.125 -17 19.09375 -19.015625 
Q 16.0625 -21.046875 11.859375 -21.046875 
Q 9.328125 -21.046875 6.203125 -19.96875 
z
" id="ArialMT-121"/>
      <path d="M 7.90625 0 
L 7.90625 71.578125 
L 59.671875 71.578125 
L 59.671875 63.140625 
L 17.390625 63.140625 
L 17.390625 41.21875 
L 56.984375 41.21875 
L 56.984375 32.8125 
L 17.390625 32.8125 
L 17.390625 8.453125 
L 61.328125 8.453125 
L 61.328125 0 
z
" id="ArialMT-69"/>
      <path d="M 40.578125 0 
L 40.578125 7.625 
Q 34.515625 -1.171875 24.125 -1.171875 
Q 19.53125 -1.171875 15.546875 0.578125 
Q 11.578125 2.34375 9.640625 5 
Q 7.71875 7.671875 6.9375 11.53125 
Q 6.390625 14.109375 6.390625 19.734375 
L 6.390625 51.859375 
L 15.1875 51.859375 
L 15.1875 23.09375 
Q 15.1875 16.21875 15.71875 13.8125 
Q 16.546875 10.359375 19.234375 8.375 
Q 21.921875 6.390625 25.875 6.390625 
Q 29.828125 6.390625 33.296875 8.421875 
Q 36.765625 10.453125 38.203125 13.9375 
Q 39.65625 17.4375 39.65625 24.078125 
L 39.65625 51.859375 
L 48.4375 51.859375 
L 48.4375 0 
z
" id="ArialMT-117"/>
     </defs>
     <g style="fill:#262626;" transform="translate(327.072188 410.295469)scale(0.12 -0.12)">
      <use xlink:href="#ArialMT-72"/>
      <use x="72.216797" xlink:href="#ArialMT-105"/>
      <use x="94.433594" xlink:href="#ArialMT-103"/>
      <use x="150.048828" xlink:href="#ArialMT-104"/>
      <use x="205.664062" xlink:href="#ArialMT-101"/>
      <use x="261.279297" xlink:href="#ArialMT-115"/>
      <use x="311.279297" xlink:href="#ArialMT-116"/>
      <use x="339.0625" xlink:href="#ArialMT-32"/>
      <use x="366.845703" xlink:href="#ArialMT-76"/>
      <use x="422.460938" xlink:href="#ArialMT-101"/>
      <use x="478.076172" xlink:href="#ArialMT-118"/>
      <use x="528.076172" xlink:href="#ArialMT-101"/>
      <use x="583.691406" xlink:href="#ArialMT-108"/>
      <use x="605.908203" xlink:href="#ArialMT-32"/>
      <use x="633.691406" xlink:href="#ArialMT-111"/>
      <use x="689.306641" xlink:href="#ArialMT-102"/>
      <use x="717.089844" xlink:href="#ArialMT-32"/>
      <use x="744.873047" xlink:href="#ArialMT-80"/>
      <use x="811.572266" xlink:href="#ArialMT-111"/>
      <use x="867.1875" xlink:href="#ArialMT-115"/>
      <use x="917.1875" xlink:href="#ArialMT-116"/>
      <use x="944.970703" xlink:href="#ArialMT-45"/>
      <use x="978.271484" xlink:href="#ArialMT-83"/>
      <use x="1044.970703" xlink:href="#ArialMT-101"/>
      <use x="1100.585938" xlink:href="#ArialMT-99"/>
      <use x="1150.585938" xlink:href="#ArialMT-111"/>
      <use x="1206.201172" xlink:href="#ArialMT-110"/>
      <use x="1261.816406" xlink:href="#ArialMT-100"/>
      <use x="1317.431641" xlink:href="#ArialMT-97"/>
      <use x="1373.046875" xlink:href="#ArialMT-114"/>
      <use x="1406.347656" xlink:href="#ArialMT-121"/>
      <use x="1456.347656" xlink:href="#ArialMT-32"/>
      <use x="1484.130859" xlink:href="#ArialMT-69"/>
      <use x="1550.830078" xlink:href="#ArialMT-100"/>
      <use x="1606.445312" xlink:href="#ArialMT-117"/>
      <use x="1662.060547" xlink:href="#ArialMT-99"/>
      <use x="1712.060547" xlink:href="#ArialMT-97"/>
      <use x="1767.675781" xlink:href="#ArialMT-116"/>
      <use x="1795.458984" xlink:href="#ArialMT-105"/>
      <use x="1817.675781" xlink:href="#ArialMT-111"/>
      <use x="1873.291016" xlink:href="#ArialMT-110"/>
     </g>
    </g>
   </g>
   <g id="matplotlib.axis_2">
    <g id="ytick_1">
     <g id="line2d_1">
      <path clip-path="url(#p5676578cf9)" d="M 108 364.528468 
L 777.6 364.528468 
" style="fill:none;stroke:#ffffff;stroke-linecap:round;"/>
     </g>
     <g id="text_7">
      <!-- 50 -->
      <defs>
       <path d="M 4.15625 18.75 
L 13.375 19.53125 
Q 14.40625 12.796875 18.140625 9.390625 
Q 21.875 6 27.15625 6 
Q 33.5 6 37.890625 10.78125 
Q 42.28125 15.578125 42.28125 23.484375 
Q 42.28125 31 38.0625 35.34375 
Q 33.84375 39.703125 27 39.703125 
Q 22.75 39.703125 19.328125 37.765625 
Q 15.921875 35.84375 13.96875 32.765625 
L 5.71875 33.84375 
L 12.640625 70.609375 
L 48.25 70.609375 
L 48.25 62.203125 
L 19.671875 62.203125 
L 15.828125 42.96875 
Q 22.265625 47.46875 29.34375 47.46875 
Q 38.71875 47.46875 45.15625 40.96875 
Q 51.609375 34.46875 51.609375 24.265625 
Q 51.609375 14.546875 45.953125 7.46875 
Q 39.0625 -1.21875 27.15625 -1.21875 
Q 17.390625 -1.21875 11.203125 4.25 
Q 5.03125 9.71875 4.15625 18.75 
z
" id="ArialMT-53"/>
       <path d="M 4.15625 35.296875 
Q 4.15625 48 6.765625 55.734375 
Q 9.375 63.484375 14.515625 67.671875 
Q 19.671875 71.875 27.484375 71.875 
Q 33.25 71.875 37.59375 69.546875 
Q 41.9375 67.234375 44.765625 62.859375 
Q 47.609375 58.5 49.21875 52.21875 
Q 50.828125 45.953125 50.828125 35.296875 
Q 50.828125 22.703125 48.234375 14.96875 
Q 45.65625 7.234375 40.5 3 
Q 35.359375 -1.21875 27.484375 -1.21875 
Q 17.140625 -1.21875 11.234375 6.203125 
Q 4.15625 15.140625 4.15625 35.296875 
z
M 13.1875 35.296875 
Q 13.1875 17.671875 17.3125 11.828125 
Q 21.4375 6 27.484375 6 
Q 33.546875 6 37.671875 11.859375 
Q 41.796875 17.71875 41.796875 35.296875 
Q 41.796875 52.984375 37.671875 58.78125 
Q 33.546875 64.59375 27.390625 64.59375 
Q 21.34375 64.59375 17.71875 59.46875 
Q 13.1875 52.9375 13.1875 35.296875 
z
" id="ArialMT-48"/>
      </defs>
      <g style="fill:#262626;" transform="translate(86.265938 368.465265)scale(0.11 -0.11)">
       <use xlink:href="#ArialMT-53"/>
       <use x="55.615234" xlink:href="#ArialMT-48"/>
      </g>
     </g>
    </g>
    <g id="ytick_2">
     <g id="line2d_2">
      <path clip-path="url(#p5676578cf9)" d="M 108 296.832329 
L 777.6 296.832329 
" style="fill:none;stroke:#ffffff;stroke-linecap:round;"/>
     </g>
     <g id="text_8">
      <!-- 100 -->
      <defs>
       <path d="M 37.25 0 
L 28.46875 0 
L 28.46875 56 
Q 25.296875 52.984375 20.140625 49.953125 
Q 14.984375 46.921875 10.890625 45.40625 
L 10.890625 53.90625 
Q 18.265625 57.375 23.78125 62.296875 
Q 29.296875 67.234375 31.59375 71.875 
L 37.25 71.875 
z
" id="ArialMT-49"/>
      </defs>
      <g style="fill:#262626;" transform="translate(80.148906 300.769126)scale(0.11 -0.11)">
       <use xlink:href="#ArialMT-49"/>
       <use x="55.615234" xlink:href="#ArialMT-48"/>
       <use x="111.230469" xlink:href="#ArialMT-48"/>
      </g>
     </g>
    </g>
    <g id="ytick_3">
     <g id="line2d_3">
      <path clip-path="url(#p5676578cf9)" d="M 108 229.136189 
L 777.6 229.136189 
" style="fill:none;stroke:#ffffff;stroke-linecap:round;"/>
     </g>
     <g id="text_9">
      <!-- 150 -->
      <g style="fill:#262626;" transform="translate(80.148906 233.072986)scale(0.11 -0.11)">
       <use xlink:href="#ArialMT-49"/>
       <use x="55.615234" xlink:href="#ArialMT-53"/>
       <use x="111.230469" xlink:href="#ArialMT-48"/>
      </g>
     </g>
    </g>
    <g id="ytick_4">
     <g id="line2d_4">
      <path clip-path="url(#p5676578cf9)" d="M 108 161.44005 
L 777.6 161.44005 
" style="fill:none;stroke:#ffffff;stroke-linecap:round;"/>
     </g>
     <g id="text_10">
      <!-- 200 -->
      <defs>
       <path d="M 50.34375 8.453125 
L 50.34375 0 
L 3.03125 0 
Q 2.9375 3.171875 4.046875 6.109375 
Q 5.859375 10.9375 9.828125 15.625 
Q 13.8125 20.3125 21.34375 26.46875 
Q 33.015625 36.03125 37.109375 41.625 
Q 41.21875 47.21875 41.21875 52.203125 
Q 41.21875 57.421875 37.46875 61 
Q 33.734375 64.59375 27.734375 64.59375 
Q 21.390625 64.59375 17.578125 60.78125 
Q 13.765625 56.984375 13.71875 50.25 
L 4.6875 51.171875 
Q 5.609375 61.28125 11.65625 66.578125 
Q 17.71875 71.875 27.9375 71.875 
Q 38.234375 71.875 44.234375 66.15625 
Q 50.25 60.453125 50.25 52 
Q 50.25 47.703125 48.484375 43.546875 
Q 46.734375 39.40625 42.65625 34.8125 
Q 38.578125 30.21875 29.109375 22.21875 
Q 21.1875 15.578125 18.9375 13.203125 
Q 16.703125 10.84375 15.234375 8.453125 
z
" id="ArialMT-50"/>
      </defs>
      <g style="fill:#262626;" transform="translate(80.148906 165.376847)scale(0.11 -0.11)">
       <use xlink:href="#ArialMT-50"/>
       <use x="55.615234" xlink:href="#ArialMT-48"/>
       <use x="111.230469" xlink:href="#ArialMT-48"/>
      </g>
     </g>
    </g>
    <g id="ytick_5">
     <g id="line2d_5">
      <path clip-path="url(#p5676578cf9)" d="M 108 93.74391 
L 777.6 93.74391 
" style="fill:none;stroke:#ffffff;stroke-linecap:round;"/>
     </g>
     <g id="text_11">
      <!-- 250 -->
      <g style="fill:#262626;" transform="translate(80.148906 97.680707)scale(0.11 -0.11)">
       <use xlink:href="#ArialMT-50"/>
       <use x="55.615234" xlink:href="#ArialMT-53"/>
       <use x="111.230469" xlink:href="#ArialMT-48"/>
      </g>
     </g>
    </g>
    <g id="text_12">
     <!-- Compensation ($1000s) -->
     <defs>
      <path d="M 58.796875 25.09375 
L 68.265625 22.703125 
Q 65.28125 11.03125 57.546875 4.90625 
Q 49.8125 -1.21875 38.625 -1.21875 
Q 27.046875 -1.21875 19.796875 3.484375 
Q 12.546875 8.203125 8.765625 17.140625 
Q 4.984375 26.078125 4.984375 36.328125 
Q 4.984375 47.515625 9.25 55.828125 
Q 13.53125 64.15625 21.40625 68.46875 
Q 29.296875 72.796875 38.765625 72.796875 
Q 49.515625 72.796875 56.828125 67.328125 
Q 64.15625 61.859375 67.046875 51.953125 
L 57.71875 49.75 
Q 55.21875 57.5625 50.484375 61.125 
Q 45.75 64.703125 38.578125 64.703125 
Q 30.328125 64.703125 24.78125 60.734375 
Q 19.234375 56.78125 16.984375 50.109375 
Q 14.75 43.453125 14.75 36.375 
Q 14.75 27.25 17.40625 20.4375 
Q 20.0625 13.625 25.671875 10.25 
Q 31.296875 6.890625 37.84375 6.890625 
Q 45.796875 6.890625 51.3125 11.46875 
Q 56.84375 16.0625 58.796875 25.09375 
z
" id="ArialMT-67"/>
      <path d="M 6.59375 0 
L 6.59375 51.859375 
L 14.453125 51.859375 
L 14.453125 44.578125 
Q 16.890625 48.390625 20.9375 50.703125 
Q 25 53.03125 30.171875 53.03125 
Q 35.9375 53.03125 39.625 50.640625 
Q 43.3125 48.25 44.828125 43.953125 
Q 50.984375 53.03125 60.84375 53.03125 
Q 68.5625 53.03125 72.703125 48.75 
Q 76.859375 44.484375 76.859375 35.59375 
L 76.859375 0 
L 68.109375 0 
L 68.109375 32.671875 
Q 68.109375 37.9375 67.25 40.25 
Q 66.40625 42.578125 64.15625 43.984375 
Q 61.921875 45.40625 58.890625 45.40625 
Q 53.421875 45.40625 49.796875 41.765625 
Q 46.1875 38.140625 46.1875 30.125 
L 46.1875 0 
L 37.40625 0 
L 37.40625 33.6875 
Q 37.40625 39.546875 35.25 42.46875 
Q 33.109375 45.40625 28.21875 45.40625 
Q 24.515625 45.40625 21.359375 43.453125 
Q 18.21875 41.5 16.796875 37.734375 
Q 15.375 33.984375 15.375 26.90625 
L 15.375 0 
z
" id="ArialMT-109"/>
      <path d="M 6.59375 -19.875 
L 6.59375 51.859375 
L 14.59375 51.859375 
L 14.59375 45.125 
Q 17.4375 49.078125 21 51.046875 
Q 24.5625 53.03125 29.640625 53.03125 
Q 36.28125 53.03125 41.359375 49.609375 
Q 46.4375 46.1875 49.015625 39.953125 
Q 51.609375 33.734375 51.609375 26.3125 
Q 51.609375 18.359375 48.75 11.984375 
Q 45.90625 5.609375 40.453125 2.21875 
Q 35.015625 -1.171875 29 -1.171875 
Q 24.609375 -1.171875 21.109375 0.6875 
Q 17.625 2.546875 15.375 5.375 
L 15.375 -19.875 
z
M 14.546875 25.640625 
Q 14.546875 15.625 18.59375 10.84375 
Q 22.65625 6.0625 28.421875 6.0625 
Q 34.28125 6.0625 38.453125 11.015625 
Q 42.625 15.96875 42.625 26.375 
Q 42.625 36.28125 38.546875 41.203125 
Q 34.46875 46.140625 28.8125 46.140625 
Q 23.1875 46.140625 18.859375 40.890625 
Q 14.546875 35.640625 14.546875 25.640625 
z
" id="ArialMT-112"/>
      <path d="M 23.390625 -21.046875 
Q 16.109375 -11.859375 11.078125 0.4375 
Q 6.0625 12.75 6.0625 25.921875 
Q 6.0625 37.546875 9.8125 48.1875 
Q 14.203125 60.546875 23.390625 72.796875 
L 29.6875 72.796875 
Q 23.78125 62.640625 21.875 58.296875 
Q 18.890625 51.5625 17.1875 44.234375 
Q 15.09375 35.109375 15.09375 25.875 
Q 15.09375 2.390625 29.6875 -21.046875 
z
" id="ArialMT-40"/>
      <path d="M 24.90625 -10.296875 
L 24.90625 -1.515625 
Q 18.3125 -0.6875 14.1875 1.4375 
Q 10.0625 3.5625 7.046875 8.296875 
Q 4.046875 13.03125 3.5625 19.875 
L 12.40625 21.53125 
Q 13.421875 14.453125 16.015625 11.140625 
Q 19.734375 6.453125 24.90625 5.90625 
L 24.90625 33.890625 
Q 19.484375 34.90625 13.8125 38.09375 
Q 9.625 40.4375 7.34375 44.578125 
Q 5.078125 48.734375 5.078125 54 
Q 5.078125 63.375 11.71875 69.1875 
Q 16.15625 73.09375 24.90625 73.96875 
L 24.90625 78.171875 
L 30.078125 78.171875 
L 30.078125 73.96875 
Q 37.75 73.25 42.234375 69.484375 
Q 48 64.703125 49.171875 56.34375 
L 40.09375 54.984375 
Q 39.3125 60.15625 36.84375 62.90625 
Q 34.375 65.671875 30.078125 66.546875 
L 30.078125 41.21875 
Q 36.71875 39.546875 38.875 38.625 
Q 42.96875 36.8125 45.546875 34.21875 
Q 48.140625 31.640625 49.53125 28.078125 
Q 50.921875 24.515625 50.921875 20.359375 
Q 50.921875 11.234375 45.109375 5.125 
Q 39.3125 -0.984375 30.078125 -1.421875 
L 30.078125 -10.296875 
z
M 24.90625 66.65625 
Q 19.78125 65.875 16.828125 62.546875 
Q 13.875 59.234375 13.875 54.6875 
Q 13.875 50.203125 16.375 47.171875 
Q 18.890625 44.140625 24.90625 42.328125 
z
M 30.078125 5.90625 
Q 35.203125 6.546875 38.546875 10.34375 
Q 41.890625 14.15625 41.890625 19.78125 
Q 41.890625 24.5625 39.515625 27.46875 
Q 37.15625 30.375 30.078125 32.671875 
z
" id="ArialMT-36"/>
      <path d="M 12.359375 -21.046875 
L 6.0625 -21.046875 
Q 20.65625 2.390625 20.65625 25.875 
Q 20.65625 35.0625 18.5625 44.09375 
Q 16.890625 51.421875 13.921875 58.15625 
Q 12.015625 62.546875 6.0625 72.796875 
L 12.359375 72.796875 
Q 21.53125 60.546875 25.921875 48.1875 
Q 29.6875 37.546875 29.6875 25.921875 
Q 29.6875 12.75 24.625 0.4375 
Q 19.578125 -11.859375 12.359375 -21.046875 
z
" id="ArialMT-41"/>
     </defs>
     <g style="fill:#262626;" transform="translate(73.623281 278.952187)rotate(-90)scale(0.12 -0.12)">
      <use xlink:href="#ArialMT-67"/>
      <use x="72.216797" xlink:href="#ArialMT-111"/>
      <use x="127.832031" xlink:href="#ArialMT-109"/>
      <use x="211.132812" xlink:href="#ArialMT-112"/>
      <use x="266.748047" xlink:href="#ArialMT-101"/>
      <use x="322.363281" xlink:href="#ArialMT-110"/>
      <use x="377.978516" xlink:href="#ArialMT-115"/>
      <use x="427.978516" xlink:href="#ArialMT-97"/>
      <use x="483.59375" xlink:href="#ArialMT-116"/>
      <use x="511.376953" xlink:href="#ArialMT-105"/>
      <use x="533.59375" xlink:href="#ArialMT-111"/>
      <use x="589.208984" xlink:href="#ArialMT-110"/>
      <use x="644.824219" xlink:href="#ArialMT-32"/>
      <use x="672.607422" xlink:href="#ArialMT-40"/>
      <use x="705.908203" xlink:href="#ArialMT-36"/>
      <use x="761.523438" xlink:href="#ArialMT-49"/>
      <use x="817.138672" xlink:href="#ArialMT-48"/>
      <use x="872.753906" xlink:href="#ArialMT-48"/>
      <use x="928.369141" xlink:href="#ArialMT-48"/>
      <use x="983.984375" xlink:href="#ArialMT-115"/>
      <use x="1033.984375" xlink:href="#ArialMT-41"/>
     </g>
    </g>
   </g>
   <g id="PolyCollection_1">
    <defs>
     <path d="M 178.083158 -68.825455 
L 171.836842 -68.825455 
L 171.811881 -71.820496 
L 171.79081 -74.815537 
L 171.773707 -77.810579 
L 171.760631 -80.80562 
L 171.751626 -83.800661 
L 171.746718 -86.795702 
L 171.74592 -89.790744 
L 171.749225 -92.785785 
L 171.756609 -95.780826 
L 171.768034 -98.775868 
L 171.783442 -101.770909 
L 171.802761 -104.76595 
L 171.825903 -107.760992 
L 171.852763 -110.756033 
L 171.883221 -113.751074 
L 171.917144 -116.746116 
L 171.954385 -119.741157 
L 171.994783 -122.736198 
L 172.038166 -125.73124 
L 172.084351 -128.726281 
L 172.133145 -131.721322 
L 172.184345 -134.716364 
L 172.237741 -137.711405 
L 172.293117 -140.706446 
L 172.350248 -143.701488 
L 172.408907 -146.696529 
L 172.468864 -149.69157 
L 172.529885 -152.686612 
L 172.591736 -155.681653 
L 172.654182 -158.676694 
L 172.716989 -161.671736 
L 172.779927 -164.666777 
L 172.842766 -167.661818 
L 172.905284 -170.65686 
L 172.967259 -173.651901 
L 173.028481 -176.646942 
L 173.088741 -179.641983 
L 173.147842 -182.637025 
L 173.205594 -185.632066 
L 173.261814 -188.627107 
L 173.316332 -191.622149 
L 173.368986 -194.61719 
L 173.419625 -197.612231 
L 173.468111 -200.607273 
L 173.514315 -203.602314 
L 173.558121 -206.597355 
L 173.599425 -209.592397 
L 173.638136 -212.587438 
L 173.674174 -215.582479 
L 173.707474 -218.577521 
L 173.737981 -221.572562 
L 173.765654 -224.567603 
L 173.790465 -227.562645 
L 173.812397 -230.557686 
L 173.831448 -233.552727 
L 173.847624 -236.547769 
L 173.860949 -239.54281 
L 173.871452 -242.537851 
L 173.879179 -245.532893 
L 173.884184 -248.527934 
L 173.886533 -251.522975 
L 173.886302 -254.518017 
L 173.883578 -257.513058 
L 173.878457 -260.508099 
L 173.871042 -263.50314 
L 173.861449 -266.498182 
L 173.849797 -269.493223 
L 173.836218 -272.488264 
L 173.820846 -275.483306 
L 173.803823 -278.478347 
L 173.785299 -281.473388 
L 173.765426 -284.46843 
L 173.744361 -287.463471 
L 173.722266 -290.458512 
L 173.699305 -293.453554 
L 173.675644 -296.448595 
L 173.651451 -299.443636 
L 173.626895 -302.438678 
L 173.602144 -305.433719 
L 173.577366 -308.42876 
L 173.552728 -311.423802 
L 173.528394 -314.418843 
L 173.504524 -317.413884 
L 173.481276 -320.408926 
L 173.458802 -323.403967 
L 173.43725 -326.399008 
L 173.416762 -329.39405 
L 173.397472 -332.389091 
L 173.379509 -335.384132 
L 173.362992 -338.379174 
L 173.348034 -341.374215 
L 173.334736 -344.369256 
L 173.323193 -347.364298 
L 173.31349 -350.359339 
L 173.305699 -353.35438 
L 173.299884 -356.349421 
L 173.2961 -359.344463 
L 173.294388 -362.339504 
L 173.29478 -365.334545 
L 176.62522 -365.334545 
L 176.62522 -365.334545 
L 176.625612 -362.339504 
L 176.6239 -359.344463 
L 176.620116 -356.349421 
L 176.614301 -353.35438 
L 176.60651 -350.359339 
L 176.596807 -347.364298 
L 176.585264 -344.369256 
L 176.571966 -341.374215 
L 176.557008 -338.379174 
L 176.540491 -335.384132 
L 176.522528 -332.389091 
L 176.503238 -329.39405 
L 176.48275 -326.399008 
L 176.461198 -323.403967 
L 176.438724 -320.408926 
L 176.415476 -317.413884 
L 176.391606 -314.418843 
L 176.367272 -311.423802 
L 176.342634 -308.42876 
L 176.317856 -305.433719 
L 176.293105 -302.438678 
L 176.268549 -299.443636 
L 176.244356 -296.448595 
L 176.220695 -293.453554 
L 176.197734 -290.458512 
L 176.175639 -287.463471 
L 176.154574 -284.46843 
L 176.134701 -281.473388 
L 176.116177 -278.478347 
L 176.099154 -275.483306 
L 176.083782 -272.488264 
L 176.070203 -269.493223 
L 176.058551 -266.498182 
L 176.048958 -263.50314 
L 176.041543 -260.508099 
L 176.036422 -257.513058 
L 176.033698 -254.518017 
L 176.033467 -251.522975 
L 176.035816 -248.527934 
L 176.040821 -245.532893 
L 176.048548 -242.537851 
L 176.059051 -239.54281 
L 176.072376 -236.547769 
L 176.088552 -233.552727 
L 176.107603 -230.557686 
L 176.129535 -227.562645 
L 176.154346 -224.567603 
L 176.182019 -221.572562 
L 176.212526 -218.577521 
L 176.245826 -215.582479 
L 176.281864 -212.587438 
L 176.320575 -209.592397 
L 176.361879 -206.597355 
L 176.405685 -203.602314 
L 176.451889 -200.607273 
L 176.500375 -197.612231 
L 176.551014 -194.61719 
L 176.603668 -191.622149 
L 176.658186 -188.627107 
L 176.714406 -185.632066 
L 176.772158 -182.637025 
L 176.831259 -179.641983 
L 176.891519 -176.646942 
L 176.952741 -173.651901 
L 177.014716 -170.65686 
L 177.077234 -167.661818 
L 177.140073 -164.666777 
L 177.203011 -161.671736 
L 177.265818 -158.676694 
L 177.328264 -155.681653 
L 177.390115 -152.686612 
L 177.451136 -149.69157 
L 177.511093 -146.696529 
L 177.569752 -143.701488 
L 177.626883 -140.706446 
L 177.682259 -137.711405 
L 177.735655 -134.716364 
L 177.786855 -131.721322 
L 177.835649 -128.726281 
L 177.881834 -125.73124 
L 177.925217 -122.736198 
L 177.965615 -119.741157 
L 178.002856 -116.746116 
L 178.036779 -113.751074 
L 178.067237 -110.756033 
L 178.094097 -107.760992 
L 178.117239 -104.76595 
L 178.136558 -101.770909 
L 178.151966 -98.775868 
L 178.163391 -95.780826 
L 178.170775 -92.785785 
L 178.17408 -89.790744 
L 178.173282 -86.795702 
L 178.168374 -83.800661 
L 178.159369 -80.80562 
L 178.146293 -77.810579 
L 178.12919 -74.815537 
L 178.108119 -71.820496 
L 178.083158 -68.825455 
z
" id="m19ead21e98" style="stroke:#4c4c4c;stroke-width:1.5;"/>
    </defs>
    <g clip-path="url(#p5676578cf9)">
     <use style="fill:#5875a4;stroke:#4c4c4c;stroke-width:1.5;" x="0" xlink:href="#m19ead21e98" y="432"/>
    </g>
   </g>
   <g id="PolyCollection_2">
    <defs>
     <path d="M 311.953849 -99.965679 
L 305.806151 -99.965679 
L 305.775173 -100.868294 
L 305.74788 -101.770909 
L 305.724369 -102.673524 
L 305.704723 -103.576139 
L 305.68901 -104.478755 
L 305.677284 -105.38137 
L 305.66958 -106.283985 
L 305.66592 -107.1866 
L 305.666308 -108.089215 
L 305.670733 -108.991831 
L 305.679167 -109.894446 
L 305.691564 -110.797061 
L 305.707863 -111.699676 
L 305.727989 -112.602291 
L 305.75185 -113.504907 
L 305.779336 -114.407522 
L 305.810328 -115.310137 
L 305.844689 -116.212752 
L 305.88227 -117.115367 
L 305.922909 -118.017983 
L 305.966435 -118.920598 
L 306.012663 -119.823213 
L 306.0614 -120.725828 
L 306.112444 -121.628443 
L 306.165584 -122.531059 
L 306.220605 -123.433674 
L 306.277285 -124.336289 
L 306.335397 -125.238904 
L 306.394711 -126.141519 
L 306.454995 -127.044134 
L 306.516016 -127.94675 
L 306.577542 -128.849365 
L 306.63934 -129.75198 
L 306.70118 -130.654595 
L 306.762835 -131.55721 
L 306.824083 -132.459826 
L 306.884705 -133.362441 
L 306.944492 -134.265056 
L 307.003237 -135.167671 
L 307.060743 -136.070286 
L 307.116823 -136.972902 
L 307.171296 -137.875517 
L 307.223992 -138.778132 
L 307.274752 -139.680747 
L 307.323428 -140.583362 
L 307.369882 -141.485978 
L 307.413989 -142.388593 
L 307.455635 -143.291208 
L 307.49472 -144.193823 
L 307.531156 -145.096438 
L 307.564867 -145.999054 
L 307.595791 -146.901669 
L 307.62388 -147.804284 
L 307.649097 -148.706899 
L 307.67142 -149.609514 
L 307.690839 -150.51213 
L 307.707358 -151.414745 
L 307.720992 -152.31736 
L 307.731771 -153.219975 
L 307.739736 -154.12259 
L 307.74494 -155.025205 
L 307.747449 -155.927821 
L 307.747338 -156.830436 
L 307.744694 -157.733051 
L 307.739617 -158.635666 
L 307.732213 -159.538281 
L 307.722601 -160.440897 
L 307.710905 -161.343512 
L 307.697262 -162.246127 
L 307.681812 -163.148742 
L 307.664706 -164.051357 
L 307.646098 -164.953973 
L 307.626149 -165.856588 
L 307.605026 -166.759203 
L 307.582898 -167.661818 
L 307.559939 -168.564433 
L 307.536322 -169.467049 
L 307.512226 -170.369664 
L 307.487828 -171.272279 
L 307.463306 -172.174894 
L 307.438835 -173.077509 
L 307.41459 -173.980125 
L 307.390743 -174.88274 
L 307.367462 -175.785355 
L 307.344912 -176.68797 
L 307.323249 -177.590585 
L 307.302628 -178.4932 
L 307.283193 -179.395816 
L 307.265083 -180.298431 
L 307.248428 -181.201046 
L 307.233349 -182.103661 
L 307.219959 -183.006276 
L 307.20836 -183.908892 
L 307.198644 -184.811507 
L 307.190891 -185.714122 
L 307.185172 -186.616737 
L 307.181547 -187.519352 
L 307.180061 -188.421968 
L 307.180752 -189.324583 
L 310.579248 -189.324583 
L 310.579248 -189.324583 
L 310.579939 -188.421968 
L 310.578453 -187.519352 
L 310.574828 -186.616737 
L 310.569109 -185.714122 
L 310.561356 -184.811507 
L 310.55164 -183.908892 
L 310.540041 -183.006276 
L 310.526651 -182.103661 
L 310.511572 -181.201046 
L 310.494917 -180.298431 
L 310.476807 -179.395816 
L 310.457372 -178.4932 
L 310.436751 -177.590585 
L 310.415088 -176.68797 
L 310.392538 -175.785355 
L 310.369257 -174.88274 
L 310.34541 -173.980125 
L 310.321165 -173.077509 
L 310.296694 -172.174894 
L 310.272172 -171.272279 
L 310.247774 -170.369664 
L 310.223678 -169.467049 
L 310.200061 -168.564433 
L 310.177102 -167.661818 
L 310.154974 -166.759203 
L 310.133851 -165.856588 
L 310.113902 -164.953973 
L 310.095294 -164.051357 
L 310.078188 -163.148742 
L 310.062738 -162.246127 
L 310.049095 -161.343512 
L 310.037399 -160.440897 
L 310.027787 -159.538281 
L 310.020383 -158.635666 
L 310.015306 -157.733051 
L 310.012662 -156.830436 
L 310.012551 -155.927821 
L 310.01506 -155.025205 
L 310.020264 -154.12259 
L 310.028229 -153.219975 
L 310.039008 -152.31736 
L 310.052642 -151.414745 
L 310.069161 -150.51213 
L 310.08858 -149.609514 
L 310.110903 -148.706899 
L 310.13612 -147.804284 
L 310.164209 -146.901669 
L 310.195133 -145.999054 
L 310.228844 -145.096438 
L 310.26528 -144.193823 
L 310.304365 -143.291208 
L 310.346011 -142.388593 
L 310.390118 -141.485978 
L 310.436572 -140.583362 
L 310.485248 -139.680747 
L 310.536008 -138.778132 
L 310.588704 -137.875517 
L 310.643177 -136.972902 
L 310.699257 -136.070286 
L 310.756763 -135.167671 
L 310.815508 -134.265056 
L 310.875295 -133.362441 
L 310.935917 -132.459826 
L 310.997165 -131.55721 
L 311.05882 -130.654595 
L 311.12066 -129.75198 
L 311.182458 -128.849365 
L 311.243984 -127.94675 
L 311.305005 -127.044134 
L 311.365289 -126.141519 
L 311.424603 -125.238904 
L 311.482715 -124.336289 
L 311.539395 -123.433674 
L 311.594416 -122.531059 
L 311.647556 -121.628443 
L 311.6986 -120.725828 
L 311.747337 -119.823213 
L 311.793565 -118.920598 
L 311.837091 -118.017983 
L 311.87773 -117.115367 
L 311.915311 -116.212752 
L 311.949672 -115.310137 
L 311.980664 -114.407522 
L 312.00815 -113.504907 
L 312.032011 -112.602291 
L 312.052137 -111.699676 
L 312.068436 -110.797061 
L 312.080833 -109.894446 
L 312.089267 -108.991831 
L 312.093692 -108.089215 
L 312.09408 -107.1866 
L 312.09042 -106.283985 
L 312.082716 -105.38137 
L 312.07099 -104.478755 
L 312.055277 -103.576139 
L 312.035631 -102.673524 
L 312.01212 -101.770909 
L 311.984827 -100.868294 
L 311.953849 -99.965679 
z
" id="ma98b981896" style="stroke:#4c4c4c;stroke-width:1.5;"/>
    </defs>
    <g clip-path="url(#p5676578cf9)">
     <use style="fill:#cc8963;stroke:#4c4c4c;stroke-width:1.5;" x="0" xlink:href="#ma98b981896" y="432"/>
    </g>
   </g>
   <g id="PolyCollection_3">
    <defs>
     <path d="M 466.081875 -82.635467 
L 419.518125 -82.635467 
L 417.513132 -84.985002 
L 415.488092 -87.334536 
L 413.460439 -89.684071 
L 411.447757 -92.033606 
L 409.467307 -94.38314 
L 407.535548 -96.732675 
L 405.667702 -99.08221 
L 403.877356 -101.431745 
L 402.176138 -103.781279 
L 400.573486 -106.130814 
L 399.076512 -108.480349 
L 397.689988 -110.829883 
L 396.416438 -113.179418 
L 395.256342 -115.528953 
L 394.208443 -117.878487 
L 393.270132 -120.228022 
L 392.43789 -122.577557 
L 391.707769 -124.927092 
L 391.075864 -127.276626 
L 390.538763 -129.626161 
L 390.093938 -131.975696 
L 389.740053 -134.32523 
L 389.477165 -136.674765 
L 389.306817 -139.0243 
L 389.232 -141.373834 
L 389.257004 -143.723369 
L 389.387156 -146.072904 
L 389.628475 -148.422439 
L 389.987245 -150.771973 
L 390.469566 -153.121508 
L 391.080877 -155.471043 
L 391.825502 -157.820577 
L 392.706241 -160.170112 
L 393.724021 -162.519647 
L 394.877629 -164.869181 
L 396.163544 -167.218716 
L 397.575865 -169.568251 
L 399.106339 -171.917786 
L 400.744488 -174.26732 
L 402.477818 -176.616855 
L 404.292105 -178.96639 
L 406.171735 -181.315924 
L 408.100088 -183.665459 
L 410.05995 -186.014994 
L 412.033926 -188.364528 
L 414.004851 -190.714063 
L 415.956177 -193.063598 
L 417.872324 -195.413133 
L 419.738983 -197.762667 
L 421.543364 -200.112202 
L 423.274388 -202.461737 
L 424.922802 -204.811271 
L 426.481241 -207.160806 
L 427.944213 -209.510341 
L 429.308034 -211.859875 
L 430.570707 -214.20941 
L 431.73176 -216.558945 
L 432.792048 -218.90848 
L 433.753543 -221.258014 
L 434.619116 -223.607549 
L 435.392318 -225.957084 
L 436.07719 -228.306618 
L 436.678086 -230.656153 
L 437.199536 -233.005688 
L 437.646138 -235.355222 
L 438.022494 -237.704757 
L 438.333169 -240.054292 
L 438.582686 -242.403827 
L 438.775541 -244.753361 
L 438.916232 -247.102896 
L 439.009295 -249.452431 
L 439.05934 -251.801965 
L 439.071072 -254.1515 
L 439.049311 -256.501035 
L 438.998983 -258.850569 
L 438.925093 -261.200104 
L 438.832691 -263.549639 
L 438.726808 -265.899174 
L 438.612387 -268.248708 
L 438.49421 -270.598243 
L 438.376813 -272.947778 
L 438.264417 -275.297312 
L 438.160856 -277.646847 
L 438.069524 -279.996382 
L 437.993339 -282.345916 
L 437.934713 -284.695451 
L 437.89555 -287.044986 
L 437.877253 -289.394521 
L 437.880742 -291.744055 
L 437.906489 -294.09359 
L 437.954551 -296.443125 
L 438.024612 -298.792659 
L 438.116022 -301.142194 
L 438.227837 -303.491729 
L 438.358851 -305.841263 
L 438.507632 -308.190798 
L 438.672547 -310.540333 
L 438.851786 -312.889868 
L 439.043388 -315.239402 
L 446.556612 -315.239402 
L 446.556612 -315.239402 
L 446.748214 -312.889868 
L 446.927453 -310.540333 
L 447.092368 -308.190798 
L 447.241149 -305.841263 
L 447.372163 -303.491729 
L 447.483978 -301.142194 
L 447.575388 -298.792659 
L 447.645449 -296.443125 
L 447.693511 -294.09359 
L 447.719258 -291.744055 
L 447.722747 -289.394521 
L 447.70445 -287.044986 
L 447.665287 -284.695451 
L 447.606661 -282.345916 
L 447.530476 -279.996382 
L 447.439144 -277.646847 
L 447.335583 -275.297312 
L 447.223187 -272.947778 
L 447.10579 -270.598243 
L 446.987613 -268.248708 
L 446.873192 -265.899174 
L 446.767309 -263.549639 
L 446.674907 -261.200104 
L 446.601017 -258.850569 
L 446.550689 -256.501035 
L 446.528928 -254.1515 
L 446.54066 -251.801965 
L 446.590705 -249.452431 
L 446.683768 -247.102896 
L 446.824459 -244.753361 
L 447.017314 -242.403827 
L 447.266831 -240.054292 
L 447.577506 -237.704757 
L 447.953862 -235.355222 
L 448.400464 -233.005688 
L 448.921914 -230.656153 
L 449.52281 -228.306618 
L 450.207682 -225.957084 
L 450.980884 -223.607549 
L 451.846457 -221.258014 
L 452.807952 -218.90848 
L 453.86824 -216.558945 
L 455.029293 -214.20941 
L 456.291966 -211.859875 
L 457.655787 -209.510341 
L 459.118759 -207.160806 
L 460.677198 -204.811271 
L 462.325612 -202.461737 
L 464.056636 -200.112202 
L 465.861017 -197.762667 
L 467.727676 -195.413133 
L 469.643823 -193.063598 
L 471.595149 -190.714063 
L 473.566074 -188.364528 
L 475.54005 -186.014994 
L 477.499912 -183.665459 
L 479.428265 -181.315924 
L 481.307895 -178.96639 
L 483.122182 -176.616855 
L 484.855512 -174.26732 
L 486.493661 -171.917786 
L 488.024135 -169.568251 
L 489.436456 -167.218716 
L 490.722371 -164.869181 
L 491.875979 -162.519647 
L 492.893759 -160.170112 
L 493.774498 -157.820577 
L 494.519123 -155.471043 
L 495.130434 -153.121508 
L 495.612755 -150.771973 
L 495.971525 -148.422439 
L 496.212844 -146.072904 
L 496.342996 -143.723369 
L 496.368 -141.373834 
L 496.293183 -139.0243 
L 496.122835 -136.674765 
L 495.859947 -134.32523 
L 495.506062 -131.975696 
L 495.061237 -129.626161 
L 494.524136 -127.276626 
L 493.892231 -124.927092 
L 493.16211 -122.577557 
L 492.329868 -120.228022 
L 491.391557 -117.878487 
L 490.343658 -115.528953 
L 489.183562 -113.179418 
L 487.910012 -110.829883 
L 486.523488 -108.480349 
L 485.026514 -106.130814 
L 483.423862 -103.781279 
L 481.722644 -101.431745 
L 479.932298 -99.08221 
L 478.064452 -96.732675 
L 476.132693 -94.38314 
L 474.152243 -92.033606 
L 472.139561 -89.684071 
L 470.111908 -87.334536 
L 468.086868 -84.985002 
L 466.081875 -82.635467 
z
" id="m183357ce07" style="stroke:#4c4c4c;stroke-width:1.5;"/>
    </defs>
    <g clip-path="url(#p5676578cf9)">
     <use style="fill:#5f9e6e;stroke:#4c4c4c;stroke-width:1.5;" x="0" xlink:href="#m183357ce07" y="432"/>
    </g>
   </g>
   <g id="PolyCollection_4">
    <defs>
     <path d="M 586.45105 -81.01076 
L 566.98895 -81.01076 
L 566.683712 -82.104839 
L 566.390499 -83.198918 
L 566.109973 -84.292997 
L 565.842629 -85.387076 
L 565.588796 -86.481155 
L 565.348637 -87.575234 
L 565.122152 -88.669313 
L 564.909187 -89.763392 
L 564.709439 -90.857471 
L 564.522473 -91.95155 
L 564.347735 -93.045629 
L 564.184566 -94.139708 
L 564.032219 -95.233787 
L 563.889882 -96.327866 
L 563.756692 -97.421945 
L 563.631758 -98.516024 
L 563.51418 -99.610103 
L 563.403068 -100.704182 
L 563.297559 -101.798261 
L 563.196838 -102.89234 
L 563.100151 -103.986419 
L 563.006821 -105.080498 
L 562.91626 -106.174577 
L 562.827981 -107.268656 
L 562.741604 -108.362735 
L 562.656865 -109.456814 
L 562.573617 -110.550893 
L 562.491834 -111.644972 
L 562.41161 -112.739051 
L 562.333151 -113.83313 
L 562.256774 -114.927209 
L 562.1829 -116.021288 
L 562.112039 -117.115367 
L 562.044784 -118.209446 
L 561.981794 -119.303525 
L 561.923782 -120.397604 
L 561.8715 -121.491683 
L 561.82572 -122.585762 
L 561.787223 -123.679842 
L 561.756777 -124.773921 
L 561.735127 -125.868 
L 561.722973 -126.962079 
L 561.72096 -128.056158 
L 561.729664 -129.150237 
L 561.749578 -130.244316 
L 561.781102 -131.338395 
L 561.824534 -132.432474 
L 561.880062 -133.526553 
L 561.94776 -134.620632 
L 562.027583 -135.714711 
L 562.119368 -136.80879 
L 562.22283 -137.902869 
L 562.337569 -138.996948 
L 562.463071 -140.091027 
L 562.598719 -141.185106 
L 562.743795 -142.279185 
L 562.897494 -143.373264 
L 563.058932 -144.467343 
L 563.227161 -145.561422 
L 563.401184 -146.655501 
L 563.579965 -147.74958 
L 563.762448 -148.843659 
L 563.947572 -149.937738 
L 564.134288 -151.031817 
L 564.321574 -152.125896 
L 564.508455 -153.219975 
L 564.694013 -154.314054 
L 564.877407 -155.408133 
L 565.057887 -156.502212 
L 565.234803 -157.596291 
L 565.407621 -158.69037 
L 565.57593 -159.784449 
L 565.739449 -160.878528 
L 565.898036 -161.972607 
L 566.051686 -163.066686 
L 566.200533 -164.160765 
L 566.344849 -165.254844 
L 566.485039 -166.348923 
L 566.621632 -167.443002 
L 566.75527 -168.537081 
L 566.886696 -169.63116 
L 567.016743 -170.725239 
L 567.146309 -171.819318 
L 567.276347 -172.913397 
L 567.407839 -174.007477 
L 567.541778 -175.101556 
L 567.679148 -176.195635 
L 567.820897 -177.289714 
L 567.967926 -178.383793 
L 568.121061 -179.477872 
L 568.281035 -180.571951 
L 568.448479 -181.66603 
L 568.623897 -182.760109 
L 568.807662 -183.854188 
L 569.000004 -184.948267 
L 569.201002 -186.042346 
L 569.410585 -187.136425 
L 569.628527 -188.230504 
L 569.854452 -189.324583 
L 583.585548 -189.324583 
L 583.585548 -189.324583 
L 583.811473 -188.230504 
L 584.029415 -187.136425 
L 584.238998 -186.042346 
L 584.439996 -184.948267 
L 584.632338 -183.854188 
L 584.816103 -182.760109 
L 584.991521 -181.66603 
L 585.158965 -180.571951 
L 585.318939 -179.477872 
L 585.472074 -178.383793 
L 585.619103 -177.289714 
L 585.760852 -176.195635 
L 585.898222 -175.101556 
L 586.032161 -174.007477 
L 586.163653 -172.913397 
L 586.293691 -171.819318 
L 586.423257 -170.725239 
L 586.553304 -169.63116 
L 586.68473 -168.537081 
L 586.818368 -167.443002 
L 586.954961 -166.348923 
L 587.095151 -165.254844 
L 587.239467 -164.160765 
L 587.388314 -163.066686 
L 587.541964 -161.972607 
L 587.700551 -160.878528 
L 587.86407 -159.784449 
L 588.032379 -158.69037 
L 588.205197 -157.596291 
L 588.382113 -156.502212 
L 588.562593 -155.408133 
L 588.745987 -154.314054 
L 588.931545 -153.219975 
L 589.118426 -152.125896 
L 589.305712 -151.031817 
L 589.492428 -149.937738 
L 589.677552 -148.843659 
L 589.860035 -147.74958 
L 590.038816 -146.655501 
L 590.212839 -145.561422 
L 590.381068 -144.467343 
L 590.542506 -143.373264 
L 590.696205 -142.279185 
L 590.841281 -141.185106 
L 590.976929 -140.091027 
L 591.102431 -138.996948 
L 591.21717 -137.902869 
L 591.320632 -136.80879 
L 591.412417 -135.714711 
L 591.49224 -134.620632 
L 591.559938 -133.526553 
L 591.615466 -132.432474 
L 591.658898 -131.338395 
L 591.690422 -130.244316 
L 591.710336 -129.150237 
L 591.71904 -128.056158 
L 591.717027 -126.962079 
L 591.704873 -125.868 
L 591.683223 -124.773921 
L 591.652777 -123.679842 
L 591.61428 -122.585762 
L 591.5685 -121.491683 
L 591.516218 -120.397604 
L 591.458206 -119.303525 
L 591.395216 -118.209446 
L 591.327961 -117.115367 
L 591.2571 -116.021288 
L 591.183226 -114.927209 
L 591.106849 -113.83313 
L 591.02839 -112.739051 
L 590.948166 -111.644972 
L 590.866383 -110.550893 
L 590.783135 -109.456814 
L 590.698396 -108.362735 
L 590.612019 -107.268656 
L 590.52374 -106.174577 
L 590.433179 -105.080498 
L 590.339849 -103.986419 
L 590.243162 -102.89234 
L 590.142441 -101.798261 
L 590.036932 -100.704182 
L 589.92582 -99.610103 
L 589.808242 -98.516024 
L 589.683308 -97.421945 
L 589.550118 -96.327866 
L 589.407781 -95.233787 
L 589.255434 -94.139708 
L 589.092265 -93.045629 
L 588.917527 -91.95155 
L 588.730561 -90.857471 
L 588.530813 -89.763392 
L 588.317848 -88.669313 
L 588.091363 -87.575234 
L 587.851204 -86.481155 
L 587.597371 -85.387076 
L 587.330027 -84.292997 
L 587.049501 -83.198918 
L 586.756288 -82.104839 
L 586.45105 -81.01076 
z
" id="ma84434e2e5" style="stroke:#4c4c4c;stroke-width:1.5;"/>
    </defs>
    <g clip-path="url(#p5676578cf9)">
     <use style="fill:#b55d60;stroke:#4c4c4c;stroke-width:1.5;" x="0" xlink:href="#ma84434e2e5" y="432"/>
    </g>
   </g>
   <g id="PolyCollection_5">
    <defs>
     <path d="M 712.779471 -201.509888 
L 708.500529 -201.509888 
L 708.498165 -201.865464 
L 708.49728 -202.221039 
L 708.497855 -202.576615 
L 708.499866 -202.932191 
L 708.503283 -203.287766 
L 708.508074 -203.643342 
L 708.5142 -203.998918 
L 708.521619 -204.354493 
L 708.530285 -204.710069 
L 708.540147 -205.065645 
L 708.55115 -205.42122 
L 708.563238 -205.776796 
L 708.576348 -206.132372 
L 708.590415 -206.487947 
L 708.605372 -206.843523 
L 708.621148 -207.199099 
L 708.637668 -207.554675 
L 708.654858 -207.91025 
L 708.67264 -208.265826 
L 708.690934 -208.621402 
L 708.709659 -208.976977 
L 708.728733 -209.332553 
L 708.748073 -209.688129 
L 708.767594 -210.043704 
L 708.787214 -210.39928 
L 708.806848 -210.754856 
L 708.826413 -211.110431 
L 708.845826 -211.466007 
L 708.865004 -211.821583 
L 708.883868 -212.177158 
L 708.902338 -212.532734 
L 708.920338 -212.88831 
L 708.937791 -213.243885 
L 708.954626 -213.599461 
L 708.970773 -213.955037 
L 708.986166 -214.310612 
L 709.000739 -214.666188 
L 709.014435 -215.021764 
L 709.027195 -215.37734 
L 709.038969 -215.732915 
L 709.049707 -216.088491 
L 709.059365 -216.444067 
L 709.067904 -216.799642 
L 709.075289 -217.155218 
L 709.08149 -217.510794 
L 709.086482 -217.866369 
L 709.090243 -218.221945 
L 709.09276 -218.577521 
L 709.09402 -218.933096 
L 709.09402 -219.288672 
L 709.09276 -219.644248 
L 709.090243 -219.999823 
L 709.086482 -220.355399 
L 709.08149 -220.710975 
L 709.075289 -221.06655 
L 709.067904 -221.422126 
L 709.059365 -221.777702 
L 709.049707 -222.133277 
L 709.038969 -222.488853 
L 709.027195 -222.844429 
L 709.014435 -223.200005 
L 709.000739 -223.55558 
L 708.986166 -223.911156 
L 708.970773 -224.266732 
L 708.954626 -224.622307 
L 708.937791 -224.977883 
L 708.920338 -225.333459 
L 708.902338 -225.689034 
L 708.883868 -226.04461 
L 708.865004 -226.400186 
L 708.845826 -226.755761 
L 708.826413 -227.111337 
L 708.806848 -227.466913 
L 708.787214 -227.822488 
L 708.767594 -228.178064 
L 708.748073 -228.53364 
L 708.728733 -228.889215 
L 708.709659 -229.244791 
L 708.690934 -229.600367 
L 708.67264 -229.955942 
L 708.654858 -230.311518 
L 708.637668 -230.667094 
L 708.621148 -231.02267 
L 708.605372 -231.378245 
L 708.590415 -231.733821 
L 708.576348 -232.089397 
L 708.563238 -232.444972 
L 708.55115 -232.800548 
L 708.540147 -233.156124 
L 708.530285 -233.511699 
L 708.521619 -233.867275 
L 708.5142 -234.222851 
L 708.508074 -234.578426 
L 708.503283 -234.934002 
L 708.499866 -235.289578 
L 708.497855 -235.645153 
L 708.49728 -236.000729 
L 708.498165 -236.356305 
L 708.500529 -236.71188 
L 712.779471 -236.71188 
L 712.779471 -236.71188 
L 712.781835 -236.356305 
L 712.78272 -236.000729 
L 712.782145 -235.645153 
L 712.780134 -235.289578 
L 712.776717 -234.934002 
L 712.771926 -234.578426 
L 712.7658 -234.222851 
L 712.758381 -233.867275 
L 712.749715 -233.511699 
L 712.739853 -233.156124 
L 712.72885 -232.800548 
L 712.716762 -232.444972 
L 712.703652 -232.089397 
L 712.689585 -231.733821 
L 712.674628 -231.378245 
L 712.658852 -231.02267 
L 712.642332 -230.667094 
L 712.625142 -230.311518 
L 712.60736 -229.955942 
L 712.589066 -229.600367 
L 712.570341 -229.244791 
L 712.551267 -228.889215 
L 712.531927 -228.53364 
L 712.512406 -228.178064 
L 712.492786 -227.822488 
L 712.473152 -227.466913 
L 712.453587 -227.111337 
L 712.434174 -226.755761 
L 712.414996 -226.400186 
L 712.396132 -226.04461 
L 712.377662 -225.689034 
L 712.359662 -225.333459 
L 712.342209 -224.977883 
L 712.325374 -224.622307 
L 712.309227 -224.266732 
L 712.293834 -223.911156 
L 712.279261 -223.55558 
L 712.265565 -223.200005 
L 712.252805 -222.844429 
L 712.241031 -222.488853 
L 712.230293 -222.133277 
L 712.220635 -221.777702 
L 712.212096 -221.422126 
L 712.204711 -221.06655 
L 712.19851 -220.710975 
L 712.193518 -220.355399 
L 712.189757 -219.999823 
L 712.18724 -219.644248 
L 712.18598 -219.288672 
L 712.18598 -218.933096 
L 712.18724 -218.577521 
L 712.189757 -218.221945 
L 712.193518 -217.866369 
L 712.19851 -217.510794 
L 712.204711 -217.155218 
L 712.212096 -216.799642 
L 712.220635 -216.444067 
L 712.230293 -216.088491 
L 712.241031 -215.732915 
L 712.252805 -215.37734 
L 712.265565 -215.021764 
L 712.279261 -214.666188 
L 712.293834 -214.310612 
L 712.309227 -213.955037 
L 712.325374 -213.599461 
L 712.342209 -213.243885 
L 712.359662 -212.88831 
L 712.377662 -212.532734 
L 712.396132 -212.177158 
L 712.414996 -211.821583 
L 712.434174 -211.466007 
L 712.453587 -211.110431 
L 712.473152 -210.754856 
L 712.492786 -210.39928 
L 712.512406 -210.043704 
L 712.531927 -209.688129 
L 712.551267 -209.332553 
L 712.570341 -208.976977 
L 712.589066 -208.621402 
L 712.60736 -208.265826 
L 712.625142 -207.91025 
L 712.642332 -207.554675 
L 712.658852 -207.199099 
L 712.674628 -206.843523 
L 712.689585 -206.487947 
L 712.703652 -206.132372 
L 712.716762 -205.776796 
L 712.72885 -205.42122 
L 712.739853 -205.065645 
L 712.749715 -204.710069 
L 712.758381 -204.354493 
L 712.7658 -203.998918 
L 712.771926 -203.643342 
L 712.776717 -203.287766 
L 712.780134 -202.932191 
L 712.782145 -202.576615 
L 712.78272 -202.221039 
L 712.781835 -201.865464 
L 712.779471 -201.509888 
z
" id="m1dc916ca92" style="stroke:#4c4c4c;stroke-width:1.5;"/>
    </defs>
    <g clip-path="url(#p5676578cf9)">
     <use style="fill:#857aab;stroke:#4c4c4c;stroke-width:1.5;" x="0" xlink:href="#m1dc916ca92" y="432"/>
    </g>
   </g>
   <g id="line2d_6">
    <path clip-path="url(#p5676578cf9)" d="M 171.778061 343.542665 
L 178.141939 343.542665 
" style="fill:none;stroke:#4c4c4c;stroke-dasharray:3.375,3.375;stroke-dashoffset:0;stroke-width:1.5;"/>
   </g>
   <g id="line2d_7">
    <path clip-path="url(#p5676578cf9)" d="M 171.857244 323.910785 
L 178.062756 323.910785 
" style="fill:none;stroke:#4c4c4c;stroke-dasharray:6.75,6.75;stroke-dashoffset:0;stroke-width:1.5;"/>
   </g>
   <g id="line2d_8">
    <path clip-path="url(#p5676578cf9)" d="M 173.858748 195.28812 
L 176.061252 195.28812 
" style="fill:none;stroke:#4c4c4c;stroke-dasharray:3.375,3.375;stroke-dashoffset:0;stroke-width:1.5;"/>
   </g>
   <g id="line2d_9">
    <path clip-path="url(#p5676578cf9)" d="M 305.698061 324.587746 
L 312.061939 324.587746 
" style="fill:none;stroke:#4c4c4c;stroke-dasharray:3.375,3.375;stroke-dashoffset:0;stroke-width:1.5;"/>
   </g>
   <g id="line2d_10">
    <path clip-path="url(#p5676578cf9)" d="M 305.810343 317.141171 
L 311.949657 317.141171 
" style="fill:none;stroke:#4c4c4c;stroke-dasharray:6.75,6.75;stroke-dashoffset:0;stroke-width:1.5;"/>
   </g>
   <g id="line2d_11">
    <path clip-path="url(#p5676578cf9)" d="M 307.732582 279.908294 
L 310.027418 279.908294 
" style="fill:none;stroke:#4c4c4c;stroke-dasharray:3.375,3.375;stroke-dashoffset:0;stroke-width:1.5;"/>
   </g>
   <g id="line2d_12">
    <path clip-path="url(#p5676578cf9)" d="M 395.731779 316.294969 
L 489.868221 316.294969 
" style="fill:none;stroke:#4c4c4c;stroke-dasharray:3.375,3.375;stroke-dashoffset:0;stroke-width:1.5;"/>
   </g>
   <g id="line2d_13">
    <path clip-path="url(#p5676578cf9)" d="M 389.921285 284.782416 
L 495.678715 284.782416 
" style="fill:none;stroke:#4c4c4c;stroke-dasharray:6.75,6.75;stroke-dashoffset:0;stroke-width:1.5;"/>
   </g>
   <g id="line2d_14">
    <path clip-path="url(#p5676578cf9)" d="M 398.028106 261.461096 
L 487.571894 261.461096 
" style="fill:none;stroke:#4c4c4c;stroke-dasharray:3.375,3.375;stroke-dashoffset:0;stroke-width:1.5;"/>
   </g>
   <g id="line2d_15">
    <path clip-path="url(#p5676578cf9)" d="M 563.143953 327.126351 
L 590.296047 327.126351 
" style="fill:none;stroke:#4c4c4c;stroke-dasharray:3.375,3.375;stroke-dashoffset:0;stroke-width:1.5;"/>
   </g>
   <g id="line2d_16">
    <path clip-path="url(#p5676578cf9)" d="M 561.87095 304.278904 
L 591.56905 304.278904 
" style="fill:none;stroke:#4c4c4c;stroke-dasharray:6.75,6.75;stroke-dashoffset:0;stroke-width:1.5;"/>
   </g>
   <g id="line2d_17">
    <path clip-path="url(#p5676578cf9)" d="M 564.445559 280.077534 
L 588.994441 280.077534 
" style="fill:none;stroke:#4c4c4c;stroke-dasharray:3.375,3.375;stroke-dashoffset:0;stroke-width:1.5;"/>
   </g>
   <g id="line2d_18">
    <path clip-path="url(#p5676578cf9)" d="M 708.805742 221.689614 
L 712.474258 221.689614 
" style="fill:none;stroke:#4c4c4c;stroke-dasharray:3.375,3.375;stroke-dashoffset:0;stroke-width:1.5;"/>
   </g>
   <g id="line2d_19">
    <path clip-path="url(#p5676578cf9)" d="M 709.10948 212.889116 
L 712.17052 212.889116 
" style="fill:none;stroke:#4c4c4c;stroke-dasharray:6.75,6.75;stroke-dashoffset:0;stroke-width:1.5;"/>
   </g>
   <g id="line2d_20">
    <path clip-path="url(#p5676578cf9)" d="M 708.805742 204.088618 
L 712.474258 204.088618 
" style="fill:none;stroke:#4c4c4c;stroke-dasharray:3.375,3.375;stroke-dashoffset:0;stroke-width:1.5;"/>
   </g>
   <g id="patch_3">
    <path d="M 108 378 
L 108 51.84 
" style="fill:none;stroke:#ffffff;stroke-linecap:square;stroke-linejoin:miter;stroke-width:1.25;"/>
   </g>
   <g id="patch_4">
    <path d="M 777.6 378 
L 777.6 51.84 
" style="fill:none;stroke:#ffffff;stroke-linecap:square;stroke-linejoin:miter;stroke-width:1.25;"/>
   </g>
   <g id="patch_5">
    <path d="M 108 378 
L 777.6 378 
" style="fill:none;stroke:#ffffff;stroke-linecap:square;stroke-linejoin:miter;stroke-width:1.25;"/>
   </g>
   <g id="patch_6">
    <path d="M 108 51.84 
L 777.6 51.84 
" style="fill:none;stroke:#ffffff;stroke-linecap:square;stroke-linejoin:miter;stroke-width:1.25;"/>
   </g>
   <g id="text_13">
    <!-- Compensation Distribution by Education -->
    <defs>
     <path d="M 14.703125 0 
L 6.546875 0 
L 6.546875 71.578125 
L 15.328125 71.578125 
L 15.328125 46.046875 
Q 20.90625 53.03125 29.546875 53.03125 
Q 34.328125 53.03125 38.59375 51.09375 
Q 42.875 49.171875 45.625 45.671875 
Q 48.390625 42.1875 49.953125 37.25 
Q 51.515625 32.328125 51.515625 26.703125 
Q 51.515625 13.375 44.921875 6.09375 
Q 38.328125 -1.171875 29.109375 -1.171875 
Q 19.921875 -1.171875 14.703125 6.5 
z
M 14.59375 26.3125 
Q 14.59375 17 17.140625 12.84375 
Q 21.296875 6.0625 28.375 6.0625 
Q 34.125 6.0625 38.328125 11.0625 
Q 42.53125 16.0625 42.53125 25.984375 
Q 42.53125 36.140625 38.5 40.96875 
Q 34.46875 45.796875 28.765625 45.796875 
Q 23 45.796875 18.796875 40.796875 
Q 14.59375 35.796875 14.59375 26.3125 
z
" id="ArialMT-98"/>
    </defs>
    <g style="fill:#262626;" transform="translate(336.080625 45.84)scale(0.12 -0.12)">
     <use xlink:href="#ArialMT-67"/>
     <use x="72.216797" xlink:href="#ArialMT-111"/>
     <use x="127.832031" xlink:href="#ArialMT-109"/>
     <use x="211.132812" xlink:href="#ArialMT-112"/>
     <use x="266.748047" xlink:href="#ArialMT-101"/>
     <use x="322.363281" xlink:href="#ArialMT-110"/>
     <use x="377.978516" xlink:href="#ArialMT-115"/>
     <use x="427.978516" xlink:href="#ArialMT-97"/>
     <use x="483.59375" xlink:href="#ArialMT-116"/>
     <use x="511.376953" xlink:href="#ArialMT-105"/>
     <use x="533.59375" xlink:href="#ArialMT-111"/>
     <use x="589.208984" xlink:href="#ArialMT-110"/>
     <use x="644.824219" xlink:href="#ArialMT-32"/>
     <use x="672.607422" xlink:href="#ArialMT-68"/>
     <use x="744.824219" xlink:href="#ArialMT-105"/>
     <use x="767.041016" xlink:href="#ArialMT-115"/>
     <use x="817.041016" xlink:href="#ArialMT-116"/>
     <use x="844.824219" xlink:href="#ArialMT-114"/>
     <use x="878.125" xlink:href="#ArialMT-105"/>
     <use x="900.341797" xlink:href="#ArialMT-98"/>
     <use x="955.957031" xlink:href="#ArialMT-117"/>
     <use x="1011.572266" xlink:href="#ArialMT-116"/>
     <use x="1039.355469" xlink:href="#ArialMT-105"/>
     <use x="1061.572266" xlink:href="#ArialMT-111"/>
     <use x="1117.1875" xlink:href="#ArialMT-110"/>
     <use x="1172.802734" xlink:href="#ArialMT-32"/>
     <use x="1200.585938" xlink:href="#ArialMT-98"/>
     <use x="1256.201172" xlink:href="#ArialMT-121"/>
     <use x="1306.201172" xlink:href="#ArialMT-32"/>
     <use x="1333.984375" xlink:href="#ArialMT-69"/>
     <use x="1400.683594" xlink:href="#ArialMT-100"/>
     <use x="1456.298828" xlink:href="#ArialMT-117"/>
     <use x="1511.914062" xlink:href="#ArialMT-99"/>
     <use x="1561.914062" xlink:href="#ArialMT-97"/>
     <use x="1617.529297" xlink:href="#ArialMT-116"/>
     <use x="1645.3125" xlink:href="#ArialMT-105"/>
     <use x="1667.529297" xlink:href="#ArialMT-111"/>
     <use x="1723.144531" xlink:href="#ArialMT-110"/>
    </g>
   </g>
  </g>
 </g>
 <defs>
  <clipPath id="p5676578cf9">
   <rect height="326.16" width="669.6" x="108" y="51.84"/>
  </clipPath>
 </defs>
</svg>
