<?xml version="1.0" encoding="utf-8" standalone="no"?>
<!DOCTYPE svg PUBLIC "-//W3C//DTD SVG 1.1//EN"
  "http://www.w3.org/Graphics/SVG/1.1/DTD/svg11.dtd">
<!-- Created with matplotlib (https://matplotlib.org/) -->
<svg height="432pt" version="1.1" viewBox="0 0 864 432" width="864pt" xmlns="http://www.w3.org/2000/svg" xmlns:xlink="http://www.w3.org/1999/xlink">
 <defs>
  <style type="text/css">
*{stroke-linecap:butt;stroke-linejoin:round;white-space:pre;}
  </style>
 </defs>
 <g id="figure_1">
  <g id="patch_1">
   <path d="M 0 432 
L 864 432 
L 864 0 
L 0 0 
z
" style="fill:#ffffff;"/>
  </g>
  <g id="axes_1">
   <g id="patch_2">
    <path d="M 108 378 
L 777.6 378 
L 777.6 51.84 
L 108 51.84 
z
" style="fill:#eaeaf2;"/>
   </g>
   <g id="matplotlib.axis_1">
    <g id="xtick_1">
     <g id="text_1">
      <!-- &lt;=2 -->
      <defs>
       <path d="M 5.46875 31.296875 
L 5.46875 39.5 
L 52.875 59.515625 
L 52.875 50.78125 
L 15.28125 35.359375 
L 52.875 19.78125 
L 52.875 11.03125 
z
" id="ArialMT-60"/>
       <path d="M 52.828125 42.09375 
L 5.5625 42.09375 
L 5.5625 50.296875 
L 52.828125 50.296875 
z
M 52.828125 20.359375 
L 5.5625 20.359375 
L 5.5625 28.5625 
L 52.828125 28.5625 
z
" id="ArialMT-61"/>
       <path d="M 50.34375 8.453125 
L 50.34375 0 
L 3.03125 0 
Q 2.9375 3.171875 4.046875 6.109375 
Q 5.859375 10.9375 9.828125 15.625 
Q 13.8125 20.3125 21.34375 26.46875 
Q 33.015625 36.03125 37.109375 41.625 
Q 41.21875 47.21875 41.21875 52.203125 
Q 41.21875 57.421875 37.46875 61 
Q 33.734375 64.59375 27.734375 64.59375 
Q 21.390625 64.59375 17.578125 60.78125 
Q 13.765625 56.984375 13.71875 50.25 
L 4.6875 51.171875 
Q 5.609375 61.28125 11.65625 66.578125 
Q 17.71875 71.875 27.9375 71.875 
Q 38.234375 71.875 44.234375 66.15625 
Q 50.25 60.453125 50.25 52 
Q 50.25 47.703125 48.484375 43.546875 
Q 46.734375 39.40625 42.65625 34.8125 
Q 38.578125 30.21875 29.109375 22.21875 
Q 21.1875 15.578125 18.9375 13.203125 
Q 16.703125 10.84375 15.234375 8.453125 
z
" id="ArialMT-50"/>
      </defs>
      <g style="fill:#262626;" transform="translate(154.316797 395.373594)scale(0.11 -0.11)">
       <use xlink:href="#ArialMT-60"/>
       <use x="58.398438" xlink:href="#ArialMT-61"/>
       <use x="116.796875" xlink:href="#ArialMT-50"/>
      </g>
     </g>
    </g>
    <g id="xtick_2">
     <g id="text_2">
      <!-- 3-5 -->
      <defs>
       <path d="M 4.203125 18.890625 
L 12.984375 20.0625 
Q 14.5 12.59375 18.140625 9.296875 
Q 21.78125 6 27 6 
Q 33.203125 6 37.46875 10.296875 
Q 41.75 14.59375 41.75 20.953125 
Q 41.75 27 37.796875 30.921875 
Q 33.84375 34.859375 27.734375 34.859375 
Q 25.25 34.859375 21.53125 33.890625 
L 22.515625 41.609375 
Q 23.390625 41.5 23.921875 41.5 
Q 29.546875 41.5 34.03125 44.421875 
Q 38.53125 47.359375 38.53125 53.46875 
Q 38.53125 58.296875 35.25 61.46875 
Q 31.984375 64.65625 26.8125 64.65625 
Q 21.6875 64.65625 18.265625 61.421875 
Q 14.84375 58.203125 13.875 51.765625 
L 5.078125 53.328125 
Q 6.6875 62.15625 12.390625 67.015625 
Q 18.109375 71.875 26.609375 71.875 
Q 32.46875 71.875 37.390625 69.359375 
Q 42.328125 66.84375 44.9375 62.5 
Q 47.5625 58.15625 47.5625 53.265625 
Q 47.5625 48.640625 45.0625 44.828125 
Q 42.578125 41.015625 37.703125 38.765625 
Q 44.046875 37.3125 47.5625 32.6875 
Q 51.078125 28.078125 51.078125 21.140625 
Q 51.078125 11.765625 44.234375 5.25 
Q 37.40625 -1.265625 26.953125 -1.265625 
Q 17.53125 -1.265625 11.296875 4.34375 
Q 5.078125 9.96875 4.203125 18.890625 
z
" id="ArialMT-51"/>
       <path d="M 3.171875 21.484375 
L 3.171875 30.328125 
L 30.171875 30.328125 
L 30.171875 21.484375 
z
" id="ArialMT-45"/>
       <path d="M 4.15625 18.75 
L 13.375 19.53125 
Q 14.40625 12.796875 18.140625 9.390625 
Q 21.875 6 27.15625 6 
Q 33.5 6 37.890625 10.78125 
Q 42.28125 15.578125 42.28125 23.484375 
Q 42.28125 31 38.0625 35.34375 
Q 33.84375 39.703125 27 39.703125 
Q 22.75 39.703125 19.328125 37.765625 
Q 15.921875 35.84375 13.96875 32.765625 
L 5.71875 33.84375 
L 12.640625 70.609375 
L 48.25 70.609375 
L 48.25 62.203125 
L 19.671875 62.203125 
L 15.828125 42.96875 
Q 22.265625 47.46875 29.34375 47.46875 
Q 38.71875 47.46875 45.15625 40.96875 
Q 51.609375 34.46875 51.609375 24.265625 
Q 51.609375 14.546875 45.953125 7.46875 
Q 39.0625 -1.21875 27.15625 -1.21875 
Q 17.390625 -1.21875 11.203125 4.25 
Q 5.03125 9.71875 4.15625 18.75 
z
" id="ArialMT-53"/>
      </defs>
      <g style="fill:#262626;" transform="translate(267.451641 395.373594)scale(0.11 -0.11)">
       <use xlink:href="#ArialMT-51"/>
       <use x="55.615234" xlink:href="#ArialMT-45"/>
       <use x="88.916016" xlink:href="#ArialMT-53"/>
      </g>
     </g>
    </g>
    <g id="xtick_3">
     <g id="text_3">
      <!-- 6-10 -->
      <defs>
       <path d="M 49.75 54.046875 
L 41.015625 53.375 
Q 39.84375 58.546875 37.703125 60.890625 
Q 34.125 64.65625 28.90625 64.65625 
Q 24.703125 64.65625 21.53125 62.3125 
Q 17.390625 59.28125 14.984375 53.46875 
Q 12.59375 47.65625 12.5 36.921875 
Q 15.671875 41.75 20.265625 44.09375 
Q 24.859375 46.4375 29.890625 46.4375 
Q 38.671875 46.4375 44.84375 39.96875 
Q 51.03125 33.5 51.03125 23.25 
Q 51.03125 16.5 48.125 10.71875 
Q 45.21875 4.9375 40.140625 1.859375 
Q 35.0625 -1.21875 28.609375 -1.21875 
Q 17.625 -1.21875 10.6875 6.859375 
Q 3.765625 14.9375 3.765625 33.5 
Q 3.765625 54.25 11.421875 63.671875 
Q 18.109375 71.875 29.4375 71.875 
Q 37.890625 71.875 43.28125 67.140625 
Q 48.6875 62.40625 49.75 54.046875 
z
M 13.875 23.1875 
Q 13.875 18.65625 15.796875 14.5 
Q 17.71875 10.359375 21.1875 8.171875 
Q 24.65625 6 28.46875 6 
Q 34.03125 6 38.03125 10.484375 
Q 42.046875 14.984375 42.046875 22.703125 
Q 42.046875 30.125 38.078125 34.390625 
Q 34.125 38.671875 28.125 38.671875 
Q 22.171875 38.671875 18.015625 34.390625 
Q 13.875 30.125 13.875 23.1875 
z
" id="ArialMT-54"/>
       <path d="M 37.25 0 
L 28.46875 0 
L 28.46875 56 
Q 25.296875 52.984375 20.140625 49.953125 
Q 14.984375 46.921875 10.890625 45.40625 
L 10.890625 53.90625 
Q 18.265625 57.375 23.78125 62.296875 
Q 29.296875 67.234375 31.59375 71.875 
L 37.25 71.875 
z
" id="ArialMT-49"/>
       <path d="M 4.15625 35.296875 
Q 4.15625 48 6.765625 55.734375 
Q 9.375 63.484375 14.515625 67.671875 
Q 19.671875 71.875 27.484375 71.875 
Q 33.25 71.875 37.59375 69.546875 
Q 41.9375 67.234375 44.765625 62.859375 
Q 47.609375 58.5 49.21875 52.21875 
Q 50.828125 45.953125 50.828125 35.296875 
Q 50.828125 22.703125 48.234375 14.96875 
Q 45.65625 7.234375 40.5 3 
Q 35.359375 -1.21875 27.484375 -1.21875 
Q 17.140625 -1.21875 11.234375 6.203125 
Q 4.15625 15.140625 4.15625 35.296875 
z
M 13.1875 35.296875 
Q 13.1875 17.671875 17.3125 11.828125 
Q 21.4375 6 27.484375 6 
Q 33.546875 6 37.671875 11.859375 
Q 41.796875 17.71875 41.796875 35.296875 
Q 41.796875 52.984375 37.671875 58.78125 
Q 33.546875 64.59375 27.390625 64.59375 
Q 21.34375 64.59375 17.71875 59.46875 
Q 13.1875 52.9375 13.1875 35.296875 
z
" id="ArialMT-48"/>
      </defs>
      <g style="fill:#262626;" transform="translate(375.993125 395.373594)scale(0.11 -0.11)">
       <use xlink:href="#ArialMT-54"/>
       <use x="55.615234" xlink:href="#ArialMT-45"/>
       <use x="88.916016" xlink:href="#ArialMT-49"/>
       <use x="144.53125" xlink:href="#ArialMT-48"/>
      </g>
     </g>
    </g>
    <g id="xtick_4">
     <g id="text_4">
      <!-- 11-15 -->
      <g style="fill:#262626;" transform="translate(484.540625 395.373594)scale(0.11 -0.11)">
       <use xlink:href="#ArialMT-49"/>
       <use x="55.505859" xlink:href="#ArialMT-49"/>
       <use x="111.121094" xlink:href="#ArialMT-45"/>
       <use x="144.421875" xlink:href="#ArialMT-49"/>
       <use x="200.037109" xlink:href="#ArialMT-53"/>
      </g>
     </g>
    </g>
    <g id="xtick_5">
     <g id="text_5">
      <!-- 16-20 -->
      <g style="fill:#262626;" transform="translate(596.134609 395.373594)scale(0.11 -0.11)">
       <use xlink:href="#ArialMT-49"/>
       <use x="55.615234" xlink:href="#ArialMT-54"/>
       <use x="111.230469" xlink:href="#ArialMT-45"/>
       <use x="144.53125" xlink:href="#ArialMT-50"/>
       <use x="200.146484" xlink:href="#ArialMT-48"/>
      </g>
     </g>
    </g>
    <g id="xtick_6">
     <g id="text_6">
      <!-- 20+ -->
      <defs>
       <path d="M 25.046875 11.578125 
L 25.046875 31.203125 
L 5.5625 31.203125 
L 5.5625 39.40625 
L 25.046875 39.40625 
L 25.046875 58.890625 
L 33.34375 58.890625 
L 33.34375 39.40625 
L 52.828125 39.40625 
L 52.828125 31.203125 
L 33.34375 31.203125 
L 33.34375 11.578125 
z
" id="ArialMT-43"/>
      </defs>
      <g style="fill:#262626;" transform="translate(712.470625 395.373594)scale(0.11 -0.11)">
       <use xlink:href="#ArialMT-50"/>
       <use x="55.615234" xlink:href="#ArialMT-48"/>
       <use x="111.230469" xlink:href="#ArialMT-43"/>
      </g>
     </g>
    </g>
    <g id="text_7">
     <!-- Years of Relevant Employment Experience -->
     <defs>
      <path d="M 27.875 0 
L 27.875 30.328125 
L 0.296875 71.578125 
L 11.8125 71.578125 
L 25.921875 50 
Q 29.828125 43.953125 33.203125 37.890625 
Q 36.421875 43.5 41.015625 50.53125 
L 54.890625 71.578125 
L 65.921875 71.578125 
L 37.359375 30.328125 
L 37.359375 0 
z
" id="ArialMT-89"/>
      <path d="M 42.09375 16.703125 
L 51.171875 15.578125 
Q 49.03125 7.625 43.21875 3.21875 
Q 37.40625 -1.171875 28.375 -1.171875 
Q 17 -1.171875 10.328125 5.828125 
Q 3.65625 12.84375 3.65625 25.484375 
Q 3.65625 38.578125 10.390625 45.796875 
Q 17.140625 53.03125 27.875 53.03125 
Q 38.28125 53.03125 44.875 45.953125 
Q 51.46875 38.875 51.46875 26.03125 
Q 51.46875 25.25 51.421875 23.6875 
L 12.75 23.6875 
Q 13.234375 15.140625 17.578125 10.59375 
Q 21.921875 6.0625 28.421875 6.0625 
Q 33.25 6.0625 36.671875 8.59375 
Q 40.09375 11.140625 42.09375 16.703125 
z
M 13.234375 30.90625 
L 42.1875 30.90625 
Q 41.609375 37.453125 38.875 40.71875 
Q 34.671875 45.796875 27.984375 45.796875 
Q 21.921875 45.796875 17.796875 41.75 
Q 13.671875 37.703125 13.234375 30.90625 
z
" id="ArialMT-101"/>
      <path d="M 40.4375 6.390625 
Q 35.546875 2.25 31.03125 0.53125 
Q 26.515625 -1.171875 21.34375 -1.171875 
Q 12.796875 -1.171875 8.203125 3 
Q 3.609375 7.171875 3.609375 13.671875 
Q 3.609375 17.484375 5.34375 20.625 
Q 7.078125 23.78125 9.890625 25.6875 
Q 12.703125 27.59375 16.21875 28.5625 
Q 18.796875 29.25 24.03125 29.890625 
Q 34.671875 31.15625 39.703125 32.90625 
Q 39.75 34.71875 39.75 35.203125 
Q 39.75 40.578125 37.25 42.78125 
Q 33.890625 45.75 27.25 45.75 
Q 21.046875 45.75 18.09375 43.578125 
Q 15.140625 41.40625 13.71875 35.890625 
L 5.125 37.0625 
Q 6.296875 42.578125 8.984375 45.96875 
Q 11.671875 49.359375 16.75 51.1875 
Q 21.828125 53.03125 28.515625 53.03125 
Q 35.15625 53.03125 39.296875 51.46875 
Q 43.453125 49.90625 45.40625 47.53125 
Q 47.359375 45.171875 48.140625 41.546875 
Q 48.578125 39.3125 48.578125 33.453125 
L 48.578125 21.734375 
Q 48.578125 9.46875 49.140625 6.21875 
Q 49.703125 2.984375 51.375 0 
L 42.1875 0 
Q 40.828125 2.734375 40.4375 6.390625 
z
M 39.703125 26.03125 
Q 34.90625 24.078125 25.34375 22.703125 
Q 19.921875 21.921875 17.671875 20.9375 
Q 15.4375 19.96875 14.203125 18.09375 
Q 12.984375 16.21875 12.984375 13.921875 
Q 12.984375 10.40625 15.640625 8.0625 
Q 18.3125 5.71875 23.4375 5.71875 
Q 28.515625 5.71875 32.46875 7.9375 
Q 36.421875 10.15625 38.28125 14.015625 
Q 39.703125 17 39.703125 22.796875 
z
" id="ArialMT-97"/>
      <path d="M 6.5 0 
L 6.5 51.859375 
L 14.40625 51.859375 
L 14.40625 44 
Q 17.4375 49.515625 20 51.265625 
Q 22.5625 53.03125 25.640625 53.03125 
Q 30.078125 53.03125 34.671875 50.203125 
L 31.640625 42.046875 
Q 28.421875 43.953125 25.203125 43.953125 
Q 22.3125 43.953125 20.015625 42.21875 
Q 17.71875 40.484375 16.75 37.40625 
Q 15.28125 32.71875 15.28125 27.15625 
L 15.28125 0 
z
" id="ArialMT-114"/>
      <path d="M 3.078125 15.484375 
L 11.765625 16.84375 
Q 12.5 11.625 15.84375 8.84375 
Q 19.1875 6.0625 25.203125 6.0625 
Q 31.25 6.0625 34.171875 8.515625 
Q 37.109375 10.984375 37.109375 14.3125 
Q 37.109375 17.28125 34.515625 19 
Q 32.71875 20.171875 25.53125 21.96875 
Q 15.875 24.421875 12.140625 26.203125 
Q 8.40625 27.984375 6.46875 31.125 
Q 4.546875 34.28125 4.546875 38.09375 
Q 4.546875 41.546875 6.125 44.5 
Q 7.71875 47.46875 10.453125 49.421875 
Q 12.5 50.921875 16.03125 51.96875 
Q 19.578125 53.03125 23.640625 53.03125 
Q 29.734375 53.03125 34.34375 51.265625 
Q 38.96875 49.515625 41.15625 46.5 
Q 43.359375 43.5 44.1875 38.484375 
L 35.59375 37.3125 
Q 35.015625 41.3125 32.203125 43.546875 
Q 29.390625 45.796875 24.265625 45.796875 
Q 18.21875 45.796875 15.625 43.796875 
Q 13.03125 41.796875 13.03125 39.109375 
Q 13.03125 37.40625 14.109375 36.03125 
Q 15.1875 34.625 17.484375 33.6875 
Q 18.796875 33.203125 25.25 31.453125 
Q 34.578125 28.953125 38.25 27.359375 
Q 41.9375 25.78125 44.03125 22.75 
Q 46.140625 19.734375 46.140625 15.234375 
Q 46.140625 10.84375 43.578125 6.953125 
Q 41.015625 3.078125 36.171875 0.953125 
Q 31.34375 -1.171875 25.25 -1.171875 
Q 15.140625 -1.171875 9.84375 3.03125 
Q 4.546875 7.234375 3.078125 15.484375 
z
" id="ArialMT-115"/>
      <path id="ArialMT-32"/>
      <path d="M 3.328125 25.921875 
Q 3.328125 40.328125 11.328125 47.265625 
Q 18.015625 53.03125 27.640625 53.03125 
Q 38.328125 53.03125 45.109375 46.015625 
Q 51.90625 39.015625 51.90625 26.65625 
Q 51.90625 16.65625 48.90625 10.90625 
Q 45.90625 5.171875 40.15625 2 
Q 34.421875 -1.171875 27.640625 -1.171875 
Q 16.75 -1.171875 10.03125 5.8125 
Q 3.328125 12.796875 3.328125 25.921875 
z
M 12.359375 25.921875 
Q 12.359375 15.96875 16.703125 11.015625 
Q 21.046875 6.0625 27.640625 6.0625 
Q 34.1875 6.0625 38.53125 11.03125 
Q 42.875 16.015625 42.875 26.21875 
Q 42.875 35.84375 38.5 40.796875 
Q 34.125 45.75 27.640625 45.75 
Q 21.046875 45.75 16.703125 40.8125 
Q 12.359375 35.890625 12.359375 25.921875 
z
" id="ArialMT-111"/>
      <path d="M 8.6875 0 
L 8.6875 45.015625 
L 0.921875 45.015625 
L 0.921875 51.859375 
L 8.6875 51.859375 
L 8.6875 57.375 
Q 8.6875 62.59375 9.625 65.140625 
Q 10.890625 68.5625 14.078125 70.671875 
Q 17.28125 72.796875 23.046875 72.796875 
Q 26.765625 72.796875 31.25 71.921875 
L 29.9375 64.265625 
Q 27.203125 64.75 24.75 64.75 
Q 20.75 64.75 19.09375 63.03125 
Q 17.4375 61.328125 17.4375 56.640625 
L 17.4375 51.859375 
L 27.546875 51.859375 
L 27.546875 45.015625 
L 17.4375 45.015625 
L 17.4375 0 
z
" id="ArialMT-102"/>
      <path d="M 7.859375 0 
L 7.859375 71.578125 
L 39.59375 71.578125 
Q 49.171875 71.578125 54.140625 69.640625 
Q 59.125 67.71875 62.109375 62.828125 
Q 65.09375 57.953125 65.09375 52.046875 
Q 65.09375 44.4375 60.15625 39.203125 
Q 55.21875 33.984375 44.921875 32.5625 
Q 48.6875 30.765625 50.640625 29 
Q 54.78125 25.203125 58.5 19.484375 
L 70.953125 0 
L 59.03125 0 
L 49.5625 14.890625 
Q 45.40625 21.34375 42.71875 24.75 
Q 40.046875 28.171875 37.921875 29.53125 
Q 35.796875 30.90625 33.59375 31.453125 
Q 31.984375 31.78125 28.328125 31.78125 
L 17.328125 31.78125 
L 17.328125 0 
z
M 17.328125 39.984375 
L 37.703125 39.984375 
Q 44.1875 39.984375 47.84375 41.328125 
Q 51.515625 42.671875 53.421875 45.625 
Q 55.328125 48.578125 55.328125 52.046875 
Q 55.328125 57.125 51.640625 60.390625 
Q 47.953125 63.671875 39.984375 63.671875 
L 17.328125 63.671875 
z
" id="ArialMT-82"/>
      <path d="M 6.390625 0 
L 6.390625 71.578125 
L 15.1875 71.578125 
L 15.1875 0 
z
" id="ArialMT-108"/>
      <path d="M 21 0 
L 1.265625 51.859375 
L 10.546875 51.859375 
L 21.6875 20.796875 
Q 23.484375 15.765625 25 10.359375 
Q 26.171875 14.453125 28.265625 20.21875 
L 39.796875 51.859375 
L 48.828125 51.859375 
L 29.203125 0 
z
" id="ArialMT-118"/>
      <path d="M 6.59375 0 
L 6.59375 51.859375 
L 14.5 51.859375 
L 14.5 44.484375 
Q 20.21875 53.03125 31 53.03125 
Q 35.6875 53.03125 39.625 51.34375 
Q 43.5625 49.65625 45.515625 46.921875 
Q 47.46875 44.1875 48.25 40.4375 
Q 48.734375 37.984375 48.734375 31.890625 
L 48.734375 0 
L 39.9375 0 
L 39.9375 31.546875 
Q 39.9375 36.921875 38.90625 39.578125 
Q 37.890625 42.234375 35.28125 43.8125 
Q 32.671875 45.40625 29.15625 45.40625 
Q 23.53125 45.40625 19.453125 41.84375 
Q 15.375 38.28125 15.375 28.328125 
L 15.375 0 
z
" id="ArialMT-110"/>
      <path d="M 25.78125 7.859375 
L 27.046875 0.09375 
Q 23.34375 -0.6875 20.40625 -0.6875 
Q 15.625 -0.6875 12.984375 0.828125 
Q 10.359375 2.34375 9.28125 4.8125 
Q 8.203125 7.28125 8.203125 15.1875 
L 8.203125 45.015625 
L 1.765625 45.015625 
L 1.765625 51.859375 
L 8.203125 51.859375 
L 8.203125 64.703125 
L 16.9375 69.96875 
L 16.9375 51.859375 
L 25.78125 51.859375 
L 25.78125 45.015625 
L 16.9375 45.015625 
L 16.9375 14.703125 
Q 16.9375 10.9375 17.40625 9.859375 
Q 17.875 8.796875 18.921875 8.15625 
Q 19.96875 7.515625 21.921875 7.515625 
Q 23.390625 7.515625 25.78125 7.859375 
z
" id="ArialMT-116"/>
      <path d="M 7.90625 0 
L 7.90625 71.578125 
L 59.671875 71.578125 
L 59.671875 63.140625 
L 17.390625 63.140625 
L 17.390625 41.21875 
L 56.984375 41.21875 
L 56.984375 32.8125 
L 17.390625 32.8125 
L 17.390625 8.453125 
L 61.328125 8.453125 
L 61.328125 0 
z
" id="ArialMT-69"/>
      <path d="M 6.59375 0 
L 6.59375 51.859375 
L 14.453125 51.859375 
L 14.453125 44.578125 
Q 16.890625 48.390625 20.9375 50.703125 
Q 25 53.03125 30.171875 53.03125 
Q 35.9375 53.03125 39.625 50.640625 
Q 43.3125 48.25 44.828125 43.953125 
Q 50.984375 53.03125 60.84375 53.03125 
Q 68.5625 53.03125 72.703125 48.75 
Q 76.859375 44.484375 76.859375 35.59375 
L 76.859375 0 
L 68.109375 0 
L 68.109375 32.671875 
Q 68.109375 37.9375 67.25 40.25 
Q 66.40625 42.578125 64.15625 43.984375 
Q 61.921875 45.40625 58.890625 45.40625 
Q 53.421875 45.40625 49.796875 41.765625 
Q 46.1875 38.140625 46.1875 30.125 
L 46.1875 0 
L 37.40625 0 
L 37.40625 33.6875 
Q 37.40625 39.546875 35.25 42.46875 
Q 33.109375 45.40625 28.21875 45.40625 
Q 24.515625 45.40625 21.359375 43.453125 
Q 18.21875 41.5 16.796875 37.734375 
Q 15.375 33.984375 15.375 26.90625 
L 15.375 0 
z
" id="ArialMT-109"/>
      <path d="M 6.59375 -19.875 
L 6.59375 51.859375 
L 14.59375 51.859375 
L 14.59375 45.125 
Q 17.4375 49.078125 21 51.046875 
Q 24.5625 53.03125 29.640625 53.03125 
Q 36.28125 53.03125 41.359375 49.609375 
Q 46.4375 46.1875 49.015625 39.953125 
Q 51.609375 33.734375 51.609375 26.3125 
Q 51.609375 18.359375 48.75 11.984375 
Q 45.90625 5.609375 40.453125 2.21875 
Q 35.015625 -1.171875 29 -1.171875 
Q 24.609375 -1.171875 21.109375 0.6875 
Q 17.625 2.546875 15.375 5.375 
L 15.375 -19.875 
z
M 14.546875 25.640625 
Q 14.546875 15.625 18.59375 10.84375 
Q 22.65625 6.0625 28.421875 6.0625 
Q 34.28125 6.0625 38.453125 11.015625 
Q 42.625 15.96875 42.625 26.375 
Q 42.625 36.28125 38.546875 41.203125 
Q 34.46875 46.140625 28.8125 46.140625 
Q 23.1875 46.140625 18.859375 40.890625 
Q 14.546875 35.640625 14.546875 25.640625 
z
" id="ArialMT-112"/>
      <path d="M 6.203125 -19.96875 
L 5.21875 -11.71875 
Q 8.109375 -12.5 10.25 -12.5 
Q 13.1875 -12.5 14.9375 -11.515625 
Q 16.703125 -10.546875 17.828125 -8.796875 
Q 18.65625 -7.46875 20.515625 -2.25 
Q 20.75 -1.515625 21.296875 -0.09375 
L 1.609375 51.859375 
L 11.078125 51.859375 
L 21.875 21.828125 
Q 23.96875 16.109375 25.640625 9.8125 
Q 27.15625 15.875 29.25 21.625 
L 40.328125 51.859375 
L 49.125 51.859375 
L 29.390625 -0.875 
Q 26.21875 -9.421875 24.46875 -12.640625 
Q 22.125 -17 19.09375 -19.015625 
Q 16.0625 -21.046875 11.859375 -21.046875 
Q 9.328125 -21.046875 6.203125 -19.96875 
z
" id="ArialMT-121"/>
      <path d="M 0.734375 0 
L 19.671875 26.953125 
L 2.15625 51.859375 
L 13.140625 51.859375 
L 21.09375 39.703125 
Q 23.34375 36.234375 24.703125 33.890625 
Q 26.859375 37.109375 28.65625 39.59375 
L 37.40625 51.859375 
L 47.90625 51.859375 
L 29.984375 27.4375 
L 49.265625 0 
L 38.484375 0 
L 27.828125 16.109375 
L 25 20.453125 
L 11.375 0 
z
" id="ArialMT-120"/>
      <path d="M 6.640625 61.46875 
L 6.640625 71.578125 
L 15.4375 71.578125 
L 15.4375 61.46875 
z
M 6.640625 0 
L 6.640625 51.859375 
L 15.4375 51.859375 
L 15.4375 0 
z
" id="ArialMT-105"/>
      <path d="M 40.4375 19 
L 49.078125 17.875 
Q 47.65625 8.9375 41.8125 3.875 
Q 35.984375 -1.171875 27.484375 -1.171875 
Q 16.84375 -1.171875 10.375 5.78125 
Q 3.90625 12.75 3.90625 25.734375 
Q 3.90625 34.125 6.6875 40.421875 
Q 9.46875 46.734375 15.15625 49.875 
Q 20.84375 53.03125 27.546875 53.03125 
Q 35.984375 53.03125 41.359375 48.75 
Q 46.734375 44.484375 48.25 36.625 
L 39.703125 35.296875 
Q 38.484375 40.53125 35.375 43.15625 
Q 32.28125 45.796875 27.875 45.796875 
Q 21.234375 45.796875 17.078125 41.03125 
Q 12.9375 36.28125 12.9375 25.984375 
Q 12.9375 15.53125 16.9375 10.796875 
Q 20.953125 6.0625 27.390625 6.0625 
Q 32.5625 6.0625 36.03125 9.234375 
Q 39.5 12.40625 40.4375 19 
z
" id="ArialMT-99"/>
     </defs>
     <g style="fill:#262626;" transform="translate(328.425 410.295469)scale(0.12 -0.12)">
      <use xlink:href="#ArialMT-89"/>
      <use x="66.558594" xlink:href="#ArialMT-101"/>
      <use x="122.173828" xlink:href="#ArialMT-97"/>
      <use x="177.789062" xlink:href="#ArialMT-114"/>
      <use x="211.089844" xlink:href="#ArialMT-115"/>
      <use x="261.089844" xlink:href="#ArialMT-32"/>
      <use x="288.873047" xlink:href="#ArialMT-111"/>
      <use x="344.488281" xlink:href="#ArialMT-102"/>
      <use x="372.271484" xlink:href="#ArialMT-32"/>
      <use x="400.054688" xlink:href="#ArialMT-82"/>
      <use x="472.271484" xlink:href="#ArialMT-101"/>
      <use x="527.886719" xlink:href="#ArialMT-108"/>
      <use x="550.103516" xlink:href="#ArialMT-101"/>
      <use x="605.71875" xlink:href="#ArialMT-118"/>
      <use x="655.71875" xlink:href="#ArialMT-97"/>
      <use x="711.333984" xlink:href="#ArialMT-110"/>
      <use x="766.949219" xlink:href="#ArialMT-116"/>
      <use x="794.732422" xlink:href="#ArialMT-32"/>
      <use x="822.515625" xlink:href="#ArialMT-69"/>
      <use x="889.214844" xlink:href="#ArialMT-109"/>
      <use x="972.515625" xlink:href="#ArialMT-112"/>
      <use x="1028.130859" xlink:href="#ArialMT-108"/>
      <use x="1050.347656" xlink:href="#ArialMT-111"/>
      <use x="1105.962891" xlink:href="#ArialMT-121"/>
      <use x="1155.962891" xlink:href="#ArialMT-109"/>
      <use x="1239.263672" xlink:href="#ArialMT-101"/>
      <use x="1294.878906" xlink:href="#ArialMT-110"/>
      <use x="1350.494141" xlink:href="#ArialMT-116"/>
      <use x="1378.277344" xlink:href="#ArialMT-32"/>
      <use x="1406.060547" xlink:href="#ArialMT-69"/>
      <use x="1472.759766" xlink:href="#ArialMT-120"/>
      <use x="1522.759766" xlink:href="#ArialMT-112"/>
      <use x="1578.375" xlink:href="#ArialMT-101"/>
      <use x="1633.990234" xlink:href="#ArialMT-114"/>
      <use x="1667.291016" xlink:href="#ArialMT-105"/>
      <use x="1689.507812" xlink:href="#ArialMT-101"/>
      <use x="1745.123047" xlink:href="#ArialMT-110"/>
      <use x="1800.738281" xlink:href="#ArialMT-99"/>
      <use x="1850.738281" xlink:href="#ArialMT-101"/>
     </g>
    </g>
   </g>
   <g id="matplotlib.axis_2">
    <g id="ytick_1">
     <g id="line2d_1">
      <path clip-path="url(#p6d97799325)" d="M 108 364.528468 
L 777.6 364.528468 
" style="fill:none;stroke:#ffffff;stroke-linecap:round;"/>
     </g>
     <g id="text_8">
      <!-- 50 -->
      <g style="fill:#262626;" transform="translate(86.265938 368.465265)scale(0.11 -0.11)">
       <use xlink:href="#ArialMT-53"/>
       <use x="55.615234" xlink:href="#ArialMT-48"/>
      </g>
     </g>
    </g>
    <g id="ytick_2">
     <g id="line2d_2">
      <path clip-path="url(#p6d97799325)" d="M 108 296.832329 
L 777.6 296.832329 
" style="fill:none;stroke:#ffffff;stroke-linecap:round;"/>
     </g>
     <g id="text_9">
      <!-- 100 -->
      <g style="fill:#262626;" transform="translate(80.148906 300.769126)scale(0.11 -0.11)">
       <use xlink:href="#ArialMT-49"/>
       <use x="55.615234" xlink:href="#ArialMT-48"/>
       <use x="111.230469" xlink:href="#ArialMT-48"/>
      </g>
     </g>
    </g>
    <g id="ytick_3">
     <g id="line2d_3">
      <path clip-path="url(#p6d97799325)" d="M 108 229.136189 
L 777.6 229.136189 
" style="fill:none;stroke:#ffffff;stroke-linecap:round;"/>
     </g>
     <g id="text_10">
      <!-- 150 -->
      <g style="fill:#262626;" transform="translate(80.148906 233.072986)scale(0.11 -0.11)">
       <use xlink:href="#ArialMT-49"/>
       <use x="55.615234" xlink:href="#ArialMT-53"/>
       <use x="111.230469" xlink:href="#ArialMT-48"/>
      </g>
     </g>
    </g>
    <g id="ytick_4">
     <g id="line2d_4">
      <path clip-path="url(#p6d97799325)" d="M 108 161.44005 
L 777.6 161.44005 
" style="fill:none;stroke:#ffffff;stroke-linecap:round;"/>
     </g>
     <g id="text_11">
      <!-- 200 -->
      <g style="fill:#262626;" transform="translate(80.148906 165.376847)scale(0.11 -0.11)">
       <use xlink:href="#ArialMT-50"/>
       <use x="55.615234" xlink:href="#ArialMT-48"/>
       <use x="111.230469" xlink:href="#ArialMT-48"/>
      </g>
     </g>
    </g>
    <g id="ytick_5">
     <g id="line2d_5">
      <path clip-path="url(#p6d97799325)" d="M 108 93.74391 
L 777.6 93.74391 
" style="fill:none;stroke:#ffffff;stroke-linecap:round;"/>
     </g>
     <g id="text_12">
      <!-- 250 -->
      <g style="fill:#262626;" transform="translate(80.148906 97.680707)scale(0.11 -0.11)">
       <use xlink:href="#ArialMT-50"/>
       <use x="55.615234" xlink:href="#ArialMT-53"/>
       <use x="111.230469" xlink:href="#ArialMT-48"/>
      </g>
     </g>
    </g>
    <g id="text_13">
     <!-- Compensation ($1000s) -->
     <defs>
      <path d="M 58.796875 25.09375 
L 68.265625 22.703125 
Q 65.28125 11.03125 57.546875 4.90625 
Q 49.8125 -1.21875 38.625 -1.21875 
Q 27.046875 -1.21875 19.796875 3.484375 
Q 12.546875 8.203125 8.765625 17.140625 
Q 4.984375 26.078125 4.984375 36.328125 
Q 4.984375 47.515625 9.25 55.828125 
Q 13.53125 64.15625 21.40625 68.46875 
Q 29.296875 72.796875 38.765625 72.796875 
Q 49.515625 72.796875 56.828125 67.328125 
Q 64.15625 61.859375 67.046875 51.953125 
L 57.71875 49.75 
Q 55.21875 57.5625 50.484375 61.125 
Q 45.75 64.703125 38.578125 64.703125 
Q 30.328125 64.703125 24.78125 60.734375 
Q 19.234375 56.78125 16.984375 50.109375 
Q 14.75 43.453125 14.75 36.375 
Q 14.75 27.25 17.40625 20.4375 
Q 20.0625 13.625 25.671875 10.25 
Q 31.296875 6.890625 37.84375 6.890625 
Q 45.796875 6.890625 51.3125 11.46875 
Q 56.84375 16.0625 58.796875 25.09375 
z
" id="ArialMT-67"/>
      <path d="M 23.390625 -21.046875 
Q 16.109375 -11.859375 11.078125 0.4375 
Q 6.0625 12.75 6.0625 25.921875 
Q 6.0625 37.546875 9.8125 48.1875 
Q 14.203125 60.546875 23.390625 72.796875 
L 29.6875 72.796875 
Q 23.78125 62.640625 21.875 58.296875 
Q 18.890625 51.5625 17.1875 44.234375 
Q 15.09375 35.109375 15.09375 25.875 
Q 15.09375 2.390625 29.6875 -21.046875 
z
" id="ArialMT-40"/>
      <path d="M 24.90625 -10.296875 
L 24.90625 -1.515625 
Q 18.3125 -0.6875 14.1875 1.4375 
Q 10.0625 3.5625 7.046875 8.296875 
Q 4.046875 13.03125 3.5625 19.875 
L 12.40625 21.53125 
Q 13.421875 14.453125 16.015625 11.140625 
Q 19.734375 6.453125 24.90625 5.90625 
L 24.90625 33.890625 
Q 19.484375 34.90625 13.8125 38.09375 
Q 9.625 40.4375 7.34375 44.578125 
Q 5.078125 48.734375 5.078125 54 
Q 5.078125 63.375 11.71875 69.1875 
Q 16.15625 73.09375 24.90625 73.96875 
L 24.90625 78.171875 
L 30.078125 78.171875 
L 30.078125 73.96875 
Q 37.75 73.25 42.234375 69.484375 
Q 48 64.703125 49.171875 56.34375 
L 40.09375 54.984375 
Q 39.3125 60.15625 36.84375 62.90625 
Q 34.375 65.671875 30.078125 66.546875 
L 30.078125 41.21875 
Q 36.71875 39.546875 38.875 38.625 
Q 42.96875 36.8125 45.546875 34.21875 
Q 48.140625 31.640625 49.53125 28.078125 
Q 50.921875 24.515625 50.921875 20.359375 
Q 50.921875 11.234375 45.109375 5.125 
Q 39.3125 -0.984375 30.078125 -1.421875 
L 30.078125 -10.296875 
z
M 24.90625 66.65625 
Q 19.78125 65.875 16.828125 62.546875 
Q 13.875 59.234375 13.875 54.6875 
Q 13.875 50.203125 16.375 47.171875 
Q 18.890625 44.140625 24.90625 42.328125 
z
M 30.078125 5.90625 
Q 35.203125 6.546875 38.546875 10.34375 
Q 41.890625 14.15625 41.890625 19.78125 
Q 41.890625 24.5625 39.515625 27.46875 
Q 37.15625 30.375 30.078125 32.671875 
z
" id="ArialMT-36"/>
      <path d="M 12.359375 -21.046875 
L 6.0625 -21.046875 
Q 20.65625 2.390625 20.65625 25.875 
Q 20.65625 35.0625 18.5625 44.09375 
Q 16.890625 51.421875 13.921875 58.15625 
Q 12.015625 62.546875 6.0625 72.796875 
L 12.359375 72.796875 
Q 21.53125 60.546875 25.921875 48.1875 
Q 29.6875 37.546875 29.6875 25.921875 
Q 29.6875 12.75 24.625 0.4375 
Q 19.578125 -11.859375 12.359375 -21.046875 
z
" id="ArialMT-41"/>
     </defs>
     <g style="fill:#262626;" transform="translate(73.623281 278.952187)rotate(-90)scale(0.12 -0.12)">
      <use xlink:href="#ArialMT-67"/>
      <use x="72.216797" xlink:href="#ArialMT-111"/>
      <use x="127.832031" xlink:href="#ArialMT-109"/>
      <use x="211.132812" xlink:href="#ArialMT-112"/>
      <use x="266.748047" xlink:href="#ArialMT-101"/>
      <use x="322.363281" xlink:href="#ArialMT-110"/>
      <use x="377.978516" xlink:href="#ArialMT-115"/>
      <use x="427.978516" xlink:href="#ArialMT-97"/>
      <use x="483.59375" xlink:href="#ArialMT-116"/>
      <use x="511.376953" xlink:href="#ArialMT-105"/>
      <use x="533.59375" xlink:href="#ArialMT-111"/>
      <use x="589.208984" xlink:href="#ArialMT-110"/>
      <use x="644.824219" xlink:href="#ArialMT-32"/>
      <use x="672.607422" xlink:href="#ArialMT-40"/>
      <use x="705.908203" xlink:href="#ArialMT-36"/>
      <use x="761.523438" xlink:href="#ArialMT-49"/>
      <use x="817.138672" xlink:href="#ArialMT-48"/>
      <use x="872.753906" xlink:href="#ArialMT-48"/>
      <use x="928.369141" xlink:href="#ArialMT-48"/>
      <use x="983.984375" xlink:href="#ArialMT-115"/>
      <use x="1033.984375" xlink:href="#ArialMT-41"/>
     </g>
    </g>
   </g>
   <g id="PolyCollection_1">
    <defs>
     <path d="M 174.10454 -68.825455 
L 153.49546 -68.825455 
L 152.952548 -69.598148 
L 152.410057 -70.370841 
L 151.870617 -71.143534 
L 151.336941 -71.916228 
L 150.81179 -72.688921 
L 150.297941 -73.461614 
L 149.798144 -74.234308 
L 149.315087 -75.007001 
L 148.851351 -75.779694 
L 148.409365 -76.552388 
L 147.991365 -77.325081 
L 147.599357 -78.097774 
L 147.235073 -78.870468 
L 146.899942 -79.643161 
L 146.595063 -80.415854 
L 146.321186 -81.188547 
L 146.078695 -81.961241 
L 145.867608 -82.733934 
L 145.687583 -83.506627 
L 145.537926 -84.279321 
L 145.41762 -85.052014 
L 145.32535 -85.824707 
L 145.259544 -86.597401 
L 145.218413 -87.370094 
L 145.2 -88.142787 
L 145.20223 -88.915481 
L 145.222963 -89.688174 
L 145.260042 -90.460867 
L 145.311346 -91.233561 
L 145.374836 -92.006254 
L 145.448595 -92.778947 
L 145.530864 -93.55164 
L 145.620074 -94.324334 
L 145.714868 -95.097027 
L 145.814118 -95.86972 
L 145.916933 -96.642414 
L 146.022665 -97.415107 
L 146.130902 -98.1878 
L 146.241464 -98.960494 
L 146.354388 -99.733187 
L 146.469914 -100.50588 
L 146.588465 -101.278574 
L 146.710625 -102.051267 
L 146.837117 -102.82396 
L 146.968784 -103.596653 
L 147.106558 -104.369347 
L 147.251443 -105.14204 
L 147.404487 -105.914733 
L 147.56676 -106.687427 
L 147.739328 -107.46012 
L 147.923232 -108.232813 
L 148.119462 -109.005507 
L 148.328932 -109.7782 
L 148.552456 -110.550893 
L 148.790722 -111.323587 
L 149.04427 -112.09628 
L 149.313467 -112.868973 
L 149.598481 -113.641666 
L 149.899267 -114.41436 
L 150.215542 -115.187053 
L 150.546775 -115.959746 
L 150.892174 -116.73244 
L 151.25068 -117.505133 
L 151.620972 -118.277826 
L 152.001469 -119.05052 
L 152.390344 -119.823213 
L 152.785548 -120.595906 
L 153.184835 -121.3686 
L 153.585795 -122.141293 
L 153.985899 -122.913986 
L 154.38254 -123.686679 
L 154.773086 -124.459373 
L 155.154929 -125.232066 
L 155.525547 -126.004759 
L 155.882547 -126.777453 
L 156.223731 -127.550146 
L 156.547134 -128.322839 
L 156.851076 -129.095533 
L 157.134201 -129.868226 
L 157.395504 -130.640919 
L 157.634359 -131.413613 
L 157.850528 -132.186306 
L 158.044172 -132.958999 
L 158.21584 -133.731693 
L 158.366458 -134.504386 
L 158.4973 -135.277079 
L 158.60996 -136.049772 
L 158.706309 -136.822466 
L 158.788448 -137.595159 
L 158.858655 -138.367852 
L 158.919333 -139.140546 
L 158.972948 -139.913239 
L 159.021973 -140.685932 
L 159.068832 -141.458626 
L 159.115846 -142.231319 
L 159.165182 -143.004012 
L 159.21881 -143.776706 
L 159.278465 -144.549399 
L 159.345616 -145.322092 
L 168.254384 -145.322092 
L 168.254384 -145.322092 
L 168.321535 -144.549399 
L 168.38119 -143.776706 
L 168.434818 -143.004012 
L 168.484154 -142.231319 
L 168.531168 -141.458626 
L 168.578027 -140.685932 
L 168.627052 -139.913239 
L 168.680667 -139.140546 
L 168.741345 -138.367852 
L 168.811552 -137.595159 
L 168.893691 -136.822466 
L 168.99004 -136.049772 
L 169.1027 -135.277079 
L 169.233542 -134.504386 
L 169.38416 -133.731693 
L 169.555828 -132.958999 
L 169.749472 -132.186306 
L 169.965641 -131.413613 
L 170.204496 -130.640919 
L 170.465799 -129.868226 
L 170.748924 -129.095533 
L 171.052866 -128.322839 
L 171.376269 -127.550146 
L 171.717453 -126.777453 
L 172.074453 -126.004759 
L 172.445071 -125.232066 
L 172.826914 -124.459373 
L 173.21746 -123.686679 
L 173.614101 -122.913986 
L 174.014205 -122.141293 
L 174.415165 -121.3686 
L 174.814452 -120.595906 
L 175.209656 -119.823213 
L 175.598531 -119.05052 
L 175.979028 -118.277826 
L 176.34932 -117.505133 
L 176.707826 -116.73244 
L 177.053225 -115.959746 
L 177.384458 -115.187053 
L 177.700733 -114.41436 
L 178.001519 -113.641666 
L 178.286533 -112.868973 
L 178.55573 -112.09628 
L 178.809278 -111.323587 
L 179.047544 -110.550893 
L 179.271068 -109.7782 
L 179.480538 -109.005507 
L 179.676768 -108.232813 
L 179.860672 -107.46012 
L 180.03324 -106.687427 
L 180.195513 -105.914733 
L 180.348557 -105.14204 
L 180.493442 -104.369347 
L 180.631216 -103.596653 
L 180.762883 -102.82396 
L 180.889375 -102.051267 
L 181.011535 -101.278574 
L 181.130086 -100.50588 
L 181.245612 -99.733187 
L 181.358536 -98.960494 
L 181.469098 -98.1878 
L 181.577335 -97.415107 
L 181.683067 -96.642414 
L 181.785882 -95.86972 
L 181.885132 -95.097027 
L 181.979926 -94.324334 
L 182.069136 -93.55164 
L 182.151405 -92.778947 
L 182.225164 -92.006254 
L 182.288654 -91.233561 
L 182.339958 -90.460867 
L 182.377037 -89.688174 
L 182.39777 -88.915481 
L 182.4 -88.142787 
L 182.381587 -87.370094 
L 182.340456 -86.597401 
L 182.27465 -85.824707 
L 182.18238 -85.052014 
L 182.062074 -84.279321 
L 181.912417 -83.506627 
L 181.732392 -82.733934 
L 181.521305 -81.961241 
L 181.278814 -81.188547 
L 181.004937 -80.415854 
L 180.700058 -79.643161 
L 180.364927 -78.870468 
L 180.000643 -78.097774 
L 179.608635 -77.325081 
L 179.190635 -76.552388 
L 178.748649 -75.779694 
L 178.284913 -75.007001 
L 177.801856 -74.234308 
L 177.302059 -73.461614 
L 176.78821 -72.688921 
L 176.263059 -71.916228 
L 175.729383 -71.143534 
L 175.189943 -70.370841 
L 174.647452 -69.598148 
L 174.10454 -68.825455 
z
" id="m33c6c9509c" style="stroke:#494949;stroke-width:1.5;"/>
    </defs>
    <g clip-path="url(#p6d97799325)">
     <use style="fill:#5875a4;stroke:#494949;stroke-width:1.5;" x="0" xlink:href="#m33c6c9509c" y="432"/>
    </g>
   </g>
   <g id="PolyCollection_2">
    <defs>
     <path d="M 292.969402 -101.590386 
L 257.830598 -101.590386 
L 257.304111 -104.254468 
L 256.825703 -106.918551 
L 256.398343 -109.582633 
L 256.024326 -112.246716 
L 255.705244 -114.910798 
L 255.441971 -117.574881 
L 255.234667 -120.238963 
L 255.0828 -122.903045 
L 254.985177 -125.567128 
L 254.94 -128.23121 
L 254.944927 -130.895293 
L 254.997151 -133.559375 
L 255.093479 -136.223457 
L 255.230428 -138.88754 
L 255.404315 -141.551622 
L 255.611355 -144.215705 
L 255.84775 -146.879787 
L 256.109778 -149.54387 
L 256.393876 -152.207952 
L 256.696707 -154.872034 
L 257.015224 -157.536117 
L 257.346715 -160.200199 
L 257.688839 -162.864282 
L 258.039644 -165.528364 
L 258.397579 -168.192447 
L 258.761481 -170.856529 
L 259.130559 -173.520611 
L 259.504363 -176.184694 
L 259.882741 -178.848776 
L 260.265792 -181.512859 
L 260.653811 -184.176941 
L 261.04723 -186.841023 
L 261.446557 -189.505106 
L 261.852317 -192.169188 
L 262.264991 -194.833271 
L 262.684969 -197.497353 
L 263.112498 -200.161436 
L 263.547641 -202.825518 
L 263.990252 -205.4896 
L 264.43995 -208.153683 
L 264.896106 -210.817765 
L 265.357843 -213.481848 
L 265.824042 -216.14593 
L 266.293356 -218.810012 
L 266.764235 -221.474095 
L 267.234954 -224.138177 
L 267.70365 -226.80226 
L 268.168357 -229.466342 
L 268.627053 -232.130425 
L 269.077695 -234.794507 
L 269.518262 -237.458589 
L 269.946799 -240.122672 
L 270.361444 -242.786754 
L 270.760464 -245.450837 
L 271.142284 -248.114919 
L 271.505502 -250.779001 
L 271.848907 -253.443084 
L 272.171491 -256.107166 
L 272.472447 -258.771249 
L 272.751173 -261.435331 
L 273.007262 -264.099414 
L 273.240494 -266.763496 
L 273.450825 -269.427578 
L 273.638364 -272.091661 
L 273.803368 -274.755743 
L 273.946213 -277.419826 
L 274.067386 -280.083908 
L 274.167463 -282.74799 
L 274.2471 -285.412073 
L 274.307017 -288.076155 
L 274.347988 -290.740238 
L 274.370839 -293.40432 
L 274.376439 -296.068403 
L 274.365696 -298.732485 
L 274.339566 -301.396567 
L 274.299045 -304.06065 
L 274.245179 -306.724732 
L 274.179065 -309.388815 
L 274.101858 -312.052897 
L 274.014771 -314.71698 
L 273.919081 -317.381062 
L 273.816129 -320.045144 
L 273.707319 -322.709227 
L 273.594112 -325.373309 
L 273.478022 -328.037392 
L 273.360607 -330.701474 
L 273.243452 -333.365556 
L 273.128155 -336.029639 
L 273.01631 -338.693721 
L 272.909485 -341.357804 
L 272.809198 -344.021886 
L 272.716895 -346.685969 
L 272.633925 -349.350051 
L 272.561517 -352.014133 
L 272.500758 -354.678216 
L 272.452569 -357.342298 
L 272.417693 -360.006381 
L 272.396676 -362.670463 
L 272.389861 -365.334545 
L 278.410139 -365.334545 
L 278.410139 -365.334545 
L 278.403324 -362.670463 
L 278.382307 -360.006381 
L 278.347431 -357.342298 
L 278.299242 -354.678216 
L 278.238483 -352.014133 
L 278.166075 -349.350051 
L 278.083105 -346.685969 
L 277.990802 -344.021886 
L 277.890515 -341.357804 
L 277.78369 -338.693721 
L 277.671845 -336.029639 
L 277.556548 -333.365556 
L 277.439393 -330.701474 
L 277.321978 -328.037392 
L 277.205888 -325.373309 
L 277.092681 -322.709227 
L 276.983871 -320.045144 
L 276.880919 -317.381062 
L 276.785229 -314.71698 
L 276.698142 -312.052897 
L 276.620935 -309.388815 
L 276.554821 -306.724732 
L 276.500955 -304.06065 
L 276.460434 -301.396567 
L 276.434304 -298.732485 
L 276.423561 -296.068403 
L 276.429161 -293.40432 
L 276.452012 -290.740238 
L 276.492983 -288.076155 
L 276.5529 -285.412073 
L 276.632537 -282.74799 
L 276.732614 -280.083908 
L 276.853787 -277.419826 
L 276.996632 -274.755743 
L 277.161636 -272.091661 
L 277.349175 -269.427578 
L 277.559506 -266.763496 
L 277.792738 -264.099414 
L 278.048827 -261.435331 
L 278.327553 -258.771249 
L 278.628509 -256.107166 
L 278.951093 -253.443084 
L 279.294498 -250.779001 
L 279.657716 -248.114919 
L 280.039536 -245.450837 
L 280.438556 -242.786754 
L 280.853201 -240.122672 
L 281.281738 -237.458589 
L 281.722305 -234.794507 
L 282.172947 -232.130425 
L 282.631643 -229.466342 
L 283.09635 -226.80226 
L 283.565046 -224.138177 
L 284.035765 -221.474095 
L 284.506644 -218.810012 
L 284.975958 -216.14593 
L 285.442157 -213.481848 
L 285.903894 -210.817765 
L 286.36005 -208.153683 
L 286.809748 -205.4896 
L 287.252359 -202.825518 
L 287.687502 -200.161436 
L 288.115031 -197.497353 
L 288.535009 -194.833271 
L 288.947683 -192.169188 
L 289.353443 -189.505106 
L 289.75277 -186.841023 
L 290.146189 -184.176941 
L 290.534208 -181.512859 
L 290.917259 -178.848776 
L 291.295637 -176.184694 
L 291.669441 -173.520611 
L 292.038519 -170.856529 
L 292.402421 -168.192447 
L 292.760356 -165.528364 
L 293.111161 -162.864282 
L 293.453285 -160.200199 
L 293.784776 -157.536117 
L 294.103293 -154.872034 
L 294.406124 -152.207952 
L 294.690222 -149.54387 
L 294.95225 -146.879787 
L 295.188645 -144.215705 
L 295.395685 -141.551622 
L 295.569572 -138.88754 
L 295.706521 -136.223457 
L 295.802849 -133.559375 
L 295.855073 -130.895293 
L 295.86 -128.23121 
L 295.814823 -125.567128 
L 295.7172 -122.903045 
L 295.565333 -120.238963 
L 295.358029 -117.574881 
L 295.094756 -114.910798 
L 294.775674 -112.246716 
L 294.401657 -109.582633 
L 293.974297 -106.918551 
L 293.495889 -104.254468 
L 292.969402 -101.590386 
z
" id="m99a9eb3efa" style="stroke:#494949;stroke-width:1.5;"/>
    </defs>
    <g clip-path="url(#p6d97799325)">
     <use style="fill:#cc8963;stroke:#494949;stroke-width:1.5;" x="0" xlink:href="#m99a9eb3efa" y="432"/>
    </g>
   </g>
   <g id="PolyCollection_3">
    <defs>
     <path d="M 415.361448 -91.842142 
L 358.638552 -91.842142 
L 357.101705 -93.305473 
L 355.605509 -94.768803 
L 354.160367 -96.232134 
L 352.775888 -97.695465 
L 351.460722 -99.158795 
L 350.222418 -100.622126 
L 349.067321 -102.085457 
L 348.000507 -103.548788 
L 347.025759 -105.012118 
L 346.14558 -106.475449 
L 345.361244 -107.93878 
L 344.67288 -109.40211 
L 344.079585 -110.865441 
L 343.579556 -112.328772 
L 343.170233 -113.792102 
L 342.848449 -115.255433 
L 342.610578 -116.718764 
L 342.452669 -118.182094 
L 342.370566 -119.645425 
L 342.36 -121.108756 
L 342.416663 -122.572086 
L 342.536248 -124.035417 
L 342.714461 -125.498748 
L 342.947017 -126.962079 
L 343.229601 -128.425409 
L 343.557826 -129.88874 
L 343.927176 -131.352071 
L 344.332952 -132.815401 
L 344.770213 -134.278732 
L 345.233749 -135.742063 
L 345.718058 -137.205393 
L 346.217355 -138.668724 
L 346.725612 -140.132055 
L 347.236627 -141.595385 
L 347.74412 -143.058716 
L 348.241872 -144.522047 
L 348.723869 -145.985378 
L 349.184489 -147.448708 
L 349.618679 -148.912039 
L 350.022156 -150.37537 
L 350.39159 -151.8387 
L 350.724776 -153.302031 
L 351.020789 -154.765362 
L 351.280101 -156.228692 
L 351.504656 -157.692023 
L 351.697909 -159.155354 
L 351.864806 -160.618684 
L 352.011717 -162.082015 
L 352.146309 -163.545346 
L 352.277378 -165.008677 
L 352.414622 -166.472007 
L 352.56838 -167.935338 
L 352.749335 -169.398669 
L 352.968194 -170.861999 
L 353.23535 -172.32533 
L 353.56055 -173.788661 
L 353.952569 -175.251991 
L 354.418906 -176.715322 
L 354.965517 -178.178653 
L 355.596592 -179.641983 
L 356.314381 -181.105314 
L 357.119087 -182.568645 
L 358.008821 -184.031976 
L 358.979616 -185.495306 
L 360.025519 -186.958637 
L 361.138735 -188.421968 
L 362.309835 -189.885298 
L 363.528008 -191.348629 
L 364.781352 -192.81196 
L 366.057199 -194.27529 
L 367.342449 -195.738621 
L 368.623914 -197.201952 
L 369.888651 -198.665282 
L 371.124279 -200.128613 
L 372.319272 -201.591944 
L 373.463206 -203.055275 
L 374.546975 -204.518605 
L 375.562952 -205.981936 
L 376.505106 -207.445267 
L 377.369069 -208.908597 
L 378.152149 -210.371928 
L 378.853304 -211.835259 
L 379.473073 -213.298589 
L 380.013465 -214.76192 
L 380.477823 -216.225251 
L 380.870659 -217.688581 
L 381.197474 -219.151912 
L 381.46456 -220.615243 
L 381.678804 -222.078574 
L 381.84748 -223.541904 
L 381.978055 -225.005235 
L 382.078 -226.468566 
L 382.154615 -227.931896 
L 382.214869 -229.395227 
L 382.265264 -230.858558 
L 382.311714 -232.321888 
L 382.359452 -233.785219 
L 382.412964 -235.24855 
L 382.47594 -236.71188 
L 391.52406 -236.71188 
L 391.52406 -236.71188 
L 391.587036 -235.24855 
L 391.640548 -233.785219 
L 391.688286 -232.321888 
L 391.734736 -230.858558 
L 391.785131 -229.395227 
L 391.845385 -227.931896 
L 391.922 -226.468566 
L 392.021945 -225.005235 
L 392.15252 -223.541904 
L 392.321196 -222.078574 
L 392.53544 -220.615243 
L 392.802526 -219.151912 
L 393.129341 -217.688581 
L 393.522177 -216.225251 
L 393.986535 -214.76192 
L 394.526927 -213.298589 
L 395.146696 -211.835259 
L 395.847851 -210.371928 
L 396.630931 -208.908597 
L 397.494894 -207.445267 
L 398.437048 -205.981936 
L 399.453025 -204.518605 
L 400.536794 -203.055275 
L 401.680728 -201.591944 
L 402.875721 -200.128613 
L 404.111349 -198.665282 
L 405.376086 -197.201952 
L 406.657551 -195.738621 
L 407.942801 -194.27529 
L 409.218648 -192.81196 
L 410.471992 -191.348629 
L 411.690165 -189.885298 
L 412.861265 -188.421968 
L 413.974481 -186.958637 
L 415.020384 -185.495306 
L 415.991179 -184.031976 
L 416.880913 -182.568645 
L 417.685619 -181.105314 
L 418.403408 -179.641983 
L 419.034483 -178.178653 
L 419.581094 -176.715322 
L 420.047431 -175.251991 
L 420.43945 -173.788661 
L 420.76465 -172.32533 
L 421.031806 -170.861999 
L 421.250665 -169.398669 
L 421.43162 -167.935338 
L 421.585378 -166.472007 
L 421.722622 -165.008677 
L 421.853691 -163.545346 
L 421.988283 -162.082015 
L 422.135194 -160.618684 
L 422.302091 -159.155354 
L 422.495344 -157.692023 
L 422.719899 -156.228692 
L 422.979211 -154.765362 
L 423.275224 -153.302031 
L 423.60841 -151.8387 
L 423.977844 -150.37537 
L 424.381321 -148.912039 
L 424.815511 -147.448708 
L 425.276131 -145.985378 
L 425.758128 -144.522047 
L 426.25588 -143.058716 
L 426.763373 -141.595385 
L 427.274388 -140.132055 
L 427.782645 -138.668724 
L 428.281942 -137.205393 
L 428.766251 -135.742063 
L 429.229787 -134.278732 
L 429.667048 -132.815401 
L 430.072824 -131.352071 
L 430.442174 -129.88874 
L 430.770399 -128.425409 
L 431.052983 -126.962079 
L 431.285539 -125.498748 
L 431.463752 -124.035417 
L 431.583337 -122.572086 
L 431.64 -121.108756 
L 431.629434 -119.645425 
L 431.547331 -118.182094 
L 431.389422 -116.718764 
L 431.151551 -115.255433 
L 430.829767 -113.792102 
L 430.420444 -112.328772 
L 429.920415 -110.865441 
L 429.32712 -109.40211 
L 428.638756 -107.93878 
L 427.85442 -106.475449 
L 426.974241 -105.012118 
L 425.999493 -103.548788 
L 424.932679 -102.085457 
L 423.777582 -100.622126 
L 422.539278 -99.158795 
L 421.224112 -97.695465 
L 419.839633 -96.232134 
L 418.394491 -94.768803 
L 416.898295 -93.305473 
L 415.361448 -91.842142 
z
" id="maf96c5383c" style="stroke:#494949;stroke-width:1.5;"/>
    </defs>
    <g clip-path="url(#p6d97799325)">
     <use style="fill:#5f9e6e;stroke:#494949;stroke-width:1.5;" x="0" xlink:href="#maf96c5383c" y="432"/>
    </g>
   </g>
   <g id="PolyCollection_4">
    <defs>
     <path d="M 507.631123 -81.323516 
L 489.568877 -81.323516 
L 488.848006 -83.686303 
L 488.089237 -86.049089 
L 487.292581 -88.411876 
L 486.458432 -90.774663 
L 485.587619 -93.137449 
L 484.681459 -95.500236 
L 483.741807 -97.863023 
L 482.771095 -100.22581 
L 481.772364 -102.588596 
L 480.749288 -104.951383 
L 479.706181 -107.31417 
L 478.648 -109.676957 
L 477.580324 -112.039743 
L 476.509329 -114.40253 
L 475.441746 -116.765317 
L 474.384798 -119.128104 
L 473.346132 -121.49089 
L 472.333736 -123.853677 
L 471.35584 -126.216464 
L 470.420812 -128.57925 
L 469.537038 -130.942037 
L 468.712801 -133.304824 
L 467.956152 -135.667611 
L 467.274778 -138.030397 
L 466.675872 -140.393184 
L 466.166005 -142.755971 
L 465.751002 -145.118758 
L 465.435833 -147.481544 
L 465.224509 -149.844331 
L 465.12 -152.207118 
L 465.124164 -154.569904 
L 465.237702 -156.932691 
L 465.460132 -159.295478 
L 465.789783 -161.658265 
L 466.223816 -164.021051 
L 466.758266 -166.383838 
L 467.388104 -168.746625 
L 468.10732 -171.109412 
L 468.909026 -173.472198 
L 469.785567 -175.834985 
L 470.728647 -178.197772 
L 471.729464 -180.560559 
L 472.778846 -182.923345 
L 473.867387 -185.286132 
L 474.985583 -187.648919 
L 476.123956 -190.011705 
L 477.273178 -192.374492 
L 478.424175 -194.737279 
L 479.568226 -197.100066 
L 480.697047 -199.462852 
L 481.802859 -201.825639 
L 482.878447 -204.188426 
L 483.917205 -206.551213 
L 484.913171 -208.913999 
L 485.861048 -211.276786 
L 486.756224 -213.639573 
L 487.594775 -216.00236 
L 488.373471 -218.365146 
L 489.089771 -220.727933 
L 489.741814 -223.09072 
L 490.328412 -225.453506 
L 490.849037 -227.816293 
L 491.303798 -230.17908 
L 491.693429 -232.541867 
L 492.019263 -234.904653 
L 492.283207 -237.26744 
L 492.487711 -239.630227 
L 492.635735 -241.993014 
L 492.730711 -244.3558 
L 492.776499 -246.718587 
L 492.777339 -249.081374 
L 492.737798 -251.44416 
L 492.662711 -253.806947 
L 492.557126 -256.169734 
L 492.426231 -258.532521 
L 492.275296 -260.895307 
L 492.109602 -263.258094 
L 491.934371 -265.620881 
L 491.754707 -267.983668 
L 491.575527 -270.346454 
L 491.401502 -272.709241 
L 491.237005 -275.072028 
L 491.086062 -277.434815 
L 490.952306 -279.797601 
L 490.838945 -282.160388 
L 490.748737 -284.523175 
L 490.683964 -286.885961 
L 490.646429 -289.248748 
L 490.637446 -291.611535 
L 490.657848 -293.974322 
L 490.707996 -296.337108 
L 490.787797 -298.699895 
L 490.89673 -301.062682 
L 491.03387 -303.425469 
L 491.197925 -305.788255 
L 491.387272 -308.151042 
L 491.599997 -310.513829 
L 491.833937 -312.876616 
L 492.086723 -315.239402 
L 505.113277 -315.239402 
L 505.113277 -315.239402 
L 505.366063 -312.876616 
L 505.600003 -310.513829 
L 505.812728 -308.151042 
L 506.002075 -305.788255 
L 506.16613 -303.425469 
L 506.30327 -301.062682 
L 506.412203 -298.699895 
L 506.492004 -296.337108 
L 506.542152 -293.974322 
L 506.562554 -291.611535 
L 506.553571 -289.248748 
L 506.516036 -286.885961 
L 506.451263 -284.523175 
L 506.361055 -282.160388 
L 506.247694 -279.797601 
L 506.113938 -277.434815 
L 505.962995 -275.072028 
L 505.798498 -272.709241 
L 505.624473 -270.346454 
L 505.445293 -267.983668 
L 505.265629 -265.620881 
L 505.090398 -263.258094 
L 504.924704 -260.895307 
L 504.773769 -258.532521 
L 504.642874 -256.169734 
L 504.537289 -253.806947 
L 504.462202 -251.44416 
L 504.422661 -249.081374 
L 504.423501 -246.718587 
L 504.469289 -244.3558 
L 504.564265 -241.993014 
L 504.712289 -239.630227 
L 504.916793 -237.26744 
L 505.180737 -234.904653 
L 505.506571 -232.541867 
L 505.896202 -230.17908 
L 506.350963 -227.816293 
L 506.871588 -225.453506 
L 507.458186 -223.09072 
L 508.110229 -220.727933 
L 508.826529 -218.365146 
L 509.605225 -216.00236 
L 510.443776 -213.639573 
L 511.338952 -211.276786 
L 512.286829 -208.913999 
L 513.282795 -206.551213 
L 514.321553 -204.188426 
L 515.397141 -201.825639 
L 516.502953 -199.462852 
L 517.631774 -197.100066 
L 518.775825 -194.737279 
L 519.926822 -192.374492 
L 521.076044 -190.011705 
L 522.214417 -187.648919 
L 523.332613 -185.286132 
L 524.421154 -182.923345 
L 525.470536 -180.560559 
L 526.471353 -178.197772 
L 527.414433 -175.834985 
L 528.290974 -173.472198 
L 529.09268 -171.109412 
L 529.811896 -168.746625 
L 530.441734 -166.383838 
L 530.976184 -164.021051 
L 531.410217 -161.658265 
L 531.739868 -159.295478 
L 531.962298 -156.932691 
L 532.075836 -154.569904 
L 532.08 -152.207118 
L 531.975491 -149.844331 
L 531.764167 -147.481544 
L 531.448998 -145.118758 
L 531.033995 -142.755971 
L 530.524128 -140.393184 
L 529.925222 -138.030397 
L 529.243848 -135.667611 
L 528.487199 -133.304824 
L 527.662962 -130.942037 
L 526.779188 -128.57925 
L 525.84416 -126.216464 
L 524.866264 -123.853677 
L 523.853868 -121.49089 
L 522.815202 -119.128104 
L 521.758254 -116.765317 
L 520.690671 -114.40253 
L 519.619676 -112.039743 
L 518.552 -109.676957 
L 517.493819 -107.31417 
L 516.450712 -104.951383 
L 515.427636 -102.588596 
L 514.428905 -100.22581 
L 513.458193 -97.863023 
L 512.518541 -95.500236 
L 511.612381 -93.137449 
L 510.741568 -90.774663 
L 509.907419 -88.411876 
L 509.110763 -86.049089 
L 508.351994 -83.686303 
L 507.631123 -81.323516 
z
" id="m674e583f26" style="stroke:#494949;stroke-width:1.5;"/>
    </defs>
    <g clip-path="url(#p6d97799325)">
     <use style="fill:#b55d60;stroke:#494949;stroke-width:1.5;" x="0" xlink:href="#m674e583f26" y="432"/>
    </g>
   </g>
   <g id="PolyCollection_5">
    <defs>
     <path d="M 616.023501 -115.535791 
L 604.376499 -115.535791 
L 604.184546 -116.281132 
L 603.997801 -117.026473 
L 603.816363 -117.771815 
L 603.640236 -118.517156 
L 603.469327 -119.262497 
L 603.303456 -120.007839 
L 603.142359 -120.75318 
L 602.985698 -121.498521 
L 602.833062 -122.243863 
L 602.683983 -122.989204 
L 602.537938 -123.734545 
L 602.394354 -124.479887 
L 602.252623 -125.225228 
L 602.112099 -125.970569 
L 601.972113 -126.715911 
L 601.83197 -127.461252 
L 601.690964 -128.206593 
L 601.548377 -128.951935 
L 601.403492 -129.697276 
L 601.255593 -130.442617 
L 601.10398 -131.187959 
L 600.947975 -131.9333 
L 600.786935 -132.678641 
L 600.62026 -133.423983 
L 600.447414 -134.169324 
L 600.267934 -134.914665 
L 600.081449 -135.660007 
L 599.887697 -136.405348 
L 599.686544 -137.150689 
L 599.478 -137.896031 
L 599.262239 -138.641372 
L 599.039611 -139.386713 
L 598.810659 -140.132055 
L 598.576131 -140.877396 
L 598.336985 -141.622737 
L 598.094393 -142.368079 
L 597.849743 -143.11342 
L 597.604629 -143.858761 
L 597.360843 -144.604103 
L 597.120357 -145.349444 
L 596.885297 -146.094785 
L 596.657921 -146.840127 
L 596.440581 -147.585468 
L 596.235689 -148.330809 
L 596.045677 -149.076151 
L 595.872948 -149.821492 
L 595.719841 -150.566833 
L 595.588577 -151.312175 
L 595.481221 -152.057516 
L 595.399636 -152.802857 
L 595.345446 -153.548199 
L 595.32 -154.29354 
L 595.324343 -155.038881 
L 595.359191 -155.784223 
L 595.424914 -156.529564 
L 595.521526 -157.274905 
L 595.648683 -158.020247 
L 595.805681 -158.765588 
L 595.991473 -159.510929 
L 596.204686 -160.256271 
L 596.443638 -161.001612 
L 596.706373 -161.746953 
L 596.990692 -162.492295 
L 597.294192 -163.237636 
L 597.614299 -163.982977 
L 597.94832 -164.728319 
L 598.293477 -165.47366 
L 598.646955 -166.219001 
L 599.005941 -166.964343 
L 599.367669 -167.709684 
L 599.729456 -168.455025 
L 600.088737 -169.200367 
L 600.443105 -169.945708 
L 600.790332 -170.691049 
L 601.128403 -171.436391 
L 601.455536 -172.181732 
L 601.770197 -172.927073 
L 602.071118 -173.672415 
L 602.357306 -174.417756 
L 602.628044 -175.163097 
L 602.882898 -175.908439 
L 603.121707 -176.65378 
L 603.344578 -177.399121 
L 603.551874 -178.144463 
L 603.744194 -178.889804 
L 603.922358 -179.635145 
L 604.08738 -180.380487 
L 604.24044 -181.125828 
L 604.382859 -181.871169 
L 604.516064 -182.616511 
L 604.641559 -183.361852 
L 604.760887 -184.107193 
L 604.8756 -184.852535 
L 604.987225 -185.597876 
L 605.097233 -186.343217 
L 605.207006 -187.088559 
L 605.317817 -187.8339 
L 605.430799 -188.579241 
L 605.546932 -189.324583 
L 614.853068 -189.324583 
L 614.853068 -189.324583 
L 614.969201 -188.579241 
L 615.082183 -187.8339 
L 615.192994 -187.088559 
L 615.302767 -186.343217 
L 615.412775 -185.597876 
L 615.5244 -184.852535 
L 615.639113 -184.107193 
L 615.758441 -183.361852 
L 615.883936 -182.616511 
L 616.017141 -181.871169 
L 616.15956 -181.125828 
L 616.31262 -180.380487 
L 616.477642 -179.635145 
L 616.655806 -178.889804 
L 616.848126 -178.144463 
L 617.055422 -177.399121 
L 617.278293 -176.65378 
L 617.517102 -175.908439 
L 617.771956 -175.163097 
L 618.042694 -174.417756 
L 618.328882 -173.672415 
L 618.629803 -172.927073 
L 618.944464 -172.181732 
L 619.271597 -171.436391 
L 619.609668 -170.691049 
L 619.956895 -169.945708 
L 620.311263 -169.200367 
L 620.670544 -168.455025 
L 621.032331 -167.709684 
L 621.394059 -166.964343 
L 621.753045 -166.219001 
L 622.106523 -165.47366 
L 622.45168 -164.728319 
L 622.785701 -163.982977 
L 623.105808 -163.237636 
L 623.409308 -162.492295 
L 623.693627 -161.746953 
L 623.956362 -161.001612 
L 624.195314 -160.256271 
L 624.408527 -159.510929 
L 624.594319 -158.765588 
L 624.751317 -158.020247 
L 624.878474 -157.274905 
L 624.975086 -156.529564 
L 625.040809 -155.784223 
L 625.075657 -155.038881 
L 625.08 -154.29354 
L 625.054554 -153.548199 
L 625.000364 -152.802857 
L 624.918779 -152.057516 
L 624.811423 -151.312175 
L 624.680159 -150.566833 
L 624.527052 -149.821492 
L 624.354323 -149.076151 
L 624.164311 -148.330809 
L 623.959419 -147.585468 
L 623.742079 -146.840127 
L 623.514703 -146.094785 
L 623.279643 -145.349444 
L 623.039157 -144.604103 
L 622.795371 -143.858761 
L 622.550257 -143.11342 
L 622.305607 -142.368079 
L 622.063015 -141.622737 
L 621.823869 -140.877396 
L 621.589341 -140.132055 
L 621.360389 -139.386713 
L 621.137761 -138.641372 
L 620.922 -137.896031 
L 620.713456 -137.150689 
L 620.512303 -136.405348 
L 620.318551 -135.660007 
L 620.132066 -134.914665 
L 619.952586 -134.169324 
L 619.77974 -133.423983 
L 619.613065 -132.678641 
L 619.452025 -131.9333 
L 619.29602 -131.187959 
L 619.144407 -130.442617 
L 618.996508 -129.697276 
L 618.851623 -128.951935 
L 618.709036 -128.206593 
L 618.56803 -127.461252 
L 618.427887 -126.715911 
L 618.287901 -125.970569 
L 618.147377 -125.225228 
L 618.005646 -124.479887 
L 617.862062 -123.734545 
L 617.716017 -122.989204 
L 617.566938 -122.243863 
L 617.414302 -121.498521 
L 617.257641 -120.75318 
L 617.096544 -120.007839 
L 616.930673 -119.262497 
L 616.759764 -118.517156 
L 616.583637 -117.771815 
L 616.402199 -117.026473 
L 616.215454 -116.281132 
L 616.023501 -115.535791 
z
" id="me1a5042a8d" style="stroke:#494949;stroke-width:1.5;"/>
    </defs>
    <g clip-path="url(#p6d97799325)">
     <use style="fill:#857aab;stroke:#494949;stroke-width:1.5;" x="0" xlink:href="#me1a5042a8d" y="432"/>
    </g>
   </g>
   <g id="PolyCollection_6">
    <defs>
     <path d="M 728.956376 -108.089215 
L 714.643624 -108.089215 
L 714.56979 -109.271368 
L 714.506832 -110.45352 
L 714.454953 -111.635673 
L 714.41429 -112.817825 
L 714.384918 -113.999977 
L 714.366842 -115.18213 
L 714.36 -116.364282 
L 714.364261 -117.546435 
L 714.379429 -118.728587 
L 714.405238 -119.910739 
L 714.441361 -121.092892 
L 714.487404 -122.275044 
L 714.542916 -123.457196 
L 714.607388 -124.639349 
L 714.680258 -125.821501 
L 714.760914 -127.003654 
L 714.848701 -128.185806 
L 714.942924 -129.367958 
L 715.042855 -130.550111 
L 715.147736 -131.732263 
L 715.256787 -132.914415 
L 715.369211 -134.096568 
L 715.484201 -135.27872 
L 715.600944 -136.460873 
L 715.718631 -137.643025 
L 715.836459 -138.825177 
L 715.953638 -140.00733 
L 716.069398 -141.189482 
L 716.182995 -142.371635 
L 716.293712 -143.553787 
L 716.400869 -144.735939 
L 716.503825 -145.918092 
L 716.601982 -147.100244 
L 716.694788 -148.282396 
L 716.781744 -149.464549 
L 716.862401 -150.646701 
L 716.936367 -151.828854 
L 717.003306 -153.011006 
L 717.062941 -154.193158 
L 717.115052 -155.375311 
L 717.15948 -156.557463 
L 717.196125 -157.739616 
L 717.224941 -158.921768 
L 717.245943 -160.10392 
L 717.259198 -161.286073 
L 717.264828 -162.468225 
L 717.263004 -163.650377 
L 717.253945 -164.83253 
L 717.237915 -166.014682 
L 717.215217 -167.196835 
L 717.186196 -168.378987 
L 717.151227 -169.561139 
L 717.110718 -170.743292 
L 717.065101 -171.925444 
L 717.014833 -173.107597 
L 716.960386 -174.289749 
L 716.902251 -175.471901 
L 716.840926 -176.654054 
L 716.776918 -177.836206 
L 716.710736 -179.018358 
L 716.642892 -180.200511 
L 716.573893 -181.382663 
L 716.50424 -182.564816 
L 716.434426 -183.746968 
L 716.364933 -184.92912 
L 716.296228 -186.111273 
L 716.228766 -187.293425 
L 716.162981 -188.475577 
L 716.099293 -189.65773 
L 716.038098 -190.839882 
L 715.979775 -192.022035 
L 715.92468 -193.204187 
L 715.873146 -194.386339 
L 715.825486 -195.568492 
L 715.781991 -196.750644 
L 715.742926 -197.932797 
L 715.708537 -199.114949 
L 715.679047 -200.297101 
L 715.654657 -201.479254 
L 715.635546 -202.661406 
L 715.621872 -203.843558 
L 715.613772 -205.025711 
L 715.611363 -206.207863 
L 715.614741 -207.390016 
L 715.623983 -208.572168 
L 715.639147 -209.75432 
L 715.66027 -210.936473 
L 715.687372 -212.118625 
L 715.720453 -213.300778 
L 715.759494 -214.48293 
L 715.804459 -215.665082 
L 715.855293 -216.847235 
L 715.911923 -218.029387 
L 715.974256 -219.211539 
L 716.042185 -220.393692 
L 716.11558 -221.575844 
L 716.194298 -222.757997 
L 716.278175 -223.940149 
L 716.367032 -225.122301 
L 727.232968 -225.122301 
L 727.232968 -225.122301 
L 727.321825 -223.940149 
L 727.405702 -222.757997 
L 727.48442 -221.575844 
L 727.557815 -220.393692 
L 727.625744 -219.211539 
L 727.688077 -218.029387 
L 727.744707 -216.847235 
L 727.795541 -215.665082 
L 727.840506 -214.48293 
L 727.879547 -213.300778 
L 727.912628 -212.118625 
L 727.93973 -210.936473 
L 727.960853 -209.75432 
L 727.976017 -208.572168 
L 727.985259 -207.390016 
L 727.988637 -206.207863 
L 727.986228 -205.025711 
L 727.978128 -203.843558 
L 727.964454 -202.661406 
L 727.945343 -201.479254 
L 727.920953 -200.297101 
L 727.891463 -199.114949 
L 727.857074 -197.932797 
L 727.818009 -196.750644 
L 727.774514 -195.568492 
L 727.726854 -194.386339 
L 727.67532 -193.204187 
L 727.620225 -192.022035 
L 727.561902 -190.839882 
L 727.500707 -189.65773 
L 727.437019 -188.475577 
L 727.371234 -187.293425 
L 727.303772 -186.111273 
L 727.235067 -184.92912 
L 727.165574 -183.746968 
L 727.09576 -182.564816 
L 727.026107 -181.382663 
L 726.957108 -180.200511 
L 726.889264 -179.018358 
L 726.823082 -177.836206 
L 726.759074 -176.654054 
L 726.697749 -175.471901 
L 726.639614 -174.289749 
L 726.585167 -173.107597 
L 726.534899 -171.925444 
L 726.489282 -170.743292 
L 726.448773 -169.561139 
L 726.413804 -168.378987 
L 726.384783 -167.196835 
L 726.362085 -166.014682 
L 726.346055 -164.83253 
L 726.336996 -163.650377 
L 726.335172 -162.468225 
L 726.340802 -161.286073 
L 726.354057 -160.10392 
L 726.375059 -158.921768 
L 726.403875 -157.739616 
L 726.44052 -156.557463 
L 726.484948 -155.375311 
L 726.537059 -154.193158 
L 726.596694 -153.011006 
L 726.663633 -151.828854 
L 726.737599 -150.646701 
L 726.818256 -149.464549 
L 726.905212 -148.282396 
L 726.998018 -147.100244 
L 727.096175 -145.918092 
L 727.199131 -144.735939 
L 727.306288 -143.553787 
L 727.417005 -142.371635 
L 727.530602 -141.189482 
L 727.646362 -140.00733 
L 727.763541 -138.825177 
L 727.881369 -137.643025 
L 727.999056 -136.460873 
L 728.115799 -135.27872 
L 728.230789 -134.096568 
L 728.343213 -132.914415 
L 728.452264 -131.732263 
L 728.557145 -130.550111 
L 728.657076 -129.367958 
L 728.751299 -128.185806 
L 728.839086 -127.003654 
L 728.919742 -125.821501 
L 728.992612 -124.639349 
L 729.057084 -123.457196 
L 729.112596 -122.275044 
L 729.158639 -121.092892 
L 729.194762 -119.910739 
L 729.220571 -118.728587 
L 729.235739 -117.546435 
L 729.24 -116.364282 
L 729.233158 -115.18213 
L 729.215082 -113.999977 
L 729.18571 -112.817825 
L 729.145047 -111.635673 
L 729.093168 -110.45352 
L 729.03021 -109.271368 
L 728.956376 -108.089215 
z
" id="m6170ac94db" style="stroke:#494949;stroke-width:1.5;"/>
    </defs>
    <g clip-path="url(#p6d97799325)">
     <use style="fill:#8d7866;stroke:#494949;stroke-width:1.5;" x="0" xlink:href="#m6170ac94db" y="432"/>
    </g>
   </g>
   <g id="line2d_6">
    <path clip-path="url(#p6d97799325)" d="M 146.046932 349.093748 
L 181.553068 349.093748 
" style="fill:none;stroke:#494949;stroke-dasharray:3.375,3.375;stroke-dashoffset:0;stroke-width:1.5;"/>
   </g>
   <g id="line2d_7">
    <path clip-path="url(#p6d97799325)" d="M 146.307593 334.065205 
L 181.292407 334.065205 
" style="fill:none;stroke:#494949;stroke-dasharray:6.75,6.75;stroke-dashoffset:0;stroke-width:1.5;"/>
   </g>
   <g id="line2d_8">
    <path clip-path="url(#p6d97799325)" d="M 149.740497 318.495093 
L 177.859503 318.495093 
" style="fill:none;stroke:#494949;stroke-dasharray:3.375,3.375;stroke-dashoffset:0;stroke-width:1.5;"/>
   </g>
   <g id="line2d_9">
    <path clip-path="url(#p6d97799325)" d="M 256.218083 318.495093 
L 294.581917 318.495093 
" style="fill:none;stroke:#494949;stroke-dasharray:3.375,3.375;stroke-dashoffset:0;stroke-width:1.5;"/>
   </g>
   <g id="line2d_10">
    <path clip-path="url(#p6d97799325)" d="M 255.604272 290.062715 
L 295.195728 290.062715 
" style="fill:none;stroke:#494949;stroke-dasharray:6.75,6.75;stroke-dashoffset:0;stroke-width:1.5;"/>
   </g>
   <g id="line2d_11">
    <path clip-path="url(#p6d97799325)" d="M 261.987794 240.136812 
L 288.812206 240.136812 
" style="fill:none;stroke:#494949;stroke-dasharray:3.375,3.375;stroke-dashoffset:0;stroke-width:1.5;"/>
   </g>
   <g id="line2d_12">
    <path clip-path="url(#p6d97799325)" d="M 344.50879 320.864458 
L 429.49121 320.864458 
" style="fill:none;stroke:#494949;stroke-dasharray:3.375,3.375;stroke-dashoffset:0;stroke-width:1.5;"/>
   </g>
   <g id="line2d_13">
    <path clip-path="url(#p6d97799325)" d="M 345.651412 296.832329 
L 428.348588 296.832329 
" style="fill:none;stroke:#494949;stroke-dasharray:6.75,6.75;stroke-dashoffset:0;stroke-width:1.5;"/>
   </g>
   <g id="line2d_14">
    <path clip-path="url(#p6d97799325)" d="M 353.308512 260.445654 
L 420.691488 260.445654 
" style="fill:none;stroke:#494949;stroke-dasharray:3.375,3.375;stroke-dashoffset:0;stroke-width:1.5;"/>
   </g>
   <g id="line2d_15">
    <path clip-path="url(#p6d97799325)" d="M 469.011673 298.524732 
L 528.188327 298.524732 
" style="fill:none;stroke:#494949;stroke-dasharray:3.375,3.375;stroke-dashoffset:0;stroke-width:1.5;"/>
   </g>
   <g id="line2d_16">
    <path clip-path="url(#p6d97799325)" d="M 465.571325 275.054481 
L 531.628675 275.054481 
" style="fill:none;stroke:#494949;stroke-dasharray:6.75,6.75;stroke-dashoffset:0;stroke-width:1.5;"/>
   </g>
   <g id="line2d_17">
    <path clip-path="url(#p6d97799325)" d="M 474.114713 246.060224 
L 523.085287 246.060224 
" style="fill:none;stroke:#494949;stroke-dasharray:3.375,3.375;stroke-dashoffset:0;stroke-width:1.5;"/>
   </g>
   <g id="line2d_18">
    <path clip-path="url(#p6d97799325)" d="M 599.58522 294.124483 
L 620.81478 294.124483 
" style="fill:none;stroke:#494949;stroke-dasharray:3.375,3.375;stroke-dashoffset:0;stroke-width:1.5;"/>
   </g>
   <g id="line2d_19">
    <path clip-path="url(#p6d97799325)" d="M 595.4688 277.87741 
L 624.9312 277.87741 
" style="fill:none;stroke:#494949;stroke-dasharray:6.75,6.75;stroke-dashoffset:0;stroke-width:1.5;"/>
   </g>
   <g id="line2d_20">
    <path clip-path="url(#p6d97799325)" d="M 596.581201 271.36978 
L 623.818799 271.36978 
" style="fill:none;stroke:#494949;stroke-dasharray:3.375,3.375;stroke-dashoffset:0;stroke-width:1.5;"/>
   </g>
   <g id="line2d_21">
    <path clip-path="url(#p6d97799325)" d="M 714.453635 313.248643 
L 729.146365 313.248643 
" style="fill:none;stroke:#494949;stroke-dasharray:3.375,3.375;stroke-dashoffset:0;stroke-width:1.5;"/>
   </g>
   <g id="line2d_22">
    <path clip-path="url(#p6d97799325)" d="M 717.161902 276.185006 
L 726.438098 276.185006 
" style="fill:none;stroke:#494949;stroke-dasharray:6.75,6.75;stroke-dashoffset:0;stroke-width:1.5;"/>
   </g>
   <g id="line2d_23">
    <path clip-path="url(#p6d97799325)" d="M 715.803497 233.725988 
L 727.796503 233.725988 
" style="fill:none;stroke:#494949;stroke-dasharray:3.375,3.375;stroke-dashoffset:0;stroke-width:1.5;"/>
   </g>
   <g id="patch_3">
    <path d="M 108 378 
L 108 51.84 
" style="fill:none;stroke:#ffffff;stroke-linecap:square;stroke-linejoin:miter;stroke-width:1.25;"/>
   </g>
   <g id="patch_4">
    <path d="M 777.6 378 
L 777.6 51.84 
" style="fill:none;stroke:#ffffff;stroke-linecap:square;stroke-linejoin:miter;stroke-width:1.25;"/>
   </g>
   <g id="patch_5">
    <path d="M 108 378 
L 777.6 378 
" style="fill:none;stroke:#ffffff;stroke-linecap:square;stroke-linejoin:miter;stroke-width:1.25;"/>
   </g>
   <g id="patch_6">
    <path d="M 108 51.84 
L 777.6 51.84 
" style="fill:none;stroke:#ffffff;stroke-linecap:square;stroke-linejoin:miter;stroke-width:1.25;"/>
   </g>
   <g id="text_14">
    <!-- Compensation by Experience -->
    <defs>
     <path d="M 14.703125 0 
L 6.546875 0 
L 6.546875 71.578125 
L 15.328125 71.578125 
L 15.328125 46.046875 
Q 20.90625 53.03125 29.546875 53.03125 
Q 34.328125 53.03125 38.59375 51.09375 
Q 42.875 49.171875 45.625 45.671875 
Q 48.390625 42.1875 49.953125 37.25 
Q 51.515625 32.328125 51.515625 26.703125 
Q 51.515625 13.375 44.921875 6.09375 
Q 38.328125 -1.171875 29.109375 -1.171875 
Q 19.921875 -1.171875 14.703125 6.5 
z
M 14.59375 26.3125 
Q 14.59375 17 17.140625 12.84375 
Q 21.296875 6.0625 28.375 6.0625 
Q 34.125 6.0625 38.328125 11.0625 
Q 42.53125 16.0625 42.53125 25.984375 
Q 42.53125 36.140625 38.5 40.96875 
Q 34.46875 45.796875 28.765625 45.796875 
Q 23 45.796875 18.796875 40.796875 
Q 14.59375 35.796875 14.59375 26.3125 
z
" id="ArialMT-98"/>
    </defs>
    <g style="fill:#262626;" transform="translate(364.426875 45.84)scale(0.12 -0.12)">
     <use xlink:href="#ArialMT-67"/>
     <use x="72.216797" xlink:href="#ArialMT-111"/>
     <use x="127.832031" xlink:href="#ArialMT-109"/>
     <use x="211.132812" xlink:href="#ArialMT-112"/>
     <use x="266.748047" xlink:href="#ArialMT-101"/>
     <use x="322.363281" xlink:href="#ArialMT-110"/>
     <use x="377.978516" xlink:href="#ArialMT-115"/>
     <use x="427.978516" xlink:href="#ArialMT-97"/>
     <use x="483.59375" xlink:href="#ArialMT-116"/>
     <use x="511.376953" xlink:href="#ArialMT-105"/>
     <use x="533.59375" xlink:href="#ArialMT-111"/>
     <use x="589.208984" xlink:href="#ArialMT-110"/>
     <use x="644.824219" xlink:href="#ArialMT-32"/>
     <use x="672.607422" xlink:href="#ArialMT-98"/>
     <use x="728.222656" xlink:href="#ArialMT-121"/>
     <use x="778.222656" xlink:href="#ArialMT-32"/>
     <use x="806.005859" xlink:href="#ArialMT-69"/>
     <use x="872.705078" xlink:href="#ArialMT-120"/>
     <use x="922.705078" xlink:href="#ArialMT-112"/>
     <use x="978.320312" xlink:href="#ArialMT-101"/>
     <use x="1033.935547" xlink:href="#ArialMT-114"/>
     <use x="1067.236328" xlink:href="#ArialMT-105"/>
     <use x="1089.453125" xlink:href="#ArialMT-101"/>
     <use x="1145.068359" xlink:href="#ArialMT-110"/>
     <use x="1200.683594" xlink:href="#ArialMT-99"/>
     <use x="1250.683594" xlink:href="#ArialMT-101"/>
    </g>
   </g>
  </g>
 </g>
 <defs>
  <clipPath id="p6d97799325">
   <rect height="326.16" width="669.6" x="108" y="51.84"/>
  </clipPath>
 </defs>
</svg>
