<?xml version="1.0" encoding="utf-8" standalone="no"?>
<!DOCTYPE svg PUBLIC "-//W3C//DTD SVG 1.1//EN"
  "http://www.w3.org/Graphics/SVG/1.1/DTD/svg11.dtd">
<!-- Created with matplotlib (https://matplotlib.org/) -->
<svg height="432pt" version="1.1" viewBox="0 0 864 432" width="864pt" xmlns="http://www.w3.org/2000/svg" xmlns:xlink="http://www.w3.org/1999/xlink">
 <defs>
  <style type="text/css">
*{stroke-linecap:butt;stroke-linejoin:round;white-space:pre;}
  </style>
 </defs>
 <g id="figure_1">
  <g id="patch_1">
   <path d="M 0 432 
L 864 432 
L 864 0 
L 0 0 
z
" style="fill:#ffffff;"/>
  </g>
  <g id="axes_1">
   <g id="patch_2">
    <path d="M 108 378 
L 777.6 378 
L 777.6 51.84 
L 108 51.84 
z
" style="fill:#eaeaf2;"/>
   </g>
   <g id="matplotlib.axis_1">
    <g id="xtick_1">
     <g id="line2d_1">
      <path clip-path="url(#pb057071f4a)" d="M 126.543999 378 
L 126.543999 51.84 
" style="fill:none;stroke:#ffffff;stroke-linecap:round;"/>
     </g>
     <g id="text_1">
      <!-- 0 -->
      <defs>
       <path d="M 4.15625 35.296875 
Q 4.15625 48 6.765625 55.734375 
Q 9.375 63.484375 14.515625 67.671875 
Q 19.671875 71.875 27.484375 71.875 
Q 33.25 71.875 37.59375 69.546875 
Q 41.9375 67.234375 44.765625 62.859375 
Q 47.609375 58.5 49.21875 52.21875 
Q 50.828125 45.953125 50.828125 35.296875 
Q 50.828125 22.703125 48.234375 14.96875 
Q 45.65625 7.234375 40.5 3 
Q 35.359375 -1.21875 27.484375 -1.21875 
Q 17.140625 -1.21875 11.234375 6.203125 
Q 4.15625 15.140625 4.15625 35.296875 
z
M 13.1875 35.296875 
Q 13.1875 17.671875 17.3125 11.828125 
Q 21.4375 6 27.484375 6 
Q 33.546875 6 37.671875 11.859375 
Q 41.796875 17.71875 41.796875 35.296875 
Q 41.796875 52.984375 37.671875 58.78125 
Q 33.546875 64.59375 27.390625 64.59375 
Q 21.34375 64.59375 17.71875 59.46875 
Q 13.1875 52.9375 13.1875 35.296875 
z
" id="ArialMT-48"/>
      </defs>
      <g style="fill:#262626;" transform="translate(123.485483 395.373594)scale(0.11 -0.11)">
       <use xlink:href="#ArialMT-48"/>
      </g>
     </g>
    </g>
    <g id="xtick_2">
     <g id="line2d_2">
      <path clip-path="url(#pb057071f4a)" d="M 225.066118 378 
L 225.066118 51.84 
" style="fill:none;stroke:#ffffff;stroke-linecap:round;"/>
     </g>
     <g id="text_2">
      <!-- 50 -->
      <defs>
       <path d="M 4.15625 18.75 
L 13.375 19.53125 
Q 14.40625 12.796875 18.140625 9.390625 
Q 21.875 6 27.15625 6 
Q 33.5 6 37.890625 10.78125 
Q 42.28125 15.578125 42.28125 23.484375 
Q 42.28125 31 38.0625 35.34375 
Q 33.84375 39.703125 27 39.703125 
Q 22.75 39.703125 19.328125 37.765625 
Q 15.921875 35.84375 13.96875 32.765625 
L 5.71875 33.84375 
L 12.640625 70.609375 
L 48.25 70.609375 
L 48.25 62.203125 
L 19.671875 62.203125 
L 15.828125 42.96875 
Q 22.265625 47.46875 29.34375 47.46875 
Q 38.71875 47.46875 45.15625 40.96875 
Q 51.609375 34.46875 51.609375 24.265625 
Q 51.609375 14.546875 45.953125 7.46875 
Q 39.0625 -1.21875 27.15625 -1.21875 
Q 17.390625 -1.21875 11.203125 4.25 
Q 5.03125 9.71875 4.15625 18.75 
z
" id="ArialMT-53"/>
      </defs>
      <g style="fill:#262626;" transform="translate(218.949086 395.373594)scale(0.11 -0.11)">
       <use xlink:href="#ArialMT-53"/>
       <use x="55.615234" xlink:href="#ArialMT-48"/>
      </g>
     </g>
    </g>
    <g id="xtick_3">
     <g id="line2d_3">
      <path clip-path="url(#pb057071f4a)" d="M 323.588236 378 
L 323.588236 51.84 
" style="fill:none;stroke:#ffffff;stroke-linecap:round;"/>
     </g>
     <g id="text_3">
      <!-- 100 -->
      <defs>
       <path d="M 37.25 0 
L 28.46875 0 
L 28.46875 56 
Q 25.296875 52.984375 20.140625 49.953125 
Q 14.984375 46.921875 10.890625 45.40625 
L 10.890625 53.90625 
Q 18.265625 57.375 23.78125 62.296875 
Q 29.296875 67.234375 31.59375 71.875 
L 37.25 71.875 
z
" id="ArialMT-49"/>
      </defs>
      <g style="fill:#262626;" transform="translate(314.412689 395.373594)scale(0.11 -0.11)">
       <use xlink:href="#ArialMT-49"/>
       <use x="55.615234" xlink:href="#ArialMT-48"/>
       <use x="111.230469" xlink:href="#ArialMT-48"/>
      </g>
     </g>
    </g>
    <g id="xtick_4">
     <g id="line2d_4">
      <path clip-path="url(#pb057071f4a)" d="M 422.110355 378 
L 422.110355 51.84 
" style="fill:none;stroke:#ffffff;stroke-linecap:round;"/>
     </g>
     <g id="text_4">
      <!-- 150 -->
      <g style="fill:#262626;" transform="translate(412.934808 395.373594)scale(0.11 -0.11)">
       <use xlink:href="#ArialMT-49"/>
       <use x="55.615234" xlink:href="#ArialMT-53"/>
       <use x="111.230469" xlink:href="#ArialMT-48"/>
      </g>
     </g>
    </g>
    <g id="xtick_5">
     <g id="line2d_5">
      <path clip-path="url(#pb057071f4a)" d="M 520.632474 378 
L 520.632474 51.84 
" style="fill:none;stroke:#ffffff;stroke-linecap:round;"/>
     </g>
     <g id="text_5">
      <!-- 200 -->
      <defs>
       <path d="M 50.34375 8.453125 
L 50.34375 0 
L 3.03125 0 
Q 2.9375 3.171875 4.046875 6.109375 
Q 5.859375 10.9375 9.828125 15.625 
Q 13.8125 20.3125 21.34375 26.46875 
Q 33.015625 36.03125 37.109375 41.625 
Q 41.21875 47.21875 41.21875 52.203125 
Q 41.21875 57.421875 37.46875 61 
Q 33.734375 64.59375 27.734375 64.59375 
Q 21.390625 64.59375 17.578125 60.78125 
Q 13.765625 56.984375 13.71875 50.25 
L 4.6875 51.171875 
Q 5.609375 61.28125 11.65625 66.578125 
Q 17.71875 71.875 27.9375 71.875 
Q 38.234375 71.875 44.234375 66.15625 
Q 50.25 60.453125 50.25 52 
Q 50.25 47.703125 48.484375 43.546875 
Q 46.734375 39.40625 42.65625 34.8125 
Q 38.578125 30.21875 29.109375 22.21875 
Q 21.1875 15.578125 18.9375 13.203125 
Q 16.703125 10.84375 15.234375 8.453125 
z
" id="ArialMT-50"/>
      </defs>
      <g style="fill:#262626;" transform="translate(511.456927 395.373594)scale(0.11 -0.11)">
       <use xlink:href="#ArialMT-50"/>
       <use x="55.615234" xlink:href="#ArialMT-48"/>
       <use x="111.230469" xlink:href="#ArialMT-48"/>
      </g>
     </g>
    </g>
    <g id="xtick_6">
     <g id="line2d_6">
      <path clip-path="url(#pb057071f4a)" d="M 619.154593 378 
L 619.154593 51.84 
" style="fill:none;stroke:#ffffff;stroke-linecap:round;"/>
     </g>
     <g id="text_6">
      <!-- 250 -->
      <g style="fill:#262626;" transform="translate(609.979046 395.373594)scale(0.11 -0.11)">
       <use xlink:href="#ArialMT-50"/>
       <use x="55.615234" xlink:href="#ArialMT-53"/>
       <use x="111.230469" xlink:href="#ArialMT-48"/>
      </g>
     </g>
    </g>
    <g id="xtick_7">
     <g id="line2d_7">
      <path clip-path="url(#pb057071f4a)" d="M 717.676711 378 
L 717.676711 51.84 
" style="fill:none;stroke:#ffffff;stroke-linecap:round;"/>
     </g>
     <g id="text_7">
      <!-- 300 -->
      <defs>
       <path d="M 4.203125 18.890625 
L 12.984375 20.0625 
Q 14.5 12.59375 18.140625 9.296875 
Q 21.78125 6 27 6 
Q 33.203125 6 37.46875 10.296875 
Q 41.75 14.59375 41.75 20.953125 
Q 41.75 27 37.796875 30.921875 
Q 33.84375 34.859375 27.734375 34.859375 
Q 25.25 34.859375 21.53125 33.890625 
L 22.515625 41.609375 
Q 23.390625 41.5 23.921875 41.5 
Q 29.546875 41.5 34.03125 44.421875 
Q 38.53125 47.359375 38.53125 53.46875 
Q 38.53125 58.296875 35.25 61.46875 
Q 31.984375 64.65625 26.8125 64.65625 
Q 21.6875 64.65625 18.265625 61.421875 
Q 14.84375 58.203125 13.875 51.765625 
L 5.078125 53.328125 
Q 6.6875 62.15625 12.390625 67.015625 
Q 18.109375 71.875 26.609375 71.875 
Q 32.46875 71.875 37.390625 69.359375 
Q 42.328125 66.84375 44.9375 62.5 
Q 47.5625 58.15625 47.5625 53.265625 
Q 47.5625 48.640625 45.0625 44.828125 
Q 42.578125 41.015625 37.703125 38.765625 
Q 44.046875 37.3125 47.5625 32.6875 
Q 51.078125 28.078125 51.078125 21.140625 
Q 51.078125 11.765625 44.234375 5.25 
Q 37.40625 -1.265625 26.953125 -1.265625 
Q 17.53125 -1.265625 11.296875 4.34375 
Q 5.078125 9.96875 4.203125 18.890625 
z
" id="ArialMT-51"/>
      </defs>
      <g style="fill:#262626;" transform="translate(708.501164 395.373594)scale(0.11 -0.11)">
       <use xlink:href="#ArialMT-51"/>
       <use x="55.615234" xlink:href="#ArialMT-48"/>
       <use x="111.230469" xlink:href="#ArialMT-48"/>
      </g>
     </g>
    </g>
    <g id="text_8">
     <!-- Compensation ($1000s) -->
     <defs>
      <path d="M 58.796875 25.09375 
L 68.265625 22.703125 
Q 65.28125 11.03125 57.546875 4.90625 
Q 49.8125 -1.21875 38.625 -1.21875 
Q 27.046875 -1.21875 19.796875 3.484375 
Q 12.546875 8.203125 8.765625 17.140625 
Q 4.984375 26.078125 4.984375 36.328125 
Q 4.984375 47.515625 9.25 55.828125 
Q 13.53125 64.15625 21.40625 68.46875 
Q 29.296875 72.796875 38.765625 72.796875 
Q 49.515625 72.796875 56.828125 67.328125 
Q 64.15625 61.859375 67.046875 51.953125 
L 57.71875 49.75 
Q 55.21875 57.5625 50.484375 61.125 
Q 45.75 64.703125 38.578125 64.703125 
Q 30.328125 64.703125 24.78125 60.734375 
Q 19.234375 56.78125 16.984375 50.109375 
Q 14.75 43.453125 14.75 36.375 
Q 14.75 27.25 17.40625 20.4375 
Q 20.0625 13.625 25.671875 10.25 
Q 31.296875 6.890625 37.84375 6.890625 
Q 45.796875 6.890625 51.3125 11.46875 
Q 56.84375 16.0625 58.796875 25.09375 
z
" id="ArialMT-67"/>
      <path d="M 3.328125 25.921875 
Q 3.328125 40.328125 11.328125 47.265625 
Q 18.015625 53.03125 27.640625 53.03125 
Q 38.328125 53.03125 45.109375 46.015625 
Q 51.90625 39.015625 51.90625 26.65625 
Q 51.90625 16.65625 48.90625 10.90625 
Q 45.90625 5.171875 40.15625 2 
Q 34.421875 -1.171875 27.640625 -1.171875 
Q 16.75 -1.171875 10.03125 5.8125 
Q 3.328125 12.796875 3.328125 25.921875 
z
M 12.359375 25.921875 
Q 12.359375 15.96875 16.703125 11.015625 
Q 21.046875 6.0625 27.640625 6.0625 
Q 34.1875 6.0625 38.53125 11.03125 
Q 42.875 16.015625 42.875 26.21875 
Q 42.875 35.84375 38.5 40.796875 
Q 34.125 45.75 27.640625 45.75 
Q 21.046875 45.75 16.703125 40.8125 
Q 12.359375 35.890625 12.359375 25.921875 
z
" id="ArialMT-111"/>
      <path d="M 6.59375 0 
L 6.59375 51.859375 
L 14.453125 51.859375 
L 14.453125 44.578125 
Q 16.890625 48.390625 20.9375 50.703125 
Q 25 53.03125 30.171875 53.03125 
Q 35.9375 53.03125 39.625 50.640625 
Q 43.3125 48.25 44.828125 43.953125 
Q 50.984375 53.03125 60.84375 53.03125 
Q 68.5625 53.03125 72.703125 48.75 
Q 76.859375 44.484375 76.859375 35.59375 
L 76.859375 0 
L 68.109375 0 
L 68.109375 32.671875 
Q 68.109375 37.9375 67.25 40.25 
Q 66.40625 42.578125 64.15625 43.984375 
Q 61.921875 45.40625 58.890625 45.40625 
Q 53.421875 45.40625 49.796875 41.765625 
Q 46.1875 38.140625 46.1875 30.125 
L 46.1875 0 
L 37.40625 0 
L 37.40625 33.6875 
Q 37.40625 39.546875 35.25 42.46875 
Q 33.109375 45.40625 28.21875 45.40625 
Q 24.515625 45.40625 21.359375 43.453125 
Q 18.21875 41.5 16.796875 37.734375 
Q 15.375 33.984375 15.375 26.90625 
L 15.375 0 
z
" id="ArialMT-109"/>
      <path d="M 6.59375 -19.875 
L 6.59375 51.859375 
L 14.59375 51.859375 
L 14.59375 45.125 
Q 17.4375 49.078125 21 51.046875 
Q 24.5625 53.03125 29.640625 53.03125 
Q 36.28125 53.03125 41.359375 49.609375 
Q 46.4375 46.1875 49.015625 39.953125 
Q 51.609375 33.734375 51.609375 26.3125 
Q 51.609375 18.359375 48.75 11.984375 
Q 45.90625 5.609375 40.453125 2.21875 
Q 35.015625 -1.171875 29 -1.171875 
Q 24.609375 -1.171875 21.109375 0.6875 
Q 17.625 2.546875 15.375 5.375 
L 15.375 -19.875 
z
M 14.546875 25.640625 
Q 14.546875 15.625 18.59375 10.84375 
Q 22.65625 6.0625 28.421875 6.0625 
Q 34.28125 6.0625 38.453125 11.015625 
Q 42.625 15.96875 42.625 26.375 
Q 42.625 36.28125 38.546875 41.203125 
Q 34.46875 46.140625 28.8125 46.140625 
Q 23.1875 46.140625 18.859375 40.890625 
Q 14.546875 35.640625 14.546875 25.640625 
z
" id="ArialMT-112"/>
      <path d="M 42.09375 16.703125 
L 51.171875 15.578125 
Q 49.03125 7.625 43.21875 3.21875 
Q 37.40625 -1.171875 28.375 -1.171875 
Q 17 -1.171875 10.328125 5.828125 
Q 3.65625 12.84375 3.65625 25.484375 
Q 3.65625 38.578125 10.390625 45.796875 
Q 17.140625 53.03125 27.875 53.03125 
Q 38.28125 53.03125 44.875 45.953125 
Q 51.46875 38.875 51.46875 26.03125 
Q 51.46875 25.25 51.421875 23.6875 
L 12.75 23.6875 
Q 13.234375 15.140625 17.578125 10.59375 
Q 21.921875 6.0625 28.421875 6.0625 
Q 33.25 6.0625 36.671875 8.59375 
Q 40.09375 11.140625 42.09375 16.703125 
z
M 13.234375 30.90625 
L 42.1875 30.90625 
Q 41.609375 37.453125 38.875 40.71875 
Q 34.671875 45.796875 27.984375 45.796875 
Q 21.921875 45.796875 17.796875 41.75 
Q 13.671875 37.703125 13.234375 30.90625 
z
" id="ArialMT-101"/>
      <path d="M 6.59375 0 
L 6.59375 51.859375 
L 14.5 51.859375 
L 14.5 44.484375 
Q 20.21875 53.03125 31 53.03125 
Q 35.6875 53.03125 39.625 51.34375 
Q 43.5625 49.65625 45.515625 46.921875 
Q 47.46875 44.1875 48.25 40.4375 
Q 48.734375 37.984375 48.734375 31.890625 
L 48.734375 0 
L 39.9375 0 
L 39.9375 31.546875 
Q 39.9375 36.921875 38.90625 39.578125 
Q 37.890625 42.234375 35.28125 43.8125 
Q 32.671875 45.40625 29.15625 45.40625 
Q 23.53125 45.40625 19.453125 41.84375 
Q 15.375 38.28125 15.375 28.328125 
L 15.375 0 
z
" id="ArialMT-110"/>
      <path d="M 3.078125 15.484375 
L 11.765625 16.84375 
Q 12.5 11.625 15.84375 8.84375 
Q 19.1875 6.0625 25.203125 6.0625 
Q 31.25 6.0625 34.171875 8.515625 
Q 37.109375 10.984375 37.109375 14.3125 
Q 37.109375 17.28125 34.515625 19 
Q 32.71875 20.171875 25.53125 21.96875 
Q 15.875 24.421875 12.140625 26.203125 
Q 8.40625 27.984375 6.46875 31.125 
Q 4.546875 34.28125 4.546875 38.09375 
Q 4.546875 41.546875 6.125 44.5 
Q 7.71875 47.46875 10.453125 49.421875 
Q 12.5 50.921875 16.03125 51.96875 
Q 19.578125 53.03125 23.640625 53.03125 
Q 29.734375 53.03125 34.34375 51.265625 
Q 38.96875 49.515625 41.15625 46.5 
Q 43.359375 43.5 44.1875 38.484375 
L 35.59375 37.3125 
Q 35.015625 41.3125 32.203125 43.546875 
Q 29.390625 45.796875 24.265625 45.796875 
Q 18.21875 45.796875 15.625 43.796875 
Q 13.03125 41.796875 13.03125 39.109375 
Q 13.03125 37.40625 14.109375 36.03125 
Q 15.1875 34.625 17.484375 33.6875 
Q 18.796875 33.203125 25.25 31.453125 
Q 34.578125 28.953125 38.25 27.359375 
Q 41.9375 25.78125 44.03125 22.75 
Q 46.140625 19.734375 46.140625 15.234375 
Q 46.140625 10.84375 43.578125 6.953125 
Q 41.015625 3.078125 36.171875 0.953125 
Q 31.34375 -1.171875 25.25 -1.171875 
Q 15.140625 -1.171875 9.84375 3.03125 
Q 4.546875 7.234375 3.078125 15.484375 
z
" id="ArialMT-115"/>
      <path d="M 40.4375 6.390625 
Q 35.546875 2.25 31.03125 0.53125 
Q 26.515625 -1.171875 21.34375 -1.171875 
Q 12.796875 -1.171875 8.203125 3 
Q 3.609375 7.171875 3.609375 13.671875 
Q 3.609375 17.484375 5.34375 20.625 
Q 7.078125 23.78125 9.890625 25.6875 
Q 12.703125 27.59375 16.21875 28.5625 
Q 18.796875 29.25 24.03125 29.890625 
Q 34.671875 31.15625 39.703125 32.90625 
Q 39.75 34.71875 39.75 35.203125 
Q 39.75 40.578125 37.25 42.78125 
Q 33.890625 45.75 27.25 45.75 
Q 21.046875 45.75 18.09375 43.578125 
Q 15.140625 41.40625 13.71875 35.890625 
L 5.125 37.0625 
Q 6.296875 42.578125 8.984375 45.96875 
Q 11.671875 49.359375 16.75 51.1875 
Q 21.828125 53.03125 28.515625 53.03125 
Q 35.15625 53.03125 39.296875 51.46875 
Q 43.453125 49.90625 45.40625 47.53125 
Q 47.359375 45.171875 48.140625 41.546875 
Q 48.578125 39.3125 48.578125 33.453125 
L 48.578125 21.734375 
Q 48.578125 9.46875 49.140625 6.21875 
Q 49.703125 2.984375 51.375 0 
L 42.1875 0 
Q 40.828125 2.734375 40.4375 6.390625 
z
M 39.703125 26.03125 
Q 34.90625 24.078125 25.34375 22.703125 
Q 19.921875 21.921875 17.671875 20.9375 
Q 15.4375 19.96875 14.203125 18.09375 
Q 12.984375 16.21875 12.984375 13.921875 
Q 12.984375 10.40625 15.640625 8.0625 
Q 18.3125 5.71875 23.4375 5.71875 
Q 28.515625 5.71875 32.46875 7.9375 
Q 36.421875 10.15625 38.28125 14.015625 
Q 39.703125 17 39.703125 22.796875 
z
" id="ArialMT-97"/>
      <path d="M 25.78125 7.859375 
L 27.046875 0.09375 
Q 23.34375 -0.6875 20.40625 -0.6875 
Q 15.625 -0.6875 12.984375 0.828125 
Q 10.359375 2.34375 9.28125 4.8125 
Q 8.203125 7.28125 8.203125 15.1875 
L 8.203125 45.015625 
L 1.765625 45.015625 
L 1.765625 51.859375 
L 8.203125 51.859375 
L 8.203125 64.703125 
L 16.9375 69.96875 
L 16.9375 51.859375 
L 25.78125 51.859375 
L 25.78125 45.015625 
L 16.9375 45.015625 
L 16.9375 14.703125 
Q 16.9375 10.9375 17.40625 9.859375 
Q 17.875 8.796875 18.921875 8.15625 
Q 19.96875 7.515625 21.921875 7.515625 
Q 23.390625 7.515625 25.78125 7.859375 
z
" id="ArialMT-116"/>
      <path d="M 6.640625 61.46875 
L 6.640625 71.578125 
L 15.4375 71.578125 
L 15.4375 61.46875 
z
M 6.640625 0 
L 6.640625 51.859375 
L 15.4375 51.859375 
L 15.4375 0 
z
" id="ArialMT-105"/>
      <path id="ArialMT-32"/>
      <path d="M 23.390625 -21.046875 
Q 16.109375 -11.859375 11.078125 0.4375 
Q 6.0625 12.75 6.0625 25.921875 
Q 6.0625 37.546875 9.8125 48.1875 
Q 14.203125 60.546875 23.390625 72.796875 
L 29.6875 72.796875 
Q 23.78125 62.640625 21.875 58.296875 
Q 18.890625 51.5625 17.1875 44.234375 
Q 15.09375 35.109375 15.09375 25.875 
Q 15.09375 2.390625 29.6875 -21.046875 
z
" id="ArialMT-40"/>
      <path d="M 24.90625 -10.296875 
L 24.90625 -1.515625 
Q 18.3125 -0.6875 14.1875 1.4375 
Q 10.0625 3.5625 7.046875 8.296875 
Q 4.046875 13.03125 3.5625 19.875 
L 12.40625 21.53125 
Q 13.421875 14.453125 16.015625 11.140625 
Q 19.734375 6.453125 24.90625 5.90625 
L 24.90625 33.890625 
Q 19.484375 34.90625 13.8125 38.09375 
Q 9.625 40.4375 7.34375 44.578125 
Q 5.078125 48.734375 5.078125 54 
Q 5.078125 63.375 11.71875 69.1875 
Q 16.15625 73.09375 24.90625 73.96875 
L 24.90625 78.171875 
L 30.078125 78.171875 
L 30.078125 73.96875 
Q 37.75 73.25 42.234375 69.484375 
Q 48 64.703125 49.171875 56.34375 
L 40.09375 54.984375 
Q 39.3125 60.15625 36.84375 62.90625 
Q 34.375 65.671875 30.078125 66.546875 
L 30.078125 41.21875 
Q 36.71875 39.546875 38.875 38.625 
Q 42.96875 36.8125 45.546875 34.21875 
Q 48.140625 31.640625 49.53125 28.078125 
Q 50.921875 24.515625 50.921875 20.359375 
Q 50.921875 11.234375 45.109375 5.125 
Q 39.3125 -0.984375 30.078125 -1.421875 
L 30.078125 -10.296875 
z
M 24.90625 66.65625 
Q 19.78125 65.875 16.828125 62.546875 
Q 13.875 59.234375 13.875 54.6875 
Q 13.875 50.203125 16.375 47.171875 
Q 18.890625 44.140625 24.90625 42.328125 
z
M 30.078125 5.90625 
Q 35.203125 6.546875 38.546875 10.34375 
Q 41.890625 14.15625 41.890625 19.78125 
Q 41.890625 24.5625 39.515625 27.46875 
Q 37.15625 30.375 30.078125 32.671875 
z
" id="ArialMT-36"/>
      <path d="M 12.359375 -21.046875 
L 6.0625 -21.046875 
Q 20.65625 2.390625 20.65625 25.875 
Q 20.65625 35.0625 18.5625 44.09375 
Q 16.890625 51.421875 13.921875 58.15625 
Q 12.015625 62.546875 6.0625 72.796875 
L 12.359375 72.796875 
Q 21.53125 60.546875 25.921875 48.1875 
Q 29.6875 37.546875 29.6875 25.921875 
Q 29.6875 12.75 24.625 0.4375 
Q 19.578125 -11.859375 12.359375 -21.046875 
z
" id="ArialMT-41"/>
     </defs>
     <g style="fill:#262626;" transform="translate(378.767812 410.940469)scale(0.12 -0.12)">
      <use xlink:href="#ArialMT-67"/>
      <use x="72.216797" xlink:href="#ArialMT-111"/>
      <use x="127.832031" xlink:href="#ArialMT-109"/>
      <use x="211.132812" xlink:href="#ArialMT-112"/>
      <use x="266.748047" xlink:href="#ArialMT-101"/>
      <use x="322.363281" xlink:href="#ArialMT-110"/>
      <use x="377.978516" xlink:href="#ArialMT-115"/>
      <use x="427.978516" xlink:href="#ArialMT-97"/>
      <use x="483.59375" xlink:href="#ArialMT-116"/>
      <use x="511.376953" xlink:href="#ArialMT-105"/>
      <use x="533.59375" xlink:href="#ArialMT-111"/>
      <use x="589.208984" xlink:href="#ArialMT-110"/>
      <use x="644.824219" xlink:href="#ArialMT-32"/>
      <use x="672.607422" xlink:href="#ArialMT-40"/>
      <use x="705.908203" xlink:href="#ArialMT-36"/>
      <use x="761.523438" xlink:href="#ArialMT-49"/>
      <use x="817.138672" xlink:href="#ArialMT-48"/>
      <use x="872.753906" xlink:href="#ArialMT-48"/>
      <use x="928.369141" xlink:href="#ArialMT-48"/>
      <use x="983.984375" xlink:href="#ArialMT-115"/>
      <use x="1033.984375" xlink:href="#ArialMT-41"/>
     </g>
    </g>
   </g>
   <g id="matplotlib.axis_2">
    <g id="ytick_1">
     <g id="line2d_8">
      <path clip-path="url(#pb057071f4a)" d="M 108 378 
L 777.6 378 
" style="fill:none;stroke:#ffffff;stroke-linecap:round;"/>
     </g>
     <g id="text_9">
      <!-- 0.000 -->
      <defs>
       <path d="M 9.078125 0 
L 9.078125 10.015625 
L 19.09375 10.015625 
L 19.09375 0 
z
" id="ArialMT-46"/>
      </defs>
      <g style="fill:#262626;" transform="translate(70.975938 381.936797)scale(0.11 -0.11)">
       <use xlink:href="#ArialMT-48"/>
       <use x="55.615234" xlink:href="#ArialMT-46"/>
       <use x="83.398438" xlink:href="#ArialMT-48"/>
       <use x="139.013672" xlink:href="#ArialMT-48"/>
       <use x="194.628906" xlink:href="#ArialMT-48"/>
      </g>
     </g>
    </g>
    <g id="ytick_2">
     <g id="line2d_9">
      <path clip-path="url(#pb057071f4a)" d="M 108 329.143774 
L 777.6 329.143774 
" style="fill:none;stroke:#ffffff;stroke-linecap:round;"/>
     </g>
     <g id="text_10">
      <!-- 0.002 -->
      <g style="fill:#262626;" transform="translate(70.975938 333.08057)scale(0.11 -0.11)">
       <use xlink:href="#ArialMT-48"/>
       <use x="55.615234" xlink:href="#ArialMT-46"/>
       <use x="83.398438" xlink:href="#ArialMT-48"/>
       <use x="139.013672" xlink:href="#ArialMT-48"/>
       <use x="194.628906" xlink:href="#ArialMT-50"/>
      </g>
     </g>
    </g>
    <g id="ytick_3">
     <g id="line2d_10">
      <path clip-path="url(#pb057071f4a)" d="M 108 280.287547 
L 777.6 280.287547 
" style="fill:none;stroke:#ffffff;stroke-linecap:round;"/>
     </g>
     <g id="text_11">
      <!-- 0.004 -->
      <defs>
       <path d="M 32.328125 0 
L 32.328125 17.140625 
L 1.265625 17.140625 
L 1.265625 25.203125 
L 33.9375 71.578125 
L 41.109375 71.578125 
L 41.109375 25.203125 
L 50.78125 25.203125 
L 50.78125 17.140625 
L 41.109375 17.140625 
L 41.109375 0 
z
M 32.328125 25.203125 
L 32.328125 57.46875 
L 9.90625 25.203125 
z
" id="ArialMT-52"/>
      </defs>
      <g style="fill:#262626;" transform="translate(70.975938 284.224344)scale(0.11 -0.11)">
       <use xlink:href="#ArialMT-48"/>
       <use x="55.615234" xlink:href="#ArialMT-46"/>
       <use x="83.398438" xlink:href="#ArialMT-48"/>
       <use x="139.013672" xlink:href="#ArialMT-48"/>
       <use x="194.628906" xlink:href="#ArialMT-52"/>
      </g>
     </g>
    </g>
    <g id="ytick_4">
     <g id="line2d_11">
      <path clip-path="url(#pb057071f4a)" d="M 108 231.431321 
L 777.6 231.431321 
" style="fill:none;stroke:#ffffff;stroke-linecap:round;"/>
     </g>
     <g id="text_12">
      <!-- 0.006 -->
      <defs>
       <path d="M 49.75 54.046875 
L 41.015625 53.375 
Q 39.84375 58.546875 37.703125 60.890625 
Q 34.125 64.65625 28.90625 64.65625 
Q 24.703125 64.65625 21.53125 62.3125 
Q 17.390625 59.28125 14.984375 53.46875 
Q 12.59375 47.65625 12.5 36.921875 
Q 15.671875 41.75 20.265625 44.09375 
Q 24.859375 46.4375 29.890625 46.4375 
Q 38.671875 46.4375 44.84375 39.96875 
Q 51.03125 33.5 51.03125 23.25 
Q 51.03125 16.5 48.125 10.71875 
Q 45.21875 4.9375 40.140625 1.859375 
Q 35.0625 -1.21875 28.609375 -1.21875 
Q 17.625 -1.21875 10.6875 6.859375 
Q 3.765625 14.9375 3.765625 33.5 
Q 3.765625 54.25 11.421875 63.671875 
Q 18.109375 71.875 29.4375 71.875 
Q 37.890625 71.875 43.28125 67.140625 
Q 48.6875 62.40625 49.75 54.046875 
z
M 13.875 23.1875 
Q 13.875 18.65625 15.796875 14.5 
Q 17.71875 10.359375 21.1875 8.171875 
Q 24.65625 6 28.46875 6 
Q 34.03125 6 38.03125 10.484375 
Q 42.046875 14.984375 42.046875 22.703125 
Q 42.046875 30.125 38.078125 34.390625 
Q 34.125 38.671875 28.125 38.671875 
Q 22.171875 38.671875 18.015625 34.390625 
Q 13.875 30.125 13.875 23.1875 
z
" id="ArialMT-54"/>
      </defs>
      <g style="fill:#262626;" transform="translate(70.975938 235.368117)scale(0.11 -0.11)">
       <use xlink:href="#ArialMT-48"/>
       <use x="55.615234" xlink:href="#ArialMT-46"/>
       <use x="83.398438" xlink:href="#ArialMT-48"/>
       <use x="139.013672" xlink:href="#ArialMT-48"/>
       <use x="194.628906" xlink:href="#ArialMT-54"/>
      </g>
     </g>
    </g>
    <g id="ytick_5">
     <g id="line2d_12">
      <path clip-path="url(#pb057071f4a)" d="M 108 182.575094 
L 777.6 182.575094 
" style="fill:none;stroke:#ffffff;stroke-linecap:round;"/>
     </g>
     <g id="text_13">
      <!-- 0.008 -->
      <defs>
       <path d="M 17.671875 38.8125 
Q 12.203125 40.828125 9.5625 44.53125 
Q 6.9375 48.25 6.9375 53.421875 
Q 6.9375 61.234375 12.546875 66.546875 
Q 18.171875 71.875 27.484375 71.875 
Q 36.859375 71.875 42.578125 66.421875 
Q 48.296875 60.984375 48.296875 53.171875 
Q 48.296875 48.1875 45.671875 44.5 
Q 43.0625 40.828125 37.75 38.8125 
Q 44.34375 36.671875 47.78125 31.875 
Q 51.21875 27.09375 51.21875 20.453125 
Q 51.21875 11.28125 44.71875 5.03125 
Q 38.234375 -1.21875 27.640625 -1.21875 
Q 17.046875 -1.21875 10.546875 5.046875 
Q 4.046875 11.328125 4.046875 20.703125 
Q 4.046875 27.6875 7.59375 32.390625 
Q 11.140625 37.109375 17.671875 38.8125 
z
M 15.921875 53.71875 
Q 15.921875 48.640625 19.1875 45.40625 
Q 22.46875 42.1875 27.6875 42.1875 
Q 32.765625 42.1875 36.015625 45.375 
Q 39.265625 48.578125 39.265625 53.21875 
Q 39.265625 58.0625 35.90625 61.359375 
Q 32.5625 64.65625 27.59375 64.65625 
Q 22.5625 64.65625 19.234375 61.421875 
Q 15.921875 58.203125 15.921875 53.71875 
z
M 13.09375 20.65625 
Q 13.09375 16.890625 14.875 13.375 
Q 16.65625 9.859375 20.171875 7.921875 
Q 23.6875 6 27.734375 6 
Q 34.03125 6 38.125 10.046875 
Q 42.234375 14.109375 42.234375 20.359375 
Q 42.234375 26.703125 38.015625 30.859375 
Q 33.796875 35.015625 27.4375 35.015625 
Q 21.234375 35.015625 17.15625 30.90625 
Q 13.09375 26.8125 13.09375 20.65625 
z
" id="ArialMT-56"/>
      </defs>
      <g style="fill:#262626;" transform="translate(70.975938 186.511891)scale(0.11 -0.11)">
       <use xlink:href="#ArialMT-48"/>
       <use x="55.615234" xlink:href="#ArialMT-46"/>
       <use x="83.398438" xlink:href="#ArialMT-48"/>
       <use x="139.013672" xlink:href="#ArialMT-48"/>
       <use x="194.628906" xlink:href="#ArialMT-56"/>
      </g>
     </g>
    </g>
    <g id="ytick_6">
     <g id="line2d_13">
      <path clip-path="url(#pb057071f4a)" d="M 108 133.718868 
L 777.6 133.718868 
" style="fill:none;stroke:#ffffff;stroke-linecap:round;"/>
     </g>
     <g id="text_14">
      <!-- 0.010 -->
      <g style="fill:#262626;" transform="translate(70.975938 137.655664)scale(0.11 -0.11)">
       <use xlink:href="#ArialMT-48"/>
       <use x="55.615234" xlink:href="#ArialMT-46"/>
       <use x="83.398438" xlink:href="#ArialMT-48"/>
       <use x="139.013672" xlink:href="#ArialMT-49"/>
       <use x="194.628906" xlink:href="#ArialMT-48"/>
      </g>
     </g>
    </g>
    <g id="ytick_7">
     <g id="line2d_14">
      <path clip-path="url(#pb057071f4a)" d="M 108 84.862641 
L 777.6 84.862641 
" style="fill:none;stroke:#ffffff;stroke-linecap:round;"/>
     </g>
     <g id="text_15">
      <!-- 0.012 -->
      <g style="fill:#262626;" transform="translate(70.975938 88.799438)scale(0.11 -0.11)">
       <use xlink:href="#ArialMT-48"/>
       <use x="55.615234" xlink:href="#ArialMT-46"/>
       <use x="83.398438" xlink:href="#ArialMT-48"/>
       <use x="139.013672" xlink:href="#ArialMT-49"/>
       <use x="194.628906" xlink:href="#ArialMT-50"/>
      </g>
     </g>
    </g>
    <g id="text_16">
     <!-- Responses -->
     <defs>
      <path d="M 7.859375 0 
L 7.859375 71.578125 
L 39.59375 71.578125 
Q 49.171875 71.578125 54.140625 69.640625 
Q 59.125 67.71875 62.109375 62.828125 
Q 65.09375 57.953125 65.09375 52.046875 
Q 65.09375 44.4375 60.15625 39.203125 
Q 55.21875 33.984375 44.921875 32.5625 
Q 48.6875 30.765625 50.640625 29 
Q 54.78125 25.203125 58.5 19.484375 
L 70.953125 0 
L 59.03125 0 
L 49.5625 14.890625 
Q 45.40625 21.34375 42.71875 24.75 
Q 40.046875 28.171875 37.921875 29.53125 
Q 35.796875 30.90625 33.59375 31.453125 
Q 31.984375 31.78125 28.328125 31.78125 
L 17.328125 31.78125 
L 17.328125 0 
z
M 17.328125 39.984375 
L 37.703125 39.984375 
Q 44.1875 39.984375 47.84375 41.328125 
Q 51.515625 42.671875 53.421875 45.625 
Q 55.328125 48.578125 55.328125 52.046875 
Q 55.328125 57.125 51.640625 60.390625 
Q 47.953125 63.671875 39.984375 63.671875 
L 17.328125 63.671875 
z
" id="ArialMT-82"/>
     </defs>
     <g style="fill:#262626;" transform="translate(64.590937 244.935937)rotate(-90)scale(0.12 -0.12)">
      <use xlink:href="#ArialMT-82"/>
      <use x="72.216797" xlink:href="#ArialMT-101"/>
      <use x="127.832031" xlink:href="#ArialMT-115"/>
      <use x="177.832031" xlink:href="#ArialMT-112"/>
      <use x="233.447266" xlink:href="#ArialMT-111"/>
      <use x="289.0625" xlink:href="#ArialMT-110"/>
      <use x="344.677734" xlink:href="#ArialMT-115"/>
      <use x="394.677734" xlink:href="#ArialMT-101"/>
      <use x="450.292969" xlink:href="#ArialMT-115"/>
     </g>
    </g>
   </g>
   <g id="patch_3">
    <path clip-path="url(#pb057071f4a)" d="M 227.03656 378 
L 266.266276 378 
L 266.266276 253.748571 
L 227.03656 253.748571 
z
" style="fill:#4c72b0;opacity:0.4;stroke:#ffffff;stroke-linejoin:miter;"/>
   </g>
   <g id="patch_4">
    <path clip-path="url(#pb057071f4a)" d="M 266.266276 378 
L 305.495993 378 
L 305.495993 67.371429 
L 266.266276 67.371429 
z
" style="fill:#4c72b0;opacity:0.4;stroke:#ffffff;stroke-linejoin:miter;"/>
   </g>
   <g id="patch_5">
    <path clip-path="url(#pb057071f4a)" d="M 305.495993 378 
L 344.725709 378 
L 344.725709 129.497143 
L 305.495993 129.497143 
z
" style="fill:#4c72b0;opacity:0.4;stroke:#ffffff;stroke-linejoin:miter;"/>
   </g>
   <g id="patch_6">
    <path clip-path="url(#pb057071f4a)" d="M 344.725709 378 
L 383.955425 378 
L 383.955425 129.497143 
L 344.725709 129.497143 
z
" style="fill:#4c72b0;opacity:0.4;stroke:#ffffff;stroke-linejoin:miter;"/>
   </g>
   <g id="patch_7">
    <path clip-path="url(#pb057071f4a)" d="M 383.955425 378 
L 423.185142 378 
L 423.185142 207.154286 
L 383.955425 207.154286 
z
" style="fill:#4c72b0;opacity:0.4;stroke:#ffffff;stroke-linejoin:miter;"/>
   </g>
   <g id="patch_8">
    <path clip-path="url(#pb057071f4a)" d="M 423.185142 378 
L 462.414858 378 
L 462.414858 331.405714 
L 423.185142 331.405714 
z
" style="fill:#4c72b0;opacity:0.4;stroke:#ffffff;stroke-linejoin:miter;"/>
   </g>
   <g id="patch_9">
    <path clip-path="url(#pb057071f4a)" d="M 462.414858 378 
L 501.644575 378 
L 501.644575 362.468571 
L 462.414858 362.468571 
z
" style="fill:#4c72b0;opacity:0.4;stroke:#ffffff;stroke-linejoin:miter;"/>
   </g>
   <g id="patch_10">
    <path clip-path="url(#pb057071f4a)" d="M 501.644575 378 
L 540.874291 378 
L 540.874291 362.468571 
L 501.644575 362.468571 
z
" style="fill:#4c72b0;opacity:0.4;stroke:#ffffff;stroke-linejoin:miter;"/>
   </g>
   <g id="patch_11">
    <path clip-path="url(#pb057071f4a)" d="M 540.874291 378 
L 580.104007 378 
L 580.104007 362.468571 
L 540.874291 362.468571 
z
" style="fill:#4c72b0;opacity:0.4;stroke:#ffffff;stroke-linejoin:miter;"/>
   </g>
   <g id="patch_12">
    <path clip-path="url(#pb057071f4a)" d="M 580.104007 378 
L 619.333724 378 
L 619.333724 362.468571 
L 580.104007 362.468571 
z
" style="fill:#4c72b0;opacity:0.4;stroke:#ffffff;stroke-linejoin:miter;"/>
   </g>
   <g id="patch_13">
    <path clip-path="url(#pb057071f4a)" d="M 619.333724 378 
L 658.56344 378 
L 658.56344 362.468571 
L 619.333724 362.468571 
z
" style="fill:#4c72b0;opacity:0.4;stroke:#ffffff;stroke-linejoin:miter;"/>
   </g>
   <g id="LineCollection_1">
    <path clip-path="url(#pb057071f4a)" d="M 227.03656 378 
L 227.03656 361.692 
" style="fill:none;stroke:#4c72b0;"/>
    <path clip-path="url(#pb057071f4a)" d="M 244.770541 378 
L 244.770541 361.692 
" style="fill:none;stroke:#4c72b0;"/>
    <path clip-path="url(#pb057071f4a)" d="M 245.225713 378 
L 245.225713 361.692 
" style="fill:none;stroke:#4c72b0;"/>
    <path clip-path="url(#pb057071f4a)" d="M 247.135072 378 
L 247.135072 361.692 
" style="fill:none;stroke:#4c72b0;"/>
    <path clip-path="url(#pb057071f4a)" d="M 248.711426 378 
L 248.711426 361.692 
" style="fill:none;stroke:#4c72b0;"/>
    <path clip-path="url(#pb057071f4a)" d="M 262.504523 378 
L 262.504523 361.692 
" style="fill:none;stroke:#4c72b0;"/>
    <path clip-path="url(#pb057071f4a)" d="M 260.53408 378 
L 260.53408 361.692 
" style="fill:none;stroke:#4c72b0;"/>
    <path clip-path="url(#pb057071f4a)" d="M 264.474965 378 
L 264.474965 361.692 
" style="fill:none;stroke:#4c72b0;"/>
    <path clip-path="url(#pb057071f4a)" d="M 272.356735 378 
L 272.356735 361.692 
" style="fill:none;stroke:#4c72b0;"/>
    <path clip-path="url(#pb057071f4a)" d="M 274.327177 378 
L 274.327177 361.692 
" style="fill:none;stroke:#4c72b0;"/>
    <path clip-path="url(#pb057071f4a)" d="M 274.327177 378 
L 274.327177 361.692 
" style="fill:none;stroke:#4c72b0;"/>
    <path clip-path="url(#pb057071f4a)" d="M 279.253283 378 
L 279.253283 361.692 
" style="fill:none;stroke:#4c72b0;"/>
    <path clip-path="url(#pb057071f4a)" d="M 274.721265 378 
L 274.721265 361.692 
" style="fill:none;stroke:#4c72b0;"/>
    <path clip-path="url(#pb057071f4a)" d="M 276.297619 378 
L 276.297619 361.692 
" style="fill:none;stroke:#4c72b0;"/>
    <path clip-path="url(#pb057071f4a)" d="M 278.760672 378 
L 278.760672 361.692 
" style="fill:none;stroke:#4c72b0;"/>
    <path clip-path="url(#pb057071f4a)" d="M 280.238504 378 
L 280.238504 361.692 
" style="fill:none;stroke:#4c72b0;"/>
    <path clip-path="url(#pb057071f4a)" d="M 296.002043 378 
L 296.002043 361.692 
" style="fill:none;stroke:#4c72b0;"/>
    <path clip-path="url(#pb057071f4a)" d="M 282.208946 378 
L 282.208946 361.692 
" style="fill:none;stroke:#4c72b0;"/>
    <path clip-path="url(#pb057071f4a)" d="M 284.179389 378 
L 284.179389 361.692 
" style="fill:none;stroke:#4c72b0;"/>
    <path clip-path="url(#pb057071f4a)" d="M 284.179389 378 
L 284.179389 361.692 
" style="fill:none;stroke:#4c72b0;"/>
    <path clip-path="url(#pb057071f4a)" d="M 288.120274 378 
L 288.120274 361.692 
" style="fill:none;stroke:#4c72b0;"/>
    <path clip-path="url(#pb057071f4a)" d="M 290.090716 378 
L 290.090716 361.692 
" style="fill:none;stroke:#4c72b0;"/>
    <path clip-path="url(#pb057071f4a)" d="M 294.031601 378 
L 294.031601 361.692 
" style="fill:none;stroke:#4c72b0;"/>
    <path clip-path="url(#pb057071f4a)" d="M 294.031601 378 
L 294.031601 361.692 
" style="fill:none;stroke:#4c72b0;"/>
    <path clip-path="url(#pb057071f4a)" d="M 295.016822 378 
L 295.016822 361.692 
" style="fill:none;stroke:#4c72b0;"/>
    <path clip-path="url(#pb057071f4a)" d="M 296.002043 378 
L 296.002043 361.692 
" style="fill:none;stroke:#4c72b0;"/>
    <path clip-path="url(#pb057071f4a)" d="M 299.942928 378 
L 299.942928 361.692 
" style="fill:none;stroke:#4c72b0;"/>
    <path clip-path="url(#pb057071f4a)" d="M 304.869034 378 
L 304.869034 361.692 
" style="fill:none;stroke:#4c72b0;"/>
    <path clip-path="url(#pb057071f4a)" d="M 307.824697 378 
L 307.824697 361.692 
" style="fill:none;stroke:#4c72b0;"/>
    <path clip-path="url(#pb057071f4a)" d="M 307.824697 378 
L 307.824697 361.692 
" style="fill:none;stroke:#4c72b0;"/>
    <path clip-path="url(#pb057071f4a)" d="M 309.79514 378 
L 309.79514 361.692 
" style="fill:none;stroke:#4c72b0;"/>
    <path clip-path="url(#pb057071f4a)" d="M 311.765582 378 
L 311.765582 361.692 
" style="fill:none;stroke:#4c72b0;"/>
    <path clip-path="url(#pb057071f4a)" d="M 313.736024 378 
L 313.736024 361.692 
" style="fill:none;stroke:#4c72b0;"/>
    <path clip-path="url(#pb057071f4a)" d="M 313.736024 378 
L 313.736024 361.692 
" style="fill:none;stroke:#4c72b0;"/>
    <path clip-path="url(#pb057071f4a)" d="M 315.706467 378 
L 315.706467 361.692 
" style="fill:none;stroke:#4c72b0;"/>
    <path clip-path="url(#pb057071f4a)" d="M 338.957687 378 
L 338.957687 361.692 
" style="fill:none;stroke:#4c72b0;"/>
    <path clip-path="url(#pb057071f4a)" d="M 322.603015 378 
L 322.603015 361.692 
" style="fill:none;stroke:#4c72b0;"/>
    <path clip-path="url(#pb057071f4a)" d="M 323.588236 378 
L 323.588236 361.692 
" style="fill:none;stroke:#4c72b0;"/>
    <path clip-path="url(#pb057071f4a)" d="M 323.588236 378 
L 323.588236 361.692 
" style="fill:none;stroke:#4c72b0;"/>
    <path clip-path="url(#pb057071f4a)" d="M 356.577383 378 
L 356.577383 361.692 
" style="fill:none;stroke:#4c72b0;"/>
    <path clip-path="url(#pb057071f4a)" d="M 331.470006 378 
L 331.470006 361.692 
" style="fill:none;stroke:#4c72b0;"/>
    <path clip-path="url(#pb057071f4a)" d="M 333.440448 378 
L 333.440448 361.692 
" style="fill:none;stroke:#4c72b0;"/>
    <path clip-path="url(#pb057071f4a)" d="M 333.440448 378 
L 333.440448 361.692 
" style="fill:none;stroke:#4c72b0;"/>
    <path clip-path="url(#pb057071f4a)" d="M 353.144872 378 
L 353.144872 361.692 
" style="fill:none;stroke:#4c72b0;"/>
    <path clip-path="url(#pb057071f4a)" d="M 338.366554 378 
L 338.366554 361.692 
" style="fill:none;stroke:#4c72b0;"/>
    <path clip-path="url(#pb057071f4a)" d="M 343.29266 378 
L 343.29266 361.692 
" style="fill:none;stroke:#4c72b0;"/>
    <path clip-path="url(#pb057071f4a)" d="M 375.804959 378 
L 375.804959 361.692 
" style="fill:none;stroke:#4c72b0;"/>
    <path clip-path="url(#pb057071f4a)" d="M 357.085757 378 
L 357.085757 361.692 
" style="fill:none;stroke:#4c72b0;"/>
    <path clip-path="url(#pb057071f4a)" d="M 349.203987 378 
L 349.203987 361.692 
" style="fill:none;stroke:#4c72b0;"/>
    <path clip-path="url(#pb057071f4a)" d="M 351.17443 378 
L 351.17443 361.692 
" style="fill:none;stroke:#4c72b0;"/>
    <path clip-path="url(#pb057071f4a)" d="M 351.17443 378 
L 351.17443 361.692 
" style="fill:none;stroke:#4c72b0;"/>
    <path clip-path="url(#pb057071f4a)" d="M 357.420732 378 
L 357.420732 361.692 
" style="fill:none;stroke:#4c72b0;"/>
    <path clip-path="url(#pb057071f4a)" d="M 353.144872 378 
L 353.144872 361.692 
" style="fill:none;stroke:#4c72b0;"/>
    <path clip-path="url(#pb057071f4a)" d="M 353.144872 378 
L 353.144872 361.692 
" style="fill:none;stroke:#4c72b0;"/>
    <path clip-path="url(#pb057071f4a)" d="M 362.997084 378 
L 362.997084 361.692 
" style="fill:none;stroke:#4c72b0;"/>
    <path clip-path="url(#pb057071f4a)" d="M 382.701508 378 
L 382.701508 361.692 
" style="fill:none;stroke:#4c72b0;"/>
    <path clip-path="url(#pb057071f4a)" d="M 402.405931 378 
L 402.405931 361.692 
" style="fill:none;stroke:#4c72b0;"/>
    <path clip-path="url(#pb057071f4a)" d="M 363.006936 378 
L 363.006936 361.692 
" style="fill:none;stroke:#4c72b0;"/>
    <path clip-path="url(#pb057071f4a)" d="M 372.849296 378 
L 372.849296 361.692 
" style="fill:none;stroke:#4c72b0;"/>
    <path clip-path="url(#pb057071f4a)" d="M 392.061109 378 
L 392.061109 361.692 
" style="fill:none;stroke:#4c72b0;"/>
    <path clip-path="url(#pb057071f4a)" d="M 392.553719 378 
L 392.553719 361.692 
" style="fill:none;stroke:#4c72b0;"/>
    <path clip-path="url(#pb057071f4a)" d="M 387.627613 378 
L 387.627613 361.692 
" style="fill:none;stroke:#4c72b0;"/>
    <path clip-path="url(#pb057071f4a)" d="M 372.849296 378 
L 372.849296 361.692 
" style="fill:none;stroke:#4c72b0;"/>
    <path clip-path="url(#pb057071f4a)" d="M 375.804959 378 
L 375.804959 361.692 
" style="fill:none;stroke:#4c72b0;"/>
    <path clip-path="url(#pb057071f4a)" d="M 396.29756 378 
L 396.29756 361.692 
" style="fill:none;stroke:#4c72b0;"/>
    <path clip-path="url(#pb057071f4a)" d="M 392.553719 378 
L 392.553719 361.692 
" style="fill:none;stroke:#4c72b0;"/>
    <path clip-path="url(#pb057071f4a)" d="M 392.553719 378 
L 392.553719 361.692 
" style="fill:none;stroke:#4c72b0;"/>
    <path clip-path="url(#pb057071f4a)" d="M 454.504428 378 
L 454.504428 361.692 
" style="fill:none;stroke:#4c72b0;"/>
    <path clip-path="url(#pb057071f4a)" d="M 402.405931 378 
L 402.405931 361.692 
" style="fill:none;stroke:#4c72b0;"/>
    <path clip-path="url(#pb057071f4a)" d="M 402.405931 378 
L 402.405931 361.692 
" style="fill:none;stroke:#4c72b0;"/>
    <path clip-path="url(#pb057071f4a)" d="M 443.785221 378 
L 443.785221 361.692 
" style="fill:none;stroke:#4c72b0;"/>
    <path clip-path="url(#pb057071f4a)" d="M 420.139913 378 
L 420.139913 361.692 
" style="fill:none;stroke:#4c72b0;"/>
    <path clip-path="url(#pb057071f4a)" d="M 422.110355 378 
L 422.110355 361.692 
" style="fill:none;stroke:#4c72b0;"/>
    <path clip-path="url(#pb057071f4a)" d="M 431.962567 378 
L 431.962567 361.692 
" style="fill:none;stroke:#4c72b0;"/>
    <path clip-path="url(#pb057071f4a)" d="M 471.371414 378 
L 471.371414 361.692 
" style="fill:none;stroke:#4c72b0;"/>
    <path clip-path="url(#pb057071f4a)" d="M 585.657072 378 
L 585.657072 361.692 
" style="fill:none;stroke:#4c72b0;"/>
    <path clip-path="url(#pb057071f4a)" d="M 524.228531 378 
L 524.228531 361.692 
" style="fill:none;stroke:#4c72b0;"/>
    <path clip-path="url(#pb057071f4a)" d="M 550.189109 378 
L 550.189109 361.692 
" style="fill:none;stroke:#4c72b0;"/>
    <path clip-path="url(#pb057071f4a)" d="M 658.56344 378 
L 658.56344 361.692 
" style="fill:none;stroke:#4c72b0;"/>
   </g>
   <g id="line2d_15">
    <path clip-path="url(#pb057071f4a)" d="M 138.436364 377.790052 
L 148.02262 377.574199 
L 152.815748 377.343896 
L 157.608876 376.990022 
L 162.402004 376.466041 
L 167.195132 375.711416 
L 171.988261 374.650356 
L 176.781389 373.191254 
L 181.574517 371.227094 
L 186.367645 368.637117 
L 191.160773 365.2899 
L 195.953901 361.04793 
L 200.747029 355.773608 
L 205.540157 349.336507 
L 210.333286 341.621651 
L 215.126414 332.538493 
L 219.919542 322.030288 
L 224.71267 310.083484 
L 229.505798 296.73666 
L 234.298926 282.088379 
L 239.092054 266.303076 
L 243.885183 249.613843 
L 263.057695 180.629559 
L 267.850823 164.875534 
L 272.643951 150.549283 
L 277.437079 137.992111 
L 282.230208 127.457615 
L 287.023336 119.091313 
L 291.816464 112.920405 
L 296.609592 108.855633 
L 301.40272 106.705496 
L 306.195848 106.201231 
L 310.988976 107.029329 
L 315.782105 108.867191 
L 320.575233 111.417141 
L 325.368361 114.434376 
L 330.161489 117.745576 
L 334.954617 121.256551 
L 339.747745 124.949084 
L 344.540873 128.868853 
L 349.334001 133.107405 
L 354.12713 137.781654 
L 358.920258 143.014092 
L 363.713386 148.916023 
L 368.506514 155.574988 
L 373.299642 163.046449 
L 378.09277 171.349042 
L 382.885898 180.46243 
L 387.679026 190.327044 
L 392.472155 200.845432 
L 397.265283 211.885497 
L 406.851539 234.865301 
L 416.437795 257.795645 
L 421.230923 268.784984 
L 426.024052 279.253948 
L 430.81718 289.092818 
L 435.610308 298.231536 
L 440.403436 306.638673 
L 445.196564 314.315886 
L 449.989692 321.289089 
L 454.78282 327.598037 
L 459.575948 333.286157 
L 464.369077 338.392277 
L 469.162205 342.945399 
L 473.955333 346.963032 
L 478.748461 350.452921 
L 483.541589 353.417464 
L 488.334717 355.859668 
L 493.127845 357.789363 
L 497.920974 359.22842 
L 502.714102 360.213989 
L 507.50723 360.799223 
L 512.300358 361.051376 
L 517.093486 361.047689 
L 526.679742 360.597682 
L 536.265999 360.049722 
L 541.059127 359.881795 
L 545.852255 359.832347 
L 550.645383 359.91992 
L 555.438511 360.151741 
L 560.231639 360.5265 
L 565.024767 361.036892 
L 574.611024 362.415145 
L 584.19728 364.151659 
L 598.576664 366.957905 
L 608.162921 368.538576 
L 612.956049 369.132369 
L 617.749177 369.562797 
L 622.542305 369.822658 
L 627.335433 369.921452 
L 636.921689 369.756052 
L 651.301074 369.335858 
L 656.094202 369.357644 
L 660.88733 369.52308 
L 665.680458 369.846572 
L 670.473586 370.324925 
L 680.059843 371.657136 
L 699.232355 374.779996 
L 708.818611 376.030404 
L 718.404868 376.911437 
L 727.991124 377.451073 
L 737.57738 377.728933 
L 747.163636 377.813655 
L 747.163636 377.813655 
" style="fill:none;stroke:#4c72b0;stroke-linecap:round;stroke-width:1.5;"/>
   </g>
   <g id="patch_14">
    <path d="M 108 378 
L 108 51.84 
" style="fill:none;stroke:#ffffff;stroke-linecap:square;stroke-linejoin:miter;stroke-width:1.25;"/>
   </g>
   <g id="patch_15">
    <path d="M 777.6 378 
L 777.6 51.84 
" style="fill:none;stroke:#ffffff;stroke-linecap:square;stroke-linejoin:miter;stroke-width:1.25;"/>
   </g>
   <g id="patch_16">
    <path d="M 108 378 
L 777.6 378 
" style="fill:none;stroke:#ffffff;stroke-linecap:square;stroke-linejoin:miter;stroke-width:1.25;"/>
   </g>
   <g id="patch_17">
    <path d="M 108 51.84 
L 777.6 51.84 
" style="fill:none;stroke:#ffffff;stroke-linecap:square;stroke-linejoin:miter;stroke-width:1.25;"/>
   </g>
   <g id="text_17">
    <!-- Overall Salary Distribution -->
    <defs>
     <path d="M 4.828125 34.859375 
Q 4.828125 52.6875 14.390625 62.765625 
Q 23.96875 72.859375 39.109375 72.859375 
Q 49.03125 72.859375 56.984375 68.109375 
Q 64.9375 63.375 69.109375 54.90625 
Q 73.296875 46.4375 73.296875 35.6875 
Q 73.296875 24.8125 68.890625 16.21875 
Q 64.5 7.625 56.4375 3.203125 
Q 48.390625 -1.21875 39.0625 -1.21875 
Q 28.953125 -1.21875 20.984375 3.65625 
Q 13.03125 8.546875 8.921875 16.984375 
Q 4.828125 25.4375 4.828125 34.859375 
z
M 14.59375 34.71875 
Q 14.59375 21.78125 21.546875 14.328125 
Q 28.515625 6.890625 39.015625 6.890625 
Q 49.703125 6.890625 56.609375 14.40625 
Q 63.53125 21.921875 63.53125 35.75 
Q 63.53125 44.484375 60.578125 51 
Q 57.625 57.515625 51.921875 61.109375 
Q 46.234375 64.703125 39.15625 64.703125 
Q 29.109375 64.703125 21.84375 57.78125 
Q 14.59375 50.875 14.59375 34.71875 
z
" id="ArialMT-79"/>
     <path d="M 21 0 
L 1.265625 51.859375 
L 10.546875 51.859375 
L 21.6875 20.796875 
Q 23.484375 15.765625 25 10.359375 
Q 26.171875 14.453125 28.265625 20.21875 
L 39.796875 51.859375 
L 48.828125 51.859375 
L 29.203125 0 
z
" id="ArialMT-118"/>
     <path d="M 6.5 0 
L 6.5 51.859375 
L 14.40625 51.859375 
L 14.40625 44 
Q 17.4375 49.515625 20 51.265625 
Q 22.5625 53.03125 25.640625 53.03125 
Q 30.078125 53.03125 34.671875 50.203125 
L 31.640625 42.046875 
Q 28.421875 43.953125 25.203125 43.953125 
Q 22.3125 43.953125 20.015625 42.21875 
Q 17.71875 40.484375 16.75 37.40625 
Q 15.28125 32.71875 15.28125 27.15625 
L 15.28125 0 
z
" id="ArialMT-114"/>
     <path d="M 6.390625 0 
L 6.390625 71.578125 
L 15.1875 71.578125 
L 15.1875 0 
z
" id="ArialMT-108"/>
     <path d="M 4.5 23 
L 13.421875 23.78125 
Q 14.0625 18.40625 16.375 14.96875 
Q 18.703125 11.53125 23.578125 9.40625 
Q 28.46875 7.28125 34.578125 7.28125 
Q 39.984375 7.28125 44.140625 8.890625 
Q 48.296875 10.5 50.3125 13.296875 
Q 52.34375 16.109375 52.34375 19.4375 
Q 52.34375 22.796875 50.390625 25.3125 
Q 48.4375 27.828125 43.953125 29.546875 
Q 41.0625 30.671875 31.203125 33.03125 
Q 21.34375 35.40625 17.390625 37.5 
Q 12.25 40.1875 9.734375 44.15625 
Q 7.234375 48.140625 7.234375 53.078125 
Q 7.234375 58.5 10.296875 63.203125 
Q 13.375 67.921875 19.28125 70.359375 
Q 25.203125 72.796875 32.421875 72.796875 
Q 40.375 72.796875 46.453125 70.234375 
Q 52.546875 67.671875 55.8125 62.6875 
Q 59.078125 57.71875 59.328125 51.421875 
L 50.25 50.734375 
Q 49.515625 57.515625 45.28125 60.984375 
Q 41.0625 64.453125 32.8125 64.453125 
Q 24.21875 64.453125 20.28125 61.296875 
Q 16.359375 58.15625 16.359375 53.71875 
Q 16.359375 49.859375 19.140625 47.359375 
Q 21.875 44.875 33.421875 42.265625 
Q 44.96875 39.65625 49.265625 37.703125 
Q 55.515625 34.8125 58.484375 30.390625 
Q 61.46875 25.984375 61.46875 20.21875 
Q 61.46875 14.5 58.203125 9.4375 
Q 54.9375 4.390625 48.796875 1.578125 
Q 42.671875 -1.21875 35.015625 -1.21875 
Q 25.296875 -1.21875 18.71875 1.609375 
Q 12.15625 4.4375 8.421875 10.125 
Q 4.6875 15.828125 4.5 23 
z
" id="ArialMT-83"/>
     <path d="M 6.203125 -19.96875 
L 5.21875 -11.71875 
Q 8.109375 -12.5 10.25 -12.5 
Q 13.1875 -12.5 14.9375 -11.515625 
Q 16.703125 -10.546875 17.828125 -8.796875 
Q 18.65625 -7.46875 20.515625 -2.25 
Q 20.75 -1.515625 21.296875 -0.09375 
L 1.609375 51.859375 
L 11.078125 51.859375 
L 21.875 21.828125 
Q 23.96875 16.109375 25.640625 9.8125 
Q 27.15625 15.875 29.25 21.625 
L 40.328125 51.859375 
L 49.125 51.859375 
L 29.390625 -0.875 
Q 26.21875 -9.421875 24.46875 -12.640625 
Q 22.125 -17 19.09375 -19.015625 
Q 16.0625 -21.046875 11.859375 -21.046875 
Q 9.328125 -21.046875 6.203125 -19.96875 
z
" id="ArialMT-121"/>
     <path d="M 7.71875 0 
L 7.71875 71.578125 
L 32.375 71.578125 
Q 40.71875 71.578125 45.125 70.5625 
Q 51.265625 69.140625 55.609375 65.4375 
Q 61.28125 60.640625 64.078125 53.1875 
Q 66.890625 45.75 66.890625 36.1875 
Q 66.890625 28.03125 64.984375 21.734375 
Q 63.09375 15.4375 60.109375 11.296875 
Q 57.125 7.171875 53.578125 4.796875 
Q 50.046875 2.4375 45.046875 1.21875 
Q 40.046875 0 33.546875 0 
z
M 17.1875 8.453125 
L 32.46875 8.453125 
Q 39.546875 8.453125 43.578125 9.765625 
Q 47.609375 11.078125 50 13.484375 
Q 53.375 16.84375 55.25 22.53125 
Q 57.125 28.21875 57.125 36.328125 
Q 57.125 47.5625 53.4375 53.59375 
Q 49.75 59.625 44.484375 61.671875 
Q 40.671875 63.140625 32.234375 63.140625 
L 17.1875 63.140625 
z
" id="ArialMT-68"/>
     <path d="M 14.703125 0 
L 6.546875 0 
L 6.546875 71.578125 
L 15.328125 71.578125 
L 15.328125 46.046875 
Q 20.90625 53.03125 29.546875 53.03125 
Q 34.328125 53.03125 38.59375 51.09375 
Q 42.875 49.171875 45.625 45.671875 
Q 48.390625 42.1875 49.953125 37.25 
Q 51.515625 32.328125 51.515625 26.703125 
Q 51.515625 13.375 44.921875 6.09375 
Q 38.328125 -1.171875 29.109375 -1.171875 
Q 19.921875 -1.171875 14.703125 6.5 
z
M 14.59375 26.3125 
Q 14.59375 17 17.140625 12.84375 
Q 21.296875 6.0625 28.375 6.0625 
Q 34.125 6.0625 38.328125 11.0625 
Q 42.53125 16.0625 42.53125 25.984375 
Q 42.53125 36.140625 38.5 40.96875 
Q 34.46875 45.796875 28.765625 45.796875 
Q 23 45.796875 18.796875 40.796875 
Q 14.59375 35.796875 14.59375 26.3125 
z
" id="ArialMT-98"/>
     <path d="M 40.578125 0 
L 40.578125 7.625 
Q 34.515625 -1.171875 24.125 -1.171875 
Q 19.53125 -1.171875 15.546875 0.578125 
Q 11.578125 2.34375 9.640625 5 
Q 7.71875 7.671875 6.9375 11.53125 
Q 6.390625 14.109375 6.390625 19.734375 
L 6.390625 51.859375 
L 15.1875 51.859375 
L 15.1875 23.09375 
Q 15.1875 16.21875 15.71875 13.8125 
Q 16.546875 10.359375 19.234375 8.375 
Q 21.921875 6.390625 25.875 6.390625 
Q 29.828125 6.390625 33.296875 8.421875 
Q 36.765625 10.453125 38.203125 13.9375 
Q 39.65625 17.4375 39.65625 24.078125 
L 39.65625 51.859375 
L 48.4375 51.859375 
L 48.4375 0 
z
" id="ArialMT-117"/>
    </defs>
    <g style="fill:#262626;" transform="translate(373.445625 45.84)scale(0.12 -0.12)">
     <use xlink:href="#ArialMT-79"/>
     <use x="77.783203" xlink:href="#ArialMT-118"/>
     <use x="127.783203" xlink:href="#ArialMT-101"/>
     <use x="183.398438" xlink:href="#ArialMT-114"/>
     <use x="216.699219" xlink:href="#ArialMT-97"/>
     <use x="272.314453" xlink:href="#ArialMT-108"/>
     <use x="294.53125" xlink:href="#ArialMT-108"/>
     <use x="316.748047" xlink:href="#ArialMT-32"/>
     <use x="344.53125" xlink:href="#ArialMT-83"/>
     <use x="411.230469" xlink:href="#ArialMT-97"/>
     <use x="466.845703" xlink:href="#ArialMT-108"/>
     <use x="489.0625" xlink:href="#ArialMT-97"/>
     <use x="544.677734" xlink:href="#ArialMT-114"/>
     <use x="577.978516" xlink:href="#ArialMT-121"/>
     <use x="627.978516" xlink:href="#ArialMT-32"/>
     <use x="655.761719" xlink:href="#ArialMT-68"/>
     <use x="727.978516" xlink:href="#ArialMT-105"/>
     <use x="750.195312" xlink:href="#ArialMT-115"/>
     <use x="800.195312" xlink:href="#ArialMT-116"/>
     <use x="827.978516" xlink:href="#ArialMT-114"/>
     <use x="861.279297" xlink:href="#ArialMT-105"/>
     <use x="883.496094" xlink:href="#ArialMT-98"/>
     <use x="939.111328" xlink:href="#ArialMT-117"/>
     <use x="994.726562" xlink:href="#ArialMT-116"/>
     <use x="1022.509766" xlink:href="#ArialMT-105"/>
     <use x="1044.726562" xlink:href="#ArialMT-111"/>
     <use x="1100.341797" xlink:href="#ArialMT-110"/>
    </g>
   </g>
  </g>
 </g>
 <defs>
  <clipPath id="pb057071f4a">
   <rect height="326.16" width="669.6" x="108" y="51.84"/>
  </clipPath>
 </defs>
</svg>
