<?xml version="1.0" encoding="utf-8" standalone="no"?>
<!DOCTYPE svg PUBLIC "-//W3C//DTD SVG 1.1//EN"
  "http://www.w3.org/Graphics/SVG/1.1/DTD/svg11.dtd">
<!-- Created with matplotlib (https://matplotlib.org/) -->
<svg height="432pt" version="1.1" viewBox="0 0 720 432" width="720pt" xmlns="http://www.w3.org/2000/svg" xmlns:xlink="http://www.w3.org/1999/xlink">
 <defs>
  <style type="text/css">
*{stroke-linecap:butt;stroke-linejoin:round;white-space:pre;}
  </style>
 </defs>
 <g id="figure_1">
  <g id="patch_1">
   <path d="M 0 432 
L 720 432 
L 720 0 
L 0 0 
z
" style="fill:#ffffff;"/>
  </g>
  <g id="axes_1">
   <g id="patch_2">
    <path d="M 90 378 
L 648 378 
L 648 51.84 
L 90 51.84 
z
" style="fill:#eaeaf2;"/>
   </g>
   <g id="matplotlib.axis_1">
    <g id="xtick_1">
     <g id="text_1">
      <!-- Government -->
      <defs>
       <path d="M 41.21875 28.078125 
L 41.21875 36.46875 
L 71.53125 36.53125 
L 71.53125 9.96875 
Q 64.546875 4.390625 57.125 1.578125 
Q 49.703125 -1.21875 41.890625 -1.21875 
Q 31.34375 -1.21875 22.71875 3.296875 
Q 14.109375 7.8125 9.71875 16.359375 
Q 5.328125 24.90625 5.328125 35.453125 
Q 5.328125 45.90625 9.6875 54.953125 
Q 14.0625 64.015625 22.265625 68.40625 
Q 30.46875 72.796875 41.15625 72.796875 
Q 48.921875 72.796875 55.1875 70.28125 
Q 61.46875 67.78125 65.03125 63.28125 
Q 68.609375 58.796875 70.453125 51.5625 
L 61.921875 49.21875 
Q 60.296875 54.6875 57.90625 57.8125 
Q 55.515625 60.9375 51.0625 62.8125 
Q 46.625 64.703125 41.21875 64.703125 
Q 34.71875 64.703125 29.984375 62.71875 
Q 25.25 60.75 22.34375 57.515625 
Q 19.4375 54.296875 17.828125 50.4375 
Q 15.09375 43.796875 15.09375 36.03125 
Q 15.09375 26.46875 18.390625 20.015625 
Q 21.6875 13.578125 27.984375 10.453125 
Q 34.28125 7.328125 41.359375 7.328125 
Q 47.515625 7.328125 53.375 9.6875 
Q 59.234375 12.0625 62.25 14.75 
L 62.25 28.078125 
z
" id="ArialMT-71"/>
       <path d="M 3.328125 25.921875 
Q 3.328125 40.328125 11.328125 47.265625 
Q 18.015625 53.03125 27.640625 53.03125 
Q 38.328125 53.03125 45.109375 46.015625 
Q 51.90625 39.015625 51.90625 26.65625 
Q 51.90625 16.65625 48.90625 10.90625 
Q 45.90625 5.171875 40.15625 2 
Q 34.421875 -1.171875 27.640625 -1.171875 
Q 16.75 -1.171875 10.03125 5.8125 
Q 3.328125 12.796875 3.328125 25.921875 
z
M 12.359375 25.921875 
Q 12.359375 15.96875 16.703125 11.015625 
Q 21.046875 6.0625 27.640625 6.0625 
Q 34.1875 6.0625 38.53125 11.03125 
Q 42.875 16.015625 42.875 26.21875 
Q 42.875 35.84375 38.5 40.796875 
Q 34.125 45.75 27.640625 45.75 
Q 21.046875 45.75 16.703125 40.8125 
Q 12.359375 35.890625 12.359375 25.921875 
z
" id="ArialMT-111"/>
       <path d="M 21 0 
L 1.265625 51.859375 
L 10.546875 51.859375 
L 21.6875 20.796875 
Q 23.484375 15.765625 25 10.359375 
Q 26.171875 14.453125 28.265625 20.21875 
L 39.796875 51.859375 
L 48.828125 51.859375 
L 29.203125 0 
z
" id="ArialMT-118"/>
       <path d="M 42.09375 16.703125 
L 51.171875 15.578125 
Q 49.03125 7.625 43.21875 3.21875 
Q 37.40625 -1.171875 28.375 -1.171875 
Q 17 -1.171875 10.328125 5.828125 
Q 3.65625 12.84375 3.65625 25.484375 
Q 3.65625 38.578125 10.390625 45.796875 
Q 17.140625 53.03125 27.875 53.03125 
Q 38.28125 53.03125 44.875 45.953125 
Q 51.46875 38.875 51.46875 26.03125 
Q 51.46875 25.25 51.421875 23.6875 
L 12.75 23.6875 
Q 13.234375 15.140625 17.578125 10.59375 
Q 21.921875 6.0625 28.421875 6.0625 
Q 33.25 6.0625 36.671875 8.59375 
Q 40.09375 11.140625 42.09375 16.703125 
z
M 13.234375 30.90625 
L 42.1875 30.90625 
Q 41.609375 37.453125 38.875 40.71875 
Q 34.671875 45.796875 27.984375 45.796875 
Q 21.921875 45.796875 17.796875 41.75 
Q 13.671875 37.703125 13.234375 30.90625 
z
" id="ArialMT-101"/>
       <path d="M 6.5 0 
L 6.5 51.859375 
L 14.40625 51.859375 
L 14.40625 44 
Q 17.4375 49.515625 20 51.265625 
Q 22.5625 53.03125 25.640625 53.03125 
Q 30.078125 53.03125 34.671875 50.203125 
L 31.640625 42.046875 
Q 28.421875 43.953125 25.203125 43.953125 
Q 22.3125 43.953125 20.015625 42.21875 
Q 17.71875 40.484375 16.75 37.40625 
Q 15.28125 32.71875 15.28125 27.15625 
L 15.28125 0 
z
" id="ArialMT-114"/>
       <path d="M 6.59375 0 
L 6.59375 51.859375 
L 14.5 51.859375 
L 14.5 44.484375 
Q 20.21875 53.03125 31 53.03125 
Q 35.6875 53.03125 39.625 51.34375 
Q 43.5625 49.65625 45.515625 46.921875 
Q 47.46875 44.1875 48.25 40.4375 
Q 48.734375 37.984375 48.734375 31.890625 
L 48.734375 0 
L 39.9375 0 
L 39.9375 31.546875 
Q 39.9375 36.921875 38.90625 39.578125 
Q 37.890625 42.234375 35.28125 43.8125 
Q 32.671875 45.40625 29.15625 45.40625 
Q 23.53125 45.40625 19.453125 41.84375 
Q 15.375 38.28125 15.375 28.328125 
L 15.375 0 
z
" id="ArialMT-110"/>
       <path d="M 6.59375 0 
L 6.59375 51.859375 
L 14.453125 51.859375 
L 14.453125 44.578125 
Q 16.890625 48.390625 20.9375 50.703125 
Q 25 53.03125 30.171875 53.03125 
Q 35.9375 53.03125 39.625 50.640625 
Q 43.3125 48.25 44.828125 43.953125 
Q 50.984375 53.03125 60.84375 53.03125 
Q 68.5625 53.03125 72.703125 48.75 
Q 76.859375 44.484375 76.859375 35.59375 
L 76.859375 0 
L 68.109375 0 
L 68.109375 32.671875 
Q 68.109375 37.9375 67.25 40.25 
Q 66.40625 42.578125 64.15625 43.984375 
Q 61.921875 45.40625 58.890625 45.40625 
Q 53.421875 45.40625 49.796875 41.765625 
Q 46.1875 38.140625 46.1875 30.125 
L 46.1875 0 
L 37.40625 0 
L 37.40625 33.6875 
Q 37.40625 39.546875 35.25 42.46875 
Q 33.109375 45.40625 28.21875 45.40625 
Q 24.515625 45.40625 21.359375 43.453125 
Q 18.21875 41.5 16.796875 37.734375 
Q 15.375 33.984375 15.375 26.90625 
L 15.375 0 
z
" id="ArialMT-109"/>
       <path d="M 25.78125 7.859375 
L 27.046875 0.09375 
Q 23.34375 -0.6875 20.40625 -0.6875 
Q 15.625 -0.6875 12.984375 0.828125 
Q 10.359375 2.34375 9.28125 4.8125 
Q 8.203125 7.28125 8.203125 15.1875 
L 8.203125 45.015625 
L 1.765625 45.015625 
L 1.765625 51.859375 
L 8.203125 51.859375 
L 8.203125 64.703125 
L 16.9375 69.96875 
L 16.9375 51.859375 
L 25.78125 51.859375 
L 25.78125 45.015625 
L 16.9375 45.015625 
L 16.9375 14.703125 
Q 16.9375 10.9375 17.40625 9.859375 
Q 17.875 8.796875 18.921875 8.15625 
Q 19.96875 7.515625 21.921875 7.515625 
Q 23.390625 7.515625 25.78125 7.859375 
z
" id="ArialMT-116"/>
      </defs>
      <g style="fill:#262626;" transform="translate(129.488828 395.373594)scale(0.11 -0.11)">
       <use xlink:href="#ArialMT-71"/>
       <use x="77.783203" xlink:href="#ArialMT-111"/>
       <use x="133.398438" xlink:href="#ArialMT-118"/>
       <use x="183.398438" xlink:href="#ArialMT-101"/>
       <use x="239.013672" xlink:href="#ArialMT-114"/>
       <use x="272.314453" xlink:href="#ArialMT-110"/>
       <use x="327.929688" xlink:href="#ArialMT-109"/>
       <use x="411.230469" xlink:href="#ArialMT-101"/>
       <use x="466.845703" xlink:href="#ArialMT-110"/>
       <use x="522.460938" xlink:href="#ArialMT-116"/>
      </g>
     </g>
    </g>
    <g id="xtick_2">
     <g id="text_2">
      <!-- Founder -->
      <defs>
       <path d="M 8.203125 0 
L 8.203125 71.578125 
L 56.5 71.578125 
L 56.5 63.140625 
L 17.671875 63.140625 
L 17.671875 40.96875 
L 51.265625 40.96875 
L 51.265625 32.515625 
L 17.671875 32.515625 
L 17.671875 0 
z
" id="ArialMT-70"/>
       <path d="M 40.578125 0 
L 40.578125 7.625 
Q 34.515625 -1.171875 24.125 -1.171875 
Q 19.53125 -1.171875 15.546875 0.578125 
Q 11.578125 2.34375 9.640625 5 
Q 7.71875 7.671875 6.9375 11.53125 
Q 6.390625 14.109375 6.390625 19.734375 
L 6.390625 51.859375 
L 15.1875 51.859375 
L 15.1875 23.09375 
Q 15.1875 16.21875 15.71875 13.8125 
Q 16.546875 10.359375 19.234375 8.375 
Q 21.921875 6.390625 25.875 6.390625 
Q 29.828125 6.390625 33.296875 8.421875 
Q 36.765625 10.453125 38.203125 13.9375 
Q 39.65625 17.4375 39.65625 24.078125 
L 39.65625 51.859375 
L 48.4375 51.859375 
L 48.4375 0 
z
" id="ArialMT-117"/>
       <path d="M 40.234375 0 
L 40.234375 6.546875 
Q 35.296875 -1.171875 25.734375 -1.171875 
Q 19.53125 -1.171875 14.328125 2.25 
Q 9.125 5.671875 6.265625 11.796875 
Q 3.421875 17.921875 3.421875 25.875 
Q 3.421875 33.640625 6 39.96875 
Q 8.59375 46.296875 13.765625 49.65625 
Q 18.953125 53.03125 25.34375 53.03125 
Q 30.03125 53.03125 33.6875 51.046875 
Q 37.359375 49.078125 39.65625 45.90625 
L 39.65625 71.578125 
L 48.390625 71.578125 
L 48.390625 0 
z
M 12.453125 25.875 
Q 12.453125 15.921875 16.640625 10.984375 
Q 20.84375 6.0625 26.5625 6.0625 
Q 32.328125 6.0625 36.34375 10.765625 
Q 40.375 15.484375 40.375 25.140625 
Q 40.375 35.796875 36.265625 40.765625 
Q 32.171875 45.75 26.171875 45.75 
Q 20.3125 45.75 16.375 40.96875 
Q 12.453125 36.1875 12.453125 25.875 
z
" id="ArialMT-100"/>
      </defs>
      <g style="fill:#262626;" transform="translate(278.766797 395.373594)scale(0.11 -0.11)">
       <use xlink:href="#ArialMT-70"/>
       <use x="61.083984" xlink:href="#ArialMT-111"/>
       <use x="116.699219" xlink:href="#ArialMT-117"/>
       <use x="172.314453" xlink:href="#ArialMT-110"/>
       <use x="227.929688" xlink:href="#ArialMT-100"/>
       <use x="283.544922" xlink:href="#ArialMT-101"/>
       <use x="339.160156" xlink:href="#ArialMT-114"/>
      </g>
     </g>
    </g>
    <g id="xtick_3">
     <g id="text_3">
      <!-- Investors -->
      <defs>
       <path d="M 9.328125 0 
L 9.328125 71.578125 
L 18.796875 71.578125 
L 18.796875 0 
z
" id="ArialMT-73"/>
       <path d="M 3.078125 15.484375 
L 11.765625 16.84375 
Q 12.5 11.625 15.84375 8.84375 
Q 19.1875 6.0625 25.203125 6.0625 
Q 31.25 6.0625 34.171875 8.515625 
Q 37.109375 10.984375 37.109375 14.3125 
Q 37.109375 17.28125 34.515625 19 
Q 32.71875 20.171875 25.53125 21.96875 
Q 15.875 24.421875 12.140625 26.203125 
Q 8.40625 27.984375 6.46875 31.125 
Q 4.546875 34.28125 4.546875 38.09375 
Q 4.546875 41.546875 6.125 44.5 
Q 7.71875 47.46875 10.453125 49.421875 
Q 12.5 50.921875 16.03125 51.96875 
Q 19.578125 53.03125 23.640625 53.03125 
Q 29.734375 53.03125 34.34375 51.265625 
Q 38.96875 49.515625 41.15625 46.5 
Q 43.359375 43.5 44.1875 38.484375 
L 35.59375 37.3125 
Q 35.015625 41.3125 32.203125 43.546875 
Q 29.390625 45.796875 24.265625 45.796875 
Q 18.21875 45.796875 15.625 43.796875 
Q 13.03125 41.796875 13.03125 39.109375 
Q 13.03125 37.40625 14.109375 36.03125 
Q 15.1875 34.625 17.484375 33.6875 
Q 18.796875 33.203125 25.25 31.453125 
Q 34.578125 28.953125 38.25 27.359375 
Q 41.9375 25.78125 44.03125 22.75 
Q 46.140625 19.734375 46.140625 15.234375 
Q 46.140625 10.84375 43.578125 6.953125 
Q 41.015625 3.078125 36.171875 0.953125 
Q 31.34375 -1.171875 25.25 -1.171875 
Q 15.140625 -1.171875 9.84375 3.03125 
Q 4.546875 7.234375 3.078125 15.484375 
z
" id="ArialMT-115"/>
      </defs>
      <g style="fill:#262626;" transform="translate(416.437187 395.373594)scale(0.11 -0.11)">
       <use xlink:href="#ArialMT-73"/>
       <use x="27.783203" xlink:href="#ArialMT-110"/>
       <use x="83.398438" xlink:href="#ArialMT-118"/>
       <use x="133.398438" xlink:href="#ArialMT-101"/>
       <use x="189.013672" xlink:href="#ArialMT-115"/>
       <use x="239.013672" xlink:href="#ArialMT-116"/>
       <use x="266.796875" xlink:href="#ArialMT-111"/>
       <use x="322.412109" xlink:href="#ArialMT-114"/>
       <use x="355.712891" xlink:href="#ArialMT-115"/>
      </g>
     </g>
    </g>
    <g id="xtick_4">
     <g id="text_4">
      <!-- Markets -->
      <defs>
       <path d="M 7.421875 0 
L 7.421875 71.578125 
L 21.6875 71.578125 
L 38.625 20.90625 
Q 40.96875 13.8125 42.046875 10.296875 
Q 43.265625 14.203125 45.84375 21.78125 
L 62.984375 71.578125 
L 75.734375 71.578125 
L 75.734375 0 
L 66.609375 0 
L 66.609375 59.90625 
L 45.796875 0 
L 37.25 0 
L 16.546875 60.9375 
L 16.546875 0 
z
" id="ArialMT-77"/>
       <path d="M 40.4375 6.390625 
Q 35.546875 2.25 31.03125 0.53125 
Q 26.515625 -1.171875 21.34375 -1.171875 
Q 12.796875 -1.171875 8.203125 3 
Q 3.609375 7.171875 3.609375 13.671875 
Q 3.609375 17.484375 5.34375 20.625 
Q 7.078125 23.78125 9.890625 25.6875 
Q 12.703125 27.59375 16.21875 28.5625 
Q 18.796875 29.25 24.03125 29.890625 
Q 34.671875 31.15625 39.703125 32.90625 
Q 39.75 34.71875 39.75 35.203125 
Q 39.75 40.578125 37.25 42.78125 
Q 33.890625 45.75 27.25 45.75 
Q 21.046875 45.75 18.09375 43.578125 
Q 15.140625 41.40625 13.71875 35.890625 
L 5.125 37.0625 
Q 6.296875 42.578125 8.984375 45.96875 
Q 11.671875 49.359375 16.75 51.1875 
Q 21.828125 53.03125 28.515625 53.03125 
Q 35.15625 53.03125 39.296875 51.46875 
Q 43.453125 49.90625 45.40625 47.53125 
Q 47.359375 45.171875 48.140625 41.546875 
Q 48.578125 39.3125 48.578125 33.453125 
L 48.578125 21.734375 
Q 48.578125 9.46875 49.140625 6.21875 
Q 49.703125 2.984375 51.375 0 
L 42.1875 0 
Q 40.828125 2.734375 40.4375 6.390625 
z
M 39.703125 26.03125 
Q 34.90625 24.078125 25.34375 22.703125 
Q 19.921875 21.921875 17.671875 20.9375 
Q 15.4375 19.96875 14.203125 18.09375 
Q 12.984375 16.21875 12.984375 13.921875 
Q 12.984375 10.40625 15.640625 8.0625 
Q 18.3125 5.71875 23.4375 5.71875 
Q 28.515625 5.71875 32.46875 7.9375 
Q 36.421875 10.15625 38.28125 14.015625 
Q 39.703125 17 39.703125 22.796875 
z
" id="ArialMT-97"/>
       <path d="M 6.640625 0 
L 6.640625 71.578125 
L 15.4375 71.578125 
L 15.4375 30.765625 
L 36.234375 51.859375 
L 47.609375 51.859375 
L 27.78125 32.625 
L 49.609375 0 
L 38.765625 0 
L 21.625 26.515625 
L 15.4375 20.5625 
L 15.4375 0 
z
" id="ArialMT-107"/>
      </defs>
      <g style="fill:#262626;" transform="translate(558.692344 395.373594)scale(0.11 -0.11)">
       <use xlink:href="#ArialMT-77"/>
       <use x="83.300781" xlink:href="#ArialMT-97"/>
       <use x="138.916016" xlink:href="#ArialMT-114"/>
       <use x="172.216797" xlink:href="#ArialMT-107"/>
       <use x="222.216797" xlink:href="#ArialMT-101"/>
       <use x="277.832031" xlink:href="#ArialMT-116"/>
       <use x="305.615234" xlink:href="#ArialMT-115"/>
      </g>
     </g>
    </g>
    <g id="text_5">
     <!-- Ownership Sector -->
     <defs>
      <path d="M 4.828125 34.859375 
Q 4.828125 52.6875 14.390625 62.765625 
Q 23.96875 72.859375 39.109375 72.859375 
Q 49.03125 72.859375 56.984375 68.109375 
Q 64.9375 63.375 69.109375 54.90625 
Q 73.296875 46.4375 73.296875 35.6875 
Q 73.296875 24.8125 68.890625 16.21875 
Q 64.5 7.625 56.4375 3.203125 
Q 48.390625 -1.21875 39.0625 -1.21875 
Q 28.953125 -1.21875 20.984375 3.65625 
Q 13.03125 8.546875 8.921875 16.984375 
Q 4.828125 25.4375 4.828125 34.859375 
z
M 14.59375 34.71875 
Q 14.59375 21.78125 21.546875 14.328125 
Q 28.515625 6.890625 39.015625 6.890625 
Q 49.703125 6.890625 56.609375 14.40625 
Q 63.53125 21.921875 63.53125 35.75 
Q 63.53125 44.484375 60.578125 51 
Q 57.625 57.515625 51.921875 61.109375 
Q 46.234375 64.703125 39.15625 64.703125 
Q 29.109375 64.703125 21.84375 57.78125 
Q 14.59375 50.875 14.59375 34.71875 
z
" id="ArialMT-79"/>
      <path d="M 16.15625 0 
L 0.296875 51.859375 
L 9.375 51.859375 
L 17.625 21.921875 
L 20.703125 10.796875 
Q 20.90625 11.625 23.390625 21.484375 
L 31.640625 51.859375 
L 40.671875 51.859375 
L 48.4375 21.78125 
L 51.03125 11.859375 
L 54 21.875 
L 62.890625 51.859375 
L 71.4375 51.859375 
L 55.21875 0 
L 46.09375 0 
L 37.84375 31.0625 
L 35.84375 39.890625 
L 25.34375 0 
z
" id="ArialMT-119"/>
      <path d="M 6.59375 0 
L 6.59375 71.578125 
L 15.375 71.578125 
L 15.375 45.90625 
Q 21.53125 53.03125 30.90625 53.03125 
Q 36.671875 53.03125 40.921875 50.75 
Q 45.171875 48.484375 47 44.484375 
Q 48.828125 40.484375 48.828125 32.859375 
L 48.828125 0 
L 40.046875 0 
L 40.046875 32.859375 
Q 40.046875 39.453125 37.1875 42.453125 
Q 34.328125 45.453125 29.109375 45.453125 
Q 25.203125 45.453125 21.75 43.421875 
Q 18.3125 41.40625 16.84375 37.9375 
Q 15.375 34.46875 15.375 28.375 
L 15.375 0 
z
" id="ArialMT-104"/>
      <path d="M 6.640625 61.46875 
L 6.640625 71.578125 
L 15.4375 71.578125 
L 15.4375 61.46875 
z
M 6.640625 0 
L 6.640625 51.859375 
L 15.4375 51.859375 
L 15.4375 0 
z
" id="ArialMT-105"/>
      <path d="M 6.59375 -19.875 
L 6.59375 51.859375 
L 14.59375 51.859375 
L 14.59375 45.125 
Q 17.4375 49.078125 21 51.046875 
Q 24.5625 53.03125 29.640625 53.03125 
Q 36.28125 53.03125 41.359375 49.609375 
Q 46.4375 46.1875 49.015625 39.953125 
Q 51.609375 33.734375 51.609375 26.3125 
Q 51.609375 18.359375 48.75 11.984375 
Q 45.90625 5.609375 40.453125 2.21875 
Q 35.015625 -1.171875 29 -1.171875 
Q 24.609375 -1.171875 21.109375 0.6875 
Q 17.625 2.546875 15.375 5.375 
L 15.375 -19.875 
z
M 14.546875 25.640625 
Q 14.546875 15.625 18.59375 10.84375 
Q 22.65625 6.0625 28.421875 6.0625 
Q 34.28125 6.0625 38.453125 11.015625 
Q 42.625 15.96875 42.625 26.375 
Q 42.625 36.28125 38.546875 41.203125 
Q 34.46875 46.140625 28.8125 46.140625 
Q 23.1875 46.140625 18.859375 40.890625 
Q 14.546875 35.640625 14.546875 25.640625 
z
" id="ArialMT-112"/>
      <path id="ArialMT-32"/>
      <path d="M 4.5 23 
L 13.421875 23.78125 
Q 14.0625 18.40625 16.375 14.96875 
Q 18.703125 11.53125 23.578125 9.40625 
Q 28.46875 7.28125 34.578125 7.28125 
Q 39.984375 7.28125 44.140625 8.890625 
Q 48.296875 10.5 50.3125 13.296875 
Q 52.34375 16.109375 52.34375 19.4375 
Q 52.34375 22.796875 50.390625 25.3125 
Q 48.4375 27.828125 43.953125 29.546875 
Q 41.0625 30.671875 31.203125 33.03125 
Q 21.34375 35.40625 17.390625 37.5 
Q 12.25 40.1875 9.734375 44.15625 
Q 7.234375 48.140625 7.234375 53.078125 
Q 7.234375 58.5 10.296875 63.203125 
Q 13.375 67.921875 19.28125 70.359375 
Q 25.203125 72.796875 32.421875 72.796875 
Q 40.375 72.796875 46.453125 70.234375 
Q 52.546875 67.671875 55.8125 62.6875 
Q 59.078125 57.71875 59.328125 51.421875 
L 50.25 50.734375 
Q 49.515625 57.515625 45.28125 60.984375 
Q 41.0625 64.453125 32.8125 64.453125 
Q 24.21875 64.453125 20.28125 61.296875 
Q 16.359375 58.15625 16.359375 53.71875 
Q 16.359375 49.859375 19.140625 47.359375 
Q 21.875 44.875 33.421875 42.265625 
Q 44.96875 39.65625 49.265625 37.703125 
Q 55.515625 34.8125 58.484375 30.390625 
Q 61.46875 25.984375 61.46875 20.21875 
Q 61.46875 14.5 58.203125 9.4375 
Q 54.9375 4.390625 48.796875 1.578125 
Q 42.671875 -1.21875 35.015625 -1.21875 
Q 25.296875 -1.21875 18.71875 1.609375 
Q 12.15625 4.4375 8.421875 10.125 
Q 4.6875 15.828125 4.5 23 
z
" id="ArialMT-83"/>
      <path d="M 40.4375 19 
L 49.078125 17.875 
Q 47.65625 8.9375 41.8125 3.875 
Q 35.984375 -1.171875 27.484375 -1.171875 
Q 16.84375 -1.171875 10.375 5.78125 
Q 3.90625 12.75 3.90625 25.734375 
Q 3.90625 34.125 6.6875 40.421875 
Q 9.46875 46.734375 15.15625 49.875 
Q 20.84375 53.03125 27.546875 53.03125 
Q 35.984375 53.03125 41.359375 48.75 
Q 46.734375 44.484375 48.25 36.625 
L 39.703125 35.296875 
Q 38.484375 40.53125 35.375 43.15625 
Q 32.28125 45.796875 27.875 45.796875 
Q 21.234375 45.796875 17.078125 41.03125 
Q 12.9375 36.28125 12.9375 25.984375 
Q 12.9375 15.53125 16.9375 10.796875 
Q 20.953125 6.0625 27.390625 6.0625 
Q 32.5625 6.0625 36.03125 9.234375 
Q 39.5 12.40625 40.4375 19 
z
" id="ArialMT-99"/>
     </defs>
     <g style="fill:#262626;" transform="translate(321.315938 410.302969)scale(0.12 -0.12)">
      <use xlink:href="#ArialMT-79"/>
      <use x="77.783203" xlink:href="#ArialMT-119"/>
      <use x="150" xlink:href="#ArialMT-110"/>
      <use x="205.615234" xlink:href="#ArialMT-101"/>
      <use x="261.230469" xlink:href="#ArialMT-114"/>
      <use x="294.53125" xlink:href="#ArialMT-115"/>
      <use x="344.53125" xlink:href="#ArialMT-104"/>
      <use x="400.146484" xlink:href="#ArialMT-105"/>
      <use x="422.363281" xlink:href="#ArialMT-112"/>
      <use x="477.978516" xlink:href="#ArialMT-32"/>
      <use x="505.761719" xlink:href="#ArialMT-83"/>
      <use x="572.460938" xlink:href="#ArialMT-101"/>
      <use x="628.076172" xlink:href="#ArialMT-99"/>
      <use x="678.076172" xlink:href="#ArialMT-116"/>
      <use x="705.859375" xlink:href="#ArialMT-111"/>
      <use x="761.474609" xlink:href="#ArialMT-114"/>
     </g>
    </g>
   </g>
   <g id="matplotlib.axis_2">
    <g id="ytick_1">
     <g id="line2d_1">
      <path clip-path="url(#p0c66c5f3a1)" d="M 90 364.528468 
L 648 364.528468 
" style="fill:none;stroke:#ffffff;stroke-linecap:round;"/>
     </g>
     <g id="text_6">
      <!-- 50 -->
      <defs>
       <path d="M 4.15625 18.75 
L 13.375 19.53125 
Q 14.40625 12.796875 18.140625 9.390625 
Q 21.875 6 27.15625 6 
Q 33.5 6 37.890625 10.78125 
Q 42.28125 15.578125 42.28125 23.484375 
Q 42.28125 31 38.0625 35.34375 
Q 33.84375 39.703125 27 39.703125 
Q 22.75 39.703125 19.328125 37.765625 
Q 15.921875 35.84375 13.96875 32.765625 
L 5.71875 33.84375 
L 12.640625 70.609375 
L 48.25 70.609375 
L 48.25 62.203125 
L 19.671875 62.203125 
L 15.828125 42.96875 
Q 22.265625 47.46875 29.34375 47.46875 
Q 38.71875 47.46875 45.15625 40.96875 
Q 51.609375 34.46875 51.609375 24.265625 
Q 51.609375 14.546875 45.953125 7.46875 
Q 39.0625 -1.21875 27.15625 -1.21875 
Q 17.390625 -1.21875 11.203125 4.25 
Q 5.03125 9.71875 4.15625 18.75 
z
" id="ArialMT-53"/>
       <path d="M 4.15625 35.296875 
Q 4.15625 48 6.765625 55.734375 
Q 9.375 63.484375 14.515625 67.671875 
Q 19.671875 71.875 27.484375 71.875 
Q 33.25 71.875 37.59375 69.546875 
Q 41.9375 67.234375 44.765625 62.859375 
Q 47.609375 58.5 49.21875 52.21875 
Q 50.828125 45.953125 50.828125 35.296875 
Q 50.828125 22.703125 48.234375 14.96875 
Q 45.65625 7.234375 40.5 3 
Q 35.359375 -1.21875 27.484375 -1.21875 
Q 17.140625 -1.21875 11.234375 6.203125 
Q 4.15625 15.140625 4.15625 35.296875 
z
M 13.1875 35.296875 
Q 13.1875 17.671875 17.3125 11.828125 
Q 21.4375 6 27.484375 6 
Q 33.546875 6 37.671875 11.859375 
Q 41.796875 17.71875 41.796875 35.296875 
Q 41.796875 52.984375 37.671875 58.78125 
Q 33.546875 64.59375 27.390625 64.59375 
Q 21.34375 64.59375 17.71875 59.46875 
Q 13.1875 52.9375 13.1875 35.296875 
z
" id="ArialMT-48"/>
      </defs>
      <g style="fill:#262626;" transform="translate(68.265938 368.465265)scale(0.11 -0.11)">
       <use xlink:href="#ArialMT-53"/>
       <use x="55.615234" xlink:href="#ArialMT-48"/>
      </g>
     </g>
    </g>
    <g id="ytick_2">
     <g id="line2d_2">
      <path clip-path="url(#p0c66c5f3a1)" d="M 90 296.832329 
L 648 296.832329 
" style="fill:none;stroke:#ffffff;stroke-linecap:round;"/>
     </g>
     <g id="text_7">
      <!-- 100 -->
      <defs>
       <path d="M 37.25 0 
L 28.46875 0 
L 28.46875 56 
Q 25.296875 52.984375 20.140625 49.953125 
Q 14.984375 46.921875 10.890625 45.40625 
L 10.890625 53.90625 
Q 18.265625 57.375 23.78125 62.296875 
Q 29.296875 67.234375 31.59375 71.875 
L 37.25 71.875 
z
" id="ArialMT-49"/>
      </defs>
      <g style="fill:#262626;" transform="translate(62.148906 300.769126)scale(0.11 -0.11)">
       <use xlink:href="#ArialMT-49"/>
       <use x="55.615234" xlink:href="#ArialMT-48"/>
       <use x="111.230469" xlink:href="#ArialMT-48"/>
      </g>
     </g>
    </g>
    <g id="ytick_3">
     <g id="line2d_3">
      <path clip-path="url(#p0c66c5f3a1)" d="M 90 229.136189 
L 648 229.136189 
" style="fill:none;stroke:#ffffff;stroke-linecap:round;"/>
     </g>
     <g id="text_8">
      <!-- 150 -->
      <g style="fill:#262626;" transform="translate(62.148906 233.072986)scale(0.11 -0.11)">
       <use xlink:href="#ArialMT-49"/>
       <use x="55.615234" xlink:href="#ArialMT-53"/>
       <use x="111.230469" xlink:href="#ArialMT-48"/>
      </g>
     </g>
    </g>
    <g id="ytick_4">
     <g id="line2d_4">
      <path clip-path="url(#p0c66c5f3a1)" d="M 90 161.44005 
L 648 161.44005 
" style="fill:none;stroke:#ffffff;stroke-linecap:round;"/>
     </g>
     <g id="text_9">
      <!-- 200 -->
      <defs>
       <path d="M 50.34375 8.453125 
L 50.34375 0 
L 3.03125 0 
Q 2.9375 3.171875 4.046875 6.109375 
Q 5.859375 10.9375 9.828125 15.625 
Q 13.8125 20.3125 21.34375 26.46875 
Q 33.015625 36.03125 37.109375 41.625 
Q 41.21875 47.21875 41.21875 52.203125 
Q 41.21875 57.421875 37.46875 61 
Q 33.734375 64.59375 27.734375 64.59375 
Q 21.390625 64.59375 17.578125 60.78125 
Q 13.765625 56.984375 13.71875 50.25 
L 4.6875 51.171875 
Q 5.609375 61.28125 11.65625 66.578125 
Q 17.71875 71.875 27.9375 71.875 
Q 38.234375 71.875 44.234375 66.15625 
Q 50.25 60.453125 50.25 52 
Q 50.25 47.703125 48.484375 43.546875 
Q 46.734375 39.40625 42.65625 34.8125 
Q 38.578125 30.21875 29.109375 22.21875 
Q 21.1875 15.578125 18.9375 13.203125 
Q 16.703125 10.84375 15.234375 8.453125 
z
" id="ArialMT-50"/>
      </defs>
      <g style="fill:#262626;" transform="translate(62.148906 165.376847)scale(0.11 -0.11)">
       <use xlink:href="#ArialMT-50"/>
       <use x="55.615234" xlink:href="#ArialMT-48"/>
       <use x="111.230469" xlink:href="#ArialMT-48"/>
      </g>
     </g>
    </g>
    <g id="ytick_5">
     <g id="line2d_5">
      <path clip-path="url(#p0c66c5f3a1)" d="M 90 93.74391 
L 648 93.74391 
" style="fill:none;stroke:#ffffff;stroke-linecap:round;"/>
     </g>
     <g id="text_10">
      <!-- 250 -->
      <g style="fill:#262626;" transform="translate(62.148906 97.680707)scale(0.11 -0.11)">
       <use xlink:href="#ArialMT-50"/>
       <use x="55.615234" xlink:href="#ArialMT-53"/>
       <use x="111.230469" xlink:href="#ArialMT-48"/>
      </g>
     </g>
    </g>
    <g id="text_11">
     <!-- Compensation ($1000s) -->
     <defs>
      <path d="M 58.796875 25.09375 
L 68.265625 22.703125 
Q 65.28125 11.03125 57.546875 4.90625 
Q 49.8125 -1.21875 38.625 -1.21875 
Q 27.046875 -1.21875 19.796875 3.484375 
Q 12.546875 8.203125 8.765625 17.140625 
Q 4.984375 26.078125 4.984375 36.328125 
Q 4.984375 47.515625 9.25 55.828125 
Q 13.53125 64.15625 21.40625 68.46875 
Q 29.296875 72.796875 38.765625 72.796875 
Q 49.515625 72.796875 56.828125 67.328125 
Q 64.15625 61.859375 67.046875 51.953125 
L 57.71875 49.75 
Q 55.21875 57.5625 50.484375 61.125 
Q 45.75 64.703125 38.578125 64.703125 
Q 30.328125 64.703125 24.78125 60.734375 
Q 19.234375 56.78125 16.984375 50.109375 
Q 14.75 43.453125 14.75 36.375 
Q 14.75 27.25 17.40625 20.4375 
Q 20.0625 13.625 25.671875 10.25 
Q 31.296875 6.890625 37.84375 6.890625 
Q 45.796875 6.890625 51.3125 11.46875 
Q 56.84375 16.0625 58.796875 25.09375 
z
" id="ArialMT-67"/>
      <path d="M 23.390625 -21.046875 
Q 16.109375 -11.859375 11.078125 0.4375 
Q 6.0625 12.75 6.0625 25.921875 
Q 6.0625 37.546875 9.8125 48.1875 
Q 14.203125 60.546875 23.390625 72.796875 
L 29.6875 72.796875 
Q 23.78125 62.640625 21.875 58.296875 
Q 18.890625 51.5625 17.1875 44.234375 
Q 15.09375 35.109375 15.09375 25.875 
Q 15.09375 2.390625 29.6875 -21.046875 
z
" id="ArialMT-40"/>
      <path d="M 24.90625 -10.296875 
L 24.90625 -1.515625 
Q 18.3125 -0.6875 14.1875 1.4375 
Q 10.0625 3.5625 7.046875 8.296875 
Q 4.046875 13.03125 3.5625 19.875 
L 12.40625 21.53125 
Q 13.421875 14.453125 16.015625 11.140625 
Q 19.734375 6.453125 24.90625 5.90625 
L 24.90625 33.890625 
Q 19.484375 34.90625 13.8125 38.09375 
Q 9.625 40.4375 7.34375 44.578125 
Q 5.078125 48.734375 5.078125 54 
Q 5.078125 63.375 11.71875 69.1875 
Q 16.15625 73.09375 24.90625 73.96875 
L 24.90625 78.171875 
L 30.078125 78.171875 
L 30.078125 73.96875 
Q 37.75 73.25 42.234375 69.484375 
Q 48 64.703125 49.171875 56.34375 
L 40.09375 54.984375 
Q 39.3125 60.15625 36.84375 62.90625 
Q 34.375 65.671875 30.078125 66.546875 
L 30.078125 41.21875 
Q 36.71875 39.546875 38.875 38.625 
Q 42.96875 36.8125 45.546875 34.21875 
Q 48.140625 31.640625 49.53125 28.078125 
Q 50.921875 24.515625 50.921875 20.359375 
Q 50.921875 11.234375 45.109375 5.125 
Q 39.3125 -0.984375 30.078125 -1.421875 
L 30.078125 -10.296875 
z
M 24.90625 66.65625 
Q 19.78125 65.875 16.828125 62.546875 
Q 13.875 59.234375 13.875 54.6875 
Q 13.875 50.203125 16.375 47.171875 
Q 18.890625 44.140625 24.90625 42.328125 
z
M 30.078125 5.90625 
Q 35.203125 6.546875 38.546875 10.34375 
Q 41.890625 14.15625 41.890625 19.78125 
Q 41.890625 24.5625 39.515625 27.46875 
Q 37.15625 30.375 30.078125 32.671875 
z
" id="ArialMT-36"/>
      <path d="M 12.359375 -21.046875 
L 6.0625 -21.046875 
Q 20.65625 2.390625 20.65625 25.875 
Q 20.65625 35.0625 18.5625 44.09375 
Q 16.890625 51.421875 13.921875 58.15625 
Q 12.015625 62.546875 6.0625 72.796875 
L 12.359375 72.796875 
Q 21.53125 60.546875 25.921875 48.1875 
Q 29.6875 37.546875 29.6875 25.921875 
Q 29.6875 12.75 24.625 0.4375 
Q 19.578125 -11.859375 12.359375 -21.046875 
z
" id="ArialMT-41"/>
     </defs>
     <g style="fill:#262626;" transform="translate(55.623281 278.952187)rotate(-90)scale(0.12 -0.12)">
      <use xlink:href="#ArialMT-67"/>
      <use x="72.216797" xlink:href="#ArialMT-111"/>
      <use x="127.832031" xlink:href="#ArialMT-109"/>
      <use x="211.132812" xlink:href="#ArialMT-112"/>
      <use x="266.748047" xlink:href="#ArialMT-101"/>
      <use x="322.363281" xlink:href="#ArialMT-110"/>
      <use x="377.978516" xlink:href="#ArialMT-115"/>
      <use x="427.978516" xlink:href="#ArialMT-97"/>
      <use x="483.59375" xlink:href="#ArialMT-116"/>
      <use x="511.376953" xlink:href="#ArialMT-105"/>
      <use x="533.59375" xlink:href="#ArialMT-111"/>
      <use x="589.208984" xlink:href="#ArialMT-110"/>
      <use x="644.824219" xlink:href="#ArialMT-32"/>
      <use x="672.607422" xlink:href="#ArialMT-40"/>
      <use x="705.908203" xlink:href="#ArialMT-36"/>
      <use x="761.523438" xlink:href="#ArialMT-49"/>
      <use x="817.138672" xlink:href="#ArialMT-48"/>
      <use x="872.753906" xlink:href="#ArialMT-48"/>
      <use x="928.369141" xlink:href="#ArialMT-48"/>
      <use x="983.984375" xlink:href="#ArialMT-115"/>
      <use x="1033.984375" xlink:href="#ArialMT-41"/>
     </g>
    </g>
   </g>
   <g id="PolyCollection_1">
    <defs>
     <path d="M 164.815035 -81.323516 
L 154.684965 -81.323516 
L 154.679367 -81.566524 
L 154.677273 -81.809533 
L 154.678634 -82.052542 
L 154.683395 -82.29555 
L 154.691485 -82.538559 
L 154.702827 -82.781568 
L 154.717329 -83.024576 
L 154.734893 -83.267585 
L 154.755409 -83.510593 
L 154.778756 -83.753602 
L 154.804807 -83.996611 
L 154.833424 -84.239619 
L 154.86446 -84.482628 
L 154.897764 -84.725637 
L 154.933173 -84.968645 
L 154.97052 -85.211654 
L 155.009631 -85.454662 
L 155.050327 -85.697671 
L 155.092424 -85.94068 
L 155.135734 -86.183688 
L 155.180064 -86.426697 
L 155.22522 -86.669706 
L 155.271005 -86.912714 
L 155.317221 -87.155723 
L 155.36367 -87.398731 
L 155.410153 -87.64174 
L 155.456471 -87.884749 
L 155.502429 -88.127757 
L 155.547833 -88.370766 
L 155.592491 -88.613775 
L 155.636218 -88.856783 
L 155.67883 -89.099792 
L 155.72015 -89.3428 
L 155.760006 -89.585809 
L 155.798233 -89.828818 
L 155.834672 -90.071826 
L 155.869175 -90.314835 
L 155.901598 -90.557844 
L 155.931807 -90.800852 
L 155.95968 -91.043861 
L 155.985101 -91.28687 
L 156.007966 -91.529878 
L 156.028182 -91.772887 
L 156.045666 -92.015895 
L 156.060347 -92.258904 
L 156.072163 -92.501913 
L 156.081069 -92.744921 
L 156.087026 -92.98793 
L 156.09001 -93.230939 
L 156.09001 -93.473947 
L 156.087026 -93.716956 
L 156.081069 -93.959964 
L 156.072163 -94.202973 
L 156.060347 -94.445982 
L 156.045666 -94.68899 
L 156.028182 -94.931999 
L 156.007966 -95.175008 
L 155.985101 -95.418016 
L 155.95968 -95.661025 
L 155.931807 -95.904033 
L 155.901598 -96.147042 
L 155.869175 -96.390051 
L 155.834672 -96.633059 
L 155.798233 -96.876068 
L 155.760006 -97.119077 
L 155.72015 -97.362085 
L 155.67883 -97.605094 
L 155.636218 -97.848102 
L 155.592491 -98.091111 
L 155.547833 -98.33412 
L 155.502429 -98.577128 
L 155.456471 -98.820137 
L 155.410153 -99.063146 
L 155.36367 -99.306154 
L 155.317221 -99.549163 
L 155.271005 -99.792171 
L 155.22522 -100.03518 
L 155.180064 -100.278189 
L 155.135734 -100.521197 
L 155.092424 -100.764206 
L 155.050327 -101.007215 
L 155.009631 -101.250223 
L 154.97052 -101.493232 
L 154.933173 -101.73624 
L 154.897764 -101.979249 
L 154.86446 -102.222258 
L 154.833424 -102.465266 
L 154.804807 -102.708275 
L 154.778756 -102.951284 
L 154.755409 -103.194292 
L 154.734893 -103.437301 
L 154.717329 -103.680309 
L 154.702827 -103.923318 
L 154.691485 -104.166327 
L 154.683395 -104.409335 
L 154.678634 -104.652344 
L 154.677273 -104.895353 
L 154.679367 -105.138361 
L 154.684965 -105.38137 
L 164.815035 -105.38137 
L 164.815035 -105.38137 
L 164.820633 -105.138361 
L 164.822727 -104.895353 
L 164.821366 -104.652344 
L 164.816605 -104.409335 
L 164.808515 -104.166327 
L 164.797173 -103.923318 
L 164.782671 -103.680309 
L 164.765107 -103.437301 
L 164.744591 -103.194292 
L 164.721244 -102.951284 
L 164.695193 -102.708275 
L 164.666576 -102.465266 
L 164.63554 -102.222258 
L 164.602236 -101.979249 
L 164.566827 -101.73624 
L 164.52948 -101.493232 
L 164.490369 -101.250223 
L 164.449673 -101.007215 
L 164.407576 -100.764206 
L 164.364266 -100.521197 
L 164.319936 -100.278189 
L 164.27478 -100.03518 
L 164.228995 -99.792171 
L 164.182779 -99.549163 
L 164.13633 -99.306154 
L 164.089847 -99.063146 
L 164.043529 -98.820137 
L 163.997571 -98.577128 
L 163.952167 -98.33412 
L 163.907509 -98.091111 
L 163.863782 -97.848102 
L 163.82117 -97.605094 
L 163.77985 -97.362085 
L 163.739994 -97.119077 
L 163.701767 -96.876068 
L 163.665328 -96.633059 
L 163.630825 -96.390051 
L 163.598402 -96.147042 
L 163.568193 -95.904033 
L 163.54032 -95.661025 
L 163.514899 -95.418016 
L 163.492034 -95.175008 
L 163.471818 -94.931999 
L 163.454334 -94.68899 
L 163.439653 -94.445982 
L 163.427837 -94.202973 
L 163.418931 -93.959964 
L 163.412974 -93.716956 
L 163.40999 -93.473947 
L 163.40999 -93.230939 
L 163.412974 -92.98793 
L 163.418931 -92.744921 
L 163.427837 -92.501913 
L 163.439653 -92.258904 
L 163.454334 -92.015895 
L 163.471818 -91.772887 
L 163.492034 -91.529878 
L 163.514899 -91.28687 
L 163.54032 -91.043861 
L 163.568193 -90.800852 
L 163.598402 -90.557844 
L 163.630825 -90.314835 
L 163.665328 -90.071826 
L 163.701767 -89.828818 
L 163.739994 -89.585809 
L 163.77985 -89.3428 
L 163.82117 -89.099792 
L 163.863782 -88.856783 
L 163.907509 -88.613775 
L 163.952167 -88.370766 
L 163.997571 -88.127757 
L 164.043529 -87.884749 
L 164.089847 -87.64174 
L 164.13633 -87.398731 
L 164.182779 -87.155723 
L 164.228995 -86.912714 
L 164.27478 -86.669706 
L 164.319936 -86.426697 
L 164.364266 -86.183688 
L 164.407576 -85.94068 
L 164.449673 -85.697671 
L 164.490369 -85.454662 
L 164.52948 -85.211654 
L 164.566827 -84.968645 
L 164.602236 -84.725637 
L 164.63554 -84.482628 
L 164.666576 -84.239619 
L 164.695193 -83.996611 
L 164.721244 -83.753602 
L 164.744591 -83.510593 
L 164.765107 -83.267585 
L 164.782671 -83.024576 
L 164.797173 -82.781568 
L 164.808515 -82.538559 
L 164.816605 -82.29555 
L 164.821366 -82.052542 
L 164.822727 -81.809533 
L 164.820633 -81.566524 
L 164.815035 -81.323516 
z
" id="m05cd062067" style="stroke:#4c4c4c;stroke-width:1.5;"/>
    </defs>
    <g clip-path="url(#p0c66c5f3a1)">
     <use style="fill:#5875a4;stroke:#4c4c4c;stroke-width:1.5;" x="0" xlink:href="#m05cd062067" y="432"/>
    </g>
   </g>
   <g id="PolyCollection_2">
    <defs>
     <path d="M 314.031784 -83.718605 
L 284.468216 -83.718605 
L 283.865092 -84.785332 
L 283.260076 -85.852059 
L 282.653707 -86.918786 
L 282.04649 -87.985513 
L 281.438916 -89.05224 
L 280.831484 -90.118968 
L 280.224722 -91.185695 
L 279.619211 -92.252422 
L 279.015607 -93.319149 
L 278.414666 -94.385876 
L 277.817262 -95.452603 
L 277.224406 -96.51933 
L 276.637262 -97.586057 
L 276.057152 -98.652784 
L 275.485566 -99.719511 
L 274.924155 -100.786238 
L 274.374729 -101.852965 
L 273.839238 -102.919692 
L 273.319758 -103.986419 
L 272.81846 -105.053146 
L 272.337578 -106.119873 
L 271.879381 -107.1866 
L 271.446121 -108.253327 
L 271.040001 -109.320054 
L 270.663123 -110.386781 
L 270.317449 -111.453508 
L 270.004752 -112.520235 
L 269.726582 -113.586963 
L 269.48422 -114.65369 
L 269.278651 -115.720417 
L 269.110537 -116.787144 
L 268.980197 -117.853871 
L 268.887591 -118.920598 
L 268.832322 -119.987325 
L 268.813636 -121.054052 
L 268.830435 -122.120779 
L 268.881295 -123.187506 
L 268.964496 -124.254233 
L 269.078052 -125.32096 
L 269.219749 -126.387687 
L 269.387192 -127.454414 
L 269.577841 -128.521141 
L 269.789066 -129.587868 
L 270.018188 -130.654595 
L 270.262525 -131.721322 
L 270.519434 -132.788049 
L 270.786349 -133.854776 
L 271.060814 -134.921503 
L 271.340512 -135.98823 
L 271.623283 -137.054958 
L 271.907144 -138.121685 
L 272.190295 -139.188412 
L 272.471121 -140.255139 
L 272.74819 -141.321866 
L 273.020244 -142.388593 
L 273.286185 -143.45532 
L 273.545062 -144.522047 
L 273.796048 -145.588774 
L 274.038425 -146.655501 
L 274.271561 -147.722228 
L 274.494893 -148.788955 
L 274.707912 -149.855682 
L 274.91015 -150.922409 
L 275.101166 -151.989136 
L 275.280549 -153.055863 
L 275.447912 -154.12259 
L 275.602901 -155.189317 
L 275.745202 -156.256044 
L 275.874558 -157.322771 
L 275.990786 -158.389498 
L 276.093798 -159.456226 
L 276.183628 -160.522953 
L 276.260454 -161.58968 
L 276.324626 -162.656407 
L 276.376691 -163.723134 
L 276.417412 -164.789861 
L 276.44779 -165.856588 
L 276.46908 -166.923315 
L 276.482795 -167.990042 
L 276.490714 -169.056769 
L 276.494875 -170.123496 
L 276.497564 -171.190223 
L 276.501297 -172.25695 
L 276.508793 -173.323677 
L 276.522941 -174.390404 
L 276.546761 -175.457131 
L 276.583354 -176.523858 
L 276.635856 -177.590585 
L 276.707383 -178.657312 
L 276.800971 -179.724039 
L 276.91952 -180.790766 
L 277.06574 -181.857493 
L 277.242091 -182.924221 
L 277.450734 -183.990948 
L 277.69348 -185.057675 
L 277.971755 -186.124402 
L 278.286561 -187.191129 
L 278.638452 -188.257856 
L 279.027516 -189.324583 
L 319.472484 -189.324583 
L 319.472484 -189.324583 
L 319.861548 -188.257856 
L 320.213439 -187.191129 
L 320.528245 -186.124402 
L 320.80652 -185.057675 
L 321.049266 -183.990948 
L 321.257909 -182.924221 
L 321.43426 -181.857493 
L 321.58048 -180.790766 
L 321.699029 -179.724039 
L 321.792617 -178.657312 
L 321.864144 -177.590585 
L 321.916646 -176.523858 
L 321.953239 -175.457131 
L 321.977059 -174.390404 
L 321.991207 -173.323677 
L 321.998703 -172.25695 
L 322.002436 -171.190223 
L 322.005125 -170.123496 
L 322.009286 -169.056769 
L 322.017205 -167.990042 
L 322.03092 -166.923315 
L 322.05221 -165.856588 
L 322.082588 -164.789861 
L 322.123309 -163.723134 
L 322.175374 -162.656407 
L 322.239546 -161.58968 
L 322.316372 -160.522953 
L 322.406202 -159.456226 
L 322.509214 -158.389498 
L 322.625442 -157.322771 
L 322.754798 -156.256044 
L 322.897099 -155.189317 
L 323.052088 -154.12259 
L 323.219451 -153.055863 
L 323.398834 -151.989136 
L 323.58985 -150.922409 
L 323.792088 -149.855682 
L 324.005107 -148.788955 
L 324.228439 -147.722228 
L 324.461575 -146.655501 
L 324.703952 -145.588774 
L 324.954938 -144.522047 
L 325.213815 -143.45532 
L 325.479756 -142.388593 
L 325.75181 -141.321866 
L 326.028879 -140.255139 
L 326.309705 -139.188412 
L 326.592856 -138.121685 
L 326.876717 -137.054958 
L 327.159488 -135.98823 
L 327.439186 -134.921503 
L 327.713651 -133.854776 
L 327.980566 -132.788049 
L 328.237475 -131.721322 
L 328.481812 -130.654595 
L 328.710934 -129.587868 
L 328.922159 -128.521141 
L 329.112808 -127.454414 
L 329.280251 -126.387687 
L 329.421948 -125.32096 
L 329.535504 -124.254233 
L 329.618705 -123.187506 
L 329.669565 -122.120779 
L 329.686364 -121.054052 
L 329.667678 -119.987325 
L 329.612409 -118.920598 
L 329.519803 -117.853871 
L 329.389463 -116.787144 
L 329.221349 -115.720417 
L 329.01578 -114.65369 
L 328.773418 -113.586963 
L 328.495248 -112.520235 
L 328.182551 -111.453508 
L 327.836877 -110.386781 
L 327.459999 -109.320054 
L 327.053879 -108.253327 
L 326.620619 -107.1866 
L 326.162422 -106.119873 
L 325.68154 -105.053146 
L 325.180242 -103.986419 
L 324.660762 -102.919692 
L 324.125271 -101.852965 
L 323.575845 -100.786238 
L 323.014434 -99.719511 
L 322.442848 -98.652784 
L 321.862738 -97.586057 
L 321.275594 -96.51933 
L 320.682738 -95.452603 
L 320.085334 -94.385876 
L 319.484393 -93.319149 
L 318.880789 -92.252422 
L 318.275278 -91.185695 
L 317.668516 -90.118968 
L 317.061084 -89.05224 
L 316.45351 -87.985513 
L 315.846293 -86.918786 
L 315.239924 -85.852059 
L 314.634908 -84.785332 
L 314.031784 -83.718605 
z
" id="m4e49bc97f1" style="stroke:#4c4c4c;stroke-width:1.5;"/>
    </defs>
    <g clip-path="url(#p0c66c5f3a1)">
     <use style="fill:#cc8963;stroke:#4c4c4c;stroke-width:1.5;" x="0" xlink:href="#m4e49bc97f1" y="432"/>
    </g>
   </g>
   <g id="PolyCollection_3">
    <defs>
     <path d="M 446.515527 -68.825455 
L 430.984473 -68.825455 
L 430.667697 -69.974238 
L 430.340471 -71.12302 
L 430.000084 -72.271803 
L 429.643674 -73.420586 
L 429.268318 -74.569369 
L 428.871121 -75.718152 
L 428.449322 -76.866935 
L 428.000393 -78.015718 
L 427.522142 -79.164501 
L 427.012816 -80.313284 
L 426.471188 -81.462067 
L 425.89664 -82.61085 
L 425.289226 -83.759633 
L 424.64973 -84.908416 
L 423.97969 -86.057199 
L 423.281411 -87.205982 
L 422.557958 -88.354765 
L 421.813123 -89.503548 
L 421.051373 -90.652331 
L 420.277782 -91.801114 
L 419.497938 -92.949897 
L 418.717847 -94.09868 
L 417.943812 -95.247463 
L 417.182317 -96.396246 
L 416.439893 -97.545029 
L 415.722992 -98.693812 
L 415.037864 -99.842595 
L 414.390426 -100.991378 
L 413.786163 -102.140161 
L 413.230012 -103.288944 
L 412.726288 -104.437727 
L 412.278596 -105.58651 
L 411.889787 -106.735293 
L 411.561905 -107.884076 
L 411.29617 -109.032859 
L 411.092962 -110.181642 
L 410.951834 -111.330425 
L 410.871525 -112.479208 
L 410.85 -113.62799 
L 410.884491 -114.776773 
L 410.971554 -115.925556 
L 411.107137 -117.074339 
L 411.286651 -118.223122 
L 411.505052 -119.371905 
L 411.756931 -120.520688 
L 412.036605 -121.669471 
L 412.338215 -122.818254 
L 412.655828 -123.967037 
L 412.983541 -125.11582 
L 413.315588 -126.264603 
L 413.646442 -127.413386 
L 413.970922 -128.562169 
L 414.284293 -129.710952 
L 414.582358 -130.859735 
L 414.861548 -132.008518 
L 415.118997 -133.157301 
L 415.352603 -134.306084 
L 415.561078 -135.454867 
L 415.743976 -136.60365 
L 415.901707 -137.752433 
L 416.03552 -138.901216 
L 416.147473 -140.049999 
L 416.24038 -141.198782 
L 416.317731 -142.347565 
L 416.383597 -143.496348 
L 416.442519 -144.645131 
L 416.499372 -145.793914 
L 416.559235 -146.942697 
L 416.627239 -148.09148 
L 416.708422 -149.240263 
L 416.807585 -150.389046 
L 416.929159 -151.537829 
L 417.077079 -152.686612 
L 417.254681 -153.835395 
L 417.464618 -154.984178 
L 417.7088 -156.13296 
L 417.988358 -157.281743 
L 418.303634 -158.430526 
L 418.654202 -159.579309 
L 419.038905 -160.728092 
L 419.455923 -161.876875 
L 419.902852 -163.025658 
L 420.376804 -164.174441 
L 420.874515 -165.323224 
L 421.392459 -166.472007 
L 421.926964 -167.62079 
L 422.474323 -168.769573 
L 423.030897 -169.918356 
L 423.593212 -171.067139 
L 424.158034 -172.215922 
L 424.722433 -173.364705 
L 425.283827 -174.513488 
L 425.840009 -175.662271 
L 426.389154 -176.811054 
L 426.929816 -177.959837 
L 427.460901 -179.10862 
L 427.981635 -180.257403 
L 428.49152 -181.406186 
L 428.990285 -182.554969 
L 448.509715 -182.554969 
L 448.509715 -182.554969 
L 449.00848 -181.406186 
L 449.518365 -180.257403 
L 450.039099 -179.10862 
L 450.570184 -177.959837 
L 451.110846 -176.811054 
L 451.659991 -175.662271 
L 452.216173 -174.513488 
L 452.777567 -173.364705 
L 453.341966 -172.215922 
L 453.906788 -171.067139 
L 454.469103 -169.918356 
L 455.025677 -168.769573 
L 455.573036 -167.62079 
L 456.107541 -166.472007 
L 456.625485 -165.323224 
L 457.123196 -164.174441 
L 457.597148 -163.025658 
L 458.044077 -161.876875 
L 458.461095 -160.728092 
L 458.845798 -159.579309 
L 459.196366 -158.430526 
L 459.511642 -157.281743 
L 459.7912 -156.13296 
L 460.035382 -154.984178 
L 460.245319 -153.835395 
L 460.422921 -152.686612 
L 460.570841 -151.537829 
L 460.692415 -150.389046 
L 460.791578 -149.240263 
L 460.872761 -148.09148 
L 460.940765 -146.942697 
L 461.000628 -145.793914 
L 461.057481 -144.645131 
L 461.116403 -143.496348 
L 461.182269 -142.347565 
L 461.25962 -141.198782 
L 461.352527 -140.049999 
L 461.46448 -138.901216 
L 461.598293 -137.752433 
L 461.756024 -136.60365 
L 461.938922 -135.454867 
L 462.147397 -134.306084 
L 462.381003 -133.157301 
L 462.638452 -132.008518 
L 462.917642 -130.859735 
L 463.215707 -129.710952 
L 463.529078 -128.562169 
L 463.853558 -127.413386 
L 464.184412 -126.264603 
L 464.516459 -125.11582 
L 464.844172 -123.967037 
L 465.161785 -122.818254 
L 465.463395 -121.669471 
L 465.743069 -120.520688 
L 465.994948 -119.371905 
L 466.213349 -118.223122 
L 466.392863 -117.074339 
L 466.528446 -115.925556 
L 466.615509 -114.776773 
L 466.65 -113.62799 
L 466.628475 -112.479208 
L 466.548166 -111.330425 
L 466.407038 -110.181642 
L 466.20383 -109.032859 
L 465.938095 -107.884076 
L 465.610213 -106.735293 
L 465.221404 -105.58651 
L 464.773712 -104.437727 
L 464.269988 -103.288944 
L 463.713837 -102.140161 
L 463.109574 -100.991378 
L 462.462136 -99.842595 
L 461.777008 -98.693812 
L 461.060107 -97.545029 
L 460.317683 -96.396246 
L 459.556188 -95.247463 
L 458.782153 -94.09868 
L 458.002062 -92.949897 
L 457.222218 -91.801114 
L 456.448627 -90.652331 
L 455.686877 -89.503548 
L 454.942042 -88.354765 
L 454.218589 -87.205982 
L 453.52031 -86.057199 
L 452.85027 -84.908416 
L 452.210774 -83.759633 
L 451.60336 -82.61085 
L 451.028812 -81.462067 
L 450.487184 -80.313284 
L 449.977858 -79.164501 
L 449.499607 -78.015718 
L 449.050678 -76.866935 
L 448.628879 -75.718152 
L 448.231682 -74.569369 
L 447.856326 -73.420586 
L 447.499916 -72.271803 
L 447.159529 -71.12302 
L 446.832303 -69.974238 
L 446.515527 -68.825455 
z
" id="m8e8666c5c4" style="stroke:#4c4c4c;stroke-width:1.5;"/>
    </defs>
    <g clip-path="url(#p0c66c5f3a1)">
     <use style="fill:#5f9e6e;stroke:#4c4c4c;stroke-width:1.5;" x="0" xlink:href="#m8e8666c5c4" y="432"/>
    </g>
   </g>
   <g id="PolyCollection_4">
    <defs>
     <path d="M 605.795289 -81.01076 
L 550.704711 -81.01076 
L 548.898128 -83.882717 
L 547.081302 -86.754675 
L 545.263854 -89.626632 
L 543.455538 -92.498589 
L 541.666144 -95.370547 
L 539.905409 -98.242504 
L 538.182933 -101.114462 
L 536.50812 -103.986419 
L 534.890113 -106.858377 
L 533.33776 -109.730334 
L 531.859574 -112.602291 
L 530.46371 -115.474249 
L 529.157947 -118.346206 
L 527.949665 -121.218164 
L 526.845832 -124.090121 
L 525.852978 -126.962079 
L 524.977171 -129.834036 
L 524.223973 -132.705993 
L 523.5984 -135.577951 
L 523.104861 -138.449908 
L 522.747093 -141.321866 
L 522.528085 -144.193823 
L 522.45 -147.065781 
L 522.514088 -149.937738 
L 522.720605 -152.809695 
L 523.068735 -155.681653 
L 523.556523 -158.55361 
L 524.180818 -161.425568 
L 524.937242 -164.297525 
L 525.820169 -167.169483 
L 526.822738 -170.04144 
L 527.936892 -172.913397 
L 529.153434 -175.785355 
L 530.462123 -178.657312 
L 531.851789 -181.52927 
L 533.310474 -184.401227 
L 534.82559 -187.273185 
L 536.384105 -190.145142 
L 537.972723 -193.0171 
L 539.578093 -195.889057 
L 541.187003 -198.761014 
L 542.786581 -201.632972 
L 544.364484 -204.504929 
L 545.90908 -207.376887 
L 547.409604 -210.248844 
L 548.856308 -213.120802 
L 550.240573 -215.992759 
L 551.555009 -218.864716 
L 552.793524 -221.736674 
L 553.951366 -224.608631 
L 555.025139 -227.480589 
L 556.012797 -230.352546 
L 556.913612 -233.224504 
L 557.728117 -236.096461 
L 558.458035 -238.968418 
L 559.106187 -241.840376 
L 559.676386 -244.712333 
L 560.173315 -247.584291 
L 560.602406 -250.456248 
L 560.9697 -253.328206 
L 561.281708 -256.200163 
L 561.545275 -259.07212 
L 561.767435 -261.944078 
L 561.955278 -264.816035 
L 562.115817 -267.687993 
L 562.255866 -270.55995 
L 562.381926 -273.431908 
L 562.50008 -276.303865 
L 562.615909 -279.175822 
L 562.734412 -282.04778 
L 562.859953 -284.919737 
L 562.996215 -287.791695 
L 563.146179 -290.663652 
L 563.312119 -293.53561 
L 563.495611 -296.407567 
L 563.697561 -299.279525 
L 563.918253 -302.151482 
L 564.157405 -305.023439 
L 564.414237 -307.895397 
L 564.687554 -310.767354 
L 564.975831 -313.639312 
L 565.277305 -316.511269 
L 565.590059 -319.383227 
L 565.912118 -322.255184 
L 566.241523 -325.127141 
L 566.57641 -327.999099 
L 566.915071 -330.871056 
L 567.255999 -333.743014 
L 567.597929 -336.614971 
L 567.939855 -339.486929 
L 568.281036 -342.358886 
L 568.620988 -345.230843 
L 568.95946 -348.102801 
L 569.296403 -350.974758 
L 569.631925 -353.846716 
L 569.966248 -356.718673 
L 570.299651 -359.590631 
L 570.632419 -362.462588 
L 570.964796 -365.334545 
L 585.535204 -365.334545 
L 585.535204 -365.334545 
L 585.867581 -362.462588 
L 586.200349 -359.590631 
L 586.533752 -356.718673 
L 586.868075 -353.846716 
L 587.203597 -350.974758 
L 587.54054 -348.102801 
L 587.879012 -345.230843 
L 588.218964 -342.358886 
L 588.560145 -339.486929 
L 588.902071 -336.614971 
L 589.244001 -333.743014 
L 589.584929 -330.871056 
L 589.92359 -327.999099 
L 590.258477 -325.127141 
L 590.587882 -322.255184 
L 590.909941 -319.383227 
L 591.222695 -316.511269 
L 591.524169 -313.639312 
L 591.812446 -310.767354 
L 592.085763 -307.895397 
L 592.342595 -305.023439 
L 592.581747 -302.151482 
L 592.802439 -299.279525 
L 593.004389 -296.407567 
L 593.187881 -293.53561 
L 593.353821 -290.663652 
L 593.503785 -287.791695 
L 593.640047 -284.919737 
L 593.765588 -282.04778 
L 593.884091 -279.175822 
L 593.99992 -276.303865 
L 594.118074 -273.431908 
L 594.244134 -270.55995 
L 594.384183 -267.687993 
L 594.544722 -264.816035 
L 594.732565 -261.944078 
L 594.954725 -259.07212 
L 595.218292 -256.200163 
L 595.5303 -253.328206 
L 595.897594 -250.456248 
L 596.326685 -247.584291 
L 596.823614 -244.712333 
L 597.393813 -241.840376 
L 598.041965 -238.968418 
L 598.771883 -236.096461 
L 599.586388 -233.224504 
L 600.487203 -230.352546 
L 601.474861 -227.480589 
L 602.548634 -224.608631 
L 603.706476 -221.736674 
L 604.944991 -218.864716 
L 606.259427 -215.992759 
L 607.643692 -213.120802 
L 609.090396 -210.248844 
L 610.59092 -207.376887 
L 612.135516 -204.504929 
L 613.713419 -201.632972 
L 615.312997 -198.761014 
L 616.921907 -195.889057 
L 618.527277 -193.0171 
L 620.115895 -190.145142 
L 621.67441 -187.273185 
L 623.189526 -184.401227 
L 624.648211 -181.52927 
L 626.037877 -178.657312 
L 627.346566 -175.785355 
L 628.563108 -172.913397 
L 629.677262 -170.04144 
L 630.679831 -167.169483 
L 631.562758 -164.297525 
L 632.319182 -161.425568 
L 632.943477 -158.55361 
L 633.431265 -155.681653 
L 633.779395 -152.809695 
L 633.985912 -149.937738 
L 634.05 -147.065781 
L 633.971915 -144.193823 
L 633.752907 -141.321866 
L 633.395139 -138.449908 
L 632.9016 -135.577951 
L 632.276027 -132.705993 
L 631.522829 -129.834036 
L 630.647022 -126.962079 
L 629.654168 -124.090121 
L 628.550335 -121.218164 
L 627.342053 -118.346206 
L 626.03629 -115.474249 
L 624.640426 -112.602291 
L 623.16224 -109.730334 
L 621.609887 -106.858377 
L 619.99188 -103.986419 
L 618.317067 -101.114462 
L 616.594591 -98.242504 
L 614.833856 -95.370547 
L 613.044462 -92.498589 
L 611.236146 -89.626632 
L 609.418698 -86.754675 
L 607.601872 -83.882717 
L 605.795289 -81.01076 
z
" id="m4be5eb789d" style="stroke:#4c4c4c;stroke-width:1.5;"/>
    </defs>
    <g clip-path="url(#p0c66c5f3a1)">
     <use style="fill:#b55d60;stroke:#4c4c4c;stroke-width:1.5;" x="0" xlink:href="#m4be5eb789d" y="432"/>
    </g>
   </g>
   <g id="line2d_6">
    <path clip-path="url(#p0c66c5f3a1)" d="M 155.407533 344.662021 
L 164.092467 344.662021 
" style="fill:none;stroke:#4c4c4c;stroke-dasharray:3.375,3.375;stroke-dashoffset:0;stroke-width:1.5;"/>
   </g>
   <g id="line2d_7">
    <path clip-path="url(#p0c66c5f3a1)" d="M 156.12661 338.647557 
L 163.37339 338.647557 
" style="fill:none;stroke:#4c4c4c;stroke-dasharray:6.75,6.75;stroke-dashoffset:0;stroke-width:1.5;"/>
   </g>
   <g id="line2d_8">
    <path clip-path="url(#p0c66c5f3a1)" d="M 155.407533 332.633094 
L 164.092467 332.633094 
" style="fill:none;stroke:#4c4c4c;stroke-dasharray:3.375,3.375;stroke-dashoffset:0;stroke-width:1.5;"/>
   </g>
   <g id="line2d_9">
    <path clip-path="url(#p0c66c5f3a1)" d="M 269.578364 316.125729 
L 328.921636 316.125729 
" style="fill:none;stroke:#4c4c4c;stroke-dasharray:3.375,3.375;stroke-dashoffset:0;stroke-width:1.5;"/>
   </g>
   <g id="line2d_10">
    <path clip-path="url(#p0c66c5f3a1)" d="M 271.619606 296.29076 
L 326.880394 296.29076 
" style="fill:none;stroke:#4c4c4c;stroke-dasharray:6.75,6.75;stroke-dashoffset:0;stroke-width:1.5;"/>
   </g>
   <g id="line2d_11">
    <path clip-path="url(#p0c66c5f3a1)" d="M 276.696889 264.671585 
L 321.803111 264.671585 
" style="fill:none;stroke:#4c4c4c;stroke-dasharray:3.375,3.375;stroke-dashoffset:0;stroke-width:1.5;"/>
   </g>
   <g id="line2d_12">
    <path clip-path="url(#p0c66c5f3a1)" d="M 412.986525 327.295592 
L 464.513475 327.295592 
" style="fill:none;stroke:#4c4c4c;stroke-dasharray:3.375,3.375;stroke-dashoffset:0;stroke-width:1.5;"/>
   </g>
   <g id="line2d_13">
    <path clip-path="url(#p0c66c5f3a1)" d="M 412.916769 307.663711 
L 464.583231 307.663711 
" style="fill:none;stroke:#4c4c4c;stroke-dasharray:6.75,6.75;stroke-dashoffset:0;stroke-width:1.5;"/>
   </g>
   <g id="line2d_14">
    <path clip-path="url(#p0c66c5f3a1)" d="M 417.677472 277.200448 
L 459.822528 277.200448 
" style="fill:none;stroke:#4c4c4c;stroke-dasharray:3.375,3.375;stroke-dashoffset:0;stroke-width:1.5;"/>
   </g>
   <g id="line2d_15">
    <path clip-path="url(#p0c66c5f3a1)" d="M 525.509899 302.07878 
L 630.990101 302.07878 
" style="fill:none;stroke:#4c4c4c;stroke-dasharray:3.375,3.375;stroke-dashoffset:0;stroke-width:1.5;"/>
   </g>
   <g id="line2d_16">
    <path clip-path="url(#p0c66c5f3a1)" d="M 524.72151 271.959413 
L 631.77849 271.959413 
" style="fill:none;stroke:#4c4c4c;stroke-dasharray:6.75,6.75;stroke-dashoffset:0;stroke-width:1.5;"/>
   </g>
   <g id="line2d_17">
    <path clip-path="url(#p0c66c5f3a1)" d="M 541.557633 233.536438 
L 614.942367 233.536438 
" style="fill:none;stroke:#4c4c4c;stroke-dasharray:3.375,3.375;stroke-dashoffset:0;stroke-width:1.5;"/>
   </g>
   <g id="patch_3">
    <path d="M 90 378 
L 90 51.84 
" style="fill:none;stroke:#ffffff;stroke-linecap:square;stroke-linejoin:miter;stroke-width:1.25;"/>
   </g>
   <g id="patch_4">
    <path d="M 648 378 
L 648 51.84 
" style="fill:none;stroke:#ffffff;stroke-linecap:square;stroke-linejoin:miter;stroke-width:1.25;"/>
   </g>
   <g id="patch_5">
    <path d="M 90 378 
L 648 378 
" style="fill:none;stroke:#ffffff;stroke-linecap:square;stroke-linejoin:miter;stroke-width:1.25;"/>
   </g>
   <g id="patch_6">
    <path d="M 90 51.84 
L 648 51.84 
" style="fill:none;stroke:#ffffff;stroke-linecap:square;stroke-linejoin:miter;stroke-width:1.25;"/>
   </g>
   <g id="text_12">
    <!-- Compensation by Employer Ownership -->
    <defs>
     <path d="M 14.703125 0 
L 6.546875 0 
L 6.546875 71.578125 
L 15.328125 71.578125 
L 15.328125 46.046875 
Q 20.90625 53.03125 29.546875 53.03125 
Q 34.328125 53.03125 38.59375 51.09375 
Q 42.875 49.171875 45.625 45.671875 
Q 48.390625 42.1875 49.953125 37.25 
Q 51.515625 32.328125 51.515625 26.703125 
Q 51.515625 13.375 44.921875 6.09375 
Q 38.328125 -1.171875 29.109375 -1.171875 
Q 19.921875 -1.171875 14.703125 6.5 
z
M 14.59375 26.3125 
Q 14.59375 17 17.140625 12.84375 
Q 21.296875 6.0625 28.375 6.0625 
Q 34.125 6.0625 38.328125 11.0625 
Q 42.53125 16.0625 42.53125 25.984375 
Q 42.53125 36.140625 38.5 40.96875 
Q 34.46875 45.796875 28.765625 45.796875 
Q 23 45.796875 18.796875 40.796875 
Q 14.59375 35.796875 14.59375 26.3125 
z
" id="ArialMT-98"/>
     <path d="M 6.203125 -19.96875 
L 5.21875 -11.71875 
Q 8.109375 -12.5 10.25 -12.5 
Q 13.1875 -12.5 14.9375 -11.515625 
Q 16.703125 -10.546875 17.828125 -8.796875 
Q 18.65625 -7.46875 20.515625 -2.25 
Q 20.75 -1.515625 21.296875 -0.09375 
L 1.609375 51.859375 
L 11.078125 51.859375 
L 21.875 21.828125 
Q 23.96875 16.109375 25.640625 9.8125 
Q 27.15625 15.875 29.25 21.625 
L 40.328125 51.859375 
L 49.125 51.859375 
L 29.390625 -0.875 
Q 26.21875 -9.421875 24.46875 -12.640625 
Q 22.125 -17 19.09375 -19.015625 
Q 16.0625 -21.046875 11.859375 -21.046875 
Q 9.328125 -21.046875 6.203125 -19.96875 
z
" id="ArialMT-121"/>
     <path d="M 7.90625 0 
L 7.90625 71.578125 
L 59.671875 71.578125 
L 59.671875 63.140625 
L 17.390625 63.140625 
L 17.390625 41.21875 
L 56.984375 41.21875 
L 56.984375 32.8125 
L 17.390625 32.8125 
L 17.390625 8.453125 
L 61.328125 8.453125 
L 61.328125 0 
z
" id="ArialMT-69"/>
     <path d="M 6.390625 0 
L 6.390625 71.578125 
L 15.1875 71.578125 
L 15.1875 0 
z
" id="ArialMT-108"/>
    </defs>
    <g style="fill:#262626;" transform="translate(264.958125 45.84)scale(0.12 -0.12)">
     <use xlink:href="#ArialMT-67"/>
     <use x="72.216797" xlink:href="#ArialMT-111"/>
     <use x="127.832031" xlink:href="#ArialMT-109"/>
     <use x="211.132812" xlink:href="#ArialMT-112"/>
     <use x="266.748047" xlink:href="#ArialMT-101"/>
     <use x="322.363281" xlink:href="#ArialMT-110"/>
     <use x="377.978516" xlink:href="#ArialMT-115"/>
     <use x="427.978516" xlink:href="#ArialMT-97"/>
     <use x="483.59375" xlink:href="#ArialMT-116"/>
     <use x="511.376953" xlink:href="#ArialMT-105"/>
     <use x="533.59375" xlink:href="#ArialMT-111"/>
     <use x="589.208984" xlink:href="#ArialMT-110"/>
     <use x="644.824219" xlink:href="#ArialMT-32"/>
     <use x="672.607422" xlink:href="#ArialMT-98"/>
     <use x="728.222656" xlink:href="#ArialMT-121"/>
     <use x="778.222656" xlink:href="#ArialMT-32"/>
     <use x="806.005859" xlink:href="#ArialMT-69"/>
     <use x="872.705078" xlink:href="#ArialMT-109"/>
     <use x="956.005859" xlink:href="#ArialMT-112"/>
     <use x="1011.621094" xlink:href="#ArialMT-108"/>
     <use x="1033.837891" xlink:href="#ArialMT-111"/>
     <use x="1089.453125" xlink:href="#ArialMT-121"/>
     <use x="1139.453125" xlink:href="#ArialMT-101"/>
     <use x="1195.068359" xlink:href="#ArialMT-114"/>
     <use x="1228.369141" xlink:href="#ArialMT-32"/>
     <use x="1256.152344" xlink:href="#ArialMT-79"/>
     <use x="1333.935547" xlink:href="#ArialMT-119"/>
     <use x="1406.152344" xlink:href="#ArialMT-110"/>
     <use x="1461.767578" xlink:href="#ArialMT-101"/>
     <use x="1517.382812" xlink:href="#ArialMT-114"/>
     <use x="1550.683594" xlink:href="#ArialMT-115"/>
     <use x="1600.683594" xlink:href="#ArialMT-104"/>
     <use x="1656.298828" xlink:href="#ArialMT-105"/>
     <use x="1678.515625" xlink:href="#ArialMT-112"/>
    </g>
   </g>
  </g>
 </g>
 <defs>
  <clipPath id="p0c66c5f3a1">
   <rect height="326.16" width="558" x="90" y="51.84"/>
  </clipPath>
 </defs>
</svg>
