<?xml version="1.0" encoding="utf-8" standalone="no"?>
<!DOCTYPE svg PUBLIC "-//W3C//DTD SVG 1.1//EN"
  "http://www.w3.org/Graphics/SVG/1.1/DTD/svg11.dtd">
<!-- Created with matplotlib (https://matplotlib.org/) -->
<svg height="432pt" version="1.1" viewBox="0 0 720 432" width="720pt" xmlns="http://www.w3.org/2000/svg" xmlns:xlink="http://www.w3.org/1999/xlink">
 <defs>
  <style type="text/css">
*{stroke-linecap:butt;stroke-linejoin:round;white-space:pre;}
  </style>
 </defs>
 <g id="figure_1">
  <g id="patch_1">
   <path d="M 0 432 
L 720 432 
L 720 0 
L 0 0 
z
" style="fill:#ffffff;"/>
  </g>
  <g id="axes_1">
   <g id="patch_2">
    <path d="M 90 378 
L 648 378 
L 648 51.84 
L 90 51.84 
z
" style="fill:#eaeaf2;"/>
   </g>
   <g id="matplotlib.axis_1">
    <g id="xtick_1">
     <g id="text_1">
      <!-- No -->
      <defs>
       <path d="M 7.625 0 
L 7.625 71.578125 
L 17.328125 71.578125 
L 54.9375 15.375 
L 54.9375 71.578125 
L 64.015625 71.578125 
L 64.015625 0 
L 54.296875 0 
L 16.703125 56.25 
L 16.703125 0 
z
" id="ArialMT-78"/>
       <path d="M 3.328125 25.921875 
Q 3.328125 40.328125 11.328125 47.265625 
Q 18.015625 53.03125 27.640625 53.03125 
Q 38.328125 53.03125 45.109375 46.015625 
Q 51.90625 39.015625 51.90625 26.65625 
Q 51.90625 16.65625 48.90625 10.90625 
Q 45.90625 5.171875 40.15625 2 
Q 34.421875 -1.171875 27.640625 -1.171875 
Q 16.75 -1.171875 10.03125 5.8125 
Q 3.328125 12.796875 3.328125 25.921875 
z
M 12.359375 25.921875 
Q 12.359375 15.96875 16.703125 11.015625 
Q 21.046875 6.0625 27.640625 6.0625 
Q 34.1875 6.0625 38.53125 11.03125 
Q 42.875 16.015625 42.875 26.21875 
Q 42.875 35.84375 38.5 40.796875 
Q 34.125 45.75 27.640625 45.75 
Q 21.046875 45.75 16.703125 40.8125 
Q 12.359375 35.890625 12.359375 25.921875 
z
" id="ArialMT-111"/>
      </defs>
      <g style="fill:#262626;" transform="translate(222.469453 395.373594)scale(0.11 -0.11)">
       <use xlink:href="#ArialMT-78"/>
       <use x="72.216797" xlink:href="#ArialMT-111"/>
      </g>
     </g>
    </g>
    <g id="xtick_2">
     <g id="text_2">
      <!-- Yes -->
      <defs>
       <path d="M 27.875 0 
L 27.875 30.328125 
L 0.296875 71.578125 
L 11.8125 71.578125 
L 25.921875 50 
Q 29.828125 43.953125 33.203125 37.890625 
Q 36.421875 43.5 41.015625 50.53125 
L 54.890625 71.578125 
L 65.921875 71.578125 
L 37.359375 30.328125 
L 37.359375 0 
z
" id="ArialMT-89"/>
       <path d="M 42.09375 16.703125 
L 51.171875 15.578125 
Q 49.03125 7.625 43.21875 3.21875 
Q 37.40625 -1.171875 28.375 -1.171875 
Q 17 -1.171875 10.328125 5.828125 
Q 3.65625 12.84375 3.65625 25.484375 
Q 3.65625 38.578125 10.390625 45.796875 
Q 17.140625 53.03125 27.875 53.03125 
Q 38.28125 53.03125 44.875 45.953125 
Q 51.46875 38.875 51.46875 26.03125 
Q 51.46875 25.25 51.421875 23.6875 
L 12.75 23.6875 
Q 13.234375 15.140625 17.578125 10.59375 
Q 21.921875 6.0625 28.421875 6.0625 
Q 33.25 6.0625 36.671875 8.59375 
Q 40.09375 11.140625 42.09375 16.703125 
z
M 13.234375 30.90625 
L 42.1875 30.90625 
Q 41.609375 37.453125 38.875 40.71875 
Q 34.671875 45.796875 27.984375 45.796875 
Q 21.921875 45.796875 17.796875 41.75 
Q 13.671875 37.703125 13.234375 30.90625 
z
" id="ArialMT-101"/>
       <path d="M 3.078125 15.484375 
L 11.765625 16.84375 
Q 12.5 11.625 15.84375 8.84375 
Q 19.1875 6.0625 25.203125 6.0625 
Q 31.25 6.0625 34.171875 8.515625 
Q 37.109375 10.984375 37.109375 14.3125 
Q 37.109375 17.28125 34.515625 19 
Q 32.71875 20.171875 25.53125 21.96875 
Q 15.875 24.421875 12.140625 26.203125 
Q 8.40625 27.984375 6.46875 31.125 
Q 4.546875 34.28125 4.546875 38.09375 
Q 4.546875 41.546875 6.125 44.5 
Q 7.71875 47.46875 10.453125 49.421875 
Q 12.5 50.921875 16.03125 51.96875 
Q 19.578125 53.03125 23.640625 53.03125 
Q 29.734375 53.03125 34.34375 51.265625 
Q 38.96875 49.515625 41.15625 46.5 
Q 43.359375 43.5 44.1875 38.484375 
L 35.59375 37.3125 
Q 35.015625 41.3125 32.203125 43.546875 
Q 29.390625 45.796875 24.265625 45.796875 
Q 18.21875 45.796875 15.625 43.796875 
Q 13.03125 41.796875 13.03125 39.109375 
Q 13.03125 37.40625 14.109375 36.03125 
Q 15.1875 34.625 17.484375 33.6875 
Q 18.796875 33.203125 25.25 31.453125 
Q 34.578125 28.953125 38.25 27.359375 
Q 41.9375 25.78125 44.03125 22.75 
Q 46.140625 19.734375 46.140625 15.234375 
Q 46.140625 10.84375 43.578125 6.953125 
Q 41.015625 3.078125 36.171875 0.953125 
Q 31.34375 -1.171875 25.25 -1.171875 
Q 15.140625 -1.171875 9.84375 3.03125 
Q 4.546875 7.234375 3.078125 15.484375 
z
" id="ArialMT-115"/>
      </defs>
      <g style="fill:#262626;" transform="translate(499.030547 395.373594)scale(0.11 -0.11)">
       <use xlink:href="#ArialMT-89"/>
       <use x="66.558594" xlink:href="#ArialMT-101"/>
       <use x="122.173828" xlink:href="#ArialMT-115"/>
      </g>
     </g>
    </g>
    <g id="text_3">
     <!-- Job is Remote -->
     <defs>
      <path d="M 2.875 20.3125 
L 11.421875 21.484375 
Q 11.765625 13.28125 14.5 10.25 
Q 17.234375 7.234375 22.078125 7.234375 
Q 25.640625 7.234375 28.21875 8.859375 
Q 30.8125 10.5 31.78125 13.296875 
Q 32.765625 16.109375 32.765625 22.265625 
L 32.765625 71.578125 
L 42.234375 71.578125 
L 42.234375 22.796875 
Q 42.234375 13.8125 40.0625 8.875 
Q 37.890625 3.953125 33.171875 1.359375 
Q 28.46875 -1.21875 22.125 -1.21875 
Q 12.703125 -1.21875 7.6875 4.203125 
Q 2.6875 9.625 2.875 20.3125 
z
" id="ArialMT-74"/>
      <path d="M 14.703125 0 
L 6.546875 0 
L 6.546875 71.578125 
L 15.328125 71.578125 
L 15.328125 46.046875 
Q 20.90625 53.03125 29.546875 53.03125 
Q 34.328125 53.03125 38.59375 51.09375 
Q 42.875 49.171875 45.625 45.671875 
Q 48.390625 42.1875 49.953125 37.25 
Q 51.515625 32.328125 51.515625 26.703125 
Q 51.515625 13.375 44.921875 6.09375 
Q 38.328125 -1.171875 29.109375 -1.171875 
Q 19.921875 -1.171875 14.703125 6.5 
z
M 14.59375 26.3125 
Q 14.59375 17 17.140625 12.84375 
Q 21.296875 6.0625 28.375 6.0625 
Q 34.125 6.0625 38.328125 11.0625 
Q 42.53125 16.0625 42.53125 25.984375 
Q 42.53125 36.140625 38.5 40.96875 
Q 34.46875 45.796875 28.765625 45.796875 
Q 23 45.796875 18.796875 40.796875 
Q 14.59375 35.796875 14.59375 26.3125 
z
" id="ArialMT-98"/>
      <path id="ArialMT-32"/>
      <path d="M 6.640625 61.46875 
L 6.640625 71.578125 
L 15.4375 71.578125 
L 15.4375 61.46875 
z
M 6.640625 0 
L 6.640625 51.859375 
L 15.4375 51.859375 
L 15.4375 0 
z
" id="ArialMT-105"/>
      <path d="M 7.859375 0 
L 7.859375 71.578125 
L 39.59375 71.578125 
Q 49.171875 71.578125 54.140625 69.640625 
Q 59.125 67.71875 62.109375 62.828125 
Q 65.09375 57.953125 65.09375 52.046875 
Q 65.09375 44.4375 60.15625 39.203125 
Q 55.21875 33.984375 44.921875 32.5625 
Q 48.6875 30.765625 50.640625 29 
Q 54.78125 25.203125 58.5 19.484375 
L 70.953125 0 
L 59.03125 0 
L 49.5625 14.890625 
Q 45.40625 21.34375 42.71875 24.75 
Q 40.046875 28.171875 37.921875 29.53125 
Q 35.796875 30.90625 33.59375 31.453125 
Q 31.984375 31.78125 28.328125 31.78125 
L 17.328125 31.78125 
L 17.328125 0 
z
M 17.328125 39.984375 
L 37.703125 39.984375 
Q 44.1875 39.984375 47.84375 41.328125 
Q 51.515625 42.671875 53.421875 45.625 
Q 55.328125 48.578125 55.328125 52.046875 
Q 55.328125 57.125 51.640625 60.390625 
Q 47.953125 63.671875 39.984375 63.671875 
L 17.328125 63.671875 
z
" id="ArialMT-82"/>
      <path d="M 6.59375 0 
L 6.59375 51.859375 
L 14.453125 51.859375 
L 14.453125 44.578125 
Q 16.890625 48.390625 20.9375 50.703125 
Q 25 53.03125 30.171875 53.03125 
Q 35.9375 53.03125 39.625 50.640625 
Q 43.3125 48.25 44.828125 43.953125 
Q 50.984375 53.03125 60.84375 53.03125 
Q 68.5625 53.03125 72.703125 48.75 
Q 76.859375 44.484375 76.859375 35.59375 
L 76.859375 0 
L 68.109375 0 
L 68.109375 32.671875 
Q 68.109375 37.9375 67.25 40.25 
Q 66.40625 42.578125 64.15625 43.984375 
Q 61.921875 45.40625 58.890625 45.40625 
Q 53.421875 45.40625 49.796875 41.765625 
Q 46.1875 38.140625 46.1875 30.125 
L 46.1875 0 
L 37.40625 0 
L 37.40625 33.6875 
Q 37.40625 39.546875 35.25 42.46875 
Q 33.109375 45.40625 28.21875 45.40625 
Q 24.515625 45.40625 21.359375 43.453125 
Q 18.21875 41.5 16.796875 37.734375 
Q 15.375 33.984375 15.375 26.90625 
L 15.375 0 
z
" id="ArialMT-109"/>
      <path d="M 25.78125 7.859375 
L 27.046875 0.09375 
Q 23.34375 -0.6875 20.40625 -0.6875 
Q 15.625 -0.6875 12.984375 0.828125 
Q 10.359375 2.34375 9.28125 4.8125 
Q 8.203125 7.28125 8.203125 15.1875 
L 8.203125 45.015625 
L 1.765625 45.015625 
L 1.765625 51.859375 
L 8.203125 51.859375 
L 8.203125 64.703125 
L 16.9375 69.96875 
L 16.9375 51.859375 
L 25.78125 51.859375 
L 25.78125 45.015625 
L 16.9375 45.015625 
L 16.9375 14.703125 
Q 16.9375 10.9375 17.40625 9.859375 
Q 17.875 8.796875 18.921875 8.15625 
Q 19.96875 7.515625 21.921875 7.515625 
Q 23.390625 7.515625 25.78125 7.859375 
z
" id="ArialMT-116"/>
     </defs>
     <g style="fill:#262626;" transform="translate(330.6525 410.149219)scale(0.12 -0.12)">
      <use xlink:href="#ArialMT-74"/>
      <use x="50" xlink:href="#ArialMT-111"/>
      <use x="105.615234" xlink:href="#ArialMT-98"/>
      <use x="161.230469" xlink:href="#ArialMT-32"/>
      <use x="189.013672" xlink:href="#ArialMT-105"/>
      <use x="211.230469" xlink:href="#ArialMT-115"/>
      <use x="261.230469" xlink:href="#ArialMT-32"/>
      <use x="289.013672" xlink:href="#ArialMT-82"/>
      <use x="361.230469" xlink:href="#ArialMT-101"/>
      <use x="416.845703" xlink:href="#ArialMT-109"/>
      <use x="500.146484" xlink:href="#ArialMT-111"/>
      <use x="555.761719" xlink:href="#ArialMT-116"/>
      <use x="583.544922" xlink:href="#ArialMT-101"/>
     </g>
    </g>
   </g>
   <g id="matplotlib.axis_2">
    <g id="ytick_1">
     <g id="line2d_1">
      <path clip-path="url(#pca4e089de9)" d="M 90 364.528468 
L 648 364.528468 
" style="fill:none;stroke:#ffffff;stroke-linecap:round;"/>
     </g>
     <g id="text_4">
      <!-- 50 -->
      <defs>
       <path d="M 4.15625 18.75 
L 13.375 19.53125 
Q 14.40625 12.796875 18.140625 9.390625 
Q 21.875 6 27.15625 6 
Q 33.5 6 37.890625 10.78125 
Q 42.28125 15.578125 42.28125 23.484375 
Q 42.28125 31 38.0625 35.34375 
Q 33.84375 39.703125 27 39.703125 
Q 22.75 39.703125 19.328125 37.765625 
Q 15.921875 35.84375 13.96875 32.765625 
L 5.71875 33.84375 
L 12.640625 70.609375 
L 48.25 70.609375 
L 48.25 62.203125 
L 19.671875 62.203125 
L 15.828125 42.96875 
Q 22.265625 47.46875 29.34375 47.46875 
Q 38.71875 47.46875 45.15625 40.96875 
Q 51.609375 34.46875 51.609375 24.265625 
Q 51.609375 14.546875 45.953125 7.46875 
Q 39.0625 -1.21875 27.15625 -1.21875 
Q 17.390625 -1.21875 11.203125 4.25 
Q 5.03125 9.71875 4.15625 18.75 
z
" id="ArialMT-53"/>
       <path d="M 4.15625 35.296875 
Q 4.15625 48 6.765625 55.734375 
Q 9.375 63.484375 14.515625 67.671875 
Q 19.671875 71.875 27.484375 71.875 
Q 33.25 71.875 37.59375 69.546875 
Q 41.9375 67.234375 44.765625 62.859375 
Q 47.609375 58.5 49.21875 52.21875 
Q 50.828125 45.953125 50.828125 35.296875 
Q 50.828125 22.703125 48.234375 14.96875 
Q 45.65625 7.234375 40.5 3 
Q 35.359375 -1.21875 27.484375 -1.21875 
Q 17.140625 -1.21875 11.234375 6.203125 
Q 4.15625 15.140625 4.15625 35.296875 
z
M 13.1875 35.296875 
Q 13.1875 17.671875 17.3125 11.828125 
Q 21.4375 6 27.484375 6 
Q 33.546875 6 37.671875 11.859375 
Q 41.796875 17.71875 41.796875 35.296875 
Q 41.796875 52.984375 37.671875 58.78125 
Q 33.546875 64.59375 27.390625 64.59375 
Q 21.34375 64.59375 17.71875 59.46875 
Q 13.1875 52.9375 13.1875 35.296875 
z
" id="ArialMT-48"/>
      </defs>
      <g style="fill:#262626;" transform="translate(68.265938 368.465265)scale(0.11 -0.11)">
       <use xlink:href="#ArialMT-53"/>
       <use x="55.615234" xlink:href="#ArialMT-48"/>
      </g>
     </g>
    </g>
    <g id="ytick_2">
     <g id="line2d_2">
      <path clip-path="url(#pca4e089de9)" d="M 90 296.832329 
L 648 296.832329 
" style="fill:none;stroke:#ffffff;stroke-linecap:round;"/>
     </g>
     <g id="text_5">
      <!-- 100 -->
      <defs>
       <path d="M 37.25 0 
L 28.46875 0 
L 28.46875 56 
Q 25.296875 52.984375 20.140625 49.953125 
Q 14.984375 46.921875 10.890625 45.40625 
L 10.890625 53.90625 
Q 18.265625 57.375 23.78125 62.296875 
Q 29.296875 67.234375 31.59375 71.875 
L 37.25 71.875 
z
" id="ArialMT-49"/>
      </defs>
      <g style="fill:#262626;" transform="translate(62.148906 300.769126)scale(0.11 -0.11)">
       <use xlink:href="#ArialMT-49"/>
       <use x="55.615234" xlink:href="#ArialMT-48"/>
       <use x="111.230469" xlink:href="#ArialMT-48"/>
      </g>
     </g>
    </g>
    <g id="ytick_3">
     <g id="line2d_3">
      <path clip-path="url(#pca4e089de9)" d="M 90 229.136189 
L 648 229.136189 
" style="fill:none;stroke:#ffffff;stroke-linecap:round;"/>
     </g>
     <g id="text_6">
      <!-- 150 -->
      <g style="fill:#262626;" transform="translate(62.148906 233.072986)scale(0.11 -0.11)">
       <use xlink:href="#ArialMT-49"/>
       <use x="55.615234" xlink:href="#ArialMT-53"/>
       <use x="111.230469" xlink:href="#ArialMT-48"/>
      </g>
     </g>
    </g>
    <g id="ytick_4">
     <g id="line2d_4">
      <path clip-path="url(#pca4e089de9)" d="M 90 161.44005 
L 648 161.44005 
" style="fill:none;stroke:#ffffff;stroke-linecap:round;"/>
     </g>
     <g id="text_7">
      <!-- 200 -->
      <defs>
       <path d="M 50.34375 8.453125 
L 50.34375 0 
L 3.03125 0 
Q 2.9375 3.171875 4.046875 6.109375 
Q 5.859375 10.9375 9.828125 15.625 
Q 13.8125 20.3125 21.34375 26.46875 
Q 33.015625 36.03125 37.109375 41.625 
Q 41.21875 47.21875 41.21875 52.203125 
Q 41.21875 57.421875 37.46875 61 
Q 33.734375 64.59375 27.734375 64.59375 
Q 21.390625 64.59375 17.578125 60.78125 
Q 13.765625 56.984375 13.71875 50.25 
L 4.6875 51.171875 
Q 5.609375 61.28125 11.65625 66.578125 
Q 17.71875 71.875 27.9375 71.875 
Q 38.234375 71.875 44.234375 66.15625 
Q 50.25 60.453125 50.25 52 
Q 50.25 47.703125 48.484375 43.546875 
Q 46.734375 39.40625 42.65625 34.8125 
Q 38.578125 30.21875 29.109375 22.21875 
Q 21.1875 15.578125 18.9375 13.203125 
Q 16.703125 10.84375 15.234375 8.453125 
z
" id="ArialMT-50"/>
      </defs>
      <g style="fill:#262626;" transform="translate(62.148906 165.376847)scale(0.11 -0.11)">
       <use xlink:href="#ArialMT-50"/>
       <use x="55.615234" xlink:href="#ArialMT-48"/>
       <use x="111.230469" xlink:href="#ArialMT-48"/>
      </g>
     </g>
    </g>
    <g id="ytick_5">
     <g id="line2d_5">
      <path clip-path="url(#pca4e089de9)" d="M 90 93.74391 
L 648 93.74391 
" style="fill:none;stroke:#ffffff;stroke-linecap:round;"/>
     </g>
     <g id="text_8">
      <!-- 250 -->
      <g style="fill:#262626;" transform="translate(62.148906 97.680707)scale(0.11 -0.11)">
       <use xlink:href="#ArialMT-50"/>
       <use x="55.615234" xlink:href="#ArialMT-53"/>
       <use x="111.230469" xlink:href="#ArialMT-48"/>
      </g>
     </g>
    </g>
    <g id="text_9">
     <!-- Compensation ($1000s) -->
     <defs>
      <path d="M 58.796875 25.09375 
L 68.265625 22.703125 
Q 65.28125 11.03125 57.546875 4.90625 
Q 49.8125 -1.21875 38.625 -1.21875 
Q 27.046875 -1.21875 19.796875 3.484375 
Q 12.546875 8.203125 8.765625 17.140625 
Q 4.984375 26.078125 4.984375 36.328125 
Q 4.984375 47.515625 9.25 55.828125 
Q 13.53125 64.15625 21.40625 68.46875 
Q 29.296875 72.796875 38.765625 72.796875 
Q 49.515625 72.796875 56.828125 67.328125 
Q 64.15625 61.859375 67.046875 51.953125 
L 57.71875 49.75 
Q 55.21875 57.5625 50.484375 61.125 
Q 45.75 64.703125 38.578125 64.703125 
Q 30.328125 64.703125 24.78125 60.734375 
Q 19.234375 56.78125 16.984375 50.109375 
Q 14.75 43.453125 14.75 36.375 
Q 14.75 27.25 17.40625 20.4375 
Q 20.0625 13.625 25.671875 10.25 
Q 31.296875 6.890625 37.84375 6.890625 
Q 45.796875 6.890625 51.3125 11.46875 
Q 56.84375 16.0625 58.796875 25.09375 
z
" id="ArialMT-67"/>
      <path d="M 6.59375 -19.875 
L 6.59375 51.859375 
L 14.59375 51.859375 
L 14.59375 45.125 
Q 17.4375 49.078125 21 51.046875 
Q 24.5625 53.03125 29.640625 53.03125 
Q 36.28125 53.03125 41.359375 49.609375 
Q 46.4375 46.1875 49.015625 39.953125 
Q 51.609375 33.734375 51.609375 26.3125 
Q 51.609375 18.359375 48.75 11.984375 
Q 45.90625 5.609375 40.453125 2.21875 
Q 35.015625 -1.171875 29 -1.171875 
Q 24.609375 -1.171875 21.109375 0.6875 
Q 17.625 2.546875 15.375 5.375 
L 15.375 -19.875 
z
M 14.546875 25.640625 
Q 14.546875 15.625 18.59375 10.84375 
Q 22.65625 6.0625 28.421875 6.0625 
Q 34.28125 6.0625 38.453125 11.015625 
Q 42.625 15.96875 42.625 26.375 
Q 42.625 36.28125 38.546875 41.203125 
Q 34.46875 46.140625 28.8125 46.140625 
Q 23.1875 46.140625 18.859375 40.890625 
Q 14.546875 35.640625 14.546875 25.640625 
z
" id="ArialMT-112"/>
      <path d="M 6.59375 0 
L 6.59375 51.859375 
L 14.5 51.859375 
L 14.5 44.484375 
Q 20.21875 53.03125 31 53.03125 
Q 35.6875 53.03125 39.625 51.34375 
Q 43.5625 49.65625 45.515625 46.921875 
Q 47.46875 44.1875 48.25 40.4375 
Q 48.734375 37.984375 48.734375 31.890625 
L 48.734375 0 
L 39.9375 0 
L 39.9375 31.546875 
Q 39.9375 36.921875 38.90625 39.578125 
Q 37.890625 42.234375 35.28125 43.8125 
Q 32.671875 45.40625 29.15625 45.40625 
Q 23.53125 45.40625 19.453125 41.84375 
Q 15.375 38.28125 15.375 28.328125 
L 15.375 0 
z
" id="ArialMT-110"/>
      <path d="M 40.4375 6.390625 
Q 35.546875 2.25 31.03125 0.53125 
Q 26.515625 -1.171875 21.34375 -1.171875 
Q 12.796875 -1.171875 8.203125 3 
Q 3.609375 7.171875 3.609375 13.671875 
Q 3.609375 17.484375 5.34375 20.625 
Q 7.078125 23.78125 9.890625 25.6875 
Q 12.703125 27.59375 16.21875 28.5625 
Q 18.796875 29.25 24.03125 29.890625 
Q 34.671875 31.15625 39.703125 32.90625 
Q 39.75 34.71875 39.75 35.203125 
Q 39.75 40.578125 37.25 42.78125 
Q 33.890625 45.75 27.25 45.75 
Q 21.046875 45.75 18.09375 43.578125 
Q 15.140625 41.40625 13.71875 35.890625 
L 5.125 37.0625 
Q 6.296875 42.578125 8.984375 45.96875 
Q 11.671875 49.359375 16.75 51.1875 
Q 21.828125 53.03125 28.515625 53.03125 
Q 35.15625 53.03125 39.296875 51.46875 
Q 43.453125 49.90625 45.40625 47.53125 
Q 47.359375 45.171875 48.140625 41.546875 
Q 48.578125 39.3125 48.578125 33.453125 
L 48.578125 21.734375 
Q 48.578125 9.46875 49.140625 6.21875 
Q 49.703125 2.984375 51.375 0 
L 42.1875 0 
Q 40.828125 2.734375 40.4375 6.390625 
z
M 39.703125 26.03125 
Q 34.90625 24.078125 25.34375 22.703125 
Q 19.921875 21.921875 17.671875 20.9375 
Q 15.4375 19.96875 14.203125 18.09375 
Q 12.984375 16.21875 12.984375 13.921875 
Q 12.984375 10.40625 15.640625 8.0625 
Q 18.3125 5.71875 23.4375 5.71875 
Q 28.515625 5.71875 32.46875 7.9375 
Q 36.421875 10.15625 38.28125 14.015625 
Q 39.703125 17 39.703125 22.796875 
z
" id="ArialMT-97"/>
      <path d="M 23.390625 -21.046875 
Q 16.109375 -11.859375 11.078125 0.4375 
Q 6.0625 12.75 6.0625 25.921875 
Q 6.0625 37.546875 9.8125 48.1875 
Q 14.203125 60.546875 23.390625 72.796875 
L 29.6875 72.796875 
Q 23.78125 62.640625 21.875 58.296875 
Q 18.890625 51.5625 17.1875 44.234375 
Q 15.09375 35.109375 15.09375 25.875 
Q 15.09375 2.390625 29.6875 -21.046875 
z
" id="ArialMT-40"/>
      <path d="M 24.90625 -10.296875 
L 24.90625 -1.515625 
Q 18.3125 -0.6875 14.1875 1.4375 
Q 10.0625 3.5625 7.046875 8.296875 
Q 4.046875 13.03125 3.5625 19.875 
L 12.40625 21.53125 
Q 13.421875 14.453125 16.015625 11.140625 
Q 19.734375 6.453125 24.90625 5.90625 
L 24.90625 33.890625 
Q 19.484375 34.90625 13.8125 38.09375 
Q 9.625 40.4375 7.34375 44.578125 
Q 5.078125 48.734375 5.078125 54 
Q 5.078125 63.375 11.71875 69.1875 
Q 16.15625 73.09375 24.90625 73.96875 
L 24.90625 78.171875 
L 30.078125 78.171875 
L 30.078125 73.96875 
Q 37.75 73.25 42.234375 69.484375 
Q 48 64.703125 49.171875 56.34375 
L 40.09375 54.984375 
Q 39.3125 60.15625 36.84375 62.90625 
Q 34.375 65.671875 30.078125 66.546875 
L 30.078125 41.21875 
Q 36.71875 39.546875 38.875 38.625 
Q 42.96875 36.8125 45.546875 34.21875 
Q 48.140625 31.640625 49.53125 28.078125 
Q 50.921875 24.515625 50.921875 20.359375 
Q 50.921875 11.234375 45.109375 5.125 
Q 39.3125 -0.984375 30.078125 -1.421875 
L 30.078125 -10.296875 
z
M 24.90625 66.65625 
Q 19.78125 65.875 16.828125 62.546875 
Q 13.875 59.234375 13.875 54.6875 
Q 13.875 50.203125 16.375 47.171875 
Q 18.890625 44.140625 24.90625 42.328125 
z
M 30.078125 5.90625 
Q 35.203125 6.546875 38.546875 10.34375 
Q 41.890625 14.15625 41.890625 19.78125 
Q 41.890625 24.5625 39.515625 27.46875 
Q 37.15625 30.375 30.078125 32.671875 
z
" id="ArialMT-36"/>
      <path d="M 12.359375 -21.046875 
L 6.0625 -21.046875 
Q 20.65625 2.390625 20.65625 25.875 
Q 20.65625 35.0625 18.5625 44.09375 
Q 16.890625 51.421875 13.921875 58.15625 
Q 12.015625 62.546875 6.0625 72.796875 
L 12.359375 72.796875 
Q 21.53125 60.546875 25.921875 48.1875 
Q 29.6875 37.546875 29.6875 25.921875 
Q 29.6875 12.75 24.625 0.4375 
Q 19.578125 -11.859375 12.359375 -21.046875 
z
" id="ArialMT-41"/>
     </defs>
     <g style="fill:#262626;" transform="translate(55.623281 278.952187)rotate(-90)scale(0.12 -0.12)">
      <use xlink:href="#ArialMT-67"/>
      <use x="72.216797" xlink:href="#ArialMT-111"/>
      <use x="127.832031" xlink:href="#ArialMT-109"/>
      <use x="211.132812" xlink:href="#ArialMT-112"/>
      <use x="266.748047" xlink:href="#ArialMT-101"/>
      <use x="322.363281" xlink:href="#ArialMT-110"/>
      <use x="377.978516" xlink:href="#ArialMT-115"/>
      <use x="427.978516" xlink:href="#ArialMT-97"/>
      <use x="483.59375" xlink:href="#ArialMT-116"/>
      <use x="511.376953" xlink:href="#ArialMT-105"/>
      <use x="533.59375" xlink:href="#ArialMT-111"/>
      <use x="589.208984" xlink:href="#ArialMT-110"/>
      <use x="644.824219" xlink:href="#ArialMT-32"/>
      <use x="672.607422" xlink:href="#ArialMT-40"/>
      <use x="705.908203" xlink:href="#ArialMT-36"/>
      <use x="761.523438" xlink:href="#ArialMT-49"/>
      <use x="817.138672" xlink:href="#ArialMT-48"/>
      <use x="872.753906" xlink:href="#ArialMT-48"/>
      <use x="928.369141" xlink:href="#ArialMT-48"/>
      <use x="983.984375" xlink:href="#ArialMT-115"/>
      <use x="1033.984375" xlink:href="#ArialMT-41"/>
     </g>
    </g>
   </g>
   <g id="PolyCollection_1">
    <defs>
     <path d="M 256.221593 -68.825455 
L 202.778407 -68.825455 
L 199.9091 -70.404211 
L 196.883434 -71.982967 
L 193.708494 -73.561723 
L 190.392715 -75.140479 
L 186.945907 -76.719235 
L 183.379329 -78.297991 
L 179.705797 -79.876747 
L 175.939829 -81.455503 
L 172.097811 -83.034259 
L 168.198154 -84.613015 
L 164.261438 -86.191771 
L 160.310482 -87.770527 
L 156.370345 -89.349283 
L 152.468216 -90.928039 
L 148.633169 -92.506795 
L 144.895798 -94.085551 
L 141.287709 -95.664307 
L 137.840902 -97.243063 
L 134.587047 -98.821819 
L 131.556714 -100.400575 
L 128.778565 -101.979331 
L 126.278572 -103.558087 
L 124.079296 -105.136843 
L 122.199248 -106.715599 
L 120.652385 -108.294355 
L 119.447739 -109.873111 
L 118.589196 -111.451867 
L 118.075434 -113.030623 
L 117.9 -114.609379 
L 118.051523 -116.188135 
L 118.514053 -117.766891 
L 119.267495 -119.345647 
L 120.28815 -120.924403 
L 121.549326 -122.50316 
L 123.022027 -124.081916 
L 124.675702 -125.660672 
L 126.479047 -127.239428 
L 128.400849 -128.818184 
L 130.410844 -130.39694 
L 132.48058 -131.975696 
L 134.584239 -133.554452 
L 136.699398 -135.133208 
L 138.807665 -136.711964 
L 140.895181 -138.29072 
L 142.952922 -139.869476 
L 144.976788 -141.448232 
L 146.967452 -143.026988 
L 148.92997 -144.605744 
L 150.873158 -146.1845 
L 152.808776 -147.763256 
L 154.750544 -149.342012 
L 156.713075 -150.920768 
L 158.710767 -152.499524 
L 160.75674 -154.07828 
L 162.861884 -155.657036 
L 165.03407 -157.235792 
L 167.277587 -158.814548 
L 169.592821 -160.393304 
L 171.976197 -161.97206 
L 174.420378 -163.550816 
L 176.91468 -165.129572 
L 179.445679 -166.708328 
L 181.997946 -168.287084 
L 184.554848 -169.86584 
L 187.099354 -171.444596 
L 189.614796 -173.023352 
L 192.085522 -174.602108 
L 194.497411 -176.180864 
L 196.838232 -177.759621 
L 199.097829 -179.338377 
L 201.268142 -180.917133 
L 203.343096 -182.495889 
L 205.318374 -184.074645 
L 207.191113 -185.653401 
L 208.959573 -187.232157 
L 210.622807 -188.810913 
L 212.180369 -190.389669 
L 213.632092 -191.968425 
L 214.977943 -193.547181 
L 216.217978 -195.125937 
L 217.352373 -196.704693 
L 218.381551 -198.283449 
L 219.306347 -199.862205 
L 220.128229 -201.440961 
L 220.849514 -203.019717 
L 221.473569 -204.598473 
L 222.004972 -206.177229 
L 222.449605 -207.755985 
L 222.814671 -209.334741 
L 223.108625 -210.913497 
L 223.341013 -212.492253 
L 223.522234 -214.071009 
L 223.663236 -215.649765 
L 223.775159 -217.228521 
L 223.868952 -218.807277 
L 223.954992 -220.386033 
L 224.042719 -221.964789 
L 224.140322 -223.543545 
L 224.254481 -225.122301 
L 234.745519 -225.122301 
L 234.745519 -225.122301 
L 234.859678 -223.543545 
L 234.957281 -221.964789 
L 235.045008 -220.386033 
L 235.131048 -218.807277 
L 235.224841 -217.228521 
L 235.336764 -215.649765 
L 235.477766 -214.071009 
L 235.658987 -212.492253 
L 235.891375 -210.913497 
L 236.185329 -209.334741 
L 236.550395 -207.755985 
L 236.995028 -206.177229 
L 237.526431 -204.598473 
L 238.150486 -203.019717 
L 238.871771 -201.440961 
L 239.693653 -199.862205 
L 240.618449 -198.283449 
L 241.647627 -196.704693 
L 242.782022 -195.125937 
L 244.022057 -193.547181 
L 245.367908 -191.968425 
L 246.819631 -190.389669 
L 248.377193 -188.810913 
L 250.040427 -187.232157 
L 251.808887 -185.653401 
L 253.681626 -184.074645 
L 255.656904 -182.495889 
L 257.731858 -180.917133 
L 259.902171 -179.338377 
L 262.161768 -177.759621 
L 264.502589 -176.180864 
L 266.914478 -174.602108 
L 269.385204 -173.023352 
L 271.900646 -171.444596 
L 274.445152 -169.86584 
L 277.002054 -168.287084 
L 279.554321 -166.708328 
L 282.08532 -165.129572 
L 284.579622 -163.550816 
L 287.023803 -161.97206 
L 289.407179 -160.393304 
L 291.722413 -158.814548 
L 293.96593 -157.235792 
L 296.138116 -155.657036 
L 298.24326 -154.07828 
L 300.289233 -152.499524 
L 302.286925 -150.920768 
L 304.249456 -149.342012 
L 306.191224 -147.763256 
L 308.126842 -146.1845 
L 310.07003 -144.605744 
L 312.032548 -143.026988 
L 314.023212 -141.448232 
L 316.047078 -139.869476 
L 318.104819 -138.29072 
L 320.192335 -136.711964 
L 322.300602 -135.133208 
L 324.415761 -133.554452 
L 326.51942 -131.975696 
L 328.589156 -130.39694 
L 330.599151 -128.818184 
L 332.520953 -127.239428 
L 334.324298 -125.660672 
L 335.977973 -124.081916 
L 337.450674 -122.50316 
L 338.71185 -120.924403 
L 339.732505 -119.345647 
L 340.485947 -117.766891 
L 340.948477 -116.188135 
L 341.1 -114.609379 
L 340.924566 -113.030623 
L 340.410804 -111.451867 
L 339.552261 -109.873111 
L 338.347615 -108.294355 
L 336.800752 -106.715599 
L 334.920704 -105.136843 
L 332.721428 -103.558087 
L 330.221435 -101.979331 
L 327.443286 -100.400575 
L 324.412953 -98.821819 
L 321.159098 -97.243063 
L 317.712291 -95.664307 
L 314.104202 -94.085551 
L 310.366831 -92.506795 
L 306.531784 -90.928039 
L 302.629655 -89.349283 
L 298.689518 -87.770527 
L 294.738562 -86.191771 
L 290.801846 -84.613015 
L 286.902189 -83.034259 
L 283.060171 -81.455503 
L 279.294203 -79.876747 
L 275.620671 -78.297991 
L 272.054093 -76.719235 
L 268.607285 -75.140479 
L 265.291506 -73.561723 
L 262.116566 -71.982967 
L 259.0909 -70.404211 
L 256.221593 -68.825455 
z
" id="m020a64a4ba" style="stroke:#4c4c4c;stroke-width:1.5;"/>
    </defs>
    <g clip-path="url(#pca4e089de9)">
     <use style="fill:#5875a4;stroke:#4c4c4c;stroke-width:1.5;" x="0" xlink:href="#m020a64a4ba" y="432"/>
    </g>
   </g>
   <g id="PolyCollection_2">
    <defs>
     <path d="M 524.440439 -116.212752 
L 492.559561 -116.212752 
L 490.888291 -118.729134 
L 489.110757 -121.245516 
L 487.2306 -123.761897 
L 485.253452 -126.278279 
L 483.187087 -128.794661 
L 481.041523 -131.311043 
L 478.829079 -133.827424 
L 476.564369 -136.343806 
L 474.264228 -138.860188 
L 471.947574 -141.37657 
L 469.635196 -143.892951 
L 467.349476 -146.409333 
L 465.114038 -148.925715 
L 462.953347 -151.442097 
L 460.892259 -153.958478 
L 458.955523 -156.47486 
L 457.167268 -158.991242 
L 455.550476 -161.507624 
L 454.126459 -164.024005 
L 452.914364 -166.540387 
L 451.930708 -169.056769 
L 451.188968 -171.573151 
L 450.699245 -174.089532 
L 450.468 -176.605914 
L 450.497877 -179.122296 
L 450.787629 -181.638678 
L 451.332138 -184.155059 
L 452.122531 -186.671441 
L 453.146394 -189.187823 
L 454.38807 -191.704205 
L 455.829037 -194.220586 
L 457.44834 -196.736968 
L 459.223081 -199.25335 
L 461.128933 -201.769732 
L 463.140666 -204.286113 
L 465.232675 -206.802495 
L 467.379483 -209.318877 
L 469.556215 -211.835259 
L 471.739023 -214.35164 
L 473.90546 -216.868022 
L 476.034792 -219.384404 
L 478.10825 -221.900786 
L 480.109212 -224.417167 
L 482.023333 -226.933549 
L 483.838611 -229.449931 
L 485.5454 -231.966313 
L 487.136386 -234.482694 
L 488.606512 -236.999076 
L 489.952881 -239.515458 
L 491.174627 -242.03184 
L 492.272769 -244.548221 
L 493.250043 -247.064603 
L 494.110731 -249.580985 
L 494.860472 -252.097367 
L 495.506072 -254.613748 
L 496.055309 -257.13013 
L 496.516736 -259.646512 
L 496.89948 -262.162894 
L 497.213047 -264.679275 
L 497.46713 -267.195657 
L 497.671422 -269.712039 
L 497.835437 -272.228421 
L 497.968344 -274.744802 
L 498.07882 -277.261184 
L 498.174908 -279.777566 
L 498.263905 -282.293948 
L 498.352267 -284.810329 
L 498.445536 -287.326711 
L 498.548291 -289.843093 
L 498.66412 -292.359475 
L 498.79562 -294.875856 
L 498.944418 -297.392238 
L 499.111207 -299.90862 
L 499.295814 -302.425002 
L 499.497275 -304.941383 
L 499.713935 -307.457765 
L 499.943558 -309.974147 
L 500.183449 -312.490529 
L 500.430584 -315.00691 
L 500.681749 -317.523292 
L 500.933678 -320.039674 
L 501.183189 -322.556056 
L 501.427317 -325.072437 
L 501.66343 -327.588819 
L 501.889337 -330.105201 
L 502.103372 -332.621583 
L 502.304455 -335.137964 
L 502.492131 -337.654346 
L 502.666575 -340.170728 
L 502.828572 -342.68711 
L 502.979466 -345.203491 
L 503.121088 -347.719873 
L 503.255653 -350.236255 
L 503.385646 -352.752637 
L 503.513696 -355.269018 
L 503.642438 -357.7854 
L 503.774387 -360.301782 
L 503.91181 -362.818164 
L 504.056621 -365.334545 
L 512.943379 -365.334545 
L 512.943379 -365.334545 
L 513.08819 -362.818164 
L 513.225613 -360.301782 
L 513.357562 -357.7854 
L 513.486304 -355.269018 
L 513.614354 -352.752637 
L 513.744347 -350.236255 
L 513.878912 -347.719873 
L 514.020534 -345.203491 
L 514.171428 -342.68711 
L 514.333425 -340.170728 
L 514.507869 -337.654346 
L 514.695545 -335.137964 
L 514.896628 -332.621583 
L 515.110663 -330.105201 
L 515.33657 -327.588819 
L 515.572683 -325.072437 
L 515.816811 -322.556056 
L 516.066322 -320.039674 
L 516.318251 -317.523292 
L 516.569416 -315.00691 
L 516.816551 -312.490529 
L 517.056442 -309.974147 
L 517.286065 -307.457765 
L 517.502725 -304.941383 
L 517.704186 -302.425002 
L 517.888793 -299.90862 
L 518.055582 -297.392238 
L 518.20438 -294.875856 
L 518.33588 -292.359475 
L 518.451709 -289.843093 
L 518.554464 -287.326711 
L 518.647733 -284.810329 
L 518.736095 -282.293948 
L 518.825092 -279.777566 
L 518.92118 -277.261184 
L 519.031656 -274.744802 
L 519.164563 -272.228421 
L 519.328578 -269.712039 
L 519.53287 -267.195657 
L 519.786953 -264.679275 
L 520.10052 -262.162894 
L 520.483264 -259.646512 
L 520.944691 -257.13013 
L 521.493928 -254.613748 
L 522.139528 -252.097367 
L 522.889269 -249.580985 
L 523.749957 -247.064603 
L 524.727231 -244.548221 
L 525.825373 -242.03184 
L 527.047119 -239.515458 
L 528.393488 -236.999076 
L 529.863614 -234.482694 
L 531.4546 -231.966313 
L 533.161389 -229.449931 
L 534.976667 -226.933549 
L 536.890788 -224.417167 
L 538.89175 -221.900786 
L 540.965208 -219.384404 
L 543.09454 -216.868022 
L 545.260977 -214.35164 
L 547.443785 -211.835259 
L 549.620517 -209.318877 
L 551.767325 -206.802495 
L 553.859334 -204.286113 
L 555.871067 -201.769732 
L 557.776919 -199.25335 
L 559.55166 -196.736968 
L 561.170963 -194.220586 
L 562.61193 -191.704205 
L 563.853606 -189.187823 
L 564.877469 -186.671441 
L 565.667862 -184.155059 
L 566.212371 -181.638678 
L 566.502123 -179.122296 
L 566.532 -176.605914 
L 566.300755 -174.089532 
L 565.811032 -171.573151 
L 565.069292 -169.056769 
L 564.085636 -166.540387 
L 562.873541 -164.024005 
L 561.449524 -161.507624 
L 559.832732 -158.991242 
L 558.044477 -156.47486 
L 556.107741 -153.958478 
L 554.046653 -151.442097 
L 551.885962 -148.925715 
L 549.650524 -146.409333 
L 547.364804 -143.892951 
L 545.052426 -141.37657 
L 542.735772 -138.860188 
L 540.435631 -136.343806 
L 538.170921 -133.827424 
L 535.958477 -131.311043 
L 533.812913 -128.794661 
L 531.746548 -126.278279 
L 529.7694 -123.761897 
L 527.889243 -121.245516 
L 526.111709 -118.729134 
L 524.440439 -116.212752 
z
" id="m7848e72f52" style="stroke:#4c4c4c;stroke-width:1.5;"/>
    </defs>
    <g clip-path="url(#pca4e089de9)">
     <use style="fill:#cc8963;stroke:#4c4c4c;stroke-width:1.5;" x="0" xlink:href="#m7848e72f52" y="432"/>
    </g>
   </g>
   <g id="line2d_6">
    <path clip-path="url(#pca4e089de9)" d="M 125.133503 327.549452 
L 333.866497 327.549452 
" style="fill:none;stroke:#4c4c4c;stroke-dasharray:3.375,3.375;stroke-dashoffset:0;stroke-width:1.5;"/>
   </g>
   <g id="line2d_7">
    <path clip-path="url(#pca4e089de9)" d="M 124.086807 308.679153 
L 334.913193 308.679153 
" style="fill:none;stroke:#4c4c4c;stroke-dasharray:6.75,6.75;stroke-dashoffset:0;stroke-width:1.5;"/>
   </g>
   <g id="line2d_8">
    <path clip-path="url(#pca4e089de9)" d="M 151.659427 286.373275 
L 307.340573 286.373275 
" style="fill:none;stroke:#4c4c4c;stroke-dasharray:3.375,3.375;stroke-dashoffset:0;stroke-width:1.5;"/>
   </g>
   <g id="line2d_9">
    <path clip-path="url(#pca4e089de9)" d="M 454.670195 268.056392 
L 562.329805 268.056392 
" style="fill:none;stroke:#4c4c4c;stroke-dasharray:3.375,3.375;stroke-dashoffset:0;stroke-width:1.5;"/>
   </g>
   <g id="line2d_10">
    <path clip-path="url(#pca4e089de9)" d="M 451.364753 249.445031 
L 565.635247 249.445031 
" style="fill:none;stroke:#4c4c4c;stroke-dasharray:6.75,6.75;stroke-dashoffset:0;stroke-width:1.5;"/>
   </g>
   <g id="line2d_11">
    <path clip-path="url(#pca4e089de9)" d="M 465.665348 224.058979 
L 551.334652 224.058979 
" style="fill:none;stroke:#4c4c4c;stroke-dasharray:3.375,3.375;stroke-dashoffset:0;stroke-width:1.5;"/>
   </g>
   <g id="patch_3">
    <path d="M 90 378 
L 90 51.84 
" style="fill:none;stroke:#ffffff;stroke-linecap:square;stroke-linejoin:miter;stroke-width:1.25;"/>
   </g>
   <g id="patch_4">
    <path d="M 648 378 
L 648 51.84 
" style="fill:none;stroke:#ffffff;stroke-linecap:square;stroke-linejoin:miter;stroke-width:1.25;"/>
   </g>
   <g id="patch_5">
    <path d="M 90 378 
L 648 378 
" style="fill:none;stroke:#ffffff;stroke-linecap:square;stroke-linejoin:miter;stroke-width:1.25;"/>
   </g>
   <g id="patch_6">
    <path d="M 90 51.84 
L 648 51.84 
" style="fill:none;stroke:#ffffff;stroke-linecap:square;stroke-linejoin:miter;stroke-width:1.25;"/>
   </g>
   <g id="text_10">
    <!-- Compensation by Local/Remote -->
    <defs>
     <path d="M 6.203125 -19.96875 
L 5.21875 -11.71875 
Q 8.109375 -12.5 10.25 -12.5 
Q 13.1875 -12.5 14.9375 -11.515625 
Q 16.703125 -10.546875 17.828125 -8.796875 
Q 18.65625 -7.46875 20.515625 -2.25 
Q 20.75 -1.515625 21.296875 -0.09375 
L 1.609375 51.859375 
L 11.078125 51.859375 
L 21.875 21.828125 
Q 23.96875 16.109375 25.640625 9.8125 
Q 27.15625 15.875 29.25 21.625 
L 40.328125 51.859375 
L 49.125 51.859375 
L 29.390625 -0.875 
Q 26.21875 -9.421875 24.46875 -12.640625 
Q 22.125 -17 19.09375 -19.015625 
Q 16.0625 -21.046875 11.859375 -21.046875 
Q 9.328125 -21.046875 6.203125 -19.96875 
z
" id="ArialMT-121"/>
     <path d="M 7.328125 0 
L 7.328125 71.578125 
L 16.796875 71.578125 
L 16.796875 8.453125 
L 52.046875 8.453125 
L 52.046875 0 
z
" id="ArialMT-76"/>
     <path d="M 40.4375 19 
L 49.078125 17.875 
Q 47.65625 8.9375 41.8125 3.875 
Q 35.984375 -1.171875 27.484375 -1.171875 
Q 16.84375 -1.171875 10.375 5.78125 
Q 3.90625 12.75 3.90625 25.734375 
Q 3.90625 34.125 6.6875 40.421875 
Q 9.46875 46.734375 15.15625 49.875 
Q 20.84375 53.03125 27.546875 53.03125 
Q 35.984375 53.03125 41.359375 48.75 
Q 46.734375 44.484375 48.25 36.625 
L 39.703125 35.296875 
Q 38.484375 40.53125 35.375 43.15625 
Q 32.28125 45.796875 27.875 45.796875 
Q 21.234375 45.796875 17.078125 41.03125 
Q 12.9375 36.28125 12.9375 25.984375 
Q 12.9375 15.53125 16.9375 10.796875 
Q 20.953125 6.0625 27.390625 6.0625 
Q 32.5625 6.0625 36.03125 9.234375 
Q 39.5 12.40625 40.4375 19 
z
" id="ArialMT-99"/>
     <path d="M 6.390625 0 
L 6.390625 71.578125 
L 15.1875 71.578125 
L 15.1875 0 
z
" id="ArialMT-108"/>
     <path d="M 0 -1.21875 
L 20.75 72.796875 
L 27.78125 72.796875 
L 7.078125 -1.21875 
z
" id="ArialMT-47"/>
    </defs>
    <g style="fill:#262626;" transform="translate(283.625625 45.84)scale(0.12 -0.12)">
     <use xlink:href="#ArialMT-67"/>
     <use x="72.216797" xlink:href="#ArialMT-111"/>
     <use x="127.832031" xlink:href="#ArialMT-109"/>
     <use x="211.132812" xlink:href="#ArialMT-112"/>
     <use x="266.748047" xlink:href="#ArialMT-101"/>
     <use x="322.363281" xlink:href="#ArialMT-110"/>
     <use x="377.978516" xlink:href="#ArialMT-115"/>
     <use x="427.978516" xlink:href="#ArialMT-97"/>
     <use x="483.59375" xlink:href="#ArialMT-116"/>
     <use x="511.376953" xlink:href="#ArialMT-105"/>
     <use x="533.59375" xlink:href="#ArialMT-111"/>
     <use x="589.208984" xlink:href="#ArialMT-110"/>
     <use x="644.824219" xlink:href="#ArialMT-32"/>
     <use x="672.607422" xlink:href="#ArialMT-98"/>
     <use x="728.222656" xlink:href="#ArialMT-121"/>
     <use x="778.222656" xlink:href="#ArialMT-32"/>
     <use x="806.005859" xlink:href="#ArialMT-76"/>
     <use x="861.621094" xlink:href="#ArialMT-111"/>
     <use x="917.236328" xlink:href="#ArialMT-99"/>
     <use x="967.236328" xlink:href="#ArialMT-97"/>
     <use x="1022.851562" xlink:href="#ArialMT-108"/>
     <use x="1045.068359" xlink:href="#ArialMT-47"/>
     <use x="1072.851562" xlink:href="#ArialMT-82"/>
     <use x="1145.068359" xlink:href="#ArialMT-101"/>
     <use x="1200.683594" xlink:href="#ArialMT-109"/>
     <use x="1283.984375" xlink:href="#ArialMT-111"/>
     <use x="1339.599609" xlink:href="#ArialMT-116"/>
     <use x="1367.382812" xlink:href="#ArialMT-101"/>
    </g>
   </g>
  </g>
 </g>
 <defs>
  <clipPath id="pca4e089de9">
   <rect height="326.16" width="558" x="90" y="51.84"/>
  </clipPath>
 </defs>
</svg>
