<?xml version="1.0" encoding="utf-8" standalone="no"?>
<!DOCTYPE svg PUBLIC "-//W3C//DTD SVG 1.1//EN"
  "http://www.w3.org/Graphics/SVG/1.1/DTD/svg11.dtd">
<!-- Created with matplotlib (https://matplotlib.org/) -->
<svg height="288pt" version="1.1" viewBox="0 0 432 288" width="432pt" xmlns="http://www.w3.org/2000/svg" xmlns:xlink="http://www.w3.org/1999/xlink">
 <metadata>
  <rdf:RDF xmlns:cc="http://creativecommons.org/ns#" xmlns:dc="http://purl.org/dc/elements/1.1/" xmlns:rdf="http://www.w3.org/1999/02/22-rdf-syntax-ns#">
   <cc:Work>
    <dc:type rdf:resource="http://purl.org/dc/dcmitype/StillImage"/>
    <dc:date>2020-11-20T23:12:53.954152</dc:date>
    <dc:format>image/svg+xml</dc:format>
    <dc:creator>
     <cc:Agent>
      <dc:title>Matplotlib v3.3.2, https://matplotlib.org/</dc:title>
     </cc:Agent>
    </dc:creator>
   </cc:Work>
  </rdf:RDF>
 </metadata>
 <defs>
  <style type="text/css">*{stroke-linecap:butt;stroke-linejoin:round;}</style>
 </defs>
 <g id="figure_1">
  <g id="patch_1">
   <path d="M 0 288 
L 432 288 
L 432 0 
L 0 0 
z
" style="fill:none;"/>
  </g>
  <g id="axes_1">
   <g id="patch_2">
    <path d="M 159.374213 218.341736 
C 170.775544 227.908589 184.215617 234.741882 198.66316 238.317287 
C 213.110704 241.892693 228.186493 242.116364 242.733746 238.971137 
C 257.281 235.825909 270.917876 229.394342 282.598002 220.169935 
C 294.278128 210.945527 303.69492 199.170407 310.125818 185.74809 
C 316.556716 172.325773 319.832918 157.608574 319.703039 142.725759 
C 319.573159 127.842945 316.040607 113.185165 309.376439 99.877126 
C 302.712271 86.569087 293.09141 74.960104 281.252076 65.940946 
C 269.412742 56.921789 255.665697 50.729195 241.065768 47.83833 
L 222.108903 143.577444 
L 159.374213 218.341736 
z
" style="fill:#1f77b4;"/>
   </g>
   <g id="patch_3">
    <path d="M 241.065768 47.83833 
C 223.921323 44.443636 206.175683 45.715658 189.690699 51.520935 
C 173.205715 57.326213 158.578808 67.454361 147.344616 80.842747 
C 136.110424 94.231133 128.676078 110.394557 125.82158 127.637172 
C 122.967082 144.879788 124.79588 162.576716 131.116099 178.871218 
L 222.108903 143.577444 
L 241.065768 47.83833 
z
" style="fill:#ff7f0e;"/>
   </g>
   <g id="patch_4">
    <path d="M 131.116099 178.871218 
C 133.335313 184.592693 136.089223 190.092126 139.341225 195.296419 
C 142.593228 200.500712 146.32885 205.386703 150.498438 209.889449 
L 222.108903 143.577444 
L 131.116099 178.871218 
z
" style="fill:#2ca02c;"/>
   </g>
   <g id="patch_5">
    <path d="M 150.498438 209.889449 
C 151.887387 211.389379 153.32312 212.845299 154.80351 214.255056 
C 156.2839 215.664813 157.808217 217.02771 159.374206 218.34173 
L 222.108903 143.577444 
L 150.498438 209.889449 
z
" style="fill:#d62728;"/>
   </g>
   <g id="matplotlib.axis_1"/>
   <g id="matplotlib.axis_2"/>
   <g id="text_1">
    <!-- Rochester Suburbs -->
    <g transform="translate(314.526664 190.615997)scale(0.1 -0.1)">
     <defs>
      <path d="M 44.390625 34.1875 
Q 47.5625 33.109375 50.5625 29.59375 
Q 53.5625 26.078125 56.59375 19.921875 
L 66.609375 0 
L 56 0 
L 46.6875 18.703125 
Q 43.0625 26.03125 39.671875 28.421875 
Q 36.28125 30.8125 30.421875 30.8125 
L 19.671875 30.8125 
L 19.671875 0 
L 9.8125 0 
L 9.8125 72.90625 
L 32.078125 72.90625 
Q 44.578125 72.90625 50.734375 67.671875 
Q 56.890625 62.453125 56.890625 51.90625 
Q 56.890625 45.015625 53.6875 40.46875 
Q 50.484375 35.9375 44.390625 34.1875 
z
M 19.671875 64.796875 
L 19.671875 38.921875 
L 32.078125 38.921875 
Q 39.203125 38.921875 42.84375 42.21875 
Q 46.484375 45.515625 46.484375 51.90625 
Q 46.484375 58.296875 42.84375 61.546875 
Q 39.203125 64.796875 32.078125 64.796875 
z
" id="DejaVuSans-82"/>
      <path d="M 30.609375 48.390625 
Q 23.390625 48.390625 19.1875 42.75 
Q 14.984375 37.109375 14.984375 27.296875 
Q 14.984375 17.484375 19.15625 11.84375 
Q 23.34375 6.203125 30.609375 6.203125 
Q 37.796875 6.203125 41.984375 11.859375 
Q 46.1875 17.53125 46.1875 27.296875 
Q 46.1875 37.015625 41.984375 42.703125 
Q 37.796875 48.390625 30.609375 48.390625 
z
M 30.609375 56 
Q 42.328125 56 49.015625 48.375 
Q 55.71875 40.765625 55.71875 27.296875 
Q 55.71875 13.875 49.015625 6.21875 
Q 42.328125 -1.421875 30.609375 -1.421875 
Q 18.84375 -1.421875 12.171875 6.21875 
Q 5.515625 13.875 5.515625 27.296875 
Q 5.515625 40.765625 12.171875 48.375 
Q 18.84375 56 30.609375 56 
z
" id="DejaVuSans-111"/>
      <path d="M 48.78125 52.59375 
L 48.78125 44.1875 
Q 44.96875 46.296875 41.140625 47.34375 
Q 37.3125 48.390625 33.40625 48.390625 
Q 24.65625 48.390625 19.8125 42.84375 
Q 14.984375 37.3125 14.984375 27.296875 
Q 14.984375 17.28125 19.8125 11.734375 
Q 24.65625 6.203125 33.40625 6.203125 
Q 37.3125 6.203125 41.140625 7.25 
Q 44.96875 8.296875 48.78125 10.40625 
L 48.78125 2.09375 
Q 45.015625 0.34375 40.984375 -0.53125 
Q 36.96875 -1.421875 32.421875 -1.421875 
Q 20.0625 -1.421875 12.78125 6.34375 
Q 5.515625 14.109375 5.515625 27.296875 
Q 5.515625 40.671875 12.859375 48.328125 
Q 20.21875 56 33.015625 56 
Q 37.15625 56 41.109375 55.140625 
Q 45.0625 54.296875 48.78125 52.59375 
z
" id="DejaVuSans-99"/>
      <path d="M 54.890625 33.015625 
L 54.890625 0 
L 45.90625 0 
L 45.90625 32.71875 
Q 45.90625 40.484375 42.875 44.328125 
Q 39.84375 48.1875 33.796875 48.1875 
Q 26.515625 48.1875 22.3125 43.546875 
Q 18.109375 38.921875 18.109375 30.90625 
L 18.109375 0 
L 9.078125 0 
L 9.078125 75.984375 
L 18.109375 75.984375 
L 18.109375 46.1875 
Q 21.34375 51.125 25.703125 53.5625 
Q 30.078125 56 35.796875 56 
Q 45.21875 56 50.046875 50.171875 
Q 54.890625 44.34375 54.890625 33.015625 
z
" id="DejaVuSans-104"/>
      <path d="M 56.203125 29.59375 
L 56.203125 25.203125 
L 14.890625 25.203125 
Q 15.484375 15.921875 20.484375 11.0625 
Q 25.484375 6.203125 34.421875 6.203125 
Q 39.59375 6.203125 44.453125 7.46875 
Q 49.3125 8.734375 54.109375 11.28125 
L 54.109375 2.78125 
Q 49.265625 0.734375 44.1875 -0.34375 
Q 39.109375 -1.421875 33.890625 -1.421875 
Q 20.796875 -1.421875 13.15625 6.1875 
Q 5.515625 13.8125 5.515625 26.8125 
Q 5.515625 40.234375 12.765625 48.109375 
Q 20.015625 56 32.328125 56 
Q 43.359375 56 49.78125 48.890625 
Q 56.203125 41.796875 56.203125 29.59375 
z
M 47.21875 32.234375 
Q 47.125 39.59375 43.09375 43.984375 
Q 39.0625 48.390625 32.421875 48.390625 
Q 24.90625 48.390625 20.390625 44.140625 
Q 15.875 39.890625 15.1875 32.171875 
z
" id="DejaVuSans-101"/>
      <path d="M 44.28125 53.078125 
L 44.28125 44.578125 
Q 40.484375 46.53125 36.375 47.5 
Q 32.28125 48.484375 27.875 48.484375 
Q 21.1875 48.484375 17.84375 46.4375 
Q 14.5 44.390625 14.5 40.28125 
Q 14.5 37.15625 16.890625 35.375 
Q 19.28125 33.59375 26.515625 31.984375 
L 29.59375 31.296875 
Q 39.15625 29.25 43.1875 25.515625 
Q 47.21875 21.78125 47.21875 15.09375 
Q 47.21875 7.46875 41.1875 3.015625 
Q 35.15625 -1.421875 24.609375 -1.421875 
Q 20.21875 -1.421875 15.453125 -0.5625 
Q 10.6875 0.296875 5.421875 2 
L 5.421875 11.28125 
Q 10.40625 8.6875 15.234375 7.390625 
Q 20.0625 6.109375 24.8125 6.109375 
Q 31.15625 6.109375 34.5625 8.28125 
Q 37.984375 10.453125 37.984375 14.40625 
Q 37.984375 18.0625 35.515625 20.015625 
Q 33.0625 21.96875 24.703125 23.78125 
L 21.578125 24.515625 
Q 13.234375 26.265625 9.515625 29.90625 
Q 5.8125 33.546875 5.8125 39.890625 
Q 5.8125 47.609375 11.28125 51.796875 
Q 16.75 56 26.8125 56 
Q 31.78125 56 36.171875 55.265625 
Q 40.578125 54.546875 44.28125 53.078125 
z
" id="DejaVuSans-115"/>
      <path d="M 18.3125 70.21875 
L 18.3125 54.6875 
L 36.8125 54.6875 
L 36.8125 47.703125 
L 18.3125 47.703125 
L 18.3125 18.015625 
Q 18.3125 11.328125 20.140625 9.421875 
Q 21.96875 7.515625 27.59375 7.515625 
L 36.8125 7.515625 
L 36.8125 0 
L 27.59375 0 
Q 17.1875 0 13.234375 3.875 
Q 9.28125 7.765625 9.28125 18.015625 
L 9.28125 47.703125 
L 2.6875 47.703125 
L 2.6875 54.6875 
L 9.28125 54.6875 
L 9.28125 70.21875 
z
" id="DejaVuSans-116"/>
      <path d="M 41.109375 46.296875 
Q 39.59375 47.171875 37.8125 47.578125 
Q 36.03125 48 33.890625 48 
Q 26.265625 48 22.1875 43.046875 
Q 18.109375 38.09375 18.109375 28.8125 
L 18.109375 0 
L 9.078125 0 
L 9.078125 54.6875 
L 18.109375 54.6875 
L 18.109375 46.1875 
Q 20.953125 51.171875 25.484375 53.578125 
Q 30.03125 56 36.53125 56 
Q 37.453125 56 38.578125 55.875 
Q 39.703125 55.765625 41.0625 55.515625 
z
" id="DejaVuSans-114"/>
      <path id="DejaVuSans-32"/>
      <path d="M 53.515625 70.515625 
L 53.515625 60.890625 
Q 47.90625 63.578125 42.921875 64.890625 
Q 37.9375 66.21875 33.296875 66.21875 
Q 25.25 66.21875 20.875 63.09375 
Q 16.5 59.96875 16.5 54.203125 
Q 16.5 49.359375 19.40625 46.890625 
Q 22.3125 44.4375 30.421875 42.921875 
L 36.375 41.703125 
Q 47.40625 39.59375 52.65625 34.296875 
Q 57.90625 29 57.90625 20.125 
Q 57.90625 9.515625 50.796875 4.046875 
Q 43.703125 -1.421875 29.984375 -1.421875 
Q 24.8125 -1.421875 18.96875 -0.25 
Q 13.140625 0.921875 6.890625 3.21875 
L 6.890625 13.375 
Q 12.890625 10.015625 18.65625 8.296875 
Q 24.421875 6.59375 29.984375 6.59375 
Q 38.421875 6.59375 43.015625 9.90625 
Q 47.609375 13.234375 47.609375 19.390625 
Q 47.609375 24.75 44.3125 27.78125 
Q 41.015625 30.8125 33.5 32.328125 
L 27.484375 33.5 
Q 16.453125 35.6875 11.515625 40.375 
Q 6.59375 45.0625 6.59375 53.421875 
Q 6.59375 63.09375 13.40625 68.65625 
Q 20.21875 74.21875 32.171875 74.21875 
Q 37.3125 74.21875 42.625 73.28125 
Q 47.953125 72.359375 53.515625 70.515625 
z
" id="DejaVuSans-83"/>
      <path d="M 8.5 21.578125 
L 8.5 54.6875 
L 17.484375 54.6875 
L 17.484375 21.921875 
Q 17.484375 14.15625 20.5 10.265625 
Q 23.53125 6.390625 29.59375 6.390625 
Q 36.859375 6.390625 41.078125 11.03125 
Q 45.3125 15.671875 45.3125 23.6875 
L 45.3125 54.6875 
L 54.296875 54.6875 
L 54.296875 0 
L 45.3125 0 
L 45.3125 8.40625 
Q 42.046875 3.421875 37.71875 1 
Q 33.40625 -1.421875 27.6875 -1.421875 
Q 18.265625 -1.421875 13.375 4.4375 
Q 8.5 10.296875 8.5 21.578125 
z
M 31.109375 56 
z
" id="DejaVuSans-117"/>
      <path d="M 48.6875 27.296875 
Q 48.6875 37.203125 44.609375 42.84375 
Q 40.53125 48.484375 33.40625 48.484375 
Q 26.265625 48.484375 22.1875 42.84375 
Q 18.109375 37.203125 18.109375 27.296875 
Q 18.109375 17.390625 22.1875 11.75 
Q 26.265625 6.109375 33.40625 6.109375 
Q 40.53125 6.109375 44.609375 11.75 
Q 48.6875 17.390625 48.6875 27.296875 
z
M 18.109375 46.390625 
Q 20.953125 51.265625 25.265625 53.625 
Q 29.59375 56 35.59375 56 
Q 45.5625 56 51.78125 48.09375 
Q 58.015625 40.1875 58.015625 27.296875 
Q 58.015625 14.40625 51.78125 6.484375 
Q 45.5625 -1.421875 35.59375 -1.421875 
Q 29.59375 -1.421875 25.265625 0.953125 
Q 20.953125 3.328125 18.109375 8.203125 
L 18.109375 0 
L 9.078125 0 
L 9.078125 75.984375 
L 18.109375 75.984375 
z
" id="DejaVuSans-98"/>
     </defs>
     <use xlink:href="#DejaVuSans-82"/>
     <use x="64.982422" xlink:href="#DejaVuSans-111"/>
     <use x="126.164062" xlink:href="#DejaVuSans-99"/>
     <use x="181.144531" xlink:href="#DejaVuSans-104"/>
     <use x="244.523438" xlink:href="#DejaVuSans-101"/>
     <use x="306.046875" xlink:href="#DejaVuSans-115"/>
     <use x="358.146484" xlink:href="#DejaVuSans-116"/>
     <use x="397.355469" xlink:href="#DejaVuSans-101"/>
     <use x="458.878906" xlink:href="#DejaVuSans-114"/>
     <use x="499.992188" xlink:href="#DejaVuSans-32"/>
     <use x="531.779297" xlink:href="#DejaVuSans-83"/>
     <use x="595.255859" xlink:href="#DejaVuSans-117"/>
     <use x="658.634766" xlink:href="#DejaVuSans-98"/>
     <use x="722.111328" xlink:href="#DejaVuSans-117"/>
     <use x="785.490234" xlink:href="#DejaVuSans-114"/>
     <use x="826.603516" xlink:href="#DejaVuSans-98"/>
     <use x="890.080078" xlink:href="#DejaVuSans-115"/>
    </g>
   </g>
   <g id="text_2">
    <!-- Rochester -->
    <g transform="translate(93.606402 80.465387)scale(0.1 -0.1)">
     <use xlink:href="#DejaVuSans-82"/>
     <use x="64.982422" xlink:href="#DejaVuSans-111"/>
     <use x="126.164062" xlink:href="#DejaVuSans-99"/>
     <use x="181.144531" xlink:href="#DejaVuSans-104"/>
     <use x="244.523438" xlink:href="#DejaVuSans-101"/>
     <use x="306.046875" xlink:href="#DejaVuSans-115"/>
     <use x="358.146484" xlink:href="#DejaVuSans-116"/>
     <use x="397.355469" xlink:href="#DejaVuSans-101"/>
     <use x="458.878906" xlink:href="#DejaVuSans-114"/>
    </g>
   </g>
   <g id="text_3">
    <!-- Rochester MSA -->
    <g transform="translate(60.020029 200.641743)scale(0.1 -0.1)">
     <defs>
      <path d="M 9.8125 72.90625 
L 24.515625 72.90625 
L 43.109375 23.296875 
L 61.8125 72.90625 
L 76.515625 72.90625 
L 76.515625 0 
L 66.890625 0 
L 66.890625 64.015625 
L 48.09375 14.015625 
L 38.1875 14.015625 
L 19.390625 64.015625 
L 19.390625 0 
L 9.8125 0 
z
" id="DejaVuSans-77"/>
      <path d="M 34.1875 63.1875 
L 20.796875 26.90625 
L 47.609375 26.90625 
z
M 28.609375 72.90625 
L 39.796875 72.90625 
L 67.578125 0 
L 57.328125 0 
L 50.6875 18.703125 
L 17.828125 18.703125 
L 11.1875 0 
L 0.78125 0 
z
" id="DejaVuSans-65"/>
     </defs>
     <use xlink:href="#DejaVuSans-82"/>
     <use x="64.982422" xlink:href="#DejaVuSans-111"/>
     <use x="126.164062" xlink:href="#DejaVuSans-99"/>
     <use x="181.144531" xlink:href="#DejaVuSans-104"/>
     <use x="244.523438" xlink:href="#DejaVuSans-101"/>
     <use x="306.046875" xlink:href="#DejaVuSans-115"/>
     <use x="358.146484" xlink:href="#DejaVuSans-116"/>
     <use x="397.355469" xlink:href="#DejaVuSans-101"/>
     <use x="458.878906" xlink:href="#DejaVuSans-114"/>
     <use x="499.992188" xlink:href="#DejaVuSans-32"/>
     <use x="531.779297" xlink:href="#DejaVuSans-77"/>
     <use x="618.058594" xlink:href="#DejaVuSans-83"/>
     <use x="683.410156" xlink:href="#DejaVuSans-65"/>
    </g>
   </g>
   <g id="text_4">
    <!-- NY Other -->
    <g transform="translate(106.277303 220.548312)scale(0.1 -0.1)">
     <defs>
      <path d="M 9.8125 72.90625 
L 23.09375 72.90625 
L 55.421875 11.921875 
L 55.421875 72.90625 
L 64.984375 72.90625 
L 64.984375 0 
L 51.703125 0 
L 19.390625 60.984375 
L 19.390625 0 
L 9.8125 0 
z
" id="DejaVuSans-78"/>
      <path d="M -0.203125 72.90625 
L 10.40625 72.90625 
L 30.609375 42.921875 
L 50.6875 72.90625 
L 61.28125 72.90625 
L 35.5 34.71875 
L 35.5 0 
L 25.59375 0 
L 25.59375 34.71875 
z
" id="DejaVuSans-89"/>
      <path d="M 39.40625 66.21875 
Q 28.65625 66.21875 22.328125 58.203125 
Q 16.015625 50.203125 16.015625 36.375 
Q 16.015625 22.609375 22.328125 14.59375 
Q 28.65625 6.59375 39.40625 6.59375 
Q 50.140625 6.59375 56.421875 14.59375 
Q 62.703125 22.609375 62.703125 36.375 
Q 62.703125 50.203125 56.421875 58.203125 
Q 50.140625 66.21875 39.40625 66.21875 
z
M 39.40625 74.21875 
Q 54.734375 74.21875 63.90625 63.9375 
Q 73.09375 53.65625 73.09375 36.375 
Q 73.09375 19.140625 63.90625 8.859375 
Q 54.734375 -1.421875 39.40625 -1.421875 
Q 24.03125 -1.421875 14.8125 8.828125 
Q 5.609375 19.09375 5.609375 36.375 
Q 5.609375 53.65625 14.8125 63.9375 
Q 24.03125 74.21875 39.40625 74.21875 
z
" id="DejaVuSans-79"/>
     </defs>
     <use xlink:href="#DejaVuSans-78"/>
     <use x="74.804688" xlink:href="#DejaVuSans-89"/>
     <use x="135.888672" xlink:href="#DejaVuSans-32"/>
     <use x="167.675781" xlink:href="#DejaVuSans-79"/>
     <use x="246.386719" xlink:href="#DejaVuSans-116"/>
     <use x="285.595703" xlink:href="#DejaVuSans-104"/>
     <use x="348.974609" xlink:href="#DejaVuSans-101"/>
     <use x="410.498047" xlink:href="#DejaVuSans-114"/>
    </g>
   </g>
   <g id="text_5">
    <!-- Where RocDev Members Live -->
    <g transform="translate(133.437187 28.56)scale(0.12 -0.12)">
     <defs>
      <path d="M 3.328125 72.90625 
L 13.28125 72.90625 
L 28.609375 11.28125 
L 43.890625 72.90625 
L 54.984375 72.90625 
L 70.3125 11.28125 
L 85.59375 72.90625 
L 95.609375 72.90625 
L 77.296875 0 
L 64.890625 0 
L 49.515625 63.28125 
L 33.984375 0 
L 21.578125 0 
z
" id="DejaVuSans-87"/>
      <path d="M 19.671875 64.796875 
L 19.671875 8.109375 
L 31.59375 8.109375 
Q 46.6875 8.109375 53.6875 14.9375 
Q 60.6875 21.78125 60.6875 36.53125 
Q 60.6875 51.171875 53.6875 57.984375 
Q 46.6875 64.796875 31.59375 64.796875 
z
M 9.8125 72.90625 
L 30.078125 72.90625 
Q 51.265625 72.90625 61.171875 64.09375 
Q 71.09375 55.28125 71.09375 36.53125 
Q 71.09375 17.671875 61.125 8.828125 
Q 51.171875 0 30.078125 0 
L 9.8125 0 
z
" id="DejaVuSans-68"/>
      <path d="M 2.984375 54.6875 
L 12.5 54.6875 
L 29.59375 8.796875 
L 46.6875 54.6875 
L 56.203125 54.6875 
L 35.6875 0 
L 23.484375 0 
z
" id="DejaVuSans-118"/>
      <path d="M 52 44.1875 
Q 55.375 50.25 60.0625 53.125 
Q 64.75 56 71.09375 56 
Q 79.640625 56 84.28125 50.015625 
Q 88.921875 44.046875 88.921875 33.015625 
L 88.921875 0 
L 79.890625 0 
L 79.890625 32.71875 
Q 79.890625 40.578125 77.09375 44.375 
Q 74.3125 48.1875 68.609375 48.1875 
Q 61.625 48.1875 57.5625 43.546875 
Q 53.515625 38.921875 53.515625 30.90625 
L 53.515625 0 
L 44.484375 0 
L 44.484375 32.71875 
Q 44.484375 40.625 41.703125 44.40625 
Q 38.921875 48.1875 33.109375 48.1875 
Q 26.21875 48.1875 22.15625 43.53125 
Q 18.109375 38.875 18.109375 30.90625 
L 18.109375 0 
L 9.078125 0 
L 9.078125 54.6875 
L 18.109375 54.6875 
L 18.109375 46.1875 
Q 21.1875 51.21875 25.484375 53.609375 
Q 29.78125 56 35.6875 56 
Q 41.65625 56 45.828125 52.96875 
Q 50 49.953125 52 44.1875 
z
" id="DejaVuSans-109"/>
      <path d="M 9.8125 72.90625 
L 19.671875 72.90625 
L 19.671875 8.296875 
L 55.171875 8.296875 
L 55.171875 0 
L 9.8125 0 
z
" id="DejaVuSans-76"/>
      <path d="M 9.421875 54.6875 
L 18.40625 54.6875 
L 18.40625 0 
L 9.421875 0 
z
M 9.421875 75.984375 
L 18.40625 75.984375 
L 18.40625 64.59375 
L 9.421875 64.59375 
z
" id="DejaVuSans-105"/>
     </defs>
     <use xlink:href="#DejaVuSans-87"/>
     <use x="98.876953" xlink:href="#DejaVuSans-104"/>
     <use x="162.255859" xlink:href="#DejaVuSans-101"/>
     <use x="223.779297" xlink:href="#DejaVuSans-114"/>
     <use x="262.642578" xlink:href="#DejaVuSans-101"/>
     <use x="324.166016" xlink:href="#DejaVuSans-32"/>
     <use x="355.953125" xlink:href="#DejaVuSans-82"/>
     <use x="420.935547" xlink:href="#DejaVuSans-111"/>
     <use x="482.117188" xlink:href="#DejaVuSans-99"/>
     <use x="537.097656" xlink:href="#DejaVuSans-68"/>
     <use x="614.099609" xlink:href="#DejaVuSans-101"/>
     <use x="675.623047" xlink:href="#DejaVuSans-118"/>
     <use x="734.802734" xlink:href="#DejaVuSans-32"/>
     <use x="766.589844" xlink:href="#DejaVuSans-77"/>
     <use x="852.869141" xlink:href="#DejaVuSans-101"/>
     <use x="914.392578" xlink:href="#DejaVuSans-109"/>
     <use x="1011.804688" xlink:href="#DejaVuSans-98"/>
     <use x="1075.28125" xlink:href="#DejaVuSans-101"/>
     <use x="1136.804688" xlink:href="#DejaVuSans-114"/>
     <use x="1177.917969" xlink:href="#DejaVuSans-115"/>
     <use x="1230.017578" xlink:href="#DejaVuSans-32"/>
     <use x="1261.804688" xlink:href="#DejaVuSans-76"/>
     <use x="1317.517578" xlink:href="#DejaVuSans-105"/>
     <use x="1345.300781" xlink:href="#DejaVuSans-118"/>
     <use x="1404.480469" xlink:href="#DejaVuSans-101"/>
    </g>
   </g>
   <g id="legend_1">
    <g id="patch_6">
     <path d="M 31.535 87.93 
L 383.2 87.93 
Q 384.8 87.93 384.8 86.33 
L 384.8 40.16 
Q 384.8 38.56 383.2 38.56 
L 31.535 38.56 
Q 29.935 38.56 29.935 40.16 
L 29.935 86.33 
Q 29.935 87.93 31.535 87.93 
z
" style="fill:#ffffff;opacity:0.8;stroke:#cccccc;stroke-linejoin:miter;"/>
    </g>
    <g id="patch_7">
     <path d="M 33.135 47.83875 
L 49.135 47.83875 
L 49.135 42.23875 
L 33.135 42.23875 
z
" style="fill:#1f77b4;"/>
    </g>
    <g id="text_6">
     <!-- Suburbs of Rochester, NY - 58.00 % -->
     <g transform="translate(55.535 47.83875)scale(0.08 -0.08)">
      <defs>
       <path d="M 37.109375 75.984375 
L 37.109375 68.5 
L 28.515625 68.5 
Q 23.6875 68.5 21.796875 66.546875 
Q 19.921875 64.59375 19.921875 59.515625 
L 19.921875 54.6875 
L 34.71875 54.6875 
L 34.71875 47.703125 
L 19.921875 47.703125 
L 19.921875 0 
L 10.890625 0 
L 10.890625 47.703125 
L 2.296875 47.703125 
L 2.296875 54.6875 
L 10.890625 54.6875 
L 10.890625 58.5 
Q 10.890625 67.625 15.140625 71.796875 
Q 19.390625 75.984375 28.609375 75.984375 
z
" id="DejaVuSans-102"/>
       <path d="M 11.71875 12.40625 
L 22.015625 12.40625 
L 22.015625 4 
L 14.015625 -11.625 
L 7.71875 -11.625 
L 11.71875 4 
z
" id="DejaVuSans-44"/>
       <path d="M 4.890625 31.390625 
L 31.203125 31.390625 
L 31.203125 23.390625 
L 4.890625 23.390625 
z
" id="DejaVuSans-45"/>
       <path d="M 10.796875 72.90625 
L 49.515625 72.90625 
L 49.515625 64.59375 
L 19.828125 64.59375 
L 19.828125 46.734375 
Q 21.96875 47.46875 24.109375 47.828125 
Q 26.265625 48.1875 28.421875 48.1875 
Q 40.625 48.1875 47.75 41.5 
Q 54.890625 34.8125 54.890625 23.390625 
Q 54.890625 11.625 47.5625 5.09375 
Q 40.234375 -1.421875 26.90625 -1.421875 
Q 22.3125 -1.421875 17.546875 -0.640625 
Q 12.796875 0.140625 7.71875 1.703125 
L 7.71875 11.625 
Q 12.109375 9.234375 16.796875 8.0625 
Q 21.484375 6.890625 26.703125 6.890625 
Q 35.15625 6.890625 40.078125 11.328125 
Q 45.015625 15.765625 45.015625 23.390625 
Q 45.015625 31 40.078125 35.4375 
Q 35.15625 39.890625 26.703125 39.890625 
Q 22.75 39.890625 18.8125 39.015625 
Q 14.890625 38.140625 10.796875 36.28125 
z
" id="DejaVuSans-53"/>
       <path d="M 31.78125 34.625 
Q 24.75 34.625 20.71875 30.859375 
Q 16.703125 27.09375 16.703125 20.515625 
Q 16.703125 13.921875 20.71875 10.15625 
Q 24.75 6.390625 31.78125 6.390625 
Q 38.8125 6.390625 42.859375 10.171875 
Q 46.921875 13.96875 46.921875 20.515625 
Q 46.921875 27.09375 42.890625 30.859375 
Q 38.875 34.625 31.78125 34.625 
z
M 21.921875 38.8125 
Q 15.578125 40.375 12.03125 44.71875 
Q 8.5 49.078125 8.5 55.328125 
Q 8.5 64.0625 14.71875 69.140625 
Q 20.953125 74.21875 31.78125 74.21875 
Q 42.671875 74.21875 48.875 69.140625 
Q 55.078125 64.0625 55.078125 55.328125 
Q 55.078125 49.078125 51.53125 44.71875 
Q 48 40.375 41.703125 38.8125 
Q 48.828125 37.15625 52.796875 32.3125 
Q 56.78125 27.484375 56.78125 20.515625 
Q 56.78125 9.90625 50.3125 4.234375 
Q 43.84375 -1.421875 31.78125 -1.421875 
Q 19.734375 -1.421875 13.25 4.234375 
Q 6.78125 9.90625 6.78125 20.515625 
Q 6.78125 27.484375 10.78125 32.3125 
Q 14.796875 37.15625 21.921875 38.8125 
z
M 18.3125 54.390625 
Q 18.3125 48.734375 21.84375 45.5625 
Q 25.390625 42.390625 31.78125 42.390625 
Q 38.140625 42.390625 41.71875 45.5625 
Q 45.3125 48.734375 45.3125 54.390625 
Q 45.3125 60.0625 41.71875 63.234375 
Q 38.140625 66.40625 31.78125 66.40625 
Q 25.390625 66.40625 21.84375 63.234375 
Q 18.3125 60.0625 18.3125 54.390625 
z
" id="DejaVuSans-56"/>
       <path d="M 10.6875 12.40625 
L 21 12.40625 
L 21 0 
L 10.6875 0 
z
" id="DejaVuSans-46"/>
       <path d="M 31.78125 66.40625 
Q 24.171875 66.40625 20.328125 58.90625 
Q 16.5 51.421875 16.5 36.375 
Q 16.5 21.390625 20.328125 13.890625 
Q 24.171875 6.390625 31.78125 6.390625 
Q 39.453125 6.390625 43.28125 13.890625 
Q 47.125 21.390625 47.125 36.375 
Q 47.125 51.421875 43.28125 58.90625 
Q 39.453125 66.40625 31.78125 66.40625 
z
M 31.78125 74.21875 
Q 44.046875 74.21875 50.515625 64.515625 
Q 56.984375 54.828125 56.984375 36.375 
Q 56.984375 17.96875 50.515625 8.265625 
Q 44.046875 -1.421875 31.78125 -1.421875 
Q 19.53125 -1.421875 13.0625 8.265625 
Q 6.59375 17.96875 6.59375 36.375 
Q 6.59375 54.828125 13.0625 64.515625 
Q 19.53125 74.21875 31.78125 74.21875 
z
" id="DejaVuSans-48"/>
       <path d="M 72.703125 32.078125 
Q 68.453125 32.078125 66.03125 28.46875 
Q 63.625 24.859375 63.625 18.40625 
Q 63.625 12.0625 66.03125 8.421875 
Q 68.453125 4.78125 72.703125 4.78125 
Q 76.859375 4.78125 79.265625 8.421875 
Q 81.6875 12.0625 81.6875 18.40625 
Q 81.6875 24.8125 79.265625 28.4375 
Q 76.859375 32.078125 72.703125 32.078125 
z
M 72.703125 38.28125 
Q 80.421875 38.28125 84.953125 32.90625 
Q 89.5 27.546875 89.5 18.40625 
Q 89.5 9.28125 84.9375 3.921875 
Q 80.375 -1.421875 72.703125 -1.421875 
Q 64.890625 -1.421875 60.34375 3.921875 
Q 55.8125 9.28125 55.8125 18.40625 
Q 55.8125 27.59375 60.375 32.9375 
Q 64.9375 38.28125 72.703125 38.28125 
z
M 22.3125 68.015625 
Q 18.109375 68.015625 15.6875 64.375 
Q 13.28125 60.75 13.28125 54.390625 
Q 13.28125 47.953125 15.671875 44.328125 
Q 18.0625 40.71875 22.3125 40.71875 
Q 26.5625 40.71875 28.96875 44.328125 
Q 31.390625 47.953125 31.390625 54.390625 
Q 31.390625 60.6875 28.953125 64.34375 
Q 26.515625 68.015625 22.3125 68.015625 
z
M 66.40625 74.21875 
L 74.21875 74.21875 
L 28.609375 -1.421875 
L 20.796875 -1.421875 
z
M 22.3125 74.21875 
Q 30.03125 74.21875 34.609375 68.875 
Q 39.203125 63.53125 39.203125 54.390625 
Q 39.203125 45.171875 34.640625 39.84375 
Q 30.078125 34.515625 22.3125 34.515625 
Q 14.546875 34.515625 10.03125 39.859375 
Q 5.515625 45.21875 5.515625 54.390625 
Q 5.515625 63.484375 10.046875 68.84375 
Q 14.59375 74.21875 22.3125 74.21875 
z
" id="DejaVuSans-37"/>
      </defs>
      <use xlink:href="#DejaVuSans-83"/>
      <use x="63.476562" xlink:href="#DejaVuSans-117"/>
      <use x="126.855469" xlink:href="#DejaVuSans-98"/>
      <use x="190.332031" xlink:href="#DejaVuSans-117"/>
      <use x="253.710938" xlink:href="#DejaVuSans-114"/>
      <use x="294.824219" xlink:href="#DejaVuSans-98"/>
      <use x="358.300781" xlink:href="#DejaVuSans-115"/>
      <use x="410.400391" xlink:href="#DejaVuSans-32"/>
      <use x="442.1875" xlink:href="#DejaVuSans-111"/>
      <use x="503.369141" xlink:href="#DejaVuSans-102"/>
      <use x="538.574219" xlink:href="#DejaVuSans-32"/>
      <use x="570.361328" xlink:href="#DejaVuSans-82"/>
      <use x="635.34375" xlink:href="#DejaVuSans-111"/>
      <use x="696.525391" xlink:href="#DejaVuSans-99"/>
      <use x="751.505859" xlink:href="#DejaVuSans-104"/>
      <use x="814.884766" xlink:href="#DejaVuSans-101"/>
      <use x="876.408203" xlink:href="#DejaVuSans-115"/>
      <use x="928.507812" xlink:href="#DejaVuSans-116"/>
      <use x="967.716797" xlink:href="#DejaVuSans-101"/>
      <use x="1029.240234" xlink:href="#DejaVuSans-114"/>
      <use x="1070.353516" xlink:href="#DejaVuSans-44"/>
      <use x="1102.140625" xlink:href="#DejaVuSans-32"/>
      <use x="1133.927734" xlink:href="#DejaVuSans-78"/>
      <use x="1208.732422" xlink:href="#DejaVuSans-89"/>
      <use x="1269.816406" xlink:href="#DejaVuSans-32"/>
      <use x="1301.603516" xlink:href="#DejaVuSans-45"/>
      <use x="1337.6875" xlink:href="#DejaVuSans-32"/>
      <use x="1369.474609" xlink:href="#DejaVuSans-53"/>
      <use x="1433.097656" xlink:href="#DejaVuSans-56"/>
      <use x="1496.720703" xlink:href="#DejaVuSans-46"/>
      <use x="1528.507812" xlink:href="#DejaVuSans-48"/>
      <use x="1592.130859" xlink:href="#DejaVuSans-48"/>
      <use x="1655.753906" xlink:href="#DejaVuSans-32"/>
      <use x="1687.541016" xlink:href="#DejaVuSans-37"/>
     </g>
    </g>
    <g id="patch_8">
     <path d="M 33.135 59.58125 
L 49.135 59.58125 
L 49.135 53.98125 
L 33.135 53.98125 
z
" style="fill:#ff7f0e;"/>
    </g>
    <g id="text_7">
     <!-- Rochester, NY - 34.00 % -->
     <g transform="translate(55.535 59.58125)scale(0.08 -0.08)">
      <defs>
       <path d="M 40.578125 39.3125 
Q 47.65625 37.796875 51.625 33 
Q 55.609375 28.21875 55.609375 21.1875 
Q 55.609375 10.40625 48.1875 4.484375 
Q 40.765625 -1.421875 27.09375 -1.421875 
Q 22.515625 -1.421875 17.65625 -0.515625 
Q 12.796875 0.390625 7.625 2.203125 
L 7.625 11.71875 
Q 11.71875 9.328125 16.59375 8.109375 
Q 21.484375 6.890625 26.8125 6.890625 
Q 36.078125 6.890625 40.9375 10.546875 
Q 45.796875 14.203125 45.796875 21.1875 
Q 45.796875 27.640625 41.28125 31.265625 
Q 36.765625 34.90625 28.71875 34.90625 
L 20.21875 34.90625 
L 20.21875 43.015625 
L 29.109375 43.015625 
Q 36.375 43.015625 40.234375 45.921875 
Q 44.09375 48.828125 44.09375 54.296875 
Q 44.09375 59.90625 40.109375 62.90625 
Q 36.140625 65.921875 28.71875 65.921875 
Q 24.65625 65.921875 20.015625 65.03125 
Q 15.375 64.15625 9.8125 62.3125 
L 9.8125 71.09375 
Q 15.4375 72.65625 20.34375 73.4375 
Q 25.25 74.21875 29.59375 74.21875 
Q 40.828125 74.21875 47.359375 69.109375 
Q 53.90625 64.015625 53.90625 55.328125 
Q 53.90625 49.265625 50.4375 45.09375 
Q 46.96875 40.921875 40.578125 39.3125 
z
" id="DejaVuSans-51"/>
       <path d="M 37.796875 64.3125 
L 12.890625 25.390625 
L 37.796875 25.390625 
z
M 35.203125 72.90625 
L 47.609375 72.90625 
L 47.609375 25.390625 
L 58.015625 25.390625 
L 58.015625 17.1875 
L 47.609375 17.1875 
L 47.609375 0 
L 37.796875 0 
L 37.796875 17.1875 
L 4.890625 17.1875 
L 4.890625 26.703125 
z
" id="DejaVuSans-52"/>
      </defs>
      <use xlink:href="#DejaVuSans-82"/>
      <use x="64.982422" xlink:href="#DejaVuSans-111"/>
      <use x="126.164062" xlink:href="#DejaVuSans-99"/>
      <use x="181.144531" xlink:href="#DejaVuSans-104"/>
      <use x="244.523438" xlink:href="#DejaVuSans-101"/>
      <use x="306.046875" xlink:href="#DejaVuSans-115"/>
      <use x="358.146484" xlink:href="#DejaVuSans-116"/>
      <use x="397.355469" xlink:href="#DejaVuSans-101"/>
      <use x="458.878906" xlink:href="#DejaVuSans-114"/>
      <use x="499.992188" xlink:href="#DejaVuSans-44"/>
      <use x="531.779297" xlink:href="#DejaVuSans-32"/>
      <use x="563.566406" xlink:href="#DejaVuSans-78"/>
      <use x="638.371094" xlink:href="#DejaVuSans-89"/>
      <use x="699.455078" xlink:href="#DejaVuSans-32"/>
      <use x="731.242188" xlink:href="#DejaVuSans-45"/>
      <use x="767.326172" xlink:href="#DejaVuSans-32"/>
      <use x="799.113281" xlink:href="#DejaVuSans-51"/>
      <use x="862.736328" xlink:href="#DejaVuSans-52"/>
      <use x="926.359375" xlink:href="#DejaVuSans-46"/>
      <use x="958.146484" xlink:href="#DejaVuSans-48"/>
      <use x="1021.769531" xlink:href="#DejaVuSans-48"/>
      <use x="1085.392578" xlink:href="#DejaVuSans-32"/>
      <use x="1117.179688" xlink:href="#DejaVuSans-37"/>
     </g>
    </g>
    <g id="patch_9">
     <path d="M 33.135 71.32375 
L 49.135 71.32375 
L 49.135 65.72375 
L 33.135 65.72375 
z
" style="fill:#2ca02c;"/>
    </g>
    <g id="text_8">
     <!-- Elsewhere in the Rochester MSA (i.e., Rochester is the closest large city) - 6.00 % -->
     <g transform="translate(55.535 71.32375)scale(0.08 -0.08)">
      <defs>
       <path d="M 9.8125 72.90625 
L 55.90625 72.90625 
L 55.90625 64.59375 
L 19.671875 64.59375 
L 19.671875 43.015625 
L 54.390625 43.015625 
L 54.390625 34.71875 
L 19.671875 34.71875 
L 19.671875 8.296875 
L 56.78125 8.296875 
L 56.78125 0 
L 9.8125 0 
z
" id="DejaVuSans-69"/>
       <path d="M 9.421875 75.984375 
L 18.40625 75.984375 
L 18.40625 0 
L 9.421875 0 
z
" id="DejaVuSans-108"/>
       <path d="M 4.203125 54.6875 
L 13.1875 54.6875 
L 24.421875 12.015625 
L 35.59375 54.6875 
L 46.1875 54.6875 
L 57.421875 12.015625 
L 68.609375 54.6875 
L 77.59375 54.6875 
L 63.28125 0 
L 52.6875 0 
L 40.921875 44.828125 
L 29.109375 0 
L 18.5 0 
z
" id="DejaVuSans-119"/>
       <path d="M 54.890625 33.015625 
L 54.890625 0 
L 45.90625 0 
L 45.90625 32.71875 
Q 45.90625 40.484375 42.875 44.328125 
Q 39.84375 48.1875 33.796875 48.1875 
Q 26.515625 48.1875 22.3125 43.546875 
Q 18.109375 38.921875 18.109375 30.90625 
L 18.109375 0 
L 9.078125 0 
L 9.078125 54.6875 
L 18.109375 54.6875 
L 18.109375 46.1875 
Q 21.34375 51.125 25.703125 53.5625 
Q 30.078125 56 35.796875 56 
Q 45.21875 56 50.046875 50.171875 
Q 54.890625 44.34375 54.890625 33.015625 
z
" id="DejaVuSans-110"/>
       <path d="M 31 75.875 
Q 24.46875 64.65625 21.28125 53.65625 
Q 18.109375 42.671875 18.109375 31.390625 
Q 18.109375 20.125 21.3125 9.0625 
Q 24.515625 -2 31 -13.1875 
L 23.1875 -13.1875 
Q 15.875 -1.703125 12.234375 9.375 
Q 8.59375 20.453125 8.59375 31.390625 
Q 8.59375 42.28125 12.203125 53.3125 
Q 15.828125 64.359375 23.1875 75.875 
z
" id="DejaVuSans-40"/>
       <path d="M 34.28125 27.484375 
Q 23.390625 27.484375 19.1875 25 
Q 14.984375 22.515625 14.984375 16.5 
Q 14.984375 11.71875 18.140625 8.90625 
Q 21.296875 6.109375 26.703125 6.109375 
Q 34.1875 6.109375 38.703125 11.40625 
Q 43.21875 16.703125 43.21875 25.484375 
L 43.21875 27.484375 
z
M 52.203125 31.203125 
L 52.203125 0 
L 43.21875 0 
L 43.21875 8.296875 
Q 40.140625 3.328125 35.546875 0.953125 
Q 30.953125 -1.421875 24.3125 -1.421875 
Q 15.921875 -1.421875 10.953125 3.296875 
Q 6 8.015625 6 15.921875 
Q 6 25.140625 12.171875 29.828125 
Q 18.359375 34.515625 30.609375 34.515625 
L 43.21875 34.515625 
L 43.21875 35.40625 
Q 43.21875 41.609375 39.140625 45 
Q 35.0625 48.390625 27.6875 48.390625 
Q 23 48.390625 18.546875 47.265625 
Q 14.109375 46.140625 10.015625 43.890625 
L 10.015625 52.203125 
Q 14.9375 54.109375 19.578125 55.046875 
Q 24.21875 56 28.609375 56 
Q 40.484375 56 46.34375 49.84375 
Q 52.203125 43.703125 52.203125 31.203125 
z
" id="DejaVuSans-97"/>
       <path d="M 45.40625 27.984375 
Q 45.40625 37.75 41.375 43.109375 
Q 37.359375 48.484375 30.078125 48.484375 
Q 22.859375 48.484375 18.828125 43.109375 
Q 14.796875 37.75 14.796875 27.984375 
Q 14.796875 18.265625 18.828125 12.890625 
Q 22.859375 7.515625 30.078125 7.515625 
Q 37.359375 7.515625 41.375 12.890625 
Q 45.40625 18.265625 45.40625 27.984375 
z
M 54.390625 6.78125 
Q 54.390625 -7.171875 48.1875 -13.984375 
Q 42 -20.796875 29.203125 -20.796875 
Q 24.46875 -20.796875 20.265625 -20.09375 
Q 16.0625 -19.390625 12.109375 -17.921875 
L 12.109375 -9.1875 
Q 16.0625 -11.328125 19.921875 -12.34375 
Q 23.78125 -13.375 27.78125 -13.375 
Q 36.625 -13.375 41.015625 -8.765625 
Q 45.40625 -4.15625 45.40625 5.171875 
L 45.40625 9.625 
Q 42.625 4.78125 38.28125 2.390625 
Q 33.9375 0 27.875 0 
Q 17.828125 0 11.671875 7.65625 
Q 5.515625 15.328125 5.515625 27.984375 
Q 5.515625 40.671875 11.671875 48.328125 
Q 17.828125 56 27.875 56 
Q 33.9375 56 38.28125 53.609375 
Q 42.625 51.21875 45.40625 46.390625 
L 45.40625 54.6875 
L 54.390625 54.6875 
z
" id="DejaVuSans-103"/>
       <path d="M 32.171875 -5.078125 
Q 28.375 -14.84375 24.75 -17.8125 
Q 21.140625 -20.796875 15.09375 -20.796875 
L 7.90625 -20.796875 
L 7.90625 -13.28125 
L 13.1875 -13.28125 
Q 16.890625 -13.28125 18.9375 -11.515625 
Q 21 -9.765625 23.484375 -3.21875 
L 25.09375 0.875 
L 2.984375 54.6875 
L 12.5 54.6875 
L 29.59375 11.921875 
L 46.6875 54.6875 
L 56.203125 54.6875 
z
" id="DejaVuSans-121"/>
       <path d="M 8.015625 75.875 
L 15.828125 75.875 
Q 23.140625 64.359375 26.78125 53.3125 
Q 30.421875 42.28125 30.421875 31.390625 
Q 30.421875 20.453125 26.78125 9.375 
Q 23.140625 -1.703125 15.828125 -13.1875 
L 8.015625 -13.1875 
Q 14.5 -2 17.703125 9.0625 
Q 20.90625 20.125 20.90625 31.390625 
Q 20.90625 42.671875 17.703125 53.65625 
Q 14.5 64.65625 8.015625 75.875 
z
" id="DejaVuSans-41"/>
       <path d="M 33.015625 40.375 
Q 26.375 40.375 22.484375 35.828125 
Q 18.609375 31.296875 18.609375 23.390625 
Q 18.609375 15.53125 22.484375 10.953125 
Q 26.375 6.390625 33.015625 6.390625 
Q 39.65625 6.390625 43.53125 10.953125 
Q 47.40625 15.53125 47.40625 23.390625 
Q 47.40625 31.296875 43.53125 35.828125 
Q 39.65625 40.375 33.015625 40.375 
z
M 52.59375 71.296875 
L 52.59375 62.3125 
Q 48.875 64.0625 45.09375 64.984375 
Q 41.3125 65.921875 37.59375 65.921875 
Q 27.828125 65.921875 22.671875 59.328125 
Q 17.53125 52.734375 16.796875 39.40625 
Q 19.671875 43.65625 24.015625 45.921875 
Q 28.375 48.1875 33.59375 48.1875 
Q 44.578125 48.1875 50.953125 41.515625 
Q 57.328125 34.859375 57.328125 23.390625 
Q 57.328125 12.15625 50.6875 5.359375 
Q 44.046875 -1.421875 33.015625 -1.421875 
Q 20.359375 -1.421875 13.671875 8.265625 
Q 6.984375 17.96875 6.984375 36.375 
Q 6.984375 53.65625 15.1875 63.9375 
Q 23.390625 74.21875 37.203125 74.21875 
Q 40.921875 74.21875 44.703125 73.484375 
Q 48.484375 72.75 52.59375 71.296875 
z
" id="DejaVuSans-54"/>
      </defs>
      <use xlink:href="#DejaVuSans-69"/>
      <use x="63.183594" xlink:href="#DejaVuSans-108"/>
      <use x="90.966797" xlink:href="#DejaVuSans-115"/>
      <use x="143.066406" xlink:href="#DejaVuSans-101"/>
      <use x="204.589844" xlink:href="#DejaVuSans-119"/>
      <use x="286.376953" xlink:href="#DejaVuSans-104"/>
      <use x="349.755859" xlink:href="#DejaVuSans-101"/>
      <use x="411.279297" xlink:href="#DejaVuSans-114"/>
      <use x="450.142578" xlink:href="#DejaVuSans-101"/>
      <use x="511.666016" xlink:href="#DejaVuSans-32"/>
      <use x="543.453125" xlink:href="#DejaVuSans-105"/>
      <use x="571.236328" xlink:href="#DejaVuSans-110"/>
      <use x="634.615234" xlink:href="#DejaVuSans-32"/>
      <use x="666.402344" xlink:href="#DejaVuSans-116"/>
      <use x="705.611328" xlink:href="#DejaVuSans-104"/>
      <use x="768.990234" xlink:href="#DejaVuSans-101"/>
      <use x="830.513672" xlink:href="#DejaVuSans-32"/>
      <use x="862.300781" xlink:href="#DejaVuSans-82"/>
      <use x="927.283203" xlink:href="#DejaVuSans-111"/>
      <use x="988.464844" xlink:href="#DejaVuSans-99"/>
      <use x="1043.445312" xlink:href="#DejaVuSans-104"/>
      <use x="1106.824219" xlink:href="#DejaVuSans-101"/>
      <use x="1168.347656" xlink:href="#DejaVuSans-115"/>
      <use x="1220.447266" xlink:href="#DejaVuSans-116"/>
      <use x="1259.65625" xlink:href="#DejaVuSans-101"/>
      <use x="1321.179688" xlink:href="#DejaVuSans-114"/>
      <use x="1362.292969" xlink:href="#DejaVuSans-32"/>
      <use x="1394.080078" xlink:href="#DejaVuSans-77"/>
      <use x="1480.359375" xlink:href="#DejaVuSans-83"/>
      <use x="1545.710938" xlink:href="#DejaVuSans-65"/>
      <use x="1614.119141" xlink:href="#DejaVuSans-32"/>
      <use x="1645.90625" xlink:href="#DejaVuSans-40"/>
      <use x="1684.919922" xlink:href="#DejaVuSans-105"/>
      <use x="1712.703125" xlink:href="#DejaVuSans-46"/>
      <use x="1744.490234" xlink:href="#DejaVuSans-101"/>
      <use x="1806.013672" xlink:href="#DejaVuSans-46"/>
      <use x="1837.800781" xlink:href="#DejaVuSans-44"/>
      <use x="1869.587891" xlink:href="#DejaVuSans-32"/>
      <use x="1901.375" xlink:href="#DejaVuSans-82"/>
      <use x="1966.357422" xlink:href="#DejaVuSans-111"/>
      <use x="2027.539062" xlink:href="#DejaVuSans-99"/>
      <use x="2082.519531" xlink:href="#DejaVuSans-104"/>
      <use x="2145.898438" xlink:href="#DejaVuSans-101"/>
      <use x="2207.421875" xlink:href="#DejaVuSans-115"/>
      <use x="2259.521484" xlink:href="#DejaVuSans-116"/>
      <use x="2298.730469" xlink:href="#DejaVuSans-101"/>
      <use x="2360.253906" xlink:href="#DejaVuSans-114"/>
      <use x="2401.367188" xlink:href="#DejaVuSans-32"/>
      <use x="2433.154297" xlink:href="#DejaVuSans-105"/>
      <use x="2460.9375" xlink:href="#DejaVuSans-115"/>
      <use x="2513.037109" xlink:href="#DejaVuSans-32"/>
      <use x="2544.824219" xlink:href="#DejaVuSans-116"/>
      <use x="2584.033203" xlink:href="#DejaVuSans-104"/>
      <use x="2647.412109" xlink:href="#DejaVuSans-101"/>
      <use x="2708.935547" xlink:href="#DejaVuSans-32"/>
      <use x="2740.722656" xlink:href="#DejaVuSans-99"/>
      <use x="2795.703125" xlink:href="#DejaVuSans-108"/>
      <use x="2823.486328" xlink:href="#DejaVuSans-111"/>
      <use x="2884.667969" xlink:href="#DejaVuSans-115"/>
      <use x="2936.767578" xlink:href="#DejaVuSans-101"/>
      <use x="2998.291016" xlink:href="#DejaVuSans-115"/>
      <use x="3050.390625" xlink:href="#DejaVuSans-116"/>
      <use x="3089.599609" xlink:href="#DejaVuSans-32"/>
      <use x="3121.386719" xlink:href="#DejaVuSans-108"/>
      <use x="3149.169922" xlink:href="#DejaVuSans-97"/>
      <use x="3210.449219" xlink:href="#DejaVuSans-114"/>
      <use x="3249.8125" xlink:href="#DejaVuSans-103"/>
      <use x="3313.289062" xlink:href="#DejaVuSans-101"/>
      <use x="3374.8125" xlink:href="#DejaVuSans-32"/>
      <use x="3406.599609" xlink:href="#DejaVuSans-99"/>
      <use x="3461.580078" xlink:href="#DejaVuSans-105"/>
      <use x="3489.363281" xlink:href="#DejaVuSans-116"/>
      <use x="3528.572266" xlink:href="#DejaVuSans-121"/>
      <use x="3587.751953" xlink:href="#DejaVuSans-41"/>
      <use x="3626.765625" xlink:href="#DejaVuSans-32"/>
      <use x="3658.552734" xlink:href="#DejaVuSans-45"/>
      <use x="3694.636719" xlink:href="#DejaVuSans-32"/>
      <use x="3726.423828" xlink:href="#DejaVuSans-54"/>
      <use x="3790.046875" xlink:href="#DejaVuSans-46"/>
      <use x="3821.833984" xlink:href="#DejaVuSans-48"/>
      <use x="3885.457031" xlink:href="#DejaVuSans-48"/>
      <use x="3949.080078" xlink:href="#DejaVuSans-32"/>
      <use x="3980.867188" xlink:href="#DejaVuSans-37"/>
     </g>
    </g>
    <g id="patch_10">
     <path d="M 33.135 83.06625 
L 49.135 83.06625 
L 49.135 77.46625 
L 33.135 77.46625 
z
" style="fill:#d62728;"/>
    </g>
    <g id="text_9">
     <!-- Elsewhere in NY - 2.00 % -->
     <g transform="translate(55.535 83.06625)scale(0.08 -0.08)">
      <defs>
       <path d="M 19.1875 8.296875 
L 53.609375 8.296875 
L 53.609375 0 
L 7.328125 0 
L 7.328125 8.296875 
Q 12.9375 14.109375 22.625 23.890625 
Q 32.328125 33.6875 34.8125 36.53125 
Q 39.546875 41.84375 41.421875 45.53125 
Q 43.3125 49.21875 43.3125 52.78125 
Q 43.3125 58.59375 39.234375 62.25 
Q 35.15625 65.921875 28.609375 65.921875 
Q 23.96875 65.921875 18.8125 64.3125 
Q 13.671875 62.703125 7.8125 59.421875 
L 7.8125 69.390625 
Q 13.765625 71.78125 18.9375 73 
Q 24.125 74.21875 28.421875 74.21875 
Q 39.75 74.21875 46.484375 68.546875 
Q 53.21875 62.890625 53.21875 53.421875 
Q 53.21875 48.921875 51.53125 44.890625 
Q 49.859375 40.875 45.40625 35.40625 
Q 44.1875 33.984375 37.640625 27.21875 
Q 31.109375 20.453125 19.1875 8.296875 
z
" id="DejaVuSans-50"/>
      </defs>
      <use xlink:href="#DejaVuSans-69"/>
      <use x="63.183594" xlink:href="#DejaVuSans-108"/>
      <use x="90.966797" xlink:href="#DejaVuSans-115"/>
      <use x="143.066406" xlink:href="#DejaVuSans-101"/>
      <use x="204.589844" xlink:href="#DejaVuSans-119"/>
      <use x="286.376953" xlink:href="#DejaVuSans-104"/>
      <use x="349.755859" xlink:href="#DejaVuSans-101"/>
      <use x="411.279297" xlink:href="#DejaVuSans-114"/>
      <use x="450.142578" xlink:href="#DejaVuSans-101"/>
      <use x="511.666016" xlink:href="#DejaVuSans-32"/>
      <use x="543.453125" xlink:href="#DejaVuSans-105"/>
      <use x="571.236328" xlink:href="#DejaVuSans-110"/>
      <use x="634.615234" xlink:href="#DejaVuSans-32"/>
      <use x="666.402344" xlink:href="#DejaVuSans-78"/>
      <use x="741.207031" xlink:href="#DejaVuSans-89"/>
      <use x="802.291016" xlink:href="#DejaVuSans-32"/>
      <use x="834.078125" xlink:href="#DejaVuSans-45"/>
      <use x="870.162109" xlink:href="#DejaVuSans-32"/>
      <use x="901.949219" xlink:href="#DejaVuSans-50"/>
      <use x="965.572266" xlink:href="#DejaVuSans-46"/>
      <use x="997.359375" xlink:href="#DejaVuSans-48"/>
      <use x="1060.982422" xlink:href="#DejaVuSans-48"/>
      <use x="1124.605469" xlink:href="#DejaVuSans-32"/>
      <use x="1156.392578" xlink:href="#DejaVuSans-37"/>
     </g>
    </g>
   </g>
  </g>
 </g>
</svg>
