<?xml version="1.0" encoding="utf-8" standalone="no"?>
<!DOCTYPE svg PUBLIC "-//W3C//DTD SVG 1.1//EN"
  "http://www.w3.org/Graphics/SVG/1.1/DTD/svg11.dtd">
<!-- Created with matplotlib (https://matplotlib.org/) -->
<svg height="432pt" version="1.1" viewBox="0 0 864 432" width="864pt" xmlns="http://www.w3.org/2000/svg" xmlns:xlink="http://www.w3.org/1999/xlink">
 <metadata>
  <rdf:RDF xmlns:cc="http://creativecommons.org/ns#" xmlns:dc="http://purl.org/dc/elements/1.1/" xmlns:rdf="http://www.w3.org/1999/02/22-rdf-syntax-ns#">
   <cc:Work>
    <dc:type rdf:resource="http://purl.org/dc/dcmitype/StillImage"/>
    <dc:date>2020-11-20T23:12:58.206302</dc:date>
    <dc:format>image/svg+xml</dc:format>
    <dc:creator>
     <cc:Agent>
      <dc:title>Matplotlib v3.3.2, https://matplotlib.org/</dc:title>
     </cc:Agent>
    </dc:creator>
   </cc:Work>
  </rdf:RDF>
 </metadata>
 <defs>
  <style type="text/css">*{stroke-linecap:butt;stroke-linejoin:round;}</style>
 </defs>
 <g id="figure_1">
  <g id="patch_1">
   <path d="M 0 432 
L 864 432 
L 864 0 
L 0 0 
z
" style="fill:#ffffff;"/>
  </g>
  <g id="axes_1">
   <g id="patch_2">
    <path d="M 108 378 
L 777.6 378 
L 777.6 51.84 
L 108 51.84 
z
" style="fill:#eaeaf2;"/>
   </g>
   <g id="matplotlib.axis_1">
    <g id="xtick_1">
     <g id="text_1">
      <!-- Associate's Degree -->
      <g style="fill:#262626;" transform="translate(127.750234 395.373594)scale(0.11 -0.11)">
       <defs>
        <path d="M -0.140625 0 
L 27.34375 71.578125 
L 37.546875 71.578125 
L 66.84375 0 
L 56.0625 0 
L 47.703125 21.6875 
L 17.78125 21.6875 
L 9.90625 0 
z
M 20.515625 29.390625 
L 44.78125 29.390625 
L 37.3125 49.21875 
Q 33.890625 58.25 32.234375 64.0625 
Q 30.859375 57.171875 28.375 50.390625 
z
" id="ArialMT-65"/>
        <path d="M 3.078125 15.484375 
L 11.765625 16.84375 
Q 12.5 11.625 15.84375 8.84375 
Q 19.1875 6.0625 25.203125 6.0625 
Q 31.25 6.0625 34.171875 8.515625 
Q 37.109375 10.984375 37.109375 14.3125 
Q 37.109375 17.28125 34.515625 19 
Q 32.71875 20.171875 25.53125 21.96875 
Q 15.875 24.421875 12.140625 26.203125 
Q 8.40625 27.984375 6.46875 31.125 
Q 4.546875 34.28125 4.546875 38.09375 
Q 4.546875 41.546875 6.125 44.5 
Q 7.71875 47.46875 10.453125 49.421875 
Q 12.5 50.921875 16.03125 51.96875 
Q 19.578125 53.03125 23.640625 53.03125 
Q 29.734375 53.03125 34.34375 51.265625 
Q 38.96875 49.515625 41.15625 46.5 
Q 43.359375 43.5 44.1875 38.484375 
L 35.59375 37.3125 
Q 35.015625 41.3125 32.203125 43.546875 
Q 29.390625 45.796875 24.265625 45.796875 
Q 18.21875 45.796875 15.625 43.796875 
Q 13.03125 41.796875 13.03125 39.109375 
Q 13.03125 37.40625 14.109375 36.03125 
Q 15.1875 34.625 17.484375 33.6875 
Q 18.796875 33.203125 25.25 31.453125 
Q 34.578125 28.953125 38.25 27.359375 
Q 41.9375 25.78125 44.03125 22.75 
Q 46.140625 19.734375 46.140625 15.234375 
Q 46.140625 10.84375 43.578125 6.953125 
Q 41.015625 3.078125 36.171875 0.953125 
Q 31.34375 -1.171875 25.25 -1.171875 
Q 15.140625 -1.171875 9.84375 3.03125 
Q 4.546875 7.234375 3.078125 15.484375 
z
" id="ArialMT-115"/>
        <path d="M 3.328125 25.921875 
Q 3.328125 40.328125 11.328125 47.265625 
Q 18.015625 53.03125 27.640625 53.03125 
Q 38.328125 53.03125 45.109375 46.015625 
Q 51.90625 39.015625 51.90625 26.65625 
Q 51.90625 16.65625 48.90625 10.90625 
Q 45.90625 5.171875 40.15625 2 
Q 34.421875 -1.171875 27.640625 -1.171875 
Q 16.75 -1.171875 10.03125 5.8125 
Q 3.328125 12.796875 3.328125 25.921875 
z
M 12.359375 25.921875 
Q 12.359375 15.96875 16.703125 11.015625 
Q 21.046875 6.0625 27.640625 6.0625 
Q 34.1875 6.0625 38.53125 11.03125 
Q 42.875 16.015625 42.875 26.21875 
Q 42.875 35.84375 38.5 40.796875 
Q 34.125 45.75 27.640625 45.75 
Q 21.046875 45.75 16.703125 40.8125 
Q 12.359375 35.890625 12.359375 25.921875 
z
" id="ArialMT-111"/>
        <path d="M 40.4375 19 
L 49.078125 17.875 
Q 47.65625 8.9375 41.8125 3.875 
Q 35.984375 -1.171875 27.484375 -1.171875 
Q 16.84375 -1.171875 10.375 5.78125 
Q 3.90625 12.75 3.90625 25.734375 
Q 3.90625 34.125 6.6875 40.421875 
Q 9.46875 46.734375 15.15625 49.875 
Q 20.84375 53.03125 27.546875 53.03125 
Q 35.984375 53.03125 41.359375 48.75 
Q 46.734375 44.484375 48.25 36.625 
L 39.703125 35.296875 
Q 38.484375 40.53125 35.375 43.15625 
Q 32.28125 45.796875 27.875 45.796875 
Q 21.234375 45.796875 17.078125 41.03125 
Q 12.9375 36.28125 12.9375 25.984375 
Q 12.9375 15.53125 16.9375 10.796875 
Q 20.953125 6.0625 27.390625 6.0625 
Q 32.5625 6.0625 36.03125 9.234375 
Q 39.5 12.40625 40.4375 19 
z
" id="ArialMT-99"/>
        <path d="M 6.640625 61.46875 
L 6.640625 71.578125 
L 15.4375 71.578125 
L 15.4375 61.46875 
z
M 6.640625 0 
L 6.640625 51.859375 
L 15.4375 51.859375 
L 15.4375 0 
z
" id="ArialMT-105"/>
        <path d="M 40.4375 6.390625 
Q 35.546875 2.25 31.03125 0.53125 
Q 26.515625 -1.171875 21.34375 -1.171875 
Q 12.796875 -1.171875 8.203125 3 
Q 3.609375 7.171875 3.609375 13.671875 
Q 3.609375 17.484375 5.34375 20.625 
Q 7.078125 23.78125 9.890625 25.6875 
Q 12.703125 27.59375 16.21875 28.5625 
Q 18.796875 29.25 24.03125 29.890625 
Q 34.671875 31.15625 39.703125 32.90625 
Q 39.75 34.71875 39.75 35.203125 
Q 39.75 40.578125 37.25 42.78125 
Q 33.890625 45.75 27.25 45.75 
Q 21.046875 45.75 18.09375 43.578125 
Q 15.140625 41.40625 13.71875 35.890625 
L 5.125 37.0625 
Q 6.296875 42.578125 8.984375 45.96875 
Q 11.671875 49.359375 16.75 51.1875 
Q 21.828125 53.03125 28.515625 53.03125 
Q 35.15625 53.03125 39.296875 51.46875 
Q 43.453125 49.90625 45.40625 47.53125 
Q 47.359375 45.171875 48.140625 41.546875 
Q 48.578125 39.3125 48.578125 33.453125 
L 48.578125 21.734375 
Q 48.578125 9.46875 49.140625 6.21875 
Q 49.703125 2.984375 51.375 0 
L 42.1875 0 
Q 40.828125 2.734375 40.4375 6.390625 
z
M 39.703125 26.03125 
Q 34.90625 24.078125 25.34375 22.703125 
Q 19.921875 21.921875 17.671875 20.9375 
Q 15.4375 19.96875 14.203125 18.09375 
Q 12.984375 16.21875 12.984375 13.921875 
Q 12.984375 10.40625 15.640625 8.0625 
Q 18.3125 5.71875 23.4375 5.71875 
Q 28.515625 5.71875 32.46875 7.9375 
Q 36.421875 10.15625 38.28125 14.015625 
Q 39.703125 17 39.703125 22.796875 
z
" id="ArialMT-97"/>
        <path d="M 25.78125 7.859375 
L 27.046875 0.09375 
Q 23.34375 -0.6875 20.40625 -0.6875 
Q 15.625 -0.6875 12.984375 0.828125 
Q 10.359375 2.34375 9.28125 4.8125 
Q 8.203125 7.28125 8.203125 15.1875 
L 8.203125 45.015625 
L 1.765625 45.015625 
L 1.765625 51.859375 
L 8.203125 51.859375 
L 8.203125 64.703125 
L 16.9375 69.96875 
L 16.9375 51.859375 
L 25.78125 51.859375 
L 25.78125 45.015625 
L 16.9375 45.015625 
L 16.9375 14.703125 
Q 16.9375 10.9375 17.40625 9.859375 
Q 17.875 8.796875 18.921875 8.15625 
Q 19.96875 7.515625 21.921875 7.515625 
Q 23.390625 7.515625 25.78125 7.859375 
z
" id="ArialMT-116"/>
        <path d="M 42.09375 16.703125 
L 51.171875 15.578125 
Q 49.03125 7.625 43.21875 3.21875 
Q 37.40625 -1.171875 28.375 -1.171875 
Q 17 -1.171875 10.328125 5.828125 
Q 3.65625 12.84375 3.65625 25.484375 
Q 3.65625 38.578125 10.390625 45.796875 
Q 17.140625 53.03125 27.875 53.03125 
Q 38.28125 53.03125 44.875 45.953125 
Q 51.46875 38.875 51.46875 26.03125 
Q 51.46875 25.25 51.421875 23.6875 
L 12.75 23.6875 
Q 13.234375 15.140625 17.578125 10.59375 
Q 21.921875 6.0625 28.421875 6.0625 
Q 33.25 6.0625 36.671875 8.59375 
Q 40.09375 11.140625 42.09375 16.703125 
z
M 13.234375 30.90625 
L 42.1875 30.90625 
Q 41.609375 37.453125 38.875 40.71875 
Q 34.671875 45.796875 27.984375 45.796875 
Q 21.921875 45.796875 17.796875 41.75 
Q 13.671875 37.703125 13.234375 30.90625 
z
" id="ArialMT-101"/>
        <path d="M 6.640625 46.234375 
L 4.390625 59.625 
L 4.390625 71.578125 
L 14.40625 71.578125 
L 14.40625 59.625 
L 12.0625 46.234375 
z
" id="ArialMT-39"/>
        <path id="ArialMT-32"/>
        <path d="M 7.71875 0 
L 7.71875 71.578125 
L 32.375 71.578125 
Q 40.71875 71.578125 45.125 70.5625 
Q 51.265625 69.140625 55.609375 65.4375 
Q 61.28125 60.640625 64.078125 53.1875 
Q 66.890625 45.75 66.890625 36.1875 
Q 66.890625 28.03125 64.984375 21.734375 
Q 63.09375 15.4375 60.109375 11.296875 
Q 57.125 7.171875 53.578125 4.796875 
Q 50.046875 2.4375 45.046875 1.21875 
Q 40.046875 0 33.546875 0 
z
M 17.1875 8.453125 
L 32.46875 8.453125 
Q 39.546875 8.453125 43.578125 9.765625 
Q 47.609375 11.078125 50 13.484375 
Q 53.375 16.84375 55.25 22.53125 
Q 57.125 28.21875 57.125 36.328125 
Q 57.125 47.5625 53.4375 53.59375 
Q 49.75 59.625 44.484375 61.671875 
Q 40.671875 63.140625 32.234375 63.140625 
L 17.1875 63.140625 
z
" id="ArialMT-68"/>
        <path d="M 4.984375 -4.296875 
L 13.53125 -5.5625 
Q 14.0625 -9.515625 16.5 -11.328125 
Q 19.78125 -13.765625 25.4375 -13.765625 
Q 31.546875 -13.765625 34.859375 -11.328125 
Q 38.1875 -8.890625 39.359375 -4.5 
Q 40.046875 -1.8125 39.984375 6.78125 
Q 34.234375 0 25.640625 0 
Q 14.9375 0 9.078125 7.71875 
Q 3.21875 15.4375 3.21875 26.21875 
Q 3.21875 33.640625 5.90625 39.90625 
Q 8.59375 46.1875 13.6875 49.609375 
Q 18.796875 53.03125 25.6875 53.03125 
Q 34.859375 53.03125 40.828125 45.609375 
L 40.828125 51.859375 
L 48.921875 51.859375 
L 48.921875 7.03125 
Q 48.921875 -5.078125 46.453125 -10.125 
Q 44 -15.1875 38.640625 -18.109375 
Q 33.296875 -21.046875 25.484375 -21.046875 
Q 16.21875 -21.046875 10.5 -16.875 
Q 4.78125 -12.703125 4.984375 -4.296875 
z
M 12.25 26.859375 
Q 12.25 16.65625 16.296875 11.96875 
Q 20.359375 7.28125 26.46875 7.28125 
Q 32.515625 7.28125 36.609375 11.9375 
Q 40.71875 16.609375 40.71875 26.5625 
Q 40.71875 36.078125 36.5 40.90625 
Q 32.28125 45.75 26.3125 45.75 
Q 20.453125 45.75 16.34375 40.984375 
Q 12.25 36.234375 12.25 26.859375 
z
" id="ArialMT-103"/>
        <path d="M 6.5 0 
L 6.5 51.859375 
L 14.40625 51.859375 
L 14.40625 44 
Q 17.4375 49.515625 20 51.265625 
Q 22.5625 53.03125 25.640625 53.03125 
Q 30.078125 53.03125 34.671875 50.203125 
L 31.640625 42.046875 
Q 28.421875 43.953125 25.203125 43.953125 
Q 22.3125 43.953125 20.015625 42.21875 
Q 17.71875 40.484375 16.75 37.40625 
Q 15.28125 32.71875 15.28125 27.15625 
L 15.28125 0 
z
" id="ArialMT-114"/>
       </defs>
       <use xlink:href="#ArialMT-65"/>
       <use x="66.699219" xlink:href="#ArialMT-115"/>
       <use x="116.699219" xlink:href="#ArialMT-115"/>
       <use x="166.699219" xlink:href="#ArialMT-111"/>
       <use x="222.314453" xlink:href="#ArialMT-99"/>
       <use x="272.314453" xlink:href="#ArialMT-105"/>
       <use x="294.53125" xlink:href="#ArialMT-97"/>
       <use x="350.146484" xlink:href="#ArialMT-116"/>
       <use x="377.929688" xlink:href="#ArialMT-101"/>
       <use x="433.544922" xlink:href="#ArialMT-39"/>
       <use x="452.636719" xlink:href="#ArialMT-115"/>
       <use x="502.636719" xlink:href="#ArialMT-32"/>
       <use x="530.419922" xlink:href="#ArialMT-68"/>
       <use x="602.636719" xlink:href="#ArialMT-101"/>
       <use x="658.251953" xlink:href="#ArialMT-103"/>
       <use x="713.867188" xlink:href="#ArialMT-114"/>
       <use x="747.167969" xlink:href="#ArialMT-101"/>
       <use x="802.783203" xlink:href="#ArialMT-101"/>
      </g>
     </g>
    </g>
    <g id="xtick_2">
     <g id="text_2">
      <!-- Bachelor's Degree -->
      <g style="fill:#262626;" transform="translate(263.808359 395.373594)scale(0.11 -0.11)">
       <defs>
        <path d="M 7.328125 0 
L 7.328125 71.578125 
L 34.1875 71.578125 
Q 42.390625 71.578125 47.34375 69.40625 
Q 52.296875 67.234375 55.09375 62.71875 
Q 57.90625 58.203125 57.90625 53.265625 
Q 57.90625 48.6875 55.421875 44.625 
Q 52.9375 40.578125 47.90625 38.09375 
Q 54.390625 36.1875 57.875 31.59375 
Q 61.375 27 61.375 20.75 
Q 61.375 15.71875 59.25 11.390625 
Q 57.125 7.078125 54 4.734375 
Q 50.875 2.390625 46.15625 1.1875 
Q 41.453125 0 34.625 0 
z
M 16.796875 41.5 
L 32.28125 41.5 
Q 38.578125 41.5 41.3125 42.328125 
Q 44.921875 43.40625 46.75 45.890625 
Q 48.578125 48.390625 48.578125 52.15625 
Q 48.578125 55.71875 46.875 58.421875 
Q 45.171875 61.140625 41.984375 62.140625 
Q 38.8125 63.140625 31.109375 63.140625 
L 16.796875 63.140625 
z
M 16.796875 8.453125 
L 34.625 8.453125 
Q 39.203125 8.453125 41.0625 8.796875 
Q 44.34375 9.375 46.53125 10.734375 
Q 48.734375 12.109375 50.140625 14.71875 
Q 51.5625 17.328125 51.5625 20.75 
Q 51.5625 24.75 49.515625 27.703125 
Q 47.46875 30.671875 43.828125 31.859375 
Q 40.1875 33.0625 33.34375 33.0625 
L 16.796875 33.0625 
z
" id="ArialMT-66"/>
        <path d="M 6.59375 0 
L 6.59375 71.578125 
L 15.375 71.578125 
L 15.375 45.90625 
Q 21.53125 53.03125 30.90625 53.03125 
Q 36.671875 53.03125 40.921875 50.75 
Q 45.171875 48.484375 47 44.484375 
Q 48.828125 40.484375 48.828125 32.859375 
L 48.828125 0 
L 40.046875 0 
L 40.046875 32.859375 
Q 40.046875 39.453125 37.1875 42.453125 
Q 34.328125 45.453125 29.109375 45.453125 
Q 25.203125 45.453125 21.75 43.421875 
Q 18.3125 41.40625 16.84375 37.9375 
Q 15.375 34.46875 15.375 28.375 
L 15.375 0 
z
" id="ArialMT-104"/>
        <path d="M 6.390625 0 
L 6.390625 71.578125 
L 15.1875 71.578125 
L 15.1875 0 
z
" id="ArialMT-108"/>
       </defs>
       <use xlink:href="#ArialMT-66"/>
       <use x="66.699219" xlink:href="#ArialMT-97"/>
       <use x="122.314453" xlink:href="#ArialMT-99"/>
       <use x="172.314453" xlink:href="#ArialMT-104"/>
       <use x="227.929688" xlink:href="#ArialMT-101"/>
       <use x="283.544922" xlink:href="#ArialMT-108"/>
       <use x="305.761719" xlink:href="#ArialMT-111"/>
       <use x="361.376953" xlink:href="#ArialMT-114"/>
       <use x="394.677734" xlink:href="#ArialMT-39"/>
       <use x="413.769531" xlink:href="#ArialMT-115"/>
       <use x="463.769531" xlink:href="#ArialMT-32"/>
       <use x="491.552734" xlink:href="#ArialMT-68"/>
       <use x="563.769531" xlink:href="#ArialMT-101"/>
       <use x="619.384766" xlink:href="#ArialMT-103"/>
       <use x="675" xlink:href="#ArialMT-114"/>
       <use x="708.300781" xlink:href="#ArialMT-101"/>
       <use x="763.916016" xlink:href="#ArialMT-101"/>
      </g>
     </g>
    </g>
    <g id="xtick_3">
     <g id="text_3">
      <!-- High School -->
      <g style="fill:#262626;" transform="translate(413.144688 395.507656)scale(0.11 -0.11)">
       <defs>
        <path d="M 8.015625 0 
L 8.015625 71.578125 
L 17.484375 71.578125 
L 17.484375 42.1875 
L 54.6875 42.1875 
L 54.6875 71.578125 
L 64.15625 71.578125 
L 64.15625 0 
L 54.6875 0 
L 54.6875 33.734375 
L 17.484375 33.734375 
L 17.484375 0 
z
" id="ArialMT-72"/>
        <path d="M 4.5 23 
L 13.421875 23.78125 
Q 14.0625 18.40625 16.375 14.96875 
Q 18.703125 11.53125 23.578125 9.40625 
Q 28.46875 7.28125 34.578125 7.28125 
Q 39.984375 7.28125 44.140625 8.890625 
Q 48.296875 10.5 50.3125 13.296875 
Q 52.34375 16.109375 52.34375 19.4375 
Q 52.34375 22.796875 50.390625 25.3125 
Q 48.4375 27.828125 43.953125 29.546875 
Q 41.0625 30.671875 31.203125 33.03125 
Q 21.34375 35.40625 17.390625 37.5 
Q 12.25 40.1875 9.734375 44.15625 
Q 7.234375 48.140625 7.234375 53.078125 
Q 7.234375 58.5 10.296875 63.203125 
Q 13.375 67.921875 19.28125 70.359375 
Q 25.203125 72.796875 32.421875 72.796875 
Q 40.375 72.796875 46.453125 70.234375 
Q 52.546875 67.671875 55.8125 62.6875 
Q 59.078125 57.71875 59.328125 51.421875 
L 50.25 50.734375 
Q 49.515625 57.515625 45.28125 60.984375 
Q 41.0625 64.453125 32.8125 64.453125 
Q 24.21875 64.453125 20.28125 61.296875 
Q 16.359375 58.15625 16.359375 53.71875 
Q 16.359375 49.859375 19.140625 47.359375 
Q 21.875 44.875 33.421875 42.265625 
Q 44.96875 39.65625 49.265625 37.703125 
Q 55.515625 34.8125 58.484375 30.390625 
Q 61.46875 25.984375 61.46875 20.21875 
Q 61.46875 14.5 58.203125 9.4375 
Q 54.9375 4.390625 48.796875 1.578125 
Q 42.671875 -1.21875 35.015625 -1.21875 
Q 25.296875 -1.21875 18.71875 1.609375 
Q 12.15625 4.4375 8.421875 10.125 
Q 4.6875 15.828125 4.5 23 
z
" id="ArialMT-83"/>
       </defs>
       <use xlink:href="#ArialMT-72"/>
       <use x="72.216797" xlink:href="#ArialMT-105"/>
       <use x="94.433594" xlink:href="#ArialMT-103"/>
       <use x="150.048828" xlink:href="#ArialMT-104"/>
       <use x="205.664062" xlink:href="#ArialMT-32"/>
       <use x="233.447266" xlink:href="#ArialMT-83"/>
       <use x="300.146484" xlink:href="#ArialMT-99"/>
       <use x="350.146484" xlink:href="#ArialMT-104"/>
       <use x="405.761719" xlink:href="#ArialMT-111"/>
       <use x="461.376953" xlink:href="#ArialMT-111"/>
       <use x="516.992188" xlink:href="#ArialMT-108"/>
      </g>
     </g>
    </g>
    <g id="xtick_4">
     <g id="text_4">
      <!-- Master's or Professional Degree -->
      <g style="fill:#262626;" transform="translate(498.336406 395.507656)scale(0.11 -0.11)">
       <defs>
        <path d="M 7.421875 0 
L 7.421875 71.578125 
L 21.6875 71.578125 
L 38.625 20.90625 
Q 40.96875 13.8125 42.046875 10.296875 
Q 43.265625 14.203125 45.84375 21.78125 
L 62.984375 71.578125 
L 75.734375 71.578125 
L 75.734375 0 
L 66.609375 0 
L 66.609375 59.90625 
L 45.796875 0 
L 37.25 0 
L 16.546875 60.9375 
L 16.546875 0 
z
" id="ArialMT-77"/>
        <path d="M 7.71875 0 
L 7.71875 71.578125 
L 34.71875 71.578125 
Q 41.84375 71.578125 45.609375 70.90625 
Q 50.875 70.015625 54.4375 67.546875 
Q 58.015625 65.09375 60.1875 60.640625 
Q 62.359375 56.203125 62.359375 50.875 
Q 62.359375 41.75 56.546875 35.421875 
Q 50.734375 29.109375 35.546875 29.109375 
L 17.1875 29.109375 
L 17.1875 0 
z
M 17.1875 37.546875 
L 35.6875 37.546875 
Q 44.875 37.546875 48.734375 40.96875 
Q 52.59375 44.390625 52.59375 50.59375 
Q 52.59375 55.078125 50.3125 58.265625 
Q 48.046875 61.46875 44.34375 62.5 
Q 41.9375 63.140625 35.5 63.140625 
L 17.1875 63.140625 
z
" id="ArialMT-80"/>
        <path d="M 8.6875 0 
L 8.6875 45.015625 
L 0.921875 45.015625 
L 0.921875 51.859375 
L 8.6875 51.859375 
L 8.6875 57.375 
Q 8.6875 62.59375 9.625 65.140625 
Q 10.890625 68.5625 14.078125 70.671875 
Q 17.28125 72.796875 23.046875 72.796875 
Q 26.765625 72.796875 31.25 71.921875 
L 29.9375 64.265625 
Q 27.203125 64.75 24.75 64.75 
Q 20.75 64.75 19.09375 63.03125 
Q 17.4375 61.328125 17.4375 56.640625 
L 17.4375 51.859375 
L 27.546875 51.859375 
L 27.546875 45.015625 
L 17.4375 45.015625 
L 17.4375 0 
z
" id="ArialMT-102"/>
        <path d="M 6.59375 0 
L 6.59375 51.859375 
L 14.5 51.859375 
L 14.5 44.484375 
Q 20.21875 53.03125 31 53.03125 
Q 35.6875 53.03125 39.625 51.34375 
Q 43.5625 49.65625 45.515625 46.921875 
Q 47.46875 44.1875 48.25 40.4375 
Q 48.734375 37.984375 48.734375 31.890625 
L 48.734375 0 
L 39.9375 0 
L 39.9375 31.546875 
Q 39.9375 36.921875 38.90625 39.578125 
Q 37.890625 42.234375 35.28125 43.8125 
Q 32.671875 45.40625 29.15625 45.40625 
Q 23.53125 45.40625 19.453125 41.84375 
Q 15.375 38.28125 15.375 28.328125 
L 15.375 0 
z
" id="ArialMT-110"/>
       </defs>
       <use xlink:href="#ArialMT-77"/>
       <use x="83.300781" xlink:href="#ArialMT-97"/>
       <use x="138.916016" xlink:href="#ArialMT-115"/>
       <use x="188.916016" xlink:href="#ArialMT-116"/>
       <use x="216.699219" xlink:href="#ArialMT-101"/>
       <use x="272.314453" xlink:href="#ArialMT-114"/>
       <use x="305.615234" xlink:href="#ArialMT-39"/>
       <use x="324.707031" xlink:href="#ArialMT-115"/>
       <use x="374.707031" xlink:href="#ArialMT-32"/>
       <use x="402.490234" xlink:href="#ArialMT-111"/>
       <use x="458.105469" xlink:href="#ArialMT-114"/>
       <use x="491.40625" xlink:href="#ArialMT-32"/>
       <use x="519.189453" xlink:href="#ArialMT-80"/>
       <use x="585.888672" xlink:href="#ArialMT-114"/>
       <use x="619.189453" xlink:href="#ArialMT-111"/>
       <use x="674.804688" xlink:href="#ArialMT-102"/>
       <use x="702.587891" xlink:href="#ArialMT-101"/>
       <use x="758.203125" xlink:href="#ArialMT-115"/>
       <use x="808.203125" xlink:href="#ArialMT-115"/>
       <use x="858.203125" xlink:href="#ArialMT-105"/>
       <use x="880.419922" xlink:href="#ArialMT-111"/>
       <use x="936.035156" xlink:href="#ArialMT-110"/>
       <use x="991.650391" xlink:href="#ArialMT-97"/>
       <use x="1047.265625" xlink:href="#ArialMT-108"/>
       <use x="1069.482422" xlink:href="#ArialMT-32"/>
       <use x="1097.265625" xlink:href="#ArialMT-68"/>
       <use x="1169.482422" xlink:href="#ArialMT-101"/>
       <use x="1225.097656" xlink:href="#ArialMT-103"/>
       <use x="1280.712891" xlink:href="#ArialMT-114"/>
       <use x="1314.013672" xlink:href="#ArialMT-101"/>
       <use x="1369.628906" xlink:href="#ArialMT-101"/>
      </g>
     </g>
    </g>
    <g id="xtick_5">
     <g id="text_5">
      <!-- PhD -->
      <g style="fill:#262626;" transform="translate(699.940781 395.373594)scale(0.11 -0.11)">
       <use xlink:href="#ArialMT-80"/>
       <use x="66.699219" xlink:href="#ArialMT-104"/>
       <use x="122.314453" xlink:href="#ArialMT-68"/>
      </g>
     </g>
    </g>
    <g id="text_6">
     <!-- Education -->
     <g style="fill:#262626;" transform="translate(416.115 410.412188)scale(0.12 -0.12)">
      <defs>
       <path d="M 7.90625 0 
L 7.90625 71.578125 
L 59.671875 71.578125 
L 59.671875 63.140625 
L 17.390625 63.140625 
L 17.390625 41.21875 
L 56.984375 41.21875 
L 56.984375 32.8125 
L 17.390625 32.8125 
L 17.390625 8.453125 
L 61.328125 8.453125 
L 61.328125 0 
z
" id="ArialMT-69"/>
       <path d="M 40.234375 0 
L 40.234375 6.546875 
Q 35.296875 -1.171875 25.734375 -1.171875 
Q 19.53125 -1.171875 14.328125 2.25 
Q 9.125 5.671875 6.265625 11.796875 
Q 3.421875 17.921875 3.421875 25.875 
Q 3.421875 33.640625 6 39.96875 
Q 8.59375 46.296875 13.765625 49.65625 
Q 18.953125 53.03125 25.34375 53.03125 
Q 30.03125 53.03125 33.6875 51.046875 
Q 37.359375 49.078125 39.65625 45.90625 
L 39.65625 71.578125 
L 48.390625 71.578125 
L 48.390625 0 
z
M 12.453125 25.875 
Q 12.453125 15.921875 16.640625 10.984375 
Q 20.84375 6.0625 26.5625 6.0625 
Q 32.328125 6.0625 36.34375 10.765625 
Q 40.375 15.484375 40.375 25.140625 
Q 40.375 35.796875 36.265625 40.765625 
Q 32.171875 45.75 26.171875 45.75 
Q 20.3125 45.75 16.375 40.96875 
Q 12.453125 36.1875 12.453125 25.875 
z
" id="ArialMT-100"/>
       <path d="M 40.578125 0 
L 40.578125 7.625 
Q 34.515625 -1.171875 24.125 -1.171875 
Q 19.53125 -1.171875 15.546875 0.578125 
Q 11.578125 2.34375 9.640625 5 
Q 7.71875 7.671875 6.9375 11.53125 
Q 6.390625 14.109375 6.390625 19.734375 
L 6.390625 51.859375 
L 15.1875 51.859375 
L 15.1875 23.09375 
Q 15.1875 16.21875 15.71875 13.8125 
Q 16.546875 10.359375 19.234375 8.375 
Q 21.921875 6.390625 25.875 6.390625 
Q 29.828125 6.390625 33.296875 8.421875 
Q 36.765625 10.453125 38.203125 13.9375 
Q 39.65625 17.4375 39.65625 24.078125 
L 39.65625 51.859375 
L 48.4375 51.859375 
L 48.4375 0 
z
" id="ArialMT-117"/>
      </defs>
      <use xlink:href="#ArialMT-69"/>
      <use x="66.699219" xlink:href="#ArialMT-100"/>
      <use x="122.314453" xlink:href="#ArialMT-117"/>
      <use x="177.929688" xlink:href="#ArialMT-99"/>
      <use x="227.929688" xlink:href="#ArialMT-97"/>
      <use x="283.544922" xlink:href="#ArialMT-116"/>
      <use x="311.328125" xlink:href="#ArialMT-105"/>
      <use x="333.544922" xlink:href="#ArialMT-111"/>
      <use x="389.160156" xlink:href="#ArialMT-110"/>
     </g>
    </g>
   </g>
   <g id="matplotlib.axis_2">
    <g id="ytick_1">
     <g id="line2d_1">
      <path clip-path="url(#p8f1f04223a)" d="M 108 363.174545 
L 777.6 363.174545 
" style="fill:none;stroke:#ffffff;stroke-linecap:round;"/>
     </g>
     <g id="text_7">
      <!-- 50 -->
      <g style="fill:#262626;" transform="translate(86.265938 367.111342)scale(0.11 -0.11)">
       <defs>
        <path d="M 4.15625 18.75 
L 13.375 19.53125 
Q 14.40625 12.796875 18.140625 9.390625 
Q 21.875 6 27.15625 6 
Q 33.5 6 37.890625 10.78125 
Q 42.28125 15.578125 42.28125 23.484375 
Q 42.28125 31 38.0625 35.34375 
Q 33.84375 39.703125 27 39.703125 
Q 22.75 39.703125 19.328125 37.765625 
Q 15.921875 35.84375 13.96875 32.765625 
L 5.71875 33.84375 
L 12.640625 70.609375 
L 48.25 70.609375 
L 48.25 62.203125 
L 19.671875 62.203125 
L 15.828125 42.96875 
Q 22.265625 47.46875 29.34375 47.46875 
Q 38.71875 47.46875 45.15625 40.96875 
Q 51.609375 34.46875 51.609375 24.265625 
Q 51.609375 14.546875 45.953125 7.46875 
Q 39.0625 -1.21875 27.15625 -1.21875 
Q 17.390625 -1.21875 11.203125 4.25 
Q 5.03125 9.71875 4.15625 18.75 
z
" id="ArialMT-53"/>
        <path d="M 4.15625 35.296875 
Q 4.15625 48 6.765625 55.734375 
Q 9.375 63.484375 14.515625 67.671875 
Q 19.671875 71.875 27.484375 71.875 
Q 33.25 71.875 37.59375 69.546875 
Q 41.9375 67.234375 44.765625 62.859375 
Q 47.609375 58.5 49.21875 52.21875 
Q 50.828125 45.953125 50.828125 35.296875 
Q 50.828125 22.703125 48.234375 14.96875 
Q 45.65625 7.234375 40.5 3 
Q 35.359375 -1.21875 27.484375 -1.21875 
Q 17.140625 -1.21875 11.234375 6.203125 
Q 4.15625 15.140625 4.15625 35.296875 
z
M 13.1875 35.296875 
Q 13.1875 17.671875 17.3125 11.828125 
Q 21.4375 6 27.484375 6 
Q 33.546875 6 37.671875 11.859375 
Q 41.796875 17.71875 41.796875 35.296875 
Q 41.796875 52.984375 37.671875 58.78125 
Q 33.546875 64.59375 27.390625 64.59375 
Q 21.34375 64.59375 17.71875 59.46875 
Q 13.1875 52.9375 13.1875 35.296875 
z
" id="ArialMT-48"/>
       </defs>
       <use xlink:href="#ArialMT-53"/>
       <use x="55.615234" xlink:href="#ArialMT-48"/>
      </g>
     </g>
    </g>
    <g id="ytick_2">
     <g id="line2d_2">
      <path clip-path="url(#p8f1f04223a)" d="M 108 298.716047 
L 777.6 298.716047 
" style="fill:none;stroke:#ffffff;stroke-linecap:round;"/>
     </g>
     <g id="text_8">
      <!-- 100 -->
      <g style="fill:#262626;" transform="translate(80.148906 302.652844)scale(0.11 -0.11)">
       <defs>
        <path d="M 37.25 0 
L 28.46875 0 
L 28.46875 56 
Q 25.296875 52.984375 20.140625 49.953125 
Q 14.984375 46.921875 10.890625 45.40625 
L 10.890625 53.90625 
Q 18.265625 57.375 23.78125 62.296875 
Q 29.296875 67.234375 31.59375 71.875 
L 37.25 71.875 
z
" id="ArialMT-49"/>
       </defs>
       <use xlink:href="#ArialMT-49"/>
       <use x="55.615234" xlink:href="#ArialMT-48"/>
       <use x="111.230469" xlink:href="#ArialMT-48"/>
      </g>
     </g>
    </g>
    <g id="ytick_3">
     <g id="line2d_3">
      <path clip-path="url(#p8f1f04223a)" d="M 108 234.257549 
L 777.6 234.257549 
" style="fill:none;stroke:#ffffff;stroke-linecap:round;"/>
     </g>
     <g id="text_9">
      <!-- 150 -->
      <g style="fill:#262626;" transform="translate(80.148906 238.194346)scale(0.11 -0.11)">
       <use xlink:href="#ArialMT-49"/>
       <use x="55.615234" xlink:href="#ArialMT-53"/>
       <use x="111.230469" xlink:href="#ArialMT-48"/>
      </g>
     </g>
    </g>
    <g id="ytick_4">
     <g id="line2d_4">
      <path clip-path="url(#p8f1f04223a)" d="M 108 169.799051 
L 777.6 169.799051 
" style="fill:none;stroke:#ffffff;stroke-linecap:round;"/>
     </g>
     <g id="text_10">
      <!-- 200 -->
      <g style="fill:#262626;" transform="translate(80.148906 173.735848)scale(0.11 -0.11)">
       <defs>
        <path d="M 50.34375 8.453125 
L 50.34375 0 
L 3.03125 0 
Q 2.9375 3.171875 4.046875 6.109375 
Q 5.859375 10.9375 9.828125 15.625 
Q 13.8125 20.3125 21.34375 26.46875 
Q 33.015625 36.03125 37.109375 41.625 
Q 41.21875 47.21875 41.21875 52.203125 
Q 41.21875 57.421875 37.46875 61 
Q 33.734375 64.59375 27.734375 64.59375 
Q 21.390625 64.59375 17.578125 60.78125 
Q 13.765625 56.984375 13.71875 50.25 
L 4.6875 51.171875 
Q 5.609375 61.28125 11.65625 66.578125 
Q 17.71875 71.875 27.9375 71.875 
Q 38.234375 71.875 44.234375 66.15625 
Q 50.25 60.453125 50.25 52 
Q 50.25 47.703125 48.484375 43.546875 
Q 46.734375 39.40625 42.65625 34.8125 
Q 38.578125 30.21875 29.109375 22.21875 
Q 21.1875 15.578125 18.9375 13.203125 
Q 16.703125 10.84375 15.234375 8.453125 
z
" id="ArialMT-50"/>
       </defs>
       <use xlink:href="#ArialMT-50"/>
       <use x="55.615234" xlink:href="#ArialMT-48"/>
       <use x="111.230469" xlink:href="#ArialMT-48"/>
      </g>
     </g>
    </g>
    <g id="ytick_5">
     <g id="line2d_5">
      <path clip-path="url(#p8f1f04223a)" d="M 108 105.340553 
L 777.6 105.340553 
" style="fill:none;stroke:#ffffff;stroke-linecap:round;"/>
     </g>
     <g id="text_11">
      <!-- 250 -->
      <g style="fill:#262626;" transform="translate(80.148906 109.27735)scale(0.11 -0.11)">
       <use xlink:href="#ArialMT-50"/>
       <use x="55.615234" xlink:href="#ArialMT-53"/>
       <use x="111.230469" xlink:href="#ArialMT-48"/>
      </g>
     </g>
    </g>
    <g id="text_12">
     <!-- Annual income (thousands) -->
     <g style="fill:#262626;" transform="translate(73.623281 287.957812)rotate(-90)scale(0.12 -0.12)">
      <defs>
       <path d="M 6.59375 0 
L 6.59375 51.859375 
L 14.453125 51.859375 
L 14.453125 44.578125 
Q 16.890625 48.390625 20.9375 50.703125 
Q 25 53.03125 30.171875 53.03125 
Q 35.9375 53.03125 39.625 50.640625 
Q 43.3125 48.25 44.828125 43.953125 
Q 50.984375 53.03125 60.84375 53.03125 
Q 68.5625 53.03125 72.703125 48.75 
Q 76.859375 44.484375 76.859375 35.59375 
L 76.859375 0 
L 68.109375 0 
L 68.109375 32.671875 
Q 68.109375 37.9375 67.25 40.25 
Q 66.40625 42.578125 64.15625 43.984375 
Q 61.921875 45.40625 58.890625 45.40625 
Q 53.421875 45.40625 49.796875 41.765625 
Q 46.1875 38.140625 46.1875 30.125 
L 46.1875 0 
L 37.40625 0 
L 37.40625 33.6875 
Q 37.40625 39.546875 35.25 42.46875 
Q 33.109375 45.40625 28.21875 45.40625 
Q 24.515625 45.40625 21.359375 43.453125 
Q 18.21875 41.5 16.796875 37.734375 
Q 15.375 33.984375 15.375 26.90625 
L 15.375 0 
z
" id="ArialMT-109"/>
       <path d="M 23.390625 -21.046875 
Q 16.109375 -11.859375 11.078125 0.4375 
Q 6.0625 12.75 6.0625 25.921875 
Q 6.0625 37.546875 9.8125 48.1875 
Q 14.203125 60.546875 23.390625 72.796875 
L 29.6875 72.796875 
Q 23.78125 62.640625 21.875 58.296875 
Q 18.890625 51.5625 17.1875 44.234375 
Q 15.09375 35.109375 15.09375 25.875 
Q 15.09375 2.390625 29.6875 -21.046875 
z
" id="ArialMT-40"/>
       <path d="M 12.359375 -21.046875 
L 6.0625 -21.046875 
Q 20.65625 2.390625 20.65625 25.875 
Q 20.65625 35.0625 18.5625 44.09375 
Q 16.890625 51.421875 13.921875 58.15625 
Q 12.015625 62.546875 6.0625 72.796875 
L 12.359375 72.796875 
Q 21.53125 60.546875 25.921875 48.1875 
Q 29.6875 37.546875 29.6875 25.921875 
Q 29.6875 12.75 24.625 0.4375 
Q 19.578125 -11.859375 12.359375 -21.046875 
z
" id="ArialMT-41"/>
      </defs>
      <use xlink:href="#ArialMT-65"/>
      <use x="66.699219" xlink:href="#ArialMT-110"/>
      <use x="122.314453" xlink:href="#ArialMT-110"/>
      <use x="177.929688" xlink:href="#ArialMT-117"/>
      <use x="233.544922" xlink:href="#ArialMT-97"/>
      <use x="289.160156" xlink:href="#ArialMT-108"/>
      <use x="311.376953" xlink:href="#ArialMT-32"/>
      <use x="339.160156" xlink:href="#ArialMT-105"/>
      <use x="361.376953" xlink:href="#ArialMT-110"/>
      <use x="416.992188" xlink:href="#ArialMT-99"/>
      <use x="466.992188" xlink:href="#ArialMT-111"/>
      <use x="522.607422" xlink:href="#ArialMT-109"/>
      <use x="605.908203" xlink:href="#ArialMT-101"/>
      <use x="661.523438" xlink:href="#ArialMT-32"/>
      <use x="689.306641" xlink:href="#ArialMT-40"/>
      <use x="722.607422" xlink:href="#ArialMT-116"/>
      <use x="750.390625" xlink:href="#ArialMT-104"/>
      <use x="806.005859" xlink:href="#ArialMT-111"/>
      <use x="861.621094" xlink:href="#ArialMT-117"/>
      <use x="917.236328" xlink:href="#ArialMT-115"/>
      <use x="967.236328" xlink:href="#ArialMT-97"/>
      <use x="1022.851562" xlink:href="#ArialMT-110"/>
      <use x="1078.466797" xlink:href="#ArialMT-100"/>
      <use x="1134.082031" xlink:href="#ArialMT-115"/>
      <use x="1184.082031" xlink:href="#ArialMT-41"/>
     </g>
    </g>
   </g>
   <g id="PolyCollection_1">
    <defs>
     <path d="M 176.209605 -111.368063 
L 173.710395 -111.368063 
L 173.710044 -112.370751 
L 173.71128 -113.373439 
L 173.714078 -114.376126 
L 173.718404 -115.378814 
L 173.72422 -116.381502 
L 173.731474 -117.38419 
L 173.740111 -118.386877 
L 173.750066 -119.389565 
L 173.761268 -120.392253 
L 173.773637 -121.394941 
L 173.787088 -122.397628 
L 173.801529 -123.400316 
L 173.816863 -124.403004 
L 173.832987 -125.405692 
L 173.849792 -126.408379 
L 173.867165 -127.411067 
L 173.884992 -128.413755 
L 173.903151 -129.416443 
L 173.92152 -130.41913 
L 173.939974 -131.421818 
L 173.958388 -132.424506 
L 173.976633 -133.427194 
L 173.994582 -134.429881 
L 174.012107 -135.432569 
L 174.029081 -136.435257 
L 174.045378 -137.437945 
L 174.060874 -138.440632 
L 174.075448 -139.44332 
L 174.088982 -140.446008 
L 174.10136 -141.448696 
L 174.112472 -142.451383 
L 174.12221 -143.454071 
L 174.130475 -144.456759 
L 174.13717 -145.459447 
L 174.142204 -146.462134 
L 174.145494 -147.464822 
L 174.146964 -148.46751 
L 174.146543 -149.470198 
L 174.144169 -150.472885 
L 174.139787 -151.475573 
L 174.13335 -152.478261 
L 174.124821 -153.480949 
L 174.11417 -154.483636 
L 174.101376 -155.486324 
L 174.086426 -156.489012 
L 174.06932 -157.4917 
L 174.050063 -158.494387 
L 174.028671 -159.497075 
L 174.00517 -160.499763 
L 173.979596 -161.502451 
L 173.951994 -162.505138 
L 173.922416 -163.507826 
L 173.890929 -164.510514 
L 173.857604 -165.513202 
L 173.822523 -166.515889 
L 173.78578 -167.518577 
L 173.747472 -168.521265 
L 173.70771 -169.523953 
L 173.66661 -170.52664 
L 173.624296 -171.529328 
L 173.580901 -172.532016 
L 173.536565 -173.534704 
L 173.491432 -174.537391 
L 173.445654 -175.540079 
L 173.399388 -176.542767 
L 173.352795 -177.545455 
L 173.306043 -178.548142 
L 173.259298 -179.55083 
L 173.212734 -180.553518 
L 173.166524 -181.556206 
L 173.120843 -182.558893 
L 173.075866 -183.561581 
L 173.031767 -184.564269 
L 172.988719 -185.566957 
L 172.946894 -186.569644 
L 172.90646 -187.572332 
L 172.86758 -188.57502 
L 172.830414 -189.577708 
L 172.795115 -190.580395 
L 172.761831 -191.583083 
L 172.730703 -192.585771 
L 172.701861 -193.588458 
L 172.67543 -194.591146 
L 172.651525 -195.593834 
L 172.630249 -196.596522 
L 172.611698 -197.599209 
L 172.595953 -198.601897 
L 172.583088 -199.604585 
L 172.573161 -200.607273 
L 172.566221 -201.60996 
L 172.562304 -202.612648 
L 172.561433 -203.615336 
L 172.563618 -204.618024 
L 172.568858 -205.620711 
L 172.577139 -206.623399 
L 172.588433 -207.626087 
L 172.602703 -208.628775 
L 172.619898 -209.631462 
L 172.639957 -210.63415 
L 177.280043 -210.63415 
L 177.280043 -210.63415 
L 177.300102 -209.631462 
L 177.317297 -208.628775 
L 177.331567 -207.626087 
L 177.342861 -206.623399 
L 177.351142 -205.620711 
L 177.356382 -204.618024 
L 177.358567 -203.615336 
L 177.357696 -202.612648 
L 177.353779 -201.60996 
L 177.346839 -200.607273 
L 177.336912 -199.604585 
L 177.324047 -198.601897 
L 177.308302 -197.599209 
L 177.289751 -196.596522 
L 177.268475 -195.593834 
L 177.24457 -194.591146 
L 177.218139 -193.588458 
L 177.189297 -192.585771 
L 177.158169 -191.583083 
L 177.124885 -190.580395 
L 177.089586 -189.577708 
L 177.05242 -188.57502 
L 177.01354 -187.572332 
L 176.973106 -186.569644 
L 176.931281 -185.566957 
L 176.888233 -184.564269 
L 176.844134 -183.561581 
L 176.799157 -182.558893 
L 176.753476 -181.556206 
L 176.707266 -180.553518 
L 176.660702 -179.55083 
L 176.613957 -178.548142 
L 176.567205 -177.545455 
L 176.520612 -176.542767 
L 176.474346 -175.540079 
L 176.428568 -174.537391 
L 176.383435 -173.534704 
L 176.339099 -172.532016 
L 176.295704 -171.529328 
L 176.25339 -170.52664 
L 176.21229 -169.523953 
L 176.172528 -168.521265 
L 176.13422 -167.518577 
L 176.097477 -166.515889 
L 176.062396 -165.513202 
L 176.029071 -164.510514 
L 175.997584 -163.507826 
L 175.968006 -162.505138 
L 175.940404 -161.502451 
L 175.91483 -160.499763 
L 175.891329 -159.497075 
L 175.869937 -158.494387 
L 175.85068 -157.4917 
L 175.833574 -156.489012 
L 175.818624 -155.486324 
L 175.80583 -154.483636 
L 175.795179 -153.480949 
L 175.78665 -152.478261 
L 175.780213 -151.475573 
L 175.775831 -150.472885 
L 175.773457 -149.470198 
L 175.773036 -148.46751 
L 175.774506 -147.464822 
L 175.777796 -146.462134 
L 175.78283 -145.459447 
L 175.789525 -144.456759 
L 175.79779 -143.454071 
L 175.807528 -142.451383 
L 175.81864 -141.448696 
L 175.831018 -140.446008 
L 175.844552 -139.44332 
L 175.859126 -138.440632 
L 175.874622 -137.437945 
L 175.890919 -136.435257 
L 175.907893 -135.432569 
L 175.925418 -134.429881 
L 175.943367 -133.427194 
L 175.961612 -132.424506 
L 175.980026 -131.421818 
L 175.99848 -130.41913 
L 176.016849 -129.416443 
L 176.035008 -128.413755 
L 176.052835 -127.411067 
L 176.070208 -126.408379 
L 176.087013 -125.405692 
L 176.103137 -124.403004 
L 176.118471 -123.400316 
L 176.132912 -122.397628 
L 176.146363 -121.394941 
L 176.158732 -120.392253 
L 176.169934 -119.389565 
L 176.179889 -118.386877 
L 176.188526 -117.38419 
L 176.19578 -116.381502 
L 176.201596 -115.378814 
L 176.205922 -114.376126 
L 176.20872 -113.373439 
L 176.209956 -112.370751 
L 176.209605 -111.368063 
z
" id="md3bcb41788" style="stroke:#4c4c4c;stroke-width:1.5;"/>
    </defs>
    <g clip-path="url(#p8f1f04223a)">
     <use style="fill:#5875a4;stroke:#4c4c4c;stroke-width:1.5;" x="0" xlink:href="#md3bcb41788" y="432"/>
    </g>
   </g>
   <g id="PolyCollection_2">
    <defs>
     <path d="M 327.502013 -68.825455 
L 290.257987 -68.825455 
L 288.375647 -71.820496 
L 286.440498 -74.815537 
L 284.467691 -77.810579 
L 282.472928 -80.80562 
L 280.47199 -83.800661 
L 278.480267 -86.795702 
L 276.512335 -89.790744 
L 274.581601 -92.785785 
L 272.70005 -95.780826 
L 270.878103 -98.775868 
L 269.124612 -101.770909 
L 267.446981 -104.76595 
L 265.85141 -107.760992 
L 264.343235 -110.756033 
L 262.927349 -113.751074 
L 261.608637 -116.746116 
L 260.392415 -119.741157 
L 259.284801 -122.736198 
L 258.292988 -125.73124 
L 257.425384 -128.726281 
L 256.691585 -131.721322 
L 256.102175 -134.716364 
L 255.668351 -137.711405 
L 255.401392 -140.706446 
L 255.312 -143.701488 
L 255.409563 -146.696529 
L 255.701393 -149.69157 
L 256.191991 -152.686612 
L 256.882413 -155.681653 
L 257.769774 -158.676694 
L 258.846953 -161.671736 
L 260.102518 -164.666777 
L 261.52089 -167.661818 
L 263.082753 -170.65686 
L 264.765673 -173.651901 
L 266.544902 -176.646942 
L 268.394308 -179.641983 
L 270.287383 -182.637025 
L 272.198245 -185.632066 
L 274.102591 -188.627107 
L 275.978526 -191.622149 
L 277.807229 -194.61719 
L 279.573419 -197.612231 
L 281.265597 -200.607273 
L 282.876074 -203.602314 
L 284.400778 -206.597355 
L 285.838893 -209.592397 
L 287.192346 -212.587438 
L 288.465202 -215.582479 
L 289.663014 -218.577521 
L 290.792166 -221.572562 
L 291.85927 -224.567603 
L 292.870636 -227.562645 
L 293.83186 -230.557686 
L 294.747521 -233.552727 
L 295.62102 -236.547769 
L 296.454534 -239.54281 
L 297.249081 -242.537851 
L 298.004676 -245.532893 
L 298.720548 -248.527934 
L 299.395406 -251.522975 
L 300.027704 -254.518017 
L 300.615914 -257.513058 
L 301.158755 -260.508099 
L 301.655393 -263.50314 
L 302.105583 -266.498182 
L 302.509748 -269.493223 
L 302.869017 -272.488264 
L 303.185195 -275.483306 
L 303.460701 -278.478347 
L 303.698457 -281.473388 
L 303.901767 -284.46843 
L 304.074172 -287.463471 
L 304.219306 -290.458512 
L 304.340761 -293.453554 
L 304.441969 -296.448595 
L 304.526107 -299.443636 
L 304.596027 -302.438678 
L 304.654225 -305.433719 
L 304.702835 -308.42876 
L 304.743651 -311.423802 
L 304.778183 -314.418843 
L 304.807716 -317.413884 
L 304.833395 -320.408926 
L 304.856307 -323.403967 
L 304.877554 -326.399008 
L 304.898324 -329.39405 
L 304.919928 -332.389091 
L 304.943828 -335.384132 
L 304.971631 -338.379174 
L 305.005056 -341.374215 
L 305.045878 -344.369256 
L 305.095854 -347.364298 
L 305.156635 -350.359339 
L 305.229666 -353.35438 
L 305.316099 -356.349421 
L 305.416707 -359.344463 
L 305.531818 -362.339504 
L 305.661272 -365.334545 
L 312.098728 -365.334545 
L 312.098728 -365.334545 
L 312.228182 -362.339504 
L 312.343293 -359.344463 
L 312.443901 -356.349421 
L 312.530334 -353.35438 
L 312.603365 -350.359339 
L 312.664146 -347.364298 
L 312.714122 -344.369256 
L 312.754944 -341.374215 
L 312.788369 -338.379174 
L 312.816172 -335.384132 
L 312.840072 -332.389091 
L 312.861676 -329.39405 
L 312.882446 -326.399008 
L 312.903693 -323.403967 
L 312.926605 -320.408926 
L 312.952284 -317.413884 
L 312.981817 -314.418843 
L 313.016349 -311.423802 
L 313.057165 -308.42876 
L 313.105775 -305.433719 
L 313.163973 -302.438678 
L 313.233893 -299.443636 
L 313.318031 -296.448595 
L 313.419239 -293.453554 
L 313.540694 -290.458512 
L 313.685828 -287.463471 
L 313.858233 -284.46843 
L 314.061543 -281.473388 
L 314.299299 -278.478347 
L 314.574805 -275.483306 
L 314.890983 -272.488264 
L 315.250252 -269.493223 
L 315.654417 -266.498182 
L 316.104607 -263.50314 
L 316.601245 -260.508099 
L 317.144086 -257.513058 
L 317.732296 -254.518017 
L 318.364594 -251.522975 
L 319.039452 -248.527934 
L 319.755324 -245.532893 
L 320.510919 -242.537851 
L 321.305466 -239.54281 
L 322.13898 -236.547769 
L 323.012479 -233.552727 
L 323.92814 -230.557686 
L 324.889364 -227.562645 
L 325.90073 -224.567603 
L 326.967834 -221.572562 
L 328.096986 -218.577521 
L 329.294798 -215.582479 
L 330.567654 -212.587438 
L 331.921107 -209.592397 
L 333.359222 -206.597355 
L 334.883926 -203.602314 
L 336.494403 -200.607273 
L 338.186581 -197.612231 
L 339.952771 -194.61719 
L 341.781474 -191.622149 
L 343.657409 -188.627107 
L 345.561755 -185.632066 
L 347.472617 -182.637025 
L 349.365692 -179.641983 
L 351.215098 -176.646942 
L 352.994327 -173.651901 
L 354.677247 -170.65686 
L 356.23911 -167.661818 
L 357.657482 -164.666777 
L 358.913047 -161.671736 
L 359.990226 -158.676694 
L 360.877587 -155.681653 
L 361.568009 -152.686612 
L 362.058607 -149.69157 
L 362.350437 -146.696529 
L 362.448 -143.701488 
L 362.358608 -140.706446 
L 362.091649 -137.711405 
L 361.657825 -134.716364 
L 361.068415 -131.721322 
L 360.334616 -128.726281 
L 359.467012 -125.73124 
L 358.475199 -122.736198 
L 357.367585 -119.741157 
L 356.151363 -116.746116 
L 354.832651 -113.751074 
L 353.416765 -110.756033 
L 351.90859 -107.760992 
L 350.313019 -104.76595 
L 348.635388 -101.770909 
L 346.881897 -98.775868 
L 345.05995 -95.780826 
L 343.178399 -92.785785 
L 341.247665 -89.790744 
L 339.279733 -86.795702 
L 337.28801 -83.800661 
L 335.287072 -80.80562 
L 333.292309 -77.810579 
L 331.319502 -74.815537 
L 329.384353 -71.820496 
L 327.502013 -68.825455 
z
" id="m31684e2145" style="stroke:#4c4c4c;stroke-width:1.5;"/>
    </defs>
    <g clip-path="url(#p8f1f04223a)">
     <use style="fill:#cc8963;stroke:#4c4c4c;stroke-width:1.5;" x="0" xlink:href="#m31684e2145" y="432"/>
    </g>
   </g>
   <g id="PolyCollection_3">
    <defs>
     <path d="M 446.236879 -75.271304 
L 439.363121 -75.271304 
L 439.269823 -76.508387 
L 439.179436 -77.745469 
L 439.092125 -78.982551 
L 439.008028 -80.219633 
L 438.927259 -81.456716 
L 438.849906 -82.693798 
L 438.776031 -83.93088 
L 438.705677 -85.167963 
L 438.638861 -86.405045 
L 438.575587 -87.642127 
L 438.515837 -88.879209 
L 438.459585 -90.116292 
L 438.40679 -91.353374 
L 438.357405 -92.590456 
L 438.31138 -93.827539 
L 438.268662 -95.064621 
L 438.229201 -96.301703 
L 438.19295 -97.538785 
L 438.159871 -98.775868 
L 438.129933 -100.01295 
L 438.103117 -101.250032 
L 438.079417 -102.487115 
L 438.058838 -103.724197 
L 438.041401 -104.961279 
L 438.027137 -106.198361 
L 438.016092 -107.435444 
L 438.008321 -108.672526 
L 438.003889 -109.909608 
L 438.002866 -111.146691 
L 438.005327 -112.383773 
L 438.011347 -113.620855 
L 438.020997 -114.857937 
L 438.034343 -116.09502 
L 438.051437 -117.332102 
L 438.072318 -118.569184 
L 438.097004 -119.806267 
L 438.125493 -121.043349 
L 438.157754 -122.280431 
L 438.193727 -123.517513 
L 438.233319 -124.754596 
L 438.276403 -125.991678 
L 438.322815 -127.22876 
L 438.372353 -128.465843 
L 438.424778 -129.702925 
L 438.479814 -130.940007 
L 438.537147 -132.177089 
L 438.596431 -133.414172 
L 438.657287 -134.651254 
L 438.719309 -135.888336 
L 438.782066 -137.125419 
L 438.84511 -138.362501 
L 438.907979 -139.599583 
L 438.9702 -140.836665 
L 439.031303 -142.073748 
L 439.090818 -143.31083 
L 439.148291 -144.547912 
L 439.20328 -145.784995 
L 439.255373 -147.022077 
L 439.304185 -148.259159 
L 439.349368 -149.496241 
L 439.390615 -150.733324 
L 439.427668 -151.970406 
L 439.460317 -153.207488 
L 439.488411 -154.444571 
L 439.511852 -155.681653 
L 439.530604 -156.918735 
L 439.544692 -158.155817 
L 439.554201 -159.3929 
L 439.559278 -160.629982 
L 439.560128 -161.867064 
L 439.557013 -163.104147 
L 439.55025 -164.341229 
L 439.540205 -165.578311 
L 439.527288 -166.815393 
L 439.511952 -168.052476 
L 439.494684 -169.289558 
L 439.475998 -170.52664 
L 439.456432 -171.763723 
L 439.436537 -173.000805 
L 439.416876 -174.237887 
L 439.398011 -175.474969 
L 439.380498 -176.712052 
L 439.364884 -177.949134 
L 439.351696 -179.186216 
L 439.341436 -180.423299 
L 439.334575 -181.660381 
L 439.331552 -182.897463 
L 439.332761 -184.134545 
L 439.338556 -185.371628 
L 439.349241 -186.60871 
L 439.365068 -187.845792 
L 439.386239 -189.082875 
L 439.4129 -190.319957 
L 439.445143 -191.557039 
L 439.483003 -192.794121 
L 439.526463 -194.031204 
L 439.575451 -195.268286 
L 439.629844 -196.505368 
L 439.689473 -197.742451 
L 445.910527 -197.742451 
L 445.910527 -197.742451 
L 445.970156 -196.505368 
L 446.024549 -195.268286 
L 446.073537 -194.031204 
L 446.116997 -192.794121 
L 446.154857 -191.557039 
L 446.1871 -190.319957 
L 446.213761 -189.082875 
L 446.234932 -187.845792 
L 446.250759 -186.60871 
L 446.261444 -185.371628 
L 446.267239 -184.134545 
L 446.268448 -182.897463 
L 446.265425 -181.660381 
L 446.258564 -180.423299 
L 446.248304 -179.186216 
L 446.235116 -177.949134 
L 446.219502 -176.712052 
L 446.201989 -175.474969 
L 446.183124 -174.237887 
L 446.163463 -173.000805 
L 446.143568 -171.763723 
L 446.124002 -170.52664 
L 446.105316 -169.289558 
L 446.088048 -168.052476 
L 446.072712 -166.815393 
L 446.059795 -165.578311 
L 446.04975 -164.341229 
L 446.042987 -163.104147 
L 446.039872 -161.867064 
L 446.040722 -160.629982 
L 446.045799 -159.3929 
L 446.055308 -158.155817 
L 446.069396 -156.918735 
L 446.088148 -155.681653 
L 446.111589 -154.444571 
L 446.139683 -153.207488 
L 446.172332 -151.970406 
L 446.209385 -150.733324 
L 446.250632 -149.496241 
L 446.295815 -148.259159 
L 446.344627 -147.022077 
L 446.39672 -145.784995 
L 446.451709 -144.547912 
L 446.509182 -143.31083 
L 446.568697 -142.073748 
L 446.6298 -140.836665 
L 446.692021 -139.599583 
L 446.75489 -138.362501 
L 446.817934 -137.125419 
L 446.880691 -135.888336 
L 446.942713 -134.651254 
L 447.003569 -133.414172 
L 447.062853 -132.177089 
L 447.120186 -130.940007 
L 447.175222 -129.702925 
L 447.227647 -128.465843 
L 447.277185 -127.22876 
L 447.323597 -125.991678 
L 447.366681 -124.754596 
L 447.406273 -123.517513 
L 447.442246 -122.280431 
L 447.474507 -121.043349 
L 447.502996 -119.806267 
L 447.527682 -118.569184 
L 447.548563 -117.332102 
L 447.565657 -116.09502 
L 447.579003 -114.857937 
L 447.588653 -113.620855 
L 447.594673 -112.383773 
L 447.597134 -111.146691 
L 447.596111 -109.909608 
L 447.591679 -108.672526 
L 447.583908 -107.435444 
L 447.572863 -106.198361 
L 447.558599 -104.961279 
L 447.541162 -103.724197 
L 447.520583 -102.487115 
L 447.496883 -101.250032 
L 447.470067 -100.01295 
L 447.440129 -98.775868 
L 447.40705 -97.538785 
L 447.370799 -96.301703 
L 447.331338 -95.064621 
L 447.28862 -93.827539 
L 447.242595 -92.590456 
L 447.19321 -91.353374 
L 447.140415 -90.116292 
L 447.084163 -88.879209 
L 447.024413 -87.642127 
L 446.961139 -86.405045 
L 446.894323 -85.167963 
L 446.823969 -83.93088 
L 446.750094 -82.693798 
L 446.672741 -81.456716 
L 446.591972 -80.219633 
L 446.507875 -78.982551 
L 446.420564 -77.745469 
L 446.330177 -76.508387 
L 446.236879 -75.271304 
z
" id="ma653224938" style="stroke:#4c4c4c;stroke-width:1.5;"/>
    </defs>
    <g clip-path="url(#p8f1f04223a)">
     <use style="fill:#5f9e6e;stroke:#4c4c4c;stroke-width:1.5;" x="0" xlink:href="#ma653224938" y="432"/>
    </g>
   </g>
   <g id="PolyCollection_4">
    <defs>
     <path d="M 582.465674 -92.030514 
L 570.974326 -92.030514 
L 570.600612 -94.205174 
L 570.223039 -96.379835 
L 569.841902 -98.554495 
L 569.457332 -100.729156 
L 569.069337 -102.903816 
L 568.67787 -105.078476 
L 568.282898 -107.253137 
L 567.884478 -109.427797 
L 567.482827 -111.602458 
L 567.078388 -113.777118 
L 566.671879 -115.951779 
L 566.264327 -118.126439 
L 565.857081 -120.3011 
L 565.451797 -122.47576 
L 565.050408 -124.65042 
L 564.655072 -126.825081 
L 564.2681 -128.999741 
L 563.891878 -131.174402 
L 563.528782 -133.349062 
L 563.181098 -135.523723 
L 562.850951 -137.698383 
L 562.540245 -139.873043 
L 562.250627 -142.047704 
L 561.983478 -144.222364 
L 561.739917 -146.397025 
L 561.520837 -148.571685 
L 561.326961 -150.746346 
L 561.158905 -152.921006 
L 561.017258 -155.095667 
L 560.902656 -157.270327 
L 560.815852 -159.444987 
L 560.757773 -161.619648 
L 560.729552 -163.794308 
L 560.732535 -165.968969 
L 560.768263 -168.143629 
L 560.838418 -170.31829 
L 560.944744 -172.49295 
L 561.088947 -174.66761 
L 561.272573 -176.842271 
L 561.496872 -179.016931 
L 561.762673 -181.191592 
L 562.070252 -183.366252 
L 562.41923 -185.540913 
L 562.808485 -187.715573 
L 563.236103 -189.890234 
L 563.699366 -192.064894 
L 564.19477 -194.239554 
L 564.718095 -196.414215 
L 565.264497 -198.588875 
L 565.828648 -200.763536 
L 566.404882 -202.938196 
L 566.987373 -205.112857 
L 567.570311 -207.287517 
L 568.148078 -209.462178 
L 568.715414 -211.636838 
L 569.267557 -213.811498 
L 569.800366 -215.986159 
L 570.310403 -218.160819 
L 570.794983 -220.33548 
L 571.252192 -222.51014 
L 571.680865 -224.684801 
L 572.080539 -226.859461 
L 572.451372 -229.034121 
L 572.794051 -231.208782 
L 573.109679 -233.383442 
L 573.399662 -235.558103 
L 573.665587 -237.732763 
L 573.90912 -239.907424 
L 574.131904 -242.082084 
L 574.335479 -244.256745 
L 574.521222 -246.431405 
L 574.6903 -248.606065 
L 574.843656 -250.780726 
L 574.982004 -252.955386 
L 575.105844 -255.130047 
L 575.215497 -257.304707 
L 575.311146 -259.479368 
L 575.392889 -261.654028 
L 575.460791 -263.828688 
L 575.514945 -266.003349 
L 575.55552 -268.178009 
L 575.582815 -270.35267 
L 575.597298 -272.52733 
L 575.599631 -274.701991 
L 575.590696 -276.876651 
L 575.571601 -279.051312 
L 575.54367 -281.225972 
L 575.50843 -283.400632 
L 575.467583 -285.575293 
L 575.422965 -287.749953 
L 575.376502 -289.924614 
L 575.330155 -292.099274 
L 575.285865 -294.273935 
L 575.245497 -296.448595 
L 575.210778 -298.623255 
L 575.183252 -300.797916 
L 575.164228 -302.972576 
L 575.154744 -305.147237 
L 575.155539 -307.321897 
L 578.284461 -307.321897 
L 578.284461 -307.321897 
L 578.285256 -305.147237 
L 578.275772 -302.972576 
L 578.256748 -300.797916 
L 578.229222 -298.623255 
L 578.194503 -296.448595 
L 578.154135 -294.273935 
L 578.109845 -292.099274 
L 578.063498 -289.924614 
L 578.017035 -287.749953 
L 577.972417 -285.575293 
L 577.93157 -283.400632 
L 577.89633 -281.225972 
L 577.868399 -279.051312 
L 577.849304 -276.876651 
L 577.840369 -274.701991 
L 577.842702 -272.52733 
L 577.857185 -270.35267 
L 577.88448 -268.178009 
L 577.925055 -266.003349 
L 577.979209 -263.828688 
L 578.047111 -261.654028 
L 578.128854 -259.479368 
L 578.224503 -257.304707 
L 578.334156 -255.130047 
L 578.457996 -252.955386 
L 578.596344 -250.780726 
L 578.7497 -248.606065 
L 578.918778 -246.431405 
L 579.104521 -244.256745 
L 579.308096 -242.082084 
L 579.53088 -239.907424 
L 579.774413 -237.732763 
L 580.040338 -235.558103 
L 580.330321 -233.383442 
L 580.645949 -231.208782 
L 580.988628 -229.034121 
L 581.359461 -226.859461 
L 581.759135 -224.684801 
L 582.187808 -222.51014 
L 582.645017 -220.33548 
L 583.129597 -218.160819 
L 583.639634 -215.986159 
L 584.172443 -213.811498 
L 584.724586 -211.636838 
L 585.291922 -209.462178 
L 585.869689 -207.287517 
L 586.452627 -205.112857 
L 587.035118 -202.938196 
L 587.611352 -200.763536 
L 588.175503 -198.588875 
L 588.721905 -196.414215 
L 589.24523 -194.239554 
L 589.740634 -192.064894 
L 590.203897 -189.890234 
L 590.631515 -187.715573 
L 591.02077 -185.540913 
L 591.369748 -183.366252 
L 591.677327 -181.191592 
L 591.943128 -179.016931 
L 592.167427 -176.842271 
L 592.351053 -174.66761 
L 592.495256 -172.49295 
L 592.601582 -170.31829 
L 592.671737 -168.143629 
L 592.707465 -165.968969 
L 592.710448 -163.794308 
L 592.682227 -161.619648 
L 592.624148 -159.444987 
L 592.537344 -157.270327 
L 592.422742 -155.095667 
L 592.281095 -152.921006 
L 592.113039 -150.746346 
L 591.919163 -148.571685 
L 591.700083 -146.397025 
L 591.456522 -144.222364 
L 591.189373 -142.047704 
L 590.899755 -139.873043 
L 590.589049 -137.698383 
L 590.258902 -135.523723 
L 589.911218 -133.349062 
L 589.548122 -131.174402 
L 589.1719 -128.999741 
L 588.784928 -126.825081 
L 588.389592 -124.65042 
L 587.988203 -122.47576 
L 587.582919 -120.3011 
L 587.175673 -118.126439 
L 586.768121 -115.951779 
L 586.361612 -113.777118 
L 585.957173 -111.602458 
L 585.555522 -109.427797 
L 585.157102 -107.253137 
L 584.76213 -105.078476 
L 584.370663 -102.903816 
L 583.982668 -100.729156 
L 583.598098 -98.554495 
L 583.216961 -96.379835 
L 582.839388 -94.205174 
L 582.465674 -92.030514 
z
" id="m762cc709e3" style="stroke:#4c4c4c;stroke-width:1.5;"/>
    </defs>
    <g clip-path="url(#p8f1f04223a)">
     <use style="fill:#b55d60;stroke:#4c4c4c;stroke-width:1.5;" x="0" xlink:href="#m762cc709e3" y="432"/>
    </g>
   </g>
   <g id="PolyCollection_5">
    <defs>
     <path d="M 711.952302 -139.729802 
L 709.327698 -139.729802 
L 709.326732 -140.966885 
L 709.327457 -142.203967 
L 709.329843 -143.441049 
L 709.333847 -144.678132 
L 709.339419 -145.915214 
L 709.3465 -147.152296 
L 709.355021 -148.389378 
L 709.364905 -149.626461 
L 709.376066 -150.863543 
L 709.388411 -152.100625 
L 709.401838 -153.337708 
L 709.41624 -154.57479 
L 709.431502 -155.811872 
L 709.447505 -157.048954 
L 709.464124 -158.286037 
L 709.481228 -159.523119 
L 709.498684 -160.760201 
L 709.516357 -161.997284 
L 709.534107 -163.234366 
L 709.551794 -164.471448 
L 709.569278 -165.70853 
L 709.586417 -166.945613 
L 709.603071 -168.182695 
L 709.6191 -169.419777 
L 709.63437 -170.65686 
L 709.648744 -171.893942 
L 709.662094 -173.131024 
L 709.674294 -174.368106 
L 709.685222 -175.605189 
L 709.694763 -176.842271 
L 709.702807 -178.079353 
L 709.709254 -179.316436 
L 709.714006 -180.553518 
L 709.716977 -181.7906 
L 709.718087 -183.027682 
L 709.717265 -184.264765 
L 709.714451 -185.501847 
L 709.70959 -186.738929 
L 709.702641 -187.976011 
L 709.69357 -189.213094 
L 709.682355 -190.450176 
L 709.668982 -191.687258 
L 709.653449 -192.924341 
L 709.635763 -194.161423 
L 709.615944 -195.398505 
L 709.59402 -196.635587 
L 709.57003 -197.87267 
L 709.544022 -199.109752 
L 709.516056 -200.346834 
L 709.486201 -201.583917 
L 709.454536 -202.820999 
L 709.421148 -204.058081 
L 709.386135 -205.295163 
L 709.349602 -206.532246 
L 709.311662 -207.769328 
L 709.272439 -209.00641 
L 709.232059 -210.243493 
L 709.19066 -211.480575 
L 709.148382 -212.717657 
L 709.105374 -213.954739 
L 709.061788 -215.191822 
L 709.017781 -216.428904 
L 708.973513 -217.665986 
L 708.929149 -218.903069 
L 708.884854 -220.140151 
L 708.840795 -221.377233 
L 708.797142 -222.614315 
L 708.754062 -223.851398 
L 708.711724 -225.08848 
L 708.670293 -226.325562 
L 708.629933 -227.562645 
L 708.590806 -228.799727 
L 708.553069 -230.036809 
L 708.516874 -231.273891 
L 708.48237 -232.510974 
L 708.449698 -233.748056 
L 708.418993 -234.985138 
L 708.390383 -236.222221 
L 708.363988 -237.459303 
L 708.33992 -238.696385 
L 708.318283 -239.933467 
L 708.299169 -241.17055 
L 708.282662 -242.407632 
L 708.268835 -243.644714 
L 708.257752 -244.881797 
L 708.249466 -246.118879 
L 708.244016 -247.355961 
L 708.241433 -248.593043 
L 708.241736 -249.830126 
L 708.244932 -251.067208 
L 708.251018 -252.30429 
L 708.25998 -253.541373 
L 708.27179 -254.778455 
L 708.286412 -256.015537 
L 708.3038 -257.252619 
L 708.323896 -258.489702 
L 708.346633 -259.726784 
L 708.371934 -260.963866 
L 708.399715 -262.200949 
L 712.880285 -262.200949 
L 712.880285 -262.200949 
L 712.908066 -260.963866 
L 712.933367 -259.726784 
L 712.956104 -258.489702 
L 712.9762 -257.252619 
L 712.993588 -256.015537 
L 713.00821 -254.778455 
L 713.02002 -253.541373 
L 713.028982 -252.30429 
L 713.035068 -251.067208 
L 713.038264 -249.830126 
L 713.038567 -248.593043 
L 713.035984 -247.355961 
L 713.030534 -246.118879 
L 713.022248 -244.881797 
L 713.011165 -243.644714 
L 712.997338 -242.407632 
L 712.980831 -241.17055 
L 712.961717 -239.933467 
L 712.94008 -238.696385 
L 712.916012 -237.459303 
L 712.889617 -236.222221 
L 712.861007 -234.985138 
L 712.830302 -233.748056 
L 712.79763 -232.510974 
L 712.763126 -231.273891 
L 712.726931 -230.036809 
L 712.689194 -228.799727 
L 712.650067 -227.562645 
L 712.609707 -226.325562 
L 712.568276 -225.08848 
L 712.525938 -223.851398 
L 712.482858 -222.614315 
L 712.439205 -221.377233 
L 712.395146 -220.140151 
L 712.350851 -218.903069 
L 712.306487 -217.665986 
L 712.262219 -216.428904 
L 712.218212 -215.191822 
L 712.174626 -213.954739 
L 712.131618 -212.717657 
L 712.08934 -211.480575 
L 712.047941 -210.243493 
L 712.007561 -209.00641 
L 711.968338 -207.769328 
L 711.930398 -206.532246 
L 711.893865 -205.295163 
L 711.858852 -204.058081 
L 711.825464 -202.820999 
L 711.793799 -201.583917 
L 711.763944 -200.346834 
L 711.735978 -199.109752 
L 711.70997 -197.87267 
L 711.68598 -196.635587 
L 711.664056 -195.398505 
L 711.644237 -194.161423 
L 711.626551 -192.924341 
L 711.611018 -191.687258 
L 711.597645 -190.450176 
L 711.58643 -189.213094 
L 711.577359 -187.976011 
L 711.57041 -186.738929 
L 711.565549 -185.501847 
L 711.562735 -184.264765 
L 711.561913 -183.027682 
L 711.563023 -181.7906 
L 711.565994 -180.553518 
L 711.570746 -179.316436 
L 711.577193 -178.079353 
L 711.585237 -176.842271 
L 711.594778 -175.605189 
L 711.605706 -174.368106 
L 711.617906 -173.131024 
L 711.631256 -171.893942 
L 711.64563 -170.65686 
L 711.6609 -169.419777 
L 711.676929 -168.182695 
L 711.693583 -166.945613 
L 711.710722 -165.70853 
L 711.728206 -164.471448 
L 711.745893 -163.234366 
L 711.763643 -161.997284 
L 711.781316 -160.760201 
L 711.798772 -159.523119 
L 711.815876 -158.286037 
L 711.832495 -157.048954 
L 711.848498 -155.811872 
L 711.86376 -154.57479 
L 711.878162 -153.337708 
L 711.891589 -152.100625 
L 711.903934 -150.863543 
L 711.915095 -149.626461 
L 711.924979 -148.389378 
L 711.9335 -147.152296 
L 711.940581 -145.915214 
L 711.946153 -144.678132 
L 711.950157 -143.441049 
L 711.952543 -142.203967 
L 711.953268 -140.966885 
L 711.952302 -139.729802 
z
" id="m7f002f1115" style="stroke:#4c4c4c;stroke-width:1.5;"/>
    </defs>
    <g clip-path="url(#p8f1f04223a)">
     <use style="fill:#857aab;stroke:#4c4c4c;stroke-width:1.5;" x="0" xlink:href="#m7f002f1115" y="432"/>
    </g>
   </g>
   <g id="line2d_6">
    <path clip-path="url(#p8f1f04223a)" d="M 174.133173 278.089328 
L 175.786827 278.089328 
" style="fill:none;stroke:#4c4c4c;stroke-dasharray:3.375,3.375;stroke-dashoffset:0;stroke-width:1.5;"/>
   </g>
   <g id="line2d_7">
    <path clip-path="url(#p8f1f04223a)" d="M 172.653547 235.546719 
L 177.266453 235.546719 
" style="fill:none;stroke:#4c4c4c;stroke-dasharray:6.75,6.75;stroke-dashoffset:0;stroke-width:1.5;"/>
   </g>
   <g id="line2d_8">
    <path clip-path="url(#p8f1f04223a)" d="M 172.585419 228.456285 
L 177.334581 228.456285 
" style="fill:none;stroke:#4c4c4c;stroke-dasharray:3.375,3.375;stroke-dashoffset:0;stroke-width:1.5;"/>
   </g>
   <g id="line2d_9">
    <path clip-path="url(#p8f1f04223a)" d="M 263.386875 319.342767 
L 354.373125 319.342767 
" style="fill:none;stroke:#4c4c4c;stroke-dasharray:3.375,3.375;stroke-dashoffset:0;stroke-width:1.5;"/>
   </g>
   <g id="line2d_10">
    <path clip-path="url(#p8f1f04223a)" d="M 256.718871 279.378498 
L 361.041129 279.378498 
" style="fill:none;stroke:#4c4c4c;stroke-dasharray:6.75,6.75;stroke-dashoffset:0;stroke-width:1.5;"/>
   </g>
   <g id="line2d_11">
    <path clip-path="url(#p8f1f04223a)" d="M 263.540725 260.040949 
L 354.219275 260.040949 
" style="fill:none;stroke:#4c4c4c;stroke-dasharray:3.375,3.375;stroke-dashoffset:0;stroke-width:1.5;"/>
   </g>
   <g id="line2d_12">
    <path clip-path="url(#p8f1f04223a)" d="M 438.150086 330.945296 
L 447.449914 330.945296 
" style="fill:none;stroke:#4c4c4c;stroke-dasharray:3.375,3.375;stroke-dashoffset:0;stroke-width:1.5;"/>
   </g>
   <g id="line2d_13">
    <path clip-path="url(#p8f1f04223a)" d="M 438.367586 305.161897 
L 447.232414 305.161897 
" style="fill:none;stroke:#4c4c4c;stroke-dasharray:6.75,6.75;stroke-dashoffset:0;stroke-width:1.5;"/>
   </g>
   <g id="line2d_14">
    <path clip-path="url(#p8f1f04223a)" d="M 439.560015 264.875336 
L 446.039985 264.875336 
" style="fill:none;stroke:#4c4c4c;stroke-dasharray:3.375,3.375;stroke-dashoffset:0;stroke-width:1.5;"/>
   </g>
   <g id="line2d_15">
    <path clip-path="url(#p8f1f04223a)" d="M 563.316487 296.137708 
L 590.123513 296.137708 
" style="fill:none;stroke:#4c4c4c;stroke-dasharray:3.375,3.375;stroke-dashoffset:0;stroke-width:1.5;"/>
   </g>
   <g id="line2d_16">
    <path clip-path="url(#p8f1f04223a)" d="M 560.917396 269.709723 
L 592.522604 269.709723 
" style="fill:none;stroke:#4c4c4c;stroke-dasharray:6.75,6.75;stroke-dashoffset:0;stroke-width:1.5;"/>
   </g>
   <g id="line2d_17">
    <path clip-path="url(#p8f1f04223a)" d="M 562.562237 245.537787 
L 590.877763 245.537787 
" style="fill:none;stroke:#4c4c4c;stroke-dasharray:3.375,3.375;stroke-dashoffset:0;stroke-width:1.5;"/>
   </g>
   <g id="line2d_18">
    <path clip-path="url(#p8f1f04223a)" d="M 709.712015 243.926324 
L 711.567985 243.926324 
" style="fill:none;stroke:#4c4c4c;stroke-dasharray:3.375,3.375;stroke-dashoffset:0;stroke-width:1.5;"/>
   </g>
   <g id="line2d_19">
    <path clip-path="url(#p8f1f04223a)" d="M 708.412879 195.582451 
L 712.867121 195.582451 
" style="fill:none;stroke:#4c4c4c;stroke-dasharray:6.75,6.75;stroke-dashoffset:0;stroke-width:1.5;"/>
   </g>
   <g id="line2d_20">
    <path clip-path="url(#p8f1f04223a)" d="M 708.265719 182.690751 
L 713.014281 182.690751 
" style="fill:none;stroke:#4c4c4c;stroke-dasharray:3.375,3.375;stroke-dashoffset:0;stroke-width:1.5;"/>
   </g>
   <g id="patch_3">
    <path d="M 108 378 
L 108 51.84 
" style="fill:none;stroke:#ffffff;stroke-linecap:square;stroke-linejoin:miter;stroke-width:1.25;"/>
   </g>
   <g id="patch_4">
    <path d="M 777.6 378 
L 777.6 51.84 
" style="fill:none;stroke:#ffffff;stroke-linecap:square;stroke-linejoin:miter;stroke-width:1.25;"/>
   </g>
   <g id="patch_5">
    <path d="M 108 378 
L 777.6 378 
" style="fill:none;stroke:#ffffff;stroke-linecap:square;stroke-linejoin:miter;stroke-width:1.25;"/>
   </g>
   <g id="patch_6">
    <path d="M 108 51.84 
L 777.6 51.84 
" style="fill:none;stroke:#ffffff;stroke-linecap:square;stroke-linejoin:miter;stroke-width:1.25;"/>
   </g>
   <g id="text_13">
    <!-- Compensation by Education -->
    <g style="fill:#262626;" transform="translate(367.757812 45.84)scale(0.12 -0.12)">
     <defs>
      <path d="M 58.796875 25.09375 
L 68.265625 22.703125 
Q 65.28125 11.03125 57.546875 4.90625 
Q 49.8125 -1.21875 38.625 -1.21875 
Q 27.046875 -1.21875 19.796875 3.484375 
Q 12.546875 8.203125 8.765625 17.140625 
Q 4.984375 26.078125 4.984375 36.328125 
Q 4.984375 47.515625 9.25 55.828125 
Q 13.53125 64.15625 21.40625 68.46875 
Q 29.296875 72.796875 38.765625 72.796875 
Q 49.515625 72.796875 56.828125 67.328125 
Q 64.15625 61.859375 67.046875 51.953125 
L 57.71875 49.75 
Q 55.21875 57.5625 50.484375 61.125 
Q 45.75 64.703125 38.578125 64.703125 
Q 30.328125 64.703125 24.78125 60.734375 
Q 19.234375 56.78125 16.984375 50.109375 
Q 14.75 43.453125 14.75 36.375 
Q 14.75 27.25 17.40625 20.4375 
Q 20.0625 13.625 25.671875 10.25 
Q 31.296875 6.890625 37.84375 6.890625 
Q 45.796875 6.890625 51.3125 11.46875 
Q 56.84375 16.0625 58.796875 25.09375 
z
" id="ArialMT-67"/>
      <path d="M 6.59375 -19.875 
L 6.59375 51.859375 
L 14.59375 51.859375 
L 14.59375 45.125 
Q 17.4375 49.078125 21 51.046875 
Q 24.5625 53.03125 29.640625 53.03125 
Q 36.28125 53.03125 41.359375 49.609375 
Q 46.4375 46.1875 49.015625 39.953125 
Q 51.609375 33.734375 51.609375 26.3125 
Q 51.609375 18.359375 48.75 11.984375 
Q 45.90625 5.609375 40.453125 2.21875 
Q 35.015625 -1.171875 29 -1.171875 
Q 24.609375 -1.171875 21.109375 0.6875 
Q 17.625 2.546875 15.375 5.375 
L 15.375 -19.875 
z
M 14.546875 25.640625 
Q 14.546875 15.625 18.59375 10.84375 
Q 22.65625 6.0625 28.421875 6.0625 
Q 34.28125 6.0625 38.453125 11.015625 
Q 42.625 15.96875 42.625 26.375 
Q 42.625 36.28125 38.546875 41.203125 
Q 34.46875 46.140625 28.8125 46.140625 
Q 23.1875 46.140625 18.859375 40.890625 
Q 14.546875 35.640625 14.546875 25.640625 
z
" id="ArialMT-112"/>
      <path d="M 14.703125 0 
L 6.546875 0 
L 6.546875 71.578125 
L 15.328125 71.578125 
L 15.328125 46.046875 
Q 20.90625 53.03125 29.546875 53.03125 
Q 34.328125 53.03125 38.59375 51.09375 
Q 42.875 49.171875 45.625 45.671875 
Q 48.390625 42.1875 49.953125 37.25 
Q 51.515625 32.328125 51.515625 26.703125 
Q 51.515625 13.375 44.921875 6.09375 
Q 38.328125 -1.171875 29.109375 -1.171875 
Q 19.921875 -1.171875 14.703125 6.5 
z
M 14.59375 26.3125 
Q 14.59375 17 17.140625 12.84375 
Q 21.296875 6.0625 28.375 6.0625 
Q 34.125 6.0625 38.328125 11.0625 
Q 42.53125 16.0625 42.53125 25.984375 
Q 42.53125 36.140625 38.5 40.96875 
Q 34.46875 45.796875 28.765625 45.796875 
Q 23 45.796875 18.796875 40.796875 
Q 14.59375 35.796875 14.59375 26.3125 
z
" id="ArialMT-98"/>
      <path d="M 6.203125 -19.96875 
L 5.21875 -11.71875 
Q 8.109375 -12.5 10.25 -12.5 
Q 13.1875 -12.5 14.9375 -11.515625 
Q 16.703125 -10.546875 17.828125 -8.796875 
Q 18.65625 -7.46875 20.515625 -2.25 
Q 20.75 -1.515625 21.296875 -0.09375 
L 1.609375 51.859375 
L 11.078125 51.859375 
L 21.875 21.828125 
Q 23.96875 16.109375 25.640625 9.8125 
Q 27.15625 15.875 29.25 21.625 
L 40.328125 51.859375 
L 49.125 51.859375 
L 29.390625 -0.875 
Q 26.21875 -9.421875 24.46875 -12.640625 
Q 22.125 -17 19.09375 -19.015625 
Q 16.0625 -21.046875 11.859375 -21.046875 
Q 9.328125 -21.046875 6.203125 -19.96875 
z
" id="ArialMT-121"/>
     </defs>
     <use xlink:href="#ArialMT-67"/>
     <use x="72.216797" xlink:href="#ArialMT-111"/>
     <use x="127.832031" xlink:href="#ArialMT-109"/>
     <use x="211.132812" xlink:href="#ArialMT-112"/>
     <use x="266.748047" xlink:href="#ArialMT-101"/>
     <use x="322.363281" xlink:href="#ArialMT-110"/>
     <use x="377.978516" xlink:href="#ArialMT-115"/>
     <use x="427.978516" xlink:href="#ArialMT-97"/>
     <use x="483.59375" xlink:href="#ArialMT-116"/>
     <use x="511.376953" xlink:href="#ArialMT-105"/>
     <use x="533.59375" xlink:href="#ArialMT-111"/>
     <use x="589.208984" xlink:href="#ArialMT-110"/>
     <use x="644.824219" xlink:href="#ArialMT-32"/>
     <use x="672.607422" xlink:href="#ArialMT-98"/>
     <use x="728.222656" xlink:href="#ArialMT-121"/>
     <use x="778.222656" xlink:href="#ArialMT-32"/>
     <use x="806.005859" xlink:href="#ArialMT-69"/>
     <use x="872.705078" xlink:href="#ArialMT-100"/>
     <use x="928.320312" xlink:href="#ArialMT-117"/>
     <use x="983.935547" xlink:href="#ArialMT-99"/>
     <use x="1033.935547" xlink:href="#ArialMT-97"/>
     <use x="1089.550781" xlink:href="#ArialMT-116"/>
     <use x="1117.333984" xlink:href="#ArialMT-105"/>
     <use x="1139.550781" xlink:href="#ArialMT-111"/>
     <use x="1195.166016" xlink:href="#ArialMT-110"/>
    </g>
   </g>
  </g>
 </g>
 <defs>
  <clipPath id="p8f1f04223a">
   <rect height="326.16" width="669.6" x="108" y="51.84"/>
  </clipPath>
 </defs>
</svg>
