<?xml version="1.0" encoding="utf-8" standalone="no"?>
<!DOCTYPE svg PUBLIC "-//W3C//DTD SVG 1.1//EN"
  "http://www.w3.org/Graphics/SVG/1.1/DTD/svg11.dtd">
<!-- Created with matplotlib (https://matplotlib.org/) -->
<svg height="432pt" version="1.1" viewBox="0 0 864 432" width="864pt" xmlns="http://www.w3.org/2000/svg" xmlns:xlink="http://www.w3.org/1999/xlink">
 <metadata>
  <rdf:RDF xmlns:cc="http://creativecommons.org/ns#" xmlns:dc="http://purl.org/dc/elements/1.1/" xmlns:rdf="http://www.w3.org/1999/02/22-rdf-syntax-ns#">
   <cc:Work>
    <dc:type rdf:resource="http://purl.org/dc/dcmitype/StillImage"/>
    <dc:date>2020-11-22T22:51:45.253534</dc:date>
    <dc:format>image/svg+xml</dc:format>
    <dc:creator>
     <cc:Agent>
      <dc:title>Matplotlib v3.3.2, https://matplotlib.org/</dc:title>
     </cc:Agent>
    </dc:creator>
   </cc:Work>
  </rdf:RDF>
 </metadata>
 <defs>
  <style type="text/css">*{stroke-linecap:butt;stroke-linejoin:round;}</style>
 </defs>
 <g id="figure_1">
  <g id="patch_1">
   <path d="M 0 432 
L 864 432 
L 864 0 
L 0 0 
z
" style="fill:#ffffff;"/>
  </g>
  <g id="axes_1">
   <g id="patch_2">
    <path d="M 108 378 
L 777.6 378 
L 777.6 51.84 
L 108 51.84 
z
" style="fill:#eaeaf2;"/>
   </g>
   <g id="matplotlib.axis_1">
    <g id="xtick_1">
     <g id="text_1">
      <!-- Female -->
      <g style="fill:#262626;" transform="translate(201.261797 395.373594)scale(0.11 -0.11)">
       <defs>
        <path d="M 8.203125 0 
L 8.203125 71.578125 
L 56.5 71.578125 
L 56.5 63.140625 
L 17.671875 63.140625 
L 17.671875 40.96875 
L 51.265625 40.96875 
L 51.265625 32.515625 
L 17.671875 32.515625 
L 17.671875 0 
z
" id="ArialMT-70"/>
        <path d="M 42.09375 16.703125 
L 51.171875 15.578125 
Q 49.03125 7.625 43.21875 3.21875 
Q 37.40625 -1.171875 28.375 -1.171875 
Q 17 -1.171875 10.328125 5.828125 
Q 3.65625 12.84375 3.65625 25.484375 
Q 3.65625 38.578125 10.390625 45.796875 
Q 17.140625 53.03125 27.875 53.03125 
Q 38.28125 53.03125 44.875 45.953125 
Q 51.46875 38.875 51.46875 26.03125 
Q 51.46875 25.25 51.421875 23.6875 
L 12.75 23.6875 
Q 13.234375 15.140625 17.578125 10.59375 
Q 21.921875 6.0625 28.421875 6.0625 
Q 33.25 6.0625 36.671875 8.59375 
Q 40.09375 11.140625 42.09375 16.703125 
z
M 13.234375 30.90625 
L 42.1875 30.90625 
Q 41.609375 37.453125 38.875 40.71875 
Q 34.671875 45.796875 27.984375 45.796875 
Q 21.921875 45.796875 17.796875 41.75 
Q 13.671875 37.703125 13.234375 30.90625 
z
" id="ArialMT-101"/>
        <path d="M 6.59375 0 
L 6.59375 51.859375 
L 14.453125 51.859375 
L 14.453125 44.578125 
Q 16.890625 48.390625 20.9375 50.703125 
Q 25 53.03125 30.171875 53.03125 
Q 35.9375 53.03125 39.625 50.640625 
Q 43.3125 48.25 44.828125 43.953125 
Q 50.984375 53.03125 60.84375 53.03125 
Q 68.5625 53.03125 72.703125 48.75 
Q 76.859375 44.484375 76.859375 35.59375 
L 76.859375 0 
L 68.109375 0 
L 68.109375 32.671875 
Q 68.109375 37.9375 67.25 40.25 
Q 66.40625 42.578125 64.15625 43.984375 
Q 61.921875 45.40625 58.890625 45.40625 
Q 53.421875 45.40625 49.796875 41.765625 
Q 46.1875 38.140625 46.1875 30.125 
L 46.1875 0 
L 37.40625 0 
L 37.40625 33.6875 
Q 37.40625 39.546875 35.25 42.46875 
Q 33.109375 45.40625 28.21875 45.40625 
Q 24.515625 45.40625 21.359375 43.453125 
Q 18.21875 41.5 16.796875 37.734375 
Q 15.375 33.984375 15.375 26.90625 
L 15.375 0 
z
" id="ArialMT-109"/>
        <path d="M 40.4375 6.390625 
Q 35.546875 2.25 31.03125 0.53125 
Q 26.515625 -1.171875 21.34375 -1.171875 
Q 12.796875 -1.171875 8.203125 3 
Q 3.609375 7.171875 3.609375 13.671875 
Q 3.609375 17.484375 5.34375 20.625 
Q 7.078125 23.78125 9.890625 25.6875 
Q 12.703125 27.59375 16.21875 28.5625 
Q 18.796875 29.25 24.03125 29.890625 
Q 34.671875 31.15625 39.703125 32.90625 
Q 39.75 34.71875 39.75 35.203125 
Q 39.75 40.578125 37.25 42.78125 
Q 33.890625 45.75 27.25 45.75 
Q 21.046875 45.75 18.09375 43.578125 
Q 15.140625 41.40625 13.71875 35.890625 
L 5.125 37.0625 
Q 6.296875 42.578125 8.984375 45.96875 
Q 11.671875 49.359375 16.75 51.1875 
Q 21.828125 53.03125 28.515625 53.03125 
Q 35.15625 53.03125 39.296875 51.46875 
Q 43.453125 49.90625 45.40625 47.53125 
Q 47.359375 45.171875 48.140625 41.546875 
Q 48.578125 39.3125 48.578125 33.453125 
L 48.578125 21.734375 
Q 48.578125 9.46875 49.140625 6.21875 
Q 49.703125 2.984375 51.375 0 
L 42.1875 0 
Q 40.828125 2.734375 40.4375 6.390625 
z
M 39.703125 26.03125 
Q 34.90625 24.078125 25.34375 22.703125 
Q 19.921875 21.921875 17.671875 20.9375 
Q 15.4375 19.96875 14.203125 18.09375 
Q 12.984375 16.21875 12.984375 13.921875 
Q 12.984375 10.40625 15.640625 8.0625 
Q 18.3125 5.71875 23.4375 5.71875 
Q 28.515625 5.71875 32.46875 7.9375 
Q 36.421875 10.15625 38.28125 14.015625 
Q 39.703125 17 39.703125 22.796875 
z
" id="ArialMT-97"/>
        <path d="M 6.390625 0 
L 6.390625 71.578125 
L 15.1875 71.578125 
L 15.1875 0 
z
" id="ArialMT-108"/>
       </defs>
       <use xlink:href="#ArialMT-70"/>
       <use x="61.083984" xlink:href="#ArialMT-101"/>
       <use x="116.699219" xlink:href="#ArialMT-109"/>
       <use x="200" xlink:href="#ArialMT-97"/>
       <use x="255.615234" xlink:href="#ArialMT-108"/>
       <use x="277.832031" xlink:href="#ArialMT-101"/>
      </g>
     </g>
    </g>
    <g id="xtick_2">
     <g id="text_2">
      <!-- Male -->
      <g style="fill:#262626;" transform="translate(430.879609 395.373594)scale(0.11 -0.11)">
       <defs>
        <path d="M 7.421875 0 
L 7.421875 71.578125 
L 21.6875 71.578125 
L 38.625 20.90625 
Q 40.96875 13.8125 42.046875 10.296875 
Q 43.265625 14.203125 45.84375 21.78125 
L 62.984375 71.578125 
L 75.734375 71.578125 
L 75.734375 0 
L 66.609375 0 
L 66.609375 59.90625 
L 45.796875 0 
L 37.25 0 
L 16.546875 60.9375 
L 16.546875 0 
z
" id="ArialMT-77"/>
       </defs>
       <use xlink:href="#ArialMT-77"/>
       <use x="83.300781" xlink:href="#ArialMT-97"/>
       <use x="138.916016" xlink:href="#ArialMT-108"/>
       <use x="161.132812" xlink:href="#ArialMT-101"/>
      </g>
     </g>
    </g>
    <g id="xtick_3">
     <g id="text_3">
      <!-- Other/Non-Binary -->
      <g style="fill:#262626;" transform="translate(623.208281 395.514531)scale(0.11 -0.11)">
       <defs>
        <path d="M 4.828125 34.859375 
Q 4.828125 52.6875 14.390625 62.765625 
Q 23.96875 72.859375 39.109375 72.859375 
Q 49.03125 72.859375 56.984375 68.109375 
Q 64.9375 63.375 69.109375 54.90625 
Q 73.296875 46.4375 73.296875 35.6875 
Q 73.296875 24.8125 68.890625 16.21875 
Q 64.5 7.625 56.4375 3.203125 
Q 48.390625 -1.21875 39.0625 -1.21875 
Q 28.953125 -1.21875 20.984375 3.65625 
Q 13.03125 8.546875 8.921875 16.984375 
Q 4.828125 25.4375 4.828125 34.859375 
z
M 14.59375 34.71875 
Q 14.59375 21.78125 21.546875 14.328125 
Q 28.515625 6.890625 39.015625 6.890625 
Q 49.703125 6.890625 56.609375 14.40625 
Q 63.53125 21.921875 63.53125 35.75 
Q 63.53125 44.484375 60.578125 51 
Q 57.625 57.515625 51.921875 61.109375 
Q 46.234375 64.703125 39.15625 64.703125 
Q 29.109375 64.703125 21.84375 57.78125 
Q 14.59375 50.875 14.59375 34.71875 
z
" id="ArialMT-79"/>
        <path d="M 25.78125 7.859375 
L 27.046875 0.09375 
Q 23.34375 -0.6875 20.40625 -0.6875 
Q 15.625 -0.6875 12.984375 0.828125 
Q 10.359375 2.34375 9.28125 4.8125 
Q 8.203125 7.28125 8.203125 15.1875 
L 8.203125 45.015625 
L 1.765625 45.015625 
L 1.765625 51.859375 
L 8.203125 51.859375 
L 8.203125 64.703125 
L 16.9375 69.96875 
L 16.9375 51.859375 
L 25.78125 51.859375 
L 25.78125 45.015625 
L 16.9375 45.015625 
L 16.9375 14.703125 
Q 16.9375 10.9375 17.40625 9.859375 
Q 17.875 8.796875 18.921875 8.15625 
Q 19.96875 7.515625 21.921875 7.515625 
Q 23.390625 7.515625 25.78125 7.859375 
z
" id="ArialMT-116"/>
        <path d="M 6.59375 0 
L 6.59375 71.578125 
L 15.375 71.578125 
L 15.375 45.90625 
Q 21.53125 53.03125 30.90625 53.03125 
Q 36.671875 53.03125 40.921875 50.75 
Q 45.171875 48.484375 47 44.484375 
Q 48.828125 40.484375 48.828125 32.859375 
L 48.828125 0 
L 40.046875 0 
L 40.046875 32.859375 
Q 40.046875 39.453125 37.1875 42.453125 
Q 34.328125 45.453125 29.109375 45.453125 
Q 25.203125 45.453125 21.75 43.421875 
Q 18.3125 41.40625 16.84375 37.9375 
Q 15.375 34.46875 15.375 28.375 
L 15.375 0 
z
" id="ArialMT-104"/>
        <path d="M 6.5 0 
L 6.5 51.859375 
L 14.40625 51.859375 
L 14.40625 44 
Q 17.4375 49.515625 20 51.265625 
Q 22.5625 53.03125 25.640625 53.03125 
Q 30.078125 53.03125 34.671875 50.203125 
L 31.640625 42.046875 
Q 28.421875 43.953125 25.203125 43.953125 
Q 22.3125 43.953125 20.015625 42.21875 
Q 17.71875 40.484375 16.75 37.40625 
Q 15.28125 32.71875 15.28125 27.15625 
L 15.28125 0 
z
" id="ArialMT-114"/>
        <path d="M 0 -1.21875 
L 20.75 72.796875 
L 27.78125 72.796875 
L 7.078125 -1.21875 
z
" id="ArialMT-47"/>
        <path d="M 7.625 0 
L 7.625 71.578125 
L 17.328125 71.578125 
L 54.9375 15.375 
L 54.9375 71.578125 
L 64.015625 71.578125 
L 64.015625 0 
L 54.296875 0 
L 16.703125 56.25 
L 16.703125 0 
z
" id="ArialMT-78"/>
        <path d="M 3.328125 25.921875 
Q 3.328125 40.328125 11.328125 47.265625 
Q 18.015625 53.03125 27.640625 53.03125 
Q 38.328125 53.03125 45.109375 46.015625 
Q 51.90625 39.015625 51.90625 26.65625 
Q 51.90625 16.65625 48.90625 10.90625 
Q 45.90625 5.171875 40.15625 2 
Q 34.421875 -1.171875 27.640625 -1.171875 
Q 16.75 -1.171875 10.03125 5.8125 
Q 3.328125 12.796875 3.328125 25.921875 
z
M 12.359375 25.921875 
Q 12.359375 15.96875 16.703125 11.015625 
Q 21.046875 6.0625 27.640625 6.0625 
Q 34.1875 6.0625 38.53125 11.03125 
Q 42.875 16.015625 42.875 26.21875 
Q 42.875 35.84375 38.5 40.796875 
Q 34.125 45.75 27.640625 45.75 
Q 21.046875 45.75 16.703125 40.8125 
Q 12.359375 35.890625 12.359375 25.921875 
z
" id="ArialMT-111"/>
        <path d="M 6.59375 0 
L 6.59375 51.859375 
L 14.5 51.859375 
L 14.5 44.484375 
Q 20.21875 53.03125 31 53.03125 
Q 35.6875 53.03125 39.625 51.34375 
Q 43.5625 49.65625 45.515625 46.921875 
Q 47.46875 44.1875 48.25 40.4375 
Q 48.734375 37.984375 48.734375 31.890625 
L 48.734375 0 
L 39.9375 0 
L 39.9375 31.546875 
Q 39.9375 36.921875 38.90625 39.578125 
Q 37.890625 42.234375 35.28125 43.8125 
Q 32.671875 45.40625 29.15625 45.40625 
Q 23.53125 45.40625 19.453125 41.84375 
Q 15.375 38.28125 15.375 28.328125 
L 15.375 0 
z
" id="ArialMT-110"/>
        <path d="M 3.171875 21.484375 
L 3.171875 30.328125 
L 30.171875 30.328125 
L 30.171875 21.484375 
z
" id="ArialMT-45"/>
        <path d="M 7.328125 0 
L 7.328125 71.578125 
L 34.1875 71.578125 
Q 42.390625 71.578125 47.34375 69.40625 
Q 52.296875 67.234375 55.09375 62.71875 
Q 57.90625 58.203125 57.90625 53.265625 
Q 57.90625 48.6875 55.421875 44.625 
Q 52.9375 40.578125 47.90625 38.09375 
Q 54.390625 36.1875 57.875 31.59375 
Q 61.375 27 61.375 20.75 
Q 61.375 15.71875 59.25 11.390625 
Q 57.125 7.078125 54 4.734375 
Q 50.875 2.390625 46.15625 1.1875 
Q 41.453125 0 34.625 0 
z
M 16.796875 41.5 
L 32.28125 41.5 
Q 38.578125 41.5 41.3125 42.328125 
Q 44.921875 43.40625 46.75 45.890625 
Q 48.578125 48.390625 48.578125 52.15625 
Q 48.578125 55.71875 46.875 58.421875 
Q 45.171875 61.140625 41.984375 62.140625 
Q 38.8125 63.140625 31.109375 63.140625 
L 16.796875 63.140625 
z
M 16.796875 8.453125 
L 34.625 8.453125 
Q 39.203125 8.453125 41.0625 8.796875 
Q 44.34375 9.375 46.53125 10.734375 
Q 48.734375 12.109375 50.140625 14.71875 
Q 51.5625 17.328125 51.5625 20.75 
Q 51.5625 24.75 49.515625 27.703125 
Q 47.46875 30.671875 43.828125 31.859375 
Q 40.1875 33.0625 33.34375 33.0625 
L 16.796875 33.0625 
z
" id="ArialMT-66"/>
        <path d="M 6.640625 61.46875 
L 6.640625 71.578125 
L 15.4375 71.578125 
L 15.4375 61.46875 
z
M 6.640625 0 
L 6.640625 51.859375 
L 15.4375 51.859375 
L 15.4375 0 
z
" id="ArialMT-105"/>
        <path d="M 6.203125 -19.96875 
L 5.21875 -11.71875 
Q 8.109375 -12.5 10.25 -12.5 
Q 13.1875 -12.5 14.9375 -11.515625 
Q 16.703125 -10.546875 17.828125 -8.796875 
Q 18.65625 -7.46875 20.515625 -2.25 
Q 20.75 -1.515625 21.296875 -0.09375 
L 1.609375 51.859375 
L 11.078125 51.859375 
L 21.875 21.828125 
Q 23.96875 16.109375 25.640625 9.8125 
Q 27.15625 15.875 29.25 21.625 
L 40.328125 51.859375 
L 49.125 51.859375 
L 29.390625 -0.875 
Q 26.21875 -9.421875 24.46875 -12.640625 
Q 22.125 -17 19.09375 -19.015625 
Q 16.0625 -21.046875 11.859375 -21.046875 
Q 9.328125 -21.046875 6.203125 -19.96875 
z
" id="ArialMT-121"/>
       </defs>
       <use xlink:href="#ArialMT-79"/>
       <use x="77.783203" xlink:href="#ArialMT-116"/>
       <use x="105.566406" xlink:href="#ArialMT-104"/>
       <use x="161.181641" xlink:href="#ArialMT-101"/>
       <use x="216.796875" xlink:href="#ArialMT-114"/>
       <use x="250.097656" xlink:href="#ArialMT-47"/>
       <use x="277.880859" xlink:href="#ArialMT-78"/>
       <use x="350.097656" xlink:href="#ArialMT-111"/>
       <use x="405.712891" xlink:href="#ArialMT-110"/>
       <use x="461.328125" xlink:href="#ArialMT-45"/>
       <use x="494.628906" xlink:href="#ArialMT-66"/>
       <use x="561.328125" xlink:href="#ArialMT-105"/>
       <use x="583.544922" xlink:href="#ArialMT-110"/>
       <use x="639.160156" xlink:href="#ArialMT-97"/>
       <use x="694.775391" xlink:href="#ArialMT-114"/>
       <use x="728.076172" xlink:href="#ArialMT-121"/>
      </g>
     </g>
    </g>
    <g id="text_4">
     <!-- Gender -->
     <g style="fill:#262626;" transform="translate(422.789062 410.419062)scale(0.12 -0.12)">
      <defs>
       <path d="M 41.21875 28.078125 
L 41.21875 36.46875 
L 71.53125 36.53125 
L 71.53125 9.96875 
Q 64.546875 4.390625 57.125 1.578125 
Q 49.703125 -1.21875 41.890625 -1.21875 
Q 31.34375 -1.21875 22.71875 3.296875 
Q 14.109375 7.8125 9.71875 16.359375 
Q 5.328125 24.90625 5.328125 35.453125 
Q 5.328125 45.90625 9.6875 54.953125 
Q 14.0625 64.015625 22.265625 68.40625 
Q 30.46875 72.796875 41.15625 72.796875 
Q 48.921875 72.796875 55.1875 70.28125 
Q 61.46875 67.78125 65.03125 63.28125 
Q 68.609375 58.796875 70.453125 51.5625 
L 61.921875 49.21875 
Q 60.296875 54.6875 57.90625 57.8125 
Q 55.515625 60.9375 51.0625 62.8125 
Q 46.625 64.703125 41.21875 64.703125 
Q 34.71875 64.703125 29.984375 62.71875 
Q 25.25 60.75 22.34375 57.515625 
Q 19.4375 54.296875 17.828125 50.4375 
Q 15.09375 43.796875 15.09375 36.03125 
Q 15.09375 26.46875 18.390625 20.015625 
Q 21.6875 13.578125 27.984375 10.453125 
Q 34.28125 7.328125 41.359375 7.328125 
Q 47.515625 7.328125 53.375 9.6875 
Q 59.234375 12.0625 62.25 14.75 
L 62.25 28.078125 
z
" id="ArialMT-71"/>
       <path d="M 40.234375 0 
L 40.234375 6.546875 
Q 35.296875 -1.171875 25.734375 -1.171875 
Q 19.53125 -1.171875 14.328125 2.25 
Q 9.125 5.671875 6.265625 11.796875 
Q 3.421875 17.921875 3.421875 25.875 
Q 3.421875 33.640625 6 39.96875 
Q 8.59375 46.296875 13.765625 49.65625 
Q 18.953125 53.03125 25.34375 53.03125 
Q 30.03125 53.03125 33.6875 51.046875 
Q 37.359375 49.078125 39.65625 45.90625 
L 39.65625 71.578125 
L 48.390625 71.578125 
L 48.390625 0 
z
M 12.453125 25.875 
Q 12.453125 15.921875 16.640625 10.984375 
Q 20.84375 6.0625 26.5625 6.0625 
Q 32.328125 6.0625 36.34375 10.765625 
Q 40.375 15.484375 40.375 25.140625 
Q 40.375 35.796875 36.265625 40.765625 
Q 32.171875 45.75 26.171875 45.75 
Q 20.3125 45.75 16.375 40.96875 
Q 12.453125 36.1875 12.453125 25.875 
z
" id="ArialMT-100"/>
      </defs>
      <use xlink:href="#ArialMT-71"/>
      <use x="77.783203" xlink:href="#ArialMT-101"/>
      <use x="133.398438" xlink:href="#ArialMT-110"/>
      <use x="189.013672" xlink:href="#ArialMT-100"/>
      <use x="244.628906" xlink:href="#ArialMT-101"/>
      <use x="300.244141" xlink:href="#ArialMT-114"/>
     </g>
    </g>
   </g>
   <g id="matplotlib.axis_2">
    <g id="ytick_1">
     <g id="line2d_1">
      <path clip-path="url(#pac8df222f5)" d="M 108 363.174545 
L 777.6 363.174545 
" style="fill:none;stroke:#ffffff;stroke-linecap:round;"/>
     </g>
     <g id="text_5">
      <!-- 50 -->
      <g style="fill:#262626;" transform="translate(86.265938 367.111342)scale(0.11 -0.11)">
       <defs>
        <path d="M 4.15625 18.75 
L 13.375 19.53125 
Q 14.40625 12.796875 18.140625 9.390625 
Q 21.875 6 27.15625 6 
Q 33.5 6 37.890625 10.78125 
Q 42.28125 15.578125 42.28125 23.484375 
Q 42.28125 31 38.0625 35.34375 
Q 33.84375 39.703125 27 39.703125 
Q 22.75 39.703125 19.328125 37.765625 
Q 15.921875 35.84375 13.96875 32.765625 
L 5.71875 33.84375 
L 12.640625 70.609375 
L 48.25 70.609375 
L 48.25 62.203125 
L 19.671875 62.203125 
L 15.828125 42.96875 
Q 22.265625 47.46875 29.34375 47.46875 
Q 38.71875 47.46875 45.15625 40.96875 
Q 51.609375 34.46875 51.609375 24.265625 
Q 51.609375 14.546875 45.953125 7.46875 
Q 39.0625 -1.21875 27.15625 -1.21875 
Q 17.390625 -1.21875 11.203125 4.25 
Q 5.03125 9.71875 4.15625 18.75 
z
" id="ArialMT-53"/>
        <path d="M 4.15625 35.296875 
Q 4.15625 48 6.765625 55.734375 
Q 9.375 63.484375 14.515625 67.671875 
Q 19.671875 71.875 27.484375 71.875 
Q 33.25 71.875 37.59375 69.546875 
Q 41.9375 67.234375 44.765625 62.859375 
Q 47.609375 58.5 49.21875 52.21875 
Q 50.828125 45.953125 50.828125 35.296875 
Q 50.828125 22.703125 48.234375 14.96875 
Q 45.65625 7.234375 40.5 3 
Q 35.359375 -1.21875 27.484375 -1.21875 
Q 17.140625 -1.21875 11.234375 6.203125 
Q 4.15625 15.140625 4.15625 35.296875 
z
M 13.1875 35.296875 
Q 13.1875 17.671875 17.3125 11.828125 
Q 21.4375 6 27.484375 6 
Q 33.546875 6 37.671875 11.859375 
Q 41.796875 17.71875 41.796875 35.296875 
Q 41.796875 52.984375 37.671875 58.78125 
Q 33.546875 64.59375 27.390625 64.59375 
Q 21.34375 64.59375 17.71875 59.46875 
Q 13.1875 52.9375 13.1875 35.296875 
z
" id="ArialMT-48"/>
       </defs>
       <use xlink:href="#ArialMT-53"/>
       <use x="55.615234" xlink:href="#ArialMT-48"/>
      </g>
     </g>
    </g>
    <g id="ytick_2">
     <g id="line2d_2">
      <path clip-path="url(#pac8df222f5)" d="M 108 298.716047 
L 777.6 298.716047 
" style="fill:none;stroke:#ffffff;stroke-linecap:round;"/>
     </g>
     <g id="text_6">
      <!-- 100 -->
      <g style="fill:#262626;" transform="translate(80.148906 302.652844)scale(0.11 -0.11)">
       <defs>
        <path d="M 37.25 0 
L 28.46875 0 
L 28.46875 56 
Q 25.296875 52.984375 20.140625 49.953125 
Q 14.984375 46.921875 10.890625 45.40625 
L 10.890625 53.90625 
Q 18.265625 57.375 23.78125 62.296875 
Q 29.296875 67.234375 31.59375 71.875 
L 37.25 71.875 
z
" id="ArialMT-49"/>
       </defs>
       <use xlink:href="#ArialMT-49"/>
       <use x="55.615234" xlink:href="#ArialMT-48"/>
       <use x="111.230469" xlink:href="#ArialMT-48"/>
      </g>
     </g>
    </g>
    <g id="ytick_3">
     <g id="line2d_3">
      <path clip-path="url(#pac8df222f5)" d="M 108 234.257549 
L 777.6 234.257549 
" style="fill:none;stroke:#ffffff;stroke-linecap:round;"/>
     </g>
     <g id="text_7">
      <!-- 150 -->
      <g style="fill:#262626;" transform="translate(80.148906 238.194346)scale(0.11 -0.11)">
       <use xlink:href="#ArialMT-49"/>
       <use x="55.615234" xlink:href="#ArialMT-53"/>
       <use x="111.230469" xlink:href="#ArialMT-48"/>
      </g>
     </g>
    </g>
    <g id="ytick_4">
     <g id="line2d_4">
      <path clip-path="url(#pac8df222f5)" d="M 108 169.799051 
L 777.6 169.799051 
" style="fill:none;stroke:#ffffff;stroke-linecap:round;"/>
     </g>
     <g id="text_8">
      <!-- 200 -->
      <g style="fill:#262626;" transform="translate(80.148906 173.735848)scale(0.11 -0.11)">
       <defs>
        <path d="M 50.34375 8.453125 
L 50.34375 0 
L 3.03125 0 
Q 2.9375 3.171875 4.046875 6.109375 
Q 5.859375 10.9375 9.828125 15.625 
Q 13.8125 20.3125 21.34375 26.46875 
Q 33.015625 36.03125 37.109375 41.625 
Q 41.21875 47.21875 41.21875 52.203125 
Q 41.21875 57.421875 37.46875 61 
Q 33.734375 64.59375 27.734375 64.59375 
Q 21.390625 64.59375 17.578125 60.78125 
Q 13.765625 56.984375 13.71875 50.25 
L 4.6875 51.171875 
Q 5.609375 61.28125 11.65625 66.578125 
Q 17.71875 71.875 27.9375 71.875 
Q 38.234375 71.875 44.234375 66.15625 
Q 50.25 60.453125 50.25 52 
Q 50.25 47.703125 48.484375 43.546875 
Q 46.734375 39.40625 42.65625 34.8125 
Q 38.578125 30.21875 29.109375 22.21875 
Q 21.1875 15.578125 18.9375 13.203125 
Q 16.703125 10.84375 15.234375 8.453125 
z
" id="ArialMT-50"/>
       </defs>
       <use xlink:href="#ArialMT-50"/>
       <use x="55.615234" xlink:href="#ArialMT-48"/>
       <use x="111.230469" xlink:href="#ArialMT-48"/>
      </g>
     </g>
    </g>
    <g id="ytick_5">
     <g id="line2d_5">
      <path clip-path="url(#pac8df222f5)" d="M 108 105.340553 
L 777.6 105.340553 
" style="fill:none;stroke:#ffffff;stroke-linecap:round;"/>
     </g>
     <g id="text_9">
      <!-- 250 -->
      <g style="fill:#262626;" transform="translate(80.148906 109.27735)scale(0.11 -0.11)">
       <use xlink:href="#ArialMT-50"/>
       <use x="55.615234" xlink:href="#ArialMT-53"/>
       <use x="111.230469" xlink:href="#ArialMT-48"/>
      </g>
     </g>
    </g>
    <g id="text_10">
     <!-- Annual income (thousands) -->
     <g style="fill:#262626;" transform="translate(73.623281 287.957812)rotate(-90)scale(0.12 -0.12)">
      <defs>
       <path d="M -0.140625 0 
L 27.34375 71.578125 
L 37.546875 71.578125 
L 66.84375 0 
L 56.0625 0 
L 47.703125 21.6875 
L 17.78125 21.6875 
L 9.90625 0 
z
M 20.515625 29.390625 
L 44.78125 29.390625 
L 37.3125 49.21875 
Q 33.890625 58.25 32.234375 64.0625 
Q 30.859375 57.171875 28.375 50.390625 
z
" id="ArialMT-65"/>
       <path d="M 40.578125 0 
L 40.578125 7.625 
Q 34.515625 -1.171875 24.125 -1.171875 
Q 19.53125 -1.171875 15.546875 0.578125 
Q 11.578125 2.34375 9.640625 5 
Q 7.71875 7.671875 6.9375 11.53125 
Q 6.390625 14.109375 6.390625 19.734375 
L 6.390625 51.859375 
L 15.1875 51.859375 
L 15.1875 23.09375 
Q 15.1875 16.21875 15.71875 13.8125 
Q 16.546875 10.359375 19.234375 8.375 
Q 21.921875 6.390625 25.875 6.390625 
Q 29.828125 6.390625 33.296875 8.421875 
Q 36.765625 10.453125 38.203125 13.9375 
Q 39.65625 17.4375 39.65625 24.078125 
L 39.65625 51.859375 
L 48.4375 51.859375 
L 48.4375 0 
z
" id="ArialMT-117"/>
       <path id="ArialMT-32"/>
       <path d="M 40.4375 19 
L 49.078125 17.875 
Q 47.65625 8.9375 41.8125 3.875 
Q 35.984375 -1.171875 27.484375 -1.171875 
Q 16.84375 -1.171875 10.375 5.78125 
Q 3.90625 12.75 3.90625 25.734375 
Q 3.90625 34.125 6.6875 40.421875 
Q 9.46875 46.734375 15.15625 49.875 
Q 20.84375 53.03125 27.546875 53.03125 
Q 35.984375 53.03125 41.359375 48.75 
Q 46.734375 44.484375 48.25 36.625 
L 39.703125 35.296875 
Q 38.484375 40.53125 35.375 43.15625 
Q 32.28125 45.796875 27.875 45.796875 
Q 21.234375 45.796875 17.078125 41.03125 
Q 12.9375 36.28125 12.9375 25.984375 
Q 12.9375 15.53125 16.9375 10.796875 
Q 20.953125 6.0625 27.390625 6.0625 
Q 32.5625 6.0625 36.03125 9.234375 
Q 39.5 12.40625 40.4375 19 
z
" id="ArialMT-99"/>
       <path d="M 23.390625 -21.046875 
Q 16.109375 -11.859375 11.078125 0.4375 
Q 6.0625 12.75 6.0625 25.921875 
Q 6.0625 37.546875 9.8125 48.1875 
Q 14.203125 60.546875 23.390625 72.796875 
L 29.6875 72.796875 
Q 23.78125 62.640625 21.875 58.296875 
Q 18.890625 51.5625 17.1875 44.234375 
Q 15.09375 35.109375 15.09375 25.875 
Q 15.09375 2.390625 29.6875 -21.046875 
z
" id="ArialMT-40"/>
       <path d="M 3.078125 15.484375 
L 11.765625 16.84375 
Q 12.5 11.625 15.84375 8.84375 
Q 19.1875 6.0625 25.203125 6.0625 
Q 31.25 6.0625 34.171875 8.515625 
Q 37.109375 10.984375 37.109375 14.3125 
Q 37.109375 17.28125 34.515625 19 
Q 32.71875 20.171875 25.53125 21.96875 
Q 15.875 24.421875 12.140625 26.203125 
Q 8.40625 27.984375 6.46875 31.125 
Q 4.546875 34.28125 4.546875 38.09375 
Q 4.546875 41.546875 6.125 44.5 
Q 7.71875 47.46875 10.453125 49.421875 
Q 12.5 50.921875 16.03125 51.96875 
Q 19.578125 53.03125 23.640625 53.03125 
Q 29.734375 53.03125 34.34375 51.265625 
Q 38.96875 49.515625 41.15625 46.5 
Q 43.359375 43.5 44.1875 38.484375 
L 35.59375 37.3125 
Q 35.015625 41.3125 32.203125 43.546875 
Q 29.390625 45.796875 24.265625 45.796875 
Q 18.21875 45.796875 15.625 43.796875 
Q 13.03125 41.796875 13.03125 39.109375 
Q 13.03125 37.40625 14.109375 36.03125 
Q 15.1875 34.625 17.484375 33.6875 
Q 18.796875 33.203125 25.25 31.453125 
Q 34.578125 28.953125 38.25 27.359375 
Q 41.9375 25.78125 44.03125 22.75 
Q 46.140625 19.734375 46.140625 15.234375 
Q 46.140625 10.84375 43.578125 6.953125 
Q 41.015625 3.078125 36.171875 0.953125 
Q 31.34375 -1.171875 25.25 -1.171875 
Q 15.140625 -1.171875 9.84375 3.03125 
Q 4.546875 7.234375 3.078125 15.484375 
z
" id="ArialMT-115"/>
       <path d="M 12.359375 -21.046875 
L 6.0625 -21.046875 
Q 20.65625 2.390625 20.65625 25.875 
Q 20.65625 35.0625 18.5625 44.09375 
Q 16.890625 51.421875 13.921875 58.15625 
Q 12.015625 62.546875 6.0625 72.796875 
L 12.359375 72.796875 
Q 21.53125 60.546875 25.921875 48.1875 
Q 29.6875 37.546875 29.6875 25.921875 
Q 29.6875 12.75 24.625 0.4375 
Q 19.578125 -11.859375 12.359375 -21.046875 
z
" id="ArialMT-41"/>
      </defs>
      <use xlink:href="#ArialMT-65"/>
      <use x="66.699219" xlink:href="#ArialMT-110"/>
      <use x="122.314453" xlink:href="#ArialMT-110"/>
      <use x="177.929688" xlink:href="#ArialMT-117"/>
      <use x="233.544922" xlink:href="#ArialMT-97"/>
      <use x="289.160156" xlink:href="#ArialMT-108"/>
      <use x="311.376953" xlink:href="#ArialMT-32"/>
      <use x="339.160156" xlink:href="#ArialMT-105"/>
      <use x="361.376953" xlink:href="#ArialMT-110"/>
      <use x="416.992188" xlink:href="#ArialMT-99"/>
      <use x="466.992188" xlink:href="#ArialMT-111"/>
      <use x="522.607422" xlink:href="#ArialMT-109"/>
      <use x="605.908203" xlink:href="#ArialMT-101"/>
      <use x="661.523438" xlink:href="#ArialMT-32"/>
      <use x="689.306641" xlink:href="#ArialMT-40"/>
      <use x="722.607422" xlink:href="#ArialMT-116"/>
      <use x="750.390625" xlink:href="#ArialMT-104"/>
      <use x="806.005859" xlink:href="#ArialMT-111"/>
      <use x="861.621094" xlink:href="#ArialMT-117"/>
      <use x="917.236328" xlink:href="#ArialMT-115"/>
      <use x="967.236328" xlink:href="#ArialMT-97"/>
      <use x="1022.851562" xlink:href="#ArialMT-110"/>
      <use x="1078.466797" xlink:href="#ArialMT-100"/>
      <use x="1134.082031" xlink:href="#ArialMT-115"/>
      <use x="1184.082031" xlink:href="#ArialMT-41"/>
     </g>
    </g>
   </g>
   <g id="PolyCollection_1">
    <defs>
     <path d="M 227.551475 -88.163004 
L 211.648525 -88.163004 
L 211.218516 -90.44184 
L 210.799328 -92.720676 
L 210.394813 -94.999511 
L 210.008837 -97.278347 
L 209.645225 -99.557183 
L 209.30769 -101.836019 
L 208.99978 -104.114854 
L 208.724807 -106.39369 
L 208.485792 -108.672526 
L 208.285407 -110.951362 
L 208.125918 -113.230198 
L 208.009147 -115.509033 
L 207.936426 -117.787869 
L 207.908571 -120.066705 
L 207.925863 -122.345541 
L 207.98803 -124.624377 
L 208.094255 -126.903212 
L 208.243182 -129.182048 
L 208.432938 -131.460884 
L 208.661163 -133.73972 
L 208.925055 -136.018556 
L 209.221414 -138.297391 
L 209.5467 -140.576227 
L 209.897099 -142.855063 
L 210.268588 -145.133899 
L 210.657007 -147.412734 
L 211.058132 -149.69157 
L 211.467746 -151.970406 
L 211.881712 -154.249242 
L 212.296036 -156.528078 
L 212.706936 -158.806913 
L 213.110892 -161.085749 
L 213.504699 -163.364585 
L 213.885507 -165.643421 
L 214.250852 -167.922257 
L 214.598679 -170.201092 
L 214.927358 -172.479928 
L 215.235681 -174.758764 
L 215.522863 -177.0376 
L 215.788526 -179.316436 
L 216.032673 -181.595271 
L 216.255664 -183.874107 
L 216.458178 -186.152943 
L 216.64117 -188.431779 
L 216.805833 -190.710614 
L 216.953546 -192.98945 
L 217.085831 -195.268286 
L 217.204301 -197.547122 
L 217.310615 -199.825958 
L 217.406437 -202.104793 
L 217.493393 -204.383629 
L 217.573032 -206.662465 
L 217.646797 -208.941301 
L 217.715998 -211.220137 
L 217.781791 -213.498972 
L 217.845159 -215.777808 
L 217.906905 -218.056644 
L 217.96765 -220.33548 
L 218.027828 -222.614315 
L 218.087695 -224.893151 
L 218.147339 -227.171987 
L 218.206693 -229.450823 
L 218.26555 -231.729659 
L 218.323585 -234.008494 
L 218.380374 -236.28733 
L 218.435415 -238.566166 
L 218.488153 -240.845002 
L 218.538 -243.123838 
L 218.584357 -245.402673 
L 218.626636 -247.681509 
L 218.664278 -249.960345 
L 218.696772 -252.239181 
L 218.723669 -254.518017 
L 218.744599 -256.796852 
L 218.759277 -259.075688 
L 218.767519 -261.354524 
L 218.769244 -263.63336 
L 218.764481 -265.912195 
L 218.75337 -268.191031 
L 218.736161 -270.469867 
L 218.713217 -272.748703 
L 218.685002 -275.027539 
L 218.652079 -277.306374 
L 218.615102 -279.58521 
L 218.574801 -281.864046 
L 218.531974 -284.142882 
L 218.48747 -286.421718 
L 218.442178 -288.700553 
L 218.397006 -290.979389 
L 218.352865 -293.258225 
L 218.310655 -295.537061 
L 218.271245 -297.815897 
L 218.235455 -300.094732 
L 218.204044 -302.373568 
L 218.177692 -304.652404 
L 218.156985 -306.93124 
L 218.142412 -309.210075 
L 218.134347 -311.488911 
L 218.133047 -313.767747 
L 221.066953 -313.767747 
L 221.066953 -313.767747 
L 221.065653 -311.488911 
L 221.057588 -309.210075 
L 221.043015 -306.93124 
L 221.022308 -304.652404 
L 220.995956 -302.373568 
L 220.964545 -300.094732 
L 220.928755 -297.815897 
L 220.889345 -295.537061 
L 220.847135 -293.258225 
L 220.802994 -290.979389 
L 220.757822 -288.700553 
L 220.71253 -286.421718 
L 220.668026 -284.142882 
L 220.625199 -281.864046 
L 220.584898 -279.58521 
L 220.547921 -277.306374 
L 220.514998 -275.027539 
L 220.486783 -272.748703 
L 220.463839 -270.469867 
L 220.44663 -268.191031 
L 220.435519 -265.912195 
L 220.430756 -263.63336 
L 220.432481 -261.354524 
L 220.440723 -259.075688 
L 220.455401 -256.796852 
L 220.476331 -254.518017 
L 220.503228 -252.239181 
L 220.535722 -249.960345 
L 220.573364 -247.681509 
L 220.615643 -245.402673 
L 220.662 -243.123838 
L 220.711847 -240.845002 
L 220.764585 -238.566166 
L 220.819626 -236.28733 
L 220.876415 -234.008494 
L 220.93445 -231.729659 
L 220.993307 -229.450823 
L 221.052661 -227.171987 
L 221.112305 -224.893151 
L 221.172172 -222.614315 
L 221.23235 -220.33548 
L 221.293095 -218.056644 
L 221.354841 -215.777808 
L 221.418209 -213.498972 
L 221.484002 -211.220137 
L 221.553203 -208.941301 
L 221.626968 -206.662465 
L 221.706607 -204.383629 
L 221.793563 -202.104793 
L 221.889385 -199.825958 
L 221.995699 -197.547122 
L 222.114169 -195.268286 
L 222.246454 -192.98945 
L 222.394167 -190.710614 
L 222.55883 -188.431779 
L 222.741822 -186.152943 
L 222.944336 -183.874107 
L 223.167327 -181.595271 
L 223.411474 -179.316436 
L 223.677137 -177.0376 
L 223.964319 -174.758764 
L 224.272642 -172.479928 
L 224.601321 -170.201092 
L 224.949148 -167.922257 
L 225.314493 -165.643421 
L 225.695301 -163.364585 
L 226.089108 -161.085749 
L 226.493064 -158.806913 
L 226.903964 -156.528078 
L 227.318288 -154.249242 
L 227.732254 -151.970406 
L 228.141868 -149.69157 
L 228.542993 -147.412734 
L 228.931412 -145.133899 
L 229.302901 -142.855063 
L 229.6533 -140.576227 
L 229.978586 -138.297391 
L 230.274945 -136.018556 
L 230.538837 -133.73972 
L 230.767062 -131.460884 
L 230.956818 -129.182048 
L 231.105745 -126.903212 
L 231.21197 -124.624377 
L 231.274137 -122.345541 
L 231.291429 -120.066705 
L 231.263574 -117.787869 
L 231.190853 -115.509033 
L 231.074082 -113.230198 
L 230.914593 -110.951362 
L 230.714208 -108.672526 
L 230.475193 -106.39369 
L 230.20022 -104.114854 
L 229.89231 -101.836019 
L 229.554775 -99.557183 
L 229.191163 -97.278347 
L 228.805187 -94.999511 
L 228.400672 -92.720676 
L 227.981484 -90.44184 
L 227.551475 -88.163004 
z
" id="m3c4b194b52" style="stroke:#4c4c4c;stroke-width:1.5;"/>
    </defs>
    <g clip-path="url(#pac8df222f5)">
     <use style="fill:#5875a4;stroke:#4c4c4c;stroke-width:1.5;" x="0" xlink:href="#m3c4b194b52" y="432"/>
    </g>
   </g>
   <g id="PolyCollection_2">
    <defs>
     <path d="M 465.590913 -68.825455 
L 420.009087 -68.825455 
L 417.452185 -71.820496 
L 414.788069 -74.815537 
L 412.033857 -77.810579 
L 409.207427 -80.80562 
L 406.326696 -83.800661 
L 403.408911 -86.795702 
L 400.470017 -89.790744 
L 397.524153 -92.785785 
L 394.583333 -95.780826 
L 391.65735 -98.775868 
L 388.753937 -101.770909 
L 385.879165 -104.76595 
L 383.038083 -107.760992 
L 380.235535 -110.756033 
L 377.477111 -113.751074 
L 374.770124 -116.746116 
L 372.124553 -119.741157 
L 369.55383 -122.736198 
L 367.075407 -125.73124 
L 364.711017 -128.726281 
L 362.486584 -131.721322 
L 360.431749 -134.716364 
L 358.579038 -137.711405 
L 356.96268 -140.706446 
L 355.617167 -143.701488 
L 354.575626 -146.696529 
L 353.868122 -149.69157 
L 353.52 -152.686612 
L 353.550376 -155.681653 
L 353.970896 -158.676694 
L 354.784839 -161.671736 
L 355.986629 -164.666777 
L 357.561798 -167.661818 
L 359.487393 -170.65686 
L 361.732805 -173.651901 
L 364.260968 -176.646942 
L 367.029835 -179.641983 
L 369.994052 -182.637025 
L 373.106709 -185.632066 
L 376.321075 -188.627107 
L 379.5922 -191.622149 
L 382.878321 -194.61719 
L 386.141983 -197.612231 
L 389.350844 -200.607273 
L 392.478149 -203.602314 
L 395.502861 -206.597355 
L 398.409504 -209.592397 
L 401.187736 -212.587438 
L 403.831735 -215.582479 
L 406.339451 -218.577521 
L 408.711787 -221.572562 
L 410.951797 -224.567603 
L 413.063921 -227.562645 
L 415.053327 -230.557686 
L 416.925383 -233.552727 
L 418.685254 -236.547769 
L 420.337664 -239.54281 
L 421.886765 -242.537851 
L 423.336142 -245.532893 
L 424.688887 -248.527934 
L 425.94775 -251.522975 
L 427.115311 -254.518017 
L 428.194168 -257.513058 
L 429.18711 -260.508099 
L 430.097259 -263.50314 
L 430.928168 -266.498182 
L 431.68388 -269.493223 
L 432.368921 -272.488264 
L 432.988256 -275.483306 
L 433.547187 -278.478347 
L 434.051228 -281.473388 
L 434.505941 -284.46843 
L 434.916759 -287.463471 
L 435.288813 -290.458512 
L 435.626764 -293.453554 
L 435.934668 -296.448595 
L 436.215876 -299.443636 
L 436.472986 -302.438678 
L 436.707846 -305.433719 
L 436.921627 -308.42876 
L 437.11494 -311.423802 
L 437.288009 -314.418843 
L 437.440879 -317.413884 
L 437.573635 -320.408926 
L 437.68663 -323.403967 
L 437.780684 -326.399008 
L 437.857244 -329.39405 
L 437.918484 -332.389091 
L 437.967342 -335.384132 
L 438.007473 -338.379174 
L 438.043135 -341.374215 
L 438.079007 -344.369256 
L 438.11996 -347.364298 
L 438.170784 -350.359339 
L 438.235923 -353.35438 
L 438.319203 -356.349421 
L 438.423611 -359.344463 
L 438.551113 -362.339504 
L 438.702546 -365.334545 
L 446.897454 -365.334545 
L 446.897454 -365.334545 
L 447.048887 -362.339504 
L 447.176389 -359.344463 
L 447.280797 -356.349421 
L 447.364077 -353.35438 
L 447.429216 -350.359339 
L 447.48004 -347.364298 
L 447.520993 -344.369256 
L 447.556865 -341.374215 
L 447.592527 -338.379174 
L 447.632658 -335.384132 
L 447.681516 -332.389091 
L 447.742756 -329.39405 
L 447.819316 -326.399008 
L 447.91337 -323.403967 
L 448.026365 -320.408926 
L 448.159121 -317.413884 
L 448.311991 -314.418843 
L 448.48506 -311.423802 
L 448.678373 -308.42876 
L 448.892154 -305.433719 
L 449.127014 -302.438678 
L 449.384124 -299.443636 
L 449.665332 -296.448595 
L 449.973236 -293.453554 
L 450.311187 -290.458512 
L 450.683241 -287.463471 
L 451.094059 -284.46843 
L 451.548772 -281.473388 
L 452.052813 -278.478347 
L 452.611744 -275.483306 
L 453.231079 -272.488264 
L 453.91612 -269.493223 
L 454.671832 -266.498182 
L 455.502741 -263.50314 
L 456.41289 -260.508099 
L 457.405832 -257.513058 
L 458.484689 -254.518017 
L 459.65225 -251.522975 
L 460.911113 -248.527934 
L 462.263858 -245.532893 
L 463.713235 -242.537851 
L 465.262336 -239.54281 
L 466.914746 -236.547769 
L 468.674617 -233.552727 
L 470.546673 -230.557686 
L 472.536079 -227.562645 
L 474.648203 -224.567603 
L 476.888213 -221.572562 
L 479.260549 -218.577521 
L 481.768265 -215.582479 
L 484.412264 -212.587438 
L 487.190496 -209.592397 
L 490.097139 -206.597355 
L 493.121851 -203.602314 
L 496.249156 -200.607273 
L 499.458017 -197.612231 
L 502.721679 -194.61719 
L 506.0078 -191.622149 
L 509.278925 -188.627107 
L 512.493291 -185.632066 
L 515.605948 -182.637025 
L 518.570165 -179.641983 
L 521.339032 -176.646942 
L 523.867195 -173.651901 
L 526.112607 -170.65686 
L 528.038202 -167.661818 
L 529.613371 -164.666777 
L 530.815161 -161.671736 
L 531.629104 -158.676694 
L 532.049624 -155.681653 
L 532.08 -152.686612 
L 531.731878 -149.69157 
L 531.024374 -146.696529 
L 529.982833 -143.701488 
L 528.63732 -140.706446 
L 527.020962 -137.711405 
L 525.168251 -134.716364 
L 523.113416 -131.721322 
L 520.888983 -128.726281 
L 518.524593 -125.73124 
L 516.04617 -122.736198 
L 513.475447 -119.741157 
L 510.829876 -116.746116 
L 508.122889 -113.751074 
L 505.364465 -110.756033 
L 502.561917 -107.760992 
L 499.720835 -104.76595 
L 496.846063 -101.770909 
L 493.94265 -98.775868 
L 491.016667 -95.780826 
L 488.075847 -92.785785 
L 485.129983 -89.790744 
L 482.191089 -86.795702 
L 479.273304 -83.800661 
L 476.392573 -80.80562 
L 473.566143 -77.810579 
L 470.811931 -74.815537 
L 468.147815 -71.820496 
L 465.590913 -68.825455 
z
" id="m4168b187e8" style="stroke:#4c4c4c;stroke-width:1.5;"/>
    </defs>
    <g clip-path="url(#pac8df222f5)">
     <use style="fill:#cc8963;stroke:#4c4c4c;stroke-width:1.5;" x="0" xlink:href="#m4168b187e8" y="432"/>
    </g>
   </g>
   <g id="PolyCollection_3">
    <defs>
     <path d="M 670.135521 -83.006324 
L 661.864479 -83.006324 
L 661.827737 -84.555932 
L 661.797805 -86.105541 
L 661.774829 -87.655149 
L 661.758921 -89.204757 
L 661.750155 -90.754366 
L 661.748571 -92.303974 
L 661.754172 -93.853582 
L 661.766922 -95.403191 
L 661.786751 -96.952799 
L 661.813551 -98.502407 
L 661.847181 -100.052016 
L 661.887465 -101.601624 
L 661.934194 -103.151232 
L 661.987129 -104.700841 
L 662.046001 -106.250449 
L 662.110516 -107.800057 
L 662.180354 -109.349666 
L 662.255172 -110.899274 
L 662.334609 -112.448883 
L 662.418287 -113.998491 
L 662.505811 -115.548099 
L 662.59678 -117.097708 
L 662.690779 -118.647316 
L 662.787389 -120.196924 
L 662.88619 -121.746533 
L 662.986758 -123.296141 
L 663.088674 -124.845749 
L 663.191522 -126.395358 
L 663.294894 -127.944966 
L 663.398391 -129.494574 
L 663.501623 -131.044183 
L 663.604217 -132.593791 
L 663.705811 -134.143399 
L 663.806062 -135.693008 
L 663.904643 -137.242616 
L 664.001246 -138.792224 
L 664.095581 -140.341833 
L 664.187381 -141.891441 
L 664.276397 -143.441049 
L 664.362403 -144.990658 
L 664.445192 -146.540266 
L 664.52458 -148.089874 
L 664.600403 -149.639483 
L 664.672519 -151.189091 
L 664.740804 -152.738699 
L 664.805157 -154.288308 
L 664.865493 -155.837916 
L 664.92175 -157.387524 
L 664.973879 -158.937133 
L 665.021852 -160.486741 
L 665.065656 -162.036349 
L 665.105296 -163.585958 
L 665.140788 -165.135566 
L 665.172166 -166.685174 
L 665.199477 -168.234783 
L 665.222779 -169.784391 
L 665.242143 -171.333999 
L 665.257654 -172.883608 
L 665.269404 -174.433216 
L 665.277499 -175.982824 
L 665.282052 -177.532433 
L 665.283186 -179.082041 
L 665.281035 -180.631649 
L 665.275739 -182.181258 
L 665.267446 -183.730866 
L 665.256313 -185.280474 
L 665.242503 -186.830083 
L 665.226186 -188.379691 
L 665.20754 -189.929299 
L 665.186746 -191.478908 
L 665.163992 -193.028516 
L 665.139471 -194.578124 
L 665.113381 -196.127733 
L 665.085922 -197.677341 
L 665.0573 -199.226949 
L 665.027721 -200.776558 
L 664.997394 -202.326166 
L 664.966531 -203.875774 
L 664.935342 -205.425383 
L 664.904038 -206.974991 
L 664.872828 -208.524599 
L 664.841919 -210.074208 
L 664.811516 -211.623816 
L 664.781818 -213.173424 
L 664.753021 -214.723033 
L 664.725313 -216.272641 
L 664.698875 -217.822249 
L 664.673882 -219.371858 
L 664.650497 -220.921466 
L 664.628876 -222.471074 
L 664.609161 -224.020683 
L 664.591484 -225.570291 
L 664.575964 -227.119899 
L 664.562707 -228.669508 
L 664.551804 -230.219116 
L 664.543332 -231.768724 
L 664.537355 -233.318333 
L 664.533919 -234.867941 
L 664.533056 -236.417549 
L 667.466944 -236.417549 
L 667.466944 -236.417549 
L 667.466081 -234.867941 
L 667.462645 -233.318333 
L 667.456668 -231.768724 
L 667.448196 -230.219116 
L 667.437293 -228.669508 
L 667.424036 -227.119899 
L 667.408516 -225.570291 
L 667.390839 -224.020683 
L 667.371124 -222.471074 
L 667.349503 -220.921466 
L 667.326118 -219.371858 
L 667.301125 -217.822249 
L 667.274687 -216.272641 
L 667.246979 -214.723033 
L 667.218182 -213.173424 
L 667.188484 -211.623816 
L 667.158081 -210.074208 
L 667.127172 -208.524599 
L 667.095962 -206.974991 
L 667.064658 -205.425383 
L 667.033469 -203.875774 
L 667.002606 -202.326166 
L 666.972279 -200.776558 
L 666.9427 -199.226949 
L 666.914078 -197.677341 
L 666.886619 -196.127733 
L 666.860529 -194.578124 
L 666.836008 -193.028516 
L 666.813254 -191.478908 
L 666.79246 -189.929299 
L 666.773814 -188.379691 
L 666.757497 -186.830083 
L 666.743687 -185.280474 
L 666.732554 -183.730866 
L 666.724261 -182.181258 
L 666.718965 -180.631649 
L 666.716814 -179.082041 
L 666.717948 -177.532433 
L 666.722501 -175.982824 
L 666.730596 -174.433216 
L 666.742346 -172.883608 
L 666.757857 -171.333999 
L 666.777221 -169.784391 
L 666.800523 -168.234783 
L 666.827834 -166.685174 
L 666.859212 -165.135566 
L 666.894704 -163.585958 
L 666.934344 -162.036349 
L 666.978148 -160.486741 
L 667.026121 -158.937133 
L 667.07825 -157.387524 
L 667.134507 -155.837916 
L 667.194843 -154.288308 
L 667.259196 -152.738699 
L 667.327481 -151.189091 
L 667.399597 -149.639483 
L 667.47542 -148.089874 
L 667.554808 -146.540266 
L 667.637597 -144.990658 
L 667.723603 -143.441049 
L 667.812619 -141.891441 
L 667.904419 -140.341833 
L 667.998754 -138.792224 
L 668.095357 -137.242616 
L 668.193938 -135.693008 
L 668.294189 -134.143399 
L 668.395783 -132.593791 
L 668.498377 -131.044183 
L 668.601609 -129.494574 
L 668.705106 -127.944966 
L 668.808478 -126.395358 
L 668.911326 -124.845749 
L 669.013242 -123.296141 
L 669.11381 -121.746533 
L 669.212611 -120.196924 
L 669.309221 -118.647316 
L 669.40322 -117.097708 
L 669.494189 -115.548099 
L 669.581713 -113.998491 
L 669.665391 -112.448883 
L 669.744828 -110.899274 
L 669.819646 -109.349666 
L 669.889484 -107.800057 
L 669.953999 -106.250449 
L 670.012871 -104.700841 
L 670.065806 -103.151232 
L 670.112535 -101.601624 
L 670.152819 -100.052016 
L 670.186449 -98.502407 
L 670.213249 -96.952799 
L 670.233078 -95.403191 
L 670.245828 -93.853582 
L 670.251429 -92.303974 
L 670.249845 -90.754366 
L 670.241079 -89.204757 
L 670.225171 -87.655149 
L 670.202195 -86.105541 
L 670.172263 -84.555932 
L 670.135521 -83.006324 
z
" id="m06e1b123e1" style="stroke:#4c4c4c;stroke-width:1.5;"/>
    </defs>
    <g clip-path="url(#pac8df222f5)">
     <use style="fill:#5f9e6e;stroke:#4c4c4c;stroke-width:1.5;" x="0" xlink:href="#m06e1b123e1" y="432"/>
    </g>
   </g>
   <g id="line2d_6">
    <path clip-path="url(#pac8df222f5)" d="M 208.398553 321.276522 
L 230.801447 321.276522 
" style="fill:none;stroke:#4c4c4c;stroke-dasharray:3.375,3.375;stroke-dashoffset:0;stroke-width:1.5;"/>
   </g>
   <g id="line2d_7">
    <path clip-path="url(#pac8df222f5)" d="M 208.209312 305.161897 
L 230.990688 305.161897 
" style="fill:none;stroke:#4c4c4c;stroke-dasharray:6.75,6.75;stroke-dashoffset:0;stroke-width:1.5;"/>
   </g>
   <g id="line2d_8">
    <path clip-path="url(#pac8df222f5)" d="M 209.647233 292.270198 
L 229.552767 292.270198 
" style="fill:none;stroke:#4c4c4c;stroke-dasharray:3.375,3.375;stroke-dashoffset:0;stroke-width:1.5;"/>
   </g>
   <g id="line2d_9">
    <path clip-path="url(#pac8df222f5)" d="M 363.289718 300.32751 
L 522.310282 300.32751 
" style="fill:none;stroke:#4c4c4c;stroke-dasharray:3.375,3.375;stroke-dashoffset:0;stroke-width:1.5;"/>
   </g>
   <g id="line2d_10">
    <path clip-path="url(#pac8df222f5)" d="M 354.859187 273.577233 
L 530.740813 273.577233 
" style="fill:none;stroke:#4c4c4c;stroke-dasharray:6.75,6.75;stroke-dashoffset:0;stroke-width:1.5;"/>
   </g>
   <g id="line2d_11">
    <path clip-path="url(#pac8df222f5)" d="M 373.803642 247.149249 
L 511.796358 247.149249 
" style="fill:none;stroke:#4c4c4c;stroke-dasharray:3.375,3.375;stroke-dashoffset:0;stroke-width:1.5;"/>
   </g>
   <g id="line2d_12">
    <path clip-path="url(#pac8df222f5)" d="M 661.839827 345.126166 
L 670.160173 345.126166 
" style="fill:none;stroke:#4c4c4c;stroke-dasharray:3.375,3.375;stroke-dashoffset:0;stroke-width:1.5;"/>
   </g>
   <g id="line2d_13">
    <path clip-path="url(#pac8df222f5)" d="M 661.828883 335.457391 
L 670.171117 335.457391 
" style="fill:none;stroke:#4c4c4c;stroke-dasharray:6.75,6.75;stroke-dashoffset:0;stroke-width:1.5;"/>
   </g>
   <g id="line2d_14">
    <path clip-path="url(#pac8df222f5)" d="M 663.925597 294.203953 
L 668.074403 294.203953 
" style="fill:none;stroke:#4c4c4c;stroke-dasharray:3.375,3.375;stroke-dashoffset:0;stroke-width:1.5;"/>
   </g>
   <g id="patch_3">
    <path d="M 108 378 
L 108 51.84 
" style="fill:none;stroke:#ffffff;stroke-linecap:square;stroke-linejoin:miter;stroke-width:1.25;"/>
   </g>
   <g id="patch_4">
    <path d="M 777.6 378 
L 777.6 51.84 
" style="fill:none;stroke:#ffffff;stroke-linecap:square;stroke-linejoin:miter;stroke-width:1.25;"/>
   </g>
   <g id="patch_5">
    <path d="M 108 378 
L 777.6 378 
" style="fill:none;stroke:#ffffff;stroke-linecap:square;stroke-linejoin:miter;stroke-width:1.25;"/>
   </g>
   <g id="patch_6">
    <path d="M 108 51.84 
L 777.6 51.84 
" style="fill:none;stroke:#ffffff;stroke-linecap:square;stroke-linejoin:miter;stroke-width:1.25;"/>
   </g>
   <g id="text_11">
    <!-- Compensation by Gender -->
    <g style="fill:#262626;" transform="translate(374.431875 45.84)scale(0.12 -0.12)">
     <defs>
      <path d="M 58.796875 25.09375 
L 68.265625 22.703125 
Q 65.28125 11.03125 57.546875 4.90625 
Q 49.8125 -1.21875 38.625 -1.21875 
Q 27.046875 -1.21875 19.796875 3.484375 
Q 12.546875 8.203125 8.765625 17.140625 
Q 4.984375 26.078125 4.984375 36.328125 
Q 4.984375 47.515625 9.25 55.828125 
Q 13.53125 64.15625 21.40625 68.46875 
Q 29.296875 72.796875 38.765625 72.796875 
Q 49.515625 72.796875 56.828125 67.328125 
Q 64.15625 61.859375 67.046875 51.953125 
L 57.71875 49.75 
Q 55.21875 57.5625 50.484375 61.125 
Q 45.75 64.703125 38.578125 64.703125 
Q 30.328125 64.703125 24.78125 60.734375 
Q 19.234375 56.78125 16.984375 50.109375 
Q 14.75 43.453125 14.75 36.375 
Q 14.75 27.25 17.40625 20.4375 
Q 20.0625 13.625 25.671875 10.25 
Q 31.296875 6.890625 37.84375 6.890625 
Q 45.796875 6.890625 51.3125 11.46875 
Q 56.84375 16.0625 58.796875 25.09375 
z
" id="ArialMT-67"/>
      <path d="M 6.59375 -19.875 
L 6.59375 51.859375 
L 14.59375 51.859375 
L 14.59375 45.125 
Q 17.4375 49.078125 21 51.046875 
Q 24.5625 53.03125 29.640625 53.03125 
Q 36.28125 53.03125 41.359375 49.609375 
Q 46.4375 46.1875 49.015625 39.953125 
Q 51.609375 33.734375 51.609375 26.3125 
Q 51.609375 18.359375 48.75 11.984375 
Q 45.90625 5.609375 40.453125 2.21875 
Q 35.015625 -1.171875 29 -1.171875 
Q 24.609375 -1.171875 21.109375 0.6875 
Q 17.625 2.546875 15.375 5.375 
L 15.375 -19.875 
z
M 14.546875 25.640625 
Q 14.546875 15.625 18.59375 10.84375 
Q 22.65625 6.0625 28.421875 6.0625 
Q 34.28125 6.0625 38.453125 11.015625 
Q 42.625 15.96875 42.625 26.375 
Q 42.625 36.28125 38.546875 41.203125 
Q 34.46875 46.140625 28.8125 46.140625 
Q 23.1875 46.140625 18.859375 40.890625 
Q 14.546875 35.640625 14.546875 25.640625 
z
" id="ArialMT-112"/>
      <path d="M 14.703125 0 
L 6.546875 0 
L 6.546875 71.578125 
L 15.328125 71.578125 
L 15.328125 46.046875 
Q 20.90625 53.03125 29.546875 53.03125 
Q 34.328125 53.03125 38.59375 51.09375 
Q 42.875 49.171875 45.625 45.671875 
Q 48.390625 42.1875 49.953125 37.25 
Q 51.515625 32.328125 51.515625 26.703125 
Q 51.515625 13.375 44.921875 6.09375 
Q 38.328125 -1.171875 29.109375 -1.171875 
Q 19.921875 -1.171875 14.703125 6.5 
z
M 14.59375 26.3125 
Q 14.59375 17 17.140625 12.84375 
Q 21.296875 6.0625 28.375 6.0625 
Q 34.125 6.0625 38.328125 11.0625 
Q 42.53125 16.0625 42.53125 25.984375 
Q 42.53125 36.140625 38.5 40.96875 
Q 34.46875 45.796875 28.765625 45.796875 
Q 23 45.796875 18.796875 40.796875 
Q 14.59375 35.796875 14.59375 26.3125 
z
" id="ArialMT-98"/>
     </defs>
     <use xlink:href="#ArialMT-67"/>
     <use x="72.216797" xlink:href="#ArialMT-111"/>
     <use x="127.832031" xlink:href="#ArialMT-109"/>
     <use x="211.132812" xlink:href="#ArialMT-112"/>
     <use x="266.748047" xlink:href="#ArialMT-101"/>
     <use x="322.363281" xlink:href="#ArialMT-110"/>
     <use x="377.978516" xlink:href="#ArialMT-115"/>
     <use x="427.978516" xlink:href="#ArialMT-97"/>
     <use x="483.59375" xlink:href="#ArialMT-116"/>
     <use x="511.376953" xlink:href="#ArialMT-105"/>
     <use x="533.59375" xlink:href="#ArialMT-111"/>
     <use x="589.208984" xlink:href="#ArialMT-110"/>
     <use x="644.824219" xlink:href="#ArialMT-32"/>
     <use x="672.607422" xlink:href="#ArialMT-98"/>
     <use x="728.222656" xlink:href="#ArialMT-121"/>
     <use x="778.222656" xlink:href="#ArialMT-32"/>
     <use x="806.005859" xlink:href="#ArialMT-71"/>
     <use x="883.789062" xlink:href="#ArialMT-101"/>
     <use x="939.404297" xlink:href="#ArialMT-110"/>
     <use x="995.019531" xlink:href="#ArialMT-100"/>
     <use x="1050.634766" xlink:href="#ArialMT-101"/>
     <use x="1106.25" xlink:href="#ArialMT-114"/>
    </g>
   </g>
  </g>
 </g>
 <defs>
  <clipPath id="pac8df222f5">
   <rect height="326.16" width="669.6" x="108" y="51.84"/>
  </clipPath>
 </defs>
</svg>
