<?xml version="1.0" encoding="utf-8" standalone="no"?>
<!DOCTYPE svg PUBLIC "-//W3C//DTD SVG 1.1//EN"
  "http://www.w3.org/Graphics/SVG/1.1/DTD/svg11.dtd">
<!-- Created with matplotlib (https://matplotlib.org/) -->
<svg height="432pt" version="1.1" viewBox="0 0 864 432" width="864pt" xmlns="http://www.w3.org/2000/svg" xmlns:xlink="http://www.w3.org/1999/xlink">
 <metadata>
  <rdf:RDF xmlns:cc="http://creativecommons.org/ns#" xmlns:dc="http://purl.org/dc/elements/1.1/" xmlns:rdf="http://www.w3.org/1999/02/22-rdf-syntax-ns#">
   <cc:Work>
    <dc:type rdf:resource="http://purl.org/dc/dcmitype/StillImage"/>
    <dc:date>2020-11-22T14:12:29.052014</dc:date>
    <dc:format>image/svg+xml</dc:format>
    <dc:creator>
     <cc:Agent>
      <dc:title>Matplotlib v3.3.2, https://matplotlib.org/</dc:title>
     </cc:Agent>
    </dc:creator>
   </cc:Work>
  </rdf:RDF>
 </metadata>
 <defs>
  <style type="text/css">*{stroke-linecap:butt;stroke-linejoin:round;}</style>
 </defs>
 <g id="figure_1">
  <g id="patch_1">
   <path d="M 0 432 
L 864 432 
L 864 0 
L 0 0 
z
" style="fill:#ffffff;"/>
  </g>
  <g id="axes_1">
   <g id="patch_2">
    <path d="M 108 378 
L 777.6 378 
L 777.6 51.84 
L 108 51.84 
z
" style="fill:#eaeaf2;"/>
   </g>
   <g id="matplotlib.axis_1">
    <g id="xtick_1">
     <g id="text_1">
      <!-- No -->
      <g style="fill:#262626;" transform="translate(212.569453 395.373594)scale(0.11 -0.11)">
       <defs>
        <path d="M 7.625 0 
L 7.625 71.578125 
L 17.328125 71.578125 
L 54.9375 15.375 
L 54.9375 71.578125 
L 64.015625 71.578125 
L 64.015625 0 
L 54.296875 0 
L 16.703125 56.25 
L 16.703125 0 
z
" id="ArialMT-78"/>
        <path d="M 3.328125 25.921875 
Q 3.328125 40.328125 11.328125 47.265625 
Q 18.015625 53.03125 27.640625 53.03125 
Q 38.328125 53.03125 45.109375 46.015625 
Q 51.90625 39.015625 51.90625 26.65625 
Q 51.90625 16.65625 48.90625 10.90625 
Q 45.90625 5.171875 40.15625 2 
Q 34.421875 -1.171875 27.640625 -1.171875 
Q 16.75 -1.171875 10.03125 5.8125 
Q 3.328125 12.796875 3.328125 25.921875 
z
M 12.359375 25.921875 
Q 12.359375 15.96875 16.703125 11.015625 
Q 21.046875 6.0625 27.640625 6.0625 
Q 34.1875 6.0625 38.53125 11.03125 
Q 42.875 16.015625 42.875 26.21875 
Q 42.875 35.84375 38.5 40.796875 
Q 34.125 45.75 27.640625 45.75 
Q 21.046875 45.75 16.703125 40.8125 
Q 12.359375 35.890625 12.359375 25.921875 
z
" id="ArialMT-111"/>
       </defs>
       <use xlink:href="#ArialMT-78"/>
       <use x="72.216797" xlink:href="#ArialMT-111"/>
      </g>
     </g>
    </g>
    <g id="xtick_2">
     <g id="text_2">
      <!-- Sometimes -->
      <g style="fill:#262626;" transform="translate(415.293125 395.373594)scale(0.11 -0.11)">
       <defs>
        <path d="M 4.5 23 
L 13.421875 23.78125 
Q 14.0625 18.40625 16.375 14.96875 
Q 18.703125 11.53125 23.578125 9.40625 
Q 28.46875 7.28125 34.578125 7.28125 
Q 39.984375 7.28125 44.140625 8.890625 
Q 48.296875 10.5 50.3125 13.296875 
Q 52.34375 16.109375 52.34375 19.4375 
Q 52.34375 22.796875 50.390625 25.3125 
Q 48.4375 27.828125 43.953125 29.546875 
Q 41.0625 30.671875 31.203125 33.03125 
Q 21.34375 35.40625 17.390625 37.5 
Q 12.25 40.1875 9.734375 44.15625 
Q 7.234375 48.140625 7.234375 53.078125 
Q 7.234375 58.5 10.296875 63.203125 
Q 13.375 67.921875 19.28125 70.359375 
Q 25.203125 72.796875 32.421875 72.796875 
Q 40.375 72.796875 46.453125 70.234375 
Q 52.546875 67.671875 55.8125 62.6875 
Q 59.078125 57.71875 59.328125 51.421875 
L 50.25 50.734375 
Q 49.515625 57.515625 45.28125 60.984375 
Q 41.0625 64.453125 32.8125 64.453125 
Q 24.21875 64.453125 20.28125 61.296875 
Q 16.359375 58.15625 16.359375 53.71875 
Q 16.359375 49.859375 19.140625 47.359375 
Q 21.875 44.875 33.421875 42.265625 
Q 44.96875 39.65625 49.265625 37.703125 
Q 55.515625 34.8125 58.484375 30.390625 
Q 61.46875 25.984375 61.46875 20.21875 
Q 61.46875 14.5 58.203125 9.4375 
Q 54.9375 4.390625 48.796875 1.578125 
Q 42.671875 -1.21875 35.015625 -1.21875 
Q 25.296875 -1.21875 18.71875 1.609375 
Q 12.15625 4.4375 8.421875 10.125 
Q 4.6875 15.828125 4.5 23 
z
" id="ArialMT-83"/>
        <path d="M 6.59375 0 
L 6.59375 51.859375 
L 14.453125 51.859375 
L 14.453125 44.578125 
Q 16.890625 48.390625 20.9375 50.703125 
Q 25 53.03125 30.171875 53.03125 
Q 35.9375 53.03125 39.625 50.640625 
Q 43.3125 48.25 44.828125 43.953125 
Q 50.984375 53.03125 60.84375 53.03125 
Q 68.5625 53.03125 72.703125 48.75 
Q 76.859375 44.484375 76.859375 35.59375 
L 76.859375 0 
L 68.109375 0 
L 68.109375 32.671875 
Q 68.109375 37.9375 67.25 40.25 
Q 66.40625 42.578125 64.15625 43.984375 
Q 61.921875 45.40625 58.890625 45.40625 
Q 53.421875 45.40625 49.796875 41.765625 
Q 46.1875 38.140625 46.1875 30.125 
L 46.1875 0 
L 37.40625 0 
L 37.40625 33.6875 
Q 37.40625 39.546875 35.25 42.46875 
Q 33.109375 45.40625 28.21875 45.40625 
Q 24.515625 45.40625 21.359375 43.453125 
Q 18.21875 41.5 16.796875 37.734375 
Q 15.375 33.984375 15.375 26.90625 
L 15.375 0 
z
" id="ArialMT-109"/>
        <path d="M 42.09375 16.703125 
L 51.171875 15.578125 
Q 49.03125 7.625 43.21875 3.21875 
Q 37.40625 -1.171875 28.375 -1.171875 
Q 17 -1.171875 10.328125 5.828125 
Q 3.65625 12.84375 3.65625 25.484375 
Q 3.65625 38.578125 10.390625 45.796875 
Q 17.140625 53.03125 27.875 53.03125 
Q 38.28125 53.03125 44.875 45.953125 
Q 51.46875 38.875 51.46875 26.03125 
Q 51.46875 25.25 51.421875 23.6875 
L 12.75 23.6875 
Q 13.234375 15.140625 17.578125 10.59375 
Q 21.921875 6.0625 28.421875 6.0625 
Q 33.25 6.0625 36.671875 8.59375 
Q 40.09375 11.140625 42.09375 16.703125 
z
M 13.234375 30.90625 
L 42.1875 30.90625 
Q 41.609375 37.453125 38.875 40.71875 
Q 34.671875 45.796875 27.984375 45.796875 
Q 21.921875 45.796875 17.796875 41.75 
Q 13.671875 37.703125 13.234375 30.90625 
z
" id="ArialMT-101"/>
        <path d="M 25.78125 7.859375 
L 27.046875 0.09375 
Q 23.34375 -0.6875 20.40625 -0.6875 
Q 15.625 -0.6875 12.984375 0.828125 
Q 10.359375 2.34375 9.28125 4.8125 
Q 8.203125 7.28125 8.203125 15.1875 
L 8.203125 45.015625 
L 1.765625 45.015625 
L 1.765625 51.859375 
L 8.203125 51.859375 
L 8.203125 64.703125 
L 16.9375 69.96875 
L 16.9375 51.859375 
L 25.78125 51.859375 
L 25.78125 45.015625 
L 16.9375 45.015625 
L 16.9375 14.703125 
Q 16.9375 10.9375 17.40625 9.859375 
Q 17.875 8.796875 18.921875 8.15625 
Q 19.96875 7.515625 21.921875 7.515625 
Q 23.390625 7.515625 25.78125 7.859375 
z
" id="ArialMT-116"/>
        <path d="M 6.640625 61.46875 
L 6.640625 71.578125 
L 15.4375 71.578125 
L 15.4375 61.46875 
z
M 6.640625 0 
L 6.640625 51.859375 
L 15.4375 51.859375 
L 15.4375 0 
z
" id="ArialMT-105"/>
        <path d="M 3.078125 15.484375 
L 11.765625 16.84375 
Q 12.5 11.625 15.84375 8.84375 
Q 19.1875 6.0625 25.203125 6.0625 
Q 31.25 6.0625 34.171875 8.515625 
Q 37.109375 10.984375 37.109375 14.3125 
Q 37.109375 17.28125 34.515625 19 
Q 32.71875 20.171875 25.53125 21.96875 
Q 15.875 24.421875 12.140625 26.203125 
Q 8.40625 27.984375 6.46875 31.125 
Q 4.546875 34.28125 4.546875 38.09375 
Q 4.546875 41.546875 6.125 44.5 
Q 7.71875 47.46875 10.453125 49.421875 
Q 12.5 50.921875 16.03125 51.96875 
Q 19.578125 53.03125 23.640625 53.03125 
Q 29.734375 53.03125 34.34375 51.265625 
Q 38.96875 49.515625 41.15625 46.5 
Q 43.359375 43.5 44.1875 38.484375 
L 35.59375 37.3125 
Q 35.015625 41.3125 32.203125 43.546875 
Q 29.390625 45.796875 24.265625 45.796875 
Q 18.21875 45.796875 15.625 43.796875 
Q 13.03125 41.796875 13.03125 39.109375 
Q 13.03125 37.40625 14.109375 36.03125 
Q 15.1875 34.625 17.484375 33.6875 
Q 18.796875 33.203125 25.25 31.453125 
Q 34.578125 28.953125 38.25 27.359375 
Q 41.9375 25.78125 44.03125 22.75 
Q 46.140625 19.734375 46.140625 15.234375 
Q 46.140625 10.84375 43.578125 6.953125 
Q 41.015625 3.078125 36.171875 0.953125 
Q 31.34375 -1.171875 25.25 -1.171875 
Q 15.140625 -1.171875 9.84375 3.03125 
Q 4.546875 7.234375 3.078125 15.484375 
z
" id="ArialMT-115"/>
       </defs>
       <use xlink:href="#ArialMT-83"/>
       <use x="66.699219" xlink:href="#ArialMT-111"/>
       <use x="122.314453" xlink:href="#ArialMT-109"/>
       <use x="205.615234" xlink:href="#ArialMT-101"/>
       <use x="261.230469" xlink:href="#ArialMT-116"/>
       <use x="289.013672" xlink:href="#ArialMT-105"/>
       <use x="311.230469" xlink:href="#ArialMT-109"/>
       <use x="394.53125" xlink:href="#ArialMT-101"/>
       <use x="450.146484" xlink:href="#ArialMT-115"/>
      </g>
     </g>
    </g>
    <g id="xtick_3">
     <g id="text_3">
      <!-- Yes -->
      <g style="fill:#262626;" transform="translate(657.024688 395.373594)scale(0.11 -0.11)">
       <defs>
        <path d="M 27.875 0 
L 27.875 30.328125 
L 0.296875 71.578125 
L 11.8125 71.578125 
L 25.921875 50 
Q 29.828125 43.953125 33.203125 37.890625 
Q 36.421875 43.5 41.015625 50.53125 
L 54.890625 71.578125 
L 65.921875 71.578125 
L 37.359375 30.328125 
L 37.359375 0 
z
" id="ArialMT-89"/>
       </defs>
       <use xlink:href="#ArialMT-89"/>
       <use x="57.574219" xlink:href="#ArialMT-101"/>
       <use x="113.189453" xlink:href="#ArialMT-115"/>
      </g>
     </g>
    </g>
    <g id="text_4">
     <!-- Remote Work Status -->
     <g style="fill:#262626;" transform="translate(387.556875 410.149219)scale(0.12 -0.12)">
      <defs>
       <path d="M 7.859375 0 
L 7.859375 71.578125 
L 39.59375 71.578125 
Q 49.171875 71.578125 54.140625 69.640625 
Q 59.125 67.71875 62.109375 62.828125 
Q 65.09375 57.953125 65.09375 52.046875 
Q 65.09375 44.4375 60.15625 39.203125 
Q 55.21875 33.984375 44.921875 32.5625 
Q 48.6875 30.765625 50.640625 29 
Q 54.78125 25.203125 58.5 19.484375 
L 70.953125 0 
L 59.03125 0 
L 49.5625 14.890625 
Q 45.40625 21.34375 42.71875 24.75 
Q 40.046875 28.171875 37.921875 29.53125 
Q 35.796875 30.90625 33.59375 31.453125 
Q 31.984375 31.78125 28.328125 31.78125 
L 17.328125 31.78125 
L 17.328125 0 
z
M 17.328125 39.984375 
L 37.703125 39.984375 
Q 44.1875 39.984375 47.84375 41.328125 
Q 51.515625 42.671875 53.421875 45.625 
Q 55.328125 48.578125 55.328125 52.046875 
Q 55.328125 57.125 51.640625 60.390625 
Q 47.953125 63.671875 39.984375 63.671875 
L 17.328125 63.671875 
z
" id="ArialMT-82"/>
       <path id="ArialMT-32"/>
       <path d="M 20.21875 0 
L 1.21875 71.578125 
L 10.9375 71.578125 
L 21.828125 24.65625 
Q 23.578125 17.28125 24.859375 10.015625 
Q 27.59375 21.484375 28.078125 23.25 
L 41.703125 71.578125 
L 53.125 71.578125 
L 63.375 35.359375 
Q 67.234375 21.875 68.953125 10.015625 
Q 70.3125 16.796875 72.515625 25.59375 
L 83.734375 71.578125 
L 93.265625 71.578125 
L 73.640625 0 
L 64.5 0 
L 49.421875 54.546875 
Q 47.515625 61.375 47.171875 62.9375 
Q 46.046875 58.015625 45.0625 54.546875 
L 29.890625 0 
z
" id="ArialMT-87"/>
       <path d="M 6.5 0 
L 6.5 51.859375 
L 14.40625 51.859375 
L 14.40625 44 
Q 17.4375 49.515625 20 51.265625 
Q 22.5625 53.03125 25.640625 53.03125 
Q 30.078125 53.03125 34.671875 50.203125 
L 31.640625 42.046875 
Q 28.421875 43.953125 25.203125 43.953125 
Q 22.3125 43.953125 20.015625 42.21875 
Q 17.71875 40.484375 16.75 37.40625 
Q 15.28125 32.71875 15.28125 27.15625 
L 15.28125 0 
z
" id="ArialMT-114"/>
       <path d="M 6.640625 0 
L 6.640625 71.578125 
L 15.4375 71.578125 
L 15.4375 30.765625 
L 36.234375 51.859375 
L 47.609375 51.859375 
L 27.78125 32.625 
L 49.609375 0 
L 38.765625 0 
L 21.625 26.515625 
L 15.4375 20.5625 
L 15.4375 0 
z
" id="ArialMT-107"/>
       <path d="M 40.4375 6.390625 
Q 35.546875 2.25 31.03125 0.53125 
Q 26.515625 -1.171875 21.34375 -1.171875 
Q 12.796875 -1.171875 8.203125 3 
Q 3.609375 7.171875 3.609375 13.671875 
Q 3.609375 17.484375 5.34375 20.625 
Q 7.078125 23.78125 9.890625 25.6875 
Q 12.703125 27.59375 16.21875 28.5625 
Q 18.796875 29.25 24.03125 29.890625 
Q 34.671875 31.15625 39.703125 32.90625 
Q 39.75 34.71875 39.75 35.203125 
Q 39.75 40.578125 37.25 42.78125 
Q 33.890625 45.75 27.25 45.75 
Q 21.046875 45.75 18.09375 43.578125 
Q 15.140625 41.40625 13.71875 35.890625 
L 5.125 37.0625 
Q 6.296875 42.578125 8.984375 45.96875 
Q 11.671875 49.359375 16.75 51.1875 
Q 21.828125 53.03125 28.515625 53.03125 
Q 35.15625 53.03125 39.296875 51.46875 
Q 43.453125 49.90625 45.40625 47.53125 
Q 47.359375 45.171875 48.140625 41.546875 
Q 48.578125 39.3125 48.578125 33.453125 
L 48.578125 21.734375 
Q 48.578125 9.46875 49.140625 6.21875 
Q 49.703125 2.984375 51.375 0 
L 42.1875 0 
Q 40.828125 2.734375 40.4375 6.390625 
z
M 39.703125 26.03125 
Q 34.90625 24.078125 25.34375 22.703125 
Q 19.921875 21.921875 17.671875 20.9375 
Q 15.4375 19.96875 14.203125 18.09375 
Q 12.984375 16.21875 12.984375 13.921875 
Q 12.984375 10.40625 15.640625 8.0625 
Q 18.3125 5.71875 23.4375 5.71875 
Q 28.515625 5.71875 32.46875 7.9375 
Q 36.421875 10.15625 38.28125 14.015625 
Q 39.703125 17 39.703125 22.796875 
z
" id="ArialMT-97"/>
       <path d="M 40.578125 0 
L 40.578125 7.625 
Q 34.515625 -1.171875 24.125 -1.171875 
Q 19.53125 -1.171875 15.546875 0.578125 
Q 11.578125 2.34375 9.640625 5 
Q 7.71875 7.671875 6.9375 11.53125 
Q 6.390625 14.109375 6.390625 19.734375 
L 6.390625 51.859375 
L 15.1875 51.859375 
L 15.1875 23.09375 
Q 15.1875 16.21875 15.71875 13.8125 
Q 16.546875 10.359375 19.234375 8.375 
Q 21.921875 6.390625 25.875 6.390625 
Q 29.828125 6.390625 33.296875 8.421875 
Q 36.765625 10.453125 38.203125 13.9375 
Q 39.65625 17.4375 39.65625 24.078125 
L 39.65625 51.859375 
L 48.4375 51.859375 
L 48.4375 0 
z
" id="ArialMT-117"/>
      </defs>
      <use xlink:href="#ArialMT-82"/>
      <use x="72.216797" xlink:href="#ArialMT-101"/>
      <use x="127.832031" xlink:href="#ArialMT-109"/>
      <use x="211.132812" xlink:href="#ArialMT-111"/>
      <use x="266.748047" xlink:href="#ArialMT-116"/>
      <use x="294.53125" xlink:href="#ArialMT-101"/>
      <use x="350.146484" xlink:href="#ArialMT-32"/>
      <use x="377.929688" xlink:href="#ArialMT-87"/>
      <use x="470.564453" xlink:href="#ArialMT-111"/>
      <use x="526.179688" xlink:href="#ArialMT-114"/>
      <use x="559.480469" xlink:href="#ArialMT-107"/>
      <use x="609.480469" xlink:href="#ArialMT-32"/>
      <use x="637.263672" xlink:href="#ArialMT-83"/>
      <use x="703.962891" xlink:href="#ArialMT-116"/>
      <use x="731.746094" xlink:href="#ArialMT-97"/>
      <use x="787.361328" xlink:href="#ArialMT-116"/>
      <use x="815.144531" xlink:href="#ArialMT-117"/>
      <use x="870.759766" xlink:href="#ArialMT-115"/>
     </g>
    </g>
   </g>
   <g id="matplotlib.axis_2">
    <g id="ytick_1">
     <g id="line2d_1">
      <path clip-path="url(#pbdb3df73cf)" d="M 108 363.174545 
L 777.6 363.174545 
" style="fill:none;stroke:#ffffff;stroke-linecap:round;"/>
     </g>
     <g id="text_5">
      <!-- 50 -->
      <g style="fill:#262626;" transform="translate(86.265938 367.111342)scale(0.11 -0.11)">
       <defs>
        <path d="M 4.15625 18.75 
L 13.375 19.53125 
Q 14.40625 12.796875 18.140625 9.390625 
Q 21.875 6 27.15625 6 
Q 33.5 6 37.890625 10.78125 
Q 42.28125 15.578125 42.28125 23.484375 
Q 42.28125 31 38.0625 35.34375 
Q 33.84375 39.703125 27 39.703125 
Q 22.75 39.703125 19.328125 37.765625 
Q 15.921875 35.84375 13.96875 32.765625 
L 5.71875 33.84375 
L 12.640625 70.609375 
L 48.25 70.609375 
L 48.25 62.203125 
L 19.671875 62.203125 
L 15.828125 42.96875 
Q 22.265625 47.46875 29.34375 47.46875 
Q 38.71875 47.46875 45.15625 40.96875 
Q 51.609375 34.46875 51.609375 24.265625 
Q 51.609375 14.546875 45.953125 7.46875 
Q 39.0625 -1.21875 27.15625 -1.21875 
Q 17.390625 -1.21875 11.203125 4.25 
Q 5.03125 9.71875 4.15625 18.75 
z
" id="ArialMT-53"/>
        <path d="M 4.15625 35.296875 
Q 4.15625 48 6.765625 55.734375 
Q 9.375 63.484375 14.515625 67.671875 
Q 19.671875 71.875 27.484375 71.875 
Q 33.25 71.875 37.59375 69.546875 
Q 41.9375 67.234375 44.765625 62.859375 
Q 47.609375 58.5 49.21875 52.21875 
Q 50.828125 45.953125 50.828125 35.296875 
Q 50.828125 22.703125 48.234375 14.96875 
Q 45.65625 7.234375 40.5 3 
Q 35.359375 -1.21875 27.484375 -1.21875 
Q 17.140625 -1.21875 11.234375 6.203125 
Q 4.15625 15.140625 4.15625 35.296875 
z
M 13.1875 35.296875 
Q 13.1875 17.671875 17.3125 11.828125 
Q 21.4375 6 27.484375 6 
Q 33.546875 6 37.671875 11.859375 
Q 41.796875 17.71875 41.796875 35.296875 
Q 41.796875 52.984375 37.671875 58.78125 
Q 33.546875 64.59375 27.390625 64.59375 
Q 21.34375 64.59375 17.71875 59.46875 
Q 13.1875 52.9375 13.1875 35.296875 
z
" id="ArialMT-48"/>
       </defs>
       <use xlink:href="#ArialMT-53"/>
       <use x="55.615234" xlink:href="#ArialMT-48"/>
      </g>
     </g>
    </g>
    <g id="ytick_2">
     <g id="line2d_2">
      <path clip-path="url(#pbdb3df73cf)" d="M 108 298.716047 
L 777.6 298.716047 
" style="fill:none;stroke:#ffffff;stroke-linecap:round;"/>
     </g>
     <g id="text_6">
      <!-- 100 -->
      <g style="fill:#262626;" transform="translate(80.148906 302.652844)scale(0.11 -0.11)">
       <defs>
        <path d="M 37.25 0 
L 28.46875 0 
L 28.46875 56 
Q 25.296875 52.984375 20.140625 49.953125 
Q 14.984375 46.921875 10.890625 45.40625 
L 10.890625 53.90625 
Q 18.265625 57.375 23.78125 62.296875 
Q 29.296875 67.234375 31.59375 71.875 
L 37.25 71.875 
z
" id="ArialMT-49"/>
       </defs>
       <use xlink:href="#ArialMT-49"/>
       <use x="55.615234" xlink:href="#ArialMT-48"/>
       <use x="111.230469" xlink:href="#ArialMT-48"/>
      </g>
     </g>
    </g>
    <g id="ytick_3">
     <g id="line2d_3">
      <path clip-path="url(#pbdb3df73cf)" d="M 108 234.257549 
L 777.6 234.257549 
" style="fill:none;stroke:#ffffff;stroke-linecap:round;"/>
     </g>
     <g id="text_7">
      <!-- 150 -->
      <g style="fill:#262626;" transform="translate(80.148906 238.194346)scale(0.11 -0.11)">
       <use xlink:href="#ArialMT-49"/>
       <use x="55.615234" xlink:href="#ArialMT-53"/>
       <use x="111.230469" xlink:href="#ArialMT-48"/>
      </g>
     </g>
    </g>
    <g id="ytick_4">
     <g id="line2d_4">
      <path clip-path="url(#pbdb3df73cf)" d="M 108 169.799051 
L 777.6 169.799051 
" style="fill:none;stroke:#ffffff;stroke-linecap:round;"/>
     </g>
     <g id="text_8">
      <!-- 200 -->
      <g style="fill:#262626;" transform="translate(80.148906 173.735848)scale(0.11 -0.11)">
       <defs>
        <path d="M 50.34375 8.453125 
L 50.34375 0 
L 3.03125 0 
Q 2.9375 3.171875 4.046875 6.109375 
Q 5.859375 10.9375 9.828125 15.625 
Q 13.8125 20.3125 21.34375 26.46875 
Q 33.015625 36.03125 37.109375 41.625 
Q 41.21875 47.21875 41.21875 52.203125 
Q 41.21875 57.421875 37.46875 61 
Q 33.734375 64.59375 27.734375 64.59375 
Q 21.390625 64.59375 17.578125 60.78125 
Q 13.765625 56.984375 13.71875 50.25 
L 4.6875 51.171875 
Q 5.609375 61.28125 11.65625 66.578125 
Q 17.71875 71.875 27.9375 71.875 
Q 38.234375 71.875 44.234375 66.15625 
Q 50.25 60.453125 50.25 52 
Q 50.25 47.703125 48.484375 43.546875 
Q 46.734375 39.40625 42.65625 34.8125 
Q 38.578125 30.21875 29.109375 22.21875 
Q 21.1875 15.578125 18.9375 13.203125 
Q 16.703125 10.84375 15.234375 8.453125 
z
" id="ArialMT-50"/>
       </defs>
       <use xlink:href="#ArialMT-50"/>
       <use x="55.615234" xlink:href="#ArialMT-48"/>
       <use x="111.230469" xlink:href="#ArialMT-48"/>
      </g>
     </g>
    </g>
    <g id="ytick_5">
     <g id="line2d_5">
      <path clip-path="url(#pbdb3df73cf)" d="M 108 105.340553 
L 777.6 105.340553 
" style="fill:none;stroke:#ffffff;stroke-linecap:round;"/>
     </g>
     <g id="text_9">
      <!-- 250 -->
      <g style="fill:#262626;" transform="translate(80.148906 109.27735)scale(0.11 -0.11)">
       <use xlink:href="#ArialMT-50"/>
       <use x="55.615234" xlink:href="#ArialMT-53"/>
       <use x="111.230469" xlink:href="#ArialMT-48"/>
      </g>
     </g>
    </g>
    <g id="text_10">
     <!-- Annual income (thousands) -->
     <g style="fill:#262626;" transform="translate(73.623281 287.957812)rotate(-90)scale(0.12 -0.12)">
      <defs>
       <path d="M -0.140625 0 
L 27.34375 71.578125 
L 37.546875 71.578125 
L 66.84375 0 
L 56.0625 0 
L 47.703125 21.6875 
L 17.78125 21.6875 
L 9.90625 0 
z
M 20.515625 29.390625 
L 44.78125 29.390625 
L 37.3125 49.21875 
Q 33.890625 58.25 32.234375 64.0625 
Q 30.859375 57.171875 28.375 50.390625 
z
" id="ArialMT-65"/>
       <path d="M 6.59375 0 
L 6.59375 51.859375 
L 14.5 51.859375 
L 14.5 44.484375 
Q 20.21875 53.03125 31 53.03125 
Q 35.6875 53.03125 39.625 51.34375 
Q 43.5625 49.65625 45.515625 46.921875 
Q 47.46875 44.1875 48.25 40.4375 
Q 48.734375 37.984375 48.734375 31.890625 
L 48.734375 0 
L 39.9375 0 
L 39.9375 31.546875 
Q 39.9375 36.921875 38.90625 39.578125 
Q 37.890625 42.234375 35.28125 43.8125 
Q 32.671875 45.40625 29.15625 45.40625 
Q 23.53125 45.40625 19.453125 41.84375 
Q 15.375 38.28125 15.375 28.328125 
L 15.375 0 
z
" id="ArialMT-110"/>
       <path d="M 6.390625 0 
L 6.390625 71.578125 
L 15.1875 71.578125 
L 15.1875 0 
z
" id="ArialMT-108"/>
       <path d="M 40.4375 19 
L 49.078125 17.875 
Q 47.65625 8.9375 41.8125 3.875 
Q 35.984375 -1.171875 27.484375 -1.171875 
Q 16.84375 -1.171875 10.375 5.78125 
Q 3.90625 12.75 3.90625 25.734375 
Q 3.90625 34.125 6.6875 40.421875 
Q 9.46875 46.734375 15.15625 49.875 
Q 20.84375 53.03125 27.546875 53.03125 
Q 35.984375 53.03125 41.359375 48.75 
Q 46.734375 44.484375 48.25 36.625 
L 39.703125 35.296875 
Q 38.484375 40.53125 35.375 43.15625 
Q 32.28125 45.796875 27.875 45.796875 
Q 21.234375 45.796875 17.078125 41.03125 
Q 12.9375 36.28125 12.9375 25.984375 
Q 12.9375 15.53125 16.9375 10.796875 
Q 20.953125 6.0625 27.390625 6.0625 
Q 32.5625 6.0625 36.03125 9.234375 
Q 39.5 12.40625 40.4375 19 
z
" id="ArialMT-99"/>
       <path d="M 23.390625 -21.046875 
Q 16.109375 -11.859375 11.078125 0.4375 
Q 6.0625 12.75 6.0625 25.921875 
Q 6.0625 37.546875 9.8125 48.1875 
Q 14.203125 60.546875 23.390625 72.796875 
L 29.6875 72.796875 
Q 23.78125 62.640625 21.875 58.296875 
Q 18.890625 51.5625 17.1875 44.234375 
Q 15.09375 35.109375 15.09375 25.875 
Q 15.09375 2.390625 29.6875 -21.046875 
z
" id="ArialMT-40"/>
       <path d="M 6.59375 0 
L 6.59375 71.578125 
L 15.375 71.578125 
L 15.375 45.90625 
Q 21.53125 53.03125 30.90625 53.03125 
Q 36.671875 53.03125 40.921875 50.75 
Q 45.171875 48.484375 47 44.484375 
Q 48.828125 40.484375 48.828125 32.859375 
L 48.828125 0 
L 40.046875 0 
L 40.046875 32.859375 
Q 40.046875 39.453125 37.1875 42.453125 
Q 34.328125 45.453125 29.109375 45.453125 
Q 25.203125 45.453125 21.75 43.421875 
Q 18.3125 41.40625 16.84375 37.9375 
Q 15.375 34.46875 15.375 28.375 
L 15.375 0 
z
" id="ArialMT-104"/>
       <path d="M 40.234375 0 
L 40.234375 6.546875 
Q 35.296875 -1.171875 25.734375 -1.171875 
Q 19.53125 -1.171875 14.328125 2.25 
Q 9.125 5.671875 6.265625 11.796875 
Q 3.421875 17.921875 3.421875 25.875 
Q 3.421875 33.640625 6 39.96875 
Q 8.59375 46.296875 13.765625 49.65625 
Q 18.953125 53.03125 25.34375 53.03125 
Q 30.03125 53.03125 33.6875 51.046875 
Q 37.359375 49.078125 39.65625 45.90625 
L 39.65625 71.578125 
L 48.390625 71.578125 
L 48.390625 0 
z
M 12.453125 25.875 
Q 12.453125 15.921875 16.640625 10.984375 
Q 20.84375 6.0625 26.5625 6.0625 
Q 32.328125 6.0625 36.34375 10.765625 
Q 40.375 15.484375 40.375 25.140625 
Q 40.375 35.796875 36.265625 40.765625 
Q 32.171875 45.75 26.171875 45.75 
Q 20.3125 45.75 16.375 40.96875 
Q 12.453125 36.1875 12.453125 25.875 
z
" id="ArialMT-100"/>
       <path d="M 12.359375 -21.046875 
L 6.0625 -21.046875 
Q 20.65625 2.390625 20.65625 25.875 
Q 20.65625 35.0625 18.5625 44.09375 
Q 16.890625 51.421875 13.921875 58.15625 
Q 12.015625 62.546875 6.0625 72.796875 
L 12.359375 72.796875 
Q 21.53125 60.546875 25.921875 48.1875 
Q 29.6875 37.546875 29.6875 25.921875 
Q 29.6875 12.75 24.625 0.4375 
Q 19.578125 -11.859375 12.359375 -21.046875 
z
" id="ArialMT-41"/>
      </defs>
      <use xlink:href="#ArialMT-65"/>
      <use x="66.699219" xlink:href="#ArialMT-110"/>
      <use x="122.314453" xlink:href="#ArialMT-110"/>
      <use x="177.929688" xlink:href="#ArialMT-117"/>
      <use x="233.544922" xlink:href="#ArialMT-97"/>
      <use x="289.160156" xlink:href="#ArialMT-108"/>
      <use x="311.376953" xlink:href="#ArialMT-32"/>
      <use x="339.160156" xlink:href="#ArialMT-105"/>
      <use x="361.376953" xlink:href="#ArialMT-110"/>
      <use x="416.992188" xlink:href="#ArialMT-99"/>
      <use x="466.992188" xlink:href="#ArialMT-111"/>
      <use x="522.607422" xlink:href="#ArialMT-109"/>
      <use x="605.908203" xlink:href="#ArialMT-101"/>
      <use x="661.523438" xlink:href="#ArialMT-32"/>
      <use x="689.306641" xlink:href="#ArialMT-40"/>
      <use x="722.607422" xlink:href="#ArialMT-116"/>
      <use x="750.390625" xlink:href="#ArialMT-104"/>
      <use x="806.005859" xlink:href="#ArialMT-111"/>
      <use x="861.621094" xlink:href="#ArialMT-117"/>
      <use x="917.236328" xlink:href="#ArialMT-115"/>
      <use x="967.236328" xlink:href="#ArialMT-97"/>
      <use x="1022.851562" xlink:href="#ArialMT-110"/>
      <use x="1078.466797" xlink:href="#ArialMT-100"/>
      <use x="1134.082031" xlink:href="#ArialMT-115"/>
      <use x="1184.082031" xlink:href="#ArialMT-41"/>
     </g>
    </g>
   </g>
   <g id="PolyCollection_1">
    <defs>
     <path d="M 263.084539 -85.584664 
L 176.115461 -85.584664 
L 173.963056 -86.9129 
L 171.904177 -88.241135 
L 169.956254 -89.569371 
L 168.135187 -90.897607 
L 166.454995 -92.225843 
L 164.9275 -93.554078 
L 163.56205 -94.882314 
L 162.365311 -96.21055 
L 161.341105 -97.538785 
L 160.490327 -98.867021 
L 159.810925 -100.195257 
L 159.297952 -101.523493 
L 158.94369 -102.851728 
L 158.737834 -104.179964 
L 158.667747 -105.5082 
L 158.718756 -106.836436 
L 158.874507 -108.164671 
L 159.117339 -109.492907 
L 159.428699 -110.821143 
L 159.789552 -112.149378 
L 160.180802 -113.477614 
L 160.583699 -114.80585 
L 160.980221 -116.134086 
L 161.35343 -117.462321 
L 161.68778 -118.790557 
L 161.969389 -120.118793 
L 162.186252 -121.447028 
L 162.328411 -122.775264 
L 162.388062 -124.1035 
L 162.359622 -125.431736 
L 162.23974 -126.759971 
L 162.027274 -128.088207 
L 161.723226 -129.416443 
L 161.330647 -130.744678 
L 160.854522 -132.072914 
L 160.301635 -133.40115 
L 159.680423 -134.729386 
L 159.000821 -136.057621 
L 158.274105 -137.385857 
L 157.512732 -138.714093 
L 156.73018 -140.042328 
L 155.940784 -141.370564 
L 155.15957 -142.6988 
L 154.402089 -144.027036 
L 153.684232 -145.355271 
L 153.022045 -146.683507 
L 152.431529 -148.011743 
L 151.928425 -149.339978 
L 151.527987 -150.668214 
L 151.24474 -151.99645 
L 151.092235 -153.324686 
L 151.082791 -154.652921 
L 151.227239 -155.981157 
L 151.534677 -157.309393 
L 152.012239 -158.637628 
L 152.664882 -159.965864 
L 153.495212 -161.2941 
L 154.503354 -162.622336 
L 155.68686 -163.950571 
L 157.040681 -165.278807 
L 158.557199 -166.607043 
L 160.226316 -167.935278 
L 162.035612 -169.263514 
L 163.970563 -170.59175 
L 166.014809 -171.919986 
L 168.150482 -173.248221 
L 170.358564 -174.576457 
L 172.619283 -175.904693 
L 174.912519 -177.232928 
L 177.218219 -178.561164 
L 179.516805 -179.8894 
L 181.789555 -181.217636 
L 184.018955 -182.545871 
L 186.189014 -183.874107 
L 188.285517 -185.202343 
L 190.296228 -186.530579 
L 192.211035 -187.858814 
L 194.022024 -189.18705 
L 195.723505 -190.515286 
L 197.311966 -191.843521 
L 198.785989 -193.171757 
L 200.146106 -194.499993 
L 201.39463 -195.828229 
L 202.535445 -197.156464 
L 203.573781 -198.4847 
L 204.515975 -199.812936 
L 205.369222 -201.141171 
L 206.141338 -202.469407 
L 206.840522 -203.797643 
L 207.475137 -205.125879 
L 208.053508 -206.454114 
L 208.583743 -207.78235 
L 209.073575 -209.110586 
L 209.530234 -210.438821 
L 209.960335 -211.767057 
L 210.369804 -213.095293 
L 210.763817 -214.423529 
L 211.146772 -215.751764 
L 211.522274 -217.08 
L 227.677726 -217.08 
L 227.677726 -217.08 
L 228.053228 -215.751764 
L 228.436183 -214.423529 
L 228.830196 -213.095293 
L 229.239665 -211.767057 
L 229.669766 -210.438821 
L 230.126425 -209.110586 
L 230.616257 -207.78235 
L 231.146492 -206.454114 
L 231.724863 -205.125879 
L 232.359478 -203.797643 
L 233.058662 -202.469407 
L 233.830778 -201.141171 
L 234.684025 -199.812936 
L 235.626219 -198.4847 
L 236.664555 -197.156464 
L 237.80537 -195.828229 
L 239.053894 -194.499993 
L 240.414011 -193.171757 
L 241.888034 -191.843521 
L 243.476495 -190.515286 
L 245.177976 -189.18705 
L 246.988965 -187.858814 
L 248.903772 -186.530579 
L 250.914483 -185.202343 
L 253.010986 -183.874107 
L 255.181045 -182.545871 
L 257.410445 -181.217636 
L 259.683195 -179.8894 
L 261.981781 -178.561164 
L 264.287481 -177.232928 
L 266.580717 -175.904693 
L 268.841436 -174.576457 
L 271.049518 -173.248221 
L 273.185191 -171.919986 
L 275.229437 -170.59175 
L 277.164388 -169.263514 
L 278.973684 -167.935278 
L 280.642801 -166.607043 
L 282.159319 -165.278807 
L 283.51314 -163.950571 
L 284.696646 -162.622336 
L 285.704788 -161.2941 
L 286.535118 -159.965864 
L 287.187761 -158.637628 
L 287.665323 -157.309393 
L 287.972761 -155.981157 
L 288.117209 -154.652921 
L 288.107765 -153.324686 
L 287.95526 -151.99645 
L 287.672013 -150.668214 
L 287.271575 -149.339978 
L 286.768471 -148.011743 
L 286.177955 -146.683507 
L 285.515768 -145.355271 
L 284.797911 -144.027036 
L 284.04043 -142.6988 
L 283.259216 -141.370564 
L 282.46982 -140.042328 
L 281.687268 -138.714093 
L 280.925895 -137.385857 
L 280.199179 -136.057621 
L 279.519577 -134.729386 
L 278.898365 -133.40115 
L 278.345478 -132.072914 
L 277.869353 -130.744678 
L 277.476774 -129.416443 
L 277.172726 -128.088207 
L 276.96026 -126.759971 
L 276.840378 -125.431736 
L 276.811938 -124.1035 
L 276.871589 -122.775264 
L 277.013748 -121.447028 
L 277.230611 -120.118793 
L 277.51222 -118.790557 
L 277.84657 -117.462321 
L 278.219779 -116.134086 
L 278.616301 -114.80585 
L 279.019198 -113.477614 
L 279.410448 -112.149378 
L 279.771301 -110.821143 
L 280.082661 -109.492907 
L 280.325493 -108.164671 
L 280.481244 -106.836436 
L 280.532253 -105.5082 
L 280.462166 -104.179964 
L 280.25631 -102.851728 
L 279.902048 -101.523493 
L 279.389075 -100.195257 
L 278.709673 -98.867021 
L 277.858895 -97.538785 
L 276.834689 -96.21055 
L 275.63795 -94.882314 
L 274.2725 -93.554078 
L 272.745005 -92.225843 
L 271.064813 -90.897607 
L 269.243746 -89.569371 
L 267.295823 -88.241135 
L 265.236944 -86.9129 
L 263.084539 -85.584664 
z
" id="m3b2cb91f79" style="stroke:#4c4c4c;stroke-width:1.5;"/>
    </defs>
    <g clip-path="url(#pbdb3df73cf)">
     <use style="fill:#5875a4;stroke:#4c4c4c;stroke-width:1.5;" x="0" xlink:href="#m3b2cb91f79" y="432"/>
    </g>
   </g>
   <g id="PolyCollection_2">
    <defs>
     <path d="M 464.45482 -75.271304 
L 421.14518 -75.271304 
L 419.830226 -76.899044 
L 418.501023 -78.526784 
L 417.16205 -80.154524 
L 415.817884 -81.782264 
L 414.47318 -83.410004 
L 413.132653 -85.037743 
L 411.801062 -86.665483 
L 410.48319 -88.293223 
L 409.183822 -89.920963 
L 407.90772 -91.548703 
L 406.659596 -93.176443 
L 405.444076 -94.804183 
L 404.265669 -96.431922 
L 403.128723 -98.059662 
L 402.037387 -99.687402 
L 400.995571 -101.315142 
L 400.006904 -102.942882 
L 399.0747 -104.570622 
L 398.201932 -106.198361 
L 397.391209 -107.826101 
L 396.644767 -109.453841 
L 395.964465 -111.081581 
L 395.351802 -112.709321 
L 394.807932 -114.337061 
L 394.3337 -115.964801 
L 393.929679 -117.59254 
L 393.596214 -119.22028 
L 393.333468 -120.84802 
L 393.141464 -122.47576 
L 393.020125 -124.1035 
L 392.969302 -125.73124 
L 392.988794 -127.35898 
L 393.078347 -128.986719 
L 393.237643 -130.614459 
L 393.466272 -132.242199 
L 393.763683 -133.869939 
L 394.129127 -135.497679 
L 394.561587 -137.125419 
L 395.059699 -138.753158 
L 395.621672 -140.380898 
L 396.245213 -142.008638 
L 396.927457 -143.636378 
L 397.664913 -145.264118 
L 398.453425 -146.891858 
L 399.288164 -148.519598 
L 400.163632 -150.147337 
L 401.073708 -151.775077 
L 402.011713 -153.402817 
L 402.970504 -155.030557 
L 403.942592 -156.658297 
L 404.920283 -158.286037 
L 405.895832 -159.913777 
L 406.861611 -161.541516 
L 407.810274 -163.169256 
L 408.734924 -164.796996 
L 409.629275 -166.424736 
L 410.487785 -168.052476 
L 411.305786 -169.680216 
L 412.07957 -171.307955 
L 412.806464 -172.935695 
L 413.484861 -174.563435 
L 414.114228 -176.191175 
L 414.69508 -177.818915 
L 415.228922 -179.446655 
L 415.718176 -181.074395 
L 416.166072 -182.702134 
L 416.576534 -184.329874 
L 416.954043 -185.957614 
L 417.303501 -187.585354 
L 417.630089 -189.213094 
L 417.939128 -190.840834 
L 418.235945 -192.468573 
L 418.525755 -194.096313 
L 418.813547 -195.724053 
L 419.103998 -197.351793 
L 419.401393 -198.979533 
L 419.709566 -200.607273 
L 420.031864 -202.235013 
L 420.371115 -203.862752 
L 420.729625 -205.490492 
L 421.109178 -207.118232 
L 421.51105 -208.745972 
L 421.936036 -210.373712 
L 422.384476 -212.001452 
L 422.856296 -213.629192 
L 423.35104 -215.256931 
L 423.867916 -216.884671 
L 424.40583 -218.512411 
L 424.963425 -220.140151 
L 425.53912 -221.767891 
L 426.13114 -223.395631 
L 426.737546 -225.02337 
L 427.356267 -226.65111 
L 427.985123 -228.27885 
L 428.621847 -229.90659 
L 429.264109 -231.53433 
L 429.909535 -233.16207 
L 430.555728 -234.78981 
L 431.200285 -236.417549 
L 454.399715 -236.417549 
L 454.399715 -236.417549 
L 455.044272 -234.78981 
L 455.690465 -233.16207 
L 456.335891 -231.53433 
L 456.978153 -229.90659 
L 457.614877 -228.27885 
L 458.243733 -226.65111 
L 458.862454 -225.02337 
L 459.46886 -223.395631 
L 460.06088 -221.767891 
L 460.636575 -220.140151 
L 461.19417 -218.512411 
L 461.732084 -216.884671 
L 462.24896 -215.256931 
L 462.743704 -213.629192 
L 463.215524 -212.001452 
L 463.663964 -210.373712 
L 464.08895 -208.745972 
L 464.490822 -207.118232 
L 464.870375 -205.490492 
L 465.228885 -203.862752 
L 465.568136 -202.235013 
L 465.890434 -200.607273 
L 466.198607 -198.979533 
L 466.496002 -197.351793 
L 466.786453 -195.724053 
L 467.074245 -194.096313 
L 467.364055 -192.468573 
L 467.660872 -190.840834 
L 467.969911 -189.213094 
L 468.296499 -187.585354 
L 468.645957 -185.957614 
L 469.023466 -184.329874 
L 469.433928 -182.702134 
L 469.881824 -181.074395 
L 470.371078 -179.446655 
L 470.90492 -177.818915 
L 471.485772 -176.191175 
L 472.115139 -174.563435 
L 472.793536 -172.935695 
L 473.52043 -171.307955 
L 474.294214 -169.680216 
L 475.112215 -168.052476 
L 475.970725 -166.424736 
L 476.865076 -164.796996 
L 477.789726 -163.169256 
L 478.738389 -161.541516 
L 479.704168 -159.913777 
L 480.679717 -158.286037 
L 481.657408 -156.658297 
L 482.629496 -155.030557 
L 483.588287 -153.402817 
L 484.526292 -151.775077 
L 485.436368 -150.147337 
L 486.311836 -148.519598 
L 487.146575 -146.891858 
L 487.935087 -145.264118 
L 488.672543 -143.636378 
L 489.354787 -142.008638 
L 489.978328 -140.380898 
L 490.540301 -138.753158 
L 491.038413 -137.125419 
L 491.470873 -135.497679 
L 491.836317 -133.869939 
L 492.133728 -132.242199 
L 492.362357 -130.614459 
L 492.521653 -128.986719 
L 492.611206 -127.35898 
L 492.630698 -125.73124 
L 492.579875 -124.1035 
L 492.458536 -122.47576 
L 492.266532 -120.84802 
L 492.003786 -119.22028 
L 491.670321 -117.59254 
L 491.2663 -115.964801 
L 490.792068 -114.337061 
L 490.248198 -112.709321 
L 489.635535 -111.081581 
L 488.955233 -109.453841 
L 488.208791 -107.826101 
L 487.398068 -106.198361 
L 486.5253 -104.570622 
L 485.593096 -102.942882 
L 484.604429 -101.315142 
L 483.562613 -99.687402 
L 482.471277 -98.059662 
L 481.334331 -96.431922 
L 480.155924 -94.804183 
L 478.940404 -93.176443 
L 477.69228 -91.548703 
L 476.416178 -89.920963 
L 475.11681 -88.293223 
L 473.798938 -86.665483 
L 472.467347 -85.037743 
L 471.12682 -83.410004 
L 469.782116 -81.782264 
L 468.43795 -80.154524 
L 467.098977 -78.526784 
L 465.769774 -76.899044 
L 464.45482 -75.271304 
z
" id="m9a2b9a282d" style="stroke:#4c4c4c;stroke-width:1.5;"/>
    </defs>
    <g clip-path="url(#pbdb3df73cf)">
     <use style="fill:#cc8963;stroke:#4c4c4c;stroke-width:1.5;" x="0" xlink:href="#m9a2b9a282d" y="432"/>
    </g>
   </g>
   <g id="PolyCollection_3">
    <defs>
     <path d="M 682.917062 -68.825455 
L 649.082938 -68.825455 
L 647.348013 -71.820496 
L 645.49507 -74.815537 
L 643.522373 -77.810579 
L 641.429056 -80.80562 
L 639.21528 -83.800661 
L 636.882394 -86.795702 
L 634.433104 -89.790744 
L 631.871625 -92.785785 
L 629.203842 -95.780826 
L 626.437435 -98.775868 
L 623.582002 -101.770909 
L 620.649136 -104.76595 
L 617.652478 -107.760992 
L 614.607722 -110.756033 
L 611.53258 -113.751074 
L 608.446683 -116.746116 
L 605.37144 -119.741157 
L 602.329823 -122.736198 
L 599.346108 -125.73124 
L 596.445544 -128.726281 
L 593.653976 -131.721322 
L 590.997416 -134.716364 
L 588.501574 -137.711405 
L 586.191357 -140.706446 
L 584.090353 -143.701488 
L 582.220316 -146.696529 
L 580.60066 -149.69157 
L 579.247997 -152.686612 
L 578.175714 -155.681653 
L 577.39363 -158.676694 
L 576.907729 -161.671736 
L 576.72 -164.666777 
L 576.828375 -167.661818 
L 577.226788 -170.65686 
L 577.905343 -173.651901 
L 578.85059 -176.646942 
L 580.045905 -179.641983 
L 581.471952 -182.637025 
L 583.107206 -185.632066 
L 584.928526 -188.627107 
L 586.911744 -191.622149 
L 589.03225 -194.61719 
L 591.26555 -197.612231 
L 593.587765 -200.607273 
L 595.976077 -203.602314 
L 598.409076 -206.597355 
L 600.867031 -209.592397 
L 603.332059 -212.587438 
L 605.788208 -215.582479 
L 608.221453 -218.577521 
L 610.619627 -221.572562 
L 612.972288 -224.567603 
L 615.270553 -227.562645 
L 617.506907 -230.557686 
L 619.675006 -233.552727 
L 621.769496 -236.547769 
L 623.785849 -239.54281 
L 625.720234 -242.537851 
L 627.569427 -245.532893 
L 629.330763 -248.527934 
L 631.00212 -251.522975 
L 632.581942 -254.518017 
L 634.069282 -257.513058 
L 635.463868 -260.508099 
L 636.76616 -263.50314 
L 637.977413 -266.498182 
L 639.099715 -269.493223 
L 640.136008 -272.488264 
L 641.090064 -275.483306 
L 641.966442 -278.478347 
L 642.7704 -281.473388 
L 643.507776 -284.46843 
L 644.184841 -287.463471 
L 644.808138 -290.458512 
L 645.384307 -293.453554 
L 645.919909 -296.448595 
L 646.421267 -299.443636 
L 646.894321 -302.438678 
L 647.344523 -305.433719 
L 647.776757 -308.42876 
L 648.195303 -311.423802 
L 648.603837 -314.418843 
L 649.005468 -317.413884 
L 649.402805 -320.408926 
L 649.798041 -323.403967 
L 650.193054 -326.399008 
L 650.589505 -329.39405 
L 650.988926 -332.389091 
L 651.392794 -335.384132 
L 651.802578 -338.379174 
L 652.219752 -341.374215 
L 652.645788 -344.369256 
L 653.082105 -347.364298 
L 653.530009 -350.359339 
L 653.990598 -353.35438 
L 654.464677 -356.349421 
L 654.952651 -359.344463 
L 655.454447 -362.339504 
L 655.969443 -365.334545 
L 676.030557 -365.334545 
L 676.030557 -365.334545 
L 676.545553 -362.339504 
L 677.047349 -359.344463 
L 677.535323 -356.349421 
L 678.009402 -353.35438 
L 678.469991 -350.359339 
L 678.917895 -347.364298 
L 679.354212 -344.369256 
L 679.780248 -341.374215 
L 680.197422 -338.379174 
L 680.607206 -335.384132 
L 681.011074 -332.389091 
L 681.410495 -329.39405 
L 681.806946 -326.399008 
L 682.201959 -323.403967 
L 682.597195 -320.408926 
L 682.994532 -317.413884 
L 683.396163 -314.418843 
L 683.804697 -311.423802 
L 684.223243 -308.42876 
L 684.655477 -305.433719 
L 685.105679 -302.438678 
L 685.578733 -299.443636 
L 686.080091 -296.448595 
L 686.615693 -293.453554 
L 687.191862 -290.458512 
L 687.815159 -287.463471 
L 688.492224 -284.46843 
L 689.2296 -281.473388 
L 690.033558 -278.478347 
L 690.909936 -275.483306 
L 691.863992 -272.488264 
L 692.900285 -269.493223 
L 694.022587 -266.498182 
L 695.23384 -263.50314 
L 696.536132 -260.508099 
L 697.930718 -257.513058 
L 699.418058 -254.518017 
L 700.99788 -251.522975 
L 702.669237 -248.527934 
L 704.430573 -245.532893 
L 706.279766 -242.537851 
L 708.214151 -239.54281 
L 710.230504 -236.547769 
L 712.324994 -233.552727 
L 714.493093 -230.557686 
L 716.729447 -227.562645 
L 719.027712 -224.567603 
L 721.380373 -221.572562 
L 723.778547 -218.577521 
L 726.211792 -215.582479 
L 728.667941 -212.587438 
L 731.132969 -209.592397 
L 733.590924 -206.597355 
L 736.023923 -203.602314 
L 738.412235 -200.607273 
L 740.73445 -197.612231 
L 742.96775 -194.61719 
L 745.088256 -191.622149 
L 747.071474 -188.627107 
L 748.892794 -185.632066 
L 750.528048 -182.637025 
L 751.954095 -179.641983 
L 753.14941 -176.646942 
L 754.094657 -173.651901 
L 754.773212 -170.65686 
L 755.171625 -167.661818 
L 755.28 -164.666777 
L 755.092271 -161.671736 
L 754.60637 -158.676694 
L 753.824286 -155.681653 
L 752.752003 -152.686612 
L 751.39934 -149.69157 
L 749.779684 -146.696529 
L 747.909647 -143.701488 
L 745.808643 -140.706446 
L 743.498426 -137.711405 
L 741.002584 -134.716364 
L 738.346024 -131.721322 
L 735.554456 -128.726281 
L 732.653892 -125.73124 
L 729.670177 -122.736198 
L 726.62856 -119.741157 
L 723.553317 -116.746116 
L 720.46742 -113.751074 
L 717.392278 -110.756033 
L 714.347522 -107.760992 
L 711.350864 -104.76595 
L 708.417998 -101.770909 
L 705.562565 -98.775868 
L 702.796158 -95.780826 
L 700.128375 -92.785785 
L 697.566896 -89.790744 
L 695.117606 -86.795702 
L 692.78472 -83.800661 
L 690.570944 -80.80562 
L 688.477627 -77.810579 
L 686.50493 -74.815537 
L 684.651987 -71.820496 
L 682.917062 -68.825455 
z
" id="m096d037c92" style="stroke:#4c4c4c;stroke-width:1.5;"/>
    </defs>
    <g clip-path="url(#pbdb3df73cf)">
     <use style="fill:#5f9e6e;stroke:#4c4c4c;stroke-width:1.5;" x="0" xlink:href="#m096d037c92" y="432"/>
    </g>
   </g>
   <g id="line2d_6">
    <path clip-path="url(#pbdb3df73cf)" d="M 159.277069 327.077787 
L 279.922931 327.077787 
" style="fill:none;stroke:#4c4c4c;stroke-dasharray:3.375,3.375;stroke-dashoffset:0;stroke-width:1.5;"/>
   </g>
   <g id="line2d_7">
    <path clip-path="url(#pbdb3df73cf)" d="M 159.606813 296.137708 
L 279.593187 296.137708 
" style="fill:none;stroke:#4c4c4c;stroke-dasharray:6.75,6.75;stroke-dashoffset:0;stroke-width:1.5;"/>
   </g>
   <g id="line2d_8">
    <path clip-path="url(#pbdb3df73cf)" d="M 152.688117 272.932648 
L 286.511883 272.932648 
" style="fill:none;stroke:#4c4c4c;stroke-dasharray:3.375,3.375;stroke-dashoffset:0;stroke-width:1.5;"/>
   </g>
   <g id="line2d_9">
    <path clip-path="url(#pbdb3df73cf)" d="M 396.432821 320.954229 
L 489.167179 320.954229 
" style="fill:none;stroke:#4c4c4c;stroke-dasharray:3.375,3.375;stroke-dashoffset:0;stroke-width:1.5;"/>
   </g>
   <g id="line2d_10">
    <path clip-path="url(#pbdb3df73cf)" d="M 396.093455 292.270198 
L 489.506545 292.270198 
" style="fill:none;stroke:#4c4c4c;stroke-dasharray:6.75,6.75;stroke-dashoffset:0;stroke-width:1.5;"/>
   </g>
   <g id="line2d_11">
    <path clip-path="url(#pbdb3df73cf)" d="M 411.620728 261.652411 
L 473.979272 261.652411 
" style="fill:none;stroke:#4c4c4c;stroke-dasharray:3.375,3.375;stroke-dashoffset:0;stroke-width:1.5;"/>
   </g>
   <g id="line2d_12">
    <path clip-path="url(#pbdb3df73cf)" d="M 584.90945 289.047273 
L 747.09055 289.047273 
" style="fill:none;stroke:#4c4c4c;stroke-dasharray:3.375,3.375;stroke-dashoffset:0;stroke-width:1.5;"/>
   </g>
   <g id="line2d_13">
    <path clip-path="url(#pbdb3df73cf)" d="M 579.722084 256.173439 
L 752.277916 256.173439 
" style="fill:none;stroke:#4c4c4c;stroke-dasharray:6.75,6.75;stroke-dashoffset:0;stroke-width:1.5;"/>
   </g>
   <g id="line2d_14">
    <path clip-path="url(#pbdb3df73cf)" d="M 611.173431 211.697075 
L 720.826569 211.697075 
" style="fill:none;stroke:#4c4c4c;stroke-dasharray:3.375,3.375;stroke-dashoffset:0;stroke-width:1.5;"/>
   </g>
   <g id="patch_3">
    <path d="M 108 378 
L 108 51.84 
" style="fill:none;stroke:#ffffff;stroke-linecap:square;stroke-linejoin:miter;stroke-width:1.25;"/>
   </g>
   <g id="patch_4">
    <path d="M 777.6 378 
L 777.6 51.84 
" style="fill:none;stroke:#ffffff;stroke-linecap:square;stroke-linejoin:miter;stroke-width:1.25;"/>
   </g>
   <g id="patch_5">
    <path d="M 108 378 
L 777.6 378 
" style="fill:none;stroke:#ffffff;stroke-linecap:square;stroke-linejoin:miter;stroke-width:1.25;"/>
   </g>
   <g id="patch_6">
    <path d="M 108 51.84 
L 777.6 51.84 
" style="fill:none;stroke:#ffffff;stroke-linecap:square;stroke-linejoin:miter;stroke-width:1.25;"/>
   </g>
   <g id="text_11">
    <!-- Compensation by Remote Work Status -->
    <g style="fill:#262626;" transform="translate(339.199687 45.84)scale(0.12 -0.12)">
     <defs>
      <path d="M 58.796875 25.09375 
L 68.265625 22.703125 
Q 65.28125 11.03125 57.546875 4.90625 
Q 49.8125 -1.21875 38.625 -1.21875 
Q 27.046875 -1.21875 19.796875 3.484375 
Q 12.546875 8.203125 8.765625 17.140625 
Q 4.984375 26.078125 4.984375 36.328125 
Q 4.984375 47.515625 9.25 55.828125 
Q 13.53125 64.15625 21.40625 68.46875 
Q 29.296875 72.796875 38.765625 72.796875 
Q 49.515625 72.796875 56.828125 67.328125 
Q 64.15625 61.859375 67.046875 51.953125 
L 57.71875 49.75 
Q 55.21875 57.5625 50.484375 61.125 
Q 45.75 64.703125 38.578125 64.703125 
Q 30.328125 64.703125 24.78125 60.734375 
Q 19.234375 56.78125 16.984375 50.109375 
Q 14.75 43.453125 14.75 36.375 
Q 14.75 27.25 17.40625 20.4375 
Q 20.0625 13.625 25.671875 10.25 
Q 31.296875 6.890625 37.84375 6.890625 
Q 45.796875 6.890625 51.3125 11.46875 
Q 56.84375 16.0625 58.796875 25.09375 
z
" id="ArialMT-67"/>
      <path d="M 6.59375 -19.875 
L 6.59375 51.859375 
L 14.59375 51.859375 
L 14.59375 45.125 
Q 17.4375 49.078125 21 51.046875 
Q 24.5625 53.03125 29.640625 53.03125 
Q 36.28125 53.03125 41.359375 49.609375 
Q 46.4375 46.1875 49.015625 39.953125 
Q 51.609375 33.734375 51.609375 26.3125 
Q 51.609375 18.359375 48.75 11.984375 
Q 45.90625 5.609375 40.453125 2.21875 
Q 35.015625 -1.171875 29 -1.171875 
Q 24.609375 -1.171875 21.109375 0.6875 
Q 17.625 2.546875 15.375 5.375 
L 15.375 -19.875 
z
M 14.546875 25.640625 
Q 14.546875 15.625 18.59375 10.84375 
Q 22.65625 6.0625 28.421875 6.0625 
Q 34.28125 6.0625 38.453125 11.015625 
Q 42.625 15.96875 42.625 26.375 
Q 42.625 36.28125 38.546875 41.203125 
Q 34.46875 46.140625 28.8125 46.140625 
Q 23.1875 46.140625 18.859375 40.890625 
Q 14.546875 35.640625 14.546875 25.640625 
z
" id="ArialMT-112"/>
      <path d="M 14.703125 0 
L 6.546875 0 
L 6.546875 71.578125 
L 15.328125 71.578125 
L 15.328125 46.046875 
Q 20.90625 53.03125 29.546875 53.03125 
Q 34.328125 53.03125 38.59375 51.09375 
Q 42.875 49.171875 45.625 45.671875 
Q 48.390625 42.1875 49.953125 37.25 
Q 51.515625 32.328125 51.515625 26.703125 
Q 51.515625 13.375 44.921875 6.09375 
Q 38.328125 -1.171875 29.109375 -1.171875 
Q 19.921875 -1.171875 14.703125 6.5 
z
M 14.59375 26.3125 
Q 14.59375 17 17.140625 12.84375 
Q 21.296875 6.0625 28.375 6.0625 
Q 34.125 6.0625 38.328125 11.0625 
Q 42.53125 16.0625 42.53125 25.984375 
Q 42.53125 36.140625 38.5 40.96875 
Q 34.46875 45.796875 28.765625 45.796875 
Q 23 45.796875 18.796875 40.796875 
Q 14.59375 35.796875 14.59375 26.3125 
z
" id="ArialMT-98"/>
      <path d="M 6.203125 -19.96875 
L 5.21875 -11.71875 
Q 8.109375 -12.5 10.25 -12.5 
Q 13.1875 -12.5 14.9375 -11.515625 
Q 16.703125 -10.546875 17.828125 -8.796875 
Q 18.65625 -7.46875 20.515625 -2.25 
Q 20.75 -1.515625 21.296875 -0.09375 
L 1.609375 51.859375 
L 11.078125 51.859375 
L 21.875 21.828125 
Q 23.96875 16.109375 25.640625 9.8125 
Q 27.15625 15.875 29.25 21.625 
L 40.328125 51.859375 
L 49.125 51.859375 
L 29.390625 -0.875 
Q 26.21875 -9.421875 24.46875 -12.640625 
Q 22.125 -17 19.09375 -19.015625 
Q 16.0625 -21.046875 11.859375 -21.046875 
Q 9.328125 -21.046875 6.203125 -19.96875 
z
" id="ArialMT-121"/>
     </defs>
     <use xlink:href="#ArialMT-67"/>
     <use x="72.216797" xlink:href="#ArialMT-111"/>
     <use x="127.832031" xlink:href="#ArialMT-109"/>
     <use x="211.132812" xlink:href="#ArialMT-112"/>
     <use x="266.748047" xlink:href="#ArialMT-101"/>
     <use x="322.363281" xlink:href="#ArialMT-110"/>
     <use x="377.978516" xlink:href="#ArialMT-115"/>
     <use x="427.978516" xlink:href="#ArialMT-97"/>
     <use x="483.59375" xlink:href="#ArialMT-116"/>
     <use x="511.376953" xlink:href="#ArialMT-105"/>
     <use x="533.59375" xlink:href="#ArialMT-111"/>
     <use x="589.208984" xlink:href="#ArialMT-110"/>
     <use x="644.824219" xlink:href="#ArialMT-32"/>
     <use x="672.607422" xlink:href="#ArialMT-98"/>
     <use x="728.222656" xlink:href="#ArialMT-121"/>
     <use x="778.222656" xlink:href="#ArialMT-32"/>
     <use x="806.005859" xlink:href="#ArialMT-82"/>
     <use x="878.222656" xlink:href="#ArialMT-101"/>
     <use x="933.837891" xlink:href="#ArialMT-109"/>
     <use x="1017.138672" xlink:href="#ArialMT-111"/>
     <use x="1072.753906" xlink:href="#ArialMT-116"/>
     <use x="1100.537109" xlink:href="#ArialMT-101"/>
     <use x="1156.152344" xlink:href="#ArialMT-32"/>
     <use x="1183.935547" xlink:href="#ArialMT-87"/>
     <use x="1276.570312" xlink:href="#ArialMT-111"/>
     <use x="1332.185547" xlink:href="#ArialMT-114"/>
     <use x="1365.486328" xlink:href="#ArialMT-107"/>
     <use x="1415.486328" xlink:href="#ArialMT-32"/>
     <use x="1443.269531" xlink:href="#ArialMT-83"/>
     <use x="1509.96875" xlink:href="#ArialMT-116"/>
     <use x="1537.751953" xlink:href="#ArialMT-97"/>
     <use x="1593.367188" xlink:href="#ArialMT-116"/>
     <use x="1621.150391" xlink:href="#ArialMT-117"/>
     <use x="1676.765625" xlink:href="#ArialMT-115"/>
    </g>
   </g>
  </g>
 </g>
 <defs>
  <clipPath id="pbdb3df73cf">
   <rect height="326.16" width="669.6" x="108" y="51.84"/>
  </clipPath>
 </defs>
</svg>
