<?xml version="1.0" encoding="utf-8" standalone="no"?>
<!DOCTYPE svg PUBLIC "-//W3C//DTD SVG 1.1//EN"
  "http://www.w3.org/Graphics/SVG/1.1/DTD/svg11.dtd">
<!-- Created with matplotlib (https://matplotlib.org/) -->
<svg height="432pt" version="1.1" viewBox="0 0 864 432" width="864pt" xmlns="http://www.w3.org/2000/svg" xmlns:xlink="http://www.w3.org/1999/xlink">
 <metadata>
  <rdf:RDF xmlns:cc="http://creativecommons.org/ns#" xmlns:dc="http://purl.org/dc/elements/1.1/" xmlns:rdf="http://www.w3.org/1999/02/22-rdf-syntax-ns#">
   <cc:Work>
    <dc:type rdf:resource="http://purl.org/dc/dcmitype/StillImage"/>
    <dc:date>2020-11-22T22:58:38.860175</dc:date>
    <dc:format>image/svg+xml</dc:format>
    <dc:creator>
     <cc:Agent>
      <dc:title>Matplotlib v3.3.2, https://matplotlib.org/</dc:title>
     </cc:Agent>
    </dc:creator>
   </cc:Work>
  </rdf:RDF>
 </metadata>
 <defs>
  <style type="text/css">*{stroke-linecap:butt;stroke-linejoin:round;}</style>
 </defs>
 <g id="figure_1">
  <g id="patch_1">
   <path d="M 0 432 
L 864 432 
L 864 0 
L 0 0 
z
" style="fill:#ffffff;"/>
  </g>
  <g id="axes_1">
   <g id="patch_2">
    <path d="M 108 378 
L 777.6 378 
L 777.6 51.84 
L 108 51.84 
z
" style="fill:#eaeaf2;"/>
   </g>
   <g id="matplotlib.axis_1">
    <g id="xtick_1">
     <g id="text_1">
      <!-- No -->
      <g style="fill:#262626;" transform="translate(212.569453 395.373594)scale(0.11 -0.11)">
       <defs>
        <path d="M 7.625 0 
L 7.625 71.578125 
L 17.328125 71.578125 
L 54.9375 15.375 
L 54.9375 71.578125 
L 64.015625 71.578125 
L 64.015625 0 
L 54.296875 0 
L 16.703125 56.25 
L 16.703125 0 
z
" id="ArialMT-78"/>
        <path d="M 3.328125 25.921875 
Q 3.328125 40.328125 11.328125 47.265625 
Q 18.015625 53.03125 27.640625 53.03125 
Q 38.328125 53.03125 45.109375 46.015625 
Q 51.90625 39.015625 51.90625 26.65625 
Q 51.90625 16.65625 48.90625 10.90625 
Q 45.90625 5.171875 40.15625 2 
Q 34.421875 -1.171875 27.640625 -1.171875 
Q 16.75 -1.171875 10.03125 5.8125 
Q 3.328125 12.796875 3.328125 25.921875 
z
M 12.359375 25.921875 
Q 12.359375 15.96875 16.703125 11.015625 
Q 21.046875 6.0625 27.640625 6.0625 
Q 34.1875 6.0625 38.53125 11.03125 
Q 42.875 16.015625 42.875 26.21875 
Q 42.875 35.84375 38.5 40.796875 
Q 34.125 45.75 27.640625 45.75 
Q 21.046875 45.75 16.703125 40.8125 
Q 12.359375 35.890625 12.359375 25.921875 
z
" id="ArialMT-111"/>
       </defs>
       <use xlink:href="#ArialMT-78"/>
       <use x="72.216797" xlink:href="#ArialMT-111"/>
      </g>
     </g>
    </g>
    <g id="xtick_2">
     <g id="text_2">
      <!-- Sometimes -->
      <g style="fill:#262626;" transform="translate(415.293125 395.373594)scale(0.11 -0.11)">
       <defs>
        <path d="M 4.5 23 
L 13.421875 23.78125 
Q 14.0625 18.40625 16.375 14.96875 
Q 18.703125 11.53125 23.578125 9.40625 
Q 28.46875 7.28125 34.578125 7.28125 
Q 39.984375 7.28125 44.140625 8.890625 
Q 48.296875 10.5 50.3125 13.296875 
Q 52.34375 16.109375 52.34375 19.4375 
Q 52.34375 22.796875 50.390625 25.3125 
Q 48.4375 27.828125 43.953125 29.546875 
Q 41.0625 30.671875 31.203125 33.03125 
Q 21.34375 35.40625 17.390625 37.5 
Q 12.25 40.1875 9.734375 44.15625 
Q 7.234375 48.140625 7.234375 53.078125 
Q 7.234375 58.5 10.296875 63.203125 
Q 13.375 67.921875 19.28125 70.359375 
Q 25.203125 72.796875 32.421875 72.796875 
Q 40.375 72.796875 46.453125 70.234375 
Q 52.546875 67.671875 55.8125 62.6875 
Q 59.078125 57.71875 59.328125 51.421875 
L 50.25 50.734375 
Q 49.515625 57.515625 45.28125 60.984375 
Q 41.0625 64.453125 32.8125 64.453125 
Q 24.21875 64.453125 20.28125 61.296875 
Q 16.359375 58.15625 16.359375 53.71875 
Q 16.359375 49.859375 19.140625 47.359375 
Q 21.875 44.875 33.421875 42.265625 
Q 44.96875 39.65625 49.265625 37.703125 
Q 55.515625 34.8125 58.484375 30.390625 
Q 61.46875 25.984375 61.46875 20.21875 
Q 61.46875 14.5 58.203125 9.4375 
Q 54.9375 4.390625 48.796875 1.578125 
Q 42.671875 -1.21875 35.015625 -1.21875 
Q 25.296875 -1.21875 18.71875 1.609375 
Q 12.15625 4.4375 8.421875 10.125 
Q 4.6875 15.828125 4.5 23 
z
" id="ArialMT-83"/>
        <path d="M 6.59375 0 
L 6.59375 51.859375 
L 14.453125 51.859375 
L 14.453125 44.578125 
Q 16.890625 48.390625 20.9375 50.703125 
Q 25 53.03125 30.171875 53.03125 
Q 35.9375 53.03125 39.625 50.640625 
Q 43.3125 48.25 44.828125 43.953125 
Q 50.984375 53.03125 60.84375 53.03125 
Q 68.5625 53.03125 72.703125 48.75 
Q 76.859375 44.484375 76.859375 35.59375 
L 76.859375 0 
L 68.109375 0 
L 68.109375 32.671875 
Q 68.109375 37.9375 67.25 40.25 
Q 66.40625 42.578125 64.15625 43.984375 
Q 61.921875 45.40625 58.890625 45.40625 
Q 53.421875 45.40625 49.796875 41.765625 
Q 46.1875 38.140625 46.1875 30.125 
L 46.1875 0 
L 37.40625 0 
L 37.40625 33.6875 
Q 37.40625 39.546875 35.25 42.46875 
Q 33.109375 45.40625 28.21875 45.40625 
Q 24.515625 45.40625 21.359375 43.453125 
Q 18.21875 41.5 16.796875 37.734375 
Q 15.375 33.984375 15.375 26.90625 
L 15.375 0 
z
" id="ArialMT-109"/>
        <path d="M 42.09375 16.703125 
L 51.171875 15.578125 
Q 49.03125 7.625 43.21875 3.21875 
Q 37.40625 -1.171875 28.375 -1.171875 
Q 17 -1.171875 10.328125 5.828125 
Q 3.65625 12.84375 3.65625 25.484375 
Q 3.65625 38.578125 10.390625 45.796875 
Q 17.140625 53.03125 27.875 53.03125 
Q 38.28125 53.03125 44.875 45.953125 
Q 51.46875 38.875 51.46875 26.03125 
Q 51.46875 25.25 51.421875 23.6875 
L 12.75 23.6875 
Q 13.234375 15.140625 17.578125 10.59375 
Q 21.921875 6.0625 28.421875 6.0625 
Q 33.25 6.0625 36.671875 8.59375 
Q 40.09375 11.140625 42.09375 16.703125 
z
M 13.234375 30.90625 
L 42.1875 30.90625 
Q 41.609375 37.453125 38.875 40.71875 
Q 34.671875 45.796875 27.984375 45.796875 
Q 21.921875 45.796875 17.796875 41.75 
Q 13.671875 37.703125 13.234375 30.90625 
z
" id="ArialMT-101"/>
        <path d="M 25.78125 7.859375 
L 27.046875 0.09375 
Q 23.34375 -0.6875 20.40625 -0.6875 
Q 15.625 -0.6875 12.984375 0.828125 
Q 10.359375 2.34375 9.28125 4.8125 
Q 8.203125 7.28125 8.203125 15.1875 
L 8.203125 45.015625 
L 1.765625 45.015625 
L 1.765625 51.859375 
L 8.203125 51.859375 
L 8.203125 64.703125 
L 16.9375 69.96875 
L 16.9375 51.859375 
L 25.78125 51.859375 
L 25.78125 45.015625 
L 16.9375 45.015625 
L 16.9375 14.703125 
Q 16.9375 10.9375 17.40625 9.859375 
Q 17.875 8.796875 18.921875 8.15625 
Q 19.96875 7.515625 21.921875 7.515625 
Q 23.390625 7.515625 25.78125 7.859375 
z
" id="ArialMT-116"/>
        <path d="M 6.640625 61.46875 
L 6.640625 71.578125 
L 15.4375 71.578125 
L 15.4375 61.46875 
z
M 6.640625 0 
L 6.640625 51.859375 
L 15.4375 51.859375 
L 15.4375 0 
z
" id="ArialMT-105"/>
        <path d="M 3.078125 15.484375 
L 11.765625 16.84375 
Q 12.5 11.625 15.84375 8.84375 
Q 19.1875 6.0625 25.203125 6.0625 
Q 31.25 6.0625 34.171875 8.515625 
Q 37.109375 10.984375 37.109375 14.3125 
Q 37.109375 17.28125 34.515625 19 
Q 32.71875 20.171875 25.53125 21.96875 
Q 15.875 24.421875 12.140625 26.203125 
Q 8.40625 27.984375 6.46875 31.125 
Q 4.546875 34.28125 4.546875 38.09375 
Q 4.546875 41.546875 6.125 44.5 
Q 7.71875 47.46875 10.453125 49.421875 
Q 12.5 50.921875 16.03125 51.96875 
Q 19.578125 53.03125 23.640625 53.03125 
Q 29.734375 53.03125 34.34375 51.265625 
Q 38.96875 49.515625 41.15625 46.5 
Q 43.359375 43.5 44.1875 38.484375 
L 35.59375 37.3125 
Q 35.015625 41.3125 32.203125 43.546875 
Q 29.390625 45.796875 24.265625 45.796875 
Q 18.21875 45.796875 15.625 43.796875 
Q 13.03125 41.796875 13.03125 39.109375 
Q 13.03125 37.40625 14.109375 36.03125 
Q 15.1875 34.625 17.484375 33.6875 
Q 18.796875 33.203125 25.25 31.453125 
Q 34.578125 28.953125 38.25 27.359375 
Q 41.9375 25.78125 44.03125 22.75 
Q 46.140625 19.734375 46.140625 15.234375 
Q 46.140625 10.84375 43.578125 6.953125 
Q 41.015625 3.078125 36.171875 0.953125 
Q 31.34375 -1.171875 25.25 -1.171875 
Q 15.140625 -1.171875 9.84375 3.03125 
Q 4.546875 7.234375 3.078125 15.484375 
z
" id="ArialMT-115"/>
       </defs>
       <use xlink:href="#ArialMT-83"/>
       <use x="66.699219" xlink:href="#ArialMT-111"/>
       <use x="122.314453" xlink:href="#ArialMT-109"/>
       <use x="205.615234" xlink:href="#ArialMT-101"/>
       <use x="261.230469" xlink:href="#ArialMT-116"/>
       <use x="289.013672" xlink:href="#ArialMT-105"/>
       <use x="311.230469" xlink:href="#ArialMT-109"/>
       <use x="394.53125" xlink:href="#ArialMT-101"/>
       <use x="450.146484" xlink:href="#ArialMT-115"/>
      </g>
     </g>
    </g>
    <g id="xtick_3">
     <g id="text_3">
      <!-- Yes -->
      <g style="fill:#262626;" transform="translate(657.024688 395.373594)scale(0.11 -0.11)">
       <defs>
        <path d="M 27.875 0 
L 27.875 30.328125 
L 0.296875 71.578125 
L 11.8125 71.578125 
L 25.921875 50 
Q 29.828125 43.953125 33.203125 37.890625 
Q 36.421875 43.5 41.015625 50.53125 
L 54.890625 71.578125 
L 65.921875 71.578125 
L 37.359375 30.328125 
L 37.359375 0 
z
" id="ArialMT-89"/>
       </defs>
       <use xlink:href="#ArialMT-89"/>
       <use x="57.574219" xlink:href="#ArialMT-101"/>
       <use x="113.189453" xlink:href="#ArialMT-115"/>
      </g>
     </g>
    </g>
    <g id="text_4">
     <!-- Remote Status -->
     <g style="fill:#262626;" transform="translate(403.116562 410.149219)scale(0.12 -0.12)">
      <defs>
       <path d="M 7.859375 0 
L 7.859375 71.578125 
L 39.59375 71.578125 
Q 49.171875 71.578125 54.140625 69.640625 
Q 59.125 67.71875 62.109375 62.828125 
Q 65.09375 57.953125 65.09375 52.046875 
Q 65.09375 44.4375 60.15625 39.203125 
Q 55.21875 33.984375 44.921875 32.5625 
Q 48.6875 30.765625 50.640625 29 
Q 54.78125 25.203125 58.5 19.484375 
L 70.953125 0 
L 59.03125 0 
L 49.5625 14.890625 
Q 45.40625 21.34375 42.71875 24.75 
Q 40.046875 28.171875 37.921875 29.53125 
Q 35.796875 30.90625 33.59375 31.453125 
Q 31.984375 31.78125 28.328125 31.78125 
L 17.328125 31.78125 
L 17.328125 0 
z
M 17.328125 39.984375 
L 37.703125 39.984375 
Q 44.1875 39.984375 47.84375 41.328125 
Q 51.515625 42.671875 53.421875 45.625 
Q 55.328125 48.578125 55.328125 52.046875 
Q 55.328125 57.125 51.640625 60.390625 
Q 47.953125 63.671875 39.984375 63.671875 
L 17.328125 63.671875 
z
" id="ArialMT-82"/>
       <path id="ArialMT-32"/>
       <path d="M 40.4375 6.390625 
Q 35.546875 2.25 31.03125 0.53125 
Q 26.515625 -1.171875 21.34375 -1.171875 
Q 12.796875 -1.171875 8.203125 3 
Q 3.609375 7.171875 3.609375 13.671875 
Q 3.609375 17.484375 5.34375 20.625 
Q 7.078125 23.78125 9.890625 25.6875 
Q 12.703125 27.59375 16.21875 28.5625 
Q 18.796875 29.25 24.03125 29.890625 
Q 34.671875 31.15625 39.703125 32.90625 
Q 39.75 34.71875 39.75 35.203125 
Q 39.75 40.578125 37.25 42.78125 
Q 33.890625 45.75 27.25 45.75 
Q 21.046875 45.75 18.09375 43.578125 
Q 15.140625 41.40625 13.71875 35.890625 
L 5.125 37.0625 
Q 6.296875 42.578125 8.984375 45.96875 
Q 11.671875 49.359375 16.75 51.1875 
Q 21.828125 53.03125 28.515625 53.03125 
Q 35.15625 53.03125 39.296875 51.46875 
Q 43.453125 49.90625 45.40625 47.53125 
Q 47.359375 45.171875 48.140625 41.546875 
Q 48.578125 39.3125 48.578125 33.453125 
L 48.578125 21.734375 
Q 48.578125 9.46875 49.140625 6.21875 
Q 49.703125 2.984375 51.375 0 
L 42.1875 0 
Q 40.828125 2.734375 40.4375 6.390625 
z
M 39.703125 26.03125 
Q 34.90625 24.078125 25.34375 22.703125 
Q 19.921875 21.921875 17.671875 20.9375 
Q 15.4375 19.96875 14.203125 18.09375 
Q 12.984375 16.21875 12.984375 13.921875 
Q 12.984375 10.40625 15.640625 8.0625 
Q 18.3125 5.71875 23.4375 5.71875 
Q 28.515625 5.71875 32.46875 7.9375 
Q 36.421875 10.15625 38.28125 14.015625 
Q 39.703125 17 39.703125 22.796875 
z
" id="ArialMT-97"/>
       <path d="M 40.578125 0 
L 40.578125 7.625 
Q 34.515625 -1.171875 24.125 -1.171875 
Q 19.53125 -1.171875 15.546875 0.578125 
Q 11.578125 2.34375 9.640625 5 
Q 7.71875 7.671875 6.9375 11.53125 
Q 6.390625 14.109375 6.390625 19.734375 
L 6.390625 51.859375 
L 15.1875 51.859375 
L 15.1875 23.09375 
Q 15.1875 16.21875 15.71875 13.8125 
Q 16.546875 10.359375 19.234375 8.375 
Q 21.921875 6.390625 25.875 6.390625 
Q 29.828125 6.390625 33.296875 8.421875 
Q 36.765625 10.453125 38.203125 13.9375 
Q 39.65625 17.4375 39.65625 24.078125 
L 39.65625 51.859375 
L 48.4375 51.859375 
L 48.4375 0 
z
" id="ArialMT-117"/>
      </defs>
      <use xlink:href="#ArialMT-82"/>
      <use x="72.216797" xlink:href="#ArialMT-101"/>
      <use x="127.832031" xlink:href="#ArialMT-109"/>
      <use x="211.132812" xlink:href="#ArialMT-111"/>
      <use x="266.748047" xlink:href="#ArialMT-116"/>
      <use x="294.53125" xlink:href="#ArialMT-101"/>
      <use x="350.146484" xlink:href="#ArialMT-32"/>
      <use x="377.929688" xlink:href="#ArialMT-83"/>
      <use x="444.628906" xlink:href="#ArialMT-116"/>
      <use x="472.412109" xlink:href="#ArialMT-97"/>
      <use x="528.027344" xlink:href="#ArialMT-116"/>
      <use x="555.810547" xlink:href="#ArialMT-117"/>
      <use x="611.425781" xlink:href="#ArialMT-115"/>
     </g>
    </g>
   </g>
   <g id="matplotlib.axis_2">
    <g id="ytick_1">
     <g id="line2d_1">
      <path clip-path="url(#pbd4a0045a4)" d="M 108 374.434384 
L 777.6 374.434384 
" style="fill:none;stroke:#ffffff;stroke-linecap:round;"/>
     </g>
     <g id="text_5">
      <!-- 0 -->
      <g style="fill:#262626;" transform="translate(92.382969 378.371181)scale(0.11 -0.11)">
       <defs>
        <path d="M 4.15625 35.296875 
Q 4.15625 48 6.765625 55.734375 
Q 9.375 63.484375 14.515625 67.671875 
Q 19.671875 71.875 27.484375 71.875 
Q 33.25 71.875 37.59375 69.546875 
Q 41.9375 67.234375 44.765625 62.859375 
Q 47.609375 58.5 49.21875 52.21875 
Q 50.828125 45.953125 50.828125 35.296875 
Q 50.828125 22.703125 48.234375 14.96875 
Q 45.65625 7.234375 40.5 3 
Q 35.359375 -1.21875 27.484375 -1.21875 
Q 17.140625 -1.21875 11.234375 6.203125 
Q 4.15625 15.140625 4.15625 35.296875 
z
M 13.1875 35.296875 
Q 13.1875 17.671875 17.3125 11.828125 
Q 21.4375 6 27.484375 6 
Q 33.546875 6 37.671875 11.859375 
Q 41.796875 17.71875 41.796875 35.296875 
Q 41.796875 52.984375 37.671875 58.78125 
Q 33.546875 64.59375 27.390625 64.59375 
Q 21.34375 64.59375 17.71875 59.46875 
Q 13.1875 52.9375 13.1875 35.296875 
z
" id="ArialMT-48"/>
       </defs>
       <use xlink:href="#ArialMT-48"/>
      </g>
     </g>
    </g>
    <g id="ytick_2">
     <g id="line2d_2">
      <path clip-path="url(#pbd4a0045a4)" d="M 108 336.901588 
L 777.6 336.901588 
" style="fill:none;stroke:#ffffff;stroke-linecap:round;"/>
     </g>
     <g id="text_6">
      <!-- 5 -->
      <g style="fill:#262626;" transform="translate(92.382969 340.838385)scale(0.11 -0.11)">
       <defs>
        <path d="M 4.15625 18.75 
L 13.375 19.53125 
Q 14.40625 12.796875 18.140625 9.390625 
Q 21.875 6 27.15625 6 
Q 33.5 6 37.890625 10.78125 
Q 42.28125 15.578125 42.28125 23.484375 
Q 42.28125 31 38.0625 35.34375 
Q 33.84375 39.703125 27 39.703125 
Q 22.75 39.703125 19.328125 37.765625 
Q 15.921875 35.84375 13.96875 32.765625 
L 5.71875 33.84375 
L 12.640625 70.609375 
L 48.25 70.609375 
L 48.25 62.203125 
L 19.671875 62.203125 
L 15.828125 42.96875 
Q 22.265625 47.46875 29.34375 47.46875 
Q 38.71875 47.46875 45.15625 40.96875 
Q 51.609375 34.46875 51.609375 24.265625 
Q 51.609375 14.546875 45.953125 7.46875 
Q 39.0625 -1.21875 27.15625 -1.21875 
Q 17.390625 -1.21875 11.203125 4.25 
Q 5.03125 9.71875 4.15625 18.75 
z
" id="ArialMT-53"/>
       </defs>
       <use xlink:href="#ArialMT-53"/>
      </g>
     </g>
    </g>
    <g id="ytick_3">
     <g id="line2d_3">
      <path clip-path="url(#pbd4a0045a4)" d="M 108 299.368792 
L 777.6 299.368792 
" style="fill:none;stroke:#ffffff;stroke-linecap:round;"/>
     </g>
     <g id="text_7">
      <!-- 10 -->
      <g style="fill:#262626;" transform="translate(86.265938 303.305589)scale(0.11 -0.11)">
       <defs>
        <path d="M 37.25 0 
L 28.46875 0 
L 28.46875 56 
Q 25.296875 52.984375 20.140625 49.953125 
Q 14.984375 46.921875 10.890625 45.40625 
L 10.890625 53.90625 
Q 18.265625 57.375 23.78125 62.296875 
Q 29.296875 67.234375 31.59375 71.875 
L 37.25 71.875 
z
" id="ArialMT-49"/>
       </defs>
       <use xlink:href="#ArialMT-49"/>
       <use x="55.615234" xlink:href="#ArialMT-48"/>
      </g>
     </g>
    </g>
    <g id="ytick_4">
     <g id="line2d_4">
      <path clip-path="url(#pbd4a0045a4)" d="M 108 261.835995 
L 777.6 261.835995 
" style="fill:none;stroke:#ffffff;stroke-linecap:round;"/>
     </g>
     <g id="text_8">
      <!-- 15 -->
      <g style="fill:#262626;" transform="translate(86.265938 265.772792)scale(0.11 -0.11)">
       <use xlink:href="#ArialMT-49"/>
       <use x="55.615234" xlink:href="#ArialMT-53"/>
      </g>
     </g>
    </g>
    <g id="ytick_5">
     <g id="line2d_5">
      <path clip-path="url(#pbd4a0045a4)" d="M 108 224.303199 
L 777.6 224.303199 
" style="fill:none;stroke:#ffffff;stroke-linecap:round;"/>
     </g>
     <g id="text_9">
      <!-- 20 -->
      <g style="fill:#262626;" transform="translate(86.265938 228.239996)scale(0.11 -0.11)">
       <defs>
        <path d="M 50.34375 8.453125 
L 50.34375 0 
L 3.03125 0 
Q 2.9375 3.171875 4.046875 6.109375 
Q 5.859375 10.9375 9.828125 15.625 
Q 13.8125 20.3125 21.34375 26.46875 
Q 33.015625 36.03125 37.109375 41.625 
Q 41.21875 47.21875 41.21875 52.203125 
Q 41.21875 57.421875 37.46875 61 
Q 33.734375 64.59375 27.734375 64.59375 
Q 21.390625 64.59375 17.578125 60.78125 
Q 13.765625 56.984375 13.71875 50.25 
L 4.6875 51.171875 
Q 5.609375 61.28125 11.65625 66.578125 
Q 17.71875 71.875 27.9375 71.875 
Q 38.234375 71.875 44.234375 66.15625 
Q 50.25 60.453125 50.25 52 
Q 50.25 47.703125 48.484375 43.546875 
Q 46.734375 39.40625 42.65625 34.8125 
Q 38.578125 30.21875 29.109375 22.21875 
Q 21.1875 15.578125 18.9375 13.203125 
Q 16.703125 10.84375 15.234375 8.453125 
z
" id="ArialMT-50"/>
       </defs>
       <use xlink:href="#ArialMT-50"/>
       <use x="55.615234" xlink:href="#ArialMT-48"/>
      </g>
     </g>
    </g>
    <g id="ytick_6">
     <g id="line2d_6">
      <path clip-path="url(#pbd4a0045a4)" d="M 108 186.770403 
L 777.6 186.770403 
" style="fill:none;stroke:#ffffff;stroke-linecap:round;"/>
     </g>
     <g id="text_10">
      <!-- 25 -->
      <g style="fill:#262626;" transform="translate(86.265938 190.7072)scale(0.11 -0.11)">
       <use xlink:href="#ArialMT-50"/>
       <use x="55.615234" xlink:href="#ArialMT-53"/>
      </g>
     </g>
    </g>
    <g id="ytick_7">
     <g id="line2d_7">
      <path clip-path="url(#pbd4a0045a4)" d="M 108 149.237606 
L 777.6 149.237606 
" style="fill:none;stroke:#ffffff;stroke-linecap:round;"/>
     </g>
     <g id="text_11">
      <!-- 30 -->
      <g style="fill:#262626;" transform="translate(86.265938 153.174403)scale(0.11 -0.11)">
       <defs>
        <path d="M 4.203125 18.890625 
L 12.984375 20.0625 
Q 14.5 12.59375 18.140625 9.296875 
Q 21.78125 6 27 6 
Q 33.203125 6 37.46875 10.296875 
Q 41.75 14.59375 41.75 20.953125 
Q 41.75 27 37.796875 30.921875 
Q 33.84375 34.859375 27.734375 34.859375 
Q 25.25 34.859375 21.53125 33.890625 
L 22.515625 41.609375 
Q 23.390625 41.5 23.921875 41.5 
Q 29.546875 41.5 34.03125 44.421875 
Q 38.53125 47.359375 38.53125 53.46875 
Q 38.53125 58.296875 35.25 61.46875 
Q 31.984375 64.65625 26.8125 64.65625 
Q 21.6875 64.65625 18.265625 61.421875 
Q 14.84375 58.203125 13.875 51.765625 
L 5.078125 53.328125 
Q 6.6875 62.15625 12.390625 67.015625 
Q 18.109375 71.875 26.609375 71.875 
Q 32.46875 71.875 37.390625 69.359375 
Q 42.328125 66.84375 44.9375 62.5 
Q 47.5625 58.15625 47.5625 53.265625 
Q 47.5625 48.640625 45.0625 44.828125 
Q 42.578125 41.015625 37.703125 38.765625 
Q 44.046875 37.3125 47.5625 32.6875 
Q 51.078125 28.078125 51.078125 21.140625 
Q 51.078125 11.765625 44.234375 5.25 
Q 37.40625 -1.265625 26.953125 -1.265625 
Q 17.53125 -1.265625 11.296875 4.34375 
Q 5.078125 9.96875 4.203125 18.890625 
z
" id="ArialMT-51"/>
       </defs>
       <use xlink:href="#ArialMT-51"/>
       <use x="55.615234" xlink:href="#ArialMT-48"/>
      </g>
     </g>
    </g>
    <g id="ytick_8">
     <g id="line2d_8">
      <path clip-path="url(#pbd4a0045a4)" d="M 108 111.70481 
L 777.6 111.70481 
" style="fill:none;stroke:#ffffff;stroke-linecap:round;"/>
     </g>
     <g id="text_12">
      <!-- 35 -->
      <g style="fill:#262626;" transform="translate(86.265938 115.641607)scale(0.11 -0.11)">
       <use xlink:href="#ArialMT-51"/>
       <use x="55.615234" xlink:href="#ArialMT-53"/>
      </g>
     </g>
    </g>
    <g id="ytick_9">
     <g id="line2d_9">
      <path clip-path="url(#pbd4a0045a4)" d="M 108 74.172014 
L 777.6 74.172014 
" style="fill:none;stroke:#ffffff;stroke-linecap:round;"/>
     </g>
     <g id="text_13">
      <!-- 40 -->
      <g style="fill:#262626;" transform="translate(86.265938 78.108811)scale(0.11 -0.11)">
       <defs>
        <path d="M 32.328125 0 
L 32.328125 17.140625 
L 1.265625 17.140625 
L 1.265625 25.203125 
L 33.9375 71.578125 
L 41.109375 71.578125 
L 41.109375 25.203125 
L 50.78125 25.203125 
L 50.78125 17.140625 
L 41.109375 17.140625 
L 41.109375 0 
z
M 32.328125 25.203125 
L 32.328125 57.46875 
L 9.90625 25.203125 
z
" id="ArialMT-52"/>
       </defs>
       <use xlink:href="#ArialMT-52"/>
       <use x="55.615234" xlink:href="#ArialMT-48"/>
      </g>
     </g>
    </g>
    <g id="text_14">
     <!-- Years of experience in tech -->
     <g style="fill:#262626;" transform="translate(79.880938 287.076562)rotate(-90)scale(0.12 -0.12)">
      <defs>
       <path d="M 6.5 0 
L 6.5 51.859375 
L 14.40625 51.859375 
L 14.40625 44 
Q 17.4375 49.515625 20 51.265625 
Q 22.5625 53.03125 25.640625 53.03125 
Q 30.078125 53.03125 34.671875 50.203125 
L 31.640625 42.046875 
Q 28.421875 43.953125 25.203125 43.953125 
Q 22.3125 43.953125 20.015625 42.21875 
Q 17.71875 40.484375 16.75 37.40625 
Q 15.28125 32.71875 15.28125 27.15625 
L 15.28125 0 
z
" id="ArialMT-114"/>
       <path d="M 8.6875 0 
L 8.6875 45.015625 
L 0.921875 45.015625 
L 0.921875 51.859375 
L 8.6875 51.859375 
L 8.6875 57.375 
Q 8.6875 62.59375 9.625 65.140625 
Q 10.890625 68.5625 14.078125 70.671875 
Q 17.28125 72.796875 23.046875 72.796875 
Q 26.765625 72.796875 31.25 71.921875 
L 29.9375 64.265625 
Q 27.203125 64.75 24.75 64.75 
Q 20.75 64.75 19.09375 63.03125 
Q 17.4375 61.328125 17.4375 56.640625 
L 17.4375 51.859375 
L 27.546875 51.859375 
L 27.546875 45.015625 
L 17.4375 45.015625 
L 17.4375 0 
z
" id="ArialMT-102"/>
       <path d="M 0.734375 0 
L 19.671875 26.953125 
L 2.15625 51.859375 
L 13.140625 51.859375 
L 21.09375 39.703125 
Q 23.34375 36.234375 24.703125 33.890625 
Q 26.859375 37.109375 28.65625 39.59375 
L 37.40625 51.859375 
L 47.90625 51.859375 
L 29.984375 27.4375 
L 49.265625 0 
L 38.484375 0 
L 27.828125 16.109375 
L 25 20.453125 
L 11.375 0 
z
" id="ArialMT-120"/>
       <path d="M 6.59375 -19.875 
L 6.59375 51.859375 
L 14.59375 51.859375 
L 14.59375 45.125 
Q 17.4375 49.078125 21 51.046875 
Q 24.5625 53.03125 29.640625 53.03125 
Q 36.28125 53.03125 41.359375 49.609375 
Q 46.4375 46.1875 49.015625 39.953125 
Q 51.609375 33.734375 51.609375 26.3125 
Q 51.609375 18.359375 48.75 11.984375 
Q 45.90625 5.609375 40.453125 2.21875 
Q 35.015625 -1.171875 29 -1.171875 
Q 24.609375 -1.171875 21.109375 0.6875 
Q 17.625 2.546875 15.375 5.375 
L 15.375 -19.875 
z
M 14.546875 25.640625 
Q 14.546875 15.625 18.59375 10.84375 
Q 22.65625 6.0625 28.421875 6.0625 
Q 34.28125 6.0625 38.453125 11.015625 
Q 42.625 15.96875 42.625 26.375 
Q 42.625 36.28125 38.546875 41.203125 
Q 34.46875 46.140625 28.8125 46.140625 
Q 23.1875 46.140625 18.859375 40.890625 
Q 14.546875 35.640625 14.546875 25.640625 
z
" id="ArialMT-112"/>
       <path d="M 6.59375 0 
L 6.59375 51.859375 
L 14.5 51.859375 
L 14.5 44.484375 
Q 20.21875 53.03125 31 53.03125 
Q 35.6875 53.03125 39.625 51.34375 
Q 43.5625 49.65625 45.515625 46.921875 
Q 47.46875 44.1875 48.25 40.4375 
Q 48.734375 37.984375 48.734375 31.890625 
L 48.734375 0 
L 39.9375 0 
L 39.9375 31.546875 
Q 39.9375 36.921875 38.90625 39.578125 
Q 37.890625 42.234375 35.28125 43.8125 
Q 32.671875 45.40625 29.15625 45.40625 
Q 23.53125 45.40625 19.453125 41.84375 
Q 15.375 38.28125 15.375 28.328125 
L 15.375 0 
z
" id="ArialMT-110"/>
       <path d="M 40.4375 19 
L 49.078125 17.875 
Q 47.65625 8.9375 41.8125 3.875 
Q 35.984375 -1.171875 27.484375 -1.171875 
Q 16.84375 -1.171875 10.375 5.78125 
Q 3.90625 12.75 3.90625 25.734375 
Q 3.90625 34.125 6.6875 40.421875 
Q 9.46875 46.734375 15.15625 49.875 
Q 20.84375 53.03125 27.546875 53.03125 
Q 35.984375 53.03125 41.359375 48.75 
Q 46.734375 44.484375 48.25 36.625 
L 39.703125 35.296875 
Q 38.484375 40.53125 35.375 43.15625 
Q 32.28125 45.796875 27.875 45.796875 
Q 21.234375 45.796875 17.078125 41.03125 
Q 12.9375 36.28125 12.9375 25.984375 
Q 12.9375 15.53125 16.9375 10.796875 
Q 20.953125 6.0625 27.390625 6.0625 
Q 32.5625 6.0625 36.03125 9.234375 
Q 39.5 12.40625 40.4375 19 
z
" id="ArialMT-99"/>
       <path d="M 6.59375 0 
L 6.59375 71.578125 
L 15.375 71.578125 
L 15.375 45.90625 
Q 21.53125 53.03125 30.90625 53.03125 
Q 36.671875 53.03125 40.921875 50.75 
Q 45.171875 48.484375 47 44.484375 
Q 48.828125 40.484375 48.828125 32.859375 
L 48.828125 0 
L 40.046875 0 
L 40.046875 32.859375 
Q 40.046875 39.453125 37.1875 42.453125 
Q 34.328125 45.453125 29.109375 45.453125 
Q 25.203125 45.453125 21.75 43.421875 
Q 18.3125 41.40625 16.84375 37.9375 
Q 15.375 34.46875 15.375 28.375 
L 15.375 0 
z
" id="ArialMT-104"/>
      </defs>
      <use xlink:href="#ArialMT-89"/>
      <use x="57.574219" xlink:href="#ArialMT-101"/>
      <use x="113.189453" xlink:href="#ArialMT-97"/>
      <use x="168.804688" xlink:href="#ArialMT-114"/>
      <use x="202.105469" xlink:href="#ArialMT-115"/>
      <use x="252.105469" xlink:href="#ArialMT-32"/>
      <use x="279.888672" xlink:href="#ArialMT-111"/>
      <use x="335.503906" xlink:href="#ArialMT-102"/>
      <use x="363.287109" xlink:href="#ArialMT-32"/>
      <use x="391.070312" xlink:href="#ArialMT-101"/>
      <use x="446.685547" xlink:href="#ArialMT-120"/>
      <use x="496.685547" xlink:href="#ArialMT-112"/>
      <use x="552.300781" xlink:href="#ArialMT-101"/>
      <use x="607.916016" xlink:href="#ArialMT-114"/>
      <use x="641.216797" xlink:href="#ArialMT-105"/>
      <use x="663.433594" xlink:href="#ArialMT-101"/>
      <use x="719.048828" xlink:href="#ArialMT-110"/>
      <use x="774.664062" xlink:href="#ArialMT-99"/>
      <use x="824.664062" xlink:href="#ArialMT-101"/>
      <use x="880.279297" xlink:href="#ArialMT-32"/>
      <use x="908.0625" xlink:href="#ArialMT-105"/>
      <use x="930.279297" xlink:href="#ArialMT-110"/>
      <use x="985.894531" xlink:href="#ArialMT-32"/>
      <use x="1013.677734" xlink:href="#ArialMT-116"/>
      <use x="1041.460938" xlink:href="#ArialMT-101"/>
      <use x="1097.076172" xlink:href="#ArialMT-99"/>
      <use x="1147.076172" xlink:href="#ArialMT-104"/>
     </g>
    </g>
   </g>
   <g id="PolyCollection_1">
    <defs>
     <path d="M 252.215271 -68.825455 
L 186.984729 -68.825455 
L 184.200837 -71.668848 
L 181.379312 -74.512242 
L 178.545174 -77.355636 
L 175.72487 -80.199029 
L 172.945751 -83.042423 
L 170.235484 -85.885817 
L 167.621453 -88.72921 
L 165.130146 -91.572604 
L 162.786567 -94.415997 
L 160.613692 -97.259391 
L 158.631992 -100.102785 
L 156.85905 -102.946178 
L 155.30927 -105.789572 
L 153.993711 -108.632966 
L 152.920017 -111.476359 
L 152.092473 -114.319753 
L 151.512148 -117.163147 
L 151.177124 -120.00654 
L 151.082791 -122.849934 
L 151.222179 -125.693328 
L 151.586312 -128.536721 
L 152.164557 -131.380115 
L 152.944954 -134.223509 
L 153.914512 -137.066902 
L 155.059453 -139.910296 
L 156.365417 -142.75369 
L 157.817609 -145.597083 
L 159.400903 -148.440477 
L 161.099922 -151.283871 
L 162.899074 -154.127264 
L 164.782596 -156.970658 
L 166.734586 -159.814052 
L 168.739052 -162.657445 
L 170.77998 -165.500839 
L 172.841423 -168.344233 
L 174.90763 -171.187626 
L 176.963187 -174.03102 
L 178.993195 -176.874414 
L 180.983459 -179.717807 
L 182.920688 -182.561201 
L 184.792692 -185.404595 
L 186.588579 -188.247988 
L 188.298923 -191.091382 
L 189.915916 -193.934776 
L 191.43348 -196.778169 
L 192.847353 -199.621563 
L 194.155123 -202.464957 
L 195.356235 -205.30835 
L 196.451951 -208.151744 
L 197.445274 -210.995138 
L 198.340837 -213.838531 
L 199.14476 -216.681925 
L 199.864481 -219.525319 
L 200.508554 -222.368712 
L 201.086434 -225.212106 
L 201.608238 -228.0555 
L 202.084494 -230.898893 
L 202.525881 -233.742287 
L 202.942959 -236.585681 
L 203.345909 -239.429074 
L 203.744271 -242.272468 
L 204.1467 -245.115861 
L 204.560748 -247.959255 
L 204.992668 -250.802649 
L 205.447262 -253.646042 
L 205.927769 -256.489436 
L 206.435804 -259.33283 
L 206.971352 -262.176223 
L 207.532809 -265.019617 
L 208.117085 -267.863011 
L 208.719753 -270.706404 
L 209.335243 -273.549798 
L 209.957076 -276.393192 
L 210.57812 -279.236585 
L 211.190868 -282.079979 
L 211.787726 -284.923373 
L 212.361288 -287.766766 
L 212.904602 -290.61016 
L 213.411414 -293.453554 
L 213.876376 -296.296947 
L 214.295219 -299.140341 
L 214.664878 -301.983735 
L 214.983579 -304.827128 
L 215.250877 -307.670522 
L 215.467642 -310.513916 
L 215.636009 -313.357309 
L 215.759281 -316.200703 
L 215.841801 -319.044097 
L 215.888784 -321.88749 
L 215.906135 -324.730884 
L 215.900239 -327.574278 
L 215.877747 -330.417671 
L 215.845352 -333.261065 
L 215.809577 -336.104459 
L 215.776568 -338.947852 
L 215.751915 -341.791246 
L 215.740488 -344.63464 
L 215.746316 -347.478033 
L 215.772494 -350.321427 
L 223.427506 -350.321427 
L 223.427506 -350.321427 
L 223.453684 -347.478033 
L 223.459512 -344.63464 
L 223.448085 -341.791246 
L 223.423432 -338.947852 
L 223.390423 -336.104459 
L 223.354648 -333.261065 
L 223.322253 -330.417671 
L 223.299761 -327.574278 
L 223.293865 -324.730884 
L 223.311216 -321.88749 
L 223.358199 -319.044097 
L 223.440719 -316.200703 
L 223.563991 -313.357309 
L 223.732358 -310.513916 
L 223.949123 -307.670522 
L 224.216421 -304.827128 
L 224.535122 -301.983735 
L 224.904781 -299.140341 
L 225.323624 -296.296947 
L 225.788586 -293.453554 
L 226.295398 -290.61016 
L 226.838712 -287.766766 
L 227.412274 -284.923373 
L 228.009132 -282.079979 
L 228.62188 -279.236585 
L 229.242924 -276.393192 
L 229.864757 -273.549798 
L 230.480247 -270.706404 
L 231.082915 -267.863011 
L 231.667191 -265.019617 
L 232.228648 -262.176223 
L 232.764196 -259.33283 
L 233.272231 -256.489436 
L 233.752738 -253.646042 
L 234.207332 -250.802649 
L 234.639252 -247.959255 
L 235.0533 -245.115861 
L 235.455729 -242.272468 
L 235.854091 -239.429074 
L 236.257041 -236.585681 
L 236.674119 -233.742287 
L 237.115506 -230.898893 
L 237.591762 -228.0555 
L 238.113566 -225.212106 
L 238.691446 -222.368712 
L 239.335519 -219.525319 
L 240.05524 -216.681925 
L 240.859163 -213.838531 
L 241.754726 -210.995138 
L 242.748049 -208.151744 
L 243.843765 -205.30835 
L 245.044877 -202.464957 
L 246.352647 -199.621563 
L 247.76652 -196.778169 
L 249.284084 -193.934776 
L 250.901077 -191.091382 
L 252.611421 -188.247988 
L 254.407308 -185.404595 
L 256.279312 -182.561201 
L 258.216541 -179.717807 
L 260.206805 -176.874414 
L 262.236813 -174.03102 
L 264.29237 -171.187626 
L 266.358577 -168.344233 
L 268.42002 -165.500839 
L 270.460948 -162.657445 
L 272.465414 -159.814052 
L 274.417404 -156.970658 
L 276.300926 -154.127264 
L 278.100078 -151.283871 
L 279.799097 -148.440477 
L 281.382391 -145.597083 
L 282.834583 -142.75369 
L 284.140547 -139.910296 
L 285.285488 -137.066902 
L 286.255046 -134.223509 
L 287.035443 -131.380115 
L 287.613688 -128.536721 
L 287.977821 -125.693328 
L 288.117209 -122.849934 
L 288.022876 -120.00654 
L 287.687852 -117.163147 
L 287.107527 -114.319753 
L 286.279983 -111.476359 
L 285.206289 -108.632966 
L 283.89073 -105.789572 
L 282.34095 -102.946178 
L 280.568008 -100.102785 
L 278.586308 -97.259391 
L 276.413433 -94.415997 
L 274.069854 -91.572604 
L 271.578547 -88.72921 
L 268.964516 -85.885817 
L 266.254249 -83.042423 
L 263.47513 -80.199029 
L 260.654826 -77.355636 
L 257.820688 -74.512242 
L 254.999163 -71.668848 
L 252.215271 -68.825455 
z
" id="mc1c28dd51d" style="stroke:#4c4c4c;stroke-width:1.5;"/>
    </defs>
    <g clip-path="url(#pbd4a0045a4)">
     <use style="fill:#5875a4;stroke:#4c4c4c;stroke-width:1.5;" x="0" xlink:href="#mc1c28dd51d" y="432"/>
    </g>
   </g>
   <g id="PolyCollection_2">
    <defs>
     <path d="M 477.302066 -72.578734 
L 408.297934 -72.578734 
L 407.030653 -74.246858 
L 405.800662 -75.914983 
L 404.612853 -77.583107 
L 403.471699 -79.251231 
L 402.381208 -80.919356 
L 401.344883 -82.58748 
L 400.365699 -84.255604 
L 399.446078 -85.923728 
L 398.58789 -87.591853 
L 397.792453 -89.259977 
L 397.060555 -90.928101 
L 396.392474 -92.596226 
L 395.788017 -94.26435 
L 395.246568 -95.932474 
L 394.767134 -97.600598 
L 394.348406 -99.268723 
L 393.98882 -100.936847 
L 393.68662 -102.604971 
L 393.439921 -104.273096 
L 393.246772 -105.94122 
L 393.105213 -107.609344 
L 393.013331 -109.277468 
L 392.969302 -110.945593 
L 392.971436 -112.613717 
L 393.018202 -114.281841 
L 393.10825 -115.949965 
L 393.240423 -117.61809 
L 393.413755 -119.286214 
L 393.627464 -120.954338 
L 393.880934 -122.622463 
L 394.173685 -124.290587 
L 394.505342 -125.958711 
L 394.875595 -127.626835 
L 395.284153 -129.29496 
L 395.7307 -130.963084 
L 396.214843 -132.631208 
L 396.736069 -134.299333 
L 397.293694 -135.967457 
L 397.886822 -137.635581 
L 398.514311 -139.303705 
L 399.174736 -140.97183 
L 399.866368 -142.639954 
L 400.587152 -144.308078 
L 401.334702 -145.976203 
L 402.106297 -147.644327 
L 402.898889 -149.312451 
L 403.709113 -150.980575 
L 404.533317 -152.6487 
L 405.36758 -154.316824 
L 406.207757 -155.984948 
L 407.049511 -157.653072 
L 407.888359 -159.321197 
L 408.719724 -160.989321 
L 409.538978 -162.657445 
L 410.341497 -164.32557 
L 411.122715 -165.993694 
L 411.878174 -167.661818 
L 412.603574 -169.329942 
L 413.294826 -170.998067 
L 413.948102 -172.666191 
L 414.559875 -174.334315 
L 415.126969 -176.00244 
L 415.646594 -177.670564 
L 416.116388 -179.338688 
L 416.534447 -181.006812 
L 416.899354 -182.674937 
L 417.210208 -184.343061 
L 417.466642 -186.011185 
L 417.668841 -187.67931 
L 417.81755 -189.347434 
L 417.914083 -191.015558 
L 417.960321 -192.683682 
L 417.958708 -194.351807 
L 417.912235 -196.019931 
L 417.824422 -197.688055 
L 417.699293 -199.35618 
L 417.541342 -201.024304 
L 417.355491 -202.692428 
L 417.147045 -204.360552 
L 416.921637 -206.028677 
L 416.685166 -207.696801 
L 416.443736 -209.364925 
L 416.203577 -211.033049 
L 415.970979 -212.701174 
L 415.752206 -214.369298 
L 415.553422 -216.037422 
L 415.380605 -217.705547 
L 415.239473 -219.373671 
L 415.135403 -221.041795 
L 415.073358 -222.709919 
L 415.057819 -224.378044 
L 415.092723 -226.046168 
L 415.181407 -227.714292 
L 415.326565 -229.382417 
L 415.530211 -231.050541 
L 415.793656 -232.718665 
L 416.117491 -234.386789 
L 416.501587 -236.054914 
L 416.945103 -237.723038 
L 468.654897 -237.723038 
L 468.654897 -237.723038 
L 469.098413 -236.054914 
L 469.482509 -234.386789 
L 469.806344 -232.718665 
L 470.069789 -231.050541 
L 470.273435 -229.382417 
L 470.418593 -227.714292 
L 470.507277 -226.046168 
L 470.542181 -224.378044 
L 470.526642 -222.709919 
L 470.464597 -221.041795 
L 470.360527 -219.373671 
L 470.219395 -217.705547 
L 470.046578 -216.037422 
L 469.847794 -214.369298 
L 469.629021 -212.701174 
L 469.396423 -211.033049 
L 469.156264 -209.364925 
L 468.914834 -207.696801 
L 468.678363 -206.028677 
L 468.452955 -204.360552 
L 468.244509 -202.692428 
L 468.058658 -201.024304 
L 467.900707 -199.35618 
L 467.775578 -197.688055 
L 467.687765 -196.019931 
L 467.641292 -194.351807 
L 467.639679 -192.683682 
L 467.685917 -191.015558 
L 467.78245 -189.347434 
L 467.931159 -187.67931 
L 468.133358 -186.011185 
L 468.389792 -184.343061 
L 468.700646 -182.674937 
L 469.065553 -181.006812 
L 469.483612 -179.338688 
L 469.953406 -177.670564 
L 470.473031 -176.00244 
L 471.040125 -174.334315 
L 471.651898 -172.666191 
L 472.305174 -170.998067 
L 472.996426 -169.329942 
L 473.721826 -167.661818 
L 474.477285 -165.993694 
L 475.258503 -164.32557 
L 476.061022 -162.657445 
L 476.880276 -160.989321 
L 477.711641 -159.321197 
L 478.550489 -157.653072 
L 479.392243 -155.984948 
L 480.23242 -154.316824 
L 481.066683 -152.6487 
L 481.890887 -150.980575 
L 482.701111 -149.312451 
L 483.493703 -147.644327 
L 484.265298 -145.976203 
L 485.012848 -144.308078 
L 485.733632 -142.639954 
L 486.425264 -140.97183 
L 487.085689 -139.303705 
L 487.713178 -137.635581 
L 488.306306 -135.967457 
L 488.863931 -134.299333 
L 489.385157 -132.631208 
L 489.8693 -130.963084 
L 490.315847 -129.29496 
L 490.724405 -127.626835 
L 491.094658 -125.958711 
L 491.426315 -124.290587 
L 491.719066 -122.622463 
L 491.972536 -120.954338 
L 492.186245 -119.286214 
L 492.359577 -117.61809 
L 492.49175 -115.949965 
L 492.581798 -114.281841 
L 492.628564 -112.613717 
L 492.630698 -110.945593 
L 492.586669 -109.277468 
L 492.494787 -107.609344 
L 492.353228 -105.94122 
L 492.160079 -104.273096 
L 491.91338 -102.604971 
L 491.61118 -100.936847 
L 491.251594 -99.268723 
L 490.832866 -97.600598 
L 490.353432 -95.932474 
L 489.811983 -94.26435 
L 489.207526 -92.596226 
L 488.539445 -90.928101 
L 487.807547 -89.259977 
L 487.01211 -87.591853 
L 486.153922 -85.923728 
L 485.234301 -84.255604 
L 484.255117 -82.58748 
L 483.218792 -80.919356 
L 482.128301 -79.251231 
L 480.987147 -77.583107 
L 479.799338 -75.914983 
L 478.569347 -74.246858 
L 477.302066 -72.578734 
z
" id="ma395701cb1" style="stroke:#4c4c4c;stroke-width:1.5;"/>
    </defs>
    <g clip-path="url(#pbd4a0045a4)">
     <use style="fill:#cc8963;stroke:#4c4c4c;stroke-width:1.5;" x="0" xlink:href="#ma395701cb1" y="432"/>
    </g>
   </g>
   <g id="PolyCollection_3">
    <defs>
     <path d="M 703.172216 -72.578734 
L 628.827784 -72.578734 
L 625.995358 -75.535864 
L 623.086052 -78.492993 
L 620.109657 -81.450122 
L 617.077439 -84.407252 
L 614.002362 -87.364381 
L 610.899299 -90.321511 
L 607.785222 -93.27864 
L 604.679336 -96.235769 
L 601.60315 -99.192899 
L 598.580451 -102.150028 
L 595.637172 -105.107158 
L 592.801142 -108.064287 
L 590.101699 -111.021416 
L 587.569189 -113.978546 
L 585.234333 -116.935675 
L 583.127497 -119.892805 
L 581.277882 -122.849934 
L 579.712661 -125.807064 
L 578.456101 -128.764193 
L 577.528708 -131.721322 
L 576.946438 -134.678452 
L 576.72 -137.635581 
L 576.854311 -140.592711 
L 577.348105 -143.54984 
L 578.19375 -146.506969 
L 579.377257 -149.464099 
L 580.878515 -152.421228 
L 582.671734 -155.378358 
L 584.726077 -158.335487 
L 587.006472 -161.292616 
L 589.474559 -164.249746 
L 592.089746 -167.206875 
L 594.81032 -170.164005 
L 597.594575 -173.121134 
L 600.401915 -176.078263 
L 603.193882 -179.035393 
L 605.935079 -181.992522 
L 608.593946 -184.949652 
L 611.143381 -187.906781 
L 613.561171 -190.86391 
L 615.83024 -193.82104 
L 617.938705 -196.778169 
L 619.879763 -199.735299 
L 621.651407 -202.692428 
L 623.256008 -205.649557 
L 624.699783 -208.606687 
L 625.992185 -211.563816 
L 627.145236 -214.520946 
L 628.172841 -217.478075 
L 629.090112 -220.435205 
L 629.912727 -223.392334 
L 630.656343 -226.349463 
L 631.336087 -229.306593 
L 631.966135 -232.263722 
L 632.559389 -235.220852 
L 633.127247 -238.177981 
L 633.679478 -241.13511 
L 634.224186 -244.09224 
L 634.767847 -247.049369 
L 635.315429 -250.006499 
L 635.870549 -252.963628 
L 636.435677 -255.920757 
L 637.012358 -258.877887 
L 637.601429 -261.835016 
L 638.203238 -264.792146 
L 638.817829 -267.749275 
L 639.445095 -270.706404 
L 640.084894 -273.663534 
L 640.737119 -276.620663 
L 641.401721 -279.577793 
L 642.078699 -282.534922 
L 642.768051 -285.492051 
L 643.469698 -288.449181 
L 644.183398 -291.40631 
L 644.908652 -294.36344 
L 645.644613 -297.320569 
L 646.390018 -300.277699 
L 647.143138 -303.234828 
L 647.901759 -306.191957 
L 648.663202 -309.149087 
L 649.424362 -312.106216 
L 650.181802 -315.063346 
L 650.931852 -318.020475 
L 651.670741 -320.977604 
L 652.394741 -323.934734 
L 653.100309 -326.891863 
L 653.784229 -329.848993 
L 654.443734 -332.806122 
L 655.07661 -335.763251 
L 655.681266 -338.720381 
L 656.256779 -341.67751 
L 656.802898 -344.63464 
L 657.320017 -347.591769 
L 657.809115 -350.548898 
L 658.271675 -353.506028 
L 658.709571 -356.463157 
L 659.124954 -359.420287 
L 659.520125 -362.377416 
L 659.897408 -365.334545 
L 672.102592 -365.334545 
L 672.102592 -365.334545 
L 672.479875 -362.377416 
L 672.875046 -359.420287 
L 673.290429 -356.463157 
L 673.728325 -353.506028 
L 674.190885 -350.548898 
L 674.679983 -347.591769 
L 675.197102 -344.63464 
L 675.743221 -341.67751 
L 676.318734 -338.720381 
L 676.92339 -335.763251 
L 677.556266 -332.806122 
L 678.215771 -329.848993 
L 678.899691 -326.891863 
L 679.605259 -323.934734 
L 680.329259 -320.977604 
L 681.068148 -318.020475 
L 681.818198 -315.063346 
L 682.575638 -312.106216 
L 683.336798 -309.149087 
L 684.098241 -306.191957 
L 684.856862 -303.234828 
L 685.609982 -300.277699 
L 686.355387 -297.320569 
L 687.091348 -294.36344 
L 687.816602 -291.40631 
L 688.530302 -288.449181 
L 689.231949 -285.492051 
L 689.921301 -282.534922 
L 690.598279 -279.577793 
L 691.262881 -276.620663 
L 691.915106 -273.663534 
L 692.554905 -270.706404 
L 693.182171 -267.749275 
L 693.796762 -264.792146 
L 694.398571 -261.835016 
L 694.987642 -258.877887 
L 695.564323 -255.920757 
L 696.129451 -252.963628 
L 696.684571 -250.006499 
L 697.232153 -247.049369 
L 697.775814 -244.09224 
L 698.320522 -241.13511 
L 698.872753 -238.177981 
L 699.440611 -235.220852 
L 700.033865 -232.263722 
L 700.663913 -229.306593 
L 701.343657 -226.349463 
L 702.087273 -223.392334 
L 702.909888 -220.435205 
L 703.827159 -217.478075 
L 704.854764 -214.520946 
L 706.007815 -211.563816 
L 707.300217 -208.606687 
L 708.743992 -205.649557 
L 710.348593 -202.692428 
L 712.120237 -199.735299 
L 714.061295 -196.778169 
L 716.16976 -193.82104 
L 718.438829 -190.86391 
L 720.856619 -187.906781 
L 723.406054 -184.949652 
L 726.064921 -181.992522 
L 728.806118 -179.035393 
L 731.598085 -176.078263 
L 734.405425 -173.121134 
L 737.18968 -170.164005 
L 739.910254 -167.206875 
L 742.525441 -164.249746 
L 744.993528 -161.292616 
L 747.273923 -158.335487 
L 749.328266 -155.378358 
L 751.121485 -152.421228 
L 752.622743 -149.464099 
L 753.80625 -146.506969 
L 754.651895 -143.54984 
L 755.145689 -140.592711 
L 755.28 -137.635581 
L 755.053562 -134.678452 
L 754.471292 -131.721322 
L 753.543899 -128.764193 
L 752.287339 -125.807064 
L 750.722118 -122.849934 
L 748.872503 -119.892805 
L 746.765667 -116.935675 
L 744.430811 -113.978546 
L 741.898301 -111.021416 
L 739.198858 -108.064287 
L 736.362828 -105.107158 
L 733.419549 -102.150028 
L 730.39685 -99.192899 
L 727.320664 -96.235769 
L 724.214778 -93.27864 
L 721.100701 -90.321511 
L 717.997638 -87.364381 
L 714.922561 -84.407252 
L 711.890343 -81.450122 
L 708.913948 -78.492993 
L 706.004642 -75.535864 
L 703.172216 -72.578734 
z
" id="m0fc2d94b45" style="stroke:#4c4c4c;stroke-width:1.5;"/>
    </defs>
    <g clip-path="url(#pbd4a0045a4)">
     <use style="fill:#5f9e6e;stroke:#4c4c4c;stroke-width:1.5;" x="0" xlink:href="#m0fc2d94b45" y="432"/>
    </g>
   </g>
   <g id="line2d_10">
    <path clip-path="url(#pbd4a0045a4)" d="M 153.586817 321.88847 
L 285.613183 321.88847 
" style="fill:none;stroke:#4c4c4c;stroke-dasharray:3.375,3.375;stroke-dashoffset:0;stroke-width:1.5;"/>
   </g>
   <g id="line2d_11">
    <path clip-path="url(#pbd4a0045a4)" d="M 152.838911 299.368792 
L 286.361089 299.368792 
" style="fill:none;stroke:#4c4c4c;stroke-dasharray:6.75,6.75;stroke-dashoffset:0;stroke-width:1.5;"/>
   </g>
   <g id="line2d_12">
    <path clip-path="url(#pbd4a0045a4)" d="M 175.354554 261.835995 
L 263.845446 261.835995 
" style="fill:none;stroke:#4c4c4c;stroke-dasharray:3.375,3.375;stroke-dashoffset:0;stroke-width:1.5;"/>
   </g>
   <g id="line2d_13">
    <path clip-path="url(#pbd4a0045a4)" d="M 396.258137 336.901588 
L 489.341863 336.901588 
" style="fill:none;stroke:#4c4c4c;stroke-dasharray:3.375,3.375;stroke-dashoffset:0;stroke-width:1.5;"/>
   </g>
   <g id="line2d_14">
    <path clip-path="url(#pbd4a0045a4)" d="M 396.680695 299.368792 
L 488.919305 299.368792 
" style="fill:none;stroke:#4c4c4c;stroke-dasharray:6.75,6.75;stroke-dashoffset:0;stroke-width:1.5;"/>
   </g>
   <g id="line2d_15">
    <path clip-path="url(#pbd4a0045a4)" d="M 417.920152 244.946237 
L 467.679848 244.946237 
" style="fill:none;stroke:#4c4c4c;stroke-dasharray:3.375,3.375;stroke-dashoffset:0;stroke-width:1.5;"/>
   </g>
   <g id="line2d_16">
    <path clip-path="url(#pbd4a0045a4)" d="M 579.331539 303.122071 
L 752.668461 303.122071 
" style="fill:none;stroke:#4c4c4c;stroke-dasharray:3.375,3.375;stroke-dashoffset:0;stroke-width:1.5;"/>
   </g>
   <g id="line2d_17">
    <path clip-path="url(#pbd4a0045a4)" d="M 579.071812 284.355673 
L 752.928188 284.355673 
" style="fill:none;stroke:#4c4c4c;stroke-dasharray:6.75,6.75;stroke-dashoffset:0;stroke-width:1.5;"/>
   </g>
   <g id="line2d_18">
    <path clip-path="url(#pbd4a0045a4)" d="M 625.112785 224.303199 
L 706.887215 224.303199 
" style="fill:none;stroke:#4c4c4c;stroke-dasharray:3.375,3.375;stroke-dashoffset:0;stroke-width:1.5;"/>
   </g>
   <g id="patch_3">
    <path d="M 108 378 
L 108 51.84 
" style="fill:none;stroke:#ffffff;stroke-linecap:square;stroke-linejoin:miter;stroke-width:1.25;"/>
   </g>
   <g id="patch_4">
    <path d="M 777.6 378 
L 777.6 51.84 
" style="fill:none;stroke:#ffffff;stroke-linecap:square;stroke-linejoin:miter;stroke-width:1.25;"/>
   </g>
   <g id="patch_5">
    <path d="M 108 378 
L 777.6 378 
" style="fill:none;stroke:#ffffff;stroke-linecap:square;stroke-linejoin:miter;stroke-width:1.25;"/>
   </g>
   <g id="patch_6">
    <path d="M 108 51.84 
L 777.6 51.84 
" style="fill:none;stroke:#ffffff;stroke-linecap:square;stroke-linejoin:miter;stroke-width:1.25;"/>
   </g>
   <g id="text_15">
    <!-- Remote Work vs. Years of Experience in Tech -->
    <g style="fill:#262626;" transform="translate(321.289688 45.84)scale(0.12 -0.12)">
     <defs>
      <path d="M 20.21875 0 
L 1.21875 71.578125 
L 10.9375 71.578125 
L 21.828125 24.65625 
Q 23.578125 17.28125 24.859375 10.015625 
Q 27.59375 21.484375 28.078125 23.25 
L 41.703125 71.578125 
L 53.125 71.578125 
L 63.375 35.359375 
Q 67.234375 21.875 68.953125 10.015625 
Q 70.3125 16.796875 72.515625 25.59375 
L 83.734375 71.578125 
L 93.265625 71.578125 
L 73.640625 0 
L 64.5 0 
L 49.421875 54.546875 
Q 47.515625 61.375 47.171875 62.9375 
Q 46.046875 58.015625 45.0625 54.546875 
L 29.890625 0 
z
" id="ArialMT-87"/>
      <path d="M 6.640625 0 
L 6.640625 71.578125 
L 15.4375 71.578125 
L 15.4375 30.765625 
L 36.234375 51.859375 
L 47.609375 51.859375 
L 27.78125 32.625 
L 49.609375 0 
L 38.765625 0 
L 21.625 26.515625 
L 15.4375 20.5625 
L 15.4375 0 
z
" id="ArialMT-107"/>
      <path d="M 21 0 
L 1.265625 51.859375 
L 10.546875 51.859375 
L 21.6875 20.796875 
Q 23.484375 15.765625 25 10.359375 
Q 26.171875 14.453125 28.265625 20.21875 
L 39.796875 51.859375 
L 48.828125 51.859375 
L 29.203125 0 
z
" id="ArialMT-118"/>
      <path d="M 9.078125 0 
L 9.078125 10.015625 
L 19.09375 10.015625 
L 19.09375 0 
z
" id="ArialMT-46"/>
      <path d="M 7.90625 0 
L 7.90625 71.578125 
L 59.671875 71.578125 
L 59.671875 63.140625 
L 17.390625 63.140625 
L 17.390625 41.21875 
L 56.984375 41.21875 
L 56.984375 32.8125 
L 17.390625 32.8125 
L 17.390625 8.453125 
L 61.328125 8.453125 
L 61.328125 0 
z
" id="ArialMT-69"/>
      <path d="M 25.921875 0 
L 25.921875 63.140625 
L 2.34375 63.140625 
L 2.34375 71.578125 
L 59.078125 71.578125 
L 59.078125 63.140625 
L 35.40625 63.140625 
L 35.40625 0 
z
" id="ArialMT-84"/>
     </defs>
     <use xlink:href="#ArialMT-82"/>
     <use x="72.216797" xlink:href="#ArialMT-101"/>
     <use x="127.832031" xlink:href="#ArialMT-109"/>
     <use x="211.132812" xlink:href="#ArialMT-111"/>
     <use x="266.748047" xlink:href="#ArialMT-116"/>
     <use x="294.53125" xlink:href="#ArialMT-101"/>
     <use x="350.146484" xlink:href="#ArialMT-32"/>
     <use x="377.929688" xlink:href="#ArialMT-87"/>
     <use x="470.564453" xlink:href="#ArialMT-111"/>
     <use x="526.179688" xlink:href="#ArialMT-114"/>
     <use x="559.480469" xlink:href="#ArialMT-107"/>
     <use x="609.480469" xlink:href="#ArialMT-32"/>
     <use x="637.263672" xlink:href="#ArialMT-118"/>
     <use x="687.263672" xlink:href="#ArialMT-115"/>
     <use x="737.263672" xlink:href="#ArialMT-46"/>
     <use x="765.046875" xlink:href="#ArialMT-32"/>
     <use x="791.080078" xlink:href="#ArialMT-89"/>
     <use x="848.654297" xlink:href="#ArialMT-101"/>
     <use x="904.269531" xlink:href="#ArialMT-97"/>
     <use x="959.884766" xlink:href="#ArialMT-114"/>
     <use x="993.185547" xlink:href="#ArialMT-115"/>
     <use x="1043.185547" xlink:href="#ArialMT-32"/>
     <use x="1070.96875" xlink:href="#ArialMT-111"/>
     <use x="1126.583984" xlink:href="#ArialMT-102"/>
     <use x="1154.367188" xlink:href="#ArialMT-32"/>
     <use x="1182.150391" xlink:href="#ArialMT-69"/>
     <use x="1248.849609" xlink:href="#ArialMT-120"/>
     <use x="1298.849609" xlink:href="#ArialMT-112"/>
     <use x="1354.464844" xlink:href="#ArialMT-101"/>
     <use x="1410.080078" xlink:href="#ArialMT-114"/>
     <use x="1443.380859" xlink:href="#ArialMT-105"/>
     <use x="1465.597656" xlink:href="#ArialMT-101"/>
     <use x="1521.212891" xlink:href="#ArialMT-110"/>
     <use x="1576.828125" xlink:href="#ArialMT-99"/>
     <use x="1626.828125" xlink:href="#ArialMT-101"/>
     <use x="1682.443359" xlink:href="#ArialMT-32"/>
     <use x="1710.226562" xlink:href="#ArialMT-105"/>
     <use x="1732.443359" xlink:href="#ArialMT-110"/>
     <use x="1788.058594" xlink:href="#ArialMT-32"/>
     <use x="1814.091797" xlink:href="#ArialMT-84"/>
     <use x="1864.050781" xlink:href="#ArialMT-101"/>
     <use x="1919.666016" xlink:href="#ArialMT-99"/>
     <use x="1969.666016" xlink:href="#ArialMT-104"/>
    </g>
   </g>
  </g>
 </g>
 <defs>
  <clipPath id="pbd4a0045a4">
   <rect height="326.16" width="669.6" x="108" y="51.84"/>
  </clipPath>
 </defs>
</svg>
