<?xml version="1.0" encoding="utf-8" standalone="no"?>
<!DOCTYPE svg PUBLIC "-//W3C//DTD SVG 1.1//EN"
  "http://www.w3.org/Graphics/SVG/1.1/DTD/svg11.dtd">
<!-- Created with matplotlib (https://matplotlib.org/) -->
<svg height="432pt" version="1.1" viewBox="0 0 864 432" width="864pt" xmlns="http://www.w3.org/2000/svg" xmlns:xlink="http://www.w3.org/1999/xlink">
 <metadata>
  <rdf:RDF xmlns:cc="http://creativecommons.org/ns#" xmlns:dc="http://purl.org/dc/elements/1.1/" xmlns:rdf="http://www.w3.org/1999/02/22-rdf-syntax-ns#">
   <cc:Work>
    <dc:type rdf:resource="http://purl.org/dc/dcmitype/StillImage"/>
    <dc:date>2020-11-22T14:12:59.371714</dc:date>
    <dc:format>image/svg+xml</dc:format>
    <dc:creator>
     <cc:Agent>
      <dc:title>Matplotlib v3.3.2, https://matplotlib.org/</dc:title>
     </cc:Agent>
    </dc:creator>
   </cc:Work>
  </rdf:RDF>
 </metadata>
 <defs>
  <style type="text/css">*{stroke-linecap:butt;stroke-linejoin:round;}</style>
 </defs>
 <g id="figure_1">
  <g id="patch_1">
   <path d="M 0 432 
L 864 432 
L 864 0 
L 0 0 
z
" style="fill:#ffffff;"/>
  </g>
  <g id="axes_1">
   <g id="patch_2">
    <path d="M 108 378 
L 777.6 378 
L 777.6 51.84 
L 108 51.84 
z
" style="fill:#eaeaf2;"/>
   </g>
   <g id="matplotlib.axis_1">
    <g id="xtick_1">
     <g id="text_1">
      <!-- DevOps -->
      <g style="fill:#262626;" transform="translate(143.932969 395.514531)scale(0.11 -0.11)">
       <defs>
        <path d="M 7.71875 0 
L 7.71875 71.578125 
L 32.375 71.578125 
Q 40.71875 71.578125 45.125 70.5625 
Q 51.265625 69.140625 55.609375 65.4375 
Q 61.28125 60.640625 64.078125 53.1875 
Q 66.890625 45.75 66.890625 36.1875 
Q 66.890625 28.03125 64.984375 21.734375 
Q 63.09375 15.4375 60.109375 11.296875 
Q 57.125 7.171875 53.578125 4.796875 
Q 50.046875 2.4375 45.046875 1.21875 
Q 40.046875 0 33.546875 0 
z
M 17.1875 8.453125 
L 32.46875 8.453125 
Q 39.546875 8.453125 43.578125 9.765625 
Q 47.609375 11.078125 50 13.484375 
Q 53.375 16.84375 55.25 22.53125 
Q 57.125 28.21875 57.125 36.328125 
Q 57.125 47.5625 53.4375 53.59375 
Q 49.75 59.625 44.484375 61.671875 
Q 40.671875 63.140625 32.234375 63.140625 
L 17.1875 63.140625 
z
" id="ArialMT-68"/>
        <path d="M 42.09375 16.703125 
L 51.171875 15.578125 
Q 49.03125 7.625 43.21875 3.21875 
Q 37.40625 -1.171875 28.375 -1.171875 
Q 17 -1.171875 10.328125 5.828125 
Q 3.65625 12.84375 3.65625 25.484375 
Q 3.65625 38.578125 10.390625 45.796875 
Q 17.140625 53.03125 27.875 53.03125 
Q 38.28125 53.03125 44.875 45.953125 
Q 51.46875 38.875 51.46875 26.03125 
Q 51.46875 25.25 51.421875 23.6875 
L 12.75 23.6875 
Q 13.234375 15.140625 17.578125 10.59375 
Q 21.921875 6.0625 28.421875 6.0625 
Q 33.25 6.0625 36.671875 8.59375 
Q 40.09375 11.140625 42.09375 16.703125 
z
M 13.234375 30.90625 
L 42.1875 30.90625 
Q 41.609375 37.453125 38.875 40.71875 
Q 34.671875 45.796875 27.984375 45.796875 
Q 21.921875 45.796875 17.796875 41.75 
Q 13.671875 37.703125 13.234375 30.90625 
z
" id="ArialMT-101"/>
        <path d="M 21 0 
L 1.265625 51.859375 
L 10.546875 51.859375 
L 21.6875 20.796875 
Q 23.484375 15.765625 25 10.359375 
Q 26.171875 14.453125 28.265625 20.21875 
L 39.796875 51.859375 
L 48.828125 51.859375 
L 29.203125 0 
z
" id="ArialMT-118"/>
        <path d="M 4.828125 34.859375 
Q 4.828125 52.6875 14.390625 62.765625 
Q 23.96875 72.859375 39.109375 72.859375 
Q 49.03125 72.859375 56.984375 68.109375 
Q 64.9375 63.375 69.109375 54.90625 
Q 73.296875 46.4375 73.296875 35.6875 
Q 73.296875 24.8125 68.890625 16.21875 
Q 64.5 7.625 56.4375 3.203125 
Q 48.390625 -1.21875 39.0625 -1.21875 
Q 28.953125 -1.21875 20.984375 3.65625 
Q 13.03125 8.546875 8.921875 16.984375 
Q 4.828125 25.4375 4.828125 34.859375 
z
M 14.59375 34.71875 
Q 14.59375 21.78125 21.546875 14.328125 
Q 28.515625 6.890625 39.015625 6.890625 
Q 49.703125 6.890625 56.609375 14.40625 
Q 63.53125 21.921875 63.53125 35.75 
Q 63.53125 44.484375 60.578125 51 
Q 57.625 57.515625 51.921875 61.109375 
Q 46.234375 64.703125 39.15625 64.703125 
Q 29.109375 64.703125 21.84375 57.78125 
Q 14.59375 50.875 14.59375 34.71875 
z
" id="ArialMT-79"/>
        <path d="M 6.59375 -19.875 
L 6.59375 51.859375 
L 14.59375 51.859375 
L 14.59375 45.125 
Q 17.4375 49.078125 21 51.046875 
Q 24.5625 53.03125 29.640625 53.03125 
Q 36.28125 53.03125 41.359375 49.609375 
Q 46.4375 46.1875 49.015625 39.953125 
Q 51.609375 33.734375 51.609375 26.3125 
Q 51.609375 18.359375 48.75 11.984375 
Q 45.90625 5.609375 40.453125 2.21875 
Q 35.015625 -1.171875 29 -1.171875 
Q 24.609375 -1.171875 21.109375 0.6875 
Q 17.625 2.546875 15.375 5.375 
L 15.375 -19.875 
z
M 14.546875 25.640625 
Q 14.546875 15.625 18.59375 10.84375 
Q 22.65625 6.0625 28.421875 6.0625 
Q 34.28125 6.0625 38.453125 11.015625 
Q 42.625 15.96875 42.625 26.375 
Q 42.625 36.28125 38.546875 41.203125 
Q 34.46875 46.140625 28.8125 46.140625 
Q 23.1875 46.140625 18.859375 40.890625 
Q 14.546875 35.640625 14.546875 25.640625 
z
" id="ArialMT-112"/>
        <path d="M 3.078125 15.484375 
L 11.765625 16.84375 
Q 12.5 11.625 15.84375 8.84375 
Q 19.1875 6.0625 25.203125 6.0625 
Q 31.25 6.0625 34.171875 8.515625 
Q 37.109375 10.984375 37.109375 14.3125 
Q 37.109375 17.28125 34.515625 19 
Q 32.71875 20.171875 25.53125 21.96875 
Q 15.875 24.421875 12.140625 26.203125 
Q 8.40625 27.984375 6.46875 31.125 
Q 4.546875 34.28125 4.546875 38.09375 
Q 4.546875 41.546875 6.125 44.5 
Q 7.71875 47.46875 10.453125 49.421875 
Q 12.5 50.921875 16.03125 51.96875 
Q 19.578125 53.03125 23.640625 53.03125 
Q 29.734375 53.03125 34.34375 51.265625 
Q 38.96875 49.515625 41.15625 46.5 
Q 43.359375 43.5 44.1875 38.484375 
L 35.59375 37.3125 
Q 35.015625 41.3125 32.203125 43.546875 
Q 29.390625 45.796875 24.265625 45.796875 
Q 18.21875 45.796875 15.625 43.796875 
Q 13.03125 41.796875 13.03125 39.109375 
Q 13.03125 37.40625 14.109375 36.03125 
Q 15.1875 34.625 17.484375 33.6875 
Q 18.796875 33.203125 25.25 31.453125 
Q 34.578125 28.953125 38.25 27.359375 
Q 41.9375 25.78125 44.03125 22.75 
Q 46.140625 19.734375 46.140625 15.234375 
Q 46.140625 10.84375 43.578125 6.953125 
Q 41.015625 3.078125 36.171875 0.953125 
Q 31.34375 -1.171875 25.25 -1.171875 
Q 15.140625 -1.171875 9.84375 3.03125 
Q 4.546875 7.234375 3.078125 15.484375 
z
" id="ArialMT-115"/>
       </defs>
       <use xlink:href="#ArialMT-68"/>
       <use x="72.216797" xlink:href="#ArialMT-101"/>
       <use x="127.832031" xlink:href="#ArialMT-118"/>
       <use x="177.832031" xlink:href="#ArialMT-79"/>
       <use x="255.615234" xlink:href="#ArialMT-112"/>
       <use x="311.230469" xlink:href="#ArialMT-115"/>
      </g>
     </g>
    </g>
    <g id="xtick_2">
     <g id="text_2">
      <!-- IT/Support -->
      <g style="fill:#262626;" transform="translate(249.722734 395.507656)scale(0.11 -0.11)">
       <defs>
        <path d="M 9.328125 0 
L 9.328125 71.578125 
L 18.796875 71.578125 
L 18.796875 0 
z
" id="ArialMT-73"/>
        <path d="M 25.921875 0 
L 25.921875 63.140625 
L 2.34375 63.140625 
L 2.34375 71.578125 
L 59.078125 71.578125 
L 59.078125 63.140625 
L 35.40625 63.140625 
L 35.40625 0 
z
" id="ArialMT-84"/>
        <path d="M 0 -1.21875 
L 20.75 72.796875 
L 27.78125 72.796875 
L 7.078125 -1.21875 
z
" id="ArialMT-47"/>
        <path d="M 4.5 23 
L 13.421875 23.78125 
Q 14.0625 18.40625 16.375 14.96875 
Q 18.703125 11.53125 23.578125 9.40625 
Q 28.46875 7.28125 34.578125 7.28125 
Q 39.984375 7.28125 44.140625 8.890625 
Q 48.296875 10.5 50.3125 13.296875 
Q 52.34375 16.109375 52.34375 19.4375 
Q 52.34375 22.796875 50.390625 25.3125 
Q 48.4375 27.828125 43.953125 29.546875 
Q 41.0625 30.671875 31.203125 33.03125 
Q 21.34375 35.40625 17.390625 37.5 
Q 12.25 40.1875 9.734375 44.15625 
Q 7.234375 48.140625 7.234375 53.078125 
Q 7.234375 58.5 10.296875 63.203125 
Q 13.375 67.921875 19.28125 70.359375 
Q 25.203125 72.796875 32.421875 72.796875 
Q 40.375 72.796875 46.453125 70.234375 
Q 52.546875 67.671875 55.8125 62.6875 
Q 59.078125 57.71875 59.328125 51.421875 
L 50.25 50.734375 
Q 49.515625 57.515625 45.28125 60.984375 
Q 41.0625 64.453125 32.8125 64.453125 
Q 24.21875 64.453125 20.28125 61.296875 
Q 16.359375 58.15625 16.359375 53.71875 
Q 16.359375 49.859375 19.140625 47.359375 
Q 21.875 44.875 33.421875 42.265625 
Q 44.96875 39.65625 49.265625 37.703125 
Q 55.515625 34.8125 58.484375 30.390625 
Q 61.46875 25.984375 61.46875 20.21875 
Q 61.46875 14.5 58.203125 9.4375 
Q 54.9375 4.390625 48.796875 1.578125 
Q 42.671875 -1.21875 35.015625 -1.21875 
Q 25.296875 -1.21875 18.71875 1.609375 
Q 12.15625 4.4375 8.421875 10.125 
Q 4.6875 15.828125 4.5 23 
z
" id="ArialMT-83"/>
        <path d="M 40.578125 0 
L 40.578125 7.625 
Q 34.515625 -1.171875 24.125 -1.171875 
Q 19.53125 -1.171875 15.546875 0.578125 
Q 11.578125 2.34375 9.640625 5 
Q 7.71875 7.671875 6.9375 11.53125 
Q 6.390625 14.109375 6.390625 19.734375 
L 6.390625 51.859375 
L 15.1875 51.859375 
L 15.1875 23.09375 
Q 15.1875 16.21875 15.71875 13.8125 
Q 16.546875 10.359375 19.234375 8.375 
Q 21.921875 6.390625 25.875 6.390625 
Q 29.828125 6.390625 33.296875 8.421875 
Q 36.765625 10.453125 38.203125 13.9375 
Q 39.65625 17.4375 39.65625 24.078125 
L 39.65625 51.859375 
L 48.4375 51.859375 
L 48.4375 0 
z
" id="ArialMT-117"/>
        <path d="M 3.328125 25.921875 
Q 3.328125 40.328125 11.328125 47.265625 
Q 18.015625 53.03125 27.640625 53.03125 
Q 38.328125 53.03125 45.109375 46.015625 
Q 51.90625 39.015625 51.90625 26.65625 
Q 51.90625 16.65625 48.90625 10.90625 
Q 45.90625 5.171875 40.15625 2 
Q 34.421875 -1.171875 27.640625 -1.171875 
Q 16.75 -1.171875 10.03125 5.8125 
Q 3.328125 12.796875 3.328125 25.921875 
z
M 12.359375 25.921875 
Q 12.359375 15.96875 16.703125 11.015625 
Q 21.046875 6.0625 27.640625 6.0625 
Q 34.1875 6.0625 38.53125 11.03125 
Q 42.875 16.015625 42.875 26.21875 
Q 42.875 35.84375 38.5 40.796875 
Q 34.125 45.75 27.640625 45.75 
Q 21.046875 45.75 16.703125 40.8125 
Q 12.359375 35.890625 12.359375 25.921875 
z
" id="ArialMT-111"/>
        <path d="M 6.5 0 
L 6.5 51.859375 
L 14.40625 51.859375 
L 14.40625 44 
Q 17.4375 49.515625 20 51.265625 
Q 22.5625 53.03125 25.640625 53.03125 
Q 30.078125 53.03125 34.671875 50.203125 
L 31.640625 42.046875 
Q 28.421875 43.953125 25.203125 43.953125 
Q 22.3125 43.953125 20.015625 42.21875 
Q 17.71875 40.484375 16.75 37.40625 
Q 15.28125 32.71875 15.28125 27.15625 
L 15.28125 0 
z
" id="ArialMT-114"/>
        <path d="M 25.78125 7.859375 
L 27.046875 0.09375 
Q 23.34375 -0.6875 20.40625 -0.6875 
Q 15.625 -0.6875 12.984375 0.828125 
Q 10.359375 2.34375 9.28125 4.8125 
Q 8.203125 7.28125 8.203125 15.1875 
L 8.203125 45.015625 
L 1.765625 45.015625 
L 1.765625 51.859375 
L 8.203125 51.859375 
L 8.203125 64.703125 
L 16.9375 69.96875 
L 16.9375 51.859375 
L 25.78125 51.859375 
L 25.78125 45.015625 
L 16.9375 45.015625 
L 16.9375 14.703125 
Q 16.9375 10.9375 17.40625 9.859375 
Q 17.875 8.796875 18.921875 8.15625 
Q 19.96875 7.515625 21.921875 7.515625 
Q 23.390625 7.515625 25.78125 7.859375 
z
" id="ArialMT-116"/>
       </defs>
       <use xlink:href="#ArialMT-73"/>
       <use x="27.783203" xlink:href="#ArialMT-84"/>
       <use x="88.867188" xlink:href="#ArialMT-47"/>
       <use x="116.650391" xlink:href="#ArialMT-83"/>
       <use x="183.349609" xlink:href="#ArialMT-117"/>
       <use x="238.964844" xlink:href="#ArialMT-112"/>
       <use x="294.580078" xlink:href="#ArialMT-112"/>
       <use x="350.195312" xlink:href="#ArialMT-111"/>
       <use x="405.810547" xlink:href="#ArialMT-114"/>
       <use x="439.111328" xlink:href="#ArialMT-116"/>
      </g>
     </g>
    </g>
    <g id="xtick_3">
     <g id="text_3">
      <!-- Management/HR -->
      <g style="fill:#262626;" transform="translate(345.427734 395.507656)scale(0.11 -0.11)">
       <defs>
        <path d="M 7.421875 0 
L 7.421875 71.578125 
L 21.6875 71.578125 
L 38.625 20.90625 
Q 40.96875 13.8125 42.046875 10.296875 
Q 43.265625 14.203125 45.84375 21.78125 
L 62.984375 71.578125 
L 75.734375 71.578125 
L 75.734375 0 
L 66.609375 0 
L 66.609375 59.90625 
L 45.796875 0 
L 37.25 0 
L 16.546875 60.9375 
L 16.546875 0 
z
" id="ArialMT-77"/>
        <path d="M 40.4375 6.390625 
Q 35.546875 2.25 31.03125 0.53125 
Q 26.515625 -1.171875 21.34375 -1.171875 
Q 12.796875 -1.171875 8.203125 3 
Q 3.609375 7.171875 3.609375 13.671875 
Q 3.609375 17.484375 5.34375 20.625 
Q 7.078125 23.78125 9.890625 25.6875 
Q 12.703125 27.59375 16.21875 28.5625 
Q 18.796875 29.25 24.03125 29.890625 
Q 34.671875 31.15625 39.703125 32.90625 
Q 39.75 34.71875 39.75 35.203125 
Q 39.75 40.578125 37.25 42.78125 
Q 33.890625 45.75 27.25 45.75 
Q 21.046875 45.75 18.09375 43.578125 
Q 15.140625 41.40625 13.71875 35.890625 
L 5.125 37.0625 
Q 6.296875 42.578125 8.984375 45.96875 
Q 11.671875 49.359375 16.75 51.1875 
Q 21.828125 53.03125 28.515625 53.03125 
Q 35.15625 53.03125 39.296875 51.46875 
Q 43.453125 49.90625 45.40625 47.53125 
Q 47.359375 45.171875 48.140625 41.546875 
Q 48.578125 39.3125 48.578125 33.453125 
L 48.578125 21.734375 
Q 48.578125 9.46875 49.140625 6.21875 
Q 49.703125 2.984375 51.375 0 
L 42.1875 0 
Q 40.828125 2.734375 40.4375 6.390625 
z
M 39.703125 26.03125 
Q 34.90625 24.078125 25.34375 22.703125 
Q 19.921875 21.921875 17.671875 20.9375 
Q 15.4375 19.96875 14.203125 18.09375 
Q 12.984375 16.21875 12.984375 13.921875 
Q 12.984375 10.40625 15.640625 8.0625 
Q 18.3125 5.71875 23.4375 5.71875 
Q 28.515625 5.71875 32.46875 7.9375 
Q 36.421875 10.15625 38.28125 14.015625 
Q 39.703125 17 39.703125 22.796875 
z
" id="ArialMT-97"/>
        <path d="M 6.59375 0 
L 6.59375 51.859375 
L 14.5 51.859375 
L 14.5 44.484375 
Q 20.21875 53.03125 31 53.03125 
Q 35.6875 53.03125 39.625 51.34375 
Q 43.5625 49.65625 45.515625 46.921875 
Q 47.46875 44.1875 48.25 40.4375 
Q 48.734375 37.984375 48.734375 31.890625 
L 48.734375 0 
L 39.9375 0 
L 39.9375 31.546875 
Q 39.9375 36.921875 38.90625 39.578125 
Q 37.890625 42.234375 35.28125 43.8125 
Q 32.671875 45.40625 29.15625 45.40625 
Q 23.53125 45.40625 19.453125 41.84375 
Q 15.375 38.28125 15.375 28.328125 
L 15.375 0 
z
" id="ArialMT-110"/>
        <path d="M 4.984375 -4.296875 
L 13.53125 -5.5625 
Q 14.0625 -9.515625 16.5 -11.328125 
Q 19.78125 -13.765625 25.4375 -13.765625 
Q 31.546875 -13.765625 34.859375 -11.328125 
Q 38.1875 -8.890625 39.359375 -4.5 
Q 40.046875 -1.8125 39.984375 6.78125 
Q 34.234375 0 25.640625 0 
Q 14.9375 0 9.078125 7.71875 
Q 3.21875 15.4375 3.21875 26.21875 
Q 3.21875 33.640625 5.90625 39.90625 
Q 8.59375 46.1875 13.6875 49.609375 
Q 18.796875 53.03125 25.6875 53.03125 
Q 34.859375 53.03125 40.828125 45.609375 
L 40.828125 51.859375 
L 48.921875 51.859375 
L 48.921875 7.03125 
Q 48.921875 -5.078125 46.453125 -10.125 
Q 44 -15.1875 38.640625 -18.109375 
Q 33.296875 -21.046875 25.484375 -21.046875 
Q 16.21875 -21.046875 10.5 -16.875 
Q 4.78125 -12.703125 4.984375 -4.296875 
z
M 12.25 26.859375 
Q 12.25 16.65625 16.296875 11.96875 
Q 20.359375 7.28125 26.46875 7.28125 
Q 32.515625 7.28125 36.609375 11.9375 
Q 40.71875 16.609375 40.71875 26.5625 
Q 40.71875 36.078125 36.5 40.90625 
Q 32.28125 45.75 26.3125 45.75 
Q 20.453125 45.75 16.34375 40.984375 
Q 12.25 36.234375 12.25 26.859375 
z
" id="ArialMT-103"/>
        <path d="M 6.59375 0 
L 6.59375 51.859375 
L 14.453125 51.859375 
L 14.453125 44.578125 
Q 16.890625 48.390625 20.9375 50.703125 
Q 25 53.03125 30.171875 53.03125 
Q 35.9375 53.03125 39.625 50.640625 
Q 43.3125 48.25 44.828125 43.953125 
Q 50.984375 53.03125 60.84375 53.03125 
Q 68.5625 53.03125 72.703125 48.75 
Q 76.859375 44.484375 76.859375 35.59375 
L 76.859375 0 
L 68.109375 0 
L 68.109375 32.671875 
Q 68.109375 37.9375 67.25 40.25 
Q 66.40625 42.578125 64.15625 43.984375 
Q 61.921875 45.40625 58.890625 45.40625 
Q 53.421875 45.40625 49.796875 41.765625 
Q 46.1875 38.140625 46.1875 30.125 
L 46.1875 0 
L 37.40625 0 
L 37.40625 33.6875 
Q 37.40625 39.546875 35.25 42.46875 
Q 33.109375 45.40625 28.21875 45.40625 
Q 24.515625 45.40625 21.359375 43.453125 
Q 18.21875 41.5 16.796875 37.734375 
Q 15.375 33.984375 15.375 26.90625 
L 15.375 0 
z
" id="ArialMT-109"/>
        <path d="M 8.015625 0 
L 8.015625 71.578125 
L 17.484375 71.578125 
L 17.484375 42.1875 
L 54.6875 42.1875 
L 54.6875 71.578125 
L 64.15625 71.578125 
L 64.15625 0 
L 54.6875 0 
L 54.6875 33.734375 
L 17.484375 33.734375 
L 17.484375 0 
z
" id="ArialMT-72"/>
        <path d="M 7.859375 0 
L 7.859375 71.578125 
L 39.59375 71.578125 
Q 49.171875 71.578125 54.140625 69.640625 
Q 59.125 67.71875 62.109375 62.828125 
Q 65.09375 57.953125 65.09375 52.046875 
Q 65.09375 44.4375 60.15625 39.203125 
Q 55.21875 33.984375 44.921875 32.5625 
Q 48.6875 30.765625 50.640625 29 
Q 54.78125 25.203125 58.5 19.484375 
L 70.953125 0 
L 59.03125 0 
L 49.5625 14.890625 
Q 45.40625 21.34375 42.71875 24.75 
Q 40.046875 28.171875 37.921875 29.53125 
Q 35.796875 30.90625 33.59375 31.453125 
Q 31.984375 31.78125 28.328125 31.78125 
L 17.328125 31.78125 
L 17.328125 0 
z
M 17.328125 39.984375 
L 37.703125 39.984375 
Q 44.1875 39.984375 47.84375 41.328125 
Q 51.515625 42.671875 53.421875 45.625 
Q 55.328125 48.578125 55.328125 52.046875 
Q 55.328125 57.125 51.640625 60.390625 
Q 47.953125 63.671875 39.984375 63.671875 
L 17.328125 63.671875 
z
" id="ArialMT-82"/>
       </defs>
       <use xlink:href="#ArialMT-77"/>
       <use x="83.300781" xlink:href="#ArialMT-97"/>
       <use x="138.916016" xlink:href="#ArialMT-110"/>
       <use x="194.53125" xlink:href="#ArialMT-97"/>
       <use x="250.146484" xlink:href="#ArialMT-103"/>
       <use x="305.761719" xlink:href="#ArialMT-101"/>
       <use x="361.376953" xlink:href="#ArialMT-109"/>
       <use x="444.677734" xlink:href="#ArialMT-101"/>
       <use x="500.292969" xlink:href="#ArialMT-110"/>
       <use x="555.908203" xlink:href="#ArialMT-116"/>
       <use x="583.691406" xlink:href="#ArialMT-47"/>
       <use x="611.474609" xlink:href="#ArialMT-72"/>
       <use x="683.691406" xlink:href="#ArialMT-82"/>
      </g>
     </g>
    </g>
    <g id="xtick_4">
     <g id="text_4">
      <!-- Other -->
      <g style="fill:#262626;" transform="translate(484.845703 395.373594)scale(0.11 -0.11)">
       <defs>
        <path d="M 6.59375 0 
L 6.59375 71.578125 
L 15.375 71.578125 
L 15.375 45.90625 
Q 21.53125 53.03125 30.90625 53.03125 
Q 36.671875 53.03125 40.921875 50.75 
Q 45.171875 48.484375 47 44.484375 
Q 48.828125 40.484375 48.828125 32.859375 
L 48.828125 0 
L 40.046875 0 
L 40.046875 32.859375 
Q 40.046875 39.453125 37.1875 42.453125 
Q 34.328125 45.453125 29.109375 45.453125 
Q 25.203125 45.453125 21.75 43.421875 
Q 18.3125 41.40625 16.84375 37.9375 
Q 15.375 34.46875 15.375 28.375 
L 15.375 0 
z
" id="ArialMT-104"/>
       </defs>
       <use xlink:href="#ArialMT-79"/>
       <use x="77.783203" xlink:href="#ArialMT-116"/>
       <use x="105.566406" xlink:href="#ArialMT-104"/>
       <use x="161.181641" xlink:href="#ArialMT-101"/>
       <use x="216.796875" xlink:href="#ArialMT-114"/>
      </g>
     </g>
    </g>
    <g id="xtick_5">
     <g id="text_5">
      <!-- Software Development -->
      <g style="fill:#262626;" transform="translate(554.564063 395.507656)scale(0.11 -0.11)">
       <defs>
        <path d="M 8.6875 0 
L 8.6875 45.015625 
L 0.921875 45.015625 
L 0.921875 51.859375 
L 8.6875 51.859375 
L 8.6875 57.375 
Q 8.6875 62.59375 9.625 65.140625 
Q 10.890625 68.5625 14.078125 70.671875 
Q 17.28125 72.796875 23.046875 72.796875 
Q 26.765625 72.796875 31.25 71.921875 
L 29.9375 64.265625 
Q 27.203125 64.75 24.75 64.75 
Q 20.75 64.75 19.09375 63.03125 
Q 17.4375 61.328125 17.4375 56.640625 
L 17.4375 51.859375 
L 27.546875 51.859375 
L 27.546875 45.015625 
L 17.4375 45.015625 
L 17.4375 0 
z
" id="ArialMT-102"/>
        <path d="M 16.15625 0 
L 0.296875 51.859375 
L 9.375 51.859375 
L 17.625 21.921875 
L 20.703125 10.796875 
Q 20.90625 11.625 23.390625 21.484375 
L 31.640625 51.859375 
L 40.671875 51.859375 
L 48.4375 21.78125 
L 51.03125 11.859375 
L 54 21.875 
L 62.890625 51.859375 
L 71.4375 51.859375 
L 55.21875 0 
L 46.09375 0 
L 37.84375 31.0625 
L 35.84375 39.890625 
L 25.34375 0 
z
" id="ArialMT-119"/>
        <path id="ArialMT-32"/>
        <path d="M 6.390625 0 
L 6.390625 71.578125 
L 15.1875 71.578125 
L 15.1875 0 
z
" id="ArialMT-108"/>
       </defs>
       <use xlink:href="#ArialMT-83"/>
       <use x="66.699219" xlink:href="#ArialMT-111"/>
       <use x="122.314453" xlink:href="#ArialMT-102"/>
       <use x="150.097656" xlink:href="#ArialMT-116"/>
       <use x="177.880859" xlink:href="#ArialMT-119"/>
       <use x="250.097656" xlink:href="#ArialMT-97"/>
       <use x="305.712891" xlink:href="#ArialMT-114"/>
       <use x="339.013672" xlink:href="#ArialMT-101"/>
       <use x="394.628906" xlink:href="#ArialMT-32"/>
       <use x="422.412109" xlink:href="#ArialMT-68"/>
       <use x="494.628906" xlink:href="#ArialMT-101"/>
       <use x="550.244141" xlink:href="#ArialMT-118"/>
       <use x="600.244141" xlink:href="#ArialMT-101"/>
       <use x="655.859375" xlink:href="#ArialMT-108"/>
       <use x="678.076172" xlink:href="#ArialMT-111"/>
       <use x="733.691406" xlink:href="#ArialMT-112"/>
       <use x="789.306641" xlink:href="#ArialMT-109"/>
       <use x="872.607422" xlink:href="#ArialMT-101"/>
       <use x="928.222656" xlink:href="#ArialMT-110"/>
       <use x="983.837891" xlink:href="#ArialMT-116"/>
      </g>
     </g>
    </g>
    <g id="xtick_6">
     <g id="text_6">
      <!-- Testing/QA -->
      <g style="fill:#262626;" transform="translate(694.902422 395.514531)scale(0.11 -0.11)">
       <defs>
        <path d="M 6.640625 61.46875 
L 6.640625 71.578125 
L 15.4375 71.578125 
L 15.4375 61.46875 
z
M 6.640625 0 
L 6.640625 51.859375 
L 15.4375 51.859375 
L 15.4375 0 
z
" id="ArialMT-105"/>
        <path d="M 61.96875 7.671875 
Q 68.5625 3.125 74.125 1.03125 
L 71.34375 -5.5625 
Q 63.625 -2.78125 55.953125 3.21875 
Q 48 -1.21875 38.375 -1.21875 
Q 28.65625 -1.21875 20.75 3.46875 
Q 12.84375 8.15625 8.5625 16.640625 
Q 4.296875 25.140625 4.296875 35.796875 
Q 4.296875 46.390625 8.59375 55.078125 
Q 12.890625 63.765625 20.828125 68.3125 
Q 28.765625 72.859375 38.578125 72.859375 
Q 48.484375 72.859375 56.4375 68.140625 
Q 64.40625 63.421875 68.578125 54.953125 
Q 72.75 46.484375 72.75 35.84375 
Q 72.75 27 70.0625 19.9375 
Q 67.390625 12.890625 61.96875 7.671875 
z
M 41.109375 19.78125 
Q 49.3125 17.484375 54.640625 12.9375 
Q 62.984375 20.5625 62.984375 35.84375 
Q 62.984375 44.53125 60.03125 51.015625 
Q 57.078125 57.515625 51.390625 61.109375 
Q 45.703125 64.703125 38.625 64.703125 
Q 28.03125 64.703125 21.046875 57.453125 
Q 14.0625 50.203125 14.0625 35.796875 
Q 14.0625 21.828125 20.96875 14.359375 
Q 27.875 6.890625 38.625 6.890625 
Q 43.703125 6.890625 48.1875 8.796875 
Q 43.75 11.671875 38.8125 12.890625 
z
" id="ArialMT-81"/>
        <path d="M -0.140625 0 
L 27.34375 71.578125 
L 37.546875 71.578125 
L 66.84375 0 
L 56.0625 0 
L 47.703125 21.6875 
L 17.78125 21.6875 
L 9.90625 0 
z
M 20.515625 29.390625 
L 44.78125 29.390625 
L 37.3125 49.21875 
Q 33.890625 58.25 32.234375 64.0625 
Q 30.859375 57.171875 28.375 50.390625 
z
" id="ArialMT-65"/>
       </defs>
       <use xlink:href="#ArialMT-84"/>
       <use x="49.958984" xlink:href="#ArialMT-101"/>
       <use x="105.574219" xlink:href="#ArialMT-115"/>
       <use x="155.574219" xlink:href="#ArialMT-116"/>
       <use x="183.357422" xlink:href="#ArialMT-105"/>
       <use x="205.574219" xlink:href="#ArialMT-110"/>
       <use x="261.189453" xlink:href="#ArialMT-103"/>
       <use x="316.804688" xlink:href="#ArialMT-47"/>
       <use x="344.587891" xlink:href="#ArialMT-81"/>
       <use x="422.371094" xlink:href="#ArialMT-65"/>
      </g>
     </g>
    </g>
    <g id="text_7">
     <!-- Type of Work -->
     <g style="fill:#262626;" transform="translate(407.562187 410.565313)scale(0.12 -0.12)">
      <defs>
       <path d="M 6.203125 -19.96875 
L 5.21875 -11.71875 
Q 8.109375 -12.5 10.25 -12.5 
Q 13.1875 -12.5 14.9375 -11.515625 
Q 16.703125 -10.546875 17.828125 -8.796875 
Q 18.65625 -7.46875 20.515625 -2.25 
Q 20.75 -1.515625 21.296875 -0.09375 
L 1.609375 51.859375 
L 11.078125 51.859375 
L 21.875 21.828125 
Q 23.96875 16.109375 25.640625 9.8125 
Q 27.15625 15.875 29.25 21.625 
L 40.328125 51.859375 
L 49.125 51.859375 
L 29.390625 -0.875 
Q 26.21875 -9.421875 24.46875 -12.640625 
Q 22.125 -17 19.09375 -19.015625 
Q 16.0625 -21.046875 11.859375 -21.046875 
Q 9.328125 -21.046875 6.203125 -19.96875 
z
" id="ArialMT-121"/>
       <path d="M 20.21875 0 
L 1.21875 71.578125 
L 10.9375 71.578125 
L 21.828125 24.65625 
Q 23.578125 17.28125 24.859375 10.015625 
Q 27.59375 21.484375 28.078125 23.25 
L 41.703125 71.578125 
L 53.125 71.578125 
L 63.375 35.359375 
Q 67.234375 21.875 68.953125 10.015625 
Q 70.3125 16.796875 72.515625 25.59375 
L 83.734375 71.578125 
L 93.265625 71.578125 
L 73.640625 0 
L 64.5 0 
L 49.421875 54.546875 
Q 47.515625 61.375 47.171875 62.9375 
Q 46.046875 58.015625 45.0625 54.546875 
L 29.890625 0 
z
" id="ArialMT-87"/>
       <path d="M 6.640625 0 
L 6.640625 71.578125 
L 15.4375 71.578125 
L 15.4375 30.765625 
L 36.234375 51.859375 
L 47.609375 51.859375 
L 27.78125 32.625 
L 49.609375 0 
L 38.765625 0 
L 21.625 26.515625 
L 15.4375 20.5625 
L 15.4375 0 
z
" id="ArialMT-107"/>
      </defs>
      <use xlink:href="#ArialMT-84"/>
      <use x="55.583984" xlink:href="#ArialMT-121"/>
      <use x="105.583984" xlink:href="#ArialMT-112"/>
      <use x="161.199219" xlink:href="#ArialMT-101"/>
      <use x="216.814453" xlink:href="#ArialMT-32"/>
      <use x="244.597656" xlink:href="#ArialMT-111"/>
      <use x="300.212891" xlink:href="#ArialMT-102"/>
      <use x="327.996094" xlink:href="#ArialMT-32"/>
      <use x="355.779297" xlink:href="#ArialMT-87"/>
      <use x="448.414062" xlink:href="#ArialMT-111"/>
      <use x="504.029297" xlink:href="#ArialMT-114"/>
      <use x="537.330078" xlink:href="#ArialMT-107"/>
     </g>
    </g>
   </g>
   <g id="matplotlib.axis_2">
    <g id="ytick_1">
     <g id="line2d_1">
      <path clip-path="url(#peeb1839750)" d="M 108 363.174545 
L 777.6 363.174545 
" style="fill:none;stroke:#ffffff;stroke-linecap:round;"/>
     </g>
     <g id="text_8">
      <!-- 50 -->
      <g style="fill:#262626;" transform="translate(86.265938 367.111342)scale(0.11 -0.11)">
       <defs>
        <path d="M 4.15625 18.75 
L 13.375 19.53125 
Q 14.40625 12.796875 18.140625 9.390625 
Q 21.875 6 27.15625 6 
Q 33.5 6 37.890625 10.78125 
Q 42.28125 15.578125 42.28125 23.484375 
Q 42.28125 31 38.0625 35.34375 
Q 33.84375 39.703125 27 39.703125 
Q 22.75 39.703125 19.328125 37.765625 
Q 15.921875 35.84375 13.96875 32.765625 
L 5.71875 33.84375 
L 12.640625 70.609375 
L 48.25 70.609375 
L 48.25 62.203125 
L 19.671875 62.203125 
L 15.828125 42.96875 
Q 22.265625 47.46875 29.34375 47.46875 
Q 38.71875 47.46875 45.15625 40.96875 
Q 51.609375 34.46875 51.609375 24.265625 
Q 51.609375 14.546875 45.953125 7.46875 
Q 39.0625 -1.21875 27.15625 -1.21875 
Q 17.390625 -1.21875 11.203125 4.25 
Q 5.03125 9.71875 4.15625 18.75 
z
" id="ArialMT-53"/>
        <path d="M 4.15625 35.296875 
Q 4.15625 48 6.765625 55.734375 
Q 9.375 63.484375 14.515625 67.671875 
Q 19.671875 71.875 27.484375 71.875 
Q 33.25 71.875 37.59375 69.546875 
Q 41.9375 67.234375 44.765625 62.859375 
Q 47.609375 58.5 49.21875 52.21875 
Q 50.828125 45.953125 50.828125 35.296875 
Q 50.828125 22.703125 48.234375 14.96875 
Q 45.65625 7.234375 40.5 3 
Q 35.359375 -1.21875 27.484375 -1.21875 
Q 17.140625 -1.21875 11.234375 6.203125 
Q 4.15625 15.140625 4.15625 35.296875 
z
M 13.1875 35.296875 
Q 13.1875 17.671875 17.3125 11.828125 
Q 21.4375 6 27.484375 6 
Q 33.546875 6 37.671875 11.859375 
Q 41.796875 17.71875 41.796875 35.296875 
Q 41.796875 52.984375 37.671875 58.78125 
Q 33.546875 64.59375 27.390625 64.59375 
Q 21.34375 64.59375 17.71875 59.46875 
Q 13.1875 52.9375 13.1875 35.296875 
z
" id="ArialMT-48"/>
       </defs>
       <use xlink:href="#ArialMT-53"/>
       <use x="55.615234" xlink:href="#ArialMT-48"/>
      </g>
     </g>
    </g>
    <g id="ytick_2">
     <g id="line2d_2">
      <path clip-path="url(#peeb1839750)" d="M 108 298.716047 
L 777.6 298.716047 
" style="fill:none;stroke:#ffffff;stroke-linecap:round;"/>
     </g>
     <g id="text_9">
      <!-- 100 -->
      <g style="fill:#262626;" transform="translate(80.148906 302.652844)scale(0.11 -0.11)">
       <defs>
        <path d="M 37.25 0 
L 28.46875 0 
L 28.46875 56 
Q 25.296875 52.984375 20.140625 49.953125 
Q 14.984375 46.921875 10.890625 45.40625 
L 10.890625 53.90625 
Q 18.265625 57.375 23.78125 62.296875 
Q 29.296875 67.234375 31.59375 71.875 
L 37.25 71.875 
z
" id="ArialMT-49"/>
       </defs>
       <use xlink:href="#ArialMT-49"/>
       <use x="55.615234" xlink:href="#ArialMT-48"/>
       <use x="111.230469" xlink:href="#ArialMT-48"/>
      </g>
     </g>
    </g>
    <g id="ytick_3">
     <g id="line2d_3">
      <path clip-path="url(#peeb1839750)" d="M 108 234.257549 
L 777.6 234.257549 
" style="fill:none;stroke:#ffffff;stroke-linecap:round;"/>
     </g>
     <g id="text_10">
      <!-- 150 -->
      <g style="fill:#262626;" transform="translate(80.148906 238.194346)scale(0.11 -0.11)">
       <use xlink:href="#ArialMT-49"/>
       <use x="55.615234" xlink:href="#ArialMT-53"/>
       <use x="111.230469" xlink:href="#ArialMT-48"/>
      </g>
     </g>
    </g>
    <g id="ytick_4">
     <g id="line2d_4">
      <path clip-path="url(#peeb1839750)" d="M 108 169.799051 
L 777.6 169.799051 
" style="fill:none;stroke:#ffffff;stroke-linecap:round;"/>
     </g>
     <g id="text_11">
      <!-- 200 -->
      <g style="fill:#262626;" transform="translate(80.148906 173.735848)scale(0.11 -0.11)">
       <defs>
        <path d="M 50.34375 8.453125 
L 50.34375 0 
L 3.03125 0 
Q 2.9375 3.171875 4.046875 6.109375 
Q 5.859375 10.9375 9.828125 15.625 
Q 13.8125 20.3125 21.34375 26.46875 
Q 33.015625 36.03125 37.109375 41.625 
Q 41.21875 47.21875 41.21875 52.203125 
Q 41.21875 57.421875 37.46875 61 
Q 33.734375 64.59375 27.734375 64.59375 
Q 21.390625 64.59375 17.578125 60.78125 
Q 13.765625 56.984375 13.71875 50.25 
L 4.6875 51.171875 
Q 5.609375 61.28125 11.65625 66.578125 
Q 17.71875 71.875 27.9375 71.875 
Q 38.234375 71.875 44.234375 66.15625 
Q 50.25 60.453125 50.25 52 
Q 50.25 47.703125 48.484375 43.546875 
Q 46.734375 39.40625 42.65625 34.8125 
Q 38.578125 30.21875 29.109375 22.21875 
Q 21.1875 15.578125 18.9375 13.203125 
Q 16.703125 10.84375 15.234375 8.453125 
z
" id="ArialMT-50"/>
       </defs>
       <use xlink:href="#ArialMT-50"/>
       <use x="55.615234" xlink:href="#ArialMT-48"/>
       <use x="111.230469" xlink:href="#ArialMT-48"/>
      </g>
     </g>
    </g>
    <g id="ytick_5">
     <g id="line2d_5">
      <path clip-path="url(#peeb1839750)" d="M 108 105.340553 
L 777.6 105.340553 
" style="fill:none;stroke:#ffffff;stroke-linecap:round;"/>
     </g>
     <g id="text_12">
      <!-- 250 -->
      <g style="fill:#262626;" transform="translate(80.148906 109.27735)scale(0.11 -0.11)">
       <use xlink:href="#ArialMT-50"/>
       <use x="55.615234" xlink:href="#ArialMT-53"/>
       <use x="111.230469" xlink:href="#ArialMT-48"/>
      </g>
     </g>
    </g>
    <g id="text_13">
     <!-- Annual income (thousands) -->
     <g style="fill:#262626;" transform="translate(73.623281 287.957812)rotate(-90)scale(0.12 -0.12)">
      <defs>
       <path d="M 40.4375 19 
L 49.078125 17.875 
Q 47.65625 8.9375 41.8125 3.875 
Q 35.984375 -1.171875 27.484375 -1.171875 
Q 16.84375 -1.171875 10.375 5.78125 
Q 3.90625 12.75 3.90625 25.734375 
Q 3.90625 34.125 6.6875 40.421875 
Q 9.46875 46.734375 15.15625 49.875 
Q 20.84375 53.03125 27.546875 53.03125 
Q 35.984375 53.03125 41.359375 48.75 
Q 46.734375 44.484375 48.25 36.625 
L 39.703125 35.296875 
Q 38.484375 40.53125 35.375 43.15625 
Q 32.28125 45.796875 27.875 45.796875 
Q 21.234375 45.796875 17.078125 41.03125 
Q 12.9375 36.28125 12.9375 25.984375 
Q 12.9375 15.53125 16.9375 10.796875 
Q 20.953125 6.0625 27.390625 6.0625 
Q 32.5625 6.0625 36.03125 9.234375 
Q 39.5 12.40625 40.4375 19 
z
" id="ArialMT-99"/>
       <path d="M 23.390625 -21.046875 
Q 16.109375 -11.859375 11.078125 0.4375 
Q 6.0625 12.75 6.0625 25.921875 
Q 6.0625 37.546875 9.8125 48.1875 
Q 14.203125 60.546875 23.390625 72.796875 
L 29.6875 72.796875 
Q 23.78125 62.640625 21.875 58.296875 
Q 18.890625 51.5625 17.1875 44.234375 
Q 15.09375 35.109375 15.09375 25.875 
Q 15.09375 2.390625 29.6875 -21.046875 
z
" id="ArialMT-40"/>
       <path d="M 40.234375 0 
L 40.234375 6.546875 
Q 35.296875 -1.171875 25.734375 -1.171875 
Q 19.53125 -1.171875 14.328125 2.25 
Q 9.125 5.671875 6.265625 11.796875 
Q 3.421875 17.921875 3.421875 25.875 
Q 3.421875 33.640625 6 39.96875 
Q 8.59375 46.296875 13.765625 49.65625 
Q 18.953125 53.03125 25.34375 53.03125 
Q 30.03125 53.03125 33.6875 51.046875 
Q 37.359375 49.078125 39.65625 45.90625 
L 39.65625 71.578125 
L 48.390625 71.578125 
L 48.390625 0 
z
M 12.453125 25.875 
Q 12.453125 15.921875 16.640625 10.984375 
Q 20.84375 6.0625 26.5625 6.0625 
Q 32.328125 6.0625 36.34375 10.765625 
Q 40.375 15.484375 40.375 25.140625 
Q 40.375 35.796875 36.265625 40.765625 
Q 32.171875 45.75 26.171875 45.75 
Q 20.3125 45.75 16.375 40.96875 
Q 12.453125 36.1875 12.453125 25.875 
z
" id="ArialMT-100"/>
       <path d="M 12.359375 -21.046875 
L 6.0625 -21.046875 
Q 20.65625 2.390625 20.65625 25.875 
Q 20.65625 35.0625 18.5625 44.09375 
Q 16.890625 51.421875 13.921875 58.15625 
Q 12.015625 62.546875 6.0625 72.796875 
L 12.359375 72.796875 
Q 21.53125 60.546875 25.921875 48.1875 
Q 29.6875 37.546875 29.6875 25.921875 
Q 29.6875 12.75 24.625 0.4375 
Q 19.578125 -11.859375 12.359375 -21.046875 
z
" id="ArialMT-41"/>
      </defs>
      <use xlink:href="#ArialMT-65"/>
      <use x="66.699219" xlink:href="#ArialMT-110"/>
      <use x="122.314453" xlink:href="#ArialMT-110"/>
      <use x="177.929688" xlink:href="#ArialMT-117"/>
      <use x="233.544922" xlink:href="#ArialMT-97"/>
      <use x="289.160156" xlink:href="#ArialMT-108"/>
      <use x="311.376953" xlink:href="#ArialMT-32"/>
      <use x="339.160156" xlink:href="#ArialMT-105"/>
      <use x="361.376953" xlink:href="#ArialMT-110"/>
      <use x="416.992188" xlink:href="#ArialMT-99"/>
      <use x="466.992188" xlink:href="#ArialMT-111"/>
      <use x="522.607422" xlink:href="#ArialMT-109"/>
      <use x="605.908203" xlink:href="#ArialMT-101"/>
      <use x="661.523438" xlink:href="#ArialMT-32"/>
      <use x="689.306641" xlink:href="#ArialMT-40"/>
      <use x="722.607422" xlink:href="#ArialMT-116"/>
      <use x="750.390625" xlink:href="#ArialMT-104"/>
      <use x="806.005859" xlink:href="#ArialMT-111"/>
      <use x="861.621094" xlink:href="#ArialMT-117"/>
      <use x="917.236328" xlink:href="#ArialMT-115"/>
      <use x="967.236328" xlink:href="#ArialMT-97"/>
      <use x="1022.851562" xlink:href="#ArialMT-110"/>
      <use x="1078.466797" xlink:href="#ArialMT-100"/>
      <use x="1134.082031" xlink:href="#ArialMT-115"/>
      <use x="1184.082031" xlink:href="#ArialMT-41"/>
     </g>
    </g>
   </g>
   <g id="PolyCollection_1">
    <defs>
     <path d="M 167.283344 -85.584664 
L 160.316656 -85.584664 
L 160.158304 -87.108229 
L 159.999033 -88.631793 
L 159.839092 -90.155358 
L 159.678718 -91.678922 
L 159.518147 -93.202487 
L 159.357609 -94.726051 
L 159.197331 -96.249616 
L 159.037542 -97.77318 
L 158.878473 -99.296745 
L 158.720358 -100.820309 
L 158.563439 -102.343874 
L 158.407967 -103.867438 
L 158.254201 -105.391003 
L 158.102413 -106.914567 
L 157.952884 -108.438132 
L 157.805909 -109.961696 
L 157.661792 -111.485261 
L 157.520848 -113.008825 
L 157.383399 -114.53239 
L 157.249773 -116.055954 
L 157.120302 -117.579519 
L 156.995321 -119.103083 
L 156.875162 -120.626648 
L 156.760155 -122.150212 
L 156.650621 -123.673777 
L 156.546878 -125.197341 
L 156.44923 -126.720905 
L 156.357974 -128.24447 
L 156.273394 -129.768034 
L 156.195764 -131.291599 
L 156.125346 -132.815163 
L 156.062393 -134.338728 
L 156.007149 -135.862292 
L 155.95985 -137.385857 
L 155.920727 -138.909421 
L 155.890003 -140.432986 
L 155.8679 -141.95655 
L 155.854632 -143.480115 
L 155.850411 -145.003679 
L 155.85544 -146.527244 
L 155.869913 -148.050808 
L 155.894013 -149.574373 
L 155.927905 -151.097937 
L 155.971728 -152.621502 
L 156.025595 -154.145066 
L 156.089576 -155.668631 
L 156.163697 -157.192195 
L 156.247929 -158.71576 
L 156.342175 -160.239324 
L 156.446266 -161.762889 
L 156.55995 -163.286453 
L 156.682885 -164.810018 
L 156.81463 -166.333582 
L 156.954644 -167.857147 
L 157.102281 -169.380711 
L 157.256787 -170.904276 
L 157.417306 -172.42784 
L 157.58288 -173.951405 
L 157.752455 -175.474969 
L 157.924896 -176.998534 
L 158.09899 -178.522098 
L 158.273468 -180.045663 
L 158.447016 -181.569227 
L 158.618297 -183.092792 
L 158.785968 -184.616356 
L 158.948701 -186.139921 
L 159.105208 -187.663485 
L 159.25426 -189.18705 
L 159.394709 -190.710614 
L 159.525509 -192.234179 
L 159.645738 -193.757743 
L 159.754613 -195.281308 
L 159.851508 -196.804872 
L 159.935966 -198.328437 
L 160.007712 -199.852001 
L 160.066658 -201.375566 
L 160.112906 -202.89913 
L 160.146754 -204.422695 
L 160.168686 -205.946259 
L 160.17937 -207.469824 
L 160.179648 -208.993388 
L 160.170519 -210.516953 
L 160.153128 -212.040517 
L 160.128741 -213.564082 
L 160.098728 -215.087646 
L 160.064538 -216.611211 
L 160.027675 -218.134775 
L 159.989671 -219.65834 
L 159.95206 -221.181904 
L 159.916353 -222.705469 
L 159.88401 -224.229033 
L 159.85642 -225.752598 
L 159.834875 -227.276162 
L 159.820548 -228.799727 
L 159.814481 -230.323291 
L 159.817564 -231.846856 
L 159.830525 -233.37042 
L 159.85392 -234.893985 
L 159.888133 -236.417549 
L 167.711867 -236.417549 
L 167.711867 -236.417549 
L 167.74608 -234.893985 
L 167.769475 -233.37042 
L 167.782436 -231.846856 
L 167.785519 -230.323291 
L 167.779452 -228.799727 
L 167.765125 -227.276162 
L 167.74358 -225.752598 
L 167.71599 -224.229033 
L 167.683647 -222.705469 
L 167.64794 -221.181904 
L 167.610329 -219.65834 
L 167.572325 -218.134775 
L 167.535462 -216.611211 
L 167.501272 -215.087646 
L 167.471259 -213.564082 
L 167.446872 -212.040517 
L 167.429481 -210.516953 
L 167.420352 -208.993388 
L 167.42063 -207.469824 
L 167.431314 -205.946259 
L 167.453246 -204.422695 
L 167.487094 -202.89913 
L 167.533342 -201.375566 
L 167.592288 -199.852001 
L 167.664034 -198.328437 
L 167.748492 -196.804872 
L 167.845387 -195.281308 
L 167.954262 -193.757743 
L 168.074491 -192.234179 
L 168.205291 -190.710614 
L 168.34574 -189.18705 
L 168.494792 -187.663485 
L 168.651299 -186.139921 
L 168.814032 -184.616356 
L 168.981703 -183.092792 
L 169.152984 -181.569227 
L 169.326532 -180.045663 
L 169.50101 -178.522098 
L 169.675104 -176.998534 
L 169.847545 -175.474969 
L 170.01712 -173.951405 
L 170.182694 -172.42784 
L 170.343213 -170.904276 
L 170.497719 -169.380711 
L 170.645356 -167.857147 
L 170.78537 -166.333582 
L 170.917115 -164.810018 
L 171.04005 -163.286453 
L 171.153734 -161.762889 
L 171.257825 -160.239324 
L 171.352071 -158.71576 
L 171.436303 -157.192195 
L 171.510424 -155.668631 
L 171.574405 -154.145066 
L 171.628272 -152.621502 
L 171.672095 -151.097937 
L 171.705987 -149.574373 
L 171.730087 -148.050808 
L 171.74456 -146.527244 
L 171.749589 -145.003679 
L 171.745368 -143.480115 
L 171.7321 -141.95655 
L 171.709997 -140.432986 
L 171.679273 -138.909421 
L 171.64015 -137.385857 
L 171.592851 -135.862292 
L 171.537607 -134.338728 
L 171.474654 -132.815163 
L 171.404236 -131.291599 
L 171.326606 -129.768034 
L 171.242026 -128.24447 
L 171.15077 -126.720905 
L 171.053122 -125.197341 
L 170.949379 -123.673777 
L 170.839845 -122.150212 
L 170.724838 -120.626648 
L 170.604679 -119.103083 
L 170.479698 -117.579519 
L 170.350227 -116.055954 
L 170.216601 -114.53239 
L 170.079152 -113.008825 
L 169.938208 -111.485261 
L 169.794091 -109.961696 
L 169.647116 -108.438132 
L 169.497587 -106.914567 
L 169.345799 -105.391003 
L 169.192033 -103.867438 
L 169.036561 -102.343874 
L 168.879642 -100.820309 
L 168.721527 -99.296745 
L 168.562458 -97.77318 
L 168.402669 -96.249616 
L 168.242391 -94.726051 
L 168.081853 -93.202487 
L 167.921282 -91.678922 
L 167.760908 -90.155358 
L 167.600967 -88.631793 
L 167.441696 -87.108229 
L 167.283344 -85.584664 
z
" id="ma3dcd4032a" style="stroke:#494949;stroke-width:1.5;"/>
    </defs>
    <g clip-path="url(#peeb1839750)">
     <use style="fill:#5875a4;stroke:#494949;stroke-width:1.5;" x="0" xlink:href="#ma3dcd4032a" y="432"/>
    </g>
   </g>
   <g id="PolyCollection_2">
    <defs>
     <path d="M 276.621159 -120.392253 
L 274.178841 -120.392253 
L 274.177491 -120.84802 
L 274.176986 -121.303787 
L 274.177315 -121.759554 
L 274.178462 -122.215322 
L 274.180413 -122.671089 
L 274.183147 -123.126856 
L 274.186644 -123.582623 
L 274.190878 -124.03839 
L 274.195825 -124.494157 
L 274.201454 -124.949925 
L 274.207734 -125.405692 
L 274.214634 -125.861459 
L 274.222116 -126.317226 
L 274.230146 -126.772993 
L 274.238683 -127.22876 
L 274.247687 -127.684527 
L 274.257116 -128.140295 
L 274.266928 -128.596062 
L 274.277078 -129.051829 
L 274.287519 -129.507596 
L 274.298207 -129.963363 
L 274.309094 -130.41913 
L 274.320133 -130.874898 
L 274.331275 -131.330665 
L 274.342474 -131.786432 
L 274.353681 -132.242199 
L 274.364848 -132.697966 
L 274.375928 -133.153733 
L 274.386875 -133.609501 
L 274.397642 -134.065268 
L 274.408184 -134.521035 
L 274.418458 -134.976802 
L 274.42842 -135.432569 
L 274.438029 -135.888336 
L 274.447245 -136.344103 
L 274.456031 -136.799871 
L 274.464349 -137.255638 
L 274.472166 -137.711405 
L 274.479449 -138.167172 
L 274.486169 -138.622939 
L 274.492298 -139.078706 
L 274.497811 -139.534474 
L 274.502685 -139.990241 
L 274.5069 -140.446008 
L 274.51044 -140.901775 
L 274.513289 -141.357542 
L 274.515436 -141.813309 
L 274.516872 -142.269077 
L 274.517591 -142.724844 
L 274.517591 -143.180611 
L 274.516872 -143.636378 
L 274.515436 -144.092145 
L 274.513289 -144.547912 
L 274.51044 -145.003679 
L 274.5069 -145.459447 
L 274.502685 -145.915214 
L 274.497811 -146.370981 
L 274.492298 -146.826748 
L 274.486169 -147.282515 
L 274.479449 -147.738282 
L 274.472166 -148.19405 
L 274.464349 -148.649817 
L 274.456031 -149.105584 
L 274.447245 -149.561351 
L 274.438029 -150.017118 
L 274.42842 -150.472885 
L 274.418458 -150.928653 
L 274.408184 -151.38442 
L 274.397642 -151.840187 
L 274.386875 -152.295954 
L 274.375928 -152.751721 
L 274.364848 -153.207488 
L 274.353681 -153.663255 
L 274.342474 -154.119023 
L 274.331275 -154.57479 
L 274.320133 -155.030557 
L 274.309094 -155.486324 
L 274.298207 -155.942091 
L 274.287519 -156.397858 
L 274.277078 -156.853626 
L 274.266928 -157.309393 
L 274.257116 -157.76516 
L 274.247687 -158.220927 
L 274.238683 -158.676694 
L 274.230146 -159.132461 
L 274.222116 -159.588229 
L 274.214634 -160.043996 
L 274.207734 -160.499763 
L 274.201454 -160.95553 
L 274.195825 -161.411297 
L 274.190878 -161.867064 
L 274.186644 -162.322831 
L 274.183147 -162.778599 
L 274.180413 -163.234366 
L 274.178462 -163.690133 
L 274.177315 -164.1459 
L 274.176986 -164.601667 
L 274.177491 -165.057434 
L 274.178841 -165.513202 
L 276.621159 -165.513202 
L 276.621159 -165.513202 
L 276.622509 -165.057434 
L 276.623014 -164.601667 
L 276.622685 -164.1459 
L 276.621538 -163.690133 
L 276.619587 -163.234366 
L 276.616853 -162.778599 
L 276.613356 -162.322831 
L 276.609122 -161.867064 
L 276.604175 -161.411297 
L 276.598546 -160.95553 
L 276.592266 -160.499763 
L 276.585366 -160.043996 
L 276.577884 -159.588229 
L 276.569854 -159.132461 
L 276.561317 -158.676694 
L 276.552313 -158.220927 
L 276.542884 -157.76516 
L 276.533072 -157.309393 
L 276.522922 -156.853626 
L 276.512481 -156.397858 
L 276.501793 -155.942091 
L 276.490906 -155.486324 
L 276.479867 -155.030557 
L 276.468725 -154.57479 
L 276.457526 -154.119023 
L 276.446319 -153.663255 
L 276.435152 -153.207488 
L 276.424072 -152.751721 
L 276.413125 -152.295954 
L 276.402358 -151.840187 
L 276.391816 -151.38442 
L 276.381542 -150.928653 
L 276.37158 -150.472885 
L 276.361971 -150.017118 
L 276.352755 -149.561351 
L 276.343969 -149.105584 
L 276.335651 -148.649817 
L 276.327834 -148.19405 
L 276.320551 -147.738282 
L 276.313831 -147.282515 
L 276.307702 -146.826748 
L 276.302189 -146.370981 
L 276.297315 -145.915214 
L 276.2931 -145.459447 
L 276.28956 -145.003679 
L 276.286711 -144.547912 
L 276.284564 -144.092145 
L 276.283128 -143.636378 
L 276.282409 -143.180611 
L 276.282409 -142.724844 
L 276.283128 -142.269077 
L 276.284564 -141.813309 
L 276.286711 -141.357542 
L 276.28956 -140.901775 
L 276.2931 -140.446008 
L 276.297315 -139.990241 
L 276.302189 -139.534474 
L 276.307702 -139.078706 
L 276.313831 -138.622939 
L 276.320551 -138.167172 
L 276.327834 -137.711405 
L 276.335651 -137.255638 
L 276.343969 -136.799871 
L 276.352755 -136.344103 
L 276.361971 -135.888336 
L 276.37158 -135.432569 
L 276.381542 -134.976802 
L 276.391816 -134.521035 
L 276.402358 -134.065268 
L 276.413125 -133.609501 
L 276.424072 -133.153733 
L 276.435152 -132.697966 
L 276.446319 -132.242199 
L 276.457526 -131.786432 
L 276.468725 -131.330665 
L 276.479867 -130.874898 
L 276.490906 -130.41913 
L 276.501793 -129.963363 
L 276.512481 -129.507596 
L 276.522922 -129.051829 
L 276.533072 -128.596062 
L 276.542884 -128.140295 
L 276.552313 -127.684527 
L 276.561317 -127.22876 
L 276.569854 -126.772993 
L 276.577884 -126.317226 
L 276.585366 -125.861459 
L 276.592266 -125.405692 
L 276.598546 -124.949925 
L 276.604175 -124.494157 
L 276.609122 -124.03839 
L 276.613356 -123.582623 
L 276.616853 -123.126856 
L 276.619587 -122.671089 
L 276.621538 -122.215322 
L 276.622685 -121.759554 
L 276.623014 -121.303787 
L 276.622509 -120.84802 
L 276.621159 -120.392253 
z
" id="maf1a980ae5" style="stroke:#494949;stroke-width:1.5;"/>
    </defs>
    <g clip-path="url(#peeb1839750)">
     <use style="fill:#cc8963;stroke:#494949;stroke-width:1.5;" x="0" xlink:href="#maf1a980ae5" y="432"/>
    </g>
   </g>
   <g id="PolyCollection_3">
    <defs>
     <path d="M 389.350732 -152.621502 
L 384.649268 -152.621502 
L 384.63024 -153.051225 
L 384.614399 -153.480949 
L 384.601802 -153.910672 
L 384.592492 -154.340395 
L 384.586493 -154.770119 
L 384.583817 -155.199842 
L 384.58446 -155.629565 
L 384.5884 -156.059289 
L 384.595601 -156.489012 
L 384.606012 -156.918735 
L 384.619563 -157.348458 
L 384.636174 -157.778182 
L 384.655745 -158.207905 
L 384.678164 -158.637628 
L 384.703306 -159.067352 
L 384.731032 -159.497075 
L 384.761188 -159.926798 
L 384.793614 -160.356522 
L 384.828134 -160.786245 
L 384.864564 -161.215968 
L 384.902712 -161.645692 
L 384.942378 -162.075415 
L 384.983354 -162.505138 
L 385.025427 -162.934862 
L 385.068381 -163.364585 
L 385.111993 -163.794308 
L 385.156041 -164.224032 
L 385.200301 -164.653755 
L 385.244548 -165.083478 
L 385.288558 -165.513202 
L 385.332111 -165.942925 
L 385.374989 -166.372648 
L 385.416977 -166.802372 
L 385.457867 -167.232095 
L 385.497456 -167.661818 
L 385.535549 -168.091542 
L 385.571957 -168.521265 
L 385.606503 -168.950988 
L 385.639017 -169.380711 
L 385.669339 -169.810435 
L 385.697322 -170.240158 
L 385.722827 -170.669881 
L 385.745731 -171.099605 
L 385.765921 -171.529328 
L 385.783297 -171.959051 
L 385.797775 -172.388775 
L 385.809281 -172.818498 
L 385.817757 -173.248221 
L 385.82316 -173.677945 
L 385.82546 -174.107668 
L 385.824643 -174.537391 
L 385.820708 -174.967115 
L 385.81367 -175.396838 
L 385.803559 -175.826561 
L 385.790418 -176.256285 
L 385.774307 -176.686008 
L 385.755298 -177.115731 
L 385.733478 -177.545455 
L 385.708948 -177.975178 
L 385.681822 -178.404901 
L 385.652228 -178.834625 
L 385.620304 -179.264348 
L 385.586204 -179.694071 
L 385.550089 -180.123794 
L 385.512133 -180.553518 
L 385.472521 -180.983241 
L 385.431446 -181.412964 
L 385.389108 -181.842688 
L 385.345717 -182.272411 
L 385.301487 -182.702134 
L 385.256641 -183.131858 
L 385.211402 -183.561581 
L 385.166001 -183.991304 
L 385.120667 -184.421028 
L 385.075633 -184.850751 
L 385.031131 -185.280474 
L 384.987392 -185.710198 
L 384.944644 -186.139921 
L 384.903111 -186.569644 
L 384.863013 -186.999368 
L 384.824564 -187.429091 
L 384.787969 -187.858814 
L 384.753426 -188.288538 
L 384.721124 -188.718261 
L 384.691239 -189.147984 
L 384.663939 -189.577708 
L 384.639375 -190.007431 
L 384.617689 -190.437154 
L 384.599006 -190.866877 
L 384.583437 -191.296601 
L 384.571078 -191.726324 
L 384.562008 -192.156047 
L 384.55629 -192.585771 
L 384.553973 -193.015494 
L 384.555084 -193.445217 
L 384.559638 -193.874941 
L 384.567632 -194.304664 
L 384.579044 -194.734387 
L 384.59384 -195.164111 
L 389.40616 -195.164111 
L 389.40616 -195.164111 
L 389.420956 -194.734387 
L 389.432368 -194.304664 
L 389.440362 -193.874941 
L 389.444916 -193.445217 
L 389.446027 -193.015494 
L 389.44371 -192.585771 
L 389.437992 -192.156047 
L 389.428922 -191.726324 
L 389.416563 -191.296601 
L 389.400994 -190.866877 
L 389.382311 -190.437154 
L 389.360625 -190.007431 
L 389.336061 -189.577708 
L 389.308761 -189.147984 
L 389.278876 -188.718261 
L 389.246574 -188.288538 
L 389.212031 -187.858814 
L 389.175436 -187.429091 
L 389.136987 -186.999368 
L 389.096889 -186.569644 
L 389.055356 -186.139921 
L 389.012608 -185.710198 
L 388.968869 -185.280474 
L 388.924367 -184.850751 
L 388.879333 -184.421028 
L 388.833999 -183.991304 
L 388.788598 -183.561581 
L 388.743359 -183.131858 
L 388.698513 -182.702134 
L 388.654283 -182.272411 
L 388.610892 -181.842688 
L 388.568554 -181.412964 
L 388.527479 -180.983241 
L 388.487867 -180.553518 
L 388.449911 -180.123794 
L 388.413796 -179.694071 
L 388.379696 -179.264348 
L 388.347772 -178.834625 
L 388.318178 -178.404901 
L 388.291052 -177.975178 
L 388.266522 -177.545455 
L 388.244702 -177.115731 
L 388.225693 -176.686008 
L 388.209582 -176.256285 
L 388.196441 -175.826561 
L 388.18633 -175.396838 
L 388.179292 -174.967115 
L 388.175357 -174.537391 
L 388.17454 -174.107668 
L 388.17684 -173.677945 
L 388.182243 -173.248221 
L 388.190719 -172.818498 
L 388.202225 -172.388775 
L 388.216703 -171.959051 
L 388.234079 -171.529328 
L 388.254269 -171.099605 
L 388.277173 -170.669881 
L 388.302678 -170.240158 
L 388.330661 -169.810435 
L 388.360983 -169.380711 
L 388.393497 -168.950988 
L 388.428043 -168.521265 
L 388.464451 -168.091542 
L 388.502544 -167.661818 
L 388.542133 -167.232095 
L 388.583023 -166.802372 
L 388.625011 -166.372648 
L 388.667889 -165.942925 
L 388.711442 -165.513202 
L 388.755452 -165.083478 
L 388.799699 -164.653755 
L 388.843959 -164.224032 
L 388.888007 -163.794308 
L 388.931619 -163.364585 
L 388.974573 -162.934862 
L 389.016646 -162.505138 
L 389.057622 -162.075415 
L 389.097288 -161.645692 
L 389.135436 -161.215968 
L 389.171866 -160.786245 
L 389.206386 -160.356522 
L 389.238812 -159.926798 
L 389.268968 -159.497075 
L 389.296694 -159.067352 
L 389.321836 -158.637628 
L 389.344255 -158.207905 
L 389.363826 -157.778182 
L 389.380437 -157.348458 
L 389.393988 -156.918735 
L 389.404399 -156.489012 
L 389.4116 -156.059289 
L 389.41554 -155.629565 
L 389.416183 -155.199842 
L 389.413507 -154.770119 
L 389.407508 -154.340395 
L 389.398198 -153.910672 
L 389.385601 -153.480949 
L 389.36976 -153.051225 
L 389.350732 -152.621502 
z
" id="mb155629b22" style="stroke:#494949;stroke-width:1.5;"/>
    </defs>
    <g clip-path="url(#peeb1839750)">
     <use style="fill:#5f9e6e;stroke:#494949;stroke-width:1.5;" x="0" xlink:href="#mb155629b22" y="432"/>
    </g>
   </g>
   <g id="PolyCollection_4">
    <defs>
     <path d="M 499.821159 -88.163004 
L 497.378841 -88.163004 
L 497.377491 -88.944319 
L 497.376986 -89.725634 
L 497.377315 -90.506949 
L 497.378462 -91.288264 
L 497.380413 -92.06958 
L 497.383147 -92.850895 
L 497.386644 -93.63221 
L 497.390878 -94.413525 
L 497.395825 -95.19484 
L 497.401454 -95.976155 
L 497.407734 -96.75747 
L 497.414634 -97.538785 
L 497.422116 -98.320101 
L 497.430146 -99.101416 
L 497.438683 -99.882731 
L 497.447687 -100.664046 
L 497.457116 -101.445361 
L 497.466928 -102.226676 
L 497.477078 -103.007991 
L 497.487519 -103.789307 
L 497.498207 -104.570622 
L 497.509094 -105.351937 
L 497.520133 -106.133252 
L 497.531275 -106.914567 
L 497.542474 -107.695882 
L 497.553681 -108.477197 
L 497.564848 -109.258512 
L 497.575928 -110.039828 
L 497.586875 -110.821143 
L 497.597642 -111.602458 
L 497.608184 -112.383773 
L 497.618458 -113.165088 
L 497.62842 -113.946403 
L 497.638029 -114.727718 
L 497.647245 -115.509033 
L 497.656031 -116.290349 
L 497.664349 -117.071664 
L 497.672166 -117.852979 
L 497.679449 -118.634294 
L 497.686169 -119.415609 
L 497.692298 -120.196924 
L 497.697811 -120.978239 
L 497.702685 -121.759554 
L 497.7069 -122.54087 
L 497.71044 -123.322185 
L 497.713289 -124.1035 
L 497.715436 -124.884815 
L 497.716872 -125.66613 
L 497.717591 -126.447445 
L 497.717591 -127.22876 
L 497.716872 -128.010075 
L 497.715436 -128.791391 
L 497.713289 -129.572706 
L 497.71044 -130.354021 
L 497.7069 -131.135336 
L 497.702685 -131.916651 
L 497.697811 -132.697966 
L 497.692298 -133.479281 
L 497.686169 -134.260596 
L 497.679449 -135.041912 
L 497.672166 -135.823227 
L 497.664349 -136.604542 
L 497.656031 -137.385857 
L 497.647245 -138.167172 
L 497.638029 -138.948487 
L 497.62842 -139.729802 
L 497.618458 -140.511117 
L 497.608184 -141.292433 
L 497.597642 -142.073748 
L 497.586875 -142.855063 
L 497.575928 -143.636378 
L 497.564848 -144.417693 
L 497.553681 -145.199008 
L 497.542474 -145.980323 
L 497.531275 -146.761639 
L 497.520133 -147.542954 
L 497.509094 -148.324269 
L 497.498207 -149.105584 
L 497.487519 -149.886899 
L 497.477078 -150.668214 
L 497.466928 -151.449529 
L 497.457116 -152.230844 
L 497.447687 -153.01216 
L 497.438683 -153.793475 
L 497.430146 -154.57479 
L 497.422116 -155.356105 
L 497.414634 -156.13742 
L 497.407734 -156.918735 
L 497.401454 -157.70005 
L 497.395825 -158.481365 
L 497.390878 -159.262681 
L 497.386644 -160.043996 
L 497.383147 -160.825311 
L 497.380413 -161.606626 
L 497.378462 -162.387941 
L 497.377315 -163.169256 
L 497.376986 -163.950571 
L 497.377491 -164.731886 
L 497.378841 -165.513202 
L 499.821159 -165.513202 
L 499.821159 -165.513202 
L 499.822509 -164.731886 
L 499.823014 -163.950571 
L 499.822685 -163.169256 
L 499.821538 -162.387941 
L 499.819587 -161.606626 
L 499.816853 -160.825311 
L 499.813356 -160.043996 
L 499.809122 -159.262681 
L 499.804175 -158.481365 
L 499.798546 -157.70005 
L 499.792266 -156.918735 
L 499.785366 -156.13742 
L 499.777884 -155.356105 
L 499.769854 -154.57479 
L 499.761317 -153.793475 
L 499.752313 -153.01216 
L 499.742884 -152.230844 
L 499.733072 -151.449529 
L 499.722922 -150.668214 
L 499.712481 -149.886899 
L 499.701793 -149.105584 
L 499.690906 -148.324269 
L 499.679867 -147.542954 
L 499.668725 -146.761639 
L 499.657526 -145.980323 
L 499.646319 -145.199008 
L 499.635152 -144.417693 
L 499.624072 -143.636378 
L 499.613125 -142.855063 
L 499.602358 -142.073748 
L 499.591816 -141.292433 
L 499.581542 -140.511117 
L 499.57158 -139.729802 
L 499.561971 -138.948487 
L 499.552755 -138.167172 
L 499.543969 -137.385857 
L 499.535651 -136.604542 
L 499.527834 -135.823227 
L 499.520551 -135.041912 
L 499.513831 -134.260596 
L 499.507702 -133.479281 
L 499.502189 -132.697966 
L 499.497315 -131.916651 
L 499.4931 -131.135336 
L 499.48956 -130.354021 
L 499.486711 -129.572706 
L 499.484564 -128.791391 
L 499.483128 -128.010075 
L 499.482409 -127.22876 
L 499.482409 -126.447445 
L 499.483128 -125.66613 
L 499.484564 -124.884815 
L 499.486711 -124.1035 
L 499.48956 -123.322185 
L 499.4931 -122.54087 
L 499.497315 -121.759554 
L 499.502189 -120.978239 
L 499.507702 -120.196924 
L 499.513831 -119.415609 
L 499.520551 -118.634294 
L 499.527834 -117.852979 
L 499.535651 -117.071664 
L 499.543969 -116.290349 
L 499.552755 -115.509033 
L 499.561971 -114.727718 
L 499.57158 -113.946403 
L 499.581542 -113.165088 
L 499.591816 -112.383773 
L 499.602358 -111.602458 
L 499.613125 -110.821143 
L 499.624072 -110.039828 
L 499.635152 -109.258512 
L 499.646319 -108.477197 
L 499.657526 -107.695882 
L 499.668725 -106.914567 
L 499.679867 -106.133252 
L 499.690906 -105.351937 
L 499.701793 -104.570622 
L 499.712481 -103.789307 
L 499.722922 -103.007991 
L 499.733072 -102.226676 
L 499.742884 -101.445361 
L 499.752313 -100.664046 
L 499.761317 -99.882731 
L 499.769854 -99.101416 
L 499.777884 -98.320101 
L 499.785366 -97.538785 
L 499.792266 -96.75747 
L 499.798546 -95.976155 
L 499.804175 -95.19484 
L 499.809122 -94.413525 
L 499.813356 -93.63221 
L 499.816853 -92.850895 
L 499.819587 -92.06958 
L 499.821538 -91.288264 
L 499.822685 -90.506949 
L 499.823014 -89.725634 
L 499.822509 -88.944319 
L 499.821159 -88.163004 
z
" id="m42f099144c" style="stroke:#494949;stroke-width:1.5;"/>
    </defs>
    <g clip-path="url(#peeb1839750)">
     <use style="fill:#b55d60;stroke:#494949;stroke-width:1.5;" x="0" xlink:href="#m42f099144c" y="432"/>
    </g>
   </g>
   <g id="PolyCollection_5">
    <defs>
     <path d="M 625.490035 -68.825455 
L 594.909965 -68.825455 
L 593.461074 -71.820496 
L 591.97442 -74.815537 
L 590.459681 -77.810579 
L 588.926716 -80.80562 
L 587.385312 -83.800661 
L 585.844951 -86.795702 
L 584.314615 -89.790744 
L 582.802646 -92.785785 
L 581.316661 -95.780826 
L 579.863531 -98.775868 
L 578.44943 -101.770909 
L 577.079933 -104.76595 
L 575.760171 -107.760992 
L 574.495004 -110.756033 
L 573.289226 -113.751074 
L 572.147744 -116.746116 
L 571.075746 -119.741157 
L 570.078815 -122.736198 
L 569.16299 -125.73124 
L 568.334754 -128.726281 
L 567.600954 -131.721322 
L 566.968642 -134.716364 
L 566.444861 -137.711405 
L 566.036381 -140.706446 
L 565.749397 -143.701488 
L 565.589224 -146.696529 
L 565.56 -149.69157 
L 565.664424 -152.686612 
L 565.903542 -155.681653 
L 566.276603 -158.676694 
L 566.780991 -161.671736 
L 567.412237 -164.666777 
L 568.164114 -167.661818 
L 569.028803 -170.65686 
L 569.997118 -173.651901 
L 571.058782 -176.646942 
L 572.202723 -179.641983 
L 573.417388 -182.637025 
L 574.69104 -185.632066 
L 576.012034 -188.627107 
L 577.369055 -191.622149 
L 578.751304 -194.61719 
L 580.148639 -197.612231 
L 581.551661 -200.607273 
L 582.951748 -203.602314 
L 584.341051 -206.597355 
L 585.712462 -209.592397 
L 587.05955 -212.587438 
L 588.376499 -215.582479 
L 589.65804 -218.577521 
L 590.89939 -221.572562 
L 592.09621 -224.567603 
L 593.244586 -227.562645 
L 594.341018 -230.557686 
L 595.382439 -233.552727 
L 596.366246 -236.547769 
L 597.290335 -239.54281 
L 598.15315 -242.537851 
L 598.953721 -245.532893 
L 599.691702 -248.527934 
L 600.367391 -251.522975 
L 600.981742 -254.518017 
L 601.536349 -257.513058 
L 602.033423 -260.508099 
L 602.475747 -263.50314 
L 602.866612 -266.498182 
L 603.209746 -269.493223 
L 603.509226 -272.488264 
L 603.769385 -275.483306 
L 603.994712 -278.478347 
L 604.189753 -281.473388 
L 604.359006 -284.46843 
L 604.506831 -287.463471 
L 604.637354 -290.458512 
L 604.754392 -293.453554 
L 604.861383 -296.448595 
L 604.961339 -299.443636 
L 605.05681 -302.438678 
L 605.149875 -305.433719 
L 605.242147 -308.42876 
L 605.334802 -311.423802 
L 605.428628 -314.418843 
L 605.524083 -317.413884 
L 605.621372 -320.408926 
L 605.720524 -323.403967 
L 605.821476 -326.399008 
L 605.924147 -329.39405 
L 606.0285 -332.389091 
L 606.134597 -335.384132 
L 606.242624 -338.379174 
L 606.352902 -341.374215 
L 606.465878 -344.369256 
L 606.582093 -347.364298 
L 606.702139 -350.359339 
L 606.826597 -353.35438 
L 606.955981 -356.349421 
L 607.090674 -359.344463 
L 607.23087 -362.339504 
L 607.376534 -365.334545 
L 613.023466 -365.334545 
L 613.023466 -365.334545 
L 613.16913 -362.339504 
L 613.309326 -359.344463 
L 613.444019 -356.349421 
L 613.573403 -353.35438 
L 613.697861 -350.359339 
L 613.817907 -347.364298 
L 613.934122 -344.369256 
L 614.047098 -341.374215 
L 614.157376 -338.379174 
L 614.265403 -335.384132 
L 614.3715 -332.389091 
L 614.475853 -329.39405 
L 614.578524 -326.399008 
L 614.679476 -323.403967 
L 614.778628 -320.408926 
L 614.875917 -317.413884 
L 614.971372 -314.418843 
L 615.065198 -311.423802 
L 615.157853 -308.42876 
L 615.250125 -305.433719 
L 615.34319 -302.438678 
L 615.438661 -299.443636 
L 615.538617 -296.448595 
L 615.645608 -293.453554 
L 615.762646 -290.458512 
L 615.893169 -287.463471 
L 616.040994 -284.46843 
L 616.210247 -281.473388 
L 616.405288 -278.478347 
L 616.630615 -275.483306 
L 616.890774 -272.488264 
L 617.190254 -269.493223 
L 617.533388 -266.498182 
L 617.924253 -263.50314 
L 618.366577 -260.508099 
L 618.863651 -257.513058 
L 619.418258 -254.518017 
L 620.032609 -251.522975 
L 620.708298 -248.527934 
L 621.446279 -245.532893 
L 622.24685 -242.537851 
L 623.109665 -239.54281 
L 624.033754 -236.547769 
L 625.017561 -233.552727 
L 626.058982 -230.557686 
L 627.155414 -227.562645 
L 628.30379 -224.567603 
L 629.50061 -221.572562 
L 630.74196 -218.577521 
L 632.023501 -215.582479 
L 633.34045 -212.587438 
L 634.687538 -209.592397 
L 636.058949 -206.597355 
L 637.448252 -203.602314 
L 638.848339 -200.607273 
L 640.251361 -197.612231 
L 641.648696 -194.61719 
L 643.030945 -191.622149 
L 644.387966 -188.627107 
L 645.70896 -185.632066 
L 646.982612 -182.637025 
L 648.197277 -179.641983 
L 649.341218 -176.646942 
L 650.402882 -173.651901 
L 651.371197 -170.65686 
L 652.235886 -167.661818 
L 652.987763 -164.666777 
L 653.619009 -161.671736 
L 654.123397 -158.676694 
L 654.496458 -155.681653 
L 654.735576 -152.686612 
L 654.84 -149.69157 
L 654.810776 -146.696529 
L 654.650603 -143.701488 
L 654.363619 -140.706446 
L 653.955139 -137.711405 
L 653.431358 -134.716364 
L 652.799046 -131.721322 
L 652.065246 -128.726281 
L 651.23701 -125.73124 
L 650.321185 -122.736198 
L 649.324254 -119.741157 
L 648.252256 -116.746116 
L 647.110774 -113.751074 
L 645.904996 -110.756033 
L 644.639829 -107.760992 
L 643.320067 -104.76595 
L 641.95057 -101.770909 
L 640.536469 -98.775868 
L 639.083339 -95.780826 
L 637.597354 -92.785785 
L 636.085385 -89.790744 
L 634.555049 -86.795702 
L 633.014688 -83.800661 
L 631.473284 -80.80562 
L 629.940319 -77.810579 
L 628.42558 -74.815537 
L 626.938926 -71.820496 
L 625.490035 -68.825455 
z
" id="m7b6efe8514" style="stroke:#494949;stroke-width:1.5;"/>
    </defs>
    <g clip-path="url(#peeb1839750)">
     <use style="fill:#857aab;stroke:#494949;stroke-width:1.5;" x="0" xlink:href="#m7b6efe8514" y="432"/>
    </g>
   </g>
   <g id="PolyCollection_6">
    <defs>
     <path d="M 725.168847 -104.922213 
L 718.431153 -104.922213 
L 718.368789 -105.338915 
L 718.313036 -105.755616 
L 718.264238 -106.172318 
L 718.222699 -106.589019 
L 718.188671 -107.00572 
L 718.16236 -107.422422 
L 718.143916 -107.839123 
L 718.133436 -108.255825 
L 718.130959 -108.672526 
L 718.136467 -109.089227 
L 718.149887 -109.505929 
L 718.171085 -109.92263 
L 718.199874 -110.339332 
L 718.236012 -110.756033 
L 718.279205 -111.172734 
L 718.329111 -111.589436 
L 718.38534 -112.006137 
L 718.447463 -112.422839 
L 718.515012 -112.83954 
L 718.587487 -113.256241 
L 718.664358 -113.672943 
L 718.745075 -114.089644 
L 718.82907 -114.506346 
L 718.915763 -114.923047 
L 719.004568 -115.339748 
L 719.094897 -115.75645 
L 719.186169 -116.173151 
L 719.27781 -116.589853 
L 719.369262 -117.006554 
L 719.459988 -117.423255 
L 719.549471 -117.839957 
L 719.637226 -118.256658 
L 719.722796 -118.67336 
L 719.80576 -119.090061 
L 719.885734 -119.506762 
L 719.962372 -119.923464 
L 720.03537 -120.340165 
L 720.104467 -120.756867 
L 720.169443 -121.173568 
L 720.230121 -121.590269 
L 720.286369 -122.006971 
L 720.338095 -122.423672 
L 720.385248 -122.840374 
L 720.427819 -123.257075 
L 720.465833 -123.673777 
L 720.499354 -124.090478 
L 720.528476 -124.507179 
L 720.553326 -124.923881 
L 720.574057 -125.340582 
L 720.590847 -125.757284 
L 720.603895 -126.173985 
L 720.61342 -126.590686 
L 720.619654 -127.007388 
L 720.622841 -127.424089 
L 720.623234 -127.840791 
L 720.621092 -128.257492 
L 720.616677 -128.674193 
L 720.61025 -129.090895 
L 720.60207 -129.507596 
L 720.59239 -129.924298 
L 720.581458 -130.340999 
L 720.569512 -130.7577 
L 720.556778 -131.174402 
L 720.543473 -131.591103 
L 720.5298 -132.007805 
L 720.515947 -132.424506 
L 720.502089 -132.841207 
L 720.488388 -133.257909 
L 720.474991 -133.67461 
L 720.462028 -134.091312 
L 720.44962 -134.508013 
L 720.437871 -134.924714 
L 720.426876 -135.341416 
L 720.416717 -135.758117 
L 720.407465 -136.174819 
L 720.399183 -136.59152 
L 720.391926 -137.008221 
L 720.385742 -137.424923 
L 720.380671 -137.841624 
L 720.37675 -138.258326 
L 720.374011 -138.675027 
L 720.372485 -139.091728 
L 720.372196 -139.50843 
L 720.373172 -139.925131 
L 720.375434 -140.341833 
L 720.379005 -140.758534 
L 720.383906 -141.175235 
L 720.390158 -141.591937 
L 720.397778 -142.008638 
L 720.406785 -142.42534 
L 720.417193 -142.842041 
L 720.429017 -143.258742 
L 720.442264 -143.675444 
L 720.456943 -144.092145 
L 720.473056 -144.508847 
L 720.490598 -144.925548 
L 720.509561 -145.342249 
L 720.529931 -145.758951 
L 720.551685 -146.175652 
L 723.048315 -146.175652 
L 723.048315 -146.175652 
L 723.070069 -145.758951 
L 723.090439 -145.342249 
L 723.109402 -144.925548 
L 723.126944 -144.508847 
L 723.143057 -144.092145 
L 723.157736 -143.675444 
L 723.170983 -143.258742 
L 723.182807 -142.842041 
L 723.193215 -142.42534 
L 723.202222 -142.008638 
L 723.209842 -141.591937 
L 723.216094 -141.175235 
L 723.220995 -140.758534 
L 723.224566 -140.341833 
L 723.226828 -139.925131 
L 723.227804 -139.50843 
L 723.227515 -139.091728 
L 723.225989 -138.675027 
L 723.22325 -138.258326 
L 723.219329 -137.841624 
L 723.214258 -137.424923 
L 723.208074 -137.008221 
L 723.200817 -136.59152 
L 723.192535 -136.174819 
L 723.183283 -135.758117 
L 723.173124 -135.341416 
L 723.162129 -134.924714 
L 723.15038 -134.508013 
L 723.137972 -134.091312 
L 723.125009 -133.67461 
L 723.111612 -133.257909 
L 723.097911 -132.841207 
L 723.084053 -132.424506 
L 723.0702 -132.007805 
L 723.056527 -131.591103 
L 723.043222 -131.174402 
L 723.030488 -130.7577 
L 723.018542 -130.340999 
L 723.00761 -129.924298 
L 722.99793 -129.507596 
L 722.98975 -129.090895 
L 722.983323 -128.674193 
L 722.978908 -128.257492 
L 722.976766 -127.840791 
L 722.977159 -127.424089 
L 722.980346 -127.007388 
L 722.98658 -126.590686 
L 722.996105 -126.173985 
L 723.009153 -125.757284 
L 723.025943 -125.340582 
L 723.046674 -124.923881 
L 723.071524 -124.507179 
L 723.100646 -124.090478 
L 723.134167 -123.673777 
L 723.172181 -123.257075 
L 723.214752 -122.840374 
L 723.261905 -122.423672 
L 723.313631 -122.006971 
L 723.369879 -121.590269 
L 723.430557 -121.173568 
L 723.495533 -120.756867 
L 723.56463 -120.340165 
L 723.637628 -119.923464 
L 723.714266 -119.506762 
L 723.79424 -119.090061 
L 723.877204 -118.67336 
L 723.962774 -118.256658 
L 724.050529 -117.839957 
L 724.140012 -117.423255 
L 724.230738 -117.006554 
L 724.32219 -116.589853 
L 724.413831 -116.173151 
L 724.505103 -115.75645 
L 724.595432 -115.339748 
L 724.684237 -114.923047 
L 724.77093 -114.506346 
L 724.854925 -114.089644 
L 724.935642 -113.672943 
L 725.012513 -113.256241 
L 725.084988 -112.83954 
L 725.152537 -112.422839 
L 725.21466 -112.006137 
L 725.270889 -111.589436 
L 725.320795 -111.172734 
L 725.363988 -110.756033 
L 725.400126 -110.339332 
L 725.428915 -109.92263 
L 725.450113 -109.505929 
L 725.463533 -109.089227 
L 725.469041 -108.672526 
L 725.466564 -108.255825 
L 725.456084 -107.839123 
L 725.43764 -107.422422 
L 725.411329 -107.00572 
L 725.377301 -106.589019 
L 725.335762 -106.172318 
L 725.286964 -105.755616 
L 725.231211 -105.338915 
L 725.168847 -104.922213 
z
" id="m0f9a36255b" style="stroke:#494949;stroke-width:1.5;"/>
    </defs>
    <g clip-path="url(#peeb1839750)">
     <use style="fill:#8d7866;stroke:#494949;stroke-width:1.5;" x="0" xlink:href="#m0f9a36255b" y="432"/>
    </g>
   </g>
   <g id="line2d_6">
    <path clip-path="url(#peeb1839750)" d="M 156.202092 298.716047 
L 171.397908 298.716047 
" style="fill:none;stroke:#494949;stroke-dasharray:3.375,3.375;stroke-dashoffset:0;stroke-width:1.5;"/>
   </g>
   <g id="line2d_7">
    <path clip-path="url(#peeb1839750)" d="M 156.323449 272.932648 
L 171.276551 272.932648 
" style="fill:none;stroke:#494949;stroke-dasharray:6.75,6.75;stroke-dashoffset:0;stroke-width:1.5;"/>
   </g>
   <g id="line2d_8">
    <path clip-path="url(#peeb1839750)" d="M 157.481133 260.040949 
L 170.118867 260.040949 
" style="fill:none;stroke:#494949;stroke-dasharray:3.375,3.375;stroke-dashoffset:0;stroke-width:1.5;"/>
   </g>
   <g id="line2d_9">
    <path clip-path="url(#peeb1839750)" d="M 274.353049 300.32751 
L 276.446951 300.32751 
" style="fill:none;stroke:#494949;stroke-dasharray:3.375,3.375;stroke-dashoffset:0;stroke-width:1.5;"/>
   </g>
   <g id="line2d_10">
    <path clip-path="url(#peeb1839750)" d="M 274.526416 289.047273 
L 276.273584 289.047273 
" style="fill:none;stroke:#494949;stroke-dasharray:6.75,6.75;stroke-dashoffset:0;stroke-width:1.5;"/>
   </g>
   <g id="line2d_11">
    <path clip-path="url(#peeb1839750)" d="M 274.353049 277.767036 
L 276.446951 277.767036 
" style="fill:none;stroke:#494949;stroke-dasharray:3.375,3.375;stroke-dashoffset:0;stroke-width:1.5;"/>
   </g>
   <g id="line2d_12">
    <path clip-path="url(#peeb1839750)" d="M 384.619645 275.510988 
L 389.380355 275.510988 
" style="fill:none;stroke:#494949;stroke-dasharray:3.375,3.375;stroke-dashoffset:0;stroke-width:1.5;"/>
   </g>
   <g id="line2d_13">
    <path clip-path="url(#peeb1839750)" d="M 385.836396 257.462609 
L 388.163604 257.462609 
" style="fill:none;stroke:#494949;stroke-dasharray:6.75,6.75;stroke-dashoffset:0;stroke-width:1.5;"/>
   </g>
   <g id="line2d_14">
    <path clip-path="url(#peeb1839750)" d="M 384.586388 239.736522 
L 389.413612 239.736522 
" style="fill:none;stroke:#494949;stroke-dasharray:3.375,3.375;stroke-dashoffset:0;stroke-width:1.5;"/>
   </g>
   <g id="line2d_15">
    <path clip-path="url(#peeb1839750)" d="M 497.553049 324.499447 
L 499.646951 324.499447 
" style="fill:none;stroke:#494949;stroke-dasharray:3.375,3.375;stroke-dashoffset:0;stroke-width:1.5;"/>
   </g>
   <g id="line2d_16">
    <path clip-path="url(#peeb1839750)" d="M 497.726416 305.161897 
L 499.473584 305.161897 
" style="fill:none;stroke:#494949;stroke-dasharray:6.75,6.75;stroke-dashoffset:0;stroke-width:1.5;"/>
   </g>
   <g id="line2d_17">
    <path clip-path="url(#peeb1839750)" d="M 497.553049 285.824348 
L 499.646951 285.824348 
" style="fill:none;stroke:#494949;stroke-dasharray:3.375,3.375;stroke-dashoffset:0;stroke-width:1.5;"/>
   </g>
   <g id="line2d_18">
    <path clip-path="url(#peeb1839750)" d="M 571.466988 311.607747 
L 648.933012 311.607747 
" style="fill:none;stroke:#494949;stroke-dasharray:3.375,3.375;stroke-dashoffset:0;stroke-width:1.5;"/>
   </g>
   <g id="line2d_19">
    <path clip-path="url(#peeb1839750)" d="M 566.10978 278.089328 
L 654.29022 278.089328 
" style="fill:none;stroke:#494949;stroke-dasharray:6.75,6.75;stroke-dashoffset:0;stroke-width:1.5;"/>
   </g>
   <g id="line2d_20">
    <path clip-path="url(#peeb1839750)" d="M 575.04613 247.149249 
L 645.35387 247.149249 
" style="fill:none;stroke:#494949;stroke-dasharray:3.375,3.375;stroke-dashoffset:0;stroke-width:1.5;"/>
   </g>
   <g id="line2d_21">
    <path clip-path="url(#peeb1839750)" d="M 718.170102 323.854862 
L 725.429898 323.854862 
" style="fill:none;stroke:#494949;stroke-dasharray:3.375,3.375;stroke-dashoffset:0;stroke-width:1.5;"/>
   </g>
   <g id="line2d_22">
    <path clip-path="url(#peeb1839750)" d="M 718.271652 321.276522 
L 725.328348 321.276522 
" style="fill:none;stroke:#494949;stroke-dasharray:6.75,6.75;stroke-dashoffset:0;stroke-width:1.5;"/>
   </g>
   <g id="line2d_23">
    <path clip-path="url(#peeb1839750)" d="M 720.635002 304.19502 
L 722.964998 304.19502 
" style="fill:none;stroke:#494949;stroke-dasharray:3.375,3.375;stroke-dashoffset:0;stroke-width:1.5;"/>
   </g>
   <g id="patch_3">
    <path d="M 108 378 
L 108 51.84 
" style="fill:none;stroke:#ffffff;stroke-linecap:square;stroke-linejoin:miter;stroke-width:1.25;"/>
   </g>
   <g id="patch_4">
    <path d="M 777.6 378 
L 777.6 51.84 
" style="fill:none;stroke:#ffffff;stroke-linecap:square;stroke-linejoin:miter;stroke-width:1.25;"/>
   </g>
   <g id="patch_5">
    <path d="M 108 378 
L 777.6 378 
" style="fill:none;stroke:#ffffff;stroke-linecap:square;stroke-linejoin:miter;stroke-width:1.25;"/>
   </g>
   <g id="patch_6">
    <path d="M 108 51.84 
L 777.6 51.84 
" style="fill:none;stroke:#ffffff;stroke-linecap:square;stroke-linejoin:miter;stroke-width:1.25;"/>
   </g>
   <g id="text_14">
    <!-- Compensation by Type of Work -->
    <g style="fill:#262626;" transform="translate(359.31 45.84)scale(0.12 -0.12)">
     <defs>
      <path d="M 58.796875 25.09375 
L 68.265625 22.703125 
Q 65.28125 11.03125 57.546875 4.90625 
Q 49.8125 -1.21875 38.625 -1.21875 
Q 27.046875 -1.21875 19.796875 3.484375 
Q 12.546875 8.203125 8.765625 17.140625 
Q 4.984375 26.078125 4.984375 36.328125 
Q 4.984375 47.515625 9.25 55.828125 
Q 13.53125 64.15625 21.40625 68.46875 
Q 29.296875 72.796875 38.765625 72.796875 
Q 49.515625 72.796875 56.828125 67.328125 
Q 64.15625 61.859375 67.046875 51.953125 
L 57.71875 49.75 
Q 55.21875 57.5625 50.484375 61.125 
Q 45.75 64.703125 38.578125 64.703125 
Q 30.328125 64.703125 24.78125 60.734375 
Q 19.234375 56.78125 16.984375 50.109375 
Q 14.75 43.453125 14.75 36.375 
Q 14.75 27.25 17.40625 20.4375 
Q 20.0625 13.625 25.671875 10.25 
Q 31.296875 6.890625 37.84375 6.890625 
Q 45.796875 6.890625 51.3125 11.46875 
Q 56.84375 16.0625 58.796875 25.09375 
z
" id="ArialMT-67"/>
      <path d="M 14.703125 0 
L 6.546875 0 
L 6.546875 71.578125 
L 15.328125 71.578125 
L 15.328125 46.046875 
Q 20.90625 53.03125 29.546875 53.03125 
Q 34.328125 53.03125 38.59375 51.09375 
Q 42.875 49.171875 45.625 45.671875 
Q 48.390625 42.1875 49.953125 37.25 
Q 51.515625 32.328125 51.515625 26.703125 
Q 51.515625 13.375 44.921875 6.09375 
Q 38.328125 -1.171875 29.109375 -1.171875 
Q 19.921875 -1.171875 14.703125 6.5 
z
M 14.59375 26.3125 
Q 14.59375 17 17.140625 12.84375 
Q 21.296875 6.0625 28.375 6.0625 
Q 34.125 6.0625 38.328125 11.0625 
Q 42.53125 16.0625 42.53125 25.984375 
Q 42.53125 36.140625 38.5 40.96875 
Q 34.46875 45.796875 28.765625 45.796875 
Q 23 45.796875 18.796875 40.796875 
Q 14.59375 35.796875 14.59375 26.3125 
z
" id="ArialMT-98"/>
     </defs>
     <use xlink:href="#ArialMT-67"/>
     <use x="72.216797" xlink:href="#ArialMT-111"/>
     <use x="127.832031" xlink:href="#ArialMT-109"/>
     <use x="211.132812" xlink:href="#ArialMT-112"/>
     <use x="266.748047" xlink:href="#ArialMT-101"/>
     <use x="322.363281" xlink:href="#ArialMT-110"/>
     <use x="377.978516" xlink:href="#ArialMT-115"/>
     <use x="427.978516" xlink:href="#ArialMT-97"/>
     <use x="483.59375" xlink:href="#ArialMT-116"/>
     <use x="511.376953" xlink:href="#ArialMT-105"/>
     <use x="533.59375" xlink:href="#ArialMT-111"/>
     <use x="589.208984" xlink:href="#ArialMT-110"/>
     <use x="644.824219" xlink:href="#ArialMT-32"/>
     <use x="672.607422" xlink:href="#ArialMT-98"/>
     <use x="728.222656" xlink:href="#ArialMT-121"/>
     <use x="778.222656" xlink:href="#ArialMT-32"/>
     <use x="804.255859" xlink:href="#ArialMT-84"/>
     <use x="859.839844" xlink:href="#ArialMT-121"/>
     <use x="909.839844" xlink:href="#ArialMT-112"/>
     <use x="965.455078" xlink:href="#ArialMT-101"/>
     <use x="1021.070312" xlink:href="#ArialMT-32"/>
     <use x="1048.853516" xlink:href="#ArialMT-111"/>
     <use x="1104.46875" xlink:href="#ArialMT-102"/>
     <use x="1132.251953" xlink:href="#ArialMT-32"/>
     <use x="1160.035156" xlink:href="#ArialMT-87"/>
     <use x="1252.669922" xlink:href="#ArialMT-111"/>
     <use x="1308.285156" xlink:href="#ArialMT-114"/>
     <use x="1341.585938" xlink:href="#ArialMT-107"/>
    </g>
   </g>
  </g>
 </g>
 <defs>
  <clipPath id="peeb1839750">
   <rect height="326.16" width="669.6" x="108" y="51.84"/>
  </clipPath>
 </defs>
</svg>
