<?xml version="1.0" encoding="utf-8" standalone="no"?>
<!DOCTYPE svg PUBLIC "-//W3C//DTD SVG 1.1//EN"
  "http://www.w3.org/Graphics/SVG/1.1/DTD/svg11.dtd">
<!-- Created with matplotlib (https://matplotlib.org/) -->
<svg height="432pt" version="1.1" viewBox="0 0 864 432" width="864pt" xmlns="http://www.w3.org/2000/svg" xmlns:xlink="http://www.w3.org/1999/xlink">
 <metadata>
  <rdf:RDF xmlns:cc="http://creativecommons.org/ns#" xmlns:dc="http://purl.org/dc/elements/1.1/" xmlns:rdf="http://www.w3.org/1999/02/22-rdf-syntax-ns#">
   <cc:Work>
    <dc:type rdf:resource="http://purl.org/dc/dcmitype/StillImage"/>
    <dc:date>2020-11-22T14:14:04.581268</dc:date>
    <dc:format>image/svg+xml</dc:format>
    <dc:creator>
     <cc:Agent>
      <dc:title>Matplotlib v3.3.2, https://matplotlib.org/</dc:title>
     </cc:Agent>
    </dc:creator>
   </cc:Work>
  </rdf:RDF>
 </metadata>
 <defs>
  <style type="text/css">*{stroke-linecap:butt;stroke-linejoin:round;}</style>
 </defs>
 <g id="figure_1">
  <g id="patch_1">
   <path d="M 0 432 
L 864 432 
L 864 0 
L 0 0 
z
" style="fill:#ffffff;"/>
  </g>
  <g id="axes_1">
   <g id="patch_2">
    <path d="M 108 378 
L 777.6 378 
L 777.6 51.84 
L 108 51.84 
z
" style="fill:#eaeaf2;"/>
   </g>
   <g id="matplotlib.axis_1">
    <g id="xtick_1">
     <g id="text_1">
      <!-- Privately owned company -->
      <g style="fill:#262626;" transform="translate(129.033516 395.373594)scale(0.11 -0.11)">
       <defs>
        <path d="M 7.71875 0 
L 7.71875 71.578125 
L 34.71875 71.578125 
Q 41.84375 71.578125 45.609375 70.90625 
Q 50.875 70.015625 54.4375 67.546875 
Q 58.015625 65.09375 60.1875 60.640625 
Q 62.359375 56.203125 62.359375 50.875 
Q 62.359375 41.75 56.546875 35.421875 
Q 50.734375 29.109375 35.546875 29.109375 
L 17.1875 29.109375 
L 17.1875 0 
z
M 17.1875 37.546875 
L 35.6875 37.546875 
Q 44.875 37.546875 48.734375 40.96875 
Q 52.59375 44.390625 52.59375 50.59375 
Q 52.59375 55.078125 50.3125 58.265625 
Q 48.046875 61.46875 44.34375 62.5 
Q 41.9375 63.140625 35.5 63.140625 
L 17.1875 63.140625 
z
" id="ArialMT-80"/>
        <path d="M 6.5 0 
L 6.5 51.859375 
L 14.40625 51.859375 
L 14.40625 44 
Q 17.4375 49.515625 20 51.265625 
Q 22.5625 53.03125 25.640625 53.03125 
Q 30.078125 53.03125 34.671875 50.203125 
L 31.640625 42.046875 
Q 28.421875 43.953125 25.203125 43.953125 
Q 22.3125 43.953125 20.015625 42.21875 
Q 17.71875 40.484375 16.75 37.40625 
Q 15.28125 32.71875 15.28125 27.15625 
L 15.28125 0 
z
" id="ArialMT-114"/>
        <path d="M 6.640625 61.46875 
L 6.640625 71.578125 
L 15.4375 71.578125 
L 15.4375 61.46875 
z
M 6.640625 0 
L 6.640625 51.859375 
L 15.4375 51.859375 
L 15.4375 0 
z
" id="ArialMT-105"/>
        <path d="M 21 0 
L 1.265625 51.859375 
L 10.546875 51.859375 
L 21.6875 20.796875 
Q 23.484375 15.765625 25 10.359375 
Q 26.171875 14.453125 28.265625 20.21875 
L 39.796875 51.859375 
L 48.828125 51.859375 
L 29.203125 0 
z
" id="ArialMT-118"/>
        <path d="M 40.4375 6.390625 
Q 35.546875 2.25 31.03125 0.53125 
Q 26.515625 -1.171875 21.34375 -1.171875 
Q 12.796875 -1.171875 8.203125 3 
Q 3.609375 7.171875 3.609375 13.671875 
Q 3.609375 17.484375 5.34375 20.625 
Q 7.078125 23.78125 9.890625 25.6875 
Q 12.703125 27.59375 16.21875 28.5625 
Q 18.796875 29.25 24.03125 29.890625 
Q 34.671875 31.15625 39.703125 32.90625 
Q 39.75 34.71875 39.75 35.203125 
Q 39.75 40.578125 37.25 42.78125 
Q 33.890625 45.75 27.25 45.75 
Q 21.046875 45.75 18.09375 43.578125 
Q 15.140625 41.40625 13.71875 35.890625 
L 5.125 37.0625 
Q 6.296875 42.578125 8.984375 45.96875 
Q 11.671875 49.359375 16.75 51.1875 
Q 21.828125 53.03125 28.515625 53.03125 
Q 35.15625 53.03125 39.296875 51.46875 
Q 43.453125 49.90625 45.40625 47.53125 
Q 47.359375 45.171875 48.140625 41.546875 
Q 48.578125 39.3125 48.578125 33.453125 
L 48.578125 21.734375 
Q 48.578125 9.46875 49.140625 6.21875 
Q 49.703125 2.984375 51.375 0 
L 42.1875 0 
Q 40.828125 2.734375 40.4375 6.390625 
z
M 39.703125 26.03125 
Q 34.90625 24.078125 25.34375 22.703125 
Q 19.921875 21.921875 17.671875 20.9375 
Q 15.4375 19.96875 14.203125 18.09375 
Q 12.984375 16.21875 12.984375 13.921875 
Q 12.984375 10.40625 15.640625 8.0625 
Q 18.3125 5.71875 23.4375 5.71875 
Q 28.515625 5.71875 32.46875 7.9375 
Q 36.421875 10.15625 38.28125 14.015625 
Q 39.703125 17 39.703125 22.796875 
z
" id="ArialMT-97"/>
        <path d="M 25.78125 7.859375 
L 27.046875 0.09375 
Q 23.34375 -0.6875 20.40625 -0.6875 
Q 15.625 -0.6875 12.984375 0.828125 
Q 10.359375 2.34375 9.28125 4.8125 
Q 8.203125 7.28125 8.203125 15.1875 
L 8.203125 45.015625 
L 1.765625 45.015625 
L 1.765625 51.859375 
L 8.203125 51.859375 
L 8.203125 64.703125 
L 16.9375 69.96875 
L 16.9375 51.859375 
L 25.78125 51.859375 
L 25.78125 45.015625 
L 16.9375 45.015625 
L 16.9375 14.703125 
Q 16.9375 10.9375 17.40625 9.859375 
Q 17.875 8.796875 18.921875 8.15625 
Q 19.96875 7.515625 21.921875 7.515625 
Q 23.390625 7.515625 25.78125 7.859375 
z
" id="ArialMT-116"/>
        <path d="M 42.09375 16.703125 
L 51.171875 15.578125 
Q 49.03125 7.625 43.21875 3.21875 
Q 37.40625 -1.171875 28.375 -1.171875 
Q 17 -1.171875 10.328125 5.828125 
Q 3.65625 12.84375 3.65625 25.484375 
Q 3.65625 38.578125 10.390625 45.796875 
Q 17.140625 53.03125 27.875 53.03125 
Q 38.28125 53.03125 44.875 45.953125 
Q 51.46875 38.875 51.46875 26.03125 
Q 51.46875 25.25 51.421875 23.6875 
L 12.75 23.6875 
Q 13.234375 15.140625 17.578125 10.59375 
Q 21.921875 6.0625 28.421875 6.0625 
Q 33.25 6.0625 36.671875 8.59375 
Q 40.09375 11.140625 42.09375 16.703125 
z
M 13.234375 30.90625 
L 42.1875 30.90625 
Q 41.609375 37.453125 38.875 40.71875 
Q 34.671875 45.796875 27.984375 45.796875 
Q 21.921875 45.796875 17.796875 41.75 
Q 13.671875 37.703125 13.234375 30.90625 
z
" id="ArialMT-101"/>
        <path d="M 6.390625 0 
L 6.390625 71.578125 
L 15.1875 71.578125 
L 15.1875 0 
z
" id="ArialMT-108"/>
        <path d="M 6.203125 -19.96875 
L 5.21875 -11.71875 
Q 8.109375 -12.5 10.25 -12.5 
Q 13.1875 -12.5 14.9375 -11.515625 
Q 16.703125 -10.546875 17.828125 -8.796875 
Q 18.65625 -7.46875 20.515625 -2.25 
Q 20.75 -1.515625 21.296875 -0.09375 
L 1.609375 51.859375 
L 11.078125 51.859375 
L 21.875 21.828125 
Q 23.96875 16.109375 25.640625 9.8125 
Q 27.15625 15.875 29.25 21.625 
L 40.328125 51.859375 
L 49.125 51.859375 
L 29.390625 -0.875 
Q 26.21875 -9.421875 24.46875 -12.640625 
Q 22.125 -17 19.09375 -19.015625 
Q 16.0625 -21.046875 11.859375 -21.046875 
Q 9.328125 -21.046875 6.203125 -19.96875 
z
" id="ArialMT-121"/>
        <path id="ArialMT-32"/>
        <path d="M 3.328125 25.921875 
Q 3.328125 40.328125 11.328125 47.265625 
Q 18.015625 53.03125 27.640625 53.03125 
Q 38.328125 53.03125 45.109375 46.015625 
Q 51.90625 39.015625 51.90625 26.65625 
Q 51.90625 16.65625 48.90625 10.90625 
Q 45.90625 5.171875 40.15625 2 
Q 34.421875 -1.171875 27.640625 -1.171875 
Q 16.75 -1.171875 10.03125 5.8125 
Q 3.328125 12.796875 3.328125 25.921875 
z
M 12.359375 25.921875 
Q 12.359375 15.96875 16.703125 11.015625 
Q 21.046875 6.0625 27.640625 6.0625 
Q 34.1875 6.0625 38.53125 11.03125 
Q 42.875 16.015625 42.875 26.21875 
Q 42.875 35.84375 38.5 40.796875 
Q 34.125 45.75 27.640625 45.75 
Q 21.046875 45.75 16.703125 40.8125 
Q 12.359375 35.890625 12.359375 25.921875 
z
" id="ArialMT-111"/>
        <path d="M 16.15625 0 
L 0.296875 51.859375 
L 9.375 51.859375 
L 17.625 21.921875 
L 20.703125 10.796875 
Q 20.90625 11.625 23.390625 21.484375 
L 31.640625 51.859375 
L 40.671875 51.859375 
L 48.4375 21.78125 
L 51.03125 11.859375 
L 54 21.875 
L 62.890625 51.859375 
L 71.4375 51.859375 
L 55.21875 0 
L 46.09375 0 
L 37.84375 31.0625 
L 35.84375 39.890625 
L 25.34375 0 
z
" id="ArialMT-119"/>
        <path d="M 6.59375 0 
L 6.59375 51.859375 
L 14.5 51.859375 
L 14.5 44.484375 
Q 20.21875 53.03125 31 53.03125 
Q 35.6875 53.03125 39.625 51.34375 
Q 43.5625 49.65625 45.515625 46.921875 
Q 47.46875 44.1875 48.25 40.4375 
Q 48.734375 37.984375 48.734375 31.890625 
L 48.734375 0 
L 39.9375 0 
L 39.9375 31.546875 
Q 39.9375 36.921875 38.90625 39.578125 
Q 37.890625 42.234375 35.28125 43.8125 
Q 32.671875 45.40625 29.15625 45.40625 
Q 23.53125 45.40625 19.453125 41.84375 
Q 15.375 38.28125 15.375 28.328125 
L 15.375 0 
z
" id="ArialMT-110"/>
        <path d="M 40.234375 0 
L 40.234375 6.546875 
Q 35.296875 -1.171875 25.734375 -1.171875 
Q 19.53125 -1.171875 14.328125 2.25 
Q 9.125 5.671875 6.265625 11.796875 
Q 3.421875 17.921875 3.421875 25.875 
Q 3.421875 33.640625 6 39.96875 
Q 8.59375 46.296875 13.765625 49.65625 
Q 18.953125 53.03125 25.34375 53.03125 
Q 30.03125 53.03125 33.6875 51.046875 
Q 37.359375 49.078125 39.65625 45.90625 
L 39.65625 71.578125 
L 48.390625 71.578125 
L 48.390625 0 
z
M 12.453125 25.875 
Q 12.453125 15.921875 16.640625 10.984375 
Q 20.84375 6.0625 26.5625 6.0625 
Q 32.328125 6.0625 36.34375 10.765625 
Q 40.375 15.484375 40.375 25.140625 
Q 40.375 35.796875 36.265625 40.765625 
Q 32.171875 45.75 26.171875 45.75 
Q 20.3125 45.75 16.375 40.96875 
Q 12.453125 36.1875 12.453125 25.875 
z
" id="ArialMT-100"/>
        <path d="M 40.4375 19 
L 49.078125 17.875 
Q 47.65625 8.9375 41.8125 3.875 
Q 35.984375 -1.171875 27.484375 -1.171875 
Q 16.84375 -1.171875 10.375 5.78125 
Q 3.90625 12.75 3.90625 25.734375 
Q 3.90625 34.125 6.6875 40.421875 
Q 9.46875 46.734375 15.15625 49.875 
Q 20.84375 53.03125 27.546875 53.03125 
Q 35.984375 53.03125 41.359375 48.75 
Q 46.734375 44.484375 48.25 36.625 
L 39.703125 35.296875 
Q 38.484375 40.53125 35.375 43.15625 
Q 32.28125 45.796875 27.875 45.796875 
Q 21.234375 45.796875 17.078125 41.03125 
Q 12.9375 36.28125 12.9375 25.984375 
Q 12.9375 15.53125 16.9375 10.796875 
Q 20.953125 6.0625 27.390625 6.0625 
Q 32.5625 6.0625 36.03125 9.234375 
Q 39.5 12.40625 40.4375 19 
z
" id="ArialMT-99"/>
        <path d="M 6.59375 0 
L 6.59375 51.859375 
L 14.453125 51.859375 
L 14.453125 44.578125 
Q 16.890625 48.390625 20.9375 50.703125 
Q 25 53.03125 30.171875 53.03125 
Q 35.9375 53.03125 39.625 50.640625 
Q 43.3125 48.25 44.828125 43.953125 
Q 50.984375 53.03125 60.84375 53.03125 
Q 68.5625 53.03125 72.703125 48.75 
Q 76.859375 44.484375 76.859375 35.59375 
L 76.859375 0 
L 68.109375 0 
L 68.109375 32.671875 
Q 68.109375 37.9375 67.25 40.25 
Q 66.40625 42.578125 64.15625 43.984375 
Q 61.921875 45.40625 58.890625 45.40625 
Q 53.421875 45.40625 49.796875 41.765625 
Q 46.1875 38.140625 46.1875 30.125 
L 46.1875 0 
L 37.40625 0 
L 37.40625 33.6875 
Q 37.40625 39.546875 35.25 42.46875 
Q 33.109375 45.40625 28.21875 45.40625 
Q 24.515625 45.40625 21.359375 43.453125 
Q 18.21875 41.5 16.796875 37.734375 
Q 15.375 33.984375 15.375 26.90625 
L 15.375 0 
z
" id="ArialMT-109"/>
        <path d="M 6.59375 -19.875 
L 6.59375 51.859375 
L 14.59375 51.859375 
L 14.59375 45.125 
Q 17.4375 49.078125 21 51.046875 
Q 24.5625 53.03125 29.640625 53.03125 
Q 36.28125 53.03125 41.359375 49.609375 
Q 46.4375 46.1875 49.015625 39.953125 
Q 51.609375 33.734375 51.609375 26.3125 
Q 51.609375 18.359375 48.75 11.984375 
Q 45.90625 5.609375 40.453125 2.21875 
Q 35.015625 -1.171875 29 -1.171875 
Q 24.609375 -1.171875 21.109375 0.6875 
Q 17.625 2.546875 15.375 5.375 
L 15.375 -19.875 
z
M 14.546875 25.640625 
Q 14.546875 15.625 18.59375 10.84375 
Q 22.65625 6.0625 28.421875 6.0625 
Q 34.28125 6.0625 38.453125 11.015625 
Q 42.625 15.96875 42.625 26.375 
Q 42.625 36.28125 38.546875 41.203125 
Q 34.46875 46.140625 28.8125 46.140625 
Q 23.1875 46.140625 18.859375 40.890625 
Q 14.546875 35.640625 14.546875 25.640625 
z
" id="ArialMT-112"/>
       </defs>
       <use xlink:href="#ArialMT-80"/>
       <use x="66.699219" xlink:href="#ArialMT-114"/>
       <use x="100" xlink:href="#ArialMT-105"/>
       <use x="122.216797" xlink:href="#ArialMT-118"/>
       <use x="172.216797" xlink:href="#ArialMT-97"/>
       <use x="227.832031" xlink:href="#ArialMT-116"/>
       <use x="255.615234" xlink:href="#ArialMT-101"/>
       <use x="311.230469" xlink:href="#ArialMT-108"/>
       <use x="333.447266" xlink:href="#ArialMT-121"/>
       <use x="383.447266" xlink:href="#ArialMT-32"/>
       <use x="411.230469" xlink:href="#ArialMT-111"/>
       <use x="466.845703" xlink:href="#ArialMT-119"/>
       <use x="539.0625" xlink:href="#ArialMT-110"/>
       <use x="594.677734" xlink:href="#ArialMT-101"/>
       <use x="650.292969" xlink:href="#ArialMT-100"/>
       <use x="705.908203" xlink:href="#ArialMT-32"/>
       <use x="733.691406" xlink:href="#ArialMT-99"/>
       <use x="783.691406" xlink:href="#ArialMT-111"/>
       <use x="839.306641" xlink:href="#ArialMT-109"/>
       <use x="922.607422" xlink:href="#ArialMT-112"/>
       <use x="978.222656" xlink:href="#ArialMT-97"/>
       <use x="1033.837891" xlink:href="#ArialMT-110"/>
       <use x="1089.453125" xlink:href="#ArialMT-121"/>
      </g>
     </g>
    </g>
    <g id="xtick_2">
     <g id="text_2">
      <!-- Publicly traded company -->
      <g style="fill:#262626;" transform="translate(299.183516 395.373594)scale(0.11 -0.11)">
       <defs>
        <path d="M 40.578125 0 
L 40.578125 7.625 
Q 34.515625 -1.171875 24.125 -1.171875 
Q 19.53125 -1.171875 15.546875 0.578125 
Q 11.578125 2.34375 9.640625 5 
Q 7.71875 7.671875 6.9375 11.53125 
Q 6.390625 14.109375 6.390625 19.734375 
L 6.390625 51.859375 
L 15.1875 51.859375 
L 15.1875 23.09375 
Q 15.1875 16.21875 15.71875 13.8125 
Q 16.546875 10.359375 19.234375 8.375 
Q 21.921875 6.390625 25.875 6.390625 
Q 29.828125 6.390625 33.296875 8.421875 
Q 36.765625 10.453125 38.203125 13.9375 
Q 39.65625 17.4375 39.65625 24.078125 
L 39.65625 51.859375 
L 48.4375 51.859375 
L 48.4375 0 
z
" id="ArialMT-117"/>
        <path d="M 14.703125 0 
L 6.546875 0 
L 6.546875 71.578125 
L 15.328125 71.578125 
L 15.328125 46.046875 
Q 20.90625 53.03125 29.546875 53.03125 
Q 34.328125 53.03125 38.59375 51.09375 
Q 42.875 49.171875 45.625 45.671875 
Q 48.390625 42.1875 49.953125 37.25 
Q 51.515625 32.328125 51.515625 26.703125 
Q 51.515625 13.375 44.921875 6.09375 
Q 38.328125 -1.171875 29.109375 -1.171875 
Q 19.921875 -1.171875 14.703125 6.5 
z
M 14.59375 26.3125 
Q 14.59375 17 17.140625 12.84375 
Q 21.296875 6.0625 28.375 6.0625 
Q 34.125 6.0625 38.328125 11.0625 
Q 42.53125 16.0625 42.53125 25.984375 
Q 42.53125 36.140625 38.5 40.96875 
Q 34.46875 45.796875 28.765625 45.796875 
Q 23 45.796875 18.796875 40.796875 
Q 14.59375 35.796875 14.59375 26.3125 
z
" id="ArialMT-98"/>
       </defs>
       <use xlink:href="#ArialMT-80"/>
       <use x="66.699219" xlink:href="#ArialMT-117"/>
       <use x="122.314453" xlink:href="#ArialMT-98"/>
       <use x="177.929688" xlink:href="#ArialMT-108"/>
       <use x="200.146484" xlink:href="#ArialMT-105"/>
       <use x="222.363281" xlink:href="#ArialMT-99"/>
       <use x="272.363281" xlink:href="#ArialMT-108"/>
       <use x="294.580078" xlink:href="#ArialMT-121"/>
       <use x="344.580078" xlink:href="#ArialMT-32"/>
       <use x="372.363281" xlink:href="#ArialMT-116"/>
       <use x="400.146484" xlink:href="#ArialMT-114"/>
       <use x="433.447266" xlink:href="#ArialMT-97"/>
       <use x="489.0625" xlink:href="#ArialMT-100"/>
       <use x="544.677734" xlink:href="#ArialMT-101"/>
       <use x="600.292969" xlink:href="#ArialMT-100"/>
       <use x="655.908203" xlink:href="#ArialMT-32"/>
       <use x="683.691406" xlink:href="#ArialMT-99"/>
       <use x="733.691406" xlink:href="#ArialMT-111"/>
       <use x="789.306641" xlink:href="#ArialMT-109"/>
       <use x="872.607422" xlink:href="#ArialMT-112"/>
       <use x="928.222656" xlink:href="#ArialMT-97"/>
       <use x="983.837891" xlink:href="#ArialMT-110"/>
       <use x="1039.453125" xlink:href="#ArialMT-121"/>
      </g>
     </g>
    </g>
    <g id="xtick_3">
     <g id="text_3">
      <!-- Government -->
      <g style="fill:#262626;" transform="translate(496.238828 395.373594)scale(0.11 -0.11)">
       <defs>
        <path d="M 41.21875 28.078125 
L 41.21875 36.46875 
L 71.53125 36.53125 
L 71.53125 9.96875 
Q 64.546875 4.390625 57.125 1.578125 
Q 49.703125 -1.21875 41.890625 -1.21875 
Q 31.34375 -1.21875 22.71875 3.296875 
Q 14.109375 7.8125 9.71875 16.359375 
Q 5.328125 24.90625 5.328125 35.453125 
Q 5.328125 45.90625 9.6875 54.953125 
Q 14.0625 64.015625 22.265625 68.40625 
Q 30.46875 72.796875 41.15625 72.796875 
Q 48.921875 72.796875 55.1875 70.28125 
Q 61.46875 67.78125 65.03125 63.28125 
Q 68.609375 58.796875 70.453125 51.5625 
L 61.921875 49.21875 
Q 60.296875 54.6875 57.90625 57.8125 
Q 55.515625 60.9375 51.0625 62.8125 
Q 46.625 64.703125 41.21875 64.703125 
Q 34.71875 64.703125 29.984375 62.71875 
Q 25.25 60.75 22.34375 57.515625 
Q 19.4375 54.296875 17.828125 50.4375 
Q 15.09375 43.796875 15.09375 36.03125 
Q 15.09375 26.46875 18.390625 20.015625 
Q 21.6875 13.578125 27.984375 10.453125 
Q 34.28125 7.328125 41.359375 7.328125 
Q 47.515625 7.328125 53.375 9.6875 
Q 59.234375 12.0625 62.25 14.75 
L 62.25 28.078125 
z
" id="ArialMT-71"/>
       </defs>
       <use xlink:href="#ArialMT-71"/>
       <use x="77.783203" xlink:href="#ArialMT-111"/>
       <use x="133.398438" xlink:href="#ArialMT-118"/>
       <use x="183.398438" xlink:href="#ArialMT-101"/>
       <use x="239.013672" xlink:href="#ArialMT-114"/>
       <use x="272.314453" xlink:href="#ArialMT-110"/>
       <use x="327.929688" xlink:href="#ArialMT-109"/>
       <use x="411.230469" xlink:href="#ArialMT-101"/>
       <use x="466.845703" xlink:href="#ArialMT-110"/>
       <use x="522.460938" xlink:href="#ArialMT-116"/>
      </g>
     </g>
    </g>
    <g id="xtick_4">
     <g id="text_4">
      <!-- Self-Employed -->
      <g style="fill:#262626;" transform="translate(658.135391 395.507656)scale(0.11 -0.11)">
       <defs>
        <path d="M 4.5 23 
L 13.421875 23.78125 
Q 14.0625 18.40625 16.375 14.96875 
Q 18.703125 11.53125 23.578125 9.40625 
Q 28.46875 7.28125 34.578125 7.28125 
Q 39.984375 7.28125 44.140625 8.890625 
Q 48.296875 10.5 50.3125 13.296875 
Q 52.34375 16.109375 52.34375 19.4375 
Q 52.34375 22.796875 50.390625 25.3125 
Q 48.4375 27.828125 43.953125 29.546875 
Q 41.0625 30.671875 31.203125 33.03125 
Q 21.34375 35.40625 17.390625 37.5 
Q 12.25 40.1875 9.734375 44.15625 
Q 7.234375 48.140625 7.234375 53.078125 
Q 7.234375 58.5 10.296875 63.203125 
Q 13.375 67.921875 19.28125 70.359375 
Q 25.203125 72.796875 32.421875 72.796875 
Q 40.375 72.796875 46.453125 70.234375 
Q 52.546875 67.671875 55.8125 62.6875 
Q 59.078125 57.71875 59.328125 51.421875 
L 50.25 50.734375 
Q 49.515625 57.515625 45.28125 60.984375 
Q 41.0625 64.453125 32.8125 64.453125 
Q 24.21875 64.453125 20.28125 61.296875 
Q 16.359375 58.15625 16.359375 53.71875 
Q 16.359375 49.859375 19.140625 47.359375 
Q 21.875 44.875 33.421875 42.265625 
Q 44.96875 39.65625 49.265625 37.703125 
Q 55.515625 34.8125 58.484375 30.390625 
Q 61.46875 25.984375 61.46875 20.21875 
Q 61.46875 14.5 58.203125 9.4375 
Q 54.9375 4.390625 48.796875 1.578125 
Q 42.671875 -1.21875 35.015625 -1.21875 
Q 25.296875 -1.21875 18.71875 1.609375 
Q 12.15625 4.4375 8.421875 10.125 
Q 4.6875 15.828125 4.5 23 
z
" id="ArialMT-83"/>
        <path d="M 8.6875 0 
L 8.6875 45.015625 
L 0.921875 45.015625 
L 0.921875 51.859375 
L 8.6875 51.859375 
L 8.6875 57.375 
Q 8.6875 62.59375 9.625 65.140625 
Q 10.890625 68.5625 14.078125 70.671875 
Q 17.28125 72.796875 23.046875 72.796875 
Q 26.765625 72.796875 31.25 71.921875 
L 29.9375 64.265625 
Q 27.203125 64.75 24.75 64.75 
Q 20.75 64.75 19.09375 63.03125 
Q 17.4375 61.328125 17.4375 56.640625 
L 17.4375 51.859375 
L 27.546875 51.859375 
L 27.546875 45.015625 
L 17.4375 45.015625 
L 17.4375 0 
z
" id="ArialMT-102"/>
        <path d="M 3.171875 21.484375 
L 3.171875 30.328125 
L 30.171875 30.328125 
L 30.171875 21.484375 
z
" id="ArialMT-45"/>
        <path d="M 7.90625 0 
L 7.90625 71.578125 
L 59.671875 71.578125 
L 59.671875 63.140625 
L 17.390625 63.140625 
L 17.390625 41.21875 
L 56.984375 41.21875 
L 56.984375 32.8125 
L 17.390625 32.8125 
L 17.390625 8.453125 
L 61.328125 8.453125 
L 61.328125 0 
z
" id="ArialMT-69"/>
       </defs>
       <use xlink:href="#ArialMT-83"/>
       <use x="66.699219" xlink:href="#ArialMT-101"/>
       <use x="122.314453" xlink:href="#ArialMT-108"/>
       <use x="144.53125" xlink:href="#ArialMT-102"/>
       <use x="172.314453" xlink:href="#ArialMT-45"/>
       <use x="205.615234" xlink:href="#ArialMT-69"/>
       <use x="272.314453" xlink:href="#ArialMT-109"/>
       <use x="355.615234" xlink:href="#ArialMT-112"/>
       <use x="411.230469" xlink:href="#ArialMT-108"/>
       <use x="433.447266" xlink:href="#ArialMT-111"/>
       <use x="489.0625" xlink:href="#ArialMT-121"/>
       <use x="539.0625" xlink:href="#ArialMT-101"/>
       <use x="594.677734" xlink:href="#ArialMT-100"/>
      </g>
     </g>
    </g>
    <g id="text_5">
     <!-- Employer Type -->
     <g style="fill:#262626;" transform="translate(402.889688 410.412188)scale(0.12 -0.12)">
      <defs>
       <path d="M 25.921875 0 
L 25.921875 63.140625 
L 2.34375 63.140625 
L 2.34375 71.578125 
L 59.078125 71.578125 
L 59.078125 63.140625 
L 35.40625 63.140625 
L 35.40625 0 
z
" id="ArialMT-84"/>
      </defs>
      <use xlink:href="#ArialMT-69"/>
      <use x="66.699219" xlink:href="#ArialMT-109"/>
      <use x="150" xlink:href="#ArialMT-112"/>
      <use x="205.615234" xlink:href="#ArialMT-108"/>
      <use x="227.832031" xlink:href="#ArialMT-111"/>
      <use x="283.447266" xlink:href="#ArialMT-121"/>
      <use x="333.447266" xlink:href="#ArialMT-101"/>
      <use x="389.0625" xlink:href="#ArialMT-114"/>
      <use x="422.363281" xlink:href="#ArialMT-32"/>
      <use x="448.396484" xlink:href="#ArialMT-84"/>
      <use x="503.980469" xlink:href="#ArialMT-121"/>
      <use x="553.980469" xlink:href="#ArialMT-112"/>
      <use x="609.595703" xlink:href="#ArialMT-101"/>
     </g>
    </g>
   </g>
   <g id="matplotlib.axis_2">
    <g id="ytick_1">
     <g id="line2d_1">
      <path clip-path="url(#p418375af2f)" d="M 108 363.174545 
L 777.6 363.174545 
" style="fill:none;stroke:#ffffff;stroke-linecap:round;"/>
     </g>
     <g id="text_6">
      <!-- 50 -->
      <g style="fill:#262626;" transform="translate(86.265938 367.111342)scale(0.11 -0.11)">
       <defs>
        <path d="M 4.15625 18.75 
L 13.375 19.53125 
Q 14.40625 12.796875 18.140625 9.390625 
Q 21.875 6 27.15625 6 
Q 33.5 6 37.890625 10.78125 
Q 42.28125 15.578125 42.28125 23.484375 
Q 42.28125 31 38.0625 35.34375 
Q 33.84375 39.703125 27 39.703125 
Q 22.75 39.703125 19.328125 37.765625 
Q 15.921875 35.84375 13.96875 32.765625 
L 5.71875 33.84375 
L 12.640625 70.609375 
L 48.25 70.609375 
L 48.25 62.203125 
L 19.671875 62.203125 
L 15.828125 42.96875 
Q 22.265625 47.46875 29.34375 47.46875 
Q 38.71875 47.46875 45.15625 40.96875 
Q 51.609375 34.46875 51.609375 24.265625 
Q 51.609375 14.546875 45.953125 7.46875 
Q 39.0625 -1.21875 27.15625 -1.21875 
Q 17.390625 -1.21875 11.203125 4.25 
Q 5.03125 9.71875 4.15625 18.75 
z
" id="ArialMT-53"/>
        <path d="M 4.15625 35.296875 
Q 4.15625 48 6.765625 55.734375 
Q 9.375 63.484375 14.515625 67.671875 
Q 19.671875 71.875 27.484375 71.875 
Q 33.25 71.875 37.59375 69.546875 
Q 41.9375 67.234375 44.765625 62.859375 
Q 47.609375 58.5 49.21875 52.21875 
Q 50.828125 45.953125 50.828125 35.296875 
Q 50.828125 22.703125 48.234375 14.96875 
Q 45.65625 7.234375 40.5 3 
Q 35.359375 -1.21875 27.484375 -1.21875 
Q 17.140625 -1.21875 11.234375 6.203125 
Q 4.15625 15.140625 4.15625 35.296875 
z
M 13.1875 35.296875 
Q 13.1875 17.671875 17.3125 11.828125 
Q 21.4375 6 27.484375 6 
Q 33.546875 6 37.671875 11.859375 
Q 41.796875 17.71875 41.796875 35.296875 
Q 41.796875 52.984375 37.671875 58.78125 
Q 33.546875 64.59375 27.390625 64.59375 
Q 21.34375 64.59375 17.71875 59.46875 
Q 13.1875 52.9375 13.1875 35.296875 
z
" id="ArialMT-48"/>
       </defs>
       <use xlink:href="#ArialMT-53"/>
       <use x="55.615234" xlink:href="#ArialMT-48"/>
      </g>
     </g>
    </g>
    <g id="ytick_2">
     <g id="line2d_2">
      <path clip-path="url(#p418375af2f)" d="M 108 298.716047 
L 777.6 298.716047 
" style="fill:none;stroke:#ffffff;stroke-linecap:round;"/>
     </g>
     <g id="text_7">
      <!-- 100 -->
      <g style="fill:#262626;" transform="translate(80.148906 302.652844)scale(0.11 -0.11)">
       <defs>
        <path d="M 37.25 0 
L 28.46875 0 
L 28.46875 56 
Q 25.296875 52.984375 20.140625 49.953125 
Q 14.984375 46.921875 10.890625 45.40625 
L 10.890625 53.90625 
Q 18.265625 57.375 23.78125 62.296875 
Q 29.296875 67.234375 31.59375 71.875 
L 37.25 71.875 
z
" id="ArialMT-49"/>
       </defs>
       <use xlink:href="#ArialMT-49"/>
       <use x="55.615234" xlink:href="#ArialMT-48"/>
       <use x="111.230469" xlink:href="#ArialMT-48"/>
      </g>
     </g>
    </g>
    <g id="ytick_3">
     <g id="line2d_3">
      <path clip-path="url(#p418375af2f)" d="M 108 234.257549 
L 777.6 234.257549 
" style="fill:none;stroke:#ffffff;stroke-linecap:round;"/>
     </g>
     <g id="text_8">
      <!-- 150 -->
      <g style="fill:#262626;" transform="translate(80.148906 238.194346)scale(0.11 -0.11)">
       <use xlink:href="#ArialMT-49"/>
       <use x="55.615234" xlink:href="#ArialMT-53"/>
       <use x="111.230469" xlink:href="#ArialMT-48"/>
      </g>
     </g>
    </g>
    <g id="ytick_4">
     <g id="line2d_4">
      <path clip-path="url(#p418375af2f)" d="M 108 169.799051 
L 777.6 169.799051 
" style="fill:none;stroke:#ffffff;stroke-linecap:round;"/>
     </g>
     <g id="text_9">
      <!-- 200 -->
      <g style="fill:#262626;" transform="translate(80.148906 173.735848)scale(0.11 -0.11)">
       <defs>
        <path d="M 50.34375 8.453125 
L 50.34375 0 
L 3.03125 0 
Q 2.9375 3.171875 4.046875 6.109375 
Q 5.859375 10.9375 9.828125 15.625 
Q 13.8125 20.3125 21.34375 26.46875 
Q 33.015625 36.03125 37.109375 41.625 
Q 41.21875 47.21875 41.21875 52.203125 
Q 41.21875 57.421875 37.46875 61 
Q 33.734375 64.59375 27.734375 64.59375 
Q 21.390625 64.59375 17.578125 60.78125 
Q 13.765625 56.984375 13.71875 50.25 
L 4.6875 51.171875 
Q 5.609375 61.28125 11.65625 66.578125 
Q 17.71875 71.875 27.9375 71.875 
Q 38.234375 71.875 44.234375 66.15625 
Q 50.25 60.453125 50.25 52 
Q 50.25 47.703125 48.484375 43.546875 
Q 46.734375 39.40625 42.65625 34.8125 
Q 38.578125 30.21875 29.109375 22.21875 
Q 21.1875 15.578125 18.9375 13.203125 
Q 16.703125 10.84375 15.234375 8.453125 
z
" id="ArialMT-50"/>
       </defs>
       <use xlink:href="#ArialMT-50"/>
       <use x="55.615234" xlink:href="#ArialMT-48"/>
       <use x="111.230469" xlink:href="#ArialMT-48"/>
      </g>
     </g>
    </g>
    <g id="ytick_5">
     <g id="line2d_5">
      <path clip-path="url(#p418375af2f)" d="M 108 105.340553 
L 777.6 105.340553 
" style="fill:none;stroke:#ffffff;stroke-linecap:round;"/>
     </g>
     <g id="text_10">
      <!-- 250 -->
      <g style="fill:#262626;" transform="translate(80.148906 109.27735)scale(0.11 -0.11)">
       <use xlink:href="#ArialMT-50"/>
       <use x="55.615234" xlink:href="#ArialMT-53"/>
       <use x="111.230469" xlink:href="#ArialMT-48"/>
      </g>
     </g>
    </g>
    <g id="text_11">
     <!-- Annual income (thousands) -->
     <g style="fill:#262626;" transform="translate(73.623281 287.957812)rotate(-90)scale(0.12 -0.12)">
      <defs>
       <path d="M -0.140625 0 
L 27.34375 71.578125 
L 37.546875 71.578125 
L 66.84375 0 
L 56.0625 0 
L 47.703125 21.6875 
L 17.78125 21.6875 
L 9.90625 0 
z
M 20.515625 29.390625 
L 44.78125 29.390625 
L 37.3125 49.21875 
Q 33.890625 58.25 32.234375 64.0625 
Q 30.859375 57.171875 28.375 50.390625 
z
" id="ArialMT-65"/>
       <path d="M 23.390625 -21.046875 
Q 16.109375 -11.859375 11.078125 0.4375 
Q 6.0625 12.75 6.0625 25.921875 
Q 6.0625 37.546875 9.8125 48.1875 
Q 14.203125 60.546875 23.390625 72.796875 
L 29.6875 72.796875 
Q 23.78125 62.640625 21.875 58.296875 
Q 18.890625 51.5625 17.1875 44.234375 
Q 15.09375 35.109375 15.09375 25.875 
Q 15.09375 2.390625 29.6875 -21.046875 
z
" id="ArialMT-40"/>
       <path d="M 6.59375 0 
L 6.59375 71.578125 
L 15.375 71.578125 
L 15.375 45.90625 
Q 21.53125 53.03125 30.90625 53.03125 
Q 36.671875 53.03125 40.921875 50.75 
Q 45.171875 48.484375 47 44.484375 
Q 48.828125 40.484375 48.828125 32.859375 
L 48.828125 0 
L 40.046875 0 
L 40.046875 32.859375 
Q 40.046875 39.453125 37.1875 42.453125 
Q 34.328125 45.453125 29.109375 45.453125 
Q 25.203125 45.453125 21.75 43.421875 
Q 18.3125 41.40625 16.84375 37.9375 
Q 15.375 34.46875 15.375 28.375 
L 15.375 0 
z
" id="ArialMT-104"/>
       <path d="M 3.078125 15.484375 
L 11.765625 16.84375 
Q 12.5 11.625 15.84375 8.84375 
Q 19.1875 6.0625 25.203125 6.0625 
Q 31.25 6.0625 34.171875 8.515625 
Q 37.109375 10.984375 37.109375 14.3125 
Q 37.109375 17.28125 34.515625 19 
Q 32.71875 20.171875 25.53125 21.96875 
Q 15.875 24.421875 12.140625 26.203125 
Q 8.40625 27.984375 6.46875 31.125 
Q 4.546875 34.28125 4.546875 38.09375 
Q 4.546875 41.546875 6.125 44.5 
Q 7.71875 47.46875 10.453125 49.421875 
Q 12.5 50.921875 16.03125 51.96875 
Q 19.578125 53.03125 23.640625 53.03125 
Q 29.734375 53.03125 34.34375 51.265625 
Q 38.96875 49.515625 41.15625 46.5 
Q 43.359375 43.5 44.1875 38.484375 
L 35.59375 37.3125 
Q 35.015625 41.3125 32.203125 43.546875 
Q 29.390625 45.796875 24.265625 45.796875 
Q 18.21875 45.796875 15.625 43.796875 
Q 13.03125 41.796875 13.03125 39.109375 
Q 13.03125 37.40625 14.109375 36.03125 
Q 15.1875 34.625 17.484375 33.6875 
Q 18.796875 33.203125 25.25 31.453125 
Q 34.578125 28.953125 38.25 27.359375 
Q 41.9375 25.78125 44.03125 22.75 
Q 46.140625 19.734375 46.140625 15.234375 
Q 46.140625 10.84375 43.578125 6.953125 
Q 41.015625 3.078125 36.171875 0.953125 
Q 31.34375 -1.171875 25.25 -1.171875 
Q 15.140625 -1.171875 9.84375 3.03125 
Q 4.546875 7.234375 3.078125 15.484375 
z
" id="ArialMT-115"/>
       <path d="M 12.359375 -21.046875 
L 6.0625 -21.046875 
Q 20.65625 2.390625 20.65625 25.875 
Q 20.65625 35.0625 18.5625 44.09375 
Q 16.890625 51.421875 13.921875 58.15625 
Q 12.015625 62.546875 6.0625 72.796875 
L 12.359375 72.796875 
Q 21.53125 60.546875 25.921875 48.1875 
Q 29.6875 37.546875 29.6875 25.921875 
Q 29.6875 12.75 24.625 0.4375 
Q 19.578125 -11.859375 12.359375 -21.046875 
z
" id="ArialMT-41"/>
      </defs>
      <use xlink:href="#ArialMT-65"/>
      <use x="66.699219" xlink:href="#ArialMT-110"/>
      <use x="122.314453" xlink:href="#ArialMT-110"/>
      <use x="177.929688" xlink:href="#ArialMT-117"/>
      <use x="233.544922" xlink:href="#ArialMT-97"/>
      <use x="289.160156" xlink:href="#ArialMT-108"/>
      <use x="311.376953" xlink:href="#ArialMT-32"/>
      <use x="339.160156" xlink:href="#ArialMT-105"/>
      <use x="361.376953" xlink:href="#ArialMT-110"/>
      <use x="416.992188" xlink:href="#ArialMT-99"/>
      <use x="466.992188" xlink:href="#ArialMT-111"/>
      <use x="522.607422" xlink:href="#ArialMT-109"/>
      <use x="605.908203" xlink:href="#ArialMT-101"/>
      <use x="661.523438" xlink:href="#ArialMT-32"/>
      <use x="689.306641" xlink:href="#ArialMT-40"/>
      <use x="722.607422" xlink:href="#ArialMT-116"/>
      <use x="750.390625" xlink:href="#ArialMT-104"/>
      <use x="806.005859" xlink:href="#ArialMT-111"/>
      <use x="861.621094" xlink:href="#ArialMT-117"/>
      <use x="917.236328" xlink:href="#ArialMT-115"/>
      <use x="967.236328" xlink:href="#ArialMT-97"/>
      <use x="1022.851562" xlink:href="#ArialMT-110"/>
      <use x="1078.466797" xlink:href="#ArialMT-100"/>
      <use x="1134.082031" xlink:href="#ArialMT-115"/>
      <use x="1184.082031" xlink:href="#ArialMT-41"/>
     </g>
    </g>
   </g>
   <g id="PolyCollection_1">
    <defs>
     <path d="M 213.549142 -68.825455 
L 169.850858 -68.825455 
L 167.494707 -71.690277 
L 165.05605 -74.555099 
L 162.554364 -77.419921 
L 160.010622 -80.284743 
L 157.446711 -83.149565 
L 154.884789 -86.014387 
L 152.346637 -88.879209 
L 149.853022 -91.744032 
L 147.423119 -94.608854 
L 145.074035 -97.473676 
L 142.820454 -100.338498 
L 140.674438 -103.20332 
L 138.645406 -106.068142 
L 136.740284 -108.932964 
L 134.963827 -111.797787 
L 133.319084 -114.662609 
L 131.80798 -117.527431 
L 130.431963 -120.392253 
L 129.192659 -123.257075 
L 128.092484 -126.121897 
L 127.135156 -128.986719 
L 126.326049 -131.851542 
L 125.672353 -134.716364 
L 125.183014 -137.581186 
L 124.868441 -140.446008 
L 124.74 -143.31083 
L 124.809314 -146.175652 
L 125.087421 -149.040474 
L 125.583857 -151.905296 
L 126.305728 -154.770119 
L 127.256839 -157.634941 
L 128.436975 -160.499763 
L 129.841358 -163.364585 
L 131.460372 -166.229407 
L 133.279537 -169.094229 
L 135.279784 -171.959051 
L 137.437976 -174.823874 
L 139.727672 -177.688696 
L 142.120056 -180.553518 
L 144.584986 -183.41834 
L 147.092082 -186.283162 
L 149.611776 -189.147984 
L 152.116276 -192.012806 
L 154.580377 -194.877628 
L 156.982078 -197.742451 
L 159.302995 -200.607273 
L 161.528548 -203.472095 
L 163.647952 -206.336917 
L 165.654019 -209.201739 
L 167.542818 -212.066561 
L 169.313231 -214.931383 
L 170.966442 -217.796206 
L 172.505409 -220.661028 
L 173.934352 -223.52585 
L 175.258283 -226.390672 
L 176.482604 -229.255494 
L 177.612782 -232.120316 
L 178.65411 -234.985138 
L 179.611548 -237.84996 
L 180.48964 -240.714783 
L 181.292495 -243.579605 
L 182.023815 -246.444427 
L 182.686971 -249.309249 
L 183.285087 -252.174071 
L 183.821155 -255.038893 
L 184.298135 -257.903715 
L 184.719061 -260.768538 
L 185.087125 -263.63336 
L 185.405743 -266.498182 
L 185.678603 -269.363004 
L 185.909678 -272.227826 
L 186.103222 -275.092648 
L 186.26373 -277.95747 
L 186.395875 -280.822292 
L 186.504428 -283.687115 
L 186.594153 -286.551937 
L 186.669692 -289.416759 
L 186.735447 -292.281581 
L 186.795466 -295.146403 
L 186.853338 -298.011225 
L 186.91211 -300.876047 
L 186.974234 -303.74087 
L 187.041538 -306.605692 
L 187.115241 -309.470514 
L 187.195996 -312.335336 
L 187.283963 -315.200158 
L 187.378915 -318.06498 
L 187.480347 -320.929802 
L 187.5876 -323.794625 
L 187.699977 -326.659447 
L 187.816846 -329.524269 
L 187.937712 -332.389091 
L 188.062266 -335.253913 
L 188.190404 -338.118735 
L 188.322198 -340.983557 
L 188.457863 -343.848379 
L 188.597675 -346.713202 
L 188.741898 -349.578024 
L 188.890697 -352.442846 
L 194.509303 -352.442846 
L 194.509303 -352.442846 
L 194.658102 -349.578024 
L 194.802325 -346.713202 
L 194.942137 -343.848379 
L 195.077802 -340.983557 
L 195.209596 -338.118735 
L 195.337734 -335.253913 
L 195.462288 -332.389091 
L 195.583154 -329.524269 
L 195.700023 -326.659447 
L 195.8124 -323.794625 
L 195.919653 -320.929802 
L 196.021085 -318.06498 
L 196.116037 -315.200158 
L 196.204004 -312.335336 
L 196.284759 -309.470514 
L 196.358462 -306.605692 
L 196.425766 -303.74087 
L 196.48789 -300.876047 
L 196.546662 -298.011225 
L 196.604534 -295.146403 
L 196.664553 -292.281581 
L 196.730308 -289.416759 
L 196.805847 -286.551937 
L 196.895572 -283.687115 
L 197.004125 -280.822292 
L 197.13627 -277.95747 
L 197.296778 -275.092648 
L 197.490322 -272.227826 
L 197.721397 -269.363004 
L 197.994257 -266.498182 
L 198.312875 -263.63336 
L 198.680939 -260.768538 
L 199.101865 -257.903715 
L 199.578845 -255.038893 
L 200.114913 -252.174071 
L 200.713029 -249.309249 
L 201.376185 -246.444427 
L 202.107505 -243.579605 
L 202.91036 -240.714783 
L 203.788452 -237.84996 
L 204.74589 -234.985138 
L 205.787218 -232.120316 
L 206.917396 -229.255494 
L 208.141717 -226.390672 
L 209.465648 -223.52585 
L 210.894591 -220.661028 
L 212.433558 -217.796206 
L 214.086769 -214.931383 
L 215.857182 -212.066561 
L 217.745981 -209.201739 
L 219.752048 -206.336917 
L 221.871452 -203.472095 
L 224.097005 -200.607273 
L 226.417922 -197.742451 
L 228.819623 -194.877628 
L 231.283724 -192.012806 
L 233.788224 -189.147984 
L 236.307918 -186.283162 
L 238.815014 -183.41834 
L 241.279944 -180.553518 
L 243.672328 -177.688696 
L 245.962024 -174.823874 
L 248.120216 -171.959051 
L 250.120463 -169.094229 
L 251.939628 -166.229407 
L 253.558642 -163.364585 
L 254.963025 -160.499763 
L 256.143161 -157.634941 
L 257.094272 -154.770119 
L 257.816143 -151.905296 
L 258.312579 -149.040474 
L 258.590686 -146.175652 
L 258.66 -143.31083 
L 258.531559 -140.446008 
L 258.216986 -137.581186 
L 257.727647 -134.716364 
L 257.073951 -131.851542 
L 256.264844 -128.986719 
L 255.307516 -126.121897 
L 254.207341 -123.257075 
L 252.968037 -120.392253 
L 251.59202 -117.527431 
L 250.080916 -114.662609 
L 248.436173 -111.797787 
L 246.659716 -108.932964 
L 244.754594 -106.068142 
L 242.725562 -103.20332 
L 240.579546 -100.338498 
L 238.325965 -97.473676 
L 235.976881 -94.608854 
L 233.546978 -91.744032 
L 231.053363 -88.879209 
L 228.515211 -86.014387 
L 225.953289 -83.149565 
L 223.389378 -80.284743 
L 220.845636 -77.419921 
L 218.34395 -74.555099 
L 215.905293 -71.690277 
L 213.549142 -68.825455 
z
" id="m7e572e7ddd" style="stroke:#4c4c4c;stroke-width:1.5;"/>
    </defs>
    <g clip-path="url(#p418375af2f)">
     <use style="fill:#5875a4;stroke:#4c4c4c;stroke-width:1.5;" x="0" xlink:href="#m7e572e7ddd" y="432"/>
    </g>
   </g>
   <g id="PolyCollection_2">
    <defs>
     <path d="M 370.687471 -92.030514 
L 347.512529 -92.030514 
L 346.801697 -94.205174 
L 346.088349 -96.379835 
L 345.373936 -98.554495 
L 344.659623 -100.729156 
L 343.946329 -102.903816 
L 343.234799 -105.078476 
L 342.525684 -107.253137 
L 341.819633 -109.427797 
L 341.117391 -111.602458 
L 340.419892 -113.777118 
L 339.728344 -115.951779 
L 339.044294 -118.126439 
L 338.369677 -120.3011 
L 337.70683 -122.47576 
L 337.058484 -124.65042 
L 336.427727 -126.825081 
L 335.81793 -128.999741 
L 335.232662 -131.174402 
L 334.675574 -133.349062 
L 334.150278 -135.523723 
L 333.660216 -137.698383 
L 333.208536 -139.873043 
L 332.797973 -142.047704 
L 332.430751 -144.222364 
L 332.108507 -146.397025 
L 331.832239 -148.571685 
L 331.602291 -150.746346 
L 331.418356 -152.921006 
L 331.279518 -155.095667 
L 331.184314 -157.270327 
L 331.130813 -159.444987 
L 331.116716 -161.619648 
L 331.139465 -163.794308 
L 331.196346 -165.968969 
L 331.284595 -168.143629 
L 331.401499 -170.31829 
L 331.544476 -172.49295 
L 331.711146 -174.66761 
L 331.899383 -176.842271 
L 332.107353 -179.016931 
L 332.333532 -181.191592 
L 332.576715 -183.366252 
L 332.83601 -185.540913 
L 333.110821 -187.715573 
L 333.400829 -189.890234 
L 333.705966 -192.064894 
L 334.026381 -194.239554 
L 334.362415 -196.414215 
L 334.714563 -198.588875 
L 335.083441 -200.763536 
L 335.469754 -202.938196 
L 335.874251 -205.112857 
L 336.297691 -207.287517 
L 336.740795 -209.462178 
L 337.204205 -211.636838 
L 337.688432 -213.811498 
L 338.193813 -215.986159 
L 338.720457 -218.160819 
L 339.268204 -220.33548 
L 339.836584 -222.51014 
L 340.424786 -224.684801 
L 341.031631 -226.859461 
L 341.655561 -229.034121 
L 342.294639 -231.208782 
L 342.946562 -233.383442 
L 343.608687 -235.558103 
L 344.278067 -237.732763 
L 344.951501 -239.907424 
L 345.625594 -242.082084 
L 346.296822 -244.256745 
L 346.961597 -246.431405 
L 347.616344 -248.606065 
L 348.257571 -250.780726 
L 348.881932 -252.955386 
L 349.486298 -255.130047 
L 350.067807 -257.304707 
L 350.62392 -259.479368 
L 351.152457 -261.654028 
L 351.651638 -263.828688 
L 352.120098 -266.003349 
L 352.556915 -268.178009 
L 352.961608 -270.35267 
L 353.334143 -272.52733 
L 353.674926 -274.701991 
L 353.984782 -276.876651 
L 354.264936 -279.051312 
L 354.516981 -281.225972 
L 354.742839 -283.400632 
L 354.944713 -285.575293 
L 355.125041 -287.749953 
L 355.286433 -289.924614 
L 355.431607 -292.099274 
L 355.563332 -294.273935 
L 355.684352 -296.448595 
L 355.797325 -298.623255 
L 355.90476 -300.797916 
L 356.008959 -302.972576 
L 356.111962 -305.147237 
L 356.215511 -307.321897 
L 361.984489 -307.321897 
L 361.984489 -307.321897 
L 362.088038 -305.147237 
L 362.191041 -302.972576 
L 362.29524 -300.797916 
L 362.402675 -298.623255 
L 362.515648 -296.448595 
L 362.636668 -294.273935 
L 362.768393 -292.099274 
L 362.913567 -289.924614 
L 363.074959 -287.749953 
L 363.255287 -285.575293 
L 363.457161 -283.400632 
L 363.683019 -281.225972 
L 363.935064 -279.051312 
L 364.215218 -276.876651 
L 364.525074 -274.701991 
L 364.865857 -272.52733 
L 365.238392 -270.35267 
L 365.643085 -268.178009 
L 366.079902 -266.003349 
L 366.548362 -263.828688 
L 367.047543 -261.654028 
L 367.57608 -259.479368 
L 368.132193 -257.304707 
L 368.713702 -255.130047 
L 369.318068 -252.955386 
L 369.942429 -250.780726 
L 370.583656 -248.606065 
L 371.238403 -246.431405 
L 371.903178 -244.256745 
L 372.574406 -242.082084 
L 373.248499 -239.907424 
L 373.921933 -237.732763 
L 374.591313 -235.558103 
L 375.253438 -233.383442 
L 375.905361 -231.208782 
L 376.544439 -229.034121 
L 377.168369 -226.859461 
L 377.775214 -224.684801 
L 378.363416 -222.51014 
L 378.931796 -220.33548 
L 379.479543 -218.160819 
L 380.006187 -215.986159 
L 380.511568 -213.811498 
L 380.995795 -211.636838 
L 381.459205 -209.462178 
L 381.902309 -207.287517 
L 382.325749 -205.112857 
L 382.730246 -202.938196 
L 383.116559 -200.763536 
L 383.485437 -198.588875 
L 383.837585 -196.414215 
L 384.173619 -194.239554 
L 384.494034 -192.064894 
L 384.799171 -189.890234 
L 385.089179 -187.715573 
L 385.36399 -185.540913 
L 385.623285 -183.366252 
L 385.866468 -181.191592 
L 386.092647 -179.016931 
L 386.300617 -176.842271 
L 386.488854 -174.66761 
L 386.655524 -172.49295 
L 386.798501 -170.31829 
L 386.915405 -168.143629 
L 387.003654 -165.968969 
L 387.060535 -163.794308 
L 387.083284 -161.619648 
L 387.069187 -159.444987 
L 387.015686 -157.270327 
L 386.920482 -155.095667 
L 386.781644 -152.921006 
L 386.597709 -150.746346 
L 386.367761 -148.571685 
L 386.091493 -146.397025 
L 385.769249 -144.222364 
L 385.402027 -142.047704 
L 384.991464 -139.873043 
L 384.539784 -137.698383 
L 384.049722 -135.523723 
L 383.524426 -133.349062 
L 382.967338 -131.174402 
L 382.38207 -128.999741 
L 381.772273 -126.825081 
L 381.141516 -124.65042 
L 380.49317 -122.47576 
L 379.830323 -120.3011 
L 379.155706 -118.126439 
L 378.471656 -115.951779 
L 377.780108 -113.777118 
L 377.082609 -111.602458 
L 376.380367 -109.427797 
L 375.674316 -107.253137 
L 374.965201 -105.078476 
L 374.253671 -102.903816 
L 373.540377 -100.729156 
L 372.826064 -98.554495 
L 372.111651 -96.379835 
L 371.398303 -94.205174 
L 370.687471 -92.030514 
z
" id="ma8de08e06c" style="stroke:#4c4c4c;stroke-width:1.5;"/>
    </defs>
    <g clip-path="url(#p418375af2f)">
     <use style="fill:#cc8963;stroke:#4c4c4c;stroke-width:1.5;" x="0" xlink:href="#ma8de08e06c" y="432"/>
    </g>
   </g>
   <g id="PolyCollection_3">
    <defs>
     <path d="M 528.495775 -85.584664 
L 524.504225 -85.584664 
L 524.502019 -86.326913 
L 524.501194 -87.069163 
L 524.501731 -87.811412 
L 524.503606 -88.553662 
L 524.506794 -89.295911 
L 524.511263 -90.03816 
L 524.516978 -90.78041 
L 524.523898 -91.522659 
L 524.531982 -92.264908 
L 524.541182 -93.007158 
L 524.551446 -93.749407 
L 524.562722 -94.491656 
L 524.574952 -95.233906 
L 524.588074 -95.976155 
L 524.602026 -96.718405 
L 524.616742 -97.460654 
L 524.632153 -98.202903 
L 524.648189 -98.945153 
L 524.664776 -99.687402 
L 524.681841 -100.429651 
L 524.699309 -101.171901 
L 524.717102 -101.91415 
L 524.735142 -102.6564 
L 524.753353 -103.398649 
L 524.771655 -104.140898 
L 524.789971 -104.883148 
L 524.808221 -105.625397 
L 524.82633 -106.367646 
L 524.844221 -107.109896 
L 524.861817 -107.852145 
L 524.879047 -108.594395 
L 524.895837 -109.336644 
L 524.912119 -110.078893 
L 524.927823 -110.821143 
L 524.942886 -111.563392 
L 524.957244 -112.305641 
L 524.970839 -113.047891 
L 524.983615 -113.79014 
L 524.995518 -114.53239 
L 525.006501 -115.274639 
L 525.016517 -116.016888 
L 525.025527 -116.759138 
L 525.033493 -117.501387 
L 525.040382 -118.243636 
L 525.046166 -118.985886 
L 525.050823 -119.728135 
L 525.054331 -120.470384 
L 525.056679 -121.212634 
L 525.057855 -121.954883 
L 525.057855 -122.697133 
L 525.056679 -123.439382 
L 525.054331 -124.181631 
L 525.050823 -124.923881 
L 525.046166 -125.66613 
L 525.040382 -126.408379 
L 525.033493 -127.150629 
L 525.025527 -127.892878 
L 525.016517 -128.635128 
L 525.006501 -129.377377 
L 524.995518 -130.119626 
L 524.983615 -130.861876 
L 524.970839 -131.604125 
L 524.957244 -132.346374 
L 524.942886 -133.088624 
L 524.927823 -133.830873 
L 524.912119 -134.573123 
L 524.895837 -135.315372 
L 524.879047 -136.057621 
L 524.861817 -136.799871 
L 524.844221 -137.54212 
L 524.82633 -138.284369 
L 524.808221 -139.026619 
L 524.789971 -139.768868 
L 524.771655 -140.511117 
L 524.753353 -141.253367 
L 524.735142 -141.995616 
L 524.717102 -142.737866 
L 524.699309 -143.480115 
L 524.681841 -144.222364 
L 524.664776 -144.964614 
L 524.648189 -145.706863 
L 524.632153 -146.449112 
L 524.616742 -147.191362 
L 524.602026 -147.933611 
L 524.588074 -148.675861 
L 524.574952 -149.41811 
L 524.562722 -150.160359 
L 524.551446 -150.902609 
L 524.541182 -151.644858 
L 524.531982 -152.387107 
L 524.523898 -153.129357 
L 524.516978 -153.871606 
L 524.511263 -154.613856 
L 524.506794 -155.356105 
L 524.503606 -156.098354 
L 524.501731 -156.840604 
L 524.501194 -157.582853 
L 524.502019 -158.325102 
L 524.504225 -159.067352 
L 528.495775 -159.067352 
L 528.495775 -159.067352 
L 528.497981 -158.325102 
L 528.498806 -157.582853 
L 528.498269 -156.840604 
L 528.496394 -156.098354 
L 528.493206 -155.356105 
L 528.488737 -154.613856 
L 528.483022 -153.871606 
L 528.476102 -153.129357 
L 528.468018 -152.387107 
L 528.458818 -151.644858 
L 528.448554 -150.902609 
L 528.437278 -150.160359 
L 528.425048 -149.41811 
L 528.411926 -148.675861 
L 528.397974 -147.933611 
L 528.383258 -147.191362 
L 528.367847 -146.449112 
L 528.351811 -145.706863 
L 528.335224 -144.964614 
L 528.318159 -144.222364 
L 528.300691 -143.480115 
L 528.282898 -142.737866 
L 528.264858 -141.995616 
L 528.246647 -141.253367 
L 528.228345 -140.511117 
L 528.210029 -139.768868 
L 528.191779 -139.026619 
L 528.17367 -138.284369 
L 528.155779 -137.54212 
L 528.138183 -136.799871 
L 528.120953 -136.057621 
L 528.104163 -135.315372 
L 528.087881 -134.573123 
L 528.072177 -133.830873 
L 528.057114 -133.088624 
L 528.042756 -132.346374 
L 528.029161 -131.604125 
L 528.016385 -130.861876 
L 528.004482 -130.119626 
L 527.993499 -129.377377 
L 527.983483 -128.635128 
L 527.974473 -127.892878 
L 527.966507 -127.150629 
L 527.959618 -126.408379 
L 527.953834 -125.66613 
L 527.949177 -124.923881 
L 527.945669 -124.181631 
L 527.943321 -123.439382 
L 527.942145 -122.697133 
L 527.942145 -121.954883 
L 527.943321 -121.212634 
L 527.945669 -120.470384 
L 527.949177 -119.728135 
L 527.953834 -118.985886 
L 527.959618 -118.243636 
L 527.966507 -117.501387 
L 527.974473 -116.759138 
L 527.983483 -116.016888 
L 527.993499 -115.274639 
L 528.004482 -114.53239 
L 528.016385 -113.79014 
L 528.029161 -113.047891 
L 528.042756 -112.305641 
L 528.057114 -111.563392 
L 528.072177 -110.821143 
L 528.087881 -110.078893 
L 528.104163 -109.336644 
L 528.120953 -108.594395 
L 528.138183 -107.852145 
L 528.155779 -107.109896 
L 528.17367 -106.367646 
L 528.191779 -105.625397 
L 528.210029 -104.883148 
L 528.228345 -104.140898 
L 528.246647 -103.398649 
L 528.264858 -102.6564 
L 528.282898 -101.91415 
L 528.300691 -101.171901 
L 528.318159 -100.429651 
L 528.335224 -99.687402 
L 528.351811 -98.945153 
L 528.367847 -98.202903 
L 528.383258 -97.460654 
L 528.397974 -96.718405 
L 528.411926 -95.976155 
L 528.425048 -95.233906 
L 528.437278 -94.491656 
L 528.448554 -93.749407 
L 528.458818 -93.007158 
L 528.468018 -92.264908 
L 528.476102 -91.522659 
L 528.483022 -90.78041 
L 528.488737 -90.03816 
L 528.493206 -89.295911 
L 528.496394 -88.553662 
L 528.498269 -87.811412 
L 528.498806 -87.069163 
L 528.497981 -86.326913 
L 528.495775 -85.584664 
z
" id="m762a3be4e3" style="stroke:#4c4c4c;stroke-width:1.5;"/>
    </defs>
    <g clip-path="url(#p418375af2f)">
     <use style="fill:#5f9e6e;stroke:#4c4c4c;stroke-width:1.5;" x="0" xlink:href="#m762a3be4e3" y="432"/>
    </g>
   </g>
   <g id="PolyCollection_4">
    <defs>
     <path d="M 696.825752 -101.054704 
L 690.974248 -101.054704 
L 690.952815 -103.724197 
L 690.935055 -106.39369 
L 690.921032 -109.063184 
L 690.910794 -111.732677 
L 690.904374 -114.40217 
L 690.901791 -117.071664 
L 690.903046 -119.741157 
L 690.908126 -122.41065 
L 690.917 -125.080144 
L 690.929625 -127.749637 
L 690.94594 -130.41913 
L 690.965869 -133.088624 
L 690.989322 -135.758117 
L 691.016193 -138.42761 
L 691.046366 -141.097104 
L 691.079707 -143.766597 
L 691.116075 -146.436091 
L 691.155312 -149.105584 
L 691.197254 -151.775077 
L 691.241724 -154.444571 
L 691.288538 -157.114064 
L 691.337503 -159.783557 
L 691.388418 -162.453051 
L 691.44108 -165.122544 
L 691.495278 -167.792037 
L 691.550797 -170.461531 
L 691.607422 -173.131024 
L 691.664934 -175.800517 
L 691.723115 -178.470011 
L 691.781747 -181.139504 
L 691.840612 -183.808997 
L 691.899498 -186.478491 
L 691.958193 -189.147984 
L 692.01649 -191.817478 
L 692.07419 -194.486971 
L 692.131096 -197.156464 
L 692.187021 -199.825958 
L 692.241784 -202.495451 
L 692.295211 -205.164944 
L 692.347139 -207.834438 
L 692.397413 -210.503931 
L 692.445888 -213.173424 
L 692.49243 -215.842918 
L 692.536913 -218.512411 
L 692.579225 -221.181904 
L 692.619263 -223.851398 
L 692.656937 -226.520891 
L 692.692166 -229.190384 
L 692.724883 -231.859878 
L 692.755031 -234.529371 
L 692.782567 -237.198865 
L 692.807456 -239.868358 
L 692.829678 -242.537851 
L 692.849222 -245.207345 
L 692.86609 -247.876838 
L 692.880295 -250.546331 
L 692.891859 -253.215825 
L 692.900816 -255.885318 
L 692.907212 -258.554811 
L 692.9111 -261.224305 
L 692.912544 -263.893798 
L 692.911619 -266.563291 
L 692.908407 -269.232785 
L 692.902999 -271.902278 
L 692.895493 -274.571771 
L 692.885998 -277.241265 
L 692.874627 -279.910758 
L 692.8615 -282.580252 
L 692.846745 -285.249745 
L 692.830494 -287.919238 
L 692.812885 -290.588732 
L 692.794058 -293.258225 
L 692.774161 -295.927718 
L 692.753341 -298.597212 
L 692.731751 -301.266705 
L 692.709542 -303.936198 
L 692.68687 -306.605692 
L 692.663889 -309.275185 
L 692.640754 -311.944678 
L 692.617619 -314.614172 
L 692.594637 -317.283665 
L 692.571956 -319.953158 
L 692.549726 -322.622652 
L 692.528088 -325.292145 
L 692.507183 -327.961639 
L 692.487145 -330.631132 
L 692.468104 -333.300625 
L 692.450182 -335.970119 
L 692.433496 -338.639612 
L 692.418155 -341.309105 
L 692.404261 -343.978599 
L 692.391907 -346.648092 
L 692.381179 -349.317585 
L 692.372154 -351.987079 
L 692.364897 -354.656572 
L 692.359468 -357.326065 
L 692.355914 -359.995559 
L 692.354273 -362.665052 
L 692.354576 -365.334545 
L 695.445424 -365.334545 
L 695.445424 -365.334545 
L 695.445727 -362.665052 
L 695.444086 -359.995559 
L 695.440532 -357.326065 
L 695.435103 -354.656572 
L 695.427846 -351.987079 
L 695.418821 -349.317585 
L 695.408093 -346.648092 
L 695.395739 -343.978599 
L 695.381845 -341.309105 
L 695.366504 -338.639612 
L 695.349818 -335.970119 
L 695.331896 -333.300625 
L 695.312855 -330.631132 
L 695.292817 -327.961639 
L 695.271912 -325.292145 
L 695.250274 -322.622652 
L 695.228044 -319.953158 
L 695.205363 -317.283665 
L 695.182381 -314.614172 
L 695.159246 -311.944678 
L 695.136111 -309.275185 
L 695.11313 -306.605692 
L 695.090458 -303.936198 
L 695.068249 -301.266705 
L 695.046659 -298.597212 
L 695.025839 -295.927718 
L 695.005942 -293.258225 
L 694.987115 -290.588732 
L 694.969506 -287.919238 
L 694.953255 -285.249745 
L 694.9385 -282.580252 
L 694.925373 -279.910758 
L 694.914002 -277.241265 
L 694.904507 -274.571771 
L 694.897001 -271.902278 
L 694.891593 -269.232785 
L 694.888381 -266.563291 
L 694.887456 -263.893798 
L 694.8889 -261.224305 
L 694.892788 -258.554811 
L 694.899184 -255.885318 
L 694.908141 -253.215825 
L 694.919705 -250.546331 
L 694.93391 -247.876838 
L 694.950778 -245.207345 
L 694.970322 -242.537851 
L 694.992544 -239.868358 
L 695.017433 -237.198865 
L 695.044969 -234.529371 
L 695.075117 -231.859878 
L 695.107834 -229.190384 
L 695.143063 -226.520891 
L 695.180737 -223.851398 
L 695.220775 -221.181904 
L 695.263087 -218.512411 
L 695.30757 -215.842918 
L 695.354112 -213.173424 
L 695.402587 -210.503931 
L 695.452861 -207.834438 
L 695.504789 -205.164944 
L 695.558216 -202.495451 
L 695.612979 -199.825958 
L 695.668904 -197.156464 
L 695.72581 -194.486971 
L 695.78351 -191.817478 
L 695.841807 -189.147984 
L 695.900502 -186.478491 
L 695.959388 -183.808997 
L 696.018253 -181.139504 
L 696.076885 -178.470011 
L 696.135066 -175.800517 
L 696.192578 -173.131024 
L 696.249203 -170.461531 
L 696.304722 -167.792037 
L 696.35892 -165.122544 
L 696.411582 -162.453051 
L 696.462497 -159.783557 
L 696.511462 -157.114064 
L 696.558276 -154.444571 
L 696.602746 -151.775077 
L 696.644688 -149.105584 
L 696.683925 -146.436091 
L 696.720293 -143.766597 
L 696.753634 -141.097104 
L 696.783807 -138.42761 
L 696.810678 -135.758117 
L 696.834131 -133.088624 
L 696.85406 -130.41913 
L 696.870375 -127.749637 
L 696.883 -125.080144 
L 696.891874 -122.41065 
L 696.896954 -119.741157 
L 696.898209 -117.071664 
L 696.895626 -114.40217 
L 696.889206 -111.732677 
L 696.878968 -109.063184 
L 696.864945 -106.39369 
L 696.847185 -103.724197 
L 696.825752 -101.054704 
z
" id="m4cfa49522e" style="stroke:#4c4c4c;stroke-width:1.5;"/>
    </defs>
    <g clip-path="url(#p418375af2f)">
     <use style="fill:#b55d60;stroke:#4c4c4c;stroke-width:1.5;" x="0" xlink:href="#m4cfa49522e" y="432"/>
    </g>
   </g>
   <g id="line2d_6">
    <path clip-path="url(#p418375af2f)" d="M 135.531188 319.342767 
L 247.868812 319.342767 
" style="fill:none;stroke:#4c4c4c;stroke-dasharray:3.375,3.375;stroke-dashoffset:0;stroke-width:1.5;"/>
   </g>
   <g id="line2d_7">
    <path clip-path="url(#p418375af2f)" d="M 125.47822 285.824348 
L 257.92178 285.824348 
" style="fill:none;stroke:#4c4c4c;stroke-dasharray:6.75,6.75;stroke-dashoffset:0;stroke-width:1.5;"/>
   </g>
   <g id="line2d_8">
    <path clip-path="url(#p418375af2f)" d="M 135.843986 260.040949 
L 247.556014 260.040949 
" style="fill:none;stroke:#4c4c4c;stroke-dasharray:3.375,3.375;stroke-dashoffset:0;stroke-width:1.5;"/>
   </g>
   <g id="line2d_9">
    <path clip-path="url(#p418375af2f)" d="M 333.914614 293.237075 
L 384.285386 293.237075 
" style="fill:none;stroke:#4c4c4c;stroke-dasharray:3.375,3.375;stroke-dashoffset:0;stroke-width:1.5;"/>
   </g>
   <g id="line2d_10">
    <path clip-path="url(#p418375af2f)" d="M 331.820032 259.396364 
L 386.379968 259.396364 
" style="fill:none;stroke:#4c4c4c;stroke-dasharray:6.75,6.75;stroke-dashoffset:0;stroke-width:1.5;"/>
   </g>
   <g id="line2d_11">
    <path clip-path="url(#p418375af2f)" d="M 337.902548 218.78751 
L 380.297452 218.78751 
" style="fill:none;stroke:#4c4c4c;stroke-dasharray:3.375,3.375;stroke-dashoffset:0;stroke-width:1.5;"/>
   </g>
   <g id="line2d_12">
    <path clip-path="url(#p418375af2f)" d="M 524.788939 328.044664 
L 528.211061 328.044664 
" style="fill:none;stroke:#4c4c4c;stroke-dasharray:3.375,3.375;stroke-dashoffset:0;stroke-width:1.5;"/>
   </g>
   <g id="line2d_13">
    <path clip-path="url(#p418375af2f)" d="M 525.072276 309.673992 
L 527.927724 309.673992 
" style="fill:none;stroke:#4c4c4c;stroke-dasharray:6.75,6.75;stroke-dashoffset:0;stroke-width:1.5;"/>
   </g>
   <g id="line2d_14">
    <path clip-path="url(#p418375af2f)" d="M 524.788939 291.30332 
L 528.211061 291.30332 
" style="fill:none;stroke:#4c4c4c;stroke-dasharray:3.375,3.375;stroke-dashoffset:0;stroke-width:1.5;"/>
   </g>
   <g id="line2d_15">
    <path clip-path="url(#p418375af2f)" d="M 690.931773 314.830672 
L 696.868227 314.830672 
" style="fill:none;stroke:#4c4c4c;stroke-dasharray:3.375,3.375;stroke-dashoffset:0;stroke-width:1.5;"/>
   </g>
   <g id="line2d_16">
    <path clip-path="url(#p418375af2f)" d="M 690.99521 298.716047 
L 696.80479 298.716047 
" style="fill:none;stroke:#4c4c4c;stroke-dasharray:6.75,6.75;stroke-dashoffset:0;stroke-width:1.5;"/>
   </g>
   <g id="line2d_17">
    <path clip-path="url(#p418375af2f)" d="M 692.890492 182.690751 
L 694.909508 182.690751 
" style="fill:none;stroke:#4c4c4c;stroke-dasharray:3.375,3.375;stroke-dashoffset:0;stroke-width:1.5;"/>
   </g>
   <g id="patch_3">
    <path d="M 108 378 
L 108 51.84 
" style="fill:none;stroke:#ffffff;stroke-linecap:square;stroke-linejoin:miter;stroke-width:1.25;"/>
   </g>
   <g id="patch_4">
    <path d="M 777.6 378 
L 777.6 51.84 
" style="fill:none;stroke:#ffffff;stroke-linecap:square;stroke-linejoin:miter;stroke-width:1.25;"/>
   </g>
   <g id="patch_5">
    <path d="M 108 378 
L 777.6 378 
" style="fill:none;stroke:#ffffff;stroke-linecap:square;stroke-linejoin:miter;stroke-width:1.25;"/>
   </g>
   <g id="patch_6">
    <path d="M 108 51.84 
L 777.6 51.84 
" style="fill:none;stroke:#ffffff;stroke-linecap:square;stroke-linejoin:miter;stroke-width:1.25;"/>
   </g>
   <g id="text_12">
    <!-- Compensation by Employer Type -->
    <g style="fill:#262626;" transform="translate(354.5325 45.84)scale(0.12 -0.12)">
     <defs>
      <path d="M 58.796875 25.09375 
L 68.265625 22.703125 
Q 65.28125 11.03125 57.546875 4.90625 
Q 49.8125 -1.21875 38.625 -1.21875 
Q 27.046875 -1.21875 19.796875 3.484375 
Q 12.546875 8.203125 8.765625 17.140625 
Q 4.984375 26.078125 4.984375 36.328125 
Q 4.984375 47.515625 9.25 55.828125 
Q 13.53125 64.15625 21.40625 68.46875 
Q 29.296875 72.796875 38.765625 72.796875 
Q 49.515625 72.796875 56.828125 67.328125 
Q 64.15625 61.859375 67.046875 51.953125 
L 57.71875 49.75 
Q 55.21875 57.5625 50.484375 61.125 
Q 45.75 64.703125 38.578125 64.703125 
Q 30.328125 64.703125 24.78125 60.734375 
Q 19.234375 56.78125 16.984375 50.109375 
Q 14.75 43.453125 14.75 36.375 
Q 14.75 27.25 17.40625 20.4375 
Q 20.0625 13.625 25.671875 10.25 
Q 31.296875 6.890625 37.84375 6.890625 
Q 45.796875 6.890625 51.3125 11.46875 
Q 56.84375 16.0625 58.796875 25.09375 
z
" id="ArialMT-67"/>
     </defs>
     <use xlink:href="#ArialMT-67"/>
     <use x="72.216797" xlink:href="#ArialMT-111"/>
     <use x="127.832031" xlink:href="#ArialMT-109"/>
     <use x="211.132812" xlink:href="#ArialMT-112"/>
     <use x="266.748047" xlink:href="#ArialMT-101"/>
     <use x="322.363281" xlink:href="#ArialMT-110"/>
     <use x="377.978516" xlink:href="#ArialMT-115"/>
     <use x="427.978516" xlink:href="#ArialMT-97"/>
     <use x="483.59375" xlink:href="#ArialMT-116"/>
     <use x="511.376953" xlink:href="#ArialMT-105"/>
     <use x="533.59375" xlink:href="#ArialMT-111"/>
     <use x="589.208984" xlink:href="#ArialMT-110"/>
     <use x="644.824219" xlink:href="#ArialMT-32"/>
     <use x="672.607422" xlink:href="#ArialMT-98"/>
     <use x="728.222656" xlink:href="#ArialMT-121"/>
     <use x="778.222656" xlink:href="#ArialMT-32"/>
     <use x="806.005859" xlink:href="#ArialMT-69"/>
     <use x="872.705078" xlink:href="#ArialMT-109"/>
     <use x="956.005859" xlink:href="#ArialMT-112"/>
     <use x="1011.621094" xlink:href="#ArialMT-108"/>
     <use x="1033.837891" xlink:href="#ArialMT-111"/>
     <use x="1089.453125" xlink:href="#ArialMT-121"/>
     <use x="1139.453125" xlink:href="#ArialMT-101"/>
     <use x="1195.068359" xlink:href="#ArialMT-114"/>
     <use x="1228.369141" xlink:href="#ArialMT-32"/>
     <use x="1254.402344" xlink:href="#ArialMT-84"/>
     <use x="1309.986328" xlink:href="#ArialMT-121"/>
     <use x="1359.986328" xlink:href="#ArialMT-112"/>
     <use x="1415.601562" xlink:href="#ArialMT-101"/>
    </g>
   </g>
  </g>
 </g>
 <defs>
  <clipPath id="p418375af2f">
   <rect height="326.16" width="669.6" x="108" y="51.84"/>
  </clipPath>
 </defs>
</svg>
