<?xml version="1.0" encoding="utf-8" standalone="no"?>
<!DOCTYPE svg PUBLIC "-//W3C//DTD SVG 1.1//EN"
  "http://www.w3.org/Graphics/SVG/1.1/DTD/svg11.dtd">
<!-- Created with matplotlib (https://matplotlib.org/) -->
<svg height="432pt" version="1.1" viewBox="0 0 864 432" width="864pt" xmlns="http://www.w3.org/2000/svg" xmlns:xlink="http://www.w3.org/1999/xlink">
 <metadata>
  <rdf:RDF xmlns:cc="http://creativecommons.org/ns#" xmlns:dc="http://purl.org/dc/elements/1.1/" xmlns:rdf="http://www.w3.org/1999/02/22-rdf-syntax-ns#">
   <cc:Work>
    <dc:type rdf:resource="http://purl.org/dc/dcmitype/StillImage"/>
    <dc:date>2020-11-22T22:44:39.501951</dc:date>
    <dc:format>image/svg+xml</dc:format>
    <dc:creator>
     <cc:Agent>
      <dc:title>Matplotlib v3.3.2, https://matplotlib.org/</dc:title>
     </cc:Agent>
    </dc:creator>
   </cc:Work>
  </rdf:RDF>
 </metadata>
 <defs>
  <style type="text/css">*{stroke-linecap:butt;stroke-linejoin:round;}</style>
 </defs>
 <g id="figure_1">
  <g id="patch_1">
   <path d="M 0 432 
L 864 432 
L 864 0 
L 0 0 
z
" style="fill:#ffffff;"/>
  </g>
  <g id="axes_1">
   <g id="patch_2">
    <path d="M 108 378 
L 777.6 378 
L 777.6 51.84 
L 108 51.84 
z
" style="fill:#eaeaf2;"/>
   </g>
   <g id="matplotlib.axis_1">
    <g id="xtick_1">
     <g id="line2d_1">
      <path clip-path="url(#p76f3f1c96d)" d="M 190.74081 378 
L 190.74081 51.84 
" style="fill:none;stroke:#ffffff;stroke-linecap:round;"/>
     </g>
     <g id="text_1">
      <!-- $\mathdefault{10^{0}}$ -->
      <g style="fill:#262626;" transform="translate(182.10581 398.84375)scale(0.11 -0.11)">
       <defs>
        <path d="M 37.25 0 
L 28.46875 0 
L 28.46875 56 
Q 25.296875 52.984375 20.140625 49.953125 
Q 14.984375 46.921875 10.890625 45.40625 
L 10.890625 53.90625 
Q 18.265625 57.375 23.78125 62.296875 
Q 29.296875 67.234375 31.59375 71.875 
L 37.25 71.875 
z
" id="ArialMT-49"/>
        <path d="M 4.15625 35.296875 
Q 4.15625 48 6.765625 55.734375 
Q 9.375 63.484375 14.515625 67.671875 
Q 19.671875 71.875 27.484375 71.875 
Q 33.25 71.875 37.59375 69.546875 
Q 41.9375 67.234375 44.765625 62.859375 
Q 47.609375 58.5 49.21875 52.21875 
Q 50.828125 45.953125 50.828125 35.296875 
Q 50.828125 22.703125 48.234375 14.96875 
Q 45.65625 7.234375 40.5 3 
Q 35.359375 -1.21875 27.484375 -1.21875 
Q 17.140625 -1.21875 11.234375 6.203125 
Q 4.15625 15.140625 4.15625 35.296875 
z
M 13.1875 35.296875 
Q 13.1875 17.671875 17.3125 11.828125 
Q 21.4375 6 27.484375 6 
Q 33.546875 6 37.671875 11.859375 
Q 41.796875 17.71875 41.796875 35.296875 
Q 41.796875 52.984375 37.671875 58.78125 
Q 33.546875 64.59375 27.390625 64.59375 
Q 21.34375 64.59375 17.71875 59.46875 
Q 13.1875 52.9375 13.1875 35.296875 
z
" id="ArialMT-48"/>
       </defs>
       <use transform="translate(0 0.99375)" xlink:href="#ArialMT-49"/>
       <use transform="translate(55.615234 0.99375)" xlink:href="#ArialMT-48"/>
       <use transform="translate(112.972813 70.6875)scale(0.7)" xlink:href="#ArialMT-48"/>
      </g>
     </g>
    </g>
    <g id="xtick_2">
     <g id="line2d_2">
      <path clip-path="url(#p76f3f1c96d)" d="M 285.839004 378 
L 285.839004 51.84 
" style="fill:none;stroke:#ffffff;stroke-linecap:round;"/>
     </g>
     <g id="text_2">
      <!-- $\mathdefault{10^{1}}$ -->
      <g style="fill:#262626;" transform="translate(277.204004 398.84375)scale(0.11 -0.11)">
       <use transform="translate(0 0.99375)" xlink:href="#ArialMT-49"/>
       <use transform="translate(55.615234 0.99375)" xlink:href="#ArialMT-48"/>
       <use transform="translate(112.972813 70.6875)scale(0.7)" xlink:href="#ArialMT-49"/>
      </g>
     </g>
    </g>
    <g id="xtick_3">
     <g id="line2d_3">
      <path clip-path="url(#p76f3f1c96d)" d="M 380.937198 378 
L 380.937198 51.84 
" style="fill:none;stroke:#ffffff;stroke-linecap:round;"/>
     </g>
     <g id="text_3">
      <!-- $\mathdefault{10^{2}}$ -->
      <g style="fill:#262626;" transform="translate(372.302198 398.84375)scale(0.11 -0.11)">
       <defs>
        <path d="M 50.34375 8.453125 
L 50.34375 0 
L 3.03125 0 
Q 2.9375 3.171875 4.046875 6.109375 
Q 5.859375 10.9375 9.828125 15.625 
Q 13.8125 20.3125 21.34375 26.46875 
Q 33.015625 36.03125 37.109375 41.625 
Q 41.21875 47.21875 41.21875 52.203125 
Q 41.21875 57.421875 37.46875 61 
Q 33.734375 64.59375 27.734375 64.59375 
Q 21.390625 64.59375 17.578125 60.78125 
Q 13.765625 56.984375 13.71875 50.25 
L 4.6875 51.171875 
Q 5.609375 61.28125 11.65625 66.578125 
Q 17.71875 71.875 27.9375 71.875 
Q 38.234375 71.875 44.234375 66.15625 
Q 50.25 60.453125 50.25 52 
Q 50.25 47.703125 48.484375 43.546875 
Q 46.734375 39.40625 42.65625 34.8125 
Q 38.578125 30.21875 29.109375 22.21875 
Q 21.1875 15.578125 18.9375 13.203125 
Q 16.703125 10.84375 15.234375 8.453125 
z
" id="ArialMT-50"/>
       </defs>
       <use transform="translate(0 0.99375)" xlink:href="#ArialMT-49"/>
       <use transform="translate(55.615234 0.99375)" xlink:href="#ArialMT-48"/>
       <use transform="translate(112.972813 70.6875)scale(0.7)" xlink:href="#ArialMT-50"/>
      </g>
     </g>
    </g>
    <g id="xtick_4">
     <g id="line2d_4">
      <path clip-path="url(#p76f3f1c96d)" d="M 476.035393 378 
L 476.035393 51.84 
" style="fill:none;stroke:#ffffff;stroke-linecap:round;"/>
     </g>
     <g id="text_4">
      <!-- $\mathdefault{10^{3}}$ -->
      <g style="fill:#262626;" transform="translate(467.400393 398.84375)scale(0.11 -0.11)">
       <defs>
        <path d="M 4.203125 18.890625 
L 12.984375 20.0625 
Q 14.5 12.59375 18.140625 9.296875 
Q 21.78125 6 27 6 
Q 33.203125 6 37.46875 10.296875 
Q 41.75 14.59375 41.75 20.953125 
Q 41.75 27 37.796875 30.921875 
Q 33.84375 34.859375 27.734375 34.859375 
Q 25.25 34.859375 21.53125 33.890625 
L 22.515625 41.609375 
Q 23.390625 41.5 23.921875 41.5 
Q 29.546875 41.5 34.03125 44.421875 
Q 38.53125 47.359375 38.53125 53.46875 
Q 38.53125 58.296875 35.25 61.46875 
Q 31.984375 64.65625 26.8125 64.65625 
Q 21.6875 64.65625 18.265625 61.421875 
Q 14.84375 58.203125 13.875 51.765625 
L 5.078125 53.328125 
Q 6.6875 62.15625 12.390625 67.015625 
Q 18.109375 71.875 26.609375 71.875 
Q 32.46875 71.875 37.390625 69.359375 
Q 42.328125 66.84375 44.9375 62.5 
Q 47.5625 58.15625 47.5625 53.265625 
Q 47.5625 48.640625 45.0625 44.828125 
Q 42.578125 41.015625 37.703125 38.765625 
Q 44.046875 37.3125 47.5625 32.6875 
Q 51.078125 28.078125 51.078125 21.140625 
Q 51.078125 11.765625 44.234375 5.25 
Q 37.40625 -1.265625 26.953125 -1.265625 
Q 17.53125 -1.265625 11.296875 4.34375 
Q 5.078125 9.96875 4.203125 18.890625 
z
" id="ArialMT-51"/>
       </defs>
       <use transform="translate(0 0.99375)" xlink:href="#ArialMT-49"/>
       <use transform="translate(55.615234 0.99375)" xlink:href="#ArialMT-48"/>
       <use transform="translate(112.972813 70.6875)scale(0.7)" xlink:href="#ArialMT-51"/>
      </g>
     </g>
    </g>
    <g id="xtick_5">
     <g id="line2d_5">
      <path clip-path="url(#p76f3f1c96d)" d="M 571.133587 378 
L 571.133587 51.84 
" style="fill:none;stroke:#ffffff;stroke-linecap:round;"/>
     </g>
     <g id="text_5">
      <!-- $\mathdefault{10^{4}}$ -->
      <g style="fill:#262626;" transform="translate(562.498587 398.73375)scale(0.11 -0.11)">
       <defs>
        <path d="M 32.328125 0 
L 32.328125 17.140625 
L 1.265625 17.140625 
L 1.265625 25.203125 
L 33.9375 71.578125 
L 41.109375 71.578125 
L 41.109375 25.203125 
L 50.78125 25.203125 
L 50.78125 17.140625 
L 41.109375 17.140625 
L 41.109375 0 
z
M 32.328125 25.203125 
L 32.328125 57.46875 
L 9.90625 25.203125 
z
" id="ArialMT-52"/>
       </defs>
       <use transform="translate(0 0.201563)" xlink:href="#ArialMT-49"/>
       <use transform="translate(55.615234 0.201563)" xlink:href="#ArialMT-48"/>
       <use transform="translate(112.972813 69.895313)scale(0.7)" xlink:href="#ArialMT-52"/>
      </g>
     </g>
    </g>
    <g id="xtick_6">
     <g id="line2d_6">
      <path clip-path="url(#p76f3f1c96d)" d="M 666.231781 378 
L 666.231781 51.84 
" style="fill:none;stroke:#ffffff;stroke-linecap:round;"/>
     </g>
     <g id="text_6">
      <!-- $\mathdefault{10^{5}}$ -->
      <g style="fill:#262626;" transform="translate(657.596781 398.73375)scale(0.11 -0.11)">
       <defs>
        <path d="M 4.15625 18.75 
L 13.375 19.53125 
Q 14.40625 12.796875 18.140625 9.390625 
Q 21.875 6 27.15625 6 
Q 33.5 6 37.890625 10.78125 
Q 42.28125 15.578125 42.28125 23.484375 
Q 42.28125 31 38.0625 35.34375 
Q 33.84375 39.703125 27 39.703125 
Q 22.75 39.703125 19.328125 37.765625 
Q 15.921875 35.84375 13.96875 32.765625 
L 5.71875 33.84375 
L 12.640625 70.609375 
L 48.25 70.609375 
L 48.25 62.203125 
L 19.671875 62.203125 
L 15.828125 42.96875 
Q 22.265625 47.46875 29.34375 47.46875 
Q 38.71875 47.46875 45.15625 40.96875 
Q 51.609375 34.46875 51.609375 24.265625 
Q 51.609375 14.546875 45.953125 7.46875 
Q 39.0625 -1.21875 27.15625 -1.21875 
Q 17.390625 -1.21875 11.203125 4.25 
Q 5.03125 9.71875 4.15625 18.75 
z
" id="ArialMT-53"/>
       </defs>
       <use transform="translate(0 0.879688)" xlink:href="#ArialMT-49"/>
       <use transform="translate(55.615234 0.879688)" xlink:href="#ArialMT-48"/>
       <use transform="translate(112.972813 70.573438)scale(0.7)" xlink:href="#ArialMT-53"/>
      </g>
     </g>
    </g>
    <g id="xtick_7">
     <g id="line2d_7">
      <path clip-path="url(#p76f3f1c96d)" d="M 761.329975 378 
L 761.329975 51.84 
" style="fill:none;stroke:#ffffff;stroke-linecap:round;"/>
     </g>
     <g id="text_7">
      <!-- $\mathdefault{10^{6}}$ -->
      <g style="fill:#262626;" transform="translate(752.694975 398.84375)scale(0.11 -0.11)">
       <defs>
        <path d="M 49.75 54.046875 
L 41.015625 53.375 
Q 39.84375 58.546875 37.703125 60.890625 
Q 34.125 64.65625 28.90625 64.65625 
Q 24.703125 64.65625 21.53125 62.3125 
Q 17.390625 59.28125 14.984375 53.46875 
Q 12.59375 47.65625 12.5 36.921875 
Q 15.671875 41.75 20.265625 44.09375 
Q 24.859375 46.4375 29.890625 46.4375 
Q 38.671875 46.4375 44.84375 39.96875 
Q 51.03125 33.5 51.03125 23.25 
Q 51.03125 16.5 48.125 10.71875 
Q 45.21875 4.9375 40.140625 1.859375 
Q 35.0625 -1.21875 28.609375 -1.21875 
Q 17.625 -1.21875 10.6875 6.859375 
Q 3.765625 14.9375 3.765625 33.5 
Q 3.765625 54.25 11.421875 63.671875 
Q 18.109375 71.875 29.4375 71.875 
Q 37.890625 71.875 43.28125 67.140625 
Q 48.6875 62.40625 49.75 54.046875 
z
M 13.875 23.1875 
Q 13.875 18.65625 15.796875 14.5 
Q 17.71875 10.359375 21.1875 8.171875 
Q 24.65625 6 28.46875 6 
Q 34.03125 6 38.03125 10.484375 
Q 42.046875 14.984375 42.046875 22.703125 
Q 42.046875 30.125 38.078125 34.390625 
Q 34.125 38.671875 28.125 38.671875 
Q 22.171875 38.671875 18.015625 34.390625 
Q 13.875 30.125 13.875 23.1875 
z
" id="ArialMT-54"/>
       </defs>
       <use transform="translate(0 0.99375)" xlink:href="#ArialMT-49"/>
       <use transform="translate(55.615234 0.99375)" xlink:href="#ArialMT-48"/>
       <use transform="translate(112.972813 70.6875)scale(0.7)" xlink:href="#ArialMT-54"/>
      </g>
     </g>
    </g>
    <g id="xtick_8"/>
    <g id="xtick_9"/>
    <g id="xtick_10"/>
    <g id="xtick_11"/>
    <g id="xtick_12"/>
    <g id="xtick_13"/>
    <g id="xtick_14"/>
    <g id="xtick_15"/>
    <g id="xtick_16"/>
    <g id="xtick_17"/>
    <g id="xtick_18"/>
    <g id="xtick_19"/>
    <g id="xtick_20"/>
    <g id="xtick_21"/>
    <g id="xtick_22"/>
    <g id="xtick_23"/>
    <g id="xtick_24"/>
    <g id="xtick_25"/>
    <g id="xtick_26"/>
    <g id="xtick_27"/>
    <g id="xtick_28"/>
    <g id="xtick_29"/>
    <g id="xtick_30"/>
    <g id="xtick_31"/>
    <g id="xtick_32"/>
    <g id="xtick_33"/>
    <g id="xtick_34"/>
    <g id="xtick_35"/>
    <g id="xtick_36"/>
    <g id="xtick_37"/>
    <g id="xtick_38"/>
    <g id="xtick_39"/>
    <g id="xtick_40"/>
    <g id="xtick_41"/>
    <g id="xtick_42"/>
    <g id="xtick_43"/>
    <g id="xtick_44"/>
    <g id="xtick_45"/>
    <g id="xtick_46"/>
    <g id="xtick_47"/>
    <g id="xtick_48"/>
    <g id="xtick_49"/>
    <g id="xtick_50"/>
    <g id="xtick_51"/>
    <g id="xtick_52"/>
    <g id="xtick_53"/>
    <g id="xtick_54"/>
    <g id="xtick_55"/>
    <g id="xtick_56"/>
    <g id="xtick_57"/>
    <g id="xtick_58"/>
    <g id="xtick_59"/>
    <g id="xtick_60"/>
    <g id="xtick_61"/>
    <g id="xtick_62"/>
    <g id="xtick_63"/>
    <g id="text_8">
     <!-- Number of Employees (FTE), Log 10 -->
     <g style="fill:#262626;" transform="translate(344.7675 413.765625)scale(0.12 -0.12)">
      <defs>
       <path d="M 7.625 0 
L 7.625 71.578125 
L 17.328125 71.578125 
L 54.9375 15.375 
L 54.9375 71.578125 
L 64.015625 71.578125 
L 64.015625 0 
L 54.296875 0 
L 16.703125 56.25 
L 16.703125 0 
z
" id="ArialMT-78"/>
       <path d="M 40.578125 0 
L 40.578125 7.625 
Q 34.515625 -1.171875 24.125 -1.171875 
Q 19.53125 -1.171875 15.546875 0.578125 
Q 11.578125 2.34375 9.640625 5 
Q 7.71875 7.671875 6.9375 11.53125 
Q 6.390625 14.109375 6.390625 19.734375 
L 6.390625 51.859375 
L 15.1875 51.859375 
L 15.1875 23.09375 
Q 15.1875 16.21875 15.71875 13.8125 
Q 16.546875 10.359375 19.234375 8.375 
Q 21.921875 6.390625 25.875 6.390625 
Q 29.828125 6.390625 33.296875 8.421875 
Q 36.765625 10.453125 38.203125 13.9375 
Q 39.65625 17.4375 39.65625 24.078125 
L 39.65625 51.859375 
L 48.4375 51.859375 
L 48.4375 0 
z
" id="ArialMT-117"/>
       <path d="M 6.59375 0 
L 6.59375 51.859375 
L 14.453125 51.859375 
L 14.453125 44.578125 
Q 16.890625 48.390625 20.9375 50.703125 
Q 25 53.03125 30.171875 53.03125 
Q 35.9375 53.03125 39.625 50.640625 
Q 43.3125 48.25 44.828125 43.953125 
Q 50.984375 53.03125 60.84375 53.03125 
Q 68.5625 53.03125 72.703125 48.75 
Q 76.859375 44.484375 76.859375 35.59375 
L 76.859375 0 
L 68.109375 0 
L 68.109375 32.671875 
Q 68.109375 37.9375 67.25 40.25 
Q 66.40625 42.578125 64.15625 43.984375 
Q 61.921875 45.40625 58.890625 45.40625 
Q 53.421875 45.40625 49.796875 41.765625 
Q 46.1875 38.140625 46.1875 30.125 
L 46.1875 0 
L 37.40625 0 
L 37.40625 33.6875 
Q 37.40625 39.546875 35.25 42.46875 
Q 33.109375 45.40625 28.21875 45.40625 
Q 24.515625 45.40625 21.359375 43.453125 
Q 18.21875 41.5 16.796875 37.734375 
Q 15.375 33.984375 15.375 26.90625 
L 15.375 0 
z
" id="ArialMT-109"/>
       <path d="M 14.703125 0 
L 6.546875 0 
L 6.546875 71.578125 
L 15.328125 71.578125 
L 15.328125 46.046875 
Q 20.90625 53.03125 29.546875 53.03125 
Q 34.328125 53.03125 38.59375 51.09375 
Q 42.875 49.171875 45.625 45.671875 
Q 48.390625 42.1875 49.953125 37.25 
Q 51.515625 32.328125 51.515625 26.703125 
Q 51.515625 13.375 44.921875 6.09375 
Q 38.328125 -1.171875 29.109375 -1.171875 
Q 19.921875 -1.171875 14.703125 6.5 
z
M 14.59375 26.3125 
Q 14.59375 17 17.140625 12.84375 
Q 21.296875 6.0625 28.375 6.0625 
Q 34.125 6.0625 38.328125 11.0625 
Q 42.53125 16.0625 42.53125 25.984375 
Q 42.53125 36.140625 38.5 40.96875 
Q 34.46875 45.796875 28.765625 45.796875 
Q 23 45.796875 18.796875 40.796875 
Q 14.59375 35.796875 14.59375 26.3125 
z
" id="ArialMT-98"/>
       <path d="M 42.09375 16.703125 
L 51.171875 15.578125 
Q 49.03125 7.625 43.21875 3.21875 
Q 37.40625 -1.171875 28.375 -1.171875 
Q 17 -1.171875 10.328125 5.828125 
Q 3.65625 12.84375 3.65625 25.484375 
Q 3.65625 38.578125 10.390625 45.796875 
Q 17.140625 53.03125 27.875 53.03125 
Q 38.28125 53.03125 44.875 45.953125 
Q 51.46875 38.875 51.46875 26.03125 
Q 51.46875 25.25 51.421875 23.6875 
L 12.75 23.6875 
Q 13.234375 15.140625 17.578125 10.59375 
Q 21.921875 6.0625 28.421875 6.0625 
Q 33.25 6.0625 36.671875 8.59375 
Q 40.09375 11.140625 42.09375 16.703125 
z
M 13.234375 30.90625 
L 42.1875 30.90625 
Q 41.609375 37.453125 38.875 40.71875 
Q 34.671875 45.796875 27.984375 45.796875 
Q 21.921875 45.796875 17.796875 41.75 
Q 13.671875 37.703125 13.234375 30.90625 
z
" id="ArialMT-101"/>
       <path d="M 6.5 0 
L 6.5 51.859375 
L 14.40625 51.859375 
L 14.40625 44 
Q 17.4375 49.515625 20 51.265625 
Q 22.5625 53.03125 25.640625 53.03125 
Q 30.078125 53.03125 34.671875 50.203125 
L 31.640625 42.046875 
Q 28.421875 43.953125 25.203125 43.953125 
Q 22.3125 43.953125 20.015625 42.21875 
Q 17.71875 40.484375 16.75 37.40625 
Q 15.28125 32.71875 15.28125 27.15625 
L 15.28125 0 
z
" id="ArialMT-114"/>
       <path id="ArialMT-32"/>
       <path d="M 3.328125 25.921875 
Q 3.328125 40.328125 11.328125 47.265625 
Q 18.015625 53.03125 27.640625 53.03125 
Q 38.328125 53.03125 45.109375 46.015625 
Q 51.90625 39.015625 51.90625 26.65625 
Q 51.90625 16.65625 48.90625 10.90625 
Q 45.90625 5.171875 40.15625 2 
Q 34.421875 -1.171875 27.640625 -1.171875 
Q 16.75 -1.171875 10.03125 5.8125 
Q 3.328125 12.796875 3.328125 25.921875 
z
M 12.359375 25.921875 
Q 12.359375 15.96875 16.703125 11.015625 
Q 21.046875 6.0625 27.640625 6.0625 
Q 34.1875 6.0625 38.53125 11.03125 
Q 42.875 16.015625 42.875 26.21875 
Q 42.875 35.84375 38.5 40.796875 
Q 34.125 45.75 27.640625 45.75 
Q 21.046875 45.75 16.703125 40.8125 
Q 12.359375 35.890625 12.359375 25.921875 
z
" id="ArialMT-111"/>
       <path d="M 8.6875 0 
L 8.6875 45.015625 
L 0.921875 45.015625 
L 0.921875 51.859375 
L 8.6875 51.859375 
L 8.6875 57.375 
Q 8.6875 62.59375 9.625 65.140625 
Q 10.890625 68.5625 14.078125 70.671875 
Q 17.28125 72.796875 23.046875 72.796875 
Q 26.765625 72.796875 31.25 71.921875 
L 29.9375 64.265625 
Q 27.203125 64.75 24.75 64.75 
Q 20.75 64.75 19.09375 63.03125 
Q 17.4375 61.328125 17.4375 56.640625 
L 17.4375 51.859375 
L 27.546875 51.859375 
L 27.546875 45.015625 
L 17.4375 45.015625 
L 17.4375 0 
z
" id="ArialMT-102"/>
       <path d="M 7.90625 0 
L 7.90625 71.578125 
L 59.671875 71.578125 
L 59.671875 63.140625 
L 17.390625 63.140625 
L 17.390625 41.21875 
L 56.984375 41.21875 
L 56.984375 32.8125 
L 17.390625 32.8125 
L 17.390625 8.453125 
L 61.328125 8.453125 
L 61.328125 0 
z
" id="ArialMT-69"/>
       <path d="M 6.59375 -19.875 
L 6.59375 51.859375 
L 14.59375 51.859375 
L 14.59375 45.125 
Q 17.4375 49.078125 21 51.046875 
Q 24.5625 53.03125 29.640625 53.03125 
Q 36.28125 53.03125 41.359375 49.609375 
Q 46.4375 46.1875 49.015625 39.953125 
Q 51.609375 33.734375 51.609375 26.3125 
Q 51.609375 18.359375 48.75 11.984375 
Q 45.90625 5.609375 40.453125 2.21875 
Q 35.015625 -1.171875 29 -1.171875 
Q 24.609375 -1.171875 21.109375 0.6875 
Q 17.625 2.546875 15.375 5.375 
L 15.375 -19.875 
z
M 14.546875 25.640625 
Q 14.546875 15.625 18.59375 10.84375 
Q 22.65625 6.0625 28.421875 6.0625 
Q 34.28125 6.0625 38.453125 11.015625 
Q 42.625 15.96875 42.625 26.375 
Q 42.625 36.28125 38.546875 41.203125 
Q 34.46875 46.140625 28.8125 46.140625 
Q 23.1875 46.140625 18.859375 40.890625 
Q 14.546875 35.640625 14.546875 25.640625 
z
" id="ArialMT-112"/>
       <path d="M 6.390625 0 
L 6.390625 71.578125 
L 15.1875 71.578125 
L 15.1875 0 
z
" id="ArialMT-108"/>
       <path d="M 6.203125 -19.96875 
L 5.21875 -11.71875 
Q 8.109375 -12.5 10.25 -12.5 
Q 13.1875 -12.5 14.9375 -11.515625 
Q 16.703125 -10.546875 17.828125 -8.796875 
Q 18.65625 -7.46875 20.515625 -2.25 
Q 20.75 -1.515625 21.296875 -0.09375 
L 1.609375 51.859375 
L 11.078125 51.859375 
L 21.875 21.828125 
Q 23.96875 16.109375 25.640625 9.8125 
Q 27.15625 15.875 29.25 21.625 
L 40.328125 51.859375 
L 49.125 51.859375 
L 29.390625 -0.875 
Q 26.21875 -9.421875 24.46875 -12.640625 
Q 22.125 -17 19.09375 -19.015625 
Q 16.0625 -21.046875 11.859375 -21.046875 
Q 9.328125 -21.046875 6.203125 -19.96875 
z
" id="ArialMT-121"/>
       <path d="M 3.078125 15.484375 
L 11.765625 16.84375 
Q 12.5 11.625 15.84375 8.84375 
Q 19.1875 6.0625 25.203125 6.0625 
Q 31.25 6.0625 34.171875 8.515625 
Q 37.109375 10.984375 37.109375 14.3125 
Q 37.109375 17.28125 34.515625 19 
Q 32.71875 20.171875 25.53125 21.96875 
Q 15.875 24.421875 12.140625 26.203125 
Q 8.40625 27.984375 6.46875 31.125 
Q 4.546875 34.28125 4.546875 38.09375 
Q 4.546875 41.546875 6.125 44.5 
Q 7.71875 47.46875 10.453125 49.421875 
Q 12.5 50.921875 16.03125 51.96875 
Q 19.578125 53.03125 23.640625 53.03125 
Q 29.734375 53.03125 34.34375 51.265625 
Q 38.96875 49.515625 41.15625 46.5 
Q 43.359375 43.5 44.1875 38.484375 
L 35.59375 37.3125 
Q 35.015625 41.3125 32.203125 43.546875 
Q 29.390625 45.796875 24.265625 45.796875 
Q 18.21875 45.796875 15.625 43.796875 
Q 13.03125 41.796875 13.03125 39.109375 
Q 13.03125 37.40625 14.109375 36.03125 
Q 15.1875 34.625 17.484375 33.6875 
Q 18.796875 33.203125 25.25 31.453125 
Q 34.578125 28.953125 38.25 27.359375 
Q 41.9375 25.78125 44.03125 22.75 
Q 46.140625 19.734375 46.140625 15.234375 
Q 46.140625 10.84375 43.578125 6.953125 
Q 41.015625 3.078125 36.171875 0.953125 
Q 31.34375 -1.171875 25.25 -1.171875 
Q 15.140625 -1.171875 9.84375 3.03125 
Q 4.546875 7.234375 3.078125 15.484375 
z
" id="ArialMT-115"/>
       <path d="M 23.390625 -21.046875 
Q 16.109375 -11.859375 11.078125 0.4375 
Q 6.0625 12.75 6.0625 25.921875 
Q 6.0625 37.546875 9.8125 48.1875 
Q 14.203125 60.546875 23.390625 72.796875 
L 29.6875 72.796875 
Q 23.78125 62.640625 21.875 58.296875 
Q 18.890625 51.5625 17.1875 44.234375 
Q 15.09375 35.109375 15.09375 25.875 
Q 15.09375 2.390625 29.6875 -21.046875 
z
" id="ArialMT-40"/>
       <path d="M 8.203125 0 
L 8.203125 71.578125 
L 56.5 71.578125 
L 56.5 63.140625 
L 17.671875 63.140625 
L 17.671875 40.96875 
L 51.265625 40.96875 
L 51.265625 32.515625 
L 17.671875 32.515625 
L 17.671875 0 
z
" id="ArialMT-70"/>
       <path d="M 25.921875 0 
L 25.921875 63.140625 
L 2.34375 63.140625 
L 2.34375 71.578125 
L 59.078125 71.578125 
L 59.078125 63.140625 
L 35.40625 63.140625 
L 35.40625 0 
z
" id="ArialMT-84"/>
       <path d="M 12.359375 -21.046875 
L 6.0625 -21.046875 
Q 20.65625 2.390625 20.65625 25.875 
Q 20.65625 35.0625 18.5625 44.09375 
Q 16.890625 51.421875 13.921875 58.15625 
Q 12.015625 62.546875 6.0625 72.796875 
L 12.359375 72.796875 
Q 21.53125 60.546875 25.921875 48.1875 
Q 29.6875 37.546875 29.6875 25.921875 
Q 29.6875 12.75 24.625 0.4375 
Q 19.578125 -11.859375 12.359375 -21.046875 
z
" id="ArialMT-41"/>
       <path d="M 8.890625 0 
L 8.890625 10.015625 
L 18.890625 10.015625 
L 18.890625 0 
Q 18.890625 -5.515625 16.9375 -8.90625 
Q 14.984375 -12.3125 10.75 -14.15625 
L 8.296875 -10.40625 
Q 11.078125 -9.1875 12.390625 -6.8125 
Q 13.71875 -4.4375 13.875 0 
z
" id="ArialMT-44"/>
       <path d="M 7.328125 0 
L 7.328125 71.578125 
L 16.796875 71.578125 
L 16.796875 8.453125 
L 52.046875 8.453125 
L 52.046875 0 
z
" id="ArialMT-76"/>
       <path d="M 4.984375 -4.296875 
L 13.53125 -5.5625 
Q 14.0625 -9.515625 16.5 -11.328125 
Q 19.78125 -13.765625 25.4375 -13.765625 
Q 31.546875 -13.765625 34.859375 -11.328125 
Q 38.1875 -8.890625 39.359375 -4.5 
Q 40.046875 -1.8125 39.984375 6.78125 
Q 34.234375 0 25.640625 0 
Q 14.9375 0 9.078125 7.71875 
Q 3.21875 15.4375 3.21875 26.21875 
Q 3.21875 33.640625 5.90625 39.90625 
Q 8.59375 46.1875 13.6875 49.609375 
Q 18.796875 53.03125 25.6875 53.03125 
Q 34.859375 53.03125 40.828125 45.609375 
L 40.828125 51.859375 
L 48.921875 51.859375 
L 48.921875 7.03125 
Q 48.921875 -5.078125 46.453125 -10.125 
Q 44 -15.1875 38.640625 -18.109375 
Q 33.296875 -21.046875 25.484375 -21.046875 
Q 16.21875 -21.046875 10.5 -16.875 
Q 4.78125 -12.703125 4.984375 -4.296875 
z
M 12.25 26.859375 
Q 12.25 16.65625 16.296875 11.96875 
Q 20.359375 7.28125 26.46875 7.28125 
Q 32.515625 7.28125 36.609375 11.9375 
Q 40.71875 16.609375 40.71875 26.5625 
Q 40.71875 36.078125 36.5 40.90625 
Q 32.28125 45.75 26.3125 45.75 
Q 20.453125 45.75 16.34375 40.984375 
Q 12.25 36.234375 12.25 26.859375 
z
" id="ArialMT-103"/>
      </defs>
      <use xlink:href="#ArialMT-78"/>
      <use x="72.216797" xlink:href="#ArialMT-117"/>
      <use x="127.832031" xlink:href="#ArialMT-109"/>
      <use x="211.132812" xlink:href="#ArialMT-98"/>
      <use x="266.748047" xlink:href="#ArialMT-101"/>
      <use x="322.363281" xlink:href="#ArialMT-114"/>
      <use x="355.664062" xlink:href="#ArialMT-32"/>
      <use x="383.447266" xlink:href="#ArialMT-111"/>
      <use x="439.0625" xlink:href="#ArialMT-102"/>
      <use x="466.845703" xlink:href="#ArialMT-32"/>
      <use x="494.628906" xlink:href="#ArialMT-69"/>
      <use x="561.328125" xlink:href="#ArialMT-109"/>
      <use x="644.628906" xlink:href="#ArialMT-112"/>
      <use x="700.244141" xlink:href="#ArialMT-108"/>
      <use x="722.460938" xlink:href="#ArialMT-111"/>
      <use x="778.076172" xlink:href="#ArialMT-121"/>
      <use x="828.076172" xlink:href="#ArialMT-101"/>
      <use x="883.691406" xlink:href="#ArialMT-101"/>
      <use x="939.306641" xlink:href="#ArialMT-115"/>
      <use x="989.306641" xlink:href="#ArialMT-32"/>
      <use x="1017.089844" xlink:href="#ArialMT-40"/>
      <use x="1050.390625" xlink:href="#ArialMT-70"/>
      <use x="1111.474609" xlink:href="#ArialMT-84"/>
      <use x="1172.558594" xlink:href="#ArialMT-69"/>
      <use x="1239.257812" xlink:href="#ArialMT-41"/>
      <use x="1272.558594" xlink:href="#ArialMT-44"/>
      <use x="1300.341797" xlink:href="#ArialMT-32"/>
      <use x="1328.125" xlink:href="#ArialMT-76"/>
      <use x="1383.740234" xlink:href="#ArialMT-111"/>
      <use x="1439.355469" xlink:href="#ArialMT-103"/>
      <use x="1494.970703" xlink:href="#ArialMT-32"/>
      <use x="1522.753906" xlink:href="#ArialMT-49"/>
      <use x="1578.369141" xlink:href="#ArialMT-48"/>
     </g>
    </g>
   </g>
   <g id="matplotlib.axis_2">
    <g id="ytick_1">
     <g id="line2d_8">
      <path clip-path="url(#p76f3f1c96d)" d="M 108 378 
L 777.6 378 
" style="fill:none;stroke:#ffffff;stroke-linecap:round;"/>
     </g>
     <g id="text_9">
      <!-- 0.0 -->
      <g style="fill:#262626;" transform="translate(83.21 381.936797)scale(0.11 -0.11)">
       <defs>
        <path d="M 9.078125 0 
L 9.078125 10.015625 
L 19.09375 10.015625 
L 19.09375 0 
z
" id="ArialMT-46"/>
       </defs>
       <use xlink:href="#ArialMT-48"/>
       <use x="55.615234" xlink:href="#ArialMT-46"/>
       <use x="83.398438" xlink:href="#ArialMT-48"/>
      </g>
     </g>
    </g>
    <g id="ytick_2">
     <g id="line2d_9">
      <path clip-path="url(#p76f3f1c96d)" d="M 108 320.883656 
L 777.6 320.883656 
" style="fill:none;stroke:#ffffff;stroke-linecap:round;"/>
     </g>
     <g id="text_10">
      <!-- 0.1 -->
      <g style="fill:#262626;" transform="translate(83.21 324.820453)scale(0.11 -0.11)">
       <use xlink:href="#ArialMT-48"/>
       <use x="55.615234" xlink:href="#ArialMT-46"/>
       <use x="83.398438" xlink:href="#ArialMT-49"/>
      </g>
     </g>
    </g>
    <g id="ytick_3">
     <g id="line2d_10">
      <path clip-path="url(#p76f3f1c96d)" d="M 108 263.767312 
L 777.6 263.767312 
" style="fill:none;stroke:#ffffff;stroke-linecap:round;"/>
     </g>
     <g id="text_11">
      <!-- 0.2 -->
      <g style="fill:#262626;" transform="translate(83.21 267.704109)scale(0.11 -0.11)">
       <use xlink:href="#ArialMT-48"/>
       <use x="55.615234" xlink:href="#ArialMT-46"/>
       <use x="83.398438" xlink:href="#ArialMT-50"/>
      </g>
     </g>
    </g>
    <g id="ytick_4">
     <g id="line2d_11">
      <path clip-path="url(#p76f3f1c96d)" d="M 108 206.650968 
L 777.6 206.650968 
" style="fill:none;stroke:#ffffff;stroke-linecap:round;"/>
     </g>
     <g id="text_12">
      <!-- 0.3 -->
      <g style="fill:#262626;" transform="translate(83.21 210.587765)scale(0.11 -0.11)">
       <use xlink:href="#ArialMT-48"/>
       <use x="55.615234" xlink:href="#ArialMT-46"/>
       <use x="83.398438" xlink:href="#ArialMT-51"/>
      </g>
     </g>
    </g>
    <g id="ytick_5">
     <g id="line2d_12">
      <path clip-path="url(#p76f3f1c96d)" d="M 108 149.534624 
L 777.6 149.534624 
" style="fill:none;stroke:#ffffff;stroke-linecap:round;"/>
     </g>
     <g id="text_13">
      <!-- 0.4 -->
      <g style="fill:#262626;" transform="translate(83.21 153.471421)scale(0.11 -0.11)">
       <use xlink:href="#ArialMT-48"/>
       <use x="55.615234" xlink:href="#ArialMT-46"/>
       <use x="83.398438" xlink:href="#ArialMT-52"/>
      </g>
     </g>
    </g>
    <g id="ytick_6">
     <g id="line2d_13">
      <path clip-path="url(#p76f3f1c96d)" d="M 108 92.41828 
L 777.6 92.41828 
" style="fill:none;stroke:#ffffff;stroke-linecap:round;"/>
     </g>
     <g id="text_14">
      <!-- 0.5 -->
      <g style="fill:#262626;" transform="translate(83.21 96.355077)scale(0.11 -0.11)">
       <use xlink:href="#ArialMT-48"/>
       <use x="55.615234" xlink:href="#ArialMT-46"/>
       <use x="83.398438" xlink:href="#ArialMT-53"/>
      </g>
     </g>
    </g>
    <g id="text_15">
     <!-- Density -->
     <g style="fill:#262626;" transform="translate(76.684375 234.92625)rotate(-90)scale(0.12 -0.12)">
      <defs>
       <path d="M 7.71875 0 
L 7.71875 71.578125 
L 32.375 71.578125 
Q 40.71875 71.578125 45.125 70.5625 
Q 51.265625 69.140625 55.609375 65.4375 
Q 61.28125 60.640625 64.078125 53.1875 
Q 66.890625 45.75 66.890625 36.1875 
Q 66.890625 28.03125 64.984375 21.734375 
Q 63.09375 15.4375 60.109375 11.296875 
Q 57.125 7.171875 53.578125 4.796875 
Q 50.046875 2.4375 45.046875 1.21875 
Q 40.046875 0 33.546875 0 
z
M 17.1875 8.453125 
L 32.46875 8.453125 
Q 39.546875 8.453125 43.578125 9.765625 
Q 47.609375 11.078125 50 13.484375 
Q 53.375 16.84375 55.25 22.53125 
Q 57.125 28.21875 57.125 36.328125 
Q 57.125 47.5625 53.4375 53.59375 
Q 49.75 59.625 44.484375 61.671875 
Q 40.671875 63.140625 32.234375 63.140625 
L 17.1875 63.140625 
z
" id="ArialMT-68"/>
       <path d="M 6.59375 0 
L 6.59375 51.859375 
L 14.5 51.859375 
L 14.5 44.484375 
Q 20.21875 53.03125 31 53.03125 
Q 35.6875 53.03125 39.625 51.34375 
Q 43.5625 49.65625 45.515625 46.921875 
Q 47.46875 44.1875 48.25 40.4375 
Q 48.734375 37.984375 48.734375 31.890625 
L 48.734375 0 
L 39.9375 0 
L 39.9375 31.546875 
Q 39.9375 36.921875 38.90625 39.578125 
Q 37.890625 42.234375 35.28125 43.8125 
Q 32.671875 45.40625 29.15625 45.40625 
Q 23.53125 45.40625 19.453125 41.84375 
Q 15.375 38.28125 15.375 28.328125 
L 15.375 0 
z
" id="ArialMT-110"/>
       <path d="M 6.640625 61.46875 
L 6.640625 71.578125 
L 15.4375 71.578125 
L 15.4375 61.46875 
z
M 6.640625 0 
L 6.640625 51.859375 
L 15.4375 51.859375 
L 15.4375 0 
z
" id="ArialMT-105"/>
       <path d="M 25.78125 7.859375 
L 27.046875 0.09375 
Q 23.34375 -0.6875 20.40625 -0.6875 
Q 15.625 -0.6875 12.984375 0.828125 
Q 10.359375 2.34375 9.28125 4.8125 
Q 8.203125 7.28125 8.203125 15.1875 
L 8.203125 45.015625 
L 1.765625 45.015625 
L 1.765625 51.859375 
L 8.203125 51.859375 
L 8.203125 64.703125 
L 16.9375 69.96875 
L 16.9375 51.859375 
L 25.78125 51.859375 
L 25.78125 45.015625 
L 16.9375 45.015625 
L 16.9375 14.703125 
Q 16.9375 10.9375 17.40625 9.859375 
Q 17.875 8.796875 18.921875 8.15625 
Q 19.96875 7.515625 21.921875 7.515625 
Q 23.390625 7.515625 25.78125 7.859375 
z
" id="ArialMT-116"/>
      </defs>
      <use xlink:href="#ArialMT-68"/>
      <use x="72.216797" xlink:href="#ArialMT-101"/>
      <use x="127.832031" xlink:href="#ArialMT-110"/>
      <use x="183.447266" xlink:href="#ArialMT-115"/>
      <use x="233.447266" xlink:href="#ArialMT-105"/>
      <use x="255.664062" xlink:href="#ArialMT-116"/>
      <use x="283.447266" xlink:href="#ArialMT-121"/>
     </g>
    </g>
   </g>
   <g id="LineCollection_1">
    <path clip-path="url(#p76f3f1c96d)" d="M 380.937198 378 
L 380.937198 369.846 
" style="fill:none;stroke:#dd8452;"/>
    <path clip-path="url(#p76f3f1c96d)" style="fill:none;stroke:#dd8452;"/>
    <path clip-path="url(#p76f3f1c96d)" d="M 352.309789 378 
L 352.309789 369.846 
" style="fill:none;stroke:#dd8452;"/>
    <path clip-path="url(#p76f3f1c96d)" d="M 694.85919 378 
L 694.85919 369.846 
" style="fill:none;stroke:#dd8452;"/>
    <path clip-path="url(#p76f3f1c96d)" d="M 454.937977 378 
L 454.937977 369.846 
" style="fill:none;stroke:#dd8452;"/>
    <path clip-path="url(#p76f3f1c96d)" d="M 587.879548 378 
L 587.879548 369.846 
" style="fill:none;stroke:#dd8452;"/>
    <path clip-path="url(#p76f3f1c96d)" d="M 331.212374 378 
L 331.212374 369.846 
" style="fill:none;stroke:#dd8452;"/>
    <path clip-path="url(#p76f3f1c96d)" d="M 359.839783 378 
L 359.839783 369.846 
" style="fill:none;stroke:#dd8452;"/>
    <path clip-path="url(#p76f3f1c96d)" d="M 380.937198 378 
L 380.937198 369.846 
" style="fill:none;stroke:#dd8452;"/>
    <path clip-path="url(#p76f3f1c96d)" d="M 352.309789 378 
L 352.309789 369.846 
" style="fill:none;stroke:#dd8452;"/>
    <path clip-path="url(#p76f3f1c96d)" d="M 359.839783 378 
L 359.839783 369.846 
" style="fill:none;stroke:#dd8452;"/>
    <path clip-path="url(#p76f3f1c96d)" d="M 336.381689 378 
L 336.381689 369.846 
" style="fill:none;stroke:#dd8452;"/>
    <path clip-path="url(#p76f3f1c96d)" d="M 343.093822 378 
L 343.093822 369.846 
" style="fill:none;stroke:#dd8452;"/>
    <path clip-path="url(#p76f3f1c96d)" d="M 302.584965 378 
L 302.584965 369.846 
" style="fill:none;stroke:#dd8452;"/>
    <path clip-path="url(#p76f3f1c96d)" d="M 566.782132 378 
L 566.782132 369.846 
" style="fill:none;stroke:#dd8452;"/>
    <path clip-path="url(#p76f3f1c96d)" d="M 578.66358 378 
L 578.66358 369.846 
" style="fill:none;stroke:#dd8452;"/>
    <path clip-path="url(#p76f3f1c96d)" d="M 587.879548 378 
L 587.879548 369.846 
" style="fill:none;stroke:#dd8452;"/>
    <path clip-path="url(#p76f3f1c96d)" d="M 359.839783 378 
L 359.839783 369.846 
" style="fill:none;stroke:#dd8452;"/>
    <path clip-path="url(#p76f3f1c96d)" d="M 571.133587 378 
L 571.133587 369.846 
" style="fill:none;stroke:#dd8452;"/>
    <path clip-path="url(#p76f3f1c96d)" d="M 314.466413 378 
L 314.466413 369.846 
" style="fill:none;stroke:#dd8452;"/>
    <path clip-path="url(#p76f3f1c96d)" d="M 616.506957 378 
L 616.506957 369.846 
" style="fill:none;stroke:#dd8452;"/>
    <path clip-path="url(#p76f3f1c96d)" d="M 409.564607 378 
L 409.564607 369.846 
" style="fill:none;stroke:#dd8452;"/>
    <path clip-path="url(#p76f3f1c96d)" d="M 447.407984 378 
L 447.407984 369.846 
" style="fill:none;stroke:#dd8452;"/>
    <path clip-path="url(#p76f3f1c96d)" d="M 343.093822 378 
L 343.093822 369.846 
" style="fill:none;stroke:#dd8452;"/>
    <path clip-path="url(#p76f3f1c96d)" d="M 466.819425 378 
L 466.819425 369.846 
" style="fill:none;stroke:#dd8452;"/>
    <path clip-path="url(#p76f3f1c96d)" d="M 542.506178 378 
L 542.506178 369.846 
" style="fill:none;stroke:#dd8452;"/>
    <path clip-path="url(#p76f3f1c96d)" d="M 236.11418 378 
L 236.11418 369.846 
" style="fill:none;stroke:#dd8452;"/>
    <path clip-path="url(#p76f3f1c96d)" d="M 447.407984 378 
L 447.407984 369.846 
" style="fill:none;stroke:#dd8452;"/>
    <path clip-path="url(#p76f3f1c96d)" d="M 521.408762 378 
L 521.408762 369.846 
" style="fill:none;stroke:#dd8452;"/>
    <path clip-path="url(#p76f3f1c96d)" d="M 492.781353 378 
L 492.781353 369.846 
" style="fill:none;stroke:#dd8452;"/>
    <path clip-path="url(#p76f3f1c96d)" d="M 276.623037 378 
L 276.623037 369.846 
" style="fill:none;stroke:#dd8452;"/>
    <path clip-path="url(#p76f3f1c96d)" d="M 504.662802 378 
L 504.662802 369.846 
" style="fill:none;stroke:#dd8452;"/>
    <path clip-path="url(#p76f3f1c96d)" d="M 409.564607 378 
L 409.564607 369.846 
" style="fill:none;stroke:#dd8452;"/>
    <path clip-path="url(#p76f3f1c96d)" d="M 219.368219 378 
L 219.368219 369.846 
" style="fill:none;stroke:#dd8452;"/>
    <path clip-path="url(#p76f3f1c96d)" d="M 257.211595 378 
L 257.211595 369.846 
" style="fill:none;stroke:#dd8452;"/>
    <path clip-path="url(#p76f3f1c96d)" d="M 397.683159 378 
L 397.683159 369.846 
" style="fill:none;stroke:#dd8452;"/>
    <path clip-path="url(#p76f3f1c96d)" d="M 366.206302 378 
L 366.206302 369.846 
" style="fill:none;stroke:#dd8452;"/>
    <path clip-path="url(#p76f3f1c96d)" d="M 380.937198 378 
L 380.937198 369.846 
" style="fill:none;stroke:#dd8452;"/>
    <path clip-path="url(#p76f3f1c96d)" d="M 550.036171 378 
L 550.036171 369.846 
" style="fill:none;stroke:#dd8452;"/>
    <path clip-path="url(#p76f3f1c96d)" d="M 454.937977 378 
L 454.937977 369.846 
" style="fill:none;stroke:#dd8452;"/>
    <path clip-path="url(#p76f3f1c96d)" d="M 521.408762 378 
L 521.408762 369.846 
" style="fill:none;stroke:#dd8452;"/>
    <path clip-path="url(#p76f3f1c96d)" d="M 513.878769 378 
L 513.878769 369.846 
" style="fill:none;stroke:#dd8452;"/>
    <path clip-path="url(#p76f3f1c96d)" d="M 352.309789 378 
L 352.309789 369.846 
" style="fill:none;stroke:#dd8452;"/>
    <path clip-path="url(#p76f3f1c96d)" d="M 380.937198 378 
L 380.937198 369.846 
" style="fill:none;stroke:#dd8452;"/>
    <path clip-path="url(#p76f3f1c96d)" d="M 219.368219 378 
L 219.368219 369.846 
" style="fill:none;stroke:#dd8452;"/>
    <path clip-path="url(#p76f3f1c96d)" d="M 352.309789 378 
L 352.309789 369.846 
" style="fill:none;stroke:#dd8452;"/>
    <path clip-path="url(#p76f3f1c96d)" d="M 343.093822 378 
L 343.093822 369.846 
" style="fill:none;stroke:#dd8452;"/>
    <path clip-path="url(#p76f3f1c96d)" d="M 571.133587 378 
L 571.133587 369.846 
" style="fill:none;stroke:#dd8452;"/>
    <path clip-path="url(#p76f3f1c96d)" d="M 343.093822 378 
L 343.093822 369.846 
" style="fill:none;stroke:#dd8452;"/>
    <path clip-path="url(#p76f3f1c96d)" d="M 430.620702 378 
L 430.620702 369.846 
" style="fill:none;stroke:#dd8452;"/>
    <path clip-path="url(#p76f3f1c96d)" d="M 380.937198 378 
L 380.937198 369.846 
" style="fill:none;stroke:#dd8452;"/>
    <path clip-path="url(#p76f3f1c96d)" d="M 190.74081 378 
L 190.74081 369.846 
" style="fill:none;stroke:#dd8452;"/>
    <path clip-path="url(#p76f3f1c96d)" d="M 380.937198 378 
L 380.937198 369.846 
" style="fill:none;stroke:#dd8452;"/>
    <path clip-path="url(#p76f3f1c96d)" d="M 426.310568 378 
L 426.310568 369.846 
" style="fill:none;stroke:#dd8452;"/>
    <path clip-path="url(#p76f3f1c96d)" d="M 426.310568 378 
L 426.310568 369.846 
" style="fill:none;stroke:#dd8452;"/>
    <path clip-path="url(#p76f3f1c96d)" d="M 542.506178 378 
L 542.506178 369.846 
" style="fill:none;stroke:#dd8452;"/>
    <path clip-path="url(#p76f3f1c96d)" d="M 497.950669 378 
L 497.950669 369.846 
" style="fill:none;stroke:#dd8452;"/>
    <path clip-path="url(#p76f3f1c96d)" d="M 578.66358 378 
L 578.66358 369.846 
" style="fill:none;stroke:#dd8452;"/>
    <path clip-path="url(#p76f3f1c96d)" d="M 337.578893 378 
L 337.578893 369.846 
" style="fill:none;stroke:#dd8452;"/>
    <path clip-path="url(#p76f3f1c96d)" d="M 299.735517 378 
L 299.735517 369.846 
" style="fill:none;stroke:#dd8452;"/>
    <path clip-path="url(#p76f3f1c96d)" d="M 409.564607 378 
L 409.564607 369.846 
" style="fill:none;stroke:#dd8452;"/>
    <path clip-path="url(#p76f3f1c96d)" d="M 380.937198 378 
L 380.937198 369.846 
" style="fill:none;stroke:#dd8452;"/>
    <path clip-path="url(#p76f3f1c96d)" d="M 497.950669 378 
L 497.950669 369.846 
" style="fill:none;stroke:#dd8452;"/>
    <path clip-path="url(#p76f3f1c96d)" d="M 343.093822 378 
L 343.093822 369.846 
" style="fill:none;stroke:#dd8452;"/>
    <path clip-path="url(#p76f3f1c96d)" d="M 337.578893 378 
L 337.578893 369.846 
" style="fill:none;stroke:#dd8452;"/>
    <path clip-path="url(#p76f3f1c96d)" d="M 369.05575 378 
L 369.05575 369.846 
" style="fill:none;stroke:#dd8452;"/>
    <path clip-path="url(#p76f3f1c96d)" d="M 492.781353 378 
L 492.781353 369.846 
" style="fill:none;stroke:#dd8452;"/>
    <path clip-path="url(#p76f3f1c96d)" d="M 352.309789 378 
L 352.309789 369.846 
" style="fill:none;stroke:#dd8452;"/>
    <path clip-path="url(#p76f3f1c96d)" d="M 331.212374 378 
L 331.212374 369.846 
" style="fill:none;stroke:#dd8452;"/>
    <path clip-path="url(#p76f3f1c96d)" d="M 447.407984 378 
L 447.407984 369.846 
" style="fill:none;stroke:#dd8452;"/>
    <path clip-path="url(#p76f3f1c96d)" d="M 411.579671 378 
L 411.579671 369.846 
" style="fill:none;stroke:#dd8452;"/>
    <path clip-path="url(#p76f3f1c96d)" d="M 612.155502 378 
L 612.155502 369.846 
" style="fill:none;stroke:#dd8452;"/>
    <path clip-path="url(#p76f3f1c96d)" d="M 476.035393 378 
L 476.035393 369.846 
" style="fill:none;stroke:#dd8452;"/>
    <path clip-path="url(#p76f3f1c96d)" d="M 486.8712 378 
L 486.8712 369.846 
" style="fill:none;stroke:#dd8452;"/>
    <path clip-path="url(#p76f3f1c96d)" d="M 608.976963 378 
L 608.976963 369.846 
" style="fill:none;stroke:#dd8452;"/>
    <path clip-path="url(#p76f3f1c96d)" d="M 359.839783 378 
L 359.839783 369.846 
" style="fill:none;stroke:#dd8452;"/>
    <path clip-path="url(#p76f3f1c96d)" d="M 476.035393 378 
L 476.035393 369.846 
" style="fill:none;stroke:#dd8452;"/>
    <path clip-path="url(#p76f3f1c96d)" style="fill:none;stroke:#dd8452;"/>
    <path clip-path="url(#p76f3f1c96d)" d="M 585.030099 378 
L 585.030099 369.846 
" style="fill:none;stroke:#dd8452;"/>
    <path clip-path="url(#p76f3f1c96d)" d="M 550.036171 378 
L 550.036171 369.846 
" style="fill:none;stroke:#dd8452;"/>
    <path clip-path="url(#p76f3f1c96d)" d="M 586.479392 378 
L 586.479392 369.846 
" style="fill:none;stroke:#dd8452;"/>
    <path clip-path="url(#p76f3f1c96d)" d="M 587.879548 378 
L 587.879548 369.846 
" style="fill:none;stroke:#dd8452;"/>
    <path clip-path="url(#p76f3f1c96d)" d="M 447.407984 378 
L 447.407984 369.846 
" style="fill:none;stroke:#dd8452;"/>
    <path clip-path="url(#p76f3f1c96d)" d="M 352.309789 378 
L 352.309789 369.846 
" style="fill:none;stroke:#dd8452;"/>
    <path clip-path="url(#p76f3f1c96d)" d="M 590.545029 378 
L 590.545029 369.846 
" style="fill:none;stroke:#dd8452;"/>
    <path clip-path="url(#p76f3f1c96d)" d="M 633.252917 378 
L 633.252917 369.846 
" style="fill:none;stroke:#dd8452;"/>
    <path clip-path="url(#p76f3f1c96d)" d="M 219.368219 378 
L 219.368219 369.846 
" style="fill:none;stroke:#dd8452;"/>
    <path clip-path="url(#p76f3f1c96d)" d="M 397.683159 378 
L 397.683159 369.846 
" style="fill:none;stroke:#dd8452;"/>
    <path clip-path="url(#p76f3f1c96d)" d="M 409.564607 378 
L 409.564607 369.846 
" style="fill:none;stroke:#dd8452;"/>
    <path clip-path="url(#p76f3f1c96d)" d="M 331.212374 378 
L 331.212374 369.846 
" style="fill:none;stroke:#dd8452;"/>
    <path clip-path="url(#p76f3f1c96d)" d="M 500.311347 378 
L 500.311347 369.846 
" style="fill:none;stroke:#dd8452;"/>
    <path clip-path="url(#p76f3f1c96d)" d="M 380.937198 378 
L 380.937198 369.846 
" style="fill:none;stroke:#dd8452;"/>
    <path clip-path="url(#p76f3f1c96d)" d="M 380.937198 378 
L 380.937198 369.846 
" style="fill:none;stroke:#dd8452;"/>
    <path clip-path="url(#p76f3f1c96d)" d="M 438.192016 378 
L 438.192016 369.846 
" style="fill:none;stroke:#dd8452;"/>
    <path clip-path="url(#p76f3f1c96d)" d="M 593.048863 378 
L 593.048863 369.846 
" style="fill:none;stroke:#dd8452;"/>
    <path clip-path="url(#p76f3f1c96d)" d="M 587.879548 378 
L 587.879548 369.846 
" style="fill:none;stroke:#dd8452;"/>
    <path clip-path="url(#p76f3f1c96d)" d="M 418.780575 378 
L 418.780575 369.846 
" style="fill:none;stroke:#dd8452;"/>
    <path clip-path="url(#p76f3f1c96d)" d="M 409.564607 378 
L 409.564607 369.846 
" style="fill:none;stroke:#dd8452;"/>
    <path clip-path="url(#p76f3f1c96d)" d="M 352.309789 378 
L 352.309789 369.846 
" style="fill:none;stroke:#dd8452;"/>
    <path clip-path="url(#p76f3f1c96d)" d="M 359.839783 378 
L 359.839783 369.846 
" style="fill:none;stroke:#dd8452;"/>
   </g>
   <g id="line2d_14">
    <path clip-path="url(#p76f3f1c96d)" d="M 138.436364 377.858313 
L 144.554226 377.616576 
L 150.672088 377.079492 
L 153.731019 376.635349 
L 156.78995 376.034447 
L 159.848881 375.247791 
L 162.907812 374.250672 
L 165.966743 373.025642 
L 169.025674 371.56453 
L 172.084605 369.868727 
L 175.143536 367.947319 
L 178.202467 365.813212 
L 181.261398 363.478213 
L 184.320329 360.948681 
L 187.37926 358.223713 
L 190.438191 355.297547 
L 193.497122 352.166857 
L 199.614984 345.360682 
L 205.732846 338.270947 
L 208.791777 334.93742 
L 211.850708 331.978764 
L 214.909639 329.579205 
L 217.96857 327.898661 
L 221.027501 327.04698 
L 224.086432 327.064806 
L 227.145363 327.915294 
L 230.204294 329.488398 
L 233.263225 331.616667 
L 236.322156 334.099006 
L 242.440018 339.31191 
L 245.498949 341.698506 
L 248.55788 343.779581 
L 251.616811 345.494564 
L 254.675742 346.823345 
L 257.734673 347.774598 
L 260.793604 348.372077 
L 263.852535 348.641703 
L 266.911466 348.601625 
L 269.970397 348.256467 
L 273.029328 347.59597 
L 276.088259 346.597219 
L 279.14719 345.228787 
L 282.206122 343.45462 
L 285.265053 341.235386 
L 288.323984 338.525533 
L 291.382915 335.265468 
L 294.441846 331.369932 
L 297.500777 326.715465 
L 300.559708 321.131302 
L 303.618639 314.398613 
L 306.67757 306.262222 
L 309.736501 296.456828 
L 312.795432 284.7466 
L 315.854363 270.973521 
L 318.913294 255.106891 
L 321.972225 237.284822 
L 325.031156 217.838746 
L 334.207949 155.798639 
L 337.26688 136.510794 
L 340.325811 119.296789 
L 343.384742 104.853924 
L 346.443673 93.692827 
L 349.502604 86.092711 
L 352.561535 82.086575 
L 355.620466 81.478101 
L 358.679397 83.886345 
L 361.738328 88.809192 
L 364.797259 95.693048 
L 367.85619 103.99557 
L 370.915121 113.230733 
L 383.150845 152.424231 
L 386.209776 161.533062 
L 389.268707 169.994787 
L 392.327638 177.684804 
L 395.386569 184.534088 
L 398.4455 190.544099 
L 401.504431 195.790955 
L 404.563362 200.413724 
L 407.622293 204.587425 
L 413.740155 212.251137 
L 419.858017 219.619384 
L 425.975879 226.589869 
L 429.03481 229.757375 
L 432.093741 232.660376 
L 435.152672 235.326093 
L 444.329466 242.933564 
L 447.388397 245.758434 
L 450.447328 248.851462 
L 459.624121 258.918373 
L 462.683052 261.890883 
L 465.741983 264.267413 
L 468.800914 265.844221 
L 471.859845 266.500141 
L 474.918776 266.22312 
L 477.977707 265.120094 
L 481.036638 263.40886 
L 487.1545 259.426781 
L 490.213431 257.866594 
L 493.272362 257.030533 
L 496.331293 257.157378 
L 499.390224 258.379392 
L 502.449155 260.70927 
L 505.508086 264.042694 
L 508.567017 268.175024 
L 511.625948 272.828723 
L 517.74381 282.42809 
L 520.802741 286.757684 
L 523.861672 290.432511 
L 526.920603 293.275836 
L 529.979534 295.181465 
L 533.038465 296.106888 
L 536.097396 296.05701 
L 539.156327 295.061787 
L 542.215258 293.152686 
L 545.274189 290.343872 
L 548.33312 286.623769 
L 551.392051 281.960922 
L 554.450982 276.324971 
L 557.509913 269.719658 
L 560.568844 262.221068 
L 563.627775 254.011822 
L 569.745637 236.825232 
L 572.804568 228.817442 
L 575.863499 221.96112 
L 578.92243 216.821001 
L 581.981361 213.87131 
L 585.040292 213.431709 
L 588.099223 215.623783 
L 591.158154 220.356574 
L 594.217085 227.343743 
L 597.276016 236.148426 
L 600.334947 246.246309 
L 612.570672 289.605094 
L 615.629603 299.433005 
L 618.688534 308.526072 
L 621.747465 316.870942 
L 624.806396 324.500146 
L 627.865327 331.466789 
L 630.924258 337.825384 
L 633.983189 343.62 
L 637.04212 348.879086 
L 640.101051 353.615376 
L 643.159982 357.828994 
L 646.218913 361.512098 
L 649.277844 364.653836 
L 652.336775 367.244871 
L 655.395706 369.281145 
L 658.454637 370.766897 
L 661.513568 371.717133 
L 664.572499 372.159808 
L 667.63143 372.137842 
L 670.690361 371.710844 
L 673.749292 370.956044 
L 676.808223 369.967729 
L 685.985016 366.720785 
L 689.043947 365.924751 
L 692.102878 365.431047 
L 695.161809 365.295687 
L 698.22074 365.538662 
L 701.279671 366.142697 
L 704.338602 367.057089 
L 707.397533 368.205967 
L 719.633257 373.378736 
L 722.692188 374.453485 
L 725.751119 375.360782 
L 728.81005 376.095502 
L 731.868981 376.667345 
L 734.927912 377.095755 
L 741.045774 377.620408 
L 747.163636 377.859112 
L 747.163636 377.859112 
" style="fill:none;stroke:#4c72b0;stroke-linecap:round;stroke-width:1.5;"/>
   </g>
   <g id="patch_3">
    <path d="M 108 378 
L 108 51.84 
" style="fill:none;stroke:#ffffff;stroke-linecap:square;stroke-linejoin:miter;stroke-width:1.25;"/>
   </g>
   <g id="patch_4">
    <path d="M 777.6 378 
L 777.6 51.84 
" style="fill:none;stroke:#ffffff;stroke-linecap:square;stroke-linejoin:miter;stroke-width:1.25;"/>
   </g>
   <g id="patch_5">
    <path d="M 108 378 
L 777.6 378 
" style="fill:none;stroke:#ffffff;stroke-linecap:square;stroke-linejoin:miter;stroke-width:1.25;"/>
   </g>
   <g id="patch_6">
    <path d="M 108 51.84 
L 777.6 51.84 
" style="fill:none;stroke:#ffffff;stroke-linecap:square;stroke-linejoin:miter;stroke-width:1.25;"/>
   </g>
   <g id="text_16">
    <!-- Employer Size -->
    <g style="fill:#262626;" transform="translate(404.120625 45.84)scale(0.12 -0.12)">
     <defs>
      <path d="M 4.5 23 
L 13.421875 23.78125 
Q 14.0625 18.40625 16.375 14.96875 
Q 18.703125 11.53125 23.578125 9.40625 
Q 28.46875 7.28125 34.578125 7.28125 
Q 39.984375 7.28125 44.140625 8.890625 
Q 48.296875 10.5 50.3125 13.296875 
Q 52.34375 16.109375 52.34375 19.4375 
Q 52.34375 22.796875 50.390625 25.3125 
Q 48.4375 27.828125 43.953125 29.546875 
Q 41.0625 30.671875 31.203125 33.03125 
Q 21.34375 35.40625 17.390625 37.5 
Q 12.25 40.1875 9.734375 44.15625 
Q 7.234375 48.140625 7.234375 53.078125 
Q 7.234375 58.5 10.296875 63.203125 
Q 13.375 67.921875 19.28125 70.359375 
Q 25.203125 72.796875 32.421875 72.796875 
Q 40.375 72.796875 46.453125 70.234375 
Q 52.546875 67.671875 55.8125 62.6875 
Q 59.078125 57.71875 59.328125 51.421875 
L 50.25 50.734375 
Q 49.515625 57.515625 45.28125 60.984375 
Q 41.0625 64.453125 32.8125 64.453125 
Q 24.21875 64.453125 20.28125 61.296875 
Q 16.359375 58.15625 16.359375 53.71875 
Q 16.359375 49.859375 19.140625 47.359375 
Q 21.875 44.875 33.421875 42.265625 
Q 44.96875 39.65625 49.265625 37.703125 
Q 55.515625 34.8125 58.484375 30.390625 
Q 61.46875 25.984375 61.46875 20.21875 
Q 61.46875 14.5 58.203125 9.4375 
Q 54.9375 4.390625 48.796875 1.578125 
Q 42.671875 -1.21875 35.015625 -1.21875 
Q 25.296875 -1.21875 18.71875 1.609375 
Q 12.15625 4.4375 8.421875 10.125 
Q 4.6875 15.828125 4.5 23 
z
" id="ArialMT-83"/>
      <path d="M 1.953125 0 
L 1.953125 7.125 
L 34.96875 45.015625 
Q 29.34375 44.734375 25.046875 44.734375 
L 3.90625 44.734375 
L 3.90625 51.859375 
L 46.296875 51.859375 
L 46.296875 46.046875 
L 18.21875 13.140625 
L 12.796875 7.125 
Q 18.703125 7.5625 23.875 7.5625 
L 47.859375 7.5625 
L 47.859375 0 
z
" id="ArialMT-122"/>
     </defs>
     <use xlink:href="#ArialMT-69"/>
     <use x="66.699219" xlink:href="#ArialMT-109"/>
     <use x="150" xlink:href="#ArialMT-112"/>
     <use x="205.615234" xlink:href="#ArialMT-108"/>
     <use x="227.832031" xlink:href="#ArialMT-111"/>
     <use x="283.447266" xlink:href="#ArialMT-121"/>
     <use x="333.447266" xlink:href="#ArialMT-101"/>
     <use x="389.0625" xlink:href="#ArialMT-114"/>
     <use x="422.363281" xlink:href="#ArialMT-32"/>
     <use x="450.146484" xlink:href="#ArialMT-83"/>
     <use x="516.845703" xlink:href="#ArialMT-105"/>
     <use x="539.0625" xlink:href="#ArialMT-122"/>
     <use x="589.0625" xlink:href="#ArialMT-101"/>
    </g>
   </g>
  </g>
 </g>
 <defs>
  <clipPath id="p76f3f1c96d">
   <rect height="326.16" width="669.6" x="108" y="51.84"/>
  </clipPath>
 </defs>
</svg>
