<?xml version="1.0" encoding="utf-8" standalone="no"?>
<!DOCTYPE svg PUBLIC "-//W3C//DTD SVG 1.1//EN"
  "http://www.w3.org/Graphics/SVG/1.1/DTD/svg11.dtd">
<svg height="432pt" version="1.1" viewBox="0 0 864 432" width="864pt" xmlns="http://www.w3.org/2000/svg" xmlns:xlink="http://www.w3.org/1999/xlink">
 <metadata>
  <rdf:RDF xmlns:cc="http://creativecommons.org/ns#" xmlns:dc="http://purl.org/dc/elements/1.1/" xmlns:rdf="http://www.w3.org/1999/02/22-rdf-syntax-ns#">
   <cc:Work>
    <dc:type rdf:resource="http://purl.org/dc/dcmitype/StillImage"/>
    <dc:date>2022-01-07T22:15:37.347087</dc:date>
    <dc:format>image/svg+xml</dc:format>
    <dc:creator>
     <cc:Agent>
      <dc:title>Matplotlib v3.4.3, https://matplotlib.org/</dc:title>
     </cc:Agent>
    </dc:creator>
   </cc:Work>
  </rdf:RDF>
 </metadata>
 <defs>
  <style type="text/css">*{stroke-linecap:butt;stroke-linejoin:round;}</style>
 </defs>
 <g id="figure_1">
  <g id="patch_1">
   <path d="M 0 432 
L 864 432 
L 864 0 
L 0 0 
z
" style="fill:#ffffff;"/>
  </g>
  <g id="axes_1">
   <g id="patch_2">
    <path d="M 108 378 
L 777.6 378 
L 777.6 51.84 
L 108 51.84 
z
" style="fill:#eaeaf2;"/>
   </g>
   <g id="matplotlib.axis_1">
    <g id="xtick_1">
     <g id="text_1">
      <!-- 0 -->
      <g style="fill:#262626;" transform="translate(272.341484 395.373594)scale(0.11 -0.11)">
       <defs>
        <path d="M 266 2259 
Q 266 3072 433 3567 
Q 600 4063 929 4331 
Q 1259 4600 1759 4600 
Q 2128 4600 2406 4451 
Q 2684 4303 2865 4023 
Q 3047 3744 3150 3342 
Q 3253 2941 3253 2259 
Q 3253 1453 3087 958 
Q 2922 463 2592 192 
Q 2263 -78 1759 -78 
Q 1097 -78 719 397 
Q 266 969 266 2259 
z
M 844 2259 
Q 844 1131 1108 757 
Q 1372 384 1759 384 
Q 2147 384 2411 759 
Q 2675 1134 2675 2259 
Q 2675 3391 2411 3762 
Q 2147 4134 1753 4134 
Q 1366 4134 1134 3806 
Q 844 3388 844 2259 
z
" id="ArialMT-30" transform="scale(0.015625)"/>
       </defs>
       <use xlink:href="#ArialMT-30"/>
      </g>
     </g>
    </g>
    <g id="xtick_2">
     <g id="text_2">
      <!-- 1 -->
      <g style="fill:#262626;" transform="translate(607.141484 395.373594)scale(0.11 -0.11)">
       <defs>
        <path d="M 2384 0 
L 1822 0 
L 1822 3584 
Q 1619 3391 1289 3197 
Q 959 3003 697 2906 
L 697 3450 
Q 1169 3672 1522 3987 
Q 1875 4303 2022 4600 
L 2384 4600 
L 2384 0 
z
" id="ArialMT-31" transform="scale(0.015625)"/>
       </defs>
       <use xlink:href="#ArialMT-31"/>
      </g>
     </g>
    </g>
    <g id="text_3">
     <!-- Has Children -->
     <g style="fill:#262626;" transform="translate(408.12 410.149219)scale(0.12 -0.12)">
      <defs>
       <path d="M 513 0 
L 513 4581 
L 1119 4581 
L 1119 2700 
L 3500 2700 
L 3500 4581 
L 4106 4581 
L 4106 0 
L 3500 0 
L 3500 2159 
L 1119 2159 
L 1119 0 
L 513 0 
z
" id="ArialMT-48" transform="scale(0.015625)"/>
       <path d="M 2588 409 
Q 2275 144 1986 34 
Q 1697 -75 1366 -75 
Q 819 -75 525 192 
Q 231 459 231 875 
Q 231 1119 342 1320 
Q 453 1522 633 1644 
Q 813 1766 1038 1828 
Q 1203 1872 1538 1913 
Q 2219 1994 2541 2106 
Q 2544 2222 2544 2253 
Q 2544 2597 2384 2738 
Q 2169 2928 1744 2928 
Q 1347 2928 1158 2789 
Q 969 2650 878 2297 
L 328 2372 
Q 403 2725 575 2942 
Q 747 3159 1072 3276 
Q 1397 3394 1825 3394 
Q 2250 3394 2515 3294 
Q 2781 3194 2906 3042 
Q 3031 2891 3081 2659 
Q 3109 2516 3109 2141 
L 3109 1391 
Q 3109 606 3145 398 
Q 3181 191 3288 0 
L 2700 0 
Q 2613 175 2588 409 
z
M 2541 1666 
Q 2234 1541 1622 1453 
Q 1275 1403 1131 1340 
Q 988 1278 909 1158 
Q 831 1038 831 891 
Q 831 666 1001 516 
Q 1172 366 1500 366 
Q 1825 366 2078 508 
Q 2331 650 2450 897 
Q 2541 1088 2541 1459 
L 2541 1666 
z
" id="ArialMT-61" transform="scale(0.015625)"/>
       <path d="M 197 991 
L 753 1078 
Q 800 744 1014 566 
Q 1228 388 1613 388 
Q 2000 388 2187 545 
Q 2375 703 2375 916 
Q 2375 1106 2209 1216 
Q 2094 1291 1634 1406 
Q 1016 1563 777 1677 
Q 538 1791 414 1992 
Q 291 2194 291 2438 
Q 291 2659 392 2848 
Q 494 3038 669 3163 
Q 800 3259 1026 3326 
Q 1253 3394 1513 3394 
Q 1903 3394 2198 3281 
Q 2494 3169 2634 2976 
Q 2775 2784 2828 2463 
L 2278 2388 
Q 2241 2644 2061 2787 
Q 1881 2931 1553 2931 
Q 1166 2931 1000 2803 
Q 834 2675 834 2503 
Q 834 2394 903 2306 
Q 972 2216 1119 2156 
Q 1203 2125 1616 2013 
Q 2213 1853 2448 1751 
Q 2684 1650 2818 1456 
Q 2953 1263 2953 975 
Q 2953 694 2789 445 
Q 2625 197 2315 61 
Q 2006 -75 1616 -75 
Q 969 -75 630 194 
Q 291 463 197 991 
z
" id="ArialMT-73" transform="scale(0.015625)"/>
       <path id="ArialMT-20" transform="scale(0.015625)"/>
       <path d="M 3763 1606 
L 4369 1453 
Q 4178 706 3683 314 
Q 3188 -78 2472 -78 
Q 1731 -78 1267 223 
Q 803 525 561 1097 
Q 319 1669 319 2325 
Q 319 3041 592 3573 
Q 866 4106 1370 4382 
Q 1875 4659 2481 4659 
Q 3169 4659 3637 4309 
Q 4106 3959 4291 3325 
L 3694 3184 
Q 3534 3684 3231 3912 
Q 2928 4141 2469 4141 
Q 1941 4141 1586 3887 
Q 1231 3634 1087 3207 
Q 944 2781 944 2328 
Q 944 1744 1114 1308 
Q 1284 872 1643 656 
Q 2003 441 2422 441 
Q 2931 441 3284 734 
Q 3638 1028 3763 1606 
z
" id="ArialMT-43" transform="scale(0.015625)"/>
       <path d="M 422 0 
L 422 4581 
L 984 4581 
L 984 2938 
Q 1378 3394 1978 3394 
Q 2347 3394 2619 3248 
Q 2891 3103 3008 2847 
Q 3125 2591 3125 2103 
L 3125 0 
L 2563 0 
L 2563 2103 
Q 2563 2525 2380 2717 
Q 2197 2909 1863 2909 
Q 1613 2909 1392 2779 
Q 1172 2650 1078 2428 
Q 984 2206 984 1816 
L 984 0 
L 422 0 
z
" id="ArialMT-68" transform="scale(0.015625)"/>
       <path d="M 425 3934 
L 425 4581 
L 988 4581 
L 988 3934 
L 425 3934 
z
M 425 0 
L 425 3319 
L 988 3319 
L 988 0 
L 425 0 
z
" id="ArialMT-69" transform="scale(0.015625)"/>
       <path d="M 409 0 
L 409 4581 
L 972 4581 
L 972 0 
L 409 0 
z
" id="ArialMT-6c" transform="scale(0.015625)"/>
       <path d="M 2575 0 
L 2575 419 
Q 2259 -75 1647 -75 
Q 1250 -75 917 144 
Q 584 363 401 755 
Q 219 1147 219 1656 
Q 219 2153 384 2558 
Q 550 2963 881 3178 
Q 1213 3394 1622 3394 
Q 1922 3394 2156 3267 
Q 2391 3141 2538 2938 
L 2538 4581 
L 3097 4581 
L 3097 0 
L 2575 0 
z
M 797 1656 
Q 797 1019 1065 703 
Q 1334 388 1700 388 
Q 2069 388 2326 689 
Q 2584 991 2584 1609 
Q 2584 2291 2321 2609 
Q 2059 2928 1675 2928 
Q 1300 2928 1048 2622 
Q 797 2316 797 1656 
z
" id="ArialMT-64" transform="scale(0.015625)"/>
       <path d="M 416 0 
L 416 3319 
L 922 3319 
L 922 2816 
Q 1116 3169 1280 3281 
Q 1444 3394 1641 3394 
Q 1925 3394 2219 3213 
L 2025 2691 
Q 1819 2813 1613 2813 
Q 1428 2813 1281 2702 
Q 1134 2591 1072 2394 
Q 978 2094 978 1738 
L 978 0 
L 416 0 
z
" id="ArialMT-72" transform="scale(0.015625)"/>
       <path d="M 2694 1069 
L 3275 997 
Q 3138 488 2766 206 
Q 2394 -75 1816 -75 
Q 1088 -75 661 373 
Q 234 822 234 1631 
Q 234 2469 665 2931 
Q 1097 3394 1784 3394 
Q 2450 3394 2872 2941 
Q 3294 2488 3294 1666 
Q 3294 1616 3291 1516 
L 816 1516 
Q 847 969 1125 678 
Q 1403 388 1819 388 
Q 2128 388 2347 550 
Q 2566 713 2694 1069 
z
M 847 1978 
L 2700 1978 
Q 2663 2397 2488 2606 
Q 2219 2931 1791 2931 
Q 1403 2931 1139 2672 
Q 875 2413 847 1978 
z
" id="ArialMT-65" transform="scale(0.015625)"/>
       <path d="M 422 0 
L 422 3319 
L 928 3319 
L 928 2847 
Q 1294 3394 1984 3394 
Q 2284 3394 2536 3286 
Q 2788 3178 2913 3003 
Q 3038 2828 3088 2588 
Q 3119 2431 3119 2041 
L 3119 0 
L 2556 0 
L 2556 2019 
Q 2556 2363 2490 2533 
Q 2425 2703 2258 2804 
Q 2091 2906 1866 2906 
Q 1506 2906 1245 2678 
Q 984 2450 984 1813 
L 984 0 
L 422 0 
z
" id="ArialMT-6e" transform="scale(0.015625)"/>
      </defs>
      <use xlink:href="#ArialMT-48"/>
      <use x="72.216797" xlink:href="#ArialMT-61"/>
      <use x="127.832031" xlink:href="#ArialMT-73"/>
      <use x="177.832031" xlink:href="#ArialMT-20"/>
      <use x="205.615234" xlink:href="#ArialMT-43"/>
      <use x="277.832031" xlink:href="#ArialMT-68"/>
      <use x="333.447266" xlink:href="#ArialMT-69"/>
      <use x="355.664062" xlink:href="#ArialMT-6c"/>
      <use x="377.880859" xlink:href="#ArialMT-64"/>
      <use x="433.496094" xlink:href="#ArialMT-72"/>
      <use x="466.796875" xlink:href="#ArialMT-65"/>
      <use x="522.412109" xlink:href="#ArialMT-6e"/>
     </g>
    </g>
   </g>
   <g id="matplotlib.axis_2">
    <g id="ytick_1">
     <g id="line2d_1">
      <path clip-path="url(#pb0a259416b)" d="M 108 363.174545 
L 777.6 363.174545 
" style="fill:none;stroke:#ffffff;stroke-linecap:round;"/>
     </g>
     <g id="text_4">
      <!-- 1 -->
      <g style="fill:#262626;" transform="translate(92.382969 367.111342)scale(0.11 -0.11)">
       <use xlink:href="#ArialMT-31"/>
      </g>
     </g>
    </g>
    <g id="ytick_2">
     <g id="line2d_2">
      <path clip-path="url(#pb0a259416b)" d="M 108 313.756364 
L 777.6 313.756364 
" style="fill:none;stroke:#ffffff;stroke-linecap:round;"/>
     </g>
     <g id="text_5">
      <!-- 2 -->
      <g style="fill:#262626;" transform="translate(92.382969 317.693161)scale(0.11 -0.11)">
       <defs>
        <path d="M 3222 541 
L 3222 0 
L 194 0 
Q 188 203 259 391 
Q 375 700 629 1000 
Q 884 1300 1366 1694 
Q 2113 2306 2375 2664 
Q 2638 3022 2638 3341 
Q 2638 3675 2398 3904 
Q 2159 4134 1775 4134 
Q 1369 4134 1125 3890 
Q 881 3647 878 3216 
L 300 3275 
Q 359 3922 746 4261 
Q 1134 4600 1788 4600 
Q 2447 4600 2831 4234 
Q 3216 3869 3216 3328 
Q 3216 3053 3103 2787 
Q 2991 2522 2730 2228 
Q 2469 1934 1863 1422 
Q 1356 997 1212 845 
Q 1069 694 975 541 
L 3222 541 
z
" id="ArialMT-32" transform="scale(0.015625)"/>
       </defs>
       <use xlink:href="#ArialMT-32"/>
      </g>
     </g>
    </g>
    <g id="ytick_3">
     <g id="line2d_3">
      <path clip-path="url(#pb0a259416b)" d="M 108 264.338182 
L 777.6 264.338182 
" style="fill:none;stroke:#ffffff;stroke-linecap:round;"/>
     </g>
     <g id="text_6">
      <!-- 3 -->
      <g style="fill:#262626;" transform="translate(92.382969 268.274979)scale(0.11 -0.11)">
       <defs>
        <path d="M 269 1209 
L 831 1284 
Q 928 806 1161 595 
Q 1394 384 1728 384 
Q 2125 384 2398 659 
Q 2672 934 2672 1341 
Q 2672 1728 2419 1979 
Q 2166 2231 1775 2231 
Q 1616 2231 1378 2169 
L 1441 2663 
Q 1497 2656 1531 2656 
Q 1891 2656 2178 2843 
Q 2466 3031 2466 3422 
Q 2466 3731 2256 3934 
Q 2047 4138 1716 4138 
Q 1388 4138 1169 3931 
Q 950 3725 888 3313 
L 325 3413 
Q 428 3978 793 4289 
Q 1159 4600 1703 4600 
Q 2078 4600 2393 4439 
Q 2709 4278 2876 4000 
Q 3044 3722 3044 3409 
Q 3044 3113 2884 2869 
Q 2725 2625 2413 2481 
Q 2819 2388 3044 2092 
Q 3269 1797 3269 1353 
Q 3269 753 2831 336 
Q 2394 -81 1725 -81 
Q 1122 -81 723 278 
Q 325 638 269 1209 
z
" id="ArialMT-33" transform="scale(0.015625)"/>
       </defs>
       <use xlink:href="#ArialMT-33"/>
      </g>
     </g>
    </g>
    <g id="ytick_4">
     <g id="line2d_4">
      <path clip-path="url(#pb0a259416b)" d="M 108 214.92 
L 777.6 214.92 
" style="fill:none;stroke:#ffffff;stroke-linecap:round;"/>
     </g>
     <g id="text_7">
      <!-- 4 -->
      <g style="fill:#262626;" transform="translate(92.382969 218.856797)scale(0.11 -0.11)">
       <defs>
        <path d="M 2069 0 
L 2069 1097 
L 81 1097 
L 81 1613 
L 2172 4581 
L 2631 4581 
L 2631 1613 
L 3250 1613 
L 3250 1097 
L 2631 1097 
L 2631 0 
L 2069 0 
z
M 2069 1613 
L 2069 3678 
L 634 1613 
L 2069 1613 
z
" id="ArialMT-34" transform="scale(0.015625)"/>
       </defs>
       <use xlink:href="#ArialMT-34"/>
      </g>
     </g>
    </g>
    <g id="ytick_5">
     <g id="line2d_5">
      <path clip-path="url(#pb0a259416b)" d="M 108 165.501818 
L 777.6 165.501818 
" style="fill:none;stroke:#ffffff;stroke-linecap:round;"/>
     </g>
     <g id="text_8">
      <!-- 5 -->
      <g style="fill:#262626;" transform="translate(92.382969 169.438615)scale(0.11 -0.11)">
       <defs>
        <path d="M 266 1200 
L 856 1250 
Q 922 819 1161 601 
Q 1400 384 1738 384 
Q 2144 384 2425 690 
Q 2706 997 2706 1503 
Q 2706 1984 2436 2262 
Q 2166 2541 1728 2541 
Q 1456 2541 1237 2417 
Q 1019 2294 894 2097 
L 366 2166 
L 809 4519 
L 3088 4519 
L 3088 3981 
L 1259 3981 
L 1013 2750 
Q 1425 3038 1878 3038 
Q 2478 3038 2890 2622 
Q 3303 2206 3303 1553 
Q 3303 931 2941 478 
Q 2500 -78 1738 -78 
Q 1113 -78 717 272 
Q 322 622 266 1200 
z
" id="ArialMT-35" transform="scale(0.015625)"/>
       </defs>
       <use xlink:href="#ArialMT-35"/>
      </g>
     </g>
    </g>
    <g id="ytick_6">
     <g id="line2d_6">
      <path clip-path="url(#pb0a259416b)" d="M 108 116.083636 
L 777.6 116.083636 
" style="fill:none;stroke:#ffffff;stroke-linecap:round;"/>
     </g>
     <g id="text_9">
      <!-- 6 -->
      <g style="fill:#262626;" transform="translate(92.382969 120.020433)scale(0.11 -0.11)">
       <defs>
        <path d="M 3184 3459 
L 2625 3416 
Q 2550 3747 2413 3897 
Q 2184 4138 1850 4138 
Q 1581 4138 1378 3988 
Q 1113 3794 959 3422 
Q 806 3050 800 2363 
Q 1003 2672 1297 2822 
Q 1591 2972 1913 2972 
Q 2475 2972 2870 2558 
Q 3266 2144 3266 1488 
Q 3266 1056 3080 686 
Q 2894 316 2569 119 
Q 2244 -78 1831 -78 
Q 1128 -78 684 439 
Q 241 956 241 2144 
Q 241 3472 731 4075 
Q 1159 4600 1884 4600 
Q 2425 4600 2770 4297 
Q 3116 3994 3184 3459 
z
M 888 1484 
Q 888 1194 1011 928 
Q 1134 663 1356 523 
Q 1578 384 1822 384 
Q 2178 384 2434 671 
Q 2691 959 2691 1453 
Q 2691 1928 2437 2201 
Q 2184 2475 1800 2475 
Q 1419 2475 1153 2201 
Q 888 1928 888 1484 
z
" id="ArialMT-36" transform="scale(0.015625)"/>
       </defs>
       <use xlink:href="#ArialMT-36"/>
      </g>
     </g>
    </g>
    <g id="ytick_7">
     <g id="line2d_7">
      <path clip-path="url(#pb0a259416b)" d="M 108 66.665455 
L 777.6 66.665455 
" style="fill:none;stroke:#ffffff;stroke-linecap:round;"/>
     </g>
     <g id="text_10">
      <!-- 7 -->
      <g style="fill:#262626;" transform="translate(92.382969 70.602251)scale(0.11 -0.11)">
       <defs>
        <path d="M 303 3981 
L 303 4522 
L 3269 4522 
L 3269 4084 
Q 2831 3619 2401 2847 
Q 1972 2075 1738 1259 
Q 1569 684 1522 0 
L 944 0 
Q 953 541 1156 1306 
Q 1359 2072 1739 2783 
Q 2119 3494 2547 3981 
L 303 3981 
z
" id="ArialMT-37" transform="scale(0.015625)"/>
       </defs>
       <use xlink:href="#ArialMT-37"/>
      </g>
     </g>
    </g>
    <g id="text_11">
     <!-- Agreement that 'Distractions at home can be a significant problem' -->
     <g style="fill:#262626;" transform="translate(85.857344 390.95625)rotate(-90)scale(0.12 -0.12)">
      <defs>
       <path d="M -9 0 
L 1750 4581 
L 2403 4581 
L 4278 0 
L 3588 0 
L 3053 1388 
L 1138 1388 
L 634 0 
L -9 0 
z
M 1313 1881 
L 2866 1881 
L 2388 3150 
Q 2169 3728 2063 4100 
Q 1975 3659 1816 3225 
L 1313 1881 
z
" id="ArialMT-41" transform="scale(0.015625)"/>
       <path d="M 319 -275 
L 866 -356 
Q 900 -609 1056 -725 
Q 1266 -881 1628 -881 
Q 2019 -881 2231 -725 
Q 2444 -569 2519 -288 
Q 2563 -116 2559 434 
Q 2191 0 1641 0 
Q 956 0 581 494 
Q 206 988 206 1678 
Q 206 2153 378 2554 
Q 550 2956 876 3175 
Q 1203 3394 1644 3394 
Q 2231 3394 2613 2919 
L 2613 3319 
L 3131 3319 
L 3131 450 
Q 3131 -325 2973 -648 
Q 2816 -972 2473 -1159 
Q 2131 -1347 1631 -1347 
Q 1038 -1347 672 -1080 
Q 306 -813 319 -275 
z
M 784 1719 
Q 784 1066 1043 766 
Q 1303 466 1694 466 
Q 2081 466 2343 764 
Q 2606 1063 2606 1700 
Q 2606 2309 2336 2618 
Q 2066 2928 1684 2928 
Q 1309 2928 1046 2623 
Q 784 2319 784 1719 
z
" id="ArialMT-67" transform="scale(0.015625)"/>
       <path d="M 422 0 
L 422 3319 
L 925 3319 
L 925 2853 
Q 1081 3097 1340 3245 
Q 1600 3394 1931 3394 
Q 2300 3394 2536 3241 
Q 2772 3088 2869 2813 
Q 3263 3394 3894 3394 
Q 4388 3394 4653 3120 
Q 4919 2847 4919 2278 
L 4919 0 
L 4359 0 
L 4359 2091 
Q 4359 2428 4304 2576 
Q 4250 2725 4106 2815 
Q 3963 2906 3769 2906 
Q 3419 2906 3187 2673 
Q 2956 2441 2956 1928 
L 2956 0 
L 2394 0 
L 2394 2156 
Q 2394 2531 2256 2718 
Q 2119 2906 1806 2906 
Q 1569 2906 1367 2781 
Q 1166 2656 1075 2415 
Q 984 2175 984 1722 
L 984 0 
L 422 0 
z
" id="ArialMT-6d" transform="scale(0.015625)"/>
       <path d="M 1650 503 
L 1731 6 
Q 1494 -44 1306 -44 
Q 1000 -44 831 53 
Q 663 150 594 308 
Q 525 466 525 972 
L 525 2881 
L 113 2881 
L 113 3319 
L 525 3319 
L 525 4141 
L 1084 4478 
L 1084 3319 
L 1650 3319 
L 1650 2881 
L 1084 2881 
L 1084 941 
Q 1084 700 1114 631 
Q 1144 563 1211 522 
Q 1278 481 1403 481 
Q 1497 481 1650 503 
z
" id="ArialMT-74" transform="scale(0.015625)"/>
       <path d="M 425 2959 
L 281 3816 
L 281 4581 
L 922 4581 
L 922 3816 
L 772 2959 
L 425 2959 
z
" id="ArialMT-27" transform="scale(0.015625)"/>
       <path d="M 494 0 
L 494 4581 
L 2072 4581 
Q 2606 4581 2888 4516 
Q 3281 4425 3559 4188 
Q 3922 3881 4101 3404 
Q 4281 2928 4281 2316 
Q 4281 1794 4159 1391 
Q 4038 988 3847 723 
Q 3656 459 3429 307 
Q 3203 156 2883 78 
Q 2563 0 2147 0 
L 494 0 
z
M 1100 541 
L 2078 541 
Q 2531 541 2789 625 
Q 3047 709 3200 863 
Q 3416 1078 3536 1442 
Q 3656 1806 3656 2325 
Q 3656 3044 3420 3430 
Q 3184 3816 2847 3947 
Q 2603 4041 2063 4041 
L 1100 4041 
L 1100 541 
z
" id="ArialMT-44" transform="scale(0.015625)"/>
       <path d="M 2588 1216 
L 3141 1144 
Q 3050 572 2676 248 
Q 2303 -75 1759 -75 
Q 1078 -75 664 370 
Q 250 816 250 1647 
Q 250 2184 428 2587 
Q 606 2991 970 3192 
Q 1334 3394 1763 3394 
Q 2303 3394 2647 3120 
Q 2991 2847 3088 2344 
L 2541 2259 
Q 2463 2594 2264 2762 
Q 2066 2931 1784 2931 
Q 1359 2931 1093 2626 
Q 828 2322 828 1663 
Q 828 994 1084 691 
Q 1341 388 1753 388 
Q 2084 388 2306 591 
Q 2528 794 2588 1216 
z
" id="ArialMT-63" transform="scale(0.015625)"/>
       <path d="M 213 1659 
Q 213 2581 725 3025 
Q 1153 3394 1769 3394 
Q 2453 3394 2887 2945 
Q 3322 2497 3322 1706 
Q 3322 1066 3130 698 
Q 2938 331 2570 128 
Q 2203 -75 1769 -75 
Q 1072 -75 642 372 
Q 213 819 213 1659 
z
M 791 1659 
Q 791 1022 1069 705 
Q 1347 388 1769 388 
Q 2188 388 2466 706 
Q 2744 1025 2744 1678 
Q 2744 2294 2464 2611 
Q 2184 2928 1769 2928 
Q 1347 2928 1069 2612 
Q 791 2297 791 1659 
z
" id="ArialMT-6f" transform="scale(0.015625)"/>
       <path d="M 941 0 
L 419 0 
L 419 4581 
L 981 4581 
L 981 2947 
Q 1338 3394 1891 3394 
Q 2197 3394 2470 3270 
Q 2744 3147 2920 2923 
Q 3097 2700 3197 2384 
Q 3297 2069 3297 1709 
Q 3297 856 2875 390 
Q 2453 -75 1863 -75 
Q 1275 -75 941 416 
L 941 0 
z
M 934 1684 
Q 934 1088 1097 822 
Q 1363 388 1816 388 
Q 2184 388 2453 708 
Q 2722 1028 2722 1663 
Q 2722 2313 2464 2622 
Q 2206 2931 1841 2931 
Q 1472 2931 1203 2611 
Q 934 2291 934 1684 
z
" id="ArialMT-62" transform="scale(0.015625)"/>
       <path d="M 556 0 
L 556 2881 
L 59 2881 
L 59 3319 
L 556 3319 
L 556 3672 
Q 556 4006 616 4169 
Q 697 4388 901 4523 
Q 1106 4659 1475 4659 
Q 1713 4659 2000 4603 
L 1916 4113 
Q 1741 4144 1584 4144 
Q 1328 4144 1222 4034 
Q 1116 3925 1116 3625 
L 1116 3319 
L 1763 3319 
L 1763 2881 
L 1116 2881 
L 1116 0 
L 556 0 
z
" id="ArialMT-66" transform="scale(0.015625)"/>
       <path d="M 422 -1272 
L 422 3319 
L 934 3319 
L 934 2888 
Q 1116 3141 1344 3267 
Q 1572 3394 1897 3394 
Q 2322 3394 2647 3175 
Q 2972 2956 3137 2557 
Q 3303 2159 3303 1684 
Q 3303 1175 3120 767 
Q 2938 359 2589 142 
Q 2241 -75 1856 -75 
Q 1575 -75 1351 44 
Q 1128 163 984 344 
L 984 -1272 
L 422 -1272 
z
M 931 1641 
Q 931 1000 1190 694 
Q 1450 388 1819 388 
Q 2194 388 2461 705 
Q 2728 1022 2728 1688 
Q 2728 2322 2467 2637 
Q 2206 2953 1844 2953 
Q 1484 2953 1207 2617 
Q 931 2281 931 1641 
z
" id="ArialMT-70" transform="scale(0.015625)"/>
      </defs>
      <use xlink:href="#ArialMT-41"/>
      <use x="66.699219" xlink:href="#ArialMT-67"/>
      <use x="122.314453" xlink:href="#ArialMT-72"/>
      <use x="155.615234" xlink:href="#ArialMT-65"/>
      <use x="211.230469" xlink:href="#ArialMT-65"/>
      <use x="266.845703" xlink:href="#ArialMT-6d"/>
      <use x="350.146484" xlink:href="#ArialMT-65"/>
      <use x="405.761719" xlink:href="#ArialMT-6e"/>
      <use x="461.376953" xlink:href="#ArialMT-74"/>
      <use x="489.160156" xlink:href="#ArialMT-20"/>
      <use x="516.943359" xlink:href="#ArialMT-74"/>
      <use x="544.726562" xlink:href="#ArialMT-68"/>
      <use x="600.341797" xlink:href="#ArialMT-61"/>
      <use x="655.957031" xlink:href="#ArialMT-74"/>
      <use x="683.740234" xlink:href="#ArialMT-20"/>
      <use x="711.523438" xlink:href="#ArialMT-27"/>
      <use x="730.615234" xlink:href="#ArialMT-44"/>
      <use x="802.832031" xlink:href="#ArialMT-69"/>
      <use x="825.048828" xlink:href="#ArialMT-73"/>
      <use x="875.048828" xlink:href="#ArialMT-74"/>
      <use x="902.832031" xlink:href="#ArialMT-72"/>
      <use x="936.132812" xlink:href="#ArialMT-61"/>
      <use x="991.748047" xlink:href="#ArialMT-63"/>
      <use x="1041.748047" xlink:href="#ArialMT-74"/>
      <use x="1069.53125" xlink:href="#ArialMT-69"/>
      <use x="1091.748047" xlink:href="#ArialMT-6f"/>
      <use x="1147.363281" xlink:href="#ArialMT-6e"/>
      <use x="1202.978516" xlink:href="#ArialMT-73"/>
      <use x="1252.978516" xlink:href="#ArialMT-20"/>
      <use x="1280.761719" xlink:href="#ArialMT-61"/>
      <use x="1336.376953" xlink:href="#ArialMT-74"/>
      <use x="1364.160156" xlink:href="#ArialMT-20"/>
      <use x="1391.943359" xlink:href="#ArialMT-68"/>
      <use x="1447.558594" xlink:href="#ArialMT-6f"/>
      <use x="1503.173828" xlink:href="#ArialMT-6d"/>
      <use x="1586.474609" xlink:href="#ArialMT-65"/>
      <use x="1642.089844" xlink:href="#ArialMT-20"/>
      <use x="1669.873047" xlink:href="#ArialMT-63"/>
      <use x="1719.873047" xlink:href="#ArialMT-61"/>
      <use x="1775.488281" xlink:href="#ArialMT-6e"/>
      <use x="1831.103516" xlink:href="#ArialMT-20"/>
      <use x="1858.886719" xlink:href="#ArialMT-62"/>
      <use x="1914.501953" xlink:href="#ArialMT-65"/>
      <use x="1970.117188" xlink:href="#ArialMT-20"/>
      <use x="1997.900391" xlink:href="#ArialMT-61"/>
      <use x="2053.515625" xlink:href="#ArialMT-20"/>
      <use x="2081.298828" xlink:href="#ArialMT-73"/>
      <use x="2131.298828" xlink:href="#ArialMT-69"/>
      <use x="2153.515625" xlink:href="#ArialMT-67"/>
      <use x="2209.130859" xlink:href="#ArialMT-6e"/>
      <use x="2264.746094" xlink:href="#ArialMT-69"/>
      <use x="2286.962891" xlink:href="#ArialMT-66"/>
      <use x="2314.746094" xlink:href="#ArialMT-69"/>
      <use x="2336.962891" xlink:href="#ArialMT-63"/>
      <use x="2386.962891" xlink:href="#ArialMT-61"/>
      <use x="2442.578125" xlink:href="#ArialMT-6e"/>
      <use x="2498.193359" xlink:href="#ArialMT-74"/>
      <use x="2525.976562" xlink:href="#ArialMT-20"/>
      <use x="2553.759766" xlink:href="#ArialMT-70"/>
      <use x="2609.375" xlink:href="#ArialMT-72"/>
      <use x="2642.675781" xlink:href="#ArialMT-6f"/>
      <use x="2698.291016" xlink:href="#ArialMT-62"/>
      <use x="2753.90625" xlink:href="#ArialMT-6c"/>
      <use x="2776.123047" xlink:href="#ArialMT-65"/>
      <use x="2831.738281" xlink:href="#ArialMT-6d"/>
      <use x="2915.039062" xlink:href="#ArialMT-27"/>
     </g>
    </g>
   </g>
   <g id="PolyCollection_1">
    <defs>
     <path d="M 365.101715 -68.825455 
L 185.698285 -68.825455 
L 181.793804 -71.820496 
L 177.985275 -74.815537 
L 174.294891 -77.810579 
L 170.744636 -80.80562 
L 167.356064 -83.800661 
L 164.150067 -86.795702 
L 161.146633 -89.790744 
L 158.36461 -92.785785 
L 155.82146 -95.780826 
L 153.533021 -98.775868 
L 151.513278 -101.770909 
L 149.774151 -104.76595 
L 148.3253 -107.760992 
L 147.173955 -110.756033 
L 146.324781 -113.751074 
L 145.779771 -116.746116 
L 145.538182 -119.741157 
L 145.596508 -122.736198 
L 145.9485 -125.73124 
L 146.58522 -128.726281 
L 147.495146 -131.721322 
L 148.664306 -134.716364 
L 150.076457 -137.711405 
L 151.713288 -140.706446 
L 153.554654 -143.701488 
L 155.57883 -146.696529 
L 157.762784 -149.69157 
L 160.082456 -152.686612 
L 162.513051 -155.681653 
L 165.029319 -158.676694 
L 167.605853 -161.671736 
L 170.217361 -164.666777 
L 172.838938 -167.661818 
L 175.446333 -170.65686 
L 178.016189 -173.651901 
L 180.526282 -176.646942 
L 182.955742 -179.641983 
L 185.285256 -182.637025 
L 187.497258 -185.632066 
L 189.576106 -188.627107 
L 191.508237 -191.622149 
L 193.282304 -194.61719 
L 194.889293 -197.612231 
L 196.322624 -200.607273 
L 197.578214 -203.602314 
L 198.654524 -206.597355 
L 199.552571 -209.592397 
L 200.27591 -212.587438 
L 200.830573 -215.582479 
L 201.224985 -218.577521 
L 201.469829 -221.572562 
L 201.577883 -224.567603 
L 201.563817 -227.562645 
L 201.443951 -230.557686 
L 201.235992 -233.552727 
L 200.958734 -236.547769 
L 200.631746 -239.54281 
L 200.275035 -242.537851 
L 199.908712 -245.532893 
L 199.55265 -248.527934 
L 199.226152 -251.522975 
L 198.947641 -254.518017 
L 198.734359 -257.513058 
L 198.602112 -260.508099 
L 198.565041 -263.50314 
L 198.635434 -266.498182 
L 198.823589 -269.493223 
L 199.137713 -272.488264 
L 199.583881 -275.483306 
L 200.166028 -278.478347 
L 200.885992 -281.473388 
L 201.7436 -284.46843 
L 202.736786 -287.463471 
L 203.861737 -290.458512 
L 205.113073 -293.453554 
L 206.48404 -296.448595 
L 207.966711 -299.443636 
L 209.552205 -302.438678 
L 211.230895 -305.433719 
L 212.992615 -308.42876 
L 214.826861 -311.423802 
L 216.72297 -314.418843 
L 218.670291 -317.413884 
L 220.658331 -320.408926 
L 222.676884 -323.403967 
L 224.716137 -326.399008 
L 226.766757 -329.39405 
L 228.81996 -332.389091 
L 230.867553 -335.384132 
L 232.901972 -338.379174 
L 234.916289 -341.374215 
L 236.904224 -344.369256 
L 238.860126 -347.364298 
L 240.778961 -350.359339 
L 242.656287 -353.35438 
L 244.488217 -356.349421 
L 246.271394 -359.344463 
L 248.002946 -362.339504 
L 249.680455 -365.334545 
L 301.119545 -365.334545 
L 301.119545 -365.334545 
L 302.797054 -362.339504 
L 304.528606 -359.344463 
L 306.311783 -356.349421 
L 308.143713 -353.35438 
L 310.021039 -350.359339 
L 311.939874 -347.364298 
L 313.895776 -344.369256 
L 315.883711 -341.374215 
L 317.898028 -338.379174 
L 319.932447 -335.384132 
L 321.98004 -332.389091 
L 324.033243 -329.39405 
L 326.083863 -326.399008 
L 328.123116 -323.403967 
L 330.141669 -320.408926 
L 332.129709 -317.413884 
L 334.07703 -314.418843 
L 335.973139 -311.423802 
L 337.807385 -308.42876 
L 339.569105 -305.433719 
L 341.247795 -302.438678 
L 342.833289 -299.443636 
L 344.31596 -296.448595 
L 345.686927 -293.453554 
L 346.938263 -290.458512 
L 348.063214 -287.463471 
L 349.0564 -284.46843 
L 349.914008 -281.473388 
L 350.633972 -278.478347 
L 351.216119 -275.483306 
L 351.662287 -272.488264 
L 351.976411 -269.493223 
L 352.164566 -266.498182 
L 352.234959 -263.50314 
L 352.197888 -260.508099 
L 352.065641 -257.513058 
L 351.852359 -254.518017 
L 351.573848 -251.522975 
L 351.24735 -248.527934 
L 350.891288 -245.532893 
L 350.524965 -242.537851 
L 350.168254 -239.54281 
L 349.841266 -236.547769 
L 349.564008 -233.552727 
L 349.356049 -230.557686 
L 349.236183 -227.562645 
L 349.222117 -224.567603 
L 349.330171 -221.572562 
L 349.575015 -218.577521 
L 349.969427 -215.582479 
L 350.52409 -212.587438 
L 351.247429 -209.592397 
L 352.145476 -206.597355 
L 353.221786 -203.602314 
L 354.477376 -200.607273 
L 355.910707 -197.612231 
L 357.517696 -194.61719 
L 359.291763 -191.622149 
L 361.223894 -188.627107 
L 363.302742 -185.632066 
L 365.514744 -182.637025 
L 367.844258 -179.641983 
L 370.273718 -176.646942 
L 372.783811 -173.651901 
L 375.353667 -170.65686 
L 377.961062 -167.661818 
L 380.582639 -164.666777 
L 383.194147 -161.671736 
L 385.770681 -158.676694 
L 388.286949 -155.681653 
L 390.717544 -152.686612 
L 393.037216 -149.69157 
L 395.22117 -146.696529 
L 397.245346 -143.701488 
L 399.086712 -140.706446 
L 400.723543 -137.711405 
L 402.135694 -134.716364 
L 403.304854 -131.721322 
L 404.21478 -128.726281 
L 404.8515 -125.73124 
L 405.203492 -122.736198 
L 405.261818 -119.741157 
L 405.020229 -116.746116 
L 404.475219 -113.751074 
L 403.626045 -110.756033 
L 402.4747 -107.760992 
L 401.025849 -104.76595 
L 399.286722 -101.770909 
L 397.266979 -98.775868 
L 394.97854 -95.780826 
L 392.43539 -92.785785 
L 389.653367 -89.790744 
L 386.649933 -86.795702 
L 383.443936 -83.800661 
L 380.055364 -80.80562 
L 376.505109 -77.810579 
L 372.814725 -74.815537 
L 369.006196 -71.820496 
L 365.101715 -68.825455 
z
" id="mdd30ca9aae" style="stroke:#4c4c4c;stroke-width:1.5;"/>
    </defs>
    <g clip-path="url(#pb0a259416b)">
     <use style="fill:#5875a4;stroke:#4c4c4c;stroke-width:1.5;" x="0" xlink:href="#mdd30ca9aae" y="432"/>
    </g>
   </g>
   <g id="PolyCollection_2">
    <defs>
     <path d="M 680.316502 -68.825455 
L 540.083498 -68.825455 
L 535.78928 -71.820496 
L 531.464912 -74.815537 
L 527.135007 -77.810579 
L 522.825456 -80.80562 
L 518.563113 -83.800661 
L 514.375444 -86.795702 
L 510.290148 -89.790744 
L 506.334753 -92.785785 
L 502.536201 -95.780826 
L 498.920422 -98.775868 
L 495.511927 -101.770909 
L 492.333403 -104.76595 
L 489.405347 -107.760992 
L 486.745731 -110.756033 
L 484.369712 -113.751074 
L 482.289398 -116.746116 
L 480.51367 -119.741157 
L 479.04807 -122.736198 
L 477.894751 -125.73124 
L 477.052495 -128.726281 
L 476.516796 -131.721322 
L 476.28 -134.716364 
L 476.331509 -137.711405 
L 476.658027 -140.706446 
L 477.24385 -143.701488 
L 478.071191 -146.696529 
L 479.120535 -149.69157 
L 480.370998 -152.686612 
L 481.800706 -155.681653 
L 483.387163 -158.676694 
L 485.107618 -161.671736 
L 486.939411 -164.666777 
L 488.8603 -167.661818 
L 490.848759 -170.65686 
L 492.884249 -173.651901 
L 494.947458 -176.646942 
L 497.020495 -179.641983 
L 499.087069 -182.637025 
L 501.132612 -185.632066 
L 503.144383 -188.627107 
L 505.11153 -191.622149 
L 507.025125 -194.61719 
L 508.878164 -197.612231 
L 510.665547 -200.607273 
L 512.384019 -203.602314 
L 514.0321 -206.597355 
L 515.609977 -209.592397 
L 517.119393 -212.587438 
L 518.563496 -215.582479 
L 519.946687 -218.577521 
L 521.274444 -221.572562 
L 522.553131 -224.567603 
L 523.789801 -227.562645 
L 524.991989 -230.557686 
L 526.167492 -233.552727 
L 527.324161 -236.547769 
L 528.46968 -239.54281 
L 529.611356 -242.537851 
L 530.755928 -245.532893 
L 531.909373 -248.527934 
L 533.076745 -251.522975 
L 534.262034 -254.518017 
L 535.468047 -257.513058 
L 536.69633 -260.508099 
L 537.947117 -263.50314 
L 539.219318 -266.498182 
L 540.510548 -269.493223 
L 541.817191 -272.488264 
L 543.134504 -275.483306 
L 544.456757 -278.478347 
L 545.777406 -281.473388 
L 547.089292 -284.46843 
L 548.38487 -287.463471 
L 549.656448 -290.458512 
L 550.896439 -293.453554 
L 552.097617 -296.448595 
L 553.253364 -299.443636 
L 554.357909 -302.438678 
L 555.406539 -305.433719 
L 556.395789 -308.42876 
L 557.323592 -311.423802 
L 558.189395 -314.418843 
L 558.994223 -317.413884 
L 559.740703 -320.408926 
L 560.433039 -323.403967 
L 561.076935 -326.399008 
L 561.679473 -329.39405 
L 562.248955 -332.389091 
L 562.794698 -335.384132 
L 563.326802 -338.379174 
L 563.855893 -341.374215 
L 564.392846 -344.369256 
L 564.948504 -347.364298 
L 565.533395 -350.359339 
L 566.157456 -353.35438 
L 566.829775 -356.349421 
L 567.55836 -359.344463 
L 568.349936 -362.339504 
L 569.209778 -365.334545 
L 651.190222 -365.334545 
L 651.190222 -365.334545 
L 652.050064 -362.339504 
L 652.84164 -359.344463 
L 653.570225 -356.349421 
L 654.242544 -353.35438 
L 654.866605 -350.359339 
L 655.451496 -347.364298 
L 656.007154 -344.369256 
L 656.544107 -341.374215 
L 657.073198 -338.379174 
L 657.605302 -335.384132 
L 658.151045 -332.389091 
L 658.720527 -329.39405 
L 659.323065 -326.399008 
L 659.966961 -323.403967 
L 660.659297 -320.408926 
L 661.405777 -317.413884 
L 662.210605 -314.418843 
L 663.076408 -311.423802 
L 664.004211 -308.42876 
L 664.993461 -305.433719 
L 666.042091 -302.438678 
L 667.146636 -299.443636 
L 668.302383 -296.448595 
L 669.503561 -293.453554 
L 670.743552 -290.458512 
L 672.01513 -287.463471 
L 673.310708 -284.46843 
L 674.622594 -281.473388 
L 675.943243 -278.478347 
L 677.265496 -275.483306 
L 678.582809 -272.488264 
L 679.889452 -269.493223 
L 681.180682 -266.498182 
L 682.452883 -263.50314 
L 683.70367 -260.508099 
L 684.931953 -257.513058 
L 686.137966 -254.518017 
L 687.323255 -251.522975 
L 688.490627 -248.527934 
L 689.644072 -245.532893 
L 690.788644 -242.537851 
L 691.93032 -239.54281 
L 693.075839 -236.547769 
L 694.232508 -233.552727 
L 695.408011 -230.557686 
L 696.610199 -227.562645 
L 697.846869 -224.567603 
L 699.125556 -221.572562 
L 700.453313 -218.577521 
L 701.836504 -215.582479 
L 703.280607 -212.587438 
L 704.790023 -209.592397 
L 706.3679 -206.597355 
L 708.015981 -203.602314 
L 709.734453 -200.607273 
L 711.521836 -197.612231 
L 713.374875 -194.61719 
L 715.28847 -191.622149 
L 717.255617 -188.627107 
L 719.267388 -185.632066 
L 721.312931 -182.637025 
L 723.379505 -179.641983 
L 725.452542 -176.646942 
L 727.515751 -173.651901 
L 729.551241 -170.65686 
L 731.5397 -167.661818 
L 733.460589 -164.666777 
L 735.292382 -161.671736 
L 737.012837 -158.676694 
L 738.599294 -155.681653 
L 740.029002 -152.686612 
L 741.279465 -149.69157 
L 742.328809 -146.696529 
L 743.15615 -143.701488 
L 743.741973 -140.706446 
L 744.068491 -137.711405 
L 744.12 -134.716364 
L 743.883204 -131.721322 
L 743.347505 -128.726281 
L 742.505249 -125.73124 
L 741.35193 -122.736198 
L 739.88633 -119.741157 
L 738.110602 -116.746116 
L 736.030288 -113.751074 
L 733.654269 -110.756033 
L 730.994653 -107.760992 
L 728.066597 -104.76595 
L 724.888073 -101.770909 
L 721.479578 -98.775868 
L 717.863799 -95.780826 
L 714.065247 -92.785785 
L 710.109852 -89.790744 
L 706.024556 -86.795702 
L 701.836887 -83.800661 
L 697.574544 -80.80562 
L 693.264993 -77.810579 
L 688.935088 -74.815537 
L 684.61072 -71.820496 
L 680.316502 -68.825455 
z
" id="m620bd78c90" style="stroke:#4c4c4c;stroke-width:1.5;"/>
    </defs>
    <g clip-path="url(#pb0a259416b)">
     <use style="fill:#cc8963;stroke:#4c4c4c;stroke-width:1.5;" x="0" xlink:href="#m620bd78c90" y="432"/>
    </g>
   </g>
   <g id="line2d_8">
    <path clip-path="url(#pb0a259416b)" d="M 147.075973 313.756364 
L 403.724027 313.756364 
" style="fill:none;stroke:#4c4c4c;stroke-dasharray:3.375,3.375;stroke-dashoffset:0;stroke-width:1.5;"/>
   </g>
   <g id="line2d_9">
    <path clip-path="url(#pb0a259416b)" d="M 173.864549 264.338182 
L 376.935451 264.338182 
" style="fill:none;stroke:#4c4c4c;stroke-dasharray:6.75,6.75;stroke-dashoffset:0;stroke-width:1.5;"/>
   </g>
   <g id="line2d_10">
    <path clip-path="url(#pb0a259416b)" d="M 199.40308 165.501818 
L 351.39692 165.501818 
" style="fill:none;stroke:#4c4c4c;stroke-dasharray:3.375,3.375;stroke-dashoffset:0;stroke-width:1.5;"/>
   </g>
   <g id="line2d_11">
    <path clip-path="url(#pb0a259416b)" d="M 483.568504 313.756364 
L 736.831496 313.756364 
" style="fill:none;stroke:#4c4c4c;stroke-dasharray:3.375,3.375;stroke-dashoffset:0;stroke-width:1.5;"/>
   </g>
   <g id="line2d_12">
    <path clip-path="url(#pb0a259416b)" d="M 490.073697 264.338182 
L 730.326303 264.338182 
" style="fill:none;stroke:#4c4c4c;stroke-dasharray:6.75,6.75;stroke-dashoffset:0;stroke-width:1.5;"/>
   </g>
   <g id="line2d_13">
    <path clip-path="url(#pb0a259416b)" d="M 539.929125 165.501818 
L 680.470875 165.501818 
" style="fill:none;stroke:#4c4c4c;stroke-dasharray:3.375,3.375;stroke-dashoffset:0;stroke-width:1.5;"/>
   </g>
   <g id="patch_3">
    <path d="M 108 378 
L 108 51.84 
" style="fill:none;stroke:#ffffff;stroke-linecap:square;stroke-linejoin:miter;stroke-width:1.25;"/>
   </g>
   <g id="patch_4">
    <path d="M 777.6 378 
L 777.6 51.84 
" style="fill:none;stroke:#ffffff;stroke-linecap:square;stroke-linejoin:miter;stroke-width:1.25;"/>
   </g>
   <g id="patch_5">
    <path d="M 108 378 
L 777.6 378 
" style="fill:none;stroke:#ffffff;stroke-linecap:square;stroke-linejoin:miter;stroke-width:1.25;"/>
   </g>
   <g id="patch_6">
    <path d="M 108 51.84 
L 777.6 51.84 
" style="fill:none;stroke:#ffffff;stroke-linecap:square;stroke-linejoin:miter;stroke-width:1.25;"/>
   </g>
   <g id="text_12">
    <!-- Compensation by Employer Type -->
    <g style="fill:#262626;" transform="translate(354.5325 45.84)scale(0.12 -0.12)">
     <defs>
      <path d="M 397 -1278 
L 334 -750 
Q 519 -800 656 -800 
Q 844 -800 956 -737 
Q 1069 -675 1141 -563 
Q 1194 -478 1313 -144 
Q 1328 -97 1363 -6 
L 103 3319 
L 709 3319 
L 1400 1397 
Q 1534 1031 1641 628 
Q 1738 1016 1872 1384 
L 2581 3319 
L 3144 3319 
L 1881 -56 
Q 1678 -603 1566 -809 
Q 1416 -1088 1222 -1217 
Q 1028 -1347 759 -1347 
Q 597 -1347 397 -1278 
z
" id="ArialMT-79" transform="scale(0.015625)"/>
      <path d="M 506 0 
L 506 4581 
L 3819 4581 
L 3819 4041 
L 1113 4041 
L 1113 2638 
L 3647 2638 
L 3647 2100 
L 1113 2100 
L 1113 541 
L 3925 541 
L 3925 0 
L 506 0 
z
" id="ArialMT-45" transform="scale(0.015625)"/>
      <path d="M 1659 0 
L 1659 4041 
L 150 4041 
L 150 4581 
L 3781 4581 
L 3781 4041 
L 2266 4041 
L 2266 0 
L 1659 0 
z
" id="ArialMT-54" transform="scale(0.015625)"/>
     </defs>
     <use xlink:href="#ArialMT-43"/>
     <use x="72.216797" xlink:href="#ArialMT-6f"/>
     <use x="127.832031" xlink:href="#ArialMT-6d"/>
     <use x="211.132812" xlink:href="#ArialMT-70"/>
     <use x="266.748047" xlink:href="#ArialMT-65"/>
     <use x="322.363281" xlink:href="#ArialMT-6e"/>
     <use x="377.978516" xlink:href="#ArialMT-73"/>
     <use x="427.978516" xlink:href="#ArialMT-61"/>
     <use x="483.59375" xlink:href="#ArialMT-74"/>
     <use x="511.376953" xlink:href="#ArialMT-69"/>
     <use x="533.59375" xlink:href="#ArialMT-6f"/>
     <use x="589.208984" xlink:href="#ArialMT-6e"/>
     <use x="644.824219" xlink:href="#ArialMT-20"/>
     <use x="672.607422" xlink:href="#ArialMT-62"/>
     <use x="728.222656" xlink:href="#ArialMT-79"/>
     <use x="778.222656" xlink:href="#ArialMT-20"/>
     <use x="806.005859" xlink:href="#ArialMT-45"/>
     <use x="872.705078" xlink:href="#ArialMT-6d"/>
     <use x="956.005859" xlink:href="#ArialMT-70"/>
     <use x="1011.621094" xlink:href="#ArialMT-6c"/>
     <use x="1033.837891" xlink:href="#ArialMT-6f"/>
     <use x="1089.453125" xlink:href="#ArialMT-79"/>
     <use x="1139.453125" xlink:href="#ArialMT-65"/>
     <use x="1195.068359" xlink:href="#ArialMT-72"/>
     <use x="1228.369141" xlink:href="#ArialMT-20"/>
     <use x="1254.402344" xlink:href="#ArialMT-54"/>
     <use x="1309.986328" xlink:href="#ArialMT-79"/>
     <use x="1359.986328" xlink:href="#ArialMT-70"/>
     <use x="1415.601562" xlink:href="#ArialMT-65"/>
    </g>
   </g>
  </g>
 </g>
 <defs>
  <clipPath id="pb0a259416b">
   <rect height="326.16" width="669.6" x="108" y="51.84"/>
  </clipPath>
 </defs>
</svg>
