<?xml version="1.0" encoding="utf-8" standalone="no"?>
<!DOCTYPE svg PUBLIC "-//W3C//DTD SVG 1.1//EN"
  "http://www.w3.org/Graphics/SVG/1.1/DTD/svg11.dtd">
<svg height="288pt" version="1.1" viewBox="0 0 432 288" width="432pt" xmlns="http://www.w3.org/2000/svg" xmlns:xlink="http://www.w3.org/1999/xlink">
 <metadata>
  <rdf:RDF xmlns:cc="http://creativecommons.org/ns#" xmlns:dc="http://purl.org/dc/elements/1.1/" xmlns:rdf="http://www.w3.org/1999/02/22-rdf-syntax-ns#">
   <cc:Work>
    <dc:type rdf:resource="http://purl.org/dc/dcmitype/StillImage"/>
    <dc:date>2021-12-26T22:04:37.932006</dc:date>
    <dc:format>image/svg+xml</dc:format>
    <dc:creator>
     <cc:Agent>
      <dc:title>Matplotlib v3.4.3, https://matplotlib.org/</dc:title>
     </cc:Agent>
    </dc:creator>
   </cc:Work>
  </rdf:RDF>
 </metadata>
 <defs>
  <style type="text/css">*{stroke-linecap:butt;stroke-linejoin:round;}</style>
 </defs>
 <g id="figure_1">
  <g id="patch_1">
   <path d="M 0 288 
L 432 288 
L 432 0 
L 0 0 
z
" style="fill:#ffffff;"/>
  </g>
  <g id="axes_1">
   <g id="matplotlib.axis_1"/>
   <g id="matplotlib.axis_2"/>
   <g id="patch_2">
    <path d="M 158.969597 218.296958 
C 169.714367 227.31289 182.27758 233.907413 195.800881 237.62997 
C 209.324182 241.352527 223.492408 242.116364 237.337543 239.869291 
C 251.182679 237.622219 264.38206 232.416606 276.033866 224.608116 
C 287.685672 216.799626 297.518356 206.570237 304.860119 194.618852 
C 312.201882 182.667466 316.881624 169.272613 318.57961 155.349469 
C 320.277595 141.426324 318.954254 127.29937 314.699999 113.933801 
C 310.445745 100.568233 303.359723 88.275537 293.926073 77.895587 
C 284.492424 67.515638 272.930998 59.290341 260.031708 53.781674 
L 221.702421 143.53489 
L 158.969597 218.296958 
z
" style="fill:#4c72b0;stroke:#ffffff;stroke-linejoin:miter;"/>
   </g>
   <g id="patch_3">
    <path d="M 260.031708 53.781674 
C 243.779814 46.841271 225.943967 44.443636 208.436172 46.845797 
C 190.928377 49.247958 174.397431 56.360896 160.615452 67.422104 
C 146.833473 78.483311 136.311188 93.082887 130.176588 109.655754 
C 124.041987 126.228621 122.522405 144.16063 125.780739 161.529468 
L 221.702421 143.53489 
L 260.031708 53.781674 
z
" style="fill:#dd8452;stroke:#ffffff;stroke-linejoin:miter;"/>
   </g>
   <g id="patch_4">
    <path d="M 125.780739 161.529468 
C 126.664444 166.240139 127.893959 170.879319 129.459299 175.409338 
C 131.024639 179.939356 132.921555 184.347917 135.134645 188.599222 
L 221.702421 143.53489 
L 125.780739 161.529468 
z
" style="fill:#55a868;stroke:#ffffff;stroke-linejoin:miter;"/>
   </g>
   <g id="patch_5">
    <path d="M 135.134645 188.599222 
C 136.609667 191.432714 138.222918 194.19208 139.968569 196.867351 
C 141.71422 199.542622 143.590167 202.130574 145.589635 204.621859 
L 221.702421 143.53489 
L 135.134645 188.599222 
z
" style="fill:#c44e52;stroke:#ffffff;stroke-linejoin:miter;"/>
   </g>
   <g id="patch_6">
    <path d="M 145.589635 204.621859 
C 147.589103 207.113144 149.709681 209.504759 151.943709 211.788066 
C 154.177737 214.071373 156.522523 216.243619 158.969597 218.296958 
L 221.702421 143.53489 
L 145.589635 204.621859 
z
" style="fill:#8172b3;stroke:#ffffff;stroke-linejoin:miter;"/>
   </g>
   <g id="text_1">
    <!-- Rochester Suburbs -->
    <g style="fill:#262626;" transform="translate(309.018004 200.016722)scale(0.11 -0.11)">
     <defs>
      <path d="M 503 0 
L 503 4581 
L 2534 4581 
Q 3147 4581 3465 4457 
Q 3784 4334 3975 4021 
Q 4166 3709 4166 3331 
Q 4166 2844 3850 2509 
Q 3534 2175 2875 2084 
Q 3116 1969 3241 1856 
Q 3506 1613 3744 1247 
L 4541 0 
L 3778 0 
L 3172 953 
Q 2906 1366 2734 1584 
Q 2563 1803 2427 1890 
Q 2291 1978 2150 2013 
Q 2047 2034 1813 2034 
L 1109 2034 
L 1109 0 
L 503 0 
z
M 1109 2559 
L 2413 2559 
Q 2828 2559 3062 2645 
Q 3297 2731 3419 2920 
Q 3541 3109 3541 3331 
Q 3541 3656 3305 3865 
Q 3069 4075 2559 4075 
L 1109 4075 
L 1109 2559 
z
" id="ArialMT-52" transform="scale(0.015625)"/>
      <path d="M 213 1659 
Q 213 2581 725 3025 
Q 1153 3394 1769 3394 
Q 2453 3394 2887 2945 
Q 3322 2497 3322 1706 
Q 3322 1066 3130 698 
Q 2938 331 2570 128 
Q 2203 -75 1769 -75 
Q 1072 -75 642 372 
Q 213 819 213 1659 
z
M 791 1659 
Q 791 1022 1069 705 
Q 1347 388 1769 388 
Q 2188 388 2466 706 
Q 2744 1025 2744 1678 
Q 2744 2294 2464 2611 
Q 2184 2928 1769 2928 
Q 1347 2928 1069 2612 
Q 791 2297 791 1659 
z
" id="ArialMT-6f" transform="scale(0.015625)"/>
      <path d="M 2588 1216 
L 3141 1144 
Q 3050 572 2676 248 
Q 2303 -75 1759 -75 
Q 1078 -75 664 370 
Q 250 816 250 1647 
Q 250 2184 428 2587 
Q 606 2991 970 3192 
Q 1334 3394 1763 3394 
Q 2303 3394 2647 3120 
Q 2991 2847 3088 2344 
L 2541 2259 
Q 2463 2594 2264 2762 
Q 2066 2931 1784 2931 
Q 1359 2931 1093 2626 
Q 828 2322 828 1663 
Q 828 994 1084 691 
Q 1341 388 1753 388 
Q 2084 388 2306 591 
Q 2528 794 2588 1216 
z
" id="ArialMT-63" transform="scale(0.015625)"/>
      <path d="M 422 0 
L 422 4581 
L 984 4581 
L 984 2938 
Q 1378 3394 1978 3394 
Q 2347 3394 2619 3248 
Q 2891 3103 3008 2847 
Q 3125 2591 3125 2103 
L 3125 0 
L 2563 0 
L 2563 2103 
Q 2563 2525 2380 2717 
Q 2197 2909 1863 2909 
Q 1613 2909 1392 2779 
Q 1172 2650 1078 2428 
Q 984 2206 984 1816 
L 984 0 
L 422 0 
z
" id="ArialMT-68" transform="scale(0.015625)"/>
      <path d="M 2694 1069 
L 3275 997 
Q 3138 488 2766 206 
Q 2394 -75 1816 -75 
Q 1088 -75 661 373 
Q 234 822 234 1631 
Q 234 2469 665 2931 
Q 1097 3394 1784 3394 
Q 2450 3394 2872 2941 
Q 3294 2488 3294 1666 
Q 3294 1616 3291 1516 
L 816 1516 
Q 847 969 1125 678 
Q 1403 388 1819 388 
Q 2128 388 2347 550 
Q 2566 713 2694 1069 
z
M 847 1978 
L 2700 1978 
Q 2663 2397 2488 2606 
Q 2219 2931 1791 2931 
Q 1403 2931 1139 2672 
Q 875 2413 847 1978 
z
" id="ArialMT-65" transform="scale(0.015625)"/>
      <path d="M 197 991 
L 753 1078 
Q 800 744 1014 566 
Q 1228 388 1613 388 
Q 2000 388 2187 545 
Q 2375 703 2375 916 
Q 2375 1106 2209 1216 
Q 2094 1291 1634 1406 
Q 1016 1563 777 1677 
Q 538 1791 414 1992 
Q 291 2194 291 2438 
Q 291 2659 392 2848 
Q 494 3038 669 3163 
Q 800 3259 1026 3326 
Q 1253 3394 1513 3394 
Q 1903 3394 2198 3281 
Q 2494 3169 2634 2976 
Q 2775 2784 2828 2463 
L 2278 2388 
Q 2241 2644 2061 2787 
Q 1881 2931 1553 2931 
Q 1166 2931 1000 2803 
Q 834 2675 834 2503 
Q 834 2394 903 2306 
Q 972 2216 1119 2156 
Q 1203 2125 1616 2013 
Q 2213 1853 2448 1751 
Q 2684 1650 2818 1456 
Q 2953 1263 2953 975 
Q 2953 694 2789 445 
Q 2625 197 2315 61 
Q 2006 -75 1616 -75 
Q 969 -75 630 194 
Q 291 463 197 991 
z
" id="ArialMT-73" transform="scale(0.015625)"/>
      <path d="M 1650 503 
L 1731 6 
Q 1494 -44 1306 -44 
Q 1000 -44 831 53 
Q 663 150 594 308 
Q 525 466 525 972 
L 525 2881 
L 113 2881 
L 113 3319 
L 525 3319 
L 525 4141 
L 1084 4478 
L 1084 3319 
L 1650 3319 
L 1650 2881 
L 1084 2881 
L 1084 941 
Q 1084 700 1114 631 
Q 1144 563 1211 522 
Q 1278 481 1403 481 
Q 1497 481 1650 503 
z
" id="ArialMT-74" transform="scale(0.015625)"/>
      <path d="M 416 0 
L 416 3319 
L 922 3319 
L 922 2816 
Q 1116 3169 1280 3281 
Q 1444 3394 1641 3394 
Q 1925 3394 2219 3213 
L 2025 2691 
Q 1819 2813 1613 2813 
Q 1428 2813 1281 2702 
Q 1134 2591 1072 2394 
Q 978 2094 978 1738 
L 978 0 
L 416 0 
z
" id="ArialMT-72" transform="scale(0.015625)"/>
      <path id="ArialMT-20" transform="scale(0.015625)"/>
      <path d="M 288 1472 
L 859 1522 
Q 900 1178 1048 958 
Q 1197 738 1509 602 
Q 1822 466 2213 466 
Q 2559 466 2825 569 
Q 3091 672 3220 851 
Q 3350 1031 3350 1244 
Q 3350 1459 3225 1620 
Q 3100 1781 2813 1891 
Q 2628 1963 1997 2114 
Q 1366 2266 1113 2400 
Q 784 2572 623 2826 
Q 463 3081 463 3397 
Q 463 3744 659 4045 
Q 856 4347 1234 4503 
Q 1613 4659 2075 4659 
Q 2584 4659 2973 4495 
Q 3363 4331 3572 4012 
Q 3781 3694 3797 3291 
L 3216 3247 
Q 3169 3681 2898 3903 
Q 2628 4125 2100 4125 
Q 1550 4125 1298 3923 
Q 1047 3722 1047 3438 
Q 1047 3191 1225 3031 
Q 1400 2872 2139 2705 
Q 2878 2538 3153 2413 
Q 3553 2228 3743 1945 
Q 3934 1663 3934 1294 
Q 3934 928 3725 604 
Q 3516 281 3123 101 
Q 2731 -78 2241 -78 
Q 1619 -78 1198 103 
Q 778 284 539 648 
Q 300 1013 288 1472 
z
" id="ArialMT-53" transform="scale(0.015625)"/>
      <path d="M 2597 0 
L 2597 488 
Q 2209 -75 1544 -75 
Q 1250 -75 995 37 
Q 741 150 617 320 
Q 494 491 444 738 
Q 409 903 409 1263 
L 409 3319 
L 972 3319 
L 972 1478 
Q 972 1038 1006 884 
Q 1059 663 1231 536 
Q 1403 409 1656 409 
Q 1909 409 2131 539 
Q 2353 669 2445 892 
Q 2538 1116 2538 1541 
L 2538 3319 
L 3100 3319 
L 3100 0 
L 2597 0 
z
" id="ArialMT-75" transform="scale(0.015625)"/>
      <path d="M 941 0 
L 419 0 
L 419 4581 
L 981 4581 
L 981 2947 
Q 1338 3394 1891 3394 
Q 2197 3394 2470 3270 
Q 2744 3147 2920 2923 
Q 3097 2700 3197 2384 
Q 3297 2069 3297 1709 
Q 3297 856 2875 390 
Q 2453 -75 1863 -75 
Q 1275 -75 941 416 
L 941 0 
z
M 934 1684 
Q 934 1088 1097 822 
Q 1363 388 1816 388 
Q 2184 388 2453 708 
Q 2722 1028 2722 1663 
Q 2722 2313 2464 2622 
Q 2206 2931 1841 2931 
Q 1472 2931 1203 2611 
Q 934 2291 934 1684 
z
" id="ArialMT-62" transform="scale(0.015625)"/>
     </defs>
     <use xlink:href="#ArialMT-52"/>
     <use x="72.216797" xlink:href="#ArialMT-6f"/>
     <use x="127.832031" xlink:href="#ArialMT-63"/>
     <use x="177.832031" xlink:href="#ArialMT-68"/>
     <use x="233.447266" xlink:href="#ArialMT-65"/>
     <use x="289.0625" xlink:href="#ArialMT-73"/>
     <use x="339.0625" xlink:href="#ArialMT-74"/>
     <use x="366.845703" xlink:href="#ArialMT-65"/>
     <use x="422.460938" xlink:href="#ArialMT-72"/>
     <use x="455.761719" xlink:href="#ArialMT-20"/>
     <use x="483.544922" xlink:href="#ArialMT-53"/>
     <use x="550.244141" xlink:href="#ArialMT-75"/>
     <use x="605.859375" xlink:href="#ArialMT-62"/>
     <use x="661.474609" xlink:href="#ArialMT-75"/>
     <use x="717.089844" xlink:href="#ArialMT-72"/>
     <use x="750.390625" xlink:href="#ArialMT-62"/>
     <use x="806.005859" xlink:href="#ArialMT-73"/>
    </g>
   </g>
   <g id="text_2">
    <!-- Rochester -->
    <g style="fill:#262626;" transform="translate(107.430322 66.460136)scale(0.11 -0.11)">
     <use xlink:href="#ArialMT-52"/>
     <use x="72.216797" xlink:href="#ArialMT-6f"/>
     <use x="127.832031" xlink:href="#ArialMT-63"/>
     <use x="177.832031" xlink:href="#ArialMT-68"/>
     <use x="233.447266" xlink:href="#ArialMT-65"/>
     <use x="289.0625" xlink:href="#ArialMT-73"/>
     <use x="339.0625" xlink:href="#ArialMT-74"/>
     <use x="366.845703" xlink:href="#ArialMT-65"/>
     <use x="422.460938" xlink:href="#ArialMT-72"/>
    </g>
   </g>
   <g id="text_3">
    <!-- Rochester MSA -->
    <g style="fill:#262626;" transform="translate(47.823081 179.846732)scale(0.11 -0.11)">
     <defs>
      <path d="M 475 0 
L 475 4581 
L 1388 4581 
L 2472 1338 
Q 2622 884 2691 659 
Q 2769 909 2934 1394 
L 4031 4581 
L 4847 4581 
L 4847 0 
L 4263 0 
L 4263 3834 
L 2931 0 
L 2384 0 
L 1059 3900 
L 1059 0 
L 475 0 
z
" id="ArialMT-4d" transform="scale(0.015625)"/>
      <path d="M -9 0 
L 1750 4581 
L 2403 4581 
L 4278 0 
L 3588 0 
L 3053 1388 
L 1138 1388 
L 634 0 
L -9 0 
z
M 1313 1881 
L 2866 1881 
L 2388 3150 
Q 2169 3728 2063 4100 
Q 1975 3659 1816 3225 
L 1313 1881 
z
" id="ArialMT-41" transform="scale(0.015625)"/>
     </defs>
     <use xlink:href="#ArialMT-52"/>
     <use x="72.216797" xlink:href="#ArialMT-6f"/>
     <use x="127.832031" xlink:href="#ArialMT-63"/>
     <use x="177.832031" xlink:href="#ArialMT-68"/>
     <use x="233.447266" xlink:href="#ArialMT-65"/>
     <use x="289.0625" xlink:href="#ArialMT-73"/>
     <use x="339.0625" xlink:href="#ArialMT-74"/>
     <use x="366.845703" xlink:href="#ArialMT-65"/>
     <use x="422.460938" xlink:href="#ArialMT-72"/>
     <use x="455.761719" xlink:href="#ArialMT-20"/>
     <use x="483.544922" xlink:href="#ArialMT-4d"/>
     <use x="566.845703" xlink:href="#ArialMT-53"/>
     <use x="633.544922" xlink:href="#ArialMT-41"/>
    </g>
   </g>
   <g id="text_4">
    <!-- Other NY -->
    <g style="fill:#262626;" transform="translate(90.035939 202.377646)scale(0.11 -0.11)">
     <defs>
      <path d="M 309 2231 
Q 309 3372 921 4017 
Q 1534 4663 2503 4663 
Q 3138 4663 3647 4359 
Q 4156 4056 4423 3514 
Q 4691 2972 4691 2284 
Q 4691 1588 4409 1038 
Q 4128 488 3612 205 
Q 3097 -78 2500 -78 
Q 1853 -78 1343 234 
Q 834 547 571 1087 
Q 309 1628 309 2231 
z
M 934 2222 
Q 934 1394 1379 917 
Q 1825 441 2497 441 
Q 3181 441 3623 922 
Q 4066 1403 4066 2288 
Q 4066 2847 3877 3264 
Q 3688 3681 3323 3911 
Q 2959 4141 2506 4141 
Q 1863 4141 1398 3698 
Q 934 3256 934 2222 
z
" id="ArialMT-4f" transform="scale(0.015625)"/>
      <path d="M 488 0 
L 488 4581 
L 1109 4581 
L 3516 984 
L 3516 4581 
L 4097 4581 
L 4097 0 
L 3475 0 
L 1069 3600 
L 1069 0 
L 488 0 
z
" id="ArialMT-4e" transform="scale(0.015625)"/>
      <path d="M 1784 0 
L 1784 1941 
L 19 4581 
L 756 4581 
L 1659 3200 
Q 1909 2813 2125 2425 
Q 2331 2784 2625 3234 
L 3513 4581 
L 4219 4581 
L 2391 1941 
L 2391 0 
L 1784 0 
z
" id="ArialMT-59" transform="scale(0.015625)"/>
     </defs>
     <use xlink:href="#ArialMT-4f"/>
     <use x="77.783203" xlink:href="#ArialMT-74"/>
     <use x="105.566406" xlink:href="#ArialMT-68"/>
     <use x="161.181641" xlink:href="#ArialMT-65"/>
     <use x="216.796875" xlink:href="#ArialMT-72"/>
     <use x="250.097656" xlink:href="#ArialMT-20"/>
     <use x="277.880859" xlink:href="#ArialMT-4e"/>
     <use x="350.097656" xlink:href="#ArialMT-59"/>
    </g>
   </g>
   <g id="text_5">
    <!-- Outside NY -->
    <g style="fill:#262626;" transform="translate(92.211398 218.044397)scale(0.11 -0.11)">
     <defs>
      <path d="M 425 3934 
L 425 4581 
L 988 4581 
L 988 3934 
L 425 3934 
z
M 425 0 
L 425 3319 
L 988 3319 
L 988 0 
L 425 0 
z
" id="ArialMT-69" transform="scale(0.015625)"/>
      <path d="M 2575 0 
L 2575 419 
Q 2259 -75 1647 -75 
Q 1250 -75 917 144 
Q 584 363 401 755 
Q 219 1147 219 1656 
Q 219 2153 384 2558 
Q 550 2963 881 3178 
Q 1213 3394 1622 3394 
Q 1922 3394 2156 3267 
Q 2391 3141 2538 2938 
L 2538 4581 
L 3097 4581 
L 3097 0 
L 2575 0 
z
M 797 1656 
Q 797 1019 1065 703 
Q 1334 388 1700 388 
Q 2069 388 2326 689 
Q 2584 991 2584 1609 
Q 2584 2291 2321 2609 
Q 2059 2928 1675 2928 
Q 1300 2928 1048 2622 
Q 797 2316 797 1656 
z
" id="ArialMT-64" transform="scale(0.015625)"/>
     </defs>
     <use xlink:href="#ArialMT-4f"/>
     <use x="77.783203" xlink:href="#ArialMT-75"/>
     <use x="133.398438" xlink:href="#ArialMT-74"/>
     <use x="161.181641" xlink:href="#ArialMT-73"/>
     <use x="211.181641" xlink:href="#ArialMT-69"/>
     <use x="233.398438" xlink:href="#ArialMT-64"/>
     <use x="289.013672" xlink:href="#ArialMT-65"/>
     <use x="344.628906" xlink:href="#ArialMT-20"/>
     <use x="372.412109" xlink:href="#ArialMT-4e"/>
     <use x="444.628906" xlink:href="#ArialMT-59"/>
    </g>
   </g>
   <g id="text_6">
    <!-- Where RocDev Members Live -->
    <g style="fill:#262626;" transform="translate(141.379687 28.56)scale(0.12 -0.12)">
     <defs>
      <path d="M 1294 0 
L 78 4581 
L 700 4581 
L 1397 1578 
Q 1509 1106 1591 641 
Q 1766 1375 1797 1488 
L 2669 4581 
L 3400 4581 
L 4056 2263 
Q 4303 1400 4413 641 
Q 4500 1075 4641 1638 
L 5359 4581 
L 5969 4581 
L 4713 0 
L 4128 0 
L 3163 3491 
Q 3041 3928 3019 4028 
Q 2947 3713 2884 3491 
L 1913 0 
L 1294 0 
z
" id="ArialMT-57" transform="scale(0.015625)"/>
      <path d="M 494 0 
L 494 4581 
L 2072 4581 
Q 2606 4581 2888 4516 
Q 3281 4425 3559 4188 
Q 3922 3881 4101 3404 
Q 4281 2928 4281 2316 
Q 4281 1794 4159 1391 
Q 4038 988 3847 723 
Q 3656 459 3429 307 
Q 3203 156 2883 78 
Q 2563 0 2147 0 
L 494 0 
z
M 1100 541 
L 2078 541 
Q 2531 541 2789 625 
Q 3047 709 3200 863 
Q 3416 1078 3536 1442 
Q 3656 1806 3656 2325 
Q 3656 3044 3420 3430 
Q 3184 3816 2847 3947 
Q 2603 4041 2063 4041 
L 1100 4041 
L 1100 541 
z
" id="ArialMT-44" transform="scale(0.015625)"/>
      <path d="M 1344 0 
L 81 3319 
L 675 3319 
L 1388 1331 
Q 1503 1009 1600 663 
Q 1675 925 1809 1294 
L 2547 3319 
L 3125 3319 
L 1869 0 
L 1344 0 
z
" id="ArialMT-76" transform="scale(0.015625)"/>
      <path d="M 422 0 
L 422 3319 
L 925 3319 
L 925 2853 
Q 1081 3097 1340 3245 
Q 1600 3394 1931 3394 
Q 2300 3394 2536 3241 
Q 2772 3088 2869 2813 
Q 3263 3394 3894 3394 
Q 4388 3394 4653 3120 
Q 4919 2847 4919 2278 
L 4919 0 
L 4359 0 
L 4359 2091 
Q 4359 2428 4304 2576 
Q 4250 2725 4106 2815 
Q 3963 2906 3769 2906 
Q 3419 2906 3187 2673 
Q 2956 2441 2956 1928 
L 2956 0 
L 2394 0 
L 2394 2156 
Q 2394 2531 2256 2718 
Q 2119 2906 1806 2906 
Q 1569 2906 1367 2781 
Q 1166 2656 1075 2415 
Q 984 2175 984 1722 
L 984 0 
L 422 0 
z
" id="ArialMT-6d" transform="scale(0.015625)"/>
      <path d="M 469 0 
L 469 4581 
L 1075 4581 
L 1075 541 
L 3331 541 
L 3331 0 
L 469 0 
z
" id="ArialMT-4c" transform="scale(0.015625)"/>
     </defs>
     <use xlink:href="#ArialMT-57"/>
     <use x="94.384766" xlink:href="#ArialMT-68"/>
     <use x="150" xlink:href="#ArialMT-65"/>
     <use x="205.615234" xlink:href="#ArialMT-72"/>
     <use x="238.916016" xlink:href="#ArialMT-65"/>
     <use x="294.53125" xlink:href="#ArialMT-20"/>
     <use x="322.314453" xlink:href="#ArialMT-52"/>
     <use x="394.53125" xlink:href="#ArialMT-6f"/>
     <use x="450.146484" xlink:href="#ArialMT-63"/>
     <use x="500.146484" xlink:href="#ArialMT-44"/>
     <use x="572.363281" xlink:href="#ArialMT-65"/>
     <use x="627.978516" xlink:href="#ArialMT-76"/>
     <use x="677.978516" xlink:href="#ArialMT-20"/>
     <use x="705.761719" xlink:href="#ArialMT-4d"/>
     <use x="789.0625" xlink:href="#ArialMT-65"/>
     <use x="844.677734" xlink:href="#ArialMT-6d"/>
     <use x="927.978516" xlink:href="#ArialMT-62"/>
     <use x="983.59375" xlink:href="#ArialMT-65"/>
     <use x="1039.208984" xlink:href="#ArialMT-72"/>
     <use x="1072.509766" xlink:href="#ArialMT-73"/>
     <use x="1122.509766" xlink:href="#ArialMT-20"/>
     <use x="1150.292969" xlink:href="#ArialMT-4c"/>
     <use x="1205.908203" xlink:href="#ArialMT-69"/>
     <use x="1228.125" xlink:href="#ArialMT-76"/>
     <use x="1278.125" xlink:href="#ArialMT-65"/>
    </g>
   </g>
   <g id="legend_1">
    <g id="patch_7">
     <path d="M 252.66125 97.54125 
L 383.2 97.54125 
Q 384.8 97.54125 384.8 95.94125 
L 384.8 40.16 
Q 384.8 38.56 383.2 38.56 
L 252.66125 38.56 
Q 251.06125 38.56 251.06125 40.16 
L 251.06125 95.94125 
Q 251.06125 97.54125 252.66125 97.54125 
z
" style="fill:#eaeaf2;opacity:0.8;stroke:#cccccc;stroke-linejoin:miter;"/>
    </g>
    <g id="patch_8">
     <path d="M 254.26125 47.48625 
L 270.26125 47.48625 
L 270.26125 41.88625 
L 254.26125 41.88625 
z
" style="fill:#4c72b0;stroke:#ffffff;stroke-linejoin:miter;"/>
    </g>
    <g id="text_7">
     <!-- Rochester Suburbs - 54.69 % -->
     <g style="fill:#262626;" transform="translate(276.66125 47.48625)scale(0.08 -0.08)">
      <defs>
       <path d="M 203 1375 
L 203 1941 
L 1931 1941 
L 1931 1375 
L 203 1375 
z
" id="ArialMT-2d" transform="scale(0.015625)"/>
       <path d="M 266 1200 
L 856 1250 
Q 922 819 1161 601 
Q 1400 384 1738 384 
Q 2144 384 2425 690 
Q 2706 997 2706 1503 
Q 2706 1984 2436 2262 
Q 2166 2541 1728 2541 
Q 1456 2541 1237 2417 
Q 1019 2294 894 2097 
L 366 2166 
L 809 4519 
L 3088 4519 
L 3088 3981 
L 1259 3981 
L 1013 2750 
Q 1425 3038 1878 3038 
Q 2478 3038 2890 2622 
Q 3303 2206 3303 1553 
Q 3303 931 2941 478 
Q 2500 -78 1738 -78 
Q 1113 -78 717 272 
Q 322 622 266 1200 
z
" id="ArialMT-35" transform="scale(0.015625)"/>
       <path d="M 2069 0 
L 2069 1097 
L 81 1097 
L 81 1613 
L 2172 4581 
L 2631 4581 
L 2631 1613 
L 3250 1613 
L 3250 1097 
L 2631 1097 
L 2631 0 
L 2069 0 
z
M 2069 1613 
L 2069 3678 
L 634 1613 
L 2069 1613 
z
" id="ArialMT-34" transform="scale(0.015625)"/>
       <path d="M 581 0 
L 581 641 
L 1222 641 
L 1222 0 
L 581 0 
z
" id="ArialMT-2e" transform="scale(0.015625)"/>
       <path d="M 3184 3459 
L 2625 3416 
Q 2550 3747 2413 3897 
Q 2184 4138 1850 4138 
Q 1581 4138 1378 3988 
Q 1113 3794 959 3422 
Q 806 3050 800 2363 
Q 1003 2672 1297 2822 
Q 1591 2972 1913 2972 
Q 2475 2972 2870 2558 
Q 3266 2144 3266 1488 
Q 3266 1056 3080 686 
Q 2894 316 2569 119 
Q 2244 -78 1831 -78 
Q 1128 -78 684 439 
Q 241 956 241 2144 
Q 241 3472 731 4075 
Q 1159 4600 1884 4600 
Q 2425 4600 2770 4297 
Q 3116 3994 3184 3459 
z
M 888 1484 
Q 888 1194 1011 928 
Q 1134 663 1356 523 
Q 1578 384 1822 384 
Q 2178 384 2434 671 
Q 2691 959 2691 1453 
Q 2691 1928 2437 2201 
Q 2184 2475 1800 2475 
Q 1419 2475 1153 2201 
Q 888 1928 888 1484 
z
" id="ArialMT-36" transform="scale(0.015625)"/>
       <path d="M 350 1059 
L 891 1109 
Q 959 728 1153 556 
Q 1347 384 1650 384 
Q 1909 384 2104 503 
Q 2300 622 2425 820 
Q 2550 1019 2634 1356 
Q 2719 1694 2719 2044 
Q 2719 2081 2716 2156 
Q 2547 1888 2255 1720 
Q 1963 1553 1622 1553 
Q 1053 1553 659 1965 
Q 266 2378 266 3053 
Q 266 3750 677 4175 
Q 1088 4600 1706 4600 
Q 2153 4600 2523 4359 
Q 2894 4119 3086 3673 
Q 3278 3228 3278 2384 
Q 3278 1506 3087 986 
Q 2897 466 2520 194 
Q 2144 -78 1638 -78 
Q 1100 -78 759 220 
Q 419 519 350 1059 
z
M 2653 3081 
Q 2653 3566 2395 3850 
Q 2138 4134 1775 4134 
Q 1400 4134 1122 3828 
Q 844 3522 844 3034 
Q 844 2597 1108 2323 
Q 1372 2050 1759 2050 
Q 2150 2050 2401 2323 
Q 2653 2597 2653 3081 
z
" id="ArialMT-39" transform="scale(0.015625)"/>
       <path d="M 372 3481 
Q 372 3972 619 4315 
Q 866 4659 1334 4659 
Q 1766 4659 2048 4351 
Q 2331 4044 2331 3447 
Q 2331 2866 2045 2552 
Q 1759 2238 1341 2238 
Q 925 2238 648 2547 
Q 372 2856 372 3481 
z
M 1350 4272 
Q 1141 4272 1002 4090 
Q 863 3909 863 3425 
Q 863 2984 1003 2804 
Q 1144 2625 1350 2625 
Q 1563 2625 1702 2806 
Q 1841 2988 1841 3469 
Q 1841 3913 1700 4092 
Q 1559 4272 1350 4272 
z
M 1353 -169 
L 3859 4659 
L 4316 4659 
L 1819 -169 
L 1353 -169 
z
M 3334 1075 
Q 3334 1569 3581 1911 
Q 3828 2253 4300 2253 
Q 4731 2253 5014 1945 
Q 5297 1638 5297 1041 
Q 5297 459 5011 145 
Q 4725 -169 4303 -169 
Q 3888 -169 3611 142 
Q 3334 453 3334 1075 
z
M 4316 1866 
Q 4103 1866 3964 1684 
Q 3825 1503 3825 1019 
Q 3825 581 3965 400 
Q 4106 219 4313 219 
Q 4528 219 4667 400 
Q 4806 581 4806 1063 
Q 4806 1506 4665 1686 
Q 4525 1866 4316 1866 
z
" id="ArialMT-25" transform="scale(0.015625)"/>
      </defs>
      <use xlink:href="#ArialMT-52"/>
      <use x="72.216797" xlink:href="#ArialMT-6f"/>
      <use x="127.832031" xlink:href="#ArialMT-63"/>
      <use x="177.832031" xlink:href="#ArialMT-68"/>
      <use x="233.447266" xlink:href="#ArialMT-65"/>
      <use x="289.0625" xlink:href="#ArialMT-73"/>
      <use x="339.0625" xlink:href="#ArialMT-74"/>
      <use x="366.845703" xlink:href="#ArialMT-65"/>
      <use x="422.460938" xlink:href="#ArialMT-72"/>
      <use x="455.761719" xlink:href="#ArialMT-20"/>
      <use x="483.544922" xlink:href="#ArialMT-53"/>
      <use x="550.244141" xlink:href="#ArialMT-75"/>
      <use x="605.859375" xlink:href="#ArialMT-62"/>
      <use x="661.474609" xlink:href="#ArialMT-75"/>
      <use x="717.089844" xlink:href="#ArialMT-72"/>
      <use x="750.390625" xlink:href="#ArialMT-62"/>
      <use x="806.005859" xlink:href="#ArialMT-73"/>
      <use x="856.005859" xlink:href="#ArialMT-20"/>
      <use x="883.789062" xlink:href="#ArialMT-2d"/>
      <use x="917.089844" xlink:href="#ArialMT-20"/>
      <use x="944.873047" xlink:href="#ArialMT-35"/>
      <use x="1000.488281" xlink:href="#ArialMT-34"/>
      <use x="1056.103516" xlink:href="#ArialMT-2e"/>
      <use x="1083.886719" xlink:href="#ArialMT-36"/>
      <use x="1139.501953" xlink:href="#ArialMT-39"/>
      <use x="1195.117188" xlink:href="#ArialMT-20"/>
      <use x="1222.900391" xlink:href="#ArialMT-25"/>
     </g>
    </g>
    <g id="patch_9">
     <path d="M 254.26125 58.8025 
L 270.26125 58.8025 
L 270.26125 53.2025 
L 254.26125 53.2025 
z
" style="fill:#dd8452;stroke:#ffffff;stroke-linejoin:miter;"/>
    </g>
    <g id="text_8">
     <!-- Rochester - 34.38 % -->
     <g style="fill:#262626;" transform="translate(276.66125 58.8025)scale(0.08 -0.08)">
      <defs>
       <path d="M 269 1209 
L 831 1284 
Q 928 806 1161 595 
Q 1394 384 1728 384 
Q 2125 384 2398 659 
Q 2672 934 2672 1341 
Q 2672 1728 2419 1979 
Q 2166 2231 1775 2231 
Q 1616 2231 1378 2169 
L 1441 2663 
Q 1497 2656 1531 2656 
Q 1891 2656 2178 2843 
Q 2466 3031 2466 3422 
Q 2466 3731 2256 3934 
Q 2047 4138 1716 4138 
Q 1388 4138 1169 3931 
Q 950 3725 888 3313 
L 325 3413 
Q 428 3978 793 4289 
Q 1159 4600 1703 4600 
Q 2078 4600 2393 4439 
Q 2709 4278 2876 4000 
Q 3044 3722 3044 3409 
Q 3044 3113 2884 2869 
Q 2725 2625 2413 2481 
Q 2819 2388 3044 2092 
Q 3269 1797 3269 1353 
Q 3269 753 2831 336 
Q 2394 -81 1725 -81 
Q 1122 -81 723 278 
Q 325 638 269 1209 
z
" id="ArialMT-33" transform="scale(0.015625)"/>
       <path d="M 1131 2484 
Q 781 2613 612 2850 
Q 444 3088 444 3419 
Q 444 3919 803 4259 
Q 1163 4600 1759 4600 
Q 2359 4600 2725 4251 
Q 3091 3903 3091 3403 
Q 3091 3084 2923 2848 
Q 2756 2613 2416 2484 
Q 2838 2347 3058 2040 
Q 3278 1734 3278 1309 
Q 3278 722 2862 322 
Q 2447 -78 1769 -78 
Q 1091 -78 675 323 
Q 259 725 259 1325 
Q 259 1772 486 2073 
Q 713 2375 1131 2484 
z
M 1019 3438 
Q 1019 3113 1228 2906 
Q 1438 2700 1772 2700 
Q 2097 2700 2305 2904 
Q 2513 3109 2513 3406 
Q 2513 3716 2298 3927 
Q 2084 4138 1766 4138 
Q 1444 4138 1231 3931 
Q 1019 3725 1019 3438 
z
M 838 1322 
Q 838 1081 952 856 
Q 1066 631 1291 507 
Q 1516 384 1775 384 
Q 2178 384 2440 643 
Q 2703 903 2703 1303 
Q 2703 1709 2433 1975 
Q 2163 2241 1756 2241 
Q 1359 2241 1098 1978 
Q 838 1716 838 1322 
z
" id="ArialMT-38" transform="scale(0.015625)"/>
      </defs>
      <use xlink:href="#ArialMT-52"/>
      <use x="72.216797" xlink:href="#ArialMT-6f"/>
      <use x="127.832031" xlink:href="#ArialMT-63"/>
      <use x="177.832031" xlink:href="#ArialMT-68"/>
      <use x="233.447266" xlink:href="#ArialMT-65"/>
      <use x="289.0625" xlink:href="#ArialMT-73"/>
      <use x="339.0625" xlink:href="#ArialMT-74"/>
      <use x="366.845703" xlink:href="#ArialMT-65"/>
      <use x="422.460938" xlink:href="#ArialMT-72"/>
      <use x="455.761719" xlink:href="#ArialMT-20"/>
      <use x="483.544922" xlink:href="#ArialMT-2d"/>
      <use x="516.845703" xlink:href="#ArialMT-20"/>
      <use x="544.628906" xlink:href="#ArialMT-33"/>
      <use x="600.244141" xlink:href="#ArialMT-34"/>
      <use x="655.859375" xlink:href="#ArialMT-2e"/>
      <use x="683.642578" xlink:href="#ArialMT-33"/>
      <use x="739.257812" xlink:href="#ArialMT-38"/>
      <use x="794.873047" xlink:href="#ArialMT-20"/>
      <use x="822.65625" xlink:href="#ArialMT-25"/>
     </g>
    </g>
    <g id="patch_10">
     <path d="M 254.26125 70.11875 
L 270.26125 70.11875 
L 270.26125 64.51875 
L 254.26125 64.51875 
z
" style="fill:#55a868;stroke:#ffffff;stroke-linejoin:miter;"/>
    </g>
    <g id="text_9">
     <!-- Rochester MSA - 4.69 % -->
     <g style="fill:#262626;" transform="translate(276.66125 70.11875)scale(0.08 -0.08)">
      <use xlink:href="#ArialMT-52"/>
      <use x="72.216797" xlink:href="#ArialMT-6f"/>
      <use x="127.832031" xlink:href="#ArialMT-63"/>
      <use x="177.832031" xlink:href="#ArialMT-68"/>
      <use x="233.447266" xlink:href="#ArialMT-65"/>
      <use x="289.0625" xlink:href="#ArialMT-73"/>
      <use x="339.0625" xlink:href="#ArialMT-74"/>
      <use x="366.845703" xlink:href="#ArialMT-65"/>
      <use x="422.460938" xlink:href="#ArialMT-72"/>
      <use x="455.761719" xlink:href="#ArialMT-20"/>
      <use x="483.544922" xlink:href="#ArialMT-4d"/>
      <use x="566.845703" xlink:href="#ArialMT-53"/>
      <use x="633.544922" xlink:href="#ArialMT-41"/>
      <use x="694.744141" xlink:href="#ArialMT-20"/>
      <use x="722.527344" xlink:href="#ArialMT-2d"/>
      <use x="755.828125" xlink:href="#ArialMT-20"/>
      <use x="783.611328" xlink:href="#ArialMT-34"/>
      <use x="839.226562" xlink:href="#ArialMT-2e"/>
      <use x="867.009766" xlink:href="#ArialMT-36"/>
      <use x="922.625" xlink:href="#ArialMT-39"/>
      <use x="978.240234" xlink:href="#ArialMT-20"/>
      <use x="1006.023438" xlink:href="#ArialMT-25"/>
     </g>
    </g>
    <g id="patch_11">
     <path d="M 254.26125 81.435 
L 270.26125 81.435 
L 270.26125 75.835 
L 254.26125 75.835 
z
" style="fill:#c44e52;stroke:#ffffff;stroke-linejoin:miter;"/>
    </g>
    <g id="text_10">
     <!-- Other NY - 3.12 % -->
     <g style="fill:#262626;" transform="translate(276.66125 81.435)scale(0.08 -0.08)">
      <defs>
       <path d="M 2384 0 
L 1822 0 
L 1822 3584 
Q 1619 3391 1289 3197 
Q 959 3003 697 2906 
L 697 3450 
Q 1169 3672 1522 3987 
Q 1875 4303 2022 4600 
L 2384 4600 
L 2384 0 
z
" id="ArialMT-31" transform="scale(0.015625)"/>
       <path d="M 3222 541 
L 3222 0 
L 194 0 
Q 188 203 259 391 
Q 375 700 629 1000 
Q 884 1300 1366 1694 
Q 2113 2306 2375 2664 
Q 2638 3022 2638 3341 
Q 2638 3675 2398 3904 
Q 2159 4134 1775 4134 
Q 1369 4134 1125 3890 
Q 881 3647 878 3216 
L 300 3275 
Q 359 3922 746 4261 
Q 1134 4600 1788 4600 
Q 2447 4600 2831 4234 
Q 3216 3869 3216 3328 
Q 3216 3053 3103 2787 
Q 2991 2522 2730 2228 
Q 2469 1934 1863 1422 
Q 1356 997 1212 845 
Q 1069 694 975 541 
L 3222 541 
z
" id="ArialMT-32" transform="scale(0.015625)"/>
      </defs>
      <use xlink:href="#ArialMT-4f"/>
      <use x="77.783203" xlink:href="#ArialMT-74"/>
      <use x="105.566406" xlink:href="#ArialMT-68"/>
      <use x="161.181641" xlink:href="#ArialMT-65"/>
      <use x="216.796875" xlink:href="#ArialMT-72"/>
      <use x="250.097656" xlink:href="#ArialMT-20"/>
      <use x="277.880859" xlink:href="#ArialMT-4e"/>
      <use x="350.097656" xlink:href="#ArialMT-59"/>
      <use x="415.046875" xlink:href="#ArialMT-20"/>
      <use x="442.830078" xlink:href="#ArialMT-2d"/>
      <use x="476.130859" xlink:href="#ArialMT-20"/>
      <use x="503.914062" xlink:href="#ArialMT-33"/>
      <use x="559.529297" xlink:href="#ArialMT-2e"/>
      <use x="587.3125" xlink:href="#ArialMT-31"/>
      <use x="642.927734" xlink:href="#ArialMT-32"/>
      <use x="698.542969" xlink:href="#ArialMT-20"/>
      <use x="726.326172" xlink:href="#ArialMT-25"/>
     </g>
    </g>
    <g id="patch_12">
     <path d="M 254.26125 92.75125 
L 270.26125 92.75125 
L 270.26125 87.15125 
L 254.26125 87.15125 
z
" style="fill:#8172b3;stroke:#ffffff;stroke-linejoin:miter;"/>
    </g>
    <g id="text_11">
     <!-- Outside NY - 3.12 % -->
     <g style="fill:#262626;" transform="translate(276.66125 92.75125)scale(0.08 -0.08)">
      <use xlink:href="#ArialMT-4f"/>
      <use x="77.783203" xlink:href="#ArialMT-75"/>
      <use x="133.398438" xlink:href="#ArialMT-74"/>
      <use x="161.181641" xlink:href="#ArialMT-73"/>
      <use x="211.181641" xlink:href="#ArialMT-69"/>
      <use x="233.398438" xlink:href="#ArialMT-64"/>
      <use x="289.013672" xlink:href="#ArialMT-65"/>
      <use x="344.628906" xlink:href="#ArialMT-20"/>
      <use x="372.412109" xlink:href="#ArialMT-4e"/>
      <use x="444.628906" xlink:href="#ArialMT-59"/>
      <use x="509.578125" xlink:href="#ArialMT-20"/>
      <use x="537.361328" xlink:href="#ArialMT-2d"/>
      <use x="570.662109" xlink:href="#ArialMT-20"/>
      <use x="598.445312" xlink:href="#ArialMT-33"/>
      <use x="654.060547" xlink:href="#ArialMT-2e"/>
      <use x="681.84375" xlink:href="#ArialMT-31"/>
      <use x="737.458984" xlink:href="#ArialMT-32"/>
      <use x="793.074219" xlink:href="#ArialMT-20"/>
      <use x="820.857422" xlink:href="#ArialMT-25"/>
     </g>
    </g>
   </g>
  </g>
 </g>
</svg>
