<?xml version="1.0" encoding="utf-8" standalone="no"?>
<!DOCTYPE svg PUBLIC "-//W3C//DTD SVG 1.1//EN"
  "http://www.w3.org/Graphics/SVG/1.1/DTD/svg11.dtd">
<svg height="288pt" version="1.1" viewBox="0 0 432 288" width="432pt" xmlns="http://www.w3.org/2000/svg" xmlns:xlink="http://www.w3.org/1999/xlink">
 <metadata>
  <rdf:RDF xmlns:cc="http://creativecommons.org/ns#" xmlns:dc="http://purl.org/dc/elements/1.1/" xmlns:rdf="http://www.w3.org/1999/02/22-rdf-syntax-ns#">
   <cc:Work>
    <dc:type rdf:resource="http://purl.org/dc/dcmitype/StillImage"/>
    <dc:date>2022-01-05T15:07:42.224211</dc:date>
    <dc:format>image/svg+xml</dc:format>
    <dc:creator>
     <cc:Agent>
      <dc:title>Matplotlib v3.4.3, https://matplotlib.org/</dc:title>
     </cc:Agent>
    </dc:creator>
   </cc:Work>
  </rdf:RDF>
 </metadata>
 <defs>
  <style type="text/css">*{stroke-linecap:butt;stroke-linejoin:round;}</style>
 </defs>
 <g id="figure_1">
  <g id="patch_1">
   <path d="M 0 288 
L 432 288 
L 432 0 
L 0 0 
z
" style="fill:none;"/>
  </g>
  <g id="axes_1">
   <g id="patch_2">
    <path d="M 158.979544 218.293868 
C 169.960386 227.507888 182.837649 234.190377 196.693161 237.86486 
C 210.548673 241.539344 225.045107 242.116364 239.148841 239.554777 
C 253.252575 236.99319 266.620239 231.35536 278.298694 223.043277 
C 289.977149 214.731193 299.682071 203.94722 306.72148 191.460277 
C 313.76089 178.973334 317.963406 165.087426 319.029381 150.792646 
C 320.095356 136.497866 317.998838 122.142234 312.889313 108.749333 
C 307.779788 95.356432 299.781651 83.252326 289.465186 73.300061 
C 279.148721 63.347795 266.765092 55.789668 253.197274 51.164587 
L 221.709347 143.5354 
L 158.979544 218.293868 
z
" style="fill:#1f77b4;"/>
   </g>
   <g id="patch_3">
    <path d="M 253.197274 51.164587 
C 236.742855 45.555504 219.084699 44.443636 202.056663 47.944456 
C 185.028626 51.445275 169.24132 59.433245 156.334304 71.078789 
C 143.427289 82.724334 133.863399 97.609854 128.635874 114.189442 
C 123.408349 130.76903 122.704644 148.448156 126.59784 165.390788 
L 221.709347 143.5354 
L 253.197274 51.164587 
z
" style="fill:#ff7f0e;"/>
   </g>
   <g id="patch_4">
    <path d="M 126.59784 165.390788 
C 127.607961 169.786687 128.921624 174.107274 130.52938 178.321464 
C 132.137135 182.535654 134.035117 186.633317 136.209672 190.584973 
L 221.709347 143.5354 
L 126.59784 165.390788 
z
" style="fill:#2ca02c;"/>
   </g>
   <g id="patch_5">
    <path d="M 136.209672 190.584973 
C 137.659053 193.218825 139.229366 195.784298 140.915586 198.273182 
C 142.601805 200.762067 144.402131 203.171705 146.310803 205.494388 
L 221.709347 143.5354 
L 136.209672 190.584973 
z
" style="fill:#d62728;"/>
   </g>
   <g id="patch_6">
    <path d="M 146.310803 205.494388 
C 148.219475 207.817071 150.234454 210.050318 152.349294 212.186982 
C 154.464134 214.323647 156.676576 216.361448 158.979541 218.293865 
L 221.709347 143.5354 
L 146.310803 205.494388 
z
" style="fill:#9467bd;"/>
   </g>
   <g id="matplotlib.axis_1"/>
   <g id="matplotlib.axis_2"/>
   <g id="text_1">
    <!-- Rochester Suburbs -->
    <g transform="translate(310.972087 196.615896)scale(0.1 -0.1)">
     <defs>
      <path d="M 2841 2188 
Q 3044 2119 3236 1894 
Q 3428 1669 3622 1275 
L 4263 0 
L 3584 0 
L 2988 1197 
Q 2756 1666 2539 1819 
Q 2322 1972 1947 1972 
L 1259 1972 
L 1259 0 
L 628 0 
L 628 4666 
L 2053 4666 
Q 2853 4666 3247 4331 
Q 3641 3997 3641 3322 
Q 3641 2881 3436 2590 
Q 3231 2300 2841 2188 
z
M 1259 4147 
L 1259 2491 
L 2053 2491 
Q 2509 2491 2742 2702 
Q 2975 2913 2975 3322 
Q 2975 3731 2742 3939 
Q 2509 4147 2053 4147 
L 1259 4147 
z
" id="DejaVuSans-52" transform="scale(0.015625)"/>
      <path d="M 1959 3097 
Q 1497 3097 1228 2736 
Q 959 2375 959 1747 
Q 959 1119 1226 758 
Q 1494 397 1959 397 
Q 2419 397 2687 759 
Q 2956 1122 2956 1747 
Q 2956 2369 2687 2733 
Q 2419 3097 1959 3097 
z
M 1959 3584 
Q 2709 3584 3137 3096 
Q 3566 2609 3566 1747 
Q 3566 888 3137 398 
Q 2709 -91 1959 -91 
Q 1206 -91 779 398 
Q 353 888 353 1747 
Q 353 2609 779 3096 
Q 1206 3584 1959 3584 
z
" id="DejaVuSans-6f" transform="scale(0.015625)"/>
      <path d="M 3122 3366 
L 3122 2828 
Q 2878 2963 2633 3030 
Q 2388 3097 2138 3097 
Q 1578 3097 1268 2742 
Q 959 2388 959 1747 
Q 959 1106 1268 751 
Q 1578 397 2138 397 
Q 2388 397 2633 464 
Q 2878 531 3122 666 
L 3122 134 
Q 2881 22 2623 -34 
Q 2366 -91 2075 -91 
Q 1284 -91 818 406 
Q 353 903 353 1747 
Q 353 2603 823 3093 
Q 1294 3584 2113 3584 
Q 2378 3584 2631 3529 
Q 2884 3475 3122 3366 
z
" id="DejaVuSans-63" transform="scale(0.015625)"/>
      <path d="M 3513 2113 
L 3513 0 
L 2938 0 
L 2938 2094 
Q 2938 2591 2744 2837 
Q 2550 3084 2163 3084 
Q 1697 3084 1428 2787 
Q 1159 2491 1159 1978 
L 1159 0 
L 581 0 
L 581 4863 
L 1159 4863 
L 1159 2956 
Q 1366 3272 1645 3428 
Q 1925 3584 2291 3584 
Q 2894 3584 3203 3211 
Q 3513 2838 3513 2113 
z
" id="DejaVuSans-68" transform="scale(0.015625)"/>
      <path d="M 3597 1894 
L 3597 1613 
L 953 1613 
Q 991 1019 1311 708 
Q 1631 397 2203 397 
Q 2534 397 2845 478 
Q 3156 559 3463 722 
L 3463 178 
Q 3153 47 2828 -22 
Q 2503 -91 2169 -91 
Q 1331 -91 842 396 
Q 353 884 353 1716 
Q 353 2575 817 3079 
Q 1281 3584 2069 3584 
Q 2775 3584 3186 3129 
Q 3597 2675 3597 1894 
z
M 3022 2063 
Q 3016 2534 2758 2815 
Q 2500 3097 2075 3097 
Q 1594 3097 1305 2825 
Q 1016 2553 972 2059 
L 3022 2063 
z
" id="DejaVuSans-65" transform="scale(0.015625)"/>
      <path d="M 2834 3397 
L 2834 2853 
Q 2591 2978 2328 3040 
Q 2066 3103 1784 3103 
Q 1356 3103 1142 2972 
Q 928 2841 928 2578 
Q 928 2378 1081 2264 
Q 1234 2150 1697 2047 
L 1894 2003 
Q 2506 1872 2764 1633 
Q 3022 1394 3022 966 
Q 3022 478 2636 193 
Q 2250 -91 1575 -91 
Q 1294 -91 989 -36 
Q 684 19 347 128 
L 347 722 
Q 666 556 975 473 
Q 1284 391 1588 391 
Q 1994 391 2212 530 
Q 2431 669 2431 922 
Q 2431 1156 2273 1281 
Q 2116 1406 1581 1522 
L 1381 1569 
Q 847 1681 609 1914 
Q 372 2147 372 2553 
Q 372 3047 722 3315 
Q 1072 3584 1716 3584 
Q 2034 3584 2315 3537 
Q 2597 3491 2834 3397 
z
" id="DejaVuSans-73" transform="scale(0.015625)"/>
      <path d="M 1172 4494 
L 1172 3500 
L 2356 3500 
L 2356 3053 
L 1172 3053 
L 1172 1153 
Q 1172 725 1289 603 
Q 1406 481 1766 481 
L 2356 481 
L 2356 0 
L 1766 0 
Q 1100 0 847 248 
Q 594 497 594 1153 
L 594 3053 
L 172 3053 
L 172 3500 
L 594 3500 
L 594 4494 
L 1172 4494 
z
" id="DejaVuSans-74" transform="scale(0.015625)"/>
      <path d="M 2631 2963 
Q 2534 3019 2420 3045 
Q 2306 3072 2169 3072 
Q 1681 3072 1420 2755 
Q 1159 2438 1159 1844 
L 1159 0 
L 581 0 
L 581 3500 
L 1159 3500 
L 1159 2956 
Q 1341 3275 1631 3429 
Q 1922 3584 2338 3584 
Q 2397 3584 2469 3576 
Q 2541 3569 2628 3553 
L 2631 2963 
z
" id="DejaVuSans-72" transform="scale(0.015625)"/>
      <path id="DejaVuSans-20" transform="scale(0.015625)"/>
      <path d="M 3425 4513 
L 3425 3897 
Q 3066 4069 2747 4153 
Q 2428 4238 2131 4238 
Q 1616 4238 1336 4038 
Q 1056 3838 1056 3469 
Q 1056 3159 1242 3001 
Q 1428 2844 1947 2747 
L 2328 2669 
Q 3034 2534 3370 2195 
Q 3706 1856 3706 1288 
Q 3706 609 3251 259 
Q 2797 -91 1919 -91 
Q 1588 -91 1214 -16 
Q 841 59 441 206 
L 441 856 
Q 825 641 1194 531 
Q 1563 422 1919 422 
Q 2459 422 2753 634 
Q 3047 847 3047 1241 
Q 3047 1584 2836 1778 
Q 2625 1972 2144 2069 
L 1759 2144 
Q 1053 2284 737 2584 
Q 422 2884 422 3419 
Q 422 4038 858 4394 
Q 1294 4750 2059 4750 
Q 2388 4750 2728 4690 
Q 3069 4631 3425 4513 
z
" id="DejaVuSans-53" transform="scale(0.015625)"/>
      <path d="M 544 1381 
L 544 3500 
L 1119 3500 
L 1119 1403 
Q 1119 906 1312 657 
Q 1506 409 1894 409 
Q 2359 409 2629 706 
Q 2900 1003 2900 1516 
L 2900 3500 
L 3475 3500 
L 3475 0 
L 2900 0 
L 2900 538 
Q 2691 219 2414 64 
Q 2138 -91 1772 -91 
Q 1169 -91 856 284 
Q 544 659 544 1381 
z
M 1991 3584 
L 1991 3584 
z
" id="DejaVuSans-75" transform="scale(0.015625)"/>
      <path d="M 3116 1747 
Q 3116 2381 2855 2742 
Q 2594 3103 2138 3103 
Q 1681 3103 1420 2742 
Q 1159 2381 1159 1747 
Q 1159 1113 1420 752 
Q 1681 391 2138 391 
Q 2594 391 2855 752 
Q 3116 1113 3116 1747 
z
M 1159 2969 
Q 1341 3281 1617 3432 
Q 1894 3584 2278 3584 
Q 2916 3584 3314 3078 
Q 3713 2572 3713 1747 
Q 3713 922 3314 415 
Q 2916 -91 2278 -91 
Q 1894 -91 1617 61 
Q 1341 213 1159 525 
L 1159 0 
L 581 0 
L 581 4863 
L 1159 4863 
L 1159 2969 
z
" id="DejaVuSans-62" transform="scale(0.015625)"/>
     </defs>
     <use xlink:href="#DejaVuSans-52"/>
     <use x="64.982422" xlink:href="#DejaVuSans-6f"/>
     <use x="126.164062" xlink:href="#DejaVuSans-63"/>
     <use x="181.144531" xlink:href="#DejaVuSans-68"/>
     <use x="244.523438" xlink:href="#DejaVuSans-65"/>
     <use x="306.046875" xlink:href="#DejaVuSans-73"/>
     <use x="358.146484" xlink:href="#DejaVuSans-74"/>
     <use x="397.355469" xlink:href="#DejaVuSans-65"/>
     <use x="458.878906" xlink:href="#DejaVuSans-72"/>
     <use x="499.992188" xlink:href="#DejaVuSans-20"/>
     <use x="531.779297" xlink:href="#DejaVuSans-53"/>
     <use x="595.255859" xlink:href="#DejaVuSans-75"/>
     <use x="658.634766" xlink:href="#DejaVuSans-62"/>
     <use x="722.111328" xlink:href="#DejaVuSans-75"/>
     <use x="785.490234" xlink:href="#DejaVuSans-72"/>
     <use x="826.603516" xlink:href="#DejaVuSans-62"/>
     <use x="890.080078" xlink:href="#DejaVuSans-73"/>
    </g>
   </g>
   <g id="text_2">
    <!-- Rochester -->
    <g transform="translate(103.065552 70.215334)scale(0.1 -0.1)">
     <use xlink:href="#DejaVuSans-52"/>
     <use x="64.982422" xlink:href="#DejaVuSans-6f"/>
     <use x="126.164062" xlink:href="#DejaVuSans-63"/>
     <use x="181.144531" xlink:href="#DejaVuSans-68"/>
     <use x="244.523438" xlink:href="#DejaVuSans-65"/>
     <use x="306.046875" xlink:href="#DejaVuSans-73"/>
     <use x="358.146484" xlink:href="#DejaVuSans-74"/>
     <use x="397.355469" xlink:href="#DejaVuSans-65"/>
     <use x="458.878906" xlink:href="#DejaVuSans-72"/>
    </g>
   </g>
   <g id="text_3">
    <!-- Rochester MSA -->
    <g transform="translate(50.787569 182.820142)scale(0.1 -0.1)">
     <defs>
      <path d="M 628 4666 
L 1569 4666 
L 2759 1491 
L 3956 4666 
L 4897 4666 
L 4897 0 
L 4281 0 
L 4281 4097 
L 3078 897 
L 2444 897 
L 1241 4097 
L 1241 0 
L 628 0 
L 628 4666 
z
" id="DejaVuSans-4d" transform="scale(0.015625)"/>
      <path d="M 2188 4044 
L 1331 1722 
L 3047 1722 
L 2188 4044 
z
M 1831 4666 
L 2547 4666 
L 4325 0 
L 3669 0 
L 3244 1197 
L 1141 1197 
L 716 0 
L 50 0 
L 1831 4666 
z
" id="DejaVuSans-41" transform="scale(0.015625)"/>
     </defs>
     <use xlink:href="#DejaVuSans-52"/>
     <use x="64.982422" xlink:href="#DejaVuSans-6f"/>
     <use x="126.164062" xlink:href="#DejaVuSans-63"/>
     <use x="181.144531" xlink:href="#DejaVuSans-68"/>
     <use x="244.523438" xlink:href="#DejaVuSans-65"/>
     <use x="306.046875" xlink:href="#DejaVuSans-73"/>
     <use x="358.146484" xlink:href="#DejaVuSans-74"/>
     <use x="397.355469" xlink:href="#DejaVuSans-65"/>
     <use x="458.878906" xlink:href="#DejaVuSans-72"/>
     <use x="499.992188" xlink:href="#DejaVuSans-20"/>
     <use x="531.779297" xlink:href="#DejaVuSans-4d"/>
     <use x="618.058594" xlink:href="#DejaVuSans-53"/>
     <use x="683.410156" xlink:href="#DejaVuSans-41"/>
    </g>
   </g>
   <g id="text_4">
    <!-- NY Other -->
    <g transform="translate(91.71496 203.769446)scale(0.1 -0.1)">
     <defs>
      <path d="M 628 4666 
L 1478 4666 
L 3547 763 
L 3547 4666 
L 4159 4666 
L 4159 0 
L 3309 0 
L 1241 3903 
L 1241 0 
L 628 0 
L 628 4666 
z
" id="DejaVuSans-4e" transform="scale(0.015625)"/>
      <path d="M -13 4666 
L 666 4666 
L 1959 2747 
L 3244 4666 
L 3922 4666 
L 2272 2222 
L 2272 0 
L 1638 0 
L 1638 2222 
L -13 4666 
z
" id="DejaVuSans-59" transform="scale(0.015625)"/>
      <path d="M 2522 4238 
Q 1834 4238 1429 3725 
Q 1025 3213 1025 2328 
Q 1025 1447 1429 934 
Q 1834 422 2522 422 
Q 3209 422 3611 934 
Q 4013 1447 4013 2328 
Q 4013 3213 3611 3725 
Q 3209 4238 2522 4238 
z
M 2522 4750 
Q 3503 4750 4090 4092 
Q 4678 3434 4678 2328 
Q 4678 1225 4090 567 
Q 3503 -91 2522 -91 
Q 1538 -91 948 565 
Q 359 1222 359 2328 
Q 359 3434 948 4092 
Q 1538 4750 2522 4750 
z
" id="DejaVuSans-4f" transform="scale(0.015625)"/>
     </defs>
     <use xlink:href="#DejaVuSans-4e"/>
     <use x="74.804688" xlink:href="#DejaVuSans-59"/>
     <use x="135.888672" xlink:href="#DejaVuSans-20"/>
     <use x="167.675781" xlink:href="#DejaVuSans-4f"/>
     <use x="246.386719" xlink:href="#DejaVuSans-74"/>
     <use x="285.595703" xlink:href="#DejaVuSans-68"/>
     <use x="348.974609" xlink:href="#DejaVuSans-65"/>
     <use x="410.498047" xlink:href="#DejaVuSans-72"/>
    </g>
   </g>
   <g id="text_5">
    <!-- Outside NY -->
    <g transform="translate(93.495354 218.378936)scale(0.1 -0.1)">
     <defs>
      <path d="M 603 3500 
L 1178 3500 
L 1178 0 
L 603 0 
L 603 3500 
z
M 603 4863 
L 1178 4863 
L 1178 4134 
L 603 4134 
L 603 4863 
z
" id="DejaVuSans-69" transform="scale(0.015625)"/>
      <path d="M 2906 2969 
L 2906 4863 
L 3481 4863 
L 3481 0 
L 2906 0 
L 2906 525 
Q 2725 213 2448 61 
Q 2172 -91 1784 -91 
Q 1150 -91 751 415 
Q 353 922 353 1747 
Q 353 2572 751 3078 
Q 1150 3584 1784 3584 
Q 2172 3584 2448 3432 
Q 2725 3281 2906 2969 
z
M 947 1747 
Q 947 1113 1208 752 
Q 1469 391 1925 391 
Q 2381 391 2643 752 
Q 2906 1113 2906 1747 
Q 2906 2381 2643 2742 
Q 2381 3103 1925 3103 
Q 1469 3103 1208 2742 
Q 947 2381 947 1747 
z
" id="DejaVuSans-64" transform="scale(0.015625)"/>
     </defs>
     <use xlink:href="#DejaVuSans-4f"/>
     <use x="78.710938" xlink:href="#DejaVuSans-75"/>
     <use x="142.089844" xlink:href="#DejaVuSans-74"/>
     <use x="181.298828" xlink:href="#DejaVuSans-73"/>
     <use x="233.398438" xlink:href="#DejaVuSans-69"/>
     <use x="261.181641" xlink:href="#DejaVuSans-64"/>
     <use x="324.658203" xlink:href="#DejaVuSans-65"/>
     <use x="386.181641" xlink:href="#DejaVuSans-20"/>
     <use x="417.96875" xlink:href="#DejaVuSans-4e"/>
     <use x="492.773438" xlink:href="#DejaVuSans-59"/>
    </g>
   </g>
   <g id="text_6">
    <!-- Where RocDev Members Live -->
    <g transform="translate(133.437187 28.56)scale(0.12 -0.12)">
     <defs>
      <path d="M 213 4666 
L 850 4666 
L 1831 722 
L 2809 4666 
L 3519 4666 
L 4500 722 
L 5478 4666 
L 6119 4666 
L 4947 0 
L 4153 0 
L 3169 4050 
L 2175 0 
L 1381 0 
L 213 4666 
z
" id="DejaVuSans-57" transform="scale(0.015625)"/>
      <path d="M 1259 4147 
L 1259 519 
L 2022 519 
Q 2988 519 3436 956 
Q 3884 1394 3884 2338 
Q 3884 3275 3436 3711 
Q 2988 4147 2022 4147 
L 1259 4147 
z
M 628 4666 
L 1925 4666 
Q 3281 4666 3915 4102 
Q 4550 3538 4550 2338 
Q 4550 1131 3912 565 
Q 3275 0 1925 0 
L 628 0 
L 628 4666 
z
" id="DejaVuSans-44" transform="scale(0.015625)"/>
      <path d="M 191 3500 
L 800 3500 
L 1894 563 
L 2988 3500 
L 3597 3500 
L 2284 0 
L 1503 0 
L 191 3500 
z
" id="DejaVuSans-76" transform="scale(0.015625)"/>
      <path d="M 3328 2828 
Q 3544 3216 3844 3400 
Q 4144 3584 4550 3584 
Q 5097 3584 5394 3201 
Q 5691 2819 5691 2113 
L 5691 0 
L 5113 0 
L 5113 2094 
Q 5113 2597 4934 2840 
Q 4756 3084 4391 3084 
Q 3944 3084 3684 2787 
Q 3425 2491 3425 1978 
L 3425 0 
L 2847 0 
L 2847 2094 
Q 2847 2600 2669 2842 
Q 2491 3084 2119 3084 
Q 1678 3084 1418 2786 
Q 1159 2488 1159 1978 
L 1159 0 
L 581 0 
L 581 3500 
L 1159 3500 
L 1159 2956 
Q 1356 3278 1631 3431 
Q 1906 3584 2284 3584 
Q 2666 3584 2933 3390 
Q 3200 3197 3328 2828 
z
" id="DejaVuSans-6d" transform="scale(0.015625)"/>
      <path d="M 628 4666 
L 1259 4666 
L 1259 531 
L 3531 531 
L 3531 0 
L 628 0 
L 628 4666 
z
" id="DejaVuSans-4c" transform="scale(0.015625)"/>
     </defs>
     <use xlink:href="#DejaVuSans-57"/>
     <use x="98.876953" xlink:href="#DejaVuSans-68"/>
     <use x="162.255859" xlink:href="#DejaVuSans-65"/>
     <use x="223.779297" xlink:href="#DejaVuSans-72"/>
     <use x="262.642578" xlink:href="#DejaVuSans-65"/>
     <use x="324.166016" xlink:href="#DejaVuSans-20"/>
     <use x="355.953125" xlink:href="#DejaVuSans-52"/>
     <use x="420.935547" xlink:href="#DejaVuSans-6f"/>
     <use x="482.117188" xlink:href="#DejaVuSans-63"/>
     <use x="537.097656" xlink:href="#DejaVuSans-44"/>
     <use x="614.099609" xlink:href="#DejaVuSans-65"/>
     <use x="675.623047" xlink:href="#DejaVuSans-76"/>
     <use x="734.802734" xlink:href="#DejaVuSans-20"/>
     <use x="766.589844" xlink:href="#DejaVuSans-4d"/>
     <use x="852.869141" xlink:href="#DejaVuSans-65"/>
     <use x="914.392578" xlink:href="#DejaVuSans-6d"/>
     <use x="1011.804688" xlink:href="#DejaVuSans-62"/>
     <use x="1075.28125" xlink:href="#DejaVuSans-65"/>
     <use x="1136.804688" xlink:href="#DejaVuSans-72"/>
     <use x="1177.917969" xlink:href="#DejaVuSans-73"/>
     <use x="1230.017578" xlink:href="#DejaVuSans-20"/>
     <use x="1261.804688" xlink:href="#DejaVuSans-4c"/>
     <use x="1317.517578" xlink:href="#DejaVuSans-69"/>
     <use x="1345.300781" xlink:href="#DejaVuSans-76"/>
     <use x="1404.480469" xlink:href="#DejaVuSans-65"/>
    </g>
   </g>
   <g id="legend_1">
    <g id="patch_7">
     <path d="M 241.2075 99.6725 
L 383.2 99.6725 
Q 384.8 99.6725 384.8 98.0725 
L 384.8 40.16 
Q 384.8 38.56 383.2 38.56 
L 241.2075 38.56 
Q 239.6075 38.56 239.6075 40.16 
L 239.6075 98.0725 
Q 239.6075 99.6725 241.2075 99.6725 
z
" style="fill:#ffffff;opacity:0.8;stroke:#cccccc;stroke-linejoin:miter;"/>
    </g>
    <g id="patch_8">
     <path d="M 242.8075 47.83875 
L 258.8075 47.83875 
L 258.8075 42.23875 
L 242.8075 42.23875 
z
" style="fill:#1f77b4;"/>
    </g>
    <g id="text_7">
     <!-- Rochester Suburbs - 55.88 % -->
     <g transform="translate(265.2075 47.83875)scale(0.08 -0.08)">
      <defs>
       <path d="M 313 2009 
L 1997 2009 
L 1997 1497 
L 313 1497 
L 313 2009 
z
" id="DejaVuSans-2d" transform="scale(0.015625)"/>
       <path d="M 691 4666 
L 3169 4666 
L 3169 4134 
L 1269 4134 
L 1269 2991 
Q 1406 3038 1543 3061 
Q 1681 3084 1819 3084 
Q 2600 3084 3056 2656 
Q 3513 2228 3513 1497 
Q 3513 744 3044 326 
Q 2575 -91 1722 -91 
Q 1428 -91 1123 -41 
Q 819 9 494 109 
L 494 744 
Q 775 591 1075 516 
Q 1375 441 1709 441 
Q 2250 441 2565 725 
Q 2881 1009 2881 1497 
Q 2881 1984 2565 2268 
Q 2250 2553 1709 2553 
Q 1456 2553 1204 2497 
Q 953 2441 691 2322 
L 691 4666 
z
" id="DejaVuSans-35" transform="scale(0.015625)"/>
       <path d="M 684 794 
L 1344 794 
L 1344 0 
L 684 0 
L 684 794 
z
" id="DejaVuSans-2e" transform="scale(0.015625)"/>
       <path d="M 2034 2216 
Q 1584 2216 1326 1975 
Q 1069 1734 1069 1313 
Q 1069 891 1326 650 
Q 1584 409 2034 409 
Q 2484 409 2743 651 
Q 3003 894 3003 1313 
Q 3003 1734 2745 1975 
Q 2488 2216 2034 2216 
z
M 1403 2484 
Q 997 2584 770 2862 
Q 544 3141 544 3541 
Q 544 4100 942 4425 
Q 1341 4750 2034 4750 
Q 2731 4750 3128 4425 
Q 3525 4100 3525 3541 
Q 3525 3141 3298 2862 
Q 3072 2584 2669 2484 
Q 3125 2378 3379 2068 
Q 3634 1759 3634 1313 
Q 3634 634 3220 271 
Q 2806 -91 2034 -91 
Q 1263 -91 848 271 
Q 434 634 434 1313 
Q 434 1759 690 2068 
Q 947 2378 1403 2484 
z
M 1172 3481 
Q 1172 3119 1398 2916 
Q 1625 2713 2034 2713 
Q 2441 2713 2670 2916 
Q 2900 3119 2900 3481 
Q 2900 3844 2670 4047 
Q 2441 4250 2034 4250 
Q 1625 4250 1398 4047 
Q 1172 3844 1172 3481 
z
" id="DejaVuSans-38" transform="scale(0.015625)"/>
       <path d="M 4653 2053 
Q 4381 2053 4226 1822 
Q 4072 1591 4072 1178 
Q 4072 772 4226 539 
Q 4381 306 4653 306 
Q 4919 306 5073 539 
Q 5228 772 5228 1178 
Q 5228 1588 5073 1820 
Q 4919 2053 4653 2053 
z
M 4653 2450 
Q 5147 2450 5437 2106 
Q 5728 1763 5728 1178 
Q 5728 594 5436 251 
Q 5144 -91 4653 -91 
Q 4153 -91 3862 251 
Q 3572 594 3572 1178 
Q 3572 1766 3864 2108 
Q 4156 2450 4653 2450 
z
M 1428 4353 
Q 1159 4353 1004 4120 
Q 850 3888 850 3481 
Q 850 3069 1003 2837 
Q 1156 2606 1428 2606 
Q 1700 2606 1854 2837 
Q 2009 3069 2009 3481 
Q 2009 3884 1853 4118 
Q 1697 4353 1428 4353 
z
M 4250 4750 
L 4750 4750 
L 1831 -91 
L 1331 -91 
L 4250 4750 
z
M 1428 4750 
Q 1922 4750 2215 4408 
Q 2509 4066 2509 3481 
Q 2509 2891 2217 2550 
Q 1925 2209 1428 2209 
Q 931 2209 642 2551 
Q 353 2894 353 3481 
Q 353 4063 643 4406 
Q 934 4750 1428 4750 
z
" id="DejaVuSans-25" transform="scale(0.015625)"/>
      </defs>
      <use xlink:href="#DejaVuSans-52"/>
      <use x="64.982422" xlink:href="#DejaVuSans-6f"/>
      <use x="126.164062" xlink:href="#DejaVuSans-63"/>
      <use x="181.144531" xlink:href="#DejaVuSans-68"/>
      <use x="244.523438" xlink:href="#DejaVuSans-65"/>
      <use x="306.046875" xlink:href="#DejaVuSans-73"/>
      <use x="358.146484" xlink:href="#DejaVuSans-74"/>
      <use x="397.355469" xlink:href="#DejaVuSans-65"/>
      <use x="458.878906" xlink:href="#DejaVuSans-72"/>
      <use x="499.992188" xlink:href="#DejaVuSans-20"/>
      <use x="531.779297" xlink:href="#DejaVuSans-53"/>
      <use x="595.255859" xlink:href="#DejaVuSans-75"/>
      <use x="658.634766" xlink:href="#DejaVuSans-62"/>
      <use x="722.111328" xlink:href="#DejaVuSans-75"/>
      <use x="785.490234" xlink:href="#DejaVuSans-72"/>
      <use x="826.603516" xlink:href="#DejaVuSans-62"/>
      <use x="890.080078" xlink:href="#DejaVuSans-73"/>
      <use x="942.179688" xlink:href="#DejaVuSans-20"/>
      <use x="973.966797" xlink:href="#DejaVuSans-2d"/>
      <use x="1010.050781" xlink:href="#DejaVuSans-20"/>
      <use x="1041.837891" xlink:href="#DejaVuSans-35"/>
      <use x="1105.460938" xlink:href="#DejaVuSans-35"/>
      <use x="1169.083984" xlink:href="#DejaVuSans-2e"/>
      <use x="1200.871094" xlink:href="#DejaVuSans-38"/>
      <use x="1264.494141" xlink:href="#DejaVuSans-38"/>
      <use x="1328.117188" xlink:href="#DejaVuSans-20"/>
      <use x="1359.904297" xlink:href="#DejaVuSans-25"/>
     </g>
    </g>
    <g id="patch_9">
     <path d="M 242.8075 59.58125 
L 258.8075 59.58125 
L 258.8075 53.98125 
L 242.8075 53.98125 
z
" style="fill:#ff7f0e;"/>
    </g>
    <g id="text_8">
     <!-- Rochester - 33.82 % -->
     <g transform="translate(265.2075 59.58125)scale(0.08 -0.08)">
      <defs>
       <path d="M 2597 2516 
Q 3050 2419 3304 2112 
Q 3559 1806 3559 1356 
Q 3559 666 3084 287 
Q 2609 -91 1734 -91 
Q 1441 -91 1130 -33 
Q 819 25 488 141 
L 488 750 
Q 750 597 1062 519 
Q 1375 441 1716 441 
Q 2309 441 2620 675 
Q 2931 909 2931 1356 
Q 2931 1769 2642 2001 
Q 2353 2234 1838 2234 
L 1294 2234 
L 1294 2753 
L 1863 2753 
Q 2328 2753 2575 2939 
Q 2822 3125 2822 3475 
Q 2822 3834 2567 4026 
Q 2313 4219 1838 4219 
Q 1578 4219 1281 4162 
Q 984 4106 628 3988 
L 628 4550 
Q 988 4650 1302 4700 
Q 1616 4750 1894 4750 
Q 2613 4750 3031 4423 
Q 3450 4097 3450 3541 
Q 3450 3153 3228 2886 
Q 3006 2619 2597 2516 
z
" id="DejaVuSans-33" transform="scale(0.015625)"/>
       <path d="M 1228 531 
L 3431 531 
L 3431 0 
L 469 0 
L 469 531 
Q 828 903 1448 1529 
Q 2069 2156 2228 2338 
Q 2531 2678 2651 2914 
Q 2772 3150 2772 3378 
Q 2772 3750 2511 3984 
Q 2250 4219 1831 4219 
Q 1534 4219 1204 4116 
Q 875 4013 500 3803 
L 500 4441 
Q 881 4594 1212 4672 
Q 1544 4750 1819 4750 
Q 2544 4750 2975 4387 
Q 3406 4025 3406 3419 
Q 3406 3131 3298 2873 
Q 3191 2616 2906 2266 
Q 2828 2175 2409 1742 
Q 1991 1309 1228 531 
z
" id="DejaVuSans-32" transform="scale(0.015625)"/>
      </defs>
      <use xlink:href="#DejaVuSans-52"/>
      <use x="64.982422" xlink:href="#DejaVuSans-6f"/>
      <use x="126.164062" xlink:href="#DejaVuSans-63"/>
      <use x="181.144531" xlink:href="#DejaVuSans-68"/>
      <use x="244.523438" xlink:href="#DejaVuSans-65"/>
      <use x="306.046875" xlink:href="#DejaVuSans-73"/>
      <use x="358.146484" xlink:href="#DejaVuSans-74"/>
      <use x="397.355469" xlink:href="#DejaVuSans-65"/>
      <use x="458.878906" xlink:href="#DejaVuSans-72"/>
      <use x="499.992188" xlink:href="#DejaVuSans-20"/>
      <use x="531.779297" xlink:href="#DejaVuSans-2d"/>
      <use x="567.863281" xlink:href="#DejaVuSans-20"/>
      <use x="599.650391" xlink:href="#DejaVuSans-33"/>
      <use x="663.273438" xlink:href="#DejaVuSans-33"/>
      <use x="726.896484" xlink:href="#DejaVuSans-2e"/>
      <use x="758.683594" xlink:href="#DejaVuSans-38"/>
      <use x="822.306641" xlink:href="#DejaVuSans-32"/>
      <use x="885.929688" xlink:href="#DejaVuSans-20"/>
      <use x="917.716797" xlink:href="#DejaVuSans-25"/>
     </g>
    </g>
    <g id="patch_10">
     <path d="M 242.8075 71.32375 
L 258.8075 71.32375 
L 258.8075 65.72375 
L 242.8075 65.72375 
z
" style="fill:#2ca02c;"/>
    </g>
    <g id="text_9">
     <!-- Rochester MSA - 4.41 % -->
     <g transform="translate(265.2075 71.32375)scale(0.08 -0.08)">
      <defs>
       <path d="M 2419 4116 
L 825 1625 
L 2419 1625 
L 2419 4116 
z
M 2253 4666 
L 3047 4666 
L 3047 1625 
L 3713 1625 
L 3713 1100 
L 3047 1100 
L 3047 0 
L 2419 0 
L 2419 1100 
L 313 1100 
L 313 1709 
L 2253 4666 
z
" id="DejaVuSans-34" transform="scale(0.015625)"/>
       <path d="M 794 531 
L 1825 531 
L 1825 4091 
L 703 3866 
L 703 4441 
L 1819 4666 
L 2450 4666 
L 2450 531 
L 3481 531 
L 3481 0 
L 794 0 
L 794 531 
z
" id="DejaVuSans-31" transform="scale(0.015625)"/>
      </defs>
      <use xlink:href="#DejaVuSans-52"/>
      <use x="64.982422" xlink:href="#DejaVuSans-6f"/>
      <use x="126.164062" xlink:href="#DejaVuSans-63"/>
      <use x="181.144531" xlink:href="#DejaVuSans-68"/>
      <use x="244.523438" xlink:href="#DejaVuSans-65"/>
      <use x="306.046875" xlink:href="#DejaVuSans-73"/>
      <use x="358.146484" xlink:href="#DejaVuSans-74"/>
      <use x="397.355469" xlink:href="#DejaVuSans-65"/>
      <use x="458.878906" xlink:href="#DejaVuSans-72"/>
      <use x="499.992188" xlink:href="#DejaVuSans-20"/>
      <use x="531.779297" xlink:href="#DejaVuSans-4d"/>
      <use x="618.058594" xlink:href="#DejaVuSans-53"/>
      <use x="683.410156" xlink:href="#DejaVuSans-41"/>
      <use x="751.818359" xlink:href="#DejaVuSans-20"/>
      <use x="783.605469" xlink:href="#DejaVuSans-2d"/>
      <use x="819.689453" xlink:href="#DejaVuSans-20"/>
      <use x="851.476562" xlink:href="#DejaVuSans-34"/>
      <use x="915.099609" xlink:href="#DejaVuSans-2e"/>
      <use x="946.886719" xlink:href="#DejaVuSans-34"/>
      <use x="1010.509766" xlink:href="#DejaVuSans-31"/>
      <use x="1074.132812" xlink:href="#DejaVuSans-20"/>
      <use x="1105.919922" xlink:href="#DejaVuSans-25"/>
     </g>
    </g>
    <g id="patch_11">
     <path d="M 242.8075 83.06625 
L 258.8075 83.06625 
L 258.8075 77.46625 
L 242.8075 77.46625 
z
" style="fill:#d62728;"/>
    </g>
    <g id="text_10">
     <!-- NY Other - 2.94 % -->
     <g transform="translate(265.2075 83.06625)scale(0.08 -0.08)">
      <defs>
       <path d="M 703 97 
L 703 672 
Q 941 559 1184 500 
Q 1428 441 1663 441 
Q 2288 441 2617 861 
Q 2947 1281 2994 2138 
Q 2813 1869 2534 1725 
Q 2256 1581 1919 1581 
Q 1219 1581 811 2004 
Q 403 2428 403 3163 
Q 403 3881 828 4315 
Q 1253 4750 1959 4750 
Q 2769 4750 3195 4129 
Q 3622 3509 3622 2328 
Q 3622 1225 3098 567 
Q 2575 -91 1691 -91 
Q 1453 -91 1209 -44 
Q 966 3 703 97 
z
M 1959 2075 
Q 2384 2075 2632 2365 
Q 2881 2656 2881 3163 
Q 2881 3666 2632 3958 
Q 2384 4250 1959 4250 
Q 1534 4250 1286 3958 
Q 1038 3666 1038 3163 
Q 1038 2656 1286 2365 
Q 1534 2075 1959 2075 
z
" id="DejaVuSans-39" transform="scale(0.015625)"/>
      </defs>
      <use xlink:href="#DejaVuSans-4e"/>
      <use x="74.804688" xlink:href="#DejaVuSans-59"/>
      <use x="135.888672" xlink:href="#DejaVuSans-20"/>
      <use x="167.675781" xlink:href="#DejaVuSans-4f"/>
      <use x="246.386719" xlink:href="#DejaVuSans-74"/>
      <use x="285.595703" xlink:href="#DejaVuSans-68"/>
      <use x="348.974609" xlink:href="#DejaVuSans-65"/>
      <use x="410.498047" xlink:href="#DejaVuSans-72"/>
      <use x="451.611328" xlink:href="#DejaVuSans-20"/>
      <use x="483.398438" xlink:href="#DejaVuSans-2d"/>
      <use x="519.482422" xlink:href="#DejaVuSans-20"/>
      <use x="551.269531" xlink:href="#DejaVuSans-32"/>
      <use x="614.892578" xlink:href="#DejaVuSans-2e"/>
      <use x="646.679688" xlink:href="#DejaVuSans-39"/>
      <use x="710.302734" xlink:href="#DejaVuSans-34"/>
      <use x="773.925781" xlink:href="#DejaVuSans-20"/>
      <use x="805.712891" xlink:href="#DejaVuSans-25"/>
     </g>
    </g>
    <g id="patch_12">
     <path d="M 242.8075 94.80875 
L 258.8075 94.80875 
L 258.8075 89.20875 
L 242.8075 89.20875 
z
" style="fill:#9467bd;"/>
    </g>
    <g id="text_11">
     <!-- Outside NY - 2.94 % -->
     <g transform="translate(265.2075 94.80875)scale(0.08 -0.08)">
      <use xlink:href="#DejaVuSans-4f"/>
      <use x="78.710938" xlink:href="#DejaVuSans-75"/>
      <use x="142.089844" xlink:href="#DejaVuSans-74"/>
      <use x="181.298828" xlink:href="#DejaVuSans-73"/>
      <use x="233.398438" xlink:href="#DejaVuSans-69"/>
      <use x="261.181641" xlink:href="#DejaVuSans-64"/>
      <use x="324.658203" xlink:href="#DejaVuSans-65"/>
      <use x="386.181641" xlink:href="#DejaVuSans-20"/>
      <use x="417.96875" xlink:href="#DejaVuSans-4e"/>
      <use x="492.773438" xlink:href="#DejaVuSans-59"/>
      <use x="553.857422" xlink:href="#DejaVuSans-20"/>
      <use x="585.644531" xlink:href="#DejaVuSans-2d"/>
      <use x="621.728516" xlink:href="#DejaVuSans-20"/>
      <use x="653.515625" xlink:href="#DejaVuSans-32"/>
      <use x="717.138672" xlink:href="#DejaVuSans-2e"/>
      <use x="748.925781" xlink:href="#DejaVuSans-39"/>
      <use x="812.548828" xlink:href="#DejaVuSans-34"/>
      <use x="876.171875" xlink:href="#DejaVuSans-20"/>
      <use x="907.958984" xlink:href="#DejaVuSans-25"/>
     </g>
    </g>
   </g>
  </g>
 </g>
</svg>
