<?xml version="1.0" encoding="utf-8" standalone="no"?>
<!DOCTYPE svg PUBLIC "-//W3C//DTD SVG 1.1//EN"
  "http://www.w3.org/Graphics/SVG/1.1/DTD/svg11.dtd">
<svg height="432pt" version="1.1" viewBox="0 0 864 432" width="864pt" xmlns="http://www.w3.org/2000/svg" xmlns:xlink="http://www.w3.org/1999/xlink">
 <metadata>
  <rdf:RDF xmlns:cc="http://creativecommons.org/ns#" xmlns:dc="http://purl.org/dc/elements/1.1/" xmlns:rdf="http://www.w3.org/1999/02/22-rdf-syntax-ns#">
   <cc:Work>
    <dc:type rdf:resource="http://purl.org/dc/dcmitype/StillImage"/>
    <dc:date>2022-01-07T21:56:06.899525</dc:date>
    <dc:format>image/svg+xml</dc:format>
    <dc:creator>
     <cc:Agent>
      <dc:title>Matplotlib v3.4.3, https://matplotlib.org/</dc:title>
     </cc:Agent>
    </dc:creator>
   </cc:Work>
  </rdf:RDF>
 </metadata>
 <defs>
  <style type="text/css">*{stroke-linecap:butt;stroke-linejoin:round;}</style>
 </defs>
 <g id="figure_1">
  <g id="patch_1">
   <path d="M 0 432 
L 864 432 
L 864 0 
L 0 0 
z
" style="fill:#ffffff;"/>
  </g>
  <g id="axes_1">
   <g id="patch_2">
    <path d="M 108 378 
L 777.6 378 
L 777.6 51.84 
L 108 51.84 
z
" style="fill:#eaeaf2;"/>
   </g>
   <g id="matplotlib.axis_1">
    <g id="xtick_1">
     <g id="text_1">
      <!-- 2019 -->
      <g style="fill:#262626;" transform="translate(207.365938 395.373594)scale(0.11 -0.11)">
       <defs>
        <path d="M 3222 541 
L 3222 0 
L 194 0 
Q 188 203 259 391 
Q 375 700 629 1000 
Q 884 1300 1366 1694 
Q 2113 2306 2375 2664 
Q 2638 3022 2638 3341 
Q 2638 3675 2398 3904 
Q 2159 4134 1775 4134 
Q 1369 4134 1125 3890 
Q 881 3647 878 3216 
L 300 3275 
Q 359 3922 746 4261 
Q 1134 4600 1788 4600 
Q 2447 4600 2831 4234 
Q 3216 3869 3216 3328 
Q 3216 3053 3103 2787 
Q 2991 2522 2730 2228 
Q 2469 1934 1863 1422 
Q 1356 997 1212 845 
Q 1069 694 975 541 
L 3222 541 
z
" id="ArialMT-32" transform="scale(0.015625)"/>
        <path d="M 266 2259 
Q 266 3072 433 3567 
Q 600 4063 929 4331 
Q 1259 4600 1759 4600 
Q 2128 4600 2406 4451 
Q 2684 4303 2865 4023 
Q 3047 3744 3150 3342 
Q 3253 2941 3253 2259 
Q 3253 1453 3087 958 
Q 2922 463 2592 192 
Q 2263 -78 1759 -78 
Q 1097 -78 719 397 
Q 266 969 266 2259 
z
M 844 2259 
Q 844 1131 1108 757 
Q 1372 384 1759 384 
Q 2147 384 2411 759 
Q 2675 1134 2675 2259 
Q 2675 3391 2411 3762 
Q 2147 4134 1753 4134 
Q 1366 4134 1134 3806 
Q 844 3388 844 2259 
z
" id="ArialMT-30" transform="scale(0.015625)"/>
        <path d="M 2384 0 
L 1822 0 
L 1822 3584 
Q 1619 3391 1289 3197 
Q 959 3003 697 2906 
L 697 3450 
Q 1169 3672 1522 3987 
Q 1875 4303 2022 4600 
L 2384 4600 
L 2384 0 
z
" id="ArialMT-31" transform="scale(0.015625)"/>
        <path d="M 350 1059 
L 891 1109 
Q 959 728 1153 556 
Q 1347 384 1650 384 
Q 1909 384 2104 503 
Q 2300 622 2425 820 
Q 2550 1019 2634 1356 
Q 2719 1694 2719 2044 
Q 2719 2081 2716 2156 
Q 2547 1888 2255 1720 
Q 1963 1553 1622 1553 
Q 1053 1553 659 1965 
Q 266 2378 266 3053 
Q 266 3750 677 4175 
Q 1088 4600 1706 4600 
Q 2153 4600 2523 4359 
Q 2894 4119 3086 3673 
Q 3278 3228 3278 2384 
Q 3278 1506 3087 986 
Q 2897 466 2520 194 
Q 2144 -78 1638 -78 
Q 1100 -78 759 220 
Q 419 519 350 1059 
z
M 2653 3081 
Q 2653 3566 2395 3850 
Q 2138 4134 1775 4134 
Q 1400 4134 1122 3828 
Q 844 3522 844 3034 
Q 844 2597 1108 2323 
Q 1372 2050 1759 2050 
Q 2150 2050 2401 2323 
Q 2653 2597 2653 3081 
z
" id="ArialMT-39" transform="scale(0.015625)"/>
       </defs>
       <use xlink:href="#ArialMT-32"/>
       <use x="55.615234" xlink:href="#ArialMT-30"/>
       <use x="111.230469" xlink:href="#ArialMT-31"/>
       <use x="166.845703" xlink:href="#ArialMT-39"/>
      </g>
     </g>
    </g>
    <g id="xtick_2">
     <g id="text_2">
      <!-- 2020 -->
      <g style="fill:#262626;" transform="translate(430.565937 395.373594)scale(0.11 -0.11)">
       <use xlink:href="#ArialMT-32"/>
       <use x="55.615234" xlink:href="#ArialMT-30"/>
       <use x="111.230469" xlink:href="#ArialMT-32"/>
       <use x="166.845703" xlink:href="#ArialMT-30"/>
      </g>
     </g>
    </g>
    <g id="xtick_3">
     <g id="text_3">
      <!-- 2021 -->
      <g style="fill:#262626;" transform="translate(653.765937 395.373594)scale(0.11 -0.11)">
       <use xlink:href="#ArialMT-32"/>
       <use x="55.615234" xlink:href="#ArialMT-30"/>
       <use x="111.230469" xlink:href="#ArialMT-32"/>
       <use x="166.845703" xlink:href="#ArialMT-31"/>
      </g>
     </g>
    </g>
    <g id="text_4">
     <!-- Year -->
     <g style="fill:#262626;" transform="translate(430.674375 410.149219)scale(0.12 -0.12)">
      <defs>
       <path d="M 1784 0 
L 1784 1941 
L 19 4581 
L 756 4581 
L 1659 3200 
Q 1909 2813 2125 2425 
Q 2331 2784 2625 3234 
L 3513 4581 
L 4219 4581 
L 2391 1941 
L 2391 0 
L 1784 0 
z
" id="ArialMT-59" transform="scale(0.015625)"/>
       <path d="M 2694 1069 
L 3275 997 
Q 3138 488 2766 206 
Q 2394 -75 1816 -75 
Q 1088 -75 661 373 
Q 234 822 234 1631 
Q 234 2469 665 2931 
Q 1097 3394 1784 3394 
Q 2450 3394 2872 2941 
Q 3294 2488 3294 1666 
Q 3294 1616 3291 1516 
L 816 1516 
Q 847 969 1125 678 
Q 1403 388 1819 388 
Q 2128 388 2347 550 
Q 2566 713 2694 1069 
z
M 847 1978 
L 2700 1978 
Q 2663 2397 2488 2606 
Q 2219 2931 1791 2931 
Q 1403 2931 1139 2672 
Q 875 2413 847 1978 
z
" id="ArialMT-65" transform="scale(0.015625)"/>
       <path d="M 2588 409 
Q 2275 144 1986 34 
Q 1697 -75 1366 -75 
Q 819 -75 525 192 
Q 231 459 231 875 
Q 231 1119 342 1320 
Q 453 1522 633 1644 
Q 813 1766 1038 1828 
Q 1203 1872 1538 1913 
Q 2219 1994 2541 2106 
Q 2544 2222 2544 2253 
Q 2544 2597 2384 2738 
Q 2169 2928 1744 2928 
Q 1347 2928 1158 2789 
Q 969 2650 878 2297 
L 328 2372 
Q 403 2725 575 2942 
Q 747 3159 1072 3276 
Q 1397 3394 1825 3394 
Q 2250 3394 2515 3294 
Q 2781 3194 2906 3042 
Q 3031 2891 3081 2659 
Q 3109 2516 3109 2141 
L 3109 1391 
Q 3109 606 3145 398 
Q 3181 191 3288 0 
L 2700 0 
Q 2613 175 2588 409 
z
M 2541 1666 
Q 2234 1541 1622 1453 
Q 1275 1403 1131 1340 
Q 988 1278 909 1158 
Q 831 1038 831 891 
Q 831 666 1001 516 
Q 1172 366 1500 366 
Q 1825 366 2078 508 
Q 2331 650 2450 897 
Q 2541 1088 2541 1459 
L 2541 1666 
z
" id="ArialMT-61" transform="scale(0.015625)"/>
       <path d="M 416 0 
L 416 3319 
L 922 3319 
L 922 2816 
Q 1116 3169 1280 3281 
Q 1444 3394 1641 3394 
Q 1925 3394 2219 3213 
L 2025 2691 
Q 1819 2813 1613 2813 
Q 1428 2813 1281 2702 
Q 1134 2591 1072 2394 
Q 978 2094 978 1738 
L 978 0 
L 416 0 
z
" id="ArialMT-72" transform="scale(0.015625)"/>
      </defs>
      <use xlink:href="#ArialMT-59"/>
      <use x="57.574219" xlink:href="#ArialMT-65"/>
      <use x="113.189453" xlink:href="#ArialMT-61"/>
      <use x="168.804688" xlink:href="#ArialMT-72"/>
     </g>
    </g>
   </g>
   <g id="matplotlib.axis_2">
    <g id="ytick_1">
     <g id="line2d_1">
      <path clip-path="url(#p6290ce77e7)" d="M 108 363.174545 
L 777.6 363.174545 
" style="fill:none;stroke:#ffffff;stroke-linecap:round;"/>
     </g>
     <g id="text_5">
      <!-- 50 -->
      <g style="fill:#262626;" transform="translate(86.265938 367.111342)scale(0.11 -0.11)">
       <defs>
        <path d="M 266 1200 
L 856 1250 
Q 922 819 1161 601 
Q 1400 384 1738 384 
Q 2144 384 2425 690 
Q 2706 997 2706 1503 
Q 2706 1984 2436 2262 
Q 2166 2541 1728 2541 
Q 1456 2541 1237 2417 
Q 1019 2294 894 2097 
L 366 2166 
L 809 4519 
L 3088 4519 
L 3088 3981 
L 1259 3981 
L 1013 2750 
Q 1425 3038 1878 3038 
Q 2478 3038 2890 2622 
Q 3303 2206 3303 1553 
Q 3303 931 2941 478 
Q 2500 -78 1738 -78 
Q 1113 -78 717 272 
Q 322 622 266 1200 
z
" id="ArialMT-35" transform="scale(0.015625)"/>
       </defs>
       <use xlink:href="#ArialMT-35"/>
       <use x="55.615234" xlink:href="#ArialMT-30"/>
      </g>
     </g>
    </g>
    <g id="ytick_2">
     <g id="line2d_2">
      <path clip-path="url(#p6290ce77e7)" d="M 108 307.229434 
L 777.6 307.229434 
" style="fill:none;stroke:#ffffff;stroke-linecap:round;"/>
     </g>
     <g id="text_6">
      <!-- 100 -->
      <g style="fill:#262626;" transform="translate(80.148906 311.166231)scale(0.11 -0.11)">
       <use xlink:href="#ArialMT-31"/>
       <use x="55.615234" xlink:href="#ArialMT-30"/>
       <use x="111.230469" xlink:href="#ArialMT-30"/>
      </g>
     </g>
    </g>
    <g id="ytick_3">
     <g id="line2d_3">
      <path clip-path="url(#p6290ce77e7)" d="M 108 251.284322 
L 777.6 251.284322 
" style="fill:none;stroke:#ffffff;stroke-linecap:round;"/>
     </g>
     <g id="text_7">
      <!-- 150 -->
      <g style="fill:#262626;" transform="translate(80.148906 255.221119)scale(0.11 -0.11)">
       <use xlink:href="#ArialMT-31"/>
       <use x="55.615234" xlink:href="#ArialMT-35"/>
       <use x="111.230469" xlink:href="#ArialMT-30"/>
      </g>
     </g>
    </g>
    <g id="ytick_4">
     <g id="line2d_4">
      <path clip-path="url(#p6290ce77e7)" d="M 108 195.339211 
L 777.6 195.339211 
" style="fill:none;stroke:#ffffff;stroke-linecap:round;"/>
     </g>
     <g id="text_8">
      <!-- 200 -->
      <g style="fill:#262626;" transform="translate(80.148906 199.276008)scale(0.11 -0.11)">
       <use xlink:href="#ArialMT-32"/>
       <use x="55.615234" xlink:href="#ArialMT-30"/>
       <use x="111.230469" xlink:href="#ArialMT-30"/>
      </g>
     </g>
    </g>
    <g id="ytick_5">
     <g id="line2d_5">
      <path clip-path="url(#p6290ce77e7)" d="M 108 139.394099 
L 777.6 139.394099 
" style="fill:none;stroke:#ffffff;stroke-linecap:round;"/>
     </g>
     <g id="text_9">
      <!-- 250 -->
      <g style="fill:#262626;" transform="translate(80.148906 143.330896)scale(0.11 -0.11)">
       <use xlink:href="#ArialMT-32"/>
       <use x="55.615234" xlink:href="#ArialMT-35"/>
       <use x="111.230469" xlink:href="#ArialMT-30"/>
      </g>
     </g>
    </g>
    <g id="ytick_6">
     <g id="line2d_6">
      <path clip-path="url(#p6290ce77e7)" d="M 108 83.448988 
L 777.6 83.448988 
" style="fill:none;stroke:#ffffff;stroke-linecap:round;"/>
     </g>
     <g id="text_10">
      <!-- 300 -->
      <g style="fill:#262626;" transform="translate(80.148906 87.385785)scale(0.11 -0.11)">
       <defs>
        <path d="M 269 1209 
L 831 1284 
Q 928 806 1161 595 
Q 1394 384 1728 384 
Q 2125 384 2398 659 
Q 2672 934 2672 1341 
Q 2672 1728 2419 1979 
Q 2166 2231 1775 2231 
Q 1616 2231 1378 2169 
L 1441 2663 
Q 1497 2656 1531 2656 
Q 1891 2656 2178 2843 
Q 2466 3031 2466 3422 
Q 2466 3731 2256 3934 
Q 2047 4138 1716 4138 
Q 1388 4138 1169 3931 
Q 950 3725 888 3313 
L 325 3413 
Q 428 3978 793 4289 
Q 1159 4600 1703 4600 
Q 2078 4600 2393 4439 
Q 2709 4278 2876 4000 
Q 3044 3722 3044 3409 
Q 3044 3113 2884 2869 
Q 2725 2625 2413 2481 
Q 2819 2388 3044 2092 
Q 3269 1797 3269 1353 
Q 3269 753 2831 336 
Q 2394 -81 1725 -81 
Q 1122 -81 723 278 
Q 325 638 269 1209 
z
" id="ArialMT-33" transform="scale(0.015625)"/>
       </defs>
       <use xlink:href="#ArialMT-33"/>
       <use x="55.615234" xlink:href="#ArialMT-30"/>
       <use x="111.230469" xlink:href="#ArialMT-30"/>
      </g>
     </g>
    </g>
    <g id="text_11">
     <!-- Annual income (thousands) -->
     <g style="fill:#262626;" transform="translate(73.623281 287.957812)rotate(-90)scale(0.12 -0.12)">
      <defs>
       <path d="M -9 0 
L 1750 4581 
L 2403 4581 
L 4278 0 
L 3588 0 
L 3053 1388 
L 1138 1388 
L 634 0 
L -9 0 
z
M 1313 1881 
L 2866 1881 
L 2388 3150 
Q 2169 3728 2063 4100 
Q 1975 3659 1816 3225 
L 1313 1881 
z
" id="ArialMT-41" transform="scale(0.015625)"/>
       <path d="M 422 0 
L 422 3319 
L 928 3319 
L 928 2847 
Q 1294 3394 1984 3394 
Q 2284 3394 2536 3286 
Q 2788 3178 2913 3003 
Q 3038 2828 3088 2588 
Q 3119 2431 3119 2041 
L 3119 0 
L 2556 0 
L 2556 2019 
Q 2556 2363 2490 2533 
Q 2425 2703 2258 2804 
Q 2091 2906 1866 2906 
Q 1506 2906 1245 2678 
Q 984 2450 984 1813 
L 984 0 
L 422 0 
z
" id="ArialMT-6e" transform="scale(0.015625)"/>
       <path d="M 2597 0 
L 2597 488 
Q 2209 -75 1544 -75 
Q 1250 -75 995 37 
Q 741 150 617 320 
Q 494 491 444 738 
Q 409 903 409 1263 
L 409 3319 
L 972 3319 
L 972 1478 
Q 972 1038 1006 884 
Q 1059 663 1231 536 
Q 1403 409 1656 409 
Q 1909 409 2131 539 
Q 2353 669 2445 892 
Q 2538 1116 2538 1541 
L 2538 3319 
L 3100 3319 
L 3100 0 
L 2597 0 
z
" id="ArialMT-75" transform="scale(0.015625)"/>
       <path d="M 409 0 
L 409 4581 
L 972 4581 
L 972 0 
L 409 0 
z
" id="ArialMT-6c" transform="scale(0.015625)"/>
       <path id="ArialMT-20" transform="scale(0.015625)"/>
       <path d="M 425 3934 
L 425 4581 
L 988 4581 
L 988 3934 
L 425 3934 
z
M 425 0 
L 425 3319 
L 988 3319 
L 988 0 
L 425 0 
z
" id="ArialMT-69" transform="scale(0.015625)"/>
       <path d="M 2588 1216 
L 3141 1144 
Q 3050 572 2676 248 
Q 2303 -75 1759 -75 
Q 1078 -75 664 370 
Q 250 816 250 1647 
Q 250 2184 428 2587 
Q 606 2991 970 3192 
Q 1334 3394 1763 3394 
Q 2303 3394 2647 3120 
Q 2991 2847 3088 2344 
L 2541 2259 
Q 2463 2594 2264 2762 
Q 2066 2931 1784 2931 
Q 1359 2931 1093 2626 
Q 828 2322 828 1663 
Q 828 994 1084 691 
Q 1341 388 1753 388 
Q 2084 388 2306 591 
Q 2528 794 2588 1216 
z
" id="ArialMT-63" transform="scale(0.015625)"/>
       <path d="M 213 1659 
Q 213 2581 725 3025 
Q 1153 3394 1769 3394 
Q 2453 3394 2887 2945 
Q 3322 2497 3322 1706 
Q 3322 1066 3130 698 
Q 2938 331 2570 128 
Q 2203 -75 1769 -75 
Q 1072 -75 642 372 
Q 213 819 213 1659 
z
M 791 1659 
Q 791 1022 1069 705 
Q 1347 388 1769 388 
Q 2188 388 2466 706 
Q 2744 1025 2744 1678 
Q 2744 2294 2464 2611 
Q 2184 2928 1769 2928 
Q 1347 2928 1069 2612 
Q 791 2297 791 1659 
z
" id="ArialMT-6f" transform="scale(0.015625)"/>
       <path d="M 422 0 
L 422 3319 
L 925 3319 
L 925 2853 
Q 1081 3097 1340 3245 
Q 1600 3394 1931 3394 
Q 2300 3394 2536 3241 
Q 2772 3088 2869 2813 
Q 3263 3394 3894 3394 
Q 4388 3394 4653 3120 
Q 4919 2847 4919 2278 
L 4919 0 
L 4359 0 
L 4359 2091 
Q 4359 2428 4304 2576 
Q 4250 2725 4106 2815 
Q 3963 2906 3769 2906 
Q 3419 2906 3187 2673 
Q 2956 2441 2956 1928 
L 2956 0 
L 2394 0 
L 2394 2156 
Q 2394 2531 2256 2718 
Q 2119 2906 1806 2906 
Q 1569 2906 1367 2781 
Q 1166 2656 1075 2415 
Q 984 2175 984 1722 
L 984 0 
L 422 0 
z
" id="ArialMT-6d" transform="scale(0.015625)"/>
       <path d="M 1497 -1347 
Q 1031 -759 709 28 
Q 388 816 388 1659 
Q 388 2403 628 3084 
Q 909 3875 1497 4659 
L 1900 4659 
Q 1522 4009 1400 3731 
Q 1209 3300 1100 2831 
Q 966 2247 966 1656 
Q 966 153 1900 -1347 
L 1497 -1347 
z
" id="ArialMT-28" transform="scale(0.015625)"/>
       <path d="M 1650 503 
L 1731 6 
Q 1494 -44 1306 -44 
Q 1000 -44 831 53 
Q 663 150 594 308 
Q 525 466 525 972 
L 525 2881 
L 113 2881 
L 113 3319 
L 525 3319 
L 525 4141 
L 1084 4478 
L 1084 3319 
L 1650 3319 
L 1650 2881 
L 1084 2881 
L 1084 941 
Q 1084 700 1114 631 
Q 1144 563 1211 522 
Q 1278 481 1403 481 
Q 1497 481 1650 503 
z
" id="ArialMT-74" transform="scale(0.015625)"/>
       <path d="M 422 0 
L 422 4581 
L 984 4581 
L 984 2938 
Q 1378 3394 1978 3394 
Q 2347 3394 2619 3248 
Q 2891 3103 3008 2847 
Q 3125 2591 3125 2103 
L 3125 0 
L 2563 0 
L 2563 2103 
Q 2563 2525 2380 2717 
Q 2197 2909 1863 2909 
Q 1613 2909 1392 2779 
Q 1172 2650 1078 2428 
Q 984 2206 984 1816 
L 984 0 
L 422 0 
z
" id="ArialMT-68" transform="scale(0.015625)"/>
       <path d="M 197 991 
L 753 1078 
Q 800 744 1014 566 
Q 1228 388 1613 388 
Q 2000 388 2187 545 
Q 2375 703 2375 916 
Q 2375 1106 2209 1216 
Q 2094 1291 1634 1406 
Q 1016 1563 777 1677 
Q 538 1791 414 1992 
Q 291 2194 291 2438 
Q 291 2659 392 2848 
Q 494 3038 669 3163 
Q 800 3259 1026 3326 
Q 1253 3394 1513 3394 
Q 1903 3394 2198 3281 
Q 2494 3169 2634 2976 
Q 2775 2784 2828 2463 
L 2278 2388 
Q 2241 2644 2061 2787 
Q 1881 2931 1553 2931 
Q 1166 2931 1000 2803 
Q 834 2675 834 2503 
Q 834 2394 903 2306 
Q 972 2216 1119 2156 
Q 1203 2125 1616 2013 
Q 2213 1853 2448 1751 
Q 2684 1650 2818 1456 
Q 2953 1263 2953 975 
Q 2953 694 2789 445 
Q 2625 197 2315 61 
Q 2006 -75 1616 -75 
Q 969 -75 630 194 
Q 291 463 197 991 
z
" id="ArialMT-73" transform="scale(0.015625)"/>
       <path d="M 2575 0 
L 2575 419 
Q 2259 -75 1647 -75 
Q 1250 -75 917 144 
Q 584 363 401 755 
Q 219 1147 219 1656 
Q 219 2153 384 2558 
Q 550 2963 881 3178 
Q 1213 3394 1622 3394 
Q 1922 3394 2156 3267 
Q 2391 3141 2538 2938 
L 2538 4581 
L 3097 4581 
L 3097 0 
L 2575 0 
z
M 797 1656 
Q 797 1019 1065 703 
Q 1334 388 1700 388 
Q 2069 388 2326 689 
Q 2584 991 2584 1609 
Q 2584 2291 2321 2609 
Q 2059 2928 1675 2928 
Q 1300 2928 1048 2622 
Q 797 2316 797 1656 
z
" id="ArialMT-64" transform="scale(0.015625)"/>
       <path d="M 791 -1347 
L 388 -1347 
Q 1322 153 1322 1656 
Q 1322 2244 1188 2822 
Q 1081 3291 891 3722 
Q 769 4003 388 4659 
L 791 4659 
Q 1378 3875 1659 3084 
Q 1900 2403 1900 1659 
Q 1900 816 1576 28 
Q 1253 -759 791 -1347 
z
" id="ArialMT-29" transform="scale(0.015625)"/>
      </defs>
      <use xlink:href="#ArialMT-41"/>
      <use x="66.699219" xlink:href="#ArialMT-6e"/>
      <use x="122.314453" xlink:href="#ArialMT-6e"/>
      <use x="177.929688" xlink:href="#ArialMT-75"/>
      <use x="233.544922" xlink:href="#ArialMT-61"/>
      <use x="289.160156" xlink:href="#ArialMT-6c"/>
      <use x="311.376953" xlink:href="#ArialMT-20"/>
      <use x="339.160156" xlink:href="#ArialMT-69"/>
      <use x="361.376953" xlink:href="#ArialMT-6e"/>
      <use x="416.992188" xlink:href="#ArialMT-63"/>
      <use x="466.992188" xlink:href="#ArialMT-6f"/>
      <use x="522.607422" xlink:href="#ArialMT-6d"/>
      <use x="605.908203" xlink:href="#ArialMT-65"/>
      <use x="661.523438" xlink:href="#ArialMT-20"/>
      <use x="689.306641" xlink:href="#ArialMT-28"/>
      <use x="722.607422" xlink:href="#ArialMT-74"/>
      <use x="750.390625" xlink:href="#ArialMT-68"/>
      <use x="806.005859" xlink:href="#ArialMT-6f"/>
      <use x="861.621094" xlink:href="#ArialMT-75"/>
      <use x="917.236328" xlink:href="#ArialMT-73"/>
      <use x="967.236328" xlink:href="#ArialMT-61"/>
      <use x="1022.851562" xlink:href="#ArialMT-6e"/>
      <use x="1078.466797" xlink:href="#ArialMT-64"/>
      <use x="1134.082031" xlink:href="#ArialMT-73"/>
      <use x="1184.082031" xlink:href="#ArialMT-29"/>
     </g>
    </g>
   </g>
   <g id="PolyCollection_1">
    <defs>
     <path d="M 243.75464 -69.944357 
L 195.44536 -69.944357 
L 192.423559 -72.419504 
L 189.260869 -74.894651 
L 185.988997 -77.369799 
L 182.644431 -79.844946 
L 179.267536 -82.320094 
L 175.901402 -84.795241 
L 172.590501 -87.270388 
L 169.3792 -89.745536 
L 166.310214 -92.220683 
L 163.423094 -94.69583 
L 160.752841 -97.170978 
L 158.328735 -99.646125 
L 156.173455 -102.121272 
L 154.30256 -104.59642 
L 152.724356 -107.071567 
L 151.440157 -109.546714 
L 150.444926 -112.021862 
L 149.728214 -114.497009 
L 149.275358 -116.972157 
L 149.0688 -119.447304 
L 149.089465 -121.922451 
L 149.318058 -124.397599 
L 149.736214 -126.872746 
L 150.327409 -129.347893 
L 151.077594 -131.823041 
L 151.975521 -134.298188 
L 153.012761 -136.773335 
L 154.183447 -139.248483 
L 155.483785 -141.72363 
L 156.911406 -144.198777 
L 158.464603 -146.673925 
L 160.141558 -149.149072 
L 161.939597 -151.62422 
L 163.854543 -154.099367 
L 165.880219 -156.574514 
L 168.008113 -159.049662 
L 170.227238 -161.524809 
L 172.524181 -163.999956 
L 174.883328 -166.475104 
L 177.287238 -168.950251 
L 179.71714 -171.425398 
L 182.153509 -173.900546 
L 184.576676 -176.375693 
L 186.96743 -178.85084 
L 189.307579 -181.325988 
L 191.580429 -183.801135 
L 193.771154 -186.276283 
L 195.867062 -188.75143 
L 197.85772 -191.226577 
L 199.734986 -193.701725 
L 201.492923 -196.176872 
L 203.127651 -198.652019 
L 204.637143 -201.127167 
L 206.021002 -203.602314 
L 207.28024 -206.077461 
L 208.417078 -208.552609 
L 209.434779 -211.027756 
L 210.337526 -213.502903 
L 211.130328 -215.978051 
L 211.818967 -218.453198 
L 212.409944 -220.928346 
L 212.910443 -223.403493 
L 213.328276 -225.87864 
L 213.671797 -228.353788 
L 213.9498 -230.828935 
L 214.171373 -233.304082 
L 214.345723 -235.77923 
L 214.481988 -238.254377 
L 214.589025 -240.729524 
L 214.675209 -243.204672 
L 214.748239 -245.679819 
L 214.814968 -248.154966 
L 214.881273 -250.630114 
L 214.951957 -253.105261 
L 215.030692 -255.580409 
L 215.12001 -258.055556 
L 215.221328 -260.530703 
L 215.33501 -263.005851 
L 215.460464 -265.480998 
L 215.596265 -267.956145 
L 215.7403 -270.431293 
L 215.889936 -272.90644 
L 216.042203 -275.381587 
L 216.193986 -277.856735 
L 216.342215 -280.331882 
L 216.484065 -282.807029 
L 216.617127 -285.282177 
L 216.739562 -287.757324 
L 216.850223 -290.232472 
L 216.948729 -292.707619 
L 217.03549 -295.182766 
L 217.111676 -297.657914 
L 217.179134 -300.133061 
L 217.240251 -302.608208 
L 217.297781 -305.083356 
L 217.35464 -307.558503 
L 217.413693 -310.03365 
L 217.477552 -312.508798 
L 217.548383 -314.983945 
L 221.651617 -314.983945 
L 221.651617 -314.983945 
L 221.722448 -312.508798 
L 221.786307 -310.03365 
L 221.84536 -307.558503 
L 221.902219 -305.083356 
L 221.959749 -302.608208 
L 222.020866 -300.133061 
L 222.088324 -297.657914 
L 222.16451 -295.182766 
L 222.251271 -292.707619 
L 222.349777 -290.232472 
L 222.460438 -287.757324 
L 222.582873 -285.282177 
L 222.715935 -282.807029 
L 222.857785 -280.331882 
L 223.006014 -277.856735 
L 223.157797 -275.381587 
L 223.310064 -272.90644 
L 223.4597 -270.431293 
L 223.603735 -267.956145 
L 223.739536 -265.480998 
L 223.86499 -263.005851 
L 223.978672 -260.530703 
L 224.07999 -258.055556 
L 224.169308 -255.580409 
L 224.248043 -253.105261 
L 224.318727 -250.630114 
L 224.385032 -248.154966 
L 224.451761 -245.679819 
L 224.524791 -243.204672 
L 224.610975 -240.729524 
L 224.718012 -238.254377 
L 224.854277 -235.77923 
L 225.028627 -233.304082 
L 225.2502 -230.828935 
L 225.528203 -228.353788 
L 225.871724 -225.87864 
L 226.289557 -223.403493 
L 226.790056 -220.928346 
L 227.381033 -218.453198 
L 228.069672 -215.978051 
L 228.862474 -213.502903 
L 229.765221 -211.027756 
L 230.782922 -208.552609 
L 231.91976 -206.077461 
L 233.178998 -203.602314 
L 234.562857 -201.127167 
L 236.072349 -198.652019 
L 237.707077 -196.176872 
L 239.465014 -193.701725 
L 241.34228 -191.226577 
L 243.332938 -188.75143 
L 245.428846 -186.276283 
L 247.619571 -183.801135 
L 249.892421 -181.325988 
L 252.23257 -178.85084 
L 254.623324 -176.375693 
L 257.046491 -173.900546 
L 259.48286 -171.425398 
L 261.912762 -168.950251 
L 264.316672 -166.475104 
L 266.675819 -163.999956 
L 268.972762 -161.524809 
L 271.191887 -159.049662 
L 273.319781 -156.574514 
L 275.345457 -154.099367 
L 277.260403 -151.62422 
L 279.058442 -149.149072 
L 280.735397 -146.673925 
L 282.288594 -144.198777 
L 283.716215 -141.72363 
L 285.016553 -139.248483 
L 286.187239 -136.773335 
L 287.224479 -134.298188 
L 288.122406 -131.823041 
L 288.872591 -129.347893 
L 289.463786 -126.872746 
L 289.881942 -124.397599 
L 290.110535 -121.922451 
L 290.1312 -119.447304 
L 289.924642 -116.972157 
L 289.471786 -114.497009 
L 288.755074 -112.021862 
L 287.759843 -109.546714 
L 286.475644 -107.071567 
L 284.89744 -104.59642 
L 283.026545 -102.121272 
L 280.871265 -99.646125 
L 278.447159 -97.170978 
L 275.776906 -94.69583 
L 272.889786 -92.220683 
L 269.8208 -89.745536 
L 266.609499 -87.270388 
L 263.298598 -84.795241 
L 259.932464 -82.320094 
L 256.555569 -79.844946 
L 253.211003 -77.369799 
L 249.939131 -74.894651 
L 246.776441 -72.419504 
L 243.75464 -69.944357 
z
" id="mb1b414d8b5" style="stroke:#4c4c4c;stroke-width:1.5;"/>
    </defs>
    <g clip-path="url(#p6290ce77e7)">
     <use style="fill:#5875a4;stroke:#4c4c4c;stroke-width:1.5;" x="0" xlink:href="#mb1b414d8b5" y="432"/>
    </g>
   </g>
   <g id="PolyCollection_2">
    <defs>
     <path d="M 471.265042 -68.825455 
L 414.334958 -68.825455 
L 411.22636 -71.424924 
L 408.007883 -74.024394 
L 404.705041 -76.623864 
L 401.344912 -79.223334 
L 397.9553 -81.822804 
L 394.563891 -84.422274 
L 391.197446 -87.021743 
L 387.881092 -89.621213 
L 384.637754 -92.220683 
L 381.487778 -94.820153 
L 378.44875 -97.419623 
L 375.535542 -100.019092 
L 372.760554 -102.618562 
L 370.13414 -105.218032 
L 367.665163 -107.817502 
L 365.36163 -110.416972 
L 363.231329 -113.016442 
L 361.282426 -115.615911 
L 359.523928 -118.215381 
L 357.965993 -120.814851 
L 356.620016 -123.414321 
L 355.498496 -126.013791 
L 354.614678 -128.613261 
L 353.981981 -131.21273 
L 353.613269 -133.8122 
L 353.52 -136.41167 
L 353.711346 -139.01114 
L 354.193326 -141.61061 
L 354.968043 -144.21008 
L 356.033076 -146.809549 
L 357.381095 -149.409019 
L 358.999709 -152.008489 
L 360.871588 -154.607959 
L 362.974844 -157.207429 
L 365.283651 -159.806898 
L 367.769064 -162.406368 
L 370.399991 -165.005838 
L 373.144244 -167.605308 
L 375.969612 -170.204778 
L 378.844896 -172.804248 
L 381.740826 -175.403717 
L 384.630836 -178.003187 
L 387.49164 -180.602657 
L 390.303603 -183.202127 
L 393.050888 -185.801597 
L 395.721404 -188.401067 
L 398.306559 -191.000536 
L 400.80087 -193.600006 
L 403.201462 -196.199476 
L 405.507503 -198.798946 
L 407.719616 -201.398416 
L 409.839315 -203.997886 
L 411.868503 -206.597355 
L 413.80905 -209.196825 
L 415.66247 -211.796295 
L 417.429725 -214.395765 
L 419.111123 -216.995235 
L 420.706333 -219.594705 
L 422.214481 -222.194174 
L 423.634321 -224.793644 
L 424.964451 -227.393114 
L 426.203559 -229.992584 
L 427.350674 -232.592054 
L 428.405396 -235.191523 
L 429.368107 -237.790993 
L 430.240128 -240.390463 
L 431.023822 -242.989933 
L 431.722641 -245.589403 
L 432.341107 -248.188873 
L 432.884733 -250.788342 
L 433.359881 -253.387812 
L 433.77358 -255.987282 
L 434.133297 -258.586752 
L 434.446687 -261.186222 
L 434.721333 -263.785692 
L 434.964495 -266.385161 
L 435.182874 -268.984631 
L 435.382427 -271.584101 
L 435.568222 -274.183571 
L 435.744363 -276.783041 
L 435.91397 -279.382511 
L 436.079238 -281.98198 
L 436.241537 -284.58145 
L 436.401577 -287.18092 
L 436.559594 -289.78039 
L 436.715559 -292.37986 
L 436.869379 -294.979329 
L 437.021077 -297.578799 
L 437.170934 -300.178269 
L 437.319581 -302.777739 
L 437.468038 -305.377209 
L 437.617685 -307.976679 
L 437.770196 -310.576148 
L 437.927409 -313.175618 
L 438.091186 -315.775088 
L 438.263242 -318.374558 
L 438.444985 -320.974028 
L 438.637375 -323.573498 
L 438.840812 -326.172967 
L 446.759188 -326.172967 
L 446.759188 -326.172967 
L 446.962625 -323.573498 
L 447.155015 -320.974028 
L 447.336758 -318.374558 
L 447.508814 -315.775088 
L 447.672591 -313.175618 
L 447.829804 -310.576148 
L 447.982315 -307.976679 
L 448.131962 -305.377209 
L 448.280419 -302.777739 
L 448.429066 -300.178269 
L 448.578923 -297.578799 
L 448.730621 -294.979329 
L 448.884441 -292.37986 
L 449.040406 -289.78039 
L 449.198423 -287.18092 
L 449.358463 -284.58145 
L 449.520762 -281.98198 
L 449.68603 -279.382511 
L 449.855637 -276.783041 
L 450.031778 -274.183571 
L 450.217573 -271.584101 
L 450.417126 -268.984631 
L 450.635505 -266.385161 
L 450.878667 -263.785692 
L 451.153313 -261.186222 
L 451.466703 -258.586752 
L 451.82642 -255.987282 
L 452.240119 -253.387812 
L 452.715267 -250.788342 
L 453.258893 -248.188873 
L 453.877359 -245.589403 
L 454.576178 -242.989933 
L 455.359872 -240.390463 
L 456.231893 -237.790993 
L 457.194604 -235.191523 
L 458.249326 -232.592054 
L 459.396441 -229.992584 
L 460.635549 -227.393114 
L 461.965679 -224.793644 
L 463.385519 -222.194174 
L 464.893667 -219.594705 
L 466.488877 -216.995235 
L 468.170275 -214.395765 
L 469.93753 -211.796295 
L 471.79095 -209.196825 
L 473.731497 -206.597355 
L 475.760685 -203.997886 
L 477.880384 -201.398416 
L 480.092497 -198.798946 
L 482.398538 -196.199476 
L 484.79913 -193.600006 
L 487.293441 -191.000536 
L 489.878596 -188.401067 
L 492.549112 -185.801597 
L 495.296397 -183.202127 
L 498.10836 -180.602657 
L 500.969164 -178.003187 
L 503.859174 -175.403717 
L 506.755104 -172.804248 
L 509.630388 -170.204778 
L 512.455756 -167.605308 
L 515.200009 -165.005838 
L 517.830936 -162.406368 
L 520.316349 -159.806898 
L 522.625156 -157.207429 
L 524.728412 -154.607959 
L 526.600291 -152.008489 
L 528.218905 -149.409019 
L 529.566924 -146.809549 
L 530.631957 -144.21008 
L 531.406674 -141.61061 
L 531.888654 -139.01114 
L 532.08 -136.41167 
L 531.986731 -133.8122 
L 531.618019 -131.21273 
L 530.985322 -128.613261 
L 530.101504 -126.013791 
L 528.979984 -123.414321 
L 527.634007 -120.814851 
L 526.076072 -118.215381 
L 524.317574 -115.615911 
L 522.368671 -113.016442 
L 520.23837 -110.416972 
L 517.934837 -107.817502 
L 515.46586 -105.218032 
L 512.839446 -102.618562 
L 510.064458 -100.019092 
L 507.15125 -97.419623 
L 504.112222 -94.820153 
L 500.962246 -92.220683 
L 497.718908 -89.621213 
L 494.402554 -87.021743 
L 491.036109 -84.422274 
L 487.6447 -81.822804 
L 484.255088 -79.223334 
L 480.894959 -76.623864 
L 477.592117 -74.024394 
L 474.37364 -71.424924 
L 471.265042 -68.825455 
z
" id="md0ebf5d8c6" style="stroke:#4c4c4c;stroke-width:1.5;"/>
    </defs>
    <g clip-path="url(#p6290ce77e7)">
     <use style="fill:#cc8963;stroke:#4c4c4c;stroke-width:1.5;" x="0" xlink:href="#md0ebf5d8c6" y="432"/>
    </g>
   </g>
   <g id="PolyCollection_3">
    <defs>
     <path d="M 683.384489 -85.608988 
L 648.615511 -85.608988 
L 646.816978 -88.434499 
L 644.948144 -91.260009 
L 643.014474 -94.08552 
L 641.021051 -96.911031 
L 638.972703 -99.736541 
L 636.874281 -102.562052 
L 634.731074 -105.387563 
L 632.549326 -108.213073 
L 630.336805 -111.038584 
L 628.103363 -113.864095 
L 625.861408 -116.689605 
L 623.626232 -119.515116 
L 621.41614 -122.340627 
L 619.252314 -125.166138 
L 617.158423 -127.991648 
L 615.15996 -130.817159 
L 613.283361 -133.64267 
L 611.554941 -136.46818 
L 609.999751 -139.293691 
L 608.640423 -142.119202 
L 607.496121 -144.944712 
L 606.581662 -147.770223 
L 605.906904 -150.595734 
L 605.476438 -153.421244 
L 605.2896 -156.246755 
L 605.340814 -159.072266 
L 605.620212 -161.897776 
L 606.114473 -164.723287 
L 606.807806 -167.548798 
L 607.682981 -170.374308 
L 608.722324 -173.199819 
L 609.90859 -176.02533 
L 611.225659 -178.85084 
L 612.658997 -181.676351 
L 614.195887 -184.501862 
L 615.825413 -187.327373 
L 617.538244 -190.152883 
L 619.326257 -192.978394 
L 621.182051 -195.803905 
L 623.098428 -198.629415 
L 625.067885 -201.454926 
L 627.082182 -204.280437 
L 629.132015 -207.105947 
L 631.206826 -209.931458 
L 633.294761 -212.756969 
L 635.382768 -215.582479 
L 637.456814 -218.40799 
L 639.502208 -221.233501 
L 641.503986 -224.059011 
L 643.447336 -226.884522 
L 645.318024 -229.710033 
L 647.102799 -232.535543 
L 648.789762 -235.361054 
L 650.368669 -238.186565 
L 651.831183 -241.012075 
L 653.17105 -243.837586 
L 654.38422 -246.663097 
L 655.468901 -249.488608 
L 656.425562 -252.314118 
L 657.25688 -255.139629 
L 657.967645 -257.96514 
L 658.564602 -260.79065 
L 659.056267 -263.616161 
L 659.452677 -266.441672 
L 659.765109 -269.267182 
L 660.00575 -272.092693 
L 660.18734 -274.918204 
L 660.32279 -277.743714 
L 660.424784 -280.569225 
L 660.505394 -283.394736 
L 660.575715 -286.220246 
L 660.645536 -289.045757 
L 660.723071 -291.871268 
L 660.814761 -294.696778 
L 660.925156 -297.522289 
L 661.056878 -300.3478 
L 661.210679 -303.17331 
L 661.385574 -305.998821 
L 661.57906 -308.824332 
L 661.787381 -311.649843 
L 662.005854 -314.475353 
L 662.229214 -317.300864 
L 662.451972 -320.126375 
L 662.668762 -322.951885 
L 662.874662 -325.777396 
L 663.065471 -328.602907 
L 663.237928 -331.428417 
L 663.389866 -334.253928 
L 663.520294 -337.079439 
L 663.629402 -339.904949 
L 663.718494 -342.73046 
L 663.789859 -345.555971 
L 663.846583 -348.381481 
L 663.892324 -351.206992 
L 663.931058 -354.032503 
L 663.966817 -356.858013 
L 664.003446 -359.683524 
L 664.044372 -362.509035 
L 664.092426 -365.334545 
L 667.907574 -365.334545 
L 667.907574 -365.334545 
L 667.955628 -362.509035 
L 667.996554 -359.683524 
L 668.033183 -356.858013 
L 668.068942 -354.032503 
L 668.107676 -351.206992 
L 668.153417 -348.381481 
L 668.210141 -345.555971 
L 668.281506 -342.73046 
L 668.370598 -339.904949 
L 668.479706 -337.079439 
L 668.610134 -334.253928 
L 668.762072 -331.428417 
L 668.934529 -328.602907 
L 669.125338 -325.777396 
L 669.331238 -322.951885 
L 669.548028 -320.126375 
L 669.770786 -317.300864 
L 669.994146 -314.475353 
L 670.212619 -311.649843 
L 670.42094 -308.824332 
L 670.614426 -305.998821 
L 670.789321 -303.17331 
L 670.943122 -300.3478 
L 671.074844 -297.522289 
L 671.185239 -294.696778 
L 671.276929 -291.871268 
L 671.354464 -289.045757 
L 671.424285 -286.220246 
L 671.494606 -283.394736 
L 671.575216 -280.569225 
L 671.67721 -277.743714 
L 671.81266 -274.918204 
L 671.99425 -272.092693 
L 672.234891 -269.267182 
L 672.547323 -266.441672 
L 672.943733 -263.616161 
L 673.435398 -260.79065 
L 674.032355 -257.96514 
L 674.74312 -255.139629 
L 675.574438 -252.314118 
L 676.531099 -249.488608 
L 677.61578 -246.663097 
L 678.82895 -243.837586 
L 680.168817 -241.012075 
L 681.631331 -238.186565 
L 683.210238 -235.361054 
L 684.897201 -232.535543 
L 686.681976 -229.710033 
L 688.552664 -226.884522 
L 690.496014 -224.059011 
L 692.497792 -221.233501 
L 694.543186 -218.40799 
L 696.617232 -215.582479 
L 698.705239 -212.756969 
L 700.793174 -209.931458 
L 702.867985 -207.105947 
L 704.917818 -204.280437 
L 706.932115 -201.454926 
L 708.901572 -198.629415 
L 710.817949 -195.803905 
L 712.673743 -192.978394 
L 714.461756 -190.152883 
L 716.174587 -187.327373 
L 717.804113 -184.501862 
L 719.341003 -181.676351 
L 720.774341 -178.85084 
L 722.09141 -176.02533 
L 723.277676 -173.199819 
L 724.317019 -170.374308 
L 725.192194 -167.548798 
L 725.885527 -164.723287 
L 726.379788 -161.897776 
L 726.659186 -159.072266 
L 726.7104 -156.246755 
L 726.523562 -153.421244 
L 726.093096 -150.595734 
L 725.418338 -147.770223 
L 724.503879 -144.944712 
L 723.359577 -142.119202 
L 722.000249 -139.293691 
L 720.445059 -136.46818 
L 718.716639 -133.64267 
L 716.84004 -130.817159 
L 714.841577 -127.991648 
L 712.747686 -125.166138 
L 710.58386 -122.340627 
L 708.373768 -119.515116 
L 706.138592 -116.689605 
L 703.896637 -113.864095 
L 701.663195 -111.038584 
L 699.450674 -108.213073 
L 697.268926 -105.387563 
L 695.125719 -102.562052 
L 693.027297 -99.736541 
L 690.978949 -96.911031 
L 688.985526 -94.08552 
L 687.051856 -91.260009 
L 685.183022 -88.434499 
L 683.384489 -85.608988 
z
" id="md45695e25b" style="stroke:#4c4c4c;stroke-width:1.5;"/>
    </defs>
    <g clip-path="url(#p6290ce77e7)">
     <use style="fill:#5f9e6e;stroke:#4c4c4c;stroke-width:1.5;" x="0" xlink:href="#md45695e25b" y="432"/>
    </g>
   </g>
   <g id="line2d_7">
    <path clip-path="url(#p6290ce77e7)" d="M 154.955535 326.810223 
L 284.244465 326.810223 
" style="fill:none;stroke:#4c4c4c;stroke-dasharray:3.375,3.375;stroke-dashoffset:0;stroke-width:1.5;"/>
   </g>
   <g id="line2d_8">
    <path clip-path="url(#p6290ce77e7)" d="M 151.020134 301.634923 
L 288.179866 301.634923 
" style="fill:none;stroke:#4c4c4c;stroke-dasharray:6.75,6.75;stroke-dashoffset:0;stroke-width:1.5;"/>
   </g>
   <g id="line2d_9">
    <path clip-path="url(#p6290ce77e7)" d="M 166.417417 275.620446 
L 272.782583 275.620446 
" style="fill:none;stroke:#4c4c4c;stroke-dasharray:3.375,3.375;stroke-dashoffset:0;stroke-width:1.5;"/>
   </g>
   <g id="line2d_10">
    <path clip-path="url(#p6290ce77e7)" d="M 366.136014 320.656261 
L 519.463986 320.656261 
" style="fill:none;stroke:#4c4c4c;stroke-dasharray:3.375,3.375;stroke-dashoffset:0;stroke-width:1.5;"/>
   </g>
   <g id="line2d_11">
    <path clip-path="url(#p6290ce77e7)" d="M 355.079393 290.445901 
L 530.520607 290.445901 
" style="fill:none;stroke:#4c4c4c;stroke-dasharray:6.75,6.75;stroke-dashoffset:0;stroke-width:1.5;"/>
   </g>
   <g id="line2d_12">
    <path clip-path="url(#p6290ce77e7)" d="M 376.637916 262.473345 
L 508.962084 262.473345 
" style="fill:none;stroke:#4c4c4c;stroke-dasharray:3.375,3.375;stroke-dashoffset:0;stroke-width:1.5;"/>
   </g>
   <g id="line2d_13">
    <path clip-path="url(#p6290ce77e7)" d="M 612.099392 294.362058 
L 719.900608 294.362058 
" style="fill:none;stroke:#4c4c4c;stroke-dasharray:3.375,3.375;stroke-dashoffset:0;stroke-width:1.5;"/>
   </g>
   <g id="line2d_14">
    <path clip-path="url(#p6290ce77e7)" d="M 605.947406 273.662367 
L 726.052594 273.662367 
" style="fill:none;stroke:#4c4c4c;stroke-dasharray:6.75,6.75;stroke-dashoffset:0;stroke-width:1.5;"/>
   </g>
   <g id="line2d_15">
    <path clip-path="url(#p6290ce77e7)" d="M 619.792994 239.535849 
L 712.207006 239.535849 
" style="fill:none;stroke:#4c4c4c;stroke-dasharray:3.375,3.375;stroke-dashoffset:0;stroke-width:1.5;"/>
   </g>
   <g id="patch_3">
    <path d="M 108 378 
L 108 51.84 
" style="fill:none;stroke:#ffffff;stroke-linecap:square;stroke-linejoin:miter;stroke-width:1.25;"/>
   </g>
   <g id="patch_4">
    <path d="M 777.6 378 
L 777.6 51.84 
" style="fill:none;stroke:#ffffff;stroke-linecap:square;stroke-linejoin:miter;stroke-width:1.25;"/>
   </g>
   <g id="patch_5">
    <path d="M 108 378 
L 777.6 378 
" style="fill:none;stroke:#ffffff;stroke-linecap:square;stroke-linejoin:miter;stroke-width:1.25;"/>
   </g>
   <g id="patch_6">
    <path d="M 108 51.84 
L 777.6 51.84 
" style="fill:none;stroke:#ffffff;stroke-linecap:square;stroke-linejoin:miter;stroke-width:1.25;"/>
   </g>
   <g id="text_12">
    <!-- Compensation by Year -->
    <g style="fill:#262626;" transform="translate(382.422188 45.84)scale(0.12 -0.12)">
     <defs>
      <path d="M 3763 1606 
L 4369 1453 
Q 4178 706 3683 314 
Q 3188 -78 2472 -78 
Q 1731 -78 1267 223 
Q 803 525 561 1097 
Q 319 1669 319 2325 
Q 319 3041 592 3573 
Q 866 4106 1370 4382 
Q 1875 4659 2481 4659 
Q 3169 4659 3637 4309 
Q 4106 3959 4291 3325 
L 3694 3184 
Q 3534 3684 3231 3912 
Q 2928 4141 2469 4141 
Q 1941 4141 1586 3887 
Q 1231 3634 1087 3207 
Q 944 2781 944 2328 
Q 944 1744 1114 1308 
Q 1284 872 1643 656 
Q 2003 441 2422 441 
Q 2931 441 3284 734 
Q 3638 1028 3763 1606 
z
" id="ArialMT-43" transform="scale(0.015625)"/>
      <path d="M 422 -1272 
L 422 3319 
L 934 3319 
L 934 2888 
Q 1116 3141 1344 3267 
Q 1572 3394 1897 3394 
Q 2322 3394 2647 3175 
Q 2972 2956 3137 2557 
Q 3303 2159 3303 1684 
Q 3303 1175 3120 767 
Q 2938 359 2589 142 
Q 2241 -75 1856 -75 
Q 1575 -75 1351 44 
Q 1128 163 984 344 
L 984 -1272 
L 422 -1272 
z
M 931 1641 
Q 931 1000 1190 694 
Q 1450 388 1819 388 
Q 2194 388 2461 705 
Q 2728 1022 2728 1688 
Q 2728 2322 2467 2637 
Q 2206 2953 1844 2953 
Q 1484 2953 1207 2617 
Q 931 2281 931 1641 
z
" id="ArialMT-70" transform="scale(0.015625)"/>
      <path d="M 941 0 
L 419 0 
L 419 4581 
L 981 4581 
L 981 2947 
Q 1338 3394 1891 3394 
Q 2197 3394 2470 3270 
Q 2744 3147 2920 2923 
Q 3097 2700 3197 2384 
Q 3297 2069 3297 1709 
Q 3297 856 2875 390 
Q 2453 -75 1863 -75 
Q 1275 -75 941 416 
L 941 0 
z
M 934 1684 
Q 934 1088 1097 822 
Q 1363 388 1816 388 
Q 2184 388 2453 708 
Q 2722 1028 2722 1663 
Q 2722 2313 2464 2622 
Q 2206 2931 1841 2931 
Q 1472 2931 1203 2611 
Q 934 2291 934 1684 
z
" id="ArialMT-62" transform="scale(0.015625)"/>
      <path d="M 397 -1278 
L 334 -750 
Q 519 -800 656 -800 
Q 844 -800 956 -737 
Q 1069 -675 1141 -563 
Q 1194 -478 1313 -144 
Q 1328 -97 1363 -6 
L 103 3319 
L 709 3319 
L 1400 1397 
Q 1534 1031 1641 628 
Q 1738 1016 1872 1384 
L 2581 3319 
L 3144 3319 
L 1881 -56 
Q 1678 -603 1566 -809 
Q 1416 -1088 1222 -1217 
Q 1028 -1347 759 -1347 
Q 597 -1347 397 -1278 
z
" id="ArialMT-79" transform="scale(0.015625)"/>
     </defs>
     <use xlink:href="#ArialMT-43"/>
     <use x="72.216797" xlink:href="#ArialMT-6f"/>
     <use x="127.832031" xlink:href="#ArialMT-6d"/>
     <use x="211.132812" xlink:href="#ArialMT-70"/>
     <use x="266.748047" xlink:href="#ArialMT-65"/>
     <use x="322.363281" xlink:href="#ArialMT-6e"/>
     <use x="377.978516" xlink:href="#ArialMT-73"/>
     <use x="427.978516" xlink:href="#ArialMT-61"/>
     <use x="483.59375" xlink:href="#ArialMT-74"/>
     <use x="511.376953" xlink:href="#ArialMT-69"/>
     <use x="533.59375" xlink:href="#ArialMT-6f"/>
     <use x="589.208984" xlink:href="#ArialMT-6e"/>
     <use x="644.824219" xlink:href="#ArialMT-20"/>
     <use x="672.607422" xlink:href="#ArialMT-62"/>
     <use x="728.222656" xlink:href="#ArialMT-79"/>
     <use x="778.222656" xlink:href="#ArialMT-20"/>
     <use x="804.255859" xlink:href="#ArialMT-59"/>
     <use x="861.830078" xlink:href="#ArialMT-65"/>
     <use x="917.445312" xlink:href="#ArialMT-61"/>
     <use x="973.060547" xlink:href="#ArialMT-72"/>
    </g>
   </g>
  </g>
 </g>
 <defs>
  <clipPath id="p6290ce77e7">
   <rect height="326.16" width="669.6" x="108" y="51.84"/>
  </clipPath>
 </defs>
</svg>
