<?xml version="1.0" encoding="utf-8" standalone="no"?>
<!DOCTYPE svg PUBLIC "-//W3C//DTD SVG 1.1//EN"
  "http://www.w3.org/Graphics/SVG/1.1/DTD/svg11.dtd">
<svg height="432pt" version="1.1" viewBox="0 0 864 432" width="864pt" xmlns="http://www.w3.org/2000/svg" xmlns:xlink="http://www.w3.org/1999/xlink">
 <metadata>
  <rdf:RDF xmlns:cc="http://creativecommons.org/ns#" xmlns:dc="http://purl.org/dc/elements/1.1/" xmlns:rdf="http://www.w3.org/1999/02/22-rdf-syntax-ns#">
   <cc:Work>
    <dc:type rdf:resource="http://purl.org/dc/dcmitype/StillImage"/>
    <dc:date>2021-12-27T06:11:39.850275</dc:date>
    <dc:format>image/svg+xml</dc:format>
    <dc:creator>
     <cc:Agent>
      <dc:title>Matplotlib v3.4.3, https://matplotlib.org/</dc:title>
     </cc:Agent>
    </dc:creator>
   </cc:Work>
  </rdf:RDF>
 </metadata>
 <defs>
  <style type="text/css">*{stroke-linecap:butt;stroke-linejoin:round;}</style>
 </defs>
 <g id="figure_1">
  <g id="patch_1">
   <path d="M 0 432 
L 864 432 
L 864 0 
L 0 0 
z
" style="fill:#ffffff;"/>
  </g>
  <g id="axes_1">
   <g id="patch_2">
    <path d="M 108 378 
L 777.6 378 
L 777.6 51.84 
L 108 51.84 
z
" style="fill:#eaeaf2;"/>
   </g>
   <g id="matplotlib.axis_1">
    <g id="xtick_1">
     <g id="text_1">
      <!-- Associate's Degree -->
      <g style="fill:#262626;" transform="translate(127.750234 395.373594)scale(0.11 -0.11)">
       <defs>
        <path d="M -9 0 
L 1750 4581 
L 2403 4581 
L 4278 0 
L 3588 0 
L 3053 1388 
L 1138 1388 
L 634 0 
L -9 0 
z
M 1313 1881 
L 2866 1881 
L 2388 3150 
Q 2169 3728 2063 4100 
Q 1975 3659 1816 3225 
L 1313 1881 
z
" id="ArialMT-41" transform="scale(0.015625)"/>
        <path d="M 197 991 
L 753 1078 
Q 800 744 1014 566 
Q 1228 388 1613 388 
Q 2000 388 2187 545 
Q 2375 703 2375 916 
Q 2375 1106 2209 1216 
Q 2094 1291 1634 1406 
Q 1016 1563 777 1677 
Q 538 1791 414 1992 
Q 291 2194 291 2438 
Q 291 2659 392 2848 
Q 494 3038 669 3163 
Q 800 3259 1026 3326 
Q 1253 3394 1513 3394 
Q 1903 3394 2198 3281 
Q 2494 3169 2634 2976 
Q 2775 2784 2828 2463 
L 2278 2388 
Q 2241 2644 2061 2787 
Q 1881 2931 1553 2931 
Q 1166 2931 1000 2803 
Q 834 2675 834 2503 
Q 834 2394 903 2306 
Q 972 2216 1119 2156 
Q 1203 2125 1616 2013 
Q 2213 1853 2448 1751 
Q 2684 1650 2818 1456 
Q 2953 1263 2953 975 
Q 2953 694 2789 445 
Q 2625 197 2315 61 
Q 2006 -75 1616 -75 
Q 969 -75 630 194 
Q 291 463 197 991 
z
" id="ArialMT-73" transform="scale(0.015625)"/>
        <path d="M 213 1659 
Q 213 2581 725 3025 
Q 1153 3394 1769 3394 
Q 2453 3394 2887 2945 
Q 3322 2497 3322 1706 
Q 3322 1066 3130 698 
Q 2938 331 2570 128 
Q 2203 -75 1769 -75 
Q 1072 -75 642 372 
Q 213 819 213 1659 
z
M 791 1659 
Q 791 1022 1069 705 
Q 1347 388 1769 388 
Q 2188 388 2466 706 
Q 2744 1025 2744 1678 
Q 2744 2294 2464 2611 
Q 2184 2928 1769 2928 
Q 1347 2928 1069 2612 
Q 791 2297 791 1659 
z
" id="ArialMT-6f" transform="scale(0.015625)"/>
        <path d="M 2588 1216 
L 3141 1144 
Q 3050 572 2676 248 
Q 2303 -75 1759 -75 
Q 1078 -75 664 370 
Q 250 816 250 1647 
Q 250 2184 428 2587 
Q 606 2991 970 3192 
Q 1334 3394 1763 3394 
Q 2303 3394 2647 3120 
Q 2991 2847 3088 2344 
L 2541 2259 
Q 2463 2594 2264 2762 
Q 2066 2931 1784 2931 
Q 1359 2931 1093 2626 
Q 828 2322 828 1663 
Q 828 994 1084 691 
Q 1341 388 1753 388 
Q 2084 388 2306 591 
Q 2528 794 2588 1216 
z
" id="ArialMT-63" transform="scale(0.015625)"/>
        <path d="M 425 3934 
L 425 4581 
L 988 4581 
L 988 3934 
L 425 3934 
z
M 425 0 
L 425 3319 
L 988 3319 
L 988 0 
L 425 0 
z
" id="ArialMT-69" transform="scale(0.015625)"/>
        <path d="M 2588 409 
Q 2275 144 1986 34 
Q 1697 -75 1366 -75 
Q 819 -75 525 192 
Q 231 459 231 875 
Q 231 1119 342 1320 
Q 453 1522 633 1644 
Q 813 1766 1038 1828 
Q 1203 1872 1538 1913 
Q 2219 1994 2541 2106 
Q 2544 2222 2544 2253 
Q 2544 2597 2384 2738 
Q 2169 2928 1744 2928 
Q 1347 2928 1158 2789 
Q 969 2650 878 2297 
L 328 2372 
Q 403 2725 575 2942 
Q 747 3159 1072 3276 
Q 1397 3394 1825 3394 
Q 2250 3394 2515 3294 
Q 2781 3194 2906 3042 
Q 3031 2891 3081 2659 
Q 3109 2516 3109 2141 
L 3109 1391 
Q 3109 606 3145 398 
Q 3181 191 3288 0 
L 2700 0 
Q 2613 175 2588 409 
z
M 2541 1666 
Q 2234 1541 1622 1453 
Q 1275 1403 1131 1340 
Q 988 1278 909 1158 
Q 831 1038 831 891 
Q 831 666 1001 516 
Q 1172 366 1500 366 
Q 1825 366 2078 508 
Q 2331 650 2450 897 
Q 2541 1088 2541 1459 
L 2541 1666 
z
" id="ArialMT-61" transform="scale(0.015625)"/>
        <path d="M 1650 503 
L 1731 6 
Q 1494 -44 1306 -44 
Q 1000 -44 831 53 
Q 663 150 594 308 
Q 525 466 525 972 
L 525 2881 
L 113 2881 
L 113 3319 
L 525 3319 
L 525 4141 
L 1084 4478 
L 1084 3319 
L 1650 3319 
L 1650 2881 
L 1084 2881 
L 1084 941 
Q 1084 700 1114 631 
Q 1144 563 1211 522 
Q 1278 481 1403 481 
Q 1497 481 1650 503 
z
" id="ArialMT-74" transform="scale(0.015625)"/>
        <path d="M 2694 1069 
L 3275 997 
Q 3138 488 2766 206 
Q 2394 -75 1816 -75 
Q 1088 -75 661 373 
Q 234 822 234 1631 
Q 234 2469 665 2931 
Q 1097 3394 1784 3394 
Q 2450 3394 2872 2941 
Q 3294 2488 3294 1666 
Q 3294 1616 3291 1516 
L 816 1516 
Q 847 969 1125 678 
Q 1403 388 1819 388 
Q 2128 388 2347 550 
Q 2566 713 2694 1069 
z
M 847 1978 
L 2700 1978 
Q 2663 2397 2488 2606 
Q 2219 2931 1791 2931 
Q 1403 2931 1139 2672 
Q 875 2413 847 1978 
z
" id="ArialMT-65" transform="scale(0.015625)"/>
        <path d="M 425 2959 
L 281 3816 
L 281 4581 
L 922 4581 
L 922 3816 
L 772 2959 
L 425 2959 
z
" id="ArialMT-27" transform="scale(0.015625)"/>
        <path id="ArialMT-20" transform="scale(0.015625)"/>
        <path d="M 494 0 
L 494 4581 
L 2072 4581 
Q 2606 4581 2888 4516 
Q 3281 4425 3559 4188 
Q 3922 3881 4101 3404 
Q 4281 2928 4281 2316 
Q 4281 1794 4159 1391 
Q 4038 988 3847 723 
Q 3656 459 3429 307 
Q 3203 156 2883 78 
Q 2563 0 2147 0 
L 494 0 
z
M 1100 541 
L 2078 541 
Q 2531 541 2789 625 
Q 3047 709 3200 863 
Q 3416 1078 3536 1442 
Q 3656 1806 3656 2325 
Q 3656 3044 3420 3430 
Q 3184 3816 2847 3947 
Q 2603 4041 2063 4041 
L 1100 4041 
L 1100 541 
z
" id="ArialMT-44" transform="scale(0.015625)"/>
        <path d="M 319 -275 
L 866 -356 
Q 900 -609 1056 -725 
Q 1266 -881 1628 -881 
Q 2019 -881 2231 -725 
Q 2444 -569 2519 -288 
Q 2563 -116 2559 434 
Q 2191 0 1641 0 
Q 956 0 581 494 
Q 206 988 206 1678 
Q 206 2153 378 2554 
Q 550 2956 876 3175 
Q 1203 3394 1644 3394 
Q 2231 3394 2613 2919 
L 2613 3319 
L 3131 3319 
L 3131 450 
Q 3131 -325 2973 -648 
Q 2816 -972 2473 -1159 
Q 2131 -1347 1631 -1347 
Q 1038 -1347 672 -1080 
Q 306 -813 319 -275 
z
M 784 1719 
Q 784 1066 1043 766 
Q 1303 466 1694 466 
Q 2081 466 2343 764 
Q 2606 1063 2606 1700 
Q 2606 2309 2336 2618 
Q 2066 2928 1684 2928 
Q 1309 2928 1046 2623 
Q 784 2319 784 1719 
z
" id="ArialMT-67" transform="scale(0.015625)"/>
        <path d="M 416 0 
L 416 3319 
L 922 3319 
L 922 2816 
Q 1116 3169 1280 3281 
Q 1444 3394 1641 3394 
Q 1925 3394 2219 3213 
L 2025 2691 
Q 1819 2813 1613 2813 
Q 1428 2813 1281 2702 
Q 1134 2591 1072 2394 
Q 978 2094 978 1738 
L 978 0 
L 416 0 
z
" id="ArialMT-72" transform="scale(0.015625)"/>
       </defs>
       <use xlink:href="#ArialMT-41"/>
       <use x="66.699219" xlink:href="#ArialMT-73"/>
       <use x="116.699219" xlink:href="#ArialMT-73"/>
       <use x="166.699219" xlink:href="#ArialMT-6f"/>
       <use x="222.314453" xlink:href="#ArialMT-63"/>
       <use x="272.314453" xlink:href="#ArialMT-69"/>
       <use x="294.53125" xlink:href="#ArialMT-61"/>
       <use x="350.146484" xlink:href="#ArialMT-74"/>
       <use x="377.929688" xlink:href="#ArialMT-65"/>
       <use x="433.544922" xlink:href="#ArialMT-27"/>
       <use x="452.636719" xlink:href="#ArialMT-73"/>
       <use x="502.636719" xlink:href="#ArialMT-20"/>
       <use x="530.419922" xlink:href="#ArialMT-44"/>
       <use x="602.636719" xlink:href="#ArialMT-65"/>
       <use x="658.251953" xlink:href="#ArialMT-67"/>
       <use x="713.867188" xlink:href="#ArialMT-72"/>
       <use x="747.167969" xlink:href="#ArialMT-65"/>
       <use x="802.783203" xlink:href="#ArialMT-65"/>
      </g>
     </g>
    </g>
    <g id="xtick_2">
     <g id="text_2">
      <!-- Bachelor's Degree -->
      <g style="fill:#262626;" transform="translate(263.808359 395.373594)scale(0.11 -0.11)">
       <defs>
        <path d="M 469 0 
L 469 4581 
L 2188 4581 
Q 2713 4581 3030 4442 
Q 3347 4303 3526 4014 
Q 3706 3725 3706 3409 
Q 3706 3116 3547 2856 
Q 3388 2597 3066 2438 
Q 3481 2316 3704 2022 
Q 3928 1728 3928 1328 
Q 3928 1006 3792 729 
Q 3656 453 3456 303 
Q 3256 153 2954 76 
Q 2653 0 2216 0 
L 469 0 
z
M 1075 2656 
L 2066 2656 
Q 2469 2656 2644 2709 
Q 2875 2778 2992 2937 
Q 3109 3097 3109 3338 
Q 3109 3566 3000 3739 
Q 2891 3913 2687 3977 
Q 2484 4041 1991 4041 
L 1075 4041 
L 1075 2656 
z
M 1075 541 
L 2216 541 
Q 2509 541 2628 563 
Q 2838 600 2978 687 
Q 3119 775 3209 942 
Q 3300 1109 3300 1328 
Q 3300 1584 3169 1773 
Q 3038 1963 2805 2039 
Q 2572 2116 2134 2116 
L 1075 2116 
L 1075 541 
z
" id="ArialMT-42" transform="scale(0.015625)"/>
        <path d="M 422 0 
L 422 4581 
L 984 4581 
L 984 2938 
Q 1378 3394 1978 3394 
Q 2347 3394 2619 3248 
Q 2891 3103 3008 2847 
Q 3125 2591 3125 2103 
L 3125 0 
L 2563 0 
L 2563 2103 
Q 2563 2525 2380 2717 
Q 2197 2909 1863 2909 
Q 1613 2909 1392 2779 
Q 1172 2650 1078 2428 
Q 984 2206 984 1816 
L 984 0 
L 422 0 
z
" id="ArialMT-68" transform="scale(0.015625)"/>
        <path d="M 409 0 
L 409 4581 
L 972 4581 
L 972 0 
L 409 0 
z
" id="ArialMT-6c" transform="scale(0.015625)"/>
       </defs>
       <use xlink:href="#ArialMT-42"/>
       <use x="66.699219" xlink:href="#ArialMT-61"/>
       <use x="122.314453" xlink:href="#ArialMT-63"/>
       <use x="172.314453" xlink:href="#ArialMT-68"/>
       <use x="227.929688" xlink:href="#ArialMT-65"/>
       <use x="283.544922" xlink:href="#ArialMT-6c"/>
       <use x="305.761719" xlink:href="#ArialMT-6f"/>
       <use x="361.376953" xlink:href="#ArialMT-72"/>
       <use x="394.677734" xlink:href="#ArialMT-27"/>
       <use x="413.769531" xlink:href="#ArialMT-73"/>
       <use x="463.769531" xlink:href="#ArialMT-20"/>
       <use x="491.552734" xlink:href="#ArialMT-44"/>
       <use x="563.769531" xlink:href="#ArialMT-65"/>
       <use x="619.384766" xlink:href="#ArialMT-67"/>
       <use x="675" xlink:href="#ArialMT-72"/>
       <use x="708.300781" xlink:href="#ArialMT-65"/>
       <use x="763.916016" xlink:href="#ArialMT-65"/>
      </g>
     </g>
    </g>
    <g id="xtick_3">
     <g id="text_3">
      <!-- High School -->
      <g style="fill:#262626;" transform="translate(413.144688 395.507656)scale(0.11 -0.11)">
       <defs>
        <path d="M 513 0 
L 513 4581 
L 1119 4581 
L 1119 2700 
L 3500 2700 
L 3500 4581 
L 4106 4581 
L 4106 0 
L 3500 0 
L 3500 2159 
L 1119 2159 
L 1119 0 
L 513 0 
z
" id="ArialMT-48" transform="scale(0.015625)"/>
        <path d="M 288 1472 
L 859 1522 
Q 900 1178 1048 958 
Q 1197 738 1509 602 
Q 1822 466 2213 466 
Q 2559 466 2825 569 
Q 3091 672 3220 851 
Q 3350 1031 3350 1244 
Q 3350 1459 3225 1620 
Q 3100 1781 2813 1891 
Q 2628 1963 1997 2114 
Q 1366 2266 1113 2400 
Q 784 2572 623 2826 
Q 463 3081 463 3397 
Q 463 3744 659 4045 
Q 856 4347 1234 4503 
Q 1613 4659 2075 4659 
Q 2584 4659 2973 4495 
Q 3363 4331 3572 4012 
Q 3781 3694 3797 3291 
L 3216 3247 
Q 3169 3681 2898 3903 
Q 2628 4125 2100 4125 
Q 1550 4125 1298 3923 
Q 1047 3722 1047 3438 
Q 1047 3191 1225 3031 
Q 1400 2872 2139 2705 
Q 2878 2538 3153 2413 
Q 3553 2228 3743 1945 
Q 3934 1663 3934 1294 
Q 3934 928 3725 604 
Q 3516 281 3123 101 
Q 2731 -78 2241 -78 
Q 1619 -78 1198 103 
Q 778 284 539 648 
Q 300 1013 288 1472 
z
" id="ArialMT-53" transform="scale(0.015625)"/>
       </defs>
       <use xlink:href="#ArialMT-48"/>
       <use x="72.216797" xlink:href="#ArialMT-69"/>
       <use x="94.433594" xlink:href="#ArialMT-67"/>
       <use x="150.048828" xlink:href="#ArialMT-68"/>
       <use x="205.664062" xlink:href="#ArialMT-20"/>
       <use x="233.447266" xlink:href="#ArialMT-53"/>
       <use x="300.146484" xlink:href="#ArialMT-63"/>
       <use x="350.146484" xlink:href="#ArialMT-68"/>
       <use x="405.761719" xlink:href="#ArialMT-6f"/>
       <use x="461.376953" xlink:href="#ArialMT-6f"/>
       <use x="516.992188" xlink:href="#ArialMT-6c"/>
      </g>
     </g>
    </g>
    <g id="xtick_4">
     <g id="text_4">
      <!-- Master's or Professional Degree -->
      <g style="fill:#262626;" transform="translate(498.336406 395.507656)scale(0.11 -0.11)">
       <defs>
        <path d="M 475 0 
L 475 4581 
L 1388 4581 
L 2472 1338 
Q 2622 884 2691 659 
Q 2769 909 2934 1394 
L 4031 4581 
L 4847 4581 
L 4847 0 
L 4263 0 
L 4263 3834 
L 2931 0 
L 2384 0 
L 1059 3900 
L 1059 0 
L 475 0 
z
" id="ArialMT-4d" transform="scale(0.015625)"/>
        <path d="M 494 0 
L 494 4581 
L 2222 4581 
Q 2678 4581 2919 4538 
Q 3256 4481 3484 4323 
Q 3713 4166 3852 3881 
Q 3991 3597 3991 3256 
Q 3991 2672 3619 2267 
Q 3247 1863 2275 1863 
L 1100 1863 
L 1100 0 
L 494 0 
z
M 1100 2403 
L 2284 2403 
Q 2872 2403 3119 2622 
Q 3366 2841 3366 3238 
Q 3366 3525 3220 3729 
Q 3075 3934 2838 4000 
Q 2684 4041 2272 4041 
L 1100 4041 
L 1100 2403 
z
" id="ArialMT-50" transform="scale(0.015625)"/>
        <path d="M 556 0 
L 556 2881 
L 59 2881 
L 59 3319 
L 556 3319 
L 556 3672 
Q 556 4006 616 4169 
Q 697 4388 901 4523 
Q 1106 4659 1475 4659 
Q 1713 4659 2000 4603 
L 1916 4113 
Q 1741 4144 1584 4144 
Q 1328 4144 1222 4034 
Q 1116 3925 1116 3625 
L 1116 3319 
L 1763 3319 
L 1763 2881 
L 1116 2881 
L 1116 0 
L 556 0 
z
" id="ArialMT-66" transform="scale(0.015625)"/>
        <path d="M 422 0 
L 422 3319 
L 928 3319 
L 928 2847 
Q 1294 3394 1984 3394 
Q 2284 3394 2536 3286 
Q 2788 3178 2913 3003 
Q 3038 2828 3088 2588 
Q 3119 2431 3119 2041 
L 3119 0 
L 2556 0 
L 2556 2019 
Q 2556 2363 2490 2533 
Q 2425 2703 2258 2804 
Q 2091 2906 1866 2906 
Q 1506 2906 1245 2678 
Q 984 2450 984 1813 
L 984 0 
L 422 0 
z
" id="ArialMT-6e" transform="scale(0.015625)"/>
       </defs>
       <use xlink:href="#ArialMT-4d"/>
       <use x="83.300781" xlink:href="#ArialMT-61"/>
       <use x="138.916016" xlink:href="#ArialMT-73"/>
       <use x="188.916016" xlink:href="#ArialMT-74"/>
       <use x="216.699219" xlink:href="#ArialMT-65"/>
       <use x="272.314453" xlink:href="#ArialMT-72"/>
       <use x="305.615234" xlink:href="#ArialMT-27"/>
       <use x="324.707031" xlink:href="#ArialMT-73"/>
       <use x="374.707031" xlink:href="#ArialMT-20"/>
       <use x="402.490234" xlink:href="#ArialMT-6f"/>
       <use x="458.105469" xlink:href="#ArialMT-72"/>
       <use x="491.40625" xlink:href="#ArialMT-20"/>
       <use x="519.189453" xlink:href="#ArialMT-50"/>
       <use x="585.888672" xlink:href="#ArialMT-72"/>
       <use x="619.189453" xlink:href="#ArialMT-6f"/>
       <use x="674.804688" xlink:href="#ArialMT-66"/>
       <use x="702.587891" xlink:href="#ArialMT-65"/>
       <use x="758.203125" xlink:href="#ArialMT-73"/>
       <use x="808.203125" xlink:href="#ArialMT-73"/>
       <use x="858.203125" xlink:href="#ArialMT-69"/>
       <use x="880.419922" xlink:href="#ArialMT-6f"/>
       <use x="936.035156" xlink:href="#ArialMT-6e"/>
       <use x="991.650391" xlink:href="#ArialMT-61"/>
       <use x="1047.265625" xlink:href="#ArialMT-6c"/>
       <use x="1069.482422" xlink:href="#ArialMT-20"/>
       <use x="1097.265625" xlink:href="#ArialMT-44"/>
       <use x="1169.482422" xlink:href="#ArialMT-65"/>
       <use x="1225.097656" xlink:href="#ArialMT-67"/>
       <use x="1280.712891" xlink:href="#ArialMT-72"/>
       <use x="1314.013672" xlink:href="#ArialMT-65"/>
       <use x="1369.628906" xlink:href="#ArialMT-65"/>
      </g>
     </g>
    </g>
    <g id="xtick_5">
     <g id="text_5">
      <!-- PhD -->
      <g style="fill:#262626;" transform="translate(699.940781 395.373594)scale(0.11 -0.11)">
       <use xlink:href="#ArialMT-50"/>
       <use x="66.699219" xlink:href="#ArialMT-68"/>
       <use x="122.314453" xlink:href="#ArialMT-44"/>
      </g>
     </g>
    </g>
    <g id="text_6">
     <!-- Education -->
     <g style="fill:#262626;" transform="translate(416.115 410.412188)scale(0.12 -0.12)">
      <defs>
       <path d="M 506 0 
L 506 4581 
L 3819 4581 
L 3819 4041 
L 1113 4041 
L 1113 2638 
L 3647 2638 
L 3647 2100 
L 1113 2100 
L 1113 541 
L 3925 541 
L 3925 0 
L 506 0 
z
" id="ArialMT-45" transform="scale(0.015625)"/>
       <path d="M 2575 0 
L 2575 419 
Q 2259 -75 1647 -75 
Q 1250 -75 917 144 
Q 584 363 401 755 
Q 219 1147 219 1656 
Q 219 2153 384 2558 
Q 550 2963 881 3178 
Q 1213 3394 1622 3394 
Q 1922 3394 2156 3267 
Q 2391 3141 2538 2938 
L 2538 4581 
L 3097 4581 
L 3097 0 
L 2575 0 
z
M 797 1656 
Q 797 1019 1065 703 
Q 1334 388 1700 388 
Q 2069 388 2326 689 
Q 2584 991 2584 1609 
Q 2584 2291 2321 2609 
Q 2059 2928 1675 2928 
Q 1300 2928 1048 2622 
Q 797 2316 797 1656 
z
" id="ArialMT-64" transform="scale(0.015625)"/>
       <path d="M 2597 0 
L 2597 488 
Q 2209 -75 1544 -75 
Q 1250 -75 995 37 
Q 741 150 617 320 
Q 494 491 444 738 
Q 409 903 409 1263 
L 409 3319 
L 972 3319 
L 972 1478 
Q 972 1038 1006 884 
Q 1059 663 1231 536 
Q 1403 409 1656 409 
Q 1909 409 2131 539 
Q 2353 669 2445 892 
Q 2538 1116 2538 1541 
L 2538 3319 
L 3100 3319 
L 3100 0 
L 2597 0 
z
" id="ArialMT-75" transform="scale(0.015625)"/>
      </defs>
      <use xlink:href="#ArialMT-45"/>
      <use x="66.699219" xlink:href="#ArialMT-64"/>
      <use x="122.314453" xlink:href="#ArialMT-75"/>
      <use x="177.929688" xlink:href="#ArialMT-63"/>
      <use x="227.929688" xlink:href="#ArialMT-61"/>
      <use x="283.544922" xlink:href="#ArialMT-74"/>
      <use x="311.328125" xlink:href="#ArialMT-69"/>
      <use x="333.544922" xlink:href="#ArialMT-6f"/>
      <use x="389.160156" xlink:href="#ArialMT-6e"/>
     </g>
    </g>
   </g>
   <g id="matplotlib.axis_2">
    <g id="ytick_1">
     <g id="line2d_1">
      <path clip-path="url(#pf2f57108d2)" d="M 108 321.663273 
L 777.6 321.663273 
" style="fill:none;stroke:#ffffff;stroke-linecap:round;"/>
     </g>
     <g id="text_7">
      <!-- 100 -->
      <g style="fill:#262626;" transform="translate(80.148906 325.60007)scale(0.11 -0.11)">
       <defs>
        <path d="M 2384 0 
L 1822 0 
L 1822 3584 
Q 1619 3391 1289 3197 
Q 959 3003 697 2906 
L 697 3450 
Q 1169 3672 1522 3987 
Q 1875 4303 2022 4600 
L 2384 4600 
L 2384 0 
z
" id="ArialMT-31" transform="scale(0.015625)"/>
        <path d="M 266 2259 
Q 266 3072 433 3567 
Q 600 4063 929 4331 
Q 1259 4600 1759 4600 
Q 2128 4600 2406 4451 
Q 2684 4303 2865 4023 
Q 3047 3744 3150 3342 
Q 3253 2941 3253 2259 
Q 3253 1453 3087 958 
Q 2922 463 2592 192 
Q 2263 -78 1759 -78 
Q 1097 -78 719 397 
Q 266 969 266 2259 
z
M 844 2259 
Q 844 1131 1108 757 
Q 1372 384 1759 384 
Q 2147 384 2411 759 
Q 2675 1134 2675 2259 
Q 2675 3391 2411 3762 
Q 2147 4134 1753 4134 
Q 1366 4134 1134 3806 
Q 844 3388 844 2259 
z
" id="ArialMT-30" transform="scale(0.015625)"/>
       </defs>
       <use xlink:href="#ArialMT-31"/>
       <use x="55.615234" xlink:href="#ArialMT-30"/>
       <use x="111.230469" xlink:href="#ArialMT-30"/>
      </g>
     </g>
    </g>
    <g id="ytick_2">
     <g id="line2d_2">
      <path clip-path="url(#pf2f57108d2)" d="M 108 262.361455 
L 777.6 262.361455 
" style="fill:none;stroke:#ffffff;stroke-linecap:round;"/>
     </g>
     <g id="text_8">
      <!-- 150 -->
      <g style="fill:#262626;" transform="translate(80.148906 266.298251)scale(0.11 -0.11)">
       <defs>
        <path d="M 266 1200 
L 856 1250 
Q 922 819 1161 601 
Q 1400 384 1738 384 
Q 2144 384 2425 690 
Q 2706 997 2706 1503 
Q 2706 1984 2436 2262 
Q 2166 2541 1728 2541 
Q 1456 2541 1237 2417 
Q 1019 2294 894 2097 
L 366 2166 
L 809 4519 
L 3088 4519 
L 3088 3981 
L 1259 3981 
L 1013 2750 
Q 1425 3038 1878 3038 
Q 2478 3038 2890 2622 
Q 3303 2206 3303 1553 
Q 3303 931 2941 478 
Q 2500 -78 1738 -78 
Q 1113 -78 717 272 
Q 322 622 266 1200 
z
" id="ArialMT-35" transform="scale(0.015625)"/>
       </defs>
       <use xlink:href="#ArialMT-31"/>
       <use x="55.615234" xlink:href="#ArialMT-35"/>
       <use x="111.230469" xlink:href="#ArialMT-30"/>
      </g>
     </g>
    </g>
    <g id="ytick_3">
     <g id="line2d_3">
      <path clip-path="url(#pf2f57108d2)" d="M 108 203.059636 
L 777.6 203.059636 
" style="fill:none;stroke:#ffffff;stroke-linecap:round;"/>
     </g>
     <g id="text_9">
      <!-- 200 -->
      <g style="fill:#262626;" transform="translate(80.148906 206.996433)scale(0.11 -0.11)">
       <defs>
        <path d="M 3222 541 
L 3222 0 
L 194 0 
Q 188 203 259 391 
Q 375 700 629 1000 
Q 884 1300 1366 1694 
Q 2113 2306 2375 2664 
Q 2638 3022 2638 3341 
Q 2638 3675 2398 3904 
Q 2159 4134 1775 4134 
Q 1369 4134 1125 3890 
Q 881 3647 878 3216 
L 300 3275 
Q 359 3922 746 4261 
Q 1134 4600 1788 4600 
Q 2447 4600 2831 4234 
Q 3216 3869 3216 3328 
Q 3216 3053 3103 2787 
Q 2991 2522 2730 2228 
Q 2469 1934 1863 1422 
Q 1356 997 1212 845 
Q 1069 694 975 541 
L 3222 541 
z
" id="ArialMT-32" transform="scale(0.015625)"/>
       </defs>
       <use xlink:href="#ArialMT-32"/>
       <use x="55.615234" xlink:href="#ArialMT-30"/>
       <use x="111.230469" xlink:href="#ArialMT-30"/>
      </g>
     </g>
    </g>
    <g id="ytick_4">
     <g id="line2d_4">
      <path clip-path="url(#pf2f57108d2)" d="M 108 143.757818 
L 777.6 143.757818 
" style="fill:none;stroke:#ffffff;stroke-linecap:round;"/>
     </g>
     <g id="text_10">
      <!-- 250 -->
      <g style="fill:#262626;" transform="translate(80.148906 147.694615)scale(0.11 -0.11)">
       <use xlink:href="#ArialMT-32"/>
       <use x="55.615234" xlink:href="#ArialMT-35"/>
       <use x="111.230469" xlink:href="#ArialMT-30"/>
      </g>
     </g>
    </g>
    <g id="ytick_5">
     <g id="line2d_5">
      <path clip-path="url(#pf2f57108d2)" d="M 108 84.456 
L 777.6 84.456 
" style="fill:none;stroke:#ffffff;stroke-linecap:round;"/>
     </g>
     <g id="text_11">
      <!-- 300 -->
      <g style="fill:#262626;" transform="translate(80.148906 88.392797)scale(0.11 -0.11)">
       <defs>
        <path d="M 269 1209 
L 831 1284 
Q 928 806 1161 595 
Q 1394 384 1728 384 
Q 2125 384 2398 659 
Q 2672 934 2672 1341 
Q 2672 1728 2419 1979 
Q 2166 2231 1775 2231 
Q 1616 2231 1378 2169 
L 1441 2663 
Q 1497 2656 1531 2656 
Q 1891 2656 2178 2843 
Q 2466 3031 2466 3422 
Q 2466 3731 2256 3934 
Q 2047 4138 1716 4138 
Q 1388 4138 1169 3931 
Q 950 3725 888 3313 
L 325 3413 
Q 428 3978 793 4289 
Q 1159 4600 1703 4600 
Q 2078 4600 2393 4439 
Q 2709 4278 2876 4000 
Q 3044 3722 3044 3409 
Q 3044 3113 2884 2869 
Q 2725 2625 2413 2481 
Q 2819 2388 3044 2092 
Q 3269 1797 3269 1353 
Q 3269 753 2831 336 
Q 2394 -81 1725 -81 
Q 1122 -81 723 278 
Q 325 638 269 1209 
z
" id="ArialMT-33" transform="scale(0.015625)"/>
       </defs>
       <use xlink:href="#ArialMT-33"/>
       <use x="55.615234" xlink:href="#ArialMT-30"/>
       <use x="111.230469" xlink:href="#ArialMT-30"/>
      </g>
     </g>
    </g>
    <g id="text_12">
     <!-- Annual income (thousands) -->
     <g style="fill:#262626;" transform="translate(73.623281 287.957812)rotate(-90)scale(0.12 -0.12)">
      <defs>
       <path d="M 422 0 
L 422 3319 
L 925 3319 
L 925 2853 
Q 1081 3097 1340 3245 
Q 1600 3394 1931 3394 
Q 2300 3394 2536 3241 
Q 2772 3088 2869 2813 
Q 3263 3394 3894 3394 
Q 4388 3394 4653 3120 
Q 4919 2847 4919 2278 
L 4919 0 
L 4359 0 
L 4359 2091 
Q 4359 2428 4304 2576 
Q 4250 2725 4106 2815 
Q 3963 2906 3769 2906 
Q 3419 2906 3187 2673 
Q 2956 2441 2956 1928 
L 2956 0 
L 2394 0 
L 2394 2156 
Q 2394 2531 2256 2718 
Q 2119 2906 1806 2906 
Q 1569 2906 1367 2781 
Q 1166 2656 1075 2415 
Q 984 2175 984 1722 
L 984 0 
L 422 0 
z
" id="ArialMT-6d" transform="scale(0.015625)"/>
       <path d="M 1497 -1347 
Q 1031 -759 709 28 
Q 388 816 388 1659 
Q 388 2403 628 3084 
Q 909 3875 1497 4659 
L 1900 4659 
Q 1522 4009 1400 3731 
Q 1209 3300 1100 2831 
Q 966 2247 966 1656 
Q 966 153 1900 -1347 
L 1497 -1347 
z
" id="ArialMT-28" transform="scale(0.015625)"/>
       <path d="M 791 -1347 
L 388 -1347 
Q 1322 153 1322 1656 
Q 1322 2244 1188 2822 
Q 1081 3291 891 3722 
Q 769 4003 388 4659 
L 791 4659 
Q 1378 3875 1659 3084 
Q 1900 2403 1900 1659 
Q 1900 816 1576 28 
Q 1253 -759 791 -1347 
z
" id="ArialMT-29" transform="scale(0.015625)"/>
      </defs>
      <use xlink:href="#ArialMT-41"/>
      <use x="66.699219" xlink:href="#ArialMT-6e"/>
      <use x="122.314453" xlink:href="#ArialMT-6e"/>
      <use x="177.929688" xlink:href="#ArialMT-75"/>
      <use x="233.544922" xlink:href="#ArialMT-61"/>
      <use x="289.160156" xlink:href="#ArialMT-6c"/>
      <use x="311.376953" xlink:href="#ArialMT-20"/>
      <use x="339.160156" xlink:href="#ArialMT-69"/>
      <use x="361.376953" xlink:href="#ArialMT-6e"/>
      <use x="416.992188" xlink:href="#ArialMT-63"/>
      <use x="466.992188" xlink:href="#ArialMT-6f"/>
      <use x="522.607422" xlink:href="#ArialMT-6d"/>
      <use x="605.908203" xlink:href="#ArialMT-65"/>
      <use x="661.523438" xlink:href="#ArialMT-20"/>
      <use x="689.306641" xlink:href="#ArialMT-28"/>
      <use x="722.607422" xlink:href="#ArialMT-74"/>
      <use x="750.390625" xlink:href="#ArialMT-68"/>
      <use x="806.005859" xlink:href="#ArialMT-6f"/>
      <use x="861.621094" xlink:href="#ArialMT-75"/>
      <use x="917.236328" xlink:href="#ArialMT-73"/>
      <use x="967.236328" xlink:href="#ArialMT-61"/>
      <use x="1022.851562" xlink:href="#ArialMT-6e"/>
      <use x="1078.466797" xlink:href="#ArialMT-64"/>
      <use x="1134.082031" xlink:href="#ArialMT-73"/>
      <use x="1184.082031" xlink:href="#ArialMT-29"/>
     </g>
    </g>
   </g>
   <g id="PolyCollection_1">
    <defs>
     <path d="M 178.09658 -110.336727 
L 171.82342 -110.336727 
L 171.791809 -111.055537 
L 171.763959 -111.774347 
L 171.739968 -112.493157 
L 171.719921 -113.211967 
L 171.703888 -113.930777 
L 171.691922 -114.649587 
L 171.684061 -115.368397 
L 171.680327 -116.087207 
L 171.680723 -116.806017 
L 171.685238 -117.524826 
L 171.693844 -118.243636 
L 171.706493 -118.962446 
L 171.723126 -119.681256 
L 171.743663 -120.400066 
L 171.76801 -121.118876 
L 171.796057 -121.837686 
L 171.827682 -122.556496 
L 171.862744 -123.275306 
L 171.901091 -123.994116 
L 171.942561 -124.712926 
L 171.986975 -125.431736 
L 172.034146 -126.150545 
L 172.083878 -126.869355 
L 172.135963 -127.588165 
L 172.190188 -128.306975 
L 172.246332 -129.025785 
L 172.304168 -129.744595 
L 172.363466 -130.463405 
L 172.42399 -131.182215 
L 172.485505 -131.901025 
L 172.547772 -132.619835 
L 172.610553 -133.338645 
L 172.673612 -134.057455 
L 172.736714 -134.776264 
L 172.799627 -135.495074 
L 172.862125 -136.213884 
L 172.923985 -136.932694 
L 172.984992 -137.651504 
L 173.044936 -138.370314 
L 173.103616 -139.089124 
L 173.16084 -139.807934 
L 173.216424 -140.526744 
L 173.270196 -141.245554 
L 173.321992 -141.964364 
L 173.371661 -142.683174 
L 173.419063 -143.401983 
L 173.46407 -144.120793 
L 173.506566 -144.839603 
L 173.546449 -145.558413 
L 173.583628 -146.277223 
L 173.618027 -146.996033 
L 173.649583 -147.714843 
L 173.678245 -148.433653 
L 173.703977 -149.152463 
L 173.726755 -149.871273 
L 173.746571 -150.590083 
L 173.763426 -151.308893 
L 173.777339 -152.027702 
L 173.788338 -152.746512 
L 173.796466 -153.465322 
L 173.801776 -154.184132 
L 173.804335 -154.902942 
L 173.804222 -155.621752 
L 173.801525 -156.340562 
L 173.796344 -157.059372 
L 173.788789 -157.778182 
L 173.77898 -158.496992 
L 173.767046 -159.215802 
L 173.753124 -159.934612 
L 173.737359 -160.653421 
L 173.719904 -161.372231 
L 173.700916 -162.091041 
L 173.680561 -162.809851 
L 173.659007 -163.528661 
L 173.636427 -164.247471 
L 173.612999 -164.966281 
L 173.5889 -165.685091 
L 173.564313 -166.403901 
L 173.539417 -167.122711 
L 173.514394 -167.841521 
L 173.489423 -168.560331 
L 173.464684 -169.27914 
L 173.44035 -169.99795 
L 173.416594 -170.71676 
L 173.393583 -171.43557 
L 173.371479 -172.15438 
L 173.350436 -172.87319 
L 173.330605 -173.592 
L 173.312125 -174.31081 
L 173.29513 -175.02962 
L 173.279744 -175.74843 
L 173.266081 -176.46724 
L 173.254245 -177.18605 
L 173.24433 -177.90486 
L 173.236419 -178.623669 
L 173.230584 -179.342479 
L 173.226884 -180.061289 
L 173.225369 -180.780099 
L 173.226073 -181.498909 
L 176.693927 -181.498909 
L 176.693927 -181.498909 
L 176.694631 -180.780099 
L 176.693116 -180.061289 
L 176.689416 -179.342479 
L 176.683581 -178.623669 
L 176.67567 -177.90486 
L 176.665755 -177.18605 
L 176.653919 -176.46724 
L 176.640256 -175.74843 
L 176.62487 -175.02962 
L 176.607875 -174.31081 
L 176.589395 -173.592 
L 176.569564 -172.87319 
L 176.548521 -172.15438 
L 176.526417 -171.43557 
L 176.503406 -170.71676 
L 176.47965 -169.99795 
L 176.455316 -169.27914 
L 176.430577 -168.560331 
L 176.405606 -167.841521 
L 176.380583 -167.122711 
L 176.355687 -166.403901 
L 176.3311 -165.685091 
L 176.307001 -164.966281 
L 176.283573 -164.247471 
L 176.260993 -163.528661 
L 176.239439 -162.809851 
L 176.219084 -162.091041 
L 176.200096 -161.372231 
L 176.182641 -160.653421 
L 176.166876 -159.934612 
L 176.152954 -159.215802 
L 176.14102 -158.496992 
L 176.131211 -157.778182 
L 176.123656 -157.059372 
L 176.118475 -156.340562 
L 176.115778 -155.621752 
L 176.115665 -154.902942 
L 176.118224 -154.184132 
L 176.123534 -153.465322 
L 176.131662 -152.746512 
L 176.142661 -152.027702 
L 176.156574 -151.308893 
L 176.173429 -150.590083 
L 176.193245 -149.871273 
L 176.216023 -149.152463 
L 176.241755 -148.433653 
L 176.270417 -147.714843 
L 176.301973 -146.996033 
L 176.336372 -146.277223 
L 176.373551 -145.558413 
L 176.413434 -144.839603 
L 176.45593 -144.120793 
L 176.500937 -143.401983 
L 176.548339 -142.683174 
L 176.598008 -141.964364 
L 176.649804 -141.245554 
L 176.703576 -140.526744 
L 176.75916 -139.807934 
L 176.816384 -139.089124 
L 176.875064 -138.370314 
L 176.935008 -137.651504 
L 176.996015 -136.932694 
L 177.057875 -136.213884 
L 177.120373 -135.495074 
L 177.183286 -134.776264 
L 177.246388 -134.057455 
L 177.309447 -133.338645 
L 177.372228 -132.619835 
L 177.434495 -131.901025 
L 177.49601 -131.182215 
L 177.556534 -130.463405 
L 177.615832 -129.744595 
L 177.673668 -129.025785 
L 177.729812 -128.306975 
L 177.784037 -127.588165 
L 177.836122 -126.869355 
L 177.885854 -126.150545 
L 177.933025 -125.431736 
L 177.977439 -124.712926 
L 178.018909 -123.994116 
L 178.057256 -123.275306 
L 178.092318 -122.556496 
L 178.123943 -121.837686 
L 178.15199 -121.118876 
L 178.176337 -120.400066 
L 178.196874 -119.681256 
L 178.213507 -118.962446 
L 178.226156 -118.243636 
L 178.234762 -117.524826 
L 178.239277 -116.806017 
L 178.239673 -116.087207 
L 178.235939 -115.368397 
L 178.228078 -114.649587 
L 178.216112 -113.930777 
L 178.200079 -113.211967 
L 178.180032 -112.493157 
L 178.156041 -111.774347 
L 178.128191 -111.055537 
L 178.09658 -110.336727 
z
" id="m52989b82f3" style="stroke:#4c4c4c;stroke-width:1.5;"/>
    </defs>
    <g clip-path="url(#pf2f57108d2)">
     <use style="fill:#5875a4;stroke:#4c4c4c;stroke-width:1.5;" x="0" xlink:href="#m52989b82f3" y="432"/>
    </g>
   </g>
   <g id="PolyCollection_2">
    <defs>
     <path d="M 326.211799 -68.825455 
L 291.548201 -68.825455 
L 290.057913 -71.820496 
L 288.540584 -74.815537 
L 287 -77.810579 
L 285.438489 -80.80562 
L 283.856991 -83.800661 
L 282.255311 -86.795702 
L 280.632523 -89.790744 
L 278.987529 -92.785785 
L 277.319708 -95.780826 
L 275.629622 -98.775868 
L 273.919709 -101.770909 
L 272.1949 -104.76595 
L 270.463094 -107.760992 
L 268.735447 -110.756033 
L 267.026424 -113.751074 
L 265.353599 -116.746116 
L 263.737208 -119.741157 
L 262.199463 -122.736198 
L 260.763701 -125.73124 
L 259.453394 -128.726281 
L 258.291118 -131.721322 
L 257.297554 -134.716364 
L 256.49058 -137.711405 
L 255.884536 -140.706446 
L 255.489699 -143.701488 
L 255.312 -146.696529 
L 255.35298 -149.69157 
L 255.609986 -152.686612 
L 256.076554 -155.681653 
L 256.742944 -158.676694 
L 257.596768 -161.671736 
L 258.62365 -164.666777 
L 259.807871 -167.661818 
L 261.132945 -170.65686 
L 262.582111 -173.651901 
L 264.13871 -176.646942 
L 265.786445 -179.641983 
L 267.509546 -182.637025 
L 269.292846 -185.632066 
L 271.1218 -188.627107 
L 272.98247 -191.622149 
L 274.861498 -194.61719 
L 276.746089 -197.612231 
L 278.624019 -200.607273 
L 280.48366 -203.602314 
L 282.314035 -206.597355 
L 284.104892 -209.592397 
L 285.846778 -212.587438 
L 287.531111 -215.582479 
L 289.150243 -218.577521 
L 290.697496 -221.572562 
L 292.167174 -224.567603 
L 293.554558 -227.562645 
L 294.855876 -230.557686 
L 296.068265 -233.552727 
L 297.189729 -236.547769 
L 298.219104 -239.54281 
L 299.156038 -242.537851 
L 300.000979 -245.532893 
L 300.755186 -248.527934 
L 301.420752 -251.522975 
L 302.000629 -254.518017 
L 302.498655 -257.513058 
L 302.919559 -260.508099 
L 303.268949 -263.50314 
L 303.553261 -266.498182 
L 303.779662 -269.493223 
L 303.955926 -272.488264 
L 304.090242 -275.483306 
L 304.191011 -278.478347 
L 304.266593 -281.473388 
L 304.325052 -284.46843 
L 304.373899 -287.463471 
L 304.419844 -290.458512 
L 304.468591 -293.453554 
L 304.524669 -296.448595 
L 304.591327 -299.443636 
L 304.67049 -302.438678 
L 304.76279 -305.433719 
L 304.867656 -308.42876 
L 304.983476 -311.423802 
L 305.107797 -314.418843 
L 305.237579 -317.413884 
L 305.369458 -320.408926 
L 305.50002 -323.403967 
L 305.626062 -326.399008 
L 305.744821 -329.39405 
L 305.854166 -332.389091 
L 305.952725 -335.384132 
L 306.039968 -338.379174 
L 306.116208 -341.374215 
L 306.182556 -344.369256 
L 306.240814 -347.364298 
L 306.293325 -350.359339 
L 306.342787 -353.35438 
L 306.392061 -356.349421 
L 306.443961 -359.344463 
L 306.501066 -362.339504 
L 306.565557 -365.334545 
L 311.194443 -365.334545 
L 311.194443 -365.334545 
L 311.258934 -362.339504 
L 311.316039 -359.344463 
L 311.367939 -356.349421 
L 311.417213 -353.35438 
L 311.466675 -350.359339 
L 311.519186 -347.364298 
L 311.577444 -344.369256 
L 311.643792 -341.374215 
L 311.720032 -338.379174 
L 311.807275 -335.384132 
L 311.905834 -332.389091 
L 312.015179 -329.39405 
L 312.133938 -326.399008 
L 312.25998 -323.403967 
L 312.390542 -320.408926 
L 312.522421 -317.413884 
L 312.652203 -314.418843 
L 312.776524 -311.423802 
L 312.892344 -308.42876 
L 312.99721 -305.433719 
L 313.08951 -302.438678 
L 313.168673 -299.443636 
L 313.235331 -296.448595 
L 313.291409 -293.453554 
L 313.340156 -290.458512 
L 313.386101 -287.463471 
L 313.434948 -284.46843 
L 313.493407 -281.473388 
L 313.568989 -278.478347 
L 313.669758 -275.483306 
L 313.804074 -272.488264 
L 313.980338 -269.493223 
L 314.206739 -266.498182 
L 314.491051 -263.50314 
L 314.840441 -260.508099 
L 315.261345 -257.513058 
L 315.759371 -254.518017 
L 316.339248 -251.522975 
L 317.004814 -248.527934 
L 317.759021 -245.532893 
L 318.603962 -242.537851 
L 319.540896 -239.54281 
L 320.570271 -236.547769 
L 321.691735 -233.552727 
L 322.904124 -230.557686 
L 324.205442 -227.562645 
L 325.592826 -224.567603 
L 327.062504 -221.572562 
L 328.609757 -218.577521 
L 330.228889 -215.582479 
L 331.913222 -212.587438 
L 333.655108 -209.592397 
L 335.445965 -206.597355 
L 337.27634 -203.602314 
L 339.135981 -200.607273 
L 341.013911 -197.612231 
L 342.898502 -194.61719 
L 344.77753 -191.622149 
L 346.6382 -188.627107 
L 348.467154 -185.632066 
L 350.250454 -182.637025 
L 351.973555 -179.641983 
L 353.62129 -176.646942 
L 355.177889 -173.651901 
L 356.627055 -170.65686 
L 357.952129 -167.661818 
L 359.13635 -164.666777 
L 360.163232 -161.671736 
L 361.017056 -158.676694 
L 361.683446 -155.681653 
L 362.150014 -152.686612 
L 362.40702 -149.69157 
L 362.448 -146.696529 
L 362.270301 -143.701488 
L 361.875464 -140.706446 
L 361.26942 -137.711405 
L 360.462446 -134.716364 
L 359.468882 -131.721322 
L 358.306606 -128.726281 
L 356.996299 -125.73124 
L 355.560537 -122.736198 
L 354.022792 -119.741157 
L 352.406401 -116.746116 
L 350.733576 -113.751074 
L 349.024553 -110.756033 
L 347.296906 -107.760992 
L 345.5651 -104.76595 
L 343.840291 -101.770909 
L 342.130378 -98.775868 
L 340.440292 -95.780826 
L 338.772471 -92.785785 
L 337.127477 -89.790744 
L 335.504689 -86.795702 
L 333.903009 -83.800661 
L 332.321511 -80.80562 
L 330.76 -77.810579 
L 329.219416 -74.815537 
L 327.702087 -71.820496 
L 326.211799 -68.825455 
z
" id="m04f78911b8" style="stroke:#4c4c4c;stroke-width:1.5;"/>
    </defs>
    <g clip-path="url(#pf2f57108d2)">
     <use style="fill:#cc8963;stroke:#4c4c4c;stroke-width:1.5;" x="0" xlink:href="#m04f78911b8" y="432"/>
    </g>
   </g>
   <g id="PolyCollection_3">
    <defs>
     <path d="M 444.983134 -115.080873 
L 440.616866 -115.080873 
L 440.614454 -115.116813 
L 440.613551 -115.152754 
L 440.614138 -115.188694 
L 440.61619 -115.224635 
L 440.619677 -115.260575 
L 440.624565 -115.296516 
L 440.630816 -115.332456 
L 440.638387 -115.368397 
L 440.647229 -115.404337 
L 440.657292 -115.440278 
L 440.668521 -115.476218 
L 440.680855 -115.512159 
L 440.694233 -115.548099 
L 440.708587 -115.58404 
L 440.723849 -115.61998 
L 440.739946 -115.655921 
L 440.756804 -115.691861 
L 440.774345 -115.727802 
L 440.79249 -115.763742 
L 440.811157 -115.799683 
L 440.830264 -115.835623 
L 440.849727 -115.871564 
L 440.869462 -115.907504 
L 440.889382 -115.943445 
L 440.909402 -115.979385 
L 440.929437 -116.015326 
L 440.949401 -116.051266 
L 440.96921 -116.087207 
L 440.98878 -116.123147 
L 441.008029 -116.159088 
L 441.026876 -116.195028 
L 441.045243 -116.230969 
L 441.063052 -116.266909 
L 441.080231 -116.30285 
L 441.096708 -116.33879 
L 441.112414 -116.374731 
L 441.127285 -116.410671 
L 441.14126 -116.446612 
L 441.154281 -116.482552 
L 441.166295 -116.518493 
L 441.177252 -116.554433 
L 441.187107 -116.590374 
L 441.195821 -116.626314 
L 441.203356 -116.662255 
L 441.209684 -116.698195 
L 441.214777 -116.734136 
L 441.218616 -116.770076 
L 441.221183 -116.806017 
L 441.22247 -116.841957 
L 441.22247 -116.877898 
L 441.221183 -116.913838 
L 441.218616 -116.949779 
L 441.214777 -116.985719 
L 441.209684 -117.02166 
L 441.203356 -117.0576 
L 441.195821 -117.09354 
L 441.187107 -117.129481 
L 441.177252 -117.165421 
L 441.166295 -117.201362 
L 441.154281 -117.237302 
L 441.14126 -117.273243 
L 441.127285 -117.309183 
L 441.112414 -117.345124 
L 441.096708 -117.381064 
L 441.080231 -117.417005 
L 441.063052 -117.452945 
L 441.045243 -117.488886 
L 441.026876 -117.524826 
L 441.008029 -117.560767 
L 440.98878 -117.596707 
L 440.96921 -117.632648 
L 440.949401 -117.668588 
L 440.929437 -117.704529 
L 440.909402 -117.740469 
L 440.889382 -117.77641 
L 440.869462 -117.81235 
L 440.849727 -117.848291 
L 440.830264 -117.884231 
L 440.811157 -117.920172 
L 440.79249 -117.956112 
L 440.774345 -117.992053 
L 440.756804 -118.027993 
L 440.739946 -118.063934 
L 440.723849 -118.099874 
L 440.708587 -118.135815 
L 440.694233 -118.171755 
L 440.680855 -118.207696 
L 440.668521 -118.243636 
L 440.657292 -118.279577 
L 440.647229 -118.315517 
L 440.638387 -118.351458 
L 440.630816 -118.387398 
L 440.624565 -118.423339 
L 440.619677 -118.459279 
L 440.61619 -118.49522 
L 440.614138 -118.53116 
L 440.613551 -118.567101 
L 440.614454 -118.603041 
L 440.616866 -118.638982 
L 444.983134 -118.638982 
L 444.983134 -118.638982 
L 444.985546 -118.603041 
L 444.986449 -118.567101 
L 444.985862 -118.53116 
L 444.98381 -118.49522 
L 444.980323 -118.459279 
L 444.975435 -118.423339 
L 444.969184 -118.387398 
L 444.961613 -118.351458 
L 444.952771 -118.315517 
L 444.942708 -118.279577 
L 444.931479 -118.243636 
L 444.919145 -118.207696 
L 444.905767 -118.171755 
L 444.891413 -118.135815 
L 444.876151 -118.099874 
L 444.860054 -118.063934 
L 444.843196 -118.027993 
L 444.825655 -117.992053 
L 444.80751 -117.956112 
L 444.788843 -117.920172 
L 444.769736 -117.884231 
L 444.750273 -117.848291 
L 444.730538 -117.81235 
L 444.710618 -117.77641 
L 444.690598 -117.740469 
L 444.670563 -117.704529 
L 444.650599 -117.668588 
L 444.63079 -117.632648 
L 444.61122 -117.596707 
L 444.591971 -117.560767 
L 444.573124 -117.524826 
L 444.554757 -117.488886 
L 444.536948 -117.452945 
L 444.519769 -117.417005 
L 444.503292 -117.381064 
L 444.487586 -117.345124 
L 444.472715 -117.309183 
L 444.45874 -117.273243 
L 444.445719 -117.237302 
L 444.433705 -117.201362 
L 444.422748 -117.165421 
L 444.412893 -117.129481 
L 444.404179 -117.09354 
L 444.396644 -117.0576 
L 444.390316 -117.02166 
L 444.385223 -116.985719 
L 444.381384 -116.949779 
L 444.378817 -116.913838 
L 444.37753 -116.877898 
L 444.37753 -116.841957 
L 444.378817 -116.806017 
L 444.381384 -116.770076 
L 444.385223 -116.734136 
L 444.390316 -116.698195 
L 444.396644 -116.662255 
L 444.404179 -116.626314 
L 444.412893 -116.590374 
L 444.422748 -116.554433 
L 444.433705 -116.518493 
L 444.445719 -116.482552 
L 444.45874 -116.446612 
L 444.472715 -116.410671 
L 444.487586 -116.374731 
L 444.503292 -116.33879 
L 444.519769 -116.30285 
L 444.536948 -116.266909 
L 444.554757 -116.230969 
L 444.573124 -116.195028 
L 444.591971 -116.159088 
L 444.61122 -116.123147 
L 444.63079 -116.087207 
L 444.650599 -116.051266 
L 444.670563 -116.015326 
L 444.690598 -115.979385 
L 444.710618 -115.943445 
L 444.730538 -115.907504 
L 444.750273 -115.871564 
L 444.769736 -115.835623 
L 444.788843 -115.799683 
L 444.80751 -115.763742 
L 444.825655 -115.727802 
L 444.843196 -115.691861 
L 444.860054 -115.655921 
L 444.876151 -115.61998 
L 444.891413 -115.58404 
L 444.905767 -115.548099 
L 444.919145 -115.512159 
L 444.931479 -115.476218 
L 444.942708 -115.440278 
L 444.952771 -115.404337 
L 444.961613 -115.368397 
L 444.969184 -115.332456 
L 444.975435 -115.296516 
L 444.980323 -115.260575 
L 444.98381 -115.224635 
L 444.985862 -115.188694 
L 444.986449 -115.152754 
L 444.985546 -115.116813 
L 444.983134 -115.080873 
z
" id="m26ea1d5a4d" style="stroke:#4c4c4c;stroke-width:1.5;"/>
    </defs>
    <g clip-path="url(#pf2f57108d2)">
     <use style="fill:#5f9e6e;stroke:#4c4c4c;stroke-width:1.5;" x="0" xlink:href="#m26ea1d5a4d" y="432"/>
    </g>
   </g>
   <g id="PolyCollection_4">
    <defs>
     <path d="M 583.274559 -134.057455 
L 570.165441 -134.057455 
L 569.99227 -135.519035 
L 569.831617 -136.980615 
L 569.684425 -138.442195 
L 569.551539 -139.903775 
L 569.433702 -141.365355 
L 569.331542 -142.826936 
L 569.24557 -144.288516 
L 569.17617 -145.750096 
L 569.123597 -147.211676 
L 569.087976 -148.673256 
L 569.069299 -150.134836 
L 569.067429 -151.596417 
L 569.082099 -153.057997 
L 569.112921 -154.519577 
L 569.159388 -155.981157 
L 569.22088 -157.442737 
L 569.296678 -158.904317 
L 569.385969 -160.365898 
L 569.487859 -161.827478 
L 569.601383 -163.289058 
L 569.725517 -164.750638 
L 569.859195 -166.212218 
L 570.001317 -167.673798 
L 570.150766 -169.135379 
L 570.306417 -170.596959 
L 570.467158 -172.058539 
L 570.631892 -173.520119 
L 570.799558 -174.981699 
L 570.969137 -176.443279 
L 571.139664 -177.90486 
L 571.310237 -179.36644 
L 571.480024 -180.82802 
L 571.648268 -182.2896 
L 571.814296 -183.75118 
L 571.977518 -185.21276 
L 572.137431 -186.67434 
L 572.293616 -188.135921 
L 572.445742 -189.597501 
L 572.593559 -191.059081 
L 572.736895 -192.520661 
L 572.875651 -193.982241 
L 573.009792 -195.443821 
L 573.139344 -196.905402 
L 573.264382 -198.366982 
L 573.385023 -199.828562 
L 573.501414 -201.290142 
L 573.61373 -202.751722 
L 573.722154 -204.213302 
L 573.82688 -205.674883 
L 573.928094 -207.136463 
L 574.025973 -208.598043 
L 574.120678 -210.059623 
L 574.212343 -211.521203 
L 574.301075 -212.982783 
L 574.38695 -214.444364 
L 574.470007 -215.905944 
L 574.55025 -217.367524 
L 574.627646 -218.829104 
L 574.70213 -220.290684 
L 574.773601 -221.752264 
L 574.841929 -223.213845 
L 574.906961 -224.675425 
L 574.968521 -226.137005 
L 575.026422 -227.598585 
L 575.080464 -229.060165 
L 575.130449 -230.521745 
L 575.176184 -231.983326 
L 575.217486 -233.444906 
L 575.254191 -234.906486 
L 575.28616 -236.368066 
L 575.313287 -237.829646 
L 575.3355 -239.291226 
L 575.352768 -240.752807 
L 575.365108 -242.214387 
L 575.372582 -243.675967 
L 575.375306 -245.137547 
L 575.373445 -246.599127 
L 575.367217 -248.060707 
L 575.356893 -249.522288 
L 575.342792 -250.983868 
L 575.325281 -252.445448 
L 575.304769 -253.907028 
L 575.281705 -255.368608 
L 575.256572 -256.830188 
L 575.229879 -258.291769 
L 575.202158 -259.753349 
L 575.173954 -261.214929 
L 575.145818 -262.676509 
L 575.118302 -264.138089 
L 575.091947 -265.599669 
L 575.067282 -267.06125 
L 575.044808 -268.52283 
L 575.025001 -269.98441 
L 575.008295 -271.44599 
L 574.995086 -272.90757 
L 574.98572 -274.36915 
L 574.980492 -275.830731 
L 574.979642 -277.292311 
L 574.98335 -278.753891 
L 578.45665 -278.753891 
L 578.45665 -278.753891 
L 578.460358 -277.292311 
L 578.459508 -275.830731 
L 578.45428 -274.36915 
L 578.444914 -272.90757 
L 578.431705 -271.44599 
L 578.414999 -269.98441 
L 578.395192 -268.52283 
L 578.372718 -267.06125 
L 578.348053 -265.599669 
L 578.321698 -264.138089 
L 578.294182 -262.676509 
L 578.266046 -261.214929 
L 578.237842 -259.753349 
L 578.210121 -258.291769 
L 578.183428 -256.830188 
L 578.158295 -255.368608 
L 578.135231 -253.907028 
L 578.114719 -252.445448 
L 578.097208 -250.983868 
L 578.083107 -249.522288 
L 578.072783 -248.060707 
L 578.066555 -246.599127 
L 578.064694 -245.137547 
L 578.067418 -243.675967 
L 578.074892 -242.214387 
L 578.087232 -240.752807 
L 578.1045 -239.291226 
L 578.126713 -237.829646 
L 578.15384 -236.368066 
L 578.185809 -234.906486 
L 578.222514 -233.444906 
L 578.263816 -231.983326 
L 578.309551 -230.521745 
L 578.359536 -229.060165 
L 578.413578 -227.598585 
L 578.471479 -226.137005 
L 578.533039 -224.675425 
L 578.598071 -223.213845 
L 578.666399 -221.752264 
L 578.73787 -220.290684 
L 578.812354 -218.829104 
L 578.88975 -217.367524 
L 578.969993 -215.905944 
L 579.05305 -214.444364 
L 579.138925 -212.982783 
L 579.227657 -211.521203 
L 579.319322 -210.059623 
L 579.414027 -208.598043 
L 579.511906 -207.136463 
L 579.61312 -205.674883 
L 579.717846 -204.213302 
L 579.82627 -202.751722 
L 579.938586 -201.290142 
L 580.054977 -199.828562 
L 580.175618 -198.366982 
L 580.300656 -196.905402 
L 580.430208 -195.443821 
L 580.564349 -193.982241 
L 580.703105 -192.520661 
L 580.846441 -191.059081 
L 580.994258 -189.597501 
L 581.146384 -188.135921 
L 581.302569 -186.67434 
L 581.462482 -185.21276 
L 581.625704 -183.75118 
L 581.791732 -182.2896 
L 581.959976 -180.82802 
L 582.129763 -179.36644 
L 582.300336 -177.90486 
L 582.470863 -176.443279 
L 582.640442 -174.981699 
L 582.808108 -173.520119 
L 582.972842 -172.058539 
L 583.133583 -170.596959 
L 583.289234 -169.135379 
L 583.438683 -167.673798 
L 583.580805 -166.212218 
L 583.714483 -164.750638 
L 583.838617 -163.289058 
L 583.952141 -161.827478 
L 584.054031 -160.365898 
L 584.143322 -158.904317 
L 584.21912 -157.442737 
L 584.280612 -155.981157 
L 584.327079 -154.519577 
L 584.357901 -153.057997 
L 584.372571 -151.596417 
L 584.370701 -150.134836 
L 584.352024 -148.673256 
L 584.316403 -147.211676 
L 584.26383 -145.750096 
L 584.19443 -144.288516 
L 584.108458 -142.826936 
L 584.006298 -141.365355 
L 583.888461 -139.903775 
L 583.755575 -138.442195 
L 583.608383 -136.980615 
L 583.44773 -135.519035 
L 583.274559 -134.057455 
z
" id="m6a803723b3" style="stroke:#4c4c4c;stroke-width:1.5;"/>
    </defs>
    <g clip-path="url(#pf2f57108d2)">
     <use style="fill:#b55d60;stroke:#4c4c4c;stroke-width:1.5;" x="0" xlink:href="#m6a803723b3" y="432"/>
    </g>
   </g>
   <g id="PolyCollection_5">
    <defs>
     <path d="M 712.292992 -86.616 
L 708.987008 -86.616 
L 708.986943 -87.814017 
L 708.988855 -89.012033 
L 708.992718 -90.21005 
L 708.998496 -91.408066 
L 709.006147 -92.606083 
L 709.015617 -93.804099 
L 709.026843 -95.002116 
L 709.039756 -96.200132 
L 709.054275 -97.398149 
L 709.070315 -98.596165 
L 709.08778 -99.794182 
L 709.106567 -100.992198 
L 709.126568 -102.190215 
L 709.147668 -103.388231 
L 709.169743 -104.586248 
L 709.192667 -105.784264 
L 709.216308 -106.982281 
L 709.240528 -108.180298 
L 709.265187 -109.378314 
L 709.290142 -110.576331 
L 709.315245 -111.774347 
L 709.340347 -112.972364 
L 709.365298 -114.17038 
L 709.389946 -115.368397 
L 709.41414 -116.566413 
L 709.437728 -117.76443 
L 709.460559 -118.962446 
L 709.482485 -120.160463 
L 709.503357 -121.358479 
L 709.523031 -122.556496 
L 709.541365 -123.754512 
L 709.558221 -124.952529 
L 709.573465 -126.150545 
L 709.586969 -127.348562 
L 709.598608 -128.546579 
L 709.608263 -129.744595 
L 709.615824 -130.942612 
L 709.621184 -132.140628 
L 709.624244 -133.338645 
L 709.624915 -134.536661 
L 709.623113 -135.734678 
L 709.618764 -136.932694 
L 709.611802 -138.130711 
L 709.602169 -139.328727 
L 709.589819 -140.526744 
L 709.574714 -141.72476 
L 709.556826 -142.922777 
L 709.536138 -144.120793 
L 709.512644 -145.31881 
L 709.486347 -146.516826 
L 709.457263 -147.714843 
L 709.425418 -148.91286 
L 709.390849 -150.110876 
L 709.353607 -151.308893 
L 709.313752 -152.506909 
L 709.271356 -153.704926 
L 709.226502 -154.902942 
L 709.179287 -156.100959 
L 709.129816 -157.298975 
L 709.078207 -158.496992 
L 709.02459 -159.695008 
L 708.969103 -160.893025 
L 708.911897 -162.091041 
L 708.853131 -163.289058 
L 708.792975 -164.487074 
L 708.731607 -165.685091 
L 708.669214 -166.883107 
L 708.60599 -168.081124 
L 708.542139 -169.27914 
L 708.477868 -170.477157 
L 708.413391 -171.675174 
L 708.348927 -172.87319 
L 708.284699 -174.071207 
L 708.220932 -175.269223 
L 708.157854 -176.46724 
L 708.095694 -177.665256 
L 708.03468 -178.863273 
L 707.975039 -180.061289 
L 707.916997 -181.259306 
L 707.860776 -182.457322 
L 707.806591 -183.655339 
L 707.754656 -184.853355 
L 707.705175 -186.051372 
L 707.658346 -187.249388 
L 707.614356 -188.447405 
L 707.573385 -189.645421 
L 707.535601 -190.843438 
L 707.501161 -192.041455 
L 707.470208 -193.239471 
L 707.442872 -194.437488 
L 707.419272 -195.635504 
L 707.399508 -196.833521 
L 707.383668 -198.031537 
L 707.371824 -199.229554 
L 707.36403 -200.42757 
L 707.360327 -201.625587 
L 707.360736 -202.823603 
L 707.365264 -204.02162 
L 707.373901 -205.219636 
L 713.906099 -205.219636 
L 713.906099 -205.219636 
L 713.914736 -204.02162 
L 713.919264 -202.823603 
L 713.919673 -201.625587 
L 713.91597 -200.42757 
L 713.908176 -199.229554 
L 713.896332 -198.031537 
L 713.880492 -196.833521 
L 713.860728 -195.635504 
L 713.837128 -194.437488 
L 713.809792 -193.239471 
L 713.778839 -192.041455 
L 713.744399 -190.843438 
L 713.706615 -189.645421 
L 713.665644 -188.447405 
L 713.621654 -187.249388 
L 713.574825 -186.051372 
L 713.525344 -184.853355 
L 713.473409 -183.655339 
L 713.419224 -182.457322 
L 713.363003 -181.259306 
L 713.304961 -180.061289 
L 713.24532 -178.863273 
L 713.184306 -177.665256 
L 713.122146 -176.46724 
L 713.059068 -175.269223 
L 712.995301 -174.071207 
L 712.931073 -172.87319 
L 712.866609 -171.675174 
L 712.802132 -170.477157 
L 712.737861 -169.27914 
L 712.67401 -168.081124 
L 712.610786 -166.883107 
L 712.548393 -165.685091 
L 712.487025 -164.487074 
L 712.426869 -163.289058 
L 712.368103 -162.091041 
L 712.310897 -160.893025 
L 712.25541 -159.695008 
L 712.201793 -158.496992 
L 712.150184 -157.298975 
L 712.100713 -156.100959 
L 712.053498 -154.902942 
L 712.008644 -153.704926 
L 711.966248 -152.506909 
L 711.926393 -151.308893 
L 711.889151 -150.110876 
L 711.854582 -148.91286 
L 711.822737 -147.714843 
L 711.793653 -146.516826 
L 711.767356 -145.31881 
L 711.743862 -144.120793 
L 711.723174 -142.922777 
L 711.705286 -141.72476 
L 711.690181 -140.526744 
L 711.677831 -139.328727 
L 711.668198 -138.130711 
L 711.661236 -136.932694 
L 711.656887 -135.734678 
L 711.655085 -134.536661 
L 711.655756 -133.338645 
L 711.658816 -132.140628 
L 711.664176 -130.942612 
L 711.671737 -129.744595 
L 711.681392 -128.546579 
L 711.693031 -127.348562 
L 711.706535 -126.150545 
L 711.721779 -124.952529 
L 711.738635 -123.754512 
L 711.756969 -122.556496 
L 711.776643 -121.358479 
L 711.797515 -120.160463 
L 711.819441 -118.962446 
L 711.842272 -117.76443 
L 711.86586 -116.566413 
L 711.890054 -115.368397 
L 711.914702 -114.17038 
L 711.939653 -112.972364 
L 711.964755 -111.774347 
L 711.989858 -110.576331 
L 712.014813 -109.378314 
L 712.039472 -108.180298 
L 712.063692 -106.982281 
L 712.087333 -105.784264 
L 712.110257 -104.586248 
L 712.132332 -103.388231 
L 712.153432 -102.190215 
L 712.173433 -100.992198 
L 712.19222 -99.794182 
L 712.209685 -98.596165 
L 712.225725 -97.398149 
L 712.240244 -96.200132 
L 712.253157 -95.002116 
L 712.264383 -93.804099 
L 712.273853 -92.606083 
L 712.281504 -91.408066 
L 712.287282 -90.21005 
L 712.291145 -89.012033 
L 712.293057 -87.814017 
L 712.292992 -86.616 
z
" id="m50f2849571" style="stroke:#4c4c4c;stroke-width:1.5;"/>
    </defs>
    <g clip-path="url(#pf2f57108d2)">
     <use style="fill:#857aab;stroke:#4c4c4c;stroke-width:1.5;" x="0" xlink:href="#m50f2849571" y="432"/>
    </g>
   </g>
   <g id="line2d_6">
    <path clip-path="url(#pf2f57108d2)" d="M 171.713123 315.733091 
L 178.206877 315.733091 
" style="fill:none;stroke:#4c4c4c;stroke-dasharray:3.375,3.375;stroke-dashoffset:0;stroke-width:1.5;"/>
   </g>
   <g id="line2d_7">
    <path clip-path="url(#pf2f57108d2)" d="M 171.827697 309.802909 
L 178.092303 309.802909 
" style="fill:none;stroke:#4c4c4c;stroke-dasharray:6.75,6.75;stroke-dashoffset:0;stroke-width:1.5;"/>
   </g>
   <g id="line2d_8">
    <path clip-path="url(#pf2f57108d2)" d="M 173.789166 280.152 
L 176.130834 280.152 
" style="fill:none;stroke:#4c4c4c;stroke-dasharray:3.375,3.375;stroke-dashoffset:0;stroke-width:1.5;"/>
   </g>
   <g id="line2d_9">
    <path clip-path="url(#pf2f57108d2)" d="M 259.94766 303.872727 
L 357.81234 303.872727 
" style="fill:none;stroke:#4c4c4c;stroke-dasharray:3.375,3.375;stroke-dashoffset:0;stroke-width:1.5;"/>
   </g>
   <g id="line2d_10">
    <path clip-path="url(#pf2f57108d2)" d="M 255.84768 286.082182 
L 361.91232 286.082182 
" style="fill:none;stroke:#4c4c4c;stroke-dasharray:6.75,6.75;stroke-dashoffset:0;stroke-width:1.5;"/>
   </g>
   <g id="line2d_11">
    <path clip-path="url(#pf2f57108d2)" d="M 267.92325 250.501091 
L 349.83675 250.501091 
" style="fill:none;stroke:#4c4c4c;stroke-dasharray:3.375,3.375;stroke-dashoffset:0;stroke-width:1.5;"/>
   </g>
   <g id="line2d_12">
    <path clip-path="url(#pf2f57108d2)" d="M 440.928308 316.0296 
L 444.671692 316.0296 
" style="fill:none;stroke:#4c4c4c;stroke-dasharray:3.375,3.375;stroke-dashoffset:0;stroke-width:1.5;"/>
   </g>
   <g id="line2d_13">
    <path clip-path="url(#pf2f57108d2)" d="M 441.238245 315.140073 
L 444.361755 315.140073 
" style="fill:none;stroke:#4c4c4c;stroke-dasharray:6.75,6.75;stroke-dashoffset:0;stroke-width:1.5;"/>
   </g>
   <g id="line2d_14">
    <path clip-path="url(#pf2f57108d2)" d="M 440.928308 314.250545 
L 444.671692 314.250545 
" style="fill:none;stroke:#4c4c4c;stroke-dasharray:3.375,3.375;stroke-dashoffset:0;stroke-width:1.5;"/>
   </g>
   <g id="line2d_15">
    <path clip-path="url(#pf2f57108d2)" d="M 569.405427 289.047273 
L 584.034573 289.047273 
" style="fill:none;stroke:#4c4c4c;stroke-dasharray:3.375,3.375;stroke-dashoffset:0;stroke-width:1.5;"/>
   </g>
   <g id="line2d_16">
    <path clip-path="url(#pf2f57108d2)" d="M 569.672569 268.291636 
L 583.767431 268.291636 
" style="fill:none;stroke:#4c4c4c;stroke-dasharray:6.75,6.75;stroke-dashoffset:0;stroke-width:1.5;"/>
   </g>
   <g id="line2d_17">
    <path clip-path="url(#pf2f57108d2)" d="M 572.183256 244.92672 
L 581.256744 244.92672 
" style="fill:none;stroke:#4c4c4c;stroke-dasharray:3.375,3.375;stroke-dashoffset:0;stroke-width:1.5;"/>
   </g>
   <g id="line2d_18">
    <path clip-path="url(#pf2f57108d2)" d="M 709.567658 289.047273 
L 711.712342 289.047273 
" style="fill:none;stroke:#4c4c4c;stroke-dasharray:3.375,3.375;stroke-dashoffset:0;stroke-width:1.5;"/>
   </g>
   <g id="line2d_19">
    <path clip-path="url(#pf2f57108d2)" d="M 707.404506 232.710545 
L 713.875494 232.710545 
" style="fill:none;stroke:#4c4c4c;stroke-dasharray:6.75,6.75;stroke-dashoffset:0;stroke-width:1.5;"/>
   </g>
   <g id="line2d_20">
    <path clip-path="url(#pf2f57108d2)" d="M 707.393528 229.745455 
L 713.886472 229.745455 
" style="fill:none;stroke:#4c4c4c;stroke-dasharray:3.375,3.375;stroke-dashoffset:0;stroke-width:1.5;"/>
   </g>
   <g id="patch_3">
    <path d="M 108 378 
L 108 51.84 
" style="fill:none;stroke:#ffffff;stroke-linecap:square;stroke-linejoin:miter;stroke-width:1.25;"/>
   </g>
   <g id="patch_4">
    <path d="M 777.6 378 
L 777.6 51.84 
" style="fill:none;stroke:#ffffff;stroke-linecap:square;stroke-linejoin:miter;stroke-width:1.25;"/>
   </g>
   <g id="patch_5">
    <path d="M 108 378 
L 777.6 378 
" style="fill:none;stroke:#ffffff;stroke-linecap:square;stroke-linejoin:miter;stroke-width:1.25;"/>
   </g>
   <g id="patch_6">
    <path d="M 108 51.84 
L 777.6 51.84 
" style="fill:none;stroke:#ffffff;stroke-linecap:square;stroke-linejoin:miter;stroke-width:1.25;"/>
   </g>
   <g id="text_13">
    <!-- Compensation by Education -->
    <g style="fill:#262626;" transform="translate(367.757812 45.84)scale(0.12 -0.12)">
     <defs>
      <path d="M 3763 1606 
L 4369 1453 
Q 4178 706 3683 314 
Q 3188 -78 2472 -78 
Q 1731 -78 1267 223 
Q 803 525 561 1097 
Q 319 1669 319 2325 
Q 319 3041 592 3573 
Q 866 4106 1370 4382 
Q 1875 4659 2481 4659 
Q 3169 4659 3637 4309 
Q 4106 3959 4291 3325 
L 3694 3184 
Q 3534 3684 3231 3912 
Q 2928 4141 2469 4141 
Q 1941 4141 1586 3887 
Q 1231 3634 1087 3207 
Q 944 2781 944 2328 
Q 944 1744 1114 1308 
Q 1284 872 1643 656 
Q 2003 441 2422 441 
Q 2931 441 3284 734 
Q 3638 1028 3763 1606 
z
" id="ArialMT-43" transform="scale(0.015625)"/>
      <path d="M 422 -1272 
L 422 3319 
L 934 3319 
L 934 2888 
Q 1116 3141 1344 3267 
Q 1572 3394 1897 3394 
Q 2322 3394 2647 3175 
Q 2972 2956 3137 2557 
Q 3303 2159 3303 1684 
Q 3303 1175 3120 767 
Q 2938 359 2589 142 
Q 2241 -75 1856 -75 
Q 1575 -75 1351 44 
Q 1128 163 984 344 
L 984 -1272 
L 422 -1272 
z
M 931 1641 
Q 931 1000 1190 694 
Q 1450 388 1819 388 
Q 2194 388 2461 705 
Q 2728 1022 2728 1688 
Q 2728 2322 2467 2637 
Q 2206 2953 1844 2953 
Q 1484 2953 1207 2617 
Q 931 2281 931 1641 
z
" id="ArialMT-70" transform="scale(0.015625)"/>
      <path d="M 941 0 
L 419 0 
L 419 4581 
L 981 4581 
L 981 2947 
Q 1338 3394 1891 3394 
Q 2197 3394 2470 3270 
Q 2744 3147 2920 2923 
Q 3097 2700 3197 2384 
Q 3297 2069 3297 1709 
Q 3297 856 2875 390 
Q 2453 -75 1863 -75 
Q 1275 -75 941 416 
L 941 0 
z
M 934 1684 
Q 934 1088 1097 822 
Q 1363 388 1816 388 
Q 2184 388 2453 708 
Q 2722 1028 2722 1663 
Q 2722 2313 2464 2622 
Q 2206 2931 1841 2931 
Q 1472 2931 1203 2611 
Q 934 2291 934 1684 
z
" id="ArialMT-62" transform="scale(0.015625)"/>
      <path d="M 397 -1278 
L 334 -750 
Q 519 -800 656 -800 
Q 844 -800 956 -737 
Q 1069 -675 1141 -563 
Q 1194 -478 1313 -144 
Q 1328 -97 1363 -6 
L 103 3319 
L 709 3319 
L 1400 1397 
Q 1534 1031 1641 628 
Q 1738 1016 1872 1384 
L 2581 3319 
L 3144 3319 
L 1881 -56 
Q 1678 -603 1566 -809 
Q 1416 -1088 1222 -1217 
Q 1028 -1347 759 -1347 
Q 597 -1347 397 -1278 
z
" id="ArialMT-79" transform="scale(0.015625)"/>
     </defs>
     <use xlink:href="#ArialMT-43"/>
     <use x="72.216797" xlink:href="#ArialMT-6f"/>
     <use x="127.832031" xlink:href="#ArialMT-6d"/>
     <use x="211.132812" xlink:href="#ArialMT-70"/>
     <use x="266.748047" xlink:href="#ArialMT-65"/>
     <use x="322.363281" xlink:href="#ArialMT-6e"/>
     <use x="377.978516" xlink:href="#ArialMT-73"/>
     <use x="427.978516" xlink:href="#ArialMT-61"/>
     <use x="483.59375" xlink:href="#ArialMT-74"/>
     <use x="511.376953" xlink:href="#ArialMT-69"/>
     <use x="533.59375" xlink:href="#ArialMT-6f"/>
     <use x="589.208984" xlink:href="#ArialMT-6e"/>
     <use x="644.824219" xlink:href="#ArialMT-20"/>
     <use x="672.607422" xlink:href="#ArialMT-62"/>
     <use x="728.222656" xlink:href="#ArialMT-79"/>
     <use x="778.222656" xlink:href="#ArialMT-20"/>
     <use x="806.005859" xlink:href="#ArialMT-45"/>
     <use x="872.705078" xlink:href="#ArialMT-64"/>
     <use x="928.320312" xlink:href="#ArialMT-75"/>
     <use x="983.935547" xlink:href="#ArialMT-63"/>
     <use x="1033.935547" xlink:href="#ArialMT-61"/>
     <use x="1089.550781" xlink:href="#ArialMT-74"/>
     <use x="1117.333984" xlink:href="#ArialMT-69"/>
     <use x="1139.550781" xlink:href="#ArialMT-6f"/>
     <use x="1195.166016" xlink:href="#ArialMT-6e"/>
    </g>
   </g>
  </g>
 </g>
 <defs>
  <clipPath id="pf2f57108d2">
   <rect height="326.16" width="669.6" x="108" y="51.84"/>
  </clipPath>
 </defs>
</svg>
