<?xml version="1.0" encoding="utf-8" standalone="no"?>
<!DOCTYPE svg PUBLIC "-//W3C//DTD SVG 1.1//EN"
  "http://www.w3.org/Graphics/SVG/1.1/DTD/svg11.dtd">
<svg height="432pt" version="1.1" viewBox="0 0 864 432" width="864pt" xmlns="http://www.w3.org/2000/svg" xmlns:xlink="http://www.w3.org/1999/xlink">
 <metadata>
  <rdf:RDF xmlns:cc="http://creativecommons.org/ns#" xmlns:dc="http://purl.org/dc/elements/1.1/" xmlns:rdf="http://www.w3.org/1999/02/22-rdf-syntax-ns#">
   <cc:Work>
    <dc:type rdf:resource="http://purl.org/dc/dcmitype/StillImage"/>
    <dc:date>2022-01-07T22:02:15.587231</dc:date>
    <dc:format>image/svg+xml</dc:format>
    <dc:creator>
     <cc:Agent>
      <dc:title>Matplotlib v3.4.3, https://matplotlib.org/</dc:title>
     </cc:Agent>
    </dc:creator>
   </cc:Work>
  </rdf:RDF>
 </metadata>
 <defs>
  <style type="text/css">*{stroke-linecap:butt;stroke-linejoin:round;}</style>
 </defs>
 <g id="figure_1">
  <g id="patch_1">
   <path d="M 0 432 
L 864 432 
L 864 0 
L 0 0 
z
" style="fill:#ffffff;"/>
  </g>
  <g id="axes_1">
   <g id="patch_2">
    <path d="M 108 378 
L 777.6 378 
L 777.6 51.84 
L 108 51.84 
z
" style="fill:#eaeaf2;"/>
   </g>
   <g id="matplotlib.axis_1">
    <g id="xtick_1">
     <g id="line2d_1">
      <path clip-path="url(#p85e7beb2e6)" d="M 140.393438 378 
L 140.393438 51.84 
" style="fill:none;stroke:#ffffff;stroke-linecap:round;"/>
     </g>
     <g id="text_1">
      <!-- 35.0 -->
      <g style="fill:#262626;" transform="translate(129.689923 395.373594)scale(0.11 -0.11)">
       <defs>
        <path d="M 269 1209 
L 831 1284 
Q 928 806 1161 595 
Q 1394 384 1728 384 
Q 2125 384 2398 659 
Q 2672 934 2672 1341 
Q 2672 1728 2419 1979 
Q 2166 2231 1775 2231 
Q 1616 2231 1378 2169 
L 1441 2663 
Q 1497 2656 1531 2656 
Q 1891 2656 2178 2843 
Q 2466 3031 2466 3422 
Q 2466 3731 2256 3934 
Q 2047 4138 1716 4138 
Q 1388 4138 1169 3931 
Q 950 3725 888 3313 
L 325 3413 
Q 428 3978 793 4289 
Q 1159 4600 1703 4600 
Q 2078 4600 2393 4439 
Q 2709 4278 2876 4000 
Q 3044 3722 3044 3409 
Q 3044 3113 2884 2869 
Q 2725 2625 2413 2481 
Q 2819 2388 3044 2092 
Q 3269 1797 3269 1353 
Q 3269 753 2831 336 
Q 2394 -81 1725 -81 
Q 1122 -81 723 278 
Q 325 638 269 1209 
z
" id="ArialMT-33" transform="scale(0.015625)"/>
        <path d="M 266 1200 
L 856 1250 
Q 922 819 1161 601 
Q 1400 384 1738 384 
Q 2144 384 2425 690 
Q 2706 997 2706 1503 
Q 2706 1984 2436 2262 
Q 2166 2541 1728 2541 
Q 1456 2541 1237 2417 
Q 1019 2294 894 2097 
L 366 2166 
L 809 4519 
L 3088 4519 
L 3088 3981 
L 1259 3981 
L 1013 2750 
Q 1425 3038 1878 3038 
Q 2478 3038 2890 2622 
Q 3303 2206 3303 1553 
Q 3303 931 2941 478 
Q 2500 -78 1738 -78 
Q 1113 -78 717 272 
Q 322 622 266 1200 
z
" id="ArialMT-35" transform="scale(0.015625)"/>
        <path d="M 581 0 
L 581 641 
L 1222 641 
L 1222 0 
L 581 0 
z
" id="ArialMT-2e" transform="scale(0.015625)"/>
        <path d="M 266 2259 
Q 266 3072 433 3567 
Q 600 4063 929 4331 
Q 1259 4600 1759 4600 
Q 2128 4600 2406 4451 
Q 2684 4303 2865 4023 
Q 3047 3744 3150 3342 
Q 3253 2941 3253 2259 
Q 3253 1453 3087 958 
Q 2922 463 2592 192 
Q 2263 -78 1759 -78 
Q 1097 -78 719 397 
Q 266 969 266 2259 
z
M 844 2259 
Q 844 1131 1108 757 
Q 1372 384 1759 384 
Q 2147 384 2411 759 
Q 2675 1134 2675 2259 
Q 2675 3391 2411 3762 
Q 2147 4134 1753 4134 
Q 1366 4134 1134 3806 
Q 844 3388 844 2259 
z
" id="ArialMT-30" transform="scale(0.015625)"/>
       </defs>
       <use xlink:href="#ArialMT-33"/>
       <use x="55.615234" xlink:href="#ArialMT-35"/>
       <use x="111.230469" xlink:href="#ArialMT-2e"/>
       <use x="139.013672" xlink:href="#ArialMT-30"/>
      </g>
     </g>
    </g>
    <g id="xtick_2">
     <g id="line2d_2">
      <path clip-path="url(#p85e7beb2e6)" d="M 216.123955 378 
L 216.123955 51.84 
" style="fill:none;stroke:#ffffff;stroke-linecap:round;"/>
     </g>
     <g id="text_2">
      <!-- 37.5 -->
      <g style="fill:#262626;" transform="translate(205.420439 395.373594)scale(0.11 -0.11)">
       <defs>
        <path d="M 303 3981 
L 303 4522 
L 3269 4522 
L 3269 4084 
Q 2831 3619 2401 2847 
Q 1972 2075 1738 1259 
Q 1569 684 1522 0 
L 944 0 
Q 953 541 1156 1306 
Q 1359 2072 1739 2783 
Q 2119 3494 2547 3981 
L 303 3981 
z
" id="ArialMT-37" transform="scale(0.015625)"/>
       </defs>
       <use xlink:href="#ArialMT-33"/>
       <use x="55.615234" xlink:href="#ArialMT-37"/>
       <use x="111.230469" xlink:href="#ArialMT-2e"/>
       <use x="139.013672" xlink:href="#ArialMT-35"/>
      </g>
     </g>
    </g>
    <g id="xtick_3">
     <g id="line2d_3">
      <path clip-path="url(#p85e7beb2e6)" d="M 291.854472 378 
L 291.854472 51.84 
" style="fill:none;stroke:#ffffff;stroke-linecap:round;"/>
     </g>
     <g id="text_3">
      <!-- 40.0 -->
      <g style="fill:#262626;" transform="translate(281.150956 395.373594)scale(0.11 -0.11)">
       <defs>
        <path d="M 2069 0 
L 2069 1097 
L 81 1097 
L 81 1613 
L 2172 4581 
L 2631 4581 
L 2631 1613 
L 3250 1613 
L 3250 1097 
L 2631 1097 
L 2631 0 
L 2069 0 
z
M 2069 1613 
L 2069 3678 
L 634 1613 
L 2069 1613 
z
" id="ArialMT-34" transform="scale(0.015625)"/>
       </defs>
       <use xlink:href="#ArialMT-34"/>
       <use x="55.615234" xlink:href="#ArialMT-30"/>
       <use x="111.230469" xlink:href="#ArialMT-2e"/>
       <use x="139.013672" xlink:href="#ArialMT-30"/>
      </g>
     </g>
    </g>
    <g id="xtick_4">
     <g id="line2d_4">
      <path clip-path="url(#p85e7beb2e6)" d="M 367.584988 378 
L 367.584988 51.84 
" style="fill:none;stroke:#ffffff;stroke-linecap:round;"/>
     </g>
     <g id="text_4">
      <!-- 42.5 -->
      <g style="fill:#262626;" transform="translate(356.881473 395.373594)scale(0.11 -0.11)">
       <defs>
        <path d="M 3222 541 
L 3222 0 
L 194 0 
Q 188 203 259 391 
Q 375 700 629 1000 
Q 884 1300 1366 1694 
Q 2113 2306 2375 2664 
Q 2638 3022 2638 3341 
Q 2638 3675 2398 3904 
Q 2159 4134 1775 4134 
Q 1369 4134 1125 3890 
Q 881 3647 878 3216 
L 300 3275 
Q 359 3922 746 4261 
Q 1134 4600 1788 4600 
Q 2447 4600 2831 4234 
Q 3216 3869 3216 3328 
Q 3216 3053 3103 2787 
Q 2991 2522 2730 2228 
Q 2469 1934 1863 1422 
Q 1356 997 1212 845 
Q 1069 694 975 541 
L 3222 541 
z
" id="ArialMT-32" transform="scale(0.015625)"/>
       </defs>
       <use xlink:href="#ArialMT-34"/>
       <use x="55.615234" xlink:href="#ArialMT-32"/>
       <use x="111.230469" xlink:href="#ArialMT-2e"/>
       <use x="139.013672" xlink:href="#ArialMT-35"/>
      </g>
     </g>
    </g>
    <g id="xtick_5">
     <g id="line2d_5">
      <path clip-path="url(#p85e7beb2e6)" d="M 443.315505 378 
L 443.315505 51.84 
" style="fill:none;stroke:#ffffff;stroke-linecap:round;"/>
     </g>
     <g id="text_5">
      <!-- 45.0 -->
      <g style="fill:#262626;" transform="translate(432.611989 395.373594)scale(0.11 -0.11)">
       <use xlink:href="#ArialMT-34"/>
       <use x="55.615234" xlink:href="#ArialMT-35"/>
       <use x="111.230469" xlink:href="#ArialMT-2e"/>
       <use x="139.013672" xlink:href="#ArialMT-30"/>
      </g>
     </g>
    </g>
    <g id="xtick_6">
     <g id="line2d_6">
      <path clip-path="url(#p85e7beb2e6)" d="M 519.046021 378 
L 519.046021 51.84 
" style="fill:none;stroke:#ffffff;stroke-linecap:round;"/>
     </g>
     <g id="text_6">
      <!-- 47.5 -->
      <g style="fill:#262626;" transform="translate(508.342506 395.373594)scale(0.11 -0.11)">
       <use xlink:href="#ArialMT-34"/>
       <use x="55.615234" xlink:href="#ArialMT-37"/>
       <use x="111.230469" xlink:href="#ArialMT-2e"/>
       <use x="139.013672" xlink:href="#ArialMT-35"/>
      </g>
     </g>
    </g>
    <g id="xtick_7">
     <g id="line2d_7">
      <path clip-path="url(#p85e7beb2e6)" d="M 594.776538 378 
L 594.776538 51.84 
" style="fill:none;stroke:#ffffff;stroke-linecap:round;"/>
     </g>
     <g id="text_7">
      <!-- 50.0 -->
      <g style="fill:#262626;" transform="translate(584.073022 395.373594)scale(0.11 -0.11)">
       <use xlink:href="#ArialMT-35"/>
       <use x="55.615234" xlink:href="#ArialMT-30"/>
       <use x="111.230469" xlink:href="#ArialMT-2e"/>
       <use x="139.013672" xlink:href="#ArialMT-30"/>
      </g>
     </g>
    </g>
    <g id="xtick_8">
     <g id="line2d_8">
      <path clip-path="url(#p85e7beb2e6)" d="M 670.507054 378 
L 670.507054 51.84 
" style="fill:none;stroke:#ffffff;stroke-linecap:round;"/>
     </g>
     <g id="text_8">
      <!-- 52.5 -->
      <g style="fill:#262626;" transform="translate(659.803539 395.373594)scale(0.11 -0.11)">
       <use xlink:href="#ArialMT-35"/>
       <use x="55.615234" xlink:href="#ArialMT-32"/>
       <use x="111.230469" xlink:href="#ArialMT-2e"/>
       <use x="139.013672" xlink:href="#ArialMT-35"/>
      </g>
     </g>
    </g>
    <g id="xtick_9">
     <g id="line2d_9">
      <path clip-path="url(#p85e7beb2e6)" d="M 746.237571 378 
L 746.237571 51.84 
" style="fill:none;stroke:#ffffff;stroke-linecap:round;"/>
     </g>
     <g id="text_9">
      <!-- 55.0 -->
      <g style="fill:#262626;" transform="translate(735.534055 395.373594)scale(0.11 -0.11)">
       <use xlink:href="#ArialMT-35"/>
       <use x="55.615234" xlink:href="#ArialMT-35"/>
       <use x="111.230469" xlink:href="#ArialMT-2e"/>
       <use x="139.013672" xlink:href="#ArialMT-30"/>
      </g>
     </g>
    </g>
    <g id="text_10">
     <!-- Average Hours Per Week -->
     <g style="fill:#262626;" transform="translate(374.985938 410.149219)scale(0.12 -0.12)">
      <defs>
       <path d="M -9 0 
L 1750 4581 
L 2403 4581 
L 4278 0 
L 3588 0 
L 3053 1388 
L 1138 1388 
L 634 0 
L -9 0 
z
M 1313 1881 
L 2866 1881 
L 2388 3150 
Q 2169 3728 2063 4100 
Q 1975 3659 1816 3225 
L 1313 1881 
z
" id="ArialMT-41" transform="scale(0.015625)"/>
       <path d="M 1344 0 
L 81 3319 
L 675 3319 
L 1388 1331 
Q 1503 1009 1600 663 
Q 1675 925 1809 1294 
L 2547 3319 
L 3125 3319 
L 1869 0 
L 1344 0 
z
" id="ArialMT-76" transform="scale(0.015625)"/>
       <path d="M 2694 1069 
L 3275 997 
Q 3138 488 2766 206 
Q 2394 -75 1816 -75 
Q 1088 -75 661 373 
Q 234 822 234 1631 
Q 234 2469 665 2931 
Q 1097 3394 1784 3394 
Q 2450 3394 2872 2941 
Q 3294 2488 3294 1666 
Q 3294 1616 3291 1516 
L 816 1516 
Q 847 969 1125 678 
Q 1403 388 1819 388 
Q 2128 388 2347 550 
Q 2566 713 2694 1069 
z
M 847 1978 
L 2700 1978 
Q 2663 2397 2488 2606 
Q 2219 2931 1791 2931 
Q 1403 2931 1139 2672 
Q 875 2413 847 1978 
z
" id="ArialMT-65" transform="scale(0.015625)"/>
       <path d="M 416 0 
L 416 3319 
L 922 3319 
L 922 2816 
Q 1116 3169 1280 3281 
Q 1444 3394 1641 3394 
Q 1925 3394 2219 3213 
L 2025 2691 
Q 1819 2813 1613 2813 
Q 1428 2813 1281 2702 
Q 1134 2591 1072 2394 
Q 978 2094 978 1738 
L 978 0 
L 416 0 
z
" id="ArialMT-72" transform="scale(0.015625)"/>
       <path d="M 2588 409 
Q 2275 144 1986 34 
Q 1697 -75 1366 -75 
Q 819 -75 525 192 
Q 231 459 231 875 
Q 231 1119 342 1320 
Q 453 1522 633 1644 
Q 813 1766 1038 1828 
Q 1203 1872 1538 1913 
Q 2219 1994 2541 2106 
Q 2544 2222 2544 2253 
Q 2544 2597 2384 2738 
Q 2169 2928 1744 2928 
Q 1347 2928 1158 2789 
Q 969 2650 878 2297 
L 328 2372 
Q 403 2725 575 2942 
Q 747 3159 1072 3276 
Q 1397 3394 1825 3394 
Q 2250 3394 2515 3294 
Q 2781 3194 2906 3042 
Q 3031 2891 3081 2659 
Q 3109 2516 3109 2141 
L 3109 1391 
Q 3109 606 3145 398 
Q 3181 191 3288 0 
L 2700 0 
Q 2613 175 2588 409 
z
M 2541 1666 
Q 2234 1541 1622 1453 
Q 1275 1403 1131 1340 
Q 988 1278 909 1158 
Q 831 1038 831 891 
Q 831 666 1001 516 
Q 1172 366 1500 366 
Q 1825 366 2078 508 
Q 2331 650 2450 897 
Q 2541 1088 2541 1459 
L 2541 1666 
z
" id="ArialMT-61" transform="scale(0.015625)"/>
       <path d="M 319 -275 
L 866 -356 
Q 900 -609 1056 -725 
Q 1266 -881 1628 -881 
Q 2019 -881 2231 -725 
Q 2444 -569 2519 -288 
Q 2563 -116 2559 434 
Q 2191 0 1641 0 
Q 956 0 581 494 
Q 206 988 206 1678 
Q 206 2153 378 2554 
Q 550 2956 876 3175 
Q 1203 3394 1644 3394 
Q 2231 3394 2613 2919 
L 2613 3319 
L 3131 3319 
L 3131 450 
Q 3131 -325 2973 -648 
Q 2816 -972 2473 -1159 
Q 2131 -1347 1631 -1347 
Q 1038 -1347 672 -1080 
Q 306 -813 319 -275 
z
M 784 1719 
Q 784 1066 1043 766 
Q 1303 466 1694 466 
Q 2081 466 2343 764 
Q 2606 1063 2606 1700 
Q 2606 2309 2336 2618 
Q 2066 2928 1684 2928 
Q 1309 2928 1046 2623 
Q 784 2319 784 1719 
z
" id="ArialMT-67" transform="scale(0.015625)"/>
       <path id="ArialMT-20" transform="scale(0.015625)"/>
       <path d="M 513 0 
L 513 4581 
L 1119 4581 
L 1119 2700 
L 3500 2700 
L 3500 4581 
L 4106 4581 
L 4106 0 
L 3500 0 
L 3500 2159 
L 1119 2159 
L 1119 0 
L 513 0 
z
" id="ArialMT-48" transform="scale(0.015625)"/>
       <path d="M 213 1659 
Q 213 2581 725 3025 
Q 1153 3394 1769 3394 
Q 2453 3394 2887 2945 
Q 3322 2497 3322 1706 
Q 3322 1066 3130 698 
Q 2938 331 2570 128 
Q 2203 -75 1769 -75 
Q 1072 -75 642 372 
Q 213 819 213 1659 
z
M 791 1659 
Q 791 1022 1069 705 
Q 1347 388 1769 388 
Q 2188 388 2466 706 
Q 2744 1025 2744 1678 
Q 2744 2294 2464 2611 
Q 2184 2928 1769 2928 
Q 1347 2928 1069 2612 
Q 791 2297 791 1659 
z
" id="ArialMT-6f" transform="scale(0.015625)"/>
       <path d="M 2597 0 
L 2597 488 
Q 2209 -75 1544 -75 
Q 1250 -75 995 37 
Q 741 150 617 320 
Q 494 491 444 738 
Q 409 903 409 1263 
L 409 3319 
L 972 3319 
L 972 1478 
Q 972 1038 1006 884 
Q 1059 663 1231 536 
Q 1403 409 1656 409 
Q 1909 409 2131 539 
Q 2353 669 2445 892 
Q 2538 1116 2538 1541 
L 2538 3319 
L 3100 3319 
L 3100 0 
L 2597 0 
z
" id="ArialMT-75" transform="scale(0.015625)"/>
       <path d="M 197 991 
L 753 1078 
Q 800 744 1014 566 
Q 1228 388 1613 388 
Q 2000 388 2187 545 
Q 2375 703 2375 916 
Q 2375 1106 2209 1216 
Q 2094 1291 1634 1406 
Q 1016 1563 777 1677 
Q 538 1791 414 1992 
Q 291 2194 291 2438 
Q 291 2659 392 2848 
Q 494 3038 669 3163 
Q 800 3259 1026 3326 
Q 1253 3394 1513 3394 
Q 1903 3394 2198 3281 
Q 2494 3169 2634 2976 
Q 2775 2784 2828 2463 
L 2278 2388 
Q 2241 2644 2061 2787 
Q 1881 2931 1553 2931 
Q 1166 2931 1000 2803 
Q 834 2675 834 2503 
Q 834 2394 903 2306 
Q 972 2216 1119 2156 
Q 1203 2125 1616 2013 
Q 2213 1853 2448 1751 
Q 2684 1650 2818 1456 
Q 2953 1263 2953 975 
Q 2953 694 2789 445 
Q 2625 197 2315 61 
Q 2006 -75 1616 -75 
Q 969 -75 630 194 
Q 291 463 197 991 
z
" id="ArialMT-73" transform="scale(0.015625)"/>
       <path d="M 494 0 
L 494 4581 
L 2222 4581 
Q 2678 4581 2919 4538 
Q 3256 4481 3484 4323 
Q 3713 4166 3852 3881 
Q 3991 3597 3991 3256 
Q 3991 2672 3619 2267 
Q 3247 1863 2275 1863 
L 1100 1863 
L 1100 0 
L 494 0 
z
M 1100 2403 
L 2284 2403 
Q 2872 2403 3119 2622 
Q 3366 2841 3366 3238 
Q 3366 3525 3220 3729 
Q 3075 3934 2838 4000 
Q 2684 4041 2272 4041 
L 1100 4041 
L 1100 2403 
z
" id="ArialMT-50" transform="scale(0.015625)"/>
       <path d="M 1294 0 
L 78 4581 
L 700 4581 
L 1397 1578 
Q 1509 1106 1591 641 
Q 1766 1375 1797 1488 
L 2669 4581 
L 3400 4581 
L 4056 2263 
Q 4303 1400 4413 641 
Q 4500 1075 4641 1638 
L 5359 4581 
L 5969 4581 
L 4713 0 
L 4128 0 
L 3163 3491 
Q 3041 3928 3019 4028 
Q 2947 3713 2884 3491 
L 1913 0 
L 1294 0 
z
" id="ArialMT-57" transform="scale(0.015625)"/>
       <path d="M 425 0 
L 425 4581 
L 988 4581 
L 988 1969 
L 2319 3319 
L 3047 3319 
L 1778 2088 
L 3175 0 
L 2481 0 
L 1384 1697 
L 988 1316 
L 988 0 
L 425 0 
z
" id="ArialMT-6b" transform="scale(0.015625)"/>
      </defs>
      <use xlink:href="#ArialMT-41"/>
      <use x="64.949219" xlink:href="#ArialMT-76"/>
      <use x="114.949219" xlink:href="#ArialMT-65"/>
      <use x="170.564453" xlink:href="#ArialMT-72"/>
      <use x="203.865234" xlink:href="#ArialMT-61"/>
      <use x="259.480469" xlink:href="#ArialMT-67"/>
      <use x="315.095703" xlink:href="#ArialMT-65"/>
      <use x="370.710938" xlink:href="#ArialMT-20"/>
      <use x="398.494141" xlink:href="#ArialMT-48"/>
      <use x="470.710938" xlink:href="#ArialMT-6f"/>
      <use x="526.326172" xlink:href="#ArialMT-75"/>
      <use x="581.941406" xlink:href="#ArialMT-72"/>
      <use x="615.242188" xlink:href="#ArialMT-73"/>
      <use x="665.242188" xlink:href="#ArialMT-20"/>
      <use x="693.025391" xlink:href="#ArialMT-50"/>
      <use x="759.724609" xlink:href="#ArialMT-65"/>
      <use x="815.339844" xlink:href="#ArialMT-72"/>
      <use x="848.640625" xlink:href="#ArialMT-20"/>
      <use x="876.423828" xlink:href="#ArialMT-57"/>
      <use x="969.058594" xlink:href="#ArialMT-65"/>
      <use x="1024.673828" xlink:href="#ArialMT-65"/>
      <use x="1080.289062" xlink:href="#ArialMT-6b"/>
     </g>
    </g>
   </g>
   <g id="matplotlib.axis_2">
    <g id="ytick_1">
     <g id="line2d_10">
      <path clip-path="url(#p85e7beb2e6)" d="M 108 321.66453 
L 777.6 321.66453 
" style="fill:none;stroke:#ffffff;stroke-linecap:round;"/>
     </g>
     <g id="text_11">
      <!-- 100 -->
      <g style="fill:#262626;" transform="translate(80.148906 325.601327)scale(0.11 -0.11)">
       <defs>
        <path d="M 2384 0 
L 1822 0 
L 1822 3584 
Q 1619 3391 1289 3197 
Q 959 3003 697 2906 
L 697 3450 
Q 1169 3672 1522 3987 
Q 1875 4303 2022 4600 
L 2384 4600 
L 2384 0 
z
" id="ArialMT-31" transform="scale(0.015625)"/>
       </defs>
       <use xlink:href="#ArialMT-31"/>
       <use x="55.615234" xlink:href="#ArialMT-30"/>
       <use x="111.230469" xlink:href="#ArialMT-30"/>
      </g>
     </g>
    </g>
    <g id="ytick_2">
     <g id="line2d_11">
      <path clip-path="url(#p85e7beb2e6)" d="M 108 262.378414 
L 777.6 262.378414 
" style="fill:none;stroke:#ffffff;stroke-linecap:round;"/>
     </g>
     <g id="text_12">
      <!-- 150 -->
      <g style="fill:#262626;" transform="translate(80.148906 266.315211)scale(0.11 -0.11)">
       <use xlink:href="#ArialMT-31"/>
       <use x="55.615234" xlink:href="#ArialMT-35"/>
       <use x="111.230469" xlink:href="#ArialMT-30"/>
      </g>
     </g>
    </g>
    <g id="ytick_3">
     <g id="line2d_12">
      <path clip-path="url(#p85e7beb2e6)" d="M 108 203.092297 
L 777.6 203.092297 
" style="fill:none;stroke:#ffffff;stroke-linecap:round;"/>
     </g>
     <g id="text_13">
      <!-- 200 -->
      <g style="fill:#262626;" transform="translate(80.148906 207.029094)scale(0.11 -0.11)">
       <use xlink:href="#ArialMT-32"/>
       <use x="55.615234" xlink:href="#ArialMT-30"/>
       <use x="111.230469" xlink:href="#ArialMT-30"/>
      </g>
     </g>
    </g>
    <g id="ytick_4">
     <g id="line2d_13">
      <path clip-path="url(#p85e7beb2e6)" d="M 108 143.80618 
L 777.6 143.80618 
" style="fill:none;stroke:#ffffff;stroke-linecap:round;"/>
     </g>
     <g id="text_14">
      <!-- 250 -->
      <g style="fill:#262626;" transform="translate(80.148906 147.742977)scale(0.11 -0.11)">
       <use xlink:href="#ArialMT-32"/>
       <use x="55.615234" xlink:href="#ArialMT-35"/>
       <use x="111.230469" xlink:href="#ArialMT-30"/>
      </g>
     </g>
    </g>
    <g id="ytick_5">
     <g id="line2d_14">
      <path clip-path="url(#p85e7beb2e6)" d="M 108 84.520063 
L 777.6 84.520063 
" style="fill:none;stroke:#ffffff;stroke-linecap:round;"/>
     </g>
     <g id="text_15">
      <!-- 300 -->
      <g style="fill:#262626;" transform="translate(80.148906 88.45686)scale(0.11 -0.11)">
       <use xlink:href="#ArialMT-33"/>
       <use x="55.615234" xlink:href="#ArialMT-30"/>
       <use x="111.230469" xlink:href="#ArialMT-30"/>
      </g>
     </g>
    </g>
    <g id="text_16">
     <!-- Annual income (thousands) -->
     <g style="fill:#262626;" transform="translate(73.623281 287.957812)rotate(-90)scale(0.12 -0.12)">
      <defs>
       <path d="M 422 0 
L 422 3319 
L 928 3319 
L 928 2847 
Q 1294 3394 1984 3394 
Q 2284 3394 2536 3286 
Q 2788 3178 2913 3003 
Q 3038 2828 3088 2588 
Q 3119 2431 3119 2041 
L 3119 0 
L 2556 0 
L 2556 2019 
Q 2556 2363 2490 2533 
Q 2425 2703 2258 2804 
Q 2091 2906 1866 2906 
Q 1506 2906 1245 2678 
Q 984 2450 984 1813 
L 984 0 
L 422 0 
z
" id="ArialMT-6e" transform="scale(0.015625)"/>
       <path d="M 409 0 
L 409 4581 
L 972 4581 
L 972 0 
L 409 0 
z
" id="ArialMT-6c" transform="scale(0.015625)"/>
       <path d="M 425 3934 
L 425 4581 
L 988 4581 
L 988 3934 
L 425 3934 
z
M 425 0 
L 425 3319 
L 988 3319 
L 988 0 
L 425 0 
z
" id="ArialMT-69" transform="scale(0.015625)"/>
       <path d="M 2588 1216 
L 3141 1144 
Q 3050 572 2676 248 
Q 2303 -75 1759 -75 
Q 1078 -75 664 370 
Q 250 816 250 1647 
Q 250 2184 428 2587 
Q 606 2991 970 3192 
Q 1334 3394 1763 3394 
Q 2303 3394 2647 3120 
Q 2991 2847 3088 2344 
L 2541 2259 
Q 2463 2594 2264 2762 
Q 2066 2931 1784 2931 
Q 1359 2931 1093 2626 
Q 828 2322 828 1663 
Q 828 994 1084 691 
Q 1341 388 1753 388 
Q 2084 388 2306 591 
Q 2528 794 2588 1216 
z
" id="ArialMT-63" transform="scale(0.015625)"/>
       <path d="M 422 0 
L 422 3319 
L 925 3319 
L 925 2853 
Q 1081 3097 1340 3245 
Q 1600 3394 1931 3394 
Q 2300 3394 2536 3241 
Q 2772 3088 2869 2813 
Q 3263 3394 3894 3394 
Q 4388 3394 4653 3120 
Q 4919 2847 4919 2278 
L 4919 0 
L 4359 0 
L 4359 2091 
Q 4359 2428 4304 2576 
Q 4250 2725 4106 2815 
Q 3963 2906 3769 2906 
Q 3419 2906 3187 2673 
Q 2956 2441 2956 1928 
L 2956 0 
L 2394 0 
L 2394 2156 
Q 2394 2531 2256 2718 
Q 2119 2906 1806 2906 
Q 1569 2906 1367 2781 
Q 1166 2656 1075 2415 
Q 984 2175 984 1722 
L 984 0 
L 422 0 
z
" id="ArialMT-6d" transform="scale(0.015625)"/>
       <path d="M 1497 -1347 
Q 1031 -759 709 28 
Q 388 816 388 1659 
Q 388 2403 628 3084 
Q 909 3875 1497 4659 
L 1900 4659 
Q 1522 4009 1400 3731 
Q 1209 3300 1100 2831 
Q 966 2247 966 1656 
Q 966 153 1900 -1347 
L 1497 -1347 
z
" id="ArialMT-28" transform="scale(0.015625)"/>
       <path d="M 1650 503 
L 1731 6 
Q 1494 -44 1306 -44 
Q 1000 -44 831 53 
Q 663 150 594 308 
Q 525 466 525 972 
L 525 2881 
L 113 2881 
L 113 3319 
L 525 3319 
L 525 4141 
L 1084 4478 
L 1084 3319 
L 1650 3319 
L 1650 2881 
L 1084 2881 
L 1084 941 
Q 1084 700 1114 631 
Q 1144 563 1211 522 
Q 1278 481 1403 481 
Q 1497 481 1650 503 
z
" id="ArialMT-74" transform="scale(0.015625)"/>
       <path d="M 422 0 
L 422 4581 
L 984 4581 
L 984 2938 
Q 1378 3394 1978 3394 
Q 2347 3394 2619 3248 
Q 2891 3103 3008 2847 
Q 3125 2591 3125 2103 
L 3125 0 
L 2563 0 
L 2563 2103 
Q 2563 2525 2380 2717 
Q 2197 2909 1863 2909 
Q 1613 2909 1392 2779 
Q 1172 2650 1078 2428 
Q 984 2206 984 1816 
L 984 0 
L 422 0 
z
" id="ArialMT-68" transform="scale(0.015625)"/>
       <path d="M 2575 0 
L 2575 419 
Q 2259 -75 1647 -75 
Q 1250 -75 917 144 
Q 584 363 401 755 
Q 219 1147 219 1656 
Q 219 2153 384 2558 
Q 550 2963 881 3178 
Q 1213 3394 1622 3394 
Q 1922 3394 2156 3267 
Q 2391 3141 2538 2938 
L 2538 4581 
L 3097 4581 
L 3097 0 
L 2575 0 
z
M 797 1656 
Q 797 1019 1065 703 
Q 1334 388 1700 388 
Q 2069 388 2326 689 
Q 2584 991 2584 1609 
Q 2584 2291 2321 2609 
Q 2059 2928 1675 2928 
Q 1300 2928 1048 2622 
Q 797 2316 797 1656 
z
" id="ArialMT-64" transform="scale(0.015625)"/>
       <path d="M 791 -1347 
L 388 -1347 
Q 1322 153 1322 1656 
Q 1322 2244 1188 2822 
Q 1081 3291 891 3722 
Q 769 4003 388 4659 
L 791 4659 
Q 1378 3875 1659 3084 
Q 1900 2403 1900 1659 
Q 1900 816 1576 28 
Q 1253 -759 791 -1347 
z
" id="ArialMT-29" transform="scale(0.015625)"/>
      </defs>
      <use xlink:href="#ArialMT-41"/>
      <use x="66.699219" xlink:href="#ArialMT-6e"/>
      <use x="122.314453" xlink:href="#ArialMT-6e"/>
      <use x="177.929688" xlink:href="#ArialMT-75"/>
      <use x="233.544922" xlink:href="#ArialMT-61"/>
      <use x="289.160156" xlink:href="#ArialMT-6c"/>
      <use x="311.376953" xlink:href="#ArialMT-20"/>
      <use x="339.160156" xlink:href="#ArialMT-69"/>
      <use x="361.376953" xlink:href="#ArialMT-6e"/>
      <use x="416.992188" xlink:href="#ArialMT-63"/>
      <use x="466.992188" xlink:href="#ArialMT-6f"/>
      <use x="522.607422" xlink:href="#ArialMT-6d"/>
      <use x="605.908203" xlink:href="#ArialMT-65"/>
      <use x="661.523438" xlink:href="#ArialMT-20"/>
      <use x="689.306641" xlink:href="#ArialMT-28"/>
      <use x="722.607422" xlink:href="#ArialMT-74"/>
      <use x="750.390625" xlink:href="#ArialMT-68"/>
      <use x="806.005859" xlink:href="#ArialMT-6f"/>
      <use x="861.621094" xlink:href="#ArialMT-75"/>
      <use x="917.236328" xlink:href="#ArialMT-73"/>
      <use x="967.236328" xlink:href="#ArialMT-61"/>
      <use x="1022.851562" xlink:href="#ArialMT-6e"/>
      <use x="1078.466797" xlink:href="#ArialMT-64"/>
      <use x="1134.082031" xlink:href="#ArialMT-73"/>
      <use x="1184.082031" xlink:href="#ArialMT-29"/>
     </g>
    </g>
   </g>
   <g id="PathCollection_1">
    <defs>
     <path d="M 0 3 
C 0.795609 3 1.55874 2.683901 2.12132 2.12132 
C 2.683901 1.55874 3 0.795609 3 0 
C 3 -0.795609 2.683901 -1.55874 2.12132 -2.12132 
C 1.55874 -2.683901 0.795609 -3 0 -3 
C -0.795609 -3 -1.55874 -2.683901 -2.12132 -2.12132 
C -2.683901 -1.55874 -3 -0.795609 -3 0 
C -3 0.795609 -2.683901 1.55874 -2.12132 2.12132 
C -1.55874 2.683901 -0.795609 3 0 3 
z
" id="m885ee81813" style="stroke:#4c72b0;stroke-opacity:0.8;"/>
    </defs>
    <g clip-path="url(#p85e7beb2e6)">
     <use style="fill:#4c72b0;fill-opacity:0.8;stroke:#4c72b0;stroke-opacity:0.8;" x="291.032692" xlink:href="#m885ee81813" y="286.126676"/>
     <use style="fill:#4c72b0;fill-opacity:0.8;stroke:#4c72b0;stroke-opacity:0.8;" x="294.244083" xlink:href="#m885ee81813" y="297.910515"/>
     <use style="fill:#4c72b0;fill-opacity:0.8;stroke:#4c72b0;stroke-opacity:0.8;" x="292.943291" xlink:href="#m885ee81813" y="263.578106"/>
     <use style="fill:#4c72b0;fill-opacity:0.8;stroke:#4c72b0;stroke-opacity:0.8;" x="289.81838" xlink:href="#m885ee81813" y="303.952644"/>
     <use style="fill:#4c72b0;fill-opacity:0.8;stroke:#4c72b0;stroke-opacity:0.8;" x="140.740288" xlink:href="#m885ee81813" y="256.388134"/>
     <use style="fill:#4c72b0;fill-opacity:0.8;stroke:#4c72b0;stroke-opacity:0.8;" x="289.101218" xlink:href="#m885ee81813" y="286.100492"/>
     <use style="fill:#4c72b0;fill-opacity:0.8;stroke:#4c72b0;stroke-opacity:0.8;" x="293.082192" xlink:href="#m885ee81813" y="284.979357"/>
     <use style="fill:#4c72b0;fill-opacity:0.8;stroke:#4c72b0;stroke-opacity:0.8;" x="593.976328" xlink:href="#m885ee81813" y="363.174545"/>
     <use style="fill:#4c72b0;fill-opacity:0.8;stroke:#4c72b0;stroke-opacity:0.8;" x="595.340879" xlink:href="#m885ee81813" y="226.710554"/>
     <use style="fill:#4c72b0;fill-opacity:0.8;stroke:#4c72b0;stroke-opacity:0.8;" x="291.644598" xlink:href="#m885ee81813" y="244.587318"/>
     <use style="fill:#4c72b0;fill-opacity:0.8;stroke:#4c72b0;stroke-opacity:0.8;" x="289.688113" xlink:href="#m885ee81813" y="153.355893"/>
     <use style="fill:#4c72b0;fill-opacity:0.8;stroke:#4c72b0;stroke-opacity:0.8;" x="289.592221" xlink:href="#m885ee81813" y="307.384844"/>
     <use style="fill:#4c72b0;fill-opacity:0.8;stroke:#4c72b0;stroke-opacity:0.8;" x="290.343166" xlink:href="#m885ee81813" y="248.153121"/>
     <use style="fill:#4c72b0;fill-opacity:0.8;stroke:#4c72b0;stroke-opacity:0.8;" x="290.704832" xlink:href="#m885ee81813" y="125.943203"/>
     <use style="fill:#4c72b0;fill-opacity:0.8;stroke:#4c72b0;stroke-opacity:0.8;" x="290.978915" xlink:href="#m885ee81813" y="298.00371"/>
     <use style="fill:#4c72b0;fill-opacity:0.8;stroke:#4c72b0;stroke-opacity:0.8;" x="292.466343" xlink:href="#m885ee81813" y="357.259788"/>
     <use style="fill:#4c72b0;fill-opacity:0.8;stroke:#4c72b0;stroke-opacity:0.8;" x="594.188483" xlink:href="#m885ee81813" y="244.591059"/>
     <use style="fill:#4c72b0;fill-opacity:0.8;stroke:#4c72b0;stroke-opacity:0.8;" x="290.684783" xlink:href="#m885ee81813" y="66.665455"/>
     <use style="fill:#4c72b0;fill-opacity:0.8;stroke:#4c72b0;stroke-opacity:0.8;" x="384.261923" xlink:href="#m885ee81813" y="331.106081"/>
     <use style="fill:#4c72b0;fill-opacity:0.8;stroke:#4c72b0;stroke-opacity:0.8;" x="290.464687" xlink:href="#m885ee81813" y="264.736311"/>
     <use style="fill:#4c72b0;fill-opacity:0.8;stroke:#4c72b0;stroke-opacity:0.8;" x="293.997193" xlink:href="#m885ee81813" y="335.85142"/>
     <use style="fill:#4c72b0;fill-opacity:0.8;stroke:#4c72b0;stroke-opacity:0.8;" x="294.474424" xlink:href="#m885ee81813" y="313.394528"/>
     <use style="fill:#4c72b0;fill-opacity:0.8;stroke:#4c72b0;stroke-opacity:0.8;" x="294.860355" xlink:href="#m885ee81813" y="341.839996"/>
     <use style="fill:#4c72b0;fill-opacity:0.8;stroke:#4c72b0;stroke-opacity:0.8;" x="291.801481" xlink:href="#m885ee81813" y="333.570958"/>
     <use style="fill:#4c72b0;fill-opacity:0.8;stroke:#4c72b0;stroke-opacity:0.8;" x="289.384681" xlink:href="#m885ee81813" y="345.487862"/>
     <use style="fill:#4c72b0;fill-opacity:0.8;stroke:#4c72b0;stroke-opacity:0.8;" x="442.09575" xlink:href="#m885ee81813" y="250.518609"/>
     <use style="fill:#4c72b0;fill-opacity:0.8;stroke:#4c72b0;stroke-opacity:0.8;" x="445.294866" xlink:href="#m885ee81813" y="286.08186"/>
     <use style="fill:#4c72b0;fill-opacity:0.8;stroke:#4c72b0;stroke-opacity:0.8;" x="290.1015" xlink:href="#m885ee81813" y="256.4725"/>
     <use style="fill:#4c72b0;fill-opacity:0.8;stroke:#4c72b0;stroke-opacity:0.8;" x="290.699264" xlink:href="#m885ee81813" y="291.923506"/>
     <use style="fill:#4c72b0;fill-opacity:0.8;stroke:#4c72b0;stroke-opacity:0.8;" x="138.436364" xlink:href="#m885ee81813" y="345.306043"/>
     <use style="fill:#4c72b0;fill-opacity:0.8;stroke:#4c72b0;stroke-opacity:0.8;" x="143.211549" xlink:href="#m885ee81813" y="223.868022"/>
     <use style="fill:#4c72b0;fill-opacity:0.8;stroke:#4c72b0;stroke-opacity:0.8;" x="291.435492" xlink:href="#m885ee81813" y="286.036627"/>
     <use style="fill:#4c72b0;fill-opacity:0.8;stroke:#4c72b0;stroke-opacity:0.8;" x="292.031297" xlink:href="#m885ee81813" y="232.669562"/>
     <use style="fill:#4c72b0;fill-opacity:0.8;stroke:#4c72b0;stroke-opacity:0.8;" x="291.46796" xlink:href="#m885ee81813" y="292.038672"/>
     <use style="fill:#4c72b0;fill-opacity:0.8;stroke:#4c72b0;stroke-opacity:0.8;" x="415.692143" xlink:href="#m885ee81813" y="197.179037"/>
     <use style="fill:#4c72b0;fill-opacity:0.8;stroke:#4c72b0;stroke-opacity:0.8;" x="446.145839" xlink:href="#m885ee81813" y="321.711512"/>
     <use style="fill:#4c72b0;fill-opacity:0.8;stroke:#4c72b0;stroke-opacity:0.8;" x="288.892703" xlink:href="#m885ee81813" y="250.408637"/>
     <use style="fill:#4c72b0;fill-opacity:0.8;stroke:#4c72b0;stroke-opacity:0.8;" x="294.795025" xlink:href="#m885ee81813" y="303.858182"/>
     <use style="fill:#4c72b0;fill-opacity:0.8;stroke:#4c72b0;stroke-opacity:0.8;" x="290.329983" xlink:href="#m885ee81813" y="305.009784"/>
     <use style="fill:#4c72b0;fill-opacity:0.8;stroke:#4c72b0;stroke-opacity:0.8;" x="140.442526" xlink:href="#m885ee81813" y="225.518735"/>
     <use style="fill:#4c72b0;fill-opacity:0.8;stroke:#4c72b0;stroke-opacity:0.8;" x="293.705117" xlink:href="#m885ee81813" y="315.699645"/>
     <use style="fill:#4c72b0;fill-opacity:0.8;stroke:#4c72b0;stroke-opacity:0.8;" x="747.163636" xlink:href="#m885ee81813" y="289.711454"/>
     <use style="fill:#4c72b0;fill-opacity:0.8;stroke:#4c72b0;stroke-opacity:0.8;" x="441.42077" xlink:href="#m885ee81813" y="143.812939"/>
     <use style="fill:#4c72b0;fill-opacity:0.8;stroke:#4c72b0;stroke-opacity:0.8;" x="440.557855" xlink:href="#m885ee81813" y="280.26298"/>
     <use style="fill:#4c72b0;fill-opacity:0.8;stroke:#4c72b0;stroke-opacity:0.8;" x="291.378882" xlink:href="#m885ee81813" y="280.105833"/>
     <use style="fill:#4c72b0;fill-opacity:0.8;stroke:#4c72b0;stroke-opacity:0.8;" x="170.084859" xlink:href="#m885ee81813" y="220.96014"/>
     <use style="fill:#4c72b0;fill-opacity:0.8;stroke:#4c72b0;stroke-opacity:0.8;" x="140.209114" xlink:href="#m885ee81813" y="261.129172"/>
     <use style="fill:#4c72b0;fill-opacity:0.8;stroke:#4c72b0;stroke-opacity:0.8;" x="293.148183" xlink:href="#m885ee81813" y="297.998937"/>
     <use style="fill:#4c72b0;fill-opacity:0.8;stroke:#4c72b0;stroke-opacity:0.8;" x="294.162478" xlink:href="#m885ee81813" y="250.488902"/>
     <use style="fill:#4c72b0;fill-opacity:0.8;stroke:#4c72b0;stroke-opacity:0.8;" x="290.418466" xlink:href="#m885ee81813" y="286.197453"/>
     <use style="fill:#4c72b0;fill-opacity:0.8;stroke:#4c72b0;stroke-opacity:0.8;" x="291.315787" xlink:href="#m885ee81813" y="297.913272"/>
     <use style="fill:#4c72b0;fill-opacity:0.8;stroke:#4c72b0;stroke-opacity:0.8;" x="352.531008" xlink:href="#m885ee81813" y="309.910975"/>
     <use style="fill:#4c72b0;fill-opacity:0.8;stroke:#4c72b0;stroke-opacity:0.8;" x="442.006925" xlink:href="#m885ee81813" y="238.720932"/>
     <use style="fill:#4c72b0;fill-opacity:0.8;stroke:#4c72b0;stroke-opacity:0.8;" x="293.99425" xlink:href="#m885ee81813" y="353.639544"/>
     <use style="fill:#4c72b0;fill-opacity:0.8;stroke:#4c72b0;stroke-opacity:0.8;" x="289.404357" xlink:href="#m885ee81813" y="316.92399"/>
     <use style="fill:#4c72b0;fill-opacity:0.8;stroke:#4c72b0;stroke-opacity:0.8;" x="291.597381" xlink:href="#m885ee81813" y="203.119969"/>
     <use style="fill:#4c72b0;fill-opacity:0.8;stroke:#4c72b0;stroke-opacity:0.8;" x="143.106874" xlink:href="#m885ee81813" y="345.359547"/>
     <use style="fill:#4c72b0;fill-opacity:0.8;stroke:#4c72b0;stroke-opacity:0.8;" x="442.1194" xlink:href="#m885ee81813" y="268.24012"/>
     <use style="fill:#4c72b0;fill-opacity:0.8;stroke:#4c72b0;stroke-opacity:0.8;" x="288.85674" xlink:href="#m885ee81813" y="292.11443"/>
     <use style="fill:#4c72b0;fill-opacity:0.8;stroke:#4c72b0;stroke-opacity:0.8;" x="294.284547" xlink:href="#m885ee81813" y="268.417932"/>
     <use style="fill:#4c72b0;fill-opacity:0.8;stroke:#4c72b0;stroke-opacity:0.8;" x="293.923087" xlink:href="#m885ee81813" y="266.040594"/>
     <use style="fill:#4c72b0;fill-opacity:0.8;stroke:#4c72b0;stroke-opacity:0.8;" x="443.210822" xlink:href="#m885ee81813" y="300.303496"/>
     <use style="fill:#4c72b0;fill-opacity:0.8;stroke:#4c72b0;stroke-opacity:0.8;" x="294.798627" xlink:href="#m885ee81813" y="287.300482"/>
     <use style="fill:#4c72b0;fill-opacity:0.8;stroke:#4c72b0;stroke-opacity:0.8;" x="445.53413" xlink:href="#m885ee81813" y="232.652906"/>
     <use style="fill:#4c72b0;fill-opacity:0.8;stroke:#4c72b0;stroke-opacity:0.8;" x="289.962689" xlink:href="#m885ee81813" y="312.162749"/>
     <use style="fill:#4c72b0;fill-opacity:0.8;stroke:#4c72b0;stroke-opacity:0.8;" x="291.790087" xlink:href="#m885ee81813" y="309.789816"/>
     <use style="fill:#4c72b0;fill-opacity:0.8;stroke:#4c72b0;stroke-opacity:0.8;" x="293.386428" xlink:href="#m885ee81813" y="268.215436"/>
     <use style="fill:#4c72b0;fill-opacity:0.8;stroke:#4c72b0;stroke-opacity:0.8;" x="230.384923" xlink:href="#m885ee81813" y="241.024499"/>
    </g>
   </g>
   <g id="PolyCollection_1">
    <defs>
     <path d="M 140.393438 -179.678618 
L 140.393438 -130.496151 
L 146.513076 -131.206931 
L 152.632714 -131.667588 
L 158.752352 -132.265638 
L 164.871989 -133.192274 
L 170.991627 -134.073486 
L 177.111265 -134.793475 
L 183.230902 -135.50755 
L 189.35054 -136.143507 
L 195.470178 -136.888022 
L 201.589816 -137.558109 
L 207.709453 -138.031992 
L 213.829091 -138.396954 
L 219.948729 -138.810395 
L 226.068366 -139.376843 
L 232.188004 -140.009276 
L 238.307642 -140.422524 
L 244.427279 -140.709602 
L 250.546917 -141.017407 
L 256.666555 -141.466216 
L 262.786193 -141.887217 
L 268.90583 -142.303725 
L 275.025468 -142.67733 
L 281.145106 -143.008642 
L 287.264743 -143.380493 
L 293.384381 -143.686928 
L 299.504019 -143.776155 
L 305.623656 -143.949132 
L 311.743294 -144.290127 
L 317.862932 -144.347972 
L 323.98257 -144.534389 
L 330.102207 -144.214437 
L 336.221845 -143.953068 
L 342.341483 -143.738903 
L 348.46112 -143.647982 
L 354.580758 -143.596369 
L 360.700396 -143.147435 
L 366.820033 -142.811502 
L 372.939671 -142.474508 
L 379.059309 -142.007133 
L 385.178947 -141.79447 
L 391.298584 -141.52217 
L 397.418222 -141.134529 
L 403.53786 -140.975671 
L 409.657497 -140.578735 
L 415.777135 -139.931548 
L 421.896773 -139.506094 
L 428.01641 -139.203594 
L 434.136048 -139.037678 
L 440.255686 -138.529523 
L 446.375324 -137.924525 
L 452.494961 -137.312745 
L 458.614599 -136.616895 
L 464.734237 -136.100269 
L 470.853874 -135.498374 
L 476.973512 -134.915759 
L 483.09315 -134.472283 
L 489.212787 -134.032495 
L 495.332425 -133.592707 
L 501.452063 -133.152919 
L 507.571701 -132.752945 
L 513.691338 -132.34571 
L 519.810976 -131.845692 
L 525.930614 -131.362366 
L 532.050251 -130.815103 
L 538.169889 -130.264612 
L 544.289527 -129.534628 
L 550.409165 -128.777305 
L 556.528802 -128.019983 
L 562.64844 -127.279527 
L 568.768078 -126.644377 
L 574.887715 -126.026581 
L 581.007353 -125.490038 
L 587.126991 -124.88166 
L 593.246628 -124.155965 
L 599.366266 -123.47798 
L 605.485904 -122.842159 
L 611.605542 -122.206338 
L 617.725179 -121.570517 
L 623.844817 -120.934696 
L 629.964455 -120.298875 
L 636.084092 -119.665021 
L 642.20373 -119.032251 
L 648.323368 -118.399481 
L 654.443005 -117.76671 
L 660.562643 -117.13394 
L 666.682281 -116.50117 
L 672.801919 -115.8684 
L 678.921556 -115.23563 
L 685.041194 -114.60286 
L 691.160832 -113.970089 
L 697.280469 -113.337319 
L 703.400107 -112.704549 
L 709.519745 -112.071779 
L 715.639382 -111.439009 
L 721.75902 -110.806239 
L 727.878658 -110.173468 
L 733.998296 -109.540698 
L 740.117933 -108.907928 
L 746.237571 -108.275158 
L 746.237571 -211.93158 
L 746.237571 -211.93158 
L 740.117933 -211.205125 
L 733.998296 -210.47867 
L 727.878658 -209.749955 
L 721.75902 -209.018366 
L 715.639382 -208.289167 
L 709.519745 -207.56345 
L 703.400107 -206.856167 
L 697.280469 -206.149282 
L 691.160832 -205.442396 
L 685.041194 -204.735511 
L 678.921556 -204.028625 
L 672.801919 -203.32174 
L 666.682281 -202.614855 
L 660.562643 -201.907969 
L 654.443005 -201.200638 
L 648.323368 -200.490508 
L 642.20373 -199.780377 
L 636.084092 -199.011614 
L 629.964455 -198.365603 
L 623.844817 -197.663864 
L 617.725179 -196.958108 
L 611.605542 -196.250486 
L 605.485904 -195.542863 
L 599.366266 -194.83524 
L 593.246628 -194.127617 
L 587.126991 -193.418333 
L 581.007353 -192.707279 
L 574.887715 -192.035168 
L 568.768078 -191.376819 
L 562.64844 -190.681606 
L 556.528802 -190.059931 
L 550.409165 -189.402051 
L 544.289527 -188.735343 
L 538.169889 -188.087758 
L 532.050251 -187.433431 
L 525.930614 -186.700305 
L 519.810976 -185.886525 
L 513.691338 -185.394909 
L 507.571701 -184.800056 
L 501.452063 -184.103882 
L 495.332425 -183.452605 
L 489.212787 -182.785111 
L 483.09315 -182.170478 
L 476.973512 -181.628951 
L 470.853874 -180.951833 
L 464.734237 -180.273312 
L 458.614599 -179.9441 
L 452.494961 -179.738902 
L 446.375324 -179.308017 
L 440.255686 -178.375307 
L 434.136048 -177.552854 
L 428.01641 -177.110412 
L 421.896773 -176.362396 
L 415.777135 -175.811736 
L 409.657497 -175.245295 
L 403.53786 -174.682421 
L 397.418222 -174.125136 
L 391.298584 -173.680664 
L 385.178947 -173.639211 
L 379.059309 -173.247704 
L 372.939671 -172.630612 
L 366.820033 -172.108329 
L 360.700396 -171.914965 
L 354.580758 -171.334207 
L 348.46112 -171.041052 
L 342.341483 -171.070856 
L 336.221845 -171.039591 
L 330.102207 -170.587255 
L 323.98257 -170.548354 
L 317.862932 -170.482267 
L 311.743294 -170.633993 
L 305.623656 -170.833451 
L 299.504019 -170.797244 
L 293.384381 -171.189572 
L 287.264743 -171.189347 
L 281.145106 -171.158213 
L 275.025468 -171.044129 
L 268.90583 -171.341202 
L 262.786193 -171.914989 
L 256.666555 -172.026843 
L 250.546917 -171.715307 
L 244.427279 -171.399132 
L 238.307642 -171.841907 
L 232.188004 -171.968352 
L 226.068366 -172.355891 
L 219.948729 -172.762113 
L 213.829091 -173.150068 
L 207.709453 -173.653093 
L 201.589816 -174.253798 
L 195.470178 -174.329718 
L 189.35054 -174.657 
L 183.230902 -174.8593 
L 177.111265 -175.264406 
L 170.991627 -175.945067 
L 164.871989 -176.710991 
L 158.752352 -177.455731 
L 152.632714 -178.009856 
L 146.513076 -178.844237 
L 140.393438 -179.678618 
z
" id="m0edb00c21a" style="stroke:#ffffff;stroke-opacity:0.15;"/>
    </defs>
    <g clip-path="url(#p85e7beb2e6)">
     <use style="fill:#4c72b0;fill-opacity:0.15;stroke:#ffffff;stroke-opacity:0.15;" x="0" xlink:href="#m0edb00c21a" y="432"/>
    </g>
   </g>
   <g id="line2d_15">
    <path clip-path="url(#p85e7beb2e6)" d="M 140.393438 276.589919 
L 146.513076 276.529639 
L 152.632714 276.469358 
L 158.752352 276.409077 
L 164.871989 276.348797 
L 170.991627 276.288516 
L 177.111265 276.228235 
L 183.230902 276.167955 
L 189.35054 276.107674 
L 195.470178 276.047393 
L 201.589816 275.987112 
L 207.709453 275.926832 
L 213.829091 275.866551 
L 219.948729 275.80627 
L 226.068366 275.74599 
L 232.188004 275.685709 
L 238.307642 275.625428 
L 244.427279 275.565148 
L 250.546917 275.504867 
L 256.666555 275.444586 
L 262.786193 275.384306 
L 268.90583 275.324025 
L 275.025468 275.263744 
L 281.145106 275.203464 
L 287.264743 275.143183 
L 293.384381 275.082902 
L 299.504019 275.022622 
L 305.623656 274.962341 
L 311.743294 274.90206 
L 317.862932 274.841779 
L 323.98257 274.781499 
L 330.102207 274.721218 
L 336.221845 274.660937 
L 342.341483 274.600657 
L 348.46112 274.540376 
L 354.580758 274.480095 
L 360.700396 274.419815 
L 366.820033 274.359534 
L 372.939671 274.299253 
L 379.059309 274.238973 
L 385.178947 274.178692 
L 391.298584 274.118411 
L 397.418222 274.058131 
L 403.53786 273.99785 
L 409.657497 273.937569 
L 415.777135 273.877288 
L 421.896773 273.817008 
L 428.01641 273.756727 
L 434.136048 273.696446 
L 440.255686 273.636166 
L 446.375324 273.575885 
L 452.494961 273.515604 
L 458.614599 273.455324 
L 464.734237 273.395043 
L 470.853874 273.334762 
L 476.973512 273.274482 
L 483.09315 273.214201 
L 489.212787 273.15392 
L 495.332425 273.09364 
L 501.452063 273.033359 
L 507.571701 272.973078 
L 513.691338 272.912798 
L 519.810976 272.852517 
L 525.930614 272.792236 
L 532.050251 272.731955 
L 538.169889 272.671675 
L 544.289527 272.611394 
L 550.409165 272.551113 
L 556.528802 272.490833 
L 562.64844 272.430552 
L 568.768078 272.370271 
L 574.887715 272.309991 
L 581.007353 272.24971 
L 587.126991 272.189429 
L 593.246628 272.129149 
L 599.366266 272.068868 
L 605.485904 272.008587 
L 611.605542 271.948307 
L 617.725179 271.888026 
L 623.844817 271.827745 
L 629.964455 271.767464 
L 636.084092 271.707184 
L 642.20373 271.646903 
L 648.323368 271.586622 
L 654.443005 271.526342 
L 660.562643 271.466061 
L 666.682281 271.40578 
L 672.801919 271.3455 
L 678.921556 271.285219 
L 685.041194 271.224938 
L 691.160832 271.164658 
L 697.280469 271.104377 
L 703.400107 271.044096 
L 709.519745 270.983816 
L 715.639382 270.923535 
L 721.75902 270.863254 
L 727.878658 270.802973 
L 733.998296 270.742693 
L 740.117933 270.682412 
L 746.237571 270.622131 
" style="fill:none;stroke:#4c72b0;stroke-linecap:round;stroke-width:2.25;"/>
   </g>
   <g id="patch_3">
    <path d="M 108 378 
L 108 51.84 
" style="fill:none;stroke:#ffffff;stroke-linecap:square;stroke-linejoin:miter;stroke-width:1.25;"/>
   </g>
   <g id="patch_4">
    <path d="M 777.6 378 
L 777.6 51.84 
" style="fill:none;stroke:#ffffff;stroke-linecap:square;stroke-linejoin:miter;stroke-width:1.25;"/>
   </g>
   <g id="patch_5">
    <path d="M 108 378 
L 777.6 378 
" style="fill:none;stroke:#ffffff;stroke-linecap:square;stroke-linejoin:miter;stroke-width:1.25;"/>
   </g>
   <g id="patch_6">
    <path d="M 108 51.84 
L 777.6 51.84 
" style="fill:none;stroke:#ffffff;stroke-linecap:square;stroke-linejoin:miter;stroke-width:1.25;"/>
   </g>
   <g id="text_17">
    <!-- Compensation by Hours Worked -->
    <g style="fill:#262626;" transform="translate(356.205938 45.84)scale(0.12 -0.12)">
     <defs>
      <path d="M 3763 1606 
L 4369 1453 
Q 4178 706 3683 314 
Q 3188 -78 2472 -78 
Q 1731 -78 1267 223 
Q 803 525 561 1097 
Q 319 1669 319 2325 
Q 319 3041 592 3573 
Q 866 4106 1370 4382 
Q 1875 4659 2481 4659 
Q 3169 4659 3637 4309 
Q 4106 3959 4291 3325 
L 3694 3184 
Q 3534 3684 3231 3912 
Q 2928 4141 2469 4141 
Q 1941 4141 1586 3887 
Q 1231 3634 1087 3207 
Q 944 2781 944 2328 
Q 944 1744 1114 1308 
Q 1284 872 1643 656 
Q 2003 441 2422 441 
Q 2931 441 3284 734 
Q 3638 1028 3763 1606 
z
" id="ArialMT-43" transform="scale(0.015625)"/>
      <path d="M 422 -1272 
L 422 3319 
L 934 3319 
L 934 2888 
Q 1116 3141 1344 3267 
Q 1572 3394 1897 3394 
Q 2322 3394 2647 3175 
Q 2972 2956 3137 2557 
Q 3303 2159 3303 1684 
Q 3303 1175 3120 767 
Q 2938 359 2589 142 
Q 2241 -75 1856 -75 
Q 1575 -75 1351 44 
Q 1128 163 984 344 
L 984 -1272 
L 422 -1272 
z
M 931 1641 
Q 931 1000 1190 694 
Q 1450 388 1819 388 
Q 2194 388 2461 705 
Q 2728 1022 2728 1688 
Q 2728 2322 2467 2637 
Q 2206 2953 1844 2953 
Q 1484 2953 1207 2617 
Q 931 2281 931 1641 
z
" id="ArialMT-70" transform="scale(0.015625)"/>
      <path d="M 941 0 
L 419 0 
L 419 4581 
L 981 4581 
L 981 2947 
Q 1338 3394 1891 3394 
Q 2197 3394 2470 3270 
Q 2744 3147 2920 2923 
Q 3097 2700 3197 2384 
Q 3297 2069 3297 1709 
Q 3297 856 2875 390 
Q 2453 -75 1863 -75 
Q 1275 -75 941 416 
L 941 0 
z
M 934 1684 
Q 934 1088 1097 822 
Q 1363 388 1816 388 
Q 2184 388 2453 708 
Q 2722 1028 2722 1663 
Q 2722 2313 2464 2622 
Q 2206 2931 1841 2931 
Q 1472 2931 1203 2611 
Q 934 2291 934 1684 
z
" id="ArialMT-62" transform="scale(0.015625)"/>
      <path d="M 397 -1278 
L 334 -750 
Q 519 -800 656 -800 
Q 844 -800 956 -737 
Q 1069 -675 1141 -563 
Q 1194 -478 1313 -144 
Q 1328 -97 1363 -6 
L 103 3319 
L 709 3319 
L 1400 1397 
Q 1534 1031 1641 628 
Q 1738 1016 1872 1384 
L 2581 3319 
L 3144 3319 
L 1881 -56 
Q 1678 -603 1566 -809 
Q 1416 -1088 1222 -1217 
Q 1028 -1347 759 -1347 
Q 597 -1347 397 -1278 
z
" id="ArialMT-79" transform="scale(0.015625)"/>
     </defs>
     <use xlink:href="#ArialMT-43"/>
     <use x="72.216797" xlink:href="#ArialMT-6f"/>
     <use x="127.832031" xlink:href="#ArialMT-6d"/>
     <use x="211.132812" xlink:href="#ArialMT-70"/>
     <use x="266.748047" xlink:href="#ArialMT-65"/>
     <use x="322.363281" xlink:href="#ArialMT-6e"/>
     <use x="377.978516" xlink:href="#ArialMT-73"/>
     <use x="427.978516" xlink:href="#ArialMT-61"/>
     <use x="483.59375" xlink:href="#ArialMT-74"/>
     <use x="511.376953" xlink:href="#ArialMT-69"/>
     <use x="533.59375" xlink:href="#ArialMT-6f"/>
     <use x="589.208984" xlink:href="#ArialMT-6e"/>
     <use x="644.824219" xlink:href="#ArialMT-20"/>
     <use x="672.607422" xlink:href="#ArialMT-62"/>
     <use x="728.222656" xlink:href="#ArialMT-79"/>
     <use x="778.222656" xlink:href="#ArialMT-20"/>
     <use x="806.005859" xlink:href="#ArialMT-48"/>
     <use x="878.222656" xlink:href="#ArialMT-6f"/>
     <use x="933.837891" xlink:href="#ArialMT-75"/>
     <use x="989.453125" xlink:href="#ArialMT-72"/>
     <use x="1022.753906" xlink:href="#ArialMT-73"/>
     <use x="1072.753906" xlink:href="#ArialMT-20"/>
     <use x="1100.537109" xlink:href="#ArialMT-57"/>
     <use x="1193.171875" xlink:href="#ArialMT-6f"/>
     <use x="1248.787109" xlink:href="#ArialMT-72"/>
     <use x="1282.087891" xlink:href="#ArialMT-6b"/>
     <use x="1332.087891" xlink:href="#ArialMT-65"/>
     <use x="1387.703125" xlink:href="#ArialMT-64"/>
    </g>
   </g>
  </g>
 </g>
 <defs>
  <clipPath id="p85e7beb2e6">
   <rect height="326.16" width="669.6" x="108" y="51.84"/>
  </clipPath>
 </defs>
</svg>
