<?xml version="1.0" encoding="utf-8" standalone="no"?>
<!DOCTYPE svg PUBLIC "-//W3C//DTD SVG 1.1//EN"
  "http://www.w3.org/Graphics/SVG/1.1/DTD/svg11.dtd">
<svg height="432pt" version="1.1" viewBox="0 0 864 432" width="864pt" xmlns="http://www.w3.org/2000/svg" xmlns:xlink="http://www.w3.org/1999/xlink">
 <metadata>
  <rdf:RDF xmlns:cc="http://creativecommons.org/ns#" xmlns:dc="http://purl.org/dc/elements/1.1/" xmlns:rdf="http://www.w3.org/1999/02/22-rdf-syntax-ns#">
   <cc:Work>
    <dc:type rdf:resource="http://purl.org/dc/dcmitype/StillImage"/>
    <dc:date>2022-01-07T21:56:06.666208</dc:date>
    <dc:format>image/svg+xml</dc:format>
    <dc:creator>
     <cc:Agent>
      <dc:title>Matplotlib v3.4.3, https://matplotlib.org/</dc:title>
     </cc:Agent>
    </dc:creator>
   </cc:Work>
  </rdf:RDF>
 </metadata>
 <defs>
  <style type="text/css">*{stroke-linecap:butt;stroke-linejoin:round;}</style>
 </defs>
 <g id="figure_1">
  <g id="patch_1">
   <path d="M 0 432 
L 864 432 
L 864 0 
L 0 0 
z
" style="fill:#ffffff;"/>
  </g>
  <g id="axes_1">
   <g id="patch_2">
    <path d="M 108 378 
L 777.6 378 
L 777.6 51.84 
L 108 51.84 
z
" style="fill:#eaeaf2;"/>
   </g>
   <g id="matplotlib.axis_1">
    <g id="xtick_1">
     <g id="line2d_1">
      <path clip-path="url(#pac7ac197fe)" d="M 144.515408 378 
L 144.515408 51.84 
" style="fill:none;stroke:#ffffff;stroke-linecap:round;"/>
     </g>
     <g id="text_1">
      <!-- 50 -->
      <g style="fill:#262626;" transform="translate(138.398377 395.373594)scale(0.11 -0.11)">
       <defs>
        <path d="M 266 1200 
L 856 1250 
Q 922 819 1161 601 
Q 1400 384 1738 384 
Q 2144 384 2425 690 
Q 2706 997 2706 1503 
Q 2706 1984 2436 2262 
Q 2166 2541 1728 2541 
Q 1456 2541 1237 2417 
Q 1019 2294 894 2097 
L 366 2166 
L 809 4519 
L 3088 4519 
L 3088 3981 
L 1259 3981 
L 1013 2750 
Q 1425 3038 1878 3038 
Q 2478 3038 2890 2622 
Q 3303 2206 3303 1553 
Q 3303 931 2941 478 
Q 2500 -78 1738 -78 
Q 1113 -78 717 272 
Q 322 622 266 1200 
z
" id="ArialMT-35" transform="scale(0.015625)"/>
        <path d="M 266 2259 
Q 266 3072 433 3567 
Q 600 4063 929 4331 
Q 1259 4600 1759 4600 
Q 2128 4600 2406 4451 
Q 2684 4303 2865 4023 
Q 3047 3744 3150 3342 
Q 3253 2941 3253 2259 
Q 3253 1453 3087 958 
Q 2922 463 2592 192 
Q 2263 -78 1759 -78 
Q 1097 -78 719 397 
Q 266 969 266 2259 
z
M 844 2259 
Q 844 1131 1108 757 
Q 1372 384 1759 384 
Q 2147 384 2411 759 
Q 2675 1134 2675 2259 
Q 2675 3391 2411 3762 
Q 2147 4134 1753 4134 
Q 1366 4134 1134 3806 
Q 844 3388 844 2259 
z
" id="ArialMT-30" transform="scale(0.015625)"/>
       </defs>
       <use xlink:href="#ArialMT-35"/>
       <use x="55.615234" xlink:href="#ArialMT-30"/>
      </g>
     </g>
    </g>
    <g id="xtick_2">
     <g id="line2d_2">
      <path clip-path="url(#pac7ac197fe)" d="M 251.045619 378 
L 251.045619 51.84 
" style="fill:none;stroke:#ffffff;stroke-linecap:round;"/>
     </g>
     <g id="text_2">
      <!-- 100 -->
      <g style="fill:#262626;" transform="translate(241.870072 395.373594)scale(0.11 -0.11)">
       <defs>
        <path d="M 2384 0 
L 1822 0 
L 1822 3584 
Q 1619 3391 1289 3197 
Q 959 3003 697 2906 
L 697 3450 
Q 1169 3672 1522 3987 
Q 1875 4303 2022 4600 
L 2384 4600 
L 2384 0 
z
" id="ArialMT-31" transform="scale(0.015625)"/>
       </defs>
       <use xlink:href="#ArialMT-31"/>
       <use x="55.615234" xlink:href="#ArialMT-30"/>
       <use x="111.230469" xlink:href="#ArialMT-30"/>
      </g>
     </g>
    </g>
    <g id="xtick_3">
     <g id="line2d_3">
      <path clip-path="url(#pac7ac197fe)" d="M 357.575831 378 
L 357.575831 51.84 
" style="fill:none;stroke:#ffffff;stroke-linecap:round;"/>
     </g>
     <g id="text_3">
      <!-- 150 -->
      <g style="fill:#262626;" transform="translate(348.400284 395.373594)scale(0.11 -0.11)">
       <use xlink:href="#ArialMT-31"/>
       <use x="55.615234" xlink:href="#ArialMT-35"/>
       <use x="111.230469" xlink:href="#ArialMT-30"/>
      </g>
     </g>
    </g>
    <g id="xtick_4">
     <g id="line2d_4">
      <path clip-path="url(#pac7ac197fe)" d="M 464.106042 378 
L 464.106042 51.84 
" style="fill:none;stroke:#ffffff;stroke-linecap:round;"/>
     </g>
     <g id="text_4">
      <!-- 200 -->
      <g style="fill:#262626;" transform="translate(454.930495 395.373594)scale(0.11 -0.11)">
       <defs>
        <path d="M 3222 541 
L 3222 0 
L 194 0 
Q 188 203 259 391 
Q 375 700 629 1000 
Q 884 1300 1366 1694 
Q 2113 2306 2375 2664 
Q 2638 3022 2638 3341 
Q 2638 3675 2398 3904 
Q 2159 4134 1775 4134 
Q 1369 4134 1125 3890 
Q 881 3647 878 3216 
L 300 3275 
Q 359 3922 746 4261 
Q 1134 4600 1788 4600 
Q 2447 4600 2831 4234 
Q 3216 3869 3216 3328 
Q 3216 3053 3103 2787 
Q 2991 2522 2730 2228 
Q 2469 1934 1863 1422 
Q 1356 997 1212 845 
Q 1069 694 975 541 
L 3222 541 
z
" id="ArialMT-32" transform="scale(0.015625)"/>
       </defs>
       <use xlink:href="#ArialMT-32"/>
       <use x="55.615234" xlink:href="#ArialMT-30"/>
       <use x="111.230469" xlink:href="#ArialMT-30"/>
      </g>
     </g>
    </g>
    <g id="xtick_5">
     <g id="line2d_5">
      <path clip-path="url(#pac7ac197fe)" d="M 570.636254 378 
L 570.636254 51.84 
" style="fill:none;stroke:#ffffff;stroke-linecap:round;"/>
     </g>
     <g id="text_5">
      <!-- 250 -->
      <g style="fill:#262626;" transform="translate(561.460707 395.373594)scale(0.11 -0.11)">
       <use xlink:href="#ArialMT-32"/>
       <use x="55.615234" xlink:href="#ArialMT-35"/>
       <use x="111.230469" xlink:href="#ArialMT-30"/>
      </g>
     </g>
    </g>
    <g id="xtick_6">
     <g id="line2d_6">
      <path clip-path="url(#pac7ac197fe)" d="M 677.166465 378 
L 677.166465 51.84 
" style="fill:none;stroke:#ffffff;stroke-linecap:round;"/>
     </g>
     <g id="text_6">
      <!-- 300 -->
      <g style="fill:#262626;" transform="translate(667.990918 395.373594)scale(0.11 -0.11)">
       <defs>
        <path d="M 269 1209 
L 831 1284 
Q 928 806 1161 595 
Q 1394 384 1728 384 
Q 2125 384 2398 659 
Q 2672 934 2672 1341 
Q 2672 1728 2419 1979 
Q 2166 2231 1775 2231 
Q 1616 2231 1378 2169 
L 1441 2663 
Q 1497 2656 1531 2656 
Q 1891 2656 2178 2843 
Q 2466 3031 2466 3422 
Q 2466 3731 2256 3934 
Q 2047 4138 1716 4138 
Q 1388 4138 1169 3931 
Q 950 3725 888 3313 
L 325 3413 
Q 428 3978 793 4289 
Q 1159 4600 1703 4600 
Q 2078 4600 2393 4439 
Q 2709 4278 2876 4000 
Q 3044 3722 3044 3409 
Q 3044 3113 2884 2869 
Q 2725 2625 2413 2481 
Q 2819 2388 3044 2092 
Q 3269 1797 3269 1353 
Q 3269 753 2831 336 
Q 2394 -81 1725 -81 
Q 1122 -81 723 278 
Q 325 638 269 1209 
z
" id="ArialMT-33" transform="scale(0.015625)"/>
       </defs>
       <use xlink:href="#ArialMT-33"/>
       <use x="55.615234" xlink:href="#ArialMT-30"/>
       <use x="111.230469" xlink:href="#ArialMT-30"/>
      </g>
     </g>
    </g>
    <g id="text_7">
     <!-- Financial Compensation (thousands) -->
     <g style="fill:#262626;" transform="translate(345.087188 410.295469)scale(0.12 -0.12)">
      <defs>
       <path d="M 525 0 
L 525 4581 
L 3616 4581 
L 3616 4041 
L 1131 4041 
L 1131 2622 
L 3281 2622 
L 3281 2081 
L 1131 2081 
L 1131 0 
L 525 0 
z
" id="ArialMT-46" transform="scale(0.015625)"/>
       <path d="M 425 3934 
L 425 4581 
L 988 4581 
L 988 3934 
L 425 3934 
z
M 425 0 
L 425 3319 
L 988 3319 
L 988 0 
L 425 0 
z
" id="ArialMT-69" transform="scale(0.015625)"/>
       <path d="M 422 0 
L 422 3319 
L 928 3319 
L 928 2847 
Q 1294 3394 1984 3394 
Q 2284 3394 2536 3286 
Q 2788 3178 2913 3003 
Q 3038 2828 3088 2588 
Q 3119 2431 3119 2041 
L 3119 0 
L 2556 0 
L 2556 2019 
Q 2556 2363 2490 2533 
Q 2425 2703 2258 2804 
Q 2091 2906 1866 2906 
Q 1506 2906 1245 2678 
Q 984 2450 984 1813 
L 984 0 
L 422 0 
z
" id="ArialMT-6e" transform="scale(0.015625)"/>
       <path d="M 2588 409 
Q 2275 144 1986 34 
Q 1697 -75 1366 -75 
Q 819 -75 525 192 
Q 231 459 231 875 
Q 231 1119 342 1320 
Q 453 1522 633 1644 
Q 813 1766 1038 1828 
Q 1203 1872 1538 1913 
Q 2219 1994 2541 2106 
Q 2544 2222 2544 2253 
Q 2544 2597 2384 2738 
Q 2169 2928 1744 2928 
Q 1347 2928 1158 2789 
Q 969 2650 878 2297 
L 328 2372 
Q 403 2725 575 2942 
Q 747 3159 1072 3276 
Q 1397 3394 1825 3394 
Q 2250 3394 2515 3294 
Q 2781 3194 2906 3042 
Q 3031 2891 3081 2659 
Q 3109 2516 3109 2141 
L 3109 1391 
Q 3109 606 3145 398 
Q 3181 191 3288 0 
L 2700 0 
Q 2613 175 2588 409 
z
M 2541 1666 
Q 2234 1541 1622 1453 
Q 1275 1403 1131 1340 
Q 988 1278 909 1158 
Q 831 1038 831 891 
Q 831 666 1001 516 
Q 1172 366 1500 366 
Q 1825 366 2078 508 
Q 2331 650 2450 897 
Q 2541 1088 2541 1459 
L 2541 1666 
z
" id="ArialMT-61" transform="scale(0.015625)"/>
       <path d="M 2588 1216 
L 3141 1144 
Q 3050 572 2676 248 
Q 2303 -75 1759 -75 
Q 1078 -75 664 370 
Q 250 816 250 1647 
Q 250 2184 428 2587 
Q 606 2991 970 3192 
Q 1334 3394 1763 3394 
Q 2303 3394 2647 3120 
Q 2991 2847 3088 2344 
L 2541 2259 
Q 2463 2594 2264 2762 
Q 2066 2931 1784 2931 
Q 1359 2931 1093 2626 
Q 828 2322 828 1663 
Q 828 994 1084 691 
Q 1341 388 1753 388 
Q 2084 388 2306 591 
Q 2528 794 2588 1216 
z
" id="ArialMT-63" transform="scale(0.015625)"/>
       <path d="M 409 0 
L 409 4581 
L 972 4581 
L 972 0 
L 409 0 
z
" id="ArialMT-6c" transform="scale(0.015625)"/>
       <path id="ArialMT-20" transform="scale(0.015625)"/>
       <path d="M 3763 1606 
L 4369 1453 
Q 4178 706 3683 314 
Q 3188 -78 2472 -78 
Q 1731 -78 1267 223 
Q 803 525 561 1097 
Q 319 1669 319 2325 
Q 319 3041 592 3573 
Q 866 4106 1370 4382 
Q 1875 4659 2481 4659 
Q 3169 4659 3637 4309 
Q 4106 3959 4291 3325 
L 3694 3184 
Q 3534 3684 3231 3912 
Q 2928 4141 2469 4141 
Q 1941 4141 1586 3887 
Q 1231 3634 1087 3207 
Q 944 2781 944 2328 
Q 944 1744 1114 1308 
Q 1284 872 1643 656 
Q 2003 441 2422 441 
Q 2931 441 3284 734 
Q 3638 1028 3763 1606 
z
" id="ArialMT-43" transform="scale(0.015625)"/>
       <path d="M 213 1659 
Q 213 2581 725 3025 
Q 1153 3394 1769 3394 
Q 2453 3394 2887 2945 
Q 3322 2497 3322 1706 
Q 3322 1066 3130 698 
Q 2938 331 2570 128 
Q 2203 -75 1769 -75 
Q 1072 -75 642 372 
Q 213 819 213 1659 
z
M 791 1659 
Q 791 1022 1069 705 
Q 1347 388 1769 388 
Q 2188 388 2466 706 
Q 2744 1025 2744 1678 
Q 2744 2294 2464 2611 
Q 2184 2928 1769 2928 
Q 1347 2928 1069 2612 
Q 791 2297 791 1659 
z
" id="ArialMT-6f" transform="scale(0.015625)"/>
       <path d="M 422 0 
L 422 3319 
L 925 3319 
L 925 2853 
Q 1081 3097 1340 3245 
Q 1600 3394 1931 3394 
Q 2300 3394 2536 3241 
Q 2772 3088 2869 2813 
Q 3263 3394 3894 3394 
Q 4388 3394 4653 3120 
Q 4919 2847 4919 2278 
L 4919 0 
L 4359 0 
L 4359 2091 
Q 4359 2428 4304 2576 
Q 4250 2725 4106 2815 
Q 3963 2906 3769 2906 
Q 3419 2906 3187 2673 
Q 2956 2441 2956 1928 
L 2956 0 
L 2394 0 
L 2394 2156 
Q 2394 2531 2256 2718 
Q 2119 2906 1806 2906 
Q 1569 2906 1367 2781 
Q 1166 2656 1075 2415 
Q 984 2175 984 1722 
L 984 0 
L 422 0 
z
" id="ArialMT-6d" transform="scale(0.015625)"/>
       <path d="M 422 -1272 
L 422 3319 
L 934 3319 
L 934 2888 
Q 1116 3141 1344 3267 
Q 1572 3394 1897 3394 
Q 2322 3394 2647 3175 
Q 2972 2956 3137 2557 
Q 3303 2159 3303 1684 
Q 3303 1175 3120 767 
Q 2938 359 2589 142 
Q 2241 -75 1856 -75 
Q 1575 -75 1351 44 
Q 1128 163 984 344 
L 984 -1272 
L 422 -1272 
z
M 931 1641 
Q 931 1000 1190 694 
Q 1450 388 1819 388 
Q 2194 388 2461 705 
Q 2728 1022 2728 1688 
Q 2728 2322 2467 2637 
Q 2206 2953 1844 2953 
Q 1484 2953 1207 2617 
Q 931 2281 931 1641 
z
" id="ArialMT-70" transform="scale(0.015625)"/>
       <path d="M 2694 1069 
L 3275 997 
Q 3138 488 2766 206 
Q 2394 -75 1816 -75 
Q 1088 -75 661 373 
Q 234 822 234 1631 
Q 234 2469 665 2931 
Q 1097 3394 1784 3394 
Q 2450 3394 2872 2941 
Q 3294 2488 3294 1666 
Q 3294 1616 3291 1516 
L 816 1516 
Q 847 969 1125 678 
Q 1403 388 1819 388 
Q 2128 388 2347 550 
Q 2566 713 2694 1069 
z
M 847 1978 
L 2700 1978 
Q 2663 2397 2488 2606 
Q 2219 2931 1791 2931 
Q 1403 2931 1139 2672 
Q 875 2413 847 1978 
z
" id="ArialMT-65" transform="scale(0.015625)"/>
       <path d="M 197 991 
L 753 1078 
Q 800 744 1014 566 
Q 1228 388 1613 388 
Q 2000 388 2187 545 
Q 2375 703 2375 916 
Q 2375 1106 2209 1216 
Q 2094 1291 1634 1406 
Q 1016 1563 777 1677 
Q 538 1791 414 1992 
Q 291 2194 291 2438 
Q 291 2659 392 2848 
Q 494 3038 669 3163 
Q 800 3259 1026 3326 
Q 1253 3394 1513 3394 
Q 1903 3394 2198 3281 
Q 2494 3169 2634 2976 
Q 2775 2784 2828 2463 
L 2278 2388 
Q 2241 2644 2061 2787 
Q 1881 2931 1553 2931 
Q 1166 2931 1000 2803 
Q 834 2675 834 2503 
Q 834 2394 903 2306 
Q 972 2216 1119 2156 
Q 1203 2125 1616 2013 
Q 2213 1853 2448 1751 
Q 2684 1650 2818 1456 
Q 2953 1263 2953 975 
Q 2953 694 2789 445 
Q 2625 197 2315 61 
Q 2006 -75 1616 -75 
Q 969 -75 630 194 
Q 291 463 197 991 
z
" id="ArialMT-73" transform="scale(0.015625)"/>
       <path d="M 1650 503 
L 1731 6 
Q 1494 -44 1306 -44 
Q 1000 -44 831 53 
Q 663 150 594 308 
Q 525 466 525 972 
L 525 2881 
L 113 2881 
L 113 3319 
L 525 3319 
L 525 4141 
L 1084 4478 
L 1084 3319 
L 1650 3319 
L 1650 2881 
L 1084 2881 
L 1084 941 
Q 1084 700 1114 631 
Q 1144 563 1211 522 
Q 1278 481 1403 481 
Q 1497 481 1650 503 
z
" id="ArialMT-74" transform="scale(0.015625)"/>
       <path d="M 1497 -1347 
Q 1031 -759 709 28 
Q 388 816 388 1659 
Q 388 2403 628 3084 
Q 909 3875 1497 4659 
L 1900 4659 
Q 1522 4009 1400 3731 
Q 1209 3300 1100 2831 
Q 966 2247 966 1656 
Q 966 153 1900 -1347 
L 1497 -1347 
z
" id="ArialMT-28" transform="scale(0.015625)"/>
       <path d="M 422 0 
L 422 4581 
L 984 4581 
L 984 2938 
Q 1378 3394 1978 3394 
Q 2347 3394 2619 3248 
Q 2891 3103 3008 2847 
Q 3125 2591 3125 2103 
L 3125 0 
L 2563 0 
L 2563 2103 
Q 2563 2525 2380 2717 
Q 2197 2909 1863 2909 
Q 1613 2909 1392 2779 
Q 1172 2650 1078 2428 
Q 984 2206 984 1816 
L 984 0 
L 422 0 
z
" id="ArialMT-68" transform="scale(0.015625)"/>
       <path d="M 2597 0 
L 2597 488 
Q 2209 -75 1544 -75 
Q 1250 -75 995 37 
Q 741 150 617 320 
Q 494 491 444 738 
Q 409 903 409 1263 
L 409 3319 
L 972 3319 
L 972 1478 
Q 972 1038 1006 884 
Q 1059 663 1231 536 
Q 1403 409 1656 409 
Q 1909 409 2131 539 
Q 2353 669 2445 892 
Q 2538 1116 2538 1541 
L 2538 3319 
L 3100 3319 
L 3100 0 
L 2597 0 
z
" id="ArialMT-75" transform="scale(0.015625)"/>
       <path d="M 2575 0 
L 2575 419 
Q 2259 -75 1647 -75 
Q 1250 -75 917 144 
Q 584 363 401 755 
Q 219 1147 219 1656 
Q 219 2153 384 2558 
Q 550 2963 881 3178 
Q 1213 3394 1622 3394 
Q 1922 3394 2156 3267 
Q 2391 3141 2538 2938 
L 2538 4581 
L 3097 4581 
L 3097 0 
L 2575 0 
z
M 797 1656 
Q 797 1019 1065 703 
Q 1334 388 1700 388 
Q 2069 388 2326 689 
Q 2584 991 2584 1609 
Q 2584 2291 2321 2609 
Q 2059 2928 1675 2928 
Q 1300 2928 1048 2622 
Q 797 2316 797 1656 
z
" id="ArialMT-64" transform="scale(0.015625)"/>
       <path d="M 791 -1347 
L 388 -1347 
Q 1322 153 1322 1656 
Q 1322 2244 1188 2822 
Q 1081 3291 891 3722 
Q 769 4003 388 4659 
L 791 4659 
Q 1378 3875 1659 3084 
Q 1900 2403 1900 1659 
Q 1900 816 1576 28 
Q 1253 -759 791 -1347 
z
" id="ArialMT-29" transform="scale(0.015625)"/>
      </defs>
      <use xlink:href="#ArialMT-46"/>
      <use x="61.083984" xlink:href="#ArialMT-69"/>
      <use x="83.300781" xlink:href="#ArialMT-6e"/>
      <use x="138.916016" xlink:href="#ArialMT-61"/>
      <use x="194.53125" xlink:href="#ArialMT-6e"/>
      <use x="250.146484" xlink:href="#ArialMT-63"/>
      <use x="300.146484" xlink:href="#ArialMT-69"/>
      <use x="322.363281" xlink:href="#ArialMT-61"/>
      <use x="377.978516" xlink:href="#ArialMT-6c"/>
      <use x="400.195312" xlink:href="#ArialMT-20"/>
      <use x="427.978516" xlink:href="#ArialMT-43"/>
      <use x="500.195312" xlink:href="#ArialMT-6f"/>
      <use x="555.810547" xlink:href="#ArialMT-6d"/>
      <use x="639.111328" xlink:href="#ArialMT-70"/>
      <use x="694.726562" xlink:href="#ArialMT-65"/>
      <use x="750.341797" xlink:href="#ArialMT-6e"/>
      <use x="805.957031" xlink:href="#ArialMT-73"/>
      <use x="855.957031" xlink:href="#ArialMT-61"/>
      <use x="911.572266" xlink:href="#ArialMT-74"/>
      <use x="939.355469" xlink:href="#ArialMT-69"/>
      <use x="961.572266" xlink:href="#ArialMT-6f"/>
      <use x="1017.1875" xlink:href="#ArialMT-6e"/>
      <use x="1072.802734" xlink:href="#ArialMT-20"/>
      <use x="1100.585938" xlink:href="#ArialMT-28"/>
      <use x="1133.886719" xlink:href="#ArialMT-74"/>
      <use x="1161.669922" xlink:href="#ArialMT-68"/>
      <use x="1217.285156" xlink:href="#ArialMT-6f"/>
      <use x="1272.900391" xlink:href="#ArialMT-75"/>
      <use x="1328.515625" xlink:href="#ArialMT-73"/>
      <use x="1378.515625" xlink:href="#ArialMT-61"/>
      <use x="1434.130859" xlink:href="#ArialMT-6e"/>
      <use x="1489.746094" xlink:href="#ArialMT-64"/>
      <use x="1545.361328" xlink:href="#ArialMT-73"/>
      <use x="1595.361328" xlink:href="#ArialMT-29"/>
     </g>
    </g>
   </g>
   <g id="matplotlib.axis_2">
    <g id="ytick_1">
     <g id="line2d_7">
      <path clip-path="url(#pac7ac197fe)" d="M 108 378 
L 777.6 378 
" style="fill:none;stroke:#ffffff;stroke-linecap:round;"/>
     </g>
     <g id="text_8">
      <!-- 0.000 -->
      <g style="fill:#262626;" transform="translate(70.975938 381.936797)scale(0.11 -0.11)">
       <defs>
        <path d="M 581 0 
L 581 641 
L 1222 641 
L 1222 0 
L 581 0 
z
" id="ArialMT-2e" transform="scale(0.015625)"/>
       </defs>
       <use xlink:href="#ArialMT-30"/>
       <use x="55.615234" xlink:href="#ArialMT-2e"/>
       <use x="83.398438" xlink:href="#ArialMT-30"/>
       <use x="139.013672" xlink:href="#ArialMT-30"/>
       <use x="194.628906" xlink:href="#ArialMT-30"/>
      </g>
     </g>
    </g>
    <g id="ytick_2">
     <g id="line2d_8">
      <path clip-path="url(#pac7ac197fe)" d="M 108 333.830972 
L 777.6 333.830972 
" style="fill:none;stroke:#ffffff;stroke-linecap:round;"/>
     </g>
     <g id="text_9">
      <!-- 0.002 -->
      <g style="fill:#262626;" transform="translate(70.975938 337.767768)scale(0.11 -0.11)">
       <use xlink:href="#ArialMT-30"/>
       <use x="55.615234" xlink:href="#ArialMT-2e"/>
       <use x="83.398438" xlink:href="#ArialMT-30"/>
       <use x="139.013672" xlink:href="#ArialMT-30"/>
       <use x="194.628906" xlink:href="#ArialMT-32"/>
      </g>
     </g>
    </g>
    <g id="ytick_3">
     <g id="line2d_9">
      <path clip-path="url(#pac7ac197fe)" d="M 108 289.661943 
L 777.6 289.661943 
" style="fill:none;stroke:#ffffff;stroke-linecap:round;"/>
     </g>
     <g id="text_10">
      <!-- 0.004 -->
      <g style="fill:#262626;" transform="translate(70.975938 293.59874)scale(0.11 -0.11)">
       <defs>
        <path d="M 2069 0 
L 2069 1097 
L 81 1097 
L 81 1613 
L 2172 4581 
L 2631 4581 
L 2631 1613 
L 3250 1613 
L 3250 1097 
L 2631 1097 
L 2631 0 
L 2069 0 
z
M 2069 1613 
L 2069 3678 
L 634 1613 
L 2069 1613 
z
" id="ArialMT-34" transform="scale(0.015625)"/>
       </defs>
       <use xlink:href="#ArialMT-30"/>
       <use x="55.615234" xlink:href="#ArialMT-2e"/>
       <use x="83.398438" xlink:href="#ArialMT-30"/>
       <use x="139.013672" xlink:href="#ArialMT-30"/>
       <use x="194.628906" xlink:href="#ArialMT-34"/>
      </g>
     </g>
    </g>
    <g id="ytick_4">
     <g id="line2d_10">
      <path clip-path="url(#pac7ac197fe)" d="M 108 245.492915 
L 777.6 245.492915 
" style="fill:none;stroke:#ffffff;stroke-linecap:round;"/>
     </g>
     <g id="text_11">
      <!-- 0.006 -->
      <g style="fill:#262626;" transform="translate(70.975938 249.429712)scale(0.11 -0.11)">
       <defs>
        <path d="M 3184 3459 
L 2625 3416 
Q 2550 3747 2413 3897 
Q 2184 4138 1850 4138 
Q 1581 4138 1378 3988 
Q 1113 3794 959 3422 
Q 806 3050 800 2363 
Q 1003 2672 1297 2822 
Q 1591 2972 1913 2972 
Q 2475 2972 2870 2558 
Q 3266 2144 3266 1488 
Q 3266 1056 3080 686 
Q 2894 316 2569 119 
Q 2244 -78 1831 -78 
Q 1128 -78 684 439 
Q 241 956 241 2144 
Q 241 3472 731 4075 
Q 1159 4600 1884 4600 
Q 2425 4600 2770 4297 
Q 3116 3994 3184 3459 
z
M 888 1484 
Q 888 1194 1011 928 
Q 1134 663 1356 523 
Q 1578 384 1822 384 
Q 2178 384 2434 671 
Q 2691 959 2691 1453 
Q 2691 1928 2437 2201 
Q 2184 2475 1800 2475 
Q 1419 2475 1153 2201 
Q 888 1928 888 1484 
z
" id="ArialMT-36" transform="scale(0.015625)"/>
       </defs>
       <use xlink:href="#ArialMT-30"/>
       <use x="55.615234" xlink:href="#ArialMT-2e"/>
       <use x="83.398438" xlink:href="#ArialMT-30"/>
       <use x="139.013672" xlink:href="#ArialMT-30"/>
       <use x="194.628906" xlink:href="#ArialMT-36"/>
      </g>
     </g>
    </g>
    <g id="ytick_5">
     <g id="line2d_11">
      <path clip-path="url(#pac7ac197fe)" d="M 108 201.323886 
L 777.6 201.323886 
" style="fill:none;stroke:#ffffff;stroke-linecap:round;"/>
     </g>
     <g id="text_12">
      <!-- 0.008 -->
      <g style="fill:#262626;" transform="translate(70.975938 205.260683)scale(0.11 -0.11)">
       <defs>
        <path d="M 1131 2484 
Q 781 2613 612 2850 
Q 444 3088 444 3419 
Q 444 3919 803 4259 
Q 1163 4600 1759 4600 
Q 2359 4600 2725 4251 
Q 3091 3903 3091 3403 
Q 3091 3084 2923 2848 
Q 2756 2613 2416 2484 
Q 2838 2347 3058 2040 
Q 3278 1734 3278 1309 
Q 3278 722 2862 322 
Q 2447 -78 1769 -78 
Q 1091 -78 675 323 
Q 259 725 259 1325 
Q 259 1772 486 2073 
Q 713 2375 1131 2484 
z
M 1019 3438 
Q 1019 3113 1228 2906 
Q 1438 2700 1772 2700 
Q 2097 2700 2305 2904 
Q 2513 3109 2513 3406 
Q 2513 3716 2298 3927 
Q 2084 4138 1766 4138 
Q 1444 4138 1231 3931 
Q 1019 3725 1019 3438 
z
M 838 1322 
Q 838 1081 952 856 
Q 1066 631 1291 507 
Q 1516 384 1775 384 
Q 2178 384 2440 643 
Q 2703 903 2703 1303 
Q 2703 1709 2433 1975 
Q 2163 2241 1756 2241 
Q 1359 2241 1098 1978 
Q 838 1716 838 1322 
z
" id="ArialMT-38" transform="scale(0.015625)"/>
       </defs>
       <use xlink:href="#ArialMT-30"/>
       <use x="55.615234" xlink:href="#ArialMT-2e"/>
       <use x="83.398438" xlink:href="#ArialMT-30"/>
       <use x="139.013672" xlink:href="#ArialMT-30"/>
       <use x="194.628906" xlink:href="#ArialMT-38"/>
      </g>
     </g>
    </g>
    <g id="ytick_6">
     <g id="line2d_12">
      <path clip-path="url(#pac7ac197fe)" d="M 108 157.154858 
L 777.6 157.154858 
" style="fill:none;stroke:#ffffff;stroke-linecap:round;"/>
     </g>
     <g id="text_13">
      <!-- 0.010 -->
      <g style="fill:#262626;" transform="translate(70.975938 161.091655)scale(0.11 -0.11)">
       <use xlink:href="#ArialMT-30"/>
       <use x="55.615234" xlink:href="#ArialMT-2e"/>
       <use x="83.398438" xlink:href="#ArialMT-30"/>
       <use x="139.013672" xlink:href="#ArialMT-31"/>
       <use x="194.628906" xlink:href="#ArialMT-30"/>
      </g>
     </g>
    </g>
    <g id="ytick_7">
     <g id="line2d_13">
      <path clip-path="url(#pac7ac197fe)" d="M 108 112.98583 
L 777.6 112.98583 
" style="fill:none;stroke:#ffffff;stroke-linecap:round;"/>
     </g>
     <g id="text_14">
      <!-- 0.012 -->
      <g style="fill:#262626;" transform="translate(70.975938 116.922626)scale(0.11 -0.11)">
       <use xlink:href="#ArialMT-30"/>
       <use x="55.615234" xlink:href="#ArialMT-2e"/>
       <use x="83.398438" xlink:href="#ArialMT-30"/>
       <use x="139.013672" xlink:href="#ArialMT-31"/>
       <use x="194.628906" xlink:href="#ArialMT-32"/>
      </g>
     </g>
    </g>
    <g id="ytick_8">
     <g id="line2d_14">
      <path clip-path="url(#pac7ac197fe)" d="M 108 68.816801 
L 777.6 68.816801 
" style="fill:none;stroke:#ffffff;stroke-linecap:round;"/>
     </g>
     <g id="text_15">
      <!-- 0.014 -->
      <g style="fill:#262626;" transform="translate(70.975938 72.753598)scale(0.11 -0.11)">
       <use xlink:href="#ArialMT-30"/>
       <use x="55.615234" xlink:href="#ArialMT-2e"/>
       <use x="83.398438" xlink:href="#ArialMT-30"/>
       <use x="139.013672" xlink:href="#ArialMT-31"/>
       <use x="194.628906" xlink:href="#ArialMT-34"/>
      </g>
     </g>
    </g>
    <g id="text_16">
     <!-- Density -->
     <g style="fill:#262626;" transform="translate(64.450312 234.92625)rotate(-90)scale(0.12 -0.12)">
      <defs>
       <path d="M 494 0 
L 494 4581 
L 2072 4581 
Q 2606 4581 2888 4516 
Q 3281 4425 3559 4188 
Q 3922 3881 4101 3404 
Q 4281 2928 4281 2316 
Q 4281 1794 4159 1391 
Q 4038 988 3847 723 
Q 3656 459 3429 307 
Q 3203 156 2883 78 
Q 2563 0 2147 0 
L 494 0 
z
M 1100 541 
L 2078 541 
Q 2531 541 2789 625 
Q 3047 709 3200 863 
Q 3416 1078 3536 1442 
Q 3656 1806 3656 2325 
Q 3656 3044 3420 3430 
Q 3184 3816 2847 3947 
Q 2603 4041 2063 4041 
L 1100 4041 
L 1100 541 
z
" id="ArialMT-44" transform="scale(0.015625)"/>
       <path d="M 397 -1278 
L 334 -750 
Q 519 -800 656 -800 
Q 844 -800 956 -737 
Q 1069 -675 1141 -563 
Q 1194 -478 1313 -144 
Q 1328 -97 1363 -6 
L 103 3319 
L 709 3319 
L 1400 1397 
Q 1534 1031 1641 628 
Q 1738 1016 1872 1384 
L 2581 3319 
L 3144 3319 
L 1881 -56 
Q 1678 -603 1566 -809 
Q 1416 -1088 1222 -1217 
Q 1028 -1347 759 -1347 
Q 597 -1347 397 -1278 
z
" id="ArialMT-79" transform="scale(0.015625)"/>
      </defs>
      <use xlink:href="#ArialMT-44"/>
      <use x="72.216797" xlink:href="#ArialMT-65"/>
      <use x="127.832031" xlink:href="#ArialMT-6e"/>
      <use x="183.447266" xlink:href="#ArialMT-73"/>
      <use x="233.447266" xlink:href="#ArialMT-69"/>
      <use x="255.664062" xlink:href="#ArialMT-74"/>
      <use x="283.447266" xlink:href="#ArialMT-79"/>
     </g>
    </g>
   </g>
   <g id="LineCollection_1">
    <path clip-path="url(#pac7ac197fe)" d="M 314.963746 378 
L 314.963746 369.846 
" style="fill:none;stroke:#dd8452;"/>
    <path clip-path="url(#pac7ac197fe)" d="M 293.657704 378 
L 293.657704 369.846 
" style="fill:none;stroke:#dd8452;"/>
    <path clip-path="url(#pac7ac197fe)" d="M 355.445227 378 
L 355.445227 369.846 
" style="fill:none;stroke:#dd8452;"/>
    <path clip-path="url(#pac7ac197fe)" d="M 283.004683 378 
L 283.004683 369.846 
" style="fill:none;stroke:#dd8452;"/>
    <path clip-path="url(#pac7ac197fe)" d="M 368.228852 378 
L 368.228852 369.846 
" style="fill:none;stroke:#dd8452;"/>
    <path clip-path="url(#pac7ac197fe)" d="M 314.963746 378 
L 314.963746 369.846 
" style="fill:none;stroke:#dd8452;"/>
    <path clip-path="url(#pac7ac197fe)" d="M 317.09435 378 
L 317.09435 369.846 
" style="fill:none;stroke:#dd8452;"/>
    <path clip-path="url(#pac7ac197fe)" d="M 176.474471 378 
L 176.474471 369.846 
" style="fill:none;stroke:#dd8452;"/>
    <path clip-path="url(#pac7ac197fe)" d="M 421.493958 378 
L 421.493958 369.846 
" style="fill:none;stroke:#dd8452;"/>
    <path clip-path="url(#pac7ac197fe)" d="M 389.534894 378 
L 389.534894 369.846 
" style="fill:none;stroke:#dd8452;"/>
    <path clip-path="url(#pac7ac197fe)" d="M 553.59142 378 
L 553.59142 369.846 
" style="fill:none;stroke:#dd8452;"/>
    <path clip-path="url(#pac7ac197fe)" d="M 276.61287 378 
L 276.61287 369.846 
" style="fill:none;stroke:#dd8452;"/>
    <path clip-path="url(#pac7ac197fe)" d="M 383.143082 378 
L 383.143082 369.846 
" style="fill:none;stroke:#dd8452;"/>
    <path clip-path="url(#pac7ac197fe)" d="M 602.595317 378 
L 602.595317 369.846 
" style="fill:none;stroke:#dd8452;"/>
    <path clip-path="url(#pac7ac197fe)" d="M 293.657704 378 
L 293.657704 369.846 
" style="fill:none;stroke:#dd8452;"/>
    <path clip-path="url(#pac7ac197fe)" d="M 187.127492 378 
L 187.127492 369.846 
" style="fill:none;stroke:#dd8452;"/>
    <path clip-path="url(#pac7ac197fe)" d="M 389.534894 378 
L 389.534894 369.846 
" style="fill:none;stroke:#dd8452;"/>
    <path clip-path="url(#pac7ac197fe)" d="M 709.125529 378 
L 709.125529 369.846 
" style="fill:none;stroke:#dd8452;"/>
    <path clip-path="url(#pac7ac197fe)" d="M 234.000785 378 
L 234.000785 369.846 
" style="fill:none;stroke:#dd8452;"/>
    <path clip-path="url(#pac7ac197fe)" d="M 353.314622 378 
L 353.314622 369.846 
" style="fill:none;stroke:#dd8452;"/>
    <path clip-path="url(#pac7ac197fe)" d="M 225.478369 378 
L 225.478369 369.846 
" style="fill:none;stroke:#dd8452;"/>
    <path clip-path="url(#pac7ac197fe)" d="M 265.959849 378 
L 265.959849 369.846 
" style="fill:none;stroke:#dd8452;"/>
    <path clip-path="url(#pac7ac197fe)" d="M 214.825347 378 
L 214.825347 369.846 
" style="fill:none;stroke:#dd8452;"/>
    <path clip-path="url(#pac7ac197fe)" d="M 229.739577 378 
L 229.739577 369.846 
" style="fill:none;stroke:#dd8452;"/>
    <path clip-path="url(#pac7ac197fe)" d="M 208.433535 378 
L 208.433535 369.846 
" style="fill:none;stroke:#dd8452;"/>
    <path clip-path="url(#pac7ac197fe)" d="M 378.881873 378 
L 378.881873 369.846 
" style="fill:none;stroke:#dd8452;"/>
    <path clip-path="url(#pac7ac197fe)" d="M 314.963746 378 
L 314.963746 369.846 
" style="fill:none;stroke:#dd8452;"/>
    <path clip-path="url(#pac7ac197fe)" d="M 368.228852 378 
L 368.228852 369.846 
" style="fill:none;stroke:#dd8452;"/>
    <path clip-path="url(#pac7ac197fe)" d="M 304.310725 378 
L 304.310725 369.846 
" style="fill:none;stroke:#dd8452;"/>
    <path clip-path="url(#pac7ac197fe)" d="M 208.433535 378 
L 208.433535 369.846 
" style="fill:none;stroke:#dd8452;"/>
    <path clip-path="url(#pac7ac197fe)" d="M 426.607408 378 
L 426.607408 369.846 
" style="fill:none;stroke:#dd8452;"/>
    <path clip-path="url(#pac7ac197fe)" d="M 314.963746 378 
L 314.963746 369.846 
" style="fill:none;stroke:#dd8452;"/>
    <path clip-path="url(#pac7ac197fe)" d="M 410.840937 378 
L 410.840937 369.846 
" style="fill:none;stroke:#dd8452;"/>
    <path clip-path="url(#pac7ac197fe)" d="M 304.310725 378 
L 304.310725 369.846 
" style="fill:none;stroke:#dd8452;"/>
    <path clip-path="url(#pac7ac197fe)" d="M 474.759063 378 
L 474.759063 369.846 
" style="fill:none;stroke:#dd8452;"/>
    <path clip-path="url(#pac7ac197fe)" d="M 251.045619 378 
L 251.045619 369.846 
" style="fill:none;stroke:#dd8452;"/>
    <path clip-path="url(#pac7ac197fe)" d="M 378.881873 378 
L 378.881873 369.846 
" style="fill:none;stroke:#dd8452;"/>
    <path clip-path="url(#pac7ac197fe)" d="M 283.004683 378 
L 283.004683 369.846 
" style="fill:none;stroke:#dd8452;"/>
    <path clip-path="url(#pac7ac197fe)" d="M 280.874078 378 
L 280.874078 369.846 
" style="fill:none;stroke:#dd8452;"/>
    <path clip-path="url(#pac7ac197fe)" d="M 423.624562 378 
L 423.624562 369.846 
" style="fill:none;stroke:#dd8452;"/>
    <path clip-path="url(#pac7ac197fe)" d="M 261.69864 378 
L 261.69864 369.846 
" style="fill:none;stroke:#dd8452;"/>
    <path clip-path="url(#pac7ac197fe)" d="M 308.571933 378 
L 308.571933 369.846 
" style="fill:none;stroke:#dd8452;"/>
    <path clip-path="url(#pac7ac197fe)" d="M 570.636254 378 
L 570.636254 369.846 
" style="fill:none;stroke:#dd8452;"/>
    <path clip-path="url(#pac7ac197fe)" d="M 325.616767 378 
L 325.616767 369.846 
" style="fill:none;stroke:#dd8452;"/>
    <path clip-path="url(#pac7ac197fe)" d="M 325.616767 378 
L 325.616767 369.846 
" style="fill:none;stroke:#dd8452;"/>
    <path clip-path="url(#pac7ac197fe)" d="M 432.146979 378 
L 432.146979 369.846 
" style="fill:none;stroke:#dd8452;"/>
    <path clip-path="url(#pac7ac197fe)" d="M 359.706435 378 
L 359.706435 369.846 
" style="fill:none;stroke:#dd8452;"/>
    <path clip-path="url(#pac7ac197fe)" d="M 293.657704 378 
L 293.657704 369.846 
" style="fill:none;stroke:#dd8452;"/>
    <path clip-path="url(#pac7ac197fe)" d="M 378.881873 378 
L 378.881873 369.846 
" style="fill:none;stroke:#dd8452;"/>
    <path clip-path="url(#pac7ac197fe)" d="M 314.963746 378 
L 314.963746 369.846 
" style="fill:none;stroke:#dd8452;"/>
    <path clip-path="url(#pac7ac197fe)" d="M 293.657704 378 
L 293.657704 369.846 
" style="fill:none;stroke:#dd8452;"/>
    <path clip-path="url(#pac7ac197fe)" d="M 272.351662 378 
L 272.351662 369.846 
" style="fill:none;stroke:#dd8452;"/>
    <path clip-path="url(#pac7ac197fe)" d="M 400.187915 378 
L 400.187915 369.846 
" style="fill:none;stroke:#dd8452;"/>
    <path clip-path="url(#pac7ac197fe)" d="M 193.519305 378 
L 193.519305 369.846 
" style="fill:none;stroke:#dd8452;"/>
    <path clip-path="url(#pac7ac197fe)" d="M 259.568036 378 
L 259.568036 369.846 
" style="fill:none;stroke:#dd8452;"/>
    <path clip-path="url(#pac7ac197fe)" d="M 464.106042 378 
L 464.106042 369.846 
" style="fill:none;stroke:#dd8452;"/>
    <path clip-path="url(#pac7ac197fe)" d="M 208.433535 378 
L 208.433535 369.846 
" style="fill:none;stroke:#dd8452;"/>
    <path clip-path="url(#pac7ac197fe)" d="M 346.92281 378 
L 346.92281 369.846 
" style="fill:none;stroke:#dd8452;"/>
    <path clip-path="url(#pac7ac197fe)" d="M 304.310725 378 
L 304.310725 369.846 
" style="fill:none;stroke:#dd8452;"/>
    <path clip-path="url(#pac7ac197fe)" d="M 346.92281 378 
L 346.92281 369.846 
" style="fill:none;stroke:#dd8452;"/>
    <path clip-path="url(#pac7ac197fe)" d="M 351.184018 378 
L 351.184018 369.846 
" style="fill:none;stroke:#dd8452;"/>
    <path clip-path="url(#pac7ac197fe)" d="M 289.396495 378 
L 289.396495 369.846 
" style="fill:none;stroke:#dd8452;"/>
    <path clip-path="url(#pac7ac197fe)" d="M 312.833142 378 
L 312.833142 369.846 
" style="fill:none;stroke:#dd8452;"/>
    <path clip-path="url(#pac7ac197fe)" d="M 410.840937 378 
L 410.840937 369.846 
" style="fill:none;stroke:#dd8452;"/>
    <path clip-path="url(#pac7ac197fe)" d="M 268.090453 378 
L 268.090453 369.846 
" style="fill:none;stroke:#dd8452;"/>
    <path clip-path="url(#pac7ac197fe)" d="M 272.351662 378 
L 272.351662 369.846 
" style="fill:none;stroke:#dd8452;"/>
    <path clip-path="url(#pac7ac197fe)" d="M 346.92281 378 
L 346.92281 369.846 
" style="fill:none;stroke:#dd8452;"/>
    <path clip-path="url(#pac7ac197fe)" d="M 395.926707 378 
L 395.926707 369.846 
" style="fill:none;stroke:#dd8452;"/>
   </g>
   <g id="line2d_15">
    <path clip-path="url(#pac7ac197fe)" d="M 138.436364 377.742719 
L 141.495295 377.477152 
L 144.554226 376.994127 
L 147.613157 376.166632 
L 150.672088 374.831105 
L 153.731019 372.799851 
L 156.78995 369.887195 
L 159.848881 365.947273 
L 162.907812 360.915489 
L 165.966743 354.840993 
L 169.025674 347.896659 
L 175.143536 332.548027 
L 181.261398 317.223533 
L 187.37926 302.9373 
L 193.497122 288.867728 
L 199.614984 274.625806 
L 202.673915 268.118512 
L 205.732846 262.729187 
L 208.791777 258.993141 
L 211.850708 257.264269 
L 214.909639 257.628551 
L 217.96857 259.913734 
L 221.027501 263.772015 
L 224.086432 268.775151 
L 233.263225 285.733453 
L 236.322156 289.930387 
L 239.381087 292.042802 
L 242.440018 291.220853 
L 245.498949 286.81409 
L 248.55788 278.540823 
L 251.616811 266.58729 
L 254.675742 251.602189 
L 257.734673 234.587962 
L 263.852535 199.144751 
L 266.911466 182.796758 
L 269.970397 168.287307 
L 273.029328 155.866835 
L 276.088259 145.463668 
L 279.14719 136.769658 
L 282.206122 129.338731 
L 285.265053 122.672512 
L 291.382915 109.794192 
L 300.559708 89.256874 
L 303.618639 83.953438 
L 306.67757 81.49032 
L 309.736501 83.434329 
L 312.795432 91.035285 
L 315.854363 104.770071 
L 318.913294 124.022494 
L 321.972225 147.032086 
L 325.031156 171.161659 
L 328.090087 193.427873 
L 331.149018 211.152534 
L 334.207949 222.553686 
L 337.26688 227.113115 
L 340.325811 225.621356 
L 343.384742 219.893071 
L 349.502604 204.859239 
L 352.561535 199.315441 
L 355.620466 196.263147 
L 358.679397 195.468023 
L 361.738328 196.088198 
L 364.797259 197.094758 
L 367.85619 197.679349 
L 370.915121 197.52067 
L 373.974052 196.845705 
L 377.032983 196.297207 
L 380.091914 196.678558 
L 383.150845 198.67367 
L 386.209776 202.630517 
L 389.268707 208.4624 
L 392.327638 215.677577 
L 398.4455 231.112592 
L 401.504431 237.739652 
L 404.563362 242.918218 
L 407.622293 246.542779 
L 410.681224 248.904605 
L 413.740155 250.644753 
L 416.799086 252.636766 
L 419.858017 255.813484 
L 422.916948 260.965254 
L 425.975879 268.55011 
L 429.03481 278.562931 
L 432.093741 290.502633 
L 438.211603 316.257123 
L 441.270534 327.748235 
L 444.329466 336.965947 
L 447.388397 343.321766 
L 450.447328 346.677352 
L 453.506259 347.33433 
L 456.56519 345.950118 
L 459.624121 343.404307 
L 462.683052 340.642608 
L 465.741983 338.524178 
L 468.800914 337.695332 
L 471.859845 338.508337 
L 474.918776 340.996964 
L 477.977707 344.910479 
L 481.036638 349.796057 
L 487.1545 360.324775 
L 490.213431 365.026977 
L 493.272362 368.956537 
L 496.331293 372.01694 
L 499.390224 374.245036 
L 502.449155 375.762985 
L 505.508086 376.727923 
L 508.567017 377.291125 
L 511.625948 377.571404 
L 514.684879 377.641574 
L 517.74381 377.523902 
L 520.802741 377.190864 
L 523.861672 376.570103 
L 526.920603 375.555345 
L 529.979534 374.026304 
L 533.038465 371.878873 
L 536.097396 369.062205 
L 539.156327 365.613351 
L 542.215258 361.676626 
L 548.33312 353.385268 
L 551.392051 349.665639 
L 554.450982 346.622435 
L 557.509913 344.464419 
L 560.568844 343.312373 
L 563.627775 343.202751 
L 566.686706 344.092299 
L 569.745637 345.852871 
L 572.804568 348.259519 
L 578.92243 353.644871 
L 581.981361 355.828444 
L 585.040292 357.22659 
L 588.099223 357.704791 
L 591.158154 357.359481 
L 597.276016 355.609515 
L 600.334947 355.145685 
L 603.393878 355.488038 
L 606.45281 356.806283 
L 609.511741 359.038668 
L 612.570672 361.931023 
L 618.688534 368.254266 
L 621.747465 371.036079 
L 624.806396 373.30355 
L 627.865327 375.011232 
L 630.924258 376.205336 
L 633.983189 376.983232 
L 637.04212 377.456502 
L 640.101051 377.725897 
L 646.218913 377.941357 
L 658.454637 377.99126 
L 667.63143 377.897082 
L 673.749292 377.555855 
L 676.808223 377.154309 
L 679.867154 376.480769 
L 682.926085 375.42511 
L 685.985016 373.882661 
L 689.043947 371.788488 
L 692.102878 369.159011 
L 701.279671 360.021708 
L 704.338602 357.72582 
L 707.397533 356.429461 
L 710.456464 356.347825 
L 713.515395 357.494758 
L 716.574326 359.678919 
L 719.633257 362.555988 
L 725.751119 368.78391 
L 728.81005 371.475845 
L 731.868981 373.642628 
L 734.927912 375.254333 
L 737.986843 376.367723 
L 741.045774 377.084491 
L 744.104705 377.515544 
L 747.163636 377.758137 
L 747.163636 377.758137 
" style="fill:none;stroke:#4c72b0;stroke-linecap:round;stroke-width:1.5;"/>
   </g>
   <g id="patch_3">
    <path d="M 108 378 
L 108 51.84 
" style="fill:none;stroke:#ffffff;stroke-linecap:square;stroke-linejoin:miter;stroke-width:1.25;"/>
   </g>
   <g id="patch_4">
    <path d="M 777.6 378 
L 777.6 51.84 
" style="fill:none;stroke:#ffffff;stroke-linecap:square;stroke-linejoin:miter;stroke-width:1.25;"/>
   </g>
   <g id="patch_5">
    <path d="M 108 378 
L 777.6 378 
" style="fill:none;stroke:#ffffff;stroke-linecap:square;stroke-linejoin:miter;stroke-width:1.25;"/>
   </g>
   <g id="patch_6">
    <path d="M 108 51.84 
L 777.6 51.84 
" style="fill:none;stroke:#ffffff;stroke-linecap:square;stroke-linejoin:miter;stroke-width:1.25;"/>
   </g>
   <g id="text_17">
    <!-- Distribution of Financial Compensation (2021) -->
    <g style="fill:#262626;" transform="translate(321.079688 45.84)scale(0.12 -0.12)">
     <defs>
      <path d="M 416 0 
L 416 3319 
L 922 3319 
L 922 2816 
Q 1116 3169 1280 3281 
Q 1444 3394 1641 3394 
Q 1925 3394 2219 3213 
L 2025 2691 
Q 1819 2813 1613 2813 
Q 1428 2813 1281 2702 
Q 1134 2591 1072 2394 
Q 978 2094 978 1738 
L 978 0 
L 416 0 
z
" id="ArialMT-72" transform="scale(0.015625)"/>
      <path d="M 941 0 
L 419 0 
L 419 4581 
L 981 4581 
L 981 2947 
Q 1338 3394 1891 3394 
Q 2197 3394 2470 3270 
Q 2744 3147 2920 2923 
Q 3097 2700 3197 2384 
Q 3297 2069 3297 1709 
Q 3297 856 2875 390 
Q 2453 -75 1863 -75 
Q 1275 -75 941 416 
L 941 0 
z
M 934 1684 
Q 934 1088 1097 822 
Q 1363 388 1816 388 
Q 2184 388 2453 708 
Q 2722 1028 2722 1663 
Q 2722 2313 2464 2622 
Q 2206 2931 1841 2931 
Q 1472 2931 1203 2611 
Q 934 2291 934 1684 
z
" id="ArialMT-62" transform="scale(0.015625)"/>
      <path d="M 556 0 
L 556 2881 
L 59 2881 
L 59 3319 
L 556 3319 
L 556 3672 
Q 556 4006 616 4169 
Q 697 4388 901 4523 
Q 1106 4659 1475 4659 
Q 1713 4659 2000 4603 
L 1916 4113 
Q 1741 4144 1584 4144 
Q 1328 4144 1222 4034 
Q 1116 3925 1116 3625 
L 1116 3319 
L 1763 3319 
L 1763 2881 
L 1116 2881 
L 1116 0 
L 556 0 
z
" id="ArialMT-66" transform="scale(0.015625)"/>
     </defs>
     <use xlink:href="#ArialMT-44"/>
     <use x="72.216797" xlink:href="#ArialMT-69"/>
     <use x="94.433594" xlink:href="#ArialMT-73"/>
     <use x="144.433594" xlink:href="#ArialMT-74"/>
     <use x="172.216797" xlink:href="#ArialMT-72"/>
     <use x="205.517578" xlink:href="#ArialMT-69"/>
     <use x="227.734375" xlink:href="#ArialMT-62"/>
     <use x="283.349609" xlink:href="#ArialMT-75"/>
     <use x="338.964844" xlink:href="#ArialMT-74"/>
     <use x="366.748047" xlink:href="#ArialMT-69"/>
     <use x="388.964844" xlink:href="#ArialMT-6f"/>
     <use x="444.580078" xlink:href="#ArialMT-6e"/>
     <use x="500.195312" xlink:href="#ArialMT-20"/>
     <use x="527.978516" xlink:href="#ArialMT-6f"/>
     <use x="583.59375" xlink:href="#ArialMT-66"/>
     <use x="611.376953" xlink:href="#ArialMT-20"/>
     <use x="639.160156" xlink:href="#ArialMT-46"/>
     <use x="700.244141" xlink:href="#ArialMT-69"/>
     <use x="722.460938" xlink:href="#ArialMT-6e"/>
     <use x="778.076172" xlink:href="#ArialMT-61"/>
     <use x="833.691406" xlink:href="#ArialMT-6e"/>
     <use x="889.306641" xlink:href="#ArialMT-63"/>
     <use x="939.306641" xlink:href="#ArialMT-69"/>
     <use x="961.523438" xlink:href="#ArialMT-61"/>
     <use x="1017.138672" xlink:href="#ArialMT-6c"/>
     <use x="1039.355469" xlink:href="#ArialMT-20"/>
     <use x="1067.138672" xlink:href="#ArialMT-43"/>
     <use x="1139.355469" xlink:href="#ArialMT-6f"/>
     <use x="1194.970703" xlink:href="#ArialMT-6d"/>
     <use x="1278.271484" xlink:href="#ArialMT-70"/>
     <use x="1333.886719" xlink:href="#ArialMT-65"/>
     <use x="1389.501953" xlink:href="#ArialMT-6e"/>
     <use x="1445.117188" xlink:href="#ArialMT-73"/>
     <use x="1495.117188" xlink:href="#ArialMT-61"/>
     <use x="1550.732422" xlink:href="#ArialMT-74"/>
     <use x="1578.515625" xlink:href="#ArialMT-69"/>
     <use x="1600.732422" xlink:href="#ArialMT-6f"/>
     <use x="1656.347656" xlink:href="#ArialMT-6e"/>
     <use x="1711.962891" xlink:href="#ArialMT-20"/>
     <use x="1739.746094" xlink:href="#ArialMT-28"/>
     <use x="1773.046875" xlink:href="#ArialMT-32"/>
     <use x="1828.662109" xlink:href="#ArialMT-30"/>
     <use x="1884.277344" xlink:href="#ArialMT-32"/>
     <use x="1939.892578" xlink:href="#ArialMT-31"/>
     <use x="1995.507812" xlink:href="#ArialMT-29"/>
    </g>
   </g>
  </g>
 </g>
 <defs>
  <clipPath id="pac7ac197fe">
   <rect height="326.16" width="669.6" x="108" y="51.84"/>
  </clipPath>
 </defs>
</svg>
