<?xml version="1.0" encoding="utf-8" standalone="no"?>
<!DOCTYPE svg PUBLIC "-//W3C//DTD SVG 1.1//EN"
  "http://www.w3.org/Graphics/SVG/1.1/DTD/svg11.dtd">
<svg height="432pt" version="1.1" viewBox="0 0 864 432" width="864pt" xmlns="http://www.w3.org/2000/svg" xmlns:xlink="http://www.w3.org/1999/xlink">
 <metadata>
  <rdf:RDF xmlns:cc="http://creativecommons.org/ns#" xmlns:dc="http://purl.org/dc/elements/1.1/" xmlns:rdf="http://www.w3.org/1999/02/22-rdf-syntax-ns#">
   <cc:Work>
    <dc:type rdf:resource="http://purl.org/dc/dcmitype/StillImage"/>
    <dc:date>2021-12-27T06:11:39.634180</dc:date>
    <dc:format>image/svg+xml</dc:format>
    <dc:creator>
     <cc:Agent>
      <dc:title>Matplotlib v3.4.3, https://matplotlib.org/</dc:title>
     </cc:Agent>
    </dc:creator>
   </cc:Work>
  </rdf:RDF>
 </metadata>
 <defs>
  <style type="text/css">*{stroke-linecap:butt;stroke-linejoin:round;}</style>
 </defs>
 <g id="figure_1">
  <g id="patch_1">
   <path d="M 0 432 
L 864 432 
L 864 0 
L 0 0 
z
" style="fill:#ffffff;"/>
  </g>
  <g id="axes_1">
   <g id="patch_2">
    <path d="M 108 378 
L 777.6 378 
L 777.6 51.84 
L 108 51.84 
z
" style="fill:#eaeaf2;"/>
   </g>
   <g id="matplotlib.axis_1">
    <g id="xtick_1">
     <g id="line2d_1">
      <path clip-path="url(#pb811e0256b)" d="M 173.085494 378 
L 173.085494 51.84 
" style="fill:none;stroke:#ffffff;stroke-linecap:round;"/>
     </g>
     <g id="text_1">
      <!-- 5 -->
      <g style="fill:#262626;" transform="translate(170.026979 395.373594)scale(0.11 -0.11)">
       <defs>
        <path d="M 266 1200 
L 856 1250 
Q 922 819 1161 601 
Q 1400 384 1738 384 
Q 2144 384 2425 690 
Q 2706 997 2706 1503 
Q 2706 1984 2436 2262 
Q 2166 2541 1728 2541 
Q 1456 2541 1237 2417 
Q 1019 2294 894 2097 
L 366 2166 
L 809 4519 
L 3088 4519 
L 3088 3981 
L 1259 3981 
L 1013 2750 
Q 1425 3038 1878 3038 
Q 2478 3038 2890 2622 
Q 3303 2206 3303 1553 
Q 3303 931 2941 478 
Q 2500 -78 1738 -78 
Q 1113 -78 717 272 
Q 322 622 266 1200 
z
" id="ArialMT-35" transform="scale(0.015625)"/>
       </defs>
       <use xlink:href="#ArialMT-35"/>
      </g>
     </g>
    </g>
    <g id="xtick_2">
     <g id="line2d_2">
      <path clip-path="url(#pb811e0256b)" d="M 255.003581 378 
L 255.003581 51.84 
" style="fill:none;stroke:#ffffff;stroke-linecap:round;"/>
     </g>
     <g id="text_2">
      <!-- 10 -->
      <g style="fill:#262626;" transform="translate(248.88655 395.373594)scale(0.11 -0.11)">
       <defs>
        <path d="M 2384 0 
L 1822 0 
L 1822 3584 
Q 1619 3391 1289 3197 
Q 959 3003 697 2906 
L 697 3450 
Q 1169 3672 1522 3987 
Q 1875 4303 2022 4600 
L 2384 4600 
L 2384 0 
z
" id="ArialMT-31" transform="scale(0.015625)"/>
        <path d="M 266 2259 
Q 266 3072 433 3567 
Q 600 4063 929 4331 
Q 1259 4600 1759 4600 
Q 2128 4600 2406 4451 
Q 2684 4303 2865 4023 
Q 3047 3744 3150 3342 
Q 3253 2941 3253 2259 
Q 3253 1453 3087 958 
Q 2922 463 2592 192 
Q 2263 -78 1759 -78 
Q 1097 -78 719 397 
Q 266 969 266 2259 
z
M 844 2259 
Q 844 1131 1108 757 
Q 1372 384 1759 384 
Q 2147 384 2411 759 
Q 2675 1134 2675 2259 
Q 2675 3391 2411 3762 
Q 2147 4134 1753 4134 
Q 1366 4134 1134 3806 
Q 844 3388 844 2259 
z
" id="ArialMT-30" transform="scale(0.015625)"/>
       </defs>
       <use xlink:href="#ArialMT-31"/>
       <use x="55.615234" xlink:href="#ArialMT-30"/>
      </g>
     </g>
    </g>
    <g id="xtick_3">
     <g id="line2d_3">
      <path clip-path="url(#pb811e0256b)" d="M 336.921668 378 
L 336.921668 51.84 
" style="fill:none;stroke:#ffffff;stroke-linecap:round;"/>
     </g>
     <g id="text_3">
      <!-- 15 -->
      <g style="fill:#262626;" transform="translate(330.804636 395.373594)scale(0.11 -0.11)">
       <use xlink:href="#ArialMT-31"/>
       <use x="55.615234" xlink:href="#ArialMT-35"/>
      </g>
     </g>
    </g>
    <g id="xtick_4">
     <g id="line2d_4">
      <path clip-path="url(#pb811e0256b)" d="M 418.839754 378 
L 418.839754 51.84 
" style="fill:none;stroke:#ffffff;stroke-linecap:round;"/>
     </g>
     <g id="text_4">
      <!-- 20 -->
      <g style="fill:#262626;" transform="translate(412.722723 395.373594)scale(0.11 -0.11)">
       <defs>
        <path d="M 3222 541 
L 3222 0 
L 194 0 
Q 188 203 259 391 
Q 375 700 629 1000 
Q 884 1300 1366 1694 
Q 2113 2306 2375 2664 
Q 2638 3022 2638 3341 
Q 2638 3675 2398 3904 
Q 2159 4134 1775 4134 
Q 1369 4134 1125 3890 
Q 881 3647 878 3216 
L 300 3275 
Q 359 3922 746 4261 
Q 1134 4600 1788 4600 
Q 2447 4600 2831 4234 
Q 3216 3869 3216 3328 
Q 3216 3053 3103 2787 
Q 2991 2522 2730 2228 
Q 2469 1934 1863 1422 
Q 1356 997 1212 845 
Q 1069 694 975 541 
L 3222 541 
z
" id="ArialMT-32" transform="scale(0.015625)"/>
       </defs>
       <use xlink:href="#ArialMT-32"/>
       <use x="55.615234" xlink:href="#ArialMT-30"/>
      </g>
     </g>
    </g>
    <g id="xtick_5">
     <g id="line2d_5">
      <path clip-path="url(#pb811e0256b)" d="M 500.757841 378 
L 500.757841 51.84 
" style="fill:none;stroke:#ffffff;stroke-linecap:round;"/>
     </g>
     <g id="text_5">
      <!-- 25 -->
      <g style="fill:#262626;" transform="translate(494.64081 395.373594)scale(0.11 -0.11)">
       <use xlink:href="#ArialMT-32"/>
       <use x="55.615234" xlink:href="#ArialMT-35"/>
      </g>
     </g>
    </g>
    <g id="xtick_6">
     <g id="line2d_6">
      <path clip-path="url(#pb811e0256b)" d="M 582.675928 378 
L 582.675928 51.84 
" style="fill:none;stroke:#ffffff;stroke-linecap:round;"/>
     </g>
     <g id="text_6">
      <!-- 30 -->
      <g style="fill:#262626;" transform="translate(576.558897 395.373594)scale(0.11 -0.11)">
       <defs>
        <path d="M 269 1209 
L 831 1284 
Q 928 806 1161 595 
Q 1394 384 1728 384 
Q 2125 384 2398 659 
Q 2672 934 2672 1341 
Q 2672 1728 2419 1979 
Q 2166 2231 1775 2231 
Q 1616 2231 1378 2169 
L 1441 2663 
Q 1497 2656 1531 2656 
Q 1891 2656 2178 2843 
Q 2466 3031 2466 3422 
Q 2466 3731 2256 3934 
Q 2047 4138 1716 4138 
Q 1388 4138 1169 3931 
Q 950 3725 888 3313 
L 325 3413 
Q 428 3978 793 4289 
Q 1159 4600 1703 4600 
Q 2078 4600 2393 4439 
Q 2709 4278 2876 4000 
Q 3044 3722 3044 3409 
Q 3044 3113 2884 2869 
Q 2725 2625 2413 2481 
Q 2819 2388 3044 2092 
Q 3269 1797 3269 1353 
Q 3269 753 2831 336 
Q 2394 -81 1725 -81 
Q 1122 -81 723 278 
Q 325 638 269 1209 
z
" id="ArialMT-33" transform="scale(0.015625)"/>
       </defs>
       <use xlink:href="#ArialMT-33"/>
       <use x="55.615234" xlink:href="#ArialMT-30"/>
      </g>
     </g>
    </g>
    <g id="xtick_7">
     <g id="line2d_7">
      <path clip-path="url(#pb811e0256b)" d="M 664.594015 378 
L 664.594015 51.84 
" style="fill:none;stroke:#ffffff;stroke-linecap:round;"/>
     </g>
     <g id="text_7">
      <!-- 35 -->
      <g style="fill:#262626;" transform="translate(658.476983 395.373594)scale(0.11 -0.11)">
       <use xlink:href="#ArialMT-33"/>
       <use x="55.615234" xlink:href="#ArialMT-35"/>
      </g>
     </g>
    </g>
    <g id="xtick_8">
     <g id="line2d_8">
      <path clip-path="url(#pb811e0256b)" d="M 746.512101 378 
L 746.512101 51.84 
" style="fill:none;stroke:#ffffff;stroke-linecap:round;"/>
     </g>
     <g id="text_8">
      <!-- 40 -->
      <g style="fill:#262626;" transform="translate(740.39507 395.373594)scale(0.11 -0.11)">
       <defs>
        <path d="M 2069 0 
L 2069 1097 
L 81 1097 
L 81 1613 
L 2172 4581 
L 2631 4581 
L 2631 1613 
L 3250 1613 
L 3250 1097 
L 2631 1097 
L 2631 0 
L 2069 0 
z
M 2069 1613 
L 2069 3678 
L 634 1613 
L 2069 1613 
z
" id="ArialMT-34" transform="scale(0.015625)"/>
       </defs>
       <use xlink:href="#ArialMT-34"/>
       <use x="55.615234" xlink:href="#ArialMT-30"/>
      </g>
     </g>
    </g>
    <g id="text_9">
     <!-- Number of Years in Tech -->
     <g style="fill:#262626;" transform="translate(377.535 410.149219)scale(0.12 -0.12)">
      <defs>
       <path d="M 488 0 
L 488 4581 
L 1109 4581 
L 3516 984 
L 3516 4581 
L 4097 4581 
L 4097 0 
L 3475 0 
L 1069 3600 
L 1069 0 
L 488 0 
z
" id="ArialMT-4e" transform="scale(0.015625)"/>
       <path d="M 2597 0 
L 2597 488 
Q 2209 -75 1544 -75 
Q 1250 -75 995 37 
Q 741 150 617 320 
Q 494 491 444 738 
Q 409 903 409 1263 
L 409 3319 
L 972 3319 
L 972 1478 
Q 972 1038 1006 884 
Q 1059 663 1231 536 
Q 1403 409 1656 409 
Q 1909 409 2131 539 
Q 2353 669 2445 892 
Q 2538 1116 2538 1541 
L 2538 3319 
L 3100 3319 
L 3100 0 
L 2597 0 
z
" id="ArialMT-75" transform="scale(0.015625)"/>
       <path d="M 422 0 
L 422 3319 
L 925 3319 
L 925 2853 
Q 1081 3097 1340 3245 
Q 1600 3394 1931 3394 
Q 2300 3394 2536 3241 
Q 2772 3088 2869 2813 
Q 3263 3394 3894 3394 
Q 4388 3394 4653 3120 
Q 4919 2847 4919 2278 
L 4919 0 
L 4359 0 
L 4359 2091 
Q 4359 2428 4304 2576 
Q 4250 2725 4106 2815 
Q 3963 2906 3769 2906 
Q 3419 2906 3187 2673 
Q 2956 2441 2956 1928 
L 2956 0 
L 2394 0 
L 2394 2156 
Q 2394 2531 2256 2718 
Q 2119 2906 1806 2906 
Q 1569 2906 1367 2781 
Q 1166 2656 1075 2415 
Q 984 2175 984 1722 
L 984 0 
L 422 0 
z
" id="ArialMT-6d" transform="scale(0.015625)"/>
       <path d="M 941 0 
L 419 0 
L 419 4581 
L 981 4581 
L 981 2947 
Q 1338 3394 1891 3394 
Q 2197 3394 2470 3270 
Q 2744 3147 2920 2923 
Q 3097 2700 3197 2384 
Q 3297 2069 3297 1709 
Q 3297 856 2875 390 
Q 2453 -75 1863 -75 
Q 1275 -75 941 416 
L 941 0 
z
M 934 1684 
Q 934 1088 1097 822 
Q 1363 388 1816 388 
Q 2184 388 2453 708 
Q 2722 1028 2722 1663 
Q 2722 2313 2464 2622 
Q 2206 2931 1841 2931 
Q 1472 2931 1203 2611 
Q 934 2291 934 1684 
z
" id="ArialMT-62" transform="scale(0.015625)"/>
       <path d="M 2694 1069 
L 3275 997 
Q 3138 488 2766 206 
Q 2394 -75 1816 -75 
Q 1088 -75 661 373 
Q 234 822 234 1631 
Q 234 2469 665 2931 
Q 1097 3394 1784 3394 
Q 2450 3394 2872 2941 
Q 3294 2488 3294 1666 
Q 3294 1616 3291 1516 
L 816 1516 
Q 847 969 1125 678 
Q 1403 388 1819 388 
Q 2128 388 2347 550 
Q 2566 713 2694 1069 
z
M 847 1978 
L 2700 1978 
Q 2663 2397 2488 2606 
Q 2219 2931 1791 2931 
Q 1403 2931 1139 2672 
Q 875 2413 847 1978 
z
" id="ArialMT-65" transform="scale(0.015625)"/>
       <path d="M 416 0 
L 416 3319 
L 922 3319 
L 922 2816 
Q 1116 3169 1280 3281 
Q 1444 3394 1641 3394 
Q 1925 3394 2219 3213 
L 2025 2691 
Q 1819 2813 1613 2813 
Q 1428 2813 1281 2702 
Q 1134 2591 1072 2394 
Q 978 2094 978 1738 
L 978 0 
L 416 0 
z
" id="ArialMT-72" transform="scale(0.015625)"/>
       <path id="ArialMT-20" transform="scale(0.015625)"/>
       <path d="M 213 1659 
Q 213 2581 725 3025 
Q 1153 3394 1769 3394 
Q 2453 3394 2887 2945 
Q 3322 2497 3322 1706 
Q 3322 1066 3130 698 
Q 2938 331 2570 128 
Q 2203 -75 1769 -75 
Q 1072 -75 642 372 
Q 213 819 213 1659 
z
M 791 1659 
Q 791 1022 1069 705 
Q 1347 388 1769 388 
Q 2188 388 2466 706 
Q 2744 1025 2744 1678 
Q 2744 2294 2464 2611 
Q 2184 2928 1769 2928 
Q 1347 2928 1069 2612 
Q 791 2297 791 1659 
z
" id="ArialMT-6f" transform="scale(0.015625)"/>
       <path d="M 556 0 
L 556 2881 
L 59 2881 
L 59 3319 
L 556 3319 
L 556 3672 
Q 556 4006 616 4169 
Q 697 4388 901 4523 
Q 1106 4659 1475 4659 
Q 1713 4659 2000 4603 
L 1916 4113 
Q 1741 4144 1584 4144 
Q 1328 4144 1222 4034 
Q 1116 3925 1116 3625 
L 1116 3319 
L 1763 3319 
L 1763 2881 
L 1116 2881 
L 1116 0 
L 556 0 
z
" id="ArialMT-66" transform="scale(0.015625)"/>
       <path d="M 1784 0 
L 1784 1941 
L 19 4581 
L 756 4581 
L 1659 3200 
Q 1909 2813 2125 2425 
Q 2331 2784 2625 3234 
L 3513 4581 
L 4219 4581 
L 2391 1941 
L 2391 0 
L 1784 0 
z
" id="ArialMT-59" transform="scale(0.015625)"/>
       <path d="M 2588 409 
Q 2275 144 1986 34 
Q 1697 -75 1366 -75 
Q 819 -75 525 192 
Q 231 459 231 875 
Q 231 1119 342 1320 
Q 453 1522 633 1644 
Q 813 1766 1038 1828 
Q 1203 1872 1538 1913 
Q 2219 1994 2541 2106 
Q 2544 2222 2544 2253 
Q 2544 2597 2384 2738 
Q 2169 2928 1744 2928 
Q 1347 2928 1158 2789 
Q 969 2650 878 2297 
L 328 2372 
Q 403 2725 575 2942 
Q 747 3159 1072 3276 
Q 1397 3394 1825 3394 
Q 2250 3394 2515 3294 
Q 2781 3194 2906 3042 
Q 3031 2891 3081 2659 
Q 3109 2516 3109 2141 
L 3109 1391 
Q 3109 606 3145 398 
Q 3181 191 3288 0 
L 2700 0 
Q 2613 175 2588 409 
z
M 2541 1666 
Q 2234 1541 1622 1453 
Q 1275 1403 1131 1340 
Q 988 1278 909 1158 
Q 831 1038 831 891 
Q 831 666 1001 516 
Q 1172 366 1500 366 
Q 1825 366 2078 508 
Q 2331 650 2450 897 
Q 2541 1088 2541 1459 
L 2541 1666 
z
" id="ArialMT-61" transform="scale(0.015625)"/>
       <path d="M 197 991 
L 753 1078 
Q 800 744 1014 566 
Q 1228 388 1613 388 
Q 2000 388 2187 545 
Q 2375 703 2375 916 
Q 2375 1106 2209 1216 
Q 2094 1291 1634 1406 
Q 1016 1563 777 1677 
Q 538 1791 414 1992 
Q 291 2194 291 2438 
Q 291 2659 392 2848 
Q 494 3038 669 3163 
Q 800 3259 1026 3326 
Q 1253 3394 1513 3394 
Q 1903 3394 2198 3281 
Q 2494 3169 2634 2976 
Q 2775 2784 2828 2463 
L 2278 2388 
Q 2241 2644 2061 2787 
Q 1881 2931 1553 2931 
Q 1166 2931 1000 2803 
Q 834 2675 834 2503 
Q 834 2394 903 2306 
Q 972 2216 1119 2156 
Q 1203 2125 1616 2013 
Q 2213 1853 2448 1751 
Q 2684 1650 2818 1456 
Q 2953 1263 2953 975 
Q 2953 694 2789 445 
Q 2625 197 2315 61 
Q 2006 -75 1616 -75 
Q 969 -75 630 194 
Q 291 463 197 991 
z
" id="ArialMT-73" transform="scale(0.015625)"/>
       <path d="M 425 3934 
L 425 4581 
L 988 4581 
L 988 3934 
L 425 3934 
z
M 425 0 
L 425 3319 
L 988 3319 
L 988 0 
L 425 0 
z
" id="ArialMT-69" transform="scale(0.015625)"/>
       <path d="M 422 0 
L 422 3319 
L 928 3319 
L 928 2847 
Q 1294 3394 1984 3394 
Q 2284 3394 2536 3286 
Q 2788 3178 2913 3003 
Q 3038 2828 3088 2588 
Q 3119 2431 3119 2041 
L 3119 0 
L 2556 0 
L 2556 2019 
Q 2556 2363 2490 2533 
Q 2425 2703 2258 2804 
Q 2091 2906 1866 2906 
Q 1506 2906 1245 2678 
Q 984 2450 984 1813 
L 984 0 
L 422 0 
z
" id="ArialMT-6e" transform="scale(0.015625)"/>
       <path d="M 1659 0 
L 1659 4041 
L 150 4041 
L 150 4581 
L 3781 4581 
L 3781 4041 
L 2266 4041 
L 2266 0 
L 1659 0 
z
" id="ArialMT-54" transform="scale(0.015625)"/>
       <path d="M 2588 1216 
L 3141 1144 
Q 3050 572 2676 248 
Q 2303 -75 1759 -75 
Q 1078 -75 664 370 
Q 250 816 250 1647 
Q 250 2184 428 2587 
Q 606 2991 970 3192 
Q 1334 3394 1763 3394 
Q 2303 3394 2647 3120 
Q 2991 2847 3088 2344 
L 2541 2259 
Q 2463 2594 2264 2762 
Q 2066 2931 1784 2931 
Q 1359 2931 1093 2626 
Q 828 2322 828 1663 
Q 828 994 1084 691 
Q 1341 388 1753 388 
Q 2084 388 2306 591 
Q 2528 794 2588 1216 
z
" id="ArialMT-63" transform="scale(0.015625)"/>
       <path d="M 422 0 
L 422 4581 
L 984 4581 
L 984 2938 
Q 1378 3394 1978 3394 
Q 2347 3394 2619 3248 
Q 2891 3103 3008 2847 
Q 3125 2591 3125 2103 
L 3125 0 
L 2563 0 
L 2563 2103 
Q 2563 2525 2380 2717 
Q 2197 2909 1863 2909 
Q 1613 2909 1392 2779 
Q 1172 2650 1078 2428 
Q 984 2206 984 1816 
L 984 0 
L 422 0 
z
" id="ArialMT-68" transform="scale(0.015625)"/>
      </defs>
      <use xlink:href="#ArialMT-4e"/>
      <use x="72.216797" xlink:href="#ArialMT-75"/>
      <use x="127.832031" xlink:href="#ArialMT-6d"/>
      <use x="211.132812" xlink:href="#ArialMT-62"/>
      <use x="266.748047" xlink:href="#ArialMT-65"/>
      <use x="322.363281" xlink:href="#ArialMT-72"/>
      <use x="355.664062" xlink:href="#ArialMT-20"/>
      <use x="383.447266" xlink:href="#ArialMT-6f"/>
      <use x="439.0625" xlink:href="#ArialMT-66"/>
      <use x="466.845703" xlink:href="#ArialMT-20"/>
      <use x="492.878906" xlink:href="#ArialMT-59"/>
      <use x="550.453125" xlink:href="#ArialMT-65"/>
      <use x="606.068359" xlink:href="#ArialMT-61"/>
      <use x="661.683594" xlink:href="#ArialMT-72"/>
      <use x="694.984375" xlink:href="#ArialMT-73"/>
      <use x="744.984375" xlink:href="#ArialMT-20"/>
      <use x="772.767578" xlink:href="#ArialMT-69"/>
      <use x="794.984375" xlink:href="#ArialMT-6e"/>
      <use x="850.599609" xlink:href="#ArialMT-20"/>
      <use x="876.632812" xlink:href="#ArialMT-54"/>
      <use x="926.591797" xlink:href="#ArialMT-65"/>
      <use x="982.207031" xlink:href="#ArialMT-63"/>
      <use x="1032.207031" xlink:href="#ArialMT-68"/>
     </g>
    </g>
   </g>
   <g id="matplotlib.axis_2">
    <g id="ytick_1">
     <g id="line2d_9">
      <path clip-path="url(#pb811e0256b)" d="M 108 321.437367 
L 777.6 321.437367 
" style="fill:none;stroke:#ffffff;stroke-linecap:round;"/>
     </g>
     <g id="text_10">
      <!-- 100 -->
      <g style="fill:#262626;" transform="translate(80.148906 325.374164)scale(0.11 -0.11)">
       <use xlink:href="#ArialMT-31"/>
       <use x="55.615234" xlink:href="#ArialMT-30"/>
       <use x="111.230469" xlink:href="#ArialMT-30"/>
      </g>
     </g>
    </g>
    <g id="ytick_2">
     <g id="line2d_10">
      <path clip-path="url(#pb811e0256b)" d="M 108 262.129969 
L 777.6 262.129969 
" style="fill:none;stroke:#ffffff;stroke-linecap:round;"/>
     </g>
     <g id="text_11">
      <!-- 150 -->
      <g style="fill:#262626;" transform="translate(80.148906 266.066766)scale(0.11 -0.11)">
       <use xlink:href="#ArialMT-31"/>
       <use x="55.615234" xlink:href="#ArialMT-35"/>
       <use x="111.230469" xlink:href="#ArialMT-30"/>
      </g>
     </g>
    </g>
    <g id="ytick_3">
     <g id="line2d_11">
      <path clip-path="url(#pb811e0256b)" d="M 108 202.822572 
L 777.6 202.822572 
" style="fill:none;stroke:#ffffff;stroke-linecap:round;"/>
     </g>
     <g id="text_12">
      <!-- 200 -->
      <g style="fill:#262626;" transform="translate(80.148906 206.759369)scale(0.11 -0.11)">
       <use xlink:href="#ArialMT-32"/>
       <use x="55.615234" xlink:href="#ArialMT-30"/>
       <use x="111.230469" xlink:href="#ArialMT-30"/>
      </g>
     </g>
    </g>
    <g id="ytick_4">
     <g id="line2d_12">
      <path clip-path="url(#pb811e0256b)" d="M 108 143.515174 
L 777.6 143.515174 
" style="fill:none;stroke:#ffffff;stroke-linecap:round;"/>
     </g>
     <g id="text_13">
      <!-- 250 -->
      <g style="fill:#262626;" transform="translate(80.148906 147.451971)scale(0.11 -0.11)">
       <use xlink:href="#ArialMT-32"/>
       <use x="55.615234" xlink:href="#ArialMT-35"/>
       <use x="111.230469" xlink:href="#ArialMT-30"/>
      </g>
     </g>
    </g>
    <g id="ytick_5">
     <g id="line2d_13">
      <path clip-path="url(#pb811e0256b)" d="M 108 84.207777 
L 777.6 84.207777 
" style="fill:none;stroke:#ffffff;stroke-linecap:round;"/>
     </g>
     <g id="text_14">
      <!-- 300 -->
      <g style="fill:#262626;" transform="translate(80.148906 88.144574)scale(0.11 -0.11)">
       <use xlink:href="#ArialMT-33"/>
       <use x="55.615234" xlink:href="#ArialMT-30"/>
       <use x="111.230469" xlink:href="#ArialMT-30"/>
      </g>
     </g>
    </g>
    <g id="text_15">
     <!-- Annual income (thousands) -->
     <g style="fill:#262626;" transform="translate(73.623281 287.957812)rotate(-90)scale(0.12 -0.12)">
      <defs>
       <path d="M -9 0 
L 1750 4581 
L 2403 4581 
L 4278 0 
L 3588 0 
L 3053 1388 
L 1138 1388 
L 634 0 
L -9 0 
z
M 1313 1881 
L 2866 1881 
L 2388 3150 
Q 2169 3728 2063 4100 
Q 1975 3659 1816 3225 
L 1313 1881 
z
" id="ArialMT-41" transform="scale(0.015625)"/>
       <path d="M 409 0 
L 409 4581 
L 972 4581 
L 972 0 
L 409 0 
z
" id="ArialMT-6c" transform="scale(0.015625)"/>
       <path d="M 1497 -1347 
Q 1031 -759 709 28 
Q 388 816 388 1659 
Q 388 2403 628 3084 
Q 909 3875 1497 4659 
L 1900 4659 
Q 1522 4009 1400 3731 
Q 1209 3300 1100 2831 
Q 966 2247 966 1656 
Q 966 153 1900 -1347 
L 1497 -1347 
z
" id="ArialMT-28" transform="scale(0.015625)"/>
       <path d="M 1650 503 
L 1731 6 
Q 1494 -44 1306 -44 
Q 1000 -44 831 53 
Q 663 150 594 308 
Q 525 466 525 972 
L 525 2881 
L 113 2881 
L 113 3319 
L 525 3319 
L 525 4141 
L 1084 4478 
L 1084 3319 
L 1650 3319 
L 1650 2881 
L 1084 2881 
L 1084 941 
Q 1084 700 1114 631 
Q 1144 563 1211 522 
Q 1278 481 1403 481 
Q 1497 481 1650 503 
z
" id="ArialMT-74" transform="scale(0.015625)"/>
       <path d="M 2575 0 
L 2575 419 
Q 2259 -75 1647 -75 
Q 1250 -75 917 144 
Q 584 363 401 755 
Q 219 1147 219 1656 
Q 219 2153 384 2558 
Q 550 2963 881 3178 
Q 1213 3394 1622 3394 
Q 1922 3394 2156 3267 
Q 2391 3141 2538 2938 
L 2538 4581 
L 3097 4581 
L 3097 0 
L 2575 0 
z
M 797 1656 
Q 797 1019 1065 703 
Q 1334 388 1700 388 
Q 2069 388 2326 689 
Q 2584 991 2584 1609 
Q 2584 2291 2321 2609 
Q 2059 2928 1675 2928 
Q 1300 2928 1048 2622 
Q 797 2316 797 1656 
z
" id="ArialMT-64" transform="scale(0.015625)"/>
       <path d="M 791 -1347 
L 388 -1347 
Q 1322 153 1322 1656 
Q 1322 2244 1188 2822 
Q 1081 3291 891 3722 
Q 769 4003 388 4659 
L 791 4659 
Q 1378 3875 1659 3084 
Q 1900 2403 1900 1659 
Q 1900 816 1576 28 
Q 1253 -759 791 -1347 
z
" id="ArialMT-29" transform="scale(0.015625)"/>
      </defs>
      <use xlink:href="#ArialMT-41"/>
      <use x="66.699219" xlink:href="#ArialMT-6e"/>
      <use x="122.314453" xlink:href="#ArialMT-6e"/>
      <use x="177.929688" xlink:href="#ArialMT-75"/>
      <use x="233.544922" xlink:href="#ArialMT-61"/>
      <use x="289.160156" xlink:href="#ArialMT-6c"/>
      <use x="311.376953" xlink:href="#ArialMT-20"/>
      <use x="339.160156" xlink:href="#ArialMT-69"/>
      <use x="361.376953" xlink:href="#ArialMT-6e"/>
      <use x="416.992188" xlink:href="#ArialMT-63"/>
      <use x="466.992188" xlink:href="#ArialMT-6f"/>
      <use x="522.607422" xlink:href="#ArialMT-6d"/>
      <use x="605.908203" xlink:href="#ArialMT-65"/>
      <use x="661.523438" xlink:href="#ArialMT-20"/>
      <use x="689.306641" xlink:href="#ArialMT-28"/>
      <use x="722.607422" xlink:href="#ArialMT-74"/>
      <use x="750.390625" xlink:href="#ArialMT-68"/>
      <use x="806.005859" xlink:href="#ArialMT-6f"/>
      <use x="861.621094" xlink:href="#ArialMT-75"/>
      <use x="917.236328" xlink:href="#ArialMT-73"/>
      <use x="967.236328" xlink:href="#ArialMT-61"/>
      <use x="1022.851562" xlink:href="#ArialMT-6e"/>
      <use x="1078.466797" xlink:href="#ArialMT-64"/>
      <use x="1134.082031" xlink:href="#ArialMT-73"/>
      <use x="1184.082031" xlink:href="#ArialMT-29"/>
     </g>
    </g>
   </g>
   <g id="PathCollection_1">
    <defs>
     <path d="M 0 3 
C 0.795609 3 1.55874 2.683901 2.12132 2.12132 
C 2.683901 1.55874 3 0.795609 3 0 
C 3 -0.795609 2.683901 -1.55874 2.12132 -2.12132 
C 1.55874 -2.683901 0.795609 -3 0 -3 
C -0.795609 -3 -1.55874 -2.683901 -2.12132 -2.12132 
C -2.683901 -1.55874 -3 -0.795609 -3 0 
C -3 0.795609 -2.683901 1.55874 -2.12132 2.12132 
C -1.55874 2.683901 -0.795609 3 0 3 
z
" id="m9feb3907c4" style="stroke:#4c72b0;stroke-opacity:0.8;"/>
    </defs>
    <g clip-path="url(#pb811e0256b)">
     <use style="fill:#4c72b0;fill-opacity:0.8;stroke:#4c72b0;stroke-opacity:0.8;" x="302.657738" xlink:href="#m9feb3907c4" y="285.66397"/>
     <use style="fill:#4c72b0;fill-opacity:0.8;stroke:#4c72b0;stroke-opacity:0.8;" x="217.764977" xlink:href="#m9feb3907c4" y="297.418683"/>
     <use style="fill:#4c72b0;fill-opacity:0.8;stroke:#4c72b0;stroke-opacity:0.8;" x="304.634425" xlink:href="#m9feb3907c4" y="263.482343"/>
     <use style="fill:#4c72b0;fill-opacity:0.8;stroke:#4c72b0;stroke-opacity:0.8;" x="217.523757" xlink:href="#m9feb3907c4" y="303.851907"/>
     <use style="fill:#4c72b0;fill-opacity:0.8;stroke:#4c72b0;stroke-opacity:0.8;" x="291.706699" xlink:href="#m9feb3907c4" y="256.315277"/>
     <use style="fill:#4c72b0;fill-opacity:0.8;stroke:#4c72b0;stroke-opacity:0.8;" x="254.191852" xlink:href="#m9feb3907c4" y="285.661096"/>
     <use style="fill:#4c72b0;fill-opacity:0.8;stroke:#4c72b0;stroke-opacity:0.8;" x="155.258124" xlink:href="#m9feb3907c4" y="284.708868"/>
     <use style="fill:#4c72b0;fill-opacity:0.8;stroke:#4c72b0;stroke-opacity:0.8;" x="338.665666" xlink:href="#m9feb3907c4" y="363.174545"/>
     <use style="fill:#4c72b0;fill-opacity:0.8;stroke:#4c72b0;stroke-opacity:0.8;" x="454.936611" xlink:href="#m9feb3907c4" y="226.559777"/>
     <use style="fill:#4c72b0;fill-opacity:0.8;stroke:#4c72b0;stroke-opacity:0.8;" x="651.96933" xlink:href="#m9feb3907c4" y="244.58473"/>
     <use style="fill:#4c72b0;fill-opacity:0.8;stroke:#4c72b0;stroke-opacity:0.8;" x="220.47464" xlink:href="#m9feb3907c4" y="306.930659"/>
     <use style="fill:#4c72b0;fill-opacity:0.8;stroke:#4c72b0;stroke-opacity:0.8;" x="301.338214" xlink:href="#m9feb3907c4" y="247.666718"/>
     <use style="fill:#4c72b0;fill-opacity:0.8;stroke:#4c72b0;stroke-opacity:0.8;" x="300.709387" xlink:href="#m9feb3907c4" y="125.421308"/>
     <use style="fill:#4c72b0;fill-opacity:0.8;stroke:#4c72b0;stroke-opacity:0.8;" x="221.166722" xlink:href="#m9feb3907c4" y="297.684307"/>
     <use style="fill:#4c72b0;fill-opacity:0.8;stroke:#4c72b0;stroke-opacity:0.8;" x="289.108673" xlink:href="#m9feb3907c4" y="357.044492"/>
     <use style="fill:#4c72b0;fill-opacity:0.8;stroke:#4c72b0;stroke-opacity:0.8;" x="469.145493" xlink:href="#m9feb3907c4" y="244.056798"/>
     <use style="fill:#4c72b0;fill-opacity:0.8;stroke:#4c72b0;stroke-opacity:0.8;" x="339.173877" xlink:href="#m9feb3907c4" y="66.665455"/>
     <use style="fill:#4c72b0;fill-opacity:0.8;stroke:#4c72b0;stroke-opacity:0.8;" x="452.725002" xlink:href="#m9feb3907c4" y="330.777703"/>
     <use style="fill:#4c72b0;fill-opacity:0.8;stroke:#4c72b0;stroke-opacity:0.8;" x="286.612069" xlink:href="#m9feb3907c4" y="264.689257"/>
     <use style="fill:#4c72b0;fill-opacity:0.8;stroke:#4c72b0;stroke-opacity:0.8;" x="224.559168" xlink:href="#m9feb3907c4" y="335.623029"/>
     <use style="fill:#4c72b0;fill-opacity:0.8;stroke:#4c72b0;stroke-opacity:0.8;" x="154.52031" xlink:href="#m9feb3907c4" y="341.252197"/>
     <use style="fill:#4c72b0;fill-opacity:0.8;stroke:#4c72b0;stroke-opacity:0.8;" x="206.614902" xlink:href="#m9feb3907c4" y="332.965782"/>
     <use style="fill:#4c72b0;fill-opacity:0.8;stroke:#4c72b0;stroke-opacity:0.8;" x="176.037005" xlink:href="#m9feb3907c4" y="345.418275"/>
     <use style="fill:#4c72b0;fill-opacity:0.8;stroke:#4c72b0;stroke-opacity:0.8;" x="287.839346" xlink:href="#m9feb3907c4" y="250.210045"/>
     <use style="fill:#4c72b0;fill-opacity:0.8;stroke:#4c72b0;stroke-opacity:0.8;" x="316.44105" xlink:href="#m9feb3907c4" y="286.019492"/>
     <use style="fill:#4c72b0;fill-opacity:0.8;stroke:#4c72b0;stroke-opacity:0.8;" x="291.769296" xlink:href="#m9feb3907c4" y="255.91244"/>
     <use style="fill:#4c72b0;fill-opacity:0.8;stroke:#4c72b0;stroke-opacity:0.8;" x="578.246875" xlink:href="#m9feb3907c4" y="291.462317"/>
     <use style="fill:#4c72b0;fill-opacity:0.8;stroke:#4c72b0;stroke-opacity:0.8;" x="142.739193" xlink:href="#m9feb3907c4" y="345.040372"/>
     <use style="fill:#4c72b0;fill-opacity:0.8;stroke:#4c72b0;stroke-opacity:0.8;" x="271.576268" xlink:href="#m9feb3907c4" y="223.435214"/>
     <use style="fill:#4c72b0;fill-opacity:0.8;stroke:#4c72b0;stroke-opacity:0.8;" x="190.379731" xlink:href="#m9feb3907c4" y="286.094344"/>
     <use style="fill:#4c72b0;fill-opacity:0.8;stroke:#4c72b0;stroke-opacity:0.8;" x="243.255265" xlink:href="#m9feb3907c4" y="232.553332"/>
     <use style="fill:#4c72b0;fill-opacity:0.8;stroke:#4c72b0;stroke-opacity:0.8;" x="346.540316" xlink:href="#m9feb3907c4" y="291.448572"/>
     <use style="fill:#4c72b0;fill-opacity:0.8;stroke:#4c72b0;stroke-opacity:0.8;" x="333.474393" xlink:href="#m9feb3907c4" y="197.054482"/>
     <use style="fill:#4c72b0;fill-opacity:0.8;stroke:#4c72b0;stroke-opacity:0.8;" x="465.488528" xlink:href="#m9feb3907c4" y="321.08496"/>
     <use style="fill:#4c72b0;fill-opacity:0.8;stroke:#4c72b0;stroke-opacity:0.8;" x="747.163636" xlink:href="#m9feb3907c4" y="250.473257"/>
     <use style="fill:#4c72b0;fill-opacity:0.8;stroke:#4c72b0;stroke-opacity:0.8;" x="340.088466" xlink:href="#m9feb3907c4" y="303.458707"/>
     <use style="fill:#4c72b0;fill-opacity:0.8;stroke:#4c72b0;stroke-opacity:0.8;" x="219.253312" xlink:href="#m9feb3907c4" y="304.725282"/>
     <use style="fill:#4c72b0;fill-opacity:0.8;stroke:#4c72b0;stroke-opacity:0.8;" x="301.77573" xlink:href="#m9feb3907c4" y="225.124498"/>
     <use style="fill:#4c72b0;fill-opacity:0.8;stroke:#4c72b0;stroke-opacity:0.8;" x="169.420418" xlink:href="#m9feb3907c4" y="315.509388"/>
     <use style="fill:#4c72b0;fill-opacity:0.8;stroke:#4c72b0;stroke-opacity:0.8;" x="193.516749" xlink:href="#m9feb3907c4" y="289.243878"/>
     <use style="fill:#4c72b0;fill-opacity:0.8;stroke:#4c72b0;stroke-opacity:0.8;" x="415.512873" xlink:href="#m9feb3907c4" y="143.43057"/>
     <use style="fill:#4c72b0;fill-opacity:0.8;stroke:#4c72b0;stroke-opacity:0.8;" x="286.343585" xlink:href="#m9feb3907c4" y="279.815921"/>
     <use style="fill:#4c72b0;fill-opacity:0.8;stroke:#4c72b0;stroke-opacity:0.8;" x="292.665767" xlink:href="#m9feb3907c4" y="280.160999"/>
     <use style="fill:#4c72b0;fill-opacity:0.8;stroke:#4c72b0;stroke-opacity:0.8;" x="415.947522" xlink:href="#m9feb3907c4" y="220.444626"/>
     <use style="fill:#4c72b0;fill-opacity:0.8;stroke:#4c72b0;stroke-opacity:0.8;" x="315.896872" xlink:href="#m9feb3907c4" y="261.043177"/>
     <use style="fill:#4c72b0;fill-opacity:0.8;stroke:#4c72b0;stroke-opacity:0.8;" x="258.933207" xlink:href="#m9feb3907c4" y="297.539185"/>
     <use style="fill:#4c72b0;fill-opacity:0.8;stroke:#4c72b0;stroke-opacity:0.8;" x="291.930154" xlink:href="#m9feb3907c4" y="250.207129"/>
     <use style="fill:#4c72b0;fill-opacity:0.8;stroke:#4c72b0;stroke-opacity:0.8;" x="262.559093" xlink:href="#m9feb3907c4" y="285.60815"/>
     <use style="fill:#4c72b0;fill-opacity:0.8;stroke:#4c72b0;stroke-opacity:0.8;" x="219.230697" xlink:href="#m9feb3907c4" y="297.530171"/>
     <use style="fill:#4c72b0;fill-opacity:0.8;stroke:#4c72b0;stroke-opacity:0.8;" x="289.785805" xlink:href="#m9feb3907c4" y="309.671094"/>
     <use style="fill:#4c72b0;fill-opacity:0.8;stroke:#4c72b0;stroke-opacity:0.8;" x="681.287206" xlink:href="#m9feb3907c4" y="238.342665"/>
     <use style="fill:#4c72b0;fill-opacity:0.8;stroke:#4c72b0;stroke-opacity:0.8;" x="138.436364" xlink:href="#m9feb3907c4" y="353.40847"/>
     <use style="fill:#4c72b0;fill-opacity:0.8;stroke:#4c72b0;stroke-opacity:0.8;" x="142.952051" xlink:href="#m9feb3907c4" y="316.664227"/>
     <use style="fill:#4c72b0;fill-opacity:0.8;stroke:#4c72b0;stroke-opacity:0.8;" x="355.232643" xlink:href="#m9feb3907c4" y="202.603613"/>
     <use style="fill:#4c72b0;fill-opacity:0.8;stroke:#4c72b0;stroke-opacity:0.8;" x="154.669619" xlink:href="#m9feb3907c4" y="344.943136"/>
     <use style="fill:#4c72b0;fill-opacity:0.8;stroke:#4c72b0;stroke-opacity:0.8;" x="270.939244" xlink:href="#m9feb3907c4" y="268.097389"/>
     <use style="fill:#4c72b0;fill-opacity:0.8;stroke:#4c72b0;stroke-opacity:0.8;" x="340.84387" xlink:href="#m9feb3907c4" y="292.091469"/>
     <use style="fill:#4c72b0;fill-opacity:0.8;stroke:#4c72b0;stroke-opacity:0.8;" x="291.735087" xlink:href="#m9feb3907c4" y="268.20012"/>
     <use style="fill:#4c72b0;fill-opacity:0.8;stroke:#4c72b0;stroke-opacity:0.8;" x="334.653453" xlink:href="#m9feb3907c4" y="265.5496"/>
     <use style="fill:#4c72b0;fill-opacity:0.8;stroke:#4c72b0;stroke-opacity:0.8;" x="170.966558" xlink:href="#m9feb3907c4" y="299.758437"/>
     <use style="fill:#4c72b0;fill-opacity:0.8;stroke:#4c72b0;stroke-opacity:0.8;" x="287.471307" xlink:href="#m9feb3907c4" y="286.702147"/>
     <use style="fill:#4c72b0;fill-opacity:0.8;stroke:#4c72b0;stroke-opacity:0.8;" x="404.944271" xlink:href="#m9feb3907c4" y="232.827464"/>
    </g>
   </g>
   <g id="PolyCollection_1">
    <defs>
     <path d="M 140.31826 -146.160295 
L 140.31826 -114.155595 
L 146.44143 -115.468647 
L 152.5646 -116.781699 
L 158.68777 -118.097183 
L 164.81094 -119.629358 
L 170.93411 -120.932063 
L 177.05728 -122.033905 
L 183.18045 -123.346957 
L 189.30362 -124.765716 
L 195.426791 -125.979969 
L 201.549961 -127.33799 
L 207.673131 -128.832604 
L 213.796301 -129.909368 
L 219.919471 -130.986605 
L 226.042641 -132.44654 
L 232.165811 -133.488727 
L 238.288981 -134.518071 
L 244.412152 -135.696073 
L 250.535322 -136.873512 
L 256.658492 -137.877627 
L 262.781662 -138.882343 
L 268.904832 -139.92226 
L 275.028002 -140.806993 
L 281.151172 -141.715432 
L 287.274342 -142.614229 
L 293.397513 -143.404568 
L 299.520683 -144.451078 
L 305.643853 -145.310559 
L 311.767023 -145.946656 
L 317.890193 -146.831748 
L 324.013363 -147.49096 
L 330.136533 -148.255987 
L 336.259703 -148.930239 
L 342.382873 -149.496384 
L 348.506044 -150.114193 
L 354.629214 -151.016905 
L 360.752384 -151.906556 
L 366.875554 -152.589935 
L 372.998724 -153.27323 
L 379.121894 -153.956734 
L 385.245064 -154.640238 
L 391.368234 -155.224688 
L 397.491405 -155.754487 
L 403.614575 -156.355779 
L 409.737745 -157.088823 
L 415.860915 -157.819884 
L 421.984085 -158.552876 
L 428.107255 -159.1082 
L 434.230425 -159.838186 
L 440.353595 -160.748852 
L 446.476765 -161.418714 
L 452.599936 -162.012306 
L 458.723106 -162.605897 
L 464.846276 -163.205637 
L 470.969446 -163.808588 
L 477.092616 -164.61683 
L 483.215786 -165.084289 
L 489.338956 -165.59666 
L 495.462126 -166.221653 
L 501.585297 -166.947582 
L 507.708467 -167.442222 
L 513.831637 -167.988811 
L 519.954807 -168.583518 
L 526.077977 -169.180359 
L 532.201147 -169.780501 
L 538.324317 -170.377132 
L 544.447487 -170.974842 
L 550.570658 -171.574033 
L 556.693828 -172.236453 
L 562.816998 -172.905974 
L 568.940168 -173.575495 
L 575.063338 -174.245017 
L 581.186508 -174.914538 
L 587.309678 -175.588249 
L 593.432848 -176.262772 
L 599.556018 -176.937294 
L 605.679189 -177.71529 
L 611.802359 -178.509535 
L 617.925529 -179.108333 
L 624.048699 -179.69398 
L 630.171869 -180.305112 
L 636.295039 -180.961217 
L 642.418209 -181.629672 
L 648.541379 -182.298127 
L 654.66455 -182.9309 
L 660.78772 -183.456795 
L 666.91089 -184.175684 
L 673.03406 -184.990129 
L 679.15723 -185.663714 
L 685.2804 -186.351263 
L 691.40357 -187.080024 
L 697.52674 -187.678682 
L 703.649911 -188.34722 
L 709.773081 -189.015758 
L 715.896251 -189.684297 
L 722.019421 -190.352835 
L 728.142591 -190.903941 
L 734.265761 -191.385222 
L 740.388931 -191.866502 
L 746.512101 -192.347783 
L 746.512101 -288.675052 
L 746.512101 -288.675052 
L 740.388931 -286.931878 
L 734.265761 -285.188703 
L 728.142591 -283.445529 
L 722.019421 -281.702355 
L 715.896251 -279.95918 
L 709.773081 -278.216006 
L 703.649911 -276.472831 
L 697.52674 -274.728079 
L 691.40357 -272.968256 
L 685.2804 -271.208433 
L 679.15723 -269.44861 
L 673.03406 -267.688787 
L 666.91089 -265.944612 
L 660.78772 -264.169141 
L 654.66455 -262.409318 
L 648.541379 -260.649495 
L 642.418209 -258.889672 
L 636.295039 -257.157396 
L 630.171869 -255.482897 
L 624.048699 -253.816973 
L 617.925529 -252.136346 
L 611.802359 -250.464184 
L 605.679189 -248.792021 
L 599.556018 -247.119858 
L 593.432848 -245.447696 
L 587.309678 -243.774994 
L 581.186508 -242.099806 
L 575.063338 -240.364944 
L 568.940168 -238.667106 
L 562.816998 -237.070005 
L 556.693828 -235.31799 
L 550.570658 -233.554297 
L 544.447487 -231.790605 
L 538.324317 -230.026912 
L 532.201147 -228.26259 
L 526.077977 -226.517788 
L 519.954807 -224.735835 
L 513.831637 -223.054356 
L 507.708467 -221.419577 
L 501.585297 -219.558201 
L 495.462126 -217.681066 
L 489.338956 -215.955916 
L 483.215786 -214.45336 
L 477.092616 -212.718762 
L 470.969446 -210.984165 
L 464.846276 -209.356654 
L 458.723106 -207.78915 
L 452.599936 -206.292354 
L 446.476765 -204.915667 
L 440.353595 -203.538036 
L 434.230425 -201.847313 
L 428.107255 -200.127068 
L 421.984085 -198.468288 
L 415.860915 -196.940696 
L 409.737745 -195.380432 
L 403.614575 -194.026233 
L 397.491405 -192.449189 
L 391.368234 -190.981155 
L 385.245064 -189.317832 
L 379.121894 -187.631374 
L 372.998724 -185.79127 
L 366.875554 -184.317593 
L 360.752384 -182.652735 
L 354.629214 -181.139726 
L 348.506044 -179.809309 
L 342.382873 -178.614047 
L 336.259703 -177.029396 
L 330.136533 -175.754909 
L 324.013363 -174.278099 
L 317.890193 -172.500462 
L 311.767023 -171.303768 
L 305.643853 -169.903563 
L 299.520683 -168.629679 
L 293.397513 -167.514666 
L 287.274342 -166.373872 
L 281.151172 -165.079375 
L 275.028002 -163.878525 
L 268.904832 -162.673517 
L 262.781662 -161.746734 
L 256.658492 -160.492211 
L 250.535322 -159.501027 
L 244.412152 -158.641164 
L 238.288981 -157.702312 
L 232.165811 -156.655809 
L 226.042641 -155.948482 
L 219.919471 -155.226436 
L 213.796301 -154.33066 
L 207.673131 -153.330494 
L 201.549961 -152.655507 
L 195.426791 -151.805178 
L 189.30362 -151.474702 
L 183.18045 -150.65653 
L 177.05728 -150.189144 
L 170.93411 -149.615394 
L 164.81094 -148.8229 
L 158.68777 -148.078146 
L 152.5646 -147.470662 
L 146.44143 -146.801366 
L 140.31826 -146.160295 
z
" id="m652912c86d" style="stroke:#ffffff;stroke-opacity:0.15;"/>
    </defs>
    <g clip-path="url(#pb811e0256b)">
     <use style="fill:#4c72b0;fill-opacity:0.15;stroke:#ffffff;stroke-opacity:0.15;" x="0" xlink:href="#m652912c86d" y="432"/>
    </g>
   </g>
   <g id="line2d_14">
    <path clip-path="url(#pb811e0256b)" d="M 140.31826 301.692153 
L 146.44143 300.712659 
L 152.5646 299.733164 
L 158.68777 298.75367 
L 164.81094 297.774176 
L 170.93411 296.794682 
L 177.05728 295.815187 
L 183.18045 294.835693 
L 189.30362 293.856199 
L 195.426791 292.876705 
L 201.549961 291.897211 
L 207.673131 290.917716 
L 213.796301 289.938222 
L 219.919471 288.958728 
L 226.042641 287.979234 
L 232.165811 286.999739 
L 238.288981 286.020245 
L 244.412152 285.040751 
L 250.535322 284.061257 
L 256.658492 283.081762 
L 262.781662 282.102268 
L 268.904832 281.122774 
L 275.028002 280.14328 
L 281.151172 279.163785 
L 287.274342 278.184291 
L 293.397513 277.204797 
L 299.520683 276.225303 
L 305.643853 275.245808 
L 311.767023 274.266314 
L 317.890193 273.28682 
L 324.013363 272.307326 
L 330.136533 271.327831 
L 336.259703 270.348337 
L 342.382873 269.368843 
L 348.506044 268.389349 
L 354.629214 267.409854 
L 360.752384 266.43036 
L 366.875554 265.450866 
L 372.998724 264.471372 
L 379.121894 263.491877 
L 385.245064 262.512383 
L 391.368234 261.532889 
L 397.491405 260.553395 
L 403.614575 259.5739 
L 409.737745 258.594406 
L 415.860915 257.614912 
L 421.984085 256.635418 
L 428.107255 255.655923 
L 434.230425 254.676429 
L 440.353595 253.696935 
L 446.476765 252.717441 
L 452.599936 251.737946 
L 458.723106 250.758452 
L 464.846276 249.778958 
L 470.969446 248.799464 
L 477.092616 247.819969 
L 483.215786 246.840475 
L 489.338956 245.860981 
L 495.462126 244.881487 
L 501.585297 243.901992 
L 507.708467 242.922498 
L 513.831637 241.943004 
L 519.954807 240.96351 
L 526.077977 239.984015 
L 532.201147 239.004521 
L 538.324317 238.025027 
L 544.447487 237.045533 
L 550.570658 236.066038 
L 556.693828 235.086544 
L 562.816998 234.10705 
L 568.940168 233.127556 
L 575.063338 232.148061 
L 581.186508 231.168567 
L 587.309678 230.189073 
L 593.432848 229.209579 
L 599.556018 228.230084 
L 605.679189 227.25059 
L 611.802359 226.271096 
L 617.925529 225.291602 
L 624.048699 224.312107 
L 630.171869 223.332613 
L 636.295039 222.353119 
L 642.418209 221.373625 
L 648.541379 220.39413 
L 654.66455 219.414636 
L 660.78772 218.435142 
L 666.91089 217.455648 
L 673.03406 216.476153 
L 679.15723 215.496659 
L 685.2804 214.517165 
L 691.40357 213.537671 
L 697.52674 212.558176 
L 703.649911 211.578682 
L 709.773081 210.599188 
L 715.896251 209.619694 
L 722.019421 208.640199 
L 728.142591 207.660705 
L 734.265761 206.681211 
L 740.388931 205.701717 
L 746.512101 204.722222 
" style="fill:none;stroke:#4c72b0;stroke-linecap:round;stroke-width:2.25;"/>
   </g>
   <g id="patch_3">
    <path d="M 108 378 
L 108 51.84 
" style="fill:none;stroke:#ffffff;stroke-linecap:square;stroke-linejoin:miter;stroke-width:1.25;"/>
   </g>
   <g id="patch_4">
    <path d="M 777.6 378 
L 777.6 51.84 
" style="fill:none;stroke:#ffffff;stroke-linecap:square;stroke-linejoin:miter;stroke-width:1.25;"/>
   </g>
   <g id="patch_5">
    <path d="M 108 378 
L 777.6 378 
" style="fill:none;stroke:#ffffff;stroke-linecap:square;stroke-linejoin:miter;stroke-width:1.25;"/>
   </g>
   <g id="patch_6">
    <path d="M 108 51.84 
L 777.6 51.84 
" style="fill:none;stroke:#ffffff;stroke-linecap:square;stroke-linejoin:miter;stroke-width:1.25;"/>
   </g>
   <g id="text_16">
    <!-- Compensation and Experience (2021) -->
    <g style="fill:#262626;" transform="translate(341.745 45.84)scale(0.12 -0.12)">
     <defs>
      <path d="M 3763 1606 
L 4369 1453 
Q 4178 706 3683 314 
Q 3188 -78 2472 -78 
Q 1731 -78 1267 223 
Q 803 525 561 1097 
Q 319 1669 319 2325 
Q 319 3041 592 3573 
Q 866 4106 1370 4382 
Q 1875 4659 2481 4659 
Q 3169 4659 3637 4309 
Q 4106 3959 4291 3325 
L 3694 3184 
Q 3534 3684 3231 3912 
Q 2928 4141 2469 4141 
Q 1941 4141 1586 3887 
Q 1231 3634 1087 3207 
Q 944 2781 944 2328 
Q 944 1744 1114 1308 
Q 1284 872 1643 656 
Q 2003 441 2422 441 
Q 2931 441 3284 734 
Q 3638 1028 3763 1606 
z
" id="ArialMT-43" transform="scale(0.015625)"/>
      <path d="M 422 -1272 
L 422 3319 
L 934 3319 
L 934 2888 
Q 1116 3141 1344 3267 
Q 1572 3394 1897 3394 
Q 2322 3394 2647 3175 
Q 2972 2956 3137 2557 
Q 3303 2159 3303 1684 
Q 3303 1175 3120 767 
Q 2938 359 2589 142 
Q 2241 -75 1856 -75 
Q 1575 -75 1351 44 
Q 1128 163 984 344 
L 984 -1272 
L 422 -1272 
z
M 931 1641 
Q 931 1000 1190 694 
Q 1450 388 1819 388 
Q 2194 388 2461 705 
Q 2728 1022 2728 1688 
Q 2728 2322 2467 2637 
Q 2206 2953 1844 2953 
Q 1484 2953 1207 2617 
Q 931 2281 931 1641 
z
" id="ArialMT-70" transform="scale(0.015625)"/>
      <path d="M 506 0 
L 506 4581 
L 3819 4581 
L 3819 4041 
L 1113 4041 
L 1113 2638 
L 3647 2638 
L 3647 2100 
L 1113 2100 
L 1113 541 
L 3925 541 
L 3925 0 
L 506 0 
z
" id="ArialMT-45" transform="scale(0.015625)"/>
      <path d="M 47 0 
L 1259 1725 
L 138 3319 
L 841 3319 
L 1350 2541 
Q 1494 2319 1581 2169 
Q 1719 2375 1834 2534 
L 2394 3319 
L 3066 3319 
L 1919 1756 
L 3153 0 
L 2463 0 
L 1781 1031 
L 1600 1309 
L 728 0 
L 47 0 
z
" id="ArialMT-78" transform="scale(0.015625)"/>
     </defs>
     <use xlink:href="#ArialMT-43"/>
     <use x="72.216797" xlink:href="#ArialMT-6f"/>
     <use x="127.832031" xlink:href="#ArialMT-6d"/>
     <use x="211.132812" xlink:href="#ArialMT-70"/>
     <use x="266.748047" xlink:href="#ArialMT-65"/>
     <use x="322.363281" xlink:href="#ArialMT-6e"/>
     <use x="377.978516" xlink:href="#ArialMT-73"/>
     <use x="427.978516" xlink:href="#ArialMT-61"/>
     <use x="483.59375" xlink:href="#ArialMT-74"/>
     <use x="511.376953" xlink:href="#ArialMT-69"/>
     <use x="533.59375" xlink:href="#ArialMT-6f"/>
     <use x="589.208984" xlink:href="#ArialMT-6e"/>
     <use x="644.824219" xlink:href="#ArialMT-20"/>
     <use x="672.607422" xlink:href="#ArialMT-61"/>
     <use x="728.222656" xlink:href="#ArialMT-6e"/>
     <use x="783.837891" xlink:href="#ArialMT-64"/>
     <use x="839.453125" xlink:href="#ArialMT-20"/>
     <use x="867.236328" xlink:href="#ArialMT-45"/>
     <use x="933.935547" xlink:href="#ArialMT-78"/>
     <use x="983.935547" xlink:href="#ArialMT-70"/>
     <use x="1039.550781" xlink:href="#ArialMT-65"/>
     <use x="1095.166016" xlink:href="#ArialMT-72"/>
     <use x="1128.466797" xlink:href="#ArialMT-69"/>
     <use x="1150.683594" xlink:href="#ArialMT-65"/>
     <use x="1206.298828" xlink:href="#ArialMT-6e"/>
     <use x="1261.914062" xlink:href="#ArialMT-63"/>
     <use x="1311.914062" xlink:href="#ArialMT-65"/>
     <use x="1367.529297" xlink:href="#ArialMT-20"/>
     <use x="1395.3125" xlink:href="#ArialMT-28"/>
     <use x="1428.613281" xlink:href="#ArialMT-32"/>
     <use x="1484.228516" xlink:href="#ArialMT-30"/>
     <use x="1539.84375" xlink:href="#ArialMT-32"/>
     <use x="1595.458984" xlink:href="#ArialMT-31"/>
     <use x="1651.074219" xlink:href="#ArialMT-29"/>
    </g>
   </g>
  </g>
 </g>
 <defs>
  <clipPath id="pb811e0256b">
   <rect height="326.16" width="669.6" x="108" y="51.84"/>
  </clipPath>
 </defs>
</svg>
