<?xml version="1.0" encoding="utf-8" standalone="no"?>
<!DOCTYPE svg PUBLIC "-//W3C//DTD SVG 1.1//EN"
  "http://www.w3.org/Graphics/SVG/1.1/DTD/svg11.dtd">
<svg height="432pt" version="1.1" viewBox="0 0 864 432" width="864pt" xmlns="http://www.w3.org/2000/svg" xmlns:xlink="http://www.w3.org/1999/xlink">
 <metadata>
  <rdf:RDF xmlns:cc="http://creativecommons.org/ns#" xmlns:dc="http://purl.org/dc/elements/1.1/" xmlns:rdf="http://www.w3.org/1999/02/22-rdf-syntax-ns#">
   <cc:Work>
    <dc:type rdf:resource="http://purl.org/dc/dcmitype/StillImage"/>
    <dc:date>2021-12-27T06:11:40.264556</dc:date>
    <dc:format>image/svg+xml</dc:format>
    <dc:creator>
     <cc:Agent>
      <dc:title>Matplotlib v3.4.3, https://matplotlib.org/</dc:title>
     </cc:Agent>
    </dc:creator>
   </cc:Work>
  </rdf:RDF>
 </metadata>
 <defs>
  <style type="text/css">*{stroke-linecap:butt;stroke-linejoin:round;}</style>
 </defs>
 <g id="figure_1">
  <g id="patch_1">
   <path d="M 0 432 
L 864 432 
L 864 0 
L 0 0 
z
" style="fill:#ffffff;"/>
  </g>
  <g id="axes_1">
   <g id="patch_2">
    <path d="M 108 378 
L 777.6 378 
L 777.6 51.84 
L 108 51.84 
z
" style="fill:#eaeaf2;"/>
   </g>
   <g id="matplotlib.axis_1">
    <g id="xtick_1">
     <g id="text_1">
      <!-- Privately owned company -->
      <g style="fill:#262626;" transform="translate(156.933516 395.373594)scale(0.11 -0.11)">
       <defs>
        <path d="M 494 0 
L 494 4581 
L 2222 4581 
Q 2678 4581 2919 4538 
Q 3256 4481 3484 4323 
Q 3713 4166 3852 3881 
Q 3991 3597 3991 3256 
Q 3991 2672 3619 2267 
Q 3247 1863 2275 1863 
L 1100 1863 
L 1100 0 
L 494 0 
z
M 1100 2403 
L 2284 2403 
Q 2872 2403 3119 2622 
Q 3366 2841 3366 3238 
Q 3366 3525 3220 3729 
Q 3075 3934 2838 4000 
Q 2684 4041 2272 4041 
L 1100 4041 
L 1100 2403 
z
" id="ArialMT-50" transform="scale(0.015625)"/>
        <path d="M 416 0 
L 416 3319 
L 922 3319 
L 922 2816 
Q 1116 3169 1280 3281 
Q 1444 3394 1641 3394 
Q 1925 3394 2219 3213 
L 2025 2691 
Q 1819 2813 1613 2813 
Q 1428 2813 1281 2702 
Q 1134 2591 1072 2394 
Q 978 2094 978 1738 
L 978 0 
L 416 0 
z
" id="ArialMT-72" transform="scale(0.015625)"/>
        <path d="M 425 3934 
L 425 4581 
L 988 4581 
L 988 3934 
L 425 3934 
z
M 425 0 
L 425 3319 
L 988 3319 
L 988 0 
L 425 0 
z
" id="ArialMT-69" transform="scale(0.015625)"/>
        <path d="M 1344 0 
L 81 3319 
L 675 3319 
L 1388 1331 
Q 1503 1009 1600 663 
Q 1675 925 1809 1294 
L 2547 3319 
L 3125 3319 
L 1869 0 
L 1344 0 
z
" id="ArialMT-76" transform="scale(0.015625)"/>
        <path d="M 2588 409 
Q 2275 144 1986 34 
Q 1697 -75 1366 -75 
Q 819 -75 525 192 
Q 231 459 231 875 
Q 231 1119 342 1320 
Q 453 1522 633 1644 
Q 813 1766 1038 1828 
Q 1203 1872 1538 1913 
Q 2219 1994 2541 2106 
Q 2544 2222 2544 2253 
Q 2544 2597 2384 2738 
Q 2169 2928 1744 2928 
Q 1347 2928 1158 2789 
Q 969 2650 878 2297 
L 328 2372 
Q 403 2725 575 2942 
Q 747 3159 1072 3276 
Q 1397 3394 1825 3394 
Q 2250 3394 2515 3294 
Q 2781 3194 2906 3042 
Q 3031 2891 3081 2659 
Q 3109 2516 3109 2141 
L 3109 1391 
Q 3109 606 3145 398 
Q 3181 191 3288 0 
L 2700 0 
Q 2613 175 2588 409 
z
M 2541 1666 
Q 2234 1541 1622 1453 
Q 1275 1403 1131 1340 
Q 988 1278 909 1158 
Q 831 1038 831 891 
Q 831 666 1001 516 
Q 1172 366 1500 366 
Q 1825 366 2078 508 
Q 2331 650 2450 897 
Q 2541 1088 2541 1459 
L 2541 1666 
z
" id="ArialMT-61" transform="scale(0.015625)"/>
        <path d="M 1650 503 
L 1731 6 
Q 1494 -44 1306 -44 
Q 1000 -44 831 53 
Q 663 150 594 308 
Q 525 466 525 972 
L 525 2881 
L 113 2881 
L 113 3319 
L 525 3319 
L 525 4141 
L 1084 4478 
L 1084 3319 
L 1650 3319 
L 1650 2881 
L 1084 2881 
L 1084 941 
Q 1084 700 1114 631 
Q 1144 563 1211 522 
Q 1278 481 1403 481 
Q 1497 481 1650 503 
z
" id="ArialMT-74" transform="scale(0.015625)"/>
        <path d="M 2694 1069 
L 3275 997 
Q 3138 488 2766 206 
Q 2394 -75 1816 -75 
Q 1088 -75 661 373 
Q 234 822 234 1631 
Q 234 2469 665 2931 
Q 1097 3394 1784 3394 
Q 2450 3394 2872 2941 
Q 3294 2488 3294 1666 
Q 3294 1616 3291 1516 
L 816 1516 
Q 847 969 1125 678 
Q 1403 388 1819 388 
Q 2128 388 2347 550 
Q 2566 713 2694 1069 
z
M 847 1978 
L 2700 1978 
Q 2663 2397 2488 2606 
Q 2219 2931 1791 2931 
Q 1403 2931 1139 2672 
Q 875 2413 847 1978 
z
" id="ArialMT-65" transform="scale(0.015625)"/>
        <path d="M 409 0 
L 409 4581 
L 972 4581 
L 972 0 
L 409 0 
z
" id="ArialMT-6c" transform="scale(0.015625)"/>
        <path d="M 397 -1278 
L 334 -750 
Q 519 -800 656 -800 
Q 844 -800 956 -737 
Q 1069 -675 1141 -563 
Q 1194 -478 1313 -144 
Q 1328 -97 1363 -6 
L 103 3319 
L 709 3319 
L 1400 1397 
Q 1534 1031 1641 628 
Q 1738 1016 1872 1384 
L 2581 3319 
L 3144 3319 
L 1881 -56 
Q 1678 -603 1566 -809 
Q 1416 -1088 1222 -1217 
Q 1028 -1347 759 -1347 
Q 597 -1347 397 -1278 
z
" id="ArialMT-79" transform="scale(0.015625)"/>
        <path id="ArialMT-20" transform="scale(0.015625)"/>
        <path d="M 213 1659 
Q 213 2581 725 3025 
Q 1153 3394 1769 3394 
Q 2453 3394 2887 2945 
Q 3322 2497 3322 1706 
Q 3322 1066 3130 698 
Q 2938 331 2570 128 
Q 2203 -75 1769 -75 
Q 1072 -75 642 372 
Q 213 819 213 1659 
z
M 791 1659 
Q 791 1022 1069 705 
Q 1347 388 1769 388 
Q 2188 388 2466 706 
Q 2744 1025 2744 1678 
Q 2744 2294 2464 2611 
Q 2184 2928 1769 2928 
Q 1347 2928 1069 2612 
Q 791 2297 791 1659 
z
" id="ArialMT-6f" transform="scale(0.015625)"/>
        <path d="M 1034 0 
L 19 3319 
L 600 3319 
L 1128 1403 
L 1325 691 
Q 1338 744 1497 1375 
L 2025 3319 
L 2603 3319 
L 3100 1394 
L 3266 759 
L 3456 1400 
L 4025 3319 
L 4572 3319 
L 3534 0 
L 2950 0 
L 2422 1988 
L 2294 2553 
L 1622 0 
L 1034 0 
z
" id="ArialMT-77" transform="scale(0.015625)"/>
        <path d="M 422 0 
L 422 3319 
L 928 3319 
L 928 2847 
Q 1294 3394 1984 3394 
Q 2284 3394 2536 3286 
Q 2788 3178 2913 3003 
Q 3038 2828 3088 2588 
Q 3119 2431 3119 2041 
L 3119 0 
L 2556 0 
L 2556 2019 
Q 2556 2363 2490 2533 
Q 2425 2703 2258 2804 
Q 2091 2906 1866 2906 
Q 1506 2906 1245 2678 
Q 984 2450 984 1813 
L 984 0 
L 422 0 
z
" id="ArialMT-6e" transform="scale(0.015625)"/>
        <path d="M 2575 0 
L 2575 419 
Q 2259 -75 1647 -75 
Q 1250 -75 917 144 
Q 584 363 401 755 
Q 219 1147 219 1656 
Q 219 2153 384 2558 
Q 550 2963 881 3178 
Q 1213 3394 1622 3394 
Q 1922 3394 2156 3267 
Q 2391 3141 2538 2938 
L 2538 4581 
L 3097 4581 
L 3097 0 
L 2575 0 
z
M 797 1656 
Q 797 1019 1065 703 
Q 1334 388 1700 388 
Q 2069 388 2326 689 
Q 2584 991 2584 1609 
Q 2584 2291 2321 2609 
Q 2059 2928 1675 2928 
Q 1300 2928 1048 2622 
Q 797 2316 797 1656 
z
" id="ArialMT-64" transform="scale(0.015625)"/>
        <path d="M 2588 1216 
L 3141 1144 
Q 3050 572 2676 248 
Q 2303 -75 1759 -75 
Q 1078 -75 664 370 
Q 250 816 250 1647 
Q 250 2184 428 2587 
Q 606 2991 970 3192 
Q 1334 3394 1763 3394 
Q 2303 3394 2647 3120 
Q 2991 2847 3088 2344 
L 2541 2259 
Q 2463 2594 2264 2762 
Q 2066 2931 1784 2931 
Q 1359 2931 1093 2626 
Q 828 2322 828 1663 
Q 828 994 1084 691 
Q 1341 388 1753 388 
Q 2084 388 2306 591 
Q 2528 794 2588 1216 
z
" id="ArialMT-63" transform="scale(0.015625)"/>
        <path d="M 422 0 
L 422 3319 
L 925 3319 
L 925 2853 
Q 1081 3097 1340 3245 
Q 1600 3394 1931 3394 
Q 2300 3394 2536 3241 
Q 2772 3088 2869 2813 
Q 3263 3394 3894 3394 
Q 4388 3394 4653 3120 
Q 4919 2847 4919 2278 
L 4919 0 
L 4359 0 
L 4359 2091 
Q 4359 2428 4304 2576 
Q 4250 2725 4106 2815 
Q 3963 2906 3769 2906 
Q 3419 2906 3187 2673 
Q 2956 2441 2956 1928 
L 2956 0 
L 2394 0 
L 2394 2156 
Q 2394 2531 2256 2718 
Q 2119 2906 1806 2906 
Q 1569 2906 1367 2781 
Q 1166 2656 1075 2415 
Q 984 2175 984 1722 
L 984 0 
L 422 0 
z
" id="ArialMT-6d" transform="scale(0.015625)"/>
        <path d="M 422 -1272 
L 422 3319 
L 934 3319 
L 934 2888 
Q 1116 3141 1344 3267 
Q 1572 3394 1897 3394 
Q 2322 3394 2647 3175 
Q 2972 2956 3137 2557 
Q 3303 2159 3303 1684 
Q 3303 1175 3120 767 
Q 2938 359 2589 142 
Q 2241 -75 1856 -75 
Q 1575 -75 1351 44 
Q 1128 163 984 344 
L 984 -1272 
L 422 -1272 
z
M 931 1641 
Q 931 1000 1190 694 
Q 1450 388 1819 388 
Q 2194 388 2461 705 
Q 2728 1022 2728 1688 
Q 2728 2322 2467 2637 
Q 2206 2953 1844 2953 
Q 1484 2953 1207 2617 
Q 931 2281 931 1641 
z
" id="ArialMT-70" transform="scale(0.015625)"/>
       </defs>
       <use xlink:href="#ArialMT-50"/>
       <use x="66.699219" xlink:href="#ArialMT-72"/>
       <use x="100" xlink:href="#ArialMT-69"/>
       <use x="122.216797" xlink:href="#ArialMT-76"/>
       <use x="172.216797" xlink:href="#ArialMT-61"/>
       <use x="227.832031" xlink:href="#ArialMT-74"/>
       <use x="255.615234" xlink:href="#ArialMT-65"/>
       <use x="311.230469" xlink:href="#ArialMT-6c"/>
       <use x="333.447266" xlink:href="#ArialMT-79"/>
       <use x="383.447266" xlink:href="#ArialMT-20"/>
       <use x="411.230469" xlink:href="#ArialMT-6f"/>
       <use x="466.845703" xlink:href="#ArialMT-77"/>
       <use x="539.0625" xlink:href="#ArialMT-6e"/>
       <use x="594.677734" xlink:href="#ArialMT-65"/>
       <use x="650.292969" xlink:href="#ArialMT-64"/>
       <use x="705.908203" xlink:href="#ArialMT-20"/>
       <use x="733.691406" xlink:href="#ArialMT-63"/>
       <use x="783.691406" xlink:href="#ArialMT-6f"/>
       <use x="839.306641" xlink:href="#ArialMT-6d"/>
       <use x="922.607422" xlink:href="#ArialMT-70"/>
       <use x="978.222656" xlink:href="#ArialMT-61"/>
       <use x="1033.837891" xlink:href="#ArialMT-6e"/>
       <use x="1089.453125" xlink:href="#ArialMT-79"/>
      </g>
     </g>
    </g>
    <g id="xtick_2">
     <g id="text_2">
      <!-- Publicly traded company -->
      <g style="fill:#262626;" transform="translate(382.883516 395.373594)scale(0.11 -0.11)">
       <defs>
        <path d="M 2597 0 
L 2597 488 
Q 2209 -75 1544 -75 
Q 1250 -75 995 37 
Q 741 150 617 320 
Q 494 491 444 738 
Q 409 903 409 1263 
L 409 3319 
L 972 3319 
L 972 1478 
Q 972 1038 1006 884 
Q 1059 663 1231 536 
Q 1403 409 1656 409 
Q 1909 409 2131 539 
Q 2353 669 2445 892 
Q 2538 1116 2538 1541 
L 2538 3319 
L 3100 3319 
L 3100 0 
L 2597 0 
z
" id="ArialMT-75" transform="scale(0.015625)"/>
        <path d="M 941 0 
L 419 0 
L 419 4581 
L 981 4581 
L 981 2947 
Q 1338 3394 1891 3394 
Q 2197 3394 2470 3270 
Q 2744 3147 2920 2923 
Q 3097 2700 3197 2384 
Q 3297 2069 3297 1709 
Q 3297 856 2875 390 
Q 2453 -75 1863 -75 
Q 1275 -75 941 416 
L 941 0 
z
M 934 1684 
Q 934 1088 1097 822 
Q 1363 388 1816 388 
Q 2184 388 2453 708 
Q 2722 1028 2722 1663 
Q 2722 2313 2464 2622 
Q 2206 2931 1841 2931 
Q 1472 2931 1203 2611 
Q 934 2291 934 1684 
z
" id="ArialMT-62" transform="scale(0.015625)"/>
       </defs>
       <use xlink:href="#ArialMT-50"/>
       <use x="66.699219" xlink:href="#ArialMT-75"/>
       <use x="122.314453" xlink:href="#ArialMT-62"/>
       <use x="177.929688" xlink:href="#ArialMT-6c"/>
       <use x="200.146484" xlink:href="#ArialMT-69"/>
       <use x="222.363281" xlink:href="#ArialMT-63"/>
       <use x="272.363281" xlink:href="#ArialMT-6c"/>
       <use x="294.580078" xlink:href="#ArialMT-79"/>
       <use x="344.580078" xlink:href="#ArialMT-20"/>
       <use x="372.363281" xlink:href="#ArialMT-74"/>
       <use x="400.146484" xlink:href="#ArialMT-72"/>
       <use x="433.447266" xlink:href="#ArialMT-61"/>
       <use x="489.0625" xlink:href="#ArialMT-64"/>
       <use x="544.677734" xlink:href="#ArialMT-65"/>
       <use x="600.292969" xlink:href="#ArialMT-64"/>
       <use x="655.908203" xlink:href="#ArialMT-20"/>
       <use x="683.691406" xlink:href="#ArialMT-63"/>
       <use x="733.691406" xlink:href="#ArialMT-6f"/>
       <use x="789.306641" xlink:href="#ArialMT-6d"/>
       <use x="872.607422" xlink:href="#ArialMT-70"/>
       <use x="928.222656" xlink:href="#ArialMT-61"/>
       <use x="983.837891" xlink:href="#ArialMT-6e"/>
       <use x="1039.453125" xlink:href="#ArialMT-79"/>
      </g>
     </g>
    </g>
    <g id="xtick_3">
     <g id="text_3">
      <!-- Government -->
      <g style="fill:#262626;" transform="translate(635.738828 395.373594)scale(0.11 -0.11)">
       <defs>
        <path d="M 2638 1797 
L 2638 2334 
L 4578 2338 
L 4578 638 
Q 4131 281 3656 101 
Q 3181 -78 2681 -78 
Q 2006 -78 1454 211 
Q 903 500 622 1047 
Q 341 1594 341 2269 
Q 341 2938 620 3517 
Q 900 4097 1425 4378 
Q 1950 4659 2634 4659 
Q 3131 4659 3532 4498 
Q 3934 4338 4162 4050 
Q 4391 3763 4509 3300 
L 3963 3150 
Q 3859 3500 3706 3700 
Q 3553 3900 3268 4020 
Q 2984 4141 2638 4141 
Q 2222 4141 1919 4014 
Q 1616 3888 1430 3681 
Q 1244 3475 1141 3228 
Q 966 2803 966 2306 
Q 966 1694 1177 1281 
Q 1388 869 1791 669 
Q 2194 469 2647 469 
Q 3041 469 3416 620 
Q 3791 772 3984 944 
L 3984 1797 
L 2638 1797 
z
" id="ArialMT-47" transform="scale(0.015625)"/>
       </defs>
       <use xlink:href="#ArialMT-47"/>
       <use x="77.783203" xlink:href="#ArialMT-6f"/>
       <use x="133.398438" xlink:href="#ArialMT-76"/>
       <use x="183.398438" xlink:href="#ArialMT-65"/>
       <use x="239.013672" xlink:href="#ArialMT-72"/>
       <use x="272.314453" xlink:href="#ArialMT-6e"/>
       <use x="327.929688" xlink:href="#ArialMT-6d"/>
       <use x="411.230469" xlink:href="#ArialMT-65"/>
       <use x="466.845703" xlink:href="#ArialMT-6e"/>
       <use x="522.460938" xlink:href="#ArialMT-74"/>
      </g>
     </g>
    </g>
    <g id="text_4">
     <!-- Employer Type -->
     <g style="fill:#262626;" transform="translate(402.889688 410.278125)scale(0.12 -0.12)">
      <defs>
       <path d="M 506 0 
L 506 4581 
L 3819 4581 
L 3819 4041 
L 1113 4041 
L 1113 2638 
L 3647 2638 
L 3647 2100 
L 1113 2100 
L 1113 541 
L 3925 541 
L 3925 0 
L 506 0 
z
" id="ArialMT-45" transform="scale(0.015625)"/>
       <path d="M 1659 0 
L 1659 4041 
L 150 4041 
L 150 4581 
L 3781 4581 
L 3781 4041 
L 2266 4041 
L 2266 0 
L 1659 0 
z
" id="ArialMT-54" transform="scale(0.015625)"/>
      </defs>
      <use xlink:href="#ArialMT-45"/>
      <use x="66.699219" xlink:href="#ArialMT-6d"/>
      <use x="150" xlink:href="#ArialMT-70"/>
      <use x="205.615234" xlink:href="#ArialMT-6c"/>
      <use x="227.832031" xlink:href="#ArialMT-6f"/>
      <use x="283.447266" xlink:href="#ArialMT-79"/>
      <use x="333.447266" xlink:href="#ArialMT-65"/>
      <use x="389.0625" xlink:href="#ArialMT-72"/>
      <use x="422.363281" xlink:href="#ArialMT-20"/>
      <use x="448.396484" xlink:href="#ArialMT-54"/>
      <use x="503.980469" xlink:href="#ArialMT-79"/>
      <use x="553.980469" xlink:href="#ArialMT-70"/>
      <use x="609.595703" xlink:href="#ArialMT-65"/>
     </g>
    </g>
   </g>
   <g id="matplotlib.axis_2">
    <g id="ytick_1">
     <g id="line2d_1">
      <path clip-path="url(#pf84cc00e62)" d="M 108 321.663273 
L 777.6 321.663273 
" style="fill:none;stroke:#ffffff;stroke-linecap:round;"/>
     </g>
     <g id="text_5">
      <!-- 100 -->
      <g style="fill:#262626;" transform="translate(80.148906 325.60007)scale(0.11 -0.11)">
       <defs>
        <path d="M 2384 0 
L 1822 0 
L 1822 3584 
Q 1619 3391 1289 3197 
Q 959 3003 697 2906 
L 697 3450 
Q 1169 3672 1522 3987 
Q 1875 4303 2022 4600 
L 2384 4600 
L 2384 0 
z
" id="ArialMT-31" transform="scale(0.015625)"/>
        <path d="M 266 2259 
Q 266 3072 433 3567 
Q 600 4063 929 4331 
Q 1259 4600 1759 4600 
Q 2128 4600 2406 4451 
Q 2684 4303 2865 4023 
Q 3047 3744 3150 3342 
Q 3253 2941 3253 2259 
Q 3253 1453 3087 958 
Q 2922 463 2592 192 
Q 2263 -78 1759 -78 
Q 1097 -78 719 397 
Q 266 969 266 2259 
z
M 844 2259 
Q 844 1131 1108 757 
Q 1372 384 1759 384 
Q 2147 384 2411 759 
Q 2675 1134 2675 2259 
Q 2675 3391 2411 3762 
Q 2147 4134 1753 4134 
Q 1366 4134 1134 3806 
Q 844 3388 844 2259 
z
" id="ArialMT-30" transform="scale(0.015625)"/>
       </defs>
       <use xlink:href="#ArialMT-31"/>
       <use x="55.615234" xlink:href="#ArialMT-30"/>
       <use x="111.230469" xlink:href="#ArialMT-30"/>
      </g>
     </g>
    </g>
    <g id="ytick_2">
     <g id="line2d_2">
      <path clip-path="url(#pf84cc00e62)" d="M 108 262.361455 
L 777.6 262.361455 
" style="fill:none;stroke:#ffffff;stroke-linecap:round;"/>
     </g>
     <g id="text_6">
      <!-- 150 -->
      <g style="fill:#262626;" transform="translate(80.148906 266.298251)scale(0.11 -0.11)">
       <defs>
        <path d="M 266 1200 
L 856 1250 
Q 922 819 1161 601 
Q 1400 384 1738 384 
Q 2144 384 2425 690 
Q 2706 997 2706 1503 
Q 2706 1984 2436 2262 
Q 2166 2541 1728 2541 
Q 1456 2541 1237 2417 
Q 1019 2294 894 2097 
L 366 2166 
L 809 4519 
L 3088 4519 
L 3088 3981 
L 1259 3981 
L 1013 2750 
Q 1425 3038 1878 3038 
Q 2478 3038 2890 2622 
Q 3303 2206 3303 1553 
Q 3303 931 2941 478 
Q 2500 -78 1738 -78 
Q 1113 -78 717 272 
Q 322 622 266 1200 
z
" id="ArialMT-35" transform="scale(0.015625)"/>
       </defs>
       <use xlink:href="#ArialMT-31"/>
       <use x="55.615234" xlink:href="#ArialMT-35"/>
       <use x="111.230469" xlink:href="#ArialMT-30"/>
      </g>
     </g>
    </g>
    <g id="ytick_3">
     <g id="line2d_3">
      <path clip-path="url(#pf84cc00e62)" d="M 108 203.059636 
L 777.6 203.059636 
" style="fill:none;stroke:#ffffff;stroke-linecap:round;"/>
     </g>
     <g id="text_7">
      <!-- 200 -->
      <g style="fill:#262626;" transform="translate(80.148906 206.996433)scale(0.11 -0.11)">
       <defs>
        <path d="M 3222 541 
L 3222 0 
L 194 0 
Q 188 203 259 391 
Q 375 700 629 1000 
Q 884 1300 1366 1694 
Q 2113 2306 2375 2664 
Q 2638 3022 2638 3341 
Q 2638 3675 2398 3904 
Q 2159 4134 1775 4134 
Q 1369 4134 1125 3890 
Q 881 3647 878 3216 
L 300 3275 
Q 359 3922 746 4261 
Q 1134 4600 1788 4600 
Q 2447 4600 2831 4234 
Q 3216 3869 3216 3328 
Q 3216 3053 3103 2787 
Q 2991 2522 2730 2228 
Q 2469 1934 1863 1422 
Q 1356 997 1212 845 
Q 1069 694 975 541 
L 3222 541 
z
" id="ArialMT-32" transform="scale(0.015625)"/>
       </defs>
       <use xlink:href="#ArialMT-32"/>
       <use x="55.615234" xlink:href="#ArialMT-30"/>
       <use x="111.230469" xlink:href="#ArialMT-30"/>
      </g>
     </g>
    </g>
    <g id="ytick_4">
     <g id="line2d_4">
      <path clip-path="url(#pf84cc00e62)" d="M 108 143.757818 
L 777.6 143.757818 
" style="fill:none;stroke:#ffffff;stroke-linecap:round;"/>
     </g>
     <g id="text_8">
      <!-- 250 -->
      <g style="fill:#262626;" transform="translate(80.148906 147.694615)scale(0.11 -0.11)">
       <use xlink:href="#ArialMT-32"/>
       <use x="55.615234" xlink:href="#ArialMT-35"/>
       <use x="111.230469" xlink:href="#ArialMT-30"/>
      </g>
     </g>
    </g>
    <g id="ytick_5">
     <g id="line2d_5">
      <path clip-path="url(#pf84cc00e62)" d="M 108 84.456 
L 777.6 84.456 
" style="fill:none;stroke:#ffffff;stroke-linecap:round;"/>
     </g>
     <g id="text_9">
      <!-- 300 -->
      <g style="fill:#262626;" transform="translate(80.148906 88.392797)scale(0.11 -0.11)">
       <defs>
        <path d="M 269 1209 
L 831 1284 
Q 928 806 1161 595 
Q 1394 384 1728 384 
Q 2125 384 2398 659 
Q 2672 934 2672 1341 
Q 2672 1728 2419 1979 
Q 2166 2231 1775 2231 
Q 1616 2231 1378 2169 
L 1441 2663 
Q 1497 2656 1531 2656 
Q 1891 2656 2178 2843 
Q 2466 3031 2466 3422 
Q 2466 3731 2256 3934 
Q 2047 4138 1716 4138 
Q 1388 4138 1169 3931 
Q 950 3725 888 3313 
L 325 3413 
Q 428 3978 793 4289 
Q 1159 4600 1703 4600 
Q 2078 4600 2393 4439 
Q 2709 4278 2876 4000 
Q 3044 3722 3044 3409 
Q 3044 3113 2884 2869 
Q 2725 2625 2413 2481 
Q 2819 2388 3044 2092 
Q 3269 1797 3269 1353 
Q 3269 753 2831 336 
Q 2394 -81 1725 -81 
Q 1122 -81 723 278 
Q 325 638 269 1209 
z
" id="ArialMT-33" transform="scale(0.015625)"/>
       </defs>
       <use xlink:href="#ArialMT-33"/>
       <use x="55.615234" xlink:href="#ArialMT-30"/>
       <use x="111.230469" xlink:href="#ArialMT-30"/>
      </g>
     </g>
    </g>
    <g id="text_10">
     <!-- Annual income (thousands) -->
     <g style="fill:#262626;" transform="translate(73.623281 287.957812)rotate(-90)scale(0.12 -0.12)">
      <defs>
       <path d="M -9 0 
L 1750 4581 
L 2403 4581 
L 4278 0 
L 3588 0 
L 3053 1388 
L 1138 1388 
L 634 0 
L -9 0 
z
M 1313 1881 
L 2866 1881 
L 2388 3150 
Q 2169 3728 2063 4100 
Q 1975 3659 1816 3225 
L 1313 1881 
z
" id="ArialMT-41" transform="scale(0.015625)"/>
       <path d="M 1497 -1347 
Q 1031 -759 709 28 
Q 388 816 388 1659 
Q 388 2403 628 3084 
Q 909 3875 1497 4659 
L 1900 4659 
Q 1522 4009 1400 3731 
Q 1209 3300 1100 2831 
Q 966 2247 966 1656 
Q 966 153 1900 -1347 
L 1497 -1347 
z
" id="ArialMT-28" transform="scale(0.015625)"/>
       <path d="M 422 0 
L 422 4581 
L 984 4581 
L 984 2938 
Q 1378 3394 1978 3394 
Q 2347 3394 2619 3248 
Q 2891 3103 3008 2847 
Q 3125 2591 3125 2103 
L 3125 0 
L 2563 0 
L 2563 2103 
Q 2563 2525 2380 2717 
Q 2197 2909 1863 2909 
Q 1613 2909 1392 2779 
Q 1172 2650 1078 2428 
Q 984 2206 984 1816 
L 984 0 
L 422 0 
z
" id="ArialMT-68" transform="scale(0.015625)"/>
       <path d="M 197 991 
L 753 1078 
Q 800 744 1014 566 
Q 1228 388 1613 388 
Q 2000 388 2187 545 
Q 2375 703 2375 916 
Q 2375 1106 2209 1216 
Q 2094 1291 1634 1406 
Q 1016 1563 777 1677 
Q 538 1791 414 1992 
Q 291 2194 291 2438 
Q 291 2659 392 2848 
Q 494 3038 669 3163 
Q 800 3259 1026 3326 
Q 1253 3394 1513 3394 
Q 1903 3394 2198 3281 
Q 2494 3169 2634 2976 
Q 2775 2784 2828 2463 
L 2278 2388 
Q 2241 2644 2061 2787 
Q 1881 2931 1553 2931 
Q 1166 2931 1000 2803 
Q 834 2675 834 2503 
Q 834 2394 903 2306 
Q 972 2216 1119 2156 
Q 1203 2125 1616 2013 
Q 2213 1853 2448 1751 
Q 2684 1650 2818 1456 
Q 2953 1263 2953 975 
Q 2953 694 2789 445 
Q 2625 197 2315 61 
Q 2006 -75 1616 -75 
Q 969 -75 630 194 
Q 291 463 197 991 
z
" id="ArialMT-73" transform="scale(0.015625)"/>
       <path d="M 791 -1347 
L 388 -1347 
Q 1322 153 1322 1656 
Q 1322 2244 1188 2822 
Q 1081 3291 891 3722 
Q 769 4003 388 4659 
L 791 4659 
Q 1378 3875 1659 3084 
Q 1900 2403 1900 1659 
Q 1900 816 1576 28 
Q 1253 -759 791 -1347 
z
" id="ArialMT-29" transform="scale(0.015625)"/>
      </defs>
      <use xlink:href="#ArialMT-41"/>
      <use x="66.699219" xlink:href="#ArialMT-6e"/>
      <use x="122.314453" xlink:href="#ArialMT-6e"/>
      <use x="177.929688" xlink:href="#ArialMT-75"/>
      <use x="233.544922" xlink:href="#ArialMT-61"/>
      <use x="289.160156" xlink:href="#ArialMT-6c"/>
      <use x="311.376953" xlink:href="#ArialMT-20"/>
      <use x="339.160156" xlink:href="#ArialMT-69"/>
      <use x="361.376953" xlink:href="#ArialMT-6e"/>
      <use x="416.992188" xlink:href="#ArialMT-63"/>
      <use x="466.992188" xlink:href="#ArialMT-6f"/>
      <use x="522.607422" xlink:href="#ArialMT-6d"/>
      <use x="605.908203" xlink:href="#ArialMT-65"/>
      <use x="661.523438" xlink:href="#ArialMT-20"/>
      <use x="689.306641" xlink:href="#ArialMT-28"/>
      <use x="722.607422" xlink:href="#ArialMT-74"/>
      <use x="750.390625" xlink:href="#ArialMT-68"/>
      <use x="806.005859" xlink:href="#ArialMT-6f"/>
      <use x="861.621094" xlink:href="#ArialMT-75"/>
      <use x="917.236328" xlink:href="#ArialMT-73"/>
      <use x="967.236328" xlink:href="#ArialMT-61"/>
      <use x="1022.851562" xlink:href="#ArialMT-6e"/>
      <use x="1078.466797" xlink:href="#ArialMT-64"/>
      <use x="1134.082031" xlink:href="#ArialMT-73"/>
      <use x="1184.082031" xlink:href="#ArialMT-29"/>
     </g>
    </g>
   </g>
   <g id="PolyCollection_1">
    <defs>
     <path d="M 245.721979 -68.825455 
L 193.478021 -68.825455 
L 190.97376 -71.221488 
L 188.385202 -73.617521 
L 185.724155 -76.013554 
L 183.002424 -78.409587 
L 180.231505 -80.80562 
L 177.422354 -83.201653 
L 174.585252 -85.597686 
L 171.729793 -87.993719 
L 168.864986 -90.389752 
L 165.999497 -92.785785 
L 163.141982 -95.181818 
L 160.301515 -97.577851 
L 157.488057 -99.973884 
L 154.712929 -102.369917 
L 151.989231 -104.76595 
L 149.332178 -107.161983 
L 146.759272 -109.558017 
L 144.29031 -111.95405 
L 141.947177 -114.350083 
L 139.753416 -116.746116 
L 137.733601 -119.142149 
L 135.912507 -121.538182 
L 134.314154 -123.934215 
L 132.960756 -126.330248 
L 131.871648 -128.726281 
L 131.062279 -131.122314 
L 130.543325 -133.518347 
L 130.32 -135.91438 
L 130.391618 -138.310413 
L 130.751446 -140.706446 
L 131.386865 -143.102479 
L 132.279845 -145.498512 
L 133.407694 -147.894545 
L 134.744052 -150.290579 
L 136.260068 -152.686612 
L 137.925666 -155.082645 
L 139.710853 -157.478678 
L 141.586958 -159.874711 
L 143.527747 -162.270744 
L 145.510333 -164.666777 
L 147.515858 -167.06281 
L 149.529879 -169.458843 
L 151.54249 -171.854876 
L 153.548152 -174.250909 
L 155.545286 -176.646942 
L 157.53565 -179.042975 
L 159.523575 -181.439008 
L 161.515095 -183.835041 
L 163.517061 -186.231074 
L 165.536269 -188.627107 
L 167.57868 -191.02314 
L 169.648757 -193.419174 
L 171.74896 -195.815207 
L 173.879407 -198.21124 
L 176.037721 -200.607273 
L 178.219041 -203.003306 
L 180.416185 -205.399339 
L 182.619939 -207.795372 
L 184.819451 -210.191405 
L 187.002671 -212.587438 
L 189.156837 -214.983471 
L 191.268943 -217.379504 
L 193.326187 -219.775537 
L 195.316359 -222.17157 
L 197.228168 -224.567603 
L 199.051487 -226.963636 
L 200.777531 -229.359669 
L 202.398947 -231.755702 
L 203.909853 -234.151736 
L 205.305819 -236.547769 
L 206.583813 -238.943802 
L 207.74212 -241.339835 
L 208.780258 -243.735868 
L 209.698896 -246.131901 
L 210.499778 -248.527934 
L 211.185666 -250.923967 
L 211.760304 -253.32 
L 212.228396 -255.716033 
L 212.595583 -258.112066 
L 212.868444 -260.508099 
L 213.054467 -262.904132 
L 213.162022 -265.300165 
L 213.200301 -267.696198 
L 213.179231 -270.092231 
L 213.109354 -272.488264 
L 213.001664 -274.884298 
L 212.867417 -277.280331 
L 212.717911 -279.676364 
L 212.564238 -282.072397 
L 212.41703 -284.46843 
L 212.286197 -286.864463 
L 212.180686 -289.260496 
L 212.108255 -291.656529 
L 212.075282 -294.052562 
L 212.086626 -296.448595 
L 212.145529 -298.844628 
L 212.253583 -301.240661 
L 212.410752 -303.636694 
L 212.615452 -306.032727 
L 226.584548 -306.032727 
L 226.584548 -306.032727 
L 226.789248 -303.636694 
L 226.946417 -301.240661 
L 227.054471 -298.844628 
L 227.113374 -296.448595 
L 227.124718 -294.052562 
L 227.091745 -291.656529 
L 227.019314 -289.260496 
L 226.913803 -286.864463 
L 226.78297 -284.46843 
L 226.635762 -282.072397 
L 226.482089 -279.676364 
L 226.332583 -277.280331 
L 226.198336 -274.884298 
L 226.090646 -272.488264 
L 226.020769 -270.092231 
L 225.999699 -267.696198 
L 226.037978 -265.300165 
L 226.145533 -262.904132 
L 226.331556 -260.508099 
L 226.604417 -258.112066 
L 226.971604 -255.716033 
L 227.439696 -253.32 
L 228.014334 -250.923967 
L 228.700222 -248.527934 
L 229.501104 -246.131901 
L 230.419742 -243.735868 
L 231.45788 -241.339835 
L 232.616187 -238.943802 
L 233.894181 -236.547769 
L 235.290147 -234.151736 
L 236.801053 -231.755702 
L 238.422469 -229.359669 
L 240.148513 -226.963636 
L 241.971832 -224.567603 
L 243.883641 -222.17157 
L 245.873813 -219.775537 
L 247.931057 -217.379504 
L 250.043163 -214.983471 
L 252.197329 -212.587438 
L 254.380549 -210.191405 
L 256.580061 -207.795372 
L 258.783815 -205.399339 
L 260.980959 -203.003306 
L 263.162279 -200.607273 
L 265.320593 -198.21124 
L 267.45104 -195.815207 
L 269.551243 -193.419174 
L 271.62132 -191.02314 
L 273.663731 -188.627107 
L 275.682939 -186.231074 
L 277.684905 -183.835041 
L 279.676425 -181.439008 
L 281.66435 -179.042975 
L 283.654714 -176.646942 
L 285.651848 -174.250909 
L 287.65751 -171.854876 
L 289.670121 -169.458843 
L 291.684142 -167.06281 
L 293.689667 -164.666777 
L 295.672253 -162.270744 
L 297.613042 -159.874711 
L 299.489147 -157.478678 
L 301.274334 -155.082645 
L 302.939932 -152.686612 
L 304.455948 -150.290579 
L 305.792306 -147.894545 
L 306.920155 -145.498512 
L 307.813135 -143.102479 
L 308.448554 -140.706446 
L 308.808382 -138.310413 
L 308.88 -135.91438 
L 308.656675 -133.518347 
L 308.137721 -131.122314 
L 307.328352 -128.726281 
L 306.239244 -126.330248 
L 304.885846 -123.934215 
L 303.287493 -121.538182 
L 301.466399 -119.142149 
L 299.446584 -116.746116 
L 297.252823 -114.350083 
L 294.90969 -111.95405 
L 292.440728 -109.558017 
L 289.867822 -107.161983 
L 287.210769 -104.76595 
L 284.487071 -102.369917 
L 281.711943 -99.973884 
L 278.898485 -97.577851 
L 276.058018 -95.181818 
L 273.200503 -92.785785 
L 270.335014 -90.389752 
L 267.470207 -87.993719 
L 264.614748 -85.597686 
L 261.777646 -83.201653 
L 258.968495 -80.80562 
L 256.197576 -78.409587 
L 253.475845 -76.013554 
L 250.814798 -73.617521 
L 248.22624 -71.221488 
L 245.721979 -68.825455 
z
" id="mbb922749e1" style="stroke:#4c4c4c;stroke-width:1.5;"/>
    </defs>
    <g clip-path="url(#pf84cc00e62)">
     <use style="fill:#5875a4;stroke:#4c4c4c;stroke-width:1.5;" x="0" xlink:href="#mbb922749e1" y="432"/>
    </g>
   </g>
   <g id="PolyCollection_2">
    <defs>
     <path d="M 449.711064 -78.313745 
L 435.888936 -78.313745 
L 435.294248 -81.212945 
L 434.654205 -84.112145 
L 433.965267 -87.011345 
L 433.224211 -89.910545 
L 432.42834 -92.809745 
L 431.575685 -95.708945 
L 430.665209 -98.608145 
L 429.696991 -101.507345 
L 428.672389 -104.406545 
L 427.594166 -107.305745 
L 426.466579 -110.204945 
L 425.295416 -113.104145 
L 424.087989 -116.003345 
L 422.853065 -118.902545 
L 421.600758 -121.801745 
L 420.342365 -124.700945 
L 419.090155 -127.600145 
L 417.857135 -130.499345 
L 416.656776 -133.398545 
L 415.502726 -136.297745 
L 414.408508 -139.196945 
L 413.387228 -142.096145 
L 412.451285 -144.995345 
L 411.6121 -147.894545 
L 410.879875 -150.793745 
L 410.263387 -153.692945 
L 409.769812 -156.592145 
L 409.404603 -159.491345 
L 409.1714 -162.390545 
L 409.072 -165.289745 
L 409.10636 -168.188945 
L 409.272648 -171.088145 
L 409.56733 -173.987345 
L 409.985295 -176.886545 
L 410.520002 -179.785745 
L 411.163657 -182.684945 
L 411.907402 -185.584145 
L 412.741506 -188.483345 
L 413.655574 -191.382545 
L 414.63874 -194.281745 
L 415.679856 -197.180945 
L 416.767676 -200.080145 
L 417.891014 -202.979345 
L 419.0389 -205.878545 
L 420.200711 -208.777745 
L 421.366288 -211.676945 
L 422.526042 -214.576145 
L 423.671042 -217.475345 
L 424.793098 -220.374545 
L 425.884825 -223.273745 
L 426.939704 -226.172945 
L 427.952131 -229.072145 
L 428.917458 -231.971345 
L 429.832017 -234.870545 
L 430.69314 -237.769745 
L 431.499158 -240.668945 
L 432.249381 -243.568145 
L 432.944068 -246.467345 
L 433.584362 -249.366545 
L 434.172217 -252.265745 
L 434.710298 -255.164945 
L 435.201856 -258.064145 
L 435.650598 -260.963345 
L 436.060534 -263.862545 
L 436.43582 -266.761745 
L 436.780604 -269.660945 
L 437.098867 -272.560145 
L 437.394286 -275.459345 
L 437.67011 -278.358545 
L 437.929061 -281.257745 
L 438.173262 -284.156945 
L 438.404202 -287.056145 
L 438.622724 -289.955345 
L 438.829059 -292.854545 
L 439.022878 -295.753745 
L 439.203387 -298.652945 
L 439.369427 -301.552145 
L 439.51961 -304.451345 
L 439.652453 -307.350545 
L 439.766518 -310.249745 
L 439.860553 -313.148945 
L 439.933617 -316.048145 
L 439.985193 -318.947345 
L 440.015273 -321.846545 
L 440.024427 -324.745745 
L 440.013828 -327.644945 
L 439.985264 -330.544145 
L 439.941102 -333.443345 
L 439.884237 -336.342545 
L 439.818009 -339.241745 
L 439.746091 -342.140945 
L 439.672372 -345.040145 
L 439.600823 -347.939345 
L 439.53535 -350.838545 
L 439.479663 -353.737745 
L 439.437141 -356.636945 
L 439.410716 -359.536145 
L 439.402775 -362.435345 
L 439.415087 -365.334545 
L 446.184913 -365.334545 
L 446.184913 -365.334545 
L 446.197225 -362.435345 
L 446.189284 -359.536145 
L 446.162859 -356.636945 
L 446.120337 -353.737745 
L 446.06465 -350.838545 
L 445.999177 -347.939345 
L 445.927628 -345.040145 
L 445.853909 -342.140945 
L 445.781991 -339.241745 
L 445.715763 -336.342545 
L 445.658898 -333.443345 
L 445.614736 -330.544145 
L 445.586172 -327.644945 
L 445.575573 -324.745745 
L 445.584727 -321.846545 
L 445.614807 -318.947345 
L 445.666383 -316.048145 
L 445.739447 -313.148945 
L 445.833482 -310.249745 
L 445.947547 -307.350545 
L 446.08039 -304.451345 
L 446.230573 -301.552145 
L 446.396613 -298.652945 
L 446.577122 -295.753745 
L 446.770941 -292.854545 
L 446.977276 -289.955345 
L 447.195798 -287.056145 
L 447.426738 -284.156945 
L 447.670939 -281.257745 
L 447.92989 -278.358545 
L 448.205714 -275.459345 
L 448.501133 -272.560145 
L 448.819396 -269.660945 
L 449.16418 -266.761745 
L 449.539466 -263.862545 
L 449.949402 -260.963345 
L 450.398144 -258.064145 
L 450.889702 -255.164945 
L 451.427783 -252.265745 
L 452.015638 -249.366545 
L 452.655932 -246.467345 
L 453.350619 -243.568145 
L 454.100842 -240.668945 
L 454.90686 -237.769745 
L 455.767983 -234.870545 
L 456.682542 -231.971345 
L 457.647869 -229.072145 
L 458.660296 -226.172945 
L 459.715175 -223.273745 
L 460.806902 -220.374545 
L 461.928958 -217.475345 
L 463.073958 -214.576145 
L 464.233712 -211.676945 
L 465.399289 -208.777745 
L 466.5611 -205.878545 
L 467.708986 -202.979345 
L 468.832324 -200.080145 
L 469.920144 -197.180945 
L 470.96126 -194.281745 
L 471.944426 -191.382545 
L 472.858494 -188.483345 
L 473.692598 -185.584145 
L 474.436343 -182.684945 
L 475.079998 -179.785745 
L 475.614705 -176.886545 
L 476.03267 -173.987345 
L 476.327352 -171.088145 
L 476.49364 -168.188945 
L 476.528 -165.289745 
L 476.4286 -162.390545 
L 476.195397 -159.491345 
L 475.830188 -156.592145 
L 475.336613 -153.692945 
L 474.720125 -150.793745 
L 473.9879 -147.894545 
L 473.148715 -144.995345 
L 472.212772 -142.096145 
L 471.191492 -139.196945 
L 470.097274 -136.297745 
L 468.943224 -133.398545 
L 467.742865 -130.499345 
L 466.509845 -127.600145 
L 465.257635 -124.700945 
L 463.999242 -121.801745 
L 462.746935 -118.902545 
L 461.512011 -116.003345 
L 460.304584 -113.104145 
L 459.133421 -110.204945 
L 458.005834 -107.305745 
L 456.927611 -104.406545 
L 455.903009 -101.507345 
L 454.934791 -98.608145 
L 454.024315 -95.708945 
L 453.17166 -92.809745 
L 452.375789 -89.910545 
L 451.634733 -87.011345 
L 450.945795 -84.112145 
L 450.305752 -81.212945 
L 449.711064 -78.313745 
z
" id="m22476bffca" style="stroke:#4c4c4c;stroke-width:1.5;"/>
    </defs>
    <g clip-path="url(#pf84cc00e62)">
     <use style="fill:#cc8963;stroke:#4c4c4c;stroke-width:1.5;" x="0" xlink:href="#m22476bffca" y="432"/>
    </g>
   </g>
   <g id="PolyCollection_3">
    <defs>
     <path d="M 669.961983 -74.755636 
L 662.038017 -74.755636 
L 662.033638 -75.414545 
L 662.032 -76.073455 
L 662.033065 -76.732364 
L 662.036789 -77.391273 
L 662.043117 -78.050182 
L 662.051989 -78.709091 
L 662.063333 -79.368 
L 662.077072 -80.026909 
L 662.09312 -80.685818 
L 662.111383 -81.344727 
L 662.13176 -82.003636 
L 662.154145 -82.662545 
L 662.178422 -83.321455 
L 662.204473 -83.980364 
L 662.232171 -84.639273 
L 662.261384 -85.298182 
L 662.291978 -85.957091 
L 662.323811 -86.616 
L 662.356741 -87.274909 
L 662.390618 -87.933818 
L 662.425294 -88.592727 
L 662.460616 -89.251636 
L 662.496431 -89.910545 
L 662.532582 -90.569455 
L 662.568915 -91.228364 
L 662.605275 -91.887273 
L 662.641506 -92.546182 
L 662.677455 -93.205091 
L 662.712971 -93.864 
L 662.747904 -94.522909 
L 662.782108 -95.181818 
L 662.81544 -95.840727 
L 662.847761 -96.499636 
L 662.878938 -97.158545 
L 662.90884 -97.817455 
L 662.937344 -98.476364 
L 662.964332 -99.135273 
L 662.989694 -99.794182 
L 663.013325 -100.453091 
L 663.035127 -101.112 
L 663.055012 -101.770909 
L 663.072898 -102.429818 
L 663.088711 -103.088727 
L 663.102388 -103.747636 
L 663.113871 -104.406545 
L 663.123114 -105.065455 
L 663.13008 -105.724364 
L 663.13474 -106.383273 
L 663.137075 -107.042182 
L 663.137075 -107.701091 
L 663.13474 -108.36 
L 663.13008 -109.018909 
L 663.123114 -109.677818 
L 663.113871 -110.336727 
L 663.102388 -110.995636 
L 663.088711 -111.654545 
L 663.072898 -112.313455 
L 663.055012 -112.972364 
L 663.035127 -113.631273 
L 663.013325 -114.290182 
L 662.989694 -114.949091 
L 662.964332 -115.608 
L 662.937344 -116.266909 
L 662.90884 -116.925818 
L 662.878938 -117.584727 
L 662.847761 -118.243636 
L 662.81544 -118.902545 
L 662.782108 -119.561455 
L 662.747904 -120.220364 
L 662.712971 -120.879273 
L 662.677455 -121.538182 
L 662.641506 -122.197091 
L 662.605275 -122.856 
L 662.568915 -123.514909 
L 662.532582 -124.173818 
L 662.496431 -124.832727 
L 662.460616 -125.491636 
L 662.425294 -126.150545 
L 662.390618 -126.809455 
L 662.356741 -127.468364 
L 662.323811 -128.127273 
L 662.291978 -128.786182 
L 662.261384 -129.445091 
L 662.232171 -130.104 
L 662.204473 -130.762909 
L 662.178422 -131.421818 
L 662.154145 -132.080727 
L 662.13176 -132.739636 
L 662.111383 -133.398545 
L 662.09312 -134.057455 
L 662.077072 -134.716364 
L 662.063333 -135.375273 
L 662.051989 -136.034182 
L 662.043117 -136.693091 
L 662.036789 -137.352 
L 662.033065 -138.010909 
L 662.032 -138.669818 
L 662.033638 -139.328727 
L 662.038017 -139.987636 
L 669.961983 -139.987636 
L 669.961983 -139.987636 
L 669.966362 -139.328727 
L 669.968 -138.669818 
L 669.966935 -138.010909 
L 669.963211 -137.352 
L 669.956883 -136.693091 
L 669.948011 -136.034182 
L 669.936667 -135.375273 
L 669.922928 -134.716364 
L 669.90688 -134.057455 
L 669.888617 -133.398545 
L 669.86824 -132.739636 
L 669.845855 -132.080727 
L 669.821578 -131.421818 
L 669.795527 -130.762909 
L 669.767829 -130.104 
L 669.738616 -129.445091 
L 669.708022 -128.786182 
L 669.676189 -128.127273 
L 669.643259 -127.468364 
L 669.609382 -126.809455 
L 669.574706 -126.150545 
L 669.539384 -125.491636 
L 669.503569 -124.832727 
L 669.467418 -124.173818 
L 669.431085 -123.514909 
L 669.394725 -122.856 
L 669.358494 -122.197091 
L 669.322545 -121.538182 
L 669.287029 -120.879273 
L 669.252096 -120.220364 
L 669.217892 -119.561455 
L 669.18456 -118.902545 
L 669.152239 -118.243636 
L 669.121062 -117.584727 
L 669.09116 -116.925818 
L 669.062656 -116.266909 
L 669.035668 -115.608 
L 669.010306 -114.949091 
L 668.986675 -114.290182 
L 668.964873 -113.631273 
L 668.944988 -112.972364 
L 668.927102 -112.313455 
L 668.911289 -111.654545 
L 668.897612 -110.995636 
L 668.886129 -110.336727 
L 668.876886 -109.677818 
L 668.86992 -109.018909 
L 668.86526 -108.36 
L 668.862925 -107.701091 
L 668.862925 -107.042182 
L 668.86526 -106.383273 
L 668.86992 -105.724364 
L 668.876886 -105.065455 
L 668.886129 -104.406545 
L 668.897612 -103.747636 
L 668.911289 -103.088727 
L 668.927102 -102.429818 
L 668.944988 -101.770909 
L 668.964873 -101.112 
L 668.986675 -100.453091 
L 669.010306 -99.794182 
L 669.035668 -99.135273 
L 669.062656 -98.476364 
L 669.09116 -97.817455 
L 669.121062 -97.158545 
L 669.152239 -96.499636 
L 669.18456 -95.840727 
L 669.217892 -95.181818 
L 669.252096 -94.522909 
L 669.287029 -93.864 
L 669.322545 -93.205091 
L 669.358494 -92.546182 
L 669.394725 -91.887273 
L 669.431085 -91.228364 
L 669.467418 -90.569455 
L 669.503569 -89.910545 
L 669.539384 -89.251636 
L 669.574706 -88.592727 
L 669.609382 -87.933818 
L 669.643259 -87.274909 
L 669.676189 -86.616 
L 669.708022 -85.957091 
L 669.738616 -85.298182 
L 669.767829 -84.639273 
L 669.795527 -83.980364 
L 669.821578 -83.321455 
L 669.845855 -82.662545 
L 669.86824 -82.003636 
L 669.888617 -81.344727 
L 669.90688 -80.685818 
L 669.922928 -80.026909 
L 669.936667 -79.368 
L 669.948011 -78.709091 
L 669.956883 -78.050182 
L 669.963211 -77.391273 
L 669.966935 -76.732364 
L 669.968 -76.073455 
L 669.966362 -75.414545 
L 669.961983 -74.755636 
z
" id="ma4953dfba6" style="stroke:#4c4c4c;stroke-width:1.5;"/>
    </defs>
    <g clip-path="url(#pf84cc00e62)">
     <use style="fill:#5f9e6e;stroke:#4c4c4c;stroke-width:1.5;" x="0" xlink:href="#ma4953dfba6" y="432"/>
    </g>
   </g>
   <g id="line2d_6">
    <path clip-path="url(#pf84cc00e62)" d="M 138.552265 313.361018 
L 300.647735 313.361018 
" style="fill:none;stroke:#4c4c4c;stroke-dasharray:3.375,3.375;stroke-dashoffset:0;stroke-width:1.5;"/>
   </g>
   <g id="line2d_7">
    <path clip-path="url(#pf84cc00e62)" d="M 132.268996 289.640291 
L 306.931004 289.640291 
" style="fill:none;stroke:#4c4c4c;stroke-dasharray:6.75,6.75;stroke-dashoffset:0;stroke-width:1.5;"/>
   </g>
   <g id="line2d_8">
    <path clip-path="url(#pf84cc00e62)" d="M 160.124339 250.501091 
L 279.075661 250.501091 
" style="fill:none;stroke:#4c4c4c;stroke-dasharray:3.375,3.375;stroke-dashoffset:0;stroke-width:1.5;"/>
   </g>
   <g id="line2d_9">
    <path clip-path="url(#pf84cc00e62)" d="M 412.754772 286.082182 
L 472.845228 286.082182 
" style="fill:none;stroke:#4c4c4c;stroke-dasharray:3.375,3.375;stroke-dashoffset:0;stroke-width:1.5;"/>
   </g>
   <g id="line2d_10">
    <path clip-path="url(#pf84cc00e62)" d="M 409.443297 263.547491 
L 476.156703 263.547491 
" style="fill:none;stroke:#4c4c4c;stroke-dasharray:6.75,6.75;stroke-dashoffset:0;stroke-width:1.5;"/>
   </g>
   <g id="line2d_11">
    <path clip-path="url(#pf84cc00e62)" d="M 419.276511 226.780364 
L 466.323489 226.780364 
" style="fill:none;stroke:#4c4c4c;stroke-dasharray:3.375,3.375;stroke-dashoffset:0;stroke-width:1.5;"/>
   </g>
   <g id="line2d_12">
    <path clip-path="url(#pf84cc00e62)" d="M 662.603226 340.936364 
L 669.396774 340.936364 
" style="fill:none;stroke:#4c4c4c;stroke-dasharray:3.375,3.375;stroke-dashoffset:0;stroke-width:1.5;"/>
   </g>
   <g id="line2d_13">
    <path clip-path="url(#pf84cc00e62)" d="M 663.165704 324.628364 
L 668.834296 324.628364 
" style="fill:none;stroke:#4c4c4c;stroke-dasharray:6.75,6.75;stroke-dashoffset:0;stroke-width:1.5;"/>
   </g>
   <g id="line2d_14">
    <path clip-path="url(#pf84cc00e62)" d="M 662.603226 308.320364 
L 669.396774 308.320364 
" style="fill:none;stroke:#4c4c4c;stroke-dasharray:3.375,3.375;stroke-dashoffset:0;stroke-width:1.5;"/>
   </g>
   <g id="patch_3">
    <path d="M 108 378 
L 108 51.84 
" style="fill:none;stroke:#ffffff;stroke-linecap:square;stroke-linejoin:miter;stroke-width:1.25;"/>
   </g>
   <g id="patch_4">
    <path d="M 777.6 378 
L 777.6 51.84 
" style="fill:none;stroke:#ffffff;stroke-linecap:square;stroke-linejoin:miter;stroke-width:1.25;"/>
   </g>
   <g id="patch_5">
    <path d="M 108 378 
L 777.6 378 
" style="fill:none;stroke:#ffffff;stroke-linecap:square;stroke-linejoin:miter;stroke-width:1.25;"/>
   </g>
   <g id="patch_6">
    <path d="M 108 51.84 
L 777.6 51.84 
" style="fill:none;stroke:#ffffff;stroke-linecap:square;stroke-linejoin:miter;stroke-width:1.25;"/>
   </g>
   <g id="text_11">
    <!-- Compensation by Employer Type -->
    <g style="fill:#262626;" transform="translate(354.5325 45.84)scale(0.12 -0.12)">
     <defs>
      <path d="M 3763 1606 
L 4369 1453 
Q 4178 706 3683 314 
Q 3188 -78 2472 -78 
Q 1731 -78 1267 223 
Q 803 525 561 1097 
Q 319 1669 319 2325 
Q 319 3041 592 3573 
Q 866 4106 1370 4382 
Q 1875 4659 2481 4659 
Q 3169 4659 3637 4309 
Q 4106 3959 4291 3325 
L 3694 3184 
Q 3534 3684 3231 3912 
Q 2928 4141 2469 4141 
Q 1941 4141 1586 3887 
Q 1231 3634 1087 3207 
Q 944 2781 944 2328 
Q 944 1744 1114 1308 
Q 1284 872 1643 656 
Q 2003 441 2422 441 
Q 2931 441 3284 734 
Q 3638 1028 3763 1606 
z
" id="ArialMT-43" transform="scale(0.015625)"/>
     </defs>
     <use xlink:href="#ArialMT-43"/>
     <use x="72.216797" xlink:href="#ArialMT-6f"/>
     <use x="127.832031" xlink:href="#ArialMT-6d"/>
     <use x="211.132812" xlink:href="#ArialMT-70"/>
     <use x="266.748047" xlink:href="#ArialMT-65"/>
     <use x="322.363281" xlink:href="#ArialMT-6e"/>
     <use x="377.978516" xlink:href="#ArialMT-73"/>
     <use x="427.978516" xlink:href="#ArialMT-61"/>
     <use x="483.59375" xlink:href="#ArialMT-74"/>
     <use x="511.376953" xlink:href="#ArialMT-69"/>
     <use x="533.59375" xlink:href="#ArialMT-6f"/>
     <use x="589.208984" xlink:href="#ArialMT-6e"/>
     <use x="644.824219" xlink:href="#ArialMT-20"/>
     <use x="672.607422" xlink:href="#ArialMT-62"/>
     <use x="728.222656" xlink:href="#ArialMT-79"/>
     <use x="778.222656" xlink:href="#ArialMT-20"/>
     <use x="806.005859" xlink:href="#ArialMT-45"/>
     <use x="872.705078" xlink:href="#ArialMT-6d"/>
     <use x="956.005859" xlink:href="#ArialMT-70"/>
     <use x="1011.621094" xlink:href="#ArialMT-6c"/>
     <use x="1033.837891" xlink:href="#ArialMT-6f"/>
     <use x="1089.453125" xlink:href="#ArialMT-79"/>
     <use x="1139.453125" xlink:href="#ArialMT-65"/>
     <use x="1195.068359" xlink:href="#ArialMT-72"/>
     <use x="1228.369141" xlink:href="#ArialMT-20"/>
     <use x="1254.402344" xlink:href="#ArialMT-54"/>
     <use x="1309.986328" xlink:href="#ArialMT-79"/>
     <use x="1359.986328" xlink:href="#ArialMT-70"/>
     <use x="1415.601562" xlink:href="#ArialMT-65"/>
    </g>
   </g>
  </g>
 </g>
 <defs>
  <clipPath id="pf84cc00e62">
   <rect height="326.16" width="669.6" x="108" y="51.84"/>
  </clipPath>
 </defs>
</svg>
