<?xml version="1.0" encoding="utf-8" standalone="no"?>
<!DOCTYPE svg PUBLIC "-//W3C//DTD SVG 1.1//EN"
  "http://www.w3.org/Graphics/SVG/1.1/DTD/svg11.dtd">
<svg height="432pt" version="1.1" viewBox="0 0 864 432" width="864pt" xmlns="http://www.w3.org/2000/svg" xmlns:xlink="http://www.w3.org/1999/xlink">
 <metadata>
  <rdf:RDF xmlns:cc="http://creativecommons.org/ns#" xmlns:dc="http://purl.org/dc/elements/1.1/" xmlns:rdf="http://www.w3.org/1999/02/22-rdf-syntax-ns#">
   <cc:Work>
    <dc:type rdf:resource="http://purl.org/dc/dcmitype/StillImage"/>
    <dc:date>2021-12-27T06:11:40.062215</dc:date>
    <dc:format>image/svg+xml</dc:format>
    <dc:creator>
     <cc:Agent>
      <dc:title>Matplotlib v3.4.3, https://matplotlib.org/</dc:title>
     </cc:Agent>
    </dc:creator>
   </cc:Work>
  </rdf:RDF>
 </metadata>
 <defs>
  <style type="text/css">*{stroke-linecap:butt;stroke-linejoin:round;}</style>
 </defs>
 <g id="figure_1">
  <g id="patch_1">
   <path d="M 0 432 
L 864 432 
L 864 0 
L 0 0 
z
" style="fill:#ffffff;"/>
  </g>
  <g id="axes_1">
   <g id="patch_2">
    <path d="M 108 378 
L 777.6 378 
L 777.6 51.84 
L 108 51.84 
z
" style="fill:#eaeaf2;"/>
   </g>
   <g id="matplotlib.axis_1">
    <g id="xtick_1">
     <g id="text_1">
      <!-- DevOps -->
      <g style="fill:#262626;" transform="translate(143.932969 395.514531)scale(0.11 -0.11)">
       <defs>
        <path d="M 494 0 
L 494 4581 
L 2072 4581 
Q 2606 4581 2888 4516 
Q 3281 4425 3559 4188 
Q 3922 3881 4101 3404 
Q 4281 2928 4281 2316 
Q 4281 1794 4159 1391 
Q 4038 988 3847 723 
Q 3656 459 3429 307 
Q 3203 156 2883 78 
Q 2563 0 2147 0 
L 494 0 
z
M 1100 541 
L 2078 541 
Q 2531 541 2789 625 
Q 3047 709 3200 863 
Q 3416 1078 3536 1442 
Q 3656 1806 3656 2325 
Q 3656 3044 3420 3430 
Q 3184 3816 2847 3947 
Q 2603 4041 2063 4041 
L 1100 4041 
L 1100 541 
z
" id="ArialMT-44" transform="scale(0.015625)"/>
        <path d="M 2694 1069 
L 3275 997 
Q 3138 488 2766 206 
Q 2394 -75 1816 -75 
Q 1088 -75 661 373 
Q 234 822 234 1631 
Q 234 2469 665 2931 
Q 1097 3394 1784 3394 
Q 2450 3394 2872 2941 
Q 3294 2488 3294 1666 
Q 3294 1616 3291 1516 
L 816 1516 
Q 847 969 1125 678 
Q 1403 388 1819 388 
Q 2128 388 2347 550 
Q 2566 713 2694 1069 
z
M 847 1978 
L 2700 1978 
Q 2663 2397 2488 2606 
Q 2219 2931 1791 2931 
Q 1403 2931 1139 2672 
Q 875 2413 847 1978 
z
" id="ArialMT-65" transform="scale(0.015625)"/>
        <path d="M 1344 0 
L 81 3319 
L 675 3319 
L 1388 1331 
Q 1503 1009 1600 663 
Q 1675 925 1809 1294 
L 2547 3319 
L 3125 3319 
L 1869 0 
L 1344 0 
z
" id="ArialMT-76" transform="scale(0.015625)"/>
        <path d="M 309 2231 
Q 309 3372 921 4017 
Q 1534 4663 2503 4663 
Q 3138 4663 3647 4359 
Q 4156 4056 4423 3514 
Q 4691 2972 4691 2284 
Q 4691 1588 4409 1038 
Q 4128 488 3612 205 
Q 3097 -78 2500 -78 
Q 1853 -78 1343 234 
Q 834 547 571 1087 
Q 309 1628 309 2231 
z
M 934 2222 
Q 934 1394 1379 917 
Q 1825 441 2497 441 
Q 3181 441 3623 922 
Q 4066 1403 4066 2288 
Q 4066 2847 3877 3264 
Q 3688 3681 3323 3911 
Q 2959 4141 2506 4141 
Q 1863 4141 1398 3698 
Q 934 3256 934 2222 
z
" id="ArialMT-4f" transform="scale(0.015625)"/>
        <path d="M 422 -1272 
L 422 3319 
L 934 3319 
L 934 2888 
Q 1116 3141 1344 3267 
Q 1572 3394 1897 3394 
Q 2322 3394 2647 3175 
Q 2972 2956 3137 2557 
Q 3303 2159 3303 1684 
Q 3303 1175 3120 767 
Q 2938 359 2589 142 
Q 2241 -75 1856 -75 
Q 1575 -75 1351 44 
Q 1128 163 984 344 
L 984 -1272 
L 422 -1272 
z
M 931 1641 
Q 931 1000 1190 694 
Q 1450 388 1819 388 
Q 2194 388 2461 705 
Q 2728 1022 2728 1688 
Q 2728 2322 2467 2637 
Q 2206 2953 1844 2953 
Q 1484 2953 1207 2617 
Q 931 2281 931 1641 
z
" id="ArialMT-70" transform="scale(0.015625)"/>
        <path d="M 197 991 
L 753 1078 
Q 800 744 1014 566 
Q 1228 388 1613 388 
Q 2000 388 2187 545 
Q 2375 703 2375 916 
Q 2375 1106 2209 1216 
Q 2094 1291 1634 1406 
Q 1016 1563 777 1677 
Q 538 1791 414 1992 
Q 291 2194 291 2438 
Q 291 2659 392 2848 
Q 494 3038 669 3163 
Q 800 3259 1026 3326 
Q 1253 3394 1513 3394 
Q 1903 3394 2198 3281 
Q 2494 3169 2634 2976 
Q 2775 2784 2828 2463 
L 2278 2388 
Q 2241 2644 2061 2787 
Q 1881 2931 1553 2931 
Q 1166 2931 1000 2803 
Q 834 2675 834 2503 
Q 834 2394 903 2306 
Q 972 2216 1119 2156 
Q 1203 2125 1616 2013 
Q 2213 1853 2448 1751 
Q 2684 1650 2818 1456 
Q 2953 1263 2953 975 
Q 2953 694 2789 445 
Q 2625 197 2315 61 
Q 2006 -75 1616 -75 
Q 969 -75 630 194 
Q 291 463 197 991 
z
" id="ArialMT-73" transform="scale(0.015625)"/>
       </defs>
       <use xlink:href="#ArialMT-44"/>
       <use x="72.216797" xlink:href="#ArialMT-65"/>
       <use x="127.832031" xlink:href="#ArialMT-76"/>
       <use x="177.832031" xlink:href="#ArialMT-4f"/>
       <use x="255.615234" xlink:href="#ArialMT-70"/>
       <use x="311.230469" xlink:href="#ArialMT-73"/>
      </g>
     </g>
    </g>
    <g id="xtick_2">
     <g id="text_2">
      <!-- IT/Support -->
      <g style="fill:#262626;" transform="translate(249.722734 395.507656)scale(0.11 -0.11)">
       <defs>
        <path d="M 597 0 
L 597 4581 
L 1203 4581 
L 1203 0 
L 597 0 
z
" id="ArialMT-49" transform="scale(0.015625)"/>
        <path d="M 1659 0 
L 1659 4041 
L 150 4041 
L 150 4581 
L 3781 4581 
L 3781 4041 
L 2266 4041 
L 2266 0 
L 1659 0 
z
" id="ArialMT-54" transform="scale(0.015625)"/>
        <path d="M 0 -78 
L 1328 4659 
L 1778 4659 
L 453 -78 
L 0 -78 
z
" id="ArialMT-2f" transform="scale(0.015625)"/>
        <path d="M 288 1472 
L 859 1522 
Q 900 1178 1048 958 
Q 1197 738 1509 602 
Q 1822 466 2213 466 
Q 2559 466 2825 569 
Q 3091 672 3220 851 
Q 3350 1031 3350 1244 
Q 3350 1459 3225 1620 
Q 3100 1781 2813 1891 
Q 2628 1963 1997 2114 
Q 1366 2266 1113 2400 
Q 784 2572 623 2826 
Q 463 3081 463 3397 
Q 463 3744 659 4045 
Q 856 4347 1234 4503 
Q 1613 4659 2075 4659 
Q 2584 4659 2973 4495 
Q 3363 4331 3572 4012 
Q 3781 3694 3797 3291 
L 3216 3247 
Q 3169 3681 2898 3903 
Q 2628 4125 2100 4125 
Q 1550 4125 1298 3923 
Q 1047 3722 1047 3438 
Q 1047 3191 1225 3031 
Q 1400 2872 2139 2705 
Q 2878 2538 3153 2413 
Q 3553 2228 3743 1945 
Q 3934 1663 3934 1294 
Q 3934 928 3725 604 
Q 3516 281 3123 101 
Q 2731 -78 2241 -78 
Q 1619 -78 1198 103 
Q 778 284 539 648 
Q 300 1013 288 1472 
z
" id="ArialMT-53" transform="scale(0.015625)"/>
        <path d="M 2597 0 
L 2597 488 
Q 2209 -75 1544 -75 
Q 1250 -75 995 37 
Q 741 150 617 320 
Q 494 491 444 738 
Q 409 903 409 1263 
L 409 3319 
L 972 3319 
L 972 1478 
Q 972 1038 1006 884 
Q 1059 663 1231 536 
Q 1403 409 1656 409 
Q 1909 409 2131 539 
Q 2353 669 2445 892 
Q 2538 1116 2538 1541 
L 2538 3319 
L 3100 3319 
L 3100 0 
L 2597 0 
z
" id="ArialMT-75" transform="scale(0.015625)"/>
        <path d="M 213 1659 
Q 213 2581 725 3025 
Q 1153 3394 1769 3394 
Q 2453 3394 2887 2945 
Q 3322 2497 3322 1706 
Q 3322 1066 3130 698 
Q 2938 331 2570 128 
Q 2203 -75 1769 -75 
Q 1072 -75 642 372 
Q 213 819 213 1659 
z
M 791 1659 
Q 791 1022 1069 705 
Q 1347 388 1769 388 
Q 2188 388 2466 706 
Q 2744 1025 2744 1678 
Q 2744 2294 2464 2611 
Q 2184 2928 1769 2928 
Q 1347 2928 1069 2612 
Q 791 2297 791 1659 
z
" id="ArialMT-6f" transform="scale(0.015625)"/>
        <path d="M 416 0 
L 416 3319 
L 922 3319 
L 922 2816 
Q 1116 3169 1280 3281 
Q 1444 3394 1641 3394 
Q 1925 3394 2219 3213 
L 2025 2691 
Q 1819 2813 1613 2813 
Q 1428 2813 1281 2702 
Q 1134 2591 1072 2394 
Q 978 2094 978 1738 
L 978 0 
L 416 0 
z
" id="ArialMT-72" transform="scale(0.015625)"/>
        <path d="M 1650 503 
L 1731 6 
Q 1494 -44 1306 -44 
Q 1000 -44 831 53 
Q 663 150 594 308 
Q 525 466 525 972 
L 525 2881 
L 113 2881 
L 113 3319 
L 525 3319 
L 525 4141 
L 1084 4478 
L 1084 3319 
L 1650 3319 
L 1650 2881 
L 1084 2881 
L 1084 941 
Q 1084 700 1114 631 
Q 1144 563 1211 522 
Q 1278 481 1403 481 
Q 1497 481 1650 503 
z
" id="ArialMT-74" transform="scale(0.015625)"/>
       </defs>
       <use xlink:href="#ArialMT-49"/>
       <use x="27.783203" xlink:href="#ArialMT-54"/>
       <use x="88.867188" xlink:href="#ArialMT-2f"/>
       <use x="116.650391" xlink:href="#ArialMT-53"/>
       <use x="183.349609" xlink:href="#ArialMT-75"/>
       <use x="238.964844" xlink:href="#ArialMT-70"/>
       <use x="294.580078" xlink:href="#ArialMT-70"/>
       <use x="350.195312" xlink:href="#ArialMT-6f"/>
       <use x="405.810547" xlink:href="#ArialMT-72"/>
       <use x="439.111328" xlink:href="#ArialMT-74"/>
      </g>
     </g>
    </g>
    <g id="xtick_3">
     <g id="text_3">
      <!-- Management/HR -->
      <g style="fill:#262626;" transform="translate(345.427734 395.507656)scale(0.11 -0.11)">
       <defs>
        <path d="M 475 0 
L 475 4581 
L 1388 4581 
L 2472 1338 
Q 2622 884 2691 659 
Q 2769 909 2934 1394 
L 4031 4581 
L 4847 4581 
L 4847 0 
L 4263 0 
L 4263 3834 
L 2931 0 
L 2384 0 
L 1059 3900 
L 1059 0 
L 475 0 
z
" id="ArialMT-4d" transform="scale(0.015625)"/>
        <path d="M 2588 409 
Q 2275 144 1986 34 
Q 1697 -75 1366 -75 
Q 819 -75 525 192 
Q 231 459 231 875 
Q 231 1119 342 1320 
Q 453 1522 633 1644 
Q 813 1766 1038 1828 
Q 1203 1872 1538 1913 
Q 2219 1994 2541 2106 
Q 2544 2222 2544 2253 
Q 2544 2597 2384 2738 
Q 2169 2928 1744 2928 
Q 1347 2928 1158 2789 
Q 969 2650 878 2297 
L 328 2372 
Q 403 2725 575 2942 
Q 747 3159 1072 3276 
Q 1397 3394 1825 3394 
Q 2250 3394 2515 3294 
Q 2781 3194 2906 3042 
Q 3031 2891 3081 2659 
Q 3109 2516 3109 2141 
L 3109 1391 
Q 3109 606 3145 398 
Q 3181 191 3288 0 
L 2700 0 
Q 2613 175 2588 409 
z
M 2541 1666 
Q 2234 1541 1622 1453 
Q 1275 1403 1131 1340 
Q 988 1278 909 1158 
Q 831 1038 831 891 
Q 831 666 1001 516 
Q 1172 366 1500 366 
Q 1825 366 2078 508 
Q 2331 650 2450 897 
Q 2541 1088 2541 1459 
L 2541 1666 
z
" id="ArialMT-61" transform="scale(0.015625)"/>
        <path d="M 422 0 
L 422 3319 
L 928 3319 
L 928 2847 
Q 1294 3394 1984 3394 
Q 2284 3394 2536 3286 
Q 2788 3178 2913 3003 
Q 3038 2828 3088 2588 
Q 3119 2431 3119 2041 
L 3119 0 
L 2556 0 
L 2556 2019 
Q 2556 2363 2490 2533 
Q 2425 2703 2258 2804 
Q 2091 2906 1866 2906 
Q 1506 2906 1245 2678 
Q 984 2450 984 1813 
L 984 0 
L 422 0 
z
" id="ArialMT-6e" transform="scale(0.015625)"/>
        <path d="M 319 -275 
L 866 -356 
Q 900 -609 1056 -725 
Q 1266 -881 1628 -881 
Q 2019 -881 2231 -725 
Q 2444 -569 2519 -288 
Q 2563 -116 2559 434 
Q 2191 0 1641 0 
Q 956 0 581 494 
Q 206 988 206 1678 
Q 206 2153 378 2554 
Q 550 2956 876 3175 
Q 1203 3394 1644 3394 
Q 2231 3394 2613 2919 
L 2613 3319 
L 3131 3319 
L 3131 450 
Q 3131 -325 2973 -648 
Q 2816 -972 2473 -1159 
Q 2131 -1347 1631 -1347 
Q 1038 -1347 672 -1080 
Q 306 -813 319 -275 
z
M 784 1719 
Q 784 1066 1043 766 
Q 1303 466 1694 466 
Q 2081 466 2343 764 
Q 2606 1063 2606 1700 
Q 2606 2309 2336 2618 
Q 2066 2928 1684 2928 
Q 1309 2928 1046 2623 
Q 784 2319 784 1719 
z
" id="ArialMT-67" transform="scale(0.015625)"/>
        <path d="M 422 0 
L 422 3319 
L 925 3319 
L 925 2853 
Q 1081 3097 1340 3245 
Q 1600 3394 1931 3394 
Q 2300 3394 2536 3241 
Q 2772 3088 2869 2813 
Q 3263 3394 3894 3394 
Q 4388 3394 4653 3120 
Q 4919 2847 4919 2278 
L 4919 0 
L 4359 0 
L 4359 2091 
Q 4359 2428 4304 2576 
Q 4250 2725 4106 2815 
Q 3963 2906 3769 2906 
Q 3419 2906 3187 2673 
Q 2956 2441 2956 1928 
L 2956 0 
L 2394 0 
L 2394 2156 
Q 2394 2531 2256 2718 
Q 2119 2906 1806 2906 
Q 1569 2906 1367 2781 
Q 1166 2656 1075 2415 
Q 984 2175 984 1722 
L 984 0 
L 422 0 
z
" id="ArialMT-6d" transform="scale(0.015625)"/>
        <path d="M 513 0 
L 513 4581 
L 1119 4581 
L 1119 2700 
L 3500 2700 
L 3500 4581 
L 4106 4581 
L 4106 0 
L 3500 0 
L 3500 2159 
L 1119 2159 
L 1119 0 
L 513 0 
z
" id="ArialMT-48" transform="scale(0.015625)"/>
        <path d="M 503 0 
L 503 4581 
L 2534 4581 
Q 3147 4581 3465 4457 
Q 3784 4334 3975 4021 
Q 4166 3709 4166 3331 
Q 4166 2844 3850 2509 
Q 3534 2175 2875 2084 
Q 3116 1969 3241 1856 
Q 3506 1613 3744 1247 
L 4541 0 
L 3778 0 
L 3172 953 
Q 2906 1366 2734 1584 
Q 2563 1803 2427 1890 
Q 2291 1978 2150 2013 
Q 2047 2034 1813 2034 
L 1109 2034 
L 1109 0 
L 503 0 
z
M 1109 2559 
L 2413 2559 
Q 2828 2559 3062 2645 
Q 3297 2731 3419 2920 
Q 3541 3109 3541 3331 
Q 3541 3656 3305 3865 
Q 3069 4075 2559 4075 
L 1109 4075 
L 1109 2559 
z
" id="ArialMT-52" transform="scale(0.015625)"/>
       </defs>
       <use xlink:href="#ArialMT-4d"/>
       <use x="83.300781" xlink:href="#ArialMT-61"/>
       <use x="138.916016" xlink:href="#ArialMT-6e"/>
       <use x="194.53125" xlink:href="#ArialMT-61"/>
       <use x="250.146484" xlink:href="#ArialMT-67"/>
       <use x="305.761719" xlink:href="#ArialMT-65"/>
       <use x="361.376953" xlink:href="#ArialMT-6d"/>
       <use x="444.677734" xlink:href="#ArialMT-65"/>
       <use x="500.292969" xlink:href="#ArialMT-6e"/>
       <use x="555.908203" xlink:href="#ArialMT-74"/>
       <use x="583.691406" xlink:href="#ArialMT-2f"/>
       <use x="611.474609" xlink:href="#ArialMT-48"/>
       <use x="683.691406" xlink:href="#ArialMT-52"/>
      </g>
     </g>
    </g>
    <g id="xtick_4">
     <g id="text_4">
      <!-- Other -->
      <g style="fill:#262626;" transform="translate(484.845703 395.373594)scale(0.11 -0.11)">
       <defs>
        <path d="M 422 0 
L 422 4581 
L 984 4581 
L 984 2938 
Q 1378 3394 1978 3394 
Q 2347 3394 2619 3248 
Q 2891 3103 3008 2847 
Q 3125 2591 3125 2103 
L 3125 0 
L 2563 0 
L 2563 2103 
Q 2563 2525 2380 2717 
Q 2197 2909 1863 2909 
Q 1613 2909 1392 2779 
Q 1172 2650 1078 2428 
Q 984 2206 984 1816 
L 984 0 
L 422 0 
z
" id="ArialMT-68" transform="scale(0.015625)"/>
       </defs>
       <use xlink:href="#ArialMT-4f"/>
       <use x="77.783203" xlink:href="#ArialMT-74"/>
       <use x="105.566406" xlink:href="#ArialMT-68"/>
       <use x="161.181641" xlink:href="#ArialMT-65"/>
       <use x="216.796875" xlink:href="#ArialMT-72"/>
      </g>
     </g>
    </g>
    <g id="xtick_5">
     <g id="text_5">
      <!-- Software Development -->
      <g style="fill:#262626;" transform="translate(554.564063 395.507656)scale(0.11 -0.11)">
       <defs>
        <path d="M 556 0 
L 556 2881 
L 59 2881 
L 59 3319 
L 556 3319 
L 556 3672 
Q 556 4006 616 4169 
Q 697 4388 901 4523 
Q 1106 4659 1475 4659 
Q 1713 4659 2000 4603 
L 1916 4113 
Q 1741 4144 1584 4144 
Q 1328 4144 1222 4034 
Q 1116 3925 1116 3625 
L 1116 3319 
L 1763 3319 
L 1763 2881 
L 1116 2881 
L 1116 0 
L 556 0 
z
" id="ArialMT-66" transform="scale(0.015625)"/>
        <path d="M 1034 0 
L 19 3319 
L 600 3319 
L 1128 1403 
L 1325 691 
Q 1338 744 1497 1375 
L 2025 3319 
L 2603 3319 
L 3100 1394 
L 3266 759 
L 3456 1400 
L 4025 3319 
L 4572 3319 
L 3534 0 
L 2950 0 
L 2422 1988 
L 2294 2553 
L 1622 0 
L 1034 0 
z
" id="ArialMT-77" transform="scale(0.015625)"/>
        <path id="ArialMT-20" transform="scale(0.015625)"/>
        <path d="M 409 0 
L 409 4581 
L 972 4581 
L 972 0 
L 409 0 
z
" id="ArialMT-6c" transform="scale(0.015625)"/>
       </defs>
       <use xlink:href="#ArialMT-53"/>
       <use x="66.699219" xlink:href="#ArialMT-6f"/>
       <use x="122.314453" xlink:href="#ArialMT-66"/>
       <use x="150.097656" xlink:href="#ArialMT-74"/>
       <use x="177.880859" xlink:href="#ArialMT-77"/>
       <use x="250.097656" xlink:href="#ArialMT-61"/>
       <use x="305.712891" xlink:href="#ArialMT-72"/>
       <use x="339.013672" xlink:href="#ArialMT-65"/>
       <use x="394.628906" xlink:href="#ArialMT-20"/>
       <use x="422.412109" xlink:href="#ArialMT-44"/>
       <use x="494.628906" xlink:href="#ArialMT-65"/>
       <use x="550.244141" xlink:href="#ArialMT-76"/>
       <use x="600.244141" xlink:href="#ArialMT-65"/>
       <use x="655.859375" xlink:href="#ArialMT-6c"/>
       <use x="678.076172" xlink:href="#ArialMT-6f"/>
       <use x="733.691406" xlink:href="#ArialMT-70"/>
       <use x="789.306641" xlink:href="#ArialMT-6d"/>
       <use x="872.607422" xlink:href="#ArialMT-65"/>
       <use x="928.222656" xlink:href="#ArialMT-6e"/>
       <use x="983.837891" xlink:href="#ArialMT-74"/>
      </g>
     </g>
    </g>
    <g id="xtick_6">
     <g id="text_6">
      <!-- Testing/QA -->
      <g style="fill:#262626;" transform="translate(694.902422 395.514531)scale(0.11 -0.11)">
       <defs>
        <path d="M 425 3934 
L 425 4581 
L 988 4581 
L 988 3934 
L 425 3934 
z
M 425 0 
L 425 3319 
L 988 3319 
L 988 0 
L 425 0 
z
" id="ArialMT-69" transform="scale(0.015625)"/>
        <path d="M 3966 491 
Q 4388 200 4744 66 
L 4566 -356 
Q 4072 -178 3581 206 
Q 3072 -78 2456 -78 
Q 1834 -78 1328 222 
Q 822 522 548 1065 
Q 275 1609 275 2291 
Q 275 2969 550 3525 
Q 825 4081 1333 4372 
Q 1841 4663 2469 4663 
Q 3103 4663 3612 4361 
Q 4122 4059 4389 3517 
Q 4656 2975 4656 2294 
Q 4656 1728 4484 1276 
Q 4313 825 3966 491 
z
M 2631 1266 
Q 3156 1119 3497 828 
Q 4031 1316 4031 2294 
Q 4031 2850 3842 3265 
Q 3653 3681 3289 3911 
Q 2925 4141 2472 4141 
Q 1794 4141 1347 3677 
Q 900 3213 900 2291 
Q 900 1397 1342 919 
Q 1784 441 2472 441 
Q 2797 441 3084 563 
Q 2800 747 2484 825 
L 2631 1266 
z
" id="ArialMT-51" transform="scale(0.015625)"/>
        <path d="M -9 0 
L 1750 4581 
L 2403 4581 
L 4278 0 
L 3588 0 
L 3053 1388 
L 1138 1388 
L 634 0 
L -9 0 
z
M 1313 1881 
L 2866 1881 
L 2388 3150 
Q 2169 3728 2063 4100 
Q 1975 3659 1816 3225 
L 1313 1881 
z
" id="ArialMT-41" transform="scale(0.015625)"/>
       </defs>
       <use xlink:href="#ArialMT-54"/>
       <use x="49.958984" xlink:href="#ArialMT-65"/>
       <use x="105.574219" xlink:href="#ArialMT-73"/>
       <use x="155.574219" xlink:href="#ArialMT-74"/>
       <use x="183.357422" xlink:href="#ArialMT-69"/>
       <use x="205.574219" xlink:href="#ArialMT-6e"/>
       <use x="261.189453" xlink:href="#ArialMT-67"/>
       <use x="316.804688" xlink:href="#ArialMT-2f"/>
       <use x="344.587891" xlink:href="#ArialMT-51"/>
       <use x="422.371094" xlink:href="#ArialMT-41"/>
      </g>
     </g>
    </g>
    <g id="text_7">
     <!-- Type of Work -->
     <g style="fill:#262626;" transform="translate(407.562187 410.565313)scale(0.12 -0.12)">
      <defs>
       <path d="M 397 -1278 
L 334 -750 
Q 519 -800 656 -800 
Q 844 -800 956 -737 
Q 1069 -675 1141 -563 
Q 1194 -478 1313 -144 
Q 1328 -97 1363 -6 
L 103 3319 
L 709 3319 
L 1400 1397 
Q 1534 1031 1641 628 
Q 1738 1016 1872 1384 
L 2581 3319 
L 3144 3319 
L 1881 -56 
Q 1678 -603 1566 -809 
Q 1416 -1088 1222 -1217 
Q 1028 -1347 759 -1347 
Q 597 -1347 397 -1278 
z
" id="ArialMT-79" transform="scale(0.015625)"/>
       <path d="M 1294 0 
L 78 4581 
L 700 4581 
L 1397 1578 
Q 1509 1106 1591 641 
Q 1766 1375 1797 1488 
L 2669 4581 
L 3400 4581 
L 4056 2263 
Q 4303 1400 4413 641 
Q 4500 1075 4641 1638 
L 5359 4581 
L 5969 4581 
L 4713 0 
L 4128 0 
L 3163 3491 
Q 3041 3928 3019 4028 
Q 2947 3713 2884 3491 
L 1913 0 
L 1294 0 
z
" id="ArialMT-57" transform="scale(0.015625)"/>
       <path d="M 425 0 
L 425 4581 
L 988 4581 
L 988 1969 
L 2319 3319 
L 3047 3319 
L 1778 2088 
L 3175 0 
L 2481 0 
L 1384 1697 
L 988 1316 
L 988 0 
L 425 0 
z
" id="ArialMT-6b" transform="scale(0.015625)"/>
      </defs>
      <use xlink:href="#ArialMT-54"/>
      <use x="55.583984" xlink:href="#ArialMT-79"/>
      <use x="105.583984" xlink:href="#ArialMT-70"/>
      <use x="161.199219" xlink:href="#ArialMT-65"/>
      <use x="216.814453" xlink:href="#ArialMT-20"/>
      <use x="244.597656" xlink:href="#ArialMT-6f"/>
      <use x="300.212891" xlink:href="#ArialMT-66"/>
      <use x="327.996094" xlink:href="#ArialMT-20"/>
      <use x="355.779297" xlink:href="#ArialMT-57"/>
      <use x="448.414062" xlink:href="#ArialMT-6f"/>
      <use x="504.029297" xlink:href="#ArialMT-72"/>
      <use x="537.330078" xlink:href="#ArialMT-6b"/>
     </g>
    </g>
   </g>
   <g id="matplotlib.axis_2">
    <g id="ytick_1">
     <g id="line2d_1">
      <path clip-path="url(#p88f468d9d7)" d="M 108 321.663273 
L 777.6 321.663273 
" style="fill:none;stroke:#ffffff;stroke-linecap:round;"/>
     </g>
     <g id="text_8">
      <!-- 100 -->
      <g style="fill:#262626;" transform="translate(80.148906 325.60007)scale(0.11 -0.11)">
       <defs>
        <path d="M 2384 0 
L 1822 0 
L 1822 3584 
Q 1619 3391 1289 3197 
Q 959 3003 697 2906 
L 697 3450 
Q 1169 3672 1522 3987 
Q 1875 4303 2022 4600 
L 2384 4600 
L 2384 0 
z
" id="ArialMT-31" transform="scale(0.015625)"/>
        <path d="M 266 2259 
Q 266 3072 433 3567 
Q 600 4063 929 4331 
Q 1259 4600 1759 4600 
Q 2128 4600 2406 4451 
Q 2684 4303 2865 4023 
Q 3047 3744 3150 3342 
Q 3253 2941 3253 2259 
Q 3253 1453 3087 958 
Q 2922 463 2592 192 
Q 2263 -78 1759 -78 
Q 1097 -78 719 397 
Q 266 969 266 2259 
z
M 844 2259 
Q 844 1131 1108 757 
Q 1372 384 1759 384 
Q 2147 384 2411 759 
Q 2675 1134 2675 2259 
Q 2675 3391 2411 3762 
Q 2147 4134 1753 4134 
Q 1366 4134 1134 3806 
Q 844 3388 844 2259 
z
" id="ArialMT-30" transform="scale(0.015625)"/>
       </defs>
       <use xlink:href="#ArialMT-31"/>
       <use x="55.615234" xlink:href="#ArialMT-30"/>
       <use x="111.230469" xlink:href="#ArialMT-30"/>
      </g>
     </g>
    </g>
    <g id="ytick_2">
     <g id="line2d_2">
      <path clip-path="url(#p88f468d9d7)" d="M 108 262.361455 
L 777.6 262.361455 
" style="fill:none;stroke:#ffffff;stroke-linecap:round;"/>
     </g>
     <g id="text_9">
      <!-- 150 -->
      <g style="fill:#262626;" transform="translate(80.148906 266.298251)scale(0.11 -0.11)">
       <defs>
        <path d="M 266 1200 
L 856 1250 
Q 922 819 1161 601 
Q 1400 384 1738 384 
Q 2144 384 2425 690 
Q 2706 997 2706 1503 
Q 2706 1984 2436 2262 
Q 2166 2541 1728 2541 
Q 1456 2541 1237 2417 
Q 1019 2294 894 2097 
L 366 2166 
L 809 4519 
L 3088 4519 
L 3088 3981 
L 1259 3981 
L 1013 2750 
Q 1425 3038 1878 3038 
Q 2478 3038 2890 2622 
Q 3303 2206 3303 1553 
Q 3303 931 2941 478 
Q 2500 -78 1738 -78 
Q 1113 -78 717 272 
Q 322 622 266 1200 
z
" id="ArialMT-35" transform="scale(0.015625)"/>
       </defs>
       <use xlink:href="#ArialMT-31"/>
       <use x="55.615234" xlink:href="#ArialMT-35"/>
       <use x="111.230469" xlink:href="#ArialMT-30"/>
      </g>
     </g>
    </g>
    <g id="ytick_3">
     <g id="line2d_3">
      <path clip-path="url(#p88f468d9d7)" d="M 108 203.059636 
L 777.6 203.059636 
" style="fill:none;stroke:#ffffff;stroke-linecap:round;"/>
     </g>
     <g id="text_10">
      <!-- 200 -->
      <g style="fill:#262626;" transform="translate(80.148906 206.996433)scale(0.11 -0.11)">
       <defs>
        <path d="M 3222 541 
L 3222 0 
L 194 0 
Q 188 203 259 391 
Q 375 700 629 1000 
Q 884 1300 1366 1694 
Q 2113 2306 2375 2664 
Q 2638 3022 2638 3341 
Q 2638 3675 2398 3904 
Q 2159 4134 1775 4134 
Q 1369 4134 1125 3890 
Q 881 3647 878 3216 
L 300 3275 
Q 359 3922 746 4261 
Q 1134 4600 1788 4600 
Q 2447 4600 2831 4234 
Q 3216 3869 3216 3328 
Q 3216 3053 3103 2787 
Q 2991 2522 2730 2228 
Q 2469 1934 1863 1422 
Q 1356 997 1212 845 
Q 1069 694 975 541 
L 3222 541 
z
" id="ArialMT-32" transform="scale(0.015625)"/>
       </defs>
       <use xlink:href="#ArialMT-32"/>
       <use x="55.615234" xlink:href="#ArialMT-30"/>
       <use x="111.230469" xlink:href="#ArialMT-30"/>
      </g>
     </g>
    </g>
    <g id="ytick_4">
     <g id="line2d_4">
      <path clip-path="url(#p88f468d9d7)" d="M 108 143.757818 
L 777.6 143.757818 
" style="fill:none;stroke:#ffffff;stroke-linecap:round;"/>
     </g>
     <g id="text_11">
      <!-- 250 -->
      <g style="fill:#262626;" transform="translate(80.148906 147.694615)scale(0.11 -0.11)">
       <use xlink:href="#ArialMT-32"/>
       <use x="55.615234" xlink:href="#ArialMT-35"/>
       <use x="111.230469" xlink:href="#ArialMT-30"/>
      </g>
     </g>
    </g>
    <g id="ytick_5">
     <g id="line2d_5">
      <path clip-path="url(#p88f468d9d7)" d="M 108 84.456 
L 777.6 84.456 
" style="fill:none;stroke:#ffffff;stroke-linecap:round;"/>
     </g>
     <g id="text_12">
      <!-- 300 -->
      <g style="fill:#262626;" transform="translate(80.148906 88.392797)scale(0.11 -0.11)">
       <defs>
        <path d="M 269 1209 
L 831 1284 
Q 928 806 1161 595 
Q 1394 384 1728 384 
Q 2125 384 2398 659 
Q 2672 934 2672 1341 
Q 2672 1728 2419 1979 
Q 2166 2231 1775 2231 
Q 1616 2231 1378 2169 
L 1441 2663 
Q 1497 2656 1531 2656 
Q 1891 2656 2178 2843 
Q 2466 3031 2466 3422 
Q 2466 3731 2256 3934 
Q 2047 4138 1716 4138 
Q 1388 4138 1169 3931 
Q 950 3725 888 3313 
L 325 3413 
Q 428 3978 793 4289 
Q 1159 4600 1703 4600 
Q 2078 4600 2393 4439 
Q 2709 4278 2876 4000 
Q 3044 3722 3044 3409 
Q 3044 3113 2884 2869 
Q 2725 2625 2413 2481 
Q 2819 2388 3044 2092 
Q 3269 1797 3269 1353 
Q 3269 753 2831 336 
Q 2394 -81 1725 -81 
Q 1122 -81 723 278 
Q 325 638 269 1209 
z
" id="ArialMT-33" transform="scale(0.015625)"/>
       </defs>
       <use xlink:href="#ArialMT-33"/>
       <use x="55.615234" xlink:href="#ArialMT-30"/>
       <use x="111.230469" xlink:href="#ArialMT-30"/>
      </g>
     </g>
    </g>
    <g id="text_13">
     <!-- Annual income (thousands) -->
     <g style="fill:#262626;" transform="translate(73.623281 287.957812)rotate(-90)scale(0.12 -0.12)">
      <defs>
       <path d="M 2588 1216 
L 3141 1144 
Q 3050 572 2676 248 
Q 2303 -75 1759 -75 
Q 1078 -75 664 370 
Q 250 816 250 1647 
Q 250 2184 428 2587 
Q 606 2991 970 3192 
Q 1334 3394 1763 3394 
Q 2303 3394 2647 3120 
Q 2991 2847 3088 2344 
L 2541 2259 
Q 2463 2594 2264 2762 
Q 2066 2931 1784 2931 
Q 1359 2931 1093 2626 
Q 828 2322 828 1663 
Q 828 994 1084 691 
Q 1341 388 1753 388 
Q 2084 388 2306 591 
Q 2528 794 2588 1216 
z
" id="ArialMT-63" transform="scale(0.015625)"/>
       <path d="M 1497 -1347 
Q 1031 -759 709 28 
Q 388 816 388 1659 
Q 388 2403 628 3084 
Q 909 3875 1497 4659 
L 1900 4659 
Q 1522 4009 1400 3731 
Q 1209 3300 1100 2831 
Q 966 2247 966 1656 
Q 966 153 1900 -1347 
L 1497 -1347 
z
" id="ArialMT-28" transform="scale(0.015625)"/>
       <path d="M 2575 0 
L 2575 419 
Q 2259 -75 1647 -75 
Q 1250 -75 917 144 
Q 584 363 401 755 
Q 219 1147 219 1656 
Q 219 2153 384 2558 
Q 550 2963 881 3178 
Q 1213 3394 1622 3394 
Q 1922 3394 2156 3267 
Q 2391 3141 2538 2938 
L 2538 4581 
L 3097 4581 
L 3097 0 
L 2575 0 
z
M 797 1656 
Q 797 1019 1065 703 
Q 1334 388 1700 388 
Q 2069 388 2326 689 
Q 2584 991 2584 1609 
Q 2584 2291 2321 2609 
Q 2059 2928 1675 2928 
Q 1300 2928 1048 2622 
Q 797 2316 797 1656 
z
" id="ArialMT-64" transform="scale(0.015625)"/>
       <path d="M 791 -1347 
L 388 -1347 
Q 1322 153 1322 1656 
Q 1322 2244 1188 2822 
Q 1081 3291 891 3722 
Q 769 4003 388 4659 
L 791 4659 
Q 1378 3875 1659 3084 
Q 1900 2403 1900 1659 
Q 1900 816 1576 28 
Q 1253 -759 791 -1347 
z
" id="ArialMT-29" transform="scale(0.015625)"/>
      </defs>
      <use xlink:href="#ArialMT-41"/>
      <use x="66.699219" xlink:href="#ArialMT-6e"/>
      <use x="122.314453" xlink:href="#ArialMT-6e"/>
      <use x="177.929688" xlink:href="#ArialMT-75"/>
      <use x="233.544922" xlink:href="#ArialMT-61"/>
      <use x="289.160156" xlink:href="#ArialMT-6c"/>
      <use x="311.376953" xlink:href="#ArialMT-20"/>
      <use x="339.160156" xlink:href="#ArialMT-69"/>
      <use x="361.376953" xlink:href="#ArialMT-6e"/>
      <use x="416.992188" xlink:href="#ArialMT-63"/>
      <use x="466.992188" xlink:href="#ArialMT-6f"/>
      <use x="522.607422" xlink:href="#ArialMT-6d"/>
      <use x="605.908203" xlink:href="#ArialMT-65"/>
      <use x="661.523438" xlink:href="#ArialMT-20"/>
      <use x="689.306641" xlink:href="#ArialMT-28"/>
      <use x="722.607422" xlink:href="#ArialMT-74"/>
      <use x="750.390625" xlink:href="#ArialMT-68"/>
      <use x="806.005859" xlink:href="#ArialMT-6f"/>
      <use x="861.621094" xlink:href="#ArialMT-75"/>
      <use x="917.236328" xlink:href="#ArialMT-73"/>
      <use x="967.236328" xlink:href="#ArialMT-61"/>
      <use x="1022.851562" xlink:href="#ArialMT-6e"/>
      <use x="1078.466797" xlink:href="#ArialMT-64"/>
      <use x="1134.082031" xlink:href="#ArialMT-73"/>
      <use x="1184.082031" xlink:href="#ArialMT-29"/>
     </g>
    </g>
   </g>
   <g id="PolyCollection_1">
    <defs>
     <path d="M 166.72925 -110.336727 
L 160.87075 -110.336727 
L 160.7378 -111.307121 
L 160.602232 -112.277514 
L 160.464127 -113.247907 
L 160.323603 -114.218301 
L 160.180822 -115.188694 
L 160.035996 -116.159088 
L 159.889397 -117.129481 
L 159.741361 -118.099874 
L 159.592295 -119.070268 
L 159.442679 -120.040661 
L 159.293069 -121.011055 
L 159.144096 -121.981448 
L 158.996471 -122.951841 
L 158.850973 -123.922235 
L 158.708452 -124.892628 
L 158.569815 -125.863021 
L 158.436025 -126.833415 
L 158.308081 -127.803808 
L 158.187014 -128.774202 
L 158.073867 -129.744595 
L 157.969685 -130.714988 
L 157.875493 -131.685382 
L 157.792287 -132.655775 
L 157.72101 -133.626169 
L 157.662542 -134.596562 
L 157.617679 -135.566955 
L 157.587122 -136.537349 
L 157.571461 -137.507742 
L 157.571163 -138.478136 
L 157.586563 -139.448529 
L 157.617855 -140.418922 
L 157.665088 -141.389316 
L 157.728159 -142.359709 
L 157.806816 -143.330102 
L 157.900656 -144.300496 
L 158.009132 -145.270889 
L 158.13156 -146.241283 
L 158.267125 -147.211676 
L 158.414891 -148.182069 
L 158.573818 -149.152463 
L 158.742774 -150.122856 
L 158.920547 -151.09325 
L 159.105865 -152.063643 
L 159.297412 -153.034036 
L 159.493843 -154.00443 
L 159.693802 -154.974823 
L 159.895938 -155.945217 
L 160.09892 -156.91561 
L 160.301451 -157.886003 
L 160.502284 -158.856397 
L 160.700231 -159.82679 
L 160.894172 -160.797183 
L 161.083069 -161.767577 
L 161.265967 -162.73797 
L 161.442005 -163.708364 
L 161.610414 -164.678757 
L 161.770523 -165.64915 
L 161.921757 -166.619544 
L 162.06364 -167.589937 
L 162.195787 -168.560331 
L 162.317909 -169.530724 
L 162.4298 -170.501117 
L 162.53134 -171.471511 
L 162.622488 -172.441904 
L 162.703273 -173.412298 
L 162.773795 -174.382691 
L 162.834216 -175.353084 
L 162.884754 -176.323478 
L 162.925681 -177.293871 
L 162.957318 -178.264264 
L 162.980026 -179.234658 
L 162.994211 -180.205051 
L 163.000314 -181.175445 
L 162.998807 -182.145838 
L 162.990197 -183.116231 
L 162.975017 -184.086625 
L 162.953826 -185.057018 
L 162.927207 -186.027412 
L 162.895763 -186.997805 
L 162.860117 -187.968198 
L 162.820907 -188.938592 
L 162.778782 -189.908985 
L 162.734402 -190.879379 
L 162.688431 -191.849772 
L 162.641535 -192.820165 
L 162.594375 -193.790559 
L 162.547603 -194.760952 
L 162.501858 -195.731345 
L 162.457758 -196.701739 
L 162.415895 -197.672132 
L 162.37683 -198.642526 
L 162.341084 -199.612919 
L 162.309139 -200.583312 
L 162.281424 -201.553706 
L 162.258316 -202.524099 
L 162.240136 -203.494493 
L 162.22714 -204.464886 
L 162.219523 -205.435279 
L 162.217412 -206.405673 
L 165.382588 -206.405673 
L 165.382588 -206.405673 
L 165.380477 -205.435279 
L 165.37286 -204.464886 
L 165.359864 -203.494493 
L 165.341684 -202.524099 
L 165.318576 -201.553706 
L 165.290861 -200.583312 
L 165.258916 -199.612919 
L 165.22317 -198.642526 
L 165.184105 -197.672132 
L 165.142242 -196.701739 
L 165.098142 -195.731345 
L 165.052397 -194.760952 
L 165.005625 -193.790559 
L 164.958465 -192.820165 
L 164.911569 -191.849772 
L 164.865598 -190.879379 
L 164.821218 -189.908985 
L 164.779093 -188.938592 
L 164.739883 -187.968198 
L 164.704237 -186.997805 
L 164.672793 -186.027412 
L 164.646174 -185.057018 
L 164.624983 -184.086625 
L 164.609803 -183.116231 
L 164.601193 -182.145838 
L 164.599686 -181.175445 
L 164.605789 -180.205051 
L 164.619974 -179.234658 
L 164.642682 -178.264264 
L 164.674319 -177.293871 
L 164.715246 -176.323478 
L 164.765784 -175.353084 
L 164.826205 -174.382691 
L 164.896727 -173.412298 
L 164.977512 -172.441904 
L 165.06866 -171.471511 
L 165.1702 -170.501117 
L 165.282091 -169.530724 
L 165.404213 -168.560331 
L 165.53636 -167.589937 
L 165.678243 -166.619544 
L 165.829477 -165.64915 
L 165.989586 -164.678757 
L 166.157995 -163.708364 
L 166.334033 -162.73797 
L 166.516931 -161.767577 
L 166.705828 -160.797183 
L 166.899769 -159.82679 
L 167.097716 -158.856397 
L 167.298549 -157.886003 
L 167.50108 -156.91561 
L 167.704062 -155.945217 
L 167.906198 -154.974823 
L 168.106157 -154.00443 
L 168.302588 -153.034036 
L 168.494135 -152.063643 
L 168.679453 -151.09325 
L 168.857226 -150.122856 
L 169.026182 -149.152463 
L 169.185109 -148.182069 
L 169.332875 -147.211676 
L 169.46844 -146.241283 
L 169.590868 -145.270889 
L 169.699344 -144.300496 
L 169.793184 -143.330102 
L 169.871841 -142.359709 
L 169.934912 -141.389316 
L 169.982145 -140.418922 
L 170.013437 -139.448529 
L 170.028837 -138.478136 
L 170.028539 -137.507742 
L 170.012878 -136.537349 
L 169.982321 -135.566955 
L 169.937458 -134.596562 
L 169.87899 -133.626169 
L 169.807713 -132.655775 
L 169.724507 -131.685382 
L 169.630315 -130.714988 
L 169.526133 -129.744595 
L 169.412986 -128.774202 
L 169.291919 -127.803808 
L 169.163975 -126.833415 
L 169.030185 -125.863021 
L 168.891548 -124.892628 
L 168.749027 -123.922235 
L 168.603529 -122.951841 
L 168.455904 -121.981448 
L 168.306931 -121.011055 
L 168.157321 -120.040661 
L 168.007705 -119.070268 
L 167.858639 -118.099874 
L 167.710603 -117.129481 
L 167.564004 -116.159088 
L 167.419178 -115.188694 
L 167.276397 -114.218301 
L 167.135873 -113.247907 
L 166.997768 -112.277514 
L 166.8622 -111.307121 
L 166.72925 -110.336727 
z
" id="m1048800992" style="stroke:#494949;stroke-width:1.5;"/>
    </defs>
    <g clip-path="url(#p88f468d9d7)">
     <use style="fill:#5875a4;stroke:#494949;stroke-width:1.5;" x="0" xlink:href="#m1048800992" y="432"/>
    </g>
   </g>
   <g id="PolyCollection_2">
    <defs>
     <path d="M 278.140738 -68.825455 
L 272.659262 -68.825455 
L 272.617782 -69.005157 
L 272.578472 -69.18486 
L 272.541406 -69.364562 
L 272.506654 -69.544264 
L 272.474278 -69.723967 
L 272.444333 -69.903669 
L 272.41687 -70.083372 
L 272.391934 -70.263074 
L 272.369563 -70.442777 
L 272.349789 -70.622479 
L 272.332638 -70.802182 
L 272.318132 -70.981884 
L 272.306285 -71.161587 
L 272.297106 -71.341289 
L 272.290598 -71.520992 
L 272.28676 -71.700694 
L 272.285581 -71.880397 
L 272.287049 -72.060099 
L 272.291143 -72.239802 
L 272.297836 -72.419504 
L 272.307096 -72.599207 
L 272.318885 -72.778909 
L 272.333156 -72.958612 
L 272.34986 -73.138314 
L 272.368937 -73.318017 
L 272.390323 -73.497719 
L 272.413946 -73.677421 
L 272.439726 -73.857124 
L 272.467578 -74.036826 
L 272.497409 -74.216529 
L 272.529118 -74.396231 
L 272.562598 -74.575934 
L 272.597733 -74.755636 
L 272.634404 -74.935339 
L 272.67248 -75.115041 
L 272.711826 -75.294744 
L 272.752302 -75.474446 
L 272.793759 -75.654149 
L 272.836044 -75.833851 
L 272.878999 -76.013554 
L 272.922462 -76.193256 
L 272.966265 -76.372959 
L 273.010238 -76.552661 
L 273.05421 -76.732364 
L 273.098005 -76.912066 
L 273.141451 -77.091769 
L 273.184372 -77.271471 
L 273.226596 -77.451174 
L 273.267951 -77.630876 
L 273.30827 -77.810579 
L 273.34739 -77.990281 
L 273.385153 -78.169983 
L 273.421409 -78.349686 
L 273.456013 -78.529388 
L 273.488832 -78.709091 
L 273.51974 -78.888793 
L 273.548623 -79.068496 
L 273.575379 -79.248198 
L 273.599917 -79.427901 
L 273.622161 -79.607603 
L 273.642048 -79.787306 
L 273.65953 -79.967008 
L 273.674575 -80.146711 
L 273.687165 -80.326413 
L 273.697299 -80.506116 
L 273.704992 -80.685818 
L 273.710275 -80.865521 
L 273.713197 -81.045223 
L 273.713819 -81.224926 
L 273.712222 -81.404628 
L 273.7085 -81.584331 
L 273.702763 -81.764033 
L 273.695132 -81.943736 
L 273.685746 -82.123438 
L 273.674754 -82.30314 
L 273.662315 -82.482843 
L 273.648602 -82.662545 
L 273.633793 -82.842248 
L 273.618078 -83.02195 
L 273.60165 -83.201653 
L 273.584709 -83.381355 
L 273.56746 -83.561058 
L 273.550107 -83.74076 
L 273.532859 -83.920463 
L 273.51592 -84.100165 
L 273.499495 -84.279868 
L 273.483784 -84.45957 
L 273.468982 -84.639273 
L 273.455279 -84.818975 
L 273.442855 -84.998678 
L 273.431883 -85.17838 
L 273.422524 -85.358083 
L 273.41493 -85.537785 
L 273.409237 -85.717488 
L 273.405572 -85.89719 
L 273.404045 -86.076893 
L 273.404754 -86.256595 
L 273.407778 -86.436298 
L 273.413185 -86.616 
L 277.386815 -86.616 
L 277.386815 -86.616 
L 277.392222 -86.436298 
L 277.395246 -86.256595 
L 277.395955 -86.076893 
L 277.394428 -85.89719 
L 277.390763 -85.717488 
L 277.38507 -85.537785 
L 277.377476 -85.358083 
L 277.368117 -85.17838 
L 277.357145 -84.998678 
L 277.344721 -84.818975 
L 277.331018 -84.639273 
L 277.316216 -84.45957 
L 277.300505 -84.279868 
L 277.28408 -84.100165 
L 277.267141 -83.920463 
L 277.249893 -83.74076 
L 277.23254 -83.561058 
L 277.215291 -83.381355 
L 277.19835 -83.201653 
L 277.181922 -83.02195 
L 277.166207 -82.842248 
L 277.151398 -82.662545 
L 277.137685 -82.482843 
L 277.125246 -82.30314 
L 277.114254 -82.123438 
L 277.104868 -81.943736 
L 277.097237 -81.764033 
L 277.0915 -81.584331 
L 277.087778 -81.404628 
L 277.086181 -81.224926 
L 277.086803 -81.045223 
L 277.089725 -80.865521 
L 277.095008 -80.685818 
L 277.102701 -80.506116 
L 277.112835 -80.326413 
L 277.125425 -80.146711 
L 277.14047 -79.967008 
L 277.157952 -79.787306 
L 277.177839 -79.607603 
L 277.200083 -79.427901 
L 277.224621 -79.248198 
L 277.251377 -79.068496 
L 277.28026 -78.888793 
L 277.311168 -78.709091 
L 277.343987 -78.529388 
L 277.378591 -78.349686 
L 277.414847 -78.169983 
L 277.45261 -77.990281 
L 277.49173 -77.810579 
L 277.532049 -77.630876 
L 277.573404 -77.451174 
L 277.615628 -77.271471 
L 277.658549 -77.091769 
L 277.701995 -76.912066 
L 277.74579 -76.732364 
L 277.789762 -76.552661 
L 277.833735 -76.372959 
L 277.877538 -76.193256 
L 277.921001 -76.013554 
L 277.963956 -75.833851 
L 278.006241 -75.654149 
L 278.047698 -75.474446 
L 278.088174 -75.294744 
L 278.12752 -75.115041 
L 278.165596 -74.935339 
L 278.202267 -74.755636 
L 278.237402 -74.575934 
L 278.270882 -74.396231 
L 278.302591 -74.216529 
L 278.332422 -74.036826 
L 278.360274 -73.857124 
L 278.386054 -73.677421 
L 278.409677 -73.497719 
L 278.431063 -73.318017 
L 278.45014 -73.138314 
L 278.466844 -72.958612 
L 278.481115 -72.778909 
L 278.492904 -72.599207 
L 278.502164 -72.419504 
L 278.508857 -72.239802 
L 278.512951 -72.060099 
L 278.514419 -71.880397 
L 278.51324 -71.700694 
L 278.509402 -71.520992 
L 278.502894 -71.341289 
L 278.493715 -71.161587 
L 278.481868 -70.981884 
L 278.467362 -70.802182 
L 278.450211 -70.622479 
L 278.430437 -70.442777 
L 278.408066 -70.263074 
L 278.38313 -70.083372 
L 278.355667 -69.903669 
L 278.325722 -69.723967 
L 278.293346 -69.544264 
L 278.258594 -69.364562 
L 278.221528 -69.18486 
L 278.182218 -69.005157 
L 278.140738 -68.825455 
z
" id="me00e25646f" style="stroke:#494949;stroke-width:1.5;"/>
    </defs>
    <g clip-path="url(#p88f468d9d7)">
     <use style="fill:#cc8963;stroke:#494949;stroke-width:1.5;" x="0" xlink:href="#me00e25646f" y="432"/>
    </g>
   </g>
   <g id="PolyCollection_3">
    <defs>
     <path d="M 392.232505 -139.987636 
L 381.767495 -139.987636 
L 381.644237 -140.94605 
L 381.528163 -141.904463 
L 381.419661 -142.862876 
L 381.319067 -143.821289 
L 381.226659 -144.779702 
L 381.142659 -145.738116 
L 381.067229 -146.696529 
L 381.00047 -147.654942 
L 380.942422 -148.613355 
L 380.893066 -149.571769 
L 380.852325 -150.530182 
L 380.820061 -151.488595 
L 380.796082 -152.447008 
L 380.780145 -153.405421 
L 380.771953 -154.363835 
L 380.771163 -155.322248 
L 380.777388 -156.280661 
L 380.790202 -157.239074 
L 380.809139 -158.197488 
L 380.833705 -159.155901 
L 380.863373 -160.114314 
L 380.897596 -161.072727 
L 380.935805 -162.03114 
L 380.977414 -162.989554 
L 381.021827 -163.947967 
L 381.068443 -164.90638 
L 381.116656 -165.864793 
L 381.165863 -166.823207 
L 381.215467 -167.78162 
L 381.264882 -168.740033 
L 381.313537 -169.698446 
L 381.360882 -170.65686 
L 381.406389 -171.615273 
L 381.449561 -172.573686 
L 381.489931 -173.532099 
L 381.527071 -174.490512 
L 381.560592 -175.448926 
L 381.59015 -176.407339 
L 381.615449 -177.365752 
L 381.636244 -178.324165 
L 381.652343 -179.282579 
L 381.663611 -180.240992 
L 381.66997 -181.199405 
L 381.6714 -182.157818 
L 381.667942 -183.116231 
L 381.659696 -184.074645 
L 381.646819 -185.033058 
L 381.629527 -185.991471 
L 381.608089 -186.949884 
L 381.582827 -187.908298 
L 381.554111 -188.866711 
L 381.522354 -189.825124 
L 381.488008 -190.783537 
L 381.451559 -191.74195 
L 381.413519 -192.700364 
L 381.374421 -193.658777 
L 381.334813 -194.61719 
L 381.29525 -195.575603 
L 381.256286 -196.534017 
L 381.218472 -197.49243 
L 381.182343 -198.450843 
L 381.148415 -199.409256 
L 381.117181 -200.367669 
L 381.089101 -201.326083 
L 381.064602 -202.284496 
L 381.044071 -203.242909 
L 381.027852 -204.201322 
L 381.016246 -205.159736 
L 381.009506 -206.118149 
L 381.00784 -207.076562 
L 381.011408 -208.034975 
L 381.020324 -208.993388 
L 381.034659 -209.951802 
L 381.05444 -210.910215 
L 381.079658 -211.868628 
L 381.110267 -212.827041 
L 381.146189 -213.785455 
L 381.18732 -214.743868 
L 381.233533 -215.702281 
L 381.284679 -216.660694 
L 381.3406 -217.619107 
L 381.401122 -218.577521 
L 381.466068 -219.535934 
L 381.535256 -220.494347 
L 381.608507 -221.45276 
L 381.685639 -222.411174 
L 381.766479 -223.369587 
L 381.850859 -224.328 
L 381.938615 -225.286413 
L 382.029593 -226.244826 
L 382.123644 -227.20324 
L 382.220627 -228.161653 
L 382.320403 -229.120066 
L 382.422838 -230.078479 
L 382.527801 -231.036893 
L 382.635159 -231.995306 
L 382.744776 -232.953719 
L 382.856513 -233.912132 
L 382.970224 -234.870545 
L 391.029776 -234.870545 
L 391.029776 -234.870545 
L 391.143487 -233.912132 
L 391.255224 -232.953719 
L 391.364841 -231.995306 
L 391.472199 -231.036893 
L 391.577162 -230.078479 
L 391.679597 -229.120066 
L 391.779373 -228.161653 
L 391.876356 -227.20324 
L 391.970407 -226.244826 
L 392.061385 -225.286413 
L 392.149141 -224.328 
L 392.233521 -223.369587 
L 392.314361 -222.411174 
L 392.391493 -221.45276 
L 392.464744 -220.494347 
L 392.533932 -219.535934 
L 392.598878 -218.577521 
L 392.6594 -217.619107 
L 392.715321 -216.660694 
L 392.766467 -215.702281 
L 392.81268 -214.743868 
L 392.853811 -213.785455 
L 392.889733 -212.827041 
L 392.920342 -211.868628 
L 392.94556 -210.910215 
L 392.965341 -209.951802 
L 392.979676 -208.993388 
L 392.988592 -208.034975 
L 392.99216 -207.076562 
L 392.990494 -206.118149 
L 392.983754 -205.159736 
L 392.972148 -204.201322 
L 392.955929 -203.242909 
L 392.935398 -202.284496 
L 392.910899 -201.326083 
L 392.882819 -200.367669 
L 392.851585 -199.409256 
L 392.817657 -198.450843 
L 392.781528 -197.49243 
L 392.743714 -196.534017 
L 392.70475 -195.575603 
L 392.665187 -194.61719 
L 392.625579 -193.658777 
L 392.586481 -192.700364 
L 392.548441 -191.74195 
L 392.511992 -190.783537 
L 392.477646 -189.825124 
L 392.445889 -188.866711 
L 392.417173 -187.908298 
L 392.391911 -186.949884 
L 392.370473 -185.991471 
L 392.353181 -185.033058 
L 392.340304 -184.074645 
L 392.332058 -183.116231 
L 392.3286 -182.157818 
L 392.33003 -181.199405 
L 392.336389 -180.240992 
L 392.347657 -179.282579 
L 392.363756 -178.324165 
L 392.384551 -177.365752 
L 392.40985 -176.407339 
L 392.439408 -175.448926 
L 392.472929 -174.490512 
L 392.510069 -173.532099 
L 392.550439 -172.573686 
L 392.593611 -171.615273 
L 392.639118 -170.65686 
L 392.686463 -169.698446 
L 392.735118 -168.740033 
L 392.784533 -167.78162 
L 392.834137 -166.823207 
L 392.883344 -165.864793 
L 392.931557 -164.90638 
L 392.978173 -163.947967 
L 393.022586 -162.989554 
L 393.064195 -162.03114 
L 393.102404 -161.072727 
L 393.136627 -160.114314 
L 393.166295 -159.155901 
L 393.190861 -158.197488 
L 393.209798 -157.239074 
L 393.222612 -156.280661 
L 393.228837 -155.322248 
L 393.228047 -154.363835 
L 393.219855 -153.405421 
L 393.203918 -152.447008 
L 393.179939 -151.488595 
L 393.147675 -150.530182 
L 393.106934 -149.571769 
L 393.057578 -148.613355 
L 392.99953 -147.654942 
L 392.932771 -146.696529 
L 392.857341 -145.738116 
L 392.773341 -144.779702 
L 392.680933 -143.821289 
L 392.580339 -142.862876 
L 392.471837 -141.904463 
L 392.355763 -140.94605 
L 392.232505 -139.987636 
z
" id="m72c5cc983a" style="stroke:#494949;stroke-width:1.5;"/>
    </defs>
    <g clip-path="url(#p88f468d9d7)">
     <use style="fill:#5f9e6e;stroke:#494949;stroke-width:1.5;" x="0" xlink:href="#m72c5cc983a" y="432"/>
    </g>
   </g>
   <g id="PolyCollection_4">
    <defs>
     <path d="M 502.67458 -86.616 
L 494.52542 -86.616 
L 494.499662 -88.05362 
L 494.47911 -89.49124 
L 494.463709 -90.92886 
L 494.453375 -92.366479 
L 494.447998 -93.804099 
L 494.447442 -95.241719 
L 494.451549 -96.679339 
L 494.460142 -98.116959 
L 494.473022 -99.554579 
L 494.489976 -100.992198 
L 494.510777 -102.429818 
L 494.535187 -103.867438 
L 494.562961 -105.305058 
L 494.593846 -106.742678 
L 494.627588 -108.180298 
L 494.663931 -109.617917 
L 494.702624 -111.055537 
L 494.743416 -112.493157 
L 494.786067 -113.930777 
L 494.830344 -115.368397 
L 494.876022 -116.806017 
L 494.922891 -118.243636 
L 494.970753 -119.681256 
L 495.019423 -121.118876 
L 495.068732 -122.556496 
L 495.118525 -123.994116 
L 495.168664 -125.431736 
L 495.219023 -126.869355 
L 495.269495 -128.306975 
L 495.319983 -129.744595 
L 495.370407 -131.182215 
L 495.420697 -132.619835 
L 495.470794 -134.057455 
L 495.52065 -135.495074 
L 495.570226 -136.932694 
L 495.619488 -138.370314 
L 495.668408 -139.807934 
L 495.716962 -141.245554 
L 495.765128 -142.683174 
L 495.812884 -144.120793 
L 495.860209 -145.558413 
L 495.907077 -146.996033 
L 495.953461 -148.433653 
L 495.999328 -149.871273 
L 496.044641 -151.308893 
L 496.089356 -152.746512 
L 496.133422 -154.184132 
L 496.176781 -155.621752 
L 496.219371 -157.059372 
L 496.261118 -158.496992 
L 496.301946 -159.934612 
L 496.341771 -161.372231 
L 496.380502 -162.809851 
L 496.418048 -164.247471 
L 496.45431 -165.685091 
L 496.489189 -167.122711 
L 496.522585 -168.560331 
L 496.5544 -169.99795 
L 496.584535 -171.43557 
L 496.612896 -172.87319 
L 496.639396 -174.31081 
L 496.663952 -175.74843 
L 496.686492 -177.18605 
L 496.706952 -178.623669 
L 496.72528 -180.061289 
L 496.741437 -181.498909 
L 496.755396 -182.936529 
L 496.767148 -184.374149 
L 496.776698 -185.811769 
L 496.784066 -187.249388 
L 496.789293 -188.687008 
L 496.792433 -190.124628 
L 496.793561 -191.562248 
L 496.792767 -192.999868 
L 496.790159 -194.437488 
L 496.785861 -195.875107 
L 496.780014 -197.312727 
L 496.772773 -198.750347 
L 496.764307 -200.187967 
L 496.754798 -201.625587 
L 496.744437 -203.063207 
L 496.733427 -204.500826 
L 496.721977 -205.938446 
L 496.710302 -207.376066 
L 496.698623 -208.813686 
L 496.68716 -210.251306 
L 496.676136 -211.688926 
L 496.665768 -213.126545 
L 496.656274 -214.564165 
L 496.647862 -216.001785 
L 496.640735 -217.439405 
L 496.635083 -218.877025 
L 496.631088 -220.314645 
L 496.628917 -221.752264 
L 496.628724 -223.189884 
L 496.630645 -224.627504 
L 496.634802 -226.065124 
L 496.641297 -227.502744 
L 496.650214 -228.940364 
L 500.549786 -228.940364 
L 500.549786 -228.940364 
L 500.558703 -227.502744 
L 500.565198 -226.065124 
L 500.569355 -224.627504 
L 500.571276 -223.189884 
L 500.571083 -221.752264 
L 500.568912 -220.314645 
L 500.564917 -218.877025 
L 500.559265 -217.439405 
L 500.552138 -216.001785 
L 500.543726 -214.564165 
L 500.534232 -213.126545 
L 500.523864 -211.688926 
L 500.51284 -210.251306 
L 500.501377 -208.813686 
L 500.489698 -207.376066 
L 500.478023 -205.938446 
L 500.466573 -204.500826 
L 500.455563 -203.063207 
L 500.445202 -201.625587 
L 500.435693 -200.187967 
L 500.427227 -198.750347 
L 500.419986 -197.312727 
L 500.414139 -195.875107 
L 500.409841 -194.437488 
L 500.407233 -192.999868 
L 500.406439 -191.562248 
L 500.407567 -190.124628 
L 500.410707 -188.687008 
L 500.415934 -187.249388 
L 500.423302 -185.811769 
L 500.432852 -184.374149 
L 500.444604 -182.936529 
L 500.458563 -181.498909 
L 500.47472 -180.061289 
L 500.493048 -178.623669 
L 500.513508 -177.18605 
L 500.536048 -175.74843 
L 500.560604 -174.31081 
L 500.587104 -172.87319 
L 500.615465 -171.43557 
L 500.6456 -169.99795 
L 500.677415 -168.560331 
L 500.710811 -167.122711 
L 500.74569 -165.685091 
L 500.781952 -164.247471 
L 500.819498 -162.809851 
L 500.858229 -161.372231 
L 500.898054 -159.934612 
L 500.938882 -158.496992 
L 500.980629 -157.059372 
L 501.023219 -155.621752 
L 501.066578 -154.184132 
L 501.110644 -152.746512 
L 501.155359 -151.308893 
L 501.200672 -149.871273 
L 501.246539 -148.433653 
L 501.292923 -146.996033 
L 501.339791 -145.558413 
L 501.387116 -144.120793 
L 501.434872 -142.683174 
L 501.483038 -141.245554 
L 501.531592 -139.807934 
L 501.580512 -138.370314 
L 501.629774 -136.932694 
L 501.67935 -135.495074 
L 501.729206 -134.057455 
L 501.779303 -132.619835 
L 501.829593 -131.182215 
L 501.880017 -129.744595 
L 501.930505 -128.306975 
L 501.980977 -126.869355 
L 502.031336 -125.431736 
L 502.081475 -123.994116 
L 502.131268 -122.556496 
L 502.180577 -121.118876 
L 502.229247 -119.681256 
L 502.277109 -118.243636 
L 502.323978 -116.806017 
L 502.369656 -115.368397 
L 502.413933 -113.930777 
L 502.456584 -112.493157 
L 502.497376 -111.055537 
L 502.536069 -109.617917 
L 502.572412 -108.180298 
L 502.606154 -106.742678 
L 502.637039 -105.305058 
L 502.664813 -103.867438 
L 502.689223 -102.429818 
L 502.710024 -100.992198 
L 502.726978 -99.554579 
L 502.739858 -98.116959 
L 502.748451 -96.679339 
L 502.752558 -95.241719 
L 502.752002 -93.804099 
L 502.746625 -92.366479 
L 502.736291 -90.92886 
L 502.72089 -89.49124 
L 502.700338 -88.05362 
L 502.67458 -86.616 
z
" id="m5abc7a8e5f" style="stroke:#494949;stroke-width:1.5;"/>
    </defs>
    <g clip-path="url(#p88f468d9d7)">
     <use style="fill:#b55d60;stroke:#494949;stroke-width:1.5;" x="0" xlink:href="#m5abc7a8e5f" y="432"/>
    </g>
   </g>
   <g id="PolyCollection_5">
    <defs>
     <path d="M 622.25912 -78.313745 
L 598.14088 -78.313745 
L 596.795026 -81.212945 
L 595.368013 -84.112145 
L 593.863915 -87.011345 
L 592.288373 -89.910545 
L 590.648719 -92.809745 
L 588.954069 -95.708945 
L 587.21535 -98.608145 
L 585.445263 -101.507345 
L 583.658162 -104.406545 
L 581.869845 -107.305745 
L 580.09726 -110.204945 
L 578.358126 -113.104145 
L 576.670494 -116.003345 
L 575.052262 -118.902545 
L 573.520678 -121.801745 
L 572.091855 -124.700945 
L 570.78034 -127.600145 
L 569.598755 -130.499345 
L 568.557546 -133.398545 
L 567.664845 -136.297745 
L 566.926461 -139.196945 
L 566.345993 -142.096145 
L 565.925046 -144.995345 
L 565.663528 -147.894545 
L 565.56 -150.793745 
L 565.612038 -153.692945 
L 565.816568 -156.592145 
L 566.170154 -159.491345 
L 566.669192 -162.390545 
L 567.310014 -165.289745 
L 568.088875 -168.188945 
L 569.001844 -171.088145 
L 570.044605 -173.987345 
L 571.212195 -176.886545 
L 572.498708 -179.785745 
L 573.897007 -182.684945 
L 575.398465 -185.584145 
L 576.992773 -188.483345 
L 578.667846 -191.382545 
L 580.409821 -194.281745 
L 582.203186 -197.180945 
L 584.031 -200.080145 
L 585.875231 -202.979345 
L 587.717155 -205.878545 
L 589.537828 -208.777745 
L 591.318576 -211.676945 
L 593.041486 -214.576145 
L 594.689883 -217.475345 
L 596.248746 -220.374545 
L 597.70507 -223.273745 
L 599.048144 -226.172945 
L 600.269746 -229.072145 
L 601.364254 -231.971345 
L 602.328671 -234.870545 
L 603.162576 -237.769745 
L 603.868008 -240.668945 
L 604.449287 -243.568145 
L 604.912798 -246.467345 
L 605.266731 -249.366545 
L 605.520801 -252.265745 
L 605.685945 -255.164945 
L 605.774011 -258.064145 
L 605.797445 -260.963345 
L 605.768971 -263.862545 
L 605.701289 -266.761745 
L 605.606771 -269.660945 
L 605.497185 -272.560145 
L 605.383434 -275.459345 
L 605.275326 -278.358545 
L 605.181377 -281.257745 
L 605.108654 -284.156945 
L 605.062666 -287.056145 
L 605.047299 -289.955345 
L 605.064807 -292.854545 
L 605.115856 -295.753745 
L 605.199619 -298.652945 
L 605.313918 -301.552145 
L 605.455414 -304.451345 
L 605.619828 -307.350545 
L 605.80219 -310.249745 
L 605.997108 -313.148945 
L 606.199037 -316.048145 
L 606.40254 -318.947345 
L 606.602538 -321.846545 
L 606.794524 -324.745745 
L 606.974739 -327.644945 
L 607.140312 -330.544145 
L 607.289335 -333.443345 
L 607.4209 -336.342545 
L 607.535069 -339.241745 
L 607.63281 -342.140945 
L 607.715873 -345.040145 
L 607.786647 -347.939345 
L 607.847975 -350.838545 
L 607.902965 -353.737745 
L 607.954795 -356.636945 
L 608.006523 -359.536145 
L 608.060923 -362.435345 
L 608.12034 -365.334545 
L 612.27966 -365.334545 
L 612.27966 -365.334545 
L 612.339077 -362.435345 
L 612.393477 -359.536145 
L 612.445205 -356.636945 
L 612.497035 -353.737745 
L 612.552025 -350.838545 
L 612.613353 -347.939345 
L 612.684127 -345.040145 
L 612.76719 -342.140945 
L 612.864931 -339.241745 
L 612.9791 -336.342545 
L 613.110665 -333.443345 
L 613.259688 -330.544145 
L 613.425261 -327.644945 
L 613.605476 -324.745745 
L 613.797462 -321.846545 
L 613.99746 -318.947345 
L 614.200963 -316.048145 
L 614.402892 -313.148945 
L 614.59781 -310.249745 
L 614.780172 -307.350545 
L 614.944586 -304.451345 
L 615.086082 -301.552145 
L 615.200381 -298.652945 
L 615.284144 -295.753745 
L 615.335193 -292.854545 
L 615.352701 -289.955345 
L 615.337334 -287.056145 
L 615.291346 -284.156945 
L 615.218623 -281.257745 
L 615.124674 -278.358545 
L 615.016566 -275.459345 
L 614.902815 -272.560145 
L 614.793229 -269.660945 
L 614.698711 -266.761745 
L 614.631029 -263.862545 
L 614.602555 -260.963345 
L 614.625989 -258.064145 
L 614.714055 -255.164945 
L 614.879199 -252.265745 
L 615.133269 -249.366545 
L 615.487202 -246.467345 
L 615.950713 -243.568145 
L 616.531992 -240.668945 
L 617.237424 -237.769745 
L 618.071329 -234.870545 
L 619.035746 -231.971345 
L 620.130254 -229.072145 
L 621.351856 -226.172945 
L 622.69493 -223.273745 
L 624.151254 -220.374545 
L 625.710117 -217.475345 
L 627.358514 -214.576145 
L 629.081424 -211.676945 
L 630.862172 -208.777745 
L 632.682845 -205.878545 
L 634.524769 -202.979345 
L 636.369 -200.080145 
L 638.196814 -197.180945 
L 639.990179 -194.281745 
L 641.732154 -191.382545 
L 643.407227 -188.483345 
L 645.001535 -185.584145 
L 646.502993 -182.684945 
L 647.901292 -179.785745 
L 649.187805 -176.886545 
L 650.355395 -173.987345 
L 651.398156 -171.088145 
L 652.311125 -168.188945 
L 653.089986 -165.289745 
L 653.730808 -162.390545 
L 654.229846 -159.491345 
L 654.583432 -156.592145 
L 654.787962 -153.692945 
L 654.84 -150.793745 
L 654.736472 -147.894545 
L 654.474954 -144.995345 
L 654.054007 -142.096145 
L 653.473539 -139.196945 
L 652.735155 -136.297745 
L 651.842454 -133.398545 
L 650.801245 -130.499345 
L 649.61966 -127.600145 
L 648.308145 -124.700945 
L 646.879322 -121.801745 
L 645.347738 -118.902545 
L 643.729506 -116.003345 
L 642.041874 -113.104145 
L 640.30274 -110.204945 
L 638.530155 -107.305745 
L 636.741838 -104.406545 
L 634.954737 -101.507345 
L 633.18465 -98.608145 
L 631.445931 -95.708945 
L 629.751281 -92.809745 
L 628.111627 -89.910545 
L 626.536085 -87.011345 
L 625.031987 -84.112145 
L 623.604974 -81.212945 
L 622.25912 -78.313745 
z
" id="mde410f75d3" style="stroke:#494949;stroke-width:1.5;"/>
    </defs>
    <g clip-path="url(#p88f468d9d7)">
     <use style="fill:#857aab;stroke:#494949;stroke-width:1.5;" x="0" xlink:href="#mde410f75d3" y="432"/>
    </g>
   </g>
   <g id="PolyCollection_6">
    <defs>
     <path d="M 723.873131 -96.104291 
L 719.726869 -96.104291 
L 719.724578 -96.367855 
L 719.723721 -96.631418 
L 719.724278 -96.894982 
L 719.726227 -97.158545 
L 719.729538 -97.422109 
L 719.73418 -97.685673 
L 719.740116 -97.949236 
L 719.747305 -98.2128 
L 719.755702 -98.476364 
L 719.765258 -98.739927 
L 719.775921 -99.003491 
L 719.787634 -99.267055 
L 719.800337 -99.530618 
L 719.813968 -99.794182 
L 719.828461 -100.057745 
L 719.843748 -100.321309 
L 719.859756 -100.584873 
L 719.876413 -100.848436 
L 719.893643 -101.112 
L 719.91137 -101.375564 
L 719.929514 -101.639127 
L 719.947997 -101.902691 
L 719.966737 -102.166255 
L 719.985653 -102.429818 
L 720.004665 -102.693382 
L 720.02369 -102.956945 
L 720.042649 -103.220509 
L 720.061459 -103.484073 
L 720.080043 -103.747636 
L 720.098322 -104.0112 
L 720.116219 -104.274764 
L 720.133661 -104.538327 
L 720.150573 -104.801891 
L 720.166886 -105.065455 
L 720.182532 -105.329018 
L 720.197447 -105.592582 
L 720.211569 -105.856145 
L 720.22484 -106.119709 
L 720.237205 -106.383273 
L 720.248613 -106.646836 
L 720.259018 -106.9104 
L 720.268377 -107.173964 
L 720.276651 -107.437527 
L 720.283808 -107.701091 
L 720.289816 -107.964655 
L 720.294653 -108.228218 
L 720.298298 -108.491782 
L 720.300736 -108.755345 
L 720.301958 -109.018909 
L 720.301958 -109.282473 
L 720.300736 -109.546036 
L 720.298298 -109.8096 
L 720.294653 -110.073164 
L 720.289816 -110.336727 
L 720.283808 -110.600291 
L 720.276651 -110.863855 
L 720.268377 -111.127418 
L 720.259018 -111.390982 
L 720.248613 -111.654545 
L 720.237205 -111.918109 
L 720.22484 -112.181673 
L 720.211569 -112.445236 
L 720.197447 -112.7088 
L 720.182532 -112.972364 
L 720.166886 -113.235927 
L 720.150573 -113.499491 
L 720.133661 -113.763055 
L 720.116219 -114.026618 
L 720.098322 -114.290182 
L 720.080043 -114.553745 
L 720.061459 -114.817309 
L 720.042649 -115.080873 
L 720.02369 -115.344436 
L 720.004665 -115.608 
L 719.985653 -115.871564 
L 719.966737 -116.135127 
L 719.947997 -116.398691 
L 719.929514 -116.662255 
L 719.91137 -116.925818 
L 719.893643 -117.189382 
L 719.876413 -117.452945 
L 719.859756 -117.716509 
L 719.843748 -117.980073 
L 719.828461 -118.243636 
L 719.813968 -118.5072 
L 719.800337 -118.770764 
L 719.787634 -119.034327 
L 719.775921 -119.297891 
L 719.765258 -119.561455 
L 719.755702 -119.825018 
L 719.747305 -120.088582 
L 719.740116 -120.352145 
L 719.73418 -120.615709 
L 719.729538 -120.879273 
L 719.726227 -121.142836 
L 719.724278 -121.4064 
L 719.723721 -121.669964 
L 719.724578 -121.933527 
L 719.726869 -122.197091 
L 723.873131 -122.197091 
L 723.873131 -122.197091 
L 723.875422 -121.933527 
L 723.876279 -121.669964 
L 723.875722 -121.4064 
L 723.873773 -121.142836 
L 723.870462 -120.879273 
L 723.86582 -120.615709 
L 723.859884 -120.352145 
L 723.852695 -120.088582 
L 723.844298 -119.825018 
L 723.834742 -119.561455 
L 723.824079 -119.297891 
L 723.812366 -119.034327 
L 723.799663 -118.770764 
L 723.786032 -118.5072 
L 723.771539 -118.243636 
L 723.756252 -117.980073 
L 723.740244 -117.716509 
L 723.723587 -117.452945 
L 723.706357 -117.189382 
L 723.68863 -116.925818 
L 723.670486 -116.662255 
L 723.652003 -116.398691 
L 723.633263 -116.135127 
L 723.614347 -115.871564 
L 723.595335 -115.608 
L 723.57631 -115.344436 
L 723.557351 -115.080873 
L 723.538541 -114.817309 
L 723.519957 -114.553745 
L 723.501678 -114.290182 
L 723.483781 -114.026618 
L 723.466339 -113.763055 
L 723.449427 -113.499491 
L 723.433114 -113.235927 
L 723.417468 -112.972364 
L 723.402553 -112.7088 
L 723.388431 -112.445236 
L 723.37516 -112.181673 
L 723.362795 -111.918109 
L 723.351387 -111.654545 
L 723.340982 -111.390982 
L 723.331623 -111.127418 
L 723.323349 -110.863855 
L 723.316192 -110.600291 
L 723.310184 -110.336727 
L 723.305347 -110.073164 
L 723.301702 -109.8096 
L 723.299264 -109.546036 
L 723.298042 -109.282473 
L 723.298042 -109.018909 
L 723.299264 -108.755345 
L 723.301702 -108.491782 
L 723.305347 -108.228218 
L 723.310184 -107.964655 
L 723.316192 -107.701091 
L 723.323349 -107.437527 
L 723.331623 -107.173964 
L 723.340982 -106.9104 
L 723.351387 -106.646836 
L 723.362795 -106.383273 
L 723.37516 -106.119709 
L 723.388431 -105.856145 
L 723.402553 -105.592582 
L 723.417468 -105.329018 
L 723.433114 -105.065455 
L 723.449427 -104.801891 
L 723.466339 -104.538327 
L 723.483781 -104.274764 
L 723.501678 -104.0112 
L 723.519957 -103.747636 
L 723.538541 -103.484073 
L 723.557351 -103.220509 
L 723.57631 -102.956945 
L 723.595335 -102.693382 
L 723.614347 -102.429818 
L 723.633263 -102.166255 
L 723.652003 -101.902691 
L 723.670486 -101.639127 
L 723.68863 -101.375564 
L 723.706357 -101.112 
L 723.723587 -100.848436 
L 723.740244 -100.584873 
L 723.756252 -100.321309 
L 723.771539 -100.057745 
L 723.786032 -99.794182 
L 723.799663 -99.530618 
L 723.812366 -99.267055 
L 723.824079 -99.003491 
L 723.834742 -98.739927 
L 723.844298 -98.476364 
L 723.852695 -98.2128 
L 723.859884 -97.949236 
L 723.86582 -97.685673 
L 723.870462 -97.422109 
L 723.873773 -97.158545 
L 723.875722 -96.894982 
L 723.876279 -96.631418 
L 723.875422 -96.367855 
L 723.873131 -96.104291 
z
" id="m4b50c4c141" style="stroke:#494949;stroke-width:1.5;"/>
    </defs>
    <g clip-path="url(#p88f468d9d7)">
     <use style="fill:#8d7866;stroke:#494949;stroke-width:1.5;" x="0" xlink:href="#m4b50c4c141" y="432"/>
    </g>
   </g>
   <g id="line2d_6">
    <path clip-path="url(#p88f468d9d7)" d="M 157.7818 297.942545 
L 169.8182 297.942545 
" style="fill:none;stroke:#494949;stroke-dasharray:3.375,3.375;stroke-dashoffset:0;stroke-width:1.5;"/>
   </g>
   <g id="line2d_7">
    <path clip-path="url(#p88f468d9d7)" d="M 157.679677 292.012364 
L 169.920323 292.012364 
" style="fill:none;stroke:#494949;stroke-dasharray:6.75,6.75;stroke-dashoffset:0;stroke-width:1.5;"/>
   </g>
   <g id="line2d_8">
    <path clip-path="url(#p88f468d9d7)" d="M 158.188245 286.082182 
L 169.411755 286.082182 
" style="fill:none;stroke:#494949;stroke-dasharray:3.375,3.375;stroke-dashoffset:0;stroke-width:1.5;"/>
   </g>
   <g id="line2d_9">
    <path clip-path="url(#p88f468d9d7)" d="M 272.317892 360.209455 
L 278.482108 360.209455 
" style="fill:none;stroke:#494949;stroke-dasharray:3.375,3.375;stroke-dashoffset:0;stroke-width:1.5;"/>
   </g>
   <g id="line2d_10">
    <path clip-path="url(#p88f468d9d7)" d="M 272.625756 357.244364 
L 278.174244 357.244364 
" style="fill:none;stroke:#494949;stroke-dasharray:6.75,6.75;stroke-dashoffset:0;stroke-width:1.5;"/>
   </g>
   <g id="line2d_11">
    <path clip-path="url(#p88f468d9d7)" d="M 273.721942 351.314182 
L 277.078058 351.314182 
" style="fill:none;stroke:#494949;stroke-dasharray:3.375,3.375;stroke-dashoffset:0;stroke-width:1.5;"/>
   </g>
   <g id="line2d_12">
    <path clip-path="url(#p88f468d9d7)" d="M 380.839614 275.407855 
L 393.160386 275.407855 
" style="fill:none;stroke:#494949;stroke-dasharray:3.375,3.375;stroke-dashoffset:0;stroke-width:1.5;"/>
   </g>
   <g id="line2d_13">
    <path clip-path="url(#p88f468d9d7)" d="M 381.700351 246.942982 
L 392.299649 246.942982 
" style="fill:none;stroke:#494949;stroke-dasharray:6.75,6.75;stroke-dashoffset:0;stroke-width:1.5;"/>
   </g>
   <g id="line2d_14">
    <path clip-path="url(#p88f468d9d7)" d="M 381.071294 223.815273 
L 392.928706 223.815273 
" style="fill:none;stroke:#494949;stroke-dasharray:3.375,3.375;stroke-dashoffset:0;stroke-width:1.5;"/>
   </g>
   <g id="line2d_15">
    <path clip-path="url(#p88f468d9d7)" d="M 494.566166 345.384 
L 502.633834 345.384 
" style="fill:none;stroke:#494949;stroke-dasharray:3.375,3.375;stroke-dashoffset:0;stroke-width:1.5;"/>
   </g>
   <g id="line2d_16">
    <path clip-path="url(#p88f468d9d7)" d="M 494.913262 315.140073 
L 502.286738 315.140073 
" style="fill:none;stroke:#494949;stroke-dasharray:6.75,6.75;stroke-dashoffset:0;stroke-width:1.5;"/>
   </g>
   <g id="line2d_17">
    <path clip-path="url(#p88f468d9d7)" d="M 496.510297 264.437018 
L 500.689703 264.437018 
" style="fill:none;stroke:#494949;stroke-dasharray:3.375,3.375;stroke-dashoffset:0;stroke-width:1.5;"/>
   </g>
   <g id="line2d_18">
    <path clip-path="url(#p88f468d9d7)" d="M 570.004768 302.093673 
L 650.395232 302.093673 
" style="fill:none;stroke:#494949;stroke-dasharray:3.375,3.375;stroke-dashoffset:0;stroke-width:1.5;"/>
   </g>
   <g id="line2d_19">
    <path clip-path="url(#p88f468d9d7)" d="M 566.0064 280.152 
L 654.3936 280.152 
" style="fill:none;stroke:#494949;stroke-dasharray:6.75,6.75;stroke-dashoffset:0;stroke-width:1.5;"/>
   </g>
   <g id="line2d_20">
    <path clip-path="url(#p88f468d9d7)" d="M 574.260037 249.315055 
L 646.139963 249.315055 
" style="fill:none;stroke:#494949;stroke-dasharray:3.375,3.375;stroke-dashoffset:0;stroke-width:1.5;"/>
   </g>
   <g id="line2d_21">
    <path clip-path="url(#p88f468d9d7)" d="M 720.022618 329.372509 
L 723.577382 329.372509 
" style="fill:none;stroke:#494949;stroke-dasharray:3.375,3.375;stroke-dashoffset:0;stroke-width:1.5;"/>
   </g>
   <g id="line2d_22">
    <path clip-path="url(#p88f468d9d7)" d="M 720.316938 322.849309 
L 723.283062 322.849309 
" style="fill:none;stroke:#494949;stroke-dasharray:6.75,6.75;stroke-dashoffset:0;stroke-width:1.5;"/>
   </g>
   <g id="line2d_23">
    <path clip-path="url(#p88f468d9d7)" d="M 720.022618 316.326109 
L 723.577382 316.326109 
" style="fill:none;stroke:#494949;stroke-dasharray:3.375,3.375;stroke-dashoffset:0;stroke-width:1.5;"/>
   </g>
   <g id="patch_3">
    <path d="M 108 378 
L 108 51.84 
" style="fill:none;stroke:#ffffff;stroke-linecap:square;stroke-linejoin:miter;stroke-width:1.25;"/>
   </g>
   <g id="patch_4">
    <path d="M 777.6 378 
L 777.6 51.84 
" style="fill:none;stroke:#ffffff;stroke-linecap:square;stroke-linejoin:miter;stroke-width:1.25;"/>
   </g>
   <g id="patch_5">
    <path d="M 108 378 
L 777.6 378 
" style="fill:none;stroke:#ffffff;stroke-linecap:square;stroke-linejoin:miter;stroke-width:1.25;"/>
   </g>
   <g id="patch_6">
    <path d="M 108 51.84 
L 777.6 51.84 
" style="fill:none;stroke:#ffffff;stroke-linecap:square;stroke-linejoin:miter;stroke-width:1.25;"/>
   </g>
   <g id="text_14">
    <!-- Compensation by Type of Work -->
    <g style="fill:#262626;" transform="translate(359.31 45.84)scale(0.12 -0.12)">
     <defs>
      <path d="M 3763 1606 
L 4369 1453 
Q 4178 706 3683 314 
Q 3188 -78 2472 -78 
Q 1731 -78 1267 223 
Q 803 525 561 1097 
Q 319 1669 319 2325 
Q 319 3041 592 3573 
Q 866 4106 1370 4382 
Q 1875 4659 2481 4659 
Q 3169 4659 3637 4309 
Q 4106 3959 4291 3325 
L 3694 3184 
Q 3534 3684 3231 3912 
Q 2928 4141 2469 4141 
Q 1941 4141 1586 3887 
Q 1231 3634 1087 3207 
Q 944 2781 944 2328 
Q 944 1744 1114 1308 
Q 1284 872 1643 656 
Q 2003 441 2422 441 
Q 2931 441 3284 734 
Q 3638 1028 3763 1606 
z
" id="ArialMT-43" transform="scale(0.015625)"/>
      <path d="M 941 0 
L 419 0 
L 419 4581 
L 981 4581 
L 981 2947 
Q 1338 3394 1891 3394 
Q 2197 3394 2470 3270 
Q 2744 3147 2920 2923 
Q 3097 2700 3197 2384 
Q 3297 2069 3297 1709 
Q 3297 856 2875 390 
Q 2453 -75 1863 -75 
Q 1275 -75 941 416 
L 941 0 
z
M 934 1684 
Q 934 1088 1097 822 
Q 1363 388 1816 388 
Q 2184 388 2453 708 
Q 2722 1028 2722 1663 
Q 2722 2313 2464 2622 
Q 2206 2931 1841 2931 
Q 1472 2931 1203 2611 
Q 934 2291 934 1684 
z
" id="ArialMT-62" transform="scale(0.015625)"/>
     </defs>
     <use xlink:href="#ArialMT-43"/>
     <use x="72.216797" xlink:href="#ArialMT-6f"/>
     <use x="127.832031" xlink:href="#ArialMT-6d"/>
     <use x="211.132812" xlink:href="#ArialMT-70"/>
     <use x="266.748047" xlink:href="#ArialMT-65"/>
     <use x="322.363281" xlink:href="#ArialMT-6e"/>
     <use x="377.978516" xlink:href="#ArialMT-73"/>
     <use x="427.978516" xlink:href="#ArialMT-61"/>
     <use x="483.59375" xlink:href="#ArialMT-74"/>
     <use x="511.376953" xlink:href="#ArialMT-69"/>
     <use x="533.59375" xlink:href="#ArialMT-6f"/>
     <use x="589.208984" xlink:href="#ArialMT-6e"/>
     <use x="644.824219" xlink:href="#ArialMT-20"/>
     <use x="672.607422" xlink:href="#ArialMT-62"/>
     <use x="728.222656" xlink:href="#ArialMT-79"/>
     <use x="778.222656" xlink:href="#ArialMT-20"/>
     <use x="804.255859" xlink:href="#ArialMT-54"/>
     <use x="859.839844" xlink:href="#ArialMT-79"/>
     <use x="909.839844" xlink:href="#ArialMT-70"/>
     <use x="965.455078" xlink:href="#ArialMT-65"/>
     <use x="1021.070312" xlink:href="#ArialMT-20"/>
     <use x="1048.853516" xlink:href="#ArialMT-6f"/>
     <use x="1104.46875" xlink:href="#ArialMT-66"/>
     <use x="1132.251953" xlink:href="#ArialMT-20"/>
     <use x="1160.035156" xlink:href="#ArialMT-57"/>
     <use x="1252.669922" xlink:href="#ArialMT-6f"/>
     <use x="1308.285156" xlink:href="#ArialMT-72"/>
     <use x="1341.585938" xlink:href="#ArialMT-6b"/>
    </g>
   </g>
  </g>
 </g>
 <defs>
  <clipPath id="p88f468d9d7">
   <rect height="326.16" width="669.6" x="108" y="51.84"/>
  </clipPath>
 </defs>
</svg>
