<?xml version="1.0" encoding="utf-8" standalone="no"?>
<!DOCTYPE svg PUBLIC "-//W3C//DTD SVG 1.1//EN"
  "http://www.w3.org/Graphics/SVG/1.1/DTD/svg11.dtd">
<svg height="432pt" version="1.1" viewBox="0 0 864 432" width="864pt" xmlns="http://www.w3.org/2000/svg" xmlns:xlink="http://www.w3.org/1999/xlink">
 <metadata>
  <rdf:RDF xmlns:cc="http://creativecommons.org/ns#" xmlns:dc="http://purl.org/dc/elements/1.1/" xmlns:rdf="http://www.w3.org/1999/02/22-rdf-syntax-ns#">
   <cc:Work>
    <dc:type rdf:resource="http://purl.org/dc/dcmitype/StillImage"/>
    <dc:date>2022-01-07T21:56:08.410474</dc:date>
    <dc:format>image/svg+xml</dc:format>
    <dc:creator>
     <cc:Agent>
      <dc:title>Matplotlib v3.4.3, https://matplotlib.org/</dc:title>
     </cc:Agent>
    </dc:creator>
   </cc:Work>
  </rdf:RDF>
 </metadata>
 <defs>
  <style type="text/css">*{stroke-linecap:butt;stroke-linejoin:round;}</style>
 </defs>
 <g id="figure_1">
  <g id="patch_1">
   <path d="M 0 432 
L 864 432 
L 864 0 
L 0 0 
z
" style="fill:#ffffff;"/>
  </g>
  <g id="axes_1">
   <g id="patch_2">
    <path d="M 108 378 
L 777.6 378 
L 777.6 51.84 
L 108 51.84 
z
" style="fill:#eaeaf2;"/>
   </g>
   <g id="matplotlib.axis_1">
    <g id="xtick_1">
     <g id="text_1">
      <!-- Privately owned company -->
      <g style="fill:#262626;" transform="translate(156.933516 395.373594)scale(0.11 -0.11)">
       <defs>
        <path d="M 494 0 
L 494 4581 
L 2222 4581 
Q 2678 4581 2919 4538 
Q 3256 4481 3484 4323 
Q 3713 4166 3852 3881 
Q 3991 3597 3991 3256 
Q 3991 2672 3619 2267 
Q 3247 1863 2275 1863 
L 1100 1863 
L 1100 0 
L 494 0 
z
M 1100 2403 
L 2284 2403 
Q 2872 2403 3119 2622 
Q 3366 2841 3366 3238 
Q 3366 3525 3220 3729 
Q 3075 3934 2838 4000 
Q 2684 4041 2272 4041 
L 1100 4041 
L 1100 2403 
z
" id="ArialMT-50" transform="scale(0.015625)"/>
        <path d="M 416 0 
L 416 3319 
L 922 3319 
L 922 2816 
Q 1116 3169 1280 3281 
Q 1444 3394 1641 3394 
Q 1925 3394 2219 3213 
L 2025 2691 
Q 1819 2813 1613 2813 
Q 1428 2813 1281 2702 
Q 1134 2591 1072 2394 
Q 978 2094 978 1738 
L 978 0 
L 416 0 
z
" id="ArialMT-72" transform="scale(0.015625)"/>
        <path d="M 425 3934 
L 425 4581 
L 988 4581 
L 988 3934 
L 425 3934 
z
M 425 0 
L 425 3319 
L 988 3319 
L 988 0 
L 425 0 
z
" id="ArialMT-69" transform="scale(0.015625)"/>
        <path d="M 1344 0 
L 81 3319 
L 675 3319 
L 1388 1331 
Q 1503 1009 1600 663 
Q 1675 925 1809 1294 
L 2547 3319 
L 3125 3319 
L 1869 0 
L 1344 0 
z
" id="ArialMT-76" transform="scale(0.015625)"/>
        <path d="M 2588 409 
Q 2275 144 1986 34 
Q 1697 -75 1366 -75 
Q 819 -75 525 192 
Q 231 459 231 875 
Q 231 1119 342 1320 
Q 453 1522 633 1644 
Q 813 1766 1038 1828 
Q 1203 1872 1538 1913 
Q 2219 1994 2541 2106 
Q 2544 2222 2544 2253 
Q 2544 2597 2384 2738 
Q 2169 2928 1744 2928 
Q 1347 2928 1158 2789 
Q 969 2650 878 2297 
L 328 2372 
Q 403 2725 575 2942 
Q 747 3159 1072 3276 
Q 1397 3394 1825 3394 
Q 2250 3394 2515 3294 
Q 2781 3194 2906 3042 
Q 3031 2891 3081 2659 
Q 3109 2516 3109 2141 
L 3109 1391 
Q 3109 606 3145 398 
Q 3181 191 3288 0 
L 2700 0 
Q 2613 175 2588 409 
z
M 2541 1666 
Q 2234 1541 1622 1453 
Q 1275 1403 1131 1340 
Q 988 1278 909 1158 
Q 831 1038 831 891 
Q 831 666 1001 516 
Q 1172 366 1500 366 
Q 1825 366 2078 508 
Q 2331 650 2450 897 
Q 2541 1088 2541 1459 
L 2541 1666 
z
" id="ArialMT-61" transform="scale(0.015625)"/>
        <path d="M 1650 503 
L 1731 6 
Q 1494 -44 1306 -44 
Q 1000 -44 831 53 
Q 663 150 594 308 
Q 525 466 525 972 
L 525 2881 
L 113 2881 
L 113 3319 
L 525 3319 
L 525 4141 
L 1084 4478 
L 1084 3319 
L 1650 3319 
L 1650 2881 
L 1084 2881 
L 1084 941 
Q 1084 700 1114 631 
Q 1144 563 1211 522 
Q 1278 481 1403 481 
Q 1497 481 1650 503 
z
" id="ArialMT-74" transform="scale(0.015625)"/>
        <path d="M 2694 1069 
L 3275 997 
Q 3138 488 2766 206 
Q 2394 -75 1816 -75 
Q 1088 -75 661 373 
Q 234 822 234 1631 
Q 234 2469 665 2931 
Q 1097 3394 1784 3394 
Q 2450 3394 2872 2941 
Q 3294 2488 3294 1666 
Q 3294 1616 3291 1516 
L 816 1516 
Q 847 969 1125 678 
Q 1403 388 1819 388 
Q 2128 388 2347 550 
Q 2566 713 2694 1069 
z
M 847 1978 
L 2700 1978 
Q 2663 2397 2488 2606 
Q 2219 2931 1791 2931 
Q 1403 2931 1139 2672 
Q 875 2413 847 1978 
z
" id="ArialMT-65" transform="scale(0.015625)"/>
        <path d="M 409 0 
L 409 4581 
L 972 4581 
L 972 0 
L 409 0 
z
" id="ArialMT-6c" transform="scale(0.015625)"/>
        <path d="M 397 -1278 
L 334 -750 
Q 519 -800 656 -800 
Q 844 -800 956 -737 
Q 1069 -675 1141 -563 
Q 1194 -478 1313 -144 
Q 1328 -97 1363 -6 
L 103 3319 
L 709 3319 
L 1400 1397 
Q 1534 1031 1641 628 
Q 1738 1016 1872 1384 
L 2581 3319 
L 3144 3319 
L 1881 -56 
Q 1678 -603 1566 -809 
Q 1416 -1088 1222 -1217 
Q 1028 -1347 759 -1347 
Q 597 -1347 397 -1278 
z
" id="ArialMT-79" transform="scale(0.015625)"/>
        <path id="ArialMT-20" transform="scale(0.015625)"/>
        <path d="M 213 1659 
Q 213 2581 725 3025 
Q 1153 3394 1769 3394 
Q 2453 3394 2887 2945 
Q 3322 2497 3322 1706 
Q 3322 1066 3130 698 
Q 2938 331 2570 128 
Q 2203 -75 1769 -75 
Q 1072 -75 642 372 
Q 213 819 213 1659 
z
M 791 1659 
Q 791 1022 1069 705 
Q 1347 388 1769 388 
Q 2188 388 2466 706 
Q 2744 1025 2744 1678 
Q 2744 2294 2464 2611 
Q 2184 2928 1769 2928 
Q 1347 2928 1069 2612 
Q 791 2297 791 1659 
z
" id="ArialMT-6f" transform="scale(0.015625)"/>
        <path d="M 1034 0 
L 19 3319 
L 600 3319 
L 1128 1403 
L 1325 691 
Q 1338 744 1497 1375 
L 2025 3319 
L 2603 3319 
L 3100 1394 
L 3266 759 
L 3456 1400 
L 4025 3319 
L 4572 3319 
L 3534 0 
L 2950 0 
L 2422 1988 
L 2294 2553 
L 1622 0 
L 1034 0 
z
" id="ArialMT-77" transform="scale(0.015625)"/>
        <path d="M 422 0 
L 422 3319 
L 928 3319 
L 928 2847 
Q 1294 3394 1984 3394 
Q 2284 3394 2536 3286 
Q 2788 3178 2913 3003 
Q 3038 2828 3088 2588 
Q 3119 2431 3119 2041 
L 3119 0 
L 2556 0 
L 2556 2019 
Q 2556 2363 2490 2533 
Q 2425 2703 2258 2804 
Q 2091 2906 1866 2906 
Q 1506 2906 1245 2678 
Q 984 2450 984 1813 
L 984 0 
L 422 0 
z
" id="ArialMT-6e" transform="scale(0.015625)"/>
        <path d="M 2575 0 
L 2575 419 
Q 2259 -75 1647 -75 
Q 1250 -75 917 144 
Q 584 363 401 755 
Q 219 1147 219 1656 
Q 219 2153 384 2558 
Q 550 2963 881 3178 
Q 1213 3394 1622 3394 
Q 1922 3394 2156 3267 
Q 2391 3141 2538 2938 
L 2538 4581 
L 3097 4581 
L 3097 0 
L 2575 0 
z
M 797 1656 
Q 797 1019 1065 703 
Q 1334 388 1700 388 
Q 2069 388 2326 689 
Q 2584 991 2584 1609 
Q 2584 2291 2321 2609 
Q 2059 2928 1675 2928 
Q 1300 2928 1048 2622 
Q 797 2316 797 1656 
z
" id="ArialMT-64" transform="scale(0.015625)"/>
        <path d="M 2588 1216 
L 3141 1144 
Q 3050 572 2676 248 
Q 2303 -75 1759 -75 
Q 1078 -75 664 370 
Q 250 816 250 1647 
Q 250 2184 428 2587 
Q 606 2991 970 3192 
Q 1334 3394 1763 3394 
Q 2303 3394 2647 3120 
Q 2991 2847 3088 2344 
L 2541 2259 
Q 2463 2594 2264 2762 
Q 2066 2931 1784 2931 
Q 1359 2931 1093 2626 
Q 828 2322 828 1663 
Q 828 994 1084 691 
Q 1341 388 1753 388 
Q 2084 388 2306 591 
Q 2528 794 2588 1216 
z
" id="ArialMT-63" transform="scale(0.015625)"/>
        <path d="M 422 0 
L 422 3319 
L 925 3319 
L 925 2853 
Q 1081 3097 1340 3245 
Q 1600 3394 1931 3394 
Q 2300 3394 2536 3241 
Q 2772 3088 2869 2813 
Q 3263 3394 3894 3394 
Q 4388 3394 4653 3120 
Q 4919 2847 4919 2278 
L 4919 0 
L 4359 0 
L 4359 2091 
Q 4359 2428 4304 2576 
Q 4250 2725 4106 2815 
Q 3963 2906 3769 2906 
Q 3419 2906 3187 2673 
Q 2956 2441 2956 1928 
L 2956 0 
L 2394 0 
L 2394 2156 
Q 2394 2531 2256 2718 
Q 2119 2906 1806 2906 
Q 1569 2906 1367 2781 
Q 1166 2656 1075 2415 
Q 984 2175 984 1722 
L 984 0 
L 422 0 
z
" id="ArialMT-6d" transform="scale(0.015625)"/>
        <path d="M 422 -1272 
L 422 3319 
L 934 3319 
L 934 2888 
Q 1116 3141 1344 3267 
Q 1572 3394 1897 3394 
Q 2322 3394 2647 3175 
Q 2972 2956 3137 2557 
Q 3303 2159 3303 1684 
Q 3303 1175 3120 767 
Q 2938 359 2589 142 
Q 2241 -75 1856 -75 
Q 1575 -75 1351 44 
Q 1128 163 984 344 
L 984 -1272 
L 422 -1272 
z
M 931 1641 
Q 931 1000 1190 694 
Q 1450 388 1819 388 
Q 2194 388 2461 705 
Q 2728 1022 2728 1688 
Q 2728 2322 2467 2637 
Q 2206 2953 1844 2953 
Q 1484 2953 1207 2617 
Q 931 2281 931 1641 
z
" id="ArialMT-70" transform="scale(0.015625)"/>
       </defs>
       <use xlink:href="#ArialMT-50"/>
       <use x="66.699219" xlink:href="#ArialMT-72"/>
       <use x="100" xlink:href="#ArialMT-69"/>
       <use x="122.216797" xlink:href="#ArialMT-76"/>
       <use x="172.216797" xlink:href="#ArialMT-61"/>
       <use x="227.832031" xlink:href="#ArialMT-74"/>
       <use x="255.615234" xlink:href="#ArialMT-65"/>
       <use x="311.230469" xlink:href="#ArialMT-6c"/>
       <use x="333.447266" xlink:href="#ArialMT-79"/>
       <use x="383.447266" xlink:href="#ArialMT-20"/>
       <use x="411.230469" xlink:href="#ArialMT-6f"/>
       <use x="466.845703" xlink:href="#ArialMT-77"/>
       <use x="539.0625" xlink:href="#ArialMT-6e"/>
       <use x="594.677734" xlink:href="#ArialMT-65"/>
       <use x="650.292969" xlink:href="#ArialMT-64"/>
       <use x="705.908203" xlink:href="#ArialMT-20"/>
       <use x="733.691406" xlink:href="#ArialMT-63"/>
       <use x="783.691406" xlink:href="#ArialMT-6f"/>
       <use x="839.306641" xlink:href="#ArialMT-6d"/>
       <use x="922.607422" xlink:href="#ArialMT-70"/>
       <use x="978.222656" xlink:href="#ArialMT-61"/>
       <use x="1033.837891" xlink:href="#ArialMT-6e"/>
       <use x="1089.453125" xlink:href="#ArialMT-79"/>
      </g>
     </g>
    </g>
    <g id="xtick_2">
     <g id="text_2">
      <!-- Publicly traded company -->
      <g style="fill:#262626;" transform="translate(382.883516 395.373594)scale(0.11 -0.11)">
       <defs>
        <path d="M 2597 0 
L 2597 488 
Q 2209 -75 1544 -75 
Q 1250 -75 995 37 
Q 741 150 617 320 
Q 494 491 444 738 
Q 409 903 409 1263 
L 409 3319 
L 972 3319 
L 972 1478 
Q 972 1038 1006 884 
Q 1059 663 1231 536 
Q 1403 409 1656 409 
Q 1909 409 2131 539 
Q 2353 669 2445 892 
Q 2538 1116 2538 1541 
L 2538 3319 
L 3100 3319 
L 3100 0 
L 2597 0 
z
" id="ArialMT-75" transform="scale(0.015625)"/>
        <path d="M 941 0 
L 419 0 
L 419 4581 
L 981 4581 
L 981 2947 
Q 1338 3394 1891 3394 
Q 2197 3394 2470 3270 
Q 2744 3147 2920 2923 
Q 3097 2700 3197 2384 
Q 3297 2069 3297 1709 
Q 3297 856 2875 390 
Q 2453 -75 1863 -75 
Q 1275 -75 941 416 
L 941 0 
z
M 934 1684 
Q 934 1088 1097 822 
Q 1363 388 1816 388 
Q 2184 388 2453 708 
Q 2722 1028 2722 1663 
Q 2722 2313 2464 2622 
Q 2206 2931 1841 2931 
Q 1472 2931 1203 2611 
Q 934 2291 934 1684 
z
" id="ArialMT-62" transform="scale(0.015625)"/>
       </defs>
       <use xlink:href="#ArialMT-50"/>
       <use x="66.699219" xlink:href="#ArialMT-75"/>
       <use x="122.314453" xlink:href="#ArialMT-62"/>
       <use x="177.929688" xlink:href="#ArialMT-6c"/>
       <use x="200.146484" xlink:href="#ArialMT-69"/>
       <use x="222.363281" xlink:href="#ArialMT-63"/>
       <use x="272.363281" xlink:href="#ArialMT-6c"/>
       <use x="294.580078" xlink:href="#ArialMT-79"/>
       <use x="344.580078" xlink:href="#ArialMT-20"/>
       <use x="372.363281" xlink:href="#ArialMT-74"/>
       <use x="400.146484" xlink:href="#ArialMT-72"/>
       <use x="433.447266" xlink:href="#ArialMT-61"/>
       <use x="489.0625" xlink:href="#ArialMT-64"/>
       <use x="544.677734" xlink:href="#ArialMT-65"/>
       <use x="600.292969" xlink:href="#ArialMT-64"/>
       <use x="655.908203" xlink:href="#ArialMT-20"/>
       <use x="683.691406" xlink:href="#ArialMT-63"/>
       <use x="733.691406" xlink:href="#ArialMT-6f"/>
       <use x="789.306641" xlink:href="#ArialMT-6d"/>
       <use x="872.607422" xlink:href="#ArialMT-70"/>
       <use x="928.222656" xlink:href="#ArialMT-61"/>
       <use x="983.837891" xlink:href="#ArialMT-6e"/>
       <use x="1039.453125" xlink:href="#ArialMT-79"/>
      </g>
     </g>
    </g>
    <g id="xtick_3">
     <g id="text_3">
      <!-- Government -->
      <g style="fill:#262626;" transform="translate(635.738828 395.373594)scale(0.11 -0.11)">
       <defs>
        <path d="M 2638 1797 
L 2638 2334 
L 4578 2338 
L 4578 638 
Q 4131 281 3656 101 
Q 3181 -78 2681 -78 
Q 2006 -78 1454 211 
Q 903 500 622 1047 
Q 341 1594 341 2269 
Q 341 2938 620 3517 
Q 900 4097 1425 4378 
Q 1950 4659 2634 4659 
Q 3131 4659 3532 4498 
Q 3934 4338 4162 4050 
Q 4391 3763 4509 3300 
L 3963 3150 
Q 3859 3500 3706 3700 
Q 3553 3900 3268 4020 
Q 2984 4141 2638 4141 
Q 2222 4141 1919 4014 
Q 1616 3888 1430 3681 
Q 1244 3475 1141 3228 
Q 966 2803 966 2306 
Q 966 1694 1177 1281 
Q 1388 869 1791 669 
Q 2194 469 2647 469 
Q 3041 469 3416 620 
Q 3791 772 3984 944 
L 3984 1797 
L 2638 1797 
z
" id="ArialMT-47" transform="scale(0.015625)"/>
       </defs>
       <use xlink:href="#ArialMT-47"/>
       <use x="77.783203" xlink:href="#ArialMT-6f"/>
       <use x="133.398438" xlink:href="#ArialMT-76"/>
       <use x="183.398438" xlink:href="#ArialMT-65"/>
       <use x="239.013672" xlink:href="#ArialMT-72"/>
       <use x="272.314453" xlink:href="#ArialMT-6e"/>
       <use x="327.929688" xlink:href="#ArialMT-6d"/>
       <use x="411.230469" xlink:href="#ArialMT-65"/>
       <use x="466.845703" xlink:href="#ArialMT-6e"/>
       <use x="522.460938" xlink:href="#ArialMT-74"/>
      </g>
     </g>
    </g>
    <g id="text_4">
     <!-- Employer Type -->
     <g style="fill:#262626;" transform="translate(402.889688 410.278125)scale(0.12 -0.12)">
      <defs>
       <path d="M 506 0 
L 506 4581 
L 3819 4581 
L 3819 4041 
L 1113 4041 
L 1113 2638 
L 3647 2638 
L 3647 2100 
L 1113 2100 
L 1113 541 
L 3925 541 
L 3925 0 
L 506 0 
z
" id="ArialMT-45" transform="scale(0.015625)"/>
       <path d="M 1659 0 
L 1659 4041 
L 150 4041 
L 150 4581 
L 3781 4581 
L 3781 4041 
L 2266 4041 
L 2266 0 
L 1659 0 
z
" id="ArialMT-54" transform="scale(0.015625)"/>
      </defs>
      <use xlink:href="#ArialMT-45"/>
      <use x="66.699219" xlink:href="#ArialMT-6d"/>
      <use x="150" xlink:href="#ArialMT-70"/>
      <use x="205.615234" xlink:href="#ArialMT-6c"/>
      <use x="227.832031" xlink:href="#ArialMT-6f"/>
      <use x="283.447266" xlink:href="#ArialMT-79"/>
      <use x="333.447266" xlink:href="#ArialMT-65"/>
      <use x="389.0625" xlink:href="#ArialMT-72"/>
      <use x="422.363281" xlink:href="#ArialMT-20"/>
      <use x="448.396484" xlink:href="#ArialMT-54"/>
      <use x="503.980469" xlink:href="#ArialMT-79"/>
      <use x="553.980469" xlink:href="#ArialMT-70"/>
      <use x="609.595703" xlink:href="#ArialMT-65"/>
     </g>
    </g>
   </g>
   <g id="matplotlib.axis_2">
    <g id="ytick_1">
     <g id="line2d_1">
      <path clip-path="url(#pe22d907c38)" d="M 108 321.663273 
L 777.6 321.663273 
" style="fill:none;stroke:#ffffff;stroke-linecap:round;"/>
     </g>
     <g id="text_5">
      <!-- 100 -->
      <g style="fill:#262626;" transform="translate(80.148906 325.60007)scale(0.11 -0.11)">
       <defs>
        <path d="M 2384 0 
L 1822 0 
L 1822 3584 
Q 1619 3391 1289 3197 
Q 959 3003 697 2906 
L 697 3450 
Q 1169 3672 1522 3987 
Q 1875 4303 2022 4600 
L 2384 4600 
L 2384 0 
z
" id="ArialMT-31" transform="scale(0.015625)"/>
        <path d="M 266 2259 
Q 266 3072 433 3567 
Q 600 4063 929 4331 
Q 1259 4600 1759 4600 
Q 2128 4600 2406 4451 
Q 2684 4303 2865 4023 
Q 3047 3744 3150 3342 
Q 3253 2941 3253 2259 
Q 3253 1453 3087 958 
Q 2922 463 2592 192 
Q 2263 -78 1759 -78 
Q 1097 -78 719 397 
Q 266 969 266 2259 
z
M 844 2259 
Q 844 1131 1108 757 
Q 1372 384 1759 384 
Q 2147 384 2411 759 
Q 2675 1134 2675 2259 
Q 2675 3391 2411 3762 
Q 2147 4134 1753 4134 
Q 1366 4134 1134 3806 
Q 844 3388 844 2259 
z
" id="ArialMT-30" transform="scale(0.015625)"/>
       </defs>
       <use xlink:href="#ArialMT-31"/>
       <use x="55.615234" xlink:href="#ArialMT-30"/>
       <use x="111.230469" xlink:href="#ArialMT-30"/>
      </g>
     </g>
    </g>
    <g id="ytick_2">
     <g id="line2d_2">
      <path clip-path="url(#pe22d907c38)" d="M 108 262.361455 
L 777.6 262.361455 
" style="fill:none;stroke:#ffffff;stroke-linecap:round;"/>
     </g>
     <g id="text_6">
      <!-- 150 -->
      <g style="fill:#262626;" transform="translate(80.148906 266.298251)scale(0.11 -0.11)">
       <defs>
        <path d="M 266 1200 
L 856 1250 
Q 922 819 1161 601 
Q 1400 384 1738 384 
Q 2144 384 2425 690 
Q 2706 997 2706 1503 
Q 2706 1984 2436 2262 
Q 2166 2541 1728 2541 
Q 1456 2541 1237 2417 
Q 1019 2294 894 2097 
L 366 2166 
L 809 4519 
L 3088 4519 
L 3088 3981 
L 1259 3981 
L 1013 2750 
Q 1425 3038 1878 3038 
Q 2478 3038 2890 2622 
Q 3303 2206 3303 1553 
Q 3303 931 2941 478 
Q 2500 -78 1738 -78 
Q 1113 -78 717 272 
Q 322 622 266 1200 
z
" id="ArialMT-35" transform="scale(0.015625)"/>
       </defs>
       <use xlink:href="#ArialMT-31"/>
       <use x="55.615234" xlink:href="#ArialMT-35"/>
       <use x="111.230469" xlink:href="#ArialMT-30"/>
      </g>
     </g>
    </g>
    <g id="ytick_3">
     <g id="line2d_3">
      <path clip-path="url(#pe22d907c38)" d="M 108 203.059636 
L 777.6 203.059636 
" style="fill:none;stroke:#ffffff;stroke-linecap:round;"/>
     </g>
     <g id="text_7">
      <!-- 200 -->
      <g style="fill:#262626;" transform="translate(80.148906 206.996433)scale(0.11 -0.11)">
       <defs>
        <path d="M 3222 541 
L 3222 0 
L 194 0 
Q 188 203 259 391 
Q 375 700 629 1000 
Q 884 1300 1366 1694 
Q 2113 2306 2375 2664 
Q 2638 3022 2638 3341 
Q 2638 3675 2398 3904 
Q 2159 4134 1775 4134 
Q 1369 4134 1125 3890 
Q 881 3647 878 3216 
L 300 3275 
Q 359 3922 746 4261 
Q 1134 4600 1788 4600 
Q 2447 4600 2831 4234 
Q 3216 3869 3216 3328 
Q 3216 3053 3103 2787 
Q 2991 2522 2730 2228 
Q 2469 1934 1863 1422 
Q 1356 997 1212 845 
Q 1069 694 975 541 
L 3222 541 
z
" id="ArialMT-32" transform="scale(0.015625)"/>
       </defs>
       <use xlink:href="#ArialMT-32"/>
       <use x="55.615234" xlink:href="#ArialMT-30"/>
       <use x="111.230469" xlink:href="#ArialMT-30"/>
      </g>
     </g>
    </g>
    <g id="ytick_4">
     <g id="line2d_4">
      <path clip-path="url(#pe22d907c38)" d="M 108 143.757818 
L 777.6 143.757818 
" style="fill:none;stroke:#ffffff;stroke-linecap:round;"/>
     </g>
     <g id="text_8">
      <!-- 250 -->
      <g style="fill:#262626;" transform="translate(80.148906 147.694615)scale(0.11 -0.11)">
       <use xlink:href="#ArialMT-32"/>
       <use x="55.615234" xlink:href="#ArialMT-35"/>
       <use x="111.230469" xlink:href="#ArialMT-30"/>
      </g>
     </g>
    </g>
    <g id="ytick_5">
     <g id="line2d_5">
      <path clip-path="url(#pe22d907c38)" d="M 108 84.456 
L 777.6 84.456 
" style="fill:none;stroke:#ffffff;stroke-linecap:round;"/>
     </g>
     <g id="text_9">
      <!-- 300 -->
      <g style="fill:#262626;" transform="translate(80.148906 88.392797)scale(0.11 -0.11)">
       <defs>
        <path d="M 269 1209 
L 831 1284 
Q 928 806 1161 595 
Q 1394 384 1728 384 
Q 2125 384 2398 659 
Q 2672 934 2672 1341 
Q 2672 1728 2419 1979 
Q 2166 2231 1775 2231 
Q 1616 2231 1378 2169 
L 1441 2663 
Q 1497 2656 1531 2656 
Q 1891 2656 2178 2843 
Q 2466 3031 2466 3422 
Q 2466 3731 2256 3934 
Q 2047 4138 1716 4138 
Q 1388 4138 1169 3931 
Q 950 3725 888 3313 
L 325 3413 
Q 428 3978 793 4289 
Q 1159 4600 1703 4600 
Q 2078 4600 2393 4439 
Q 2709 4278 2876 4000 
Q 3044 3722 3044 3409 
Q 3044 3113 2884 2869 
Q 2725 2625 2413 2481 
Q 2819 2388 3044 2092 
Q 3269 1797 3269 1353 
Q 3269 753 2831 336 
Q 2394 -81 1725 -81 
Q 1122 -81 723 278 
Q 325 638 269 1209 
z
" id="ArialMT-33" transform="scale(0.015625)"/>
       </defs>
       <use xlink:href="#ArialMT-33"/>
       <use x="55.615234" xlink:href="#ArialMT-30"/>
       <use x="111.230469" xlink:href="#ArialMT-30"/>
      </g>
     </g>
    </g>
    <g id="text_10">
     <!-- Annual income (thousands) -->
     <g style="fill:#262626;" transform="translate(73.623281 287.957812)rotate(-90)scale(0.12 -0.12)">
      <defs>
       <path d="M -9 0 
L 1750 4581 
L 2403 4581 
L 4278 0 
L 3588 0 
L 3053 1388 
L 1138 1388 
L 634 0 
L -9 0 
z
M 1313 1881 
L 2866 1881 
L 2388 3150 
Q 2169 3728 2063 4100 
Q 1975 3659 1816 3225 
L 1313 1881 
z
" id="ArialMT-41" transform="scale(0.015625)"/>
       <path d="M 1497 -1347 
Q 1031 -759 709 28 
Q 388 816 388 1659 
Q 388 2403 628 3084 
Q 909 3875 1497 4659 
L 1900 4659 
Q 1522 4009 1400 3731 
Q 1209 3300 1100 2831 
Q 966 2247 966 1656 
Q 966 153 1900 -1347 
L 1497 -1347 
z
" id="ArialMT-28" transform="scale(0.015625)"/>
       <path d="M 422 0 
L 422 4581 
L 984 4581 
L 984 2938 
Q 1378 3394 1978 3394 
Q 2347 3394 2619 3248 
Q 2891 3103 3008 2847 
Q 3125 2591 3125 2103 
L 3125 0 
L 2563 0 
L 2563 2103 
Q 2563 2525 2380 2717 
Q 2197 2909 1863 2909 
Q 1613 2909 1392 2779 
Q 1172 2650 1078 2428 
Q 984 2206 984 1816 
L 984 0 
L 422 0 
z
" id="ArialMT-68" transform="scale(0.015625)"/>
       <path d="M 197 991 
L 753 1078 
Q 800 744 1014 566 
Q 1228 388 1613 388 
Q 2000 388 2187 545 
Q 2375 703 2375 916 
Q 2375 1106 2209 1216 
Q 2094 1291 1634 1406 
Q 1016 1563 777 1677 
Q 538 1791 414 1992 
Q 291 2194 291 2438 
Q 291 2659 392 2848 
Q 494 3038 669 3163 
Q 800 3259 1026 3326 
Q 1253 3394 1513 3394 
Q 1903 3394 2198 3281 
Q 2494 3169 2634 2976 
Q 2775 2784 2828 2463 
L 2278 2388 
Q 2241 2644 2061 2787 
Q 1881 2931 1553 2931 
Q 1166 2931 1000 2803 
Q 834 2675 834 2503 
Q 834 2394 903 2306 
Q 972 2216 1119 2156 
Q 1203 2125 1616 2013 
Q 2213 1853 2448 1751 
Q 2684 1650 2818 1456 
Q 2953 1263 2953 975 
Q 2953 694 2789 445 
Q 2625 197 2315 61 
Q 2006 -75 1616 -75 
Q 969 -75 630 194 
Q 291 463 197 991 
z
" id="ArialMT-73" transform="scale(0.015625)"/>
       <path d="M 791 -1347 
L 388 -1347 
Q 1322 153 1322 1656 
Q 1322 2244 1188 2822 
Q 1081 3291 891 3722 
Q 769 4003 388 4659 
L 791 4659 
Q 1378 3875 1659 3084 
Q 1900 2403 1900 1659 
Q 1900 816 1576 28 
Q 1253 -759 791 -1347 
z
" id="ArialMT-29" transform="scale(0.015625)"/>
      </defs>
      <use xlink:href="#ArialMT-41"/>
      <use x="66.699219" xlink:href="#ArialMT-6e"/>
      <use x="122.314453" xlink:href="#ArialMT-6e"/>
      <use x="177.929688" xlink:href="#ArialMT-75"/>
      <use x="233.544922" xlink:href="#ArialMT-61"/>
      <use x="289.160156" xlink:href="#ArialMT-6c"/>
      <use x="311.376953" xlink:href="#ArialMT-20"/>
      <use x="339.160156" xlink:href="#ArialMT-69"/>
      <use x="361.376953" xlink:href="#ArialMT-6e"/>
      <use x="416.992188" xlink:href="#ArialMT-63"/>
      <use x="466.992188" xlink:href="#ArialMT-6f"/>
      <use x="522.607422" xlink:href="#ArialMT-6d"/>
      <use x="605.908203" xlink:href="#ArialMT-65"/>
      <use x="661.523438" xlink:href="#ArialMT-20"/>
      <use x="689.306641" xlink:href="#ArialMT-28"/>
      <use x="722.607422" xlink:href="#ArialMT-74"/>
      <use x="750.390625" xlink:href="#ArialMT-68"/>
      <use x="806.005859" xlink:href="#ArialMT-6f"/>
      <use x="861.621094" xlink:href="#ArialMT-75"/>
      <use x="917.236328" xlink:href="#ArialMT-73"/>
      <use x="967.236328" xlink:href="#ArialMT-61"/>
      <use x="1022.851562" xlink:href="#ArialMT-6e"/>
      <use x="1078.466797" xlink:href="#ArialMT-64"/>
      <use x="1134.082031" xlink:href="#ArialMT-73"/>
      <use x="1184.082031" xlink:href="#ArialMT-29"/>
     </g>
    </g>
   </g>
   <g id="PolyCollection_1">
    <defs>
     <path d="M 243.716789 -68.825455 
L 195.483211 -68.825455 
L 193.024621 -71.221488 
L 190.461276 -73.617521 
L 187.802822 -76.013554 
L 185.059304 -78.409587 
L 182.240962 -80.80562 
L 179.358111 -83.201653 
L 176.421104 -85.597686 
L 173.440402 -87.993719 
L 170.426735 -90.389752 
L 167.391372 -92.785785 
L 164.346449 -95.181818 
L 161.305342 -97.577851 
L 158.28304 -99.973884 
L 155.296472 -102.369917 
L 152.364746 -104.76595 
L 149.50925 -107.161983 
L 146.753584 -109.558017 
L 144.123295 -111.95405 
L 141.645408 -114.350083 
L 139.347764 -116.746116 
L 137.258169 -119.142149 
L 135.403423 -121.538182 
L 133.808266 -123.934215 
L 132.4943 -126.330248 
L 131.478983 -128.726281 
L 130.774734 -131.122314 
L 130.388239 -133.518347 
L 130.32 -135.91438 
L 130.564168 -138.310413 
L 131.108677 -140.706446 
L 131.935691 -143.102479 
L 133.022323 -145.498512 
L 134.341602 -147.894545 
L 135.863625 -150.290579 
L 137.556823 -152.686612 
L 139.389264 -155.082645 
L 141.329925 -157.478678 
L 143.349847 -159.874711 
L 145.423117 -162.270744 
L 147.527624 -164.666777 
L 149.645557 -167.06281 
L 151.763627 -169.458843 
L 153.873022 -171.854876 
L 155.969107 -174.250909 
L 158.050912 -176.646942 
L 160.12045 -179.042975 
L 162.18193 -181.439008 
L 164.240902 -183.835041 
L 166.303416 -186.231074 
L 168.375227 -188.627107 
L 170.461103 -191.02314 
L 172.564262 -193.419174 
L 174.685965 -195.815207 
L 176.825277 -198.21124 
L 178.978984 -200.607273 
L 181.141675 -203.003306 
L 183.305944 -205.399339 
L 185.462711 -207.795372 
L 187.601606 -210.191405 
L 189.71141 -212.587438 
L 191.780497 -214.983471 
L 193.797269 -217.379504 
L 195.750548 -219.775537 
L 197.629904 -222.17157 
L 199.425922 -224.567603 
L 201.130386 -226.963636 
L 202.736389 -229.359669 
L 204.238377 -231.755702 
L 205.632135 -234.151736 
L 206.914721 -236.547769 
L 208.084386 -238.943802 
L 209.140469 -241.339835 
L 210.083297 -243.735868 
L 210.914102 -246.131901 
L 211.634952 -248.527934 
L 212.248714 -250.923967 
L 212.759031 -253.32 
L 213.170334 -255.716033 
L 213.487855 -258.112066 
L 213.717649 -260.508099 
L 213.866612 -262.904132 
L 213.942476 -265.300165 
L 213.953781 -267.696198 
L 213.90981 -270.092231 
L 213.820487 -272.488264 
L 213.696233 -274.884298 
L 213.547777 -277.280331 
L 213.385944 -279.676364 
L 213.221403 -282.072397 
L 213.06441 -284.46843 
L 212.924545 -286.864463 
L 212.810457 -289.260496 
L 212.729632 -291.656529 
L 212.6882 -294.052562 
L 212.690786 -296.448595 
L 212.74041 -298.844628 
L 212.838457 -301.240661 
L 212.984693 -303.636694 
L 213.177353 -306.032727 
L 226.022647 -306.032727 
L 226.022647 -306.032727 
L 226.215307 -303.636694 
L 226.361543 -301.240661 
L 226.45959 -298.844628 
L 226.509214 -296.448595 
L 226.5118 -294.052562 
L 226.470368 -291.656529 
L 226.389543 -289.260496 
L 226.275455 -286.864463 
L 226.13559 -284.46843 
L 225.978597 -282.072397 
L 225.814056 -279.676364 
L 225.652223 -277.280331 
L 225.503767 -274.884298 
L 225.379513 -272.488264 
L 225.29019 -270.092231 
L 225.246219 -267.696198 
L 225.257524 -265.300165 
L 225.333388 -262.904132 
L 225.482351 -260.508099 
L 225.712145 -258.112066 
L 226.029666 -255.716033 
L 226.440969 -253.32 
L 226.951286 -250.923967 
L 227.565048 -248.527934 
L 228.285898 -246.131901 
L 229.116703 -243.735868 
L 230.059531 -241.339835 
L 231.115614 -238.943802 
L 232.285279 -236.547769 
L 233.567865 -234.151736 
L 234.961623 -231.755702 
L 236.463611 -229.359669 
L 238.069614 -226.963636 
L 239.774078 -224.567603 
L 241.570096 -222.17157 
L 243.449452 -219.775537 
L 245.402731 -217.379504 
L 247.419503 -214.983471 
L 249.48859 -212.587438 
L 251.598394 -210.191405 
L 253.737289 -207.795372 
L 255.894056 -205.399339 
L 258.058325 -203.003306 
L 260.221016 -200.607273 
L 262.374723 -198.21124 
L 264.514035 -195.815207 
L 266.635738 -193.419174 
L 268.738897 -191.02314 
L 270.824773 -188.627107 
L 272.896584 -186.231074 
L 274.959098 -183.835041 
L 277.01807 -181.439008 
L 279.07955 -179.042975 
L 281.149088 -176.646942 
L 283.230893 -174.250909 
L 285.326978 -171.854876 
L 287.436373 -169.458843 
L 289.554443 -167.06281 
L 291.672376 -164.666777 
L 293.776883 -162.270744 
L 295.850153 -159.874711 
L 297.870075 -157.478678 
L 299.810736 -155.082645 
L 301.643177 -152.686612 
L 303.336375 -150.290579 
L 304.858398 -147.894545 
L 306.177677 -145.498512 
L 307.264309 -143.102479 
L 308.091323 -140.706446 
L 308.635832 -138.310413 
L 308.88 -135.91438 
L 308.811761 -133.518347 
L 308.425266 -131.122314 
L 307.721017 -128.726281 
L 306.7057 -126.330248 
L 305.391734 -123.934215 
L 303.796577 -121.538182 
L 301.941831 -119.142149 
L 299.852236 -116.746116 
L 297.554592 -114.350083 
L 295.076705 -111.95405 
L 292.446416 -109.558017 
L 289.69075 -107.161983 
L 286.835254 -104.76595 
L 283.903528 -102.369917 
L 280.91696 -99.973884 
L 277.894658 -97.577851 
L 274.853551 -95.181818 
L 271.808628 -92.785785 
L 268.773265 -90.389752 
L 265.759598 -87.993719 
L 262.778896 -85.597686 
L 259.841889 -83.201653 
L 256.959038 -80.80562 
L 254.140696 -78.409587 
L 251.397178 -76.013554 
L 248.738724 -73.617521 
L 246.175379 -71.221488 
L 243.716789 -68.825455 
z
" id="m7d7d440441" style="stroke:#4c4c4c;stroke-width:1.5;"/>
    </defs>
    <g clip-path="url(#pe22d907c38)">
     <use style="fill:#5875a4;stroke:#4c4c4c;stroke-width:1.5;" x="0" xlink:href="#m7d7d440441" y="432"/>
    </g>
   </g>
   <g id="PolyCollection_2">
    <defs>
     <path d="M 448.95544 -78.313745 
L 436.64456 -78.313745 
L 436.114762 -81.212945 
L 435.542715 -84.112145 
L 434.924319 -87.011345 
L 434.255668 -89.910545 
L 433.533255 -92.809745 
L 432.754193 -95.708945 
L 431.916423 -98.608145 
L 431.018921 -101.507345 
L 430.061871 -104.406545 
L 429.046809 -107.305745 
L 427.976726 -110.204945 
L 426.856127 -113.104145 
L 425.691036 -116.003345 
L 424.488953 -118.902545 
L 423.258764 -121.801745 
L 422.010604 -124.700945 
L 420.755681 -127.600145 
L 419.506069 -130.499345 
L 418.274478 -133.398545 
L 417.074 -136.297745 
L 415.917859 -139.196945 
L 414.819152 -142.096145 
L 413.790599 -144.995345 
L 412.844307 -147.894545 
L 411.991545 -150.793745 
L 411.242551 -153.692945 
L 410.60635 -156.592145 
L 410.090607 -159.491345 
L 409.701506 -162.390545 
L 409.44365 -165.289745 
L 409.32 -168.188945 
L 409.331833 -171.088145 
L 409.478734 -173.987345 
L 409.758614 -176.886545 
L 410.167756 -179.785745 
L 410.700887 -182.684945 
L 411.351275 -185.584145 
L 412.110849 -188.483345 
L 412.970342 -191.382545 
L 413.919447 -194.281745 
L 414.947001 -197.180945 
L 416.041165 -200.080145 
L 417.18963 -202.979345 
L 418.379812 -205.878545 
L 419.599067 -208.777745 
L 420.834889 -211.676945 
L 422.075109 -214.576145 
L 423.30809 -217.475345 
L 424.522899 -220.374545 
L 425.709476 -223.273745 
L 426.858777 -226.172945 
L 427.962895 -229.072145 
L 429.015166 -231.971345 
L 430.010235 -234.870545 
L 430.944104 -237.769745 
L 431.814142 -240.668945 
L 432.61907 -243.568145 
L 433.358902 -246.467345 
L 434.034865 -249.366545 
L 434.649281 -252.265745 
L 435.205422 -255.164945 
L 435.707343 -258.064145 
L 436.159692 -260.963345 
L 436.567512 -263.862545 
L 436.936033 -266.761745 
L 437.27047 -269.660945 
L 437.575828 -272.560145 
L 437.85673 -275.459345 
L 438.117264 -278.358545 
L 438.360869 -281.257745 
L 438.590248 -284.156945 
L 438.807327 -287.056145 
L 439.013252 -289.955345 
L 439.208425 -292.854545 
L 439.392573 -295.753745 
L 439.564853 -298.652945 
L 439.72398 -301.552145 
L 439.868374 -304.451345 
L 439.996319 -307.350545 
L 440.106124 -310.249745 
L 440.196279 -313.148945 
L 440.265597 -316.048145 
L 440.313339 -318.947345 
L 440.339314 -321.846545 
L 440.343949 -324.745745 
L 440.328324 -327.644945 
L 440.294184 -330.544145 
L 440.243902 -333.443345 
L 440.180424 -336.342545 
L 440.107176 -339.241745 
L 440.027955 -342.140945 
L 439.946791 -345.040145 
L 439.867807 -347.939345 
L 439.795061 -350.838545 
L 439.732405 -353.737745 
L 439.683338 -356.636945 
L 439.650881 -359.536145 
L 439.637475 -362.435345 
L 439.6449 -365.334545 
L 445.9551 -365.334545 
L 445.9551 -365.334545 
L 445.962525 -362.435345 
L 445.949119 -359.536145 
L 445.916662 -356.636945 
L 445.867595 -353.737745 
L 445.804939 -350.838545 
L 445.732193 -347.939345 
L 445.653209 -345.040145 
L 445.572045 -342.140945 
L 445.492824 -339.241745 
L 445.419576 -336.342545 
L 445.356098 -333.443345 
L 445.305816 -330.544145 
L 445.271676 -327.644945 
L 445.256051 -324.745745 
L 445.260686 -321.846545 
L 445.286661 -318.947345 
L 445.334403 -316.048145 
L 445.403721 -313.148945 
L 445.493876 -310.249745 
L 445.603681 -307.350545 
L 445.731626 -304.451345 
L 445.87602 -301.552145 
L 446.035147 -298.652945 
L 446.207427 -295.753745 
L 446.391575 -292.854545 
L 446.586748 -289.955345 
L 446.792673 -287.056145 
L 447.009752 -284.156945 
L 447.239131 -281.257745 
L 447.482736 -278.358545 
L 447.74327 -275.459345 
L 448.024172 -272.560145 
L 448.32953 -269.660945 
L 448.663967 -266.761745 
L 449.032488 -263.862545 
L 449.440308 -260.963345 
L 449.892657 -258.064145 
L 450.394578 -255.164945 
L 450.950719 -252.265745 
L 451.565135 -249.366545 
L 452.241098 -246.467345 
L 452.98093 -243.568145 
L 453.785858 -240.668945 
L 454.655896 -237.769745 
L 455.589765 -234.870545 
L 456.584834 -231.971345 
L 457.637105 -229.072145 
L 458.741223 -226.172945 
L 459.890524 -223.273745 
L 461.077101 -220.374545 
L 462.29191 -217.475345 
L 463.524891 -214.576145 
L 464.765111 -211.676945 
L 466.000933 -208.777745 
L 467.220188 -205.878545 
L 468.41037 -202.979345 
L 469.558835 -200.080145 
L 470.652999 -197.180945 
L 471.680553 -194.281745 
L 472.629658 -191.382545 
L 473.489151 -188.483345 
L 474.248725 -185.584145 
L 474.899113 -182.684945 
L 475.432244 -179.785745 
L 475.841386 -176.886545 
L 476.121266 -173.987345 
L 476.268167 -171.088145 
L 476.28 -168.188945 
L 476.15635 -165.289745 
L 475.898494 -162.390545 
L 475.509393 -159.491345 
L 474.99365 -156.592145 
L 474.357449 -153.692945 
L 473.608455 -150.793745 
L 472.755693 -147.894545 
L 471.809401 -144.995345 
L 470.780848 -142.096145 
L 469.682141 -139.196945 
L 468.526 -136.297745 
L 467.325522 -133.398545 
L 466.093931 -130.499345 
L 464.844319 -127.600145 
L 463.589396 -124.700945 
L 462.341236 -121.801745 
L 461.111047 -118.902545 
L 459.908964 -116.003345 
L 458.743873 -113.104145 
L 457.623274 -110.204945 
L 456.553191 -107.305745 
L 455.538129 -104.406545 
L 454.581079 -101.507345 
L 453.683577 -98.608145 
L 452.845807 -95.708945 
L 452.066745 -92.809745 
L 451.344332 -89.910545 
L 450.675681 -87.011345 
L 450.057285 -84.112145 
L 449.485238 -81.212945 
L 448.95544 -78.313745 
z
" id="m1587a4a1bc" style="stroke:#4c4c4c;stroke-width:1.5;"/>
    </defs>
    <g clip-path="url(#pe22d907c38)">
     <use style="fill:#cc8963;stroke:#4c4c4c;stroke-width:1.5;" x="0" xlink:href="#m1587a4a1bc" y="432"/>
    </g>
   </g>
   <g id="PolyCollection_3">
    <defs>
     <path d="M 669.714359 -74.755636 
L 662.285641 -74.755636 
L 662.281536 -75.414545 
L 662.28 -76.073455 
L 662.280999 -76.732364 
L 662.28449 -77.391273 
L 662.290423 -78.050182 
L 662.29874 -78.709091 
L 662.309375 -79.368 
L 662.322255 -80.026909 
L 662.3373 -80.685818 
L 662.354421 -81.344727 
L 662.373525 -82.003636 
L 662.394511 -82.662545 
L 662.417271 -83.321455 
L 662.441693 -83.980364 
L 662.46766 -84.639273 
L 662.495048 -85.298182 
L 662.523729 -85.957091 
L 662.553573 -86.616 
L 662.584444 -87.274909 
L 662.616205 -87.933818 
L 662.648713 -88.592727 
L 662.681828 -89.251636 
L 662.715404 -89.910545 
L 662.749296 -90.569455 
L 662.783358 -91.228364 
L 662.817445 -91.887273 
L 662.851412 -92.546182 
L 662.885114 -93.205091 
L 662.918411 -93.864 
L 662.95116 -94.522909 
L 662.983226 -95.181818 
L 663.014475 -95.840727 
L 663.044776 -96.499636 
L 663.074004 -97.158545 
L 663.102037 -97.817455 
L 663.12876 -98.476364 
L 663.154062 -99.135273 
L 663.177838 -99.794182 
L 663.199992 -100.453091 
L 663.220432 -101.112 
L 663.239074 -101.770909 
L 663.255842 -102.429818 
L 663.270667 -103.088727 
L 663.283488 -103.747636 
L 663.294254 -104.406545 
L 663.30292 -105.065455 
L 663.30945 -105.724364 
L 663.313819 -106.383273 
L 663.316007 -107.042182 
L 663.316007 -107.701091 
L 663.313819 -108.36 
L 663.30945 -109.018909 
L 663.30292 -109.677818 
L 663.294254 -110.336727 
L 663.283488 -110.995636 
L 663.270667 -111.654545 
L 663.255842 -112.313455 
L 663.239074 -112.972364 
L 663.220432 -113.631273 
L 663.199992 -114.290182 
L 663.177838 -114.949091 
L 663.154062 -115.608 
L 663.12876 -116.266909 
L 663.102037 -116.925818 
L 663.074004 -117.584727 
L 663.044776 -118.243636 
L 663.014475 -118.902545 
L 662.983226 -119.561455 
L 662.95116 -120.220364 
L 662.918411 -120.879273 
L 662.885114 -121.538182 
L 662.851412 -122.197091 
L 662.817445 -122.856 
L 662.783358 -123.514909 
L 662.749296 -124.173818 
L 662.715404 -124.832727 
L 662.681828 -125.491636 
L 662.648713 -126.150545 
L 662.616205 -126.809455 
L 662.584444 -127.468364 
L 662.553573 -128.127273 
L 662.523729 -128.786182 
L 662.495048 -129.445091 
L 662.46766 -130.104 
L 662.441693 -130.762909 
L 662.417271 -131.421818 
L 662.394511 -132.080727 
L 662.373525 -132.739636 
L 662.354421 -133.398545 
L 662.3373 -134.057455 
L 662.322255 -134.716364 
L 662.309375 -135.375273 
L 662.29874 -136.034182 
L 662.290423 -136.693091 
L 662.28449 -137.352 
L 662.280999 -138.010909 
L 662.28 -138.669818 
L 662.281536 -139.328727 
L 662.285641 -139.987636 
L 669.714359 -139.987636 
L 669.714359 -139.987636 
L 669.718464 -139.328727 
L 669.72 -138.669818 
L 669.719001 -138.010909 
L 669.71551 -137.352 
L 669.709577 -136.693091 
L 669.70126 -136.034182 
L 669.690625 -135.375273 
L 669.677745 -134.716364 
L 669.6627 -134.057455 
L 669.645579 -133.398545 
L 669.626475 -132.739636 
L 669.605489 -132.080727 
L 669.582729 -131.421818 
L 669.558307 -130.762909 
L 669.53234 -130.104 
L 669.504952 -129.445091 
L 669.476271 -128.786182 
L 669.446427 -128.127273 
L 669.415556 -127.468364 
L 669.383795 -126.809455 
L 669.351287 -126.150545 
L 669.318172 -125.491636 
L 669.284596 -124.832727 
L 669.250704 -124.173818 
L 669.216642 -123.514909 
L 669.182555 -122.856 
L 669.148588 -122.197091 
L 669.114886 -121.538182 
L 669.081589 -120.879273 
L 669.04884 -120.220364 
L 669.016774 -119.561455 
L 668.985525 -118.902545 
L 668.955224 -118.243636 
L 668.925996 -117.584727 
L 668.897963 -116.925818 
L 668.87124 -116.266909 
L 668.845938 -115.608 
L 668.822162 -114.949091 
L 668.800008 -114.290182 
L 668.779568 -113.631273 
L 668.760926 -112.972364 
L 668.744158 -112.313455 
L 668.729333 -111.654545 
L 668.716512 -110.995636 
L 668.705746 -110.336727 
L 668.69708 -109.677818 
L 668.69055 -109.018909 
L 668.686181 -108.36 
L 668.683993 -107.701091 
L 668.683993 -107.042182 
L 668.686181 -106.383273 
L 668.69055 -105.724364 
L 668.69708 -105.065455 
L 668.705746 -104.406545 
L 668.716512 -103.747636 
L 668.729333 -103.088727 
L 668.744158 -102.429818 
L 668.760926 -101.770909 
L 668.779568 -101.112 
L 668.800008 -100.453091 
L 668.822162 -99.794182 
L 668.845938 -99.135273 
L 668.87124 -98.476364 
L 668.897963 -97.817455 
L 668.925996 -97.158545 
L 668.955224 -96.499636 
L 668.985525 -95.840727 
L 669.016774 -95.181818 
L 669.04884 -94.522909 
L 669.081589 -93.864 
L 669.114886 -93.205091 
L 669.148588 -92.546182 
L 669.182555 -91.887273 
L 669.216642 -91.228364 
L 669.250704 -90.569455 
L 669.284596 -89.910545 
L 669.318172 -89.251636 
L 669.351287 -88.592727 
L 669.383795 -87.933818 
L 669.415556 -87.274909 
L 669.446427 -86.616 
L 669.476271 -85.957091 
L 669.504952 -85.298182 
L 669.53234 -84.639273 
L 669.558307 -83.980364 
L 669.582729 -83.321455 
L 669.605489 -82.662545 
L 669.626475 -82.003636 
L 669.645579 -81.344727 
L 669.6627 -80.685818 
L 669.677745 -80.026909 
L 669.690625 -79.368 
L 669.70126 -78.709091 
L 669.709577 -78.050182 
L 669.71551 -77.391273 
L 669.719001 -76.732364 
L 669.72 -76.073455 
L 669.718464 -75.414545 
L 669.714359 -74.755636 
z
" id="mccff9da0cf" style="stroke:#4c4c4c;stroke-width:1.5;"/>
    </defs>
    <g clip-path="url(#pe22d907c38)">
     <use style="fill:#5f9e6e;stroke:#4c4c4c;stroke-width:1.5;" x="0" xlink:href="#mccff9da0cf" y="432"/>
    </g>
   </g>
   <g id="line2d_6">
    <path clip-path="url(#pe22d907c38)" d="M 138.081587 312.471491 
L 301.118413 312.471491 
" style="fill:none;stroke:#4c4c4c;stroke-dasharray:3.375,3.375;stroke-dashoffset:0;stroke-width:1.5;"/>
   </g>
   <g id="line2d_7">
    <path clip-path="url(#pe22d907c38)" d="M 131.99359 290.826327 
L 307.20641 290.826327 
" style="fill:none;stroke:#4c4c4c;stroke-dasharray:6.75,6.75;stroke-dashoffset:0;stroke-width:1.5;"/>
   </g>
   <g id="line2d_8">
    <path clip-path="url(#pe22d907c38)" d="M 158.666403 254.948727 
L 280.533597 254.948727 
" style="fill:none;stroke:#4c4c4c;stroke-dasharray:3.375,3.375;stroke-dashoffset:0;stroke-width:1.5;"/>
   </g>
   <g id="line2d_9">
    <path clip-path="url(#pe22d907c38)" d="M 414.080693 285.785673 
L 471.519307 285.785673 
" style="fill:none;stroke:#4c4c4c;stroke-dasharray:3.375,3.375;stroke-dashoffset:0;stroke-width:1.5;"/>
   </g>
   <g id="line2d_10">
    <path clip-path="url(#pe22d907c38)" d="M 409.6548 262.361455 
L 475.9452 262.361455 
" style="fill:none;stroke:#4c4c4c;stroke-dasharray:6.75,6.75;stroke-dashoffset:0;stroke-width:1.5;"/>
   </g>
   <g id="line2d_11">
    <path clip-path="url(#pe22d907c38)" d="M 417.445733 230.338473 
L 468.154267 230.338473 
" style="fill:none;stroke:#4c4c4c;stroke-dasharray:3.375,3.375;stroke-dashoffset:0;stroke-width:1.5;"/>
   </g>
   <g id="line2d_12">
    <path clip-path="url(#pe22d907c38)" d="M 662.815525 340.936364 
L 669.184475 340.936364 
" style="fill:none;stroke:#4c4c4c;stroke-dasharray:3.375,3.375;stroke-dashoffset:0;stroke-width:1.5;"/>
   </g>
   <g id="line2d_13">
    <path clip-path="url(#pe22d907c38)" d="M 663.342847 324.628364 
L 668.657153 324.628364 
" style="fill:none;stroke:#4c4c4c;stroke-dasharray:6.75,6.75;stroke-dashoffset:0;stroke-width:1.5;"/>
   </g>
   <g id="line2d_14">
    <path clip-path="url(#pe22d907c38)" d="M 662.815525 308.320364 
L 669.184475 308.320364 
" style="fill:none;stroke:#4c4c4c;stroke-dasharray:3.375,3.375;stroke-dashoffset:0;stroke-width:1.5;"/>
   </g>
   <g id="patch_3">
    <path d="M 108 378 
L 108 51.84 
" style="fill:none;stroke:#ffffff;stroke-linecap:square;stroke-linejoin:miter;stroke-width:1.25;"/>
   </g>
   <g id="patch_4">
    <path d="M 777.6 378 
L 777.6 51.84 
" style="fill:none;stroke:#ffffff;stroke-linecap:square;stroke-linejoin:miter;stroke-width:1.25;"/>
   </g>
   <g id="patch_5">
    <path d="M 108 378 
L 777.6 378 
" style="fill:none;stroke:#ffffff;stroke-linecap:square;stroke-linejoin:miter;stroke-width:1.25;"/>
   </g>
   <g id="patch_6">
    <path d="M 108 51.84 
L 777.6 51.84 
" style="fill:none;stroke:#ffffff;stroke-linecap:square;stroke-linejoin:miter;stroke-width:1.25;"/>
   </g>
   <g id="text_11">
    <!-- Compensation by Employer Type -->
    <g style="fill:#262626;" transform="translate(354.5325 45.84)scale(0.12 -0.12)">
     <defs>
      <path d="M 3763 1606 
L 4369 1453 
Q 4178 706 3683 314 
Q 3188 -78 2472 -78 
Q 1731 -78 1267 223 
Q 803 525 561 1097 
Q 319 1669 319 2325 
Q 319 3041 592 3573 
Q 866 4106 1370 4382 
Q 1875 4659 2481 4659 
Q 3169 4659 3637 4309 
Q 4106 3959 4291 3325 
L 3694 3184 
Q 3534 3684 3231 3912 
Q 2928 4141 2469 4141 
Q 1941 4141 1586 3887 
Q 1231 3634 1087 3207 
Q 944 2781 944 2328 
Q 944 1744 1114 1308 
Q 1284 872 1643 656 
Q 2003 441 2422 441 
Q 2931 441 3284 734 
Q 3638 1028 3763 1606 
z
" id="ArialMT-43" transform="scale(0.015625)"/>
     </defs>
     <use xlink:href="#ArialMT-43"/>
     <use x="72.216797" xlink:href="#ArialMT-6f"/>
     <use x="127.832031" xlink:href="#ArialMT-6d"/>
     <use x="211.132812" xlink:href="#ArialMT-70"/>
     <use x="266.748047" xlink:href="#ArialMT-65"/>
     <use x="322.363281" xlink:href="#ArialMT-6e"/>
     <use x="377.978516" xlink:href="#ArialMT-73"/>
     <use x="427.978516" xlink:href="#ArialMT-61"/>
     <use x="483.59375" xlink:href="#ArialMT-74"/>
     <use x="511.376953" xlink:href="#ArialMT-69"/>
     <use x="533.59375" xlink:href="#ArialMT-6f"/>
     <use x="589.208984" xlink:href="#ArialMT-6e"/>
     <use x="644.824219" xlink:href="#ArialMT-20"/>
     <use x="672.607422" xlink:href="#ArialMT-62"/>
     <use x="728.222656" xlink:href="#ArialMT-79"/>
     <use x="778.222656" xlink:href="#ArialMT-20"/>
     <use x="806.005859" xlink:href="#ArialMT-45"/>
     <use x="872.705078" xlink:href="#ArialMT-6d"/>
     <use x="956.005859" xlink:href="#ArialMT-70"/>
     <use x="1011.621094" xlink:href="#ArialMT-6c"/>
     <use x="1033.837891" xlink:href="#ArialMT-6f"/>
     <use x="1089.453125" xlink:href="#ArialMT-79"/>
     <use x="1139.453125" xlink:href="#ArialMT-65"/>
     <use x="1195.068359" xlink:href="#ArialMT-72"/>
     <use x="1228.369141" xlink:href="#ArialMT-20"/>
     <use x="1254.402344" xlink:href="#ArialMT-54"/>
     <use x="1309.986328" xlink:href="#ArialMT-79"/>
     <use x="1359.986328" xlink:href="#ArialMT-70"/>
     <use x="1415.601562" xlink:href="#ArialMT-65"/>
    </g>
   </g>
  </g>
 </g>
 <defs>
  <clipPath id="pe22d907c38">
   <rect height="326.16" width="669.6" x="108" y="51.84"/>
  </clipPath>
 </defs>
</svg>
