<?xml version="1.0" encoding="utf-8" standalone="no"?>
<!DOCTYPE svg PUBLIC "-//W3C//DTD SVG 1.1//EN"
  "http://www.w3.org/Graphics/SVG/1.1/DTD/svg11.dtd">
<svg height="432pt" version="1.1" viewBox="0 0 864 432" width="864pt" xmlns="http://www.w3.org/2000/svg" xmlns:xlink="http://www.w3.org/1999/xlink">
 <metadata>
  <rdf:RDF xmlns:cc="http://creativecommons.org/ns#" xmlns:dc="http://purl.org/dc/elements/1.1/" xmlns:rdf="http://www.w3.org/1999/02/22-rdf-syntax-ns#">
   <cc:Work>
    <dc:type rdf:resource="http://purl.org/dc/dcmitype/StillImage"/>
    <dc:date>2021-12-27T06:11:39.369564</dc:date>
    <dc:format>image/svg+xml</dc:format>
    <dc:creator>
     <cc:Agent>
      <dc:title>Matplotlib v3.4.3, https://matplotlib.org/</dc:title>
     </cc:Agent>
    </dc:creator>
   </cc:Work>
  </rdf:RDF>
 </metadata>
 <defs>
  <style type="text/css">*{stroke-linecap:butt;stroke-linejoin:round;}</style>
 </defs>
 <g id="figure_1">
  <g id="patch_1">
   <path d="M 0 432 
L 864 432 
L 864 0 
L 0 0 
z
" style="fill:#ffffff;"/>
  </g>
  <g id="axes_1">
   <g id="patch_2">
    <path d="M 108 378 
L 777.6 378 
L 777.6 51.84 
L 108 51.84 
z
" style="fill:#eaeaf2;"/>
   </g>
   <g id="matplotlib.axis_1">
    <g id="xtick_1">
     <g id="line2d_1">
      <path clip-path="url(#pe8855b8906)" d="M 145.771754 378 
L 145.771754 51.84 
" style="fill:none;stroke:#ffffff;stroke-linecap:round;"/>
     </g>
     <g id="text_1">
      <!-- 50 -->
      <g style="fill:#262626;" transform="translate(139.654722 395.373594)scale(0.11 -0.11)">
       <defs>
        <path d="M 266 1200 
L 856 1250 
Q 922 819 1161 601 
Q 1400 384 1738 384 
Q 2144 384 2425 690 
Q 2706 997 2706 1503 
Q 2706 1984 2436 2262 
Q 2166 2541 1728 2541 
Q 1456 2541 1237 2417 
Q 1019 2294 894 2097 
L 366 2166 
L 809 4519 
L 3088 4519 
L 3088 3981 
L 1259 3981 
L 1013 2750 
Q 1425 3038 1878 3038 
Q 2478 3038 2890 2622 
Q 3303 2206 3303 1553 
Q 3303 931 2941 478 
Q 2500 -78 1738 -78 
Q 1113 -78 717 272 
Q 322 622 266 1200 
z
" id="ArialMT-35" transform="scale(0.015625)"/>
        <path d="M 266 2259 
Q 266 3072 433 3567 
Q 600 4063 929 4331 
Q 1259 4600 1759 4600 
Q 2128 4600 2406 4451 
Q 2684 4303 2865 4023 
Q 3047 3744 3150 3342 
Q 3253 2941 3253 2259 
Q 3253 1453 3087 958 
Q 2922 463 2592 192 
Q 2263 -78 1759 -78 
Q 1097 -78 719 397 
Q 266 969 266 2259 
z
M 844 2259 
Q 844 1131 1108 757 
Q 1372 384 1759 384 
Q 2147 384 2411 759 
Q 2675 1134 2675 2259 
Q 2675 3391 2411 3762 
Q 2147 4134 1753 4134 
Q 1366 4134 1134 3806 
Q 844 3388 844 2259 
z
" id="ArialMT-30" transform="scale(0.015625)"/>
       </defs>
       <use xlink:href="#ArialMT-35"/>
       <use x="55.615234" xlink:href="#ArialMT-30"/>
      </g>
     </g>
    </g>
    <g id="xtick_2">
     <g id="line2d_2">
      <path clip-path="url(#pe8855b8906)" d="M 251.85327 378 
L 251.85327 51.84 
" style="fill:none;stroke:#ffffff;stroke-linecap:round;"/>
     </g>
     <g id="text_2">
      <!-- 100 -->
      <g style="fill:#262626;" transform="translate(242.677723 395.373594)scale(0.11 -0.11)">
       <defs>
        <path d="M 2384 0 
L 1822 0 
L 1822 3584 
Q 1619 3391 1289 3197 
Q 959 3003 697 2906 
L 697 3450 
Q 1169 3672 1522 3987 
Q 1875 4303 2022 4600 
L 2384 4600 
L 2384 0 
z
" id="ArialMT-31" transform="scale(0.015625)"/>
       </defs>
       <use xlink:href="#ArialMT-31"/>
       <use x="55.615234" xlink:href="#ArialMT-30"/>
       <use x="111.230469" xlink:href="#ArialMT-30"/>
      </g>
     </g>
    </g>
    <g id="xtick_3">
     <g id="line2d_3">
      <path clip-path="url(#pe8855b8906)" d="M 357.934787 378 
L 357.934787 51.84 
" style="fill:none;stroke:#ffffff;stroke-linecap:round;"/>
     </g>
     <g id="text_3">
      <!-- 150 -->
      <g style="fill:#262626;" transform="translate(348.75924 395.373594)scale(0.11 -0.11)">
       <use xlink:href="#ArialMT-31"/>
       <use x="55.615234" xlink:href="#ArialMT-35"/>
       <use x="111.230469" xlink:href="#ArialMT-30"/>
      </g>
     </g>
    </g>
    <g id="xtick_4">
     <g id="line2d_4">
      <path clip-path="url(#pe8855b8906)" d="M 464.016303 378 
L 464.016303 51.84 
" style="fill:none;stroke:#ffffff;stroke-linecap:round;"/>
     </g>
     <g id="text_4">
      <!-- 200 -->
      <g style="fill:#262626;" transform="translate(454.840756 395.373594)scale(0.11 -0.11)">
       <defs>
        <path d="M 3222 541 
L 3222 0 
L 194 0 
Q 188 203 259 391 
Q 375 700 629 1000 
Q 884 1300 1366 1694 
Q 2113 2306 2375 2664 
Q 2638 3022 2638 3341 
Q 2638 3675 2398 3904 
Q 2159 4134 1775 4134 
Q 1369 4134 1125 3890 
Q 881 3647 878 3216 
L 300 3275 
Q 359 3922 746 4261 
Q 1134 4600 1788 4600 
Q 2447 4600 2831 4234 
Q 3216 3869 3216 3328 
Q 3216 3053 3103 2787 
Q 2991 2522 2730 2228 
Q 2469 1934 1863 1422 
Q 1356 997 1212 845 
Q 1069 694 975 541 
L 3222 541 
z
" id="ArialMT-32" transform="scale(0.015625)"/>
       </defs>
       <use xlink:href="#ArialMT-32"/>
       <use x="55.615234" xlink:href="#ArialMT-30"/>
       <use x="111.230469" xlink:href="#ArialMT-30"/>
      </g>
     </g>
    </g>
    <g id="xtick_5">
     <g id="line2d_5">
      <path clip-path="url(#pe8855b8906)" d="M 570.09782 378 
L 570.09782 51.84 
" style="fill:none;stroke:#ffffff;stroke-linecap:round;"/>
     </g>
     <g id="text_5">
      <!-- 250 -->
      <g style="fill:#262626;" transform="translate(560.922273 395.373594)scale(0.11 -0.11)">
       <use xlink:href="#ArialMT-32"/>
       <use x="55.615234" xlink:href="#ArialMT-35"/>
       <use x="111.230469" xlink:href="#ArialMT-30"/>
      </g>
     </g>
    </g>
    <g id="xtick_6">
     <g id="line2d_6">
      <path clip-path="url(#pe8855b8906)" d="M 676.179336 378 
L 676.179336 51.84 
" style="fill:none;stroke:#ffffff;stroke-linecap:round;"/>
     </g>
     <g id="text_6">
      <!-- 300 -->
      <g style="fill:#262626;" transform="translate(667.00379 395.373594)scale(0.11 -0.11)">
       <defs>
        <path d="M 269 1209 
L 831 1284 
Q 928 806 1161 595 
Q 1394 384 1728 384 
Q 2125 384 2398 659 
Q 2672 934 2672 1341 
Q 2672 1728 2419 1979 
Q 2166 2231 1775 2231 
Q 1616 2231 1378 2169 
L 1441 2663 
Q 1497 2656 1531 2656 
Q 1891 2656 2178 2843 
Q 2466 3031 2466 3422 
Q 2466 3731 2256 3934 
Q 2047 4138 1716 4138 
Q 1388 4138 1169 3931 
Q 950 3725 888 3313 
L 325 3413 
Q 428 3978 793 4289 
Q 1159 4600 1703 4600 
Q 2078 4600 2393 4439 
Q 2709 4278 2876 4000 
Q 3044 3722 3044 3409 
Q 3044 3113 2884 2869 
Q 2725 2625 2413 2481 
Q 2819 2388 3044 2092 
Q 3269 1797 3269 1353 
Q 3269 753 2831 336 
Q 2394 -81 1725 -81 
Q 1122 -81 723 278 
Q 325 638 269 1209 
z
" id="ArialMT-33" transform="scale(0.015625)"/>
       </defs>
       <use xlink:href="#ArialMT-33"/>
       <use x="55.615234" xlink:href="#ArialMT-30"/>
       <use x="111.230469" xlink:href="#ArialMT-30"/>
      </g>
     </g>
    </g>
    <g id="text_7">
     <!-- Financial Compensation (thousands) -->
     <g style="fill:#262626;" transform="translate(345.087188 410.295469)scale(0.12 -0.12)">
      <defs>
       <path d="M 525 0 
L 525 4581 
L 3616 4581 
L 3616 4041 
L 1131 4041 
L 1131 2622 
L 3281 2622 
L 3281 2081 
L 1131 2081 
L 1131 0 
L 525 0 
z
" id="ArialMT-46" transform="scale(0.015625)"/>
       <path d="M 425 3934 
L 425 4581 
L 988 4581 
L 988 3934 
L 425 3934 
z
M 425 0 
L 425 3319 
L 988 3319 
L 988 0 
L 425 0 
z
" id="ArialMT-69" transform="scale(0.015625)"/>
       <path d="M 422 0 
L 422 3319 
L 928 3319 
L 928 2847 
Q 1294 3394 1984 3394 
Q 2284 3394 2536 3286 
Q 2788 3178 2913 3003 
Q 3038 2828 3088 2588 
Q 3119 2431 3119 2041 
L 3119 0 
L 2556 0 
L 2556 2019 
Q 2556 2363 2490 2533 
Q 2425 2703 2258 2804 
Q 2091 2906 1866 2906 
Q 1506 2906 1245 2678 
Q 984 2450 984 1813 
L 984 0 
L 422 0 
z
" id="ArialMT-6e" transform="scale(0.015625)"/>
       <path d="M 2588 409 
Q 2275 144 1986 34 
Q 1697 -75 1366 -75 
Q 819 -75 525 192 
Q 231 459 231 875 
Q 231 1119 342 1320 
Q 453 1522 633 1644 
Q 813 1766 1038 1828 
Q 1203 1872 1538 1913 
Q 2219 1994 2541 2106 
Q 2544 2222 2544 2253 
Q 2544 2597 2384 2738 
Q 2169 2928 1744 2928 
Q 1347 2928 1158 2789 
Q 969 2650 878 2297 
L 328 2372 
Q 403 2725 575 2942 
Q 747 3159 1072 3276 
Q 1397 3394 1825 3394 
Q 2250 3394 2515 3294 
Q 2781 3194 2906 3042 
Q 3031 2891 3081 2659 
Q 3109 2516 3109 2141 
L 3109 1391 
Q 3109 606 3145 398 
Q 3181 191 3288 0 
L 2700 0 
Q 2613 175 2588 409 
z
M 2541 1666 
Q 2234 1541 1622 1453 
Q 1275 1403 1131 1340 
Q 988 1278 909 1158 
Q 831 1038 831 891 
Q 831 666 1001 516 
Q 1172 366 1500 366 
Q 1825 366 2078 508 
Q 2331 650 2450 897 
Q 2541 1088 2541 1459 
L 2541 1666 
z
" id="ArialMT-61" transform="scale(0.015625)"/>
       <path d="M 2588 1216 
L 3141 1144 
Q 3050 572 2676 248 
Q 2303 -75 1759 -75 
Q 1078 -75 664 370 
Q 250 816 250 1647 
Q 250 2184 428 2587 
Q 606 2991 970 3192 
Q 1334 3394 1763 3394 
Q 2303 3394 2647 3120 
Q 2991 2847 3088 2344 
L 2541 2259 
Q 2463 2594 2264 2762 
Q 2066 2931 1784 2931 
Q 1359 2931 1093 2626 
Q 828 2322 828 1663 
Q 828 994 1084 691 
Q 1341 388 1753 388 
Q 2084 388 2306 591 
Q 2528 794 2588 1216 
z
" id="ArialMT-63" transform="scale(0.015625)"/>
       <path d="M 409 0 
L 409 4581 
L 972 4581 
L 972 0 
L 409 0 
z
" id="ArialMT-6c" transform="scale(0.015625)"/>
       <path id="ArialMT-20" transform="scale(0.015625)"/>
       <path d="M 3763 1606 
L 4369 1453 
Q 4178 706 3683 314 
Q 3188 -78 2472 -78 
Q 1731 -78 1267 223 
Q 803 525 561 1097 
Q 319 1669 319 2325 
Q 319 3041 592 3573 
Q 866 4106 1370 4382 
Q 1875 4659 2481 4659 
Q 3169 4659 3637 4309 
Q 4106 3959 4291 3325 
L 3694 3184 
Q 3534 3684 3231 3912 
Q 2928 4141 2469 4141 
Q 1941 4141 1586 3887 
Q 1231 3634 1087 3207 
Q 944 2781 944 2328 
Q 944 1744 1114 1308 
Q 1284 872 1643 656 
Q 2003 441 2422 441 
Q 2931 441 3284 734 
Q 3638 1028 3763 1606 
z
" id="ArialMT-43" transform="scale(0.015625)"/>
       <path d="M 213 1659 
Q 213 2581 725 3025 
Q 1153 3394 1769 3394 
Q 2453 3394 2887 2945 
Q 3322 2497 3322 1706 
Q 3322 1066 3130 698 
Q 2938 331 2570 128 
Q 2203 -75 1769 -75 
Q 1072 -75 642 372 
Q 213 819 213 1659 
z
M 791 1659 
Q 791 1022 1069 705 
Q 1347 388 1769 388 
Q 2188 388 2466 706 
Q 2744 1025 2744 1678 
Q 2744 2294 2464 2611 
Q 2184 2928 1769 2928 
Q 1347 2928 1069 2612 
Q 791 2297 791 1659 
z
" id="ArialMT-6f" transform="scale(0.015625)"/>
       <path d="M 422 0 
L 422 3319 
L 925 3319 
L 925 2853 
Q 1081 3097 1340 3245 
Q 1600 3394 1931 3394 
Q 2300 3394 2536 3241 
Q 2772 3088 2869 2813 
Q 3263 3394 3894 3394 
Q 4388 3394 4653 3120 
Q 4919 2847 4919 2278 
L 4919 0 
L 4359 0 
L 4359 2091 
Q 4359 2428 4304 2576 
Q 4250 2725 4106 2815 
Q 3963 2906 3769 2906 
Q 3419 2906 3187 2673 
Q 2956 2441 2956 1928 
L 2956 0 
L 2394 0 
L 2394 2156 
Q 2394 2531 2256 2718 
Q 2119 2906 1806 2906 
Q 1569 2906 1367 2781 
Q 1166 2656 1075 2415 
Q 984 2175 984 1722 
L 984 0 
L 422 0 
z
" id="ArialMT-6d" transform="scale(0.015625)"/>
       <path d="M 422 -1272 
L 422 3319 
L 934 3319 
L 934 2888 
Q 1116 3141 1344 3267 
Q 1572 3394 1897 3394 
Q 2322 3394 2647 3175 
Q 2972 2956 3137 2557 
Q 3303 2159 3303 1684 
Q 3303 1175 3120 767 
Q 2938 359 2589 142 
Q 2241 -75 1856 -75 
Q 1575 -75 1351 44 
Q 1128 163 984 344 
L 984 -1272 
L 422 -1272 
z
M 931 1641 
Q 931 1000 1190 694 
Q 1450 388 1819 388 
Q 2194 388 2461 705 
Q 2728 1022 2728 1688 
Q 2728 2322 2467 2637 
Q 2206 2953 1844 2953 
Q 1484 2953 1207 2617 
Q 931 2281 931 1641 
z
" id="ArialMT-70" transform="scale(0.015625)"/>
       <path d="M 2694 1069 
L 3275 997 
Q 3138 488 2766 206 
Q 2394 -75 1816 -75 
Q 1088 -75 661 373 
Q 234 822 234 1631 
Q 234 2469 665 2931 
Q 1097 3394 1784 3394 
Q 2450 3394 2872 2941 
Q 3294 2488 3294 1666 
Q 3294 1616 3291 1516 
L 816 1516 
Q 847 969 1125 678 
Q 1403 388 1819 388 
Q 2128 388 2347 550 
Q 2566 713 2694 1069 
z
M 847 1978 
L 2700 1978 
Q 2663 2397 2488 2606 
Q 2219 2931 1791 2931 
Q 1403 2931 1139 2672 
Q 875 2413 847 1978 
z
" id="ArialMT-65" transform="scale(0.015625)"/>
       <path d="M 197 991 
L 753 1078 
Q 800 744 1014 566 
Q 1228 388 1613 388 
Q 2000 388 2187 545 
Q 2375 703 2375 916 
Q 2375 1106 2209 1216 
Q 2094 1291 1634 1406 
Q 1016 1563 777 1677 
Q 538 1791 414 1992 
Q 291 2194 291 2438 
Q 291 2659 392 2848 
Q 494 3038 669 3163 
Q 800 3259 1026 3326 
Q 1253 3394 1513 3394 
Q 1903 3394 2198 3281 
Q 2494 3169 2634 2976 
Q 2775 2784 2828 2463 
L 2278 2388 
Q 2241 2644 2061 2787 
Q 1881 2931 1553 2931 
Q 1166 2931 1000 2803 
Q 834 2675 834 2503 
Q 834 2394 903 2306 
Q 972 2216 1119 2156 
Q 1203 2125 1616 2013 
Q 2213 1853 2448 1751 
Q 2684 1650 2818 1456 
Q 2953 1263 2953 975 
Q 2953 694 2789 445 
Q 2625 197 2315 61 
Q 2006 -75 1616 -75 
Q 969 -75 630 194 
Q 291 463 197 991 
z
" id="ArialMT-73" transform="scale(0.015625)"/>
       <path d="M 1650 503 
L 1731 6 
Q 1494 -44 1306 -44 
Q 1000 -44 831 53 
Q 663 150 594 308 
Q 525 466 525 972 
L 525 2881 
L 113 2881 
L 113 3319 
L 525 3319 
L 525 4141 
L 1084 4478 
L 1084 3319 
L 1650 3319 
L 1650 2881 
L 1084 2881 
L 1084 941 
Q 1084 700 1114 631 
Q 1144 563 1211 522 
Q 1278 481 1403 481 
Q 1497 481 1650 503 
z
" id="ArialMT-74" transform="scale(0.015625)"/>
       <path d="M 1497 -1347 
Q 1031 -759 709 28 
Q 388 816 388 1659 
Q 388 2403 628 3084 
Q 909 3875 1497 4659 
L 1900 4659 
Q 1522 4009 1400 3731 
Q 1209 3300 1100 2831 
Q 966 2247 966 1656 
Q 966 153 1900 -1347 
L 1497 -1347 
z
" id="ArialMT-28" transform="scale(0.015625)"/>
       <path d="M 422 0 
L 422 4581 
L 984 4581 
L 984 2938 
Q 1378 3394 1978 3394 
Q 2347 3394 2619 3248 
Q 2891 3103 3008 2847 
Q 3125 2591 3125 2103 
L 3125 0 
L 2563 0 
L 2563 2103 
Q 2563 2525 2380 2717 
Q 2197 2909 1863 2909 
Q 1613 2909 1392 2779 
Q 1172 2650 1078 2428 
Q 984 2206 984 1816 
L 984 0 
L 422 0 
z
" id="ArialMT-68" transform="scale(0.015625)"/>
       <path d="M 2597 0 
L 2597 488 
Q 2209 -75 1544 -75 
Q 1250 -75 995 37 
Q 741 150 617 320 
Q 494 491 444 738 
Q 409 903 409 1263 
L 409 3319 
L 972 3319 
L 972 1478 
Q 972 1038 1006 884 
Q 1059 663 1231 536 
Q 1403 409 1656 409 
Q 1909 409 2131 539 
Q 2353 669 2445 892 
Q 2538 1116 2538 1541 
L 2538 3319 
L 3100 3319 
L 3100 0 
L 2597 0 
z
" id="ArialMT-75" transform="scale(0.015625)"/>
       <path d="M 2575 0 
L 2575 419 
Q 2259 -75 1647 -75 
Q 1250 -75 917 144 
Q 584 363 401 755 
Q 219 1147 219 1656 
Q 219 2153 384 2558 
Q 550 2963 881 3178 
Q 1213 3394 1622 3394 
Q 1922 3394 2156 3267 
Q 2391 3141 2538 2938 
L 2538 4581 
L 3097 4581 
L 3097 0 
L 2575 0 
z
M 797 1656 
Q 797 1019 1065 703 
Q 1334 388 1700 388 
Q 2069 388 2326 689 
Q 2584 991 2584 1609 
Q 2584 2291 2321 2609 
Q 2059 2928 1675 2928 
Q 1300 2928 1048 2622 
Q 797 2316 797 1656 
z
" id="ArialMT-64" transform="scale(0.015625)"/>
       <path d="M 791 -1347 
L 388 -1347 
Q 1322 153 1322 1656 
Q 1322 2244 1188 2822 
Q 1081 3291 891 3722 
Q 769 4003 388 4659 
L 791 4659 
Q 1378 3875 1659 3084 
Q 1900 2403 1900 1659 
Q 1900 816 1576 28 
Q 1253 -759 791 -1347 
z
" id="ArialMT-29" transform="scale(0.015625)"/>
      </defs>
      <use xlink:href="#ArialMT-46"/>
      <use x="61.083984" xlink:href="#ArialMT-69"/>
      <use x="83.300781" xlink:href="#ArialMT-6e"/>
      <use x="138.916016" xlink:href="#ArialMT-61"/>
      <use x="194.53125" xlink:href="#ArialMT-6e"/>
      <use x="250.146484" xlink:href="#ArialMT-63"/>
      <use x="300.146484" xlink:href="#ArialMT-69"/>
      <use x="322.363281" xlink:href="#ArialMT-61"/>
      <use x="377.978516" xlink:href="#ArialMT-6c"/>
      <use x="400.195312" xlink:href="#ArialMT-20"/>
      <use x="427.978516" xlink:href="#ArialMT-43"/>
      <use x="500.195312" xlink:href="#ArialMT-6f"/>
      <use x="555.810547" xlink:href="#ArialMT-6d"/>
      <use x="639.111328" xlink:href="#ArialMT-70"/>
      <use x="694.726562" xlink:href="#ArialMT-65"/>
      <use x="750.341797" xlink:href="#ArialMT-6e"/>
      <use x="805.957031" xlink:href="#ArialMT-73"/>
      <use x="855.957031" xlink:href="#ArialMT-61"/>
      <use x="911.572266" xlink:href="#ArialMT-74"/>
      <use x="939.355469" xlink:href="#ArialMT-69"/>
      <use x="961.572266" xlink:href="#ArialMT-6f"/>
      <use x="1017.1875" xlink:href="#ArialMT-6e"/>
      <use x="1072.802734" xlink:href="#ArialMT-20"/>
      <use x="1100.585938" xlink:href="#ArialMT-28"/>
      <use x="1133.886719" xlink:href="#ArialMT-74"/>
      <use x="1161.669922" xlink:href="#ArialMT-68"/>
      <use x="1217.285156" xlink:href="#ArialMT-6f"/>
      <use x="1272.900391" xlink:href="#ArialMT-75"/>
      <use x="1328.515625" xlink:href="#ArialMT-73"/>
      <use x="1378.515625" xlink:href="#ArialMT-61"/>
      <use x="1434.130859" xlink:href="#ArialMT-6e"/>
      <use x="1489.746094" xlink:href="#ArialMT-64"/>
      <use x="1545.361328" xlink:href="#ArialMT-73"/>
      <use x="1595.361328" xlink:href="#ArialMT-29"/>
     </g>
    </g>
   </g>
   <g id="matplotlib.axis_2">
    <g id="ytick_1">
     <g id="line2d_7">
      <path clip-path="url(#pe8855b8906)" d="M 108 378 
L 777.6 378 
" style="fill:none;stroke:#ffffff;stroke-linecap:round;"/>
     </g>
     <g id="text_8">
      <!-- 0.000 -->
      <g style="fill:#262626;" transform="translate(70.975938 381.936797)scale(0.11 -0.11)">
       <defs>
        <path d="M 581 0 
L 581 641 
L 1222 641 
L 1222 0 
L 581 0 
z
" id="ArialMT-2e" transform="scale(0.015625)"/>
       </defs>
       <use xlink:href="#ArialMT-30"/>
       <use x="55.615234" xlink:href="#ArialMT-2e"/>
       <use x="83.398438" xlink:href="#ArialMT-30"/>
       <use x="139.013672" xlink:href="#ArialMT-30"/>
       <use x="194.628906" xlink:href="#ArialMT-30"/>
      </g>
     </g>
    </g>
    <g id="ytick_2">
     <g id="line2d_8">
      <path clip-path="url(#pe8855b8906)" d="M 108 335.885661 
L 777.6 335.885661 
" style="fill:none;stroke:#ffffff;stroke-linecap:round;"/>
     </g>
     <g id="text_9">
      <!-- 0.002 -->
      <g style="fill:#262626;" transform="translate(70.975938 339.822458)scale(0.11 -0.11)">
       <use xlink:href="#ArialMT-30"/>
       <use x="55.615234" xlink:href="#ArialMT-2e"/>
       <use x="83.398438" xlink:href="#ArialMT-30"/>
       <use x="139.013672" xlink:href="#ArialMT-30"/>
       <use x="194.628906" xlink:href="#ArialMT-32"/>
      </g>
     </g>
    </g>
    <g id="ytick_3">
     <g id="line2d_9">
      <path clip-path="url(#pe8855b8906)" d="M 108 293.771323 
L 777.6 293.771323 
" style="fill:none;stroke:#ffffff;stroke-linecap:round;"/>
     </g>
     <g id="text_10">
      <!-- 0.004 -->
      <g style="fill:#262626;" transform="translate(70.975938 297.70812)scale(0.11 -0.11)">
       <defs>
        <path d="M 2069 0 
L 2069 1097 
L 81 1097 
L 81 1613 
L 2172 4581 
L 2631 4581 
L 2631 1613 
L 3250 1613 
L 3250 1097 
L 2631 1097 
L 2631 0 
L 2069 0 
z
M 2069 1613 
L 2069 3678 
L 634 1613 
L 2069 1613 
z
" id="ArialMT-34" transform="scale(0.015625)"/>
       </defs>
       <use xlink:href="#ArialMT-30"/>
       <use x="55.615234" xlink:href="#ArialMT-2e"/>
       <use x="83.398438" xlink:href="#ArialMT-30"/>
       <use x="139.013672" xlink:href="#ArialMT-30"/>
       <use x="194.628906" xlink:href="#ArialMT-34"/>
      </g>
     </g>
    </g>
    <g id="ytick_4">
     <g id="line2d_10">
      <path clip-path="url(#pe8855b8906)" d="M 108 251.656984 
L 777.6 251.656984 
" style="fill:none;stroke:#ffffff;stroke-linecap:round;"/>
     </g>
     <g id="text_11">
      <!-- 0.006 -->
      <g style="fill:#262626;" transform="translate(70.975938 255.593781)scale(0.11 -0.11)">
       <defs>
        <path d="M 3184 3459 
L 2625 3416 
Q 2550 3747 2413 3897 
Q 2184 4138 1850 4138 
Q 1581 4138 1378 3988 
Q 1113 3794 959 3422 
Q 806 3050 800 2363 
Q 1003 2672 1297 2822 
Q 1591 2972 1913 2972 
Q 2475 2972 2870 2558 
Q 3266 2144 3266 1488 
Q 3266 1056 3080 686 
Q 2894 316 2569 119 
Q 2244 -78 1831 -78 
Q 1128 -78 684 439 
Q 241 956 241 2144 
Q 241 3472 731 4075 
Q 1159 4600 1884 4600 
Q 2425 4600 2770 4297 
Q 3116 3994 3184 3459 
z
M 888 1484 
Q 888 1194 1011 928 
Q 1134 663 1356 523 
Q 1578 384 1822 384 
Q 2178 384 2434 671 
Q 2691 959 2691 1453 
Q 2691 1928 2437 2201 
Q 2184 2475 1800 2475 
Q 1419 2475 1153 2201 
Q 888 1928 888 1484 
z
" id="ArialMT-36" transform="scale(0.015625)"/>
       </defs>
       <use xlink:href="#ArialMT-30"/>
       <use x="55.615234" xlink:href="#ArialMT-2e"/>
       <use x="83.398438" xlink:href="#ArialMT-30"/>
       <use x="139.013672" xlink:href="#ArialMT-30"/>
       <use x="194.628906" xlink:href="#ArialMT-36"/>
      </g>
     </g>
    </g>
    <g id="ytick_5">
     <g id="line2d_11">
      <path clip-path="url(#pe8855b8906)" d="M 108 209.542646 
L 777.6 209.542646 
" style="fill:none;stroke:#ffffff;stroke-linecap:round;"/>
     </g>
     <g id="text_12">
      <!-- 0.008 -->
      <g style="fill:#262626;" transform="translate(70.975938 213.479442)scale(0.11 -0.11)">
       <defs>
        <path d="M 1131 2484 
Q 781 2613 612 2850 
Q 444 3088 444 3419 
Q 444 3919 803 4259 
Q 1163 4600 1759 4600 
Q 2359 4600 2725 4251 
Q 3091 3903 3091 3403 
Q 3091 3084 2923 2848 
Q 2756 2613 2416 2484 
Q 2838 2347 3058 2040 
Q 3278 1734 3278 1309 
Q 3278 722 2862 322 
Q 2447 -78 1769 -78 
Q 1091 -78 675 323 
Q 259 725 259 1325 
Q 259 1772 486 2073 
Q 713 2375 1131 2484 
z
M 1019 3438 
Q 1019 3113 1228 2906 
Q 1438 2700 1772 2700 
Q 2097 2700 2305 2904 
Q 2513 3109 2513 3406 
Q 2513 3716 2298 3927 
Q 2084 4138 1766 4138 
Q 1444 4138 1231 3931 
Q 1019 3725 1019 3438 
z
M 838 1322 
Q 838 1081 952 856 
Q 1066 631 1291 507 
Q 1516 384 1775 384 
Q 2178 384 2440 643 
Q 2703 903 2703 1303 
Q 2703 1709 2433 1975 
Q 2163 2241 1756 2241 
Q 1359 2241 1098 1978 
Q 838 1716 838 1322 
z
" id="ArialMT-38" transform="scale(0.015625)"/>
       </defs>
       <use xlink:href="#ArialMT-30"/>
       <use x="55.615234" xlink:href="#ArialMT-2e"/>
       <use x="83.398438" xlink:href="#ArialMT-30"/>
       <use x="139.013672" xlink:href="#ArialMT-30"/>
       <use x="194.628906" xlink:href="#ArialMT-38"/>
      </g>
     </g>
    </g>
    <g id="ytick_6">
     <g id="line2d_12">
      <path clip-path="url(#pe8855b8906)" d="M 108 167.428307 
L 777.6 167.428307 
" style="fill:none;stroke:#ffffff;stroke-linecap:round;"/>
     </g>
     <g id="text_13">
      <!-- 0.010 -->
      <g style="fill:#262626;" transform="translate(70.975938 171.365104)scale(0.11 -0.11)">
       <use xlink:href="#ArialMT-30"/>
       <use x="55.615234" xlink:href="#ArialMT-2e"/>
       <use x="83.398438" xlink:href="#ArialMT-30"/>
       <use x="139.013672" xlink:href="#ArialMT-31"/>
       <use x="194.628906" xlink:href="#ArialMT-30"/>
      </g>
     </g>
    </g>
    <g id="ytick_7">
     <g id="line2d_13">
      <path clip-path="url(#pe8855b8906)" d="M 108 125.313968 
L 777.6 125.313968 
" style="fill:none;stroke:#ffffff;stroke-linecap:round;"/>
     </g>
     <g id="text_14">
      <!-- 0.012 -->
      <g style="fill:#262626;" transform="translate(70.975938 129.250765)scale(0.11 -0.11)">
       <use xlink:href="#ArialMT-30"/>
       <use x="55.615234" xlink:href="#ArialMT-2e"/>
       <use x="83.398438" xlink:href="#ArialMT-30"/>
       <use x="139.013672" xlink:href="#ArialMT-31"/>
       <use x="194.628906" xlink:href="#ArialMT-32"/>
      </g>
     </g>
    </g>
    <g id="ytick_8">
     <g id="line2d_14">
      <path clip-path="url(#pe8855b8906)" d="M 108 83.19963 
L 777.6 83.19963 
" style="fill:none;stroke:#ffffff;stroke-linecap:round;"/>
     </g>
     <g id="text_15">
      <!-- 0.014 -->
      <g style="fill:#262626;" transform="translate(70.975938 87.136427)scale(0.11 -0.11)">
       <use xlink:href="#ArialMT-30"/>
       <use x="55.615234" xlink:href="#ArialMT-2e"/>
       <use x="83.398438" xlink:href="#ArialMT-30"/>
       <use x="139.013672" xlink:href="#ArialMT-31"/>
       <use x="194.628906" xlink:href="#ArialMT-34"/>
      </g>
     </g>
    </g>
    <g id="text_16">
     <!-- Density -->
     <g style="fill:#262626;" transform="translate(64.450312 234.92625)rotate(-90)scale(0.12 -0.12)">
      <defs>
       <path d="M 494 0 
L 494 4581 
L 2072 4581 
Q 2606 4581 2888 4516 
Q 3281 4425 3559 4188 
Q 3922 3881 4101 3404 
Q 4281 2928 4281 2316 
Q 4281 1794 4159 1391 
Q 4038 988 3847 723 
Q 3656 459 3429 307 
Q 3203 156 2883 78 
Q 2563 0 2147 0 
L 494 0 
z
M 1100 541 
L 2078 541 
Q 2531 541 2789 625 
Q 3047 709 3200 863 
Q 3416 1078 3536 1442 
Q 3656 1806 3656 2325 
Q 3656 3044 3420 3430 
Q 3184 3816 2847 3947 
Q 2603 4041 2063 4041 
L 1100 4041 
L 1100 541 
z
" id="ArialMT-44" transform="scale(0.015625)"/>
       <path d="M 397 -1278 
L 334 -750 
Q 519 -800 656 -800 
Q 844 -800 956 -737 
Q 1069 -675 1141 -563 
Q 1194 -478 1313 -144 
Q 1328 -97 1363 -6 
L 103 3319 
L 709 3319 
L 1400 1397 
Q 1534 1031 1641 628 
Q 1738 1016 1872 1384 
L 2581 3319 
L 3144 3319 
L 1881 -56 
Q 1678 -603 1566 -809 
Q 1416 -1088 1222 -1217 
Q 1028 -1347 759 -1347 
Q 597 -1347 397 -1278 
z
" id="ArialMT-79" transform="scale(0.015625)"/>
      </defs>
      <use xlink:href="#ArialMT-44"/>
      <use x="72.216797" xlink:href="#ArialMT-65"/>
      <use x="127.832031" xlink:href="#ArialMT-6e"/>
      <use x="183.447266" xlink:href="#ArialMT-73"/>
      <use x="233.447266" xlink:href="#ArialMT-69"/>
      <use x="255.664062" xlink:href="#ArialMT-74"/>
      <use x="283.447266" xlink:href="#ArialMT-79"/>
     </g>
    </g>
   </g>
   <g id="LineCollection_1">
    <path clip-path="url(#pe8855b8906)" d="M 315.50218 378 
L 315.50218 369.846 
" style="fill:none;stroke:#dd8452;"/>
    <path clip-path="url(#pe8855b8906)" d="M 294.285877 378 
L 294.285877 369.846 
" style="fill:none;stroke:#dd8452;"/>
    <path clip-path="url(#pe8855b8906)" d="M 355.813156 378 
L 355.813156 369.846 
" style="fill:none;stroke:#dd8452;"/>
    <path clip-path="url(#pe8855b8906)" d="M 283.677725 378 
L 283.677725 369.846 
" style="fill:none;stroke:#dd8452;"/>
    <path clip-path="url(#pe8855b8906)" d="M 368.542938 378 
L 368.542938 369.846 
" style="fill:none;stroke:#dd8452;"/>
    <path clip-path="url(#pe8855b8906)" d="M 315.50218 378 
L 315.50218 369.846 
" style="fill:none;stroke:#dd8452;"/>
    <path clip-path="url(#pe8855b8906)" d="M 317.62381 378 
L 317.62381 369.846 
" style="fill:none;stroke:#dd8452;"/>
    <path clip-path="url(#pe8855b8906)" d="M 177.596209 378 
L 177.596209 369.846 
" style="fill:none;stroke:#dd8452;"/>
    <path clip-path="url(#pe8855b8906)" d="M 421.583697 378 
L 421.583697 369.846 
" style="fill:none;stroke:#dd8452;"/>
    <path clip-path="url(#pe8855b8906)" d="M 389.759242 378 
L 389.759242 369.846 
" style="fill:none;stroke:#dd8452;"/>
    <path clip-path="url(#pe8855b8906)" d="M 553.124777 378 
L 553.124777 369.846 
" style="fill:none;stroke:#dd8452;"/>
    <path clip-path="url(#pe8855b8906)" d="M 277.312834 378 
L 277.312834 369.846 
" style="fill:none;stroke:#dd8452;"/>
    <path clip-path="url(#pe8855b8906)" d="M 383.394351 378 
L 383.394351 369.846 
" style="fill:none;stroke:#dd8452;"/>
    <path clip-path="url(#pe8855b8906)" d="M 601.922275 378 
L 601.922275 369.846 
" style="fill:none;stroke:#dd8452;"/>
    <path clip-path="url(#pe8855b8906)" d="M 294.285877 378 
L 294.285877 369.846 
" style="fill:none;stroke:#dd8452;"/>
    <path clip-path="url(#pe8855b8906)" d="M 188.20436 378 
L 188.20436 369.846 
" style="fill:none;stroke:#dd8452;"/>
    <path clip-path="url(#pe8855b8906)" d="M 389.759242 378 
L 389.759242 369.846 
" style="fill:none;stroke:#dd8452;"/>
    <path clip-path="url(#pe8855b8906)" d="M 708.003791 378 
L 708.003791 369.846 
" style="fill:none;stroke:#dd8452;"/>
    <path clip-path="url(#pe8855b8906)" d="M 234.880227 378 
L 234.880227 369.846 
" style="fill:none;stroke:#dd8452;"/>
    <path clip-path="url(#pe8855b8906)" d="M 353.691526 378 
L 353.691526 369.846 
" style="fill:none;stroke:#dd8452;"/>
    <path clip-path="url(#pe8855b8906)" d="M 226.393706 378 
L 226.393706 369.846 
" style="fill:none;stroke:#dd8452;"/>
    <path clip-path="url(#pe8855b8906)" d="M 266.704682 378 
L 266.704682 369.846 
" style="fill:none;stroke:#dd8452;"/>
    <path clip-path="url(#pe8855b8906)" d="M 215.785555 378 
L 215.785555 369.846 
" style="fill:none;stroke:#dd8452;"/>
    <path clip-path="url(#pe8855b8906)" d="M 230.636967 378 
L 230.636967 369.846 
" style="fill:none;stroke:#dd8452;"/>
    <path clip-path="url(#pe8855b8906)" d="M 209.420664 378 
L 209.420664 369.846 
" style="fill:none;stroke:#dd8452;"/>
    <path clip-path="url(#pe8855b8906)" d="M 379.15109 378 
L 379.15109 369.846 
" style="fill:none;stroke:#dd8452;"/>
    <path clip-path="url(#pe8855b8906)" d="M 315.50218 378 
L 315.50218 369.846 
" style="fill:none;stroke:#dd8452;"/>
    <path clip-path="url(#pe8855b8906)" d="M 368.542938 378 
L 368.542938 369.846 
" style="fill:none;stroke:#dd8452;"/>
    <path clip-path="url(#pe8855b8906)" d="M 304.894028 378 
L 304.894028 369.846 
" style="fill:none;stroke:#dd8452;"/>
    <path clip-path="url(#pe8855b8906)" d="M 209.420664 378 
L 209.420664 369.846 
" style="fill:none;stroke:#dd8452;"/>
    <path clip-path="url(#pe8855b8906)" d="M 426.675609 378 
L 426.675609 369.846 
" style="fill:none;stroke:#dd8452;"/>
    <path clip-path="url(#pe8855b8906)" d="M 315.50218 378 
L 315.50218 369.846 
" style="fill:none;stroke:#dd8452;"/>
    <path clip-path="url(#pe8855b8906)" d="M 410.975545 378 
L 410.975545 369.846 
" style="fill:none;stroke:#dd8452;"/>
    <path clip-path="url(#pe8855b8906)" d="M 304.894028 378 
L 304.894028 369.846 
" style="fill:none;stroke:#dd8452;"/>
    <path clip-path="url(#pe8855b8906)" d="M 474.624455 378 
L 474.624455 369.846 
" style="fill:none;stroke:#dd8452;"/>
    <path clip-path="url(#pe8855b8906)" d="M 251.85327 378 
L 251.85327 369.846 
" style="fill:none;stroke:#dd8452;"/>
    <path clip-path="url(#pe8855b8906)" d="M 379.15109 378 
L 379.15109 369.846 
" style="fill:none;stroke:#dd8452;"/>
    <path clip-path="url(#pe8855b8906)" d="M 283.677725 378 
L 283.677725 369.846 
" style="fill:none;stroke:#dd8452;"/>
    <path clip-path="url(#pe8855b8906)" d="M 281.556095 378 
L 281.556095 369.846 
" style="fill:none;stroke:#dd8452;"/>
    <path clip-path="url(#pe8855b8906)" d="M 423.705327 378 
L 423.705327 369.846 
" style="fill:none;stroke:#dd8452;"/>
    <path clip-path="url(#pe8855b8906)" d="M 262.461422 378 
L 262.461422 369.846 
" style="fill:none;stroke:#dd8452;"/>
    <path clip-path="url(#pe8855b8906)" d="M 309.137289 378 
L 309.137289 369.846 
" style="fill:none;stroke:#dd8452;"/>
    <path clip-path="url(#pe8855b8906)" d="M 570.09782 378 
L 570.09782 369.846 
" style="fill:none;stroke:#dd8452;"/>
    <path clip-path="url(#pe8855b8906)" d="M 326.110332 378 
L 326.110332 369.846 
" style="fill:none;stroke:#dd8452;"/>
    <path clip-path="url(#pe8855b8906)" d="M 326.110332 378 
L 326.110332 369.846 
" style="fill:none;stroke:#dd8452;"/>
    <path clip-path="url(#pe8855b8906)" d="M 432.191848 378 
L 432.191848 369.846 
" style="fill:none;stroke:#dd8452;"/>
    <path clip-path="url(#pe8855b8906)" d="M 360.056417 378 
L 360.056417 369.846 
" style="fill:none;stroke:#dd8452;"/>
    <path clip-path="url(#pe8855b8906)" d="M 294.285877 378 
L 294.285877 369.846 
" style="fill:none;stroke:#dd8452;"/>
    <path clip-path="url(#pe8855b8906)" d="M 379.15109 378 
L 379.15109 369.846 
" style="fill:none;stroke:#dd8452;"/>
    <path clip-path="url(#pe8855b8906)" d="M 315.50218 378 
L 315.50218 369.846 
" style="fill:none;stroke:#dd8452;"/>
    <path clip-path="url(#pe8855b8906)" d="M 294.285877 378 
L 294.285877 369.846 
" style="fill:none;stroke:#dd8452;"/>
    <path clip-path="url(#pe8855b8906)" d="M 273.069573 378 
L 273.069573 369.846 
" style="fill:none;stroke:#dd8452;"/>
    <path clip-path="url(#pe8855b8906)" d="M 400.367393 378 
L 400.367393 369.846 
" style="fill:none;stroke:#dd8452;"/>
    <path clip-path="url(#pe8855b8906)" d="M 194.569251 378 
L 194.569251 369.846 
" style="fill:none;stroke:#dd8452;"/>
    <path clip-path="url(#pe8855b8906)" d="M 260.339791 378 
L 260.339791 369.846 
" style="fill:none;stroke:#dd8452;"/>
    <path clip-path="url(#pe8855b8906)" d="M 464.016303 378 
L 464.016303 369.846 
" style="fill:none;stroke:#dd8452;"/>
    <path clip-path="url(#pe8855b8906)" d="M 209.420664 378 
L 209.420664 369.846 
" style="fill:none;stroke:#dd8452;"/>
    <path clip-path="url(#pe8855b8906)" d="M 347.326635 378 
L 347.326635 369.846 
" style="fill:none;stroke:#dd8452;"/>
    <path clip-path="url(#pe8855b8906)" d="M 304.894028 378 
L 304.894028 369.846 
" style="fill:none;stroke:#dd8452;"/>
    <path clip-path="url(#pe8855b8906)" d="M 347.326635 378 
L 347.326635 369.846 
" style="fill:none;stroke:#dd8452;"/>
    <path clip-path="url(#pe8855b8906)" d="M 351.569896 378 
L 351.569896 369.846 
" style="fill:none;stroke:#dd8452;"/>
    <path clip-path="url(#pe8855b8906)" d="M 290.042616 378 
L 290.042616 369.846 
" style="fill:none;stroke:#dd8452;"/>
    <path clip-path="url(#pe8855b8906)" d="M 313.38055 378 
L 313.38055 369.846 
" style="fill:none;stroke:#dd8452;"/>
    <path clip-path="url(#pe8855b8906)" d="M 410.975545 378 
L 410.975545 369.846 
" style="fill:none;stroke:#dd8452;"/>
   </g>
   <g id="line2d_15">
    <path clip-path="url(#pe8855b8906)" d="M 138.436364 377.746037 
L 141.495295 377.493312 
L 144.554226 377.039929 
L 147.613157 376.271092 
L 150.672088 375.03845 
L 153.731019 373.169507 
L 156.78995 370.488606 
L 159.848881 366.848425 
L 162.907812 362.166266 
L 165.966743 356.455225 
L 169.025674 349.838716 
L 172.084605 342.539394 
L 184.320329 311.817762 
L 193.497122 290.144183 
L 199.614984 275.895653 
L 202.673915 269.332177 
L 205.732846 263.728159 
L 208.791777 259.571621 
L 211.850708 257.237177 
L 214.909639 256.892692 
L 217.96857 258.474944 
L 221.027501 261.730747 
L 224.086432 266.287703 
L 227.145363 271.709955 
L 233.263225 283.153133 
L 236.322156 288.008211 
L 239.381087 291.418232 
L 242.440018 292.766495 
L 245.498949 291.597748 
L 248.55788 287.720096 
L 251.616811 281.244989 
L 254.675742 272.543428 
L 257.734673 262.132529 
L 260.793604 250.535955 
L 263.852535 238.170876 
L 269.970397 212.056008 
L 285.265053 144.446673 
L 288.323984 132.01479 
L 291.382915 120.316295 
L 294.441846 109.419207 
L 297.500777 99.490632 
L 300.559708 90.95184 
L 303.618639 84.581779 
L 306.67757 81.489893 
L 309.736501 82.918732 
L 312.795432 89.904699 
L 315.854363 102.893258 
L 318.913294 121.441021 
L 321.972225 144.122129 
L 328.090087 192.495397 
L 331.149018 212.967815 
L 334.207949 228.168646 
L 337.26688 237.131268 
L 340.325811 239.988071 
L 343.384742 237.832324 
L 346.443673 232.368373 
L 352.561535 218.676334 
L 355.620466 213.046423 
L 358.679397 208.933422 
L 361.738328 206.182878 
L 364.797259 204.382948 
L 367.85619 203.160302 
L 370.915121 202.399662 
L 373.974052 202.316436 
L 377.032983 203.370256 
L 380.091914 206.06486 
L 383.150845 210.716543 
L 386.209776 217.278456 
L 389.268707 225.282357 
L 392.327638 233.914824 
L 395.386569 242.199172 
L 398.4455 249.223496 
L 401.504431 254.348376 
L 404.563362 257.343173 
L 407.622293 258.427585 
L 410.681224 258.222206 
L 413.740155 257.629093 
L 416.799086 257.669087 
L 419.858017 259.301601 
L 422.916948 263.251446 
L 425.975879 269.868679 
L 429.03481 279.048493 
L 432.093741 290.23285 
L 438.211603 314.731537 
L 441.270534 325.807992 
L 444.329466 334.810896 
L 447.388397 341.167054 
L 450.447328 344.723044 
L 453.506259 345.739063 
L 456.56519 344.813357 
L 459.624121 342.758365 
L 462.683052 340.454053 
L 465.741983 338.703847 
L 468.800914 338.115834 
L 471.859845 339.02694 
L 474.918776 341.480294 
L 477.977707 345.256325 
L 481.036638 349.947528 
L 487.1545 360.103994 
L 490.213431 364.694854 
L 493.272362 368.57843 
L 496.331293 371.649352 
L 499.390224 373.925914 
L 502.449155 375.509012 
L 505.508086 376.537129 
L 508.567017 377.14791 
L 511.625948 377.451324 
L 514.684879 377.514526 
L 517.74381 377.355895 
L 520.802741 376.945753 
L 523.861672 376.212998 
L 526.920603 375.058689 
L 529.979534 373.378021 
L 533.038465 371.090076 
L 536.097396 368.170768 
L 539.156327 364.680285 
L 545.274189 356.696007 
L 548.33312 352.737499 
L 551.392051 349.199856 
L 554.450982 346.345906 
L 557.509913 344.369686 
L 560.568844 343.382228 
L 563.627775 343.408711 
L 566.686706 344.387557 
L 569.745637 346.166451 
L 572.804568 348.499942 
L 578.92243 353.479896 
L 581.981361 355.408409 
L 585.040292 356.60226 
L 588.099223 356.989857 
L 591.158154 356.70374 
L 597.276016 355.4634 
L 600.334947 355.333518 
L 603.393878 355.963377 
L 606.45281 357.46638 
L 609.511741 359.757978 
L 612.570672 362.596261 
L 618.688534 368.628652 
L 621.747465 371.258898 
L 624.806396 373.408078 
L 627.865327 375.038495 
L 630.924258 376.191829 
L 633.983189 376.954917 
L 637.04212 377.428212 
L 640.101051 377.703851 
L 646.218913 377.932347 
L 658.454637 377.98234 
L 667.63143 377.821343 
L 670.690361 377.641301 
L 673.749292 377.318119 
L 676.808223 376.772971 
L 679.867154 375.909962 
L 682.926085 374.6302 
L 685.985016 372.857146 
L 689.043947 370.570585 
L 692.102878 367.8409 
L 698.22074 361.88957 
L 701.279671 359.316492 
L 704.338602 357.490271 
L 707.397533 356.688615 
L 710.456464 357.038921 
L 713.515395 358.485122 
L 716.574326 360.802384 
L 719.633257 363.654328 
L 722.692188 366.672768 
L 725.751119 369.534027 
L 728.81005 372.010643 
L 731.868981 373.989175 
L 734.927912 375.457637 
L 737.986843 376.474573 
L 741.045774 377.133645 
L 744.104705 377.534253 
L 747.163636 377.762996 
L 747.163636 377.762996 
" style="fill:none;stroke:#4c72b0;stroke-linecap:round;stroke-width:1.5;"/>
   </g>
   <g id="patch_3">
    <path d="M 108 378 
L 108 51.84 
" style="fill:none;stroke:#ffffff;stroke-linecap:square;stroke-linejoin:miter;stroke-width:1.25;"/>
   </g>
   <g id="patch_4">
    <path d="M 777.6 378 
L 777.6 51.84 
" style="fill:none;stroke:#ffffff;stroke-linecap:square;stroke-linejoin:miter;stroke-width:1.25;"/>
   </g>
   <g id="patch_5">
    <path d="M 108 378 
L 777.6 378 
" style="fill:none;stroke:#ffffff;stroke-linecap:square;stroke-linejoin:miter;stroke-width:1.25;"/>
   </g>
   <g id="patch_6">
    <path d="M 108 51.84 
L 777.6 51.84 
" style="fill:none;stroke:#ffffff;stroke-linecap:square;stroke-linejoin:miter;stroke-width:1.25;"/>
   </g>
   <g id="text_17">
    <!-- Distribution of Financial Compensation (2021) -->
    <g style="fill:#262626;" transform="translate(321.079688 45.84)scale(0.12 -0.12)">
     <defs>
      <path d="M 416 0 
L 416 3319 
L 922 3319 
L 922 2816 
Q 1116 3169 1280 3281 
Q 1444 3394 1641 3394 
Q 1925 3394 2219 3213 
L 2025 2691 
Q 1819 2813 1613 2813 
Q 1428 2813 1281 2702 
Q 1134 2591 1072 2394 
Q 978 2094 978 1738 
L 978 0 
L 416 0 
z
" id="ArialMT-72" transform="scale(0.015625)"/>
      <path d="M 941 0 
L 419 0 
L 419 4581 
L 981 4581 
L 981 2947 
Q 1338 3394 1891 3394 
Q 2197 3394 2470 3270 
Q 2744 3147 2920 2923 
Q 3097 2700 3197 2384 
Q 3297 2069 3297 1709 
Q 3297 856 2875 390 
Q 2453 -75 1863 -75 
Q 1275 -75 941 416 
L 941 0 
z
M 934 1684 
Q 934 1088 1097 822 
Q 1363 388 1816 388 
Q 2184 388 2453 708 
Q 2722 1028 2722 1663 
Q 2722 2313 2464 2622 
Q 2206 2931 1841 2931 
Q 1472 2931 1203 2611 
Q 934 2291 934 1684 
z
" id="ArialMT-62" transform="scale(0.015625)"/>
      <path d="M 556 0 
L 556 2881 
L 59 2881 
L 59 3319 
L 556 3319 
L 556 3672 
Q 556 4006 616 4169 
Q 697 4388 901 4523 
Q 1106 4659 1475 4659 
Q 1713 4659 2000 4603 
L 1916 4113 
Q 1741 4144 1584 4144 
Q 1328 4144 1222 4034 
Q 1116 3925 1116 3625 
L 1116 3319 
L 1763 3319 
L 1763 2881 
L 1116 2881 
L 1116 0 
L 556 0 
z
" id="ArialMT-66" transform="scale(0.015625)"/>
     </defs>
     <use xlink:href="#ArialMT-44"/>
     <use x="72.216797" xlink:href="#ArialMT-69"/>
     <use x="94.433594" xlink:href="#ArialMT-73"/>
     <use x="144.433594" xlink:href="#ArialMT-74"/>
     <use x="172.216797" xlink:href="#ArialMT-72"/>
     <use x="205.517578" xlink:href="#ArialMT-69"/>
     <use x="227.734375" xlink:href="#ArialMT-62"/>
     <use x="283.349609" xlink:href="#ArialMT-75"/>
     <use x="338.964844" xlink:href="#ArialMT-74"/>
     <use x="366.748047" xlink:href="#ArialMT-69"/>
     <use x="388.964844" xlink:href="#ArialMT-6f"/>
     <use x="444.580078" xlink:href="#ArialMT-6e"/>
     <use x="500.195312" xlink:href="#ArialMT-20"/>
     <use x="527.978516" xlink:href="#ArialMT-6f"/>
     <use x="583.59375" xlink:href="#ArialMT-66"/>
     <use x="611.376953" xlink:href="#ArialMT-20"/>
     <use x="639.160156" xlink:href="#ArialMT-46"/>
     <use x="700.244141" xlink:href="#ArialMT-69"/>
     <use x="722.460938" xlink:href="#ArialMT-6e"/>
     <use x="778.076172" xlink:href="#ArialMT-61"/>
     <use x="833.691406" xlink:href="#ArialMT-6e"/>
     <use x="889.306641" xlink:href="#ArialMT-63"/>
     <use x="939.306641" xlink:href="#ArialMT-69"/>
     <use x="961.523438" xlink:href="#ArialMT-61"/>
     <use x="1017.138672" xlink:href="#ArialMT-6c"/>
     <use x="1039.355469" xlink:href="#ArialMT-20"/>
     <use x="1067.138672" xlink:href="#ArialMT-43"/>
     <use x="1139.355469" xlink:href="#ArialMT-6f"/>
     <use x="1194.970703" xlink:href="#ArialMT-6d"/>
     <use x="1278.271484" xlink:href="#ArialMT-70"/>
     <use x="1333.886719" xlink:href="#ArialMT-65"/>
     <use x="1389.501953" xlink:href="#ArialMT-6e"/>
     <use x="1445.117188" xlink:href="#ArialMT-73"/>
     <use x="1495.117188" xlink:href="#ArialMT-61"/>
     <use x="1550.732422" xlink:href="#ArialMT-74"/>
     <use x="1578.515625" xlink:href="#ArialMT-69"/>
     <use x="1600.732422" xlink:href="#ArialMT-6f"/>
     <use x="1656.347656" xlink:href="#ArialMT-6e"/>
     <use x="1711.962891" xlink:href="#ArialMT-20"/>
     <use x="1739.746094" xlink:href="#ArialMT-28"/>
     <use x="1773.046875" xlink:href="#ArialMT-32"/>
     <use x="1828.662109" xlink:href="#ArialMT-30"/>
     <use x="1884.277344" xlink:href="#ArialMT-32"/>
     <use x="1939.892578" xlink:href="#ArialMT-31"/>
     <use x="1995.507812" xlink:href="#ArialMT-29"/>
    </g>
   </g>
  </g>
 </g>
 <defs>
  <clipPath id="pe8855b8906">
   <rect height="326.16" width="669.6" x="108" y="51.84"/>
  </clipPath>
 </defs>
</svg>
