<?xml version="1.0" encoding="utf-8" standalone="no"?>
<!DOCTYPE svg PUBLIC "-//W3C//DTD SVG 1.1//EN"
  "http://www.w3.org/Graphics/SVG/1.1/DTD/svg11.dtd">
<svg height="288pt" version="1.1" viewBox="0 0 432 288" width="432pt" xmlns="http://www.w3.org/2000/svg" xmlns:xlink="http://www.w3.org/1999/xlink">
 <metadata>
  <rdf:RDF xmlns:cc="http://creativecommons.org/ns#" xmlns:dc="http://purl.org/dc/elements/1.1/" xmlns:rdf="http://www.w3.org/1999/02/22-rdf-syntax-ns#">
   <cc:Work>
    <dc:type rdf:resource="http://purl.org/dc/dcmitype/StillImage"/>
    <dc:date>2022-01-07T21:56:05.083747</dc:date>
    <dc:format>image/svg+xml</dc:format>
    <dc:creator>
     <cc:Agent>
      <dc:title>Matplotlib v3.4.3, https://matplotlib.org/</dc:title>
     </cc:Agent>
    </dc:creator>
   </cc:Work>
  </rdf:RDF>
 </metadata>
 <defs>
  <style type="text/css">*{stroke-linecap:butt;stroke-linejoin:round;}</style>
 </defs>
 <g id="figure_1">
  <g id="patch_1">
   <path d="M 0 288 
L 432 288 
L 432 0 
L 0 0 
z
" style="fill:none;"/>
  </g>
  <g id="axes_1">
   <g id="patch_2">
    <path d="M 320.189051 143.259051 
C 320.189051 125.724095 315.503683 108.503534 306.619537 93.385776 
C 297.73539 78.268018 284.971044 65.795172 269.652114 57.262584 
C 254.333185 48.729996 237.008995 44.443636 219.478718 44.848656 
C 201.948441 45.253676 184.840696 50.335553 169.932176 59.566517 
C 155.023656 68.797481 142.848968 81.846518 134.672491 97.358446 
C 126.496014 112.870373 122.610949 130.288946 123.420773 147.805191 
C 124.230597 165.321436 129.70627 182.307237 139.279126 196.998563 
C 148.851983 211.68989 162.178748 223.559925 177.875396 231.375929 
L 221.752395 143.259051 
L 320.189051 143.259051 
z
" style="fill:#1f77b4;"/>
   </g>
   <g id="patch_3">
    <path d="M 177.875396 231.375929 
C 186.030388 235.436633 194.709756 238.345664 203.664701 240.019634 
C 212.619646 241.693604 221.763779 242.116364 230.834979 241.275794 
L 221.752395 143.259051 
L 177.875396 231.375929 
z
" style="fill:#ff7f0e;"/>
   </g>
   <g id="patch_4">
    <path d="M 230.834979 241.275794 
C 239.906178 240.435224 248.816933 238.339434 257.311812 235.0485 
C 265.806692 231.757567 273.803744 227.303239 281.07373 221.8132 
L 221.752395 143.259051 
L 230.834979 241.275794 
z
" style="fill:#2ca02c;"/>
   </g>
   <g id="patch_5">
    <path d="M 281.07373 221.8132 
C 287.129102 217.240396 292.635473 211.982718 297.483057 206.144996 
C 302.33064 200.307274 306.487003 193.928564 309.869275 187.136045 
L 221.752395 143.259051 
L 281.07373 221.8132 
z
" style="fill:#d62728;"/>
   </g>
   <g id="patch_6">
    <path d="M 309.869275 187.136045 
C 311.897199 183.063426 313.64034 178.855112 315.086158 174.541377 
C 316.531976 170.227642 317.676996 165.818857 318.51298 161.34674 
L 221.752395 143.259051 
L 309.869275 187.136045 
z
" style="fill:#9467bd;"/>
   </g>
   <g id="patch_7">
    <path d="M 318.51298 161.34674 
C 319.070178 158.365991 319.489345 155.361086 319.769138 152.34164 
C 320.04893 149.322195 320.189051 146.291433 320.189051 143.259052 
L 221.752395 143.259051 
L 318.51298 161.34674 
z
" style="fill:#8c564b;"/>
   </g>
   <g id="matplotlib.axis_1"/>
   <g id="matplotlib.axis_2"/>
   <g id="text_1">
    <!-- Development -->
    <g transform="translate(100.01929 58.141265)scale(0.1 -0.1)">
     <defs>
      <path d="M 1259 4147 
L 1259 519 
L 2022 519 
Q 2988 519 3436 956 
Q 3884 1394 3884 2338 
Q 3884 3275 3436 3711 
Q 2988 4147 2022 4147 
L 1259 4147 
z
M 628 4666 
L 1925 4666 
Q 3281 4666 3915 4102 
Q 4550 3538 4550 2338 
Q 4550 1131 3912 565 
Q 3275 0 1925 0 
L 628 0 
L 628 4666 
z
" id="DejaVuSans-44" transform="scale(0.015625)"/>
      <path d="M 3597 1894 
L 3597 1613 
L 953 1613 
Q 991 1019 1311 708 
Q 1631 397 2203 397 
Q 2534 397 2845 478 
Q 3156 559 3463 722 
L 3463 178 
Q 3153 47 2828 -22 
Q 2503 -91 2169 -91 
Q 1331 -91 842 396 
Q 353 884 353 1716 
Q 353 2575 817 3079 
Q 1281 3584 2069 3584 
Q 2775 3584 3186 3129 
Q 3597 2675 3597 1894 
z
M 3022 2063 
Q 3016 2534 2758 2815 
Q 2500 3097 2075 3097 
Q 1594 3097 1305 2825 
Q 1016 2553 972 2059 
L 3022 2063 
z
" id="DejaVuSans-65" transform="scale(0.015625)"/>
      <path d="M 191 3500 
L 800 3500 
L 1894 563 
L 2988 3500 
L 3597 3500 
L 2284 0 
L 1503 0 
L 191 3500 
z
" id="DejaVuSans-76" transform="scale(0.015625)"/>
      <path d="M 603 4863 
L 1178 4863 
L 1178 0 
L 603 0 
L 603 4863 
z
" id="DejaVuSans-6c" transform="scale(0.015625)"/>
      <path d="M 1959 3097 
Q 1497 3097 1228 2736 
Q 959 2375 959 1747 
Q 959 1119 1226 758 
Q 1494 397 1959 397 
Q 2419 397 2687 759 
Q 2956 1122 2956 1747 
Q 2956 2369 2687 2733 
Q 2419 3097 1959 3097 
z
M 1959 3584 
Q 2709 3584 3137 3096 
Q 3566 2609 3566 1747 
Q 3566 888 3137 398 
Q 2709 -91 1959 -91 
Q 1206 -91 779 398 
Q 353 888 353 1747 
Q 353 2609 779 3096 
Q 1206 3584 1959 3584 
z
" id="DejaVuSans-6f" transform="scale(0.015625)"/>
      <path d="M 1159 525 
L 1159 -1331 
L 581 -1331 
L 581 3500 
L 1159 3500 
L 1159 2969 
Q 1341 3281 1617 3432 
Q 1894 3584 2278 3584 
Q 2916 3584 3314 3078 
Q 3713 2572 3713 1747 
Q 3713 922 3314 415 
Q 2916 -91 2278 -91 
Q 1894 -91 1617 61 
Q 1341 213 1159 525 
z
M 3116 1747 
Q 3116 2381 2855 2742 
Q 2594 3103 2138 3103 
Q 1681 3103 1420 2742 
Q 1159 2381 1159 1747 
Q 1159 1113 1420 752 
Q 1681 391 2138 391 
Q 2594 391 2855 752 
Q 3116 1113 3116 1747 
z
" id="DejaVuSans-70" transform="scale(0.015625)"/>
      <path d="M 3328 2828 
Q 3544 3216 3844 3400 
Q 4144 3584 4550 3584 
Q 5097 3584 5394 3201 
Q 5691 2819 5691 2113 
L 5691 0 
L 5113 0 
L 5113 2094 
Q 5113 2597 4934 2840 
Q 4756 3084 4391 3084 
Q 3944 3084 3684 2787 
Q 3425 2491 3425 1978 
L 3425 0 
L 2847 0 
L 2847 2094 
Q 2847 2600 2669 2842 
Q 2491 3084 2119 3084 
Q 1678 3084 1418 2786 
Q 1159 2488 1159 1978 
L 1159 0 
L 581 0 
L 581 3500 
L 1159 3500 
L 1159 2956 
Q 1356 3278 1631 3431 
Q 1906 3584 2284 3584 
Q 2666 3584 2933 3390 
Q 3200 3197 3328 2828 
z
" id="DejaVuSans-6d" transform="scale(0.015625)"/>
      <path d="M 3513 2113 
L 3513 0 
L 2938 0 
L 2938 2094 
Q 2938 2591 2744 2837 
Q 2550 3084 2163 3084 
Q 1697 3084 1428 2787 
Q 1159 2491 1159 1978 
L 1159 0 
L 581 0 
L 581 3500 
L 1159 3500 
L 1159 2956 
Q 1366 3272 1645 3428 
Q 1925 3584 2291 3584 
Q 2894 3584 3203 3211 
Q 3513 2838 3513 2113 
z
" id="DejaVuSans-6e" transform="scale(0.015625)"/>
      <path d="M 1172 4494 
L 1172 3500 
L 2356 3500 
L 2356 3053 
L 1172 3053 
L 1172 1153 
Q 1172 725 1289 603 
Q 1406 481 1766 481 
L 2356 481 
L 2356 0 
L 1766 0 
Q 1100 0 847 248 
Q 594 497 594 1153 
L 594 3053 
L 172 3053 
L 172 3500 
L 594 3500 
L 594 4494 
L 1172 4494 
z
" id="DejaVuSans-74" transform="scale(0.015625)"/>
     </defs>
     <use xlink:href="#DejaVuSans-44"/>
     <use x="77.001953" xlink:href="#DejaVuSans-65"/>
     <use x="138.525391" xlink:href="#DejaVuSans-76"/>
     <use x="197.705078" xlink:href="#DejaVuSans-65"/>
     <use x="259.228516" xlink:href="#DejaVuSans-6c"/>
     <use x="287.011719" xlink:href="#DejaVuSans-6f"/>
     <use x="348.193359" xlink:href="#DejaVuSans-70"/>
     <use x="411.669922" xlink:href="#DejaVuSans-6d"/>
     <use x="509.082031" xlink:href="#DejaVuSans-65"/>
     <use x="570.605469" xlink:href="#DejaVuSans-6e"/>
     <use x="633.984375" xlink:href="#DejaVuSans-74"/>
    </g>
   </g>
   <g id="text_2">
    <!-- DevOps -->
    <g transform="translate(163.558754 247.617039)scale(0.1 -0.1)">
     <defs>
      <path d="M 2522 4238 
Q 1834 4238 1429 3725 
Q 1025 3213 1025 2328 
Q 1025 1447 1429 934 
Q 1834 422 2522 422 
Q 3209 422 3611 934 
Q 4013 1447 4013 2328 
Q 4013 3213 3611 3725 
Q 3209 4238 2522 4238 
z
M 2522 4750 
Q 3503 4750 4090 4092 
Q 4678 3434 4678 2328 
Q 4678 1225 4090 567 
Q 3503 -91 2522 -91 
Q 1538 -91 948 565 
Q 359 1222 359 2328 
Q 359 3434 948 4092 
Q 1538 4750 2522 4750 
z
" id="DejaVuSans-4f" transform="scale(0.015625)"/>
      <path d="M 2834 3397 
L 2834 2853 
Q 2591 2978 2328 3040 
Q 2066 3103 1784 3103 
Q 1356 3103 1142 2972 
Q 928 2841 928 2578 
Q 928 2378 1081 2264 
Q 1234 2150 1697 2047 
L 1894 2003 
Q 2506 1872 2764 1633 
Q 3022 1394 3022 966 
Q 3022 478 2636 193 
Q 2250 -91 1575 -91 
Q 1294 -91 989 -36 
Q 684 19 347 128 
L 347 722 
Q 666 556 975 473 
Q 1284 391 1588 391 
Q 1994 391 2212 530 
Q 2431 669 2431 922 
Q 2431 1156 2273 1281 
Q 2116 1406 1581 1522 
L 1381 1569 
Q 847 1681 609 1914 
Q 372 2147 372 2553 
Q 372 3047 722 3315 
Q 1072 3584 1716 3584 
Q 2034 3584 2315 3537 
Q 2597 3491 2834 3397 
z
" id="DejaVuSans-73" transform="scale(0.015625)"/>
     </defs>
     <use xlink:href="#DejaVuSans-44"/>
     <use x="77.001953" xlink:href="#DejaVuSans-65"/>
     <use x="138.525391" xlink:href="#DejaVuSans-76"/>
     <use x="197.705078" xlink:href="#DejaVuSans-4f"/>
     <use x="276.416016" xlink:href="#DejaVuSans-70"/>
     <use x="339.892578" xlink:href="#DejaVuSans-73"/>
    </g>
   </g>
   <g id="text_3">
    <!-- Testing -->
    <g transform="translate(259.089783 242.397348)scale(0.1 -0.1)">
     <defs>
      <path d="M -19 4666 
L 3928 4666 
L 3928 4134 
L 2272 4134 
L 2272 0 
L 1638 0 
L 1638 4134 
L -19 4134 
L -19 4666 
z
" id="DejaVuSans-54" transform="scale(0.015625)"/>
      <path d="M 603 3500 
L 1178 3500 
L 1178 0 
L 603 0 
L 603 3500 
z
M 603 4863 
L 1178 4863 
L 1178 4134 
L 603 4134 
L 603 4863 
z
" id="DejaVuSans-69" transform="scale(0.015625)"/>
      <path d="M 2906 1791 
Q 2906 2416 2648 2759 
Q 2391 3103 1925 3103 
Q 1463 3103 1205 2759 
Q 947 2416 947 1791 
Q 947 1169 1205 825 
Q 1463 481 1925 481 
Q 2391 481 2648 825 
Q 2906 1169 2906 1791 
z
M 3481 434 
Q 3481 -459 3084 -895 
Q 2688 -1331 1869 -1331 
Q 1566 -1331 1297 -1286 
Q 1028 -1241 775 -1147 
L 775 -588 
Q 1028 -725 1275 -790 
Q 1522 -856 1778 -856 
Q 2344 -856 2625 -561 
Q 2906 -266 2906 331 
L 2906 616 
Q 2728 306 2450 153 
Q 2172 0 1784 0 
Q 1141 0 747 490 
Q 353 981 353 1791 
Q 353 2603 747 3093 
Q 1141 3584 1784 3584 
Q 2172 3584 2450 3431 
Q 2728 3278 2906 2969 
L 2906 3500 
L 3481 3500 
L 3481 434 
z
" id="DejaVuSans-67" transform="scale(0.015625)"/>
     </defs>
     <use xlink:href="#DejaVuSans-54"/>
     <use x="44.083984" xlink:href="#DejaVuSans-65"/>
     <use x="105.607422" xlink:href="#DejaVuSans-73"/>
     <use x="157.707031" xlink:href="#DejaVuSans-74"/>
     <use x="196.916016" xlink:href="#DejaVuSans-69"/>
     <use x="224.699219" xlink:href="#DejaVuSans-6e"/>
     <use x="288.078125" xlink:href="#DejaVuSans-67"/>
    </g>
   </g>
   <g id="text_4">
    <!-- Management/HR -->
    <g transform="translate(301.26959 212.048668)scale(0.1 -0.1)">
     <defs>
      <path d="M 628 4666 
L 1569 4666 
L 2759 1491 
L 3956 4666 
L 4897 4666 
L 4897 0 
L 4281 0 
L 4281 4097 
L 3078 897 
L 2444 897 
L 1241 4097 
L 1241 0 
L 628 0 
L 628 4666 
z
" id="DejaVuSans-4d" transform="scale(0.015625)"/>
      <path d="M 2194 1759 
Q 1497 1759 1228 1600 
Q 959 1441 959 1056 
Q 959 750 1161 570 
Q 1363 391 1709 391 
Q 2188 391 2477 730 
Q 2766 1069 2766 1631 
L 2766 1759 
L 2194 1759 
z
M 3341 1997 
L 3341 0 
L 2766 0 
L 2766 531 
Q 2569 213 2275 61 
Q 1981 -91 1556 -91 
Q 1019 -91 701 211 
Q 384 513 384 1019 
Q 384 1609 779 1909 
Q 1175 2209 1959 2209 
L 2766 2209 
L 2766 2266 
Q 2766 2663 2505 2880 
Q 2244 3097 1772 3097 
Q 1472 3097 1187 3025 
Q 903 2953 641 2809 
L 641 3341 
Q 956 3463 1253 3523 
Q 1550 3584 1831 3584 
Q 2591 3584 2966 3190 
Q 3341 2797 3341 1997 
z
" id="DejaVuSans-61" transform="scale(0.015625)"/>
      <path d="M 1625 4666 
L 2156 4666 
L 531 -594 
L 0 -594 
L 1625 4666 
z
" id="DejaVuSans-2f" transform="scale(0.015625)"/>
      <path d="M 628 4666 
L 1259 4666 
L 1259 2753 
L 3553 2753 
L 3553 4666 
L 4184 4666 
L 4184 0 
L 3553 0 
L 3553 2222 
L 1259 2222 
L 1259 0 
L 628 0 
L 628 4666 
z
" id="DejaVuSans-48" transform="scale(0.015625)"/>
      <path d="M 2841 2188 
Q 3044 2119 3236 1894 
Q 3428 1669 3622 1275 
L 4263 0 
L 3584 0 
L 2988 1197 
Q 2756 1666 2539 1819 
Q 2322 1972 1947 1972 
L 1259 1972 
L 1259 0 
L 628 0 
L 628 4666 
L 2053 4666 
Q 2853 4666 3247 4331 
Q 3641 3997 3641 3322 
Q 3641 2881 3436 2590 
Q 3231 2300 2841 2188 
z
M 1259 4147 
L 1259 2491 
L 2053 2491 
Q 2509 2491 2742 2702 
Q 2975 2913 2975 3322 
Q 2975 3731 2742 3939 
Q 2509 4147 2053 4147 
L 1259 4147 
z
" id="DejaVuSans-52" transform="scale(0.015625)"/>
     </defs>
     <use xlink:href="#DejaVuSans-4d"/>
     <use x="86.279297" xlink:href="#DejaVuSans-61"/>
     <use x="147.558594" xlink:href="#DejaVuSans-6e"/>
     <use x="210.9375" xlink:href="#DejaVuSans-61"/>
     <use x="272.216797" xlink:href="#DejaVuSans-67"/>
     <use x="335.693359" xlink:href="#DejaVuSans-65"/>
     <use x="397.216797" xlink:href="#DejaVuSans-6d"/>
     <use x="494.628906" xlink:href="#DejaVuSans-65"/>
     <use x="556.152344" xlink:href="#DejaVuSans-6e"/>
     <use x="619.53125" xlink:href="#DejaVuSans-74"/>
     <use x="658.740234" xlink:href="#DejaVuSans-2f"/>
     <use x="692.431641" xlink:href="#DejaVuSans-48"/>
     <use x="767.626953" xlink:href="#DejaVuSans-52"/>
    </g>
   </g>
   <g id="text_5">
    <!-- Other -->
    <g transform="translate(319.752846 178.864868)scale(0.1 -0.1)">
     <defs>
      <path d="M 3513 2113 
L 3513 0 
L 2938 0 
L 2938 2094 
Q 2938 2591 2744 2837 
Q 2550 3084 2163 3084 
Q 1697 3084 1428 2787 
Q 1159 2491 1159 1978 
L 1159 0 
L 581 0 
L 581 4863 
L 1159 4863 
L 1159 2956 
Q 1366 3272 1645 3428 
Q 1925 3584 2291 3584 
Q 2894 3584 3203 3211 
Q 3513 2838 3513 2113 
z
" id="DejaVuSans-68" transform="scale(0.015625)"/>
      <path d="M 2631 2963 
Q 2534 3019 2420 3045 
Q 2306 3072 2169 3072 
Q 1681 3072 1420 2755 
Q 1159 2438 1159 1844 
L 1159 0 
L 581 0 
L 581 3500 
L 1159 3500 
L 1159 2956 
Q 1341 3275 1631 3429 
Q 1922 3584 2338 3584 
Q 2397 3584 2469 3576 
Q 2541 3569 2628 3553 
L 2631 2963 
z
" id="DejaVuSans-72" transform="scale(0.015625)"/>
     </defs>
     <use xlink:href="#DejaVuSans-4f"/>
     <use x="78.710938" xlink:href="#DejaVuSans-74"/>
     <use x="117.919922" xlink:href="#DejaVuSans-68"/>
     <use x="181.298828" xlink:href="#DejaVuSans-65"/>
     <use x="242.822266" xlink:href="#DejaVuSans-72"/>
    </g>
   </g>
   <g id="text_6">
    <!-- IT/Support -->
    <g transform="translate(324.669975 155.555145)scale(0.1 -0.1)">
     <defs>
      <path d="M 628 4666 
L 1259 4666 
L 1259 0 
L 628 0 
L 628 4666 
z
" id="DejaVuSans-49" transform="scale(0.015625)"/>
      <path d="M 3425 4513 
L 3425 3897 
Q 3066 4069 2747 4153 
Q 2428 4238 2131 4238 
Q 1616 4238 1336 4038 
Q 1056 3838 1056 3469 
Q 1056 3159 1242 3001 
Q 1428 2844 1947 2747 
L 2328 2669 
Q 3034 2534 3370 2195 
Q 3706 1856 3706 1288 
Q 3706 609 3251 259 
Q 2797 -91 1919 -91 
Q 1588 -91 1214 -16 
Q 841 59 441 206 
L 441 856 
Q 825 641 1194 531 
Q 1563 422 1919 422 
Q 2459 422 2753 634 
Q 3047 847 3047 1241 
Q 3047 1584 2836 1778 
Q 2625 1972 2144 2069 
L 1759 2144 
Q 1053 2284 737 2584 
Q 422 2884 422 3419 
Q 422 4038 858 4394 
Q 1294 4750 2059 4750 
Q 2388 4750 2728 4690 
Q 3069 4631 3425 4513 
z
" id="DejaVuSans-53" transform="scale(0.015625)"/>
      <path d="M 544 1381 
L 544 3500 
L 1119 3500 
L 1119 1403 
Q 1119 906 1312 657 
Q 1506 409 1894 409 
Q 2359 409 2629 706 
Q 2900 1003 2900 1516 
L 2900 3500 
L 3475 3500 
L 3475 0 
L 2900 0 
L 2900 538 
Q 2691 219 2414 64 
Q 2138 -91 1772 -91 
Q 1169 -91 856 284 
Q 544 659 544 1381 
z
M 1991 3584 
L 1991 3584 
z
" id="DejaVuSans-75" transform="scale(0.015625)"/>
     </defs>
     <use xlink:href="#DejaVuSans-49"/>
     <use x="29.492188" xlink:href="#DejaVuSans-54"/>
     <use x="90.576172" xlink:href="#DejaVuSans-2f"/>
     <use x="124.267578" xlink:href="#DejaVuSans-53"/>
     <use x="187.744141" xlink:href="#DejaVuSans-75"/>
     <use x="251.123047" xlink:href="#DejaVuSans-70"/>
     <use x="314.599609" xlink:href="#DejaVuSans-70"/>
     <use x="378.076172" xlink:href="#DejaVuSans-6f"/>
     <use x="439.257812" xlink:href="#DejaVuSans-72"/>
     <use x="480.371094" xlink:href="#DejaVuSans-74"/>
    </g>
   </g>
   <g id="text_7">
    <!-- Types of Work -->
    <g transform="translate(179.705625 28.56)scale(0.12 -0.12)">
     <defs>
      <path d="M 2059 -325 
Q 1816 -950 1584 -1140 
Q 1353 -1331 966 -1331 
L 506 -1331 
L 506 -850 
L 844 -850 
Q 1081 -850 1212 -737 
Q 1344 -625 1503 -206 
L 1606 56 
L 191 3500 
L 800 3500 
L 1894 763 
L 2988 3500 
L 3597 3500 
L 2059 -325 
z
" id="DejaVuSans-79" transform="scale(0.015625)"/>
      <path id="DejaVuSans-20" transform="scale(0.015625)"/>
      <path d="M 2375 4863 
L 2375 4384 
L 1825 4384 
Q 1516 4384 1395 4259 
Q 1275 4134 1275 3809 
L 1275 3500 
L 2222 3500 
L 2222 3053 
L 1275 3053 
L 1275 0 
L 697 0 
L 697 3053 
L 147 3053 
L 147 3500 
L 697 3500 
L 697 3744 
Q 697 4328 969 4595 
Q 1241 4863 1831 4863 
L 2375 4863 
z
" id="DejaVuSans-66" transform="scale(0.015625)"/>
      <path d="M 213 4666 
L 850 4666 
L 1831 722 
L 2809 4666 
L 3519 4666 
L 4500 722 
L 5478 4666 
L 6119 4666 
L 4947 0 
L 4153 0 
L 3169 4050 
L 2175 0 
L 1381 0 
L 213 4666 
z
" id="DejaVuSans-57" transform="scale(0.015625)"/>
      <path d="M 581 4863 
L 1159 4863 
L 1159 1991 
L 2875 3500 
L 3609 3500 
L 1753 1863 
L 3688 0 
L 2938 0 
L 1159 1709 
L 1159 0 
L 581 0 
L 581 4863 
z
" id="DejaVuSans-6b" transform="scale(0.015625)"/>
     </defs>
     <use xlink:href="#DejaVuSans-54"/>
     <use x="45.458984" xlink:href="#DejaVuSans-79"/>
     <use x="104.638672" xlink:href="#DejaVuSans-70"/>
     <use x="168.115234" xlink:href="#DejaVuSans-65"/>
     <use x="229.638672" xlink:href="#DejaVuSans-73"/>
     <use x="281.738281" xlink:href="#DejaVuSans-20"/>
     <use x="313.525391" xlink:href="#DejaVuSans-6f"/>
     <use x="374.707031" xlink:href="#DejaVuSans-66"/>
     <use x="409.912109" xlink:href="#DejaVuSans-20"/>
     <use x="441.699219" xlink:href="#DejaVuSans-57"/>
     <use x="534.701172" xlink:href="#DejaVuSans-6f"/>
     <use x="595.882812" xlink:href="#DejaVuSans-72"/>
     <use x="636.996094" xlink:href="#DejaVuSans-6b"/>
    </g>
   </g>
   <g id="legend_1">
    <g id="patch_8">
     <path d="M 254.7025 111.415 
L 383.2 111.415 
Q 384.8 111.415 384.8 109.815 
L 384.8 40.16 
Q 384.8 38.56 383.2 38.56 
L 254.7025 38.56 
Q 253.1025 38.56 253.1025 40.16 
L 253.1025 109.815 
Q 253.1025 111.415 254.7025 111.415 
z
" style="fill:#ffffff;opacity:0.8;stroke:#cccccc;stroke-linejoin:miter;"/>
    </g>
    <g id="patch_9">
     <path d="M 256.3025 47.83875 
L 272.3025 47.83875 
L 272.3025 42.23875 
L 256.3025 42.23875 
z
" style="fill:#1f77b4;"/>
    </g>
    <g id="text_8">
     <!-- Development - 67.65 % -->
     <g transform="translate(278.7025 47.83875)scale(0.08 -0.08)">
      <defs>
       <path d="M 313 2009 
L 1997 2009 
L 1997 1497 
L 313 1497 
L 313 2009 
z
" id="DejaVuSans-2d" transform="scale(0.015625)"/>
       <path d="M 2113 2584 
Q 1688 2584 1439 2293 
Q 1191 2003 1191 1497 
Q 1191 994 1439 701 
Q 1688 409 2113 409 
Q 2538 409 2786 701 
Q 3034 994 3034 1497 
Q 3034 2003 2786 2293 
Q 2538 2584 2113 2584 
z
M 3366 4563 
L 3366 3988 
Q 3128 4100 2886 4159 
Q 2644 4219 2406 4219 
Q 1781 4219 1451 3797 
Q 1122 3375 1075 2522 
Q 1259 2794 1537 2939 
Q 1816 3084 2150 3084 
Q 2853 3084 3261 2657 
Q 3669 2231 3669 1497 
Q 3669 778 3244 343 
Q 2819 -91 2113 -91 
Q 1303 -91 875 529 
Q 447 1150 447 2328 
Q 447 3434 972 4092 
Q 1497 4750 2381 4750 
Q 2619 4750 2861 4703 
Q 3103 4656 3366 4563 
z
" id="DejaVuSans-36" transform="scale(0.015625)"/>
       <path d="M 525 4666 
L 3525 4666 
L 3525 4397 
L 1831 0 
L 1172 0 
L 2766 4134 
L 525 4134 
L 525 4666 
z
" id="DejaVuSans-37" transform="scale(0.015625)"/>
       <path d="M 684 794 
L 1344 794 
L 1344 0 
L 684 0 
L 684 794 
z
" id="DejaVuSans-2e" transform="scale(0.015625)"/>
       <path d="M 691 4666 
L 3169 4666 
L 3169 4134 
L 1269 4134 
L 1269 2991 
Q 1406 3038 1543 3061 
Q 1681 3084 1819 3084 
Q 2600 3084 3056 2656 
Q 3513 2228 3513 1497 
Q 3513 744 3044 326 
Q 2575 -91 1722 -91 
Q 1428 -91 1123 -41 
Q 819 9 494 109 
L 494 744 
Q 775 591 1075 516 
Q 1375 441 1709 441 
Q 2250 441 2565 725 
Q 2881 1009 2881 1497 
Q 2881 1984 2565 2268 
Q 2250 2553 1709 2553 
Q 1456 2553 1204 2497 
Q 953 2441 691 2322 
L 691 4666 
z
" id="DejaVuSans-35" transform="scale(0.015625)"/>
       <path d="M 4653 2053 
Q 4381 2053 4226 1822 
Q 4072 1591 4072 1178 
Q 4072 772 4226 539 
Q 4381 306 4653 306 
Q 4919 306 5073 539 
Q 5228 772 5228 1178 
Q 5228 1588 5073 1820 
Q 4919 2053 4653 2053 
z
M 4653 2450 
Q 5147 2450 5437 2106 
Q 5728 1763 5728 1178 
Q 5728 594 5436 251 
Q 5144 -91 4653 -91 
Q 4153 -91 3862 251 
Q 3572 594 3572 1178 
Q 3572 1766 3864 2108 
Q 4156 2450 4653 2450 
z
M 1428 4353 
Q 1159 4353 1004 4120 
Q 850 3888 850 3481 
Q 850 3069 1003 2837 
Q 1156 2606 1428 2606 
Q 1700 2606 1854 2837 
Q 2009 3069 2009 3481 
Q 2009 3884 1853 4118 
Q 1697 4353 1428 4353 
z
M 4250 4750 
L 4750 4750 
L 1831 -91 
L 1331 -91 
L 4250 4750 
z
M 1428 4750 
Q 1922 4750 2215 4408 
Q 2509 4066 2509 3481 
Q 2509 2891 2217 2550 
Q 1925 2209 1428 2209 
Q 931 2209 642 2551 
Q 353 2894 353 3481 
Q 353 4063 643 4406 
Q 934 4750 1428 4750 
z
" id="DejaVuSans-25" transform="scale(0.015625)"/>
      </defs>
      <use xlink:href="#DejaVuSans-44"/>
      <use x="77.001953" xlink:href="#DejaVuSans-65"/>
      <use x="138.525391" xlink:href="#DejaVuSans-76"/>
      <use x="197.705078" xlink:href="#DejaVuSans-65"/>
      <use x="259.228516" xlink:href="#DejaVuSans-6c"/>
      <use x="287.011719" xlink:href="#DejaVuSans-6f"/>
      <use x="348.193359" xlink:href="#DejaVuSans-70"/>
      <use x="411.669922" xlink:href="#DejaVuSans-6d"/>
      <use x="509.082031" xlink:href="#DejaVuSans-65"/>
      <use x="570.605469" xlink:href="#DejaVuSans-6e"/>
      <use x="633.984375" xlink:href="#DejaVuSans-74"/>
      <use x="673.193359" xlink:href="#DejaVuSans-20"/>
      <use x="704.980469" xlink:href="#DejaVuSans-2d"/>
      <use x="741.064453" xlink:href="#DejaVuSans-20"/>
      <use x="772.851562" xlink:href="#DejaVuSans-36"/>
      <use x="836.474609" xlink:href="#DejaVuSans-37"/>
      <use x="900.097656" xlink:href="#DejaVuSans-2e"/>
      <use x="931.884766" xlink:href="#DejaVuSans-36"/>
      <use x="995.507812" xlink:href="#DejaVuSans-35"/>
      <use x="1059.130859" xlink:href="#DejaVuSans-20"/>
      <use x="1090.917969" xlink:href="#DejaVuSans-25"/>
     </g>
    </g>
    <g id="patch_10">
     <path d="M 256.3025 59.58125 
L 272.3025 59.58125 
L 272.3025 53.98125 
L 256.3025 53.98125 
z
" style="fill:#ff7f0e;"/>
    </g>
    <g id="text_9">
     <!-- DevOps - 8.82 % -->
     <g transform="translate(278.7025 59.58125)scale(0.08 -0.08)">
      <defs>
       <path d="M 2034 2216 
Q 1584 2216 1326 1975 
Q 1069 1734 1069 1313 
Q 1069 891 1326 650 
Q 1584 409 2034 409 
Q 2484 409 2743 651 
Q 3003 894 3003 1313 
Q 3003 1734 2745 1975 
Q 2488 2216 2034 2216 
z
M 1403 2484 
Q 997 2584 770 2862 
Q 544 3141 544 3541 
Q 544 4100 942 4425 
Q 1341 4750 2034 4750 
Q 2731 4750 3128 4425 
Q 3525 4100 3525 3541 
Q 3525 3141 3298 2862 
Q 3072 2584 2669 2484 
Q 3125 2378 3379 2068 
Q 3634 1759 3634 1313 
Q 3634 634 3220 271 
Q 2806 -91 2034 -91 
Q 1263 -91 848 271 
Q 434 634 434 1313 
Q 434 1759 690 2068 
Q 947 2378 1403 2484 
z
M 1172 3481 
Q 1172 3119 1398 2916 
Q 1625 2713 2034 2713 
Q 2441 2713 2670 2916 
Q 2900 3119 2900 3481 
Q 2900 3844 2670 4047 
Q 2441 4250 2034 4250 
Q 1625 4250 1398 4047 
Q 1172 3844 1172 3481 
z
" id="DejaVuSans-38" transform="scale(0.015625)"/>
       <path d="M 1228 531 
L 3431 531 
L 3431 0 
L 469 0 
L 469 531 
Q 828 903 1448 1529 
Q 2069 2156 2228 2338 
Q 2531 2678 2651 2914 
Q 2772 3150 2772 3378 
Q 2772 3750 2511 3984 
Q 2250 4219 1831 4219 
Q 1534 4219 1204 4116 
Q 875 4013 500 3803 
L 500 4441 
Q 881 4594 1212 4672 
Q 1544 4750 1819 4750 
Q 2544 4750 2975 4387 
Q 3406 4025 3406 3419 
Q 3406 3131 3298 2873 
Q 3191 2616 2906 2266 
Q 2828 2175 2409 1742 
Q 1991 1309 1228 531 
z
" id="DejaVuSans-32" transform="scale(0.015625)"/>
      </defs>
      <use xlink:href="#DejaVuSans-44"/>
      <use x="77.001953" xlink:href="#DejaVuSans-65"/>
      <use x="138.525391" xlink:href="#DejaVuSans-76"/>
      <use x="197.705078" xlink:href="#DejaVuSans-4f"/>
      <use x="276.416016" xlink:href="#DejaVuSans-70"/>
      <use x="339.892578" xlink:href="#DejaVuSans-73"/>
      <use x="391.992188" xlink:href="#DejaVuSans-20"/>
      <use x="423.779297" xlink:href="#DejaVuSans-2d"/>
      <use x="459.863281" xlink:href="#DejaVuSans-20"/>
      <use x="491.650391" xlink:href="#DejaVuSans-38"/>
      <use x="555.273438" xlink:href="#DejaVuSans-2e"/>
      <use x="587.060547" xlink:href="#DejaVuSans-38"/>
      <use x="650.683594" xlink:href="#DejaVuSans-32"/>
      <use x="714.306641" xlink:href="#DejaVuSans-20"/>
      <use x="746.09375" xlink:href="#DejaVuSans-25"/>
     </g>
    </g>
    <g id="patch_11">
     <path d="M 256.3025 71.32375 
L 272.3025 71.32375 
L 272.3025 65.72375 
L 256.3025 65.72375 
z
" style="fill:#2ca02c;"/>
    </g>
    <g id="text_10">
     <!-- Testing - 8.82 % -->
     <g transform="translate(278.7025 71.32375)scale(0.08 -0.08)">
      <use xlink:href="#DejaVuSans-54"/>
      <use x="44.083984" xlink:href="#DejaVuSans-65"/>
      <use x="105.607422" xlink:href="#DejaVuSans-73"/>
      <use x="157.707031" xlink:href="#DejaVuSans-74"/>
      <use x="196.916016" xlink:href="#DejaVuSans-69"/>
      <use x="224.699219" xlink:href="#DejaVuSans-6e"/>
      <use x="288.078125" xlink:href="#DejaVuSans-67"/>
      <use x="351.554688" xlink:href="#DejaVuSans-20"/>
      <use x="383.341797" xlink:href="#DejaVuSans-2d"/>
      <use x="419.425781" xlink:href="#DejaVuSans-20"/>
      <use x="451.212891" xlink:href="#DejaVuSans-38"/>
      <use x="514.835938" xlink:href="#DejaVuSans-2e"/>
      <use x="546.623047" xlink:href="#DejaVuSans-38"/>
      <use x="610.246094" xlink:href="#DejaVuSans-32"/>
      <use x="673.869141" xlink:href="#DejaVuSans-20"/>
      <use x="705.65625" xlink:href="#DejaVuSans-25"/>
     </g>
    </g>
    <g id="patch_12">
     <path d="M 256.3025 83.06625 
L 272.3025 83.06625 
L 272.3025 77.46625 
L 256.3025 77.46625 
z
" style="fill:#d62728;"/>
    </g>
    <g id="text_11">
     <!-- Management/HR - 7.35 % -->
     <g transform="translate(278.7025 83.06625)scale(0.08 -0.08)">
      <defs>
       <path d="M 2597 2516 
Q 3050 2419 3304 2112 
Q 3559 1806 3559 1356 
Q 3559 666 3084 287 
Q 2609 -91 1734 -91 
Q 1441 -91 1130 -33 
Q 819 25 488 141 
L 488 750 
Q 750 597 1062 519 
Q 1375 441 1716 441 
Q 2309 441 2620 675 
Q 2931 909 2931 1356 
Q 2931 1769 2642 2001 
Q 2353 2234 1838 2234 
L 1294 2234 
L 1294 2753 
L 1863 2753 
Q 2328 2753 2575 2939 
Q 2822 3125 2822 3475 
Q 2822 3834 2567 4026 
Q 2313 4219 1838 4219 
Q 1578 4219 1281 4162 
Q 984 4106 628 3988 
L 628 4550 
Q 988 4650 1302 4700 
Q 1616 4750 1894 4750 
Q 2613 4750 3031 4423 
Q 3450 4097 3450 3541 
Q 3450 3153 3228 2886 
Q 3006 2619 2597 2516 
z
" id="DejaVuSans-33" transform="scale(0.015625)"/>
      </defs>
      <use xlink:href="#DejaVuSans-4d"/>
      <use x="86.279297" xlink:href="#DejaVuSans-61"/>
      <use x="147.558594" xlink:href="#DejaVuSans-6e"/>
      <use x="210.9375" xlink:href="#DejaVuSans-61"/>
      <use x="272.216797" xlink:href="#DejaVuSans-67"/>
      <use x="335.693359" xlink:href="#DejaVuSans-65"/>
      <use x="397.216797" xlink:href="#DejaVuSans-6d"/>
      <use x="494.628906" xlink:href="#DejaVuSans-65"/>
      <use x="556.152344" xlink:href="#DejaVuSans-6e"/>
      <use x="619.53125" xlink:href="#DejaVuSans-74"/>
      <use x="658.740234" xlink:href="#DejaVuSans-2f"/>
      <use x="692.431641" xlink:href="#DejaVuSans-48"/>
      <use x="767.626953" xlink:href="#DejaVuSans-52"/>
      <use x="837.109375" xlink:href="#DejaVuSans-20"/>
      <use x="868.896484" xlink:href="#DejaVuSans-2d"/>
      <use x="904.980469" xlink:href="#DejaVuSans-20"/>
      <use x="936.767578" xlink:href="#DejaVuSans-37"/>
      <use x="1000.390625" xlink:href="#DejaVuSans-2e"/>
      <use x="1032.177734" xlink:href="#DejaVuSans-33"/>
      <use x="1095.800781" xlink:href="#DejaVuSans-35"/>
      <use x="1159.423828" xlink:href="#DejaVuSans-20"/>
      <use x="1191.210938" xlink:href="#DejaVuSans-25"/>
     </g>
    </g>
    <g id="patch_13">
     <path d="M 256.3025 94.80875 
L 272.3025 94.80875 
L 272.3025 89.20875 
L 256.3025 89.20875 
z
" style="fill:#9467bd;"/>
    </g>
    <g id="text_12">
     <!-- Other - 4.41 % -->
     <g transform="translate(278.7025 94.80875)scale(0.08 -0.08)">
      <defs>
       <path d="M 2419 4116 
L 825 1625 
L 2419 1625 
L 2419 4116 
z
M 2253 4666 
L 3047 4666 
L 3047 1625 
L 3713 1625 
L 3713 1100 
L 3047 1100 
L 3047 0 
L 2419 0 
L 2419 1100 
L 313 1100 
L 313 1709 
L 2253 4666 
z
" id="DejaVuSans-34" transform="scale(0.015625)"/>
       <path d="M 794 531 
L 1825 531 
L 1825 4091 
L 703 3866 
L 703 4441 
L 1819 4666 
L 2450 4666 
L 2450 531 
L 3481 531 
L 3481 0 
L 794 0 
L 794 531 
z
" id="DejaVuSans-31" transform="scale(0.015625)"/>
      </defs>
      <use xlink:href="#DejaVuSans-4f"/>
      <use x="78.710938" xlink:href="#DejaVuSans-74"/>
      <use x="117.919922" xlink:href="#DejaVuSans-68"/>
      <use x="181.298828" xlink:href="#DejaVuSans-65"/>
      <use x="242.822266" xlink:href="#DejaVuSans-72"/>
      <use x="283.935547" xlink:href="#DejaVuSans-20"/>
      <use x="315.722656" xlink:href="#DejaVuSans-2d"/>
      <use x="351.806641" xlink:href="#DejaVuSans-20"/>
      <use x="383.59375" xlink:href="#DejaVuSans-34"/>
      <use x="447.216797" xlink:href="#DejaVuSans-2e"/>
      <use x="479.003906" xlink:href="#DejaVuSans-34"/>
      <use x="542.626953" xlink:href="#DejaVuSans-31"/>
      <use x="606.25" xlink:href="#DejaVuSans-20"/>
      <use x="638.037109" xlink:href="#DejaVuSans-25"/>
     </g>
    </g>
    <g id="patch_14">
     <path d="M 256.3025 106.55125 
L 272.3025 106.55125 
L 272.3025 100.95125 
L 256.3025 100.95125 
z
" style="fill:#8c564b;"/>
    </g>
    <g id="text_13">
     <!-- IT/Support - 2.94 % -->
     <g transform="translate(278.7025 106.55125)scale(0.08 -0.08)">
      <defs>
       <path d="M 703 97 
L 703 672 
Q 941 559 1184 500 
Q 1428 441 1663 441 
Q 2288 441 2617 861 
Q 2947 1281 2994 2138 
Q 2813 1869 2534 1725 
Q 2256 1581 1919 1581 
Q 1219 1581 811 2004 
Q 403 2428 403 3163 
Q 403 3881 828 4315 
Q 1253 4750 1959 4750 
Q 2769 4750 3195 4129 
Q 3622 3509 3622 2328 
Q 3622 1225 3098 567 
Q 2575 -91 1691 -91 
Q 1453 -91 1209 -44 
Q 966 3 703 97 
z
M 1959 2075 
Q 2384 2075 2632 2365 
Q 2881 2656 2881 3163 
Q 2881 3666 2632 3958 
Q 2384 4250 1959 4250 
Q 1534 4250 1286 3958 
Q 1038 3666 1038 3163 
Q 1038 2656 1286 2365 
Q 1534 2075 1959 2075 
z
" id="DejaVuSans-39" transform="scale(0.015625)"/>
      </defs>
      <use xlink:href="#DejaVuSans-49"/>
      <use x="29.492188" xlink:href="#DejaVuSans-54"/>
      <use x="90.576172" xlink:href="#DejaVuSans-2f"/>
      <use x="124.267578" xlink:href="#DejaVuSans-53"/>
      <use x="187.744141" xlink:href="#DejaVuSans-75"/>
      <use x="251.123047" xlink:href="#DejaVuSans-70"/>
      <use x="314.599609" xlink:href="#DejaVuSans-70"/>
      <use x="378.076172" xlink:href="#DejaVuSans-6f"/>
      <use x="439.257812" xlink:href="#DejaVuSans-72"/>
      <use x="480.371094" xlink:href="#DejaVuSans-74"/>
      <use x="519.580078" xlink:href="#DejaVuSans-20"/>
      <use x="551.367188" xlink:href="#DejaVuSans-2d"/>
      <use x="587.451172" xlink:href="#DejaVuSans-20"/>
      <use x="619.238281" xlink:href="#DejaVuSans-32"/>
      <use x="682.861328" xlink:href="#DejaVuSans-2e"/>
      <use x="714.648438" xlink:href="#DejaVuSans-39"/>
      <use x="778.271484" xlink:href="#DejaVuSans-34"/>
      <use x="841.894531" xlink:href="#DejaVuSans-20"/>
      <use x="873.681641" xlink:href="#DejaVuSans-25"/>
     </g>
    </g>
   </g>
  </g>
 </g>
</svg>
