<?xml version="1.0" encoding="utf-8" standalone="no"?>
<!DOCTYPE svg PUBLIC "-//W3C//DTD SVG 1.1//EN"
  "http://www.w3.org/Graphics/SVG/1.1/DTD/svg11.dtd">
<svg height="432pt" version="1.1" viewBox="0 0 864 432" width="864pt" xmlns="http://www.w3.org/2000/svg" xmlns:xlink="http://www.w3.org/1999/xlink">
 <metadata>
  <rdf:RDF xmlns:cc="http://creativecommons.org/ns#" xmlns:dc="http://purl.org/dc/elements/1.1/" xmlns:rdf="http://www.w3.org/1999/02/22-rdf-syntax-ns#">
   <cc:Work>
    <dc:type rdf:resource="http://purl.org/dc/dcmitype/StillImage"/>
    <dc:date>2022-01-05T17:01:24.899942</dc:date>
    <dc:format>image/svg+xml</dc:format>
    <dc:creator>
     <cc:Agent>
      <dc:title>Matplotlib v3.4.3, https://matplotlib.org/</dc:title>
     </cc:Agent>
    </dc:creator>
   </cc:Work>
  </rdf:RDF>
 </metadata>
 <defs>
  <style type="text/css">*{stroke-linecap:butt;stroke-linejoin:round;}</style>
 </defs>
 <g id="figure_1">
  <g id="patch_1">
   <path d="M 0 432 
L 864 432 
L 864 0 
L 0 0 
z
" style="fill:#ffffff;"/>
  </g>
  <g id="axes_1">
   <g id="patch_2">
    <path d="M 108 378 
L 777.6 378 
L 777.6 51.84 
L 108 51.84 
z
" style="fill:#eaeaf2;"/>
   </g>
   <g id="matplotlib.axis_1">
    <g id="xtick_1">
     <g id="text_1">
      <!-- Female -->
      <g style="fill:#262626;" transform="translate(257.061797 395.373594)scale(0.11 -0.11)">
       <defs>
        <path d="M 525 0 
L 525 4581 
L 3616 4581 
L 3616 4041 
L 1131 4041 
L 1131 2622 
L 3281 2622 
L 3281 2081 
L 1131 2081 
L 1131 0 
L 525 0 
z
" id="ArialMT-46" transform="scale(0.015625)"/>
        <path d="M 2694 1069 
L 3275 997 
Q 3138 488 2766 206 
Q 2394 -75 1816 -75 
Q 1088 -75 661 373 
Q 234 822 234 1631 
Q 234 2469 665 2931 
Q 1097 3394 1784 3394 
Q 2450 3394 2872 2941 
Q 3294 2488 3294 1666 
Q 3294 1616 3291 1516 
L 816 1516 
Q 847 969 1125 678 
Q 1403 388 1819 388 
Q 2128 388 2347 550 
Q 2566 713 2694 1069 
z
M 847 1978 
L 2700 1978 
Q 2663 2397 2488 2606 
Q 2219 2931 1791 2931 
Q 1403 2931 1139 2672 
Q 875 2413 847 1978 
z
" id="ArialMT-65" transform="scale(0.015625)"/>
        <path d="M 422 0 
L 422 3319 
L 925 3319 
L 925 2853 
Q 1081 3097 1340 3245 
Q 1600 3394 1931 3394 
Q 2300 3394 2536 3241 
Q 2772 3088 2869 2813 
Q 3263 3394 3894 3394 
Q 4388 3394 4653 3120 
Q 4919 2847 4919 2278 
L 4919 0 
L 4359 0 
L 4359 2091 
Q 4359 2428 4304 2576 
Q 4250 2725 4106 2815 
Q 3963 2906 3769 2906 
Q 3419 2906 3187 2673 
Q 2956 2441 2956 1928 
L 2956 0 
L 2394 0 
L 2394 2156 
Q 2394 2531 2256 2718 
Q 2119 2906 1806 2906 
Q 1569 2906 1367 2781 
Q 1166 2656 1075 2415 
Q 984 2175 984 1722 
L 984 0 
L 422 0 
z
" id="ArialMT-6d" transform="scale(0.015625)"/>
        <path d="M 2588 409 
Q 2275 144 1986 34 
Q 1697 -75 1366 -75 
Q 819 -75 525 192 
Q 231 459 231 875 
Q 231 1119 342 1320 
Q 453 1522 633 1644 
Q 813 1766 1038 1828 
Q 1203 1872 1538 1913 
Q 2219 1994 2541 2106 
Q 2544 2222 2544 2253 
Q 2544 2597 2384 2738 
Q 2169 2928 1744 2928 
Q 1347 2928 1158 2789 
Q 969 2650 878 2297 
L 328 2372 
Q 403 2725 575 2942 
Q 747 3159 1072 3276 
Q 1397 3394 1825 3394 
Q 2250 3394 2515 3294 
Q 2781 3194 2906 3042 
Q 3031 2891 3081 2659 
Q 3109 2516 3109 2141 
L 3109 1391 
Q 3109 606 3145 398 
Q 3181 191 3288 0 
L 2700 0 
Q 2613 175 2588 409 
z
M 2541 1666 
Q 2234 1541 1622 1453 
Q 1275 1403 1131 1340 
Q 988 1278 909 1158 
Q 831 1038 831 891 
Q 831 666 1001 516 
Q 1172 366 1500 366 
Q 1825 366 2078 508 
Q 2331 650 2450 897 
Q 2541 1088 2541 1459 
L 2541 1666 
z
" id="ArialMT-61" transform="scale(0.015625)"/>
        <path d="M 409 0 
L 409 4581 
L 972 4581 
L 972 0 
L 409 0 
z
" id="ArialMT-6c" transform="scale(0.015625)"/>
       </defs>
       <use xlink:href="#ArialMT-46"/>
       <use x="61.083984" xlink:href="#ArialMT-65"/>
       <use x="116.699219" xlink:href="#ArialMT-6d"/>
       <use x="200" xlink:href="#ArialMT-61"/>
       <use x="255.615234" xlink:href="#ArialMT-6c"/>
       <use x="277.832031" xlink:href="#ArialMT-65"/>
      </g>
     </g>
    </g>
    <g id="xtick_2">
     <g id="text_2">
      <!-- Male -->
      <g style="fill:#262626;" transform="translate(598.279609 395.373594)scale(0.11 -0.11)">
       <defs>
        <path d="M 475 0 
L 475 4581 
L 1388 4581 
L 2472 1338 
Q 2622 884 2691 659 
Q 2769 909 2934 1394 
L 4031 4581 
L 4847 4581 
L 4847 0 
L 4263 0 
L 4263 3834 
L 2931 0 
L 2384 0 
L 1059 3900 
L 1059 0 
L 475 0 
z
" id="ArialMT-4d" transform="scale(0.015625)"/>
       </defs>
       <use xlink:href="#ArialMT-4d"/>
       <use x="83.300781" xlink:href="#ArialMT-61"/>
       <use x="138.916016" xlink:href="#ArialMT-6c"/>
       <use x="161.132812" xlink:href="#ArialMT-65"/>
      </g>
     </g>
    </g>
    <g id="text_3">
     <!-- Gender -->
     <g style="fill:#262626;" transform="translate(422.789062 410.149219)scale(0.12 -0.12)">
      <defs>
       <path d="M 2638 1797 
L 2638 2334 
L 4578 2338 
L 4578 638 
Q 4131 281 3656 101 
Q 3181 -78 2681 -78 
Q 2006 -78 1454 211 
Q 903 500 622 1047 
Q 341 1594 341 2269 
Q 341 2938 620 3517 
Q 900 4097 1425 4378 
Q 1950 4659 2634 4659 
Q 3131 4659 3532 4498 
Q 3934 4338 4162 4050 
Q 4391 3763 4509 3300 
L 3963 3150 
Q 3859 3500 3706 3700 
Q 3553 3900 3268 4020 
Q 2984 4141 2638 4141 
Q 2222 4141 1919 4014 
Q 1616 3888 1430 3681 
Q 1244 3475 1141 3228 
Q 966 2803 966 2306 
Q 966 1694 1177 1281 
Q 1388 869 1791 669 
Q 2194 469 2647 469 
Q 3041 469 3416 620 
Q 3791 772 3984 944 
L 3984 1797 
L 2638 1797 
z
" id="ArialMT-47" transform="scale(0.015625)"/>
       <path d="M 422 0 
L 422 3319 
L 928 3319 
L 928 2847 
Q 1294 3394 1984 3394 
Q 2284 3394 2536 3286 
Q 2788 3178 2913 3003 
Q 3038 2828 3088 2588 
Q 3119 2431 3119 2041 
L 3119 0 
L 2556 0 
L 2556 2019 
Q 2556 2363 2490 2533 
Q 2425 2703 2258 2804 
Q 2091 2906 1866 2906 
Q 1506 2906 1245 2678 
Q 984 2450 984 1813 
L 984 0 
L 422 0 
z
" id="ArialMT-6e" transform="scale(0.015625)"/>
       <path d="M 2575 0 
L 2575 419 
Q 2259 -75 1647 -75 
Q 1250 -75 917 144 
Q 584 363 401 755 
Q 219 1147 219 1656 
Q 219 2153 384 2558 
Q 550 2963 881 3178 
Q 1213 3394 1622 3394 
Q 1922 3394 2156 3267 
Q 2391 3141 2538 2938 
L 2538 4581 
L 3097 4581 
L 3097 0 
L 2575 0 
z
M 797 1656 
Q 797 1019 1065 703 
Q 1334 388 1700 388 
Q 2069 388 2326 689 
Q 2584 991 2584 1609 
Q 2584 2291 2321 2609 
Q 2059 2928 1675 2928 
Q 1300 2928 1048 2622 
Q 797 2316 797 1656 
z
" id="ArialMT-64" transform="scale(0.015625)"/>
       <path d="M 416 0 
L 416 3319 
L 922 3319 
L 922 2816 
Q 1116 3169 1280 3281 
Q 1444 3394 1641 3394 
Q 1925 3394 2219 3213 
L 2025 2691 
Q 1819 2813 1613 2813 
Q 1428 2813 1281 2702 
Q 1134 2591 1072 2394 
Q 978 2094 978 1738 
L 978 0 
L 416 0 
z
" id="ArialMT-72" transform="scale(0.015625)"/>
      </defs>
      <use xlink:href="#ArialMT-47"/>
      <use x="77.783203" xlink:href="#ArialMT-65"/>
      <use x="133.398438" xlink:href="#ArialMT-6e"/>
      <use x="189.013672" xlink:href="#ArialMT-64"/>
      <use x="244.628906" xlink:href="#ArialMT-65"/>
      <use x="300.244141" xlink:href="#ArialMT-72"/>
     </g>
    </g>
   </g>
   <g id="matplotlib.axis_2">
    <g id="ytick_1">
     <g id="line2d_1">
      <path clip-path="url(#pe36d4aaa7c)" d="M 108 321.663273 
L 777.6 321.663273 
" style="fill:none;stroke:#ffffff;stroke-linecap:round;"/>
     </g>
     <g id="text_4">
      <!-- 100 -->
      <g style="fill:#262626;" transform="translate(80.148906 325.60007)scale(0.11 -0.11)">
       <defs>
        <path d="M 2384 0 
L 1822 0 
L 1822 3584 
Q 1619 3391 1289 3197 
Q 959 3003 697 2906 
L 697 3450 
Q 1169 3672 1522 3987 
Q 1875 4303 2022 4600 
L 2384 4600 
L 2384 0 
z
" id="ArialMT-31" transform="scale(0.015625)"/>
        <path d="M 266 2259 
Q 266 3072 433 3567 
Q 600 4063 929 4331 
Q 1259 4600 1759 4600 
Q 2128 4600 2406 4451 
Q 2684 4303 2865 4023 
Q 3047 3744 3150 3342 
Q 3253 2941 3253 2259 
Q 3253 1453 3087 958 
Q 2922 463 2592 192 
Q 2263 -78 1759 -78 
Q 1097 -78 719 397 
Q 266 969 266 2259 
z
M 844 2259 
Q 844 1131 1108 757 
Q 1372 384 1759 384 
Q 2147 384 2411 759 
Q 2675 1134 2675 2259 
Q 2675 3391 2411 3762 
Q 2147 4134 1753 4134 
Q 1366 4134 1134 3806 
Q 844 3388 844 2259 
z
" id="ArialMT-30" transform="scale(0.015625)"/>
       </defs>
       <use xlink:href="#ArialMT-31"/>
       <use x="55.615234" xlink:href="#ArialMT-30"/>
       <use x="111.230469" xlink:href="#ArialMT-30"/>
      </g>
     </g>
    </g>
    <g id="ytick_2">
     <g id="line2d_2">
      <path clip-path="url(#pe36d4aaa7c)" d="M 108 262.361455 
L 777.6 262.361455 
" style="fill:none;stroke:#ffffff;stroke-linecap:round;"/>
     </g>
     <g id="text_5">
      <!-- 150 -->
      <g style="fill:#262626;" transform="translate(80.148906 266.298251)scale(0.11 -0.11)">
       <defs>
        <path d="M 266 1200 
L 856 1250 
Q 922 819 1161 601 
Q 1400 384 1738 384 
Q 2144 384 2425 690 
Q 2706 997 2706 1503 
Q 2706 1984 2436 2262 
Q 2166 2541 1728 2541 
Q 1456 2541 1237 2417 
Q 1019 2294 894 2097 
L 366 2166 
L 809 4519 
L 3088 4519 
L 3088 3981 
L 1259 3981 
L 1013 2750 
Q 1425 3038 1878 3038 
Q 2478 3038 2890 2622 
Q 3303 2206 3303 1553 
Q 3303 931 2941 478 
Q 2500 -78 1738 -78 
Q 1113 -78 717 272 
Q 322 622 266 1200 
z
" id="ArialMT-35" transform="scale(0.015625)"/>
       </defs>
       <use xlink:href="#ArialMT-31"/>
       <use x="55.615234" xlink:href="#ArialMT-35"/>
       <use x="111.230469" xlink:href="#ArialMT-30"/>
      </g>
     </g>
    </g>
    <g id="ytick_3">
     <g id="line2d_3">
      <path clip-path="url(#pe36d4aaa7c)" d="M 108 203.059636 
L 777.6 203.059636 
" style="fill:none;stroke:#ffffff;stroke-linecap:round;"/>
     </g>
     <g id="text_6">
      <!-- 200 -->
      <g style="fill:#262626;" transform="translate(80.148906 206.996433)scale(0.11 -0.11)">
       <defs>
        <path d="M 3222 541 
L 3222 0 
L 194 0 
Q 188 203 259 391 
Q 375 700 629 1000 
Q 884 1300 1366 1694 
Q 2113 2306 2375 2664 
Q 2638 3022 2638 3341 
Q 2638 3675 2398 3904 
Q 2159 4134 1775 4134 
Q 1369 4134 1125 3890 
Q 881 3647 878 3216 
L 300 3275 
Q 359 3922 746 4261 
Q 1134 4600 1788 4600 
Q 2447 4600 2831 4234 
Q 3216 3869 3216 3328 
Q 3216 3053 3103 2787 
Q 2991 2522 2730 2228 
Q 2469 1934 1863 1422 
Q 1356 997 1212 845 
Q 1069 694 975 541 
L 3222 541 
z
" id="ArialMT-32" transform="scale(0.015625)"/>
       </defs>
       <use xlink:href="#ArialMT-32"/>
       <use x="55.615234" xlink:href="#ArialMT-30"/>
       <use x="111.230469" xlink:href="#ArialMT-30"/>
      </g>
     </g>
    </g>
    <g id="ytick_4">
     <g id="line2d_4">
      <path clip-path="url(#pe36d4aaa7c)" d="M 108 143.757818 
L 777.6 143.757818 
" style="fill:none;stroke:#ffffff;stroke-linecap:round;"/>
     </g>
     <g id="text_7">
      <!-- 250 -->
      <g style="fill:#262626;" transform="translate(80.148906 147.694615)scale(0.11 -0.11)">
       <use xlink:href="#ArialMT-32"/>
       <use x="55.615234" xlink:href="#ArialMT-35"/>
       <use x="111.230469" xlink:href="#ArialMT-30"/>
      </g>
     </g>
    </g>
    <g id="ytick_5">
     <g id="line2d_5">
      <path clip-path="url(#pe36d4aaa7c)" d="M 108 84.456 
L 777.6 84.456 
" style="fill:none;stroke:#ffffff;stroke-linecap:round;"/>
     </g>
     <g id="text_8">
      <!-- 300 -->
      <g style="fill:#262626;" transform="translate(80.148906 88.392797)scale(0.11 -0.11)">
       <defs>
        <path d="M 269 1209 
L 831 1284 
Q 928 806 1161 595 
Q 1394 384 1728 384 
Q 2125 384 2398 659 
Q 2672 934 2672 1341 
Q 2672 1728 2419 1979 
Q 2166 2231 1775 2231 
Q 1616 2231 1378 2169 
L 1441 2663 
Q 1497 2656 1531 2656 
Q 1891 2656 2178 2843 
Q 2466 3031 2466 3422 
Q 2466 3731 2256 3934 
Q 2047 4138 1716 4138 
Q 1388 4138 1169 3931 
Q 950 3725 888 3313 
L 325 3413 
Q 428 3978 793 4289 
Q 1159 4600 1703 4600 
Q 2078 4600 2393 4439 
Q 2709 4278 2876 4000 
Q 3044 3722 3044 3409 
Q 3044 3113 2884 2869 
Q 2725 2625 2413 2481 
Q 2819 2388 3044 2092 
Q 3269 1797 3269 1353 
Q 3269 753 2831 336 
Q 2394 -81 1725 -81 
Q 1122 -81 723 278 
Q 325 638 269 1209 
z
" id="ArialMT-33" transform="scale(0.015625)"/>
       </defs>
       <use xlink:href="#ArialMT-33"/>
       <use x="55.615234" xlink:href="#ArialMT-30"/>
       <use x="111.230469" xlink:href="#ArialMT-30"/>
      </g>
     </g>
    </g>
    <g id="text_9">
     <!-- Annual income (thousands) -->
     <g style="fill:#262626;" transform="translate(73.623281 287.957812)rotate(-90)scale(0.12 -0.12)">
      <defs>
       <path d="M -9 0 
L 1750 4581 
L 2403 4581 
L 4278 0 
L 3588 0 
L 3053 1388 
L 1138 1388 
L 634 0 
L -9 0 
z
M 1313 1881 
L 2866 1881 
L 2388 3150 
Q 2169 3728 2063 4100 
Q 1975 3659 1816 3225 
L 1313 1881 
z
" id="ArialMT-41" transform="scale(0.015625)"/>
       <path d="M 2597 0 
L 2597 488 
Q 2209 -75 1544 -75 
Q 1250 -75 995 37 
Q 741 150 617 320 
Q 494 491 444 738 
Q 409 903 409 1263 
L 409 3319 
L 972 3319 
L 972 1478 
Q 972 1038 1006 884 
Q 1059 663 1231 536 
Q 1403 409 1656 409 
Q 1909 409 2131 539 
Q 2353 669 2445 892 
Q 2538 1116 2538 1541 
L 2538 3319 
L 3100 3319 
L 3100 0 
L 2597 0 
z
" id="ArialMT-75" transform="scale(0.015625)"/>
       <path id="ArialMT-20" transform="scale(0.015625)"/>
       <path d="M 425 3934 
L 425 4581 
L 988 4581 
L 988 3934 
L 425 3934 
z
M 425 0 
L 425 3319 
L 988 3319 
L 988 0 
L 425 0 
z
" id="ArialMT-69" transform="scale(0.015625)"/>
       <path d="M 2588 1216 
L 3141 1144 
Q 3050 572 2676 248 
Q 2303 -75 1759 -75 
Q 1078 -75 664 370 
Q 250 816 250 1647 
Q 250 2184 428 2587 
Q 606 2991 970 3192 
Q 1334 3394 1763 3394 
Q 2303 3394 2647 3120 
Q 2991 2847 3088 2344 
L 2541 2259 
Q 2463 2594 2264 2762 
Q 2066 2931 1784 2931 
Q 1359 2931 1093 2626 
Q 828 2322 828 1663 
Q 828 994 1084 691 
Q 1341 388 1753 388 
Q 2084 388 2306 591 
Q 2528 794 2588 1216 
z
" id="ArialMT-63" transform="scale(0.015625)"/>
       <path d="M 213 1659 
Q 213 2581 725 3025 
Q 1153 3394 1769 3394 
Q 2453 3394 2887 2945 
Q 3322 2497 3322 1706 
Q 3322 1066 3130 698 
Q 2938 331 2570 128 
Q 2203 -75 1769 -75 
Q 1072 -75 642 372 
Q 213 819 213 1659 
z
M 791 1659 
Q 791 1022 1069 705 
Q 1347 388 1769 388 
Q 2188 388 2466 706 
Q 2744 1025 2744 1678 
Q 2744 2294 2464 2611 
Q 2184 2928 1769 2928 
Q 1347 2928 1069 2612 
Q 791 2297 791 1659 
z
" id="ArialMT-6f" transform="scale(0.015625)"/>
       <path d="M 1497 -1347 
Q 1031 -759 709 28 
Q 388 816 388 1659 
Q 388 2403 628 3084 
Q 909 3875 1497 4659 
L 1900 4659 
Q 1522 4009 1400 3731 
Q 1209 3300 1100 2831 
Q 966 2247 966 1656 
Q 966 153 1900 -1347 
L 1497 -1347 
z
" id="ArialMT-28" transform="scale(0.015625)"/>
       <path d="M 1650 503 
L 1731 6 
Q 1494 -44 1306 -44 
Q 1000 -44 831 53 
Q 663 150 594 308 
Q 525 466 525 972 
L 525 2881 
L 113 2881 
L 113 3319 
L 525 3319 
L 525 4141 
L 1084 4478 
L 1084 3319 
L 1650 3319 
L 1650 2881 
L 1084 2881 
L 1084 941 
Q 1084 700 1114 631 
Q 1144 563 1211 522 
Q 1278 481 1403 481 
Q 1497 481 1650 503 
z
" id="ArialMT-74" transform="scale(0.015625)"/>
       <path d="M 422 0 
L 422 4581 
L 984 4581 
L 984 2938 
Q 1378 3394 1978 3394 
Q 2347 3394 2619 3248 
Q 2891 3103 3008 2847 
Q 3125 2591 3125 2103 
L 3125 0 
L 2563 0 
L 2563 2103 
Q 2563 2525 2380 2717 
Q 2197 2909 1863 2909 
Q 1613 2909 1392 2779 
Q 1172 2650 1078 2428 
Q 984 2206 984 1816 
L 984 0 
L 422 0 
z
" id="ArialMT-68" transform="scale(0.015625)"/>
       <path d="M 197 991 
L 753 1078 
Q 800 744 1014 566 
Q 1228 388 1613 388 
Q 2000 388 2187 545 
Q 2375 703 2375 916 
Q 2375 1106 2209 1216 
Q 2094 1291 1634 1406 
Q 1016 1563 777 1677 
Q 538 1791 414 1992 
Q 291 2194 291 2438 
Q 291 2659 392 2848 
Q 494 3038 669 3163 
Q 800 3259 1026 3326 
Q 1253 3394 1513 3394 
Q 1903 3394 2198 3281 
Q 2494 3169 2634 2976 
Q 2775 2784 2828 2463 
L 2278 2388 
Q 2241 2644 2061 2787 
Q 1881 2931 1553 2931 
Q 1166 2931 1000 2803 
Q 834 2675 834 2503 
Q 834 2394 903 2306 
Q 972 2216 1119 2156 
Q 1203 2125 1616 2013 
Q 2213 1853 2448 1751 
Q 2684 1650 2818 1456 
Q 2953 1263 2953 975 
Q 2953 694 2789 445 
Q 2625 197 2315 61 
Q 2006 -75 1616 -75 
Q 969 -75 630 194 
Q 291 463 197 991 
z
" id="ArialMT-73" transform="scale(0.015625)"/>
       <path d="M 791 -1347 
L 388 -1347 
Q 1322 153 1322 1656 
Q 1322 2244 1188 2822 
Q 1081 3291 891 3722 
Q 769 4003 388 4659 
L 791 4659 
Q 1378 3875 1659 3084 
Q 1900 2403 1900 1659 
Q 1900 816 1576 28 
Q 1253 -759 791 -1347 
z
" id="ArialMT-29" transform="scale(0.015625)"/>
      </defs>
      <use xlink:href="#ArialMT-41"/>
      <use x="66.699219" xlink:href="#ArialMT-6e"/>
      <use x="122.314453" xlink:href="#ArialMT-6e"/>
      <use x="177.929688" xlink:href="#ArialMT-75"/>
      <use x="233.544922" xlink:href="#ArialMT-61"/>
      <use x="289.160156" xlink:href="#ArialMT-6c"/>
      <use x="311.376953" xlink:href="#ArialMT-20"/>
      <use x="339.160156" xlink:href="#ArialMT-69"/>
      <use x="361.376953" xlink:href="#ArialMT-6e"/>
      <use x="416.992188" xlink:href="#ArialMT-63"/>
      <use x="466.992188" xlink:href="#ArialMT-6f"/>
      <use x="522.607422" xlink:href="#ArialMT-6d"/>
      <use x="605.908203" xlink:href="#ArialMT-65"/>
      <use x="661.523438" xlink:href="#ArialMT-20"/>
      <use x="689.306641" xlink:href="#ArialMT-28"/>
      <use x="722.607422" xlink:href="#ArialMT-74"/>
      <use x="750.390625" xlink:href="#ArialMT-68"/>
      <use x="806.005859" xlink:href="#ArialMT-6f"/>
      <use x="861.621094" xlink:href="#ArialMT-75"/>
      <use x="917.236328" xlink:href="#ArialMT-73"/>
      <use x="967.236328" xlink:href="#ArialMT-61"/>
      <use x="1022.851562" xlink:href="#ArialMT-6e"/>
      <use x="1078.466797" xlink:href="#ArialMT-64"/>
      <use x="1134.082031" xlink:href="#ArialMT-73"/>
      <use x="1184.082031" xlink:href="#ArialMT-29"/>
     </g>
    </g>
   </g>
   <g id="PolyCollection_1">
    <defs>
     <path d="M 285.883379 -78.313745 
L 264.916621 -78.313745 
L 264.689422 -79.415921 
L 264.477058 -80.518096 
L 264.279298 -81.620271 
L 264.09568 -82.722446 
L 263.925519 -83.824621 
L 263.767923 -84.926797 
L 263.621809 -86.028972 
L 263.485927 -87.131147 
L 263.358887 -88.233322 
L 263.239192 -89.335498 
L 263.125268 -90.437673 
L 263.015503 -91.539848 
L 262.908284 -92.642023 
L 262.802035 -93.744198 
L 262.695255 -94.846374 
L 262.586554 -95.948549 
L 262.474693 -97.050724 
L 262.358608 -98.152899 
L 262.237445 -99.255074 
L 262.110582 -100.35725 
L 261.97765 -101.459425 
L 261.838541 -102.5616 
L 261.693424 -103.663775 
L 261.54274 -104.76595 
L 261.387203 -105.868126 
L 261.227783 -106.970301 
L 261.065696 -108.072476 
L 260.902377 -109.174651 
L 260.739454 -110.276826 
L 260.578716 -111.379002 
L 260.42208 -112.481177 
L 260.271545 -113.583352 
L 260.129159 -114.685527 
L 259.996972 -115.787702 
L 259.876996 -116.889878 
L 259.77116 -117.992053 
L 259.681274 -119.094228 
L 259.608989 -120.196403 
L 259.555764 -121.298579 
L 259.522834 -122.400754 
L 259.511186 -123.502929 
L 259.521541 -124.605104 
L 259.554334 -125.707279 
L 259.609711 -126.809455 
L 259.687522 -127.91163 
L 259.787327 -129.013805 
L 259.908404 -130.11598 
L 260.049763 -131.218155 
L 260.210164 -132.320331 
L 260.388146 -133.422506 
L 260.582048 -134.524681 
L 260.790045 -135.626856 
L 261.010179 -136.729031 
L 261.240395 -137.831207 
L 261.478577 -138.933382 
L 261.722582 -140.035557 
L 261.97028 -141.137732 
L 262.219584 -142.239907 
L 262.468482 -143.342083 
L 262.715071 -144.444258 
L 262.957578 -145.546433 
L 263.194386 -146.648608 
L 263.424055 -147.750783 
L 263.645334 -148.852959 
L 263.857174 -149.955134 
L 264.058735 -151.057309 
L 264.249391 -152.159484 
L 264.428729 -153.26166 
L 264.596542 -154.363835 
L 264.752827 -155.46601 
L 264.897772 -156.568185 
L 265.031746 -157.67036 
L 265.15528 -158.772536 
L 265.269055 -159.874711 
L 265.373885 -160.976886 
L 265.470694 -162.079061 
L 265.560503 -163.181236 
L 265.644405 -164.283412 
L 265.723553 -165.385587 
L 265.799134 -166.487762 
L 265.87236 -167.589937 
L 265.944441 -168.692112 
L 266.01658 -169.794288 
L 266.089947 -170.896463 
L 266.165676 -171.998638 
L 266.244843 -173.100813 
L 266.328463 -174.202988 
L 266.417473 -175.305164 
L 266.512727 -176.407339 
L 266.61499 -177.509514 
L 266.724926 -178.611689 
L 266.843098 -179.713864 
L 266.969959 -180.81604 
L 267.105856 -181.918215 
L 267.25102 -183.02039 
L 267.40557 -184.122565 
L 267.569513 -185.22474 
L 267.742744 -186.326916 
L 267.92505 -187.429091 
L 282.87495 -187.429091 
L 282.87495 -187.429091 
L 283.057256 -186.326916 
L 283.230487 -185.22474 
L 283.39443 -184.122565 
L 283.54898 -183.02039 
L 283.694144 -181.918215 
L 283.830041 -180.81604 
L 283.956902 -179.713864 
L 284.075074 -178.611689 
L 284.18501 -177.509514 
L 284.287273 -176.407339 
L 284.382527 -175.305164 
L 284.471537 -174.202988 
L 284.555157 -173.100813 
L 284.634324 -171.998638 
L 284.710053 -170.896463 
L 284.78342 -169.794288 
L 284.855559 -168.692112 
L 284.92764 -167.589937 
L 285.000866 -166.487762 
L 285.076447 -165.385587 
L 285.155595 -164.283412 
L 285.239497 -163.181236 
L 285.329306 -162.079061 
L 285.426115 -160.976886 
L 285.530945 -159.874711 
L 285.64472 -158.772536 
L 285.768254 -157.67036 
L 285.902228 -156.568185 
L 286.047173 -155.46601 
L 286.203458 -154.363835 
L 286.371271 -153.26166 
L 286.550609 -152.159484 
L 286.741265 -151.057309 
L 286.942826 -149.955134 
L 287.154666 -148.852959 
L 287.375945 -147.750783 
L 287.605614 -146.648608 
L 287.842422 -145.546433 
L 288.084929 -144.444258 
L 288.331518 -143.342083 
L 288.580416 -142.239907 
L 288.82972 -141.137732 
L 289.077418 -140.035557 
L 289.321423 -138.933382 
L 289.559605 -137.831207 
L 289.789821 -136.729031 
L 290.009955 -135.626856 
L 290.217952 -134.524681 
L 290.411854 -133.422506 
L 290.589836 -132.320331 
L 290.750237 -131.218155 
L 290.891596 -130.11598 
L 291.012673 -129.013805 
L 291.112478 -127.91163 
L 291.190289 -126.809455 
L 291.245666 -125.707279 
L 291.278459 -124.605104 
L 291.288814 -123.502929 
L 291.277166 -122.400754 
L 291.244236 -121.298579 
L 291.191011 -120.196403 
L 291.118726 -119.094228 
L 291.02884 -117.992053 
L 290.923004 -116.889878 
L 290.803028 -115.787702 
L 290.670841 -114.685527 
L 290.528455 -113.583352 
L 290.37792 -112.481177 
L 290.221284 -111.379002 
L 290.060546 -110.276826 
L 289.897623 -109.174651 
L 289.734304 -108.072476 
L 289.572217 -106.970301 
L 289.412797 -105.868126 
L 289.25726 -104.76595 
L 289.106576 -103.663775 
L 288.961459 -102.5616 
L 288.82235 -101.459425 
L 288.689418 -100.35725 
L 288.562555 -99.255074 
L 288.441392 -98.152899 
L 288.325307 -97.050724 
L 288.213446 -95.948549 
L 288.104745 -94.846374 
L 287.997965 -93.744198 
L 287.891716 -92.642023 
L 287.784497 -91.539848 
L 287.674732 -90.437673 
L 287.560808 -89.335498 
L 287.441113 -88.233322 
L 287.314073 -87.131147 
L 287.178191 -86.028972 
L 287.032077 -84.926797 
L 286.874481 -83.824621 
L 286.70432 -82.722446 
L 286.520702 -81.620271 
L 286.322942 -80.518096 
L 286.110578 -79.415921 
L 285.883379 -78.313745 
z
" id="m87fefd352a" style="stroke:#4c4c4c;stroke-width:1.5;"/>
    </defs>
    <g clip-path="url(#pe36d4aaa7c)">
     <use style="fill:#5875a4;stroke:#4c4c4c;stroke-width:1.5;" x="0" xlink:href="#m87fefd352a" y="432"/>
    </g>
   </g>
   <g id="PolyCollection_2">
    <defs>
     <path d="M 642.365993 -68.825455 
L 578.034007 -68.825455 
L 574.558959 -71.820496 
L 570.885361 -74.815537 
L 567.013284 -77.810579 
L 562.943235 -80.80562 
L 558.676843 -83.800661 
L 554.217782 -86.795702 
L 549.572883 -89.790744 
L 544.753354 -92.785785 
L 539.776007 -95.780826 
L 534.66437 -98.775868 
L 529.449574 -101.770909 
L 524.170865 -104.76595 
L 518.87566 -107.760992 
L 513.619073 -110.756033 
L 508.462853 -113.751074 
L 503.473784 -116.746116 
L 498.721577 -119.741157 
L 494.276385 -122.736198 
L 490.206085 -125.73124 
L 486.573515 -128.726281 
L 483.433841 -131.721322 
L 480.83227 -134.716364 
L 478.802246 -137.711405 
L 477.364289 -140.706446 
L 476.525535 -143.701488 
L 476.28 -146.696529 
L 476.609555 -149.69157 
L 477.485486 -152.686612 
L 478.870534 -155.681653 
L 480.721219 -158.676694 
L 482.990287 -161.671736 
L 485.629082 -164.666777 
L 488.58968 -167.661818 
L 491.826656 -170.65686 
L 495.298396 -173.651901 
L 498.96789 -176.646942 
L 502.803028 -179.641983 
L 506.77643 -182.637025 
L 510.864882 -185.632066 
L 515.048499 -188.627107 
L 519.309703 -191.622149 
L 523.632151 -194.61719 
L 527.999714 -197.612231 
L 532.395594 -200.607273 
L 536.801642 -203.602314 
L 541.197934 -206.597355 
L 545.562606 -209.592397 
L 549.871943 -212.587438 
L 554.100715 -215.582479 
L 558.222688 -218.577521 
L 562.211296 -221.572562 
L 566.040396 -224.567603 
L 569.685074 -227.562645 
L 573.122443 -230.557686 
L 576.332396 -233.552727 
L 579.298289 -236.547769 
L 582.007509 -239.54281 
L 584.451931 -242.537851 
L 586.628227 -245.532893 
L 588.538024 -248.527934 
L 590.18791 -251.522975 
L 591.589274 -254.518017 
L 592.757985 -257.513058 
L 593.713913 -260.508099 
L 594.480311 -263.50314 
L 595.083055 -266.498182 
L 595.549796 -269.493223 
L 595.909027 -272.488264 
L 596.189123 -275.483306 
L 596.417386 -278.478347 
L 596.619141 -281.473388 
L 596.816929 -284.46843 
L 597.029831 -287.463471 
L 597.272961 -290.458512 
L 597.557149 -293.453554 
L 597.888829 -296.448595 
L 598.270132 -299.443636 
L 598.69918 -302.438678 
L 599.17055 -305.433719 
L 599.675891 -308.42876 
L 600.204655 -311.423802 
L 600.744887 -314.418843 
L 601.284051 -317.413884 
L 601.809832 -320.408926 
L 602.310879 -323.403967 
L 602.777447 -326.399008 
L 603.201913 -329.39405 
L 603.579141 -332.389091 
L 603.906671 -335.384132 
L 604.184748 -338.379174 
L 604.416179 -341.374215 
L 604.606041 -344.369256 
L 604.761265 -347.364298 
L 604.890121 -350.359339 
L 605.001649 -353.35438 
L 605.105073 -356.349421 
L 605.209227 -359.344463 
L 605.322047 -362.339504 
L 605.450147 -365.334545 
L 614.949853 -365.334545 
L 614.949853 -365.334545 
L 615.077953 -362.339504 
L 615.190773 -359.344463 
L 615.294927 -356.349421 
L 615.398351 -353.35438 
L 615.509879 -350.359339 
L 615.638735 -347.364298 
L 615.793959 -344.369256 
L 615.983821 -341.374215 
L 616.215252 -338.379174 
L 616.493329 -335.384132 
L 616.820859 -332.389091 
L 617.198087 -329.39405 
L 617.622553 -326.399008 
L 618.089121 -323.403967 
L 618.590168 -320.408926 
L 619.115949 -317.413884 
L 619.655113 -314.418843 
L 620.195345 -311.423802 
L 620.724109 -308.42876 
L 621.22945 -305.433719 
L 621.70082 -302.438678 
L 622.129868 -299.443636 
L 622.511171 -296.448595 
L 622.842851 -293.453554 
L 623.127039 -290.458512 
L 623.370169 -287.463471 
L 623.583071 -284.46843 
L 623.780859 -281.473388 
L 623.982614 -278.478347 
L 624.210877 -275.483306 
L 624.490973 -272.488264 
L 624.850204 -269.493223 
L 625.316945 -266.498182 
L 625.919689 -263.50314 
L 626.686087 -260.508099 
L 627.642015 -257.513058 
L 628.810726 -254.518017 
L 630.21209 -251.522975 
L 631.861976 -248.527934 
L 633.771773 -245.532893 
L 635.948069 -242.537851 
L 638.392491 -239.54281 
L 641.101711 -236.547769 
L 644.067604 -233.552727 
L 647.277557 -230.557686 
L 650.714926 -227.562645 
L 654.359604 -224.567603 
L 658.188704 -221.572562 
L 662.177312 -218.577521 
L 666.299285 -215.582479 
L 670.528057 -212.587438 
L 674.837394 -209.592397 
L 679.202066 -206.597355 
L 683.598358 -203.602314 
L 688.004406 -200.607273 
L 692.400286 -197.612231 
L 696.767849 -194.61719 
L 701.090297 -191.622149 
L 705.351501 -188.627107 
L 709.535118 -185.632066 
L 713.62357 -182.637025 
L 717.596972 -179.641983 
L 721.43211 -176.646942 
L 725.101604 -173.651901 
L 728.573344 -170.65686 
L 731.81032 -167.661818 
L 734.770918 -164.666777 
L 737.409713 -161.671736 
L 739.678781 -158.676694 
L 741.529466 -155.681653 
L 742.914514 -152.686612 
L 743.790445 -149.69157 
L 744.12 -146.696529 
L 743.874465 -143.701488 
L 743.035711 -140.706446 
L 741.597754 -137.711405 
L 739.56773 -134.716364 
L 736.966159 -131.721322 
L 733.826485 -128.726281 
L 730.193915 -125.73124 
L 726.123615 -122.736198 
L 721.678423 -119.741157 
L 716.926216 -116.746116 
L 711.937147 -113.751074 
L 706.780927 -110.756033 
L 701.52434 -107.760992 
L 696.229135 -104.76595 
L 690.950426 -101.770909 
L 685.73563 -98.775868 
L 680.623993 -95.780826 
L 675.646646 -92.785785 
L 670.827117 -89.790744 
L 666.182218 -86.795702 
L 661.723157 -83.800661 
L 657.456765 -80.80562 
L 653.386716 -77.810579 
L 649.514639 -74.815537 
L 645.841041 -71.820496 
L 642.365993 -68.825455 
z
" id="mf18b35ee88" style="stroke:#4c4c4c;stroke-width:1.5;"/>
    </defs>
    <g clip-path="url(#pe36d4aaa7c)">
     <use style="fill:#cc8963;stroke:#4c4c4c;stroke-width:1.5;" x="0" xlink:href="#mf18b35ee88" y="432"/>
    </g>
   </g>
   <g id="line2d_6">
    <path clip-path="url(#pe36d4aaa7c)" d="M 261.830489 328.779491 
L 288.969511 328.779491 
" style="fill:none;stroke:#4c4c4c;stroke-dasharray:3.375,3.375;stroke-dashoffset:0;stroke-width:1.5;"/>
   </g>
   <g id="line2d_7">
    <path clip-path="url(#pe36d4aaa7c)" d="M 259.681606 309.802909 
L 291.118394 309.802909 
" style="fill:none;stroke:#4c4c4c;stroke-dasharray:6.75,6.75;stroke-dashoffset:0;stroke-width:1.5;"/>
   </g>
   <g id="line2d_8">
    <path clip-path="url(#pe36d4aaa7c)" d="M 263.762881 283.117091 
L 287.037119 283.117091 
" style="fill:none;stroke:#4c4c4c;stroke-dasharray:3.375,3.375;stroke-dashoffset:0;stroke-width:1.5;"/>
   </g>
   <g id="line2d_9">
    <path clip-path="url(#pe36d4aaa7c)" d="M 487.80978 303.872727 
L 732.59022 303.872727 
" style="fill:none;stroke:#4c4c4c;stroke-dasharray:3.375,3.375;stroke-dashoffset:0;stroke-width:1.5;"/>
   </g>
   <g id="line2d_10">
    <path clip-path="url(#pe36d4aaa7c)" d="M 477.6192 286.082182 
L 742.7808 286.082182 
" style="fill:none;stroke:#4c4c4c;stroke-dasharray:6.75,6.75;stroke-dashoffset:0;stroke-width:1.5;"/>
   </g>
   <g id="line2d_11">
    <path clip-path="url(#pe36d4aaa7c)" d="M 511.858233 247.536 
L 708.541767 247.536 
" style="fill:none;stroke:#4c4c4c;stroke-dasharray:3.375,3.375;stroke-dashoffset:0;stroke-width:1.5;"/>
   </g>
   <g id="patch_3">
    <path d="M 108 378 
L 108 51.84 
" style="fill:none;stroke:#ffffff;stroke-linecap:square;stroke-linejoin:miter;stroke-width:1.25;"/>
   </g>
   <g id="patch_4">
    <path d="M 777.6 378 
L 777.6 51.84 
" style="fill:none;stroke:#ffffff;stroke-linecap:square;stroke-linejoin:miter;stroke-width:1.25;"/>
   </g>
   <g id="patch_5">
    <path d="M 108 378 
L 777.6 378 
" style="fill:none;stroke:#ffffff;stroke-linecap:square;stroke-linejoin:miter;stroke-width:1.25;"/>
   </g>
   <g id="patch_6">
    <path d="M 108 51.84 
L 777.6 51.84 
" style="fill:none;stroke:#ffffff;stroke-linecap:square;stroke-linejoin:miter;stroke-width:1.25;"/>
   </g>
   <g id="text_10">
    <!-- Compensation by Gender -->
    <g style="fill:#262626;" transform="translate(374.431875 45.84)scale(0.12 -0.12)">
     <defs>
      <path d="M 3763 1606 
L 4369 1453 
Q 4178 706 3683 314 
Q 3188 -78 2472 -78 
Q 1731 -78 1267 223 
Q 803 525 561 1097 
Q 319 1669 319 2325 
Q 319 3041 592 3573 
Q 866 4106 1370 4382 
Q 1875 4659 2481 4659 
Q 3169 4659 3637 4309 
Q 4106 3959 4291 3325 
L 3694 3184 
Q 3534 3684 3231 3912 
Q 2928 4141 2469 4141 
Q 1941 4141 1586 3887 
Q 1231 3634 1087 3207 
Q 944 2781 944 2328 
Q 944 1744 1114 1308 
Q 1284 872 1643 656 
Q 2003 441 2422 441 
Q 2931 441 3284 734 
Q 3638 1028 3763 1606 
z
" id="ArialMT-43" transform="scale(0.015625)"/>
      <path d="M 422 -1272 
L 422 3319 
L 934 3319 
L 934 2888 
Q 1116 3141 1344 3267 
Q 1572 3394 1897 3394 
Q 2322 3394 2647 3175 
Q 2972 2956 3137 2557 
Q 3303 2159 3303 1684 
Q 3303 1175 3120 767 
Q 2938 359 2589 142 
Q 2241 -75 1856 -75 
Q 1575 -75 1351 44 
Q 1128 163 984 344 
L 984 -1272 
L 422 -1272 
z
M 931 1641 
Q 931 1000 1190 694 
Q 1450 388 1819 388 
Q 2194 388 2461 705 
Q 2728 1022 2728 1688 
Q 2728 2322 2467 2637 
Q 2206 2953 1844 2953 
Q 1484 2953 1207 2617 
Q 931 2281 931 1641 
z
" id="ArialMT-70" transform="scale(0.015625)"/>
      <path d="M 941 0 
L 419 0 
L 419 4581 
L 981 4581 
L 981 2947 
Q 1338 3394 1891 3394 
Q 2197 3394 2470 3270 
Q 2744 3147 2920 2923 
Q 3097 2700 3197 2384 
Q 3297 2069 3297 1709 
Q 3297 856 2875 390 
Q 2453 -75 1863 -75 
Q 1275 -75 941 416 
L 941 0 
z
M 934 1684 
Q 934 1088 1097 822 
Q 1363 388 1816 388 
Q 2184 388 2453 708 
Q 2722 1028 2722 1663 
Q 2722 2313 2464 2622 
Q 2206 2931 1841 2931 
Q 1472 2931 1203 2611 
Q 934 2291 934 1684 
z
" id="ArialMT-62" transform="scale(0.015625)"/>
      <path d="M 397 -1278 
L 334 -750 
Q 519 -800 656 -800 
Q 844 -800 956 -737 
Q 1069 -675 1141 -563 
Q 1194 -478 1313 -144 
Q 1328 -97 1363 -6 
L 103 3319 
L 709 3319 
L 1400 1397 
Q 1534 1031 1641 628 
Q 1738 1016 1872 1384 
L 2581 3319 
L 3144 3319 
L 1881 -56 
Q 1678 -603 1566 -809 
Q 1416 -1088 1222 -1217 
Q 1028 -1347 759 -1347 
Q 597 -1347 397 -1278 
z
" id="ArialMT-79" transform="scale(0.015625)"/>
     </defs>
     <use xlink:href="#ArialMT-43"/>
     <use x="72.216797" xlink:href="#ArialMT-6f"/>
     <use x="127.832031" xlink:href="#ArialMT-6d"/>
     <use x="211.132812" xlink:href="#ArialMT-70"/>
     <use x="266.748047" xlink:href="#ArialMT-65"/>
     <use x="322.363281" xlink:href="#ArialMT-6e"/>
     <use x="377.978516" xlink:href="#ArialMT-73"/>
     <use x="427.978516" xlink:href="#ArialMT-61"/>
     <use x="483.59375" xlink:href="#ArialMT-74"/>
     <use x="511.376953" xlink:href="#ArialMT-69"/>
     <use x="533.59375" xlink:href="#ArialMT-6f"/>
     <use x="589.208984" xlink:href="#ArialMT-6e"/>
     <use x="644.824219" xlink:href="#ArialMT-20"/>
     <use x="672.607422" xlink:href="#ArialMT-62"/>
     <use x="728.222656" xlink:href="#ArialMT-79"/>
     <use x="778.222656" xlink:href="#ArialMT-20"/>
     <use x="806.005859" xlink:href="#ArialMT-47"/>
     <use x="883.789062" xlink:href="#ArialMT-65"/>
     <use x="939.404297" xlink:href="#ArialMT-6e"/>
     <use x="995.019531" xlink:href="#ArialMT-64"/>
     <use x="1050.634766" xlink:href="#ArialMT-65"/>
     <use x="1106.25" xlink:href="#ArialMT-72"/>
    </g>
   </g>
  </g>
 </g>
 <defs>
  <clipPath id="pe36d4aaa7c">
   <rect height="326.16" width="669.6" x="108" y="51.84"/>
  </clipPath>
 </defs>
</svg>
