<?xml version="1.0" encoding="utf-8" standalone="no"?>
<!DOCTYPE svg PUBLIC "-//W3C//DTD SVG 1.1//EN"
  "http://www.w3.org/Graphics/SVG/1.1/DTD/svg11.dtd">
<svg height="432pt" version="1.1" viewBox="0 0 864 432" width="864pt" xmlns="http://www.w3.org/2000/svg" xmlns:xlink="http://www.w3.org/1999/xlink">
 <metadata>
  <rdf:RDF xmlns:cc="http://creativecommons.org/ns#" xmlns:dc="http://purl.org/dc/elements/1.1/" xmlns:rdf="http://www.w3.org/1999/02/22-rdf-syntax-ns#">
   <cc:Work>
    <dc:type rdf:resource="http://purl.org/dc/dcmitype/StillImage"/>
    <dc:date>2022-01-05T15:09:57.938386</dc:date>
    <dc:format>image/svg+xml</dc:format>
    <dc:creator>
     <cc:Agent>
      <dc:title>Matplotlib v3.4.3, https://matplotlib.org/</dc:title>
     </cc:Agent>
    </dc:creator>
   </cc:Work>
  </rdf:RDF>
 </metadata>
 <defs>
  <style type="text/css">*{stroke-linecap:butt;stroke-linejoin:round;}</style>
 </defs>
 <g id="figure_1">
  <g id="patch_1">
   <path d="M 0 432 
L 864 432 
L 864 0 
L 0 0 
z
" style="fill:#ffffff;"/>
  </g>
  <g id="axes_1">
   <g id="patch_2">
    <path d="M 108 378 
L 777.6 378 
L 777.6 51.84 
L 108 51.84 
z
" style="fill:#eaeaf2;"/>
   </g>
   <g id="matplotlib.axis_1">
    <g id="xtick_1">
     <g id="text_1">
      <!-- DevOps -->
      <g style="fill:#262626;" transform="translate(143.932969 395.514531)scale(0.11 -0.11)">
       <defs>
        <path d="M 494 0 
L 494 4581 
L 2072 4581 
Q 2606 4581 2888 4516 
Q 3281 4425 3559 4188 
Q 3922 3881 4101 3404 
Q 4281 2928 4281 2316 
Q 4281 1794 4159 1391 
Q 4038 988 3847 723 
Q 3656 459 3429 307 
Q 3203 156 2883 78 
Q 2563 0 2147 0 
L 494 0 
z
M 1100 541 
L 2078 541 
Q 2531 541 2789 625 
Q 3047 709 3200 863 
Q 3416 1078 3536 1442 
Q 3656 1806 3656 2325 
Q 3656 3044 3420 3430 
Q 3184 3816 2847 3947 
Q 2603 4041 2063 4041 
L 1100 4041 
L 1100 541 
z
" id="ArialMT-44" transform="scale(0.015625)"/>
        <path d="M 2694 1069 
L 3275 997 
Q 3138 488 2766 206 
Q 2394 -75 1816 -75 
Q 1088 -75 661 373 
Q 234 822 234 1631 
Q 234 2469 665 2931 
Q 1097 3394 1784 3394 
Q 2450 3394 2872 2941 
Q 3294 2488 3294 1666 
Q 3294 1616 3291 1516 
L 816 1516 
Q 847 969 1125 678 
Q 1403 388 1819 388 
Q 2128 388 2347 550 
Q 2566 713 2694 1069 
z
M 847 1978 
L 2700 1978 
Q 2663 2397 2488 2606 
Q 2219 2931 1791 2931 
Q 1403 2931 1139 2672 
Q 875 2413 847 1978 
z
" id="ArialMT-65" transform="scale(0.015625)"/>
        <path d="M 1344 0 
L 81 3319 
L 675 3319 
L 1388 1331 
Q 1503 1009 1600 663 
Q 1675 925 1809 1294 
L 2547 3319 
L 3125 3319 
L 1869 0 
L 1344 0 
z
" id="ArialMT-76" transform="scale(0.015625)"/>
        <path d="M 309 2231 
Q 309 3372 921 4017 
Q 1534 4663 2503 4663 
Q 3138 4663 3647 4359 
Q 4156 4056 4423 3514 
Q 4691 2972 4691 2284 
Q 4691 1588 4409 1038 
Q 4128 488 3612 205 
Q 3097 -78 2500 -78 
Q 1853 -78 1343 234 
Q 834 547 571 1087 
Q 309 1628 309 2231 
z
M 934 2222 
Q 934 1394 1379 917 
Q 1825 441 2497 441 
Q 3181 441 3623 922 
Q 4066 1403 4066 2288 
Q 4066 2847 3877 3264 
Q 3688 3681 3323 3911 
Q 2959 4141 2506 4141 
Q 1863 4141 1398 3698 
Q 934 3256 934 2222 
z
" id="ArialMT-4f" transform="scale(0.015625)"/>
        <path d="M 422 -1272 
L 422 3319 
L 934 3319 
L 934 2888 
Q 1116 3141 1344 3267 
Q 1572 3394 1897 3394 
Q 2322 3394 2647 3175 
Q 2972 2956 3137 2557 
Q 3303 2159 3303 1684 
Q 3303 1175 3120 767 
Q 2938 359 2589 142 
Q 2241 -75 1856 -75 
Q 1575 -75 1351 44 
Q 1128 163 984 344 
L 984 -1272 
L 422 -1272 
z
M 931 1641 
Q 931 1000 1190 694 
Q 1450 388 1819 388 
Q 2194 388 2461 705 
Q 2728 1022 2728 1688 
Q 2728 2322 2467 2637 
Q 2206 2953 1844 2953 
Q 1484 2953 1207 2617 
Q 931 2281 931 1641 
z
" id="ArialMT-70" transform="scale(0.015625)"/>
        <path d="M 197 991 
L 753 1078 
Q 800 744 1014 566 
Q 1228 388 1613 388 
Q 2000 388 2187 545 
Q 2375 703 2375 916 
Q 2375 1106 2209 1216 
Q 2094 1291 1634 1406 
Q 1016 1563 777 1677 
Q 538 1791 414 1992 
Q 291 2194 291 2438 
Q 291 2659 392 2848 
Q 494 3038 669 3163 
Q 800 3259 1026 3326 
Q 1253 3394 1513 3394 
Q 1903 3394 2198 3281 
Q 2494 3169 2634 2976 
Q 2775 2784 2828 2463 
L 2278 2388 
Q 2241 2644 2061 2787 
Q 1881 2931 1553 2931 
Q 1166 2931 1000 2803 
Q 834 2675 834 2503 
Q 834 2394 903 2306 
Q 972 2216 1119 2156 
Q 1203 2125 1616 2013 
Q 2213 1853 2448 1751 
Q 2684 1650 2818 1456 
Q 2953 1263 2953 975 
Q 2953 694 2789 445 
Q 2625 197 2315 61 
Q 2006 -75 1616 -75 
Q 969 -75 630 194 
Q 291 463 197 991 
z
" id="ArialMT-73" transform="scale(0.015625)"/>
       </defs>
       <use xlink:href="#ArialMT-44"/>
       <use x="72.216797" xlink:href="#ArialMT-65"/>
       <use x="127.832031" xlink:href="#ArialMT-76"/>
       <use x="177.832031" xlink:href="#ArialMT-4f"/>
       <use x="255.615234" xlink:href="#ArialMT-70"/>
       <use x="311.230469" xlink:href="#ArialMT-73"/>
      </g>
     </g>
    </g>
    <g id="xtick_2">
     <g id="text_2">
      <!-- IT/Support -->
      <g style="fill:#262626;" transform="translate(249.722734 395.507656)scale(0.11 -0.11)">
       <defs>
        <path d="M 597 0 
L 597 4581 
L 1203 4581 
L 1203 0 
L 597 0 
z
" id="ArialMT-49" transform="scale(0.015625)"/>
        <path d="M 1659 0 
L 1659 4041 
L 150 4041 
L 150 4581 
L 3781 4581 
L 3781 4041 
L 2266 4041 
L 2266 0 
L 1659 0 
z
" id="ArialMT-54" transform="scale(0.015625)"/>
        <path d="M 0 -78 
L 1328 4659 
L 1778 4659 
L 453 -78 
L 0 -78 
z
" id="ArialMT-2f" transform="scale(0.015625)"/>
        <path d="M 288 1472 
L 859 1522 
Q 900 1178 1048 958 
Q 1197 738 1509 602 
Q 1822 466 2213 466 
Q 2559 466 2825 569 
Q 3091 672 3220 851 
Q 3350 1031 3350 1244 
Q 3350 1459 3225 1620 
Q 3100 1781 2813 1891 
Q 2628 1963 1997 2114 
Q 1366 2266 1113 2400 
Q 784 2572 623 2826 
Q 463 3081 463 3397 
Q 463 3744 659 4045 
Q 856 4347 1234 4503 
Q 1613 4659 2075 4659 
Q 2584 4659 2973 4495 
Q 3363 4331 3572 4012 
Q 3781 3694 3797 3291 
L 3216 3247 
Q 3169 3681 2898 3903 
Q 2628 4125 2100 4125 
Q 1550 4125 1298 3923 
Q 1047 3722 1047 3438 
Q 1047 3191 1225 3031 
Q 1400 2872 2139 2705 
Q 2878 2538 3153 2413 
Q 3553 2228 3743 1945 
Q 3934 1663 3934 1294 
Q 3934 928 3725 604 
Q 3516 281 3123 101 
Q 2731 -78 2241 -78 
Q 1619 -78 1198 103 
Q 778 284 539 648 
Q 300 1013 288 1472 
z
" id="ArialMT-53" transform="scale(0.015625)"/>
        <path d="M 2597 0 
L 2597 488 
Q 2209 -75 1544 -75 
Q 1250 -75 995 37 
Q 741 150 617 320 
Q 494 491 444 738 
Q 409 903 409 1263 
L 409 3319 
L 972 3319 
L 972 1478 
Q 972 1038 1006 884 
Q 1059 663 1231 536 
Q 1403 409 1656 409 
Q 1909 409 2131 539 
Q 2353 669 2445 892 
Q 2538 1116 2538 1541 
L 2538 3319 
L 3100 3319 
L 3100 0 
L 2597 0 
z
" id="ArialMT-75" transform="scale(0.015625)"/>
        <path d="M 213 1659 
Q 213 2581 725 3025 
Q 1153 3394 1769 3394 
Q 2453 3394 2887 2945 
Q 3322 2497 3322 1706 
Q 3322 1066 3130 698 
Q 2938 331 2570 128 
Q 2203 -75 1769 -75 
Q 1072 -75 642 372 
Q 213 819 213 1659 
z
M 791 1659 
Q 791 1022 1069 705 
Q 1347 388 1769 388 
Q 2188 388 2466 706 
Q 2744 1025 2744 1678 
Q 2744 2294 2464 2611 
Q 2184 2928 1769 2928 
Q 1347 2928 1069 2612 
Q 791 2297 791 1659 
z
" id="ArialMT-6f" transform="scale(0.015625)"/>
        <path d="M 416 0 
L 416 3319 
L 922 3319 
L 922 2816 
Q 1116 3169 1280 3281 
Q 1444 3394 1641 3394 
Q 1925 3394 2219 3213 
L 2025 2691 
Q 1819 2813 1613 2813 
Q 1428 2813 1281 2702 
Q 1134 2591 1072 2394 
Q 978 2094 978 1738 
L 978 0 
L 416 0 
z
" id="ArialMT-72" transform="scale(0.015625)"/>
        <path d="M 1650 503 
L 1731 6 
Q 1494 -44 1306 -44 
Q 1000 -44 831 53 
Q 663 150 594 308 
Q 525 466 525 972 
L 525 2881 
L 113 2881 
L 113 3319 
L 525 3319 
L 525 4141 
L 1084 4478 
L 1084 3319 
L 1650 3319 
L 1650 2881 
L 1084 2881 
L 1084 941 
Q 1084 700 1114 631 
Q 1144 563 1211 522 
Q 1278 481 1403 481 
Q 1497 481 1650 503 
z
" id="ArialMT-74" transform="scale(0.015625)"/>
       </defs>
       <use xlink:href="#ArialMT-49"/>
       <use x="27.783203" xlink:href="#ArialMT-54"/>
       <use x="88.867188" xlink:href="#ArialMT-2f"/>
       <use x="116.650391" xlink:href="#ArialMT-53"/>
       <use x="183.349609" xlink:href="#ArialMT-75"/>
       <use x="238.964844" xlink:href="#ArialMT-70"/>
       <use x="294.580078" xlink:href="#ArialMT-70"/>
       <use x="350.195312" xlink:href="#ArialMT-6f"/>
       <use x="405.810547" xlink:href="#ArialMT-72"/>
       <use x="439.111328" xlink:href="#ArialMT-74"/>
      </g>
     </g>
    </g>
    <g id="xtick_3">
     <g id="text_3">
      <!-- Management/HR -->
      <g style="fill:#262626;" transform="translate(345.427734 395.507656)scale(0.11 -0.11)">
       <defs>
        <path d="M 475 0 
L 475 4581 
L 1388 4581 
L 2472 1338 
Q 2622 884 2691 659 
Q 2769 909 2934 1394 
L 4031 4581 
L 4847 4581 
L 4847 0 
L 4263 0 
L 4263 3834 
L 2931 0 
L 2384 0 
L 1059 3900 
L 1059 0 
L 475 0 
z
" id="ArialMT-4d" transform="scale(0.015625)"/>
        <path d="M 2588 409 
Q 2275 144 1986 34 
Q 1697 -75 1366 -75 
Q 819 -75 525 192 
Q 231 459 231 875 
Q 231 1119 342 1320 
Q 453 1522 633 1644 
Q 813 1766 1038 1828 
Q 1203 1872 1538 1913 
Q 2219 1994 2541 2106 
Q 2544 2222 2544 2253 
Q 2544 2597 2384 2738 
Q 2169 2928 1744 2928 
Q 1347 2928 1158 2789 
Q 969 2650 878 2297 
L 328 2372 
Q 403 2725 575 2942 
Q 747 3159 1072 3276 
Q 1397 3394 1825 3394 
Q 2250 3394 2515 3294 
Q 2781 3194 2906 3042 
Q 3031 2891 3081 2659 
Q 3109 2516 3109 2141 
L 3109 1391 
Q 3109 606 3145 398 
Q 3181 191 3288 0 
L 2700 0 
Q 2613 175 2588 409 
z
M 2541 1666 
Q 2234 1541 1622 1453 
Q 1275 1403 1131 1340 
Q 988 1278 909 1158 
Q 831 1038 831 891 
Q 831 666 1001 516 
Q 1172 366 1500 366 
Q 1825 366 2078 508 
Q 2331 650 2450 897 
Q 2541 1088 2541 1459 
L 2541 1666 
z
" id="ArialMT-61" transform="scale(0.015625)"/>
        <path d="M 422 0 
L 422 3319 
L 928 3319 
L 928 2847 
Q 1294 3394 1984 3394 
Q 2284 3394 2536 3286 
Q 2788 3178 2913 3003 
Q 3038 2828 3088 2588 
Q 3119 2431 3119 2041 
L 3119 0 
L 2556 0 
L 2556 2019 
Q 2556 2363 2490 2533 
Q 2425 2703 2258 2804 
Q 2091 2906 1866 2906 
Q 1506 2906 1245 2678 
Q 984 2450 984 1813 
L 984 0 
L 422 0 
z
" id="ArialMT-6e" transform="scale(0.015625)"/>
        <path d="M 319 -275 
L 866 -356 
Q 900 -609 1056 -725 
Q 1266 -881 1628 -881 
Q 2019 -881 2231 -725 
Q 2444 -569 2519 -288 
Q 2563 -116 2559 434 
Q 2191 0 1641 0 
Q 956 0 581 494 
Q 206 988 206 1678 
Q 206 2153 378 2554 
Q 550 2956 876 3175 
Q 1203 3394 1644 3394 
Q 2231 3394 2613 2919 
L 2613 3319 
L 3131 3319 
L 3131 450 
Q 3131 -325 2973 -648 
Q 2816 -972 2473 -1159 
Q 2131 -1347 1631 -1347 
Q 1038 -1347 672 -1080 
Q 306 -813 319 -275 
z
M 784 1719 
Q 784 1066 1043 766 
Q 1303 466 1694 466 
Q 2081 466 2343 764 
Q 2606 1063 2606 1700 
Q 2606 2309 2336 2618 
Q 2066 2928 1684 2928 
Q 1309 2928 1046 2623 
Q 784 2319 784 1719 
z
" id="ArialMT-67" transform="scale(0.015625)"/>
        <path d="M 422 0 
L 422 3319 
L 925 3319 
L 925 2853 
Q 1081 3097 1340 3245 
Q 1600 3394 1931 3394 
Q 2300 3394 2536 3241 
Q 2772 3088 2869 2813 
Q 3263 3394 3894 3394 
Q 4388 3394 4653 3120 
Q 4919 2847 4919 2278 
L 4919 0 
L 4359 0 
L 4359 2091 
Q 4359 2428 4304 2576 
Q 4250 2725 4106 2815 
Q 3963 2906 3769 2906 
Q 3419 2906 3187 2673 
Q 2956 2441 2956 1928 
L 2956 0 
L 2394 0 
L 2394 2156 
Q 2394 2531 2256 2718 
Q 2119 2906 1806 2906 
Q 1569 2906 1367 2781 
Q 1166 2656 1075 2415 
Q 984 2175 984 1722 
L 984 0 
L 422 0 
z
" id="ArialMT-6d" transform="scale(0.015625)"/>
        <path d="M 513 0 
L 513 4581 
L 1119 4581 
L 1119 2700 
L 3500 2700 
L 3500 4581 
L 4106 4581 
L 4106 0 
L 3500 0 
L 3500 2159 
L 1119 2159 
L 1119 0 
L 513 0 
z
" id="ArialMT-48" transform="scale(0.015625)"/>
        <path d="M 503 0 
L 503 4581 
L 2534 4581 
Q 3147 4581 3465 4457 
Q 3784 4334 3975 4021 
Q 4166 3709 4166 3331 
Q 4166 2844 3850 2509 
Q 3534 2175 2875 2084 
Q 3116 1969 3241 1856 
Q 3506 1613 3744 1247 
L 4541 0 
L 3778 0 
L 3172 953 
Q 2906 1366 2734 1584 
Q 2563 1803 2427 1890 
Q 2291 1978 2150 2013 
Q 2047 2034 1813 2034 
L 1109 2034 
L 1109 0 
L 503 0 
z
M 1109 2559 
L 2413 2559 
Q 2828 2559 3062 2645 
Q 3297 2731 3419 2920 
Q 3541 3109 3541 3331 
Q 3541 3656 3305 3865 
Q 3069 4075 2559 4075 
L 1109 4075 
L 1109 2559 
z
" id="ArialMT-52" transform="scale(0.015625)"/>
       </defs>
       <use xlink:href="#ArialMT-4d"/>
       <use x="83.300781" xlink:href="#ArialMT-61"/>
       <use x="138.916016" xlink:href="#ArialMT-6e"/>
       <use x="194.53125" xlink:href="#ArialMT-61"/>
       <use x="250.146484" xlink:href="#ArialMT-67"/>
       <use x="305.761719" xlink:href="#ArialMT-65"/>
       <use x="361.376953" xlink:href="#ArialMT-6d"/>
       <use x="444.677734" xlink:href="#ArialMT-65"/>
       <use x="500.292969" xlink:href="#ArialMT-6e"/>
       <use x="555.908203" xlink:href="#ArialMT-74"/>
       <use x="583.691406" xlink:href="#ArialMT-2f"/>
       <use x="611.474609" xlink:href="#ArialMT-48"/>
       <use x="683.691406" xlink:href="#ArialMT-52"/>
      </g>
     </g>
    </g>
    <g id="xtick_4">
     <g id="text_4">
      <!-- Other -->
      <g style="fill:#262626;" transform="translate(484.845703 395.373594)scale(0.11 -0.11)">
       <defs>
        <path d="M 422 0 
L 422 4581 
L 984 4581 
L 984 2938 
Q 1378 3394 1978 3394 
Q 2347 3394 2619 3248 
Q 2891 3103 3008 2847 
Q 3125 2591 3125 2103 
L 3125 0 
L 2563 0 
L 2563 2103 
Q 2563 2525 2380 2717 
Q 2197 2909 1863 2909 
Q 1613 2909 1392 2779 
Q 1172 2650 1078 2428 
Q 984 2206 984 1816 
L 984 0 
L 422 0 
z
" id="ArialMT-68" transform="scale(0.015625)"/>
       </defs>
       <use xlink:href="#ArialMT-4f"/>
       <use x="77.783203" xlink:href="#ArialMT-74"/>
       <use x="105.566406" xlink:href="#ArialMT-68"/>
       <use x="161.181641" xlink:href="#ArialMT-65"/>
       <use x="216.796875" xlink:href="#ArialMT-72"/>
      </g>
     </g>
    </g>
    <g id="xtick_5">
     <g id="text_5">
      <!-- Software Development -->
      <g style="fill:#262626;" transform="translate(554.564063 395.507656)scale(0.11 -0.11)">
       <defs>
        <path d="M 556 0 
L 556 2881 
L 59 2881 
L 59 3319 
L 556 3319 
L 556 3672 
Q 556 4006 616 4169 
Q 697 4388 901 4523 
Q 1106 4659 1475 4659 
Q 1713 4659 2000 4603 
L 1916 4113 
Q 1741 4144 1584 4144 
Q 1328 4144 1222 4034 
Q 1116 3925 1116 3625 
L 1116 3319 
L 1763 3319 
L 1763 2881 
L 1116 2881 
L 1116 0 
L 556 0 
z
" id="ArialMT-66" transform="scale(0.015625)"/>
        <path d="M 1034 0 
L 19 3319 
L 600 3319 
L 1128 1403 
L 1325 691 
Q 1338 744 1497 1375 
L 2025 3319 
L 2603 3319 
L 3100 1394 
L 3266 759 
L 3456 1400 
L 4025 3319 
L 4572 3319 
L 3534 0 
L 2950 0 
L 2422 1988 
L 2294 2553 
L 1622 0 
L 1034 0 
z
" id="ArialMT-77" transform="scale(0.015625)"/>
        <path id="ArialMT-20" transform="scale(0.015625)"/>
        <path d="M 409 0 
L 409 4581 
L 972 4581 
L 972 0 
L 409 0 
z
" id="ArialMT-6c" transform="scale(0.015625)"/>
       </defs>
       <use xlink:href="#ArialMT-53"/>
       <use x="66.699219" xlink:href="#ArialMT-6f"/>
       <use x="122.314453" xlink:href="#ArialMT-66"/>
       <use x="150.097656" xlink:href="#ArialMT-74"/>
       <use x="177.880859" xlink:href="#ArialMT-77"/>
       <use x="250.097656" xlink:href="#ArialMT-61"/>
       <use x="305.712891" xlink:href="#ArialMT-72"/>
       <use x="339.013672" xlink:href="#ArialMT-65"/>
       <use x="394.628906" xlink:href="#ArialMT-20"/>
       <use x="422.412109" xlink:href="#ArialMT-44"/>
       <use x="494.628906" xlink:href="#ArialMT-65"/>
       <use x="550.244141" xlink:href="#ArialMT-76"/>
       <use x="600.244141" xlink:href="#ArialMT-65"/>
       <use x="655.859375" xlink:href="#ArialMT-6c"/>
       <use x="678.076172" xlink:href="#ArialMT-6f"/>
       <use x="733.691406" xlink:href="#ArialMT-70"/>
       <use x="789.306641" xlink:href="#ArialMT-6d"/>
       <use x="872.607422" xlink:href="#ArialMT-65"/>
       <use x="928.222656" xlink:href="#ArialMT-6e"/>
       <use x="983.837891" xlink:href="#ArialMT-74"/>
      </g>
     </g>
    </g>
    <g id="xtick_6">
     <g id="text_6">
      <!-- Testing/QA -->
      <g style="fill:#262626;" transform="translate(694.902422 395.514531)scale(0.11 -0.11)">
       <defs>
        <path d="M 425 3934 
L 425 4581 
L 988 4581 
L 988 3934 
L 425 3934 
z
M 425 0 
L 425 3319 
L 988 3319 
L 988 0 
L 425 0 
z
" id="ArialMT-69" transform="scale(0.015625)"/>
        <path d="M 3966 491 
Q 4388 200 4744 66 
L 4566 -356 
Q 4072 -178 3581 206 
Q 3072 -78 2456 -78 
Q 1834 -78 1328 222 
Q 822 522 548 1065 
Q 275 1609 275 2291 
Q 275 2969 550 3525 
Q 825 4081 1333 4372 
Q 1841 4663 2469 4663 
Q 3103 4663 3612 4361 
Q 4122 4059 4389 3517 
Q 4656 2975 4656 2294 
Q 4656 1728 4484 1276 
Q 4313 825 3966 491 
z
M 2631 1266 
Q 3156 1119 3497 828 
Q 4031 1316 4031 2294 
Q 4031 2850 3842 3265 
Q 3653 3681 3289 3911 
Q 2925 4141 2472 4141 
Q 1794 4141 1347 3677 
Q 900 3213 900 2291 
Q 900 1397 1342 919 
Q 1784 441 2472 441 
Q 2797 441 3084 563 
Q 2800 747 2484 825 
L 2631 1266 
z
" id="ArialMT-51" transform="scale(0.015625)"/>
        <path d="M -9 0 
L 1750 4581 
L 2403 4581 
L 4278 0 
L 3588 0 
L 3053 1388 
L 1138 1388 
L 634 0 
L -9 0 
z
M 1313 1881 
L 2866 1881 
L 2388 3150 
Q 2169 3728 2063 4100 
Q 1975 3659 1816 3225 
L 1313 1881 
z
" id="ArialMT-41" transform="scale(0.015625)"/>
       </defs>
       <use xlink:href="#ArialMT-54"/>
       <use x="49.958984" xlink:href="#ArialMT-65"/>
       <use x="105.574219" xlink:href="#ArialMT-73"/>
       <use x="155.574219" xlink:href="#ArialMT-74"/>
       <use x="183.357422" xlink:href="#ArialMT-69"/>
       <use x="205.574219" xlink:href="#ArialMT-6e"/>
       <use x="261.189453" xlink:href="#ArialMT-67"/>
       <use x="316.804688" xlink:href="#ArialMT-2f"/>
       <use x="344.587891" xlink:href="#ArialMT-51"/>
       <use x="422.371094" xlink:href="#ArialMT-41"/>
      </g>
     </g>
    </g>
    <g id="text_7">
     <!-- Type of Work -->
     <g style="fill:#262626;" transform="translate(407.562187 410.565313)scale(0.12 -0.12)">
      <defs>
       <path d="M 397 -1278 
L 334 -750 
Q 519 -800 656 -800 
Q 844 -800 956 -737 
Q 1069 -675 1141 -563 
Q 1194 -478 1313 -144 
Q 1328 -97 1363 -6 
L 103 3319 
L 709 3319 
L 1400 1397 
Q 1534 1031 1641 628 
Q 1738 1016 1872 1384 
L 2581 3319 
L 3144 3319 
L 1881 -56 
Q 1678 -603 1566 -809 
Q 1416 -1088 1222 -1217 
Q 1028 -1347 759 -1347 
Q 597 -1347 397 -1278 
z
" id="ArialMT-79" transform="scale(0.015625)"/>
       <path d="M 1294 0 
L 78 4581 
L 700 4581 
L 1397 1578 
Q 1509 1106 1591 641 
Q 1766 1375 1797 1488 
L 2669 4581 
L 3400 4581 
L 4056 2263 
Q 4303 1400 4413 641 
Q 4500 1075 4641 1638 
L 5359 4581 
L 5969 4581 
L 4713 0 
L 4128 0 
L 3163 3491 
Q 3041 3928 3019 4028 
Q 2947 3713 2884 3491 
L 1913 0 
L 1294 0 
z
" id="ArialMT-57" transform="scale(0.015625)"/>
       <path d="M 425 0 
L 425 4581 
L 988 4581 
L 988 1969 
L 2319 3319 
L 3047 3319 
L 1778 2088 
L 3175 0 
L 2481 0 
L 1384 1697 
L 988 1316 
L 988 0 
L 425 0 
z
" id="ArialMT-6b" transform="scale(0.015625)"/>
      </defs>
      <use xlink:href="#ArialMT-54"/>
      <use x="55.583984" xlink:href="#ArialMT-79"/>
      <use x="105.583984" xlink:href="#ArialMT-70"/>
      <use x="161.199219" xlink:href="#ArialMT-65"/>
      <use x="216.814453" xlink:href="#ArialMT-20"/>
      <use x="244.597656" xlink:href="#ArialMT-6f"/>
      <use x="300.212891" xlink:href="#ArialMT-66"/>
      <use x="327.996094" xlink:href="#ArialMT-20"/>
      <use x="355.779297" xlink:href="#ArialMT-57"/>
      <use x="448.414062" xlink:href="#ArialMT-6f"/>
      <use x="504.029297" xlink:href="#ArialMT-72"/>
      <use x="537.330078" xlink:href="#ArialMT-6b"/>
     </g>
    </g>
   </g>
   <g id="matplotlib.axis_2">
    <g id="ytick_1">
     <g id="line2d_1">
      <path clip-path="url(#p8f97c2608f)" d="M 108 321.663273 
L 777.6 321.663273 
" style="fill:none;stroke:#ffffff;stroke-linecap:round;"/>
     </g>
     <g id="text_8">
      <!-- 100 -->
      <g style="fill:#262626;" transform="translate(80.148906 325.60007)scale(0.11 -0.11)">
       <defs>
        <path d="M 2384 0 
L 1822 0 
L 1822 3584 
Q 1619 3391 1289 3197 
Q 959 3003 697 2906 
L 697 3450 
Q 1169 3672 1522 3987 
Q 1875 4303 2022 4600 
L 2384 4600 
L 2384 0 
z
" id="ArialMT-31" transform="scale(0.015625)"/>
        <path d="M 266 2259 
Q 266 3072 433 3567 
Q 600 4063 929 4331 
Q 1259 4600 1759 4600 
Q 2128 4600 2406 4451 
Q 2684 4303 2865 4023 
Q 3047 3744 3150 3342 
Q 3253 2941 3253 2259 
Q 3253 1453 3087 958 
Q 2922 463 2592 192 
Q 2263 -78 1759 -78 
Q 1097 -78 719 397 
Q 266 969 266 2259 
z
M 844 2259 
Q 844 1131 1108 757 
Q 1372 384 1759 384 
Q 2147 384 2411 759 
Q 2675 1134 2675 2259 
Q 2675 3391 2411 3762 
Q 2147 4134 1753 4134 
Q 1366 4134 1134 3806 
Q 844 3388 844 2259 
z
" id="ArialMT-30" transform="scale(0.015625)"/>
       </defs>
       <use xlink:href="#ArialMT-31"/>
       <use x="55.615234" xlink:href="#ArialMT-30"/>
       <use x="111.230469" xlink:href="#ArialMT-30"/>
      </g>
     </g>
    </g>
    <g id="ytick_2">
     <g id="line2d_2">
      <path clip-path="url(#p8f97c2608f)" d="M 108 262.361455 
L 777.6 262.361455 
" style="fill:none;stroke:#ffffff;stroke-linecap:round;"/>
     </g>
     <g id="text_9">
      <!-- 150 -->
      <g style="fill:#262626;" transform="translate(80.148906 266.298251)scale(0.11 -0.11)">
       <defs>
        <path d="M 266 1200 
L 856 1250 
Q 922 819 1161 601 
Q 1400 384 1738 384 
Q 2144 384 2425 690 
Q 2706 997 2706 1503 
Q 2706 1984 2436 2262 
Q 2166 2541 1728 2541 
Q 1456 2541 1237 2417 
Q 1019 2294 894 2097 
L 366 2166 
L 809 4519 
L 3088 4519 
L 3088 3981 
L 1259 3981 
L 1013 2750 
Q 1425 3038 1878 3038 
Q 2478 3038 2890 2622 
Q 3303 2206 3303 1553 
Q 3303 931 2941 478 
Q 2500 -78 1738 -78 
Q 1113 -78 717 272 
Q 322 622 266 1200 
z
" id="ArialMT-35" transform="scale(0.015625)"/>
       </defs>
       <use xlink:href="#ArialMT-31"/>
       <use x="55.615234" xlink:href="#ArialMT-35"/>
       <use x="111.230469" xlink:href="#ArialMT-30"/>
      </g>
     </g>
    </g>
    <g id="ytick_3">
     <g id="line2d_3">
      <path clip-path="url(#p8f97c2608f)" d="M 108 203.059636 
L 777.6 203.059636 
" style="fill:none;stroke:#ffffff;stroke-linecap:round;"/>
     </g>
     <g id="text_10">
      <!-- 200 -->
      <g style="fill:#262626;" transform="translate(80.148906 206.996433)scale(0.11 -0.11)">
       <defs>
        <path d="M 3222 541 
L 3222 0 
L 194 0 
Q 188 203 259 391 
Q 375 700 629 1000 
Q 884 1300 1366 1694 
Q 2113 2306 2375 2664 
Q 2638 3022 2638 3341 
Q 2638 3675 2398 3904 
Q 2159 4134 1775 4134 
Q 1369 4134 1125 3890 
Q 881 3647 878 3216 
L 300 3275 
Q 359 3922 746 4261 
Q 1134 4600 1788 4600 
Q 2447 4600 2831 4234 
Q 3216 3869 3216 3328 
Q 3216 3053 3103 2787 
Q 2991 2522 2730 2228 
Q 2469 1934 1863 1422 
Q 1356 997 1212 845 
Q 1069 694 975 541 
L 3222 541 
z
" id="ArialMT-32" transform="scale(0.015625)"/>
       </defs>
       <use xlink:href="#ArialMT-32"/>
       <use x="55.615234" xlink:href="#ArialMT-30"/>
       <use x="111.230469" xlink:href="#ArialMT-30"/>
      </g>
     </g>
    </g>
    <g id="ytick_4">
     <g id="line2d_4">
      <path clip-path="url(#p8f97c2608f)" d="M 108 143.757818 
L 777.6 143.757818 
" style="fill:none;stroke:#ffffff;stroke-linecap:round;"/>
     </g>
     <g id="text_11">
      <!-- 250 -->
      <g style="fill:#262626;" transform="translate(80.148906 147.694615)scale(0.11 -0.11)">
       <use xlink:href="#ArialMT-32"/>
       <use x="55.615234" xlink:href="#ArialMT-35"/>
       <use x="111.230469" xlink:href="#ArialMT-30"/>
      </g>
     </g>
    </g>
    <g id="ytick_5">
     <g id="line2d_5">
      <path clip-path="url(#p8f97c2608f)" d="M 108 84.456 
L 777.6 84.456 
" style="fill:none;stroke:#ffffff;stroke-linecap:round;"/>
     </g>
     <g id="text_12">
      <!-- 300 -->
      <g style="fill:#262626;" transform="translate(80.148906 88.392797)scale(0.11 -0.11)">
       <defs>
        <path d="M 269 1209 
L 831 1284 
Q 928 806 1161 595 
Q 1394 384 1728 384 
Q 2125 384 2398 659 
Q 2672 934 2672 1341 
Q 2672 1728 2419 1979 
Q 2166 2231 1775 2231 
Q 1616 2231 1378 2169 
L 1441 2663 
Q 1497 2656 1531 2656 
Q 1891 2656 2178 2843 
Q 2466 3031 2466 3422 
Q 2466 3731 2256 3934 
Q 2047 4138 1716 4138 
Q 1388 4138 1169 3931 
Q 950 3725 888 3313 
L 325 3413 
Q 428 3978 793 4289 
Q 1159 4600 1703 4600 
Q 2078 4600 2393 4439 
Q 2709 4278 2876 4000 
Q 3044 3722 3044 3409 
Q 3044 3113 2884 2869 
Q 2725 2625 2413 2481 
Q 2819 2388 3044 2092 
Q 3269 1797 3269 1353 
Q 3269 753 2831 336 
Q 2394 -81 1725 -81 
Q 1122 -81 723 278 
Q 325 638 269 1209 
z
" id="ArialMT-33" transform="scale(0.015625)"/>
       </defs>
       <use xlink:href="#ArialMT-33"/>
       <use x="55.615234" xlink:href="#ArialMT-30"/>
       <use x="111.230469" xlink:href="#ArialMT-30"/>
      </g>
     </g>
    </g>
    <g id="text_13">
     <!-- Annual income (thousands) -->
     <g style="fill:#262626;" transform="translate(73.623281 287.957812)rotate(-90)scale(0.12 -0.12)">
      <defs>
       <path d="M 2588 1216 
L 3141 1144 
Q 3050 572 2676 248 
Q 2303 -75 1759 -75 
Q 1078 -75 664 370 
Q 250 816 250 1647 
Q 250 2184 428 2587 
Q 606 2991 970 3192 
Q 1334 3394 1763 3394 
Q 2303 3394 2647 3120 
Q 2991 2847 3088 2344 
L 2541 2259 
Q 2463 2594 2264 2762 
Q 2066 2931 1784 2931 
Q 1359 2931 1093 2626 
Q 828 2322 828 1663 
Q 828 994 1084 691 
Q 1341 388 1753 388 
Q 2084 388 2306 591 
Q 2528 794 2588 1216 
z
" id="ArialMT-63" transform="scale(0.015625)"/>
       <path d="M 1497 -1347 
Q 1031 -759 709 28 
Q 388 816 388 1659 
Q 388 2403 628 3084 
Q 909 3875 1497 4659 
L 1900 4659 
Q 1522 4009 1400 3731 
Q 1209 3300 1100 2831 
Q 966 2247 966 1656 
Q 966 153 1900 -1347 
L 1497 -1347 
z
" id="ArialMT-28" transform="scale(0.015625)"/>
       <path d="M 2575 0 
L 2575 419 
Q 2259 -75 1647 -75 
Q 1250 -75 917 144 
Q 584 363 401 755 
Q 219 1147 219 1656 
Q 219 2153 384 2558 
Q 550 2963 881 3178 
Q 1213 3394 1622 3394 
Q 1922 3394 2156 3267 
Q 2391 3141 2538 2938 
L 2538 4581 
L 3097 4581 
L 3097 0 
L 2575 0 
z
M 797 1656 
Q 797 1019 1065 703 
Q 1334 388 1700 388 
Q 2069 388 2326 689 
Q 2584 991 2584 1609 
Q 2584 2291 2321 2609 
Q 2059 2928 1675 2928 
Q 1300 2928 1048 2622 
Q 797 2316 797 1656 
z
" id="ArialMT-64" transform="scale(0.015625)"/>
       <path d="M 791 -1347 
L 388 -1347 
Q 1322 153 1322 1656 
Q 1322 2244 1188 2822 
Q 1081 3291 891 3722 
Q 769 4003 388 4659 
L 791 4659 
Q 1378 3875 1659 3084 
Q 1900 2403 1900 1659 
Q 1900 816 1576 28 
Q 1253 -759 791 -1347 
z
" id="ArialMT-29" transform="scale(0.015625)"/>
      </defs>
      <use xlink:href="#ArialMT-41"/>
      <use x="66.699219" xlink:href="#ArialMT-6e"/>
      <use x="122.314453" xlink:href="#ArialMT-6e"/>
      <use x="177.929688" xlink:href="#ArialMT-75"/>
      <use x="233.544922" xlink:href="#ArialMT-61"/>
      <use x="289.160156" xlink:href="#ArialMT-6c"/>
      <use x="311.376953" xlink:href="#ArialMT-20"/>
      <use x="339.160156" xlink:href="#ArialMT-69"/>
      <use x="361.376953" xlink:href="#ArialMT-6e"/>
      <use x="416.992188" xlink:href="#ArialMT-63"/>
      <use x="466.992188" xlink:href="#ArialMT-6f"/>
      <use x="522.607422" xlink:href="#ArialMT-6d"/>
      <use x="605.908203" xlink:href="#ArialMT-65"/>
      <use x="661.523438" xlink:href="#ArialMT-20"/>
      <use x="689.306641" xlink:href="#ArialMT-28"/>
      <use x="722.607422" xlink:href="#ArialMT-74"/>
      <use x="750.390625" xlink:href="#ArialMT-68"/>
      <use x="806.005859" xlink:href="#ArialMT-6f"/>
      <use x="861.621094" xlink:href="#ArialMT-75"/>
      <use x="917.236328" xlink:href="#ArialMT-73"/>
      <use x="967.236328" xlink:href="#ArialMT-61"/>
      <use x="1022.851562" xlink:href="#ArialMT-6e"/>
      <use x="1078.466797" xlink:href="#ArialMT-64"/>
      <use x="1134.082031" xlink:href="#ArialMT-73"/>
      <use x="1184.082031" xlink:href="#ArialMT-29"/>
     </g>
    </g>
   </g>
   <g id="PolyCollection_1">
    <defs>
     <path d="M 166.538212 -110.336727 
L 161.061788 -110.336727 
L 160.937508 -111.307121 
L 160.810782 -112.277514 
L 160.681684 -113.247907 
L 160.550325 -114.218301 
L 160.416855 -115.188694 
L 160.281474 -116.159088 
L 160.144436 -117.129481 
L 160.006055 -118.099874 
L 159.866711 -119.070268 
L 159.726852 -120.040661 
L 159.586999 -121.011055 
L 159.447742 -121.981448 
L 159.309745 -122.951841 
L 159.173736 -123.922235 
L 159.040509 -124.892628 
L 158.910914 -125.863021 
L 158.785849 -126.833415 
L 158.66625 -127.803808 
L 158.553078 -128.774202 
L 158.447311 -129.744595 
L 158.349923 -130.714988 
L 158.261874 -131.685382 
L 158.184094 -132.655775 
L 158.117466 -133.626169 
L 158.062811 -134.596562 
L 158.020874 -135.566955 
L 157.99231 -136.537349 
L 157.97767 -137.507742 
L 157.977391 -138.478136 
L 157.991787 -139.448529 
L 158.021039 -140.418922 
L 158.065191 -141.389316 
L 158.124149 -142.359709 
L 158.197676 -143.330102 
L 158.285396 -144.300496 
L 158.386798 -145.270889 
L 158.501241 -146.241283 
L 158.627964 -147.211676 
L 158.766094 -148.182069 
L 158.914656 -149.152463 
L 159.072593 -150.122856 
L 159.238772 -151.09325 
L 159.412004 -152.063643 
L 159.591059 -153.034036 
L 159.774679 -154.00443 
L 159.961598 -154.974823 
L 160.150551 -155.945217 
L 160.340295 -156.91561 
L 160.529617 -157.886003 
L 160.717353 -158.856397 
L 160.902389 -159.82679 
L 161.083682 -160.797183 
L 161.26026 -161.767577 
L 161.43123 -162.73797 
L 161.595787 -163.708364 
L 161.753213 -164.678757 
L 161.90288 -165.64915 
L 162.044251 -166.619544 
L 162.176881 -167.589937 
L 162.30041 -168.560331 
L 162.414567 -169.530724 
L 162.519161 -170.501117 
L 162.614079 -171.471511 
L 162.699282 -172.441904 
L 162.774799 -173.412298 
L 162.840722 -174.382691 
L 162.897202 -175.353084 
L 162.944444 -176.323478 
L 162.982702 -177.293871 
L 163.012275 -178.264264 
L 163.033503 -179.234658 
L 163.046763 -180.205051 
L 163.052467 -181.175445 
L 163.051059 -182.145838 
L 163.043011 -183.116231 
L 163.02882 -184.086625 
L 163.009012 -185.057018 
L 162.984128 -186.027412 
L 162.954735 -186.997805 
L 162.921414 -187.968198 
L 162.884761 -188.938592 
L 162.845383 -189.908985 
L 162.803897 -190.879379 
L 162.760925 -191.849772 
L 162.717087 -192.820165 
L 162.673003 -193.790559 
L 162.629281 -194.760952 
L 162.58652 -195.731345 
L 162.545296 -196.701739 
L 162.506163 -197.672132 
L 162.469645 -198.642526 
L 162.436231 -199.612919 
L 162.406369 -200.583312 
L 162.380461 -201.553706 
L 162.358861 -202.524099 
L 162.341866 -203.494493 
L 162.329718 -204.464886 
L 162.322597 -205.435279 
L 162.320624 -206.405673 
L 165.279376 -206.405673 
L 165.279376 -206.405673 
L 165.277403 -205.435279 
L 165.270282 -204.464886 
L 165.258134 -203.494493 
L 165.241139 -202.524099 
L 165.219539 -201.553706 
L 165.193631 -200.583312 
L 165.163769 -199.612919 
L 165.130355 -198.642526 
L 165.093837 -197.672132 
L 165.054704 -196.701739 
L 165.01348 -195.731345 
L 164.970719 -194.760952 
L 164.926997 -193.790559 
L 164.882913 -192.820165 
L 164.839075 -191.849772 
L 164.796103 -190.879379 
L 164.754617 -189.908985 
L 164.715239 -188.938592 
L 164.678586 -187.968198 
L 164.645265 -186.997805 
L 164.615872 -186.027412 
L 164.590988 -185.057018 
L 164.57118 -184.086625 
L 164.556989 -183.116231 
L 164.548941 -182.145838 
L 164.547533 -181.175445 
L 164.553237 -180.205051 
L 164.566497 -179.234658 
L 164.587725 -178.264264 
L 164.617298 -177.293871 
L 164.655556 -176.323478 
L 164.702798 -175.353084 
L 164.759278 -174.382691 
L 164.825201 -173.412298 
L 164.900718 -172.441904 
L 164.985921 -171.471511 
L 165.080839 -170.501117 
L 165.185433 -169.530724 
L 165.29959 -168.560331 
L 165.423119 -167.589937 
L 165.555749 -166.619544 
L 165.69712 -165.64915 
L 165.846787 -164.678757 
L 166.004213 -163.708364 
L 166.16877 -162.73797 
L 166.33974 -161.767577 
L 166.516318 -160.797183 
L 166.697611 -159.82679 
L 166.882647 -158.856397 
L 167.070383 -157.886003 
L 167.259705 -156.91561 
L 167.449449 -155.945217 
L 167.638402 -154.974823 
L 167.825321 -154.00443 
L 168.008941 -153.034036 
L 168.187996 -152.063643 
L 168.361228 -151.09325 
L 168.527407 -150.122856 
L 168.685344 -149.152463 
L 168.833906 -148.182069 
L 168.972036 -147.211676 
L 169.098759 -146.241283 
L 169.213202 -145.270889 
L 169.314604 -144.300496 
L 169.402324 -143.330102 
L 169.475851 -142.359709 
L 169.534809 -141.389316 
L 169.578961 -140.418922 
L 169.608213 -139.448529 
L 169.622609 -138.478136 
L 169.62233 -137.507742 
L 169.60769 -136.537349 
L 169.579126 -135.566955 
L 169.537189 -134.596562 
L 169.482534 -133.626169 
L 169.415906 -132.655775 
L 169.338126 -131.685382 
L 169.250077 -130.714988 
L 169.152689 -129.744595 
L 169.046922 -128.774202 
L 168.93375 -127.803808 
L 168.814151 -126.833415 
L 168.689086 -125.863021 
L 168.559491 -124.892628 
L 168.426264 -123.922235 
L 168.290255 -122.951841 
L 168.152258 -121.981448 
L 168.013001 -121.011055 
L 167.873148 -120.040661 
L 167.733289 -119.070268 
L 167.593945 -118.099874 
L 167.455564 -117.129481 
L 167.318526 -116.159088 
L 167.183145 -115.188694 
L 167.049675 -114.218301 
L 166.918316 -113.247907 
L 166.789218 -112.277514 
L 166.662492 -111.307121 
L 166.538212 -110.336727 
z
" id="md2870d864c" style="stroke:#494949;stroke-width:1.5;"/>
    </defs>
    <g clip-path="url(#p8f97c2608f)">
     <use style="fill:#5875a4;stroke:#494949;stroke-width:1.5;" x="0" xlink:href="#md2870d864c" y="432"/>
    </g>
   </g>
   <g id="PolyCollection_2">
    <defs>
     <path d="M 277.961994 -68.825455 
L 272.838006 -68.825455 
L 272.799231 -69.005157 
L 272.762484 -69.18486 
L 272.727836 -69.364562 
L 272.695351 -69.544264 
L 272.665086 -69.723967 
L 272.637094 -69.903669 
L 272.611422 -70.083372 
L 272.588112 -70.263074 
L 272.5672 -70.442777 
L 272.548715 -70.622479 
L 272.532683 -70.802182 
L 272.519123 -70.981884 
L 272.508049 -71.161587 
L 272.499469 -71.341289 
L 272.493385 -71.520992 
L 272.489797 -71.700694 
L 272.488696 -71.880397 
L 272.490068 -72.060099 
L 272.493894 -72.239802 
L 272.500151 -72.419504 
L 272.508807 -72.599207 
L 272.519827 -72.778909 
L 272.533168 -72.958612 
L 272.548782 -73.138314 
L 272.566615 -73.318017 
L 272.586606 -73.497719 
L 272.608688 -73.677421 
L 272.632787 -73.857124 
L 272.658823 -74.036826 
L 272.686708 -74.216529 
L 272.716349 -74.396231 
L 272.747646 -74.575934 
L 272.78049 -74.755636 
L 272.814769 -74.935339 
L 272.850361 -75.115041 
L 272.887142 -75.294744 
L 272.924978 -75.474446 
L 272.963731 -75.654149 
L 273.003259 -75.833851 
L 273.043413 -76.013554 
L 273.08404 -76.193256 
L 273.124986 -76.372959 
L 273.166092 -76.552661 
L 273.207196 -76.732364 
L 273.248136 -76.912066 
L 273.288748 -77.091769 
L 273.32887 -77.271471 
L 273.36834 -77.451174 
L 273.406998 -77.630876 
L 273.444687 -77.810579 
L 273.481256 -77.990281 
L 273.516556 -78.169983 
L 273.550447 -78.349686 
L 273.582795 -78.529388 
L 273.613474 -78.709091 
L 273.642366 -78.888793 
L 273.669365 -79.068496 
L 273.694376 -79.248198 
L 273.717314 -79.427901 
L 273.738107 -79.607603 
L 273.756697 -79.787306 
L 273.773039 -79.967008 
L 273.787102 -80.146711 
L 273.798871 -80.326413 
L 273.808344 -80.506116 
L 273.815536 -80.685818 
L 273.820475 -80.865521 
L 273.823206 -81.045223 
L 273.823788 -81.224926 
L 273.822295 -81.404628 
L 273.818816 -81.584331 
L 273.813452 -81.764033 
L 273.806319 -81.943736 
L 273.797546 -82.123438 
L 273.78727 -82.30314 
L 273.775643 -82.482843 
L 273.762823 -82.662545 
L 273.748981 -82.842248 
L 273.73429 -83.02195 
L 273.718933 -83.201653 
L 273.703098 -83.381355 
L 273.686973 -83.561058 
L 273.670753 -83.74076 
L 273.654629 -83.920463 
L 273.638795 -84.100165 
L 273.623441 -84.279868 
L 273.608754 -84.45957 
L 273.594918 -84.639273 
L 273.582109 -84.818975 
L 273.570495 -84.998678 
L 273.560239 -85.17838 
L 273.55149 -85.358083 
L 273.544391 -85.537785 
L 273.53907 -85.717488 
L 273.535643 -85.89719 
L 273.534216 -86.076893 
L 273.534879 -86.256595 
L 273.537706 -86.436298 
L 273.54276 -86.616 
L 277.25724 -86.616 
L 277.25724 -86.616 
L 277.262294 -86.436298 
L 277.265121 -86.256595 
L 277.265784 -86.076893 
L 277.264357 -85.89719 
L 277.26093 -85.717488 
L 277.255609 -85.537785 
L 277.24851 -85.358083 
L 277.239761 -85.17838 
L 277.229505 -84.998678 
L 277.217891 -84.818975 
L 277.205082 -84.639273 
L 277.191246 -84.45957 
L 277.176559 -84.279868 
L 277.161205 -84.100165 
L 277.145371 -83.920463 
L 277.129247 -83.74076 
L 277.113027 -83.561058 
L 277.096902 -83.381355 
L 277.081067 -83.201653 
L 277.06571 -83.02195 
L 277.051019 -82.842248 
L 277.037177 -82.662545 
L 277.024357 -82.482843 
L 277.01273 -82.30314 
L 277.002454 -82.123438 
L 276.993681 -81.943736 
L 276.986548 -81.764033 
L 276.981184 -81.584331 
L 276.977705 -81.404628 
L 276.976212 -81.224926 
L 276.976794 -81.045223 
L 276.979525 -80.865521 
L 276.984464 -80.685818 
L 276.991656 -80.506116 
L 277.001129 -80.326413 
L 277.012898 -80.146711 
L 277.026961 -79.967008 
L 277.043303 -79.787306 
L 277.061893 -79.607603 
L 277.082686 -79.427901 
L 277.105624 -79.248198 
L 277.130635 -79.068496 
L 277.157634 -78.888793 
L 277.186526 -78.709091 
L 277.217205 -78.529388 
L 277.249553 -78.349686 
L 277.283444 -78.169983 
L 277.318744 -77.990281 
L 277.355313 -77.810579 
L 277.393002 -77.630876 
L 277.43166 -77.451174 
L 277.47113 -77.271471 
L 277.511252 -77.091769 
L 277.551864 -76.912066 
L 277.592804 -76.732364 
L 277.633908 -76.552661 
L 277.675014 -76.372959 
L 277.71596 -76.193256 
L 277.756587 -76.013554 
L 277.796741 -75.833851 
L 277.836269 -75.654149 
L 277.875022 -75.474446 
L 277.912858 -75.294744 
L 277.949639 -75.115041 
L 277.985231 -74.935339 
L 278.01951 -74.755636 
L 278.052354 -74.575934 
L 278.083651 -74.396231 
L 278.113292 -74.216529 
L 278.141177 -74.036826 
L 278.167213 -73.857124 
L 278.191312 -73.677421 
L 278.213394 -73.497719 
L 278.233385 -73.318017 
L 278.251218 -73.138314 
L 278.266832 -72.958612 
L 278.280173 -72.778909 
L 278.291193 -72.599207 
L 278.299849 -72.419504 
L 278.306106 -72.239802 
L 278.309932 -72.060099 
L 278.311304 -71.880397 
L 278.310203 -71.700694 
L 278.306615 -71.520992 
L 278.300531 -71.341289 
L 278.291951 -71.161587 
L 278.280877 -70.981884 
L 278.267317 -70.802182 
L 278.251285 -70.622479 
L 278.2328 -70.442777 
L 278.211888 -70.263074 
L 278.188578 -70.083372 
L 278.162906 -69.903669 
L 278.134914 -69.723967 
L 278.104649 -69.544264 
L 278.072164 -69.364562 
L 278.037516 -69.18486 
L 278.000769 -69.005157 
L 277.961994 -68.825455 
z
" id="m7e0cd93c37" style="stroke:#494949;stroke-width:1.5;"/>
    </defs>
    <g clip-path="url(#p8f97c2608f)">
     <use style="fill:#cc8963;stroke:#494949;stroke-width:1.5;" x="0" xlink:href="#m7e0cd93c37" y="432"/>
    </g>
   </g>
   <g id="PolyCollection_3">
    <defs>
     <path d="M 391.891255 -139.987636 
L 382.108745 -139.987636 
L 381.993526 -140.94605 
L 381.885022 -141.904463 
L 381.783596 -142.862876 
L 381.689562 -143.821289 
L 381.603181 -144.779702 
L 381.52466 -145.738116 
L 381.454149 -146.696529 
L 381.391743 -147.654942 
L 381.337481 -148.613355 
L 381.291345 -149.571769 
L 381.25326 -150.530182 
L 381.2231 -151.488595 
L 381.200686 -152.447008 
L 381.185788 -153.405421 
L 381.17813 -154.363835 
L 381.177391 -155.322248 
L 381.183211 -156.280661 
L 381.195188 -157.239074 
L 381.212891 -158.197488 
L 381.235854 -159.155901 
L 381.263588 -160.114314 
L 381.295579 -161.072727 
L 381.331296 -162.03114 
L 381.370191 -162.989554 
L 381.411708 -163.947967 
L 381.455284 -164.90638 
L 381.500353 -165.864793 
L 381.54635 -166.823207 
L 381.592719 -167.78162 
L 381.638911 -168.740033 
L 381.684393 -169.698446 
L 381.72865 -170.65686 
L 381.77119 -171.615273 
L 381.811546 -172.573686 
L 381.849284 -173.532099 
L 381.884001 -174.490512 
L 381.915336 -175.448926 
L 381.942966 -176.407339 
L 381.966615 -177.365752 
L 381.986054 -178.324165 
L 382.001103 -179.282579 
L 382.011636 -180.240992 
L 382.01758 -181.199405 
L 382.018917 -182.157818 
L 382.015685 -183.116231 
L 382.007976 -184.074645 
L 381.995939 -185.033058 
L 381.979775 -185.991471 
L 381.959735 -186.949884 
L 381.936121 -187.908298 
L 381.909278 -188.866711 
L 381.879592 -189.825124 
L 381.847486 -190.783537 
L 381.813414 -191.74195 
L 381.777854 -192.700364 
L 381.741306 -193.658777 
L 381.704281 -194.61719 
L 381.667298 -195.575603 
L 381.630876 -196.534017 
L 381.595528 -197.49243 
L 381.561755 -198.450843 
L 381.53004 -199.409256 
L 381.500843 -200.367669 
L 381.474594 -201.326083 
L 381.451693 -202.284496 
L 381.432501 -203.242909 
L 381.41734 -204.201322 
L 381.406491 -205.159736 
L 381.400191 -206.118149 
L 381.398633 -207.076562 
L 381.401968 -208.034975 
L 381.410303 -208.993388 
L 381.423703 -209.951802 
L 381.442194 -210.910215 
L 381.465767 -211.868628 
L 381.49438 -212.827041 
L 381.52796 -213.785455 
L 381.566408 -214.743868 
L 381.609607 -215.702281 
L 381.657418 -216.660694 
L 381.709691 -217.619107 
L 381.766266 -218.577521 
L 381.826976 -219.535934 
L 381.891653 -220.494347 
L 381.960126 -221.45276 
L 382.032228 -222.411174 
L 382.107796 -223.369587 
L 382.186672 -224.328 
L 382.268705 -225.286413 
L 382.35375 -226.244826 
L 382.441668 -227.20324 
L 382.532325 -228.161653 
L 382.625594 -229.120066 
L 382.721349 -230.078479 
L 382.819466 -231.036893 
L 382.919822 -231.995306 
L 383.02229 -232.953719 
L 383.12674 -233.912132 
L 383.233035 -234.870545 
L 390.766965 -234.870545 
L 390.766965 -234.870545 
L 390.87326 -233.912132 
L 390.97771 -232.953719 
L 391.080178 -231.995306 
L 391.180534 -231.036893 
L 391.278651 -230.078479 
L 391.374406 -229.120066 
L 391.467675 -228.161653 
L 391.558332 -227.20324 
L 391.64625 -226.244826 
L 391.731295 -225.286413 
L 391.813328 -224.328 
L 391.892204 -223.369587 
L 391.967772 -222.411174 
L 392.039874 -221.45276 
L 392.108347 -220.494347 
L 392.173024 -219.535934 
L 392.233734 -218.577521 
L 392.290309 -217.619107 
L 392.342582 -216.660694 
L 392.390393 -215.702281 
L 392.433592 -214.743868 
L 392.47204 -213.785455 
L 392.50562 -212.827041 
L 392.534233 -211.868628 
L 392.557806 -210.910215 
L 392.576297 -209.951802 
L 392.589697 -208.993388 
L 392.598032 -208.034975 
L 392.601367 -207.076562 
L 392.599809 -206.118149 
L 392.593509 -205.159736 
L 392.58266 -204.201322 
L 392.567499 -203.242909 
L 392.548307 -202.284496 
L 392.525406 -201.326083 
L 392.499157 -200.367669 
L 392.46996 -199.409256 
L 392.438245 -198.450843 
L 392.404472 -197.49243 
L 392.369124 -196.534017 
L 392.332702 -195.575603 
L 392.295719 -194.61719 
L 392.258694 -193.658777 
L 392.222146 -192.700364 
L 392.186586 -191.74195 
L 392.152514 -190.783537 
L 392.120408 -189.825124 
L 392.090722 -188.866711 
L 392.063879 -187.908298 
L 392.040265 -186.949884 
L 392.020225 -185.991471 
L 392.004061 -185.033058 
L 391.992024 -184.074645 
L 391.984315 -183.116231 
L 391.981083 -182.157818 
L 391.98242 -181.199405 
L 391.988364 -180.240992 
L 391.998897 -179.282579 
L 392.013946 -178.324165 
L 392.033385 -177.365752 
L 392.057034 -176.407339 
L 392.084664 -175.448926 
L 392.115999 -174.490512 
L 392.150716 -173.532099 
L 392.188454 -172.573686 
L 392.22881 -171.615273 
L 392.27135 -170.65686 
L 392.315607 -169.698446 
L 392.361089 -168.740033 
L 392.407281 -167.78162 
L 392.45365 -166.823207 
L 392.499647 -165.864793 
L 392.544716 -164.90638 
L 392.588292 -163.947967 
L 392.629809 -162.989554 
L 392.668704 -162.03114 
L 392.704421 -161.072727 
L 392.736412 -160.114314 
L 392.764146 -159.155901 
L 392.787109 -158.197488 
L 392.804812 -157.239074 
L 392.816789 -156.280661 
L 392.822609 -155.322248 
L 392.82187 -154.363835 
L 392.814212 -153.405421 
L 392.799314 -152.447008 
L 392.7769 -151.488595 
L 392.74674 -150.530182 
L 392.708655 -149.571769 
L 392.662519 -148.613355 
L 392.608257 -147.654942 
L 392.545851 -146.696529 
L 392.47534 -145.738116 
L 392.396819 -144.779702 
L 392.310438 -143.821289 
L 392.216404 -142.862876 
L 392.114978 -141.904463 
L 392.006474 -140.94605 
L 391.891255 -139.987636 
z
" id="mc92e2f6ff6" style="stroke:#494949;stroke-width:1.5;"/>
    </defs>
    <g clip-path="url(#p8f97c2608f)">
     <use style="fill:#5f9e6e;stroke:#494949;stroke-width:1.5;" x="0" xlink:href="#mc92e2f6ff6" y="432"/>
    </g>
   </g>
   <g id="PolyCollection_4">
    <defs>
     <path d="M 503.376525 -86.616 
L 493.823475 -86.616 
L 493.794838 -88.05362 
L 493.773119 -89.49124 
L 493.758179 -90.92886 
L 493.749826 -92.366479 
L 493.747826 -93.804099 
L 493.751902 -95.241719 
L 493.761735 -96.679339 
L 493.776974 -98.116959 
L 493.797234 -99.554579 
L 493.822104 -100.992198 
L 493.851151 -102.429818 
L 493.883924 -103.867438 
L 493.919959 -105.305058 
L 493.958787 -106.742678 
L 493.999934 -108.180298 
L 494.04293 -109.617917 
L 494.08731 -111.055537 
L 494.132623 -112.493157 
L 494.178433 -113.930777 
L 494.224321 -115.368397 
L 494.269894 -116.806017 
L 494.314782 -118.243636 
L 494.358646 -119.681256 
L 494.401174 -121.118876 
L 494.442088 -122.556496 
L 494.481142 -123.994116 
L 494.518124 -125.431736 
L 494.552853 -126.869355 
L 494.585185 -128.306975 
L 494.615005 -129.744595 
L 494.64223 -131.182215 
L 494.666809 -132.619835 
L 494.688716 -134.057455 
L 494.707953 -135.495074 
L 494.724545 -136.932694 
L 494.738539 -138.370314 
L 494.750001 -139.807934 
L 494.759015 -141.245554 
L 494.765676 -142.683174 
L 494.770095 -144.120793 
L 494.77239 -145.558413 
L 494.772687 -146.996033 
L 494.771116 -148.433653 
L 494.767814 -149.871273 
L 494.762916 -151.308893 
L 494.756558 -152.746512 
L 494.748878 -154.184132 
L 494.740008 -155.621752 
L 494.730079 -157.059372 
L 494.71922 -158.496992 
L 494.707553 -159.934612 
L 494.695199 -161.372231 
L 494.682272 -162.809851 
L 494.668886 -164.247471 
L 494.655148 -165.685091 
L 494.641163 -167.122711 
L 494.627032 -168.560331 
L 494.612856 -169.99795 
L 494.598733 -171.43557 
L 494.584759 -172.87319 
L 494.571031 -174.31081 
L 494.557646 -175.74843 
L 494.544699 -177.18605 
L 494.532289 -178.623669 
L 494.520516 -180.061289 
L 494.509481 -181.498909 
L 494.499287 -182.936529 
L 494.490039 -184.374149 
L 494.481847 -185.811769 
L 494.474819 -187.249388 
L 494.469069 -188.687008 
L 494.464712 -190.124628 
L 494.461863 -191.562248 
L 494.46064 -192.999868 
L 494.461161 -194.437488 
L 494.463545 -195.875107 
L 494.467911 -197.312727 
L 494.474375 -198.750347 
L 494.483052 -200.187967 
L 494.494055 -201.625587 
L 494.507493 -203.063207 
L 494.523471 -204.500826 
L 494.542087 -205.938446 
L 494.563433 -207.376066 
L 494.587596 -208.813686 
L 494.614652 -210.251306 
L 494.64467 -211.688926 
L 494.677705 -213.126545 
L 494.713807 -214.564165 
L 494.753008 -216.001785 
L 494.795331 -217.439405 
L 494.840786 -218.877025 
L 494.889368 -220.314645 
L 494.941056 -221.752264 
L 494.995816 -223.189884 
L 495.0536 -224.627504 
L 495.114343 -226.065124 
L 495.177963 -227.502744 
L 495.244366 -228.940364 
L 501.955634 -228.940364 
L 501.955634 -228.940364 
L 502.022037 -227.502744 
L 502.085657 -226.065124 
L 502.1464 -224.627504 
L 502.204184 -223.189884 
L 502.258944 -221.752264 
L 502.310632 -220.314645 
L 502.359214 -218.877025 
L 502.404669 -217.439405 
L 502.446992 -216.001785 
L 502.486193 -214.564165 
L 502.522295 -213.126545 
L 502.55533 -211.688926 
L 502.585348 -210.251306 
L 502.612404 -208.813686 
L 502.636567 -207.376066 
L 502.657913 -205.938446 
L 502.676529 -204.500826 
L 502.692507 -203.063207 
L 502.705945 -201.625587 
L 502.716948 -200.187967 
L 502.725625 -198.750347 
L 502.732089 -197.312727 
L 502.736455 -195.875107 
L 502.738839 -194.437488 
L 502.73936 -192.999868 
L 502.738137 -191.562248 
L 502.735288 -190.124628 
L 502.730931 -188.687008 
L 502.725181 -187.249388 
L 502.718153 -185.811769 
L 502.709961 -184.374149 
L 502.700713 -182.936529 
L 502.690519 -181.498909 
L 502.679484 -180.061289 
L 502.667711 -178.623669 
L 502.655301 -177.18605 
L 502.642354 -175.74843 
L 502.628969 -174.31081 
L 502.615241 -172.87319 
L 502.601267 -171.43557 
L 502.587144 -169.99795 
L 502.572968 -168.560331 
L 502.558837 -167.122711 
L 502.544852 -165.685091 
L 502.531114 -164.247471 
L 502.517728 -162.809851 
L 502.504801 -161.372231 
L 502.492447 -159.934612 
L 502.48078 -158.496992 
L 502.469921 -157.059372 
L 502.459992 -155.621752 
L 502.451122 -154.184132 
L 502.443442 -152.746512 
L 502.437084 -151.308893 
L 502.432186 -149.871273 
L 502.428884 -148.433653 
L 502.427313 -146.996033 
L 502.42761 -145.558413 
L 502.429905 -144.120793 
L 502.434324 -142.683174 
L 502.440985 -141.245554 
L 502.449999 -139.807934 
L 502.461461 -138.370314 
L 502.475455 -136.932694 
L 502.492047 -135.495074 
L 502.511284 -134.057455 
L 502.533191 -132.619835 
L 502.55777 -131.182215 
L 502.584995 -129.744595 
L 502.614815 -128.306975 
L 502.647147 -126.869355 
L 502.681876 -125.431736 
L 502.718858 -123.994116 
L 502.757912 -122.556496 
L 502.798826 -121.118876 
L 502.841354 -119.681256 
L 502.885218 -118.243636 
L 502.930106 -116.806017 
L 502.975679 -115.368397 
L 503.021567 -113.930777 
L 503.067377 -112.493157 
L 503.11269 -111.055537 
L 503.15707 -109.617917 
L 503.200066 -108.180298 
L 503.241213 -106.742678 
L 503.280041 -105.305058 
L 503.316076 -103.867438 
L 503.348849 -102.429818 
L 503.377896 -100.992198 
L 503.402766 -99.554579 
L 503.423026 -98.116959 
L 503.438265 -96.679339 
L 503.448098 -95.241719 
L 503.452174 -93.804099 
L 503.450174 -92.366479 
L 503.441821 -90.92886 
L 503.426881 -89.49124 
L 503.405162 -88.05362 
L 503.376525 -86.616 
z
" id="m56225fdde7" style="stroke:#494949;stroke-width:1.5;"/>
    </defs>
    <g clip-path="url(#p8f97c2608f)">
     <use style="fill:#b55d60;stroke:#494949;stroke-width:1.5;" x="0" xlink:href="#m56225fdde7" y="432"/>
    </g>
   </g>
   <g id="PolyCollection_5">
    <defs>
     <path d="M 622.157392 -78.313745 
L 598.242608 -78.313745 
L 596.826017 -81.212945 
L 595.317297 -84.112145 
L 593.721688 -87.011345 
L 592.046548 -89.910545 
L 590.30147 -92.809745 
L 588.498322 -95.708945 
L 586.651198 -98.608145 
L 584.776264 -101.507345 
L 582.891497 -104.406545 
L 581.016308 -107.305745 
L 579.171072 -110.204945 
L 577.376573 -113.104145 
L 575.653402 -116.003345 
L 574.021335 -118.902545 
L 572.498728 -121.801745 
L 571.101982 -124.700945 
L 569.845097 -127.600145 
L 568.739361 -130.499345 
L 567.793185 -133.398545 
L 567.012093 -136.297745 
L 566.398877 -139.196945 
L 565.953871 -142.096145 
L 565.675353 -144.995345 
L 565.56 -147.894545 
L 565.603376 -150.793745 
L 565.800401 -153.692945 
L 566.14576 -156.592145 
L 566.634208 -159.491345 
L 567.26077 -162.390545 
L 568.020794 -165.289745 
L 568.909883 -168.188945 
L 569.923708 -171.088145 
L 571.057729 -173.987345 
L 572.306862 -176.886545 
L 573.665124 -179.785745 
L 575.125298 -182.684945 
L 576.678657 -185.584145 
L 578.314774 -188.483345 
L 580.021437 -191.382545 
L 581.784687 -194.281745 
L 583.588978 -197.180945 
L 585.417442 -200.080145 
L 587.252264 -202.979345 
L 589.075108 -205.878545 
L 590.86761 -208.777745 
L 592.611863 -211.676945 
L 594.290911 -214.576145 
L 595.889185 -217.475345 
L 597.392899 -220.374545 
L 598.790356 -223.273745 
L 600.072186 -226.172945 
L 601.231488 -229.072145 
L 602.263894 -231.971345 
L 603.167558 -234.870545 
L 603.943063 -237.769745 
L 604.593289 -240.668945 
L 605.123216 -243.568145 
L 605.539703 -246.467345 
L 605.851234 -249.366545 
L 606.067646 -252.265745 
L 606.199849 -255.164945 
L 606.259535 -258.064145 
L 606.25889 -260.963345 
L 606.210301 -263.862545 
L 606.126075 -266.761745 
L 606.018162 -269.660945 
L 605.897893 -272.560145 
L 605.775741 -275.459345 
L 605.661097 -278.358545 
L 605.562085 -281.257745 
L 605.485408 -284.156945 
L 605.436246 -287.056145 
L 605.418188 -289.955345 
L 605.433223 -292.854545 
L 605.481788 -295.753745 
L 605.562852 -298.652945 
L 605.674069 -301.552145 
L 605.811956 -304.451345 
L 605.972118 -307.350545 
L 606.149499 -310.249745 
L 606.338644 -313.148945 
L 606.533969 -316.048145 
L 606.730029 -318.947345 
L 606.921759 -321.846545 
L 607.104689 -324.745745 
L 607.275126 -327.644945 
L 607.430284 -330.544145 
L 607.568362 -333.443345 
L 607.688576 -336.342545 
L 607.791125 -339.241745 
L 607.877124 -342.140945 
L 607.948472 -345.040145 
L 608.007703 -347.939345 
L 608.057796 -350.838545 
L 608.101977 -353.737745 
L 608.143518 -356.636945 
L 608.185547 -359.536145 
L 608.230872 -362.435345 
L 608.281844 -365.334545 
L 612.118156 -365.334545 
L 612.118156 -365.334545 
L 612.169128 -362.435345 
L 612.214453 -359.536145 
L 612.256482 -356.636945 
L 612.298023 -353.737745 
L 612.342204 -350.838545 
L 612.392297 -347.939345 
L 612.451528 -345.040145 
L 612.522876 -342.140945 
L 612.608875 -339.241745 
L 612.711424 -336.342545 
L 612.831638 -333.443345 
L 612.969716 -330.544145 
L 613.124874 -327.644945 
L 613.295311 -324.745745 
L 613.478241 -321.846545 
L 613.669971 -318.947345 
L 613.866031 -316.048145 
L 614.061356 -313.148945 
L 614.250501 -310.249745 
L 614.427882 -307.350545 
L 614.588044 -304.451345 
L 614.725931 -301.552145 
L 614.837148 -298.652945 
L 614.918212 -295.753745 
L 614.966777 -292.854545 
L 614.981812 -289.955345 
L 614.963754 -287.056145 
L 614.914592 -284.156945 
L 614.837915 -281.257745 
L 614.738903 -278.358545 
L 614.624259 -275.459345 
L 614.502107 -272.560145 
L 614.381838 -269.660945 
L 614.273925 -266.761745 
L 614.189699 -263.862545 
L 614.14111 -260.963345 
L 614.140465 -258.064145 
L 614.200151 -255.164945 
L 614.332354 -252.265745 
L 614.548766 -249.366545 
L 614.860297 -246.467345 
L 615.276784 -243.568145 
L 615.806711 -240.668945 
L 616.456937 -237.769745 
L 617.232442 -234.870545 
L 618.136106 -231.971345 
L 619.168512 -229.072145 
L 620.327814 -226.172945 
L 621.609644 -223.273745 
L 623.007101 -220.374545 
L 624.510815 -217.475345 
L 626.109089 -214.576145 
L 627.788137 -211.676945 
L 629.53239 -208.777745 
L 631.324892 -205.878545 
L 633.147736 -202.979345 
L 634.982558 -200.080145 
L 636.811022 -197.180945 
L 638.615313 -194.281745 
L 640.378563 -191.382545 
L 642.085226 -188.483345 
L 643.721343 -185.584145 
L 645.274702 -182.684945 
L 646.734876 -179.785745 
L 648.093138 -176.886545 
L 649.342271 -173.987345 
L 650.476292 -171.088145 
L 651.490117 -168.188945 
L 652.379206 -165.289745 
L 653.13923 -162.390545 
L 653.765792 -159.491345 
L 654.25424 -156.592145 
L 654.599599 -153.692945 
L 654.796624 -150.793745 
L 654.84 -147.894545 
L 654.724647 -144.995345 
L 654.446129 -142.096145 
L 654.001123 -139.196945 
L 653.387907 -136.297745 
L 652.606815 -133.398545 
L 651.660639 -130.499345 
L 650.554903 -127.600145 
L 649.298018 -124.700945 
L 647.901272 -121.801745 
L 646.378665 -118.902545 
L 644.746598 -116.003345 
L 643.023427 -113.104145 
L 641.228928 -110.204945 
L 639.383692 -107.305745 
L 637.508503 -104.406545 
L 635.623736 -101.507345 
L 633.748802 -98.608145 
L 631.901678 -95.708945 
L 630.09853 -92.809745 
L 628.353452 -89.910545 
L 626.678312 -87.011345 
L 625.082703 -84.112145 
L 623.573983 -81.212945 
L 622.157392 -78.313745 
z
" id="mbdda273ac1" style="stroke:#494949;stroke-width:1.5;"/>
    </defs>
    <g clip-path="url(#p8f97c2608f)">
     <use style="fill:#857aab;stroke:#494949;stroke-width:1.5;" x="0" xlink:href="#mbdda273ac1" y="432"/>
    </g>
   </g>
   <g id="PolyCollection_6">
    <defs>
     <path d="M 723.737927 -96.104291 
L 719.862073 -96.104291 
L 719.859932 -96.367855 
L 719.85913 -96.631418 
L 719.859651 -96.894982 
L 719.861473 -97.158545 
L 719.864568 -97.422109 
L 719.868908 -97.685673 
L 719.874456 -97.949236 
L 719.881177 -98.2128 
L 719.889026 -98.476364 
L 719.897959 -98.739927 
L 719.907926 -99.003491 
L 719.918875 -99.267055 
L 719.93075 -99.530618 
L 719.943492 -99.794182 
L 719.95704 -100.057745 
L 719.971329 -100.321309 
L 719.986294 -100.584873 
L 720.001864 -100.848436 
L 720.017971 -101.112 
L 720.034542 -101.375564 
L 720.051503 -101.639127 
L 720.06878 -101.902691 
L 720.086298 -102.166255 
L 720.10398 -102.429818 
L 720.121752 -102.693382 
L 720.139537 -102.956945 
L 720.157258 -103.220509 
L 720.174842 -103.484073 
L 720.192214 -103.747636 
L 720.209301 -104.0112 
L 720.226031 -104.274764 
L 720.242335 -104.538327 
L 720.258144 -104.801891 
L 720.273393 -105.065455 
L 720.288019 -105.329018 
L 720.301962 -105.592582 
L 720.315163 -105.856145 
L 720.327568 -106.119709 
L 720.339126 -106.383273 
L 720.349791 -106.646836 
L 720.359517 -106.9104 
L 720.368265 -107.173964 
L 720.376 -107.437527 
L 720.38269 -107.701091 
L 720.388306 -107.964655 
L 720.392828 -108.228218 
L 720.396235 -108.491782 
L 720.398514 -108.755345 
L 720.399656 -109.018909 
L 720.399656 -109.282473 
L 720.398514 -109.546036 
L 720.396235 -109.8096 
L 720.392828 -110.073164 
L 720.388306 -110.336727 
L 720.38269 -110.600291 
L 720.376 -110.863855 
L 720.368265 -111.127418 
L 720.359517 -111.390982 
L 720.349791 -111.654545 
L 720.339126 -111.918109 
L 720.327568 -112.181673 
L 720.315163 -112.445236 
L 720.301962 -112.7088 
L 720.288019 -112.972364 
L 720.273393 -113.235927 
L 720.258144 -113.499491 
L 720.242335 -113.763055 
L 720.226031 -114.026618 
L 720.209301 -114.290182 
L 720.192214 -114.553745 
L 720.174842 -114.817309 
L 720.157258 -115.080873 
L 720.139537 -115.344436 
L 720.121752 -115.608 
L 720.10398 -115.871564 
L 720.086298 -116.135127 
L 720.06878 -116.398691 
L 720.051503 -116.662255 
L 720.034542 -116.925818 
L 720.017971 -117.189382 
L 720.001864 -117.452945 
L 719.986294 -117.716509 
L 719.971329 -117.980073 
L 719.95704 -118.243636 
L 719.943492 -118.5072 
L 719.93075 -118.770764 
L 719.918875 -119.034327 
L 719.907926 -119.297891 
L 719.897959 -119.561455 
L 719.889026 -119.825018 
L 719.881177 -120.088582 
L 719.874456 -120.352145 
L 719.868908 -120.615709 
L 719.864568 -120.879273 
L 719.861473 -121.142836 
L 719.859651 -121.4064 
L 719.85913 -121.669964 
L 719.859932 -121.933527 
L 719.862073 -122.197091 
L 723.737927 -122.197091 
L 723.737927 -122.197091 
L 723.740068 -121.933527 
L 723.74087 -121.669964 
L 723.740349 -121.4064 
L 723.738527 -121.142836 
L 723.735432 -120.879273 
L 723.731092 -120.615709 
L 723.725544 -120.352145 
L 723.718823 -120.088582 
L 723.710974 -119.825018 
L 723.702041 -119.561455 
L 723.692074 -119.297891 
L 723.681125 -119.034327 
L 723.66925 -118.770764 
L 723.656508 -118.5072 
L 723.64296 -118.243636 
L 723.628671 -117.980073 
L 723.613706 -117.716509 
L 723.598136 -117.452945 
L 723.582029 -117.189382 
L 723.565458 -116.925818 
L 723.548497 -116.662255 
L 723.53122 -116.398691 
L 723.513702 -116.135127 
L 723.49602 -115.871564 
L 723.478248 -115.608 
L 723.460463 -115.344436 
L 723.442742 -115.080873 
L 723.425158 -114.817309 
L 723.407786 -114.553745 
L 723.390699 -114.290182 
L 723.373969 -114.026618 
L 723.357665 -113.763055 
L 723.341856 -113.499491 
L 723.326607 -113.235927 
L 723.311981 -112.972364 
L 723.298038 -112.7088 
L 723.284837 -112.445236 
L 723.272432 -112.181673 
L 723.260874 -111.918109 
L 723.250209 -111.654545 
L 723.240483 -111.390982 
L 723.231735 -111.127418 
L 723.224 -110.863855 
L 723.21731 -110.600291 
L 723.211694 -110.336727 
L 723.207172 -110.073164 
L 723.203765 -109.8096 
L 723.201486 -109.546036 
L 723.200344 -109.282473 
L 723.200344 -109.018909 
L 723.201486 -108.755345 
L 723.203765 -108.491782 
L 723.207172 -108.228218 
L 723.211694 -107.964655 
L 723.21731 -107.701091 
L 723.224 -107.437527 
L 723.231735 -107.173964 
L 723.240483 -106.9104 
L 723.250209 -106.646836 
L 723.260874 -106.383273 
L 723.272432 -106.119709 
L 723.284837 -105.856145 
L 723.298038 -105.592582 
L 723.311981 -105.329018 
L 723.326607 -105.065455 
L 723.341856 -104.801891 
L 723.357665 -104.538327 
L 723.373969 -104.274764 
L 723.390699 -104.0112 
L 723.407786 -103.747636 
L 723.425158 -103.484073 
L 723.442742 -103.220509 
L 723.460463 -102.956945 
L 723.478248 -102.693382 
L 723.49602 -102.429818 
L 723.513702 -102.166255 
L 723.53122 -101.902691 
L 723.548497 -101.639127 
L 723.565458 -101.375564 
L 723.582029 -101.112 
L 723.598136 -100.848436 
L 723.613706 -100.584873 
L 723.628671 -100.321309 
L 723.64296 -100.057745 
L 723.656508 -99.794182 
L 723.66925 -99.530618 
L 723.681125 -99.267055 
L 723.692074 -99.003491 
L 723.702041 -98.739927 
L 723.710974 -98.476364 
L 723.718823 -98.2128 
L 723.725544 -97.949236 
L 723.731092 -97.685673 
L 723.735432 -97.422109 
L 723.738527 -97.158545 
L 723.740349 -96.894982 
L 723.74087 -96.631418 
L 723.740068 -96.367855 
L 723.737927 -96.104291 
z
" id="m7f092c91b4" style="stroke:#494949;stroke-width:1.5;"/>
    </defs>
    <g clip-path="url(#p8f97c2608f)">
     <use style="fill:#8d7866;stroke:#494949;stroke-width:1.5;" x="0" xlink:href="#m7f092c91b4" y="432"/>
    </g>
   </g>
   <g id="line2d_6">
    <path clip-path="url(#p8f97c2608f)" d="M 158.174291 297.942545 
L 169.425709 297.942545 
" style="fill:none;stroke:#494949;stroke-dasharray:3.375,3.375;stroke-dashoffset:0;stroke-width:1.5;"/>
   </g>
   <g id="line2d_7">
    <path clip-path="url(#p8f97c2608f)" d="M 158.078828 292.012364 
L 169.521172 292.012364 
" style="fill:none;stroke:#494949;stroke-dasharray:6.75,6.75;stroke-dashoffset:0;stroke-width:1.5;"/>
   </g>
   <g id="line2d_8">
    <path clip-path="url(#p8f97c2608f)" d="M 158.554229 286.082182 
L 169.045771 286.082182 
" style="fill:none;stroke:#494949;stroke-dasharray:3.375,3.375;stroke-dashoffset:0;stroke-width:1.5;"/>
   </g>
   <g id="line2d_9">
    <path clip-path="url(#p8f97c2608f)" d="M 272.518899 360.209455 
L 278.281101 360.209455 
" style="fill:none;stroke:#494949;stroke-dasharray:3.375,3.375;stroke-dashoffset:0;stroke-width:1.5;"/>
   </g>
   <g id="line2d_10">
    <path clip-path="url(#p8f97c2608f)" d="M 272.806685 357.244364 
L 277.993315 357.244364 
" style="fill:none;stroke:#494949;stroke-dasharray:6.75,6.75;stroke-dashoffset:0;stroke-width:1.5;"/>
   </g>
   <g id="line2d_11">
    <path clip-path="url(#p8f97c2608f)" d="M 273.83138 351.314182 
L 276.96862 351.314182 
" style="fill:none;stroke:#494949;stroke-dasharray:3.375,3.375;stroke-dashoffset:0;stroke-width:1.5;"/>
   </g>
   <g id="line2d_12">
    <path clip-path="url(#p8f97c2608f)" d="M 381.241379 275.407855 
L 392.758621 275.407855 
" style="fill:none;stroke:#494949;stroke-dasharray:3.375,3.375;stroke-dashoffset:0;stroke-width:1.5;"/>
   </g>
   <g id="line2d_13">
    <path clip-path="url(#p8f97c2608f)" d="M 382.04598 246.942982 
L 391.95402 246.942982 
" style="fill:none;stroke:#494949;stroke-dasharray:6.75,6.75;stroke-dashoffset:0;stroke-width:1.5;"/>
   </g>
   <g id="line2d_14">
    <path clip-path="url(#p8f97c2608f)" d="M 381.457949 223.815273 
L 392.542051 223.815273 
" style="fill:none;stroke:#494949;stroke-dasharray:3.375,3.375;stroke-dashoffset:0;stroke-width:1.5;"/>
   </g>
   <g id="line2d_15">
    <path clip-path="url(#p8f97c2608f)" d="M 493.87124 345.384 
L 503.32876 345.384 
" style="fill:none;stroke:#494949;stroke-dasharray:3.375,3.375;stroke-dashoffset:0;stroke-width:1.5;"/>
   </g>
   <g id="line2d_16">
    <path clip-path="url(#p8f97c2608f)" d="M 494.81096 284.896145 
L 502.38904 284.896145 
" style="fill:none;stroke:#494949;stroke-dasharray:6.75,6.75;stroke-dashoffset:0;stroke-width:1.5;"/>
   </g>
   <g id="line2d_17">
    <path clip-path="url(#p8f97c2608f)" d="M 494.503244 241.0128 
L 502.696756 241.0128 
" style="fill:none;stroke:#494949;stroke-dasharray:3.375,3.375;stroke-dashoffset:0;stroke-width:1.5;"/>
   </g>
   <g id="line2d_18">
    <path clip-path="url(#p8f97c2608f)" d="M 570.248646 303.872727 
L 650.151354 303.872727 
" style="fill:none;stroke:#494949;stroke-dasharray:3.375,3.375;stroke-dashoffset:0;stroke-width:1.5;"/>
   </g>
   <g id="line2d_19">
    <path clip-path="url(#p8f97c2608f)" d="M 566.0064 283.117091 
L 654.3936 283.117091 
" style="fill:none;stroke:#494949;stroke-dasharray:6.75,6.75;stroke-dashoffset:0;stroke-width:1.5;"/>
   </g>
   <g id="line2d_20">
    <path clip-path="url(#p8f97c2608f)" d="M 575.476045 250.501091 
L 644.923955 250.501091 
" style="fill:none;stroke:#494949;stroke-dasharray:3.375,3.375;stroke-dashoffset:0;stroke-width:1.5;"/>
   </g>
   <g id="line2d_21">
    <path clip-path="url(#p8f97c2608f)" d="M 720.138535 329.372509 
L 723.461465 329.372509 
" style="fill:none;stroke:#494949;stroke-dasharray:3.375,3.375;stroke-dashoffset:0;stroke-width:1.5;"/>
   </g>
   <g id="line2d_22">
    <path clip-path="url(#p8f97c2608f)" d="M 720.413659 322.849309 
L 723.186341 322.849309 
" style="fill:none;stroke:#494949;stroke-dasharray:6.75,6.75;stroke-dashoffset:0;stroke-width:1.5;"/>
   </g>
   <g id="line2d_23">
    <path clip-path="url(#p8f97c2608f)" d="M 720.138535 316.326109 
L 723.461465 316.326109 
" style="fill:none;stroke:#494949;stroke-dasharray:3.375,3.375;stroke-dashoffset:0;stroke-width:1.5;"/>
   </g>
   <g id="patch_3">
    <path d="M 108 378 
L 108 51.84 
" style="fill:none;stroke:#ffffff;stroke-linecap:square;stroke-linejoin:miter;stroke-width:1.25;"/>
   </g>
   <g id="patch_4">
    <path d="M 777.6 378 
L 777.6 51.84 
" style="fill:none;stroke:#ffffff;stroke-linecap:square;stroke-linejoin:miter;stroke-width:1.25;"/>
   </g>
   <g id="patch_5">
    <path d="M 108 378 
L 777.6 378 
" style="fill:none;stroke:#ffffff;stroke-linecap:square;stroke-linejoin:miter;stroke-width:1.25;"/>
   </g>
   <g id="patch_6">
    <path d="M 108 51.84 
L 777.6 51.84 
" style="fill:none;stroke:#ffffff;stroke-linecap:square;stroke-linejoin:miter;stroke-width:1.25;"/>
   </g>
   <g id="text_14">
    <!-- Compensation by Type of Work -->
    <g style="fill:#262626;" transform="translate(359.31 45.84)scale(0.12 -0.12)">
     <defs>
      <path d="M 3763 1606 
L 4369 1453 
Q 4178 706 3683 314 
Q 3188 -78 2472 -78 
Q 1731 -78 1267 223 
Q 803 525 561 1097 
Q 319 1669 319 2325 
Q 319 3041 592 3573 
Q 866 4106 1370 4382 
Q 1875 4659 2481 4659 
Q 3169 4659 3637 4309 
Q 4106 3959 4291 3325 
L 3694 3184 
Q 3534 3684 3231 3912 
Q 2928 4141 2469 4141 
Q 1941 4141 1586 3887 
Q 1231 3634 1087 3207 
Q 944 2781 944 2328 
Q 944 1744 1114 1308 
Q 1284 872 1643 656 
Q 2003 441 2422 441 
Q 2931 441 3284 734 
Q 3638 1028 3763 1606 
z
" id="ArialMT-43" transform="scale(0.015625)"/>
      <path d="M 941 0 
L 419 0 
L 419 4581 
L 981 4581 
L 981 2947 
Q 1338 3394 1891 3394 
Q 2197 3394 2470 3270 
Q 2744 3147 2920 2923 
Q 3097 2700 3197 2384 
Q 3297 2069 3297 1709 
Q 3297 856 2875 390 
Q 2453 -75 1863 -75 
Q 1275 -75 941 416 
L 941 0 
z
M 934 1684 
Q 934 1088 1097 822 
Q 1363 388 1816 388 
Q 2184 388 2453 708 
Q 2722 1028 2722 1663 
Q 2722 2313 2464 2622 
Q 2206 2931 1841 2931 
Q 1472 2931 1203 2611 
Q 934 2291 934 1684 
z
" id="ArialMT-62" transform="scale(0.015625)"/>
     </defs>
     <use xlink:href="#ArialMT-43"/>
     <use x="72.216797" xlink:href="#ArialMT-6f"/>
     <use x="127.832031" xlink:href="#ArialMT-6d"/>
     <use x="211.132812" xlink:href="#ArialMT-70"/>
     <use x="266.748047" xlink:href="#ArialMT-65"/>
     <use x="322.363281" xlink:href="#ArialMT-6e"/>
     <use x="377.978516" xlink:href="#ArialMT-73"/>
     <use x="427.978516" xlink:href="#ArialMT-61"/>
     <use x="483.59375" xlink:href="#ArialMT-74"/>
     <use x="511.376953" xlink:href="#ArialMT-69"/>
     <use x="533.59375" xlink:href="#ArialMT-6f"/>
     <use x="589.208984" xlink:href="#ArialMT-6e"/>
     <use x="644.824219" xlink:href="#ArialMT-20"/>
     <use x="672.607422" xlink:href="#ArialMT-62"/>
     <use x="728.222656" xlink:href="#ArialMT-79"/>
     <use x="778.222656" xlink:href="#ArialMT-20"/>
     <use x="804.255859" xlink:href="#ArialMT-54"/>
     <use x="859.839844" xlink:href="#ArialMT-79"/>
     <use x="909.839844" xlink:href="#ArialMT-70"/>
     <use x="965.455078" xlink:href="#ArialMT-65"/>
     <use x="1021.070312" xlink:href="#ArialMT-20"/>
     <use x="1048.853516" xlink:href="#ArialMT-6f"/>
     <use x="1104.46875" xlink:href="#ArialMT-66"/>
     <use x="1132.251953" xlink:href="#ArialMT-20"/>
     <use x="1160.035156" xlink:href="#ArialMT-57"/>
     <use x="1252.669922" xlink:href="#ArialMT-6f"/>
     <use x="1308.285156" xlink:href="#ArialMT-72"/>
     <use x="1341.585938" xlink:href="#ArialMT-6b"/>
    </g>
   </g>
  </g>
 </g>
 <defs>
  <clipPath id="p8f97c2608f">
   <rect height="326.16" width="669.6" x="108" y="51.84"/>
  </clipPath>
 </defs>
</svg>
