<?xml version="1.0" encoding="utf-8" standalone="no"?>
<!DOCTYPE svg PUBLIC "-//W3C//DTD SVG 1.1//EN"
  "http://www.w3.org/Graphics/SVG/1.1/DTD/svg11.dtd">
<svg height="432pt" version="1.1" viewBox="0 0 864 432" width="864pt" xmlns="http://www.w3.org/2000/svg" xmlns:xlink="http://www.w3.org/1999/xlink">
 <metadata>
  <rdf:RDF xmlns:cc="http://creativecommons.org/ns#" xmlns:dc="http://purl.org/dc/elements/1.1/" xmlns:rdf="http://www.w3.org/1999/02/22-rdf-syntax-ns#">
   <cc:Work>
    <dc:type rdf:resource="http://purl.org/dc/dcmitype/StillImage"/>
    <dc:date>2022-01-07T21:56:08.027684</dc:date>
    <dc:format>image/svg+xml</dc:format>
    <dc:creator>
     <cc:Agent>
      <dc:title>Matplotlib v3.4.3, https://matplotlib.org/</dc:title>
     </cc:Agent>
    </dc:creator>
   </cc:Work>
  </rdf:RDF>
 </metadata>
 <defs>
  <style type="text/css">*{stroke-linecap:butt;stroke-linejoin:round;}</style>
 </defs>
 <g id="figure_1">
  <g id="patch_1">
   <path d="M 0 432 
L 864 432 
L 864 0 
L 0 0 
z
" style="fill:#ffffff;"/>
  </g>
  <g id="axes_1">
   <g id="patch_2">
    <path d="M 108 378 
L 777.6 378 
L 777.6 51.84 
L 108 51.84 
z
" style="fill:#eaeaf2;"/>
   </g>
   <g id="matplotlib.axis_1">
    <g id="xtick_1">
     <g id="text_1">
      <!-- Associate's Degree -->
      <g style="fill:#262626;" transform="translate(127.750234 395.373594)scale(0.11 -0.11)">
       <defs>
        <path d="M -9 0 
L 1750 4581 
L 2403 4581 
L 4278 0 
L 3588 0 
L 3053 1388 
L 1138 1388 
L 634 0 
L -9 0 
z
M 1313 1881 
L 2866 1881 
L 2388 3150 
Q 2169 3728 2063 4100 
Q 1975 3659 1816 3225 
L 1313 1881 
z
" id="ArialMT-41" transform="scale(0.015625)"/>
        <path d="M 197 991 
L 753 1078 
Q 800 744 1014 566 
Q 1228 388 1613 388 
Q 2000 388 2187 545 
Q 2375 703 2375 916 
Q 2375 1106 2209 1216 
Q 2094 1291 1634 1406 
Q 1016 1563 777 1677 
Q 538 1791 414 1992 
Q 291 2194 291 2438 
Q 291 2659 392 2848 
Q 494 3038 669 3163 
Q 800 3259 1026 3326 
Q 1253 3394 1513 3394 
Q 1903 3394 2198 3281 
Q 2494 3169 2634 2976 
Q 2775 2784 2828 2463 
L 2278 2388 
Q 2241 2644 2061 2787 
Q 1881 2931 1553 2931 
Q 1166 2931 1000 2803 
Q 834 2675 834 2503 
Q 834 2394 903 2306 
Q 972 2216 1119 2156 
Q 1203 2125 1616 2013 
Q 2213 1853 2448 1751 
Q 2684 1650 2818 1456 
Q 2953 1263 2953 975 
Q 2953 694 2789 445 
Q 2625 197 2315 61 
Q 2006 -75 1616 -75 
Q 969 -75 630 194 
Q 291 463 197 991 
z
" id="ArialMT-73" transform="scale(0.015625)"/>
        <path d="M 213 1659 
Q 213 2581 725 3025 
Q 1153 3394 1769 3394 
Q 2453 3394 2887 2945 
Q 3322 2497 3322 1706 
Q 3322 1066 3130 698 
Q 2938 331 2570 128 
Q 2203 -75 1769 -75 
Q 1072 -75 642 372 
Q 213 819 213 1659 
z
M 791 1659 
Q 791 1022 1069 705 
Q 1347 388 1769 388 
Q 2188 388 2466 706 
Q 2744 1025 2744 1678 
Q 2744 2294 2464 2611 
Q 2184 2928 1769 2928 
Q 1347 2928 1069 2612 
Q 791 2297 791 1659 
z
" id="ArialMT-6f" transform="scale(0.015625)"/>
        <path d="M 2588 1216 
L 3141 1144 
Q 3050 572 2676 248 
Q 2303 -75 1759 -75 
Q 1078 -75 664 370 
Q 250 816 250 1647 
Q 250 2184 428 2587 
Q 606 2991 970 3192 
Q 1334 3394 1763 3394 
Q 2303 3394 2647 3120 
Q 2991 2847 3088 2344 
L 2541 2259 
Q 2463 2594 2264 2762 
Q 2066 2931 1784 2931 
Q 1359 2931 1093 2626 
Q 828 2322 828 1663 
Q 828 994 1084 691 
Q 1341 388 1753 388 
Q 2084 388 2306 591 
Q 2528 794 2588 1216 
z
" id="ArialMT-63" transform="scale(0.015625)"/>
        <path d="M 425 3934 
L 425 4581 
L 988 4581 
L 988 3934 
L 425 3934 
z
M 425 0 
L 425 3319 
L 988 3319 
L 988 0 
L 425 0 
z
" id="ArialMT-69" transform="scale(0.015625)"/>
        <path d="M 2588 409 
Q 2275 144 1986 34 
Q 1697 -75 1366 -75 
Q 819 -75 525 192 
Q 231 459 231 875 
Q 231 1119 342 1320 
Q 453 1522 633 1644 
Q 813 1766 1038 1828 
Q 1203 1872 1538 1913 
Q 2219 1994 2541 2106 
Q 2544 2222 2544 2253 
Q 2544 2597 2384 2738 
Q 2169 2928 1744 2928 
Q 1347 2928 1158 2789 
Q 969 2650 878 2297 
L 328 2372 
Q 403 2725 575 2942 
Q 747 3159 1072 3276 
Q 1397 3394 1825 3394 
Q 2250 3394 2515 3294 
Q 2781 3194 2906 3042 
Q 3031 2891 3081 2659 
Q 3109 2516 3109 2141 
L 3109 1391 
Q 3109 606 3145 398 
Q 3181 191 3288 0 
L 2700 0 
Q 2613 175 2588 409 
z
M 2541 1666 
Q 2234 1541 1622 1453 
Q 1275 1403 1131 1340 
Q 988 1278 909 1158 
Q 831 1038 831 891 
Q 831 666 1001 516 
Q 1172 366 1500 366 
Q 1825 366 2078 508 
Q 2331 650 2450 897 
Q 2541 1088 2541 1459 
L 2541 1666 
z
" id="ArialMT-61" transform="scale(0.015625)"/>
        <path d="M 1650 503 
L 1731 6 
Q 1494 -44 1306 -44 
Q 1000 -44 831 53 
Q 663 150 594 308 
Q 525 466 525 972 
L 525 2881 
L 113 2881 
L 113 3319 
L 525 3319 
L 525 4141 
L 1084 4478 
L 1084 3319 
L 1650 3319 
L 1650 2881 
L 1084 2881 
L 1084 941 
Q 1084 700 1114 631 
Q 1144 563 1211 522 
Q 1278 481 1403 481 
Q 1497 481 1650 503 
z
" id="ArialMT-74" transform="scale(0.015625)"/>
        <path d="M 2694 1069 
L 3275 997 
Q 3138 488 2766 206 
Q 2394 -75 1816 -75 
Q 1088 -75 661 373 
Q 234 822 234 1631 
Q 234 2469 665 2931 
Q 1097 3394 1784 3394 
Q 2450 3394 2872 2941 
Q 3294 2488 3294 1666 
Q 3294 1616 3291 1516 
L 816 1516 
Q 847 969 1125 678 
Q 1403 388 1819 388 
Q 2128 388 2347 550 
Q 2566 713 2694 1069 
z
M 847 1978 
L 2700 1978 
Q 2663 2397 2488 2606 
Q 2219 2931 1791 2931 
Q 1403 2931 1139 2672 
Q 875 2413 847 1978 
z
" id="ArialMT-65" transform="scale(0.015625)"/>
        <path d="M 425 2959 
L 281 3816 
L 281 4581 
L 922 4581 
L 922 3816 
L 772 2959 
L 425 2959 
z
" id="ArialMT-27" transform="scale(0.015625)"/>
        <path id="ArialMT-20" transform="scale(0.015625)"/>
        <path d="M 494 0 
L 494 4581 
L 2072 4581 
Q 2606 4581 2888 4516 
Q 3281 4425 3559 4188 
Q 3922 3881 4101 3404 
Q 4281 2928 4281 2316 
Q 4281 1794 4159 1391 
Q 4038 988 3847 723 
Q 3656 459 3429 307 
Q 3203 156 2883 78 
Q 2563 0 2147 0 
L 494 0 
z
M 1100 541 
L 2078 541 
Q 2531 541 2789 625 
Q 3047 709 3200 863 
Q 3416 1078 3536 1442 
Q 3656 1806 3656 2325 
Q 3656 3044 3420 3430 
Q 3184 3816 2847 3947 
Q 2603 4041 2063 4041 
L 1100 4041 
L 1100 541 
z
" id="ArialMT-44" transform="scale(0.015625)"/>
        <path d="M 319 -275 
L 866 -356 
Q 900 -609 1056 -725 
Q 1266 -881 1628 -881 
Q 2019 -881 2231 -725 
Q 2444 -569 2519 -288 
Q 2563 -116 2559 434 
Q 2191 0 1641 0 
Q 956 0 581 494 
Q 206 988 206 1678 
Q 206 2153 378 2554 
Q 550 2956 876 3175 
Q 1203 3394 1644 3394 
Q 2231 3394 2613 2919 
L 2613 3319 
L 3131 3319 
L 3131 450 
Q 3131 -325 2973 -648 
Q 2816 -972 2473 -1159 
Q 2131 -1347 1631 -1347 
Q 1038 -1347 672 -1080 
Q 306 -813 319 -275 
z
M 784 1719 
Q 784 1066 1043 766 
Q 1303 466 1694 466 
Q 2081 466 2343 764 
Q 2606 1063 2606 1700 
Q 2606 2309 2336 2618 
Q 2066 2928 1684 2928 
Q 1309 2928 1046 2623 
Q 784 2319 784 1719 
z
" id="ArialMT-67" transform="scale(0.015625)"/>
        <path d="M 416 0 
L 416 3319 
L 922 3319 
L 922 2816 
Q 1116 3169 1280 3281 
Q 1444 3394 1641 3394 
Q 1925 3394 2219 3213 
L 2025 2691 
Q 1819 2813 1613 2813 
Q 1428 2813 1281 2702 
Q 1134 2591 1072 2394 
Q 978 2094 978 1738 
L 978 0 
L 416 0 
z
" id="ArialMT-72" transform="scale(0.015625)"/>
       </defs>
       <use xlink:href="#ArialMT-41"/>
       <use x="66.699219" xlink:href="#ArialMT-73"/>
       <use x="116.699219" xlink:href="#ArialMT-73"/>
       <use x="166.699219" xlink:href="#ArialMT-6f"/>
       <use x="222.314453" xlink:href="#ArialMT-63"/>
       <use x="272.314453" xlink:href="#ArialMT-69"/>
       <use x="294.53125" xlink:href="#ArialMT-61"/>
       <use x="350.146484" xlink:href="#ArialMT-74"/>
       <use x="377.929688" xlink:href="#ArialMT-65"/>
       <use x="433.544922" xlink:href="#ArialMT-27"/>
       <use x="452.636719" xlink:href="#ArialMT-73"/>
       <use x="502.636719" xlink:href="#ArialMT-20"/>
       <use x="530.419922" xlink:href="#ArialMT-44"/>
       <use x="602.636719" xlink:href="#ArialMT-65"/>
       <use x="658.251953" xlink:href="#ArialMT-67"/>
       <use x="713.867188" xlink:href="#ArialMT-72"/>
       <use x="747.167969" xlink:href="#ArialMT-65"/>
       <use x="802.783203" xlink:href="#ArialMT-65"/>
      </g>
     </g>
    </g>
    <g id="xtick_2">
     <g id="text_2">
      <!-- Bachelor's Degree -->
      <g style="fill:#262626;" transform="translate(263.808359 395.373594)scale(0.11 -0.11)">
       <defs>
        <path d="M 469 0 
L 469 4581 
L 2188 4581 
Q 2713 4581 3030 4442 
Q 3347 4303 3526 4014 
Q 3706 3725 3706 3409 
Q 3706 3116 3547 2856 
Q 3388 2597 3066 2438 
Q 3481 2316 3704 2022 
Q 3928 1728 3928 1328 
Q 3928 1006 3792 729 
Q 3656 453 3456 303 
Q 3256 153 2954 76 
Q 2653 0 2216 0 
L 469 0 
z
M 1075 2656 
L 2066 2656 
Q 2469 2656 2644 2709 
Q 2875 2778 2992 2937 
Q 3109 3097 3109 3338 
Q 3109 3566 3000 3739 
Q 2891 3913 2687 3977 
Q 2484 4041 1991 4041 
L 1075 4041 
L 1075 2656 
z
M 1075 541 
L 2216 541 
Q 2509 541 2628 563 
Q 2838 600 2978 687 
Q 3119 775 3209 942 
Q 3300 1109 3300 1328 
Q 3300 1584 3169 1773 
Q 3038 1963 2805 2039 
Q 2572 2116 2134 2116 
L 1075 2116 
L 1075 541 
z
" id="ArialMT-42" transform="scale(0.015625)"/>
        <path d="M 422 0 
L 422 4581 
L 984 4581 
L 984 2938 
Q 1378 3394 1978 3394 
Q 2347 3394 2619 3248 
Q 2891 3103 3008 2847 
Q 3125 2591 3125 2103 
L 3125 0 
L 2563 0 
L 2563 2103 
Q 2563 2525 2380 2717 
Q 2197 2909 1863 2909 
Q 1613 2909 1392 2779 
Q 1172 2650 1078 2428 
Q 984 2206 984 1816 
L 984 0 
L 422 0 
z
" id="ArialMT-68" transform="scale(0.015625)"/>
        <path d="M 409 0 
L 409 4581 
L 972 4581 
L 972 0 
L 409 0 
z
" id="ArialMT-6c" transform="scale(0.015625)"/>
       </defs>
       <use xlink:href="#ArialMT-42"/>
       <use x="66.699219" xlink:href="#ArialMT-61"/>
       <use x="122.314453" xlink:href="#ArialMT-63"/>
       <use x="172.314453" xlink:href="#ArialMT-68"/>
       <use x="227.929688" xlink:href="#ArialMT-65"/>
       <use x="283.544922" xlink:href="#ArialMT-6c"/>
       <use x="305.761719" xlink:href="#ArialMT-6f"/>
       <use x="361.376953" xlink:href="#ArialMT-72"/>
       <use x="394.677734" xlink:href="#ArialMT-27"/>
       <use x="413.769531" xlink:href="#ArialMT-73"/>
       <use x="463.769531" xlink:href="#ArialMT-20"/>
       <use x="491.552734" xlink:href="#ArialMT-44"/>
       <use x="563.769531" xlink:href="#ArialMT-65"/>
       <use x="619.384766" xlink:href="#ArialMT-67"/>
       <use x="675" xlink:href="#ArialMT-72"/>
       <use x="708.300781" xlink:href="#ArialMT-65"/>
       <use x="763.916016" xlink:href="#ArialMT-65"/>
      </g>
     </g>
    </g>
    <g id="xtick_3">
     <g id="text_3">
      <!-- High School -->
      <g style="fill:#262626;" transform="translate(413.144688 395.507656)scale(0.11 -0.11)">
       <defs>
        <path d="M 513 0 
L 513 4581 
L 1119 4581 
L 1119 2700 
L 3500 2700 
L 3500 4581 
L 4106 4581 
L 4106 0 
L 3500 0 
L 3500 2159 
L 1119 2159 
L 1119 0 
L 513 0 
z
" id="ArialMT-48" transform="scale(0.015625)"/>
        <path d="M 288 1472 
L 859 1522 
Q 900 1178 1048 958 
Q 1197 738 1509 602 
Q 1822 466 2213 466 
Q 2559 466 2825 569 
Q 3091 672 3220 851 
Q 3350 1031 3350 1244 
Q 3350 1459 3225 1620 
Q 3100 1781 2813 1891 
Q 2628 1963 1997 2114 
Q 1366 2266 1113 2400 
Q 784 2572 623 2826 
Q 463 3081 463 3397 
Q 463 3744 659 4045 
Q 856 4347 1234 4503 
Q 1613 4659 2075 4659 
Q 2584 4659 2973 4495 
Q 3363 4331 3572 4012 
Q 3781 3694 3797 3291 
L 3216 3247 
Q 3169 3681 2898 3903 
Q 2628 4125 2100 4125 
Q 1550 4125 1298 3923 
Q 1047 3722 1047 3438 
Q 1047 3191 1225 3031 
Q 1400 2872 2139 2705 
Q 2878 2538 3153 2413 
Q 3553 2228 3743 1945 
Q 3934 1663 3934 1294 
Q 3934 928 3725 604 
Q 3516 281 3123 101 
Q 2731 -78 2241 -78 
Q 1619 -78 1198 103 
Q 778 284 539 648 
Q 300 1013 288 1472 
z
" id="ArialMT-53" transform="scale(0.015625)"/>
       </defs>
       <use xlink:href="#ArialMT-48"/>
       <use x="72.216797" xlink:href="#ArialMT-69"/>
       <use x="94.433594" xlink:href="#ArialMT-67"/>
       <use x="150.048828" xlink:href="#ArialMT-68"/>
       <use x="205.664062" xlink:href="#ArialMT-20"/>
       <use x="233.447266" xlink:href="#ArialMT-53"/>
       <use x="300.146484" xlink:href="#ArialMT-63"/>
       <use x="350.146484" xlink:href="#ArialMT-68"/>
       <use x="405.761719" xlink:href="#ArialMT-6f"/>
       <use x="461.376953" xlink:href="#ArialMT-6f"/>
       <use x="516.992188" xlink:href="#ArialMT-6c"/>
      </g>
     </g>
    </g>
    <g id="xtick_4">
     <g id="text_4">
      <!-- Master's or Professional Degree -->
      <g style="fill:#262626;" transform="translate(498.336406 395.507656)scale(0.11 -0.11)">
       <defs>
        <path d="M 475 0 
L 475 4581 
L 1388 4581 
L 2472 1338 
Q 2622 884 2691 659 
Q 2769 909 2934 1394 
L 4031 4581 
L 4847 4581 
L 4847 0 
L 4263 0 
L 4263 3834 
L 2931 0 
L 2384 0 
L 1059 3900 
L 1059 0 
L 475 0 
z
" id="ArialMT-4d" transform="scale(0.015625)"/>
        <path d="M 494 0 
L 494 4581 
L 2222 4581 
Q 2678 4581 2919 4538 
Q 3256 4481 3484 4323 
Q 3713 4166 3852 3881 
Q 3991 3597 3991 3256 
Q 3991 2672 3619 2267 
Q 3247 1863 2275 1863 
L 1100 1863 
L 1100 0 
L 494 0 
z
M 1100 2403 
L 2284 2403 
Q 2872 2403 3119 2622 
Q 3366 2841 3366 3238 
Q 3366 3525 3220 3729 
Q 3075 3934 2838 4000 
Q 2684 4041 2272 4041 
L 1100 4041 
L 1100 2403 
z
" id="ArialMT-50" transform="scale(0.015625)"/>
        <path d="M 556 0 
L 556 2881 
L 59 2881 
L 59 3319 
L 556 3319 
L 556 3672 
Q 556 4006 616 4169 
Q 697 4388 901 4523 
Q 1106 4659 1475 4659 
Q 1713 4659 2000 4603 
L 1916 4113 
Q 1741 4144 1584 4144 
Q 1328 4144 1222 4034 
Q 1116 3925 1116 3625 
L 1116 3319 
L 1763 3319 
L 1763 2881 
L 1116 2881 
L 1116 0 
L 556 0 
z
" id="ArialMT-66" transform="scale(0.015625)"/>
        <path d="M 422 0 
L 422 3319 
L 928 3319 
L 928 2847 
Q 1294 3394 1984 3394 
Q 2284 3394 2536 3286 
Q 2788 3178 2913 3003 
Q 3038 2828 3088 2588 
Q 3119 2431 3119 2041 
L 3119 0 
L 2556 0 
L 2556 2019 
Q 2556 2363 2490 2533 
Q 2425 2703 2258 2804 
Q 2091 2906 1866 2906 
Q 1506 2906 1245 2678 
Q 984 2450 984 1813 
L 984 0 
L 422 0 
z
" id="ArialMT-6e" transform="scale(0.015625)"/>
       </defs>
       <use xlink:href="#ArialMT-4d"/>
       <use x="83.300781" xlink:href="#ArialMT-61"/>
       <use x="138.916016" xlink:href="#ArialMT-73"/>
       <use x="188.916016" xlink:href="#ArialMT-74"/>
       <use x="216.699219" xlink:href="#ArialMT-65"/>
       <use x="272.314453" xlink:href="#ArialMT-72"/>
       <use x="305.615234" xlink:href="#ArialMT-27"/>
       <use x="324.707031" xlink:href="#ArialMT-73"/>
       <use x="374.707031" xlink:href="#ArialMT-20"/>
       <use x="402.490234" xlink:href="#ArialMT-6f"/>
       <use x="458.105469" xlink:href="#ArialMT-72"/>
       <use x="491.40625" xlink:href="#ArialMT-20"/>
       <use x="519.189453" xlink:href="#ArialMT-50"/>
       <use x="585.888672" xlink:href="#ArialMT-72"/>
       <use x="619.189453" xlink:href="#ArialMT-6f"/>
       <use x="674.804688" xlink:href="#ArialMT-66"/>
       <use x="702.587891" xlink:href="#ArialMT-65"/>
       <use x="758.203125" xlink:href="#ArialMT-73"/>
       <use x="808.203125" xlink:href="#ArialMT-73"/>
       <use x="858.203125" xlink:href="#ArialMT-69"/>
       <use x="880.419922" xlink:href="#ArialMT-6f"/>
       <use x="936.035156" xlink:href="#ArialMT-6e"/>
       <use x="991.650391" xlink:href="#ArialMT-61"/>
       <use x="1047.265625" xlink:href="#ArialMT-6c"/>
       <use x="1069.482422" xlink:href="#ArialMT-20"/>
       <use x="1097.265625" xlink:href="#ArialMT-44"/>
       <use x="1169.482422" xlink:href="#ArialMT-65"/>
       <use x="1225.097656" xlink:href="#ArialMT-67"/>
       <use x="1280.712891" xlink:href="#ArialMT-72"/>
       <use x="1314.013672" xlink:href="#ArialMT-65"/>
       <use x="1369.628906" xlink:href="#ArialMT-65"/>
      </g>
     </g>
    </g>
    <g id="xtick_5">
     <g id="text_5">
      <!-- PhD -->
      <g style="fill:#262626;" transform="translate(699.940781 395.373594)scale(0.11 -0.11)">
       <use xlink:href="#ArialMT-50"/>
       <use x="66.699219" xlink:href="#ArialMT-68"/>
       <use x="122.314453" xlink:href="#ArialMT-44"/>
      </g>
     </g>
    </g>
    <g id="text_6">
     <!-- Education -->
     <g style="fill:#262626;" transform="translate(416.115 410.412188)scale(0.12 -0.12)">
      <defs>
       <path d="M 506 0 
L 506 4581 
L 3819 4581 
L 3819 4041 
L 1113 4041 
L 1113 2638 
L 3647 2638 
L 3647 2100 
L 1113 2100 
L 1113 541 
L 3925 541 
L 3925 0 
L 506 0 
z
" id="ArialMT-45" transform="scale(0.015625)"/>
       <path d="M 2575 0 
L 2575 419 
Q 2259 -75 1647 -75 
Q 1250 -75 917 144 
Q 584 363 401 755 
Q 219 1147 219 1656 
Q 219 2153 384 2558 
Q 550 2963 881 3178 
Q 1213 3394 1622 3394 
Q 1922 3394 2156 3267 
Q 2391 3141 2538 2938 
L 2538 4581 
L 3097 4581 
L 3097 0 
L 2575 0 
z
M 797 1656 
Q 797 1019 1065 703 
Q 1334 388 1700 388 
Q 2069 388 2326 689 
Q 2584 991 2584 1609 
Q 2584 2291 2321 2609 
Q 2059 2928 1675 2928 
Q 1300 2928 1048 2622 
Q 797 2316 797 1656 
z
" id="ArialMT-64" transform="scale(0.015625)"/>
       <path d="M 2597 0 
L 2597 488 
Q 2209 -75 1544 -75 
Q 1250 -75 995 37 
Q 741 150 617 320 
Q 494 491 444 738 
Q 409 903 409 1263 
L 409 3319 
L 972 3319 
L 972 1478 
Q 972 1038 1006 884 
Q 1059 663 1231 536 
Q 1403 409 1656 409 
Q 1909 409 2131 539 
Q 2353 669 2445 892 
Q 2538 1116 2538 1541 
L 2538 3319 
L 3100 3319 
L 3100 0 
L 2597 0 
z
" id="ArialMT-75" transform="scale(0.015625)"/>
      </defs>
      <use xlink:href="#ArialMT-45"/>
      <use x="66.699219" xlink:href="#ArialMT-64"/>
      <use x="122.314453" xlink:href="#ArialMT-75"/>
      <use x="177.929688" xlink:href="#ArialMT-63"/>
      <use x="227.929688" xlink:href="#ArialMT-61"/>
      <use x="283.544922" xlink:href="#ArialMT-74"/>
      <use x="311.328125" xlink:href="#ArialMT-69"/>
      <use x="333.544922" xlink:href="#ArialMT-6f"/>
      <use x="389.160156" xlink:href="#ArialMT-6e"/>
     </g>
    </g>
   </g>
   <g id="matplotlib.axis_2">
    <g id="ytick_1">
     <g id="line2d_1">
      <path clip-path="url(#p8df41279eb)" d="M 108 321.663273 
L 777.6 321.663273 
" style="fill:none;stroke:#ffffff;stroke-linecap:round;"/>
     </g>
     <g id="text_7">
      <!-- 100 -->
      <g style="fill:#262626;" transform="translate(80.148906 325.60007)scale(0.11 -0.11)">
       <defs>
        <path d="M 2384 0 
L 1822 0 
L 1822 3584 
Q 1619 3391 1289 3197 
Q 959 3003 697 2906 
L 697 3450 
Q 1169 3672 1522 3987 
Q 1875 4303 2022 4600 
L 2384 4600 
L 2384 0 
z
" id="ArialMT-31" transform="scale(0.015625)"/>
        <path d="M 266 2259 
Q 266 3072 433 3567 
Q 600 4063 929 4331 
Q 1259 4600 1759 4600 
Q 2128 4600 2406 4451 
Q 2684 4303 2865 4023 
Q 3047 3744 3150 3342 
Q 3253 2941 3253 2259 
Q 3253 1453 3087 958 
Q 2922 463 2592 192 
Q 2263 -78 1759 -78 
Q 1097 -78 719 397 
Q 266 969 266 2259 
z
M 844 2259 
Q 844 1131 1108 757 
Q 1372 384 1759 384 
Q 2147 384 2411 759 
Q 2675 1134 2675 2259 
Q 2675 3391 2411 3762 
Q 2147 4134 1753 4134 
Q 1366 4134 1134 3806 
Q 844 3388 844 2259 
z
" id="ArialMT-30" transform="scale(0.015625)"/>
       </defs>
       <use xlink:href="#ArialMT-31"/>
       <use x="55.615234" xlink:href="#ArialMT-30"/>
       <use x="111.230469" xlink:href="#ArialMT-30"/>
      </g>
     </g>
    </g>
    <g id="ytick_2">
     <g id="line2d_2">
      <path clip-path="url(#p8df41279eb)" d="M 108 262.361455 
L 777.6 262.361455 
" style="fill:none;stroke:#ffffff;stroke-linecap:round;"/>
     </g>
     <g id="text_8">
      <!-- 150 -->
      <g style="fill:#262626;" transform="translate(80.148906 266.298251)scale(0.11 -0.11)">
       <defs>
        <path d="M 266 1200 
L 856 1250 
Q 922 819 1161 601 
Q 1400 384 1738 384 
Q 2144 384 2425 690 
Q 2706 997 2706 1503 
Q 2706 1984 2436 2262 
Q 2166 2541 1728 2541 
Q 1456 2541 1237 2417 
Q 1019 2294 894 2097 
L 366 2166 
L 809 4519 
L 3088 4519 
L 3088 3981 
L 1259 3981 
L 1013 2750 
Q 1425 3038 1878 3038 
Q 2478 3038 2890 2622 
Q 3303 2206 3303 1553 
Q 3303 931 2941 478 
Q 2500 -78 1738 -78 
Q 1113 -78 717 272 
Q 322 622 266 1200 
z
" id="ArialMT-35" transform="scale(0.015625)"/>
       </defs>
       <use xlink:href="#ArialMT-31"/>
       <use x="55.615234" xlink:href="#ArialMT-35"/>
       <use x="111.230469" xlink:href="#ArialMT-30"/>
      </g>
     </g>
    </g>
    <g id="ytick_3">
     <g id="line2d_3">
      <path clip-path="url(#p8df41279eb)" d="M 108 203.059636 
L 777.6 203.059636 
" style="fill:none;stroke:#ffffff;stroke-linecap:round;"/>
     </g>
     <g id="text_9">
      <!-- 200 -->
      <g style="fill:#262626;" transform="translate(80.148906 206.996433)scale(0.11 -0.11)">
       <defs>
        <path d="M 3222 541 
L 3222 0 
L 194 0 
Q 188 203 259 391 
Q 375 700 629 1000 
Q 884 1300 1366 1694 
Q 2113 2306 2375 2664 
Q 2638 3022 2638 3341 
Q 2638 3675 2398 3904 
Q 2159 4134 1775 4134 
Q 1369 4134 1125 3890 
Q 881 3647 878 3216 
L 300 3275 
Q 359 3922 746 4261 
Q 1134 4600 1788 4600 
Q 2447 4600 2831 4234 
Q 3216 3869 3216 3328 
Q 3216 3053 3103 2787 
Q 2991 2522 2730 2228 
Q 2469 1934 1863 1422 
Q 1356 997 1212 845 
Q 1069 694 975 541 
L 3222 541 
z
" id="ArialMT-32" transform="scale(0.015625)"/>
       </defs>
       <use xlink:href="#ArialMT-32"/>
       <use x="55.615234" xlink:href="#ArialMT-30"/>
       <use x="111.230469" xlink:href="#ArialMT-30"/>
      </g>
     </g>
    </g>
    <g id="ytick_4">
     <g id="line2d_4">
      <path clip-path="url(#p8df41279eb)" d="M 108 143.757818 
L 777.6 143.757818 
" style="fill:none;stroke:#ffffff;stroke-linecap:round;"/>
     </g>
     <g id="text_10">
      <!-- 250 -->
      <g style="fill:#262626;" transform="translate(80.148906 147.694615)scale(0.11 -0.11)">
       <use xlink:href="#ArialMT-32"/>
       <use x="55.615234" xlink:href="#ArialMT-35"/>
       <use x="111.230469" xlink:href="#ArialMT-30"/>
      </g>
     </g>
    </g>
    <g id="ytick_5">
     <g id="line2d_5">
      <path clip-path="url(#p8df41279eb)" d="M 108 84.456 
L 777.6 84.456 
" style="fill:none;stroke:#ffffff;stroke-linecap:round;"/>
     </g>
     <g id="text_11">
      <!-- 300 -->
      <g style="fill:#262626;" transform="translate(80.148906 88.392797)scale(0.11 -0.11)">
       <defs>
        <path d="M 269 1209 
L 831 1284 
Q 928 806 1161 595 
Q 1394 384 1728 384 
Q 2125 384 2398 659 
Q 2672 934 2672 1341 
Q 2672 1728 2419 1979 
Q 2166 2231 1775 2231 
Q 1616 2231 1378 2169 
L 1441 2663 
Q 1497 2656 1531 2656 
Q 1891 2656 2178 2843 
Q 2466 3031 2466 3422 
Q 2466 3731 2256 3934 
Q 2047 4138 1716 4138 
Q 1388 4138 1169 3931 
Q 950 3725 888 3313 
L 325 3413 
Q 428 3978 793 4289 
Q 1159 4600 1703 4600 
Q 2078 4600 2393 4439 
Q 2709 4278 2876 4000 
Q 3044 3722 3044 3409 
Q 3044 3113 2884 2869 
Q 2725 2625 2413 2481 
Q 2819 2388 3044 2092 
Q 3269 1797 3269 1353 
Q 3269 753 2831 336 
Q 2394 -81 1725 -81 
Q 1122 -81 723 278 
Q 325 638 269 1209 
z
" id="ArialMT-33" transform="scale(0.015625)"/>
       </defs>
       <use xlink:href="#ArialMT-33"/>
       <use x="55.615234" xlink:href="#ArialMT-30"/>
       <use x="111.230469" xlink:href="#ArialMT-30"/>
      </g>
     </g>
    </g>
    <g id="text_12">
     <!-- Annual income (thousands) -->
     <g style="fill:#262626;" transform="translate(73.623281 287.957812)rotate(-90)scale(0.12 -0.12)">
      <defs>
       <path d="M 422 0 
L 422 3319 
L 925 3319 
L 925 2853 
Q 1081 3097 1340 3245 
Q 1600 3394 1931 3394 
Q 2300 3394 2536 3241 
Q 2772 3088 2869 2813 
Q 3263 3394 3894 3394 
Q 4388 3394 4653 3120 
Q 4919 2847 4919 2278 
L 4919 0 
L 4359 0 
L 4359 2091 
Q 4359 2428 4304 2576 
Q 4250 2725 4106 2815 
Q 3963 2906 3769 2906 
Q 3419 2906 3187 2673 
Q 2956 2441 2956 1928 
L 2956 0 
L 2394 0 
L 2394 2156 
Q 2394 2531 2256 2718 
Q 2119 2906 1806 2906 
Q 1569 2906 1367 2781 
Q 1166 2656 1075 2415 
Q 984 2175 984 1722 
L 984 0 
L 422 0 
z
" id="ArialMT-6d" transform="scale(0.015625)"/>
       <path d="M 1497 -1347 
Q 1031 -759 709 28 
Q 388 816 388 1659 
Q 388 2403 628 3084 
Q 909 3875 1497 4659 
L 1900 4659 
Q 1522 4009 1400 3731 
Q 1209 3300 1100 2831 
Q 966 2247 966 1656 
Q 966 153 1900 -1347 
L 1497 -1347 
z
" id="ArialMT-28" transform="scale(0.015625)"/>
       <path d="M 791 -1347 
L 388 -1347 
Q 1322 153 1322 1656 
Q 1322 2244 1188 2822 
Q 1081 3291 891 3722 
Q 769 4003 388 4659 
L 791 4659 
Q 1378 3875 1659 3084 
Q 1900 2403 1900 1659 
Q 1900 816 1576 28 
Q 1253 -759 791 -1347 
z
" id="ArialMT-29" transform="scale(0.015625)"/>
      </defs>
      <use xlink:href="#ArialMT-41"/>
      <use x="66.699219" xlink:href="#ArialMT-6e"/>
      <use x="122.314453" xlink:href="#ArialMT-6e"/>
      <use x="177.929688" xlink:href="#ArialMT-75"/>
      <use x="233.544922" xlink:href="#ArialMT-61"/>
      <use x="289.160156" xlink:href="#ArialMT-6c"/>
      <use x="311.376953" xlink:href="#ArialMT-20"/>
      <use x="339.160156" xlink:href="#ArialMT-69"/>
      <use x="361.376953" xlink:href="#ArialMT-6e"/>
      <use x="416.992188" xlink:href="#ArialMT-63"/>
      <use x="466.992188" xlink:href="#ArialMT-6f"/>
      <use x="522.607422" xlink:href="#ArialMT-6d"/>
      <use x="605.908203" xlink:href="#ArialMT-65"/>
      <use x="661.523438" xlink:href="#ArialMT-20"/>
      <use x="689.306641" xlink:href="#ArialMT-28"/>
      <use x="722.607422" xlink:href="#ArialMT-74"/>
      <use x="750.390625" xlink:href="#ArialMT-68"/>
      <use x="806.005859" xlink:href="#ArialMT-6f"/>
      <use x="861.621094" xlink:href="#ArialMT-75"/>
      <use x="917.236328" xlink:href="#ArialMT-73"/>
      <use x="967.236328" xlink:href="#ArialMT-61"/>
      <use x="1022.851562" xlink:href="#ArialMT-6e"/>
      <use x="1078.466797" xlink:href="#ArialMT-64"/>
      <use x="1134.082031" xlink:href="#ArialMT-73"/>
      <use x="1184.082031" xlink:href="#ArialMT-29"/>
     </g>
    </g>
   </g>
   <g id="PolyCollection_1">
    <defs>
     <path d="M 177.973577 -110.336727 
L 171.946423 -110.336727 
L 171.916052 -111.055537 
L 171.889294 -111.774347 
L 171.866244 -112.493157 
L 171.846983 -113.211967 
L 171.831579 -113.930777 
L 171.820082 -114.649587 
L 171.812529 -115.368397 
L 171.808941 -116.087207 
L 171.809322 -116.806017 
L 171.81366 -117.524826 
L 171.821928 -118.243636 
L 171.834082 -118.962446 
L 171.850062 -119.681256 
L 171.869794 -120.400066 
L 171.893186 -121.118876 
L 171.920134 -121.837686 
L 171.950518 -122.556496 
L 171.984205 -123.275306 
L 172.021049 -123.994116 
L 172.060892 -124.712926 
L 172.103564 -125.431736 
L 172.148885 -126.150545 
L 172.196667 -126.869355 
L 172.246709 -127.588165 
L 172.298808 -128.306975 
L 172.35275 -129.025785 
L 172.408319 -129.744595 
L 172.465291 -130.463405 
L 172.523442 -131.182215 
L 172.582544 -131.901025 
L 172.642369 -132.619835 
L 172.702688 -133.338645 
L 172.763274 -134.057455 
L 172.823902 -134.776264 
L 172.884348 -135.495074 
L 172.944395 -136.213884 
L 173.003829 -136.932694 
L 173.062443 -137.651504 
L 173.120036 -138.370314 
L 173.176415 -139.089124 
L 173.231395 -139.807934 
L 173.2848 -140.526744 
L 173.336463 -141.245554 
L 173.386228 -141.964364 
L 173.433949 -142.683174 
L 173.479492 -143.401983 
L 173.522734 -144.120793 
L 173.563564 -144.839603 
L 173.601882 -145.558413 
L 173.637604 -146.277223 
L 173.670654 -146.996033 
L 173.700972 -147.714843 
L 173.72851 -148.433653 
L 173.753232 -149.152463 
L 173.775118 -149.871273 
L 173.794156 -150.590083 
L 173.810351 -151.308893 
L 173.823718 -152.027702 
L 173.834286 -152.746512 
L 173.842095 -153.465322 
L 173.847197 -154.184132 
L 173.849656 -154.902942 
L 173.849547 -155.621752 
L 173.846955 -156.340562 
L 173.841978 -157.059372 
L 173.834719 -157.778182 
L 173.825295 -158.496992 
L 173.813829 -159.215802 
L 173.800453 -159.934612 
L 173.785306 -160.653421 
L 173.768535 -161.372231 
L 173.750292 -162.091041 
L 173.730735 -162.809851 
L 173.710026 -163.528661 
L 173.688332 -164.247471 
L 173.665822 -164.966281 
L 173.642669 -165.685091 
L 173.619046 -166.403901 
L 173.595126 -167.122711 
L 173.571084 -167.841521 
L 173.547093 -168.560331 
L 173.523324 -169.27914 
L 173.499944 -169.99795 
L 173.47712 -170.71676 
L 173.455011 -171.43557 
L 173.433774 -172.15438 
L 173.413556 -172.87319 
L 173.394503 -173.592 
L 173.376748 -174.31081 
L 173.360419 -175.02962 
L 173.345637 -175.74843 
L 173.332509 -176.46724 
L 173.321137 -177.18605 
L 173.311612 -177.90486 
L 173.304011 -178.623669 
L 173.298404 -179.342479 
L 173.29485 -180.061289 
L 173.293393 -180.780099 
L 173.29407 -181.498909 
L 176.62593 -181.498909 
L 176.62593 -181.498909 
L 176.626607 -180.780099 
L 176.62515 -180.061289 
L 176.621596 -179.342479 
L 176.615989 -178.623669 
L 176.608388 -177.90486 
L 176.598863 -177.18605 
L 176.587491 -176.46724 
L 176.574363 -175.74843 
L 176.559581 -175.02962 
L 176.543252 -174.31081 
L 176.525497 -173.592 
L 176.506444 -172.87319 
L 176.486226 -172.15438 
L 176.464989 -171.43557 
L 176.44288 -170.71676 
L 176.420056 -169.99795 
L 176.396676 -169.27914 
L 176.372907 -168.560331 
L 176.348916 -167.841521 
L 176.324874 -167.122711 
L 176.300954 -166.403901 
L 176.277331 -165.685091 
L 176.254178 -164.966281 
L 176.231668 -164.247471 
L 176.209974 -163.528661 
L 176.189265 -162.809851 
L 176.169708 -162.091041 
L 176.151465 -161.372231 
L 176.134694 -160.653421 
L 176.119547 -159.934612 
L 176.106171 -159.215802 
L 176.094705 -158.496992 
L 176.085281 -157.778182 
L 176.078022 -157.059372 
L 176.073045 -156.340562 
L 176.070453 -155.621752 
L 176.070344 -154.902942 
L 176.072803 -154.184132 
L 176.077905 -153.465322 
L 176.085714 -152.746512 
L 176.096282 -152.027702 
L 176.109649 -151.308893 
L 176.125844 -150.590083 
L 176.144882 -149.871273 
L 176.166768 -149.152463 
L 176.19149 -148.433653 
L 176.219028 -147.714843 
L 176.249346 -146.996033 
L 176.282396 -146.277223 
L 176.318118 -145.558413 
L 176.356436 -144.839603 
L 176.397266 -144.120793 
L 176.440508 -143.401983 
L 176.486051 -142.683174 
L 176.533772 -141.964364 
L 176.583537 -141.245554 
L 176.6352 -140.526744 
L 176.688605 -139.807934 
L 176.743585 -139.089124 
L 176.799964 -138.370314 
L 176.857557 -137.651504 
L 176.916171 -136.932694 
L 176.975605 -136.213884 
L 177.035652 -135.495074 
L 177.096098 -134.776264 
L 177.156726 -134.057455 
L 177.217312 -133.338645 
L 177.277631 -132.619835 
L 177.337456 -131.901025 
L 177.396558 -131.182215 
L 177.454709 -130.463405 
L 177.511681 -129.744595 
L 177.56725 -129.025785 
L 177.621192 -128.306975 
L 177.673291 -127.588165 
L 177.723333 -126.869355 
L 177.771115 -126.150545 
L 177.816436 -125.431736 
L 177.859108 -124.712926 
L 177.898951 -123.994116 
L 177.935795 -123.275306 
L 177.969482 -122.556496 
L 177.999866 -121.837686 
L 178.026814 -121.118876 
L 178.050206 -120.400066 
L 178.069938 -119.681256 
L 178.085918 -118.962446 
L 178.098072 -118.243636 
L 178.10634 -117.524826 
L 178.110678 -116.806017 
L 178.111059 -116.087207 
L 178.107471 -115.368397 
L 178.099918 -114.649587 
L 178.088421 -113.930777 
L 178.073017 -113.211967 
L 178.053756 -112.493157 
L 178.030706 -111.774347 
L 178.003948 -111.055537 
L 177.973577 -110.336727 
z
" id="m68a747630e" style="stroke:#4c4c4c;stroke-width:1.5;"/>
    </defs>
    <g clip-path="url(#p8df41279eb)">
     <use style="fill:#5875a4;stroke:#4c4c4c;stroke-width:1.5;" x="0" xlink:href="#m68a747630e" y="432"/>
    </g>
   </g>
   <g id="PolyCollection_2">
    <defs>
     <path d="M 325.806961 -68.825455 
L 291.953039 -68.825455 
L 290.446 -71.820496 
L 288.905237 -74.815537 
L 287.334561 -77.810579 
L 285.736524 -80.80562 
L 284.112509 -83.800661 
L 282.463003 -86.795702 
L 280.78802 -89.790744 
L 279.087654 -92.785785 
L 277.36272 -95.780826 
L 275.615429 -98.775868 
L 273.850033 -101.770909 
L 272.073371 -104.76595 
L 270.295257 -107.760992 
L 268.528662 -110.756033 
L 266.789648 -113.751074 
L 265.097056 -116.746116 
L 263.471937 -119.741157 
L 261.936779 -122.736198 
L 260.514576 -125.73124 
L 259.227813 -128.726281 
L 258.097436 -131.721322 
L 257.141913 -134.716364 
L 256.376422 -137.711405 
L 255.812269 -140.706446 
L 255.456536 -143.701488 
L 255.312 -146.696529 
L 255.377308 -149.69157 
L 255.647367 -152.686612 
L 256.113915 -155.681653 
L 256.766192 -158.676694 
L 257.591655 -161.671736 
L 258.576671 -164.666777 
L 259.707125 -167.661818 
L 260.968904 -170.65686 
L 262.348235 -173.651901 
L 263.831874 -176.646942 
L 265.407145 -179.641983 
L 267.06188 -182.637025 
L 268.784268 -185.632066 
L 270.562681 -188.627107 
L 272.385497 -191.622149 
L 274.240963 -194.61719 
L 276.11712 -197.612231 
L 278.001806 -200.607273 
L 279.88273 -203.602314 
L 281.747617 -206.597355 
L 283.584407 -209.592397 
L 285.381471 -212.587438 
L 287.127836 -215.582479 
L 288.813401 -218.577521 
L 290.429101 -221.572562 
L 291.967039 -224.567603 
L 293.420564 -227.562645 
L 294.784298 -230.557686 
L 296.054129 -233.552727 
L 297.227173 -236.547769 
L 298.30172 -239.54281 
L 299.27718 -242.537851 
L 300.154026 -245.532893 
L 300.933761 -248.527934 
L 301.618884 -251.522975 
L 302.212873 -254.518017 
L 302.720164 -257.513058 
L 303.146127 -260.508099 
L 303.497023 -263.50314 
L 303.779926 -266.498182 
L 304.002621 -269.493223 
L 304.173455 -272.488264 
L 304.301147 -275.483306 
L 304.394572 -278.478347 
L 304.462507 -281.473388 
L 304.513373 -284.46843 
L 304.554973 -287.463471 
L 304.594244 -290.458512 
L 304.63705 -293.453554 
L 304.688016 -296.448595 
L 304.750424 -299.443636 
L 304.826174 -302.438678 
L 304.91582 -305.433719 
L 305.018671 -308.42876 
L 305.13296 -311.423802 
L 305.256058 -314.418843 
L 305.384739 -317.413884 
L 305.515453 -320.408926 
L 305.644619 -323.403967 
L 305.768887 -326.399008 
L 305.885383 -329.39405 
L 305.991902 -332.389091 
L 306.087044 -335.384132 
L 306.17029 -338.379174 
L 306.242006 -341.374215 
L 306.30339 -344.369256 
L 306.356356 -347.364298 
L 306.403377 -350.359339 
L 306.447289 -353.35438 
L 306.491083 -356.349421 
L 306.537689 -359.344463 
L 306.589784 -362.339504 
L 306.649618 -365.334545 
L 311.110382 -365.334545 
L 311.110382 -365.334545 
L 311.170216 -362.339504 
L 311.222311 -359.344463 
L 311.268917 -356.349421 
L 311.312711 -353.35438 
L 311.356623 -350.359339 
L 311.403644 -347.364298 
L 311.45661 -344.369256 
L 311.517994 -341.374215 
L 311.58971 -338.379174 
L 311.672956 -335.384132 
L 311.768098 -332.389091 
L 311.874617 -329.39405 
L 311.991113 -326.399008 
L 312.115381 -323.403967 
L 312.244547 -320.408926 
L 312.375261 -317.413884 
L 312.503942 -314.418843 
L 312.62704 -311.423802 
L 312.741329 -308.42876 
L 312.84418 -305.433719 
L 312.933826 -302.438678 
L 313.009576 -299.443636 
L 313.071984 -296.448595 
L 313.12295 -293.453554 
L 313.165756 -290.458512 
L 313.205027 -287.463471 
L 313.246627 -284.46843 
L 313.297493 -281.473388 
L 313.365428 -278.478347 
L 313.458853 -275.483306 
L 313.586545 -272.488264 
L 313.757379 -269.493223 
L 313.980074 -266.498182 
L 314.262977 -263.50314 
L 314.613873 -260.508099 
L 315.039836 -257.513058 
L 315.547127 -254.518017 
L 316.141116 -251.522975 
L 316.826239 -248.527934 
L 317.605974 -245.532893 
L 318.48282 -242.537851 
L 319.45828 -239.54281 
L 320.532827 -236.547769 
L 321.705871 -233.552727 
L 322.975702 -230.557686 
L 324.339436 -227.562645 
L 325.792961 -224.567603 
L 327.330899 -221.572562 
L 328.946599 -218.577521 
L 330.632164 -215.582479 
L 332.378529 -212.587438 
L 334.175593 -209.592397 
L 336.012383 -206.597355 
L 337.87727 -203.602314 
L 339.758194 -200.607273 
L 341.64288 -197.612231 
L 343.519037 -194.61719 
L 345.374503 -191.622149 
L 347.197319 -188.627107 
L 348.975732 -185.632066 
L 350.69812 -182.637025 
L 352.352855 -179.641983 
L 353.928126 -176.646942 
L 355.411765 -173.651901 
L 356.791096 -170.65686 
L 358.052875 -167.661818 
L 359.183329 -164.666777 
L 360.168345 -161.671736 
L 360.993808 -158.676694 
L 361.646085 -155.681653 
L 362.112633 -152.686612 
L 362.382692 -149.69157 
L 362.448 -146.696529 
L 362.303464 -143.701488 
L 361.947731 -140.706446 
L 361.383578 -137.711405 
L 360.618087 -134.716364 
L 359.662564 -131.721322 
L 358.532187 -128.726281 
L 357.245424 -125.73124 
L 355.823221 -122.736198 
L 354.288063 -119.741157 
L 352.662944 -116.746116 
L 350.970352 -113.751074 
L 349.231338 -110.756033 
L 347.464743 -107.760992 
L 345.686629 -104.76595 
L 343.909967 -101.770909 
L 342.144571 -98.775868 
L 340.39728 -95.780826 
L 338.672346 -92.785785 
L 336.97198 -89.790744 
L 335.296997 -86.795702 
L 333.647491 -83.800661 
L 332.023476 -80.80562 
L 330.425439 -77.810579 
L 328.854763 -74.815537 
L 327.314 -71.820496 
L 325.806961 -68.825455 
z
" id="m9ec771fb7c" style="stroke:#4c4c4c;stroke-width:1.5;"/>
    </defs>
    <g clip-path="url(#p8df41279eb)">
     <use style="fill:#cc8963;stroke:#4c4c4c;stroke-width:1.5;" x="0" xlink:href="#m9ec771fb7c" y="432"/>
    </g>
   </g>
   <g id="PolyCollection_3">
    <defs>
     <path d="M 444.89752 -115.080873 
L 440.70248 -115.080873 
L 440.700162 -115.116813 
L 440.699294 -115.152754 
L 440.699858 -115.188694 
L 440.701829 -115.224635 
L 440.70518 -115.260575 
L 440.709876 -115.296516 
L 440.715882 -115.332456 
L 440.723156 -115.368397 
L 440.731652 -115.404337 
L 440.74132 -115.440278 
L 440.752108 -115.476218 
L 440.763959 -115.512159 
L 440.776812 -115.548099 
L 440.790603 -115.58404 
L 440.805267 -115.61998 
L 440.820733 -115.655921 
L 440.83693 -115.691861 
L 440.853783 -115.727802 
L 440.871216 -115.763742 
L 440.889151 -115.799683 
L 440.907509 -115.835623 
L 440.926209 -115.871564 
L 440.945169 -115.907504 
L 440.964308 -115.943445 
L 440.983543 -115.979385 
L 441.002793 -116.015326 
L 441.021974 -116.051266 
L 441.041006 -116.087207 
L 441.059808 -116.123147 
L 441.078302 -116.159088 
L 441.09641 -116.195028 
L 441.114057 -116.230969 
L 441.131168 -116.266909 
L 441.147673 -116.30285 
L 441.163503 -116.33879 
L 441.178594 -116.374731 
L 441.192882 -116.410671 
L 441.206309 -116.446612 
L 441.218819 -116.482552 
L 441.230362 -116.518493 
L 441.240889 -116.554433 
L 441.250358 -116.590374 
L 441.25873 -116.626314 
L 441.26597 -116.662255 
L 441.272049 -116.698195 
L 441.276943 -116.734136 
L 441.280631 -116.770076 
L 441.283098 -116.806017 
L 441.284334 -116.841957 
L 441.284334 -116.877898 
L 441.283098 -116.913838 
L 441.280631 -116.949779 
L 441.276943 -116.985719 
L 441.272049 -117.02166 
L 441.26597 -117.0576 
L 441.25873 -117.09354 
L 441.250358 -117.129481 
L 441.240889 -117.165421 
L 441.230362 -117.201362 
L 441.218819 -117.237302 
L 441.206309 -117.273243 
L 441.192882 -117.309183 
L 441.178594 -117.345124 
L 441.163503 -117.381064 
L 441.147673 -117.417005 
L 441.131168 -117.452945 
L 441.114057 -117.488886 
L 441.09641 -117.524826 
L 441.078302 -117.560767 
L 441.059808 -117.596707 
L 441.041006 -117.632648 
L 441.021974 -117.668588 
L 441.002793 -117.704529 
L 440.983543 -117.740469 
L 440.964308 -117.77641 
L 440.945169 -117.81235 
L 440.926209 -117.848291 
L 440.907509 -117.884231 
L 440.889151 -117.920172 
L 440.871216 -117.956112 
L 440.853783 -117.992053 
L 440.83693 -118.027993 
L 440.820733 -118.063934 
L 440.805267 -118.099874 
L 440.790603 -118.135815 
L 440.776812 -118.171755 
L 440.763959 -118.207696 
L 440.752108 -118.243636 
L 440.74132 -118.279577 
L 440.731652 -118.315517 
L 440.723156 -118.351458 
L 440.715882 -118.387398 
L 440.709876 -118.423339 
L 440.70518 -118.459279 
L 440.701829 -118.49522 
L 440.699858 -118.53116 
L 440.699294 -118.567101 
L 440.700162 -118.603041 
L 440.70248 -118.638982 
L 444.89752 -118.638982 
L 444.89752 -118.638982 
L 444.899838 -118.603041 
L 444.900706 -118.567101 
L 444.900142 -118.53116 
L 444.898171 -118.49522 
L 444.89482 -118.459279 
L 444.890124 -118.423339 
L 444.884118 -118.387398 
L 444.876844 -118.351458 
L 444.868348 -118.315517 
L 444.85868 -118.279577 
L 444.847892 -118.243636 
L 444.836041 -118.207696 
L 444.823188 -118.171755 
L 444.809397 -118.135815 
L 444.794733 -118.099874 
L 444.779267 -118.063934 
L 444.76307 -118.027993 
L 444.746217 -117.992053 
L 444.728784 -117.956112 
L 444.710849 -117.920172 
L 444.692491 -117.884231 
L 444.673791 -117.848291 
L 444.654831 -117.81235 
L 444.635692 -117.77641 
L 444.616457 -117.740469 
L 444.597207 -117.704529 
L 444.578026 -117.668588 
L 444.558994 -117.632648 
L 444.540192 -117.596707 
L 444.521698 -117.560767 
L 444.50359 -117.524826 
L 444.485943 -117.488886 
L 444.468832 -117.452945 
L 444.452327 -117.417005 
L 444.436497 -117.381064 
L 444.421406 -117.345124 
L 444.407118 -117.309183 
L 444.393691 -117.273243 
L 444.381181 -117.237302 
L 444.369638 -117.201362 
L 444.359111 -117.165421 
L 444.349642 -117.129481 
L 444.34127 -117.09354 
L 444.33403 -117.0576 
L 444.327951 -117.02166 
L 444.323057 -116.985719 
L 444.319369 -116.949779 
L 444.316902 -116.913838 
L 444.315666 -116.877898 
L 444.315666 -116.841957 
L 444.316902 -116.806017 
L 444.319369 -116.770076 
L 444.323057 -116.734136 
L 444.327951 -116.698195 
L 444.33403 -116.662255 
L 444.34127 -116.626314 
L 444.349642 -116.590374 
L 444.359111 -116.554433 
L 444.369638 -116.518493 
L 444.381181 -116.482552 
L 444.393691 -116.446612 
L 444.407118 -116.410671 
L 444.421406 -116.374731 
L 444.436497 -116.33879 
L 444.452327 -116.30285 
L 444.468832 -116.266909 
L 444.485943 -116.230969 
L 444.50359 -116.195028 
L 444.521698 -116.159088 
L 444.540192 -116.123147 
L 444.558994 -116.087207 
L 444.578026 -116.051266 
L 444.597207 -116.015326 
L 444.616457 -115.979385 
L 444.635692 -115.943445 
L 444.654831 -115.907504 
L 444.673791 -115.871564 
L 444.692491 -115.835623 
L 444.710849 -115.799683 
L 444.728784 -115.763742 
L 444.746217 -115.727802 
L 444.76307 -115.691861 
L 444.779267 -115.655921 
L 444.794733 -115.61998 
L 444.809397 -115.58404 
L 444.823188 -115.548099 
L 444.836041 -115.512159 
L 444.847892 -115.476218 
L 444.85868 -115.440278 
L 444.868348 -115.404337 
L 444.876844 -115.368397 
L 444.884118 -115.332456 
L 444.890124 -115.296516 
L 444.89482 -115.260575 
L 444.898171 -115.224635 
L 444.900142 -115.188694 
L 444.900706 -115.152754 
L 444.899838 -115.116813 
L 444.89752 -115.080873 
z
" id="m710c37b478" style="stroke:#4c4c4c;stroke-width:1.5;"/>
    </defs>
    <g clip-path="url(#p8df41279eb)">
     <use style="fill:#5f9e6e;stroke:#4c4c4c;stroke-width:1.5;" x="0" xlink:href="#m710c37b478" y="432"/>
    </g>
   </g>
   <g id="PolyCollection_4">
    <defs>
     <path d="M 583.381953 -134.057455 
L 570.058047 -134.057455 
L 569.82973 -135.519035 
L 569.612871 -136.980615 
L 569.408877 -138.442195 
L 569.219086 -139.903775 
L 569.044746 -141.365355 
L 568.887005 -142.826936 
L 568.746897 -144.288516 
L 568.625329 -145.750096 
L 568.523069 -147.211676 
L 568.440739 -148.673256 
L 568.378805 -150.134836 
L 568.337572 -151.596417 
L 568.317176 -153.057997 
L 568.317588 -154.519577 
L 568.338604 -155.981157 
L 568.379858 -157.442737 
L 568.440815 -158.904317 
L 568.520784 -160.365898 
L 568.618923 -161.827478 
L 568.734249 -163.289058 
L 568.865654 -164.750638 
L 569.011914 -166.212218 
L 569.171708 -167.673798 
L 569.343633 -169.135379 
L 569.526226 -170.596959 
L 569.717982 -172.058539 
L 569.917371 -173.520119 
L 570.122863 -174.981699 
L 570.332944 -176.443279 
L 570.54614 -177.90486 
L 570.76103 -179.36644 
L 570.976268 -180.82802 
L 571.190595 -182.2896 
L 571.402856 -183.75118 
L 571.612005 -185.21276 
L 571.817123 -186.67434 
L 572.017416 -188.135921 
L 572.21222 -189.597501 
L 572.401005 -191.059081 
L 572.583368 -192.520661 
L 572.759034 -193.982241 
L 572.927841 -195.443821 
L 573.089739 -196.905402 
L 573.244772 -198.366982 
L 573.39307 -199.828562 
L 573.534834 -201.290142 
L 573.670318 -202.751722 
L 573.799821 -204.213302 
L 573.923666 -205.674883 
L 574.042188 -207.136463 
L 574.155722 -208.598043 
L 574.264589 -210.059623 
L 574.369084 -211.521203 
L 574.46947 -212.982783 
L 574.565966 -214.444364 
L 574.658746 -215.905944 
L 574.747931 -217.367524 
L 574.833589 -218.829104 
L 574.915738 -220.290684 
L 574.994342 -221.752264 
L 575.069319 -223.213845 
L 575.140544 -224.675425 
L 575.207857 -226.137005 
L 575.271068 -227.598585 
L 575.329967 -229.060165 
L 575.384333 -230.521745 
L 575.433941 -231.983326 
L 575.478574 -233.444906 
L 575.518028 -234.906486 
L 575.552125 -236.368066 
L 575.580721 -237.829646 
L 575.603709 -239.291226 
L 575.621031 -240.752807 
L 575.632678 -242.214387 
L 575.638703 -243.675967 
L 575.639213 -245.137547 
L 575.634382 -246.599127 
L 575.624445 -248.060707 
L 575.609701 -249.522288 
L 575.590508 -250.983868 
L 575.567284 -252.445448 
L 575.5405 -253.907028 
L 575.510675 -255.368608 
L 575.478372 -256.830188 
L 575.444189 -258.291769 
L 575.408748 -259.753349 
L 575.372694 -261.214929 
L 575.336678 -262.676509 
L 575.301352 -264.138089 
L 575.267359 -265.599669 
L 575.235321 -267.06125 
L 575.205832 -268.52283 
L 575.17945 -269.98441 
L 575.156686 -271.44599 
L 575.137997 -272.90757 
L 575.123782 -274.36915 
L 575.114373 -275.830731 
L 575.110034 -277.292311 
L 575.110956 -278.753891 
L 578.329044 -278.753891 
L 578.329044 -278.753891 
L 578.329966 -277.292311 
L 578.325627 -275.830731 
L 578.316218 -274.36915 
L 578.302003 -272.90757 
L 578.283314 -271.44599 
L 578.26055 -269.98441 
L 578.234168 -268.52283 
L 578.204679 -267.06125 
L 578.172641 -265.599669 
L 578.138648 -264.138089 
L 578.103322 -262.676509 
L 578.067306 -261.214929 
L 578.031252 -259.753349 
L 577.995811 -258.291769 
L 577.961628 -256.830188 
L 577.929325 -255.368608 
L 577.8995 -253.907028 
L 577.872716 -252.445448 
L 577.849492 -250.983868 
L 577.830299 -249.522288 
L 577.815555 -248.060707 
L 577.805618 -246.599127 
L 577.800787 -245.137547 
L 577.801297 -243.675967 
L 577.807322 -242.214387 
L 577.818969 -240.752807 
L 577.836291 -239.291226 
L 577.859279 -237.829646 
L 577.887875 -236.368066 
L 577.921972 -234.906486 
L 577.961426 -233.444906 
L 578.006059 -231.983326 
L 578.055667 -230.521745 
L 578.110033 -229.060165 
L 578.168932 -227.598585 
L 578.232143 -226.137005 
L 578.299456 -224.675425 
L 578.370681 -223.213845 
L 578.445658 -221.752264 
L 578.524262 -220.290684 
L 578.606411 -218.829104 
L 578.692069 -217.367524 
L 578.781254 -215.905944 
L 578.874034 -214.444364 
L 578.97053 -212.982783 
L 579.070916 -211.521203 
L 579.175411 -210.059623 
L 579.284278 -208.598043 
L 579.397812 -207.136463 
L 579.516334 -205.674883 
L 579.640179 -204.213302 
L 579.769682 -202.751722 
L 579.905166 -201.290142 
L 580.04693 -199.828562 
L 580.195228 -198.366982 
L 580.350261 -196.905402 
L 580.512159 -195.443821 
L 580.680966 -193.982241 
L 580.856632 -192.520661 
L 581.038995 -191.059081 
L 581.22778 -189.597501 
L 581.422584 -188.135921 
L 581.622877 -186.67434 
L 581.827995 -185.21276 
L 582.037144 -183.75118 
L 582.249405 -182.2896 
L 582.463732 -180.82802 
L 582.67897 -179.36644 
L 582.89386 -177.90486 
L 583.107056 -176.443279 
L 583.317137 -174.981699 
L 583.522629 -173.520119 
L 583.722018 -172.058539 
L 583.913774 -170.596959 
L 584.096367 -169.135379 
L 584.268292 -167.673798 
L 584.428086 -166.212218 
L 584.574346 -164.750638 
L 584.705751 -163.289058 
L 584.821077 -161.827478 
L 584.919216 -160.365898 
L 584.999185 -158.904317 
L 585.060142 -157.442737 
L 585.101396 -155.981157 
L 585.122412 -154.519577 
L 585.122824 -153.057997 
L 585.102428 -151.596417 
L 585.061195 -150.134836 
L 584.999261 -148.673256 
L 584.916931 -147.211676 
L 584.814671 -145.750096 
L 584.693103 -144.288516 
L 584.552995 -142.826936 
L 584.395254 -141.365355 
L 584.220914 -139.903775 
L 584.031123 -138.442195 
L 583.827129 -136.980615 
L 583.61027 -135.519035 
L 583.381953 -134.057455 
z
" id="mf2ed43a2c7" style="stroke:#4c4c4c;stroke-width:1.5;"/>
    </defs>
    <g clip-path="url(#p8df41279eb)">
     <use style="fill:#b55d60;stroke:#4c4c4c;stroke-width:1.5;" x="0" xlink:href="#mf2ed43a2c7" y="432"/>
    </g>
   </g>
   <g id="PolyCollection_5">
    <defs>
     <path d="M 713.835746 -86.616 
L 707.444254 -86.616 
L 707.394615 -87.814017 
L 707.348026 -89.012033 
L 707.304614 -90.21005 
L 707.264493 -91.408066 
L 707.227767 -92.606083 
L 707.19453 -93.804099 
L 707.164864 -95.002116 
L 707.13884 -96.200132 
L 707.116514 -97.398149 
L 707.097933 -98.596165 
L 707.083127 -99.794182 
L 707.072116 -100.992198 
L 707.064905 -102.190215 
L 707.061485 -103.388231 
L 707.061833 -104.586248 
L 707.065913 -105.784264 
L 707.073673 -106.982281 
L 707.085046 -108.180298 
L 707.099954 -109.378314 
L 707.118301 -110.576331 
L 707.139978 -111.774347 
L 707.16486 -112.972364 
L 707.192811 -114.17038 
L 707.223677 -115.368397 
L 707.257292 -116.566413 
L 707.293477 -117.76443 
L 707.332039 -118.962446 
L 707.372771 -120.160463 
L 707.415456 -121.358479 
L 707.459863 -122.556496 
L 707.505751 -123.754512 
L 707.55287 -124.952529 
L 707.600957 -126.150545 
L 707.649744 -127.348562 
L 707.698953 -128.546579 
L 707.748301 -129.744595 
L 707.797499 -130.942612 
L 707.846255 -132.140628 
L 707.894273 -133.338645 
L 707.941256 -134.536661 
L 707.986908 -135.734678 
L 708.030934 -136.932694 
L 708.073043 -138.130711 
L 708.112949 -139.328727 
L 708.150373 -140.526744 
L 708.185044 -141.72476 
L 708.216702 -142.922777 
L 708.245098 -144.120793 
L 708.269999 -145.31881 
L 708.291184 -146.516826 
L 708.308454 -147.714843 
L 708.321625 -148.91286 
L 708.330536 -150.110876 
L 708.335046 -151.308893 
L 708.335041 -152.506909 
L 708.330427 -153.704926 
L 708.321141 -154.902942 
L 708.307144 -156.100959 
L 708.288426 -157.298975 
L 708.265005 -158.496992 
L 708.236931 -159.695008 
L 708.204282 -160.893025 
L 708.167165 -162.091041 
L 708.125718 -163.289058 
L 708.08011 -164.487074 
L 708.030539 -165.685091 
L 707.977229 -166.883107 
L 707.920436 -168.081124 
L 707.860439 -169.27914 
L 707.797546 -170.477157 
L 707.732085 -171.675174 
L 707.66441 -172.87319 
L 707.594893 -174.071207 
L 707.523924 -175.269223 
L 707.45191 -176.46724 
L 707.37927 -177.665256 
L 707.306434 -178.863273 
L 707.233841 -180.061289 
L 707.161933 -181.259306 
L 707.091156 -182.457322 
L 707.021954 -183.655339 
L 706.954768 -184.853355 
L 706.890032 -186.051372 
L 706.828169 -187.249388 
L 706.769589 -188.447405 
L 706.714689 -189.645421 
L 706.663844 -190.843438 
L 706.61741 -192.041455 
L 706.575719 -193.239471 
L 706.539076 -194.437488 
L 706.507759 -195.635504 
L 706.482016 -196.833521 
L 706.462061 -198.031537 
L 706.448079 -199.229554 
L 706.440217 -200.42757 
L 706.438588 -201.625587 
L 706.443271 -202.823603 
L 706.454308 -204.02162 
L 706.471703 -205.219636 
L 714.808297 -205.219636 
L 714.808297 -205.219636 
L 714.825692 -204.02162 
L 714.836729 -202.823603 
L 714.841412 -201.625587 
L 714.839783 -200.42757 
L 714.831921 -199.229554 
L 714.817939 -198.031537 
L 714.797984 -196.833521 
L 714.772241 -195.635504 
L 714.740924 -194.437488 
L 714.704281 -193.239471 
L 714.66259 -192.041455 
L 714.616156 -190.843438 
L 714.565311 -189.645421 
L 714.510411 -188.447405 
L 714.451831 -187.249388 
L 714.389968 -186.051372 
L 714.325232 -184.853355 
L 714.258046 -183.655339 
L 714.188844 -182.457322 
L 714.118067 -181.259306 
L 714.046159 -180.061289 
L 713.973566 -178.863273 
L 713.90073 -177.665256 
L 713.82809 -176.46724 
L 713.756076 -175.269223 
L 713.685107 -174.071207 
L 713.61559 -172.87319 
L 713.547915 -171.675174 
L 713.482454 -170.477157 
L 713.419561 -169.27914 
L 713.359564 -168.081124 
L 713.302771 -166.883107 
L 713.249461 -165.685091 
L 713.19989 -164.487074 
L 713.154282 -163.289058 
L 713.112835 -162.091041 
L 713.075718 -160.893025 
L 713.043069 -159.695008 
L 713.014995 -158.496992 
L 712.991574 -157.298975 
L 712.972856 -156.100959 
L 712.958859 -154.902942 
L 712.949573 -153.704926 
L 712.944959 -152.506909 
L 712.944954 -151.308893 
L 712.949464 -150.110876 
L 712.958375 -148.91286 
L 712.971546 -147.714843 
L 712.988816 -146.516826 
L 713.010001 -145.31881 
L 713.034902 -144.120793 
L 713.063298 -142.922777 
L 713.094956 -141.72476 
L 713.129627 -140.526744 
L 713.167051 -139.328727 
L 713.206957 -138.130711 
L 713.249066 -136.932694 
L 713.293092 -135.734678 
L 713.338744 -134.536661 
L 713.385727 -133.338645 
L 713.433745 -132.140628 
L 713.482501 -130.942612 
L 713.531699 -129.744595 
L 713.581047 -128.546579 
L 713.630256 -127.348562 
L 713.679043 -126.150545 
L 713.72713 -124.952529 
L 713.774249 -123.754512 
L 713.820137 -122.556496 
L 713.864544 -121.358479 
L 713.907229 -120.160463 
L 713.947961 -118.962446 
L 713.986523 -117.76443 
L 714.022708 -116.566413 
L 714.056323 -115.368397 
L 714.087189 -114.17038 
L 714.11514 -112.972364 
L 714.140022 -111.774347 
L 714.161699 -110.576331 
L 714.180046 -109.378314 
L 714.194954 -108.180298 
L 714.206327 -106.982281 
L 714.214087 -105.784264 
L 714.218167 -104.586248 
L 714.218515 -103.388231 
L 714.215095 -102.190215 
L 714.207884 -100.992198 
L 714.196873 -99.794182 
L 714.182067 -98.596165 
L 714.163486 -97.398149 
L 714.14116 -96.200132 
L 714.115136 -95.002116 
L 714.08547 -93.804099 
L 714.052233 -92.606083 
L 714.015507 -91.408066 
L 713.975386 -90.21005 
L 713.931974 -89.012033 
L 713.885385 -87.814017 
L 713.835746 -86.616 
z
" id="m3be63e1dfd" style="stroke:#4c4c4c;stroke-width:1.5;"/>
    </defs>
    <g clip-path="url(#p8df41279eb)">
     <use style="fill:#857aab;stroke:#4c4c4c;stroke-width:1.5;" x="0" xlink:href="#m3be63e1dfd" y="432"/>
    </g>
   </g>
   <g id="line2d_6">
    <path clip-path="url(#p8df41279eb)" d="M 171.840452 315.733091 
L 178.079548 315.733091 
" style="fill:none;stroke:#4c4c4c;stroke-dasharray:3.375,3.375;stroke-dashoffset:0;stroke-width:1.5;"/>
   </g>
   <g id="line2d_7">
    <path clip-path="url(#p8df41279eb)" d="M 171.950532 309.802909 
L 177.969468 309.802909 
" style="fill:none;stroke:#4c4c4c;stroke-dasharray:6.75,6.75;stroke-dashoffset:0;stroke-width:1.5;"/>
   </g>
   <g id="line2d_8">
    <path clip-path="url(#p8df41279eb)" d="M 173.835081 280.152 
L 176.084919 280.152 
" style="fill:none;stroke:#4c4c4c;stroke-dasharray:3.375,3.375;stroke-dashoffset:0;stroke-width:1.5;"/>
   </g>
   <g id="line2d_9">
    <path clip-path="url(#p8df41279eb)" d="M 259.724335 304.465745 
L 358.035665 304.465745 
" style="fill:none;stroke:#4c4c4c;stroke-dasharray:3.375,3.375;stroke-dashoffset:0;stroke-width:1.5;"/>
   </g>
   <g id="line2d_10">
    <path clip-path="url(#p8df41279eb)" d="M 255.84768 286.082182 
L 361.91232 286.082182 
" style="fill:none;stroke:#4c4c4c;stroke-dasharray:6.75,6.75;stroke-dashoffset:0;stroke-width:1.5;"/>
   </g>
   <g id="line2d_11">
    <path clip-path="url(#p8df41279eb)" d="M 267.480061 249.315055 
L 350.279939 249.315055 
" style="fill:none;stroke:#4c4c4c;stroke-dasharray:3.375,3.375;stroke-dashoffset:0;stroke-width:1.5;"/>
   </g>
   <g id="line2d_12">
    <path clip-path="url(#p8df41279eb)" d="M 441.001708 316.0296 
L 444.598292 316.0296 
" style="fill:none;stroke:#4c4c4c;stroke-dasharray:3.375,3.375;stroke-dashoffset:0;stroke-width:1.5;"/>
   </g>
   <g id="line2d_13">
    <path clip-path="url(#p8df41279eb)" d="M 441.29949 315.140073 
L 444.30051 315.140073 
" style="fill:none;stroke:#4c4c4c;stroke-dasharray:6.75,6.75;stroke-dashoffset:0;stroke-width:1.5;"/>
   </g>
   <g id="line2d_14">
    <path clip-path="url(#p8df41279eb)" d="M 441.001708 314.250545 
L 444.598292 314.250545 
" style="fill:none;stroke:#4c4c4c;stroke-dasharray:3.375,3.375;stroke-dashoffset:0;stroke-width:1.5;"/>
   </g>
   <g id="line2d_15">
    <path clip-path="url(#p8df41279eb)" d="M 568.826628 287.564727 
L 584.613372 287.564727 
" style="fill:none;stroke:#4c4c4c;stroke-dasharray:3.375,3.375;stroke-dashoffset:0;stroke-width:1.5;"/>
   </g>
   <g id="line2d_16">
    <path clip-path="url(#p8df41279eb)" d="M 568.814107 268.291636 
L 584.625893 268.291636 
" style="fill:none;stroke:#4c4c4c;stroke-dasharray:6.75,6.75;stroke-dashoffset:0;stroke-width:1.5;"/>
   </g>
   <g id="line2d_17">
    <path clip-path="url(#p8df41279eb)" d="M 570.396815 255.423142 
L 583.043185 255.423142 
" style="fill:none;stroke:#4c4c4c;stroke-dasharray:3.375,3.375;stroke-dashoffset:0;stroke-width:1.5;"/>
   </g>
   <g id="line2d_18">
    <path clip-path="url(#p8df41279eb)" d="M 707.174978 320.477236 
L 714.105022 320.477236 
" style="fill:none;stroke:#4c4c4c;stroke-dasharray:3.375,3.375;stroke-dashoffset:0;stroke-width:1.5;"/>
   </g>
   <g id="line2d_19">
    <path clip-path="url(#p8df41279eb)" d="M 708.260962 272.442764 
L 713.019038 272.442764 
" style="fill:none;stroke:#4c4c4c;stroke-dasharray:6.75,6.75;stroke-dashoffset:0;stroke-width:1.5;"/>
   </g>
   <g id="line2d_20">
    <path clip-path="url(#p8df41279eb)" d="M 706.482214 231.228 
L 714.797786 231.228 
" style="fill:none;stroke:#4c4c4c;stroke-dasharray:3.375,3.375;stroke-dashoffset:0;stroke-width:1.5;"/>
   </g>
   <g id="patch_3">
    <path d="M 108 378 
L 108 51.84 
" style="fill:none;stroke:#ffffff;stroke-linecap:square;stroke-linejoin:miter;stroke-width:1.25;"/>
   </g>
   <g id="patch_4">
    <path d="M 777.6 378 
L 777.6 51.84 
" style="fill:none;stroke:#ffffff;stroke-linecap:square;stroke-linejoin:miter;stroke-width:1.25;"/>
   </g>
   <g id="patch_5">
    <path d="M 108 378 
L 777.6 378 
" style="fill:none;stroke:#ffffff;stroke-linecap:square;stroke-linejoin:miter;stroke-width:1.25;"/>
   </g>
   <g id="patch_6">
    <path d="M 108 51.84 
L 777.6 51.84 
" style="fill:none;stroke:#ffffff;stroke-linecap:square;stroke-linejoin:miter;stroke-width:1.25;"/>
   </g>
   <g id="text_13">
    <!-- Compensation by Education -->
    <g style="fill:#262626;" transform="translate(367.757812 45.84)scale(0.12 -0.12)">
     <defs>
      <path d="M 3763 1606 
L 4369 1453 
Q 4178 706 3683 314 
Q 3188 -78 2472 -78 
Q 1731 -78 1267 223 
Q 803 525 561 1097 
Q 319 1669 319 2325 
Q 319 3041 592 3573 
Q 866 4106 1370 4382 
Q 1875 4659 2481 4659 
Q 3169 4659 3637 4309 
Q 4106 3959 4291 3325 
L 3694 3184 
Q 3534 3684 3231 3912 
Q 2928 4141 2469 4141 
Q 1941 4141 1586 3887 
Q 1231 3634 1087 3207 
Q 944 2781 944 2328 
Q 944 1744 1114 1308 
Q 1284 872 1643 656 
Q 2003 441 2422 441 
Q 2931 441 3284 734 
Q 3638 1028 3763 1606 
z
" id="ArialMT-43" transform="scale(0.015625)"/>
      <path d="M 422 -1272 
L 422 3319 
L 934 3319 
L 934 2888 
Q 1116 3141 1344 3267 
Q 1572 3394 1897 3394 
Q 2322 3394 2647 3175 
Q 2972 2956 3137 2557 
Q 3303 2159 3303 1684 
Q 3303 1175 3120 767 
Q 2938 359 2589 142 
Q 2241 -75 1856 -75 
Q 1575 -75 1351 44 
Q 1128 163 984 344 
L 984 -1272 
L 422 -1272 
z
M 931 1641 
Q 931 1000 1190 694 
Q 1450 388 1819 388 
Q 2194 388 2461 705 
Q 2728 1022 2728 1688 
Q 2728 2322 2467 2637 
Q 2206 2953 1844 2953 
Q 1484 2953 1207 2617 
Q 931 2281 931 1641 
z
" id="ArialMT-70" transform="scale(0.015625)"/>
      <path d="M 941 0 
L 419 0 
L 419 4581 
L 981 4581 
L 981 2947 
Q 1338 3394 1891 3394 
Q 2197 3394 2470 3270 
Q 2744 3147 2920 2923 
Q 3097 2700 3197 2384 
Q 3297 2069 3297 1709 
Q 3297 856 2875 390 
Q 2453 -75 1863 -75 
Q 1275 -75 941 416 
L 941 0 
z
M 934 1684 
Q 934 1088 1097 822 
Q 1363 388 1816 388 
Q 2184 388 2453 708 
Q 2722 1028 2722 1663 
Q 2722 2313 2464 2622 
Q 2206 2931 1841 2931 
Q 1472 2931 1203 2611 
Q 934 2291 934 1684 
z
" id="ArialMT-62" transform="scale(0.015625)"/>
      <path d="M 397 -1278 
L 334 -750 
Q 519 -800 656 -800 
Q 844 -800 956 -737 
Q 1069 -675 1141 -563 
Q 1194 -478 1313 -144 
Q 1328 -97 1363 -6 
L 103 3319 
L 709 3319 
L 1400 1397 
Q 1534 1031 1641 628 
Q 1738 1016 1872 1384 
L 2581 3319 
L 3144 3319 
L 1881 -56 
Q 1678 -603 1566 -809 
Q 1416 -1088 1222 -1217 
Q 1028 -1347 759 -1347 
Q 597 -1347 397 -1278 
z
" id="ArialMT-79" transform="scale(0.015625)"/>
     </defs>
     <use xlink:href="#ArialMT-43"/>
     <use x="72.216797" xlink:href="#ArialMT-6f"/>
     <use x="127.832031" xlink:href="#ArialMT-6d"/>
     <use x="211.132812" xlink:href="#ArialMT-70"/>
     <use x="266.748047" xlink:href="#ArialMT-65"/>
     <use x="322.363281" xlink:href="#ArialMT-6e"/>
     <use x="377.978516" xlink:href="#ArialMT-73"/>
     <use x="427.978516" xlink:href="#ArialMT-61"/>
     <use x="483.59375" xlink:href="#ArialMT-74"/>
     <use x="511.376953" xlink:href="#ArialMT-69"/>
     <use x="533.59375" xlink:href="#ArialMT-6f"/>
     <use x="589.208984" xlink:href="#ArialMT-6e"/>
     <use x="644.824219" xlink:href="#ArialMT-20"/>
     <use x="672.607422" xlink:href="#ArialMT-62"/>
     <use x="728.222656" xlink:href="#ArialMT-79"/>
     <use x="778.222656" xlink:href="#ArialMT-20"/>
     <use x="806.005859" xlink:href="#ArialMT-45"/>
     <use x="872.705078" xlink:href="#ArialMT-64"/>
     <use x="928.320312" xlink:href="#ArialMT-75"/>
     <use x="983.935547" xlink:href="#ArialMT-63"/>
     <use x="1033.935547" xlink:href="#ArialMT-61"/>
     <use x="1089.550781" xlink:href="#ArialMT-74"/>
     <use x="1117.333984" xlink:href="#ArialMT-69"/>
     <use x="1139.550781" xlink:href="#ArialMT-6f"/>
     <use x="1195.166016" xlink:href="#ArialMT-6e"/>
    </g>
   </g>
  </g>
 </g>
 <defs>
  <clipPath id="p8df41279eb">
   <rect height="326.16" width="669.6" x="108" y="51.84"/>
  </clipPath>
 </defs>
</svg>
