<?xml version="1.0" encoding="utf-8" standalone="no"?>
<!DOCTYPE svg PUBLIC "-//W3C//DTD SVG 1.1//EN"
  "http://www.w3.org/Graphics/SVG/1.1/DTD/svg11.dtd">
<svg height="432pt" version="1.1" viewBox="0 0 864 432" width="864pt" xmlns="http://www.w3.org/2000/svg" xmlns:xlink="http://www.w3.org/1999/xlink">
 <metadata>
  <rdf:RDF xmlns:cc="http://creativecommons.org/ns#" xmlns:dc="http://purl.org/dc/elements/1.1/" xmlns:rdf="http://www.w3.org/1999/02/22-rdf-syntax-ns#">
   <cc:Work>
    <dc:type rdf:resource="http://purl.org/dc/dcmitype/StillImage"/>
    <dc:date>2022-01-07T21:56:05.753498</dc:date>
    <dc:format>image/svg+xml</dc:format>
    <dc:creator>
     <cc:Agent>
      <dc:title>Matplotlib v3.4.3, https://matplotlib.org/</dc:title>
     </cc:Agent>
    </dc:creator>
   </cc:Work>
  </rdf:RDF>
 </metadata>
 <defs>
  <style type="text/css">*{stroke-linecap:butt;stroke-linejoin:round;}</style>
 </defs>
 <g id="figure_1">
  <g id="patch_1">
   <path d="M 0 432 
L 864 432 
L 864 0 
L 0 0 
z
" style="fill:#ffffff;"/>
  </g>
  <g id="axes_1">
   <g id="patch_2">
    <path d="M 108 378 
L 777.6 378 
L 777.6 51.84 
L 108 51.84 
z
" style="fill:#eaeaf2;"/>
   </g>
   <g id="matplotlib.axis_1">
    <g id="xtick_1">
     <g id="line2d_1">
      <path clip-path="url(#p6fd44d64a6)" d="M 150.183321 378 
L 150.183321 51.84 
" style="fill:none;stroke:#ffffff;stroke-linecap:round;"/>
     </g>
     <g id="text_1">
      <!-- 0 -->
      <g style="fill:#262626;" transform="translate(147.124806 395.373594)scale(0.11 -0.11)">
       <defs>
        <path d="M 266 2259 
Q 266 3072 433 3567 
Q 600 4063 929 4331 
Q 1259 4600 1759 4600 
Q 2128 4600 2406 4451 
Q 2684 4303 2865 4023 
Q 3047 3744 3150 3342 
Q 3253 2941 3253 2259 
Q 3253 1453 3087 958 
Q 2922 463 2592 192 
Q 2263 -78 1759 -78 
Q 1097 -78 719 397 
Q 266 969 266 2259 
z
M 844 2259 
Q 844 1131 1108 757 
Q 1372 384 1759 384 
Q 2147 384 2411 759 
Q 2675 1134 2675 2259 
Q 2675 3391 2411 3762 
Q 2147 4134 1753 4134 
Q 1366 4134 1134 3806 
Q 844 3388 844 2259 
z
" id="ArialMT-30" transform="scale(0.015625)"/>
       </defs>
       <use xlink:href="#ArialMT-30"/>
      </g>
     </g>
    </g>
    <g id="xtick_2">
     <g id="line2d_2">
      <path clip-path="url(#p6fd44d64a6)" d="M 249.796471 378 
L 249.796471 51.84 
" style="fill:none;stroke:#ffffff;stroke-linecap:round;"/>
     </g>
     <g id="text_2">
      <!-- 1 -->
      <g style="fill:#262626;" transform="translate(246.737955 395.373594)scale(0.11 -0.11)">
       <defs>
        <path d="M 2384 0 
L 1822 0 
L 1822 3584 
Q 1619 3391 1289 3197 
Q 959 3003 697 2906 
L 697 3450 
Q 1169 3672 1522 3987 
Q 1875 4303 2022 4600 
L 2384 4600 
L 2384 0 
z
" id="ArialMT-31" transform="scale(0.015625)"/>
       </defs>
       <use xlink:href="#ArialMT-31"/>
      </g>
     </g>
    </g>
    <g id="xtick_3">
     <g id="line2d_3">
      <path clip-path="url(#p6fd44d64a6)" d="M 349.409621 378 
L 349.409621 51.84 
" style="fill:none;stroke:#ffffff;stroke-linecap:round;"/>
     </g>
     <g id="text_3">
      <!-- 2 -->
      <g style="fill:#262626;" transform="translate(346.351105 395.373594)scale(0.11 -0.11)">
       <defs>
        <path d="M 3222 541 
L 3222 0 
L 194 0 
Q 188 203 259 391 
Q 375 700 629 1000 
Q 884 1300 1366 1694 
Q 2113 2306 2375 2664 
Q 2638 3022 2638 3341 
Q 2638 3675 2398 3904 
Q 2159 4134 1775 4134 
Q 1369 4134 1125 3890 
Q 881 3647 878 3216 
L 300 3275 
Q 359 3922 746 4261 
Q 1134 4600 1788 4600 
Q 2447 4600 2831 4234 
Q 3216 3869 3216 3328 
Q 3216 3053 3103 2787 
Q 2991 2522 2730 2228 
Q 2469 1934 1863 1422 
Q 1356 997 1212 845 
Q 1069 694 975 541 
L 3222 541 
z
" id="ArialMT-32" transform="scale(0.015625)"/>
       </defs>
       <use xlink:href="#ArialMT-32"/>
      </g>
     </g>
    </g>
    <g id="xtick_4">
     <g id="line2d_4">
      <path clip-path="url(#p6fd44d64a6)" d="M 449.022771 378 
L 449.022771 51.84 
" style="fill:none;stroke:#ffffff;stroke-linecap:round;"/>
     </g>
     <g id="text_4">
      <!-- 3 -->
      <g style="fill:#262626;" transform="translate(445.964255 395.373594)scale(0.11 -0.11)">
       <defs>
        <path d="M 269 1209 
L 831 1284 
Q 928 806 1161 595 
Q 1394 384 1728 384 
Q 2125 384 2398 659 
Q 2672 934 2672 1341 
Q 2672 1728 2419 1979 
Q 2166 2231 1775 2231 
Q 1616 2231 1378 2169 
L 1441 2663 
Q 1497 2656 1531 2656 
Q 1891 2656 2178 2843 
Q 2466 3031 2466 3422 
Q 2466 3731 2256 3934 
Q 2047 4138 1716 4138 
Q 1388 4138 1169 3931 
Q 950 3725 888 3313 
L 325 3413 
Q 428 3978 793 4289 
Q 1159 4600 1703 4600 
Q 2078 4600 2393 4439 
Q 2709 4278 2876 4000 
Q 3044 3722 3044 3409 
Q 3044 3113 2884 2869 
Q 2725 2625 2413 2481 
Q 2819 2388 3044 2092 
Q 3269 1797 3269 1353 
Q 3269 753 2831 336 
Q 2394 -81 1725 -81 
Q 1122 -81 723 278 
Q 325 638 269 1209 
z
" id="ArialMT-33" transform="scale(0.015625)"/>
       </defs>
       <use xlink:href="#ArialMT-33"/>
      </g>
     </g>
    </g>
    <g id="xtick_5">
     <g id="line2d_5">
      <path clip-path="url(#p6fd44d64a6)" d="M 548.63592 378 
L 548.63592 51.84 
" style="fill:none;stroke:#ffffff;stroke-linecap:round;"/>
     </g>
     <g id="text_5">
      <!-- 4 -->
      <g style="fill:#262626;" transform="translate(545.577405 395.373594)scale(0.11 -0.11)">
       <defs>
        <path d="M 2069 0 
L 2069 1097 
L 81 1097 
L 81 1613 
L 2172 4581 
L 2631 4581 
L 2631 1613 
L 3250 1613 
L 3250 1097 
L 2631 1097 
L 2631 0 
L 2069 0 
z
M 2069 1613 
L 2069 3678 
L 634 1613 
L 2069 1613 
z
" id="ArialMT-34" transform="scale(0.015625)"/>
       </defs>
       <use xlink:href="#ArialMT-34"/>
      </g>
     </g>
    </g>
    <g id="xtick_6">
     <g id="line2d_6">
      <path clip-path="url(#p6fd44d64a6)" d="M 648.24907 378 
L 648.24907 51.84 
" style="fill:none;stroke:#ffffff;stroke-linecap:round;"/>
     </g>
     <g id="text_6">
      <!-- 5 -->
      <g style="fill:#262626;" transform="translate(645.190554 395.373594)scale(0.11 -0.11)">
       <defs>
        <path d="M 266 1200 
L 856 1250 
Q 922 819 1161 601 
Q 1400 384 1738 384 
Q 2144 384 2425 690 
Q 2706 997 2706 1503 
Q 2706 1984 2436 2262 
Q 2166 2541 1728 2541 
Q 1456 2541 1237 2417 
Q 1019 2294 894 2097 
L 366 2166 
L 809 4519 
L 3088 4519 
L 3088 3981 
L 1259 3981 
L 1013 2750 
Q 1425 3038 1878 3038 
Q 2478 3038 2890 2622 
Q 3303 2206 3303 1553 
Q 3303 931 2941 478 
Q 2500 -78 1738 -78 
Q 1113 -78 717 272 
Q 322 622 266 1200 
z
" id="ArialMT-35" transform="scale(0.015625)"/>
       </defs>
       <use xlink:href="#ArialMT-35"/>
      </g>
     </g>
    </g>
    <g id="xtick_7">
     <g id="line2d_7">
      <path clip-path="url(#p6fd44d64a6)" d="M 747.86222 378 
L 747.86222 51.84 
" style="fill:none;stroke:#ffffff;stroke-linecap:round;"/>
     </g>
     <g id="text_7">
      <!-- 6 -->
      <g style="fill:#262626;" transform="translate(744.803704 395.373594)scale(0.11 -0.11)">
       <defs>
        <path d="M 3184 3459 
L 2625 3416 
Q 2550 3747 2413 3897 
Q 2184 4138 1850 4138 
Q 1581 4138 1378 3988 
Q 1113 3794 959 3422 
Q 806 3050 800 2363 
Q 1003 2672 1297 2822 
Q 1591 2972 1913 2972 
Q 2475 2972 2870 2558 
Q 3266 2144 3266 1488 
Q 3266 1056 3080 686 
Q 2894 316 2569 119 
Q 2244 -78 1831 -78 
Q 1128 -78 684 439 
Q 241 956 241 2144 
Q 241 3472 731 4075 
Q 1159 4600 1884 4600 
Q 2425 4600 2770 4297 
Q 3116 3994 3184 3459 
z
M 888 1484 
Q 888 1194 1011 928 
Q 1134 663 1356 523 
Q 1578 384 1822 384 
Q 2178 384 2434 671 
Q 2691 959 2691 1453 
Q 2691 1928 2437 2201 
Q 2184 2475 1800 2475 
Q 1419 2475 1153 2201 
Q 888 1928 888 1484 
z
" id="ArialMT-36" transform="scale(0.015625)"/>
       </defs>
       <use xlink:href="#ArialMT-36"/>
      </g>
     </g>
    </g>
    <g id="text_8">
     <!-- Number of Employees (FTE), Log 10 -->
     <g style="fill:#262626;" transform="translate(344.7675 410.295469)scale(0.12 -0.12)">
      <defs>
       <path d="M 488 0 
L 488 4581 
L 1109 4581 
L 3516 984 
L 3516 4581 
L 4097 4581 
L 4097 0 
L 3475 0 
L 1069 3600 
L 1069 0 
L 488 0 
z
" id="ArialMT-4e" transform="scale(0.015625)"/>
       <path d="M 2597 0 
L 2597 488 
Q 2209 -75 1544 -75 
Q 1250 -75 995 37 
Q 741 150 617 320 
Q 494 491 444 738 
Q 409 903 409 1263 
L 409 3319 
L 972 3319 
L 972 1478 
Q 972 1038 1006 884 
Q 1059 663 1231 536 
Q 1403 409 1656 409 
Q 1909 409 2131 539 
Q 2353 669 2445 892 
Q 2538 1116 2538 1541 
L 2538 3319 
L 3100 3319 
L 3100 0 
L 2597 0 
z
" id="ArialMT-75" transform="scale(0.015625)"/>
       <path d="M 422 0 
L 422 3319 
L 925 3319 
L 925 2853 
Q 1081 3097 1340 3245 
Q 1600 3394 1931 3394 
Q 2300 3394 2536 3241 
Q 2772 3088 2869 2813 
Q 3263 3394 3894 3394 
Q 4388 3394 4653 3120 
Q 4919 2847 4919 2278 
L 4919 0 
L 4359 0 
L 4359 2091 
Q 4359 2428 4304 2576 
Q 4250 2725 4106 2815 
Q 3963 2906 3769 2906 
Q 3419 2906 3187 2673 
Q 2956 2441 2956 1928 
L 2956 0 
L 2394 0 
L 2394 2156 
Q 2394 2531 2256 2718 
Q 2119 2906 1806 2906 
Q 1569 2906 1367 2781 
Q 1166 2656 1075 2415 
Q 984 2175 984 1722 
L 984 0 
L 422 0 
z
" id="ArialMT-6d" transform="scale(0.015625)"/>
       <path d="M 941 0 
L 419 0 
L 419 4581 
L 981 4581 
L 981 2947 
Q 1338 3394 1891 3394 
Q 2197 3394 2470 3270 
Q 2744 3147 2920 2923 
Q 3097 2700 3197 2384 
Q 3297 2069 3297 1709 
Q 3297 856 2875 390 
Q 2453 -75 1863 -75 
Q 1275 -75 941 416 
L 941 0 
z
M 934 1684 
Q 934 1088 1097 822 
Q 1363 388 1816 388 
Q 2184 388 2453 708 
Q 2722 1028 2722 1663 
Q 2722 2313 2464 2622 
Q 2206 2931 1841 2931 
Q 1472 2931 1203 2611 
Q 934 2291 934 1684 
z
" id="ArialMT-62" transform="scale(0.015625)"/>
       <path d="M 2694 1069 
L 3275 997 
Q 3138 488 2766 206 
Q 2394 -75 1816 -75 
Q 1088 -75 661 373 
Q 234 822 234 1631 
Q 234 2469 665 2931 
Q 1097 3394 1784 3394 
Q 2450 3394 2872 2941 
Q 3294 2488 3294 1666 
Q 3294 1616 3291 1516 
L 816 1516 
Q 847 969 1125 678 
Q 1403 388 1819 388 
Q 2128 388 2347 550 
Q 2566 713 2694 1069 
z
M 847 1978 
L 2700 1978 
Q 2663 2397 2488 2606 
Q 2219 2931 1791 2931 
Q 1403 2931 1139 2672 
Q 875 2413 847 1978 
z
" id="ArialMT-65" transform="scale(0.015625)"/>
       <path d="M 416 0 
L 416 3319 
L 922 3319 
L 922 2816 
Q 1116 3169 1280 3281 
Q 1444 3394 1641 3394 
Q 1925 3394 2219 3213 
L 2025 2691 
Q 1819 2813 1613 2813 
Q 1428 2813 1281 2702 
Q 1134 2591 1072 2394 
Q 978 2094 978 1738 
L 978 0 
L 416 0 
z
" id="ArialMT-72" transform="scale(0.015625)"/>
       <path id="ArialMT-20" transform="scale(0.015625)"/>
       <path d="M 213 1659 
Q 213 2581 725 3025 
Q 1153 3394 1769 3394 
Q 2453 3394 2887 2945 
Q 3322 2497 3322 1706 
Q 3322 1066 3130 698 
Q 2938 331 2570 128 
Q 2203 -75 1769 -75 
Q 1072 -75 642 372 
Q 213 819 213 1659 
z
M 791 1659 
Q 791 1022 1069 705 
Q 1347 388 1769 388 
Q 2188 388 2466 706 
Q 2744 1025 2744 1678 
Q 2744 2294 2464 2611 
Q 2184 2928 1769 2928 
Q 1347 2928 1069 2612 
Q 791 2297 791 1659 
z
" id="ArialMT-6f" transform="scale(0.015625)"/>
       <path d="M 556 0 
L 556 2881 
L 59 2881 
L 59 3319 
L 556 3319 
L 556 3672 
Q 556 4006 616 4169 
Q 697 4388 901 4523 
Q 1106 4659 1475 4659 
Q 1713 4659 2000 4603 
L 1916 4113 
Q 1741 4144 1584 4144 
Q 1328 4144 1222 4034 
Q 1116 3925 1116 3625 
L 1116 3319 
L 1763 3319 
L 1763 2881 
L 1116 2881 
L 1116 0 
L 556 0 
z
" id="ArialMT-66" transform="scale(0.015625)"/>
       <path d="M 506 0 
L 506 4581 
L 3819 4581 
L 3819 4041 
L 1113 4041 
L 1113 2638 
L 3647 2638 
L 3647 2100 
L 1113 2100 
L 1113 541 
L 3925 541 
L 3925 0 
L 506 0 
z
" id="ArialMT-45" transform="scale(0.015625)"/>
       <path d="M 422 -1272 
L 422 3319 
L 934 3319 
L 934 2888 
Q 1116 3141 1344 3267 
Q 1572 3394 1897 3394 
Q 2322 3394 2647 3175 
Q 2972 2956 3137 2557 
Q 3303 2159 3303 1684 
Q 3303 1175 3120 767 
Q 2938 359 2589 142 
Q 2241 -75 1856 -75 
Q 1575 -75 1351 44 
Q 1128 163 984 344 
L 984 -1272 
L 422 -1272 
z
M 931 1641 
Q 931 1000 1190 694 
Q 1450 388 1819 388 
Q 2194 388 2461 705 
Q 2728 1022 2728 1688 
Q 2728 2322 2467 2637 
Q 2206 2953 1844 2953 
Q 1484 2953 1207 2617 
Q 931 2281 931 1641 
z
" id="ArialMT-70" transform="scale(0.015625)"/>
       <path d="M 409 0 
L 409 4581 
L 972 4581 
L 972 0 
L 409 0 
z
" id="ArialMT-6c" transform="scale(0.015625)"/>
       <path d="M 397 -1278 
L 334 -750 
Q 519 -800 656 -800 
Q 844 -800 956 -737 
Q 1069 -675 1141 -563 
Q 1194 -478 1313 -144 
Q 1328 -97 1363 -6 
L 103 3319 
L 709 3319 
L 1400 1397 
Q 1534 1031 1641 628 
Q 1738 1016 1872 1384 
L 2581 3319 
L 3144 3319 
L 1881 -56 
Q 1678 -603 1566 -809 
Q 1416 -1088 1222 -1217 
Q 1028 -1347 759 -1347 
Q 597 -1347 397 -1278 
z
" id="ArialMT-79" transform="scale(0.015625)"/>
       <path d="M 197 991 
L 753 1078 
Q 800 744 1014 566 
Q 1228 388 1613 388 
Q 2000 388 2187 545 
Q 2375 703 2375 916 
Q 2375 1106 2209 1216 
Q 2094 1291 1634 1406 
Q 1016 1563 777 1677 
Q 538 1791 414 1992 
Q 291 2194 291 2438 
Q 291 2659 392 2848 
Q 494 3038 669 3163 
Q 800 3259 1026 3326 
Q 1253 3394 1513 3394 
Q 1903 3394 2198 3281 
Q 2494 3169 2634 2976 
Q 2775 2784 2828 2463 
L 2278 2388 
Q 2241 2644 2061 2787 
Q 1881 2931 1553 2931 
Q 1166 2931 1000 2803 
Q 834 2675 834 2503 
Q 834 2394 903 2306 
Q 972 2216 1119 2156 
Q 1203 2125 1616 2013 
Q 2213 1853 2448 1751 
Q 2684 1650 2818 1456 
Q 2953 1263 2953 975 
Q 2953 694 2789 445 
Q 2625 197 2315 61 
Q 2006 -75 1616 -75 
Q 969 -75 630 194 
Q 291 463 197 991 
z
" id="ArialMT-73" transform="scale(0.015625)"/>
       <path d="M 1497 -1347 
Q 1031 -759 709 28 
Q 388 816 388 1659 
Q 388 2403 628 3084 
Q 909 3875 1497 4659 
L 1900 4659 
Q 1522 4009 1400 3731 
Q 1209 3300 1100 2831 
Q 966 2247 966 1656 
Q 966 153 1900 -1347 
L 1497 -1347 
z
" id="ArialMT-28" transform="scale(0.015625)"/>
       <path d="M 525 0 
L 525 4581 
L 3616 4581 
L 3616 4041 
L 1131 4041 
L 1131 2622 
L 3281 2622 
L 3281 2081 
L 1131 2081 
L 1131 0 
L 525 0 
z
" id="ArialMT-46" transform="scale(0.015625)"/>
       <path d="M 1659 0 
L 1659 4041 
L 150 4041 
L 150 4581 
L 3781 4581 
L 3781 4041 
L 2266 4041 
L 2266 0 
L 1659 0 
z
" id="ArialMT-54" transform="scale(0.015625)"/>
       <path d="M 791 -1347 
L 388 -1347 
Q 1322 153 1322 1656 
Q 1322 2244 1188 2822 
Q 1081 3291 891 3722 
Q 769 4003 388 4659 
L 791 4659 
Q 1378 3875 1659 3084 
Q 1900 2403 1900 1659 
Q 1900 816 1576 28 
Q 1253 -759 791 -1347 
z
" id="ArialMT-29" transform="scale(0.015625)"/>
       <path d="M 569 0 
L 569 641 
L 1209 641 
L 1209 0 
Q 1209 -353 1084 -570 
Q 959 -788 688 -906 
L 531 -666 
Q 709 -588 793 -436 
Q 878 -284 888 0 
L 569 0 
z
" id="ArialMT-2c" transform="scale(0.015625)"/>
       <path d="M 469 0 
L 469 4581 
L 1075 4581 
L 1075 541 
L 3331 541 
L 3331 0 
L 469 0 
z
" id="ArialMT-4c" transform="scale(0.015625)"/>
       <path d="M 319 -275 
L 866 -356 
Q 900 -609 1056 -725 
Q 1266 -881 1628 -881 
Q 2019 -881 2231 -725 
Q 2444 -569 2519 -288 
Q 2563 -116 2559 434 
Q 2191 0 1641 0 
Q 956 0 581 494 
Q 206 988 206 1678 
Q 206 2153 378 2554 
Q 550 2956 876 3175 
Q 1203 3394 1644 3394 
Q 2231 3394 2613 2919 
L 2613 3319 
L 3131 3319 
L 3131 450 
Q 3131 -325 2973 -648 
Q 2816 -972 2473 -1159 
Q 2131 -1347 1631 -1347 
Q 1038 -1347 672 -1080 
Q 306 -813 319 -275 
z
M 784 1719 
Q 784 1066 1043 766 
Q 1303 466 1694 466 
Q 2081 466 2343 764 
Q 2606 1063 2606 1700 
Q 2606 2309 2336 2618 
Q 2066 2928 1684 2928 
Q 1309 2928 1046 2623 
Q 784 2319 784 1719 
z
" id="ArialMT-67" transform="scale(0.015625)"/>
      </defs>
      <use xlink:href="#ArialMT-4e"/>
      <use x="72.216797" xlink:href="#ArialMT-75"/>
      <use x="127.832031" xlink:href="#ArialMT-6d"/>
      <use x="211.132812" xlink:href="#ArialMT-62"/>
      <use x="266.748047" xlink:href="#ArialMT-65"/>
      <use x="322.363281" xlink:href="#ArialMT-72"/>
      <use x="355.664062" xlink:href="#ArialMT-20"/>
      <use x="383.447266" xlink:href="#ArialMT-6f"/>
      <use x="439.0625" xlink:href="#ArialMT-66"/>
      <use x="466.845703" xlink:href="#ArialMT-20"/>
      <use x="494.628906" xlink:href="#ArialMT-45"/>
      <use x="561.328125" xlink:href="#ArialMT-6d"/>
      <use x="644.628906" xlink:href="#ArialMT-70"/>
      <use x="700.244141" xlink:href="#ArialMT-6c"/>
      <use x="722.460938" xlink:href="#ArialMT-6f"/>
      <use x="778.076172" xlink:href="#ArialMT-79"/>
      <use x="828.076172" xlink:href="#ArialMT-65"/>
      <use x="883.691406" xlink:href="#ArialMT-65"/>
      <use x="939.306641" xlink:href="#ArialMT-73"/>
      <use x="989.306641" xlink:href="#ArialMT-20"/>
      <use x="1017.089844" xlink:href="#ArialMT-28"/>
      <use x="1050.390625" xlink:href="#ArialMT-46"/>
      <use x="1111.474609" xlink:href="#ArialMT-54"/>
      <use x="1172.558594" xlink:href="#ArialMT-45"/>
      <use x="1239.257812" xlink:href="#ArialMT-29"/>
      <use x="1272.558594" xlink:href="#ArialMT-2c"/>
      <use x="1300.341797" xlink:href="#ArialMT-20"/>
      <use x="1328.125" xlink:href="#ArialMT-4c"/>
      <use x="1383.740234" xlink:href="#ArialMT-6f"/>
      <use x="1439.355469" xlink:href="#ArialMT-67"/>
      <use x="1494.970703" xlink:href="#ArialMT-20"/>
      <use x="1522.753906" xlink:href="#ArialMT-31"/>
      <use x="1578.369141" xlink:href="#ArialMT-30"/>
     </g>
    </g>
   </g>
   <g id="matplotlib.axis_2">
    <g id="ytick_1">
     <g id="line2d_8">
      <path clip-path="url(#p6fd44d64a6)" d="M 108 378 
L 777.6 378 
" style="fill:none;stroke:#ffffff;stroke-linecap:round;"/>
     </g>
     <g id="text_9">
      <!-- 0.0 -->
      <g style="fill:#262626;" transform="translate(83.21 381.936797)scale(0.11 -0.11)">
       <defs>
        <path d="M 581 0 
L 581 641 
L 1222 641 
L 1222 0 
L 581 0 
z
" id="ArialMT-2e" transform="scale(0.015625)"/>
       </defs>
       <use xlink:href="#ArialMT-30"/>
       <use x="55.615234" xlink:href="#ArialMT-2e"/>
       <use x="83.398438" xlink:href="#ArialMT-30"/>
      </g>
     </g>
    </g>
    <g id="ytick_2">
     <g id="line2d_9">
      <path clip-path="url(#p6fd44d64a6)" d="M 108 327.621087 
L 777.6 327.621087 
" style="fill:none;stroke:#ffffff;stroke-linecap:round;"/>
     </g>
     <g id="text_10">
      <!-- 0.1 -->
      <g style="fill:#262626;" transform="translate(83.21 331.557884)scale(0.11 -0.11)">
       <use xlink:href="#ArialMT-30"/>
       <use x="55.615234" xlink:href="#ArialMT-2e"/>
       <use x="83.398438" xlink:href="#ArialMT-31"/>
      </g>
     </g>
    </g>
    <g id="ytick_3">
     <g id="line2d_10">
      <path clip-path="url(#p6fd44d64a6)" d="M 108 277.242175 
L 777.6 277.242175 
" style="fill:none;stroke:#ffffff;stroke-linecap:round;"/>
     </g>
     <g id="text_11">
      <!-- 0.2 -->
      <g style="fill:#262626;" transform="translate(83.21 281.178971)scale(0.11 -0.11)">
       <use xlink:href="#ArialMT-30"/>
       <use x="55.615234" xlink:href="#ArialMT-2e"/>
       <use x="83.398438" xlink:href="#ArialMT-32"/>
      </g>
     </g>
    </g>
    <g id="ytick_4">
     <g id="line2d_11">
      <path clip-path="url(#p6fd44d64a6)" d="M 108 226.863262 
L 777.6 226.863262 
" style="fill:none;stroke:#ffffff;stroke-linecap:round;"/>
     </g>
     <g id="text_12">
      <!-- 0.3 -->
      <g style="fill:#262626;" transform="translate(83.21 230.800059)scale(0.11 -0.11)">
       <use xlink:href="#ArialMT-30"/>
       <use x="55.615234" xlink:href="#ArialMT-2e"/>
       <use x="83.398438" xlink:href="#ArialMT-33"/>
      </g>
     </g>
    </g>
    <g id="ytick_5">
     <g id="line2d_12">
      <path clip-path="url(#p6fd44d64a6)" d="M 108 176.484349 
L 777.6 176.484349 
" style="fill:none;stroke:#ffffff;stroke-linecap:round;"/>
     </g>
     <g id="text_13">
      <!-- 0.4 -->
      <g style="fill:#262626;" transform="translate(83.21 180.421146)scale(0.11 -0.11)">
       <use xlink:href="#ArialMT-30"/>
       <use x="55.615234" xlink:href="#ArialMT-2e"/>
       <use x="83.398438" xlink:href="#ArialMT-34"/>
      </g>
     </g>
    </g>
    <g id="ytick_6">
     <g id="line2d_13">
      <path clip-path="url(#p6fd44d64a6)" d="M 108 126.105436 
L 777.6 126.105436 
" style="fill:none;stroke:#ffffff;stroke-linecap:round;"/>
     </g>
     <g id="text_14">
      <!-- 0.5 -->
      <g style="fill:#262626;" transform="translate(83.21 130.042233)scale(0.11 -0.11)">
       <use xlink:href="#ArialMT-30"/>
       <use x="55.615234" xlink:href="#ArialMT-2e"/>
       <use x="83.398438" xlink:href="#ArialMT-35"/>
      </g>
     </g>
    </g>
    <g id="ytick_7">
     <g id="line2d_14">
      <path clip-path="url(#p6fd44d64a6)" d="M 108 75.726524 
L 777.6 75.726524 
" style="fill:none;stroke:#ffffff;stroke-linecap:round;"/>
     </g>
     <g id="text_15">
      <!-- 0.6 -->
      <g style="fill:#262626;" transform="translate(83.21 79.663321)scale(0.11 -0.11)">
       <use xlink:href="#ArialMT-30"/>
       <use x="55.615234" xlink:href="#ArialMT-2e"/>
       <use x="83.398438" xlink:href="#ArialMT-36"/>
      </g>
     </g>
    </g>
    <g id="text_16">
     <!-- Density -->
     <g style="fill:#262626;" transform="translate(76.684375 234.92625)rotate(-90)scale(0.12 -0.12)">
      <defs>
       <path d="M 494 0 
L 494 4581 
L 2072 4581 
Q 2606 4581 2888 4516 
Q 3281 4425 3559 4188 
Q 3922 3881 4101 3404 
Q 4281 2928 4281 2316 
Q 4281 1794 4159 1391 
Q 4038 988 3847 723 
Q 3656 459 3429 307 
Q 3203 156 2883 78 
Q 2563 0 2147 0 
L 494 0 
z
M 1100 541 
L 2078 541 
Q 2531 541 2789 625 
Q 3047 709 3200 863 
Q 3416 1078 3536 1442 
Q 3656 1806 3656 2325 
Q 3656 3044 3420 3430 
Q 3184 3816 2847 3947 
Q 2603 4041 2063 4041 
L 1100 4041 
L 1100 541 
z
" id="ArialMT-44" transform="scale(0.015625)"/>
       <path d="M 422 0 
L 422 3319 
L 928 3319 
L 928 2847 
Q 1294 3394 1984 3394 
Q 2284 3394 2536 3286 
Q 2788 3178 2913 3003 
Q 3038 2828 3088 2588 
Q 3119 2431 3119 2041 
L 3119 0 
L 2556 0 
L 2556 2019 
Q 2556 2363 2490 2533 
Q 2425 2703 2258 2804 
Q 2091 2906 1866 2906 
Q 1506 2906 1245 2678 
Q 984 2450 984 1813 
L 984 0 
L 422 0 
z
" id="ArialMT-6e" transform="scale(0.015625)"/>
       <path d="M 425 3934 
L 425 4581 
L 988 4581 
L 988 3934 
L 425 3934 
z
M 425 0 
L 425 3319 
L 988 3319 
L 988 0 
L 425 0 
z
" id="ArialMT-69" transform="scale(0.015625)"/>
       <path d="M 1650 503 
L 1731 6 
Q 1494 -44 1306 -44 
Q 1000 -44 831 53 
Q 663 150 594 308 
Q 525 466 525 972 
L 525 2881 
L 113 2881 
L 113 3319 
L 525 3319 
L 525 4141 
L 1084 4478 
L 1084 3319 
L 1650 3319 
L 1650 2881 
L 1084 2881 
L 1084 941 
Q 1084 700 1114 631 
Q 1144 563 1211 522 
Q 1278 481 1403 481 
Q 1497 481 1650 503 
z
" id="ArialMT-74" transform="scale(0.015625)"/>
      </defs>
      <use xlink:href="#ArialMT-44"/>
      <use x="72.216797" xlink:href="#ArialMT-65"/>
      <use x="127.832031" xlink:href="#ArialMT-6e"/>
      <use x="183.447266" xlink:href="#ArialMT-73"/>
      <use x="233.447266" xlink:href="#ArialMT-69"/>
      <use x="255.664062" xlink:href="#ArialMT-74"/>
      <use x="283.447266" xlink:href="#ArialMT-79"/>
     </g>
    </g>
   </g>
   <g id="LineCollection_1">
    <path clip-path="url(#p6fd44d64a6)" d="M 333.979349 378 
L 333.979349 369.846 
" style="fill:none;stroke:#dd8452;"/>
    <path clip-path="url(#p6fd44d64a6)" d="M 349.409621 378 
L 349.409621 369.846 
" style="fill:none;stroke:#dd8452;"/>
    <path clip-path="url(#p6fd44d64a6)" d="M 566.176925 378 
L 566.176925 369.846 
" style="fill:none;stroke:#dd8452;"/>
    <path clip-path="url(#p6fd44d64a6)" d="M 333.979349 378 
L 333.979349 369.846 
" style="fill:none;stroke:#dd8452;"/>
    <path clip-path="url(#p6fd44d64a6)" d="M 419.036225 378 
L 419.036225 369.846 
" style="fill:none;stroke:#dd8452;"/>
    <path clip-path="url(#p6fd44d64a6)" d="M 662.495225 378 
L 662.495225 369.846 
" style="fill:none;stroke:#dd8452;"/>
    <path clip-path="url(#p6fd44d64a6)" d="M 439.369259 378 
L 439.369259 369.846 
" style="fill:none;stroke:#dd8452;"/>
    <path clip-path="url(#p6fd44d64a6)" style="fill:none;stroke:#dd8452;"/>
    <path clip-path="url(#p6fd44d64a6)" d="M 496.550322 378 
L 496.550322 369.846 
" style="fill:none;stroke:#dd8452;"/>
    <path clip-path="url(#p6fd44d64a6)" d="M 363.965895 378 
L 363.965895 369.846 
" style="fill:none;stroke:#dd8452;"/>
    <path clip-path="url(#p6fd44d64a6)" style="fill:none;stroke:#dd8452;"/>
    <path clip-path="url(#p6fd44d64a6)" d="M 379.396167 378 
L 379.396167 369.846 
" style="fill:none;stroke:#dd8452;"/>
    <path clip-path="url(#p6fd44d64a6)" d="M 508.995863 378 
L 508.995863 369.846 
" style="fill:none;stroke:#dd8452;"/>
    <path clip-path="url(#p6fd44d64a6)" d="M 521.97882 378 
L 521.97882 369.846 
" style="fill:none;stroke:#dd8452;"/>
    <path clip-path="url(#p6fd44d64a6)" d="M 333.979349 378 
L 333.979349 369.846 
" style="fill:none;stroke:#dd8452;"/>
    <path clip-path="url(#p6fd44d64a6)" d="M 622.38578 378 
L 622.38578 369.846 
" style="fill:none;stroke:#dd8452;"/>
    <path clip-path="url(#p6fd44d64a6)" d="M 548.63592 378 
L 548.63592 369.846 
" style="fill:none;stroke:#dd8452;"/>
    <path clip-path="url(#p6fd44d64a6)" d="M 503.219102 378 
L 503.219102 369.846 
" style="fill:none;stroke:#dd8452;"/>
    <path clip-path="url(#p6fd44d64a6)" d="M 297.324022 378 
L 297.324022 369.846 
" style="fill:none;stroke:#dd8452;"/>
    <path clip-path="url(#p6fd44d64a6)" d="M 563.192194 378 
L 563.192194 369.846 
" style="fill:none;stroke:#dd8452;"/>
    <path clip-path="url(#p6fd44d64a6)" d="M 336.96408 378 
L 336.96408 369.846 
" style="fill:none;stroke:#dd8452;"/>
    <path clip-path="url(#p6fd44d64a6)" d="M 349.409621 378 
L 349.409621 369.846 
" style="fill:none;stroke:#dd8452;"/>
    <path clip-path="url(#p6fd44d64a6)" d="M 396.937172 378 
L 396.937172 369.846 
" style="fill:none;stroke:#dd8452;"/>
    <path clip-path="url(#p6fd44d64a6)" d="M 439.369259 378 
L 439.369259 369.846 
" style="fill:none;stroke:#dd8452;"/>
    <path clip-path="url(#p6fd44d64a6)" d="M 314.865027 378 
L 314.865027 369.846 
" style="fill:none;stroke:#dd8452;"/>
    <path clip-path="url(#p6fd44d64a6)" d="M 363.965895 378 
L 363.965895 369.846 
" style="fill:none;stroke:#dd8452;"/>
    <path clip-path="url(#p6fd44d64a6)" d="M 227.697418 378 
L 227.697418 369.846 
" style="fill:none;stroke:#dd8452;"/>
    <path clip-path="url(#p6fd44d64a6)" d="M 257.683964 378 
L 257.683964 369.846 
" style="fill:none;stroke:#dd8452;"/>
    <path clip-path="url(#p6fd44d64a6)" d="M 333.979349 378 
L 333.979349 369.846 
" style="fill:none;stroke:#dd8452;"/>
    <path clip-path="url(#p6fd44d64a6)" d="M 377.177145 378 
L 377.177145 369.846 
" style="fill:none;stroke:#dd8452;"/>
    <path clip-path="url(#p6fd44d64a6)" d="M 309.769563 378 
L 309.769563 369.846 
" style="fill:none;stroke:#dd8452;"/>
    <path clip-path="url(#p6fd44d64a6)" d="M 548.63592 378 
L 548.63592 369.846 
" style="fill:none;stroke:#dd8452;"/>
    <path clip-path="url(#p6fd44d64a6)" d="M 518.649374 378 
L 518.649374 369.846 
" style="fill:none;stroke:#dd8452;"/>
    <path clip-path="url(#p6fd44d64a6)" d="M 526.536868 378 
L 526.536868 369.846 
" style="fill:none;stroke:#dd8452;"/>
    <path clip-path="url(#p6fd44d64a6)" d="M 419.036225 378 
L 419.036225 369.846 
" style="fill:none;stroke:#dd8452;"/>
    <path clip-path="url(#p6fd44d64a6)" d="M 349.409621 378 
L 349.409621 369.846 
" style="fill:none;stroke:#dd8452;"/>
    <path clip-path="url(#p6fd44d64a6)" d="M 479.009317 378 
L 479.009317 369.846 
" style="fill:none;stroke:#dd8452;"/>
    <path clip-path="url(#p6fd44d64a6)" d="M 249.796471 378 
L 249.796471 369.846 
" style="fill:none;stroke:#dd8452;"/>
    <path clip-path="url(#p6fd44d64a6)" d="M 314.865027 378 
L 314.865027 369.846 
" style="fill:none;stroke:#dd8452;"/>
    <path clip-path="url(#p6fd44d64a6)" d="M 597.582006 378 
L 597.582006 369.846 
" style="fill:none;stroke:#dd8452;"/>
    <path clip-path="url(#p6fd44d64a6)" d="M 283.906273 378 
L 283.906273 369.846 
" style="fill:none;stroke:#dd8452;"/>
    <path clip-path="url(#p6fd44d64a6)" d="M 433.592498 378 
L 433.592498 369.846 
" style="fill:none;stroke:#dd8452;"/>
    <path clip-path="url(#p6fd44d64a6)" d="M 336.96408 378 
L 336.96408 369.846 
" style="fill:none;stroke:#dd8452;"/>
    <path clip-path="url(#p6fd44d64a6)" d="M 336.96408 378 
L 336.96408 369.846 
" style="fill:none;stroke:#dd8452;"/>
    <path clip-path="url(#p6fd44d64a6)" d="M 395.470542 378 
L 395.470542 369.846 
" style="fill:none;stroke:#dd8452;"/>
    <path clip-path="url(#p6fd44d64a6)" d="M 366.950626 378 
L 366.950626 369.846 
" style="fill:none;stroke:#dd8452;"/>
    <path clip-path="url(#p6fd44d64a6)" d="M 552.759176 378 
L 552.759176 369.846 
" style="fill:none;stroke:#dd8452;"/>
    <path clip-path="url(#p6fd44d64a6)" d="M 366.950626 378 
L 366.950626 369.846 
" style="fill:none;stroke:#dd8452;"/>
    <path clip-path="url(#p6fd44d64a6)" d="M 197.710872 378 
L 197.710872 369.846 
" style="fill:none;stroke:#dd8452;"/>
    <path clip-path="url(#p6fd44d64a6)" d="M 319.423075 378 
L 319.423075 369.846 
" style="fill:none;stroke:#dd8452;"/>
    <path clip-path="url(#p6fd44d64a6)" d="M 336.96408 378 
L 336.96408 369.846 
" style="fill:none;stroke:#dd8452;"/>
    <path clip-path="url(#p6fd44d64a6)" d="M 552.759176 378 
L 552.759176 369.846 
" style="fill:none;stroke:#dd8452;"/>
    <path clip-path="url(#p6fd44d64a6)" d="M 330.773331 378 
L 330.773331 369.846 
" style="fill:none;stroke:#dd8452;"/>
    <path clip-path="url(#p6fd44d64a6)" d="M 566.176925 378 
L 566.176925 369.846 
" style="fill:none;stroke:#dd8452;"/>
    <path clip-path="url(#p6fd44d64a6)" d="M 379.396167 378 
L 379.396167 369.846 
" style="fill:none;stroke:#dd8452;"/>
    <path clip-path="url(#p6fd44d64a6)" d="M 488.662828 378 
L 488.662828 369.846 
" style="fill:none;stroke:#dd8452;"/>
    <path clip-path="url(#p6fd44d64a6)" d="M 327.310568 378 
L 327.310568 369.846 
" style="fill:none;stroke:#dd8452;"/>
    <path clip-path="url(#p6fd44d64a6)" d="M 333.979349 378 
L 333.979349 369.846 
" style="fill:none;stroke:#dd8452;"/>
    <path clip-path="url(#p6fd44d64a6)" d="M 349.409621 378 
L 349.409621 369.846 
" style="fill:none;stroke:#dd8452;"/>
    <path clip-path="url(#p6fd44d64a6)" d="M 249.796471 378 
L 249.796471 369.846 
" style="fill:none;stroke:#dd8452;"/>
    <path clip-path="url(#p6fd44d64a6)" d="M 548.63592 378 
L 548.63592 369.846 
" style="fill:none;stroke:#dd8452;"/>
    <path clip-path="url(#p6fd44d64a6)" d="M 552.759176 378 
L 552.759176 369.846 
" style="fill:none;stroke:#dd8452;"/>
    <path clip-path="url(#p6fd44d64a6)" style="fill:none;stroke:#dd8452;"/>
    <path clip-path="url(#p6fd44d64a6)" d="M 566.176925 378 
L 566.176925 369.846 
" style="fill:none;stroke:#dd8452;"/>
    <path clip-path="url(#p6fd44d64a6)" d="M 349.409621 378 
L 349.409621 369.846 
" style="fill:none;stroke:#dd8452;"/>
    <path clip-path="url(#p6fd44d64a6)" d="M 449.022771 378 
L 449.022771 369.846 
" style="fill:none;stroke:#dd8452;"/>
    <path clip-path="url(#p6fd44d64a6)" d="M 488.662828 378 
L 488.662828 369.846 
" style="fill:none;stroke:#dd8452;"/>
    <path clip-path="url(#p6fd44d64a6)" d="M 687.889128 378 
L 687.889128 369.846 
" style="fill:none;stroke:#dd8452;"/>
   </g>
   <g id="line2d_15">
    <path clip-path="url(#p6fd44d64a6)" d="M 138.436364 377.826242 
L 144.554226 377.579831 
L 150.672088 377.075736 
L 153.731019 376.67669 
L 156.78995 376.149088 
L 159.848881 375.470467 
L 162.907812 374.62155 
L 165.966743 373.589033 
L 169.025674 372.368319 
L 172.084605 370.965739 
L 175.143536 369.399694 
L 181.261398 365.907066 
L 193.497122 358.658486 
L 199.614984 355.357293 
L 208.791777 350.455905 
L 211.850708 348.621234 
L 214.909639 346.590253 
L 217.96857 344.323636 
L 221.027501 341.806161 
L 224.086432 339.052776 
L 230.204294 333.063361 
L 236.322156 327.098668 
L 239.381087 324.444574 
L 242.440018 322.181267 
L 245.498949 320.412557 
L 248.55788 319.204253 
L 251.616811 318.572217 
L 254.675742 318.474992 
L 257.734673 318.812157 
L 266.911466 320.668827 
L 269.970397 320.813757 
L 273.029328 320.310694 
L 276.088259 318.921992 
L 279.14719 316.430255 
L 282.206122 312.644057 
L 285.265053 307.401082 
L 288.323984 300.570217 
L 291.382915 292.05439 
L 294.441846 281.795707 
L 297.500777 269.783819 
L 300.559708 256.067427 
L 303.618639 240.76774 
L 306.67757 224.091637 
L 309.736501 206.341533 
L 318.913294 151.105589 
L 321.972225 133.899435 
L 325.031156 118.32038 
L 328.090087 104.951607 
L 331.149018 94.291175 
L 334.207949 86.710611 
L 337.26688 82.42443 
L 340.325811 81.475113 
L 343.384742 83.73582 
L 346.443673 88.930345 
L 349.502604 96.667095 
L 352.561535 106.48178 
L 355.620466 117.88239 
L 358.679397 130.390176 
L 364.797259 157.058181 
L 370.915121 183.831026 
L 373.974052 196.718651 
L 377.032983 209.086415 
L 380.091914 220.828539 
L 383.150845 231.850597 
L 386.209776 242.061284 
L 389.268707 251.369896 
L 392.327638 259.689177 
L 395.386569 266.942362 
L 398.4455 273.072719 
L 401.504431 278.053788 
L 404.563362 281.89856 
L 407.622293 284.666104 
L 410.681224 286.464491 
L 413.740155 287.449262 
L 416.799086 287.81708 
L 419.858017 287.794648 
L 425.975879 287.541312 
L 429.03481 287.762325 
L 432.093741 288.456915 
L 435.152672 289.734314 
L 438.211603 291.629548 
L 441.270534 294.096937 
L 444.329466 297.011492 
L 450.447328 303.352813 
L 453.506259 306.260224 
L 456.56519 308.628445 
L 459.624121 310.214375 
L 462.683052 310.830229 
L 465.741983 310.363344 
L 468.800914 308.787519 
L 471.859845 306.164612 
L 474.918776 302.636449 
L 477.977707 298.408347 
L 484.095569 288.853198 
L 487.1545 284.039916 
L 490.213431 279.506147 
L 493.272362 275.42087 
L 496.331293 271.890841 
L 499.390224 268.954958 
L 502.449155 266.584404 
L 505.508086 264.68783 
L 508.567017 263.1208 
L 514.684879 260.214336 
L 517.74381 258.455375 
L 520.802741 256.228867 
L 523.861672 253.384143 
L 526.920603 249.836815 
L 529.979534 245.589644 
L 533.038465 240.747146 
L 542.215258 225.238481 
L 545.274189 221.009395 
L 548.33312 217.97433 
L 551.392051 216.531453 
L 554.450982 216.991831 
L 557.509913 219.542764 
L 560.568844 224.22446 
L 563.627775 230.9234 
L 566.686706 239.383257 
L 569.745637 249.231593 
L 572.804568 260.018309 
L 578.92243 282.48645 
L 581.981361 293.276804 
L 585.040292 303.292634 
L 588.099223 312.29397 
L 591.158154 320.144744 
L 594.217085 326.806663 
L 597.276016 332.324424 
L 600.334947 336.805519 
L 603.393878 340.397887 
L 606.45281 343.268206 
L 609.511741 345.58287 
L 612.570672 347.492866 
L 615.629603 349.123083 
L 618.688534 350.566062 
L 624.806396 353.089818 
L 627.865327 354.192993 
L 630.924258 355.165696 
L 633.983189 355.972195 
L 637.04212 356.574225 
L 640.101051 356.939978 
L 643.159982 357.051514 
L 646.218913 356.909692 
L 649.277844 356.536112 
L 652.336775 355.972047 
L 658.454637 354.512443 
L 664.572499 353.081904 
L 667.63143 352.551031 
L 670.690361 352.221357 
L 673.749292 352.137735 
L 676.808223 352.332319 
L 679.867154 352.823964 
L 682.926085 353.617876 
L 685.985016 354.705411 
L 689.043947 356.064106 
L 692.102878 357.65824 
L 695.161809 359.44023 
L 701.279671 363.334003 
L 707.397533 367.245377 
L 710.456464 369.060644 
L 713.515395 370.721357 
L 716.574326 372.197627 
L 719.633257 373.473329 
L 722.692188 374.545352 
L 725.751119 375.421672 
L 728.81005 376.118686 
L 731.868981 376.65825 
L 737.986843 377.363165 
L 744.104705 377.724655 
L 747.163636 377.825219 
L 747.163636 377.825219 
" style="fill:none;stroke:#4c72b0;stroke-linecap:round;stroke-width:1.5;"/>
   </g>
   <g id="patch_3">
    <path d="M 108 378 
L 108 51.84 
" style="fill:none;stroke:#ffffff;stroke-linecap:square;stroke-linejoin:miter;stroke-width:1.25;"/>
   </g>
   <g id="patch_4">
    <path d="M 777.6 378 
L 777.6 51.84 
" style="fill:none;stroke:#ffffff;stroke-linecap:square;stroke-linejoin:miter;stroke-width:1.25;"/>
   </g>
   <g id="patch_5">
    <path d="M 108 378 
L 777.6 378 
" style="fill:none;stroke:#ffffff;stroke-linecap:square;stroke-linejoin:miter;stroke-width:1.25;"/>
   </g>
   <g id="patch_6">
    <path d="M 108 51.84 
L 777.6 51.84 
" style="fill:none;stroke:#ffffff;stroke-linecap:square;stroke-linejoin:miter;stroke-width:1.25;"/>
   </g>
   <g id="text_17">
    <!-- Employer Size -->
    <g style="fill:#262626;" transform="translate(404.120625 45.84)scale(0.12 -0.12)">
     <defs>
      <path d="M 288 1472 
L 859 1522 
Q 900 1178 1048 958 
Q 1197 738 1509 602 
Q 1822 466 2213 466 
Q 2559 466 2825 569 
Q 3091 672 3220 851 
Q 3350 1031 3350 1244 
Q 3350 1459 3225 1620 
Q 3100 1781 2813 1891 
Q 2628 1963 1997 2114 
Q 1366 2266 1113 2400 
Q 784 2572 623 2826 
Q 463 3081 463 3397 
Q 463 3744 659 4045 
Q 856 4347 1234 4503 
Q 1613 4659 2075 4659 
Q 2584 4659 2973 4495 
Q 3363 4331 3572 4012 
Q 3781 3694 3797 3291 
L 3216 3247 
Q 3169 3681 2898 3903 
Q 2628 4125 2100 4125 
Q 1550 4125 1298 3923 
Q 1047 3722 1047 3438 
Q 1047 3191 1225 3031 
Q 1400 2872 2139 2705 
Q 2878 2538 3153 2413 
Q 3553 2228 3743 1945 
Q 3934 1663 3934 1294 
Q 3934 928 3725 604 
Q 3516 281 3123 101 
Q 2731 -78 2241 -78 
Q 1619 -78 1198 103 
Q 778 284 539 648 
Q 300 1013 288 1472 
z
" id="ArialMT-53" transform="scale(0.015625)"/>
      <path d="M 125 0 
L 125 456 
L 2238 2881 
Q 1878 2863 1603 2863 
L 250 2863 
L 250 3319 
L 2963 3319 
L 2963 2947 
L 1166 841 
L 819 456 
Q 1197 484 1528 484 
L 3063 484 
L 3063 0 
L 125 0 
z
" id="ArialMT-7a" transform="scale(0.015625)"/>
     </defs>
     <use xlink:href="#ArialMT-45"/>
     <use x="66.699219" xlink:href="#ArialMT-6d"/>
     <use x="150" xlink:href="#ArialMT-70"/>
     <use x="205.615234" xlink:href="#ArialMT-6c"/>
     <use x="227.832031" xlink:href="#ArialMT-6f"/>
     <use x="283.447266" xlink:href="#ArialMT-79"/>
     <use x="333.447266" xlink:href="#ArialMT-65"/>
     <use x="389.0625" xlink:href="#ArialMT-72"/>
     <use x="422.363281" xlink:href="#ArialMT-20"/>
     <use x="450.146484" xlink:href="#ArialMT-53"/>
     <use x="516.845703" xlink:href="#ArialMT-69"/>
     <use x="539.0625" xlink:href="#ArialMT-7a"/>
     <use x="589.0625" xlink:href="#ArialMT-65"/>
    </g>
   </g>
  </g>
 </g>
 <defs>
  <clipPath id="p6fd44d64a6">
   <rect height="326.16" width="669.6" x="108" y="51.84"/>
  </clipPath>
 </defs>
</svg>
