<?xml version="1.0" encoding="utf-8" standalone="no"?>
<!DOCTYPE svg PUBLIC "-//W3C//DTD SVG 1.1//EN"
  "http://www.w3.org/Graphics/SVG/1.1/DTD/svg11.dtd">
<svg height="288pt" version="1.1" viewBox="0 0 432 288" width="432pt" xmlns="http://www.w3.org/2000/svg" xmlns:xlink="http://www.w3.org/1999/xlink">
 <metadata>
  <rdf:RDF xmlns:cc="http://creativecommons.org/ns#" xmlns:dc="http://purl.org/dc/elements/1.1/" xmlns:rdf="http://www.w3.org/1999/02/22-rdf-syntax-ns#">
   <cc:Work>
    <dc:type rdf:resource="http://purl.org/dc/dcmitype/StillImage"/>
    <dc:date>2021-12-27T06:11:38.127972</dc:date>
    <dc:format>image/svg+xml</dc:format>
    <dc:creator>
     <cc:Agent>
      <dc:title>Matplotlib v3.4.3, https://matplotlib.org/</dc:title>
     </cc:Agent>
    </dc:creator>
   </cc:Work>
  </rdf:RDF>
 </metadata>
 <defs>
  <style type="text/css">*{stroke-linecap:butt;stroke-linejoin:round;}</style>
 </defs>
 <g id="figure_1">
  <g id="patch_1">
   <path d="M 0 288 
L 432 288 
L 432 0 
L 0 0 
z
" style="fill:#ffffff;"/>
  </g>
  <g id="axes_1">
   <g id="matplotlib.axis_1"/>
   <g id="matplotlib.axis_2"/>
   <g id="patch_2">
    <path d="M 319.835655 143.270684 
C 319.835655 131.611716 317.759012 120.045403 313.703197 109.114626 
C 309.647382 98.183849 303.676858 88.062343 296.07186 79.225175 
C 288.466862 70.388008 279.348265 62.975637 269.144064 57.335975 
C 258.939862 51.696312 247.812243 47.918994 236.283496 46.181315 
C 224.75475 44.443636 213.008115 44.773215 201.594938 47.154583 
C 190.181761 49.53595 179.283443 53.931256 169.411513 60.134201 
C 159.539583 66.337146 150.850947 74.249139 143.753417 83.49882 
C 136.655888 92.748501 131.262274 103.188854 127.825733 114.329847 
C 124.389192 125.470839 122.964345 137.135394 123.618069 148.77602 
C 124.271793 160.416646 126.993697 171.848325 131.656025 182.534494 
C 136.318354 193.220664 142.847003 202.991477 150.93554 211.388326 
C 159.024078 219.785176 168.543945 226.674601 179.048312 231.733237 
C 189.552679 236.791873 200.874588 239.939318 212.482631 241.027841 
C 224.090673 242.116364 235.800348 241.128664 247.062046 238.111101 
C 258.323743 235.093538 268.958469 230.094072 278.467067 223.347362 
C 287.975664 216.600652 296.207003 208.21393 302.774733 198.580838 
L 221.649629 143.270684 
L 319.835655 143.270684 
z
" style="fill:#4c72b0;stroke:#ffffff;stroke-linejoin:miter;"/>
   </g>
   <g id="patch_3">
    <path d="M 302.774733 198.580838 
C 306.45528 193.182466 309.587813 187.430171 312.125718 181.409548 
C 314.663623 175.388926 316.59425 169.129985 317.888871 162.72586 
L 221.649629 143.270684 
L 302.774733 198.580838 
z
" style="fill:#dd8452;stroke:#ffffff;stroke-linejoin:miter;"/>
   </g>
   <g id="patch_4">
    <path d="M 317.888871 162.72586 
C 318.212276 161.126071 318.495739 159.518467 318.738999 157.904546 
C 318.982258 156.290625 319.185237 154.670889 319.347747 153.046849 
L 221.649629 143.270684 
L 317.888871 162.72586 
z
" style="fill:#55a868;stroke:#ffffff;stroke-linejoin:miter;"/>
   </g>
   <g id="patch_5">
    <path d="M 319.347747 153.046849 
C 319.510257 151.422808 319.632246 149.794969 319.713602 148.164847 
C 319.794958 146.534725 319.835655 144.902828 319.835655 143.270677 
L 221.649629 143.270684 
L 319.347747 153.046849 
z
" style="fill:#c44e52;stroke:#ffffff;stroke-linejoin:miter;"/>
   </g>
   <g id="text_1">
    <!-- White -->
    <g style="fill:#262626;" transform="translate(95.017507 115.726477)scale(0.11 -0.11)">
     <defs>
      <path d="M 1294 0 
L 78 4581 
L 700 4581 
L 1397 1578 
Q 1509 1106 1591 641 
Q 1766 1375 1797 1488 
L 2669 4581 
L 3400 4581 
L 4056 2263 
Q 4303 1400 4413 641 
Q 4500 1075 4641 1638 
L 5359 4581 
L 5969 4581 
L 4713 0 
L 4128 0 
L 3163 3491 
Q 3041 3928 3019 4028 
Q 2947 3713 2884 3491 
L 1913 0 
L 1294 0 
z
" id="ArialMT-57" transform="scale(0.015625)"/>
      <path d="M 422 0 
L 422 4581 
L 984 4581 
L 984 2938 
Q 1378 3394 1978 3394 
Q 2347 3394 2619 3248 
Q 2891 3103 3008 2847 
Q 3125 2591 3125 2103 
L 3125 0 
L 2563 0 
L 2563 2103 
Q 2563 2525 2380 2717 
Q 2197 2909 1863 2909 
Q 1613 2909 1392 2779 
Q 1172 2650 1078 2428 
Q 984 2206 984 1816 
L 984 0 
L 422 0 
z
" id="ArialMT-68" transform="scale(0.015625)"/>
      <path d="M 425 3934 
L 425 4581 
L 988 4581 
L 988 3934 
L 425 3934 
z
M 425 0 
L 425 3319 
L 988 3319 
L 988 0 
L 425 0 
z
" id="ArialMT-69" transform="scale(0.015625)"/>
      <path d="M 1650 503 
L 1731 6 
Q 1494 -44 1306 -44 
Q 1000 -44 831 53 
Q 663 150 594 308 
Q 525 466 525 972 
L 525 2881 
L 113 2881 
L 113 3319 
L 525 3319 
L 525 4141 
L 1084 4478 
L 1084 3319 
L 1650 3319 
L 1650 2881 
L 1084 2881 
L 1084 941 
Q 1084 700 1114 631 
Q 1144 563 1211 522 
Q 1278 481 1403 481 
Q 1497 481 1650 503 
z
" id="ArialMT-74" transform="scale(0.015625)"/>
      <path d="M 2694 1069 
L 3275 997 
Q 3138 488 2766 206 
Q 2394 -75 1816 -75 
Q 1088 -75 661 373 
Q 234 822 234 1631 
Q 234 2469 665 2931 
Q 1097 3394 1784 3394 
Q 2450 3394 2872 2941 
Q 3294 2488 3294 1666 
Q 3294 1616 3291 1516 
L 816 1516 
Q 847 969 1125 678 
Q 1403 388 1819 388 
Q 2128 388 2347 550 
Q 2566 713 2694 1069 
z
M 847 1978 
L 2700 1978 
Q 2663 2397 2488 2606 
Q 2219 2931 1791 2931 
Q 1403 2931 1139 2672 
Q 875 2413 847 1978 
z
" id="ArialMT-65" transform="scale(0.015625)"/>
     </defs>
     <use xlink:href="#ArialMT-57"/>
     <use x="94.384766" xlink:href="#ArialMT-68"/>
     <use x="150" xlink:href="#ArialMT-69"/>
     <use x="172.216797" xlink:href="#ArialMT-74"/>
     <use x="200" xlink:href="#ArialMT-65"/>
    </g>
   </g>
   <g id="text_2">
    <!-- Black or African American -->
    <g style="fill:#262626;" transform="translate(316.649522 186.160163)scale(0.11 -0.11)">
     <defs>
      <path d="M 469 0 
L 469 4581 
L 2188 4581 
Q 2713 4581 3030 4442 
Q 3347 4303 3526 4014 
Q 3706 3725 3706 3409 
Q 3706 3116 3547 2856 
Q 3388 2597 3066 2438 
Q 3481 2316 3704 2022 
Q 3928 1728 3928 1328 
Q 3928 1006 3792 729 
Q 3656 453 3456 303 
Q 3256 153 2954 76 
Q 2653 0 2216 0 
L 469 0 
z
M 1075 2656 
L 2066 2656 
Q 2469 2656 2644 2709 
Q 2875 2778 2992 2937 
Q 3109 3097 3109 3338 
Q 3109 3566 3000 3739 
Q 2891 3913 2687 3977 
Q 2484 4041 1991 4041 
L 1075 4041 
L 1075 2656 
z
M 1075 541 
L 2216 541 
Q 2509 541 2628 563 
Q 2838 600 2978 687 
Q 3119 775 3209 942 
Q 3300 1109 3300 1328 
Q 3300 1584 3169 1773 
Q 3038 1963 2805 2039 
Q 2572 2116 2134 2116 
L 1075 2116 
L 1075 541 
z
" id="ArialMT-42" transform="scale(0.015625)"/>
      <path d="M 409 0 
L 409 4581 
L 972 4581 
L 972 0 
L 409 0 
z
" id="ArialMT-6c" transform="scale(0.015625)"/>
      <path d="M 2588 409 
Q 2275 144 1986 34 
Q 1697 -75 1366 -75 
Q 819 -75 525 192 
Q 231 459 231 875 
Q 231 1119 342 1320 
Q 453 1522 633 1644 
Q 813 1766 1038 1828 
Q 1203 1872 1538 1913 
Q 2219 1994 2541 2106 
Q 2544 2222 2544 2253 
Q 2544 2597 2384 2738 
Q 2169 2928 1744 2928 
Q 1347 2928 1158 2789 
Q 969 2650 878 2297 
L 328 2372 
Q 403 2725 575 2942 
Q 747 3159 1072 3276 
Q 1397 3394 1825 3394 
Q 2250 3394 2515 3294 
Q 2781 3194 2906 3042 
Q 3031 2891 3081 2659 
Q 3109 2516 3109 2141 
L 3109 1391 
Q 3109 606 3145 398 
Q 3181 191 3288 0 
L 2700 0 
Q 2613 175 2588 409 
z
M 2541 1666 
Q 2234 1541 1622 1453 
Q 1275 1403 1131 1340 
Q 988 1278 909 1158 
Q 831 1038 831 891 
Q 831 666 1001 516 
Q 1172 366 1500 366 
Q 1825 366 2078 508 
Q 2331 650 2450 897 
Q 2541 1088 2541 1459 
L 2541 1666 
z
" id="ArialMT-61" transform="scale(0.015625)"/>
      <path d="M 2588 1216 
L 3141 1144 
Q 3050 572 2676 248 
Q 2303 -75 1759 -75 
Q 1078 -75 664 370 
Q 250 816 250 1647 
Q 250 2184 428 2587 
Q 606 2991 970 3192 
Q 1334 3394 1763 3394 
Q 2303 3394 2647 3120 
Q 2991 2847 3088 2344 
L 2541 2259 
Q 2463 2594 2264 2762 
Q 2066 2931 1784 2931 
Q 1359 2931 1093 2626 
Q 828 2322 828 1663 
Q 828 994 1084 691 
Q 1341 388 1753 388 
Q 2084 388 2306 591 
Q 2528 794 2588 1216 
z
" id="ArialMT-63" transform="scale(0.015625)"/>
      <path d="M 425 0 
L 425 4581 
L 988 4581 
L 988 1969 
L 2319 3319 
L 3047 3319 
L 1778 2088 
L 3175 0 
L 2481 0 
L 1384 1697 
L 988 1316 
L 988 0 
L 425 0 
z
" id="ArialMT-6b" transform="scale(0.015625)"/>
      <path id="ArialMT-20" transform="scale(0.015625)"/>
      <path d="M 213 1659 
Q 213 2581 725 3025 
Q 1153 3394 1769 3394 
Q 2453 3394 2887 2945 
Q 3322 2497 3322 1706 
Q 3322 1066 3130 698 
Q 2938 331 2570 128 
Q 2203 -75 1769 -75 
Q 1072 -75 642 372 
Q 213 819 213 1659 
z
M 791 1659 
Q 791 1022 1069 705 
Q 1347 388 1769 388 
Q 2188 388 2466 706 
Q 2744 1025 2744 1678 
Q 2744 2294 2464 2611 
Q 2184 2928 1769 2928 
Q 1347 2928 1069 2612 
Q 791 2297 791 1659 
z
" id="ArialMT-6f" transform="scale(0.015625)"/>
      <path d="M 416 0 
L 416 3319 
L 922 3319 
L 922 2816 
Q 1116 3169 1280 3281 
Q 1444 3394 1641 3394 
Q 1925 3394 2219 3213 
L 2025 2691 
Q 1819 2813 1613 2813 
Q 1428 2813 1281 2702 
Q 1134 2591 1072 2394 
Q 978 2094 978 1738 
L 978 0 
L 416 0 
z
" id="ArialMT-72" transform="scale(0.015625)"/>
      <path d="M -9 0 
L 1750 4581 
L 2403 4581 
L 4278 0 
L 3588 0 
L 3053 1388 
L 1138 1388 
L 634 0 
L -9 0 
z
M 1313 1881 
L 2866 1881 
L 2388 3150 
Q 2169 3728 2063 4100 
Q 1975 3659 1816 3225 
L 1313 1881 
z
" id="ArialMT-41" transform="scale(0.015625)"/>
      <path d="M 556 0 
L 556 2881 
L 59 2881 
L 59 3319 
L 556 3319 
L 556 3672 
Q 556 4006 616 4169 
Q 697 4388 901 4523 
Q 1106 4659 1475 4659 
Q 1713 4659 2000 4603 
L 1916 4113 
Q 1741 4144 1584 4144 
Q 1328 4144 1222 4034 
Q 1116 3925 1116 3625 
L 1116 3319 
L 1763 3319 
L 1763 2881 
L 1116 2881 
L 1116 0 
L 556 0 
z
" id="ArialMT-66" transform="scale(0.015625)"/>
      <path d="M 422 0 
L 422 3319 
L 928 3319 
L 928 2847 
Q 1294 3394 1984 3394 
Q 2284 3394 2536 3286 
Q 2788 3178 2913 3003 
Q 3038 2828 3088 2588 
Q 3119 2431 3119 2041 
L 3119 0 
L 2556 0 
L 2556 2019 
Q 2556 2363 2490 2533 
Q 2425 2703 2258 2804 
Q 2091 2906 1866 2906 
Q 1506 2906 1245 2678 
Q 984 2450 984 1813 
L 984 0 
L 422 0 
z
" id="ArialMT-6e" transform="scale(0.015625)"/>
      <path d="M 422 0 
L 422 3319 
L 925 3319 
L 925 2853 
Q 1081 3097 1340 3245 
Q 1600 3394 1931 3394 
Q 2300 3394 2536 3241 
Q 2772 3088 2869 2813 
Q 3263 3394 3894 3394 
Q 4388 3394 4653 3120 
Q 4919 2847 4919 2278 
L 4919 0 
L 4359 0 
L 4359 2091 
Q 4359 2428 4304 2576 
Q 4250 2725 4106 2815 
Q 3963 2906 3769 2906 
Q 3419 2906 3187 2673 
Q 2956 2441 2956 1928 
L 2956 0 
L 2394 0 
L 2394 2156 
Q 2394 2531 2256 2718 
Q 2119 2906 1806 2906 
Q 1569 2906 1367 2781 
Q 1166 2656 1075 2415 
Q 984 2175 984 1722 
L 984 0 
L 422 0 
z
" id="ArialMT-6d" transform="scale(0.015625)"/>
     </defs>
     <use xlink:href="#ArialMT-42"/>
     <use x="66.699219" xlink:href="#ArialMT-6c"/>
     <use x="88.916016" xlink:href="#ArialMT-61"/>
     <use x="144.53125" xlink:href="#ArialMT-63"/>
     <use x="194.53125" xlink:href="#ArialMT-6b"/>
     <use x="244.53125" xlink:href="#ArialMT-20"/>
     <use x="272.314453" xlink:href="#ArialMT-6f"/>
     <use x="327.929688" xlink:href="#ArialMT-72"/>
     <use x="361.230469" xlink:href="#ArialMT-20"/>
     <use x="383.513672" xlink:href="#ArialMT-41"/>
     <use x="450.212891" xlink:href="#ArialMT-66"/>
     <use x="477.996094" xlink:href="#ArialMT-72"/>
     <use x="511.296875" xlink:href="#ArialMT-69"/>
     <use x="533.513672" xlink:href="#ArialMT-63"/>
     <use x="583.513672" xlink:href="#ArialMT-61"/>
     <use x="639.128906" xlink:href="#ArialMT-6e"/>
     <use x="694.744141" xlink:href="#ArialMT-20"/>
     <use x="717.027344" xlink:href="#ArialMT-41"/>
     <use x="783.726562" xlink:href="#ArialMT-6d"/>
     <use x="867.027344" xlink:href="#ArialMT-65"/>
     <use x="922.642578" xlink:href="#ArialMT-72"/>
     <use x="955.943359" xlink:href="#ArialMT-69"/>
     <use x="978.160156" xlink:href="#ArialMT-63"/>
     <use x="1028.160156" xlink:href="#ArialMT-61"/>
     <use x="1083.775391" xlink:href="#ArialMT-6e"/>
    </g>
   </g>
   <g id="text_3">
    <!-- Asian, White -->
    <g style="fill:#262626;" transform="translate(323.593467 161.479911)scale(0.11 -0.11)">
     <defs>
      <path d="M 197 991 
L 753 1078 
Q 800 744 1014 566 
Q 1228 388 1613 388 
Q 2000 388 2187 545 
Q 2375 703 2375 916 
Q 2375 1106 2209 1216 
Q 2094 1291 1634 1406 
Q 1016 1563 777 1677 
Q 538 1791 414 1992 
Q 291 2194 291 2438 
Q 291 2659 392 2848 
Q 494 3038 669 3163 
Q 800 3259 1026 3326 
Q 1253 3394 1513 3394 
Q 1903 3394 2198 3281 
Q 2494 3169 2634 2976 
Q 2775 2784 2828 2463 
L 2278 2388 
Q 2241 2644 2061 2787 
Q 1881 2931 1553 2931 
Q 1166 2931 1000 2803 
Q 834 2675 834 2503 
Q 834 2394 903 2306 
Q 972 2216 1119 2156 
Q 1203 2125 1616 2013 
Q 2213 1853 2448 1751 
Q 2684 1650 2818 1456 
Q 2953 1263 2953 975 
Q 2953 694 2789 445 
Q 2625 197 2315 61 
Q 2006 -75 1616 -75 
Q 969 -75 630 194 
Q 291 463 197 991 
z
" id="ArialMT-73" transform="scale(0.015625)"/>
      <path d="M 569 0 
L 569 641 
L 1209 641 
L 1209 0 
Q 1209 -353 1084 -570 
Q 959 -788 688 -906 
L 531 -666 
Q 709 -588 793 -436 
Q 878 -284 888 0 
L 569 0 
z
" id="ArialMT-2c" transform="scale(0.015625)"/>
     </defs>
     <use xlink:href="#ArialMT-41"/>
     <use x="66.699219" xlink:href="#ArialMT-73"/>
     <use x="116.699219" xlink:href="#ArialMT-69"/>
     <use x="138.916016" xlink:href="#ArialMT-61"/>
     <use x="194.53125" xlink:href="#ArialMT-6e"/>
     <use x="250.146484" xlink:href="#ArialMT-2c"/>
     <use x="277.929688" xlink:href="#ArialMT-20"/>
     <use x="305.712891" xlink:href="#ArialMT-57"/>
     <use x="400.097656" xlink:href="#ArialMT-68"/>
     <use x="455.712891" xlink:href="#ArialMT-69"/>
     <use x="477.929688" xlink:href="#ArialMT-74"/>
     <use x="505.712891" xlink:href="#ArialMT-65"/>
    </g>
   </g>
   <g id="text_4">
    <!-- Latinx or Hispanic, White -->
    <g style="fill:#262626;" transform="translate(324.616801 151.253227)scale(0.11 -0.11)">
     <defs>
      <path d="M 469 0 
L 469 4581 
L 1075 4581 
L 1075 541 
L 3331 541 
L 3331 0 
L 469 0 
z
" id="ArialMT-4c" transform="scale(0.015625)"/>
      <path d="M 47 0 
L 1259 1725 
L 138 3319 
L 841 3319 
L 1350 2541 
Q 1494 2319 1581 2169 
Q 1719 2375 1834 2534 
L 2394 3319 
L 3066 3319 
L 1919 1756 
L 3153 0 
L 2463 0 
L 1781 1031 
L 1600 1309 
L 728 0 
L 47 0 
z
" id="ArialMT-78" transform="scale(0.015625)"/>
      <path d="M 513 0 
L 513 4581 
L 1119 4581 
L 1119 2700 
L 3500 2700 
L 3500 4581 
L 4106 4581 
L 4106 0 
L 3500 0 
L 3500 2159 
L 1119 2159 
L 1119 0 
L 513 0 
z
" id="ArialMT-48" transform="scale(0.015625)"/>
      <path d="M 422 -1272 
L 422 3319 
L 934 3319 
L 934 2888 
Q 1116 3141 1344 3267 
Q 1572 3394 1897 3394 
Q 2322 3394 2647 3175 
Q 2972 2956 3137 2557 
Q 3303 2159 3303 1684 
Q 3303 1175 3120 767 
Q 2938 359 2589 142 
Q 2241 -75 1856 -75 
Q 1575 -75 1351 44 
Q 1128 163 984 344 
L 984 -1272 
L 422 -1272 
z
M 931 1641 
Q 931 1000 1190 694 
Q 1450 388 1819 388 
Q 2194 388 2461 705 
Q 2728 1022 2728 1688 
Q 2728 2322 2467 2637 
Q 2206 2953 1844 2953 
Q 1484 2953 1207 2617 
Q 931 2281 931 1641 
z
" id="ArialMT-70" transform="scale(0.015625)"/>
     </defs>
     <use xlink:href="#ArialMT-4c"/>
     <use x="55.615234" xlink:href="#ArialMT-61"/>
     <use x="111.230469" xlink:href="#ArialMT-74"/>
     <use x="139.013672" xlink:href="#ArialMT-69"/>
     <use x="161.230469" xlink:href="#ArialMT-6e"/>
     <use x="216.845703" xlink:href="#ArialMT-78"/>
     <use x="266.845703" xlink:href="#ArialMT-20"/>
     <use x="294.628906" xlink:href="#ArialMT-6f"/>
     <use x="350.244141" xlink:href="#ArialMT-72"/>
     <use x="383.544922" xlink:href="#ArialMT-20"/>
     <use x="411.328125" xlink:href="#ArialMT-48"/>
     <use x="483.544922" xlink:href="#ArialMT-69"/>
     <use x="505.761719" xlink:href="#ArialMT-73"/>
     <use x="555.761719" xlink:href="#ArialMT-70"/>
     <use x="611.376953" xlink:href="#ArialMT-61"/>
     <use x="666.992188" xlink:href="#ArialMT-6e"/>
     <use x="722.607422" xlink:href="#ArialMT-69"/>
     <use x="744.824219" xlink:href="#ArialMT-63"/>
     <use x="794.824219" xlink:href="#ArialMT-2c"/>
     <use x="822.607422" xlink:href="#ArialMT-20"/>
     <use x="850.390625" xlink:href="#ArialMT-57"/>
     <use x="944.775391" xlink:href="#ArialMT-68"/>
     <use x="1000.390625" xlink:href="#ArialMT-69"/>
     <use x="1022.607422" xlink:href="#ArialMT-74"/>
     <use x="1050.390625" xlink:href="#ArialMT-65"/>
    </g>
   </g>
   <g id="text_5">
    <!-- Race -->
    <g style="fill:#262626;" transform="translate(207.39375 28.56)scale(0.12 -0.12)">
     <defs>
      <path d="M 503 0 
L 503 4581 
L 2534 4581 
Q 3147 4581 3465 4457 
Q 3784 4334 3975 4021 
Q 4166 3709 4166 3331 
Q 4166 2844 3850 2509 
Q 3534 2175 2875 2084 
Q 3116 1969 3241 1856 
Q 3506 1613 3744 1247 
L 4541 0 
L 3778 0 
L 3172 953 
Q 2906 1366 2734 1584 
Q 2563 1803 2427 1890 
Q 2291 1978 2150 2013 
Q 2047 2034 1813 2034 
L 1109 2034 
L 1109 0 
L 503 0 
z
M 1109 2559 
L 2413 2559 
Q 2828 2559 3062 2645 
Q 3297 2731 3419 2920 
Q 3541 3109 3541 3331 
Q 3541 3656 3305 3865 
Q 3069 4075 2559 4075 
L 1109 4075 
L 1109 2559 
z
" id="ArialMT-52" transform="scale(0.015625)"/>
     </defs>
     <use xlink:href="#ArialMT-52"/>
     <use x="72.216797" xlink:href="#ArialMT-61"/>
     <use x="127.832031" xlink:href="#ArialMT-63"/>
     <use x="177.832031" xlink:href="#ArialMT-65"/>
    </g>
   </g>
   <g id="legend_1">
    <g id="patch_6">
     <path d="M 234.43875 86.3225 
L 383.2 86.3225 
Q 384.8 86.3225 384.8 84.7225 
L 384.8 40.16 
Q 384.8 38.56 383.2 38.56 
L 234.43875 38.56 
Q 232.83875 38.56 232.83875 40.16 
L 232.83875 84.7225 
Q 232.83875 86.3225 234.43875 86.3225 
z
" style="fill:#eaeaf2;opacity:0.8;stroke:#cccccc;stroke-linejoin:miter;"/>
    </g>
    <g id="patch_7">
     <path d="M 236.03875 47.48625 
L 252.03875 47.48625 
L 252.03875 41.88625 
L 236.03875 41.88625 
z
" style="fill:#4c72b0;stroke:#ffffff;stroke-linejoin:miter;"/>
    </g>
    <g id="text_6">
     <!-- White - 90.48 % -->
     <g style="fill:#262626;" transform="translate(258.43875 47.48625)scale(0.08 -0.08)">
      <defs>
       <path d="M 203 1375 
L 203 1941 
L 1931 1941 
L 1931 1375 
L 203 1375 
z
" id="ArialMT-2d" transform="scale(0.015625)"/>
       <path d="M 350 1059 
L 891 1109 
Q 959 728 1153 556 
Q 1347 384 1650 384 
Q 1909 384 2104 503 
Q 2300 622 2425 820 
Q 2550 1019 2634 1356 
Q 2719 1694 2719 2044 
Q 2719 2081 2716 2156 
Q 2547 1888 2255 1720 
Q 1963 1553 1622 1553 
Q 1053 1553 659 1965 
Q 266 2378 266 3053 
Q 266 3750 677 4175 
Q 1088 4600 1706 4600 
Q 2153 4600 2523 4359 
Q 2894 4119 3086 3673 
Q 3278 3228 3278 2384 
Q 3278 1506 3087 986 
Q 2897 466 2520 194 
Q 2144 -78 1638 -78 
Q 1100 -78 759 220 
Q 419 519 350 1059 
z
M 2653 3081 
Q 2653 3566 2395 3850 
Q 2138 4134 1775 4134 
Q 1400 4134 1122 3828 
Q 844 3522 844 3034 
Q 844 2597 1108 2323 
Q 1372 2050 1759 2050 
Q 2150 2050 2401 2323 
Q 2653 2597 2653 3081 
z
" id="ArialMT-39" transform="scale(0.015625)"/>
       <path d="M 266 2259 
Q 266 3072 433 3567 
Q 600 4063 929 4331 
Q 1259 4600 1759 4600 
Q 2128 4600 2406 4451 
Q 2684 4303 2865 4023 
Q 3047 3744 3150 3342 
Q 3253 2941 3253 2259 
Q 3253 1453 3087 958 
Q 2922 463 2592 192 
Q 2263 -78 1759 -78 
Q 1097 -78 719 397 
Q 266 969 266 2259 
z
M 844 2259 
Q 844 1131 1108 757 
Q 1372 384 1759 384 
Q 2147 384 2411 759 
Q 2675 1134 2675 2259 
Q 2675 3391 2411 3762 
Q 2147 4134 1753 4134 
Q 1366 4134 1134 3806 
Q 844 3388 844 2259 
z
" id="ArialMT-30" transform="scale(0.015625)"/>
       <path d="M 581 0 
L 581 641 
L 1222 641 
L 1222 0 
L 581 0 
z
" id="ArialMT-2e" transform="scale(0.015625)"/>
       <path d="M 2069 0 
L 2069 1097 
L 81 1097 
L 81 1613 
L 2172 4581 
L 2631 4581 
L 2631 1613 
L 3250 1613 
L 3250 1097 
L 2631 1097 
L 2631 0 
L 2069 0 
z
M 2069 1613 
L 2069 3678 
L 634 1613 
L 2069 1613 
z
" id="ArialMT-34" transform="scale(0.015625)"/>
       <path d="M 1131 2484 
Q 781 2613 612 2850 
Q 444 3088 444 3419 
Q 444 3919 803 4259 
Q 1163 4600 1759 4600 
Q 2359 4600 2725 4251 
Q 3091 3903 3091 3403 
Q 3091 3084 2923 2848 
Q 2756 2613 2416 2484 
Q 2838 2347 3058 2040 
Q 3278 1734 3278 1309 
Q 3278 722 2862 322 
Q 2447 -78 1769 -78 
Q 1091 -78 675 323 
Q 259 725 259 1325 
Q 259 1772 486 2073 
Q 713 2375 1131 2484 
z
M 1019 3438 
Q 1019 3113 1228 2906 
Q 1438 2700 1772 2700 
Q 2097 2700 2305 2904 
Q 2513 3109 2513 3406 
Q 2513 3716 2298 3927 
Q 2084 4138 1766 4138 
Q 1444 4138 1231 3931 
Q 1019 3725 1019 3438 
z
M 838 1322 
Q 838 1081 952 856 
Q 1066 631 1291 507 
Q 1516 384 1775 384 
Q 2178 384 2440 643 
Q 2703 903 2703 1303 
Q 2703 1709 2433 1975 
Q 2163 2241 1756 2241 
Q 1359 2241 1098 1978 
Q 838 1716 838 1322 
z
" id="ArialMT-38" transform="scale(0.015625)"/>
       <path d="M 372 3481 
Q 372 3972 619 4315 
Q 866 4659 1334 4659 
Q 1766 4659 2048 4351 
Q 2331 4044 2331 3447 
Q 2331 2866 2045 2552 
Q 1759 2238 1341 2238 
Q 925 2238 648 2547 
Q 372 2856 372 3481 
z
M 1350 4272 
Q 1141 4272 1002 4090 
Q 863 3909 863 3425 
Q 863 2984 1003 2804 
Q 1144 2625 1350 2625 
Q 1563 2625 1702 2806 
Q 1841 2988 1841 3469 
Q 1841 3913 1700 4092 
Q 1559 4272 1350 4272 
z
M 1353 -169 
L 3859 4659 
L 4316 4659 
L 1819 -169 
L 1353 -169 
z
M 3334 1075 
Q 3334 1569 3581 1911 
Q 3828 2253 4300 2253 
Q 4731 2253 5014 1945 
Q 5297 1638 5297 1041 
Q 5297 459 5011 145 
Q 4725 -169 4303 -169 
Q 3888 -169 3611 142 
Q 3334 453 3334 1075 
z
M 4316 1866 
Q 4103 1866 3964 1684 
Q 3825 1503 3825 1019 
Q 3825 581 3965 400 
Q 4106 219 4313 219 
Q 4528 219 4667 400 
Q 4806 581 4806 1063 
Q 4806 1506 4665 1686 
Q 4525 1866 4316 1866 
z
" id="ArialMT-25" transform="scale(0.015625)"/>
      </defs>
      <use xlink:href="#ArialMT-57"/>
      <use x="94.384766" xlink:href="#ArialMT-68"/>
      <use x="150" xlink:href="#ArialMT-69"/>
      <use x="172.216797" xlink:href="#ArialMT-74"/>
      <use x="200" xlink:href="#ArialMT-65"/>
      <use x="255.615234" xlink:href="#ArialMT-20"/>
      <use x="283.398438" xlink:href="#ArialMT-2d"/>
      <use x="316.699219" xlink:href="#ArialMT-20"/>
      <use x="344.482422" xlink:href="#ArialMT-39"/>
      <use x="400.097656" xlink:href="#ArialMT-30"/>
      <use x="455.712891" xlink:href="#ArialMT-2e"/>
      <use x="483.496094" xlink:href="#ArialMT-34"/>
      <use x="539.111328" xlink:href="#ArialMT-38"/>
      <use x="594.726562" xlink:href="#ArialMT-20"/>
      <use x="622.509766" xlink:href="#ArialMT-25"/>
     </g>
    </g>
    <g id="patch_8">
     <path d="M 236.03875 58.8025 
L 252.03875 58.8025 
L 252.03875 53.2025 
L 236.03875 53.2025 
z
" style="fill:#dd8452;stroke:#ffffff;stroke-linejoin:miter;"/>
    </g>
    <g id="text_7">
     <!-- Black or African American - 6.35 % -->
     <g style="fill:#262626;" transform="translate(258.43875 58.8025)scale(0.08 -0.08)">
      <defs>
       <path d="M 3184 3459 
L 2625 3416 
Q 2550 3747 2413 3897 
Q 2184 4138 1850 4138 
Q 1581 4138 1378 3988 
Q 1113 3794 959 3422 
Q 806 3050 800 2363 
Q 1003 2672 1297 2822 
Q 1591 2972 1913 2972 
Q 2475 2972 2870 2558 
Q 3266 2144 3266 1488 
Q 3266 1056 3080 686 
Q 2894 316 2569 119 
Q 2244 -78 1831 -78 
Q 1128 -78 684 439 
Q 241 956 241 2144 
Q 241 3472 731 4075 
Q 1159 4600 1884 4600 
Q 2425 4600 2770 4297 
Q 3116 3994 3184 3459 
z
M 888 1484 
Q 888 1194 1011 928 
Q 1134 663 1356 523 
Q 1578 384 1822 384 
Q 2178 384 2434 671 
Q 2691 959 2691 1453 
Q 2691 1928 2437 2201 
Q 2184 2475 1800 2475 
Q 1419 2475 1153 2201 
Q 888 1928 888 1484 
z
" id="ArialMT-36" transform="scale(0.015625)"/>
       <path d="M 269 1209 
L 831 1284 
Q 928 806 1161 595 
Q 1394 384 1728 384 
Q 2125 384 2398 659 
Q 2672 934 2672 1341 
Q 2672 1728 2419 1979 
Q 2166 2231 1775 2231 
Q 1616 2231 1378 2169 
L 1441 2663 
Q 1497 2656 1531 2656 
Q 1891 2656 2178 2843 
Q 2466 3031 2466 3422 
Q 2466 3731 2256 3934 
Q 2047 4138 1716 4138 
Q 1388 4138 1169 3931 
Q 950 3725 888 3313 
L 325 3413 
Q 428 3978 793 4289 
Q 1159 4600 1703 4600 
Q 2078 4600 2393 4439 
Q 2709 4278 2876 4000 
Q 3044 3722 3044 3409 
Q 3044 3113 2884 2869 
Q 2725 2625 2413 2481 
Q 2819 2388 3044 2092 
Q 3269 1797 3269 1353 
Q 3269 753 2831 336 
Q 2394 -81 1725 -81 
Q 1122 -81 723 278 
Q 325 638 269 1209 
z
" id="ArialMT-33" transform="scale(0.015625)"/>
       <path d="M 266 1200 
L 856 1250 
Q 922 819 1161 601 
Q 1400 384 1738 384 
Q 2144 384 2425 690 
Q 2706 997 2706 1503 
Q 2706 1984 2436 2262 
Q 2166 2541 1728 2541 
Q 1456 2541 1237 2417 
Q 1019 2294 894 2097 
L 366 2166 
L 809 4519 
L 3088 4519 
L 3088 3981 
L 1259 3981 
L 1013 2750 
Q 1425 3038 1878 3038 
Q 2478 3038 2890 2622 
Q 3303 2206 3303 1553 
Q 3303 931 2941 478 
Q 2500 -78 1738 -78 
Q 1113 -78 717 272 
Q 322 622 266 1200 
z
" id="ArialMT-35" transform="scale(0.015625)"/>
      </defs>
      <use xlink:href="#ArialMT-42"/>
      <use x="66.699219" xlink:href="#ArialMT-6c"/>
      <use x="88.916016" xlink:href="#ArialMT-61"/>
      <use x="144.53125" xlink:href="#ArialMT-63"/>
      <use x="194.53125" xlink:href="#ArialMT-6b"/>
      <use x="244.53125" xlink:href="#ArialMT-20"/>
      <use x="272.314453" xlink:href="#ArialMT-6f"/>
      <use x="327.929688" xlink:href="#ArialMT-72"/>
      <use x="361.230469" xlink:href="#ArialMT-20"/>
      <use x="383.513672" xlink:href="#ArialMT-41"/>
      <use x="450.212891" xlink:href="#ArialMT-66"/>
      <use x="477.996094" xlink:href="#ArialMT-72"/>
      <use x="511.296875" xlink:href="#ArialMT-69"/>
      <use x="533.513672" xlink:href="#ArialMT-63"/>
      <use x="583.513672" xlink:href="#ArialMT-61"/>
      <use x="639.128906" xlink:href="#ArialMT-6e"/>
      <use x="694.744141" xlink:href="#ArialMT-20"/>
      <use x="717.027344" xlink:href="#ArialMT-41"/>
      <use x="783.726562" xlink:href="#ArialMT-6d"/>
      <use x="867.027344" xlink:href="#ArialMT-65"/>
      <use x="922.642578" xlink:href="#ArialMT-72"/>
      <use x="955.943359" xlink:href="#ArialMT-69"/>
      <use x="978.160156" xlink:href="#ArialMT-63"/>
      <use x="1028.160156" xlink:href="#ArialMT-61"/>
      <use x="1083.775391" xlink:href="#ArialMT-6e"/>
      <use x="1139.390625" xlink:href="#ArialMT-20"/>
      <use x="1167.173828" xlink:href="#ArialMT-2d"/>
      <use x="1200.474609" xlink:href="#ArialMT-20"/>
      <use x="1228.257812" xlink:href="#ArialMT-36"/>
      <use x="1283.873047" xlink:href="#ArialMT-2e"/>
      <use x="1311.65625" xlink:href="#ArialMT-33"/>
      <use x="1367.271484" xlink:href="#ArialMT-35"/>
      <use x="1422.886719" xlink:href="#ArialMT-20"/>
      <use x="1450.669922" xlink:href="#ArialMT-25"/>
     </g>
    </g>
    <g id="patch_9">
     <path d="M 236.03875 70.11875 
L 252.03875 70.11875 
L 252.03875 64.51875 
L 236.03875 64.51875 
z
" style="fill:#55a868;stroke:#ffffff;stroke-linejoin:miter;"/>
    </g>
    <g id="text_8">
     <!-- Asian, White - 1.59 % -->
     <g style="fill:#262626;" transform="translate(258.43875 70.11875)scale(0.08 -0.08)">
      <defs>
       <path d="M 2384 0 
L 1822 0 
L 1822 3584 
Q 1619 3391 1289 3197 
Q 959 3003 697 2906 
L 697 3450 
Q 1169 3672 1522 3987 
Q 1875 4303 2022 4600 
L 2384 4600 
L 2384 0 
z
" id="ArialMT-31" transform="scale(0.015625)"/>
      </defs>
      <use xlink:href="#ArialMT-41"/>
      <use x="66.699219" xlink:href="#ArialMT-73"/>
      <use x="116.699219" xlink:href="#ArialMT-69"/>
      <use x="138.916016" xlink:href="#ArialMT-61"/>
      <use x="194.53125" xlink:href="#ArialMT-6e"/>
      <use x="250.146484" xlink:href="#ArialMT-2c"/>
      <use x="277.929688" xlink:href="#ArialMT-20"/>
      <use x="305.712891" xlink:href="#ArialMT-57"/>
      <use x="400.097656" xlink:href="#ArialMT-68"/>
      <use x="455.712891" xlink:href="#ArialMT-69"/>
      <use x="477.929688" xlink:href="#ArialMT-74"/>
      <use x="505.712891" xlink:href="#ArialMT-65"/>
      <use x="561.328125" xlink:href="#ArialMT-20"/>
      <use x="589.111328" xlink:href="#ArialMT-2d"/>
      <use x="622.412109" xlink:href="#ArialMT-20"/>
      <use x="650.195312" xlink:href="#ArialMT-31"/>
      <use x="705.810547" xlink:href="#ArialMT-2e"/>
      <use x="733.59375" xlink:href="#ArialMT-35"/>
      <use x="789.208984" xlink:href="#ArialMT-39"/>
      <use x="844.824219" xlink:href="#ArialMT-20"/>
      <use x="872.607422" xlink:href="#ArialMT-25"/>
     </g>
    </g>
    <g id="patch_10">
     <path d="M 236.03875 81.5325 
L 252.03875 81.5325 
L 252.03875 75.9325 
L 236.03875 75.9325 
z
" style="fill:#c44e52;stroke:#ffffff;stroke-linejoin:miter;"/>
    </g>
    <g id="text_9">
     <!-- Latinx or Hispanic, White - 1.59 % -->
     <g style="fill:#262626;" transform="translate(258.43875 81.5325)scale(0.08 -0.08)">
      <use xlink:href="#ArialMT-4c"/>
      <use x="55.615234" xlink:href="#ArialMT-61"/>
      <use x="111.230469" xlink:href="#ArialMT-74"/>
      <use x="139.013672" xlink:href="#ArialMT-69"/>
      <use x="161.230469" xlink:href="#ArialMT-6e"/>
      <use x="216.845703" xlink:href="#ArialMT-78"/>
      <use x="266.845703" xlink:href="#ArialMT-20"/>
      <use x="294.628906" xlink:href="#ArialMT-6f"/>
      <use x="350.244141" xlink:href="#ArialMT-72"/>
      <use x="383.544922" xlink:href="#ArialMT-20"/>
      <use x="411.328125" xlink:href="#ArialMT-48"/>
      <use x="483.544922" xlink:href="#ArialMT-69"/>
      <use x="505.761719" xlink:href="#ArialMT-73"/>
      <use x="555.761719" xlink:href="#ArialMT-70"/>
      <use x="611.376953" xlink:href="#ArialMT-61"/>
      <use x="666.992188" xlink:href="#ArialMT-6e"/>
      <use x="722.607422" xlink:href="#ArialMT-69"/>
      <use x="744.824219" xlink:href="#ArialMT-63"/>
      <use x="794.824219" xlink:href="#ArialMT-2c"/>
      <use x="822.607422" xlink:href="#ArialMT-20"/>
      <use x="850.390625" xlink:href="#ArialMT-57"/>
      <use x="944.775391" xlink:href="#ArialMT-68"/>
      <use x="1000.390625" xlink:href="#ArialMT-69"/>
      <use x="1022.607422" xlink:href="#ArialMT-74"/>
      <use x="1050.390625" xlink:href="#ArialMT-65"/>
      <use x="1106.005859" xlink:href="#ArialMT-20"/>
      <use x="1133.789062" xlink:href="#ArialMT-2d"/>
      <use x="1167.089844" xlink:href="#ArialMT-20"/>
      <use x="1194.873047" xlink:href="#ArialMT-31"/>
      <use x="1250.488281" xlink:href="#ArialMT-2e"/>
      <use x="1278.271484" xlink:href="#ArialMT-35"/>
      <use x="1333.886719" xlink:href="#ArialMT-39"/>
      <use x="1389.501953" xlink:href="#ArialMT-20"/>
      <use x="1417.285156" xlink:href="#ArialMT-25"/>
     </g>
    </g>
   </g>
  </g>
 </g>
</svg>
