<?xml version="1.0" encoding="utf-8" standalone="no"?>
<!DOCTYPE svg PUBLIC "-//W3C//DTD SVG 1.1//EN"
  "http://www.w3.org/Graphics/SVG/1.1/DTD/svg11.dtd">
<svg height="288pt" version="1.1" viewBox="0 0 432 288" width="432pt" xmlns="http://www.w3.org/2000/svg" xmlns:xlink="http://www.w3.org/1999/xlink">
 <metadata>
  <rdf:RDF xmlns:cc="http://creativecommons.org/ns#" xmlns:dc="http://purl.org/dc/elements/1.1/" xmlns:rdf="http://www.w3.org/1999/02/22-rdf-syntax-ns#">
   <cc:Work>
    <dc:type rdf:resource="http://purl.org/dc/dcmitype/StillImage"/>
    <dc:date>2022-01-07T22:15:38.955352</dc:date>
    <dc:format>image/svg+xml</dc:format>
    <dc:creator>
     <cc:Agent>
      <dc:title>Matplotlib v3.4.3, https://matplotlib.org/</dc:title>
     </cc:Agent>
    </dc:creator>
   </cc:Work>
  </rdf:RDF>
 </metadata>
 <defs>
  <style type="text/css">*{stroke-linecap:butt;stroke-linejoin:round;}</style>
 </defs>
 <g id="figure_1">
  <g id="patch_1">
   <path d="M 0 288 
L 432 288 
L 432 0 
L 0 0 
z
" style="fill:#ffffff;"/>
  </g>
  <g id="axes_1">
   <g id="matplotlib.axis_1"/>
   <g id="matplotlib.axis_2"/>
   <g id="patch_2">
    <path d="M 320.236364 143.28 
C 320.236364 117.07702 309.816168 91.920442 291.287863 73.392137 
C 272.759558 54.863832 247.60298 44.443636 221.4 44.443636 
C 195.19702 44.443636 170.040442 54.863832 151.512137 73.392137 
C 132.983832 91.920442 122.563636 117.07702 122.563636 143.28 
L 221.4 143.28 
L 320.236364 143.28 
z
" style="fill:#4c72b0;stroke:#ffffff;stroke-linejoin:miter;"/>
   </g>
   <g id="patch_3">
    <path d="M 122.563636 143.28 
C 122.563636 169.48298 132.983832 194.639558 151.512137 213.167863 
C 170.040442 231.696168 195.19702 242.116364 221.4 242.116364 
L 221.4 143.28 
L 122.563636 143.28 
z
" style="fill:#dd8452;stroke:#ffffff;stroke-linejoin:miter;"/>
   </g>
   <g id="patch_4">
    <path d="M 221.4 242.116364 
C 238.232401 242.116364 254.789056 237.816382 269.494219 229.625659 
C 284.199381 221.434937 296.571255 209.621834 305.432372 195.310638 
L 221.4 143.28 
L 221.4 242.116364 
z
" style="fill:#55a868;stroke:#ffffff;stroke-linejoin:miter;"/>
   </g>
   <g id="patch_5">
    <path d="M 305.432372 195.310638 
C 308.63973 190.130576 311.361252 184.665022 313.562165 178.98381 
C 315.763079 173.302597 317.433969 167.430026 318.553487 161.441131 
L 221.4 143.28 
L 305.432372 195.310638 
z
" style="fill:#c44e52;stroke:#ffffff;stroke-linejoin:miter;"/>
   </g>
   <g id="patch_6">
    <path d="M 318.553487 161.441131 
C 319.112948 158.448278 319.533817 155.431172 319.814745 152.399466 
C 320.095674 149.36776 320.236364 146.324691 320.236364 143.279997 
L 221.4 143.28 
L 318.553487 161.441131 
z
" style="fill:#8172b3;stroke:#ffffff;stroke-linejoin:miter;"/>
   </g>
   <g id="text_1">
    <!-- Once per month or less -->
    <g style="fill:#262626;" transform="translate(221.4 42.415959)scale(0.11 -0.11)">
     <defs>
      <path d="M 309 2231 
Q 309 3372 921 4017 
Q 1534 4663 2503 4663 
Q 3138 4663 3647 4359 
Q 4156 4056 4423 3514 
Q 4691 2972 4691 2284 
Q 4691 1588 4409 1038 
Q 4128 488 3612 205 
Q 3097 -78 2500 -78 
Q 1853 -78 1343 234 
Q 834 547 571 1087 
Q 309 1628 309 2231 
z
M 934 2222 
Q 934 1394 1379 917 
Q 1825 441 2497 441 
Q 3181 441 3623 922 
Q 4066 1403 4066 2288 
Q 4066 2847 3877 3264 
Q 3688 3681 3323 3911 
Q 2959 4141 2506 4141 
Q 1863 4141 1398 3698 
Q 934 3256 934 2222 
z
" id="ArialMT-4f" transform="scale(0.015625)"/>
      <path d="M 422 0 
L 422 3319 
L 928 3319 
L 928 2847 
Q 1294 3394 1984 3394 
Q 2284 3394 2536 3286 
Q 2788 3178 2913 3003 
Q 3038 2828 3088 2588 
Q 3119 2431 3119 2041 
L 3119 0 
L 2556 0 
L 2556 2019 
Q 2556 2363 2490 2533 
Q 2425 2703 2258 2804 
Q 2091 2906 1866 2906 
Q 1506 2906 1245 2678 
Q 984 2450 984 1813 
L 984 0 
L 422 0 
z
" id="ArialMT-6e" transform="scale(0.015625)"/>
      <path d="M 2588 1216 
L 3141 1144 
Q 3050 572 2676 248 
Q 2303 -75 1759 -75 
Q 1078 -75 664 370 
Q 250 816 250 1647 
Q 250 2184 428 2587 
Q 606 2991 970 3192 
Q 1334 3394 1763 3394 
Q 2303 3394 2647 3120 
Q 2991 2847 3088 2344 
L 2541 2259 
Q 2463 2594 2264 2762 
Q 2066 2931 1784 2931 
Q 1359 2931 1093 2626 
Q 828 2322 828 1663 
Q 828 994 1084 691 
Q 1341 388 1753 388 
Q 2084 388 2306 591 
Q 2528 794 2588 1216 
z
" id="ArialMT-63" transform="scale(0.015625)"/>
      <path d="M 2694 1069 
L 3275 997 
Q 3138 488 2766 206 
Q 2394 -75 1816 -75 
Q 1088 -75 661 373 
Q 234 822 234 1631 
Q 234 2469 665 2931 
Q 1097 3394 1784 3394 
Q 2450 3394 2872 2941 
Q 3294 2488 3294 1666 
Q 3294 1616 3291 1516 
L 816 1516 
Q 847 969 1125 678 
Q 1403 388 1819 388 
Q 2128 388 2347 550 
Q 2566 713 2694 1069 
z
M 847 1978 
L 2700 1978 
Q 2663 2397 2488 2606 
Q 2219 2931 1791 2931 
Q 1403 2931 1139 2672 
Q 875 2413 847 1978 
z
" id="ArialMT-65" transform="scale(0.015625)"/>
      <path id="ArialMT-20" transform="scale(0.015625)"/>
      <path d="M 422 -1272 
L 422 3319 
L 934 3319 
L 934 2888 
Q 1116 3141 1344 3267 
Q 1572 3394 1897 3394 
Q 2322 3394 2647 3175 
Q 2972 2956 3137 2557 
Q 3303 2159 3303 1684 
Q 3303 1175 3120 767 
Q 2938 359 2589 142 
Q 2241 -75 1856 -75 
Q 1575 -75 1351 44 
Q 1128 163 984 344 
L 984 -1272 
L 422 -1272 
z
M 931 1641 
Q 931 1000 1190 694 
Q 1450 388 1819 388 
Q 2194 388 2461 705 
Q 2728 1022 2728 1688 
Q 2728 2322 2467 2637 
Q 2206 2953 1844 2953 
Q 1484 2953 1207 2617 
Q 931 2281 931 1641 
z
" id="ArialMT-70" transform="scale(0.015625)"/>
      <path d="M 416 0 
L 416 3319 
L 922 3319 
L 922 2816 
Q 1116 3169 1280 3281 
Q 1444 3394 1641 3394 
Q 1925 3394 2219 3213 
L 2025 2691 
Q 1819 2813 1613 2813 
Q 1428 2813 1281 2702 
Q 1134 2591 1072 2394 
Q 978 2094 978 1738 
L 978 0 
L 416 0 
z
" id="ArialMT-72" transform="scale(0.015625)"/>
      <path d="M 422 0 
L 422 3319 
L 925 3319 
L 925 2853 
Q 1081 3097 1340 3245 
Q 1600 3394 1931 3394 
Q 2300 3394 2536 3241 
Q 2772 3088 2869 2813 
Q 3263 3394 3894 3394 
Q 4388 3394 4653 3120 
Q 4919 2847 4919 2278 
L 4919 0 
L 4359 0 
L 4359 2091 
Q 4359 2428 4304 2576 
Q 4250 2725 4106 2815 
Q 3963 2906 3769 2906 
Q 3419 2906 3187 2673 
Q 2956 2441 2956 1928 
L 2956 0 
L 2394 0 
L 2394 2156 
Q 2394 2531 2256 2718 
Q 2119 2906 1806 2906 
Q 1569 2906 1367 2781 
Q 1166 2656 1075 2415 
Q 984 2175 984 1722 
L 984 0 
L 422 0 
z
" id="ArialMT-6d" transform="scale(0.015625)"/>
      <path d="M 213 1659 
Q 213 2581 725 3025 
Q 1153 3394 1769 3394 
Q 2453 3394 2887 2945 
Q 3322 2497 3322 1706 
Q 3322 1066 3130 698 
Q 2938 331 2570 128 
Q 2203 -75 1769 -75 
Q 1072 -75 642 372 
Q 213 819 213 1659 
z
M 791 1659 
Q 791 1022 1069 705 
Q 1347 388 1769 388 
Q 2188 388 2466 706 
Q 2744 1025 2744 1678 
Q 2744 2294 2464 2611 
Q 2184 2928 1769 2928 
Q 1347 2928 1069 2612 
Q 791 2297 791 1659 
z
" id="ArialMT-6f" transform="scale(0.015625)"/>
      <path d="M 1650 503 
L 1731 6 
Q 1494 -44 1306 -44 
Q 1000 -44 831 53 
Q 663 150 594 308 
Q 525 466 525 972 
L 525 2881 
L 113 2881 
L 113 3319 
L 525 3319 
L 525 4141 
L 1084 4478 
L 1084 3319 
L 1650 3319 
L 1650 2881 
L 1084 2881 
L 1084 941 
Q 1084 700 1114 631 
Q 1144 563 1211 522 
Q 1278 481 1403 481 
Q 1497 481 1650 503 
z
" id="ArialMT-74" transform="scale(0.015625)"/>
      <path d="M 422 0 
L 422 4581 
L 984 4581 
L 984 2938 
Q 1378 3394 1978 3394 
Q 2347 3394 2619 3248 
Q 2891 3103 3008 2847 
Q 3125 2591 3125 2103 
L 3125 0 
L 2563 0 
L 2563 2103 
Q 2563 2525 2380 2717 
Q 2197 2909 1863 2909 
Q 1613 2909 1392 2779 
Q 1172 2650 1078 2428 
Q 984 2206 984 1816 
L 984 0 
L 422 0 
z
" id="ArialMT-68" transform="scale(0.015625)"/>
      <path d="M 409 0 
L 409 4581 
L 972 4581 
L 972 0 
L 409 0 
z
" id="ArialMT-6c" transform="scale(0.015625)"/>
      <path d="M 197 991 
L 753 1078 
Q 800 744 1014 566 
Q 1228 388 1613 388 
Q 2000 388 2187 545 
Q 2375 703 2375 916 
Q 2375 1106 2209 1216 
Q 2094 1291 1634 1406 
Q 1016 1563 777 1677 
Q 538 1791 414 1992 
Q 291 2194 291 2438 
Q 291 2659 392 2848 
Q 494 3038 669 3163 
Q 800 3259 1026 3326 
Q 1253 3394 1513 3394 
Q 1903 3394 2198 3281 
Q 2494 3169 2634 2976 
Q 2775 2784 2828 2463 
L 2278 2388 
Q 2241 2644 2061 2787 
Q 1881 2931 1553 2931 
Q 1166 2931 1000 2803 
Q 834 2675 834 2503 
Q 834 2394 903 2306 
Q 972 2216 1119 2156 
Q 1203 2125 1616 2013 
Q 2213 1853 2448 1751 
Q 2684 1650 2818 1456 
Q 2953 1263 2953 975 
Q 2953 694 2789 445 
Q 2625 197 2315 61 
Q 2006 -75 1616 -75 
Q 969 -75 630 194 
Q 291 463 197 991 
z
" id="ArialMT-73" transform="scale(0.015625)"/>
     </defs>
     <use xlink:href="#ArialMT-4f"/>
     <use x="77.783203" xlink:href="#ArialMT-6e"/>
     <use x="133.398438" xlink:href="#ArialMT-63"/>
     <use x="183.398438" xlink:href="#ArialMT-65"/>
     <use x="239.013672" xlink:href="#ArialMT-20"/>
     <use x="266.796875" xlink:href="#ArialMT-70"/>
     <use x="322.412109" xlink:href="#ArialMT-65"/>
     <use x="378.027344" xlink:href="#ArialMT-72"/>
     <use x="411.328125" xlink:href="#ArialMT-20"/>
     <use x="439.111328" xlink:href="#ArialMT-6d"/>
     <use x="522.412109" xlink:href="#ArialMT-6f"/>
     <use x="578.027344" xlink:href="#ArialMT-6e"/>
     <use x="633.642578" xlink:href="#ArialMT-74"/>
     <use x="661.425781" xlink:href="#ArialMT-68"/>
     <use x="717.041016" xlink:href="#ArialMT-20"/>
     <use x="744.824219" xlink:href="#ArialMT-6f"/>
     <use x="800.439453" xlink:href="#ArialMT-72"/>
     <use x="833.740234" xlink:href="#ArialMT-20"/>
     <use x="861.523438" xlink:href="#ArialMT-6c"/>
     <use x="883.740234" xlink:href="#ArialMT-65"/>
     <use x="939.355469" xlink:href="#ArialMT-73"/>
     <use x="989.355469" xlink:href="#ArialMT-73"/>
    </g>
   </g>
   <g id="text_2">
    <!-- Once or twice per week -->
    <g style="fill:#262626;" transform="translate(33.088369 219.576397)scale(0.11 -0.11)">
     <defs>
      <path d="M 1034 0 
L 19 3319 
L 600 3319 
L 1128 1403 
L 1325 691 
Q 1338 744 1497 1375 
L 2025 3319 
L 2603 3319 
L 3100 1394 
L 3266 759 
L 3456 1400 
L 4025 3319 
L 4572 3319 
L 3534 0 
L 2950 0 
L 2422 1988 
L 2294 2553 
L 1622 0 
L 1034 0 
z
" id="ArialMT-77" transform="scale(0.015625)"/>
      <path d="M 425 3934 
L 425 4581 
L 988 4581 
L 988 3934 
L 425 3934 
z
M 425 0 
L 425 3319 
L 988 3319 
L 988 0 
L 425 0 
z
" id="ArialMT-69" transform="scale(0.015625)"/>
      <path d="M 425 0 
L 425 4581 
L 988 4581 
L 988 1969 
L 2319 3319 
L 3047 3319 
L 1778 2088 
L 3175 0 
L 2481 0 
L 1384 1697 
L 988 1316 
L 988 0 
L 425 0 
z
" id="ArialMT-6b" transform="scale(0.015625)"/>
     </defs>
     <use xlink:href="#ArialMT-4f"/>
     <use x="77.783203" xlink:href="#ArialMT-6e"/>
     <use x="133.398438" xlink:href="#ArialMT-63"/>
     <use x="183.398438" xlink:href="#ArialMT-65"/>
     <use x="239.013672" xlink:href="#ArialMT-20"/>
     <use x="266.796875" xlink:href="#ArialMT-6f"/>
     <use x="322.412109" xlink:href="#ArialMT-72"/>
     <use x="355.712891" xlink:href="#ArialMT-20"/>
     <use x="383.496094" xlink:href="#ArialMT-74"/>
     <use x="411.279297" xlink:href="#ArialMT-77"/>
     <use x="483.496094" xlink:href="#ArialMT-69"/>
     <use x="505.712891" xlink:href="#ArialMT-63"/>
     <use x="555.712891" xlink:href="#ArialMT-65"/>
     <use x="611.328125" xlink:href="#ArialMT-20"/>
     <use x="639.111328" xlink:href="#ArialMT-70"/>
     <use x="694.726562" xlink:href="#ArialMT-65"/>
     <use x="750.341797" xlink:href="#ArialMT-72"/>
     <use x="783.642578" xlink:href="#ArialMT-20"/>
     <use x="811.425781" xlink:href="#ArialMT-77"/>
     <use x="883.642578" xlink:href="#ArialMT-65"/>
     <use x="939.257812" xlink:href="#ArialMT-65"/>
     <use x="994.873047" xlink:href="#ArialMT-6b"/>
    </g>
   </g>
   <g id="text_3">
    <!-- Never -->
    <g style="fill:#262626;" transform="translate(271.898929 236.786614)scale(0.11 -0.11)">
     <defs>
      <path d="M 488 0 
L 488 4581 
L 1109 4581 
L 3516 984 
L 3516 4581 
L 4097 4581 
L 4097 0 
L 3475 0 
L 1069 3600 
L 1069 0 
L 488 0 
z
" id="ArialMT-4e" transform="scale(0.015625)"/>
      <path d="M 1344 0 
L 81 3319 
L 675 3319 
L 1388 1331 
Q 1503 1009 1600 663 
Q 1675 925 1809 1294 
L 2547 3319 
L 3125 3319 
L 1869 0 
L 1344 0 
z
" id="ArialMT-76" transform="scale(0.015625)"/>
     </defs>
     <use xlink:href="#ArialMT-4e"/>
     <use x="72.216797" xlink:href="#ArialMT-65"/>
     <use x="127.832031" xlink:href="#ArialMT-76"/>
     <use x="177.832031" xlink:href="#ArialMT-65"/>
     <use x="233.447266" xlink:href="#ArialMT-72"/>
    </g>
   </g>
   <g id="text_4">
    <!-- Most days -->
    <g style="fill:#262626;" transform="translate(318.170274 183.548219)scale(0.11 -0.11)">
     <defs>
      <path d="M 475 0 
L 475 4581 
L 1388 4581 
L 2472 1338 
Q 2622 884 2691 659 
Q 2769 909 2934 1394 
L 4031 4581 
L 4847 4581 
L 4847 0 
L 4263 0 
L 4263 3834 
L 2931 0 
L 2384 0 
L 1059 3900 
L 1059 0 
L 475 0 
z
" id="ArialMT-4d" transform="scale(0.015625)"/>
      <path d="M 2575 0 
L 2575 419 
Q 2259 -75 1647 -75 
Q 1250 -75 917 144 
Q 584 363 401 755 
Q 219 1147 219 1656 
Q 219 2153 384 2558 
Q 550 2963 881 3178 
Q 1213 3394 1622 3394 
Q 1922 3394 2156 3267 
Q 2391 3141 2538 2938 
L 2538 4581 
L 3097 4581 
L 3097 0 
L 2575 0 
z
M 797 1656 
Q 797 1019 1065 703 
Q 1334 388 1700 388 
Q 2069 388 2326 689 
Q 2584 991 2584 1609 
Q 2584 2291 2321 2609 
Q 2059 2928 1675 2928 
Q 1300 2928 1048 2622 
Q 797 2316 797 1656 
z
" id="ArialMT-64" transform="scale(0.015625)"/>
      <path d="M 2588 409 
Q 2275 144 1986 34 
Q 1697 -75 1366 -75 
Q 819 -75 525 192 
Q 231 459 231 875 
Q 231 1119 342 1320 
Q 453 1522 633 1644 
Q 813 1766 1038 1828 
Q 1203 1872 1538 1913 
Q 2219 1994 2541 2106 
Q 2544 2222 2544 2253 
Q 2544 2597 2384 2738 
Q 2169 2928 1744 2928 
Q 1347 2928 1158 2789 
Q 969 2650 878 2297 
L 328 2372 
Q 403 2725 575 2942 
Q 747 3159 1072 3276 
Q 1397 3394 1825 3394 
Q 2250 3394 2515 3294 
Q 2781 3194 2906 3042 
Q 3031 2891 3081 2659 
Q 3109 2516 3109 2141 
L 3109 1391 
Q 3109 606 3145 398 
Q 3181 191 3288 0 
L 2700 0 
Q 2613 175 2588 409 
z
M 2541 1666 
Q 2234 1541 1622 1453 
Q 1275 1403 1131 1340 
Q 988 1278 909 1158 
Q 831 1038 831 891 
Q 831 666 1001 516 
Q 1172 366 1500 366 
Q 1825 366 2078 508 
Q 2331 650 2450 897 
Q 2541 1088 2541 1459 
L 2541 1666 
z
" id="ArialMT-61" transform="scale(0.015625)"/>
      <path d="M 397 -1278 
L 334 -750 
Q 519 -800 656 -800 
Q 844 -800 956 -737 
Q 1069 -675 1141 -563 
Q 1194 -478 1313 -144 
Q 1328 -97 1363 -6 
L 103 3319 
L 709 3319 
L 1400 1397 
Q 1534 1031 1641 628 
Q 1738 1016 1872 1384 
L 2581 3319 
L 3144 3319 
L 1881 -56 
Q 1678 -603 1566 -809 
Q 1416 -1088 1222 -1217 
Q 1028 -1347 759 -1347 
Q 597 -1347 397 -1278 
z
" id="ArialMT-79" transform="scale(0.015625)"/>
     </defs>
     <use xlink:href="#ArialMT-4d"/>
     <use x="83.300781" xlink:href="#ArialMT-6f"/>
     <use x="138.916016" xlink:href="#ArialMT-73"/>
     <use x="188.916016" xlink:href="#ArialMT-74"/>
     <use x="216.699219" xlink:href="#ArialMT-20"/>
     <use x="244.482422" xlink:href="#ArialMT-64"/>
     <use x="300.097656" xlink:href="#ArialMT-61"/>
     <use x="355.712891" xlink:href="#ArialMT-79"/>
     <use x="405.712891" xlink:href="#ArialMT-73"/>
    </g>
   </g>
   <g id="text_5">
    <!-- Every day -->
    <g style="fill:#262626;" transform="translate(324.735483 155.634658)scale(0.11 -0.11)">
     <defs>
      <path d="M 506 0 
L 506 4581 
L 3819 4581 
L 3819 4041 
L 1113 4041 
L 1113 2638 
L 3647 2638 
L 3647 2100 
L 1113 2100 
L 1113 541 
L 3925 541 
L 3925 0 
L 506 0 
z
" id="ArialMT-45" transform="scale(0.015625)"/>
     </defs>
     <use xlink:href="#ArialMT-45"/>
     <use x="66.699219" xlink:href="#ArialMT-76"/>
     <use x="116.699219" xlink:href="#ArialMT-65"/>
     <use x="172.314453" xlink:href="#ArialMT-72"/>
     <use x="205.615234" xlink:href="#ArialMT-79"/>
     <use x="255.615234" xlink:href="#ArialMT-20"/>
     <use x="283.398438" xlink:href="#ArialMT-64"/>
     <use x="339.013672" xlink:href="#ArialMT-61"/>
     <use x="394.628906" xlink:href="#ArialMT-79"/>
    </g>
   </g>
   <g id="text_6">
    <!-- Ideal Remote Work -->
    <g style="fill:#262626;" transform="translate(170.15625 28.56)scale(0.12 -0.12)">
     <defs>
      <path d="M 597 0 
L 597 4581 
L 1203 4581 
L 1203 0 
L 597 0 
z
" id="ArialMT-49" transform="scale(0.015625)"/>
      <path d="M 503 0 
L 503 4581 
L 2534 4581 
Q 3147 4581 3465 4457 
Q 3784 4334 3975 4021 
Q 4166 3709 4166 3331 
Q 4166 2844 3850 2509 
Q 3534 2175 2875 2084 
Q 3116 1969 3241 1856 
Q 3506 1613 3744 1247 
L 4541 0 
L 3778 0 
L 3172 953 
Q 2906 1366 2734 1584 
Q 2563 1803 2427 1890 
Q 2291 1978 2150 2013 
Q 2047 2034 1813 2034 
L 1109 2034 
L 1109 0 
L 503 0 
z
M 1109 2559 
L 2413 2559 
Q 2828 2559 3062 2645 
Q 3297 2731 3419 2920 
Q 3541 3109 3541 3331 
Q 3541 3656 3305 3865 
Q 3069 4075 2559 4075 
L 1109 4075 
L 1109 2559 
z
" id="ArialMT-52" transform="scale(0.015625)"/>
      <path d="M 1294 0 
L 78 4581 
L 700 4581 
L 1397 1578 
Q 1509 1106 1591 641 
Q 1766 1375 1797 1488 
L 2669 4581 
L 3400 4581 
L 4056 2263 
Q 4303 1400 4413 641 
Q 4500 1075 4641 1638 
L 5359 4581 
L 5969 4581 
L 4713 0 
L 4128 0 
L 3163 3491 
Q 3041 3928 3019 4028 
Q 2947 3713 2884 3491 
L 1913 0 
L 1294 0 
z
" id="ArialMT-57" transform="scale(0.015625)"/>
     </defs>
     <use xlink:href="#ArialMT-49"/>
     <use x="27.783203" xlink:href="#ArialMT-64"/>
     <use x="83.398438" xlink:href="#ArialMT-65"/>
     <use x="139.013672" xlink:href="#ArialMT-61"/>
     <use x="194.628906" xlink:href="#ArialMT-6c"/>
     <use x="216.845703" xlink:href="#ArialMT-20"/>
     <use x="244.628906" xlink:href="#ArialMT-52"/>
     <use x="316.845703" xlink:href="#ArialMT-65"/>
     <use x="372.460938" xlink:href="#ArialMT-6d"/>
     <use x="455.761719" xlink:href="#ArialMT-6f"/>
     <use x="511.376953" xlink:href="#ArialMT-74"/>
     <use x="539.160156" xlink:href="#ArialMT-65"/>
     <use x="594.775391" xlink:href="#ArialMT-20"/>
     <use x="622.558594" xlink:href="#ArialMT-57"/>
     <use x="715.193359" xlink:href="#ArialMT-6f"/>
     <use x="770.808594" xlink:href="#ArialMT-72"/>
     <use x="804.109375" xlink:href="#ArialMT-6b"/>
    </g>
   </g>
   <g id="legend_1">
    <g id="patch_7">
     <path d="M 59.6 98.12875 
L 205.2475 98.12875 
Q 206.8475 98.12875 206.8475 96.52875 
L 206.8475 40.16 
Q 206.8475 38.56 205.2475 38.56 
L 59.6 38.56 
Q 58 38.56 58 40.16 
L 58 96.52875 
Q 58 98.12875 59.6 98.12875 
z
" style="fill:#eaeaf2;opacity:0.8;stroke:#cccccc;stroke-linejoin:miter;"/>
    </g>
    <g id="patch_8">
     <path d="M 61.2 47.58875 
L 77.2 47.58875 
L 77.2 41.98875 
L 61.2 41.98875 
z
" style="fill:#4c72b0;stroke:#ffffff;stroke-linejoin:miter;"/>
    </g>
    <g id="text_7">
     <!-- Once per month or less - 50.00 % -->
     <g style="fill:#262626;" transform="translate(83.6 47.58875)scale(0.08 -0.08)">
      <defs>
       <path d="M 203 1375 
L 203 1941 
L 1931 1941 
L 1931 1375 
L 203 1375 
z
" id="ArialMT-2d" transform="scale(0.015625)"/>
       <path d="M 266 1200 
L 856 1250 
Q 922 819 1161 601 
Q 1400 384 1738 384 
Q 2144 384 2425 690 
Q 2706 997 2706 1503 
Q 2706 1984 2436 2262 
Q 2166 2541 1728 2541 
Q 1456 2541 1237 2417 
Q 1019 2294 894 2097 
L 366 2166 
L 809 4519 
L 3088 4519 
L 3088 3981 
L 1259 3981 
L 1013 2750 
Q 1425 3038 1878 3038 
Q 2478 3038 2890 2622 
Q 3303 2206 3303 1553 
Q 3303 931 2941 478 
Q 2500 -78 1738 -78 
Q 1113 -78 717 272 
Q 322 622 266 1200 
z
" id="ArialMT-35" transform="scale(0.015625)"/>
       <path d="M 266 2259 
Q 266 3072 433 3567 
Q 600 4063 929 4331 
Q 1259 4600 1759 4600 
Q 2128 4600 2406 4451 
Q 2684 4303 2865 4023 
Q 3047 3744 3150 3342 
Q 3253 2941 3253 2259 
Q 3253 1453 3087 958 
Q 2922 463 2592 192 
Q 2263 -78 1759 -78 
Q 1097 -78 719 397 
Q 266 969 266 2259 
z
M 844 2259 
Q 844 1131 1108 757 
Q 1372 384 1759 384 
Q 2147 384 2411 759 
Q 2675 1134 2675 2259 
Q 2675 3391 2411 3762 
Q 2147 4134 1753 4134 
Q 1366 4134 1134 3806 
Q 844 3388 844 2259 
z
" id="ArialMT-30" transform="scale(0.015625)"/>
       <path d="M 581 0 
L 581 641 
L 1222 641 
L 1222 0 
L 581 0 
z
" id="ArialMT-2e" transform="scale(0.015625)"/>
       <path d="M 372 3481 
Q 372 3972 619 4315 
Q 866 4659 1334 4659 
Q 1766 4659 2048 4351 
Q 2331 4044 2331 3447 
Q 2331 2866 2045 2552 
Q 1759 2238 1341 2238 
Q 925 2238 648 2547 
Q 372 2856 372 3481 
z
M 1350 4272 
Q 1141 4272 1002 4090 
Q 863 3909 863 3425 
Q 863 2984 1003 2804 
Q 1144 2625 1350 2625 
Q 1563 2625 1702 2806 
Q 1841 2988 1841 3469 
Q 1841 3913 1700 4092 
Q 1559 4272 1350 4272 
z
M 1353 -169 
L 3859 4659 
L 4316 4659 
L 1819 -169 
L 1353 -169 
z
M 3334 1075 
Q 3334 1569 3581 1911 
Q 3828 2253 4300 2253 
Q 4731 2253 5014 1945 
Q 5297 1638 5297 1041 
Q 5297 459 5011 145 
Q 4725 -169 4303 -169 
Q 3888 -169 3611 142 
Q 3334 453 3334 1075 
z
M 4316 1866 
Q 4103 1866 3964 1684 
Q 3825 1503 3825 1019 
Q 3825 581 3965 400 
Q 4106 219 4313 219 
Q 4528 219 4667 400 
Q 4806 581 4806 1063 
Q 4806 1506 4665 1686 
Q 4525 1866 4316 1866 
z
" id="ArialMT-25" transform="scale(0.015625)"/>
      </defs>
      <use xlink:href="#ArialMT-4f"/>
      <use x="77.783203" xlink:href="#ArialMT-6e"/>
      <use x="133.398438" xlink:href="#ArialMT-63"/>
      <use x="183.398438" xlink:href="#ArialMT-65"/>
      <use x="239.013672" xlink:href="#ArialMT-20"/>
      <use x="266.796875" xlink:href="#ArialMT-70"/>
      <use x="322.412109" xlink:href="#ArialMT-65"/>
      <use x="378.027344" xlink:href="#ArialMT-72"/>
      <use x="411.328125" xlink:href="#ArialMT-20"/>
      <use x="439.111328" xlink:href="#ArialMT-6d"/>
      <use x="522.412109" xlink:href="#ArialMT-6f"/>
      <use x="578.027344" xlink:href="#ArialMT-6e"/>
      <use x="633.642578" xlink:href="#ArialMT-74"/>
      <use x="661.425781" xlink:href="#ArialMT-68"/>
      <use x="717.041016" xlink:href="#ArialMT-20"/>
      <use x="744.824219" xlink:href="#ArialMT-6f"/>
      <use x="800.439453" xlink:href="#ArialMT-72"/>
      <use x="833.740234" xlink:href="#ArialMT-20"/>
      <use x="861.523438" xlink:href="#ArialMT-6c"/>
      <use x="883.740234" xlink:href="#ArialMT-65"/>
      <use x="939.355469" xlink:href="#ArialMT-73"/>
      <use x="989.355469" xlink:href="#ArialMT-73"/>
      <use x="1039.355469" xlink:href="#ArialMT-20"/>
      <use x="1067.138672" xlink:href="#ArialMT-2d"/>
      <use x="1100.439453" xlink:href="#ArialMT-20"/>
      <use x="1128.222656" xlink:href="#ArialMT-35"/>
      <use x="1183.837891" xlink:href="#ArialMT-30"/>
      <use x="1239.453125" xlink:href="#ArialMT-2e"/>
      <use x="1267.236328" xlink:href="#ArialMT-30"/>
      <use x="1322.851562" xlink:href="#ArialMT-30"/>
      <use x="1378.466797" xlink:href="#ArialMT-20"/>
      <use x="1406.25" xlink:href="#ArialMT-25"/>
     </g>
    </g>
    <g id="patch_9">
     <path d="M 61.2 59.0075 
L 77.2 59.0075 
L 77.2 53.4075 
L 61.2 53.4075 
z
" style="fill:#dd8452;stroke:#ffffff;stroke-linejoin:miter;"/>
    </g>
    <g id="text_8">
     <!-- Once or twice per week - 25.00 % -->
     <g style="fill:#262626;" transform="translate(83.6 59.0075)scale(0.08 -0.08)">
      <defs>
       <path d="M 3222 541 
L 3222 0 
L 194 0 
Q 188 203 259 391 
Q 375 700 629 1000 
Q 884 1300 1366 1694 
Q 2113 2306 2375 2664 
Q 2638 3022 2638 3341 
Q 2638 3675 2398 3904 
Q 2159 4134 1775 4134 
Q 1369 4134 1125 3890 
Q 881 3647 878 3216 
L 300 3275 
Q 359 3922 746 4261 
Q 1134 4600 1788 4600 
Q 2447 4600 2831 4234 
Q 3216 3869 3216 3328 
Q 3216 3053 3103 2787 
Q 2991 2522 2730 2228 
Q 2469 1934 1863 1422 
Q 1356 997 1212 845 
Q 1069 694 975 541 
L 3222 541 
z
" id="ArialMT-32" transform="scale(0.015625)"/>
      </defs>
      <use xlink:href="#ArialMT-4f"/>
      <use x="77.783203" xlink:href="#ArialMT-6e"/>
      <use x="133.398438" xlink:href="#ArialMT-63"/>
      <use x="183.398438" xlink:href="#ArialMT-65"/>
      <use x="239.013672" xlink:href="#ArialMT-20"/>
      <use x="266.796875" xlink:href="#ArialMT-6f"/>
      <use x="322.412109" xlink:href="#ArialMT-72"/>
      <use x="355.712891" xlink:href="#ArialMT-20"/>
      <use x="383.496094" xlink:href="#ArialMT-74"/>
      <use x="411.279297" xlink:href="#ArialMT-77"/>
      <use x="483.496094" xlink:href="#ArialMT-69"/>
      <use x="505.712891" xlink:href="#ArialMT-63"/>
      <use x="555.712891" xlink:href="#ArialMT-65"/>
      <use x="611.328125" xlink:href="#ArialMT-20"/>
      <use x="639.111328" xlink:href="#ArialMT-70"/>
      <use x="694.726562" xlink:href="#ArialMT-65"/>
      <use x="750.341797" xlink:href="#ArialMT-72"/>
      <use x="783.642578" xlink:href="#ArialMT-20"/>
      <use x="811.425781" xlink:href="#ArialMT-77"/>
      <use x="883.642578" xlink:href="#ArialMT-65"/>
      <use x="939.257812" xlink:href="#ArialMT-65"/>
      <use x="994.873047" xlink:href="#ArialMT-6b"/>
      <use x="1044.873047" xlink:href="#ArialMT-20"/>
      <use x="1072.65625" xlink:href="#ArialMT-2d"/>
      <use x="1105.957031" xlink:href="#ArialMT-20"/>
      <use x="1133.740234" xlink:href="#ArialMT-32"/>
      <use x="1189.355469" xlink:href="#ArialMT-35"/>
      <use x="1244.970703" xlink:href="#ArialMT-2e"/>
      <use x="1272.753906" xlink:href="#ArialMT-30"/>
      <use x="1328.369141" xlink:href="#ArialMT-30"/>
      <use x="1383.984375" xlink:href="#ArialMT-20"/>
      <use x="1411.767578" xlink:href="#ArialMT-25"/>
     </g>
    </g>
    <g id="patch_10">
     <path d="M 61.2 70.32375 
L 77.2 70.32375 
L 77.2 64.72375 
L 61.2 64.72375 
z
" style="fill:#55a868;stroke:#ffffff;stroke-linejoin:miter;"/>
    </g>
    <g id="text_9">
     <!-- Never - 16.18 % -->
     <g style="fill:#262626;" transform="translate(83.6 70.32375)scale(0.08 -0.08)">
      <defs>
       <path d="M 2384 0 
L 1822 0 
L 1822 3584 
Q 1619 3391 1289 3197 
Q 959 3003 697 2906 
L 697 3450 
Q 1169 3672 1522 3987 
Q 1875 4303 2022 4600 
L 2384 4600 
L 2384 0 
z
" id="ArialMT-31" transform="scale(0.015625)"/>
       <path d="M 3184 3459 
L 2625 3416 
Q 2550 3747 2413 3897 
Q 2184 4138 1850 4138 
Q 1581 4138 1378 3988 
Q 1113 3794 959 3422 
Q 806 3050 800 2363 
Q 1003 2672 1297 2822 
Q 1591 2972 1913 2972 
Q 2475 2972 2870 2558 
Q 3266 2144 3266 1488 
Q 3266 1056 3080 686 
Q 2894 316 2569 119 
Q 2244 -78 1831 -78 
Q 1128 -78 684 439 
Q 241 956 241 2144 
Q 241 3472 731 4075 
Q 1159 4600 1884 4600 
Q 2425 4600 2770 4297 
Q 3116 3994 3184 3459 
z
M 888 1484 
Q 888 1194 1011 928 
Q 1134 663 1356 523 
Q 1578 384 1822 384 
Q 2178 384 2434 671 
Q 2691 959 2691 1453 
Q 2691 1928 2437 2201 
Q 2184 2475 1800 2475 
Q 1419 2475 1153 2201 
Q 888 1928 888 1484 
z
" id="ArialMT-36" transform="scale(0.015625)"/>
       <path d="M 1131 2484 
Q 781 2613 612 2850 
Q 444 3088 444 3419 
Q 444 3919 803 4259 
Q 1163 4600 1759 4600 
Q 2359 4600 2725 4251 
Q 3091 3903 3091 3403 
Q 3091 3084 2923 2848 
Q 2756 2613 2416 2484 
Q 2838 2347 3058 2040 
Q 3278 1734 3278 1309 
Q 3278 722 2862 322 
Q 2447 -78 1769 -78 
Q 1091 -78 675 323 
Q 259 725 259 1325 
Q 259 1772 486 2073 
Q 713 2375 1131 2484 
z
M 1019 3438 
Q 1019 3113 1228 2906 
Q 1438 2700 1772 2700 
Q 2097 2700 2305 2904 
Q 2513 3109 2513 3406 
Q 2513 3716 2298 3927 
Q 2084 4138 1766 4138 
Q 1444 4138 1231 3931 
Q 1019 3725 1019 3438 
z
M 838 1322 
Q 838 1081 952 856 
Q 1066 631 1291 507 
Q 1516 384 1775 384 
Q 2178 384 2440 643 
Q 2703 903 2703 1303 
Q 2703 1709 2433 1975 
Q 2163 2241 1756 2241 
Q 1359 2241 1098 1978 
Q 838 1716 838 1322 
z
" id="ArialMT-38" transform="scale(0.015625)"/>
      </defs>
      <use xlink:href="#ArialMT-4e"/>
      <use x="72.216797" xlink:href="#ArialMT-65"/>
      <use x="127.832031" xlink:href="#ArialMT-76"/>
      <use x="177.832031" xlink:href="#ArialMT-65"/>
      <use x="233.447266" xlink:href="#ArialMT-72"/>
      <use x="266.748047" xlink:href="#ArialMT-20"/>
      <use x="294.53125" xlink:href="#ArialMT-2d"/>
      <use x="327.832031" xlink:href="#ArialMT-20"/>
      <use x="355.615234" xlink:href="#ArialMT-31"/>
      <use x="411.230469" xlink:href="#ArialMT-36"/>
      <use x="466.845703" xlink:href="#ArialMT-2e"/>
      <use x="494.628906" xlink:href="#ArialMT-31"/>
      <use x="550.244141" xlink:href="#ArialMT-38"/>
      <use x="605.859375" xlink:href="#ArialMT-20"/>
      <use x="633.642578" xlink:href="#ArialMT-25"/>
     </g>
    </g>
    <g id="patch_11">
     <path d="M 61.2 81.7375 
L 77.2 81.7375 
L 77.2 76.1375 
L 61.2 76.1375 
z
" style="fill:#c44e52;stroke:#ffffff;stroke-linejoin:miter;"/>
    </g>
    <g id="text_10">
     <!-- Most days - 5.88 % -->
     <g style="fill:#262626;" transform="translate(83.6 81.7375)scale(0.08 -0.08)">
      <use xlink:href="#ArialMT-4d"/>
      <use x="83.300781" xlink:href="#ArialMT-6f"/>
      <use x="138.916016" xlink:href="#ArialMT-73"/>
      <use x="188.916016" xlink:href="#ArialMT-74"/>
      <use x="216.699219" xlink:href="#ArialMT-20"/>
      <use x="244.482422" xlink:href="#ArialMT-64"/>
      <use x="300.097656" xlink:href="#ArialMT-61"/>
      <use x="355.712891" xlink:href="#ArialMT-79"/>
      <use x="405.712891" xlink:href="#ArialMT-73"/>
      <use x="455.712891" xlink:href="#ArialMT-20"/>
      <use x="483.496094" xlink:href="#ArialMT-2d"/>
      <use x="516.796875" xlink:href="#ArialMT-20"/>
      <use x="544.580078" xlink:href="#ArialMT-35"/>
      <use x="600.195312" xlink:href="#ArialMT-2e"/>
      <use x="627.978516" xlink:href="#ArialMT-38"/>
      <use x="683.59375" xlink:href="#ArialMT-38"/>
      <use x="739.208984" xlink:href="#ArialMT-20"/>
      <use x="766.992188" xlink:href="#ArialMT-25"/>
     </g>
    </g>
    <g id="patch_12">
     <path d="M 61.2 93.245 
L 77.2 93.245 
L 77.2 87.645 
L 61.2 87.645 
z
" style="fill:#8172b3;stroke:#ffffff;stroke-linejoin:miter;"/>
    </g>
    <g id="text_11">
     <!-- Every day - 2.94 % -->
     <g style="fill:#262626;" transform="translate(83.6 93.245)scale(0.08 -0.08)">
      <defs>
       <path d="M 350 1059 
L 891 1109 
Q 959 728 1153 556 
Q 1347 384 1650 384 
Q 1909 384 2104 503 
Q 2300 622 2425 820 
Q 2550 1019 2634 1356 
Q 2719 1694 2719 2044 
Q 2719 2081 2716 2156 
Q 2547 1888 2255 1720 
Q 1963 1553 1622 1553 
Q 1053 1553 659 1965 
Q 266 2378 266 3053 
Q 266 3750 677 4175 
Q 1088 4600 1706 4600 
Q 2153 4600 2523 4359 
Q 2894 4119 3086 3673 
Q 3278 3228 3278 2384 
Q 3278 1506 3087 986 
Q 2897 466 2520 194 
Q 2144 -78 1638 -78 
Q 1100 -78 759 220 
Q 419 519 350 1059 
z
M 2653 3081 
Q 2653 3566 2395 3850 
Q 2138 4134 1775 4134 
Q 1400 4134 1122 3828 
Q 844 3522 844 3034 
Q 844 2597 1108 2323 
Q 1372 2050 1759 2050 
Q 2150 2050 2401 2323 
Q 2653 2597 2653 3081 
z
" id="ArialMT-39" transform="scale(0.015625)"/>
       <path d="M 2069 0 
L 2069 1097 
L 81 1097 
L 81 1613 
L 2172 4581 
L 2631 4581 
L 2631 1613 
L 3250 1613 
L 3250 1097 
L 2631 1097 
L 2631 0 
L 2069 0 
z
M 2069 1613 
L 2069 3678 
L 634 1613 
L 2069 1613 
z
" id="ArialMT-34" transform="scale(0.015625)"/>
      </defs>
      <use xlink:href="#ArialMT-45"/>
      <use x="66.699219" xlink:href="#ArialMT-76"/>
      <use x="116.699219" xlink:href="#ArialMT-65"/>
      <use x="172.314453" xlink:href="#ArialMT-72"/>
      <use x="205.615234" xlink:href="#ArialMT-79"/>
      <use x="255.615234" xlink:href="#ArialMT-20"/>
      <use x="283.398438" xlink:href="#ArialMT-64"/>
      <use x="339.013672" xlink:href="#ArialMT-61"/>
      <use x="394.628906" xlink:href="#ArialMT-79"/>
      <use x="444.628906" xlink:href="#ArialMT-20"/>
      <use x="472.412109" xlink:href="#ArialMT-2d"/>
      <use x="505.712891" xlink:href="#ArialMT-20"/>
      <use x="533.496094" xlink:href="#ArialMT-32"/>
      <use x="589.111328" xlink:href="#ArialMT-2e"/>
      <use x="616.894531" xlink:href="#ArialMT-39"/>
      <use x="672.509766" xlink:href="#ArialMT-34"/>
      <use x="728.125" xlink:href="#ArialMT-20"/>
      <use x="755.908203" xlink:href="#ArialMT-25"/>
     </g>
    </g>
   </g>
  </g>
 </g>
</svg>
