<?xml version="1.0" encoding="utf-8" standalone="no"?>
<!DOCTYPE svg PUBLIC "-//W3C//DTD SVG 1.1//EN"
  "http://www.w3.org/Graphics/SVG/1.1/DTD/svg11.dtd">
<svg xmlns:xlink="http://www.w3.org/1999/xlink" width="460.8pt" height="345.6pt" viewBox="0 0 460.8 345.6" xmlns="http://www.w3.org/2000/svg" version="1.1">
 <metadata>
  <rdf:RDF xmlns:dc="http://purl.org/dc/elements/1.1/" xmlns:cc="http://creativecommons.org/ns#" xmlns:rdf="http://www.w3.org/1999/02/22-rdf-syntax-ns#">
   <cc:Work>
    <dc:type rdf:resource="http://purl.org/dc/dcmitype/StillImage"/>
    <dc:date>2023-03-07T17:55:17.808015</dc:date>
    <dc:format>image/svg+xml</dc:format>
    <dc:creator>
     <cc:Agent>
      <dc:title>Matplotlib v3.5.2, https://matplotlib.org/</dc:title>
     </cc:Agent>
    </dc:creator>
   </cc:Work>
  </rdf:RDF>
 </metadata>
 <defs>
  <style type="text/css">*{stroke-linejoin: round; stroke-linecap: butt}</style>
 </defs>
 <g id="figure_1">
  <g id="patch_1">
   <path d="M 0 345.6 
L 460.8 345.6 
L 460.8 0 
L 0 0 
z
" style="fill: #ffffff"/>
  </g>
  <g id="axes_1">
   <g id="matplotlib.axis_1"/>
   <g id="matplotlib.axis_2"/>
   <g id="patch_2">
    <path d="M 356.383448 174.441181 
C 356.383448 154.867157 351.573673 135.589724 342.378534 118.309913 
C 333.183396 101.030103 319.881549 86.271572 303.646742 75.336607 
C 287.411935 64.401641 268.736157 57.62162 249.26735 55.59481 
C 229.798543 53.568 210.126699 56.355822 191.987654 63.71228 
C 173.84861 71.068737 157.792059 82.770897 145.234824 97.786166 
C 132.67759 112.801434 124.000214 130.67478 119.968383 149.829068 
C 115.936552 168.983357 116.672449 188.838125 122.11114 207.641398 
C 127.54983 226.44467 137.526497 243.626623 151.160803 257.671128 
L 236.894787 174.441181 
L 356.383448 174.441181 
z
" style="fill: #4c72b0; stroke: #ffffff; stroke-linejoin: miter"/>
   </g>
   <g id="patch_3">
    <path d="M 151.160803 257.671128 
C 171.949067 279.084823 200.024045 291.951975 229.816198 293.719988 
C 259.608351 295.488 289.008114 286.03168 312.183134 267.226982 
L 236.894787 174.441181 
L 151.160803 257.671128 
z
" style="fill: #dd8452; stroke: #ffffff; stroke-linejoin: miter"/>
   </g>
   <g id="patch_4">
    <path d="M 312.183134 267.226982 
C 317.686665 262.761302 322.781979 257.814807 327.408787 252.446027 
C 332.035594 247.077247 336.175572 241.307443 339.779732 235.204889 
L 236.894787 174.441181 
L 312.183134 267.226982 
z
" style="fill: #55a868; stroke: #ffffff; stroke-linejoin: miter"/>
   </g>
   <g id="patch_5">
    <path d="M 339.779732 235.204889 
C 342.782596 230.120449 345.404433 224.8204 347.623685 219.348321 
C 349.842938 213.876243 351.653506 208.247176 353.040502 202.507406 
L 236.894787 174.441181 
L 339.779732 235.204889 
z
" style="fill: #c44e52; stroke: #ffffff; stroke-linejoin: miter"/>
   </g>
   <g id="patch_6">
    <path d="M 353.040502 202.507406 
C 354.149917 197.916345 354.98614 193.26354 355.544768 188.57349 
C 356.103396 183.883439 356.383448 179.164389 356.383448 174.441187 
L 236.894787 174.441181 
L 353.040502 202.507406 
z
" style="fill: #8172b3; stroke: #ffffff; stroke-linejoin: miter"/>
   </g>
   <g id="text_1">
    <!-- Bachelor's Degree -->
    <g style="fill: #262626" transform="translate(99.599017 60.955053)scale(0.11 -0.11)">
     <defs>
      <path id="ArialMT-42" d="M 469 0 
L 469 4581 
L 2188 4581 
Q 2713 4581 3030 4442 
Q 3347 4303 3526 4014 
Q 3706 3725 3706 3409 
Q 3706 3116 3547 2856 
Q 3388 2597 3066 2438 
Q 3481 2316 3704 2022 
Q 3928 1728 3928 1328 
Q 3928 1006 3792 729 
Q 3656 453 3456 303 
Q 3256 153 2954 76 
Q 2653 0 2216 0 
L 469 0 
z
M 1075 2656 
L 2066 2656 
Q 2469 2656 2644 2709 
Q 2875 2778 2992 2937 
Q 3109 3097 3109 3338 
Q 3109 3566 3000 3739 
Q 2891 3913 2687 3977 
Q 2484 4041 1991 4041 
L 1075 4041 
L 1075 2656 
z
M 1075 541 
L 2216 541 
Q 2509 541 2628 563 
Q 2838 600 2978 687 
Q 3119 775 3209 942 
Q 3300 1109 3300 1328 
Q 3300 1584 3169 1773 
Q 3038 1963 2805 2039 
Q 2572 2116 2134 2116 
L 1075 2116 
L 1075 541 
z
" transform="scale(0.015625)"/>
      <path id="ArialMT-61" d="M 2588 409 
Q 2275 144 1986 34 
Q 1697 -75 1366 -75 
Q 819 -75 525 192 
Q 231 459 231 875 
Q 231 1119 342 1320 
Q 453 1522 633 1644 
Q 813 1766 1038 1828 
Q 1203 1872 1538 1913 
Q 2219 1994 2541 2106 
Q 2544 2222 2544 2253 
Q 2544 2597 2384 2738 
Q 2169 2928 1744 2928 
Q 1347 2928 1158 2789 
Q 969 2650 878 2297 
L 328 2372 
Q 403 2725 575 2942 
Q 747 3159 1072 3276 
Q 1397 3394 1825 3394 
Q 2250 3394 2515 3294 
Q 2781 3194 2906 3042 
Q 3031 2891 3081 2659 
Q 3109 2516 3109 2141 
L 3109 1391 
Q 3109 606 3145 398 
Q 3181 191 3288 0 
L 2700 0 
Q 2613 175 2588 409 
z
M 2541 1666 
Q 2234 1541 1622 1453 
Q 1275 1403 1131 1340 
Q 988 1278 909 1158 
Q 831 1038 831 891 
Q 831 666 1001 516 
Q 1172 366 1500 366 
Q 1825 366 2078 508 
Q 2331 650 2450 897 
Q 2541 1088 2541 1459 
L 2541 1666 
z
" transform="scale(0.015625)"/>
      <path id="ArialMT-63" d="M 2588 1216 
L 3141 1144 
Q 3050 572 2676 248 
Q 2303 -75 1759 -75 
Q 1078 -75 664 370 
Q 250 816 250 1647 
Q 250 2184 428 2587 
Q 606 2991 970 3192 
Q 1334 3394 1763 3394 
Q 2303 3394 2647 3120 
Q 2991 2847 3088 2344 
L 2541 2259 
Q 2463 2594 2264 2762 
Q 2066 2931 1784 2931 
Q 1359 2931 1093 2626 
Q 828 2322 828 1663 
Q 828 994 1084 691 
Q 1341 388 1753 388 
Q 2084 388 2306 591 
Q 2528 794 2588 1216 
z
" transform="scale(0.015625)"/>
      <path id="ArialMT-68" d="M 422 0 
L 422 4581 
L 984 4581 
L 984 2938 
Q 1378 3394 1978 3394 
Q 2347 3394 2619 3248 
Q 2891 3103 3008 2847 
Q 3125 2591 3125 2103 
L 3125 0 
L 2563 0 
L 2563 2103 
Q 2563 2525 2380 2717 
Q 2197 2909 1863 2909 
Q 1613 2909 1392 2779 
Q 1172 2650 1078 2428 
Q 984 2206 984 1816 
L 984 0 
L 422 0 
z
" transform="scale(0.015625)"/>
      <path id="ArialMT-65" d="M 2694 1069 
L 3275 997 
Q 3138 488 2766 206 
Q 2394 -75 1816 -75 
Q 1088 -75 661 373 
Q 234 822 234 1631 
Q 234 2469 665 2931 
Q 1097 3394 1784 3394 
Q 2450 3394 2872 2941 
Q 3294 2488 3294 1666 
Q 3294 1616 3291 1516 
L 816 1516 
Q 847 969 1125 678 
Q 1403 388 1819 388 
Q 2128 388 2347 550 
Q 2566 713 2694 1069 
z
M 847 1978 
L 2700 1978 
Q 2663 2397 2488 2606 
Q 2219 2931 1791 2931 
Q 1403 2931 1139 2672 
Q 875 2413 847 1978 
z
" transform="scale(0.015625)"/>
      <path id="ArialMT-6c" d="M 409 0 
L 409 4581 
L 972 4581 
L 972 0 
L 409 0 
z
" transform="scale(0.015625)"/>
      <path id="ArialMT-6f" d="M 213 1659 
Q 213 2581 725 3025 
Q 1153 3394 1769 3394 
Q 2453 3394 2887 2945 
Q 3322 2497 3322 1706 
Q 3322 1066 3130 698 
Q 2938 331 2570 128 
Q 2203 -75 1769 -75 
Q 1072 -75 642 372 
Q 213 819 213 1659 
z
M 791 1659 
Q 791 1022 1069 705 
Q 1347 388 1769 388 
Q 2188 388 2466 706 
Q 2744 1025 2744 1678 
Q 2744 2294 2464 2611 
Q 2184 2928 1769 2928 
Q 1347 2928 1069 2612 
Q 791 2297 791 1659 
z
" transform="scale(0.015625)"/>
      <path id="ArialMT-72" d="M 416 0 
L 416 3319 
L 922 3319 
L 922 2816 
Q 1116 3169 1280 3281 
Q 1444 3394 1641 3394 
Q 1925 3394 2219 3213 
L 2025 2691 
Q 1819 2813 1613 2813 
Q 1428 2813 1281 2702 
Q 1134 2591 1072 2394 
Q 978 2094 978 1738 
L 978 0 
L 416 0 
z
" transform="scale(0.015625)"/>
      <path id="ArialMT-27" d="M 425 2959 
L 281 3816 
L 281 4581 
L 922 4581 
L 922 3816 
L 772 2959 
L 425 2959 
z
" transform="scale(0.015625)"/>
      <path id="ArialMT-73" d="M 197 991 
L 753 1078 
Q 800 744 1014 566 
Q 1228 388 1613 388 
Q 2000 388 2187 545 
Q 2375 703 2375 916 
Q 2375 1106 2209 1216 
Q 2094 1291 1634 1406 
Q 1016 1563 777 1677 
Q 538 1791 414 1992 
Q 291 2194 291 2438 
Q 291 2659 392 2848 
Q 494 3038 669 3163 
Q 800 3259 1026 3326 
Q 1253 3394 1513 3394 
Q 1903 3394 2198 3281 
Q 2494 3169 2634 2976 
Q 2775 2784 2828 2463 
L 2278 2388 
Q 2241 2644 2061 2787 
Q 1881 2931 1553 2931 
Q 1166 2931 1000 2803 
Q 834 2675 834 2503 
Q 834 2394 903 2306 
Q 972 2216 1119 2156 
Q 1203 2125 1616 2013 
Q 2213 1853 2448 1751 
Q 2684 1650 2818 1456 
Q 2953 1263 2953 975 
Q 2953 694 2789 445 
Q 2625 197 2315 61 
Q 2006 -75 1616 -75 
Q 969 -75 630 194 
Q 291 463 197 991 
z
" transform="scale(0.015625)"/>
      <path id="ArialMT-20" transform="scale(0.015625)"/>
      <path id="ArialMT-44" d="M 494 0 
L 494 4581 
L 2072 4581 
Q 2606 4581 2888 4516 
Q 3281 4425 3559 4188 
Q 3922 3881 4101 3404 
Q 4281 2928 4281 2316 
Q 4281 1794 4159 1391 
Q 4038 988 3847 723 
Q 3656 459 3429 307 
Q 3203 156 2883 78 
Q 2563 0 2147 0 
L 494 0 
z
M 1100 541 
L 2078 541 
Q 2531 541 2789 625 
Q 3047 709 3200 863 
Q 3416 1078 3536 1442 
Q 3656 1806 3656 2325 
Q 3656 3044 3420 3430 
Q 3184 3816 2847 3947 
Q 2603 4041 2063 4041 
L 1100 4041 
L 1100 541 
z
" transform="scale(0.015625)"/>
      <path id="ArialMT-67" d="M 319 -275 
L 866 -356 
Q 900 -609 1056 -725 
Q 1266 -881 1628 -881 
Q 2019 -881 2231 -725 
Q 2444 -569 2519 -288 
Q 2563 -116 2559 434 
Q 2191 0 1641 0 
Q 956 0 581 494 
Q 206 988 206 1678 
Q 206 2153 378 2554 
Q 550 2956 876 3175 
Q 1203 3394 1644 3394 
Q 2231 3394 2613 2919 
L 2613 3319 
L 3131 3319 
L 3131 450 
Q 3131 -325 2973 -648 
Q 2816 -972 2473 -1159 
Q 2131 -1347 1631 -1347 
Q 1038 -1347 672 -1080 
Q 306 -813 319 -275 
z
M 784 1719 
Q 784 1066 1043 766 
Q 1303 466 1694 466 
Q 2081 466 2343 764 
Q 2606 1063 2606 1700 
Q 2606 2309 2336 2618 
Q 2066 2928 1684 2928 
Q 1309 2928 1046 2623 
Q 784 2319 784 1719 
z
" transform="scale(0.015625)"/>
     </defs>
     <use xlink:href="#ArialMT-42"/>
     <use xlink:href="#ArialMT-61" x="66.699219"/>
     <use xlink:href="#ArialMT-63" x="122.314453"/>
     <use xlink:href="#ArialMT-68" x="172.314453"/>
     <use xlink:href="#ArialMT-65" x="227.929688"/>
     <use xlink:href="#ArialMT-6c" x="283.544922"/>
     <use xlink:href="#ArialMT-6f" x="305.761719"/>
     <use xlink:href="#ArialMT-72" x="361.376953"/>
     <use xlink:href="#ArialMT-27" x="394.677734"/>
     <use xlink:href="#ArialMT-73" x="413.769531"/>
     <use xlink:href="#ArialMT-20" x="463.769531"/>
     <use xlink:href="#ArialMT-44" x="491.552734"/>
     <use xlink:href="#ArialMT-65" x="563.769531"/>
     <use xlink:href="#ArialMT-67" x="619.384766"/>
     <use xlink:href="#ArialMT-72" x="675"/>
     <use xlink:href="#ArialMT-65" x="708.300781"/>
     <use xlink:href="#ArialMT-65" x="763.916016"/>
    </g>
   </g>
   <g id="text_2">
    <!-- Master's or Professional Degree -->
    <g style="fill: #262626" transform="translate(72.695081 302.530178)scale(0.11 -0.11)">
     <defs>
      <path id="ArialMT-4d" d="M 475 0 
L 475 4581 
L 1388 4581 
L 2472 1338 
Q 2622 884 2691 659 
Q 2769 909 2934 1394 
L 4031 4581 
L 4847 4581 
L 4847 0 
L 4263 0 
L 4263 3834 
L 2931 0 
L 2384 0 
L 1059 3900 
L 1059 0 
L 475 0 
z
" transform="scale(0.015625)"/>
      <path id="ArialMT-74" d="M 1650 503 
L 1731 6 
Q 1494 -44 1306 -44 
Q 1000 -44 831 53 
Q 663 150 594 308 
Q 525 466 525 972 
L 525 2881 
L 113 2881 
L 113 3319 
L 525 3319 
L 525 4141 
L 1084 4478 
L 1084 3319 
L 1650 3319 
L 1650 2881 
L 1084 2881 
L 1084 941 
Q 1084 700 1114 631 
Q 1144 563 1211 522 
Q 1278 481 1403 481 
Q 1497 481 1650 503 
z
" transform="scale(0.015625)"/>
      <path id="ArialMT-50" d="M 494 0 
L 494 4581 
L 2222 4581 
Q 2678 4581 2919 4538 
Q 3256 4481 3484 4323 
Q 3713 4166 3852 3881 
Q 3991 3597 3991 3256 
Q 3991 2672 3619 2267 
Q 3247 1863 2275 1863 
L 1100 1863 
L 1100 0 
L 494 0 
z
M 1100 2403 
L 2284 2403 
Q 2872 2403 3119 2622 
Q 3366 2841 3366 3238 
Q 3366 3525 3220 3729 
Q 3075 3934 2838 4000 
Q 2684 4041 2272 4041 
L 1100 4041 
L 1100 2403 
z
" transform="scale(0.015625)"/>
      <path id="ArialMT-66" d="M 556 0 
L 556 2881 
L 59 2881 
L 59 3319 
L 556 3319 
L 556 3672 
Q 556 4006 616 4169 
Q 697 4388 901 4523 
Q 1106 4659 1475 4659 
Q 1713 4659 2000 4603 
L 1916 4113 
Q 1741 4144 1584 4144 
Q 1328 4144 1222 4034 
Q 1116 3925 1116 3625 
L 1116 3319 
L 1763 3319 
L 1763 2881 
L 1116 2881 
L 1116 0 
L 556 0 
z
" transform="scale(0.015625)"/>
      <path id="ArialMT-69" d="M 425 3934 
L 425 4581 
L 988 4581 
L 988 3934 
L 425 3934 
z
M 425 0 
L 425 3319 
L 988 3319 
L 988 0 
L 425 0 
z
" transform="scale(0.015625)"/>
      <path id="ArialMT-6e" d="M 422 0 
L 422 3319 
L 928 3319 
L 928 2847 
Q 1294 3394 1984 3394 
Q 2284 3394 2536 3286 
Q 2788 3178 2913 3003 
Q 3038 2828 3088 2588 
Q 3119 2431 3119 2041 
L 3119 0 
L 2556 0 
L 2556 2019 
Q 2556 2363 2490 2533 
Q 2425 2703 2258 2804 
Q 2091 2906 1866 2906 
Q 1506 2906 1245 2678 
Q 984 2450 984 1813 
L 984 0 
L 422 0 
z
" transform="scale(0.015625)"/>
     </defs>
     <use xlink:href="#ArialMT-4d"/>
     <use xlink:href="#ArialMT-61" x="83.300781"/>
     <use xlink:href="#ArialMT-73" x="138.916016"/>
     <use xlink:href="#ArialMT-74" x="188.916016"/>
     <use xlink:href="#ArialMT-65" x="216.699219"/>
     <use xlink:href="#ArialMT-72" x="272.314453"/>
     <use xlink:href="#ArialMT-27" x="305.615234"/>
     <use xlink:href="#ArialMT-73" x="324.707031"/>
     <use xlink:href="#ArialMT-20" x="374.707031"/>
     <use xlink:href="#ArialMT-6f" x="402.490234"/>
     <use xlink:href="#ArialMT-72" x="458.105469"/>
     <use xlink:href="#ArialMT-20" x="491.40625"/>
     <use xlink:href="#ArialMT-50" x="519.189453"/>
     <use xlink:href="#ArialMT-72" x="585.888672"/>
     <use xlink:href="#ArialMT-6f" x="619.189453"/>
     <use xlink:href="#ArialMT-66" x="674.804688"/>
     <use xlink:href="#ArialMT-65" x="702.587891"/>
     <use xlink:href="#ArialMT-73" x="758.203125"/>
     <use xlink:href="#ArialMT-73" x="808.203125"/>
     <use xlink:href="#ArialMT-69" x="858.203125"/>
     <use xlink:href="#ArialMT-6f" x="880.419922"/>
     <use xlink:href="#ArialMT-6e" x="936.035156"/>
     <use xlink:href="#ArialMT-61" x="991.650391"/>
     <use xlink:href="#ArialMT-6c" x="1047.265625"/>
     <use xlink:href="#ArialMT-20" x="1069.482422"/>
     <use xlink:href="#ArialMT-44" x="1097.265625"/>
     <use xlink:href="#ArialMT-65" x="1169.482422"/>
     <use xlink:href="#ArialMT-67" x="1225.097656"/>
     <use xlink:href="#ArialMT-72" x="1280.712891"/>
     <use xlink:href="#ArialMT-65" x="1314.013672"/>
     <use xlink:href="#ArialMT-65" x="1369.628906"/>
    </g>
   </g>
   <g id="text_3">
    <!-- PhD -->
    <g style="fill: #262626" transform="translate(331.934487 259.189941)scale(0.11 -0.11)">
     <use xlink:href="#ArialMT-50"/>
     <use xlink:href="#ArialMT-68" x="66.699219"/>
     <use xlink:href="#ArialMT-44" x="122.314453"/>
    </g>
   </g>
   <g id="text_4">
    <!-- High School -->
    <g style="fill: #262626" transform="translate(353.16013 224.439928)scale(0.11 -0.11)">
     <defs>
      <path id="ArialMT-48" d="M 513 0 
L 513 4581 
L 1119 4581 
L 1119 2700 
L 3500 2700 
L 3500 4581 
L 4106 4581 
L 4106 0 
L 3500 0 
L 3500 2159 
L 1119 2159 
L 1119 0 
L 513 0 
z
" transform="scale(0.015625)"/>
      <path id="ArialMT-53" d="M 288 1472 
L 859 1522 
Q 900 1178 1048 958 
Q 1197 738 1509 602 
Q 1822 466 2213 466 
Q 2559 466 2825 569 
Q 3091 672 3220 851 
Q 3350 1031 3350 1244 
Q 3350 1459 3225 1620 
Q 3100 1781 2813 1891 
Q 2628 1963 1997 2114 
Q 1366 2266 1113 2400 
Q 784 2572 623 2826 
Q 463 3081 463 3397 
Q 463 3744 659 4045 
Q 856 4347 1234 4503 
Q 1613 4659 2075 4659 
Q 2584 4659 2973 4495 
Q 3363 4331 3572 4012 
Q 3781 3694 3797 3291 
L 3216 3247 
Q 3169 3681 2898 3903 
Q 2628 4125 2100 4125 
Q 1550 4125 1298 3923 
Q 1047 3722 1047 3438 
Q 1047 3191 1225 3031 
Q 1400 2872 2139 2705 
Q 2878 2538 3153 2413 
Q 3553 2228 3743 1945 
Q 3934 1663 3934 1294 
Q 3934 928 3725 604 
Q 3516 281 3123 101 
Q 2731 -78 2241 -78 
Q 1619 -78 1198 103 
Q 778 284 539 648 
Q 300 1013 288 1472 
z
" transform="scale(0.015625)"/>
     </defs>
     <use xlink:href="#ArialMT-48"/>
     <use xlink:href="#ArialMT-69" x="72.216797"/>
     <use xlink:href="#ArialMT-67" x="94.433594"/>
     <use xlink:href="#ArialMT-68" x="150.048828"/>
     <use xlink:href="#ArialMT-20" x="205.664062"/>
     <use xlink:href="#ArialMT-53" x="233.447266"/>
     <use xlink:href="#ArialMT-63" x="300.146484"/>
     <use xlink:href="#ArialMT-68" x="350.146484"/>
     <use xlink:href="#ArialMT-6f" x="405.761719"/>
     <use xlink:href="#ArialMT-6f" x="461.376953"/>
     <use xlink:href="#ArialMT-6c" x="516.992188"/>
    </g>
   </g>
   <g id="text_5">
    <!-- Associate's Degree -->
    <g style="fill: #262626" transform="translate(361.477267 192.059324)scale(0.11 -0.11)">
     <defs>
      <path id="ArialMT-41" d="M -9 0 
L 1750 4581 
L 2403 4581 
L 4278 0 
L 3588 0 
L 3053 1388 
L 1138 1388 
L 634 0 
L -9 0 
z
M 1313 1881 
L 2866 1881 
L 2388 3150 
Q 2169 3728 2063 4100 
Q 1975 3659 1816 3225 
L 1313 1881 
z
" transform="scale(0.015625)"/>
     </defs>
     <use xlink:href="#ArialMT-41"/>
     <use xlink:href="#ArialMT-73" x="66.699219"/>
     <use xlink:href="#ArialMT-73" x="116.699219"/>
     <use xlink:href="#ArialMT-6f" x="166.699219"/>
     <use xlink:href="#ArialMT-63" x="222.314453"/>
     <use xlink:href="#ArialMT-69" x="272.314453"/>
     <use xlink:href="#ArialMT-61" x="294.53125"/>
     <use xlink:href="#ArialMT-74" x="350.146484"/>
     <use xlink:href="#ArialMT-65" x="377.929688"/>
     <use xlink:href="#ArialMT-27" x="433.544922"/>
     <use xlink:href="#ArialMT-73" x="452.636719"/>
     <use xlink:href="#ArialMT-20" x="502.636719"/>
     <use xlink:href="#ArialMT-44" x="530.419922"/>
     <use xlink:href="#ArialMT-65" x="602.636719"/>
     <use xlink:href="#ArialMT-67" x="658.251953"/>
     <use xlink:href="#ArialMT-72" x="713.867188"/>
     <use xlink:href="#ArialMT-65" x="747.167969"/>
     <use xlink:href="#ArialMT-65" x="802.783203"/>
    </g>
   </g>
   <g id="text_6">
    <!-- Education (2022) -->
    <g style="fill: #262626" transform="translate(190.46625 35.472)scale(0.12 -0.12)">
     <defs>
      <path id="ArialMT-45" d="M 506 0 
L 506 4581 
L 3819 4581 
L 3819 4041 
L 1113 4041 
L 1113 2638 
L 3647 2638 
L 3647 2100 
L 1113 2100 
L 1113 541 
L 3925 541 
L 3925 0 
L 506 0 
z
" transform="scale(0.015625)"/>
      <path id="ArialMT-64" d="M 2575 0 
L 2575 419 
Q 2259 -75 1647 -75 
Q 1250 -75 917 144 
Q 584 363 401 755 
Q 219 1147 219 1656 
Q 219 2153 384 2558 
Q 550 2963 881 3178 
Q 1213 3394 1622 3394 
Q 1922 3394 2156 3267 
Q 2391 3141 2538 2938 
L 2538 4581 
L 3097 4581 
L 3097 0 
L 2575 0 
z
M 797 1656 
Q 797 1019 1065 703 
Q 1334 388 1700 388 
Q 2069 388 2326 689 
Q 2584 991 2584 1609 
Q 2584 2291 2321 2609 
Q 2059 2928 1675 2928 
Q 1300 2928 1048 2622 
Q 797 2316 797 1656 
z
" transform="scale(0.015625)"/>
      <path id="ArialMT-75" d="M 2597 0 
L 2597 488 
Q 2209 -75 1544 -75 
Q 1250 -75 995 37 
Q 741 150 617 320 
Q 494 491 444 738 
Q 409 903 409 1263 
L 409 3319 
L 972 3319 
L 972 1478 
Q 972 1038 1006 884 
Q 1059 663 1231 536 
Q 1403 409 1656 409 
Q 1909 409 2131 539 
Q 2353 669 2445 892 
Q 2538 1116 2538 1541 
L 2538 3319 
L 3100 3319 
L 3100 0 
L 2597 0 
z
" transform="scale(0.015625)"/>
      <path id="ArialMT-28" d="M 1497 -1347 
Q 1031 -759 709 28 
Q 388 816 388 1659 
Q 388 2403 628 3084 
Q 909 3875 1497 4659 
L 1900 4659 
Q 1522 4009 1400 3731 
Q 1209 3300 1100 2831 
Q 966 2247 966 1656 
Q 966 153 1900 -1347 
L 1497 -1347 
z
" transform="scale(0.015625)"/>
      <path id="ArialMT-32" d="M 3222 541 
L 3222 0 
L 194 0 
Q 188 203 259 391 
Q 375 700 629 1000 
Q 884 1300 1366 1694 
Q 2113 2306 2375 2664 
Q 2638 3022 2638 3341 
Q 2638 3675 2398 3904 
Q 2159 4134 1775 4134 
Q 1369 4134 1125 3890 
Q 881 3647 878 3216 
L 300 3275 
Q 359 3922 746 4261 
Q 1134 4600 1788 4600 
Q 2447 4600 2831 4234 
Q 3216 3869 3216 3328 
Q 3216 3053 3103 2787 
Q 2991 2522 2730 2228 
Q 2469 1934 1863 1422 
Q 1356 997 1212 845 
Q 1069 694 975 541 
L 3222 541 
z
" transform="scale(0.015625)"/>
      <path id="ArialMT-30" d="M 266 2259 
Q 266 3072 433 3567 
Q 600 4063 929 4331 
Q 1259 4600 1759 4600 
Q 2128 4600 2406 4451 
Q 2684 4303 2865 4023 
Q 3047 3744 3150 3342 
Q 3253 2941 3253 2259 
Q 3253 1453 3087 958 
Q 2922 463 2592 192 
Q 2263 -78 1759 -78 
Q 1097 -78 719 397 
Q 266 969 266 2259 
z
M 844 2259 
Q 844 1131 1108 757 
Q 1372 384 1759 384 
Q 2147 384 2411 759 
Q 2675 1134 2675 2259 
Q 2675 3391 2411 3762 
Q 2147 4134 1753 4134 
Q 1366 4134 1134 3806 
Q 844 3388 844 2259 
z
" transform="scale(0.015625)"/>
      <path id="ArialMT-29" d="M 791 -1347 
L 388 -1347 
Q 1322 153 1322 1656 
Q 1322 2244 1188 2822 
Q 1081 3291 891 3722 
Q 769 4003 388 4659 
L 791 4659 
Q 1378 3875 1659 3084 
Q 1900 2403 1900 1659 
Q 1900 816 1576 28 
Q 1253 -759 791 -1347 
z
" transform="scale(0.015625)"/>
     </defs>
     <use xlink:href="#ArialMT-45"/>
     <use xlink:href="#ArialMT-64" x="66.699219"/>
     <use xlink:href="#ArialMT-75" x="122.314453"/>
     <use xlink:href="#ArialMT-63" x="177.929688"/>
     <use xlink:href="#ArialMT-61" x="227.929688"/>
     <use xlink:href="#ArialMT-74" x="283.544922"/>
     <use xlink:href="#ArialMT-69" x="311.328125"/>
     <use xlink:href="#ArialMT-6f" x="333.544922"/>
     <use xlink:href="#ArialMT-6e" x="389.160156"/>
     <use xlink:href="#ArialMT-20" x="444.775391"/>
     <use xlink:href="#ArialMT-28" x="472.558594"/>
     <use xlink:href="#ArialMT-32" x="505.859375"/>
     <use xlink:href="#ArialMT-30" x="561.474609"/>
     <use xlink:href="#ArialMT-32" x="617.089844"/>
     <use xlink:href="#ArialMT-32" x="672.705078"/>
     <use xlink:href="#ArialMT-29" x="728.320312"/>
    </g>
   </g>
   <g id="legend_1">
    <g id="patch_7">
     <path d="M 233.045 105.21825 
L 409.12 105.21825 
Q 410.72 105.21825 410.72 103.61825 
L 410.72 47.072 
Q 410.72 45.472 409.12 45.472 
L 233.045 45.472 
Q 231.445 45.472 231.445 47.072 
L 231.445 103.61825 
Q 231.445 105.21825 233.045 105.21825 
z
" style="fill: #eaeaf2; opacity: 0.8; stroke: #cccccc; stroke-linejoin: miter"/>
    </g>
    <g id="patch_8">
     <path d="M 234.645 54.49575 
L 250.645 54.49575 
L 250.645 48.89575 
L 234.645 48.89575 
z
" style="fill: #4c72b0; stroke: #ffffff; stroke-linejoin: miter"/>
    </g>
    <g id="text_7">
     <!-- Bachelor's Degree - 62.26 % -->
     <g style="fill: #262626" transform="translate(257.045 54.49575)scale(0.08 -0.08)">
      <defs>
       <path id="ArialMT-2d" d="M 203 1375 
L 203 1941 
L 1931 1941 
L 1931 1375 
L 203 1375 
z
" transform="scale(0.015625)"/>
       <path id="ArialMT-36" d="M 3184 3459 
L 2625 3416 
Q 2550 3747 2413 3897 
Q 2184 4138 1850 4138 
Q 1581 4138 1378 3988 
Q 1113 3794 959 3422 
Q 806 3050 800 2363 
Q 1003 2672 1297 2822 
Q 1591 2972 1913 2972 
Q 2475 2972 2870 2558 
Q 3266 2144 3266 1488 
Q 3266 1056 3080 686 
Q 2894 316 2569 119 
Q 2244 -78 1831 -78 
Q 1128 -78 684 439 
Q 241 956 241 2144 
Q 241 3472 731 4075 
Q 1159 4600 1884 4600 
Q 2425 4600 2770 4297 
Q 3116 3994 3184 3459 
z
M 888 1484 
Q 888 1194 1011 928 
Q 1134 663 1356 523 
Q 1578 384 1822 384 
Q 2178 384 2434 671 
Q 2691 959 2691 1453 
Q 2691 1928 2437 2201 
Q 2184 2475 1800 2475 
Q 1419 2475 1153 2201 
Q 888 1928 888 1484 
z
" transform="scale(0.015625)"/>
       <path id="ArialMT-2e" d="M 581 0 
L 581 641 
L 1222 641 
L 1222 0 
L 581 0 
z
" transform="scale(0.015625)"/>
       <path id="ArialMT-25" d="M 372 3481 
Q 372 3972 619 4315 
Q 866 4659 1334 4659 
Q 1766 4659 2048 4351 
Q 2331 4044 2331 3447 
Q 2331 2866 2045 2552 
Q 1759 2238 1341 2238 
Q 925 2238 648 2547 
Q 372 2856 372 3481 
z
M 1350 4272 
Q 1141 4272 1002 4090 
Q 863 3909 863 3425 
Q 863 2984 1003 2804 
Q 1144 2625 1350 2625 
Q 1563 2625 1702 2806 
Q 1841 2988 1841 3469 
Q 1841 3913 1700 4092 
Q 1559 4272 1350 4272 
z
M 1353 -169 
L 3859 4659 
L 4316 4659 
L 1819 -169 
L 1353 -169 
z
M 3334 1075 
Q 3334 1569 3581 1911 
Q 3828 2253 4300 2253 
Q 4731 2253 5014 1945 
Q 5297 1638 5297 1041 
Q 5297 459 5011 145 
Q 4725 -169 4303 -169 
Q 3888 -169 3611 142 
Q 3334 453 3334 1075 
z
M 4316 1866 
Q 4103 1866 3964 1684 
Q 3825 1503 3825 1019 
Q 3825 581 3965 400 
Q 4106 219 4313 219 
Q 4528 219 4667 400 
Q 4806 581 4806 1063 
Q 4806 1506 4665 1686 
Q 4525 1866 4316 1866 
z
" transform="scale(0.015625)"/>
      </defs>
      <use xlink:href="#ArialMT-42"/>
      <use xlink:href="#ArialMT-61" x="66.699219"/>
      <use xlink:href="#ArialMT-63" x="122.314453"/>
      <use xlink:href="#ArialMT-68" x="172.314453"/>
      <use xlink:href="#ArialMT-65" x="227.929688"/>
      <use xlink:href="#ArialMT-6c" x="283.544922"/>
      <use xlink:href="#ArialMT-6f" x="305.761719"/>
      <use xlink:href="#ArialMT-72" x="361.376953"/>
      <use xlink:href="#ArialMT-27" x="394.677734"/>
      <use xlink:href="#ArialMT-73" x="413.769531"/>
      <use xlink:href="#ArialMT-20" x="463.769531"/>
      <use xlink:href="#ArialMT-44" x="491.552734"/>
      <use xlink:href="#ArialMT-65" x="563.769531"/>
      <use xlink:href="#ArialMT-67" x="619.384766"/>
      <use xlink:href="#ArialMT-72" x="675"/>
      <use xlink:href="#ArialMT-65" x="708.300781"/>
      <use xlink:href="#ArialMT-65" x="763.916016"/>
      <use xlink:href="#ArialMT-20" x="819.53125"/>
      <use xlink:href="#ArialMT-2d" x="847.314453"/>
      <use xlink:href="#ArialMT-20" x="880.615234"/>
      <use xlink:href="#ArialMT-36" x="908.398438"/>
      <use xlink:href="#ArialMT-32" x="964.013672"/>
      <use xlink:href="#ArialMT-2e" x="1019.628906"/>
      <use xlink:href="#ArialMT-32" x="1047.412109"/>
      <use xlink:href="#ArialMT-36" x="1103.027344"/>
      <use xlink:href="#ArialMT-20" x="1158.642578"/>
      <use xlink:href="#ArialMT-25" x="1186.425781"/>
     </g>
    </g>
    <g id="patch_9">
     <path d="M 234.645 66.00325 
L 250.645 66.00325 
L 250.645 60.40325 
L 234.645 60.40325 
z
" style="fill: #dd8452; stroke: #ffffff; stroke-linejoin: miter"/>
    </g>
    <g id="text_8">
     <!-- Master's or Professional Degree - 23.58 % -->
     <g style="fill: #262626" transform="translate(257.045 66.00325)scale(0.08 -0.08)">
      <defs>
       <path id="ArialMT-33" d="M 269 1209 
L 831 1284 
Q 928 806 1161 595 
Q 1394 384 1728 384 
Q 2125 384 2398 659 
Q 2672 934 2672 1341 
Q 2672 1728 2419 1979 
Q 2166 2231 1775 2231 
Q 1616 2231 1378 2169 
L 1441 2663 
Q 1497 2656 1531 2656 
Q 1891 2656 2178 2843 
Q 2466 3031 2466 3422 
Q 2466 3731 2256 3934 
Q 2047 4138 1716 4138 
Q 1388 4138 1169 3931 
Q 950 3725 888 3313 
L 325 3413 
Q 428 3978 793 4289 
Q 1159 4600 1703 4600 
Q 2078 4600 2393 4439 
Q 2709 4278 2876 4000 
Q 3044 3722 3044 3409 
Q 3044 3113 2884 2869 
Q 2725 2625 2413 2481 
Q 2819 2388 3044 2092 
Q 3269 1797 3269 1353 
Q 3269 753 2831 336 
Q 2394 -81 1725 -81 
Q 1122 -81 723 278 
Q 325 638 269 1209 
z
" transform="scale(0.015625)"/>
       <path id="ArialMT-35" d="M 266 1200 
L 856 1250 
Q 922 819 1161 601 
Q 1400 384 1738 384 
Q 2144 384 2425 690 
Q 2706 997 2706 1503 
Q 2706 1984 2436 2262 
Q 2166 2541 1728 2541 
Q 1456 2541 1237 2417 
Q 1019 2294 894 2097 
L 366 2166 
L 809 4519 
L 3088 4519 
L 3088 3981 
L 1259 3981 
L 1013 2750 
Q 1425 3038 1878 3038 
Q 2478 3038 2890 2622 
Q 3303 2206 3303 1553 
Q 3303 931 2941 478 
Q 2500 -78 1738 -78 
Q 1113 -78 717 272 
Q 322 622 266 1200 
z
" transform="scale(0.015625)"/>
       <path id="ArialMT-38" d="M 1131 2484 
Q 781 2613 612 2850 
Q 444 3088 444 3419 
Q 444 3919 803 4259 
Q 1163 4600 1759 4600 
Q 2359 4600 2725 4251 
Q 3091 3903 3091 3403 
Q 3091 3084 2923 2848 
Q 2756 2613 2416 2484 
Q 2838 2347 3058 2040 
Q 3278 1734 3278 1309 
Q 3278 722 2862 322 
Q 2447 -78 1769 -78 
Q 1091 -78 675 323 
Q 259 725 259 1325 
Q 259 1772 486 2073 
Q 713 2375 1131 2484 
z
M 1019 3438 
Q 1019 3113 1228 2906 
Q 1438 2700 1772 2700 
Q 2097 2700 2305 2904 
Q 2513 3109 2513 3406 
Q 2513 3716 2298 3927 
Q 2084 4138 1766 4138 
Q 1444 4138 1231 3931 
Q 1019 3725 1019 3438 
z
M 838 1322 
Q 838 1081 952 856 
Q 1066 631 1291 507 
Q 1516 384 1775 384 
Q 2178 384 2440 643 
Q 2703 903 2703 1303 
Q 2703 1709 2433 1975 
Q 2163 2241 1756 2241 
Q 1359 2241 1098 1978 
Q 838 1716 838 1322 
z
" transform="scale(0.015625)"/>
      </defs>
      <use xlink:href="#ArialMT-4d"/>
      <use xlink:href="#ArialMT-61" x="83.300781"/>
      <use xlink:href="#ArialMT-73" x="138.916016"/>
      <use xlink:href="#ArialMT-74" x="188.916016"/>
      <use xlink:href="#ArialMT-65" x="216.699219"/>
      <use xlink:href="#ArialMT-72" x="272.314453"/>
      <use xlink:href="#ArialMT-27" x="305.615234"/>
      <use xlink:href="#ArialMT-73" x="324.707031"/>
      <use xlink:href="#ArialMT-20" x="374.707031"/>
      <use xlink:href="#ArialMT-6f" x="402.490234"/>
      <use xlink:href="#ArialMT-72" x="458.105469"/>
      <use xlink:href="#ArialMT-20" x="491.40625"/>
      <use xlink:href="#ArialMT-50" x="519.189453"/>
      <use xlink:href="#ArialMT-72" x="585.888672"/>
      <use xlink:href="#ArialMT-6f" x="619.189453"/>
      <use xlink:href="#ArialMT-66" x="674.804688"/>
      <use xlink:href="#ArialMT-65" x="702.587891"/>
      <use xlink:href="#ArialMT-73" x="758.203125"/>
      <use xlink:href="#ArialMT-73" x="808.203125"/>
      <use xlink:href="#ArialMT-69" x="858.203125"/>
      <use xlink:href="#ArialMT-6f" x="880.419922"/>
      <use xlink:href="#ArialMT-6e" x="936.035156"/>
      <use xlink:href="#ArialMT-61" x="991.650391"/>
      <use xlink:href="#ArialMT-6c" x="1047.265625"/>
      <use xlink:href="#ArialMT-20" x="1069.482422"/>
      <use xlink:href="#ArialMT-44" x="1097.265625"/>
      <use xlink:href="#ArialMT-65" x="1169.482422"/>
      <use xlink:href="#ArialMT-67" x="1225.097656"/>
      <use xlink:href="#ArialMT-72" x="1280.712891"/>
      <use xlink:href="#ArialMT-65" x="1314.013672"/>
      <use xlink:href="#ArialMT-65" x="1369.628906"/>
      <use xlink:href="#ArialMT-20" x="1425.244141"/>
      <use xlink:href="#ArialMT-2d" x="1453.027344"/>
      <use xlink:href="#ArialMT-20" x="1486.328125"/>
      <use xlink:href="#ArialMT-32" x="1514.111328"/>
      <use xlink:href="#ArialMT-33" x="1569.726562"/>
      <use xlink:href="#ArialMT-2e" x="1625.341797"/>
      <use xlink:href="#ArialMT-35" x="1653.125"/>
      <use xlink:href="#ArialMT-38" x="1708.740234"/>
      <use xlink:href="#ArialMT-20" x="1764.355469"/>
      <use xlink:href="#ArialMT-25" x="1792.138672"/>
     </g>
    </g>
    <g id="patch_10">
     <path d="M 234.645 77.41325 
L 250.645 77.41325 
L 250.645 71.81325 
L 234.645 71.81325 
z
" style="fill: #55a868; stroke: #ffffff; stroke-linejoin: miter"/>
    </g>
    <g id="text_9">
     <!-- PhD - 5.66 % -->
     <g style="fill: #262626" transform="translate(257.045 77.41325)scale(0.08 -0.08)">
      <use xlink:href="#ArialMT-50"/>
      <use xlink:href="#ArialMT-68" x="66.699219"/>
      <use xlink:href="#ArialMT-44" x="122.314453"/>
      <use xlink:href="#ArialMT-20" x="194.53125"/>
      <use xlink:href="#ArialMT-2d" x="222.314453"/>
      <use xlink:href="#ArialMT-20" x="255.615234"/>
      <use xlink:href="#ArialMT-35" x="283.398438"/>
      <use xlink:href="#ArialMT-2e" x="339.013672"/>
      <use xlink:href="#ArialMT-36" x="366.796875"/>
      <use xlink:href="#ArialMT-36" x="422.412109"/>
      <use xlink:href="#ArialMT-20" x="478.027344"/>
      <use xlink:href="#ArialMT-25" x="505.810547"/>
     </g>
    </g>
    <g id="patch_11">
     <path d="M 234.645 88.827 
L 250.645 88.827 
L 250.645 83.227 
L 234.645 83.227 
z
" style="fill: #c44e52; stroke: #ffffff; stroke-linejoin: miter"/>
    </g>
    <g id="text_10">
     <!-- High School - 4.72 % -->
     <g style="fill: #262626" transform="translate(257.045 88.827)scale(0.08 -0.08)">
      <defs>
       <path id="ArialMT-34" d="M 2069 0 
L 2069 1097 
L 81 1097 
L 81 1613 
L 2172 4581 
L 2631 4581 
L 2631 1613 
L 3250 1613 
L 3250 1097 
L 2631 1097 
L 2631 0 
L 2069 0 
z
M 2069 1613 
L 2069 3678 
L 634 1613 
L 2069 1613 
z
" transform="scale(0.015625)"/>
       <path id="ArialMT-37" d="M 303 3981 
L 303 4522 
L 3269 4522 
L 3269 4084 
Q 2831 3619 2401 2847 
Q 1972 2075 1738 1259 
Q 1569 684 1522 0 
L 944 0 
Q 953 541 1156 1306 
Q 1359 2072 1739 2783 
Q 2119 3494 2547 3981 
L 303 3981 
z
" transform="scale(0.015625)"/>
      </defs>
      <use xlink:href="#ArialMT-48"/>
      <use xlink:href="#ArialMT-69" x="72.216797"/>
      <use xlink:href="#ArialMT-67" x="94.433594"/>
      <use xlink:href="#ArialMT-68" x="150.048828"/>
      <use xlink:href="#ArialMT-20" x="205.664062"/>
      <use xlink:href="#ArialMT-53" x="233.447266"/>
      <use xlink:href="#ArialMT-63" x="300.146484"/>
      <use xlink:href="#ArialMT-68" x="350.146484"/>
      <use xlink:href="#ArialMT-6f" x="405.761719"/>
      <use xlink:href="#ArialMT-6f" x="461.376953"/>
      <use xlink:href="#ArialMT-6c" x="516.992188"/>
      <use xlink:href="#ArialMT-20" x="539.208984"/>
      <use xlink:href="#ArialMT-2d" x="566.992188"/>
      <use xlink:href="#ArialMT-20" x="600.292969"/>
      <use xlink:href="#ArialMT-34" x="628.076172"/>
      <use xlink:href="#ArialMT-2e" x="683.691406"/>
      <use xlink:href="#ArialMT-37" x="711.474609"/>
      <use xlink:href="#ArialMT-32" x="767.089844"/>
      <use xlink:href="#ArialMT-20" x="822.705078"/>
      <use xlink:href="#ArialMT-25" x="850.488281"/>
     </g>
    </g>
    <g id="patch_12">
     <path d="M 234.645 100.3345 
L 250.645 100.3345 
L 250.645 94.7345 
L 234.645 94.7345 
z
" style="fill: #8172b3; stroke: #ffffff; stroke-linejoin: miter"/>
    </g>
    <g id="text_11">
     <!-- Associate's Degree - 3.77 % -->
     <g style="fill: #262626" transform="translate(257.045 100.3345)scale(0.08 -0.08)">
      <use xlink:href="#ArialMT-41"/>
      <use xlink:href="#ArialMT-73" x="66.699219"/>
      <use xlink:href="#ArialMT-73" x="116.699219"/>
      <use xlink:href="#ArialMT-6f" x="166.699219"/>
      <use xlink:href="#ArialMT-63" x="222.314453"/>
      <use xlink:href="#ArialMT-69" x="272.314453"/>
      <use xlink:href="#ArialMT-61" x="294.53125"/>
      <use xlink:href="#ArialMT-74" x="350.146484"/>
      <use xlink:href="#ArialMT-65" x="377.929688"/>
      <use xlink:href="#ArialMT-27" x="433.544922"/>
      <use xlink:href="#ArialMT-73" x="452.636719"/>
      <use xlink:href="#ArialMT-20" x="502.636719"/>
      <use xlink:href="#ArialMT-44" x="530.419922"/>
      <use xlink:href="#ArialMT-65" x="602.636719"/>
      <use xlink:href="#ArialMT-67" x="658.251953"/>
      <use xlink:href="#ArialMT-72" x="713.867188"/>
      <use xlink:href="#ArialMT-65" x="747.167969"/>
      <use xlink:href="#ArialMT-65" x="802.783203"/>
      <use xlink:href="#ArialMT-20" x="858.398438"/>
      <use xlink:href="#ArialMT-2d" x="886.181641"/>
      <use xlink:href="#ArialMT-20" x="919.482422"/>
      <use xlink:href="#ArialMT-33" x="947.265625"/>
      <use xlink:href="#ArialMT-2e" x="1002.880859"/>
      <use xlink:href="#ArialMT-37" x="1030.664062"/>
      <use xlink:href="#ArialMT-37" x="1086.279297"/>
      <use xlink:href="#ArialMT-20" x="1141.894531"/>
      <use xlink:href="#ArialMT-25" x="1169.677734"/>
     </g>
    </g>
   </g>
  </g>
 </g>
</svg>
