<?xml version="1.0" encoding="utf-8" standalone="no"?>
<!DOCTYPE svg PUBLIC "-//W3C//DTD SVG 1.1//EN"
  "http://www.w3.org/Graphics/SVG/1.1/DTD/svg11.dtd">
<svg xmlns:xlink="http://www.w3.org/1999/xlink" width="864pt" height="432pt" viewBox="0 0 864 432" xmlns="http://www.w3.org/2000/svg" version="1.1">
 <metadata>
  <rdf:RDF xmlns:dc="http://purl.org/dc/elements/1.1/" xmlns:cc="http://creativecommons.org/ns#" xmlns:rdf="http://www.w3.org/1999/02/22-rdf-syntax-ns#">
   <cc:Work>
    <dc:type rdf:resource="http://purl.org/dc/dcmitype/StillImage"/>
    <dc:date>2023-02-27T12:09:49.582758</dc:date>
    <dc:format>image/svg+xml</dc:format>
    <dc:creator>
     <cc:Agent>
      <dc:title>Matplotlib v3.5.2, https://matplotlib.org/</dc:title>
     </cc:Agent>
    </dc:creator>
   </cc:Work>
  </rdf:RDF>
 </metadata>
 <defs>
  <style type="text/css">*{stroke-linejoin: round; stroke-linecap: butt}</style>
 </defs>
 <g id="figure_1">
  <g id="patch_1">
   <path d="M 0 432 
L 864 432 
L 864 0 
L 0 0 
z
" style="fill: #ffffff"/>
  </g>
  <g id="axes_1">
   <g id="patch_2">
    <path d="M 108 384.48 
L 777.6 384.48 
L 777.6 51.84 
L 108 51.84 
z
" style="fill: #eaeaf2"/>
   </g>
   <g id="matplotlib.axis_1">
    <g id="xtick_1">
     <g id="line2d_1">
      <path d="M 161.570036 384.48 
L 161.570036 51.84 
" clip-path="url(#p6316154746)" style="fill: none; stroke: #ffffff; stroke-linecap: round"/>
     </g>
     <g id="text_1">
      <!-- 50 -->
      <g style="fill: #262626" transform="translate(155.453005 401.853594)scale(0.11 -0.11)">
       <defs>
        <path id="ArialMT-35" d="M 266 1200 
L 856 1250 
Q 922 819 1161 601 
Q 1400 384 1738 384 
Q 2144 384 2425 690 
Q 2706 997 2706 1503 
Q 2706 1984 2436 2262 
Q 2166 2541 1728 2541 
Q 1456 2541 1237 2417 
Q 1019 2294 894 2097 
L 366 2166 
L 809 4519 
L 3088 4519 
L 3088 3981 
L 1259 3981 
L 1013 2750 
Q 1425 3038 1878 3038 
Q 2478 3038 2890 2622 
Q 3303 2206 3303 1553 
Q 3303 931 2941 478 
Q 2500 -78 1738 -78 
Q 1113 -78 717 272 
Q 322 622 266 1200 
z
" transform="scale(0.015625)"/>
        <path id="ArialMT-30" d="M 266 2259 
Q 266 3072 433 3567 
Q 600 4063 929 4331 
Q 1259 4600 1759 4600 
Q 2128 4600 2406 4451 
Q 2684 4303 2865 4023 
Q 3047 3744 3150 3342 
Q 3253 2941 3253 2259 
Q 3253 1453 3087 958 
Q 2922 463 2592 192 
Q 2263 -78 1759 -78 
Q 1097 -78 719 397 
Q 266 969 266 2259 
z
M 844 2259 
Q 844 1131 1108 757 
Q 1372 384 1759 384 
Q 2147 384 2411 759 
Q 2675 1134 2675 2259 
Q 2675 3391 2411 3762 
Q 2147 4134 1753 4134 
Q 1366 4134 1134 3806 
Q 844 3388 844 2259 
z
" transform="scale(0.015625)"/>
       </defs>
       <use xlink:href="#ArialMT-35"/>
       <use xlink:href="#ArialMT-30" x="55.615234"/>
      </g>
     </g>
    </g>
    <g id="xtick_2">
     <g id="line2d_2">
      <path d="M 240.789744 384.48 
L 240.789744 51.84 
" clip-path="url(#p6316154746)" style="fill: none; stroke: #ffffff; stroke-linecap: round"/>
     </g>
     <g id="text_2">
      <!-- 100 -->
      <g style="fill: #262626" transform="translate(231.614197 401.853594)scale(0.11 -0.11)">
       <defs>
        <path id="ArialMT-31" d="M 2384 0 
L 1822 0 
L 1822 3584 
Q 1619 3391 1289 3197 
Q 959 3003 697 2906 
L 697 3450 
Q 1169 3672 1522 3987 
Q 1875 4303 2022 4600 
L 2384 4600 
L 2384 0 
z
" transform="scale(0.015625)"/>
       </defs>
       <use xlink:href="#ArialMT-31"/>
       <use xlink:href="#ArialMT-30" x="55.615234"/>
       <use xlink:href="#ArialMT-30" x="111.230469"/>
      </g>
     </g>
    </g>
    <g id="xtick_3">
     <g id="line2d_3">
      <path d="M 320.009452 384.48 
L 320.009452 51.84 
" clip-path="url(#p6316154746)" style="fill: none; stroke: #ffffff; stroke-linecap: round"/>
     </g>
     <g id="text_3">
      <!-- 150 -->
      <g style="fill: #262626" transform="translate(310.833905 401.853594)scale(0.11 -0.11)">
       <use xlink:href="#ArialMT-31"/>
       <use xlink:href="#ArialMT-35" x="55.615234"/>
       <use xlink:href="#ArialMT-30" x="111.230469"/>
      </g>
     </g>
    </g>
    <g id="xtick_4">
     <g id="line2d_4">
      <path d="M 399.22916 384.48 
L 399.22916 51.84 
" clip-path="url(#p6316154746)" style="fill: none; stroke: #ffffff; stroke-linecap: round"/>
     </g>
     <g id="text_4">
      <!-- 200 -->
      <g style="fill: #262626" transform="translate(390.053614 401.853594)scale(0.11 -0.11)">
       <defs>
        <path id="ArialMT-32" d="M 3222 541 
L 3222 0 
L 194 0 
Q 188 203 259 391 
Q 375 700 629 1000 
Q 884 1300 1366 1694 
Q 2113 2306 2375 2664 
Q 2638 3022 2638 3341 
Q 2638 3675 2398 3904 
Q 2159 4134 1775 4134 
Q 1369 4134 1125 3890 
Q 881 3647 878 3216 
L 300 3275 
Q 359 3922 746 4261 
Q 1134 4600 1788 4600 
Q 2447 4600 2831 4234 
Q 3216 3869 3216 3328 
Q 3216 3053 3103 2787 
Q 2991 2522 2730 2228 
Q 2469 1934 1863 1422 
Q 1356 997 1212 845 
Q 1069 694 975 541 
L 3222 541 
z
" transform="scale(0.015625)"/>
       </defs>
       <use xlink:href="#ArialMT-32"/>
       <use xlink:href="#ArialMT-30" x="55.615234"/>
       <use xlink:href="#ArialMT-30" x="111.230469"/>
      </g>
     </g>
    </g>
    <g id="xtick_5">
     <g id="line2d_5">
      <path d="M 478.448869 384.48 
L 478.448869 51.84 
" clip-path="url(#p6316154746)" style="fill: none; stroke: #ffffff; stroke-linecap: round"/>
     </g>
     <g id="text_5">
      <!-- 250 -->
      <g style="fill: #262626" transform="translate(469.273322 401.853594)scale(0.11 -0.11)">
       <use xlink:href="#ArialMT-32"/>
       <use xlink:href="#ArialMT-35" x="55.615234"/>
       <use xlink:href="#ArialMT-30" x="111.230469"/>
      </g>
     </g>
    </g>
    <g id="xtick_6">
     <g id="line2d_6">
      <path d="M 557.668577 384.48 
L 557.668577 51.84 
" clip-path="url(#p6316154746)" style="fill: none; stroke: #ffffff; stroke-linecap: round"/>
     </g>
     <g id="text_6">
      <!-- 300 -->
      <g style="fill: #262626" transform="translate(548.49303 401.853594)scale(0.11 -0.11)">
       <defs>
        <path id="ArialMT-33" d="M 269 1209 
L 831 1284 
Q 928 806 1161 595 
Q 1394 384 1728 384 
Q 2125 384 2398 659 
Q 2672 934 2672 1341 
Q 2672 1728 2419 1979 
Q 2166 2231 1775 2231 
Q 1616 2231 1378 2169 
L 1441 2663 
Q 1497 2656 1531 2656 
Q 1891 2656 2178 2843 
Q 2466 3031 2466 3422 
Q 2466 3731 2256 3934 
Q 2047 4138 1716 4138 
Q 1388 4138 1169 3931 
Q 950 3725 888 3313 
L 325 3413 
Q 428 3978 793 4289 
Q 1159 4600 1703 4600 
Q 2078 4600 2393 4439 
Q 2709 4278 2876 4000 
Q 3044 3722 3044 3409 
Q 3044 3113 2884 2869 
Q 2725 2625 2413 2481 
Q 2819 2388 3044 2092 
Q 3269 1797 3269 1353 
Q 3269 753 2831 336 
Q 2394 -81 1725 -81 
Q 1122 -81 723 278 
Q 325 638 269 1209 
z
" transform="scale(0.015625)"/>
       </defs>
       <use xlink:href="#ArialMT-33"/>
       <use xlink:href="#ArialMT-30" x="55.615234"/>
       <use xlink:href="#ArialMT-30" x="111.230469"/>
      </g>
     </g>
    </g>
    <g id="xtick_7">
     <g id="line2d_7">
      <path d="M 636.888285 384.48 
L 636.888285 51.84 
" clip-path="url(#p6316154746)" style="fill: none; stroke: #ffffff; stroke-linecap: round"/>
     </g>
     <g id="text_7">
      <!-- 350 -->
      <g style="fill: #262626" transform="translate(627.712738 401.853594)scale(0.11 -0.11)">
       <use xlink:href="#ArialMT-33"/>
       <use xlink:href="#ArialMT-35" x="55.615234"/>
       <use xlink:href="#ArialMT-30" x="111.230469"/>
      </g>
     </g>
    </g>
    <g id="xtick_8">
     <g id="line2d_8">
      <path d="M 716.107993 384.48 
L 716.107993 51.84 
" clip-path="url(#p6316154746)" style="fill: none; stroke: #ffffff; stroke-linecap: round"/>
     </g>
     <g id="text_8">
      <!-- 400 -->
      <g style="fill: #262626" transform="translate(706.932446 401.853594)scale(0.11 -0.11)">
       <defs>
        <path id="ArialMT-34" d="M 2069 0 
L 2069 1097 
L 81 1097 
L 81 1613 
L 2172 4581 
L 2631 4581 
L 2631 1613 
L 3250 1613 
L 3250 1097 
L 2631 1097 
L 2631 0 
L 2069 0 
z
M 2069 1613 
L 2069 3678 
L 634 1613 
L 2069 1613 
z
" transform="scale(0.015625)"/>
       </defs>
       <use xlink:href="#ArialMT-34"/>
       <use xlink:href="#ArialMT-30" x="55.615234"/>
       <use xlink:href="#ArialMT-30" x="111.230469"/>
      </g>
     </g>
    </g>
    <g id="text_9">
     <!-- Financial Compensation (thousands) -->
     <g style="fill: #262626" transform="translate(345.087188 416.775469)scale(0.12 -0.12)">
      <defs>
       <path id="ArialMT-46" d="M 525 0 
L 525 4581 
L 3616 4581 
L 3616 4041 
L 1131 4041 
L 1131 2622 
L 3281 2622 
L 3281 2081 
L 1131 2081 
L 1131 0 
L 525 0 
z
" transform="scale(0.015625)"/>
       <path id="ArialMT-69" d="M 425 3934 
L 425 4581 
L 988 4581 
L 988 3934 
L 425 3934 
z
M 425 0 
L 425 3319 
L 988 3319 
L 988 0 
L 425 0 
z
" transform="scale(0.015625)"/>
       <path id="ArialMT-6e" d="M 422 0 
L 422 3319 
L 928 3319 
L 928 2847 
Q 1294 3394 1984 3394 
Q 2284 3394 2536 3286 
Q 2788 3178 2913 3003 
Q 3038 2828 3088 2588 
Q 3119 2431 3119 2041 
L 3119 0 
L 2556 0 
L 2556 2019 
Q 2556 2363 2490 2533 
Q 2425 2703 2258 2804 
Q 2091 2906 1866 2906 
Q 1506 2906 1245 2678 
Q 984 2450 984 1813 
L 984 0 
L 422 0 
z
" transform="scale(0.015625)"/>
       <path id="ArialMT-61" d="M 2588 409 
Q 2275 144 1986 34 
Q 1697 -75 1366 -75 
Q 819 -75 525 192 
Q 231 459 231 875 
Q 231 1119 342 1320 
Q 453 1522 633 1644 
Q 813 1766 1038 1828 
Q 1203 1872 1538 1913 
Q 2219 1994 2541 2106 
Q 2544 2222 2544 2253 
Q 2544 2597 2384 2738 
Q 2169 2928 1744 2928 
Q 1347 2928 1158 2789 
Q 969 2650 878 2297 
L 328 2372 
Q 403 2725 575 2942 
Q 747 3159 1072 3276 
Q 1397 3394 1825 3394 
Q 2250 3394 2515 3294 
Q 2781 3194 2906 3042 
Q 3031 2891 3081 2659 
Q 3109 2516 3109 2141 
L 3109 1391 
Q 3109 606 3145 398 
Q 3181 191 3288 0 
L 2700 0 
Q 2613 175 2588 409 
z
M 2541 1666 
Q 2234 1541 1622 1453 
Q 1275 1403 1131 1340 
Q 988 1278 909 1158 
Q 831 1038 831 891 
Q 831 666 1001 516 
Q 1172 366 1500 366 
Q 1825 366 2078 508 
Q 2331 650 2450 897 
Q 2541 1088 2541 1459 
L 2541 1666 
z
" transform="scale(0.015625)"/>
       <path id="ArialMT-63" d="M 2588 1216 
L 3141 1144 
Q 3050 572 2676 248 
Q 2303 -75 1759 -75 
Q 1078 -75 664 370 
Q 250 816 250 1647 
Q 250 2184 428 2587 
Q 606 2991 970 3192 
Q 1334 3394 1763 3394 
Q 2303 3394 2647 3120 
Q 2991 2847 3088 2344 
L 2541 2259 
Q 2463 2594 2264 2762 
Q 2066 2931 1784 2931 
Q 1359 2931 1093 2626 
Q 828 2322 828 1663 
Q 828 994 1084 691 
Q 1341 388 1753 388 
Q 2084 388 2306 591 
Q 2528 794 2588 1216 
z
" transform="scale(0.015625)"/>
       <path id="ArialMT-6c" d="M 409 0 
L 409 4581 
L 972 4581 
L 972 0 
L 409 0 
z
" transform="scale(0.015625)"/>
       <path id="ArialMT-20" transform="scale(0.015625)"/>
       <path id="ArialMT-43" d="M 3763 1606 
L 4369 1453 
Q 4178 706 3683 314 
Q 3188 -78 2472 -78 
Q 1731 -78 1267 223 
Q 803 525 561 1097 
Q 319 1669 319 2325 
Q 319 3041 592 3573 
Q 866 4106 1370 4382 
Q 1875 4659 2481 4659 
Q 3169 4659 3637 4309 
Q 4106 3959 4291 3325 
L 3694 3184 
Q 3534 3684 3231 3912 
Q 2928 4141 2469 4141 
Q 1941 4141 1586 3887 
Q 1231 3634 1087 3207 
Q 944 2781 944 2328 
Q 944 1744 1114 1308 
Q 1284 872 1643 656 
Q 2003 441 2422 441 
Q 2931 441 3284 734 
Q 3638 1028 3763 1606 
z
" transform="scale(0.015625)"/>
       <path id="ArialMT-6f" d="M 213 1659 
Q 213 2581 725 3025 
Q 1153 3394 1769 3394 
Q 2453 3394 2887 2945 
Q 3322 2497 3322 1706 
Q 3322 1066 3130 698 
Q 2938 331 2570 128 
Q 2203 -75 1769 -75 
Q 1072 -75 642 372 
Q 213 819 213 1659 
z
M 791 1659 
Q 791 1022 1069 705 
Q 1347 388 1769 388 
Q 2188 388 2466 706 
Q 2744 1025 2744 1678 
Q 2744 2294 2464 2611 
Q 2184 2928 1769 2928 
Q 1347 2928 1069 2612 
Q 791 2297 791 1659 
z
" transform="scale(0.015625)"/>
       <path id="ArialMT-6d" d="M 422 0 
L 422 3319 
L 925 3319 
L 925 2853 
Q 1081 3097 1340 3245 
Q 1600 3394 1931 3394 
Q 2300 3394 2536 3241 
Q 2772 3088 2869 2813 
Q 3263 3394 3894 3394 
Q 4388 3394 4653 3120 
Q 4919 2847 4919 2278 
L 4919 0 
L 4359 0 
L 4359 2091 
Q 4359 2428 4304 2576 
Q 4250 2725 4106 2815 
Q 3963 2906 3769 2906 
Q 3419 2906 3187 2673 
Q 2956 2441 2956 1928 
L 2956 0 
L 2394 0 
L 2394 2156 
Q 2394 2531 2256 2718 
Q 2119 2906 1806 2906 
Q 1569 2906 1367 2781 
Q 1166 2656 1075 2415 
Q 984 2175 984 1722 
L 984 0 
L 422 0 
z
" transform="scale(0.015625)"/>
       <path id="ArialMT-70" d="M 422 -1272 
L 422 3319 
L 934 3319 
L 934 2888 
Q 1116 3141 1344 3267 
Q 1572 3394 1897 3394 
Q 2322 3394 2647 3175 
Q 2972 2956 3137 2557 
Q 3303 2159 3303 1684 
Q 3303 1175 3120 767 
Q 2938 359 2589 142 
Q 2241 -75 1856 -75 
Q 1575 -75 1351 44 
Q 1128 163 984 344 
L 984 -1272 
L 422 -1272 
z
M 931 1641 
Q 931 1000 1190 694 
Q 1450 388 1819 388 
Q 2194 388 2461 705 
Q 2728 1022 2728 1688 
Q 2728 2322 2467 2637 
Q 2206 2953 1844 2953 
Q 1484 2953 1207 2617 
Q 931 2281 931 1641 
z
" transform="scale(0.015625)"/>
       <path id="ArialMT-65" d="M 2694 1069 
L 3275 997 
Q 3138 488 2766 206 
Q 2394 -75 1816 -75 
Q 1088 -75 661 373 
Q 234 822 234 1631 
Q 234 2469 665 2931 
Q 1097 3394 1784 3394 
Q 2450 3394 2872 2941 
Q 3294 2488 3294 1666 
Q 3294 1616 3291 1516 
L 816 1516 
Q 847 969 1125 678 
Q 1403 388 1819 388 
Q 2128 388 2347 550 
Q 2566 713 2694 1069 
z
M 847 1978 
L 2700 1978 
Q 2663 2397 2488 2606 
Q 2219 2931 1791 2931 
Q 1403 2931 1139 2672 
Q 875 2413 847 1978 
z
" transform="scale(0.015625)"/>
       <path id="ArialMT-73" d="M 197 991 
L 753 1078 
Q 800 744 1014 566 
Q 1228 388 1613 388 
Q 2000 388 2187 545 
Q 2375 703 2375 916 
Q 2375 1106 2209 1216 
Q 2094 1291 1634 1406 
Q 1016 1563 777 1677 
Q 538 1791 414 1992 
Q 291 2194 291 2438 
Q 291 2659 392 2848 
Q 494 3038 669 3163 
Q 800 3259 1026 3326 
Q 1253 3394 1513 3394 
Q 1903 3394 2198 3281 
Q 2494 3169 2634 2976 
Q 2775 2784 2828 2463 
L 2278 2388 
Q 2241 2644 2061 2787 
Q 1881 2931 1553 2931 
Q 1166 2931 1000 2803 
Q 834 2675 834 2503 
Q 834 2394 903 2306 
Q 972 2216 1119 2156 
Q 1203 2125 1616 2013 
Q 2213 1853 2448 1751 
Q 2684 1650 2818 1456 
Q 2953 1263 2953 975 
Q 2953 694 2789 445 
Q 2625 197 2315 61 
Q 2006 -75 1616 -75 
Q 969 -75 630 194 
Q 291 463 197 991 
z
" transform="scale(0.015625)"/>
       <path id="ArialMT-74" d="M 1650 503 
L 1731 6 
Q 1494 -44 1306 -44 
Q 1000 -44 831 53 
Q 663 150 594 308 
Q 525 466 525 972 
L 525 2881 
L 113 2881 
L 113 3319 
L 525 3319 
L 525 4141 
L 1084 4478 
L 1084 3319 
L 1650 3319 
L 1650 2881 
L 1084 2881 
L 1084 941 
Q 1084 700 1114 631 
Q 1144 563 1211 522 
Q 1278 481 1403 481 
Q 1497 481 1650 503 
z
" transform="scale(0.015625)"/>
       <path id="ArialMT-28" d="M 1497 -1347 
Q 1031 -759 709 28 
Q 388 816 388 1659 
Q 388 2403 628 3084 
Q 909 3875 1497 4659 
L 1900 4659 
Q 1522 4009 1400 3731 
Q 1209 3300 1100 2831 
Q 966 2247 966 1656 
Q 966 153 1900 -1347 
L 1497 -1347 
z
" transform="scale(0.015625)"/>
       <path id="ArialMT-68" d="M 422 0 
L 422 4581 
L 984 4581 
L 984 2938 
Q 1378 3394 1978 3394 
Q 2347 3394 2619 3248 
Q 2891 3103 3008 2847 
Q 3125 2591 3125 2103 
L 3125 0 
L 2563 0 
L 2563 2103 
Q 2563 2525 2380 2717 
Q 2197 2909 1863 2909 
Q 1613 2909 1392 2779 
Q 1172 2650 1078 2428 
Q 984 2206 984 1816 
L 984 0 
L 422 0 
z
" transform="scale(0.015625)"/>
       <path id="ArialMT-75" d="M 2597 0 
L 2597 488 
Q 2209 -75 1544 -75 
Q 1250 -75 995 37 
Q 741 150 617 320 
Q 494 491 444 738 
Q 409 903 409 1263 
L 409 3319 
L 972 3319 
L 972 1478 
Q 972 1038 1006 884 
Q 1059 663 1231 536 
Q 1403 409 1656 409 
Q 1909 409 2131 539 
Q 2353 669 2445 892 
Q 2538 1116 2538 1541 
L 2538 3319 
L 3100 3319 
L 3100 0 
L 2597 0 
z
" transform="scale(0.015625)"/>
       <path id="ArialMT-64" d="M 2575 0 
L 2575 419 
Q 2259 -75 1647 -75 
Q 1250 -75 917 144 
Q 584 363 401 755 
Q 219 1147 219 1656 
Q 219 2153 384 2558 
Q 550 2963 881 3178 
Q 1213 3394 1622 3394 
Q 1922 3394 2156 3267 
Q 2391 3141 2538 2938 
L 2538 4581 
L 3097 4581 
L 3097 0 
L 2575 0 
z
M 797 1656 
Q 797 1019 1065 703 
Q 1334 388 1700 388 
Q 2069 388 2326 689 
Q 2584 991 2584 1609 
Q 2584 2291 2321 2609 
Q 2059 2928 1675 2928 
Q 1300 2928 1048 2622 
Q 797 2316 797 1656 
z
" transform="scale(0.015625)"/>
       <path id="ArialMT-29" d="M 791 -1347 
L 388 -1347 
Q 1322 153 1322 1656 
Q 1322 2244 1188 2822 
Q 1081 3291 891 3722 
Q 769 4003 388 4659 
L 791 4659 
Q 1378 3875 1659 3084 
Q 1900 2403 1900 1659 
Q 1900 816 1576 28 
Q 1253 -759 791 -1347 
z
" transform="scale(0.015625)"/>
      </defs>
      <use xlink:href="#ArialMT-46"/>
      <use xlink:href="#ArialMT-69" x="61.083984"/>
      <use xlink:href="#ArialMT-6e" x="83.300781"/>
      <use xlink:href="#ArialMT-61" x="138.916016"/>
      <use xlink:href="#ArialMT-6e" x="194.53125"/>
      <use xlink:href="#ArialMT-63" x="250.146484"/>
      <use xlink:href="#ArialMT-69" x="300.146484"/>
      <use xlink:href="#ArialMT-61" x="322.363281"/>
      <use xlink:href="#ArialMT-6c" x="377.978516"/>
      <use xlink:href="#ArialMT-20" x="400.195312"/>
      <use xlink:href="#ArialMT-43" x="427.978516"/>
      <use xlink:href="#ArialMT-6f" x="500.195312"/>
      <use xlink:href="#ArialMT-6d" x="555.810547"/>
      <use xlink:href="#ArialMT-70" x="639.111328"/>
      <use xlink:href="#ArialMT-65" x="694.726562"/>
      <use xlink:href="#ArialMT-6e" x="750.341797"/>
      <use xlink:href="#ArialMT-73" x="805.957031"/>
      <use xlink:href="#ArialMT-61" x="855.957031"/>
      <use xlink:href="#ArialMT-74" x="911.572266"/>
      <use xlink:href="#ArialMT-69" x="939.355469"/>
      <use xlink:href="#ArialMT-6f" x="961.572266"/>
      <use xlink:href="#ArialMT-6e" x="1017.1875"/>
      <use xlink:href="#ArialMT-20" x="1072.802734"/>
      <use xlink:href="#ArialMT-28" x="1100.585938"/>
      <use xlink:href="#ArialMT-74" x="1133.886719"/>
      <use xlink:href="#ArialMT-68" x="1161.669922"/>
      <use xlink:href="#ArialMT-6f" x="1217.285156"/>
      <use xlink:href="#ArialMT-75" x="1272.900391"/>
      <use xlink:href="#ArialMT-73" x="1328.515625"/>
      <use xlink:href="#ArialMT-61" x="1378.515625"/>
      <use xlink:href="#ArialMT-6e" x="1434.130859"/>
      <use xlink:href="#ArialMT-64" x="1489.746094"/>
      <use xlink:href="#ArialMT-73" x="1545.361328"/>
      <use xlink:href="#ArialMT-29" x="1595.361328"/>
     </g>
    </g>
   </g>
   <g id="matplotlib.axis_2">
    <g id="ytick_1">
     <g id="line2d_9">
      <path d="M 108 384.48 
L 777.6 384.48 
" clip-path="url(#p6316154746)" style="fill: none; stroke: #ffffff; stroke-linecap: round"/>
     </g>
     <g id="text_10">
      <!-- 0.000 -->
      <g style="fill: #262626" transform="translate(70.975938 388.416797)scale(0.11 -0.11)">
       <defs>
        <path id="ArialMT-2e" d="M 581 0 
L 581 641 
L 1222 641 
L 1222 0 
L 581 0 
z
" transform="scale(0.015625)"/>
       </defs>
       <use xlink:href="#ArialMT-30"/>
       <use xlink:href="#ArialMT-2e" x="55.615234"/>
       <use xlink:href="#ArialMT-30" x="83.398438"/>
       <use xlink:href="#ArialMT-30" x="139.013672"/>
       <use xlink:href="#ArialMT-30" x="194.628906"/>
      </g>
     </g>
    </g>
    <g id="ytick_2">
     <g id="line2d_10">
      <path d="M 108 326.214626 
L 777.6 326.214626 
" clip-path="url(#p6316154746)" style="fill: none; stroke: #ffffff; stroke-linecap: round"/>
     </g>
     <g id="text_11">
      <!-- 0.002 -->
      <g style="fill: #262626" transform="translate(70.975938 330.151422)scale(0.11 -0.11)">
       <use xlink:href="#ArialMT-30"/>
       <use xlink:href="#ArialMT-2e" x="55.615234"/>
       <use xlink:href="#ArialMT-30" x="83.398438"/>
       <use xlink:href="#ArialMT-30" x="139.013672"/>
       <use xlink:href="#ArialMT-32" x="194.628906"/>
      </g>
     </g>
    </g>
    <g id="ytick_3">
     <g id="line2d_11">
      <path d="M 108 267.949251 
L 777.6 267.949251 
" clip-path="url(#p6316154746)" style="fill: none; stroke: #ffffff; stroke-linecap: round"/>
     </g>
     <g id="text_12">
      <!-- 0.004 -->
      <g style="fill: #262626" transform="translate(70.975938 271.886048)scale(0.11 -0.11)">
       <use xlink:href="#ArialMT-30"/>
       <use xlink:href="#ArialMT-2e" x="55.615234"/>
       <use xlink:href="#ArialMT-30" x="83.398438"/>
       <use xlink:href="#ArialMT-30" x="139.013672"/>
       <use xlink:href="#ArialMT-34" x="194.628906"/>
      </g>
     </g>
    </g>
    <g id="ytick_4">
     <g id="line2d_12">
      <path d="M 108 209.683877 
L 777.6 209.683877 
" clip-path="url(#p6316154746)" style="fill: none; stroke: #ffffff; stroke-linecap: round"/>
     </g>
     <g id="text_13">
      <!-- 0.006 -->
      <g style="fill: #262626" transform="translate(70.975938 213.620674)scale(0.11 -0.11)">
       <defs>
        <path id="ArialMT-36" d="M 3184 3459 
L 2625 3416 
Q 2550 3747 2413 3897 
Q 2184 4138 1850 4138 
Q 1581 4138 1378 3988 
Q 1113 3794 959 3422 
Q 806 3050 800 2363 
Q 1003 2672 1297 2822 
Q 1591 2972 1913 2972 
Q 2475 2972 2870 2558 
Q 3266 2144 3266 1488 
Q 3266 1056 3080 686 
Q 2894 316 2569 119 
Q 2244 -78 1831 -78 
Q 1128 -78 684 439 
Q 241 956 241 2144 
Q 241 3472 731 4075 
Q 1159 4600 1884 4600 
Q 2425 4600 2770 4297 
Q 3116 3994 3184 3459 
z
M 888 1484 
Q 888 1194 1011 928 
Q 1134 663 1356 523 
Q 1578 384 1822 384 
Q 2178 384 2434 671 
Q 2691 959 2691 1453 
Q 2691 1928 2437 2201 
Q 2184 2475 1800 2475 
Q 1419 2475 1153 2201 
Q 888 1928 888 1484 
z
" transform="scale(0.015625)"/>
       </defs>
       <use xlink:href="#ArialMT-30"/>
       <use xlink:href="#ArialMT-2e" x="55.615234"/>
       <use xlink:href="#ArialMT-30" x="83.398438"/>
       <use xlink:href="#ArialMT-30" x="139.013672"/>
       <use xlink:href="#ArialMT-36" x="194.628906"/>
      </g>
     </g>
    </g>
    <g id="ytick_5">
     <g id="line2d_13">
      <path d="M 108 151.418502 
L 777.6 151.418502 
" clip-path="url(#p6316154746)" style="fill: none; stroke: #ffffff; stroke-linecap: round"/>
     </g>
     <g id="text_14">
      <!-- 0.008 -->
      <g style="fill: #262626" transform="translate(70.975938 155.355299)scale(0.11 -0.11)">
       <defs>
        <path id="ArialMT-38" d="M 1131 2484 
Q 781 2613 612 2850 
Q 444 3088 444 3419 
Q 444 3919 803 4259 
Q 1163 4600 1759 4600 
Q 2359 4600 2725 4251 
Q 3091 3903 3091 3403 
Q 3091 3084 2923 2848 
Q 2756 2613 2416 2484 
Q 2838 2347 3058 2040 
Q 3278 1734 3278 1309 
Q 3278 722 2862 322 
Q 2447 -78 1769 -78 
Q 1091 -78 675 323 
Q 259 725 259 1325 
Q 259 1772 486 2073 
Q 713 2375 1131 2484 
z
M 1019 3438 
Q 1019 3113 1228 2906 
Q 1438 2700 1772 2700 
Q 2097 2700 2305 2904 
Q 2513 3109 2513 3406 
Q 2513 3716 2298 3927 
Q 2084 4138 1766 4138 
Q 1444 4138 1231 3931 
Q 1019 3725 1019 3438 
z
M 838 1322 
Q 838 1081 952 856 
Q 1066 631 1291 507 
Q 1516 384 1775 384 
Q 2178 384 2440 643 
Q 2703 903 2703 1303 
Q 2703 1709 2433 1975 
Q 2163 2241 1756 2241 
Q 1359 2241 1098 1978 
Q 838 1716 838 1322 
z
" transform="scale(0.015625)"/>
       </defs>
       <use xlink:href="#ArialMT-30"/>
       <use xlink:href="#ArialMT-2e" x="55.615234"/>
       <use xlink:href="#ArialMT-30" x="83.398438"/>
       <use xlink:href="#ArialMT-30" x="139.013672"/>
       <use xlink:href="#ArialMT-38" x="194.628906"/>
      </g>
     </g>
    </g>
    <g id="ytick_6">
     <g id="line2d_14">
      <path d="M 108 93.153128 
L 777.6 93.153128 
" clip-path="url(#p6316154746)" style="fill: none; stroke: #ffffff; stroke-linecap: round"/>
     </g>
     <g id="text_15">
      <!-- 0.010 -->
      <g style="fill: #262626" transform="translate(70.975938 97.089925)scale(0.11 -0.11)">
       <use xlink:href="#ArialMT-30"/>
       <use xlink:href="#ArialMT-2e" x="55.615234"/>
       <use xlink:href="#ArialMT-30" x="83.398438"/>
       <use xlink:href="#ArialMT-31" x="139.013672"/>
       <use xlink:href="#ArialMT-30" x="194.628906"/>
      </g>
     </g>
    </g>
    <g id="text_16">
     <!-- Density -->
     <g style="fill: #262626" transform="translate(64.450312 238.16625)rotate(-90)scale(0.12 -0.12)">
      <defs>
       <path id="ArialMT-44" d="M 494 0 
L 494 4581 
L 2072 4581 
Q 2606 4581 2888 4516 
Q 3281 4425 3559 4188 
Q 3922 3881 4101 3404 
Q 4281 2928 4281 2316 
Q 4281 1794 4159 1391 
Q 4038 988 3847 723 
Q 3656 459 3429 307 
Q 3203 156 2883 78 
Q 2563 0 2147 0 
L 494 0 
z
M 1100 541 
L 2078 541 
Q 2531 541 2789 625 
Q 3047 709 3200 863 
Q 3416 1078 3536 1442 
Q 3656 1806 3656 2325 
Q 3656 3044 3420 3430 
Q 3184 3816 2847 3947 
Q 2603 4041 2063 4041 
L 1100 4041 
L 1100 541 
z
" transform="scale(0.015625)"/>
       <path id="ArialMT-79" d="M 397 -1278 
L 334 -750 
Q 519 -800 656 -800 
Q 844 -800 956 -737 
Q 1069 -675 1141 -563 
Q 1194 -478 1313 -144 
Q 1328 -97 1363 -6 
L 103 3319 
L 709 3319 
L 1400 1397 
Q 1534 1031 1641 628 
Q 1738 1016 1872 1384 
L 2581 3319 
L 3144 3319 
L 1881 -56 
Q 1678 -603 1566 -809 
Q 1416 -1088 1222 -1217 
Q 1028 -1347 759 -1347 
Q 597 -1347 397 -1278 
z
" transform="scale(0.015625)"/>
      </defs>
      <use xlink:href="#ArialMT-44"/>
      <use xlink:href="#ArialMT-65" x="72.216797"/>
      <use xlink:href="#ArialMT-6e" x="127.832031"/>
      <use xlink:href="#ArialMT-73" x="183.447266"/>
      <use xlink:href="#ArialMT-69" x="233.447266"/>
      <use xlink:href="#ArialMT-74" x="255.664062"/>
      <use xlink:href="#ArialMT-79" x="283.447266"/>
     </g>
    </g>
   </g>
   <g id="line2d_15">
    <path d="M 138.436364 384.288613 
L 141.495295 384.03072 
L 144.554226 383.509324 
L 147.613157 382.546417 
L 150.672088 380.919785 
L 153.731019 378.399668 
L 156.78995 374.80257 
L 159.848881 370.03768 
L 162.907812 364.117033 
L 165.966743 357.120337 
L 169.025674 349.141399 
L 172.084605 340.266377 
L 175.143536 330.617949 
L 181.261398 310.22805 
L 184.320329 300.646327 
L 187.37926 292.539258 
L 190.438191 286.729544 
L 193.497122 283.833685 
L 196.556053 284.053839 
L 199.614984 286.987469 
L 205.732846 295.961863 
L 208.791777 298.371107 
L 211.850708 297.276239 
L 214.909639 292.336746 
L 221.027501 276.991214 
L 224.086432 272.048851 
L 227.145363 272.17079 
L 230.204294 277.983778 
L 233.263225 288.239791 
L 236.322156 300.316015 
L 239.381087 311.132499 
L 242.440018 318.017485 
L 245.498949 319.206847 
L 248.55788 313.953017 
L 251.616811 302.423361 
L 254.675742 285.586206 
L 257.734673 265.154491 
L 260.793604 243.494532 
L 263.852535 223.326976 
L 266.911466 207.125706 
L 269.970397 196.344435 
L 273.029328 190.829612 
L 276.088259 188.81108 
L 279.14719 187.60433 
L 282.206122 184.745946 
L 285.265053 179.006468 
L 288.323984 170.789316 
L 291.382915 161.778067 
L 294.441846 154.083195 
L 297.500777 149.330065 
L 300.559708 148.07293 
L 303.618639 149.719197 
L 309.736501 156.257166 
L 312.795432 158.76799 
L 315.854363 160.249113 
L 318.913294 160.992962 
L 321.972225 161.253174 
L 325.031156 160.748533 
L 328.090087 158.557289 
L 331.149018 153.512118 
L 334.207949 144.887415 
L 337.26688 132.970826 
L 343.384742 105.524307 
L 346.443673 94.042843 
L 349.502604 86.041219 
L 352.561535 82.08 
L 355.620466 82.35012 
L 358.679397 87.220869 
L 361.738328 97.481836 
L 364.797259 114.015199 
L 367.85619 137.038724 
L 370.915121 165.398857 
L 377.032983 226.477432 
L 380.091914 252.060641 
L 383.150845 270.74261 
L 386.209776 281.691807 
L 389.268707 285.598813 
L 392.327638 284.231594 
L 395.386569 279.893236 
L 398.4455 274.945568 
L 401.504431 271.425694 
L 404.563362 270.738645 
L 407.622293 273.447862 
L 410.681224 279.223329 
L 413.740155 286.987686 
L 416.799086 295.233561 
L 419.858017 302.420124 
L 422.916948 307.335123 
L 425.975879 309.336948 
L 429.03481 308.444194 
L 432.093741 305.283864 
L 438.211603 296.645393 
L 441.270534 293.624215 
L 444.329466 292.704378 
L 447.388397 294.226441 
L 450.447328 298.043077 
L 453.506259 303.688195 
L 456.56519 310.605873 
L 459.624121 318.306413 
L 465.741983 334.393979 
L 468.800914 341.872434 
L 471.859845 348.343674 
L 474.918776 353.538201 
L 477.977707 357.531185 
L 481.036638 360.720259 
L 487.1545 366.604953 
L 490.213431 369.709199 
L 493.272362 372.646688 
L 496.331293 374.949273 
L 499.390224 376.177002 
L 502.449155 376.095954 
L 505.508086 374.779458 
L 508.567017 372.620168 
L 511.625948 370.250887 
L 514.684879 368.380557 
L 517.74381 367.580043 
L 520.802741 368.088911 
L 523.861672 369.723141 
L 526.920603 371.923927 
L 529.979534 373.921526 
L 533.038465 374.94382 
L 536.097396 374.405056 
L 539.156327 372.047618 
L 542.215258 368.03424 
L 548.33312 357.857006 
L 551.392051 353.821547 
L 554.450982 351.85738 
L 557.509913 352.481439 
L 560.568844 355.572453 
L 563.627775 360.435845 
L 569.745637 371.507199 
L 572.804568 376.067719 
L 575.863499 379.461226 
L 578.92243 381.725808 
L 581.981361 383.09003 
L 585.040292 383.835044 
L 588.099223 384.204917 
L 594.217085 384.441172 
L 609.511741 384.479935 
L 682.926085 384.381433 
L 685.985016 384.236709 
L 689.043947 383.929701 
L 692.102878 383.339356 
L 695.161809 382.313394 
L 698.22074 380.708724 
L 701.279671 378.464451 
L 704.338602 375.686925 
L 707.397533 372.701641 
L 710.456464 370.022029 
L 713.515395 368.216709 
L 716.574326 367.715599 
L 719.633257 368.643974 
L 722.692188 370.771723 
L 731.868981 379.214203 
L 734.927912 381.265489 
L 737.986843 382.681774 
L 741.045774 383.558167 
L 744.104705 384.046949 
L 747.163636 384.293575 
L 747.163636 384.293575 
" clip-path="url(#p6316154746)" style="fill: none; stroke: #4c72b0; stroke-width: 1.5; stroke-linecap: round"/>
   </g>
   <g id="LineCollection_1">
    <path d="M 422.995073 384.48 
L 422.995073 376.164 
" clip-path="url(#p6316154746)" style="fill: none; stroke: #dd8452"/>
    <path d="M 270.893233 384.48 
L 270.893233 376.164 
" clip-path="url(#p6316154746)" style="fill: none; stroke: #dd8452"/>
    <path d="M 240.789744 384.48 
L 240.789744 376.164 
" clip-path="url(#p6316154746)" style="fill: none; stroke: #dd8452"/>
    <path d="M 367.937376 384.48 
L 367.937376 376.164 
" clip-path="url(#p6316154746)" style="fill: none; stroke: #dd8452"/>
    <path d="M 358.034912 384.48 
L 358.034912 376.164 
" clip-path="url(#p6316154746)" style="fill: none; stroke: #dd8452"/>
    <path d="M 399.22916 384.48 
L 399.22916 376.164 
" clip-path="url(#p6316154746)" style="fill: none; stroke: #dd8452"/>
    <path d="M 228.114591 384.48 
L 228.114591 376.164 
" clip-path="url(#p6316154746)" style="fill: none; stroke: #dd8452"/>
    <path d="M 308.918693 384.48 
L 308.918693 376.164 
" clip-path="url(#p6316154746)" style="fill: none; stroke: #dd8452"/>
    <path d="M 386.554007 384.48 
L 386.554007 376.164 
" clip-path="url(#p6316154746)" style="fill: none; stroke: #dd8452"/>
    <path d="M 272.477627 384.48 
L 272.477627 376.164 
" clip-path="url(#p6316154746)" style="fill: none; stroke: #dd8452"/>
    <path d="M 430.917044 384.48 
L 430.917044 376.164 
" clip-path="url(#p6316154746)" style="fill: none; stroke: #dd8452"/>
    <path d="M 387.346204 384.48 
L 387.346204 376.164 
" clip-path="url(#p6316154746)" style="fill: none; stroke: #dd8452"/>
    <path d="M 256.633686 384.48 
L 256.633686 376.164 
" clip-path="url(#p6316154746)" style="fill: none; stroke: #dd8452"/>
    <path d="M 351.697336 384.48 
L 351.697336 376.164 
" clip-path="url(#p6316154746)" style="fill: none; stroke: #dd8452"/>
    <path d="M 351.697336 384.48 
L 351.697336 376.164 
" clip-path="url(#p6316154746)" style="fill: none; stroke: #dd8452"/>
    <path d="M 193.257919 384.48 
L 193.257919 376.164 
" clip-path="url(#p6316154746)" style="fill: none; stroke: #dd8452"/>
    <path d="M 304.165511 384.48 
L 304.165511 376.164 
" clip-path="url(#p6316154746)" style="fill: none; stroke: #dd8452"/>
    <path d="M 335.853394 384.48 
L 335.853394 376.164 
" clip-path="url(#p6316154746)" style="fill: none; stroke: #dd8452"/>
    <path d="M 367.541277 384.48 
L 367.541277 376.164 
" clip-path="url(#p6316154746)" style="fill: none; stroke: #dd8452"/>
    <path d="M 327.931423 384.48 
L 327.931423 376.164 
" clip-path="url(#p6316154746)" style="fill: none; stroke: #dd8452"/>
    <path d="M 272.477627 384.48 
L 272.477627 376.164 
" clip-path="url(#p6316154746)" style="fill: none; stroke: #dd8452"/>
    <path d="M 462.604927 384.48 
L 462.604927 376.164 
" clip-path="url(#p6316154746)" style="fill: none; stroke: #dd8452"/>
    <path d="M 224.945802 384.48 
L 224.945802 376.164 
" clip-path="url(#p6316154746)" style="fill: none; stroke: #dd8452"/>
    <path d="M 343.775365 384.48 
L 343.775365 376.164 
" clip-path="url(#p6316154746)" style="fill: none; stroke: #dd8452"/>
    <path d="M 288.321569 384.48 
L 288.321569 376.164 
" clip-path="url(#p6316154746)" style="fill: none; stroke: #dd8452"/>
    <path d="M 367.541277 384.48 
L 367.541277 376.164 
" clip-path="url(#p6316154746)" style="fill: none; stroke: #dd8452"/>
    <path d="M 288.321569 384.48 
L 288.321569 376.164 
" clip-path="url(#p6316154746)" style="fill: none; stroke: #dd8452"/>
    <path d="M 224.945802 384.48 
L 224.945802 376.164 
" clip-path="url(#p6316154746)" style="fill: none; stroke: #dd8452"/>
    <path d="M 438.839015 384.48 
L 438.839015 376.164 
" clip-path="url(#p6316154746)" style="fill: none; stroke: #dd8452"/>
    <path d="M 367.541277 384.48 
L 367.541277 376.164 
" clip-path="url(#p6316154746)" style="fill: none; stroke: #dd8452"/>
    <path d="M 446.760985 384.48 
L 446.760985 376.164 
" clip-path="url(#p6316154746)" style="fill: none; stroke: #dd8452"/>
    <path d="M 327.931423 384.48 
L 327.931423 376.164 
" clip-path="url(#p6316154746)" style="fill: none; stroke: #dd8452"/>
    <path d="M 315.25627 384.48 
L 315.25627 376.164 
" clip-path="url(#p6316154746)" style="fill: none; stroke: #dd8452"/>
    <path d="M 201.17989 384.48 
L 201.17989 376.164 
" clip-path="url(#p6316154746)" style="fill: none; stroke: #dd8452"/>
    <path d="M 224.945802 384.48 
L 224.945802 376.164 
" clip-path="url(#p6316154746)" style="fill: none; stroke: #dd8452"/>
    <path d="M 335.853394 384.48 
L 335.853394 376.164 
" clip-path="url(#p6316154746)" style="fill: none; stroke: #dd8452"/>
    <path d="M 302.581117 384.48 
L 302.581117 376.164 
" clip-path="url(#p6316154746)" style="fill: none; stroke: #dd8452"/>
    <path d="M 286.737175 384.48 
L 286.737175 376.164 
" clip-path="url(#p6316154746)" style="fill: none; stroke: #dd8452"/>
    <path d="M 369.125671 384.48 
L 369.125671 376.164 
" clip-path="url(#p6316154746)" style="fill: none; stroke: #dd8452"/>
    <path d="M 185.335948 384.48 
L 185.335948 376.164 
" clip-path="url(#p6316154746)" style="fill: none; stroke: #dd8452"/>
    <path d="M 462.604927 384.48 
L 462.604927 376.164 
" clip-path="url(#p6316154746)" style="fill: none; stroke: #dd8452"/>
    <path d="M 228.114591 384.48 
L 228.114591 376.164 
" clip-path="url(#p6316154746)" style="fill: none; stroke: #dd8452"/>
    <path d="M 367.541277 384.48 
L 367.541277 376.164 
" clip-path="url(#p6316154746)" style="fill: none; stroke: #dd8452"/>
    <path d="M 343.775365 384.48 
L 343.775365 376.164 
" clip-path="url(#p6316154746)" style="fill: none; stroke: #dd8452"/>
    <path d="M 410.31992 384.48 
L 410.31992 376.164 
" clip-path="url(#p6316154746)" style="fill: none; stroke: #dd8452"/>
    <path d="M 326.347029 384.48 
L 326.347029 376.164 
" clip-path="url(#p6316154746)" style="fill: none; stroke: #dd8452"/>
    <path d="M 320.009452 384.48 
L 320.009452 376.164 
" clip-path="url(#p6316154746)" style="fill: none; stroke: #dd8452"/>
    <path d="M 518.058723 384.48 
L 518.058723 376.164 
" clip-path="url(#p6316154746)" style="fill: none; stroke: #dd8452"/>
    <path d="M 196.426708 384.48 
L 196.426708 376.164 
" clip-path="url(#p6316154746)" style="fill: none; stroke: #dd8452"/>
    <path d="M 359.619306 384.48 
L 359.619306 376.164 
" clip-path="url(#p6316154746)" style="fill: none; stroke: #dd8452"/>
    <path d="M 264.555657 384.48 
L 264.555657 376.164 
" clip-path="url(#p6316154746)" style="fill: none; stroke: #dd8452"/>
    <path d="M 343.775365 384.48 
L 343.775365 376.164 
" clip-path="url(#p6316154746)" style="fill: none; stroke: #dd8452"/>
    <path d="M 201.17989 384.48 
L 201.17989 376.164 
" clip-path="url(#p6316154746)" style="fill: none; stroke: #dd8452"/>
    <path d="M 367.541277 384.48 
L 367.541277 376.164 
" clip-path="url(#p6316154746)" style="fill: none; stroke: #dd8452"/>
    <path d="M 296.24354 384.48 
L 296.24354 376.164 
" clip-path="url(#p6316154746)" style="fill: none; stroke: #dd8452"/>
    <path d="M 367.541277 384.48 
L 367.541277 376.164 
" clip-path="url(#p6316154746)" style="fill: none; stroke: #dd8452"/>
    <path d="M 288.321569 384.48 
L 288.321569 376.164 
" clip-path="url(#p6316154746)" style="fill: none; stroke: #dd8452"/>
    <path d="M 188.504737 384.48 
L 188.504737 376.164 
" clip-path="url(#p6316154746)" style="fill: none; stroke: #dd8452"/>
    <path d="M 438.839015 384.48 
L 438.839015 376.164 
" clip-path="url(#p6316154746)" style="fill: none; stroke: #dd8452"/>
    <path d="M 312.087481 384.48 
L 312.087481 376.164 
" clip-path="url(#p6316154746)" style="fill: none; stroke: #dd8452"/>
    <path d="M 296.24354 384.48 
L 296.24354 376.164 
" clip-path="url(#p6316154746)" style="fill: none; stroke: #dd8452"/>
    <path d="M 557.668577 384.48 
L 557.668577 376.164 
" clip-path="url(#p6316154746)" style="fill: none; stroke: #dd8452"/>
    <path d="M 343.775365 384.48 
L 343.775365 376.164 
" clip-path="url(#p6316154746)" style="fill: none; stroke: #dd8452"/>
    <path d="M 267.724445 384.48 
L 267.724445 376.164 
" clip-path="url(#p6316154746)" style="fill: none; stroke: #dd8452"/>
    <path d="M 343.775365 384.48 
L 343.775365 376.164 
" clip-path="url(#p6316154746)" style="fill: none; stroke: #dd8452"/>
    <path d="M 304.165511 384.48 
L 304.165511 376.164 
" clip-path="url(#p6316154746)" style="fill: none; stroke: #dd8452"/>
    <path d="M 346.944153 384.48 
L 346.944153 376.164 
" clip-path="url(#p6316154746)" style="fill: none; stroke: #dd8452"/>
    <path d="M 359.619306 384.48 
L 359.619306 376.164 
" clip-path="url(#p6316154746)" style="fill: none; stroke: #dd8452"/>
    <path d="M 343.775365 384.48 
L 343.775365 376.164 
" clip-path="url(#p6316154746)" style="fill: none; stroke: #dd8452"/>
    <path d="M 399.22916 384.48 
L 399.22916 376.164 
" clip-path="url(#p6316154746)" style="fill: none; stroke: #dd8452"/>
    <path d="M 451.514168 384.48 
L 451.514168 376.164 
" clip-path="url(#p6316154746)" style="fill: none; stroke: #dd8452"/>
    <path d="M 399.22916 384.48 
L 399.22916 376.164 
" clip-path="url(#p6316154746)" style="fill: none; stroke: #dd8452"/>
    <path d="M 407.151131 384.48 
L 407.151131 376.164 
" clip-path="url(#p6316154746)" style="fill: none; stroke: #dd8452"/>
    <path d="M 264.555657 384.48 
L 264.555657 376.164 
" clip-path="url(#p6316154746)" style="fill: none; stroke: #dd8452"/>
    <path d="M 351.697336 384.48 
L 351.697336 376.164 
" clip-path="url(#p6316154746)" style="fill: none; stroke: #dd8452"/>
    <path d="M 280.399598 384.48 
L 280.399598 376.164 
" clip-path="url(#p6316154746)" style="fill: none; stroke: #dd8452"/>
    <path d="M 296.24354 384.48 
L 296.24354 376.164 
" clip-path="url(#p6316154746)" style="fill: none; stroke: #dd8452"/>
    <path d="M 483.202051 384.48 
L 483.202051 376.164 
" clip-path="url(#p6316154746)" style="fill: none; stroke: #dd8452"/>
    <path d="M 316.840664 384.48 
L 316.840664 376.164 
" clip-path="url(#p6316154746)" style="fill: none; stroke: #dd8452"/>
    <path d="M 255.049292 384.48 
L 255.049292 376.164 
" clip-path="url(#p6316154746)" style="fill: none; stroke: #dd8452"/>
    <path d="M 296.24354 384.48 
L 296.24354 376.164 
" clip-path="url(#p6316154746)" style="fill: none; stroke: #dd8452"/>
    <path d="M 359.619306 384.48 
L 359.619306 376.164 
" clip-path="url(#p6316154746)" style="fill: none; stroke: #dd8452"/>
    <path d="M 415.073102 384.48 
L 415.073102 376.164 
" clip-path="url(#p6316154746)" style="fill: none; stroke: #dd8452"/>
    <path d="M 269.308839 384.48 
L 269.308839 376.164 
" clip-path="url(#p6316154746)" style="fill: none; stroke: #dd8452"/>
    <path d="M 209.101861 384.48 
L 209.101861 376.164 
" clip-path="url(#p6316154746)" style="fill: none; stroke: #dd8452"/>
    <path d="M 446.760985 384.48 
L 446.760985 376.164 
" clip-path="url(#p6316154746)" style="fill: none; stroke: #dd8452"/>
    <path d="M 320.009452 384.48 
L 320.009452 376.164 
" clip-path="url(#p6316154746)" style="fill: none; stroke: #dd8452"/>
    <path d="M 272.477627 384.48 
L 272.477627 376.164 
" clip-path="url(#p6316154746)" style="fill: none; stroke: #dd8452"/>
    <path d="M 337.437788 384.48 
L 337.437788 376.164 
" clip-path="url(#p6316154746)" style="fill: none; stroke: #dd8452"/>
    <path d="M 375.463248 384.48 
L 375.463248 376.164 
" clip-path="url(#p6316154746)" style="fill: none; stroke: #dd8452"/>
    <path d="M 327.931423 384.48 
L 327.931423 376.164 
" clip-path="url(#p6316154746)" style="fill: none; stroke: #dd8452"/>
    <path d="M 300.996722 384.48 
L 300.996722 376.164 
" clip-path="url(#p6316154746)" style="fill: none; stroke: #dd8452"/>
    <path d="M 180.582766 384.48 
L 180.582766 376.164 
" clip-path="url(#p6316154746)" style="fill: none; stroke: #dd8452"/>
    <path d="M 716.107993 384.48 
L 716.107993 376.164 
" clip-path="url(#p6316154746)" style="fill: none; stroke: #dd8452"/>
    <path d="M 304.165511 384.48 
L 304.165511 376.164 
" clip-path="url(#p6316154746)" style="fill: none; stroke: #dd8452"/>
    <path d="M 291.490357 384.48 
L 291.490357 376.164 
" clip-path="url(#p6316154746)" style="fill: none; stroke: #dd8452"/>
    <path d="M 320.009452 384.48 
L 320.009452 376.164 
" clip-path="url(#p6316154746)" style="fill: none; stroke: #dd8452"/>
    <path d="M 351.697336 384.48 
L 351.697336 376.164 
" clip-path="url(#p6316154746)" style="fill: none; stroke: #dd8452"/>
    <path d="M 552.915394 384.48 
L 552.915394 376.164 
" clip-path="url(#p6316154746)" style="fill: none; stroke: #dd8452"/>
    <path d="M 169.492007 384.48 
L 169.492007 376.164 
" clip-path="url(#p6316154746)" style="fill: none; stroke: #dd8452"/>
    <path d="M 320.009452 384.48 
L 320.009452 376.164 
" clip-path="url(#p6316154746)" style="fill: none; stroke: #dd8452"/>
    <path d="M 407.151131 384.48 
L 407.151131 376.164 
" clip-path="url(#p6316154746)" style="fill: none; stroke: #dd8452"/>
    <path d="M 272.477627 384.48 
L 272.477627 376.164 
" clip-path="url(#p6316154746)" style="fill: none; stroke: #dd8452"/>
    <path d="M 351.697336 384.48 
L 351.697336 376.164 
" clip-path="url(#p6316154746)" style="fill: none; stroke: #dd8452"/>
    <path d="M 359.619306 384.48 
L 359.619306 376.164 
" clip-path="url(#p6316154746)" style="fill: none; stroke: #dd8452"/>
    <path d="M 224.945802 384.48 
L 224.945802 376.164 
" clip-path="url(#p6316154746)" style="fill: none; stroke: #dd8452"/>
   </g>
   <g id="patch_3">
    <path d="M 108 384.48 
L 108 51.84 
" style="fill: none; stroke: #ffffff; stroke-width: 1.25; stroke-linejoin: miter; stroke-linecap: square"/>
   </g>
   <g id="patch_4">
    <path d="M 777.6 384.48 
L 777.6 51.84 
" style="fill: none; stroke: #ffffff; stroke-width: 1.25; stroke-linejoin: miter; stroke-linecap: square"/>
   </g>
   <g id="patch_5">
    <path d="M 108 384.48 
L 777.6 384.48 
" style="fill: none; stroke: #ffffff; stroke-width: 1.25; stroke-linejoin: miter; stroke-linecap: square"/>
   </g>
   <g id="patch_6">
    <path d="M 108 51.84 
L 777.6 51.84 
" style="fill: none; stroke: #ffffff; stroke-width: 1.25; stroke-linejoin: miter; stroke-linecap: square"/>
   </g>
   <g id="text_17">
    <!-- Distribution of Financial Compensation (2021) -->
    <g style="fill: #262626" transform="translate(321.079688 45.84)scale(0.12 -0.12)">
     <defs>
      <path id="ArialMT-72" d="M 416 0 
L 416 3319 
L 922 3319 
L 922 2816 
Q 1116 3169 1280 3281 
Q 1444 3394 1641 3394 
Q 1925 3394 2219 3213 
L 2025 2691 
Q 1819 2813 1613 2813 
Q 1428 2813 1281 2702 
Q 1134 2591 1072 2394 
Q 978 2094 978 1738 
L 978 0 
L 416 0 
z
" transform="scale(0.015625)"/>
      <path id="ArialMT-62" d="M 941 0 
L 419 0 
L 419 4581 
L 981 4581 
L 981 2947 
Q 1338 3394 1891 3394 
Q 2197 3394 2470 3270 
Q 2744 3147 2920 2923 
Q 3097 2700 3197 2384 
Q 3297 2069 3297 1709 
Q 3297 856 2875 390 
Q 2453 -75 1863 -75 
Q 1275 -75 941 416 
L 941 0 
z
M 934 1684 
Q 934 1088 1097 822 
Q 1363 388 1816 388 
Q 2184 388 2453 708 
Q 2722 1028 2722 1663 
Q 2722 2313 2464 2622 
Q 2206 2931 1841 2931 
Q 1472 2931 1203 2611 
Q 934 2291 934 1684 
z
" transform="scale(0.015625)"/>
      <path id="ArialMT-66" d="M 556 0 
L 556 2881 
L 59 2881 
L 59 3319 
L 556 3319 
L 556 3672 
Q 556 4006 616 4169 
Q 697 4388 901 4523 
Q 1106 4659 1475 4659 
Q 1713 4659 2000 4603 
L 1916 4113 
Q 1741 4144 1584 4144 
Q 1328 4144 1222 4034 
Q 1116 3925 1116 3625 
L 1116 3319 
L 1763 3319 
L 1763 2881 
L 1116 2881 
L 1116 0 
L 556 0 
z
" transform="scale(0.015625)"/>
     </defs>
     <use xlink:href="#ArialMT-44"/>
     <use xlink:href="#ArialMT-69" x="72.216797"/>
     <use xlink:href="#ArialMT-73" x="94.433594"/>
     <use xlink:href="#ArialMT-74" x="144.433594"/>
     <use xlink:href="#ArialMT-72" x="172.216797"/>
     <use xlink:href="#ArialMT-69" x="205.517578"/>
     <use xlink:href="#ArialMT-62" x="227.734375"/>
     <use xlink:href="#ArialMT-75" x="283.349609"/>
     <use xlink:href="#ArialMT-74" x="338.964844"/>
     <use xlink:href="#ArialMT-69" x="366.748047"/>
     <use xlink:href="#ArialMT-6f" x="388.964844"/>
     <use xlink:href="#ArialMT-6e" x="444.580078"/>
     <use xlink:href="#ArialMT-20" x="500.195312"/>
     <use xlink:href="#ArialMT-6f" x="527.978516"/>
     <use xlink:href="#ArialMT-66" x="583.59375"/>
     <use xlink:href="#ArialMT-20" x="611.376953"/>
     <use xlink:href="#ArialMT-46" x="639.160156"/>
     <use xlink:href="#ArialMT-69" x="700.244141"/>
     <use xlink:href="#ArialMT-6e" x="722.460938"/>
     <use xlink:href="#ArialMT-61" x="778.076172"/>
     <use xlink:href="#ArialMT-6e" x="833.691406"/>
     <use xlink:href="#ArialMT-63" x="889.306641"/>
     <use xlink:href="#ArialMT-69" x="939.306641"/>
     <use xlink:href="#ArialMT-61" x="961.523438"/>
     <use xlink:href="#ArialMT-6c" x="1017.138672"/>
     <use xlink:href="#ArialMT-20" x="1039.355469"/>
     <use xlink:href="#ArialMT-43" x="1067.138672"/>
     <use xlink:href="#ArialMT-6f" x="1139.355469"/>
     <use xlink:href="#ArialMT-6d" x="1194.970703"/>
     <use xlink:href="#ArialMT-70" x="1278.271484"/>
     <use xlink:href="#ArialMT-65" x="1333.886719"/>
     <use xlink:href="#ArialMT-6e" x="1389.501953"/>
     <use xlink:href="#ArialMT-73" x="1445.117188"/>
     <use xlink:href="#ArialMT-61" x="1495.117188"/>
     <use xlink:href="#ArialMT-74" x="1550.732422"/>
     <use xlink:href="#ArialMT-69" x="1578.515625"/>
     <use xlink:href="#ArialMT-6f" x="1600.732422"/>
     <use xlink:href="#ArialMT-6e" x="1656.347656"/>
     <use xlink:href="#ArialMT-20" x="1711.962891"/>
     <use xlink:href="#ArialMT-28" x="1739.746094"/>
     <use xlink:href="#ArialMT-32" x="1773.046875"/>
     <use xlink:href="#ArialMT-30" x="1828.662109"/>
     <use xlink:href="#ArialMT-32" x="1884.277344"/>
     <use xlink:href="#ArialMT-31" x="1939.892578"/>
     <use xlink:href="#ArialMT-29" x="1995.507812"/>
    </g>
   </g>
  </g>
 </g>
 <defs>
  <clipPath id="p6316154746">
   <rect x="108" y="51.84" width="669.6" height="332.64"/>
  </clipPath>
 </defs>
</svg>
