<?xml version="1.0" encoding="utf-8" standalone="no"?>
<!DOCTYPE svg PUBLIC "-//W3C//DTD SVG 1.1//EN"
  "http://www.w3.org/Graphics/SVG/1.1/DTD/svg11.dtd">
<svg xmlns:xlink="http://www.w3.org/1999/xlink" width="864pt" height="432pt" viewBox="0 0 864 432" xmlns="http://www.w3.org/2000/svg" version="1.1">
 <metadata>
  <rdf:RDF xmlns:dc="http://purl.org/dc/elements/1.1/" xmlns:cc="http://creativecommons.org/ns#" xmlns:rdf="http://www.w3.org/1999/02/22-rdf-syntax-ns#">
   <cc:Work>
    <dc:type rdf:resource="http://purl.org/dc/dcmitype/StillImage"/>
    <dc:date>2023-02-27T12:15:38.807447</dc:date>
    <dc:format>image/svg+xml</dc:format>
    <dc:creator>
     <cc:Agent>
      <dc:title>Matplotlib v3.5.2, https://matplotlib.org/</dc:title>
     </cc:Agent>
    </dc:creator>
   </cc:Work>
  </rdf:RDF>
 </metadata>
 <defs>
  <style type="text/css">*{stroke-linejoin: round; stroke-linecap: butt}</style>
 </defs>
 <g id="figure_1">
  <g id="patch_1">
   <path d="M 0 432 
L 864 432 
L 864 0 
L 0 0 
z
" style="fill: #ffffff"/>
  </g>
  <g id="axes_1">
   <g id="patch_2">
    <path d="M 108 384.48 
L 777.6 384.48 
L 777.6 51.84 
L 108 51.84 
z
" style="fill: #eaeaf2"/>
   </g>
   <g id="matplotlib.axis_1">
    <g id="xtick_1">
     <g id="text_1">
      <!-- DevOps -->
      <g style="fill: #262626" transform="translate(143.932969 401.994531)scale(0.11 -0.11)">
       <defs>
        <path id="ArialMT-44" d="M 494 0 
L 494 4581 
L 2072 4581 
Q 2606 4581 2888 4516 
Q 3281 4425 3559 4188 
Q 3922 3881 4101 3404 
Q 4281 2928 4281 2316 
Q 4281 1794 4159 1391 
Q 4038 988 3847 723 
Q 3656 459 3429 307 
Q 3203 156 2883 78 
Q 2563 0 2147 0 
L 494 0 
z
M 1100 541 
L 2078 541 
Q 2531 541 2789 625 
Q 3047 709 3200 863 
Q 3416 1078 3536 1442 
Q 3656 1806 3656 2325 
Q 3656 3044 3420 3430 
Q 3184 3816 2847 3947 
Q 2603 4041 2063 4041 
L 1100 4041 
L 1100 541 
z
" transform="scale(0.015625)"/>
        <path id="ArialMT-65" d="M 2694 1069 
L 3275 997 
Q 3138 488 2766 206 
Q 2394 -75 1816 -75 
Q 1088 -75 661 373 
Q 234 822 234 1631 
Q 234 2469 665 2931 
Q 1097 3394 1784 3394 
Q 2450 3394 2872 2941 
Q 3294 2488 3294 1666 
Q 3294 1616 3291 1516 
L 816 1516 
Q 847 969 1125 678 
Q 1403 388 1819 388 
Q 2128 388 2347 550 
Q 2566 713 2694 1069 
z
M 847 1978 
L 2700 1978 
Q 2663 2397 2488 2606 
Q 2219 2931 1791 2931 
Q 1403 2931 1139 2672 
Q 875 2413 847 1978 
z
" transform="scale(0.015625)"/>
        <path id="ArialMT-76" d="M 1344 0 
L 81 3319 
L 675 3319 
L 1388 1331 
Q 1503 1009 1600 663 
Q 1675 925 1809 1294 
L 2547 3319 
L 3125 3319 
L 1869 0 
L 1344 0 
z
" transform="scale(0.015625)"/>
        <path id="ArialMT-4f" d="M 309 2231 
Q 309 3372 921 4017 
Q 1534 4663 2503 4663 
Q 3138 4663 3647 4359 
Q 4156 4056 4423 3514 
Q 4691 2972 4691 2284 
Q 4691 1588 4409 1038 
Q 4128 488 3612 205 
Q 3097 -78 2500 -78 
Q 1853 -78 1343 234 
Q 834 547 571 1087 
Q 309 1628 309 2231 
z
M 934 2222 
Q 934 1394 1379 917 
Q 1825 441 2497 441 
Q 3181 441 3623 922 
Q 4066 1403 4066 2288 
Q 4066 2847 3877 3264 
Q 3688 3681 3323 3911 
Q 2959 4141 2506 4141 
Q 1863 4141 1398 3698 
Q 934 3256 934 2222 
z
" transform="scale(0.015625)"/>
        <path id="ArialMT-70" d="M 422 -1272 
L 422 3319 
L 934 3319 
L 934 2888 
Q 1116 3141 1344 3267 
Q 1572 3394 1897 3394 
Q 2322 3394 2647 3175 
Q 2972 2956 3137 2557 
Q 3303 2159 3303 1684 
Q 3303 1175 3120 767 
Q 2938 359 2589 142 
Q 2241 -75 1856 -75 
Q 1575 -75 1351 44 
Q 1128 163 984 344 
L 984 -1272 
L 422 -1272 
z
M 931 1641 
Q 931 1000 1190 694 
Q 1450 388 1819 388 
Q 2194 388 2461 705 
Q 2728 1022 2728 1688 
Q 2728 2322 2467 2637 
Q 2206 2953 1844 2953 
Q 1484 2953 1207 2617 
Q 931 2281 931 1641 
z
" transform="scale(0.015625)"/>
        <path id="ArialMT-73" d="M 197 991 
L 753 1078 
Q 800 744 1014 566 
Q 1228 388 1613 388 
Q 2000 388 2187 545 
Q 2375 703 2375 916 
Q 2375 1106 2209 1216 
Q 2094 1291 1634 1406 
Q 1016 1563 777 1677 
Q 538 1791 414 1992 
Q 291 2194 291 2438 
Q 291 2659 392 2848 
Q 494 3038 669 3163 
Q 800 3259 1026 3326 
Q 1253 3394 1513 3394 
Q 1903 3394 2198 3281 
Q 2494 3169 2634 2976 
Q 2775 2784 2828 2463 
L 2278 2388 
Q 2241 2644 2061 2787 
Q 1881 2931 1553 2931 
Q 1166 2931 1000 2803 
Q 834 2675 834 2503 
Q 834 2394 903 2306 
Q 972 2216 1119 2156 
Q 1203 2125 1616 2013 
Q 2213 1853 2448 1751 
Q 2684 1650 2818 1456 
Q 2953 1263 2953 975 
Q 2953 694 2789 445 
Q 2625 197 2315 61 
Q 2006 -75 1616 -75 
Q 969 -75 630 194 
Q 291 463 197 991 
z
" transform="scale(0.015625)"/>
       </defs>
       <use xlink:href="#ArialMT-44"/>
       <use xlink:href="#ArialMT-65" x="72.216797"/>
       <use xlink:href="#ArialMT-76" x="127.832031"/>
       <use xlink:href="#ArialMT-4f" x="177.832031"/>
       <use xlink:href="#ArialMT-70" x="255.615234"/>
       <use xlink:href="#ArialMT-73" x="311.230469"/>
      </g>
     </g>
    </g>
    <g id="xtick_2">
     <g id="text_2">
      <!-- IT/Support -->
      <g style="fill: #262626" transform="translate(249.722734 401.987656)scale(0.11 -0.11)">
       <defs>
        <path id="ArialMT-49" d="M 597 0 
L 597 4581 
L 1203 4581 
L 1203 0 
L 597 0 
z
" transform="scale(0.015625)"/>
        <path id="ArialMT-54" d="M 1659 0 
L 1659 4041 
L 150 4041 
L 150 4581 
L 3781 4581 
L 3781 4041 
L 2266 4041 
L 2266 0 
L 1659 0 
z
" transform="scale(0.015625)"/>
        <path id="ArialMT-2f" d="M 0 -78 
L 1328 4659 
L 1778 4659 
L 453 -78 
L 0 -78 
z
" transform="scale(0.015625)"/>
        <path id="ArialMT-53" d="M 288 1472 
L 859 1522 
Q 900 1178 1048 958 
Q 1197 738 1509 602 
Q 1822 466 2213 466 
Q 2559 466 2825 569 
Q 3091 672 3220 851 
Q 3350 1031 3350 1244 
Q 3350 1459 3225 1620 
Q 3100 1781 2813 1891 
Q 2628 1963 1997 2114 
Q 1366 2266 1113 2400 
Q 784 2572 623 2826 
Q 463 3081 463 3397 
Q 463 3744 659 4045 
Q 856 4347 1234 4503 
Q 1613 4659 2075 4659 
Q 2584 4659 2973 4495 
Q 3363 4331 3572 4012 
Q 3781 3694 3797 3291 
L 3216 3247 
Q 3169 3681 2898 3903 
Q 2628 4125 2100 4125 
Q 1550 4125 1298 3923 
Q 1047 3722 1047 3438 
Q 1047 3191 1225 3031 
Q 1400 2872 2139 2705 
Q 2878 2538 3153 2413 
Q 3553 2228 3743 1945 
Q 3934 1663 3934 1294 
Q 3934 928 3725 604 
Q 3516 281 3123 101 
Q 2731 -78 2241 -78 
Q 1619 -78 1198 103 
Q 778 284 539 648 
Q 300 1013 288 1472 
z
" transform="scale(0.015625)"/>
        <path id="ArialMT-75" d="M 2597 0 
L 2597 488 
Q 2209 -75 1544 -75 
Q 1250 -75 995 37 
Q 741 150 617 320 
Q 494 491 444 738 
Q 409 903 409 1263 
L 409 3319 
L 972 3319 
L 972 1478 
Q 972 1038 1006 884 
Q 1059 663 1231 536 
Q 1403 409 1656 409 
Q 1909 409 2131 539 
Q 2353 669 2445 892 
Q 2538 1116 2538 1541 
L 2538 3319 
L 3100 3319 
L 3100 0 
L 2597 0 
z
" transform="scale(0.015625)"/>
        <path id="ArialMT-6f" d="M 213 1659 
Q 213 2581 725 3025 
Q 1153 3394 1769 3394 
Q 2453 3394 2887 2945 
Q 3322 2497 3322 1706 
Q 3322 1066 3130 698 
Q 2938 331 2570 128 
Q 2203 -75 1769 -75 
Q 1072 -75 642 372 
Q 213 819 213 1659 
z
M 791 1659 
Q 791 1022 1069 705 
Q 1347 388 1769 388 
Q 2188 388 2466 706 
Q 2744 1025 2744 1678 
Q 2744 2294 2464 2611 
Q 2184 2928 1769 2928 
Q 1347 2928 1069 2612 
Q 791 2297 791 1659 
z
" transform="scale(0.015625)"/>
        <path id="ArialMT-72" d="M 416 0 
L 416 3319 
L 922 3319 
L 922 2816 
Q 1116 3169 1280 3281 
Q 1444 3394 1641 3394 
Q 1925 3394 2219 3213 
L 2025 2691 
Q 1819 2813 1613 2813 
Q 1428 2813 1281 2702 
Q 1134 2591 1072 2394 
Q 978 2094 978 1738 
L 978 0 
L 416 0 
z
" transform="scale(0.015625)"/>
        <path id="ArialMT-74" d="M 1650 503 
L 1731 6 
Q 1494 -44 1306 -44 
Q 1000 -44 831 53 
Q 663 150 594 308 
Q 525 466 525 972 
L 525 2881 
L 113 2881 
L 113 3319 
L 525 3319 
L 525 4141 
L 1084 4478 
L 1084 3319 
L 1650 3319 
L 1650 2881 
L 1084 2881 
L 1084 941 
Q 1084 700 1114 631 
Q 1144 563 1211 522 
Q 1278 481 1403 481 
Q 1497 481 1650 503 
z
" transform="scale(0.015625)"/>
       </defs>
       <use xlink:href="#ArialMT-49"/>
       <use xlink:href="#ArialMT-54" x="27.783203"/>
       <use xlink:href="#ArialMT-2f" x="88.867188"/>
       <use xlink:href="#ArialMT-53" x="116.650391"/>
       <use xlink:href="#ArialMT-75" x="183.349609"/>
       <use xlink:href="#ArialMT-70" x="238.964844"/>
       <use xlink:href="#ArialMT-70" x="294.580078"/>
       <use xlink:href="#ArialMT-6f" x="350.195312"/>
       <use xlink:href="#ArialMT-72" x="405.810547"/>
       <use xlink:href="#ArialMT-74" x="439.111328"/>
      </g>
     </g>
    </g>
    <g id="xtick_3">
     <g id="text_3">
      <!-- Management/HR -->
      <g style="fill: #262626" transform="translate(345.427734 401.987656)scale(0.11 -0.11)">
       <defs>
        <path id="ArialMT-4d" d="M 475 0 
L 475 4581 
L 1388 4581 
L 2472 1338 
Q 2622 884 2691 659 
Q 2769 909 2934 1394 
L 4031 4581 
L 4847 4581 
L 4847 0 
L 4263 0 
L 4263 3834 
L 2931 0 
L 2384 0 
L 1059 3900 
L 1059 0 
L 475 0 
z
" transform="scale(0.015625)"/>
        <path id="ArialMT-61" d="M 2588 409 
Q 2275 144 1986 34 
Q 1697 -75 1366 -75 
Q 819 -75 525 192 
Q 231 459 231 875 
Q 231 1119 342 1320 
Q 453 1522 633 1644 
Q 813 1766 1038 1828 
Q 1203 1872 1538 1913 
Q 2219 1994 2541 2106 
Q 2544 2222 2544 2253 
Q 2544 2597 2384 2738 
Q 2169 2928 1744 2928 
Q 1347 2928 1158 2789 
Q 969 2650 878 2297 
L 328 2372 
Q 403 2725 575 2942 
Q 747 3159 1072 3276 
Q 1397 3394 1825 3394 
Q 2250 3394 2515 3294 
Q 2781 3194 2906 3042 
Q 3031 2891 3081 2659 
Q 3109 2516 3109 2141 
L 3109 1391 
Q 3109 606 3145 398 
Q 3181 191 3288 0 
L 2700 0 
Q 2613 175 2588 409 
z
M 2541 1666 
Q 2234 1541 1622 1453 
Q 1275 1403 1131 1340 
Q 988 1278 909 1158 
Q 831 1038 831 891 
Q 831 666 1001 516 
Q 1172 366 1500 366 
Q 1825 366 2078 508 
Q 2331 650 2450 897 
Q 2541 1088 2541 1459 
L 2541 1666 
z
" transform="scale(0.015625)"/>
        <path id="ArialMT-6e" d="M 422 0 
L 422 3319 
L 928 3319 
L 928 2847 
Q 1294 3394 1984 3394 
Q 2284 3394 2536 3286 
Q 2788 3178 2913 3003 
Q 3038 2828 3088 2588 
Q 3119 2431 3119 2041 
L 3119 0 
L 2556 0 
L 2556 2019 
Q 2556 2363 2490 2533 
Q 2425 2703 2258 2804 
Q 2091 2906 1866 2906 
Q 1506 2906 1245 2678 
Q 984 2450 984 1813 
L 984 0 
L 422 0 
z
" transform="scale(0.015625)"/>
        <path id="ArialMT-67" d="M 319 -275 
L 866 -356 
Q 900 -609 1056 -725 
Q 1266 -881 1628 -881 
Q 2019 -881 2231 -725 
Q 2444 -569 2519 -288 
Q 2563 -116 2559 434 
Q 2191 0 1641 0 
Q 956 0 581 494 
Q 206 988 206 1678 
Q 206 2153 378 2554 
Q 550 2956 876 3175 
Q 1203 3394 1644 3394 
Q 2231 3394 2613 2919 
L 2613 3319 
L 3131 3319 
L 3131 450 
Q 3131 -325 2973 -648 
Q 2816 -972 2473 -1159 
Q 2131 -1347 1631 -1347 
Q 1038 -1347 672 -1080 
Q 306 -813 319 -275 
z
M 784 1719 
Q 784 1066 1043 766 
Q 1303 466 1694 466 
Q 2081 466 2343 764 
Q 2606 1063 2606 1700 
Q 2606 2309 2336 2618 
Q 2066 2928 1684 2928 
Q 1309 2928 1046 2623 
Q 784 2319 784 1719 
z
" transform="scale(0.015625)"/>
        <path id="ArialMT-6d" d="M 422 0 
L 422 3319 
L 925 3319 
L 925 2853 
Q 1081 3097 1340 3245 
Q 1600 3394 1931 3394 
Q 2300 3394 2536 3241 
Q 2772 3088 2869 2813 
Q 3263 3394 3894 3394 
Q 4388 3394 4653 3120 
Q 4919 2847 4919 2278 
L 4919 0 
L 4359 0 
L 4359 2091 
Q 4359 2428 4304 2576 
Q 4250 2725 4106 2815 
Q 3963 2906 3769 2906 
Q 3419 2906 3187 2673 
Q 2956 2441 2956 1928 
L 2956 0 
L 2394 0 
L 2394 2156 
Q 2394 2531 2256 2718 
Q 2119 2906 1806 2906 
Q 1569 2906 1367 2781 
Q 1166 2656 1075 2415 
Q 984 2175 984 1722 
L 984 0 
L 422 0 
z
" transform="scale(0.015625)"/>
        <path id="ArialMT-48" d="M 513 0 
L 513 4581 
L 1119 4581 
L 1119 2700 
L 3500 2700 
L 3500 4581 
L 4106 4581 
L 4106 0 
L 3500 0 
L 3500 2159 
L 1119 2159 
L 1119 0 
L 513 0 
z
" transform="scale(0.015625)"/>
        <path id="ArialMT-52" d="M 503 0 
L 503 4581 
L 2534 4581 
Q 3147 4581 3465 4457 
Q 3784 4334 3975 4021 
Q 4166 3709 4166 3331 
Q 4166 2844 3850 2509 
Q 3534 2175 2875 2084 
Q 3116 1969 3241 1856 
Q 3506 1613 3744 1247 
L 4541 0 
L 3778 0 
L 3172 953 
Q 2906 1366 2734 1584 
Q 2563 1803 2427 1890 
Q 2291 1978 2150 2013 
Q 2047 2034 1813 2034 
L 1109 2034 
L 1109 0 
L 503 0 
z
M 1109 2559 
L 2413 2559 
Q 2828 2559 3062 2645 
Q 3297 2731 3419 2920 
Q 3541 3109 3541 3331 
Q 3541 3656 3305 3865 
Q 3069 4075 2559 4075 
L 1109 4075 
L 1109 2559 
z
" transform="scale(0.015625)"/>
       </defs>
       <use xlink:href="#ArialMT-4d"/>
       <use xlink:href="#ArialMT-61" x="83.300781"/>
       <use xlink:href="#ArialMT-6e" x="138.916016"/>
       <use xlink:href="#ArialMT-61" x="194.53125"/>
       <use xlink:href="#ArialMT-67" x="250.146484"/>
       <use xlink:href="#ArialMT-65" x="305.761719"/>
       <use xlink:href="#ArialMT-6d" x="361.376953"/>
       <use xlink:href="#ArialMT-65" x="444.677734"/>
       <use xlink:href="#ArialMT-6e" x="500.292969"/>
       <use xlink:href="#ArialMT-74" x="555.908203"/>
       <use xlink:href="#ArialMT-2f" x="583.691406"/>
       <use xlink:href="#ArialMT-48" x="611.474609"/>
       <use xlink:href="#ArialMT-52" x="683.691406"/>
      </g>
     </g>
    </g>
    <g id="xtick_4">
     <g id="text_4">
      <!-- Other -->
      <g style="fill: #262626" transform="translate(484.845703 401.853594)scale(0.11 -0.11)">
       <defs>
        <path id="ArialMT-68" d="M 422 0 
L 422 4581 
L 984 4581 
L 984 2938 
Q 1378 3394 1978 3394 
Q 2347 3394 2619 3248 
Q 2891 3103 3008 2847 
Q 3125 2591 3125 2103 
L 3125 0 
L 2563 0 
L 2563 2103 
Q 2563 2525 2380 2717 
Q 2197 2909 1863 2909 
Q 1613 2909 1392 2779 
Q 1172 2650 1078 2428 
Q 984 2206 984 1816 
L 984 0 
L 422 0 
z
" transform="scale(0.015625)"/>
       </defs>
       <use xlink:href="#ArialMT-4f"/>
       <use xlink:href="#ArialMT-74" x="77.783203"/>
       <use xlink:href="#ArialMT-68" x="105.566406"/>
       <use xlink:href="#ArialMT-65" x="161.181641"/>
       <use xlink:href="#ArialMT-72" x="216.796875"/>
      </g>
     </g>
    </g>
    <g id="xtick_5">
     <g id="text_5">
      <!-- Software Development -->
      <g style="fill: #262626" transform="translate(554.564063 401.987656)scale(0.11 -0.11)">
       <defs>
        <path id="ArialMT-66" d="M 556 0 
L 556 2881 
L 59 2881 
L 59 3319 
L 556 3319 
L 556 3672 
Q 556 4006 616 4169 
Q 697 4388 901 4523 
Q 1106 4659 1475 4659 
Q 1713 4659 2000 4603 
L 1916 4113 
Q 1741 4144 1584 4144 
Q 1328 4144 1222 4034 
Q 1116 3925 1116 3625 
L 1116 3319 
L 1763 3319 
L 1763 2881 
L 1116 2881 
L 1116 0 
L 556 0 
z
" transform="scale(0.015625)"/>
        <path id="ArialMT-77" d="M 1034 0 
L 19 3319 
L 600 3319 
L 1128 1403 
L 1325 691 
Q 1338 744 1497 1375 
L 2025 3319 
L 2603 3319 
L 3100 1394 
L 3266 759 
L 3456 1400 
L 4025 3319 
L 4572 3319 
L 3534 0 
L 2950 0 
L 2422 1988 
L 2294 2553 
L 1622 0 
L 1034 0 
z
" transform="scale(0.015625)"/>
        <path id="ArialMT-20" transform="scale(0.015625)"/>
        <path id="ArialMT-6c" d="M 409 0 
L 409 4581 
L 972 4581 
L 972 0 
L 409 0 
z
" transform="scale(0.015625)"/>
       </defs>
       <use xlink:href="#ArialMT-53"/>
       <use xlink:href="#ArialMT-6f" x="66.699219"/>
       <use xlink:href="#ArialMT-66" x="122.314453"/>
       <use xlink:href="#ArialMT-74" x="150.097656"/>
       <use xlink:href="#ArialMT-77" x="177.880859"/>
       <use xlink:href="#ArialMT-61" x="250.097656"/>
       <use xlink:href="#ArialMT-72" x="305.712891"/>
       <use xlink:href="#ArialMT-65" x="339.013672"/>
       <use xlink:href="#ArialMT-20" x="394.628906"/>
       <use xlink:href="#ArialMT-44" x="422.412109"/>
       <use xlink:href="#ArialMT-65" x="494.628906"/>
       <use xlink:href="#ArialMT-76" x="550.244141"/>
       <use xlink:href="#ArialMT-65" x="600.244141"/>
       <use xlink:href="#ArialMT-6c" x="655.859375"/>
       <use xlink:href="#ArialMT-6f" x="678.076172"/>
       <use xlink:href="#ArialMT-70" x="733.691406"/>
       <use xlink:href="#ArialMT-6d" x="789.306641"/>
       <use xlink:href="#ArialMT-65" x="872.607422"/>
       <use xlink:href="#ArialMT-6e" x="928.222656"/>
       <use xlink:href="#ArialMT-74" x="983.837891"/>
      </g>
     </g>
    </g>
    <g id="xtick_6">
     <g id="text_6">
      <!-- Testing/QA -->
      <g style="fill: #262626" transform="translate(694.902422 401.994531)scale(0.11 -0.11)">
       <defs>
        <path id="ArialMT-69" d="M 425 3934 
L 425 4581 
L 988 4581 
L 988 3934 
L 425 3934 
z
M 425 0 
L 425 3319 
L 988 3319 
L 988 0 
L 425 0 
z
" transform="scale(0.015625)"/>
        <path id="ArialMT-51" d="M 3966 491 
Q 4388 200 4744 66 
L 4566 -356 
Q 4072 -178 3581 206 
Q 3072 -78 2456 -78 
Q 1834 -78 1328 222 
Q 822 522 548 1065 
Q 275 1609 275 2291 
Q 275 2969 550 3525 
Q 825 4081 1333 4372 
Q 1841 4663 2469 4663 
Q 3103 4663 3612 4361 
Q 4122 4059 4389 3517 
Q 4656 2975 4656 2294 
Q 4656 1728 4484 1276 
Q 4313 825 3966 491 
z
M 2631 1266 
Q 3156 1119 3497 828 
Q 4031 1316 4031 2294 
Q 4031 2850 3842 3265 
Q 3653 3681 3289 3911 
Q 2925 4141 2472 4141 
Q 1794 4141 1347 3677 
Q 900 3213 900 2291 
Q 900 1397 1342 919 
Q 1784 441 2472 441 
Q 2797 441 3084 563 
Q 2800 747 2484 825 
L 2631 1266 
z
" transform="scale(0.015625)"/>
        <path id="ArialMT-41" d="M -9 0 
L 1750 4581 
L 2403 4581 
L 4278 0 
L 3588 0 
L 3053 1388 
L 1138 1388 
L 634 0 
L -9 0 
z
M 1313 1881 
L 2866 1881 
L 2388 3150 
Q 2169 3728 2063 4100 
Q 1975 3659 1816 3225 
L 1313 1881 
z
" transform="scale(0.015625)"/>
       </defs>
       <use xlink:href="#ArialMT-54"/>
       <use xlink:href="#ArialMT-65" x="49.958984"/>
       <use xlink:href="#ArialMT-73" x="105.574219"/>
       <use xlink:href="#ArialMT-74" x="155.574219"/>
       <use xlink:href="#ArialMT-69" x="183.357422"/>
       <use xlink:href="#ArialMT-6e" x="205.574219"/>
       <use xlink:href="#ArialMT-67" x="261.189453"/>
       <use xlink:href="#ArialMT-2f" x="316.804688"/>
       <use xlink:href="#ArialMT-51" x="344.587891"/>
       <use xlink:href="#ArialMT-41" x="422.371094"/>
      </g>
     </g>
    </g>
    <g id="text_7">
     <!-- Type of Work -->
     <g style="fill: #262626" transform="translate(407.562187 417.045313)scale(0.12 -0.12)">
      <defs>
       <path id="ArialMT-79" d="M 397 -1278 
L 334 -750 
Q 519 -800 656 -800 
Q 844 -800 956 -737 
Q 1069 -675 1141 -563 
Q 1194 -478 1313 -144 
Q 1328 -97 1363 -6 
L 103 3319 
L 709 3319 
L 1400 1397 
Q 1534 1031 1641 628 
Q 1738 1016 1872 1384 
L 2581 3319 
L 3144 3319 
L 1881 -56 
Q 1678 -603 1566 -809 
Q 1416 -1088 1222 -1217 
Q 1028 -1347 759 -1347 
Q 597 -1347 397 -1278 
z
" transform="scale(0.015625)"/>
       <path id="ArialMT-57" d="M 1294 0 
L 78 4581 
L 700 4581 
L 1397 1578 
Q 1509 1106 1591 641 
Q 1766 1375 1797 1488 
L 2669 4581 
L 3400 4581 
L 4056 2263 
Q 4303 1400 4413 641 
Q 4500 1075 4641 1638 
L 5359 4581 
L 5969 4581 
L 4713 0 
L 4128 0 
L 3163 3491 
Q 3041 3928 3019 4028 
Q 2947 3713 2884 3491 
L 1913 0 
L 1294 0 
z
" transform="scale(0.015625)"/>
       <path id="ArialMT-6b" d="M 425 0 
L 425 4581 
L 988 4581 
L 988 1969 
L 2319 3319 
L 3047 3319 
L 1778 2088 
L 3175 0 
L 2481 0 
L 1384 1697 
L 988 1316 
L 988 0 
L 425 0 
z
" transform="scale(0.015625)"/>
      </defs>
      <use xlink:href="#ArialMT-54"/>
      <use xlink:href="#ArialMT-79" x="55.583984"/>
      <use xlink:href="#ArialMT-70" x="105.583984"/>
      <use xlink:href="#ArialMT-65" x="161.199219"/>
      <use xlink:href="#ArialMT-20" x="216.814453"/>
      <use xlink:href="#ArialMT-6f" x="244.597656"/>
      <use xlink:href="#ArialMT-66" x="300.212891"/>
      <use xlink:href="#ArialMT-20" x="327.996094"/>
      <use xlink:href="#ArialMT-57" x="355.779297"/>
      <use xlink:href="#ArialMT-6f" x="448.414062"/>
      <use xlink:href="#ArialMT-72" x="504.029297"/>
      <use xlink:href="#ArialMT-6b" x="537.330078"/>
     </g>
    </g>
   </g>
   <g id="matplotlib.axis_2">
    <g id="ytick_1">
     <g id="line2d_1">
      <path d="M 108 373.742609 
L 777.6 373.742609 
" clip-path="url(#pc120a1f96d)" style="fill: none; stroke: #ffffff; stroke-linecap: round"/>
     </g>
     <g id="text_8">
      <!-- 50 -->
      <g style="fill: #262626" transform="translate(86.265938 377.679406)scale(0.11 -0.11)">
       <defs>
        <path id="ArialMT-35" d="M 266 1200 
L 856 1250 
Q 922 819 1161 601 
Q 1400 384 1738 384 
Q 2144 384 2425 690 
Q 2706 997 2706 1503 
Q 2706 1984 2436 2262 
Q 2166 2541 1728 2541 
Q 1456 2541 1237 2417 
Q 1019 2294 894 2097 
L 366 2166 
L 809 4519 
L 3088 4519 
L 3088 3981 
L 1259 3981 
L 1013 2750 
Q 1425 3038 1878 3038 
Q 2478 3038 2890 2622 
Q 3303 2206 3303 1553 
Q 3303 931 2941 478 
Q 2500 -78 1738 -78 
Q 1113 -78 717 272 
Q 322 622 266 1200 
z
" transform="scale(0.015625)"/>
        <path id="ArialMT-30" d="M 266 2259 
Q 266 3072 433 3567 
Q 600 4063 929 4331 
Q 1259 4600 1759 4600 
Q 2128 4600 2406 4451 
Q 2684 4303 2865 4023 
Q 3047 3744 3150 3342 
Q 3253 2941 3253 2259 
Q 3253 1453 3087 958 
Q 2922 463 2592 192 
Q 2263 -78 1759 -78 
Q 1097 -78 719 397 
Q 266 969 266 2259 
z
M 844 2259 
Q 844 1131 1108 757 
Q 1372 384 1759 384 
Q 2147 384 2411 759 
Q 2675 1134 2675 2259 
Q 2675 3391 2411 3762 
Q 2147 4134 1753 4134 
Q 1366 4134 1134 3806 
Q 844 3388 844 2259 
z
" transform="scale(0.015625)"/>
       </defs>
       <use xlink:href="#ArialMT-35"/>
       <use xlink:href="#ArialMT-30" x="55.615234"/>
      </g>
     </g>
    </g>
    <g id="ytick_2">
     <g id="line2d_2">
      <path d="M 108 329.916522 
L 777.6 329.916522 
" clip-path="url(#pc120a1f96d)" style="fill: none; stroke: #ffffff; stroke-linecap: round"/>
     </g>
     <g id="text_9">
      <!-- 100 -->
      <g style="fill: #262626" transform="translate(80.148906 333.853319)scale(0.11 -0.11)">
       <defs>
        <path id="ArialMT-31" d="M 2384 0 
L 1822 0 
L 1822 3584 
Q 1619 3391 1289 3197 
Q 959 3003 697 2906 
L 697 3450 
Q 1169 3672 1522 3987 
Q 1875 4303 2022 4600 
L 2384 4600 
L 2384 0 
z
" transform="scale(0.015625)"/>
       </defs>
       <use xlink:href="#ArialMT-31"/>
       <use xlink:href="#ArialMT-30" x="55.615234"/>
       <use xlink:href="#ArialMT-30" x="111.230469"/>
      </g>
     </g>
    </g>
    <g id="ytick_3">
     <g id="line2d_3">
      <path d="M 108 286.090435 
L 777.6 286.090435 
" clip-path="url(#pc120a1f96d)" style="fill: none; stroke: #ffffff; stroke-linecap: round"/>
     </g>
     <g id="text_10">
      <!-- 150 -->
      <g style="fill: #262626" transform="translate(80.148906 290.027232)scale(0.11 -0.11)">
       <use xlink:href="#ArialMT-31"/>
       <use xlink:href="#ArialMT-35" x="55.615234"/>
       <use xlink:href="#ArialMT-30" x="111.230469"/>
      </g>
     </g>
    </g>
    <g id="ytick_4">
     <g id="line2d_4">
      <path d="M 108 242.264348 
L 777.6 242.264348 
" clip-path="url(#pc120a1f96d)" style="fill: none; stroke: #ffffff; stroke-linecap: round"/>
     </g>
     <g id="text_11">
      <!-- 200 -->
      <g style="fill: #262626" transform="translate(80.148906 246.201145)scale(0.11 -0.11)">
       <defs>
        <path id="ArialMT-32" d="M 3222 541 
L 3222 0 
L 194 0 
Q 188 203 259 391 
Q 375 700 629 1000 
Q 884 1300 1366 1694 
Q 2113 2306 2375 2664 
Q 2638 3022 2638 3341 
Q 2638 3675 2398 3904 
Q 2159 4134 1775 4134 
Q 1369 4134 1125 3890 
Q 881 3647 878 3216 
L 300 3275 
Q 359 3922 746 4261 
Q 1134 4600 1788 4600 
Q 2447 4600 2831 4234 
Q 3216 3869 3216 3328 
Q 3216 3053 3103 2787 
Q 2991 2522 2730 2228 
Q 2469 1934 1863 1422 
Q 1356 997 1212 845 
Q 1069 694 975 541 
L 3222 541 
z
" transform="scale(0.015625)"/>
       </defs>
       <use xlink:href="#ArialMT-32"/>
       <use xlink:href="#ArialMT-30" x="55.615234"/>
       <use xlink:href="#ArialMT-30" x="111.230469"/>
      </g>
     </g>
    </g>
    <g id="ytick_5">
     <g id="line2d_5">
      <path d="M 108 198.438261 
L 777.6 198.438261 
" clip-path="url(#pc120a1f96d)" style="fill: none; stroke: #ffffff; stroke-linecap: round"/>
     </g>
     <g id="text_12">
      <!-- 250 -->
      <g style="fill: #262626" transform="translate(80.148906 202.375058)scale(0.11 -0.11)">
       <use xlink:href="#ArialMT-32"/>
       <use xlink:href="#ArialMT-35" x="55.615234"/>
       <use xlink:href="#ArialMT-30" x="111.230469"/>
      </g>
     </g>
    </g>
    <g id="ytick_6">
     <g id="line2d_6">
      <path d="M 108 154.612174 
L 777.6 154.612174 
" clip-path="url(#pc120a1f96d)" style="fill: none; stroke: #ffffff; stroke-linecap: round"/>
     </g>
     <g id="text_13">
      <!-- 300 -->
      <g style="fill: #262626" transform="translate(80.148906 158.548971)scale(0.11 -0.11)">
       <defs>
        <path id="ArialMT-33" d="M 269 1209 
L 831 1284 
Q 928 806 1161 595 
Q 1394 384 1728 384 
Q 2125 384 2398 659 
Q 2672 934 2672 1341 
Q 2672 1728 2419 1979 
Q 2166 2231 1775 2231 
Q 1616 2231 1378 2169 
L 1441 2663 
Q 1497 2656 1531 2656 
Q 1891 2656 2178 2843 
Q 2466 3031 2466 3422 
Q 2466 3731 2256 3934 
Q 2047 4138 1716 4138 
Q 1388 4138 1169 3931 
Q 950 3725 888 3313 
L 325 3413 
Q 428 3978 793 4289 
Q 1159 4600 1703 4600 
Q 2078 4600 2393 4439 
Q 2709 4278 2876 4000 
Q 3044 3722 3044 3409 
Q 3044 3113 2884 2869 
Q 2725 2625 2413 2481 
Q 2819 2388 3044 2092 
Q 3269 1797 3269 1353 
Q 3269 753 2831 336 
Q 2394 -81 1725 -81 
Q 1122 -81 723 278 
Q 325 638 269 1209 
z
" transform="scale(0.015625)"/>
       </defs>
       <use xlink:href="#ArialMT-33"/>
       <use xlink:href="#ArialMT-30" x="55.615234"/>
       <use xlink:href="#ArialMT-30" x="111.230469"/>
      </g>
     </g>
    </g>
    <g id="ytick_7">
     <g id="line2d_7">
      <path d="M 108 110.786087 
L 777.6 110.786087 
" clip-path="url(#pc120a1f96d)" style="fill: none; stroke: #ffffff; stroke-linecap: round"/>
     </g>
     <g id="text_14">
      <!-- 350 -->
      <g style="fill: #262626" transform="translate(80.148906 114.722884)scale(0.11 -0.11)">
       <use xlink:href="#ArialMT-33"/>
       <use xlink:href="#ArialMT-35" x="55.615234"/>
       <use xlink:href="#ArialMT-30" x="111.230469"/>
      </g>
     </g>
    </g>
    <g id="ytick_8">
     <g id="line2d_8">
      <path d="M 108 66.96 
L 777.6 66.96 
" clip-path="url(#pc120a1f96d)" style="fill: none; stroke: #ffffff; stroke-linecap: round"/>
     </g>
     <g id="text_15">
      <!-- 400 -->
      <g style="fill: #262626" transform="translate(80.148906 70.896797)scale(0.11 -0.11)">
       <defs>
        <path id="ArialMT-34" d="M 2069 0 
L 2069 1097 
L 81 1097 
L 81 1613 
L 2172 4581 
L 2631 4581 
L 2631 1613 
L 3250 1613 
L 3250 1097 
L 2631 1097 
L 2631 0 
L 2069 0 
z
M 2069 1613 
L 2069 3678 
L 634 1613 
L 2069 1613 
z
" transform="scale(0.015625)"/>
       </defs>
       <use xlink:href="#ArialMT-34"/>
       <use xlink:href="#ArialMT-30" x="55.615234"/>
       <use xlink:href="#ArialMT-30" x="111.230469"/>
      </g>
     </g>
    </g>
    <g id="text_16">
     <!-- Annual income (thousands) -->
     <g style="fill: #262626" transform="translate(73.623281 291.197812)rotate(-90)scale(0.12 -0.12)">
      <defs>
       <path id="ArialMT-63" d="M 2588 1216 
L 3141 1144 
Q 3050 572 2676 248 
Q 2303 -75 1759 -75 
Q 1078 -75 664 370 
Q 250 816 250 1647 
Q 250 2184 428 2587 
Q 606 2991 970 3192 
Q 1334 3394 1763 3394 
Q 2303 3394 2647 3120 
Q 2991 2847 3088 2344 
L 2541 2259 
Q 2463 2594 2264 2762 
Q 2066 2931 1784 2931 
Q 1359 2931 1093 2626 
Q 828 2322 828 1663 
Q 828 994 1084 691 
Q 1341 388 1753 388 
Q 2084 388 2306 591 
Q 2528 794 2588 1216 
z
" transform="scale(0.015625)"/>
       <path id="ArialMT-28" d="M 1497 -1347 
Q 1031 -759 709 28 
Q 388 816 388 1659 
Q 388 2403 628 3084 
Q 909 3875 1497 4659 
L 1900 4659 
Q 1522 4009 1400 3731 
Q 1209 3300 1100 2831 
Q 966 2247 966 1656 
Q 966 153 1900 -1347 
L 1497 -1347 
z
" transform="scale(0.015625)"/>
       <path id="ArialMT-64" d="M 2575 0 
L 2575 419 
Q 2259 -75 1647 -75 
Q 1250 -75 917 144 
Q 584 363 401 755 
Q 219 1147 219 1656 
Q 219 2153 384 2558 
Q 550 2963 881 3178 
Q 1213 3394 1622 3394 
Q 1922 3394 2156 3267 
Q 2391 3141 2538 2938 
L 2538 4581 
L 3097 4581 
L 3097 0 
L 2575 0 
z
M 797 1656 
Q 797 1019 1065 703 
Q 1334 388 1700 388 
Q 2069 388 2326 689 
Q 2584 991 2584 1609 
Q 2584 2291 2321 2609 
Q 2059 2928 1675 2928 
Q 1300 2928 1048 2622 
Q 797 2316 797 1656 
z
" transform="scale(0.015625)"/>
       <path id="ArialMT-29" d="M 791 -1347 
L 388 -1347 
Q 1322 153 1322 1656 
Q 1322 2244 1188 2822 
Q 1081 3291 891 3722 
Q 769 4003 388 4659 
L 791 4659 
Q 1378 3875 1659 3084 
Q 1900 2403 1900 1659 
Q 1900 816 1576 28 
Q 1253 -759 791 -1347 
z
" transform="scale(0.015625)"/>
      </defs>
      <use xlink:href="#ArialMT-41"/>
      <use xlink:href="#ArialMT-6e" x="66.699219"/>
      <use xlink:href="#ArialMT-6e" x="122.314453"/>
      <use xlink:href="#ArialMT-75" x="177.929688"/>
      <use xlink:href="#ArialMT-61" x="233.544922"/>
      <use xlink:href="#ArialMT-6c" x="289.160156"/>
      <use xlink:href="#ArialMT-20" x="311.376953"/>
      <use xlink:href="#ArialMT-69" x="339.160156"/>
      <use xlink:href="#ArialMT-6e" x="361.376953"/>
      <use xlink:href="#ArialMT-63" x="416.992188"/>
      <use xlink:href="#ArialMT-6f" x="466.992188"/>
      <use xlink:href="#ArialMT-6d" x="522.607422"/>
      <use xlink:href="#ArialMT-65" x="605.908203"/>
      <use xlink:href="#ArialMT-20" x="661.523438"/>
      <use xlink:href="#ArialMT-28" x="689.306641"/>
      <use xlink:href="#ArialMT-74" x="722.607422"/>
      <use xlink:href="#ArialMT-68" x="750.390625"/>
      <use xlink:href="#ArialMT-6f" x="806.005859"/>
      <use xlink:href="#ArialMT-75" x="861.621094"/>
      <use xlink:href="#ArialMT-73" x="917.236328"/>
      <use xlink:href="#ArialMT-61" x="967.236328"/>
      <use xlink:href="#ArialMT-6e" x="1022.851562"/>
      <use xlink:href="#ArialMT-64" x="1078.466797"/>
      <use xlink:href="#ArialMT-73" x="1134.082031"/>
      <use xlink:href="#ArialMT-29" x="1184.082031"/>
     </g>
    </g>
   </g>
   <g id="PolyCollection_1">
    <defs>
     <path id="md0c1babf93" d="M 165.368364 -73.158261 
L 162.231636 -73.158261 
L 162.186248 -74.601423 
L 162.141612 -76.044585 
L 162.096603 -77.487747 
L 162.049913 -78.930909 
L 162.000087 -80.374071 
L 161.945548 -81.817233 
L 161.884641 -83.260395 
L 161.815674 -84.703557 
L 161.736959 -86.146719 
L 161.646854 -87.589881 
L 161.543809 -89.033043 
L 161.426398 -90.476206 
L 161.293354 -91.919368 
L 161.143595 -93.36253 
L 160.976247 -94.805692 
L 160.790652 -96.248854 
L 160.586383 -97.692016 
L 160.363237 -99.135178 
L 160.121238 -100.57834 
L 159.860622 -102.021502 
L 159.581832 -103.464664 
L 159.285501 -104.907826 
L 158.972441 -106.350988 
L 158.643631 -107.79415 
L 158.300207 -109.237312 
L 157.943456 -110.680474 
L 157.57481 -112.123636 
L 157.195849 -113.566798 
L 156.808301 -115.00996 
L 156.414044 -116.453123 
L 156.015118 -117.896285 
L 155.613725 -119.339447 
L 155.212235 -120.782609 
L 154.813185 -122.225771 
L 154.41928 -123.668933 
L 154.03338 -125.112095 
L 153.658488 -126.555257 
L 153.297724 -127.998419 
L 152.954299 -129.441581 
L 152.631478 -130.884743 
L 152.33253 -132.327905 
L 152.060685 -133.771067 
L 151.819074 -135.214229 
L 151.61067 -136.657391 
L 151.438225 -138.100553 
L 151.304212 -139.543715 
L 151.21076 -140.986877 
L 151.159597 -142.43004 
L 151.152 -143.873202 
L 151.188745 -145.316364 
L 151.270071 -146.759526 
L 151.395653 -148.202688 
L 151.564583 -149.64585 
L 151.775365 -151.089012 
L 152.025923 -152.532174 
L 152.31362 -153.975336 
L 152.635289 -155.418498 
L 152.987283 -156.86166 
L 153.365528 -158.304822 
L 153.76559 -159.747984 
L 154.182759 -161.191146 
L 154.612125 -162.634308 
L 155.048679 -164.07747 
L 155.4874 -165.520632 
L 155.923353 -166.963794 
L 156.351787 -168.406957 
L 156.768219 -169.850119 
L 157.168524 -171.293281 
L 157.549009 -172.736443 
L 157.906476 -174.179605 
L 158.238275 -175.622767 
L 158.542345 -177.065929 
L 158.817234 -178.509091 
L 159.062113 -179.952253 
L 159.276765 -181.395415 
L 159.461568 -182.838577 
L 159.617464 -184.281739 
L 159.745906 -185.724901 
L 159.848814 -187.168063 
L 159.928499 -188.611225 
L 159.987604 -190.054387 
L 160.029021 -191.497549 
L 160.055822 -192.940711 
L 160.071176 -194.383874 
L 160.078281 -195.827036 
L 160.080285 -197.270198 
L 160.080227 -198.71336 
L 160.080971 -200.156522 
L 160.085154 -201.599684 
L 160.095142 -203.042846 
L 160.112992 -204.486008 
L 160.140422 -205.92917 
L 160.178792 -207.372332 
L 160.229097 -208.815494 
L 160.29196 -210.258656 
L 160.367644 -211.701818 
L 160.456061 -213.14498 
L 160.5568 -214.588142 
L 160.669154 -216.031304 
L 166.930846 -216.031304 
L 166.930846 -216.031304 
L 167.0432 -214.588142 
L 167.143939 -213.14498 
L 167.232356 -211.701818 
L 167.30804 -210.258656 
L 167.370903 -208.815494 
L 167.421208 -207.372332 
L 167.459578 -205.92917 
L 167.487008 -204.486008 
L 167.504858 -203.042846 
L 167.514846 -201.599684 
L 167.519029 -200.156522 
L 167.519773 -198.71336 
L 167.519715 -197.270198 
L 167.521719 -195.827036 
L 167.528824 -194.383874 
L 167.544178 -192.940711 
L 167.570979 -191.497549 
L 167.612396 -190.054387 
L 167.671501 -188.611225 
L 167.751186 -187.168063 
L 167.854094 -185.724901 
L 167.982536 -184.281739 
L 168.138432 -182.838577 
L 168.323235 -181.395415 
L 168.537887 -179.952253 
L 168.782766 -178.509091 
L 169.057655 -177.065929 
L 169.361725 -175.622767 
L 169.693524 -174.179605 
L 170.050991 -172.736443 
L 170.431476 -171.293281 
L 170.831781 -169.850119 
L 171.248213 -168.406957 
L 171.676647 -166.963794 
L 172.1126 -165.520632 
L 172.551321 -164.07747 
L 172.987875 -162.634308 
L 173.417241 -161.191146 
L 173.83441 -159.747984 
L 174.234472 -158.304822 
L 174.612717 -156.86166 
L 174.964711 -155.418498 
L 175.28638 -153.975336 
L 175.574077 -152.532174 
L 175.824635 -151.089012 
L 176.035417 -149.64585 
L 176.204347 -148.202688 
L 176.329929 -146.759526 
L 176.411255 -145.316364 
L 176.448 -143.873202 
L 176.440403 -142.43004 
L 176.38924 -140.986877 
L 176.295788 -139.543715 
L 176.161775 -138.100553 
L 175.98933 -136.657391 
L 175.780926 -135.214229 
L 175.539315 -133.771067 
L 175.26747 -132.327905 
L 174.968522 -130.884743 
L 174.645701 -129.441581 
L 174.302276 -127.998419 
L 173.941512 -126.555257 
L 173.56662 -125.112095 
L 173.18072 -123.668933 
L 172.786815 -122.225771 
L 172.387765 -120.782609 
L 171.986275 -119.339447 
L 171.584882 -117.896285 
L 171.185956 -116.453123 
L 170.791699 -115.00996 
L 170.404151 -113.566798 
L 170.02519 -112.123636 
L 169.656544 -110.680474 
L 169.299793 -109.237312 
L 168.956369 -107.79415 
L 168.627559 -106.350988 
L 168.314499 -104.907826 
L 168.018168 -103.464664 
L 167.739378 -102.021502 
L 167.478762 -100.57834 
L 167.236763 -99.135178 
L 167.013617 -97.692016 
L 166.809348 -96.248854 
L 166.623753 -94.805692 
L 166.456405 -93.36253 
L 166.306646 -91.919368 
L 166.173602 -90.476206 
L 166.056191 -89.033043 
L 165.953146 -87.589881 
L 165.863041 -86.146719 
L 165.784326 -84.703557 
L 165.715359 -83.260395 
L 165.654452 -81.817233 
L 165.599913 -80.374071 
L 165.550087 -78.930909 
L 165.503397 -77.487747 
L 165.458388 -76.044585 
L 165.413752 -74.601423 
L 165.368364 -73.158261 
z
" style="stroke: #494949; stroke-width: 1.5"/>
    </defs>
    <g clip-path="url(#pc120a1f96d)">
     <use xlink:href="#md0c1babf93" x="0" y="432" style="fill: #5875a4; stroke: #494949; stroke-width: 1.5"/>
    </g>
   </g>
   <g id="PolyCollection_2">
    <defs>
     <path id="m91bcf61016" d="M 276.885744 -75.787826 
L 273.914256 -75.787826 
L 273.912614 -76.451858 
L 273.912 -77.115889 
L 273.912399 -77.779921 
L 273.913796 -78.443953 
L 273.916169 -79.107984 
L 273.919496 -79.772016 
L 273.92375 -80.436047 
L 273.928902 -81.100079 
L 273.93492 -81.764111 
L 273.941768 -82.428142 
L 273.94941 -83.092174 
L 273.957804 -83.756206 
L 273.966908 -84.420237 
L 273.976677 -85.084269 
L 273.987064 -85.7483 
L 273.998019 -86.412332 
L 274.009492 -87.076364 
L 274.021429 -87.740395 
L 274.033778 -88.404427 
L 274.046482 -89.068458 
L 274.059485 -89.73249 
L 274.072731 -90.396522 
L 274.086161 -91.060553 
L 274.099718 -91.724585 
L 274.113343 -92.388617 
L 274.126978 -93.052648 
L 274.140565 -93.71668 
L 274.154046 -94.380711 
L 274.167364 -95.044743 
L 274.180464 -95.708775 
L 274.193291 -96.372806 
L 274.20579 -97.036838 
L 274.217911 -97.70087 
L 274.229602 -98.364901 
L 274.240815 -99.028933 
L 274.251504 -99.692964 
L 274.261625 -100.356996 
L 274.271135 -101.021028 
L 274.279997 -101.685059 
L 274.288173 -102.349091 
L 274.29563 -103.013123 
L 274.302337 -103.677154 
L 274.308267 -104.341186 
L 274.313395 -105.005217 
L 274.317702 -105.669249 
L 274.321168 -106.333281 
L 274.32378 -106.997312 
L 274.325527 -107.661344 
L 274.326403 -108.325375 
L 274.326403 -108.989407 
L 274.325527 -109.653439 
L 274.32378 -110.31747 
L 274.321168 -110.981502 
L 274.317702 -111.645534 
L 274.313395 -112.309565 
L 274.308267 -112.973597 
L 274.302337 -113.637628 
L 274.29563 -114.30166 
L 274.288173 -114.965692 
L 274.279997 -115.629723 
L 274.271135 -116.293755 
L 274.261625 -116.957787 
L 274.251504 -117.621818 
L 274.240815 -118.28585 
L 274.229602 -118.949881 
L 274.217911 -119.613913 
L 274.20579 -120.277945 
L 274.193291 -120.941976 
L 274.180464 -121.606008 
L 274.167364 -122.27004 
L 274.154046 -122.934071 
L 274.140565 -123.598103 
L 274.126978 -124.262134 
L 274.113343 -124.926166 
L 274.099718 -125.590198 
L 274.086161 -126.254229 
L 274.072731 -126.918261 
L 274.059485 -127.582292 
L 274.046482 -128.246324 
L 274.033778 -128.910356 
L 274.021429 -129.574387 
L 274.009492 -130.238419 
L 273.998019 -130.902451 
L 273.987064 -131.566482 
L 273.976677 -132.230514 
L 273.966908 -132.894545 
L 273.957804 -133.558577 
L 273.94941 -134.222609 
L 273.941768 -134.88664 
L 273.93492 -135.550672 
L 273.928902 -136.214704 
L 273.92375 -136.878735 
L 273.919496 -137.542767 
L 273.916169 -138.206798 
L 273.913796 -138.87083 
L 273.912399 -139.534862 
L 273.912 -140.198893 
L 273.912614 -140.862925 
L 273.914256 -141.526957 
L 276.885744 -141.526957 
L 276.885744 -141.526957 
L 276.887386 -140.862925 
L 276.888 -140.198893 
L 276.887601 -139.534862 
L 276.886204 -138.87083 
L 276.883831 -138.206798 
L 276.880504 -137.542767 
L 276.87625 -136.878735 
L 276.871098 -136.214704 
L 276.86508 -135.550672 
L 276.858232 -134.88664 
L 276.85059 -134.222609 
L 276.842196 -133.558577 
L 276.833092 -132.894545 
L 276.823323 -132.230514 
L 276.812936 -131.566482 
L 276.801981 -130.902451 
L 276.790508 -130.238419 
L 276.778571 -129.574387 
L 276.766222 -128.910356 
L 276.753518 -128.246324 
L 276.740515 -127.582292 
L 276.727269 -126.918261 
L 276.713839 -126.254229 
L 276.700282 -125.590198 
L 276.686657 -124.926166 
L 276.673022 -124.262134 
L 276.659435 -123.598103 
L 276.645954 -122.934071 
L 276.632636 -122.27004 
L 276.619536 -121.606008 
L 276.606709 -120.941976 
L 276.59421 -120.277945 
L 276.582089 -119.613913 
L 276.570398 -118.949881 
L 276.559185 -118.28585 
L 276.548496 -117.621818 
L 276.538375 -116.957787 
L 276.528865 -116.293755 
L 276.520003 -115.629723 
L 276.511827 -114.965692 
L 276.50437 -114.30166 
L 276.497663 -113.637628 
L 276.491733 -112.973597 
L 276.486605 -112.309565 
L 276.482298 -111.645534 
L 276.478832 -110.981502 
L 276.47622 -110.31747 
L 276.474473 -109.653439 
L 276.473597 -108.989407 
L 276.473597 -108.325375 
L 276.474473 -107.661344 
L 276.47622 -106.997312 
L 276.478832 -106.333281 
L 276.482298 -105.669249 
L 276.486605 -105.005217 
L 276.491733 -104.341186 
L 276.497663 -103.677154 
L 276.50437 -103.013123 
L 276.511827 -102.349091 
L 276.520003 -101.685059 
L 276.528865 -101.021028 
L 276.538375 -100.356996 
L 276.548496 -99.692964 
L 276.559185 -99.028933 
L 276.570398 -98.364901 
L 276.582089 -97.70087 
L 276.59421 -97.036838 
L 276.606709 -96.372806 
L 276.619536 -95.708775 
L 276.632636 -95.044743 
L 276.645954 -94.380711 
L 276.659435 -93.71668 
L 276.673022 -93.052648 
L 276.686657 -92.388617 
L 276.700282 -91.724585 
L 276.713839 -91.060553 
L 276.727269 -90.396522 
L 276.740515 -89.73249 
L 276.753518 -89.068458 
L 276.766222 -88.404427 
L 276.778571 -87.740395 
L 276.790508 -87.076364 
L 276.801981 -86.412332 
L 276.812936 -85.7483 
L 276.823323 -85.084269 
L 276.833092 -84.420237 
L 276.842196 -83.756206 
L 276.85059 -83.092174 
L 276.858232 -82.428142 
L 276.86508 -81.764111 
L 276.871098 -81.100079 
L 276.87625 -80.436047 
L 276.880504 -79.772016 
L 276.883831 -79.107984 
L 276.886204 -78.443953 
L 276.887601 -77.779921 
L 276.888 -77.115889 
L 276.887386 -76.451858 
L 276.885744 -75.787826 
z
" style="stroke: #494949; stroke-width: 1.5"/>
    </defs>
    <g clip-path="url(#pc120a1f96d)">
     <use xlink:href="#m91bcf61016" x="0" y="432" style="fill: #cc8963; stroke: #494949; stroke-width: 1.5"/>
    </g>
   </g>
   <g id="PolyCollection_3">
    <defs>
     <path id="mb689035692" d="M 389.909362 -71.405217 
L 384.090638 -71.405217 
L 384.01603 -73.459289 
L 383.948313 -75.51336 
L 383.887226 -77.567431 
L 383.832319 -79.621502 
L 383.782949 -81.675573 
L 383.738292 -83.729644 
L 383.697356 -85.783715 
L 383.658996 -87.837787 
L 383.621937 -89.891858 
L 383.584794 -91.945929 
L 383.546102 -94 
L 383.504347 -96.054071 
L 383.457994 -98.108142 
L 383.40552 -100.162213 
L 383.34545 -102.216285 
L 383.276391 -104.270356 
L 383.197061 -106.324427 
L 383.106327 -108.378498 
L 383.003234 -110.432569 
L 382.887032 -112.48664 
L 382.757209 -114.540711 
L 382.61351 -116.594783 
L 382.45596 -118.648854 
L 382.284881 -120.702925 
L 382.100902 -122.756996 
L 381.904967 -124.811067 
L 381.698337 -126.865138 
L 381.482579 -128.919209 
L 381.259562 -130.973281 
L 381.031428 -133.027352 
L 380.800571 -135.081423 
L 380.569603 -137.135494 
L 380.341309 -139.189565 
L 380.118602 -141.243636 
L 379.90447 -143.297708 
L 379.701918 -145.351779 
L 379.513905 -147.40585 
L 379.343285 -149.459921 
L 379.192743 -151.513992 
L 379.064733 -153.568063 
L 378.961421 -155.622134 
L 378.884635 -157.676206 
L 378.835819 -159.730277 
L 378.816 -161.784348 
L 378.825758 -163.838419 
L 378.865216 -165.89249 
L 378.934035 -167.946561 
L 379.031424 -170.000632 
L 379.156159 -172.054704 
L 379.306618 -174.108775 
L 379.48082 -176.162846 
L 379.676473 -178.216917 
L 379.891038 -180.270988 
L 380.121784 -182.325059 
L 380.365852 -184.37913 
L 380.620327 -186.433202 
L 380.882293 -188.487273 
L 381.148898 -190.541344 
L 381.417407 -192.595415 
L 381.685252 -194.649486 
L 381.950066 -196.703557 
L 382.209723 -198.757628 
L 382.462352 -200.8117 
L 382.706356 -202.865771 
L 382.940413 -204.919842 
L 383.163474 -206.973913 
L 383.37475 -209.027984 
L 383.573697 -211.082055 
L 383.759995 -213.136126 
L 383.93352 -215.190198 
L 384.094321 -217.244269 
L 384.242588 -219.29834 
L 384.378633 -221.352411 
L 384.502856 -223.406482 
L 384.615729 -225.460553 
L 384.717776 -227.514625 
L 384.809556 -229.568696 
L 384.891649 -231.622767 
L 384.964653 -233.676838 
L 385.029174 -235.730909 
L 385.085826 -237.78498 
L 385.13523 -239.839051 
L 385.178015 -241.893123 
L 385.214819 -243.947194 
L 385.246293 -246.001265 
L 385.273102 -248.055336 
L 385.295924 -250.109407 
L 385.315452 -252.163478 
L 385.332388 -254.217549 
L 385.347439 -256.271621 
L 385.361312 -258.325692 
L 385.374705 -260.379763 
L 385.388297 -262.433834 
L 385.402736 -264.487905 
L 385.41863 -266.541976 
L 385.436534 -268.596047 
L 385.456939 -270.650119 
L 385.480263 -272.70419 
L 385.506842 -274.758261 
L 388.493158 -274.758261 
L 388.493158 -274.758261 
L 388.519737 -272.70419 
L 388.543061 -270.650119 
L 388.563466 -268.596047 
L 388.58137 -266.541976 
L 388.597264 -264.487905 
L 388.611703 -262.433834 
L 388.625295 -260.379763 
L 388.638688 -258.325692 
L 388.652561 -256.271621 
L 388.667612 -254.217549 
L 388.684548 -252.163478 
L 388.704076 -250.109407 
L 388.726898 -248.055336 
L 388.753707 -246.001265 
L 388.785181 -243.947194 
L 388.821985 -241.893123 
L 388.86477 -239.839051 
L 388.914174 -237.78498 
L 388.970826 -235.730909 
L 389.035347 -233.676838 
L 389.108351 -231.622767 
L 389.190444 -229.568696 
L 389.282224 -227.514625 
L 389.384271 -225.460553 
L 389.497144 -223.406482 
L 389.621367 -221.352411 
L 389.757412 -219.29834 
L 389.905679 -217.244269 
L 390.06648 -215.190198 
L 390.240005 -213.136126 
L 390.426303 -211.082055 
L 390.62525 -209.027984 
L 390.836526 -206.973913 
L 391.059587 -204.919842 
L 391.293644 -202.865771 
L 391.537648 -200.8117 
L 391.790277 -198.757628 
L 392.049934 -196.703557 
L 392.314748 -194.649486 
L 392.582593 -192.595415 
L 392.851102 -190.541344 
L 393.117707 -188.487273 
L 393.379673 -186.433202 
L 393.634148 -184.37913 
L 393.878216 -182.325059 
L 394.108962 -180.270988 
L 394.323527 -178.216917 
L 394.51918 -176.162846 
L 394.693382 -174.108775 
L 394.843841 -172.054704 
L 394.968576 -170.000632 
L 395.065965 -167.946561 
L 395.134784 -165.89249 
L 395.174242 -163.838419 
L 395.184 -161.784348 
L 395.164181 -159.730277 
L 395.115365 -157.676206 
L 395.038579 -155.622134 
L 394.935267 -153.568063 
L 394.807257 -151.513992 
L 394.656715 -149.459921 
L 394.486095 -147.40585 
L 394.298082 -145.351779 
L 394.09553 -143.297708 
L 393.881398 -141.243636 
L 393.658691 -139.189565 
L 393.430397 -137.135494 
L 393.199429 -135.081423 
L 392.968572 -133.027352 
L 392.740438 -130.973281 
L 392.517421 -128.919209 
L 392.301663 -126.865138 
L 392.095033 -124.811067 
L 391.899098 -122.756996 
L 391.715119 -120.702925 
L 391.54404 -118.648854 
L 391.38649 -116.594783 
L 391.242791 -114.540711 
L 391.112968 -112.48664 
L 390.996766 -110.432569 
L 390.893673 -108.378498 
L 390.802939 -106.324427 
L 390.723609 -104.270356 
L 390.65455 -102.216285 
L 390.59448 -100.162213 
L 390.542006 -98.108142 
L 390.495653 -96.054071 
L 390.453898 -94 
L 390.415206 -91.945929 
L 390.378063 -89.891858 
L 390.341004 -87.837787 
L 390.302644 -85.783715 
L 390.261708 -83.729644 
L 390.217051 -81.675573 
L 390.167681 -79.621502 
L 390.112774 -77.567431 
L 390.051687 -75.51336 
L 389.98397 -73.459289 
L 389.909362 -71.405217 
z
" style="stroke: #494949; stroke-width: 1.5"/>
    </defs>
    <g clip-path="url(#pc120a1f96d)">
     <use xlink:href="#mb689035692" x="0" y="432" style="fill: #5f9e6e; stroke: #494949; stroke-width: 1.5"/>
    </g>
   </g>
   <g id="PolyCollection_4">
    <defs>
     <path id="m36d97ac194" d="M 503.197746 -77.54087 
L 494.002254 -77.54087 
L 493.850402 -78.895494 
L 493.705907 -80.250119 
L 493.569261 -81.604743 
L 493.440817 -82.959368 
L 493.320782 -84.313992 
L 493.209207 -85.668617 
L 493.105981 -87.023241 
L 493.010831 -88.377866 
L 492.923322 -89.73249 
L 492.842862 -91.087115 
L 492.768711 -92.441739 
L 492.699996 -93.796364 
L 492.635724 -95.150988 
L 492.574804 -96.505613 
L 492.516069 -97.860237 
L 492.458301 -99.214862 
L 492.400258 -100.569486 
L 492.340703 -101.924111 
L 492.278436 -103.278735 
L 492.212316 -104.63336 
L 492.141298 -105.987984 
L 492.064455 -107.342609 
L 491.981003 -108.697233 
L 491.890325 -110.051858 
L 491.791987 -111.406482 
L 491.685753 -112.761107 
L 491.571596 -114.115731 
L 491.449702 -115.470356 
L 491.320468 -116.82498 
L 491.1845 -118.179605 
L 491.0426 -119.534229 
L 490.895754 -120.888854 
L 490.745107 -122.243478 
L 490.591949 -123.598103 
L 490.437679 -124.952727 
L 490.28378 -126.307352 
L 490.131789 -127.661976 
L 489.983261 -129.016601 
L 489.839739 -130.371225 
L 489.702721 -131.72585 
L 489.573629 -133.080474 
L 489.453778 -134.435099 
L 489.344353 -135.789723 
L 489.246381 -137.144348 
L 489.160717 -138.498972 
L 489.088025 -139.853597 
L 489.028765 -141.208221 
L 488.983193 -142.562846 
L 488.951351 -143.91747 
L 488.933075 -145.272095 
L 488.928 -146.626719 
L 488.935569 -147.981344 
L 488.955051 -149.335968 
L 488.985555 -150.690593 
L 489.026052 -152.045217 
L 489.075401 -153.399842 
L 489.132369 -154.754466 
L 489.19566 -156.109091 
L 489.26394 -157.463715 
L 489.335865 -158.81834 
L 489.410112 -160.172964 
L 489.485395 -161.527589 
L 489.560501 -162.882213 
L 489.634307 -164.236838 
L 489.7058 -165.591462 
L 489.774102 -166.946087 
L 489.83848 -168.300711 
L 489.898363 -169.655336 
L 489.953352 -171.00996 
L 490.003225 -172.364585 
L 490.047941 -173.719209 
L 490.087642 -175.073834 
L 490.122648 -176.428458 
L 490.153451 -177.783083 
L 490.180705 -179.137708 
L 490.205212 -180.492332 
L 490.227907 -181.846957 
L 490.24984 -183.201581 
L 490.272155 -184.556206 
L 490.296066 -185.91083 
L 490.322834 -187.265455 
L 490.353744 -188.620079 
L 490.390074 -189.974704 
L 490.433076 -191.329328 
L 490.483947 -192.683953 
L 490.543807 -194.038577 
L 490.613676 -195.393202 
L 490.694452 -196.747826 
L 490.786896 -198.102451 
L 490.891616 -199.457075 
L 491.009054 -200.8117 
L 491.139476 -202.166324 
L 491.282972 -203.520949 
L 491.439445 -204.875573 
L 491.608624 -206.230198 
L 491.790059 -207.584822 
L 491.983135 -208.939447 
L 492.187082 -210.294071 
L 492.400987 -211.648696 
L 504.799013 -211.648696 
L 504.799013 -211.648696 
L 505.012918 -210.294071 
L 505.216865 -208.939447 
L 505.409941 -207.584822 
L 505.591376 -206.230198 
L 505.760555 -204.875573 
L 505.917028 -203.520949 
L 506.060524 -202.166324 
L 506.190946 -200.8117 
L 506.308384 -199.457075 
L 506.413104 -198.102451 
L 506.505548 -196.747826 
L 506.586324 -195.393202 
L 506.656193 -194.038577 
L 506.716053 -192.683953 
L 506.766924 -191.329328 
L 506.809926 -189.974704 
L 506.846256 -188.620079 
L 506.877166 -187.265455 
L 506.903934 -185.91083 
L 506.927845 -184.556206 
L 506.95016 -183.201581 
L 506.972093 -181.846957 
L 506.994788 -180.492332 
L 507.019295 -179.137708 
L 507.046549 -177.783083 
L 507.077352 -176.428458 
L 507.112358 -175.073834 
L 507.152059 -173.719209 
L 507.196775 -172.364585 
L 507.246648 -171.00996 
L 507.301637 -169.655336 
L 507.36152 -168.300711 
L 507.425898 -166.946087 
L 507.4942 -165.591462 
L 507.565693 -164.236838 
L 507.639499 -162.882213 
L 507.714605 -161.527589 
L 507.789888 -160.172964 
L 507.864135 -158.81834 
L 507.93606 -157.463715 
L 508.00434 -156.109091 
L 508.067631 -154.754466 
L 508.124599 -153.399842 
L 508.173948 -152.045217 
L 508.214445 -150.690593 
L 508.244949 -149.335968 
L 508.264431 -147.981344 
L 508.272 -146.626719 
L 508.266925 -145.272095 
L 508.248649 -143.91747 
L 508.216807 -142.562846 
L 508.171235 -141.208221 
L 508.111975 -139.853597 
L 508.039283 -138.498972 
L 507.953619 -137.144348 
L 507.855647 -135.789723 
L 507.746222 -134.435099 
L 507.626371 -133.080474 
L 507.497279 -131.72585 
L 507.360261 -130.371225 
L 507.216739 -129.016601 
L 507.068211 -127.661976 
L 506.91622 -126.307352 
L 506.762321 -124.952727 
L 506.608051 -123.598103 
L 506.454893 -122.243478 
L 506.304246 -120.888854 
L 506.1574 -119.534229 
L 506.0155 -118.179605 
L 505.879532 -116.82498 
L 505.750298 -115.470356 
L 505.628404 -114.115731 
L 505.514247 -112.761107 
L 505.408013 -111.406482 
L 505.309675 -110.051858 
L 505.218997 -108.697233 
L 505.135545 -107.342609 
L 505.058702 -105.987984 
L 504.987684 -104.63336 
L 504.921564 -103.278735 
L 504.859297 -101.924111 
L 504.799742 -100.569486 
L 504.741699 -99.214862 
L 504.683931 -97.860237 
L 504.625196 -96.505613 
L 504.564276 -95.150988 
L 504.500004 -93.796364 
L 504.431289 -92.441739 
L 504.357138 -91.087115 
L 504.276678 -89.73249 
L 504.189169 -88.377866 
L 504.094019 -87.023241 
L 503.990793 -85.668617 
L 503.879218 -84.313992 
L 503.759183 -82.959368 
L 503.630739 -81.604743 
L 503.494093 -80.250119 
L 503.349598 -78.895494 
L 503.197746 -77.54087 
z
" style="stroke: #494949; stroke-width: 1.5"/>
    </defs>
    <g clip-path="url(#pc120a1f96d)">
     <use xlink:href="#m36d97ac194" x="0" y="432" style="fill: #b55d60; stroke: #494949; stroke-width: 1.5"/>
    </g>
   </g>
   <g id="PolyCollection_5">
    <defs>
     <path id="ma1638ca1bd" d="M 620.234053 -62.64 
L 600.165947 -62.64 
L 599.002469 -65.694545 
L 597.780255 -68.749091 
L 596.504092 -71.803636 
L 595.179143 -74.858182 
L 593.810874 -77.912727 
L 592.405026 -80.967273 
L 590.967605 -84.021818 
L 589.504889 -87.076364 
L 588.023447 -90.130909 
L 586.530151 -93.185455 
L 585.032159 -96.24 
L 583.536874 -99.294545 
L 582.051867 -102.349091 
L 580.584761 -105.403636 
L 579.143103 -108.458182 
L 577.734236 -111.512727 
L 576.365201 -114.567273 
L 575.042698 -117.621818 
L 573.773136 -120.676364 
L 572.562775 -123.730909 
L 571.417972 -126.785455 
L 570.345513 -129.84 
L 569.352976 -132.894545 
L 568.449103 -135.949091 
L 567.64408 -139.003636 
L 566.949687 -142.058182 
L 566.379249 -145.112727 
L 565.947334 -148.167273 
L 565.6692 -151.221818 
L 565.56 -154.276364 
L 565.633786 -157.330909 
L 565.902401 -160.385455 
L 566.374352 -163.44 
L 567.053781 -166.494545 
L 567.939641 -169.549091 
L 569.025173 -172.603636 
L 570.297754 -175.658182 
L 571.739147 -178.712727 
L 573.326145 -181.767273 
L 575.031566 -184.821818 
L 576.825514 -187.876364 
L 578.676803 -190.930909 
L 580.554422 -193.985455 
L 582.428929 -197.04 
L 584.273661 -200.094545 
L 586.065679 -203.149091 
L 587.786398 -206.203636 
L 589.421874 -209.258182 
L 590.962777 -212.312727 
L 592.404064 -215.367273 
L 593.744447 -218.421818 
L 594.985705 -221.476364 
L 596.131931 -224.530909 
L 597.188787 -227.585455 
L 598.162823 -230.64 
L 599.060915 -233.694545 
L 599.88983 -236.749091 
L 600.655942 -239.803636 
L 601.365079 -242.858182 
L 602.022481 -245.912727 
L 602.632832 -248.967273 
L 603.200347 -252.021818 
L 603.728863 -255.076364 
L 604.221934 -258.130909 
L 604.682879 -261.185455 
L 605.114811 -264.24 
L 605.520617 -267.294545 
L 605.902909 -270.349091 
L 606.263963 -273.403636 
L 606.605646 -276.458182 
L 606.929356 -279.512727 
L 607.235977 -282.567273 
L 607.525878 -285.621818 
L 607.798923 -288.676364 
L 608.054537 -291.730909 
L 608.291783 -294.785455 
L 608.509471 -297.84 
L 608.706276 -300.894545 
L 608.880864 -303.949091 
L 609.032009 -307.003636 
L 609.158714 -310.058182 
L 609.260306 -313.112727 
L 609.336519 -316.167273 
L 609.387566 -319.221818 
L 609.414187 -322.276364 
L 609.417678 -325.330909 
L 609.399906 -328.385455 
L 609.363294 -331.44 
L 609.310793 -334.494545 
L 609.245818 -337.549091 
L 609.172165 -340.603636 
L 609.093891 -343.658182 
L 609.015184 -346.712727 
L 608.940193 -349.767273 
L 608.872863 -352.821818 
L 608.816759 -355.876364 
L 608.774904 -358.930909 
L 608.749636 -361.985455 
L 608.7425 -365.04 
L 611.6575 -365.04 
L 611.6575 -365.04 
L 611.650364 -361.985455 
L 611.625096 -358.930909 
L 611.583241 -355.876364 
L 611.527137 -352.821818 
L 611.459807 -349.767273 
L 611.384816 -346.712727 
L 611.306109 -343.658182 
L 611.227835 -340.603636 
L 611.154182 -337.549091 
L 611.089207 -334.494545 
L 611.036706 -331.44 
L 611.000094 -328.385455 
L 610.982322 -325.330909 
L 610.985813 -322.276364 
L 611.012434 -319.221818 
L 611.063481 -316.167273 
L 611.139694 -313.112727 
L 611.241286 -310.058182 
L 611.367991 -307.003636 
L 611.519136 -303.949091 
L 611.693724 -300.894545 
L 611.890529 -297.84 
L 612.108217 -294.785455 
L 612.345463 -291.730909 
L 612.601077 -288.676364 
L 612.874122 -285.621818 
L 613.164023 -282.567273 
L 613.470644 -279.512727 
L 613.794354 -276.458182 
L 614.136037 -273.403636 
L 614.497091 -270.349091 
L 614.879383 -267.294545 
L 615.285189 -264.24 
L 615.717121 -261.185455 
L 616.178066 -258.130909 
L 616.671137 -255.076364 
L 617.199653 -252.021818 
L 617.767168 -248.967273 
L 618.377519 -245.912727 
L 619.034921 -242.858182 
L 619.744058 -239.803636 
L 620.51017 -236.749091 
L 621.339085 -233.694545 
L 622.237177 -230.64 
L 623.211213 -227.585455 
L 624.268069 -224.530909 
L 625.414295 -221.476364 
L 626.655553 -218.421818 
L 627.995936 -215.367273 
L 629.437223 -212.312727 
L 630.978126 -209.258182 
L 632.613602 -206.203636 
L 634.334321 -203.149091 
L 636.126339 -200.094545 
L 637.971071 -197.04 
L 639.845578 -193.985455 
L 641.723197 -190.930909 
L 643.574486 -187.876364 
L 645.368434 -184.821818 
L 647.073855 -181.767273 
L 648.660853 -178.712727 
L 650.102246 -175.658182 
L 651.374827 -172.603636 
L 652.460359 -169.549091 
L 653.346219 -166.494545 
L 654.025648 -163.44 
L 654.497599 -160.385455 
L 654.766214 -157.330909 
L 654.84 -154.276364 
L 654.7308 -151.221818 
L 654.452666 -148.167273 
L 654.020751 -145.112727 
L 653.450313 -142.058182 
L 652.75592 -139.003636 
L 651.950897 -135.949091 
L 651.047024 -132.894545 
L 650.054487 -129.84 
L 648.982028 -126.785455 
L 647.837225 -123.730909 
L 646.626864 -120.676364 
L 645.357302 -117.621818 
L 644.034799 -114.567273 
L 642.665764 -111.512727 
L 641.256897 -108.458182 
L 639.815239 -105.403636 
L 638.348133 -102.349091 
L 636.863126 -99.294545 
L 635.367841 -96.24 
L 633.869849 -93.185455 
L 632.376553 -90.130909 
L 630.895111 -87.076364 
L 629.432395 -84.021818 
L 627.994974 -80.967273 
L 626.589126 -77.912727 
L 625.220857 -74.858182 
L 623.895908 -71.803636 
L 622.619745 -68.749091 
L 621.397531 -65.694545 
L 620.234053 -62.64 
z
" style="stroke: #494949; stroke-width: 1.5"/>
    </defs>
    <g clip-path="url(#pc120a1f96d)">
     <use xlink:href="#ma1638ca1bd" x="0" y="432" style="fill: #857aab; stroke: #494949; stroke-width: 1.5"/>
    </g>
   </g>
   <g id="PolyCollection_6">
    <defs>
     <path id="m1d5880fb35" d="M 723.751334 -116.984348 
L 719.848666 -116.984348 
L 719.820396 -117.409328 
L 719.79355 -117.834308 
L 719.768156 -118.259289 
L 719.744236 -118.684269 
L 719.721812 -119.109249 
L 719.700896 -119.534229 
L 719.681502 -119.959209 
L 719.663638 -120.38419 
L 719.647309 -120.80917 
L 719.632518 -121.23415 
L 719.619265 -121.65913 
L 719.607547 -122.084111 
L 719.59736 -122.509091 
L 719.5887 -122.934071 
L 719.581559 -123.359051 
L 719.575928 -123.784032 
L 719.571798 -124.209012 
L 719.56916 -124.633992 
L 719.568 -125.058972 
L 719.568307 -125.483953 
L 719.570067 -125.908933 
L 719.573266 -126.333913 
L 719.577888 -126.758893 
L 719.583914 -127.183874 
L 719.591327 -127.608854 
L 719.600106 -128.033834 
L 719.610226 -128.458814 
L 719.621662 -128.883794 
L 719.634386 -129.308775 
L 719.648366 -129.733755 
L 719.663567 -130.158735 
L 719.67995 -130.583715 
L 719.69747 -131.008696 
L 719.716082 -131.433676 
L 719.735732 -131.858656 
L 719.756364 -132.283636 
L 719.777914 -132.708617 
L 719.800316 -133.133597 
L 719.823498 -133.558577 
L 719.84738 -133.983557 
L 719.871881 -134.408538 
L 719.896913 -134.833518 
L 719.922382 -135.258498 
L 719.948193 -135.683478 
L 719.974244 -136.108458 
L 720.00043 -136.533439 
L 720.026645 -136.958419 
L 720.052779 -137.383399 
L 720.078718 -137.808379 
L 720.104353 -138.23336 
L 720.129568 -138.65834 
L 720.154252 -139.08332 
L 720.178295 -139.5083 
L 720.201587 -139.933281 
L 720.224023 -140.358261 
L 720.245504 -140.783241 
L 720.265931 -141.208221 
L 720.285217 -141.633202 
L 720.303277 -142.058182 
L 720.320035 -142.483162 
L 720.335426 -142.908142 
L 720.349391 -143.333123 
L 720.361882 -143.758103 
L 720.372863 -144.183083 
L 720.382305 -144.608063 
L 720.390196 -145.033043 
L 720.39653 -145.458024 
L 720.401318 -145.883004 
L 720.404579 -146.307984 
L 720.406347 -146.732964 
L 720.406666 -147.157945 
L 720.405595 -147.582925 
L 720.4032 -148.007905 
L 720.399562 -148.432885 
L 720.39477 -148.857866 
L 720.388924 -149.282846 
L 720.382134 -149.707826 
L 720.374518 -150.132806 
L 720.366201 -150.557787 
L 720.357314 -150.982767 
L 720.347995 -151.407747 
L 720.338385 -151.832727 
L 720.328631 -152.257708 
L 720.318879 -152.682688 
L 720.309279 -153.107668 
L 720.299977 -153.532648 
L 720.291122 -153.957628 
L 720.282858 -154.382609 
L 720.275325 -154.807589 
L 720.268659 -155.232569 
L 720.262992 -155.657549 
L 720.258445 -156.08253 
L 720.255135 -156.50751 
L 720.253168 -156.93249 
L 720.252642 -157.35747 
L 720.253644 -157.782451 
L 720.25625 -158.207431 
L 720.260527 -158.632411 
L 720.266527 -159.057391 
L 723.333473 -159.057391 
L 723.333473 -159.057391 
L 723.339473 -158.632411 
L 723.34375 -158.207431 
L 723.346356 -157.782451 
L 723.347358 -157.35747 
L 723.346832 -156.93249 
L 723.344865 -156.50751 
L 723.341555 -156.08253 
L 723.337008 -155.657549 
L 723.331341 -155.232569 
L 723.324675 -154.807589 
L 723.317142 -154.382609 
L 723.308878 -153.957628 
L 723.300023 -153.532648 
L 723.290721 -153.107668 
L 723.281121 -152.682688 
L 723.271369 -152.257708 
L 723.261615 -151.832727 
L 723.252005 -151.407747 
L 723.242686 -150.982767 
L 723.233799 -150.557787 
L 723.225482 -150.132806 
L 723.217866 -149.707826 
L 723.211076 -149.282846 
L 723.20523 -148.857866 
L 723.200438 -148.432885 
L 723.1968 -148.007905 
L 723.194405 -147.582925 
L 723.193334 -147.157945 
L 723.193653 -146.732964 
L 723.195421 -146.307984 
L 723.198682 -145.883004 
L 723.20347 -145.458024 
L 723.209804 -145.033043 
L 723.217695 -144.608063 
L 723.227137 -144.183083 
L 723.238118 -143.758103 
L 723.250609 -143.333123 
L 723.264574 -142.908142 
L 723.279965 -142.483162 
L 723.296723 -142.058182 
L 723.314783 -141.633202 
L 723.334069 -141.208221 
L 723.354496 -140.783241 
L 723.375977 -140.358261 
L 723.398413 -139.933281 
L 723.421705 -139.5083 
L 723.445748 -139.08332 
L 723.470432 -138.65834 
L 723.495647 -138.23336 
L 723.521282 -137.808379 
L 723.547221 -137.383399 
L 723.573355 -136.958419 
L 723.59957 -136.533439 
L 723.625756 -136.108458 
L 723.651807 -135.683478 
L 723.677618 -135.258498 
L 723.703087 -134.833518 
L 723.728119 -134.408538 
L 723.75262 -133.983557 
L 723.776502 -133.558577 
L 723.799684 -133.133597 
L 723.822086 -132.708617 
L 723.843636 -132.283636 
L 723.864268 -131.858656 
L 723.883918 -131.433676 
L 723.90253 -131.008696 
L 723.92005 -130.583715 
L 723.936433 -130.158735 
L 723.951634 -129.733755 
L 723.965614 -129.308775 
L 723.978338 -128.883794 
L 723.989774 -128.458814 
L 723.999894 -128.033834 
L 724.008673 -127.608854 
L 724.016086 -127.183874 
L 724.022112 -126.758893 
L 724.026734 -126.333913 
L 724.029933 -125.908933 
L 724.031693 -125.483953 
L 724.032 -125.058972 
L 724.03084 -124.633992 
L 724.028202 -124.209012 
L 724.024072 -123.784032 
L 724.018441 -123.359051 
L 724.0113 -122.934071 
L 724.00264 -122.509091 
L 723.992453 -122.084111 
L 723.980735 -121.65913 
L 723.967482 -121.23415 
L 723.952691 -120.80917 
L 723.936362 -120.38419 
L 723.918498 -119.959209 
L 723.899104 -119.534229 
L 723.878188 -119.109249 
L 723.855764 -118.684269 
L 723.831844 -118.259289 
L 723.80645 -117.834308 
L 723.779604 -117.409328 
L 723.751334 -116.984348 
z
" style="stroke: #494949; stroke-width: 1.5"/>
    </defs>
    <g clip-path="url(#pc120a1f96d)">
     <use xlink:href="#m1d5880fb35" x="0" y="432" style="fill: #8d7866; stroke: #494949; stroke-width: 1.5"/>
    </g>
   </g>
   <g id="line2d_9">
    <path d="M 153.062756 301.867826 
L 174.537244 301.867826 
" clip-path="url(#pc120a1f96d)" style="fill: none; stroke-dasharray: 3.375,3.375; stroke-dashoffset: 0; stroke: #494949; stroke-width: 1.5"/>
   </g>
   <g id="line2d_10">
    <path d="M 151.314857 286.090435 
L 176.285143 286.090435 
" clip-path="url(#pc120a1f96d)" style="fill: none; stroke-dasharray: 6.75,6.75; stroke-dashoffset: 0; stroke: #494949; stroke-width: 1.5"/>
   </g>
   <g id="line2d_11">
    <path d="M 153.865934 272.942609 
L 173.734066 272.942609 
" clip-path="url(#pc120a1f96d)" style="fill: none; stroke-dasharray: 3.375,3.375; stroke-dashoffset: 0; stroke: #494949; stroke-width: 1.5"/>
   </g>
   <g id="line2d_12">
    <path d="M 274.12621 339.777391 
L 276.67379 339.777391 
" clip-path="url(#pc120a1f96d)" style="fill: none; stroke-dasharray: 3.375,3.375; stroke-dashoffset: 0; stroke: #494949; stroke-width: 1.5"/>
   </g>
   <g id="line2d_13">
    <path d="M 274.337139 323.342609 
L 276.462861 323.342609 
" clip-path="url(#pc120a1f96d)" style="fill: none; stroke-dasharray: 6.75,6.75; stroke-dashoffset: 0; stroke: #494949; stroke-width: 1.5"/>
   </g>
   <g id="line2d_14">
    <path d="M 274.12621 306.907826 
L 276.67379 306.907826 
" clip-path="url(#pc120a1f96d)" style="fill: none; stroke-dasharray: 3.375,3.375; stroke-dashoffset: 0; stroke: #494949; stroke-width: 1.5"/>
   </g>
   <g id="line2d_15">
    <path d="M 380.862566 297.046957 
L 393.137434 297.046957 
" clip-path="url(#pc120a1f96d)" style="fill: none; stroke-dasharray: 3.375,3.375; stroke-dashoffset: 0; stroke: #494949; stroke-width: 1.5"/>
   </g>
   <g id="line2d_16">
    <path d="M 378.907501 268.56 
L 395.092499 268.56 
" clip-path="url(#pc120a1f96d)" style="fill: none; stroke-dasharray: 6.75,6.75; stroke-dashoffset: 0; stroke: #494949; stroke-width: 1.5"/>
   </g>
   <g id="line2d_17">
    <path d="M 379.11111 261.986087 
L 394.88889 261.986087 
" clip-path="url(#pc120a1f96d)" style="fill: none; stroke-dasharray: 3.375,3.375; stroke-dashoffset: 0; stroke: #494949; stroke-width: 1.5"/>
   </g>
   <g id="line2d_18">
    <path d="M 489.663893 299.238261 
L 507.536107 299.238261 
" clip-path="url(#pc120a1f96d)" style="fill: none; stroke-dasharray: 3.375,3.375; stroke-dashoffset: 0; stroke: #494949; stroke-width: 1.5"/>
   </g>
   <g id="line2d_19">
    <path d="M 489.029744 286.090435 
L 508.170256 286.090435 
" clip-path="url(#pc120a1f96d)" style="fill: none; stroke-dasharray: 6.75,6.75; stroke-dashoffset: 0; stroke: #494949; stroke-width: 1.5"/>
   </g>
   <g id="line2d_20">
    <path d="M 490.472173 242.264348 
L 506.727827 242.264348 
" clip-path="url(#pc120a1f96d)" style="fill: none; stroke-dasharray: 3.375,3.375; stroke-dashoffset: 0; stroke: #494949; stroke-width: 1.5"/>
   </g>
   <g id="line2d_21">
    <path d="M 574.137405 312.386087 
L 646.262595 312.386087 
" clip-path="url(#pc120a1f96d)" style="fill: none; stroke-dasharray: 3.375,3.375; stroke-dashoffset: 0; stroke: #494949; stroke-width: 1.5"/>
   </g>
   <g id="line2d_22">
    <path d="M 566.079448 275.133913 
L 654.320552 275.133913 
" clip-path="url(#pc120a1f96d)" style="fill: none; stroke-dasharray: 6.75,6.75; stroke-dashoffset: 0; stroke: #494949; stroke-width: 1.5"/>
   </g>
   <g id="line2d_23">
    <path d="M 569.436922 258.041739 
L 650.963078 258.041739 
" clip-path="url(#pc120a1f96d)" style="fill: none; stroke-dasharray: 3.375,3.375; stroke-dashoffset: 0; stroke: #494949; stroke-width: 1.5"/>
   </g>
   <g id="line2d_24">
    <path d="M 719.59032 307.126957 
L 724.00968 307.126957 
" clip-path="url(#pc120a1f96d)" style="fill: none; stroke-dasharray: 3.375,3.375; stroke-dashoffset: 0; stroke: #494949; stroke-width: 1.5"/>
   </g>
   <g id="line2d_25">
    <path d="M 719.798135 299.238261 
L 723.801865 299.238261 
" clip-path="url(#pc120a1f96d)" style="fill: none; stroke-dasharray: 6.75,6.75; stroke-dashoffset: 0; stroke: #494949; stroke-width: 1.5"/>
   </g>
   <g id="line2d_26">
    <path d="M 720.415304 286.090435 
L 723.184696 286.090435 
" clip-path="url(#pc120a1f96d)" style="fill: none; stroke-dasharray: 3.375,3.375; stroke-dashoffset: 0; stroke: #494949; stroke-width: 1.5"/>
   </g>
   <g id="patch_3">
    <path d="M 108 384.48 
L 108 51.84 
" style="fill: none; stroke: #ffffff; stroke-width: 1.25; stroke-linejoin: miter; stroke-linecap: square"/>
   </g>
   <g id="patch_4">
    <path d="M 777.6 384.48 
L 777.6 51.84 
" style="fill: none; stroke: #ffffff; stroke-width: 1.25; stroke-linejoin: miter; stroke-linecap: square"/>
   </g>
   <g id="patch_5">
    <path d="M 108 384.48 
L 777.6 384.48 
" style="fill: none; stroke: #ffffff; stroke-width: 1.25; stroke-linejoin: miter; stroke-linecap: square"/>
   </g>
   <g id="patch_6">
    <path d="M 108 51.84 
L 777.6 51.84 
" style="fill: none; stroke: #ffffff; stroke-width: 1.25; stroke-linejoin: miter; stroke-linecap: square"/>
   </g>
   <g id="text_17">
    <!-- Compensation by Type of Work -->
    <g style="fill: #262626" transform="translate(359.31 45.84)scale(0.12 -0.12)">
     <defs>
      <path id="ArialMT-43" d="M 3763 1606 
L 4369 1453 
Q 4178 706 3683 314 
Q 3188 -78 2472 -78 
Q 1731 -78 1267 223 
Q 803 525 561 1097 
Q 319 1669 319 2325 
Q 319 3041 592 3573 
Q 866 4106 1370 4382 
Q 1875 4659 2481 4659 
Q 3169 4659 3637 4309 
Q 4106 3959 4291 3325 
L 3694 3184 
Q 3534 3684 3231 3912 
Q 2928 4141 2469 4141 
Q 1941 4141 1586 3887 
Q 1231 3634 1087 3207 
Q 944 2781 944 2328 
Q 944 1744 1114 1308 
Q 1284 872 1643 656 
Q 2003 441 2422 441 
Q 2931 441 3284 734 
Q 3638 1028 3763 1606 
z
" transform="scale(0.015625)"/>
      <path id="ArialMT-62" d="M 941 0 
L 419 0 
L 419 4581 
L 981 4581 
L 981 2947 
Q 1338 3394 1891 3394 
Q 2197 3394 2470 3270 
Q 2744 3147 2920 2923 
Q 3097 2700 3197 2384 
Q 3297 2069 3297 1709 
Q 3297 856 2875 390 
Q 2453 -75 1863 -75 
Q 1275 -75 941 416 
L 941 0 
z
M 934 1684 
Q 934 1088 1097 822 
Q 1363 388 1816 388 
Q 2184 388 2453 708 
Q 2722 1028 2722 1663 
Q 2722 2313 2464 2622 
Q 2206 2931 1841 2931 
Q 1472 2931 1203 2611 
Q 934 2291 934 1684 
z
" transform="scale(0.015625)"/>
     </defs>
     <use xlink:href="#ArialMT-43"/>
     <use xlink:href="#ArialMT-6f" x="72.216797"/>
     <use xlink:href="#ArialMT-6d" x="127.832031"/>
     <use xlink:href="#ArialMT-70" x="211.132812"/>
     <use xlink:href="#ArialMT-65" x="266.748047"/>
     <use xlink:href="#ArialMT-6e" x="322.363281"/>
     <use xlink:href="#ArialMT-73" x="377.978516"/>
     <use xlink:href="#ArialMT-61" x="427.978516"/>
     <use xlink:href="#ArialMT-74" x="483.59375"/>
     <use xlink:href="#ArialMT-69" x="511.376953"/>
     <use xlink:href="#ArialMT-6f" x="533.59375"/>
     <use xlink:href="#ArialMT-6e" x="589.208984"/>
     <use xlink:href="#ArialMT-20" x="644.824219"/>
     <use xlink:href="#ArialMT-62" x="672.607422"/>
     <use xlink:href="#ArialMT-79" x="728.222656"/>
     <use xlink:href="#ArialMT-20" x="778.222656"/>
     <use xlink:href="#ArialMT-54" x="804.255859"/>
     <use xlink:href="#ArialMT-79" x="859.839844"/>
     <use xlink:href="#ArialMT-70" x="909.839844"/>
     <use xlink:href="#ArialMT-65" x="965.455078"/>
     <use xlink:href="#ArialMT-20" x="1021.070312"/>
     <use xlink:href="#ArialMT-6f" x="1048.853516"/>
     <use xlink:href="#ArialMT-66" x="1104.46875"/>
     <use xlink:href="#ArialMT-20" x="1132.251953"/>
     <use xlink:href="#ArialMT-57" x="1160.035156"/>
     <use xlink:href="#ArialMT-6f" x="1252.669922"/>
     <use xlink:href="#ArialMT-72" x="1308.285156"/>
     <use xlink:href="#ArialMT-6b" x="1341.585938"/>
    </g>
   </g>
  </g>
 </g>
 <defs>
  <clipPath id="pc120a1f96d">
   <rect x="108" y="51.84" width="669.6" height="332.64"/>
  </clipPath>
 </defs>
</svg>
