<?xml version="1.0" encoding="utf-8" standalone="no"?>
<!DOCTYPE svg PUBLIC "-//W3C//DTD SVG 1.1//EN"
  "http://www.w3.org/Graphics/SVG/1.1/DTD/svg11.dtd">
<svg xmlns:xlink="http://www.w3.org/1999/xlink" width="864pt" height="432pt" viewBox="0 0 864 432" xmlns="http://www.w3.org/2000/svg" version="1.1">
 <metadata>
  <rdf:RDF xmlns:dc="http://purl.org/dc/elements/1.1/" xmlns:cc="http://creativecommons.org/ns#" xmlns:rdf="http://www.w3.org/1999/02/22-rdf-syntax-ns#">
   <cc:Work>
    <dc:type rdf:resource="http://purl.org/dc/dcmitype/StillImage"/>
    <dc:date>2023-02-27T12:36:21.392616</dc:date>
    <dc:format>image/svg+xml</dc:format>
    <dc:creator>
     <cc:Agent>
      <dc:title>Matplotlib v3.5.2, https://matplotlib.org/</dc:title>
     </cc:Agent>
    </dc:creator>
   </cc:Work>
  </rdf:RDF>
 </metadata>
 <defs>
  <style type="text/css">*{stroke-linejoin: round; stroke-linecap: butt}</style>
 </defs>
 <g id="figure_1">
  <g id="patch_1">
   <path d="M 0 432 
L 864 432 
L 864 0 
L 0 0 
z
" style="fill: #ffffff"/>
  </g>
  <g id="axes_1">
   <g id="patch_2">
    <path d="M 108 384.48 
L 777.6 384.48 
L 777.6 51.84 
L 108 51.84 
z
" style="fill: #eaeaf2"/>
   </g>
   <g id="matplotlib.axis_1">
    <g id="xtick_1">
     <g id="text_1">
      <!-- Another Country -->
      <g style="fill: #262626" transform="translate(151.653125 401.987656)scale(0.11 -0.11)">
       <defs>
        <path id="ArialMT-41" d="M -9 0 
L 1750 4581 
L 2403 4581 
L 4278 0 
L 3588 0 
L 3053 1388 
L 1138 1388 
L 634 0 
L -9 0 
z
M 1313 1881 
L 2866 1881 
L 2388 3150 
Q 2169 3728 2063 4100 
Q 1975 3659 1816 3225 
L 1313 1881 
z
" transform="scale(0.015625)"/>
        <path id="ArialMT-6e" d="M 422 0 
L 422 3319 
L 928 3319 
L 928 2847 
Q 1294 3394 1984 3394 
Q 2284 3394 2536 3286 
Q 2788 3178 2913 3003 
Q 3038 2828 3088 2588 
Q 3119 2431 3119 2041 
L 3119 0 
L 2556 0 
L 2556 2019 
Q 2556 2363 2490 2533 
Q 2425 2703 2258 2804 
Q 2091 2906 1866 2906 
Q 1506 2906 1245 2678 
Q 984 2450 984 1813 
L 984 0 
L 422 0 
z
" transform="scale(0.015625)"/>
        <path id="ArialMT-6f" d="M 213 1659 
Q 213 2581 725 3025 
Q 1153 3394 1769 3394 
Q 2453 3394 2887 2945 
Q 3322 2497 3322 1706 
Q 3322 1066 3130 698 
Q 2938 331 2570 128 
Q 2203 -75 1769 -75 
Q 1072 -75 642 372 
Q 213 819 213 1659 
z
M 791 1659 
Q 791 1022 1069 705 
Q 1347 388 1769 388 
Q 2188 388 2466 706 
Q 2744 1025 2744 1678 
Q 2744 2294 2464 2611 
Q 2184 2928 1769 2928 
Q 1347 2928 1069 2612 
Q 791 2297 791 1659 
z
" transform="scale(0.015625)"/>
        <path id="ArialMT-74" d="M 1650 503 
L 1731 6 
Q 1494 -44 1306 -44 
Q 1000 -44 831 53 
Q 663 150 594 308 
Q 525 466 525 972 
L 525 2881 
L 113 2881 
L 113 3319 
L 525 3319 
L 525 4141 
L 1084 4478 
L 1084 3319 
L 1650 3319 
L 1650 2881 
L 1084 2881 
L 1084 941 
Q 1084 700 1114 631 
Q 1144 563 1211 522 
Q 1278 481 1403 481 
Q 1497 481 1650 503 
z
" transform="scale(0.015625)"/>
        <path id="ArialMT-68" d="M 422 0 
L 422 4581 
L 984 4581 
L 984 2938 
Q 1378 3394 1978 3394 
Q 2347 3394 2619 3248 
Q 2891 3103 3008 2847 
Q 3125 2591 3125 2103 
L 3125 0 
L 2563 0 
L 2563 2103 
Q 2563 2525 2380 2717 
Q 2197 2909 1863 2909 
Q 1613 2909 1392 2779 
Q 1172 2650 1078 2428 
Q 984 2206 984 1816 
L 984 0 
L 422 0 
z
" transform="scale(0.015625)"/>
        <path id="ArialMT-65" d="M 2694 1069 
L 3275 997 
Q 3138 488 2766 206 
Q 2394 -75 1816 -75 
Q 1088 -75 661 373 
Q 234 822 234 1631 
Q 234 2469 665 2931 
Q 1097 3394 1784 3394 
Q 2450 3394 2872 2941 
Q 3294 2488 3294 1666 
Q 3294 1616 3291 1516 
L 816 1516 
Q 847 969 1125 678 
Q 1403 388 1819 388 
Q 2128 388 2347 550 
Q 2566 713 2694 1069 
z
M 847 1978 
L 2700 1978 
Q 2663 2397 2488 2606 
Q 2219 2931 1791 2931 
Q 1403 2931 1139 2672 
Q 875 2413 847 1978 
z
" transform="scale(0.015625)"/>
        <path id="ArialMT-72" d="M 416 0 
L 416 3319 
L 922 3319 
L 922 2816 
Q 1116 3169 1280 3281 
Q 1444 3394 1641 3394 
Q 1925 3394 2219 3213 
L 2025 2691 
Q 1819 2813 1613 2813 
Q 1428 2813 1281 2702 
Q 1134 2591 1072 2394 
Q 978 2094 978 1738 
L 978 0 
L 416 0 
z
" transform="scale(0.015625)"/>
        <path id="ArialMT-20" transform="scale(0.015625)"/>
        <path id="ArialMT-43" d="M 3763 1606 
L 4369 1453 
Q 4178 706 3683 314 
Q 3188 -78 2472 -78 
Q 1731 -78 1267 223 
Q 803 525 561 1097 
Q 319 1669 319 2325 
Q 319 3041 592 3573 
Q 866 4106 1370 4382 
Q 1875 4659 2481 4659 
Q 3169 4659 3637 4309 
Q 4106 3959 4291 3325 
L 3694 3184 
Q 3534 3684 3231 3912 
Q 2928 4141 2469 4141 
Q 1941 4141 1586 3887 
Q 1231 3634 1087 3207 
Q 944 2781 944 2328 
Q 944 1744 1114 1308 
Q 1284 872 1643 656 
Q 2003 441 2422 441 
Q 2931 441 3284 734 
Q 3638 1028 3763 1606 
z
" transform="scale(0.015625)"/>
        <path id="ArialMT-75" d="M 2597 0 
L 2597 488 
Q 2209 -75 1544 -75 
Q 1250 -75 995 37 
Q 741 150 617 320 
Q 494 491 444 738 
Q 409 903 409 1263 
L 409 3319 
L 972 3319 
L 972 1478 
Q 972 1038 1006 884 
Q 1059 663 1231 536 
Q 1403 409 1656 409 
Q 1909 409 2131 539 
Q 2353 669 2445 892 
Q 2538 1116 2538 1541 
L 2538 3319 
L 3100 3319 
L 3100 0 
L 2597 0 
z
" transform="scale(0.015625)"/>
        <path id="ArialMT-79" d="M 397 -1278 
L 334 -750 
Q 519 -800 656 -800 
Q 844 -800 956 -737 
Q 1069 -675 1141 -563 
Q 1194 -478 1313 -144 
Q 1328 -97 1363 -6 
L 103 3319 
L 709 3319 
L 1400 1397 
Q 1534 1031 1641 628 
Q 1738 1016 1872 1384 
L 2581 3319 
L 3144 3319 
L 1881 -56 
Q 1678 -603 1566 -809 
Q 1416 -1088 1222 -1217 
Q 1028 -1347 759 -1347 
Q 597 -1347 397 -1278 
z
" transform="scale(0.015625)"/>
       </defs>
       <use xlink:href="#ArialMT-41"/>
       <use xlink:href="#ArialMT-6e" x="66.699219"/>
       <use xlink:href="#ArialMT-6f" x="122.314453"/>
       <use xlink:href="#ArialMT-74" x="177.929688"/>
       <use xlink:href="#ArialMT-68" x="205.712891"/>
       <use xlink:href="#ArialMT-65" x="261.328125"/>
       <use xlink:href="#ArialMT-72" x="316.943359"/>
       <use xlink:href="#ArialMT-20" x="350.244141"/>
       <use xlink:href="#ArialMT-43" x="378.027344"/>
       <use xlink:href="#ArialMT-6f" x="450.244141"/>
       <use xlink:href="#ArialMT-75" x="505.859375"/>
       <use xlink:href="#ArialMT-6e" x="561.474609"/>
       <use xlink:href="#ArialMT-74" x="617.089844"/>
       <use xlink:href="#ArialMT-72" x="644.873047"/>
       <use xlink:href="#ArialMT-79" x="678.173828"/>
      </g>
     </g>
    </g>
    <g id="xtick_2">
     <g id="text_2">
      <!-- Elsewhere in New York -->
      <g style="fill: #262626" transform="translate(302.844453 401.853594)scale(0.11 -0.11)">
       <defs>
        <path id="ArialMT-45" d="M 506 0 
L 506 4581 
L 3819 4581 
L 3819 4041 
L 1113 4041 
L 1113 2638 
L 3647 2638 
L 3647 2100 
L 1113 2100 
L 1113 541 
L 3925 541 
L 3925 0 
L 506 0 
z
" transform="scale(0.015625)"/>
        <path id="ArialMT-6c" d="M 409 0 
L 409 4581 
L 972 4581 
L 972 0 
L 409 0 
z
" transform="scale(0.015625)"/>
        <path id="ArialMT-73" d="M 197 991 
L 753 1078 
Q 800 744 1014 566 
Q 1228 388 1613 388 
Q 2000 388 2187 545 
Q 2375 703 2375 916 
Q 2375 1106 2209 1216 
Q 2094 1291 1634 1406 
Q 1016 1563 777 1677 
Q 538 1791 414 1992 
Q 291 2194 291 2438 
Q 291 2659 392 2848 
Q 494 3038 669 3163 
Q 800 3259 1026 3326 
Q 1253 3394 1513 3394 
Q 1903 3394 2198 3281 
Q 2494 3169 2634 2976 
Q 2775 2784 2828 2463 
L 2278 2388 
Q 2241 2644 2061 2787 
Q 1881 2931 1553 2931 
Q 1166 2931 1000 2803 
Q 834 2675 834 2503 
Q 834 2394 903 2306 
Q 972 2216 1119 2156 
Q 1203 2125 1616 2013 
Q 2213 1853 2448 1751 
Q 2684 1650 2818 1456 
Q 2953 1263 2953 975 
Q 2953 694 2789 445 
Q 2625 197 2315 61 
Q 2006 -75 1616 -75 
Q 969 -75 630 194 
Q 291 463 197 991 
z
" transform="scale(0.015625)"/>
        <path id="ArialMT-77" d="M 1034 0 
L 19 3319 
L 600 3319 
L 1128 1403 
L 1325 691 
Q 1338 744 1497 1375 
L 2025 3319 
L 2603 3319 
L 3100 1394 
L 3266 759 
L 3456 1400 
L 4025 3319 
L 4572 3319 
L 3534 0 
L 2950 0 
L 2422 1988 
L 2294 2553 
L 1622 0 
L 1034 0 
z
" transform="scale(0.015625)"/>
        <path id="ArialMT-69" d="M 425 3934 
L 425 4581 
L 988 4581 
L 988 3934 
L 425 3934 
z
M 425 0 
L 425 3319 
L 988 3319 
L 988 0 
L 425 0 
z
" transform="scale(0.015625)"/>
        <path id="ArialMT-4e" d="M 488 0 
L 488 4581 
L 1109 4581 
L 3516 984 
L 3516 4581 
L 4097 4581 
L 4097 0 
L 3475 0 
L 1069 3600 
L 1069 0 
L 488 0 
z
" transform="scale(0.015625)"/>
        <path id="ArialMT-59" d="M 1784 0 
L 1784 1941 
L 19 4581 
L 756 4581 
L 1659 3200 
Q 1909 2813 2125 2425 
Q 2331 2784 2625 3234 
L 3513 4581 
L 4219 4581 
L 2391 1941 
L 2391 0 
L 1784 0 
z
" transform="scale(0.015625)"/>
        <path id="ArialMT-6b" d="M 425 0 
L 425 4581 
L 988 4581 
L 988 1969 
L 2319 3319 
L 3047 3319 
L 1778 2088 
L 3175 0 
L 2481 0 
L 1384 1697 
L 988 1316 
L 988 0 
L 425 0 
z
" transform="scale(0.015625)"/>
       </defs>
       <use xlink:href="#ArialMT-45"/>
       <use xlink:href="#ArialMT-6c" x="66.699219"/>
       <use xlink:href="#ArialMT-73" x="88.916016"/>
       <use xlink:href="#ArialMT-65" x="138.916016"/>
       <use xlink:href="#ArialMT-77" x="194.53125"/>
       <use xlink:href="#ArialMT-68" x="266.748047"/>
       <use xlink:href="#ArialMT-65" x="322.363281"/>
       <use xlink:href="#ArialMT-72" x="377.978516"/>
       <use xlink:href="#ArialMT-65" x="411.279297"/>
       <use xlink:href="#ArialMT-20" x="466.894531"/>
       <use xlink:href="#ArialMT-69" x="494.677734"/>
       <use xlink:href="#ArialMT-6e" x="516.894531"/>
       <use xlink:href="#ArialMT-20" x="572.509766"/>
       <use xlink:href="#ArialMT-4e" x="600.292969"/>
       <use xlink:href="#ArialMT-65" x="672.509766"/>
       <use xlink:href="#ArialMT-77" x="728.125"/>
       <use xlink:href="#ArialMT-20" x="800.341797"/>
       <use xlink:href="#ArialMT-59" x="826.375"/>
       <use xlink:href="#ArialMT-6f" x="883.949219"/>
       <use xlink:href="#ArialMT-72" x="939.564453"/>
       <use xlink:href="#ArialMT-6b" x="972.865234"/>
      </g>
     </g>
    </g>
    <g id="xtick_3">
     <g id="text_3">
      <!-- Elsewhere in the United States -->
      <g style="fill: #262626" transform="translate(451.295234 401.853594)scale(0.11 -0.11)">
       <defs>
        <path id="ArialMT-55" d="M 3500 4581 
L 4106 4581 
L 4106 1934 
Q 4106 1244 3950 837 
Q 3794 431 3386 176 
Q 2978 -78 2316 -78 
Q 1672 -78 1262 144 
Q 853 366 678 786 
Q 503 1206 503 1934 
L 503 4581 
L 1109 4581 
L 1109 1938 
Q 1109 1341 1220 1058 
Q 1331 775 1601 622 
Q 1872 469 2263 469 
Q 2931 469 3215 772 
Q 3500 1075 3500 1938 
L 3500 4581 
z
" transform="scale(0.015625)"/>
        <path id="ArialMT-64" d="M 2575 0 
L 2575 419 
Q 2259 -75 1647 -75 
Q 1250 -75 917 144 
Q 584 363 401 755 
Q 219 1147 219 1656 
Q 219 2153 384 2558 
Q 550 2963 881 3178 
Q 1213 3394 1622 3394 
Q 1922 3394 2156 3267 
Q 2391 3141 2538 2938 
L 2538 4581 
L 3097 4581 
L 3097 0 
L 2575 0 
z
M 797 1656 
Q 797 1019 1065 703 
Q 1334 388 1700 388 
Q 2069 388 2326 689 
Q 2584 991 2584 1609 
Q 2584 2291 2321 2609 
Q 2059 2928 1675 2928 
Q 1300 2928 1048 2622 
Q 797 2316 797 1656 
z
" transform="scale(0.015625)"/>
        <path id="ArialMT-53" d="M 288 1472 
L 859 1522 
Q 900 1178 1048 958 
Q 1197 738 1509 602 
Q 1822 466 2213 466 
Q 2559 466 2825 569 
Q 3091 672 3220 851 
Q 3350 1031 3350 1244 
Q 3350 1459 3225 1620 
Q 3100 1781 2813 1891 
Q 2628 1963 1997 2114 
Q 1366 2266 1113 2400 
Q 784 2572 623 2826 
Q 463 3081 463 3397 
Q 463 3744 659 4045 
Q 856 4347 1234 4503 
Q 1613 4659 2075 4659 
Q 2584 4659 2973 4495 
Q 3363 4331 3572 4012 
Q 3781 3694 3797 3291 
L 3216 3247 
Q 3169 3681 2898 3903 
Q 2628 4125 2100 4125 
Q 1550 4125 1298 3923 
Q 1047 3722 1047 3438 
Q 1047 3191 1225 3031 
Q 1400 2872 2139 2705 
Q 2878 2538 3153 2413 
Q 3553 2228 3743 1945 
Q 3934 1663 3934 1294 
Q 3934 928 3725 604 
Q 3516 281 3123 101 
Q 2731 -78 2241 -78 
Q 1619 -78 1198 103 
Q 778 284 539 648 
Q 300 1013 288 1472 
z
" transform="scale(0.015625)"/>
        <path id="ArialMT-61" d="M 2588 409 
Q 2275 144 1986 34 
Q 1697 -75 1366 -75 
Q 819 -75 525 192 
Q 231 459 231 875 
Q 231 1119 342 1320 
Q 453 1522 633 1644 
Q 813 1766 1038 1828 
Q 1203 1872 1538 1913 
Q 2219 1994 2541 2106 
Q 2544 2222 2544 2253 
Q 2544 2597 2384 2738 
Q 2169 2928 1744 2928 
Q 1347 2928 1158 2789 
Q 969 2650 878 2297 
L 328 2372 
Q 403 2725 575 2942 
Q 747 3159 1072 3276 
Q 1397 3394 1825 3394 
Q 2250 3394 2515 3294 
Q 2781 3194 2906 3042 
Q 3031 2891 3081 2659 
Q 3109 2516 3109 2141 
L 3109 1391 
Q 3109 606 3145 398 
Q 3181 191 3288 0 
L 2700 0 
Q 2613 175 2588 409 
z
M 2541 1666 
Q 2234 1541 1622 1453 
Q 1275 1403 1131 1340 
Q 988 1278 909 1158 
Q 831 1038 831 891 
Q 831 666 1001 516 
Q 1172 366 1500 366 
Q 1825 366 2078 508 
Q 2331 650 2450 897 
Q 2541 1088 2541 1459 
L 2541 1666 
z
" transform="scale(0.015625)"/>
       </defs>
       <use xlink:href="#ArialMT-45"/>
       <use xlink:href="#ArialMT-6c" x="66.699219"/>
       <use xlink:href="#ArialMT-73" x="88.916016"/>
       <use xlink:href="#ArialMT-65" x="138.916016"/>
       <use xlink:href="#ArialMT-77" x="194.53125"/>
       <use xlink:href="#ArialMT-68" x="266.748047"/>
       <use xlink:href="#ArialMT-65" x="322.363281"/>
       <use xlink:href="#ArialMT-72" x="377.978516"/>
       <use xlink:href="#ArialMT-65" x="411.279297"/>
       <use xlink:href="#ArialMT-20" x="466.894531"/>
       <use xlink:href="#ArialMT-69" x="494.677734"/>
       <use xlink:href="#ArialMT-6e" x="516.894531"/>
       <use xlink:href="#ArialMT-20" x="572.509766"/>
       <use xlink:href="#ArialMT-74" x="600.292969"/>
       <use xlink:href="#ArialMT-68" x="628.076172"/>
       <use xlink:href="#ArialMT-65" x="683.691406"/>
       <use xlink:href="#ArialMT-20" x="739.306641"/>
       <use xlink:href="#ArialMT-55" x="767.089844"/>
       <use xlink:href="#ArialMT-6e" x="839.306641"/>
       <use xlink:href="#ArialMT-69" x="894.921875"/>
       <use xlink:href="#ArialMT-74" x="917.138672"/>
       <use xlink:href="#ArialMT-65" x="944.921875"/>
       <use xlink:href="#ArialMT-64" x="1000.537109"/>
       <use xlink:href="#ArialMT-20" x="1056.152344"/>
       <use xlink:href="#ArialMT-53" x="1083.935547"/>
       <use xlink:href="#ArialMT-74" x="1150.634766"/>
       <use xlink:href="#ArialMT-61" x="1178.417969"/>
       <use xlink:href="#ArialMT-74" x="1234.033203"/>
       <use xlink:href="#ArialMT-65" x="1261.816406"/>
       <use xlink:href="#ArialMT-73" x="1317.431641"/>
      </g>
     </g>
    </g>
    <g id="xtick_4">
     <g id="text_4">
      <!-- Rochester, NY  (or surrounding suburbs) -->
      <g style="fill: #262626" transform="translate(595.262656 401.987656)scale(0.11 -0.11)">
       <defs>
        <path id="ArialMT-52" d="M 503 0 
L 503 4581 
L 2534 4581 
Q 3147 4581 3465 4457 
Q 3784 4334 3975 4021 
Q 4166 3709 4166 3331 
Q 4166 2844 3850 2509 
Q 3534 2175 2875 2084 
Q 3116 1969 3241 1856 
Q 3506 1613 3744 1247 
L 4541 0 
L 3778 0 
L 3172 953 
Q 2906 1366 2734 1584 
Q 2563 1803 2427 1890 
Q 2291 1978 2150 2013 
Q 2047 2034 1813 2034 
L 1109 2034 
L 1109 0 
L 503 0 
z
M 1109 2559 
L 2413 2559 
Q 2828 2559 3062 2645 
Q 3297 2731 3419 2920 
Q 3541 3109 3541 3331 
Q 3541 3656 3305 3865 
Q 3069 4075 2559 4075 
L 1109 4075 
L 1109 2559 
z
" transform="scale(0.015625)"/>
        <path id="ArialMT-63" d="M 2588 1216 
L 3141 1144 
Q 3050 572 2676 248 
Q 2303 -75 1759 -75 
Q 1078 -75 664 370 
Q 250 816 250 1647 
Q 250 2184 428 2587 
Q 606 2991 970 3192 
Q 1334 3394 1763 3394 
Q 2303 3394 2647 3120 
Q 2991 2847 3088 2344 
L 2541 2259 
Q 2463 2594 2264 2762 
Q 2066 2931 1784 2931 
Q 1359 2931 1093 2626 
Q 828 2322 828 1663 
Q 828 994 1084 691 
Q 1341 388 1753 388 
Q 2084 388 2306 591 
Q 2528 794 2588 1216 
z
" transform="scale(0.015625)"/>
        <path id="ArialMT-2c" d="M 569 0 
L 569 641 
L 1209 641 
L 1209 0 
Q 1209 -353 1084 -570 
Q 959 -788 688 -906 
L 531 -666 
Q 709 -588 793 -436 
Q 878 -284 888 0 
L 569 0 
z
" transform="scale(0.015625)"/>
        <path id="ArialMT-28" d="M 1497 -1347 
Q 1031 -759 709 28 
Q 388 816 388 1659 
Q 388 2403 628 3084 
Q 909 3875 1497 4659 
L 1900 4659 
Q 1522 4009 1400 3731 
Q 1209 3300 1100 2831 
Q 966 2247 966 1656 
Q 966 153 1900 -1347 
L 1497 -1347 
z
" transform="scale(0.015625)"/>
        <path id="ArialMT-67" d="M 319 -275 
L 866 -356 
Q 900 -609 1056 -725 
Q 1266 -881 1628 -881 
Q 2019 -881 2231 -725 
Q 2444 -569 2519 -288 
Q 2563 -116 2559 434 
Q 2191 0 1641 0 
Q 956 0 581 494 
Q 206 988 206 1678 
Q 206 2153 378 2554 
Q 550 2956 876 3175 
Q 1203 3394 1644 3394 
Q 2231 3394 2613 2919 
L 2613 3319 
L 3131 3319 
L 3131 450 
Q 3131 -325 2973 -648 
Q 2816 -972 2473 -1159 
Q 2131 -1347 1631 -1347 
Q 1038 -1347 672 -1080 
Q 306 -813 319 -275 
z
M 784 1719 
Q 784 1066 1043 766 
Q 1303 466 1694 466 
Q 2081 466 2343 764 
Q 2606 1063 2606 1700 
Q 2606 2309 2336 2618 
Q 2066 2928 1684 2928 
Q 1309 2928 1046 2623 
Q 784 2319 784 1719 
z
" transform="scale(0.015625)"/>
        <path id="ArialMT-62" d="M 941 0 
L 419 0 
L 419 4581 
L 981 4581 
L 981 2947 
Q 1338 3394 1891 3394 
Q 2197 3394 2470 3270 
Q 2744 3147 2920 2923 
Q 3097 2700 3197 2384 
Q 3297 2069 3297 1709 
Q 3297 856 2875 390 
Q 2453 -75 1863 -75 
Q 1275 -75 941 416 
L 941 0 
z
M 934 1684 
Q 934 1088 1097 822 
Q 1363 388 1816 388 
Q 2184 388 2453 708 
Q 2722 1028 2722 1663 
Q 2722 2313 2464 2622 
Q 2206 2931 1841 2931 
Q 1472 2931 1203 2611 
Q 934 2291 934 1684 
z
" transform="scale(0.015625)"/>
        <path id="ArialMT-29" d="M 791 -1347 
L 388 -1347 
Q 1322 153 1322 1656 
Q 1322 2244 1188 2822 
Q 1081 3291 891 3722 
Q 769 4003 388 4659 
L 791 4659 
Q 1378 3875 1659 3084 
Q 1900 2403 1900 1659 
Q 1900 816 1576 28 
Q 1253 -759 791 -1347 
z
" transform="scale(0.015625)"/>
       </defs>
       <use xlink:href="#ArialMT-52"/>
       <use xlink:href="#ArialMT-6f" x="72.216797"/>
       <use xlink:href="#ArialMT-63" x="127.832031"/>
       <use xlink:href="#ArialMT-68" x="177.832031"/>
       <use xlink:href="#ArialMT-65" x="233.447266"/>
       <use xlink:href="#ArialMT-73" x="289.0625"/>
       <use xlink:href="#ArialMT-74" x="339.0625"/>
       <use xlink:href="#ArialMT-65" x="366.845703"/>
       <use xlink:href="#ArialMT-72" x="422.460938"/>
       <use xlink:href="#ArialMT-2c" x="450.261719"/>
       <use xlink:href="#ArialMT-20" x="478.044922"/>
       <use xlink:href="#ArialMT-4e" x="505.828125"/>
       <use xlink:href="#ArialMT-59" x="578.044922"/>
       <use xlink:href="#ArialMT-20" x="642.994141"/>
       <use xlink:href="#ArialMT-20" x="670.777344"/>
       <use xlink:href="#ArialMT-28" x="698.560547"/>
       <use xlink:href="#ArialMT-6f" x="731.861328"/>
       <use xlink:href="#ArialMT-72" x="787.476562"/>
       <use xlink:href="#ArialMT-20" x="820.777344"/>
       <use xlink:href="#ArialMT-73" x="848.560547"/>
       <use xlink:href="#ArialMT-75" x="898.560547"/>
       <use xlink:href="#ArialMT-72" x="954.175781"/>
       <use xlink:href="#ArialMT-72" x="987.476562"/>
       <use xlink:href="#ArialMT-6f" x="1020.777344"/>
       <use xlink:href="#ArialMT-75" x="1076.392578"/>
       <use xlink:href="#ArialMT-6e" x="1132.007812"/>
       <use xlink:href="#ArialMT-64" x="1187.623047"/>
       <use xlink:href="#ArialMT-69" x="1243.238281"/>
       <use xlink:href="#ArialMT-6e" x="1265.455078"/>
       <use xlink:href="#ArialMT-67" x="1321.070312"/>
       <use xlink:href="#ArialMT-20" x="1376.685547"/>
       <use xlink:href="#ArialMT-73" x="1404.46875"/>
       <use xlink:href="#ArialMT-75" x="1454.46875"/>
       <use xlink:href="#ArialMT-62" x="1510.083984"/>
       <use xlink:href="#ArialMT-75" x="1565.699219"/>
       <use xlink:href="#ArialMT-72" x="1621.314453"/>
       <use xlink:href="#ArialMT-62" x="1654.615234"/>
       <use xlink:href="#ArialMT-73" x="1710.230469"/>
       <use xlink:href="#ArialMT-29" x="1760.230469"/>
      </g>
     </g>
    </g>
    <g id="text_5">
     <!-- Location of Employer -->
     <g style="fill: #262626" transform="translate(386.439375 417.038437)scale(0.12 -0.12)">
      <defs>
       <path id="ArialMT-4c" d="M 469 0 
L 469 4581 
L 1075 4581 
L 1075 541 
L 3331 541 
L 3331 0 
L 469 0 
z
" transform="scale(0.015625)"/>
       <path id="ArialMT-66" d="M 556 0 
L 556 2881 
L 59 2881 
L 59 3319 
L 556 3319 
L 556 3672 
Q 556 4006 616 4169 
Q 697 4388 901 4523 
Q 1106 4659 1475 4659 
Q 1713 4659 2000 4603 
L 1916 4113 
Q 1741 4144 1584 4144 
Q 1328 4144 1222 4034 
Q 1116 3925 1116 3625 
L 1116 3319 
L 1763 3319 
L 1763 2881 
L 1116 2881 
L 1116 0 
L 556 0 
z
" transform="scale(0.015625)"/>
       <path id="ArialMT-6d" d="M 422 0 
L 422 3319 
L 925 3319 
L 925 2853 
Q 1081 3097 1340 3245 
Q 1600 3394 1931 3394 
Q 2300 3394 2536 3241 
Q 2772 3088 2869 2813 
Q 3263 3394 3894 3394 
Q 4388 3394 4653 3120 
Q 4919 2847 4919 2278 
L 4919 0 
L 4359 0 
L 4359 2091 
Q 4359 2428 4304 2576 
Q 4250 2725 4106 2815 
Q 3963 2906 3769 2906 
Q 3419 2906 3187 2673 
Q 2956 2441 2956 1928 
L 2956 0 
L 2394 0 
L 2394 2156 
Q 2394 2531 2256 2718 
Q 2119 2906 1806 2906 
Q 1569 2906 1367 2781 
Q 1166 2656 1075 2415 
Q 984 2175 984 1722 
L 984 0 
L 422 0 
z
" transform="scale(0.015625)"/>
       <path id="ArialMT-70" d="M 422 -1272 
L 422 3319 
L 934 3319 
L 934 2888 
Q 1116 3141 1344 3267 
Q 1572 3394 1897 3394 
Q 2322 3394 2647 3175 
Q 2972 2956 3137 2557 
Q 3303 2159 3303 1684 
Q 3303 1175 3120 767 
Q 2938 359 2589 142 
Q 2241 -75 1856 -75 
Q 1575 -75 1351 44 
Q 1128 163 984 344 
L 984 -1272 
L 422 -1272 
z
M 931 1641 
Q 931 1000 1190 694 
Q 1450 388 1819 388 
Q 2194 388 2461 705 
Q 2728 1022 2728 1688 
Q 2728 2322 2467 2637 
Q 2206 2953 1844 2953 
Q 1484 2953 1207 2617 
Q 931 2281 931 1641 
z
" transform="scale(0.015625)"/>
      </defs>
      <use xlink:href="#ArialMT-4c"/>
      <use xlink:href="#ArialMT-6f" x="55.615234"/>
      <use xlink:href="#ArialMT-63" x="111.230469"/>
      <use xlink:href="#ArialMT-61" x="161.230469"/>
      <use xlink:href="#ArialMT-74" x="216.845703"/>
      <use xlink:href="#ArialMT-69" x="244.628906"/>
      <use xlink:href="#ArialMT-6f" x="266.845703"/>
      <use xlink:href="#ArialMT-6e" x="322.460938"/>
      <use xlink:href="#ArialMT-20" x="378.076172"/>
      <use xlink:href="#ArialMT-6f" x="405.859375"/>
      <use xlink:href="#ArialMT-66" x="461.474609"/>
      <use xlink:href="#ArialMT-20" x="489.257812"/>
      <use xlink:href="#ArialMT-45" x="517.041016"/>
      <use xlink:href="#ArialMT-6d" x="583.740234"/>
      <use xlink:href="#ArialMT-70" x="667.041016"/>
      <use xlink:href="#ArialMT-6c" x="722.65625"/>
      <use xlink:href="#ArialMT-6f" x="744.873047"/>
      <use xlink:href="#ArialMT-79" x="800.488281"/>
      <use xlink:href="#ArialMT-65" x="850.488281"/>
      <use xlink:href="#ArialMT-72" x="906.103516"/>
     </g>
    </g>
   </g>
   <g id="matplotlib.axis_2">
    <g id="ytick_1">
     <g id="line2d_1">
      <path d="M 108 373.742609 
L 777.6 373.742609 
" clip-path="url(#p552d804555)" style="fill: none; stroke: #ffffff; stroke-linecap: round"/>
     </g>
     <g id="text_6">
      <!-- 50 -->
      <g style="fill: #262626" transform="translate(86.265938 377.679406)scale(0.11 -0.11)">
       <defs>
        <path id="ArialMT-35" d="M 266 1200 
L 856 1250 
Q 922 819 1161 601 
Q 1400 384 1738 384 
Q 2144 384 2425 690 
Q 2706 997 2706 1503 
Q 2706 1984 2436 2262 
Q 2166 2541 1728 2541 
Q 1456 2541 1237 2417 
Q 1019 2294 894 2097 
L 366 2166 
L 809 4519 
L 3088 4519 
L 3088 3981 
L 1259 3981 
L 1013 2750 
Q 1425 3038 1878 3038 
Q 2478 3038 2890 2622 
Q 3303 2206 3303 1553 
Q 3303 931 2941 478 
Q 2500 -78 1738 -78 
Q 1113 -78 717 272 
Q 322 622 266 1200 
z
" transform="scale(0.015625)"/>
        <path id="ArialMT-30" d="M 266 2259 
Q 266 3072 433 3567 
Q 600 4063 929 4331 
Q 1259 4600 1759 4600 
Q 2128 4600 2406 4451 
Q 2684 4303 2865 4023 
Q 3047 3744 3150 3342 
Q 3253 2941 3253 2259 
Q 3253 1453 3087 958 
Q 2922 463 2592 192 
Q 2263 -78 1759 -78 
Q 1097 -78 719 397 
Q 266 969 266 2259 
z
M 844 2259 
Q 844 1131 1108 757 
Q 1372 384 1759 384 
Q 2147 384 2411 759 
Q 2675 1134 2675 2259 
Q 2675 3391 2411 3762 
Q 2147 4134 1753 4134 
Q 1366 4134 1134 3806 
Q 844 3388 844 2259 
z
" transform="scale(0.015625)"/>
       </defs>
       <use xlink:href="#ArialMT-35"/>
       <use xlink:href="#ArialMT-30" x="55.615234"/>
      </g>
     </g>
    </g>
    <g id="ytick_2">
     <g id="line2d_2">
      <path d="M 108 329.916522 
L 777.6 329.916522 
" clip-path="url(#p552d804555)" style="fill: none; stroke: #ffffff; stroke-linecap: round"/>
     </g>
     <g id="text_7">
      <!-- 100 -->
      <g style="fill: #262626" transform="translate(80.148906 333.853319)scale(0.11 -0.11)">
       <defs>
        <path id="ArialMT-31" d="M 2384 0 
L 1822 0 
L 1822 3584 
Q 1619 3391 1289 3197 
Q 959 3003 697 2906 
L 697 3450 
Q 1169 3672 1522 3987 
Q 1875 4303 2022 4600 
L 2384 4600 
L 2384 0 
z
" transform="scale(0.015625)"/>
       </defs>
       <use xlink:href="#ArialMT-31"/>
       <use xlink:href="#ArialMT-30" x="55.615234"/>
       <use xlink:href="#ArialMT-30" x="111.230469"/>
      </g>
     </g>
    </g>
    <g id="ytick_3">
     <g id="line2d_3">
      <path d="M 108 286.090435 
L 777.6 286.090435 
" clip-path="url(#p552d804555)" style="fill: none; stroke: #ffffff; stroke-linecap: round"/>
     </g>
     <g id="text_8">
      <!-- 150 -->
      <g style="fill: #262626" transform="translate(80.148906 290.027232)scale(0.11 -0.11)">
       <use xlink:href="#ArialMT-31"/>
       <use xlink:href="#ArialMT-35" x="55.615234"/>
       <use xlink:href="#ArialMT-30" x="111.230469"/>
      </g>
     </g>
    </g>
    <g id="ytick_4">
     <g id="line2d_4">
      <path d="M 108 242.264348 
L 777.6 242.264348 
" clip-path="url(#p552d804555)" style="fill: none; stroke: #ffffff; stroke-linecap: round"/>
     </g>
     <g id="text_9">
      <!-- 200 -->
      <g style="fill: #262626" transform="translate(80.148906 246.201145)scale(0.11 -0.11)">
       <defs>
        <path id="ArialMT-32" d="M 3222 541 
L 3222 0 
L 194 0 
Q 188 203 259 391 
Q 375 700 629 1000 
Q 884 1300 1366 1694 
Q 2113 2306 2375 2664 
Q 2638 3022 2638 3341 
Q 2638 3675 2398 3904 
Q 2159 4134 1775 4134 
Q 1369 4134 1125 3890 
Q 881 3647 878 3216 
L 300 3275 
Q 359 3922 746 4261 
Q 1134 4600 1788 4600 
Q 2447 4600 2831 4234 
Q 3216 3869 3216 3328 
Q 3216 3053 3103 2787 
Q 2991 2522 2730 2228 
Q 2469 1934 1863 1422 
Q 1356 997 1212 845 
Q 1069 694 975 541 
L 3222 541 
z
" transform="scale(0.015625)"/>
       </defs>
       <use xlink:href="#ArialMT-32"/>
       <use xlink:href="#ArialMT-30" x="55.615234"/>
       <use xlink:href="#ArialMT-30" x="111.230469"/>
      </g>
     </g>
    </g>
    <g id="ytick_5">
     <g id="line2d_5">
      <path d="M 108 198.438261 
L 777.6 198.438261 
" clip-path="url(#p552d804555)" style="fill: none; stroke: #ffffff; stroke-linecap: round"/>
     </g>
     <g id="text_10">
      <!-- 250 -->
      <g style="fill: #262626" transform="translate(80.148906 202.375058)scale(0.11 -0.11)">
       <use xlink:href="#ArialMT-32"/>
       <use xlink:href="#ArialMT-35" x="55.615234"/>
       <use xlink:href="#ArialMT-30" x="111.230469"/>
      </g>
     </g>
    </g>
    <g id="ytick_6">
     <g id="line2d_6">
      <path d="M 108 154.612174 
L 777.6 154.612174 
" clip-path="url(#p552d804555)" style="fill: none; stroke: #ffffff; stroke-linecap: round"/>
     </g>
     <g id="text_11">
      <!-- 300 -->
      <g style="fill: #262626" transform="translate(80.148906 158.548971)scale(0.11 -0.11)">
       <defs>
        <path id="ArialMT-33" d="M 269 1209 
L 831 1284 
Q 928 806 1161 595 
Q 1394 384 1728 384 
Q 2125 384 2398 659 
Q 2672 934 2672 1341 
Q 2672 1728 2419 1979 
Q 2166 2231 1775 2231 
Q 1616 2231 1378 2169 
L 1441 2663 
Q 1497 2656 1531 2656 
Q 1891 2656 2178 2843 
Q 2466 3031 2466 3422 
Q 2466 3731 2256 3934 
Q 2047 4138 1716 4138 
Q 1388 4138 1169 3931 
Q 950 3725 888 3313 
L 325 3413 
Q 428 3978 793 4289 
Q 1159 4600 1703 4600 
Q 2078 4600 2393 4439 
Q 2709 4278 2876 4000 
Q 3044 3722 3044 3409 
Q 3044 3113 2884 2869 
Q 2725 2625 2413 2481 
Q 2819 2388 3044 2092 
Q 3269 1797 3269 1353 
Q 3269 753 2831 336 
Q 2394 -81 1725 -81 
Q 1122 -81 723 278 
Q 325 638 269 1209 
z
" transform="scale(0.015625)"/>
       </defs>
       <use xlink:href="#ArialMT-33"/>
       <use xlink:href="#ArialMT-30" x="55.615234"/>
       <use xlink:href="#ArialMT-30" x="111.230469"/>
      </g>
     </g>
    </g>
    <g id="ytick_7">
     <g id="line2d_7">
      <path d="M 108 110.786087 
L 777.6 110.786087 
" clip-path="url(#p552d804555)" style="fill: none; stroke: #ffffff; stroke-linecap: round"/>
     </g>
     <g id="text_12">
      <!-- 350 -->
      <g style="fill: #262626" transform="translate(80.148906 114.722884)scale(0.11 -0.11)">
       <use xlink:href="#ArialMT-33"/>
       <use xlink:href="#ArialMT-35" x="55.615234"/>
       <use xlink:href="#ArialMT-30" x="111.230469"/>
      </g>
     </g>
    </g>
    <g id="ytick_8">
     <g id="line2d_8">
      <path d="M 108 66.96 
L 777.6 66.96 
" clip-path="url(#p552d804555)" style="fill: none; stroke: #ffffff; stroke-linecap: round"/>
     </g>
     <g id="text_13">
      <!-- 400 -->
      <g style="fill: #262626" transform="translate(80.148906 70.896797)scale(0.11 -0.11)">
       <defs>
        <path id="ArialMT-34" d="M 2069 0 
L 2069 1097 
L 81 1097 
L 81 1613 
L 2172 4581 
L 2631 4581 
L 2631 1613 
L 3250 1613 
L 3250 1097 
L 2631 1097 
L 2631 0 
L 2069 0 
z
M 2069 1613 
L 2069 3678 
L 634 1613 
L 2069 1613 
z
" transform="scale(0.015625)"/>
       </defs>
       <use xlink:href="#ArialMT-34"/>
       <use xlink:href="#ArialMT-30" x="55.615234"/>
       <use xlink:href="#ArialMT-30" x="111.230469"/>
      </g>
     </g>
    </g>
    <g id="text_14">
     <!-- Annual income (thousands) -->
     <g style="fill: #262626" transform="translate(73.623281 291.197812)rotate(-90)scale(0.12 -0.12)">
      <use xlink:href="#ArialMT-41"/>
      <use xlink:href="#ArialMT-6e" x="66.699219"/>
      <use xlink:href="#ArialMT-6e" x="122.314453"/>
      <use xlink:href="#ArialMT-75" x="177.929688"/>
      <use xlink:href="#ArialMT-61" x="233.544922"/>
      <use xlink:href="#ArialMT-6c" x="289.160156"/>
      <use xlink:href="#ArialMT-20" x="311.376953"/>
      <use xlink:href="#ArialMT-69" x="339.160156"/>
      <use xlink:href="#ArialMT-6e" x="361.376953"/>
      <use xlink:href="#ArialMT-63" x="416.992188"/>
      <use xlink:href="#ArialMT-6f" x="466.992188"/>
      <use xlink:href="#ArialMT-6d" x="522.607422"/>
      <use xlink:href="#ArialMT-65" x="605.908203"/>
      <use xlink:href="#ArialMT-20" x="661.523438"/>
      <use xlink:href="#ArialMT-28" x="689.306641"/>
      <use xlink:href="#ArialMT-74" x="722.607422"/>
      <use xlink:href="#ArialMT-68" x="750.390625"/>
      <use xlink:href="#ArialMT-6f" x="806.005859"/>
      <use xlink:href="#ArialMT-75" x="861.621094"/>
      <use xlink:href="#ArialMT-73" x="917.236328"/>
      <use xlink:href="#ArialMT-61" x="967.236328"/>
      <use xlink:href="#ArialMT-6e" x="1022.851562"/>
      <use xlink:href="#ArialMT-64" x="1078.466797"/>
      <use xlink:href="#ArialMT-73" x="1134.082031"/>
      <use xlink:href="#ArialMT-29" x="1184.082031"/>
     </g>
    </g>
   </g>
   <g id="PolyCollection_1">
    <defs>
     <path id="m538f02d88b" d="M 195.137089 -84.553043 
L 188.262911 -84.553043 
L 188.197575 -85.7483 
L 188.135997 -86.943557 
L 188.078184 -88.138814 
L 188.024116 -89.334071 
L 187.973745 -90.529328 
L 187.926995 -91.724585 
L 187.883768 -92.919842 
L 187.84394 -94.115099 
L 187.807371 -95.310356 
L 187.773901 -96.505613 
L 187.743352 -97.70087 
L 187.715536 -98.896126 
L 187.690248 -100.091383 
L 187.667276 -101.28664 
L 187.646394 -102.481897 
L 187.62737 -103.677154 
L 187.609964 -104.872411 
L 187.593926 -106.067668 
L 187.578999 -107.262925 
L 187.564921 -108.458182 
L 187.55142 -109.653439 
L 187.538218 -110.848696 
L 187.525029 -112.043953 
L 187.511563 -113.239209 
L 187.497519 -114.434466 
L 187.482593 -115.629723 
L 187.466476 -116.82498 
L 187.448854 -118.020237 
L 187.429412 -119.215494 
L 187.407835 -120.410751 
L 187.383812 -121.606008 
L 187.357037 -122.801265 
L 187.327215 -123.996522 
L 187.294063 -125.191779 
L 187.257316 -126.387036 
L 187.216733 -127.582292 
L 187.172097 -128.777549 
L 187.123223 -129.972806 
L 187.069964 -131.168063 
L 187.012209 -132.36332 
L 186.949895 -133.558577 
L 186.883001 -134.753834 
L 186.811561 -135.949091 
L 186.735657 -137.144348 
L 186.655426 -138.339605 
L 186.571058 -139.534862 
L 186.482796 -140.730119 
L 186.390933 -141.925375 
L 186.295812 -143.120632 
L 186.197822 -144.315889 
L 186.097391 -145.511146 
L 185.994983 -146.706403 
L 185.891092 -147.90166 
L 185.786237 -149.096917 
L 185.680949 -150.292174 
L 185.575773 -151.487431 
L 185.471251 -152.682688 
L 185.367922 -153.877945 
L 185.266311 -155.073202 
L 185.166925 -156.268458 
L 185.070244 -157.463715 
L 184.976717 -158.658972 
L 184.886759 -159.854229 
L 184.800745 -161.049486 
L 184.719009 -162.244743 
L 184.641843 -163.44 
L 184.569496 -164.635257 
L 184.502175 -165.830514 
L 184.440047 -167.025771 
L 184.383242 -168.221028 
L 184.331859 -169.416285 
L 184.285965 -170.611542 
L 184.245606 -171.806798 
L 184.210811 -173.002055 
L 184.181594 -174.197312 
L 184.157966 -175.392569 
L 184.139936 -176.587826 
L 184.127518 -177.783083 
L 184.120734 -178.97834 
L 184.119623 -180.173597 
L 184.124237 -181.368854 
L 184.134649 -182.564111 
L 184.150953 -183.759368 
L 184.173261 -184.954625 
L 184.201706 -186.149881 
L 184.236438 -187.345138 
L 184.27762 -188.540395 
L 184.325427 -189.735652 
L 184.380038 -190.930909 
L 184.44163 -192.126166 
L 184.510376 -193.321423 
L 184.586435 -194.51668 
L 184.669944 -195.711937 
L 184.761015 -196.907194 
L 184.859726 -198.102451 
L 184.966114 -199.297708 
L 185.080173 -200.492964 
L 185.201845 -201.688221 
L 185.331016 -202.883478 
L 198.068984 -202.883478 
L 198.068984 -202.883478 
L 198.198155 -201.688221 
L 198.319827 -200.492964 
L 198.433886 -199.297708 
L 198.540274 -198.102451 
L 198.638985 -196.907194 
L 198.730056 -195.711937 
L 198.813565 -194.51668 
L 198.889624 -193.321423 
L 198.95837 -192.126166 
L 199.019962 -190.930909 
L 199.074573 -189.735652 
L 199.12238 -188.540395 
L 199.163562 -187.345138 
L 199.198294 -186.149881 
L 199.226739 -184.954625 
L 199.249047 -183.759368 
L 199.265351 -182.564111 
L 199.275763 -181.368854 
L 199.280377 -180.173597 
L 199.279266 -178.97834 
L 199.272482 -177.783083 
L 199.260064 -176.587826 
L 199.242034 -175.392569 
L 199.218406 -174.197312 
L 199.189189 -173.002055 
L 199.154394 -171.806798 
L 199.114035 -170.611542 
L 199.068141 -169.416285 
L 199.016758 -168.221028 
L 198.959953 -167.025771 
L 198.897825 -165.830514 
L 198.830504 -164.635257 
L 198.758157 -163.44 
L 198.680991 -162.244743 
L 198.599255 -161.049486 
L 198.513241 -159.854229 
L 198.423283 -158.658972 
L 198.329756 -157.463715 
L 198.233075 -156.268458 
L 198.133689 -155.073202 
L 198.032078 -153.877945 
L 197.928749 -152.682688 
L 197.824227 -151.487431 
L 197.719051 -150.292174 
L 197.613763 -149.096917 
L 197.508908 -147.90166 
L 197.405017 -146.706403 
L 197.302609 -145.511146 
L 197.202178 -144.315889 
L 197.104188 -143.120632 
L 197.009067 -141.925375 
L 196.917204 -140.730119 
L 196.828942 -139.534862 
L 196.744574 -138.339605 
L 196.664343 -137.144348 
L 196.588439 -135.949091 
L 196.516999 -134.753834 
L 196.450105 -133.558577 
L 196.387791 -132.36332 
L 196.330036 -131.168063 
L 196.276777 -129.972806 
L 196.227903 -128.777549 
L 196.183267 -127.582292 
L 196.142684 -126.387036 
L 196.105937 -125.191779 
L 196.072785 -123.996522 
L 196.042963 -122.801265 
L 196.016188 -121.606008 
L 195.992165 -120.410751 
L 195.970588 -119.215494 
L 195.951146 -118.020237 
L 195.933524 -116.82498 
L 195.917407 -115.629723 
L 195.902481 -114.434466 
L 195.888437 -113.239209 
L 195.874971 -112.043953 
L 195.861782 -110.848696 
L 195.84858 -109.653439 
L 195.835079 -108.458182 
L 195.821001 -107.262925 
L 195.806074 -106.067668 
L 195.790036 -104.872411 
L 195.77263 -103.677154 
L 195.753606 -102.481897 
L 195.732724 -101.28664 
L 195.709752 -100.091383 
L 195.684464 -98.896126 
L 195.656648 -97.70087 
L 195.626099 -96.505613 
L 195.592629 -95.310356 
L 195.55606 -94.115099 
L 195.516232 -92.919842 
L 195.473005 -91.724585 
L 195.426255 -90.529328 
L 195.375884 -89.334071 
L 195.321816 -88.138814 
L 195.264003 -86.943557 
L 195.202425 -85.7483 
L 195.137089 -84.553043 
z
" style="stroke: #4c4c4c; stroke-width: 1.5"/>
    </defs>
    <g clip-path="url(#p552d804555)">
     <use xlink:href="#m538f02d88b" x="0" y="432" style="fill: #5875a4; stroke: #4c4c4c; stroke-width: 1.5"/>
    </g>
   </g>
   <g id="PolyCollection_2">
    <defs>
     <path id="m6b1e9224d3" d="M 362.875881 -75.787826 
L 355.324119 -75.787826 
L 355.180737 -77.204427 
L 355.039801 -78.621028 
L 354.900667 -80.037628 
L 354.762534 -81.454229 
L 354.624455 -82.87083 
L 354.485373 -84.287431 
L 354.344143 -85.704032 
L 354.199566 -87.120632 
L 354.050419 -88.537233 
L 353.895486 -89.953834 
L 353.733583 -91.370435 
L 353.563589 -92.787036 
L 353.384461 -94.203636 
L 353.195258 -95.620237 
L 352.995153 -97.036838 
L 352.783441 -98.453439 
L 352.559548 -99.87004 
L 352.323032 -101.28664 
L 352.07358 -102.703241 
L 351.811009 -104.119842 
L 351.535257 -105.536443 
L 351.246377 -106.953043 
L 350.944531 -108.369644 
L 350.629978 -109.786245 
L 350.303072 -111.202846 
L 349.964252 -112.619447 
L 349.614035 -114.036047 
L 349.253019 -115.452648 
L 348.881874 -116.869249 
L 348.501346 -118.28585 
L 348.112261 -119.702451 
L 347.715526 -121.119051 
L 347.312141 -122.535652 
L 346.903202 -123.952253 
L 346.489917 -125.368854 
L 346.073611 -126.785455 
L 345.655741 -128.202055 
L 345.237902 -129.618656 
L 344.821834 -131.035257 
L 344.409426 -132.451858 
L 344.002718 -133.868458 
L 343.603887 -135.285059 
L 343.215241 -136.70166 
L 342.839193 -138.118261 
L 342.478238 -139.534862 
L 342.134913 -140.951462 
L 341.811759 -142.368063 
L 341.511272 -143.784664 
L 341.235848 -145.201265 
L 340.987735 -146.617866 
L 340.768971 -148.034466 
L 340.581337 -149.451067 
L 340.426308 -150.867668 
L 340.305011 -152.284269 
L 340.2182 -153.70087 
L 340.166229 -155.11747 
L 340.149057 -156.534071 
L 340.166245 -157.950672 
L 340.216989 -159.367273 
L 340.300144 -160.783874 
L 340.414279 -162.200474 
L 340.557727 -163.617075 
L 340.728652 -165.033676 
L 340.92511 -166.450277 
L 341.145117 -167.866877 
L 341.386709 -169.283478 
L 341.648002 -170.700079 
L 341.927231 -172.11668 
L 342.22279 -173.533281 
L 342.533252 -174.949881 
L 342.857376 -176.366482 
L 343.194102 -177.783083 
L 343.542533 -179.199684 
L 343.901908 -180.616285 
L 344.271565 -182.032885 
L 344.6509 -183.449486 
L 345.039324 -184.866087 
L 345.436226 -186.282688 
L 345.84093 -187.699289 
L 346.252667 -189.115889 
L 346.670556 -190.53249 
L 347.093589 -191.949091 
L 347.520635 -193.365692 
L 347.950448 -194.782292 
L 348.381684 -196.198893 
L 348.812933 -197.615494 
L 349.242751 -199.032095 
L 349.669696 -200.448696 
L 350.092368 -201.865296 
L 350.509441 -203.281897 
L 350.919701 -204.698498 
L 351.322068 -206.115099 
L 351.715621 -207.5317 
L 352.0996 -208.9483 
L 352.473421 -210.364901 
L 352.836658 -211.781502 
L 353.189039 -213.198103 
L 353.530426 -214.614704 
L 353.860788 -216.031304 
L 364.339212 -216.031304 
L 364.339212 -216.031304 
L 364.669574 -214.614704 
L 365.010961 -213.198103 
L 365.363342 -211.781502 
L 365.726579 -210.364901 
L 366.1004 -208.9483 
L 366.484379 -207.5317 
L 366.877932 -206.115099 
L 367.280299 -204.698498 
L 367.690559 -203.281897 
L 368.107632 -201.865296 
L 368.530304 -200.448696 
L 368.957249 -199.032095 
L 369.387067 -197.615494 
L 369.818316 -196.198893 
L 370.249552 -194.782292 
L 370.679365 -193.365692 
L 371.106411 -191.949091 
L 371.529444 -190.53249 
L 371.947333 -189.115889 
L 372.35907 -187.699289 
L 372.763774 -186.282688 
L 373.160676 -184.866087 
L 373.5491 -183.449486 
L 373.928435 -182.032885 
L 374.298092 -180.616285 
L 374.657467 -179.199684 
L 375.005898 -177.783083 
L 375.342624 -176.366482 
L 375.666748 -174.949881 
L 375.97721 -173.533281 
L 376.272769 -172.11668 
L 376.551998 -170.700079 
L 376.813291 -169.283478 
L 377.054883 -167.866877 
L 377.27489 -166.450277 
L 377.471348 -165.033676 
L 377.642273 -163.617075 
L 377.785721 -162.200474 
L 377.899856 -160.783874 
L 377.983011 -159.367273 
L 378.033755 -157.950672 
L 378.050943 -156.534071 
L 378.033771 -155.11747 
L 377.9818 -153.70087 
L 377.894989 -152.284269 
L 377.773692 -150.867668 
L 377.618663 -149.451067 
L 377.431029 -148.034466 
L 377.212265 -146.617866 
L 376.964152 -145.201265 
L 376.688728 -143.784664 
L 376.388241 -142.368063 
L 376.065087 -140.951462 
L 375.721762 -139.534862 
L 375.360807 -138.118261 
L 374.984759 -136.70166 
L 374.596113 -135.285059 
L 374.197282 -133.868458 
L 373.790574 -132.451858 
L 373.378166 -131.035257 
L 372.962098 -129.618656 
L 372.544259 -128.202055 
L 372.126389 -126.785455 
L 371.710083 -125.368854 
L 371.296798 -123.952253 
L 370.887859 -122.535652 
L 370.484474 -121.119051 
L 370.087739 -119.702451 
L 369.698654 -118.28585 
L 369.318126 -116.869249 
L 368.946981 -115.452648 
L 368.585965 -114.036047 
L 368.235748 -112.619447 
L 367.896928 -111.202846 
L 367.570022 -109.786245 
L 367.255469 -108.369644 
L 366.953623 -106.953043 
L 366.664743 -105.536443 
L 366.388991 -104.119842 
L 366.12642 -102.703241 
L 365.876968 -101.28664 
L 365.640452 -99.87004 
L 365.416559 -98.453439 
L 365.204847 -97.036838 
L 365.004742 -95.620237 
L 364.815539 -94.203636 
L 364.636411 -92.787036 
L 364.466417 -91.370435 
L 364.304514 -89.953834 
L 364.149581 -88.537233 
L 364.000434 -87.120632 
L 363.855857 -85.704032 
L 363.714627 -84.287431 
L 363.575545 -82.87083 
L 363.437466 -81.454229 
L 363.299333 -80.037628 
L 363.160199 -78.621028 
L 363.019263 -77.204427 
L 362.875881 -75.787826 
z
" style="stroke: #4c4c4c; stroke-width: 1.5"/>
    </defs>
    <g clip-path="url(#p552d804555)">
     <use xlink:href="#m6b1e9224d3" x="0" y="432" style="fill: #cc8963; stroke: #4c4c4c; stroke-width: 1.5"/>
    </g>
   </g>
   <g id="PolyCollection_3">
    <defs>
     <path id="m4e112b57f3" d="M 543.433485 -93.318261 
L 509.566515 -93.318261 
L 507.363039 -96.062925 
L 505.02512 -98.807589 
L 502.567676 -101.552253 
L 500.008302 -104.296917 
L 497.366734 -107.041581 
L 494.664226 -109.786245 
L 491.922894 -112.530909 
L 489.165101 -115.275573 
L 486.412933 -118.020237 
L 483.687825 -120.764901 
L 481.010372 -123.509565 
L 478.400344 -126.254229 
L 475.876886 -128.998893 
L 473.458852 -131.743557 
L 471.165231 -134.488221 
L 469.015543 -137.232885 
L 467.030151 -139.977549 
L 465.230363 -142.722213 
L 463.63828 -145.466877 
L 462.276337 -148.211542 
L 461.166528 -150.956206 
L 460.32936 -153.70087 
L 459.782611 -156.445534 
L 459.54 -159.190198 
L 459.609909 -161.934862 
L 459.994291 -164.679526 
L 460.6879 -167.42419 
L 461.677945 -170.168854 
L 462.944239 -172.913518 
L 464.459853 -175.658182 
L 466.192248 -178.402846 
L 468.104797 -181.14751 
L 470.158578 -183.892174 
L 472.314286 -186.636838 
L 474.534097 -189.381502 
L 476.783348 -192.126166 
L 479.031877 -194.87083 
L 481.254945 -197.615494 
L 483.433687 -200.360158 
L 485.555075 -203.104822 
L 487.611452 -205.849486 
L 489.5997 -208.59415 
L 491.520165 -211.338814 
L 493.375453 -214.083478 
L 495.169233 -216.828142 
L 496.905146 -219.572806 
L 498.585932 -222.31747 
L 500.212829 -225.062134 
L 501.785283 -227.806798 
L 503.300951 -230.551462 
L 504.75599 -233.296126 
L 506.14555 -236.040791 
L 507.464419 -238.785455 
L 508.707714 -241.530119 
L 509.87156 -244.274783 
L 510.953667 -247.019447 
L 511.953757 -249.764111 
L 512.873791 -252.508775 
L 513.717993 -255.253439 
L 514.492663 -257.998103 
L 515.205805 -260.742767 
L 515.866623 -263.487431 
L 516.484911 -266.232095 
L 517.070423 -268.976759 
L 517.632249 -271.721423 
L 518.178274 -274.466087 
L 518.71475 -277.210751 
L 519.246001 -279.955415 
L 519.774294 -282.700079 
L 520.299857 -285.444743 
L 520.821047 -288.189407 
L 521.334623 -290.934071 
L 521.836112 -293.678735 
L 522.320222 -296.423399 
L 522.781259 -299.168063 
L 523.213535 -301.912727 
L 523.611721 -304.657391 
L 523.971144 -307.402055 
L 524.288003 -310.146719 
L 524.55952 -312.891383 
L 524.784018 -315.636047 
L 524.960939 -318.380711 
L 525.090828 -321.125375 
L 525.175275 -323.87004 
L 525.216842 -326.614704 
L 525.218982 -329.359368 
L 525.185944 -332.104032 
L 525.122676 -334.848696 
L 525.034714 -337.59336 
L 524.928063 -340.338024 
L 524.809053 -343.082688 
L 524.68418 -345.827352 
L 524.559916 -348.572016 
L 524.442514 -351.31668 
L 524.33779 -354.061344 
L 524.250912 -356.806008 
L 524.186202 -359.550672 
L 524.146969 -362.295336 
L 524.135383 -365.04 
L 528.864617 -365.04 
L 528.864617 -365.04 
L 528.853031 -362.295336 
L 528.813798 -359.550672 
L 528.749088 -356.806008 
L 528.66221 -354.061344 
L 528.557486 -351.31668 
L 528.440084 -348.572016 
L 528.31582 -345.827352 
L 528.190947 -343.082688 
L 528.071937 -340.338024 
L 527.965286 -337.59336 
L 527.877324 -334.848696 
L 527.814056 -332.104032 
L 527.781018 -329.359368 
L 527.783158 -326.614704 
L 527.824725 -323.87004 
L 527.909172 -321.125375 
L 528.039061 -318.380711 
L 528.215982 -315.636047 
L 528.44048 -312.891383 
L 528.711997 -310.146719 
L 529.028856 -307.402055 
L 529.388279 -304.657391 
L 529.786465 -301.912727 
L 530.218741 -299.168063 
L 530.679778 -296.423399 
L 531.163888 -293.678735 
L 531.665377 -290.934071 
L 532.178953 -288.189407 
L 532.700143 -285.444743 
L 533.225706 -282.700079 
L 533.753999 -279.955415 
L 534.28525 -277.210751 
L 534.821726 -274.466087 
L 535.367751 -271.721423 
L 535.929577 -268.976759 
L 536.515089 -266.232095 
L 537.133377 -263.487431 
L 537.794195 -260.742767 
L 538.507337 -257.998103 
L 539.282007 -255.253439 
L 540.126209 -252.508775 
L 541.046243 -249.764111 
L 542.046333 -247.019447 
L 543.12844 -244.274783 
L 544.292286 -241.530119 
L 545.535581 -238.785455 
L 546.85445 -236.040791 
L 548.24401 -233.296126 
L 549.699049 -230.551462 
L 551.214717 -227.806798 
L 552.787171 -225.062134 
L 554.414068 -222.31747 
L 556.094854 -219.572806 
L 557.830767 -216.828142 
L 559.624547 -214.083478 
L 561.479835 -211.338814 
L 563.4003 -208.59415 
L 565.388548 -205.849486 
L 567.444925 -203.104822 
L 569.566313 -200.360158 
L 571.745055 -197.615494 
L 573.968123 -194.87083 
L 576.216652 -192.126166 
L 578.465903 -189.381502 
L 580.685714 -186.636838 
L 582.841422 -183.892174 
L 584.895203 -181.14751 
L 586.807752 -178.402846 
L 588.540147 -175.658182 
L 590.055761 -172.913518 
L 591.322055 -170.168854 
L 592.3121 -167.42419 
L 593.005709 -164.679526 
L 593.390091 -161.934862 
L 593.46 -159.190198 
L 593.217389 -156.445534 
L 592.67064 -153.70087 
L 591.833472 -150.956206 
L 590.723663 -148.211542 
L 589.36172 -145.466877 
L 587.769637 -142.722213 
L 585.969849 -139.977549 
L 583.984457 -137.232885 
L 581.834769 -134.488221 
L 579.541148 -131.743557 
L 577.123114 -128.998893 
L 574.599656 -126.254229 
L 571.989628 -123.509565 
L 569.312175 -120.764901 
L 566.587067 -118.020237 
L 563.834899 -115.275573 
L 561.077106 -112.530909 
L 558.335774 -109.786245 
L 555.633266 -107.041581 
L 552.991698 -104.296917 
L 550.432324 -101.552253 
L 547.97488 -98.807589 
L 545.636961 -96.062925 
L 543.433485 -93.318261 
z
" style="stroke: #4c4c4c; stroke-width: 1.5"/>
    </defs>
    <g clip-path="url(#p552d804555)">
     <use xlink:href="#m4e112b57f3" x="0" y="432" style="fill: #5f9e6e; stroke: #4c4c4c; stroke-width: 1.5"/>
    </g>
   </g>
   <g id="PolyCollection_4">
    <defs>
     <path id="m4b5e1fb60c" d="M 712.471592 -62.64 
L 675.328408 -62.64 
L 674.370502 -63.746719 
L 673.424291 -64.853439 
L 672.494865 -65.960158 
L 671.587195 -67.066877 
L 670.706073 -68.173597 
L 669.856047 -69.280316 
L 669.04137 -70.387036 
L 668.26595 -71.493755 
L 667.533299 -72.600474 
L 666.846505 -73.707194 
L 666.20819 -74.813913 
L 665.620491 -75.920632 
L 665.085038 -77.027352 
L 664.602944 -78.134071 
L 664.174792 -79.240791 
L 663.80064 -80.34751 
L 663.480018 -81.454229 
L 663.21194 -82.560949 
L 662.994909 -83.667668 
L 662.826941 -84.774387 
L 662.705576 -85.881107 
L 662.627905 -86.987826 
L 662.590597 -88.094545 
L 662.589923 -89.201265 
L 662.621797 -90.307984 
L 662.681808 -91.414704 
L 662.765266 -92.521423 
L 662.867245 -93.628142 
L 662.982633 -94.734862 
L 663.106191 -95.841581 
L 663.232607 -96.9483 
L 663.356558 -98.05502 
L 663.472778 -99.161739 
L 663.576121 -100.268458 
L 663.661633 -101.375178 
L 663.724619 -102.481897 
L 663.760712 -103.588617 
L 663.765937 -104.695336 
L 663.736774 -105.802055 
L 663.670221 -106.908775 
L 663.56384 -108.015494 
L 663.415807 -109.122213 
L 663.224953 -110.228933 
L 662.990787 -111.335652 
L 662.713523 -112.442372 
L 662.39409 -113.549091 
L 662.034129 -114.65581 
L 661.635988 -115.76253 
L 661.2027 -116.869249 
L 660.737953 -117.975968 
L 660.246048 -119.082688 
L 659.731854 -120.189407 
L 659.20074 -121.296126 
L 658.658518 -122.402846 
L 658.111357 -123.509565 
L 657.565712 -124.616285 
L 657.028229 -125.723004 
L 656.505655 -126.829723 
L 656.004747 -127.936443 
L 655.532176 -129.043162 
L 655.094427 -130.149881 
L 654.697715 -131.256601 
L 654.347886 -132.36332 
L 654.050341 -133.47004 
L 653.809957 -134.576759 
L 653.631018 -135.683478 
L 653.517159 -136.790198 
L 653.471321 -137.896917 
L 653.495719 -139.003636 
L 653.591821 -140.110356 
L 653.760344 -141.217075 
L 654.001262 -142.323794 
L 654.313831 -143.430514 
L 654.696622 -144.537233 
L 655.147569 -145.643953 
L 655.664029 -146.750672 
L 656.24285 -147.857391 
L 656.88044 -148.964111 
L 657.572852 -150.07083 
L 658.315861 -151.177549 
L 659.105046 -152.284269 
L 659.935869 -153.390988 
L 660.803749 -154.497708 
L 661.704133 -155.604427 
L 662.632551 -156.711146 
L 663.584672 -157.817866 
L 664.556344 -158.924585 
L 665.543623 -160.031304 
L 666.542797 -161.138024 
L 667.550394 -162.244743 
L 668.563182 -163.351462 
L 669.578165 -164.458182 
L 670.592568 -165.564901 
L 671.603817 -166.671621 
L 672.609517 -167.77834 
L 673.607427 -168.885059 
L 674.595435 -169.991779 
L 675.571535 -171.098498 
L 676.533805 -172.205217 
L 711.266195 -172.205217 
L 711.266195 -172.205217 
L 712.228465 -171.098498 
L 713.204565 -169.991779 
L 714.192573 -168.885059 
L 715.190483 -167.77834 
L 716.196183 -166.671621 
L 717.207432 -165.564901 
L 718.221835 -164.458182 
L 719.236818 -163.351462 
L 720.249606 -162.244743 
L 721.257203 -161.138024 
L 722.256377 -160.031304 
L 723.243656 -158.924585 
L 724.215328 -157.817866 
L 725.167449 -156.711146 
L 726.095867 -155.604427 
L 726.996251 -154.497708 
L 727.864131 -153.390988 
L 728.694954 -152.284269 
L 729.484139 -151.177549 
L 730.227148 -150.07083 
L 730.91956 -148.964111 
L 731.55715 -147.857391 
L 732.135971 -146.750672 
L 732.652431 -145.643953 
L 733.103378 -144.537233 
L 733.486169 -143.430514 
L 733.798738 -142.323794 
L 734.039656 -141.217075 
L 734.208179 -140.110356 
L 734.304281 -139.003636 
L 734.328679 -137.896917 
L 734.282841 -136.790198 
L 734.168982 -135.683478 
L 733.990043 -134.576759 
L 733.749659 -133.47004 
L 733.452114 -132.36332 
L 733.102285 -131.256601 
L 732.705573 -130.149881 
L 732.267824 -129.043162 
L 731.795253 -127.936443 
L 731.294345 -126.829723 
L 730.771771 -125.723004 
L 730.234288 -124.616285 
L 729.688643 -123.509565 
L 729.141482 -122.402846 
L 728.59926 -121.296126 
L 728.068146 -120.189407 
L 727.553952 -119.082688 
L 727.062047 -117.975968 
L 726.5973 -116.869249 
L 726.164012 -115.76253 
L 725.765871 -114.65581 
L 725.40591 -113.549091 
L 725.086477 -112.442372 
L 724.809213 -111.335652 
L 724.575047 -110.228933 
L 724.384193 -109.122213 
L 724.23616 -108.015494 
L 724.129779 -106.908775 
L 724.063226 -105.802055 
L 724.034063 -104.695336 
L 724.039288 -103.588617 
L 724.075381 -102.481897 
L 724.138367 -101.375178 
L 724.223879 -100.268458 
L 724.327222 -99.161739 
L 724.443442 -98.05502 
L 724.567393 -96.9483 
L 724.693809 -95.841581 
L 724.817367 -94.734862 
L 724.932755 -93.628142 
L 725.034734 -92.521423 
L 725.118192 -91.414704 
L 725.178203 -90.307984 
L 725.210077 -89.201265 
L 725.209403 -88.094545 
L 725.172095 -86.987826 
L 725.094424 -85.881107 
L 724.973059 -84.774387 
L 724.805091 -83.667668 
L 724.58806 -82.560949 
L 724.319982 -81.454229 
L 723.99936 -80.34751 
L 723.625208 -79.240791 
L 723.197056 -78.134071 
L 722.714962 -77.027352 
L 722.179509 -75.920632 
L 721.59181 -74.813913 
L 720.953495 -73.707194 
L 720.266701 -72.600474 
L 719.53405 -71.493755 
L 718.75863 -70.387036 
L 717.943953 -69.280316 
L 717.093927 -68.173597 
L 716.212805 -67.066877 
L 715.305135 -65.960158 
L 714.375709 -64.853439 
L 713.429498 -63.746719 
L 712.471592 -62.64 
z
" style="stroke: #4c4c4c; stroke-width: 1.5"/>
    </defs>
    <g clip-path="url(#p552d804555)">
     <use xlink:href="#m4b5e1fb60c" x="0" y="432" style="fill: #b55d60; stroke: #4c4c4c; stroke-width: 1.5"/>
    </g>
   </g>
   <g id="line2d_9">
    <path d="M 187.168991 301.429565 
L 196.231009 301.429565 
" clip-path="url(#p552d804555)" style="fill: none; stroke-dasharray: 3.375,3.375; stroke-dashoffset: 0; stroke: #4c4c4c; stroke-width: 1.5"/>
   </g>
   <g id="line2d_10">
    <path d="M 184.712424 268.56 
L 198.687576 268.56 
" clip-path="url(#p552d804555)" style="fill: none; stroke-dasharray: 6.75,6.75; stroke-dashoffset: 0; stroke: #4c4c4c; stroke-width: 1.5"/>
   </g>
   <g id="line2d_11">
    <path d="M 184.399173 242.264348 
L 199.000827 242.264348 
" clip-path="url(#p552d804555)" style="fill: none; stroke-dasharray: 3.375,3.375; stroke-dashoffset: 0; stroke: #4c4c4c; stroke-width: 1.5"/>
   </g>
   <g id="line2d_12">
    <path d="M 344.556332 299.238261 
L 373.643668 299.238261 
" clip-path="url(#p552d804555)" style="fill: none; stroke-dasharray: 3.375,3.375; stroke-dashoffset: 0; stroke: #4c4c4c; stroke-width: 1.5"/>
   </g>
   <g id="line2d_13">
    <path d="M 340.355567 276.448696 
L 377.844433 276.448696 
" clip-path="url(#p552d804555)" style="fill: none; stroke-dasharray: 6.75,6.75; stroke-dashoffset: 0; stroke: #4c4c4c; stroke-width: 1.5"/>
   </g>
   <g id="line2d_14">
    <path d="M 343.353161 254.316522 
L 374.846839 254.316522 
" clip-path="url(#p552d804555)" style="fill: none; stroke-dasharray: 3.375,3.375; stroke-dashoffset: 0; stroke: #4c4c4c; stroke-width: 1.5"/>
   </g>
   <g id="line2d_15">
    <path d="M 467.62485 292.226087 
L 585.37515 292.226087 
" clip-path="url(#p552d804555)" style="fill: none; stroke-dasharray: 3.375,3.375; stroke-dashoffset: 0; stroke: #4c4c4c; stroke-width: 1.5"/>
   </g>
   <g id="line2d_16">
    <path d="M 461.346021 265.053913 
L 591.653979 265.053913 
" clip-path="url(#p552d804555)" style="fill: none; stroke-dasharray: 6.75,6.75; stroke-dashoffset: 0; stroke: #4c4c4c; stroke-width: 1.5"/>
   </g>
   <g id="line2d_17">
    <path d="M 479.506558 237.881739 
L 573.493442 237.881739 
" clip-path="url(#p552d804555)" style="fill: none; stroke-dasharray: 3.375,3.375; stroke-dashoffset: 0; stroke: #4c4c4c; stroke-width: 1.5"/>
   </g>
   <g id="line2d_18">
    <path d="M 663.177572 338.681739 
L 724.622428 338.681739 
" clip-path="url(#p552d804555)" style="fill: none; stroke-dasharray: 3.375,3.375; stroke-dashoffset: 0; stroke: #4c4c4c; stroke-width: 1.5"/>
   </g>
   <g id="line2d_19">
    <path d="M 658.469244 308.003478 
L 729.330756 308.003478 
" clip-path="url(#p552d804555)" style="fill: none; stroke-dasharray: 6.75,6.75; stroke-dashoffset: 0; stroke: #4c4c4c; stroke-width: 1.5"/>
   </g>
   <g id="line2d_20">
    <path d="M 655.088655 287.405217 
L 732.711345 287.405217 
" clip-path="url(#p552d804555)" style="fill: none; stroke-dasharray: 3.375,3.375; stroke-dashoffset: 0; stroke: #4c4c4c; stroke-width: 1.5"/>
   </g>
   <g id="patch_3">
    <path d="M 108 384.48 
L 108 51.84 
" style="fill: none; stroke: #ffffff; stroke-width: 1.25; stroke-linejoin: miter; stroke-linecap: square"/>
   </g>
   <g id="patch_4">
    <path d="M 777.6 384.48 
L 777.6 51.84 
" style="fill: none; stroke: #ffffff; stroke-width: 1.25; stroke-linejoin: miter; stroke-linecap: square"/>
   </g>
   <g id="patch_5">
    <path d="M 108 384.48 
L 777.6 384.48 
" style="fill: none; stroke: #ffffff; stroke-width: 1.25; stroke-linejoin: miter; stroke-linecap: square"/>
   </g>
   <g id="patch_6">
    <path d="M 108 51.84 
L 777.6 51.84 
" style="fill: none; stroke: #ffffff; stroke-width: 1.25; stroke-linejoin: miter; stroke-linecap: square"/>
   </g>
   <g id="text_15">
    <!-- Compensation by Location of Employer -->
    <g style="fill: #262626" transform="translate(338.082188 45.84)scale(0.12 -0.12)">
     <use xlink:href="#ArialMT-43"/>
     <use xlink:href="#ArialMT-6f" x="72.216797"/>
     <use xlink:href="#ArialMT-6d" x="127.832031"/>
     <use xlink:href="#ArialMT-70" x="211.132812"/>
     <use xlink:href="#ArialMT-65" x="266.748047"/>
     <use xlink:href="#ArialMT-6e" x="322.363281"/>
     <use xlink:href="#ArialMT-73" x="377.978516"/>
     <use xlink:href="#ArialMT-61" x="427.978516"/>
     <use xlink:href="#ArialMT-74" x="483.59375"/>
     <use xlink:href="#ArialMT-69" x="511.376953"/>
     <use xlink:href="#ArialMT-6f" x="533.59375"/>
     <use xlink:href="#ArialMT-6e" x="589.208984"/>
     <use xlink:href="#ArialMT-20" x="644.824219"/>
     <use xlink:href="#ArialMT-62" x="672.607422"/>
     <use xlink:href="#ArialMT-79" x="728.222656"/>
     <use xlink:href="#ArialMT-20" x="778.222656"/>
     <use xlink:href="#ArialMT-4c" x="806.005859"/>
     <use xlink:href="#ArialMT-6f" x="861.621094"/>
     <use xlink:href="#ArialMT-63" x="917.236328"/>
     <use xlink:href="#ArialMT-61" x="967.236328"/>
     <use xlink:href="#ArialMT-74" x="1022.851562"/>
     <use xlink:href="#ArialMT-69" x="1050.634766"/>
     <use xlink:href="#ArialMT-6f" x="1072.851562"/>
     <use xlink:href="#ArialMT-6e" x="1128.466797"/>
     <use xlink:href="#ArialMT-20" x="1184.082031"/>
     <use xlink:href="#ArialMT-6f" x="1211.865234"/>
     <use xlink:href="#ArialMT-66" x="1267.480469"/>
     <use xlink:href="#ArialMT-20" x="1295.263672"/>
     <use xlink:href="#ArialMT-45" x="1323.046875"/>
     <use xlink:href="#ArialMT-6d" x="1389.746094"/>
     <use xlink:href="#ArialMT-70" x="1473.046875"/>
     <use xlink:href="#ArialMT-6c" x="1528.662109"/>
     <use xlink:href="#ArialMT-6f" x="1550.878906"/>
     <use xlink:href="#ArialMT-79" x="1606.494141"/>
     <use xlink:href="#ArialMT-65" x="1656.494141"/>
     <use xlink:href="#ArialMT-72" x="1712.109375"/>
    </g>
   </g>
  </g>
 </g>
 <defs>
  <clipPath id="p552d804555">
   <rect x="108" y="51.84" width="669.6" height="332.64"/>
  </clipPath>
 </defs>
</svg>
