<?xml version="1.0" encoding="utf-8" standalone="no"?>
<!DOCTYPE svg PUBLIC "-//W3C//DTD SVG 1.1//EN"
  "http://www.w3.org/Graphics/SVG/1.1/DTD/svg11.dtd">
<svg xmlns:xlink="http://www.w3.org/1999/xlink" width="864pt" height="432pt" viewBox="0 0 864 432" xmlns="http://www.w3.org/2000/svg" version="1.1">
 <metadata>
  <rdf:RDF xmlns:dc="http://purl.org/dc/elements/1.1/" xmlns:cc="http://creativecommons.org/ns#" xmlns:rdf="http://www.w3.org/1999/02/22-rdf-syntax-ns#">
   <cc:Work>
    <dc:type rdf:resource="http://purl.org/dc/dcmitype/StillImage"/>
    <dc:date>2023-02-27T11:47:14.937344</dc:date>
    <dc:format>image/svg+xml</dc:format>
    <dc:creator>
     <cc:Agent>
      <dc:title>Matplotlib v3.5.2, https://matplotlib.org/</dc:title>
     </cc:Agent>
    </dc:creator>
   </cc:Work>
  </rdf:RDF>
 </metadata>
 <defs>
  <style type="text/css">*{stroke-linejoin: round; stroke-linecap: butt}</style>
 </defs>
 <g id="figure_1">
  <g id="patch_1">
   <path d="M 0 432 
L 864 432 
L 864 0 
L 0 0 
z
" style="fill: #ffffff"/>
  </g>
  <g id="axes_1">
   <g id="patch_2">
    <path d="M 108 384.48 
L 777.6 384.48 
L 777.6 51.84 
L 108 51.84 
z
" style="fill: #eaeaf2"/>
   </g>
   <g id="matplotlib.axis_1">
    <g id="xtick_1">
     <g id="text_1">
      <!-- 2019 -->
      <g style="fill: #262626" transform="translate(179.465937 401.853594)scale(0.11 -0.11)">
       <defs>
        <path id="ArialMT-32" d="M 3222 541 
L 3222 0 
L 194 0 
Q 188 203 259 391 
Q 375 700 629 1000 
Q 884 1300 1366 1694 
Q 2113 2306 2375 2664 
Q 2638 3022 2638 3341 
Q 2638 3675 2398 3904 
Q 2159 4134 1775 4134 
Q 1369 4134 1125 3890 
Q 881 3647 878 3216 
L 300 3275 
Q 359 3922 746 4261 
Q 1134 4600 1788 4600 
Q 2447 4600 2831 4234 
Q 3216 3869 3216 3328 
Q 3216 3053 3103 2787 
Q 2991 2522 2730 2228 
Q 2469 1934 1863 1422 
Q 1356 997 1212 845 
Q 1069 694 975 541 
L 3222 541 
z
" transform="scale(0.015625)"/>
        <path id="ArialMT-30" d="M 266 2259 
Q 266 3072 433 3567 
Q 600 4063 929 4331 
Q 1259 4600 1759 4600 
Q 2128 4600 2406 4451 
Q 2684 4303 2865 4023 
Q 3047 3744 3150 3342 
Q 3253 2941 3253 2259 
Q 3253 1453 3087 958 
Q 2922 463 2592 192 
Q 2263 -78 1759 -78 
Q 1097 -78 719 397 
Q 266 969 266 2259 
z
M 844 2259 
Q 844 1131 1108 757 
Q 1372 384 1759 384 
Q 2147 384 2411 759 
Q 2675 1134 2675 2259 
Q 2675 3391 2411 3762 
Q 2147 4134 1753 4134 
Q 1366 4134 1134 3806 
Q 844 3388 844 2259 
z
" transform="scale(0.015625)"/>
        <path id="ArialMT-31" d="M 2384 0 
L 1822 0 
L 1822 3584 
Q 1619 3391 1289 3197 
Q 959 3003 697 2906 
L 697 3450 
Q 1169 3672 1522 3987 
Q 1875 4303 2022 4600 
L 2384 4600 
L 2384 0 
z
" transform="scale(0.015625)"/>
        <path id="ArialMT-39" d="M 350 1059 
L 891 1109 
Q 959 728 1153 556 
Q 1347 384 1650 384 
Q 1909 384 2104 503 
Q 2300 622 2425 820 
Q 2550 1019 2634 1356 
Q 2719 1694 2719 2044 
Q 2719 2081 2716 2156 
Q 2547 1888 2255 1720 
Q 1963 1553 1622 1553 
Q 1053 1553 659 1965 
Q 266 2378 266 3053 
Q 266 3750 677 4175 
Q 1088 4600 1706 4600 
Q 2153 4600 2523 4359 
Q 2894 4119 3086 3673 
Q 3278 3228 3278 2384 
Q 3278 1506 3087 986 
Q 2897 466 2520 194 
Q 2144 -78 1638 -78 
Q 1100 -78 759 220 
Q 419 519 350 1059 
z
M 2653 3081 
Q 2653 3566 2395 3850 
Q 2138 4134 1775 4134 
Q 1400 4134 1122 3828 
Q 844 3522 844 3034 
Q 844 2597 1108 2323 
Q 1372 2050 1759 2050 
Q 2150 2050 2401 2323 
Q 2653 2597 2653 3081 
z
" transform="scale(0.015625)"/>
       </defs>
       <use xlink:href="#ArialMT-32"/>
       <use xlink:href="#ArialMT-30" x="55.615234"/>
       <use xlink:href="#ArialMT-31" x="111.230469"/>
       <use xlink:href="#ArialMT-39" x="166.845703"/>
      </g>
     </g>
    </g>
    <g id="xtick_2">
     <g id="text_2">
      <!-- 2020 -->
      <g style="fill: #262626" transform="translate(346.865938 401.853594)scale(0.11 -0.11)">
       <use xlink:href="#ArialMT-32"/>
       <use xlink:href="#ArialMT-30" x="55.615234"/>
       <use xlink:href="#ArialMT-32" x="111.230469"/>
       <use xlink:href="#ArialMT-30" x="166.845703"/>
      </g>
     </g>
    </g>
    <g id="xtick_3">
     <g id="text_3">
      <!-- 2021 -->
      <g style="fill: #262626" transform="translate(514.265937 401.853594)scale(0.11 -0.11)">
       <use xlink:href="#ArialMT-32"/>
       <use xlink:href="#ArialMT-30" x="55.615234"/>
       <use xlink:href="#ArialMT-32" x="111.230469"/>
       <use xlink:href="#ArialMT-31" x="166.845703"/>
      </g>
     </g>
    </g>
    <g id="xtick_4">
     <g id="text_4">
      <!-- 2022 -->
      <g style="fill: #262626" transform="translate(681.665938 401.853594)scale(0.11 -0.11)">
       <use xlink:href="#ArialMT-32"/>
       <use xlink:href="#ArialMT-30" x="55.615234"/>
       <use xlink:href="#ArialMT-32" x="111.230469"/>
       <use xlink:href="#ArialMT-32" x="166.845703"/>
      </g>
     </g>
    </g>
    <g id="text_5">
     <!-- Year -->
     <g style="fill: #262626" transform="translate(430.674375 416.629219)scale(0.12 -0.12)">
      <defs>
       <path id="ArialMT-59" d="M 1784 0 
L 1784 1941 
L 19 4581 
L 756 4581 
L 1659 3200 
Q 1909 2813 2125 2425 
Q 2331 2784 2625 3234 
L 3513 4581 
L 4219 4581 
L 2391 1941 
L 2391 0 
L 1784 0 
z
" transform="scale(0.015625)"/>
       <path id="ArialMT-65" d="M 2694 1069 
L 3275 997 
Q 3138 488 2766 206 
Q 2394 -75 1816 -75 
Q 1088 -75 661 373 
Q 234 822 234 1631 
Q 234 2469 665 2931 
Q 1097 3394 1784 3394 
Q 2450 3394 2872 2941 
Q 3294 2488 3294 1666 
Q 3294 1616 3291 1516 
L 816 1516 
Q 847 969 1125 678 
Q 1403 388 1819 388 
Q 2128 388 2347 550 
Q 2566 713 2694 1069 
z
M 847 1978 
L 2700 1978 
Q 2663 2397 2488 2606 
Q 2219 2931 1791 2931 
Q 1403 2931 1139 2672 
Q 875 2413 847 1978 
z
" transform="scale(0.015625)"/>
       <path id="ArialMT-61" d="M 2588 409 
Q 2275 144 1986 34 
Q 1697 -75 1366 -75 
Q 819 -75 525 192 
Q 231 459 231 875 
Q 231 1119 342 1320 
Q 453 1522 633 1644 
Q 813 1766 1038 1828 
Q 1203 1872 1538 1913 
Q 2219 1994 2541 2106 
Q 2544 2222 2544 2253 
Q 2544 2597 2384 2738 
Q 2169 2928 1744 2928 
Q 1347 2928 1158 2789 
Q 969 2650 878 2297 
L 328 2372 
Q 403 2725 575 2942 
Q 747 3159 1072 3276 
Q 1397 3394 1825 3394 
Q 2250 3394 2515 3294 
Q 2781 3194 2906 3042 
Q 3031 2891 3081 2659 
Q 3109 2516 3109 2141 
L 3109 1391 
Q 3109 606 3145 398 
Q 3181 191 3288 0 
L 2700 0 
Q 2613 175 2588 409 
z
M 2541 1666 
Q 2234 1541 1622 1453 
Q 1275 1403 1131 1340 
Q 988 1278 909 1158 
Q 831 1038 831 891 
Q 831 666 1001 516 
Q 1172 366 1500 366 
Q 1825 366 2078 508 
Q 2331 650 2450 897 
Q 2541 1088 2541 1459 
L 2541 1666 
z
" transform="scale(0.015625)"/>
       <path id="ArialMT-72" d="M 416 0 
L 416 3319 
L 922 3319 
L 922 2816 
Q 1116 3169 1280 3281 
Q 1444 3394 1641 3394 
Q 1925 3394 2219 3213 
L 2025 2691 
Q 1819 2813 1613 2813 
Q 1428 2813 1281 2702 
Q 1134 2591 1072 2394 
Q 978 2094 978 1738 
L 978 0 
L 416 0 
z
" transform="scale(0.015625)"/>
      </defs>
      <use xlink:href="#ArialMT-59"/>
      <use xlink:href="#ArialMT-65" x="57.574219"/>
      <use xlink:href="#ArialMT-61" x="113.189453"/>
      <use xlink:href="#ArialMT-72" x="168.804688"/>
     </g>
    </g>
   </g>
   <g id="matplotlib.axis_2">
    <g id="ytick_1">
     <g id="line2d_1">
      <path d="M 108 369.36 
L 777.6 369.36 
" clip-path="url(#pca0c56a273)" style="fill: none; stroke: #ffffff; stroke-linecap: round"/>
     </g>
     <g id="text_6">
      <!-- 50 -->
      <g style="fill: #262626" transform="translate(86.265938 373.296797)scale(0.11 -0.11)">
       <defs>
        <path id="ArialMT-35" d="M 266 1200 
L 856 1250 
Q 922 819 1161 601 
Q 1400 384 1738 384 
Q 2144 384 2425 690 
Q 2706 997 2706 1503 
Q 2706 1984 2436 2262 
Q 2166 2541 1728 2541 
Q 1456 2541 1237 2417 
Q 1019 2294 894 2097 
L 366 2166 
L 809 4519 
L 3088 4519 
L 3088 3981 
L 1259 3981 
L 1013 2750 
Q 1425 3038 1878 3038 
Q 2478 3038 2890 2622 
Q 3303 2206 3303 1553 
Q 3303 931 2941 478 
Q 2500 -78 1738 -78 
Q 1113 -78 717 272 
Q 322 622 266 1200 
z
" transform="scale(0.015625)"/>
       </defs>
       <use xlink:href="#ArialMT-35"/>
       <use xlink:href="#ArialMT-30" x="55.615234"/>
      </g>
     </g>
    </g>
    <g id="ytick_2">
     <g id="line2d_2">
      <path d="M 108 326.16 
L 777.6 326.16 
" clip-path="url(#pca0c56a273)" style="fill: none; stroke: #ffffff; stroke-linecap: round"/>
     </g>
     <g id="text_7">
      <!-- 100 -->
      <g style="fill: #262626" transform="translate(80.148906 330.096797)scale(0.11 -0.11)">
       <use xlink:href="#ArialMT-31"/>
       <use xlink:href="#ArialMT-30" x="55.615234"/>
       <use xlink:href="#ArialMT-30" x="111.230469"/>
      </g>
     </g>
    </g>
    <g id="ytick_3">
     <g id="line2d_3">
      <path d="M 108 282.96 
L 777.6 282.96 
" clip-path="url(#pca0c56a273)" style="fill: none; stroke: #ffffff; stroke-linecap: round"/>
     </g>
     <g id="text_8">
      <!-- 150 -->
      <g style="fill: #262626" transform="translate(80.148906 286.896797)scale(0.11 -0.11)">
       <use xlink:href="#ArialMT-31"/>
       <use xlink:href="#ArialMT-35" x="55.615234"/>
       <use xlink:href="#ArialMT-30" x="111.230469"/>
      </g>
     </g>
    </g>
    <g id="ytick_4">
     <g id="line2d_4">
      <path d="M 108 239.76 
L 777.6 239.76 
" clip-path="url(#pca0c56a273)" style="fill: none; stroke: #ffffff; stroke-linecap: round"/>
     </g>
     <g id="text_9">
      <!-- 200 -->
      <g style="fill: #262626" transform="translate(80.148906 243.696797)scale(0.11 -0.11)">
       <use xlink:href="#ArialMT-32"/>
       <use xlink:href="#ArialMT-30" x="55.615234"/>
       <use xlink:href="#ArialMT-30" x="111.230469"/>
      </g>
     </g>
    </g>
    <g id="ytick_5">
     <g id="line2d_5">
      <path d="M 108 196.56 
L 777.6 196.56 
" clip-path="url(#pca0c56a273)" style="fill: none; stroke: #ffffff; stroke-linecap: round"/>
     </g>
     <g id="text_10">
      <!-- 250 -->
      <g style="fill: #262626" transform="translate(80.148906 200.496797)scale(0.11 -0.11)">
       <use xlink:href="#ArialMT-32"/>
       <use xlink:href="#ArialMT-35" x="55.615234"/>
       <use xlink:href="#ArialMT-30" x="111.230469"/>
      </g>
     </g>
    </g>
    <g id="ytick_6">
     <g id="line2d_6">
      <path d="M 108 153.36 
L 777.6 153.36 
" clip-path="url(#pca0c56a273)" style="fill: none; stroke: #ffffff; stroke-linecap: round"/>
     </g>
     <g id="text_11">
      <!-- 300 -->
      <g style="fill: #262626" transform="translate(80.148906 157.296797)scale(0.11 -0.11)">
       <defs>
        <path id="ArialMT-33" d="M 269 1209 
L 831 1284 
Q 928 806 1161 595 
Q 1394 384 1728 384 
Q 2125 384 2398 659 
Q 2672 934 2672 1341 
Q 2672 1728 2419 1979 
Q 2166 2231 1775 2231 
Q 1616 2231 1378 2169 
L 1441 2663 
Q 1497 2656 1531 2656 
Q 1891 2656 2178 2843 
Q 2466 3031 2466 3422 
Q 2466 3731 2256 3934 
Q 2047 4138 1716 4138 
Q 1388 4138 1169 3931 
Q 950 3725 888 3313 
L 325 3413 
Q 428 3978 793 4289 
Q 1159 4600 1703 4600 
Q 2078 4600 2393 4439 
Q 2709 4278 2876 4000 
Q 3044 3722 3044 3409 
Q 3044 3113 2884 2869 
Q 2725 2625 2413 2481 
Q 2819 2388 3044 2092 
Q 3269 1797 3269 1353 
Q 3269 753 2831 336 
Q 2394 -81 1725 -81 
Q 1122 -81 723 278 
Q 325 638 269 1209 
z
" transform="scale(0.015625)"/>
       </defs>
       <use xlink:href="#ArialMT-33"/>
       <use xlink:href="#ArialMT-30" x="55.615234"/>
       <use xlink:href="#ArialMT-30" x="111.230469"/>
      </g>
     </g>
    </g>
    <g id="ytick_7">
     <g id="line2d_7">
      <path d="M 108 110.16 
L 777.6 110.16 
" clip-path="url(#pca0c56a273)" style="fill: none; stroke: #ffffff; stroke-linecap: round"/>
     </g>
     <g id="text_12">
      <!-- 350 -->
      <g style="fill: #262626" transform="translate(80.148906 114.096797)scale(0.11 -0.11)">
       <use xlink:href="#ArialMT-33"/>
       <use xlink:href="#ArialMT-35" x="55.615234"/>
       <use xlink:href="#ArialMT-30" x="111.230469"/>
      </g>
     </g>
    </g>
    <g id="ytick_8">
     <g id="line2d_8">
      <path d="M 108 66.96 
L 777.6 66.96 
" clip-path="url(#pca0c56a273)" style="fill: none; stroke: #ffffff; stroke-linecap: round"/>
     </g>
     <g id="text_13">
      <!-- 400 -->
      <g style="fill: #262626" transform="translate(80.148906 70.896797)scale(0.11 -0.11)">
       <defs>
        <path id="ArialMT-34" d="M 2069 0 
L 2069 1097 
L 81 1097 
L 81 1613 
L 2172 4581 
L 2631 4581 
L 2631 1613 
L 3250 1613 
L 3250 1097 
L 2631 1097 
L 2631 0 
L 2069 0 
z
M 2069 1613 
L 2069 3678 
L 634 1613 
L 2069 1613 
z
" transform="scale(0.015625)"/>
       </defs>
       <use xlink:href="#ArialMT-34"/>
       <use xlink:href="#ArialMT-30" x="55.615234"/>
       <use xlink:href="#ArialMT-30" x="111.230469"/>
      </g>
     </g>
    </g>
    <g id="text_14">
     <!-- Annual income (thousands) -->
     <g style="fill: #262626" transform="translate(73.623281 291.197812)rotate(-90)scale(0.12 -0.12)">
      <defs>
       <path id="ArialMT-41" d="M -9 0 
L 1750 4581 
L 2403 4581 
L 4278 0 
L 3588 0 
L 3053 1388 
L 1138 1388 
L 634 0 
L -9 0 
z
M 1313 1881 
L 2866 1881 
L 2388 3150 
Q 2169 3728 2063 4100 
Q 1975 3659 1816 3225 
L 1313 1881 
z
" transform="scale(0.015625)"/>
       <path id="ArialMT-6e" d="M 422 0 
L 422 3319 
L 928 3319 
L 928 2847 
Q 1294 3394 1984 3394 
Q 2284 3394 2536 3286 
Q 2788 3178 2913 3003 
Q 3038 2828 3088 2588 
Q 3119 2431 3119 2041 
L 3119 0 
L 2556 0 
L 2556 2019 
Q 2556 2363 2490 2533 
Q 2425 2703 2258 2804 
Q 2091 2906 1866 2906 
Q 1506 2906 1245 2678 
Q 984 2450 984 1813 
L 984 0 
L 422 0 
z
" transform="scale(0.015625)"/>
       <path id="ArialMT-75" d="M 2597 0 
L 2597 488 
Q 2209 -75 1544 -75 
Q 1250 -75 995 37 
Q 741 150 617 320 
Q 494 491 444 738 
Q 409 903 409 1263 
L 409 3319 
L 972 3319 
L 972 1478 
Q 972 1038 1006 884 
Q 1059 663 1231 536 
Q 1403 409 1656 409 
Q 1909 409 2131 539 
Q 2353 669 2445 892 
Q 2538 1116 2538 1541 
L 2538 3319 
L 3100 3319 
L 3100 0 
L 2597 0 
z
" transform="scale(0.015625)"/>
       <path id="ArialMT-6c" d="M 409 0 
L 409 4581 
L 972 4581 
L 972 0 
L 409 0 
z
" transform="scale(0.015625)"/>
       <path id="ArialMT-20" transform="scale(0.015625)"/>
       <path id="ArialMT-69" d="M 425 3934 
L 425 4581 
L 988 4581 
L 988 3934 
L 425 3934 
z
M 425 0 
L 425 3319 
L 988 3319 
L 988 0 
L 425 0 
z
" transform="scale(0.015625)"/>
       <path id="ArialMT-63" d="M 2588 1216 
L 3141 1144 
Q 3050 572 2676 248 
Q 2303 -75 1759 -75 
Q 1078 -75 664 370 
Q 250 816 250 1647 
Q 250 2184 428 2587 
Q 606 2991 970 3192 
Q 1334 3394 1763 3394 
Q 2303 3394 2647 3120 
Q 2991 2847 3088 2344 
L 2541 2259 
Q 2463 2594 2264 2762 
Q 2066 2931 1784 2931 
Q 1359 2931 1093 2626 
Q 828 2322 828 1663 
Q 828 994 1084 691 
Q 1341 388 1753 388 
Q 2084 388 2306 591 
Q 2528 794 2588 1216 
z
" transform="scale(0.015625)"/>
       <path id="ArialMT-6f" d="M 213 1659 
Q 213 2581 725 3025 
Q 1153 3394 1769 3394 
Q 2453 3394 2887 2945 
Q 3322 2497 3322 1706 
Q 3322 1066 3130 698 
Q 2938 331 2570 128 
Q 2203 -75 1769 -75 
Q 1072 -75 642 372 
Q 213 819 213 1659 
z
M 791 1659 
Q 791 1022 1069 705 
Q 1347 388 1769 388 
Q 2188 388 2466 706 
Q 2744 1025 2744 1678 
Q 2744 2294 2464 2611 
Q 2184 2928 1769 2928 
Q 1347 2928 1069 2612 
Q 791 2297 791 1659 
z
" transform="scale(0.015625)"/>
       <path id="ArialMT-6d" d="M 422 0 
L 422 3319 
L 925 3319 
L 925 2853 
Q 1081 3097 1340 3245 
Q 1600 3394 1931 3394 
Q 2300 3394 2536 3241 
Q 2772 3088 2869 2813 
Q 3263 3394 3894 3394 
Q 4388 3394 4653 3120 
Q 4919 2847 4919 2278 
L 4919 0 
L 4359 0 
L 4359 2091 
Q 4359 2428 4304 2576 
Q 4250 2725 4106 2815 
Q 3963 2906 3769 2906 
Q 3419 2906 3187 2673 
Q 2956 2441 2956 1928 
L 2956 0 
L 2394 0 
L 2394 2156 
Q 2394 2531 2256 2718 
Q 2119 2906 1806 2906 
Q 1569 2906 1367 2781 
Q 1166 2656 1075 2415 
Q 984 2175 984 1722 
L 984 0 
L 422 0 
z
" transform="scale(0.015625)"/>
       <path id="ArialMT-28" d="M 1497 -1347 
Q 1031 -759 709 28 
Q 388 816 388 1659 
Q 388 2403 628 3084 
Q 909 3875 1497 4659 
L 1900 4659 
Q 1522 4009 1400 3731 
Q 1209 3300 1100 2831 
Q 966 2247 966 1656 
Q 966 153 1900 -1347 
L 1497 -1347 
z
" transform="scale(0.015625)"/>
       <path id="ArialMT-74" d="M 1650 503 
L 1731 6 
Q 1494 -44 1306 -44 
Q 1000 -44 831 53 
Q 663 150 594 308 
Q 525 466 525 972 
L 525 2881 
L 113 2881 
L 113 3319 
L 525 3319 
L 525 4141 
L 1084 4478 
L 1084 3319 
L 1650 3319 
L 1650 2881 
L 1084 2881 
L 1084 941 
Q 1084 700 1114 631 
Q 1144 563 1211 522 
Q 1278 481 1403 481 
Q 1497 481 1650 503 
z
" transform="scale(0.015625)"/>
       <path id="ArialMT-68" d="M 422 0 
L 422 4581 
L 984 4581 
L 984 2938 
Q 1378 3394 1978 3394 
Q 2347 3394 2619 3248 
Q 2891 3103 3008 2847 
Q 3125 2591 3125 2103 
L 3125 0 
L 2563 0 
L 2563 2103 
Q 2563 2525 2380 2717 
Q 2197 2909 1863 2909 
Q 1613 2909 1392 2779 
Q 1172 2650 1078 2428 
Q 984 2206 984 1816 
L 984 0 
L 422 0 
z
" transform="scale(0.015625)"/>
       <path id="ArialMT-73" d="M 197 991 
L 753 1078 
Q 800 744 1014 566 
Q 1228 388 1613 388 
Q 2000 388 2187 545 
Q 2375 703 2375 916 
Q 2375 1106 2209 1216 
Q 2094 1291 1634 1406 
Q 1016 1563 777 1677 
Q 538 1791 414 1992 
Q 291 2194 291 2438 
Q 291 2659 392 2848 
Q 494 3038 669 3163 
Q 800 3259 1026 3326 
Q 1253 3394 1513 3394 
Q 1903 3394 2198 3281 
Q 2494 3169 2634 2976 
Q 2775 2784 2828 2463 
L 2278 2388 
Q 2241 2644 2061 2787 
Q 1881 2931 1553 2931 
Q 1166 2931 1000 2803 
Q 834 2675 834 2503 
Q 834 2394 903 2306 
Q 972 2216 1119 2156 
Q 1203 2125 1616 2013 
Q 2213 1853 2448 1751 
Q 2684 1650 2818 1456 
Q 2953 1263 2953 975 
Q 2953 694 2789 445 
Q 2625 197 2315 61 
Q 2006 -75 1616 -75 
Q 969 -75 630 194 
Q 291 463 197 991 
z
" transform="scale(0.015625)"/>
       <path id="ArialMT-64" d="M 2575 0 
L 2575 419 
Q 2259 -75 1647 -75 
Q 1250 -75 917 144 
Q 584 363 401 755 
Q 219 1147 219 1656 
Q 219 2153 384 2558 
Q 550 2963 881 3178 
Q 1213 3394 1622 3394 
Q 1922 3394 2156 3267 
Q 2391 3141 2538 2938 
L 2538 4581 
L 3097 4581 
L 3097 0 
L 2575 0 
z
M 797 1656 
Q 797 1019 1065 703 
Q 1334 388 1700 388 
Q 2069 388 2326 689 
Q 2584 991 2584 1609 
Q 2584 2291 2321 2609 
Q 2059 2928 1675 2928 
Q 1300 2928 1048 2622 
Q 797 2316 797 1656 
z
" transform="scale(0.015625)"/>
       <path id="ArialMT-29" d="M 791 -1347 
L 388 -1347 
Q 1322 153 1322 1656 
Q 1322 2244 1188 2822 
Q 1081 3291 891 3722 
Q 769 4003 388 4659 
L 791 4659 
Q 1378 3875 1659 3084 
Q 1900 2403 1900 1659 
Q 1900 816 1576 28 
Q 1253 -759 791 -1347 
z
" transform="scale(0.015625)"/>
      </defs>
      <use xlink:href="#ArialMT-41"/>
      <use xlink:href="#ArialMT-6e" x="66.699219"/>
      <use xlink:href="#ArialMT-6e" x="122.314453"/>
      <use xlink:href="#ArialMT-75" x="177.929688"/>
      <use xlink:href="#ArialMT-61" x="233.544922"/>
      <use xlink:href="#ArialMT-6c" x="289.160156"/>
      <use xlink:href="#ArialMT-20" x="311.376953"/>
      <use xlink:href="#ArialMT-69" x="339.160156"/>
      <use xlink:href="#ArialMT-6e" x="361.376953"/>
      <use xlink:href="#ArialMT-63" x="416.992188"/>
      <use xlink:href="#ArialMT-6f" x="466.992188"/>
      <use xlink:href="#ArialMT-6d" x="522.607422"/>
      <use xlink:href="#ArialMT-65" x="605.908203"/>
      <use xlink:href="#ArialMT-20" x="661.523438"/>
      <use xlink:href="#ArialMT-28" x="689.306641"/>
      <use xlink:href="#ArialMT-74" x="722.607422"/>
      <use xlink:href="#ArialMT-68" x="750.390625"/>
      <use xlink:href="#ArialMT-6f" x="806.005859"/>
      <use xlink:href="#ArialMT-75" x="861.621094"/>
      <use xlink:href="#ArialMT-73" x="917.236328"/>
      <use xlink:href="#ArialMT-61" x="967.236328"/>
      <use xlink:href="#ArialMT-6e" x="1022.851562"/>
      <use xlink:href="#ArialMT-64" x="1078.466797"/>
      <use xlink:href="#ArialMT-73" x="1134.082031"/>
      <use xlink:href="#ArialMT-29" x="1184.082031"/>
     </g>
    </g>
   </g>
   <g id="PolyCollection_1">
    <defs>
     <path id="mb1436cf15c" d="M 208.790547 -63.504 
L 174.609453 -63.504 
L 172.471386 -65.415273 
L 170.233634 -67.326545 
L 167.91863 -69.237818 
L 165.552192 -71.149091 
L 163.162879 -73.060364 
L 160.78118 -74.971636 
L 158.438562 -76.882909 
L 156.166415 -78.794182 
L 153.994962 -80.705455 
L 151.952189 -82.616727 
L 150.062859 -84.528 
L 148.34769 -86.439273 
L 146.822728 -88.350545 
L 145.498981 -90.261818 
L 144.382327 -92.173091 
L 143.473696 -94.084364 
L 142.769523 -95.995636 
L 142.262416 -97.906909 
L 141.941998 -99.818182 
L 141.795849 -101.729455 
L 141.810471 -103.640727 
L 141.972211 -105.552 
L 142.268076 -107.463273 
L 142.686374 -109.374545 
L 143.217166 -111.285818 
L 143.852492 -113.197091 
L 144.586388 -115.108364 
L 145.414703 -117.019636 
L 146.334754 -118.930909 
L 147.344863 -120.842182 
L 148.443823 -122.753455 
L 149.630348 -124.664727 
L 150.902545 -126.576 
L 152.25746 -128.487273 
L 153.690721 -130.398545 
L 155.196306 -132.309818 
L 156.766442 -134.221091 
L 158.391638 -136.132364 
L 160.060845 -138.043636 
L 161.761725 -139.954909 
L 163.480995 -141.866182 
L 165.204841 -143.777455 
L 166.919346 -145.688727 
L 168.610917 -147.6 
L 170.266684 -149.511273 
L 171.874832 -151.422545 
L 173.424873 -153.333818 
L 174.907827 -155.245091 
L 176.316312 -157.156364 
L 177.644566 -159.067636 
L 178.888389 -160.978909 
L 180.045036 -162.890182 
L 181.113073 -164.801455 
L 182.092218 -166.712727 
L 182.983189 -168.624 
L 183.787555 -170.535273 
L 184.507627 -172.446545 
L 185.146362 -174.357818 
L 185.707308 -176.269091 
L 186.194552 -178.180364 
L 186.612696 -180.091636 
L 186.966823 -182.002909 
L 187.262459 -183.914182 
L 187.505517 -185.825455 
L 187.702217 -187.736727 
L 187.85899 -189.648 
L 187.982351 -191.559273 
L 188.078765 -193.470545 
L 188.154499 -195.381818 
L 188.215478 -197.293091 
L 188.26715 -199.204364 
L 188.314364 -201.115636 
L 188.361278 -203.026909 
L 188.41129 -204.938182 
L 188.466999 -206.849455 
L 188.530196 -208.760727 
L 188.601883 -210.672 
L 188.682318 -212.583273 
L 188.771083 -214.494545 
L 188.867169 -216.405818 
L 188.96908 -218.317091 
L 189.074955 -220.228364 
L 189.182691 -222.139636 
L 189.290084 -224.050909 
L 189.394963 -225.962182 
L 189.495329 -227.873455 
L 189.589476 -229.784727 
L 189.676105 -231.696 
L 189.754403 -233.607273 
L 189.824101 -235.518545 
L 189.885488 -237.429818 
L 189.939394 -239.341091 
L 189.987123 -241.252364 
L 190.030367 -243.163636 
L 190.071071 -245.074909 
L 190.111302 -246.986182 
L 190.153085 -248.897455 
L 190.198268 -250.808727 
L 190.248384 -252.72 
L 193.151616 -252.72 
L 193.151616 -252.72 
L 193.201732 -250.808727 
L 193.246915 -248.897455 
L 193.288698 -246.986182 
L 193.328929 -245.074909 
L 193.369633 -243.163636 
L 193.412877 -241.252364 
L 193.460606 -239.341091 
L 193.514512 -237.429818 
L 193.575899 -235.518545 
L 193.645597 -233.607273 
L 193.723895 -231.696 
L 193.810524 -229.784727 
L 193.904671 -227.873455 
L 194.005037 -225.962182 
L 194.109916 -224.050909 
L 194.217309 -222.139636 
L 194.325045 -220.228364 
L 194.43092 -218.317091 
L 194.532831 -216.405818 
L 194.628917 -214.494545 
L 194.717682 -212.583273 
L 194.798117 -210.672 
L 194.869804 -208.760727 
L 194.933001 -206.849455 
L 194.98871 -204.938182 
L 195.038722 -203.026909 
L 195.085636 -201.115636 
L 195.13285 -199.204364 
L 195.184522 -197.293091 
L 195.245501 -195.381818 
L 195.321235 -193.470545 
L 195.417649 -191.559273 
L 195.54101 -189.648 
L 195.697783 -187.736727 
L 195.894483 -185.825455 
L 196.137541 -183.914182 
L 196.433177 -182.002909 
L 196.787304 -180.091636 
L 197.205448 -178.180364 
L 197.692692 -176.269091 
L 198.253638 -174.357818 
L 198.892373 -172.446545 
L 199.612445 -170.535273 
L 200.416811 -168.624 
L 201.307782 -166.712727 
L 202.286927 -164.801455 
L 203.354964 -162.890182 
L 204.511611 -160.978909 
L 205.755434 -159.067636 
L 207.083688 -157.156364 
L 208.492173 -155.245091 
L 209.975127 -153.333818 
L 211.525168 -151.422545 
L 213.133316 -149.511273 
L 214.789083 -147.6 
L 216.480654 -145.688727 
L 218.195159 -143.777455 
L 219.919005 -141.866182 
L 221.638275 -139.954909 
L 223.339155 -138.043636 
L 225.008362 -136.132364 
L 226.633558 -134.221091 
L 228.203694 -132.309818 
L 229.709279 -130.398545 
L 231.14254 -128.487273 
L 232.497455 -126.576 
L 233.769652 -124.664727 
L 234.956177 -122.753455 
L 236.055137 -120.842182 
L 237.065246 -118.930909 
L 237.985297 -117.019636 
L 238.813612 -115.108364 
L 239.547508 -113.197091 
L 240.182834 -111.285818 
L 240.713626 -109.374545 
L 241.131924 -107.463273 
L 241.427789 -105.552 
L 241.589529 -103.640727 
L 241.604151 -101.729455 
L 241.458002 -99.818182 
L 241.137584 -97.906909 
L 240.630477 -95.995636 
L 239.926304 -94.084364 
L 239.017673 -92.173091 
L 237.901019 -90.261818 
L 236.577272 -88.350545 
L 235.05231 -86.439273 
L 233.337141 -84.528 
L 231.447811 -82.616727 
L 229.405038 -80.705455 
L 227.233585 -78.794182 
L 224.961438 -76.882909 
L 222.61882 -74.971636 
L 220.237121 -73.060364 
L 217.847808 -71.149091 
L 215.48137 -69.237818 
L 213.166366 -67.326545 
L 210.928614 -65.415273 
L 208.790547 -63.504 
z
" style="stroke: #4c4c4c; stroke-width: 1.5"/>
    </defs>
    <g clip-path="url(#pca0c56a273)">
     <use xlink:href="#mb1436cf15c" x="0" y="432" style="fill: #5875a4; stroke: #4c4c4c; stroke-width: 1.5"/>
    </g>
   </g>
   <g id="PolyCollection_2">
    <defs>
     <path id="m78a59d8982" d="M 379.24036 -62.64 
L 338.95964 -62.64 
L 336.760161 -64.647273 
L 334.482936 -66.654545 
L 332.14602 -68.661818 
L 329.76857 -70.669091 
L 327.37026 -72.676364 
L 324.970678 -74.683636 
L 322.588759 -76.690909 
L 320.242282 -78.698182 
L 317.947468 -80.705455 
L 315.718711 -82.712727 
L 313.568455 -84.72 
L 311.507223 -86.727273 
L 309.543788 -88.734545 
L 307.685476 -90.741818 
L 305.938559 -92.749091 
L 304.3087 -94.756364 
L 302.801412 -96.763636 
L 301.422471 -98.770909 
L 300.178251 -100.778182 
L 299.075939 -102.785455 
L 298.123596 -104.792727 
L 297.330068 -106.8 
L 296.704725 -108.807273 
L 296.257062 -110.814545 
L 295.996181 -112.821818 
L 295.930189 -114.829091 
L 296.065575 -116.836364 
L 296.406599 -118.843636 
L 296.954747 -120.850909 
L 297.708309 -122.858182 
L 298.662096 -124.865455 
L 299.807341 -126.872727 
L 301.131784 -128.88 
L 302.619937 -130.887273 
L 304.253526 -132.894545 
L 306.012074 -134.901818 
L 307.873579 -136.909091 
L 309.815267 -138.916364 
L 311.814348 -140.923636 
L 313.848747 -142.930909 
L 315.897755 -144.938182 
L 317.942573 -146.945455 
L 319.966726 -148.952727 
L 321.956323 -150.96 
L 323.900157 -152.967273 
L 325.789673 -154.974545 
L 327.618792 -156.981818 
L 329.383634 -158.989091 
L 331.082167 -160.996364 
L 332.713799 -163.003636 
L 334.278973 -165.010909 
L 335.778761 -167.018182 
L 337.214507 -169.025455 
L 338.587535 -171.032727 
L 339.898917 -173.04 
L 341.149333 -175.047273 
L 342.339002 -177.054545 
L 343.467688 -179.061818 
L 344.534774 -181.069091 
L 345.539378 -183.076364 
L 346.480508 -185.083636 
L 347.357235 -187.090909 
L 348.168873 -189.098182 
L 348.915139 -191.105455 
L 349.596302 -193.112727 
L 350.213298 -195.12 
L 350.767798 -197.127273 
L 351.262246 -199.134545 
L 351.69984 -201.141818 
L 352.084481 -203.149091 
L 352.42067 -205.156364 
L 352.713382 -207.163636 
L 352.967899 -209.170909 
L 353.189637 -211.178182 
L 353.383962 -213.185455 
L 353.55601 -215.192727 
L 353.710524 -217.2 
L 353.851717 -219.207273 
L 353.983176 -221.214545 
L 354.107804 -223.221818 
L 354.227809 -225.229091 
L 354.344744 -227.236364 
L 354.459578 -229.243636 
L 354.572814 -231.250909 
L 354.684618 -233.258182 
L 354.794971 -235.265455 
L 354.903806 -237.272727 
L 355.01114 -239.28 
L 355.11717 -241.287273 
L 355.222345 -243.294545 
L 355.327385 -245.301818 
L 355.433268 -247.309091 
L 355.541176 -249.316364 
L 355.652412 -251.323636 
L 355.768292 -253.330909 
L 355.89003 -255.338182 
L 356.018621 -257.345455 
L 356.154747 -259.352727 
L 356.298688 -261.36 
L 361.901312 -261.36 
L 361.901312 -261.36 
L 362.045253 -259.352727 
L 362.181379 -257.345455 
L 362.30997 -255.338182 
L 362.431708 -253.330909 
L 362.547588 -251.323636 
L 362.658824 -249.316364 
L 362.766732 -247.309091 
L 362.872615 -245.301818 
L 362.977655 -243.294545 
L 363.08283 -241.287273 
L 363.18886 -239.28 
L 363.296194 -237.272727 
L 363.405029 -235.265455 
L 363.515382 -233.258182 
L 363.627186 -231.250909 
L 363.740422 -229.243636 
L 363.855256 -227.236364 
L 363.972191 -225.229091 
L 364.092196 -223.221818 
L 364.216824 -221.214545 
L 364.348283 -219.207273 
L 364.489476 -217.2 
L 364.64399 -215.192727 
L 364.816038 -213.185455 
L 365.010363 -211.178182 
L 365.232101 -209.170909 
L 365.486618 -207.163636 
L 365.77933 -205.156364 
L 366.115519 -203.149091 
L 366.50016 -201.141818 
L 366.937754 -199.134545 
L 367.432202 -197.127273 
L 367.986702 -195.12 
L 368.603698 -193.112727 
L 369.284861 -191.105455 
L 370.031127 -189.098182 
L 370.842765 -187.090909 
L 371.719492 -185.083636 
L 372.660622 -183.076364 
L 373.665226 -181.069091 
L 374.732312 -179.061818 
L 375.860998 -177.054545 
L 377.050667 -175.047273 
L 378.301083 -173.04 
L 379.612465 -171.032727 
L 380.985493 -169.025455 
L 382.421239 -167.018182 
L 383.921027 -165.010909 
L 385.486201 -163.003636 
L 387.117833 -160.996364 
L 388.816366 -158.989091 
L 390.581208 -156.981818 
L 392.410327 -154.974545 
L 394.299843 -152.967273 
L 396.243677 -150.96 
L 398.233274 -148.952727 
L 400.257427 -146.945455 
L 402.302245 -144.938182 
L 404.351253 -142.930909 
L 406.385652 -140.923636 
L 408.384733 -138.916364 
L 410.326421 -136.909091 
L 412.187926 -134.901818 
L 413.946474 -132.894545 
L 415.580063 -130.887273 
L 417.068216 -128.88 
L 418.392659 -126.872727 
L 419.537904 -124.865455 
L 420.491691 -122.858182 
L 421.245253 -120.850909 
L 421.793401 -118.843636 
L 422.134425 -116.836364 
L 422.269811 -114.829091 
L 422.203819 -112.821818 
L 421.942938 -110.814545 
L 421.495275 -108.807273 
L 420.869932 -106.8 
L 420.076404 -104.792727 
L 419.124061 -102.785455 
L 418.021749 -100.778182 
L 416.777529 -98.770909 
L 415.398588 -96.763636 
L 413.8913 -94.756364 
L 412.261441 -92.749091 
L 410.514524 -90.741818 
L 408.656212 -88.734545 
L 406.692777 -86.727273 
L 404.631545 -84.72 
L 402.481289 -82.712727 
L 400.252532 -80.705455 
L 397.957718 -78.698182 
L 395.611241 -76.690909 
L 393.229322 -74.683636 
L 390.82974 -72.676364 
L 388.43143 -70.669091 
L 386.05398 -68.661818 
L 383.717064 -66.654545 
L 381.439839 -64.647273 
L 379.24036 -62.64 
z
" style="stroke: #4c4c4c; stroke-width: 1.5"/>
    </defs>
    <g clip-path="url(#pca0c56a273)">
     <use xlink:href="#m78a59d8982" x="0" y="432" style="fill: #cc8963; stroke: #4c4c4c; stroke-width: 1.5"/>
    </g>
   </g>
   <g id="PolyCollection_3">
    <defs>
     <path id="m6850b8b65e" d="M 538.800346 -75.6 
L 514.199654 -75.6 
L 512.927107 -77.781818 
L 511.604819 -79.963636 
L 510.236656 -82.145455 
L 508.826215 -84.327273 
L 507.376913 -86.509091 
L 505.89218 -88.690909 
L 504.37576 -90.872727 
L 502.83207 -93.054545 
L 501.266608 -95.236364 
L 499.686342 -97.418182 
L 498.100053 -99.6 
L 496.518561 -101.781818 
L 494.954816 -103.963636 
L 493.423807 -106.145455 
L 491.94228 -108.327273 
L 490.528274 -110.509091 
L 489.200491 -112.690909 
L 487.977553 -114.872727 
L 486.877182 -117.054545 
L 485.915394 -119.236364 
L 485.105746 -121.418182 
L 484.458723 -123.6 
L 483.9813 -125.781818 
L 483.676725 -127.963636 
L 483.544528 -130.145455 
L 483.580765 -132.327273 
L 483.778452 -134.509091 
L 484.128165 -136.690909 
L 484.618731 -138.872727 
L 485.237958 -141.054545 
L 485.973342 -143.236364 
L 486.812682 -145.418182 
L 487.74457 -147.6 
L 488.758724 -149.781818 
L 489.846146 -151.963636 
L 490.999113 -154.145455 
L 492.211022 -156.327273 
L 493.476125 -158.509091 
L 494.789187 -160.690909 
L 496.145114 -162.872727 
L 497.538598 -165.054545 
L 498.963808 -167.236364 
L 500.414162 -169.418182 
L 501.882188 -171.6 
L 503.359501 -173.781818 
L 504.836864 -175.963636 
L 506.30435 -178.145455 
L 507.751562 -180.327273 
L 509.167915 -182.509091 
L 510.542926 -184.690909 
L 511.866526 -186.872727 
L 513.129339 -189.054545 
L 514.322945 -191.236364 
L 515.440096 -193.418182 
L 516.474894 -195.6 
L 517.422913 -197.781818 
L 518.281288 -199.963636 
L 519.048751 -202.145455 
L 519.725633 -204.327273 
L 520.31383 -206.509091 
L 520.81673 -208.690909 
L 521.239105 -210.872727 
L 521.586982 -213.054545 
L 521.86746 -215.236364 
L 522.088521 -217.418182 
L 522.258785 -219.6 
L 522.387269 -221.781818 
L 522.483106 -223.963636 
L 522.555272 -226.145455 
L 522.612307 -228.327273 
L 522.662063 -230.509091 
L 522.711464 -232.690909 
L 522.766324 -234.872727 
L 522.831199 -237.054545 
L 522.909309 -239.236364 
L 523.002508 -241.418182 
L 523.111329 -243.6 
L 523.235076 -245.781818 
L 523.371976 -247.963636 
L 523.519373 -250.145455 
L 523.673953 -252.327273 
L 523.831991 -254.509091 
L 523.989603 -256.690909 
L 524.142992 -258.872727 
L 524.288676 -261.054545 
L 524.423682 -263.236364 
L 524.545704 -265.418182 
L 524.653207 -267.6 
L 524.745491 -269.781818 
L 524.82269 -271.963636 
L 524.885727 -274.145455 
L 524.936221 -276.327273 
L 524.976356 -278.509091 
L 525.00872 -280.690909 
L 525.036126 -282.872727 
L 525.061427 -285.054545 
L 525.087344 -287.236364 
L 525.116301 -289.418182 
L 525.150301 -291.6 
L 527.849699 -291.6 
L 527.849699 -291.6 
L 527.883699 -289.418182 
L 527.912656 -287.236364 
L 527.938573 -285.054545 
L 527.963874 -282.872727 
L 527.99128 -280.690909 
L 528.023644 -278.509091 
L 528.063779 -276.327273 
L 528.114273 -274.145455 
L 528.17731 -271.963636 
L 528.254509 -269.781818 
L 528.346793 -267.6 
L 528.454296 -265.418182 
L 528.576318 -263.236364 
L 528.711324 -261.054545 
L 528.857008 -258.872727 
L 529.010397 -256.690909 
L 529.168009 -254.509091 
L 529.326047 -252.327273 
L 529.480627 -250.145455 
L 529.628024 -247.963636 
L 529.764924 -245.781818 
L 529.888671 -243.6 
L 529.997492 -241.418182 
L 530.090691 -239.236364 
L 530.168801 -237.054545 
L 530.233676 -234.872727 
L 530.288536 -232.690909 
L 530.337937 -230.509091 
L 530.387693 -228.327273 
L 530.444728 -226.145455 
L 530.516894 -223.963636 
L 530.612731 -221.781818 
L 530.741215 -219.6 
L 530.911479 -217.418182 
L 531.13254 -215.236364 
L 531.413018 -213.054545 
L 531.760895 -210.872727 
L 532.18327 -208.690909 
L 532.68617 -206.509091 
L 533.274367 -204.327273 
L 533.951249 -202.145455 
L 534.718712 -199.963636 
L 535.577087 -197.781818 
L 536.525106 -195.6 
L 537.559904 -193.418182 
L 538.677055 -191.236364 
L 539.870661 -189.054545 
L 541.133474 -186.872727 
L 542.457074 -184.690909 
L 543.832085 -182.509091 
L 545.248438 -180.327273 
L 546.69565 -178.145455 
L 548.163136 -175.963636 
L 549.640499 -173.781818 
L 551.117812 -171.6 
L 552.585838 -169.418182 
L 554.036192 -167.236364 
L 555.461402 -165.054545 
L 556.854886 -162.872727 
L 558.210813 -160.690909 
L 559.523875 -158.509091 
L 560.788978 -156.327273 
L 562.000887 -154.145455 
L 563.153854 -151.963636 
L 564.241276 -149.781818 
L 565.25543 -147.6 
L 566.187318 -145.418182 
L 567.026658 -143.236364 
L 567.762042 -141.054545 
L 568.381269 -138.872727 
L 568.871835 -136.690909 
L 569.221548 -134.509091 
L 569.419235 -132.327273 
L 569.455472 -130.145455 
L 569.323275 -127.963636 
L 569.0187 -125.781818 
L 568.541277 -123.6 
L 567.894254 -121.418182 
L 567.084606 -119.236364 
L 566.122818 -117.054545 
L 565.022447 -114.872727 
L 563.799509 -112.690909 
L 562.471726 -110.509091 
L 561.05772 -108.327273 
L 559.576193 -106.145455 
L 558.045184 -103.963636 
L 556.481439 -101.781818 
L 554.899947 -99.6 
L 553.313658 -97.418182 
L 551.733392 -95.236364 
L 550.16793 -93.054545 
L 548.62424 -90.872727 
L 547.10782 -88.690909 
L 545.623087 -86.509091 
L 544.173785 -84.327273 
L 542.763344 -82.145455 
L 541.395181 -79.963636 
L 540.072893 -77.781818 
L 538.800346 -75.6 
z
" style="stroke: #4c4c4c; stroke-width: 1.5"/>
    </defs>
    <g clip-path="url(#pca0c56a273)">
     <use xlink:href="#m6850b8b65e" x="0" y="432" style="fill: #5f9e6e; stroke: #4c4c4c; stroke-width: 1.5"/>
    </g>
   </g>
   <g id="PolyCollection_4">
    <defs>
     <path id="m837af1ff89" d="M 708.61964 -66.96 
L 679.18036 -66.96 
L 677.521151 -69.970909 
L 675.821479 -72.981818 
L 674.091179 -75.992727 
L 672.336938 -79.003636 
L 670.561739 -82.014545 
L 668.764694 -85.025455 
L 666.941295 -88.036364 
L 665.084087 -91.047273 
L 663.183719 -94.058182 
L 661.230265 -97.069091 
L 659.214716 -100.08 
L 657.130472 -103.090909 
L 654.97471 -106.101818 
L 652.749489 -109.112727 
L 650.462509 -112.123636 
L 648.127451 -115.134545 
L 645.76392 -118.145455 
L 643.396997 -121.156364 
L 641.0565 -124.167273 
L 638.776014 -127.178182 
L 636.591806 -130.189091 
L 634.541692 -133.2 
L 632.663904 -136.210909 
L 630.996006 -139.221818 
L 629.573829 -142.232727 
L 628.430435 -145.243636 
L 627.595073 -148.254545 
L 627.092116 -151.265455 
L 626.94 -154.276364 
L 627.150206 -157.287273 
L 627.726357 -160.298182 
L 628.663539 -163.309091 
L 629.947952 -166.32 
L 631.556989 -169.330909 
L 633.459818 -172.341818 
L 635.61849 -175.352727 
L 637.989522 -178.363636 
L 640.525889 -181.374545 
L 643.179237 -184.385455 
L 645.902166 -187.396364 
L 648.650366 -190.407273 
L 651.384426 -193.418182 
L 654.071167 -196.429091 
L 656.684399 -199.44 
L 659.20508 -202.450909 
L 661.620897 -205.461818 
L 663.925383 -208.472727 
L 666.116685 -211.483636 
L 668.196173 -214.494545 
L 670.167031 -217.505455 
L 672.033001 -220.516364 
L 673.797391 -223.527273 
L 675.462422 -226.538182 
L 677.028944 -229.549091 
L 678.496504 -232.56 
L 679.863705 -235.570909 
L 681.128774 -238.581818 
L 682.290232 -241.592727 
L 683.347567 -244.603636 
L 684.301809 -247.614545 
L 685.15594 -250.625455 
L 685.915085 -253.636364 
L 686.586465 -256.647273 
L 687.179133 -259.658182 
L 687.703505 -262.669091 
L 688.170771 -265.68 
L 688.592226 -268.690909 
L 688.978607 -271.701818 
L 689.339491 -274.712727 
L 689.682823 -277.723636 
L 690.014587 -280.734545 
L 690.338667 -283.745455 
L 690.656875 -286.756364 
L 690.969138 -289.767273 
L 691.273814 -292.778182 
L 691.568081 -295.789091 
L 691.848375 -298.8 
L 692.110812 -301.810909 
L 692.351579 -304.821818 
L 692.567255 -307.832727 
L 692.755049 -310.843636 
L 692.912962 -313.854545 
L 693.039868 -316.865455 
L 693.135536 -319.876364 
L 693.200605 -322.887273 
L 693.236532 -325.898182 
L 693.245522 -328.909091 
L 693.230453 -331.92 
L 693.194787 -334.930909 
L 693.142488 -337.941818 
L 693.077914 -340.952727 
L 693.005695 -343.963636 
L 692.93059 -346.974545 
L 692.857317 -349.985455 
L 692.790365 -352.996364 
L 692.733797 -356.007273 
L 692.691059 -359.018182 
L 692.664807 -362.029091 
L 692.656783 -365.04 
L 695.143217 -365.04 
L 695.143217 -365.04 
L 695.135193 -362.029091 
L 695.108941 -359.018182 
L 695.066203 -356.007273 
L 695.009635 -352.996364 
L 694.942683 -349.985455 
L 694.86941 -346.974545 
L 694.794305 -343.963636 
L 694.722086 -340.952727 
L 694.657512 -337.941818 
L 694.605213 -334.930909 
L 694.569547 -331.92 
L 694.554478 -328.909091 
L 694.563468 -325.898182 
L 694.599395 -322.887273 
L 694.664464 -319.876364 
L 694.760132 -316.865455 
L 694.887038 -313.854545 
L 695.044951 -310.843636 
L 695.232745 -307.832727 
L 695.448421 -304.821818 
L 695.689188 -301.810909 
L 695.951625 -298.8 
L 696.231919 -295.789091 
L 696.526186 -292.778182 
L 696.830862 -289.767273 
L 697.143125 -286.756364 
L 697.461333 -283.745455 
L 697.785413 -280.734545 
L 698.117177 -277.723636 
L 698.460509 -274.712727 
L 698.821393 -271.701818 
L 699.207774 -268.690909 
L 699.629229 -265.68 
L 700.096495 -262.669091 
L 700.620867 -259.658182 
L 701.213535 -256.647273 
L 701.884915 -253.636364 
L 702.64406 -250.625455 
L 703.498191 -247.614545 
L 704.452433 -244.603636 
L 705.509768 -241.592727 
L 706.671226 -238.581818 
L 707.936295 -235.570909 
L 709.303496 -232.56 
L 710.771056 -229.549091 
L 712.337578 -226.538182 
L 714.002609 -223.527273 
L 715.766999 -220.516364 
L 717.632969 -217.505455 
L 719.603827 -214.494545 
L 721.683315 -211.483636 
L 723.874617 -208.472727 
L 726.179103 -205.461818 
L 728.59492 -202.450909 
L 731.115601 -199.44 
L 733.728833 -196.429091 
L 736.415574 -193.418182 
L 739.149634 -190.407273 
L 741.897834 -187.396364 
L 744.620763 -184.385455 
L 747.274111 -181.374545 
L 749.810478 -178.363636 
L 752.18151 -175.352727 
L 754.340182 -172.341818 
L 756.243011 -169.330909 
L 757.852048 -166.32 
L 759.136461 -163.309091 
L 760.073643 -160.298182 
L 760.649794 -157.287273 
L 760.86 -154.276364 
L 760.707884 -151.265455 
L 760.204927 -148.254545 
L 759.369565 -145.243636 
L 758.226171 -142.232727 
L 756.803994 -139.221818 
L 755.136096 -136.210909 
L 753.258308 -133.2 
L 751.208194 -130.189091 
L 749.023986 -127.178182 
L 746.7435 -124.167273 
L 744.403003 -121.156364 
L 742.03608 -118.145455 
L 739.672549 -115.134545 
L 737.337491 -112.123636 
L 735.050511 -109.112727 
L 732.82529 -106.101818 
L 730.669528 -103.090909 
L 728.585284 -100.08 
L 726.569735 -97.069091 
L 724.616281 -94.058182 
L 722.715913 -91.047273 
L 720.858705 -88.036364 
L 719.035306 -85.025455 
L 717.238261 -82.014545 
L 715.463062 -79.003636 
L 713.708821 -75.992727 
L 711.978521 -72.981818 
L 710.278849 -69.970909 
L 708.61964 -66.96 
z
" style="stroke: #4c4c4c; stroke-width: 1.5"/>
    </defs>
    <g clip-path="url(#pca0c56a273)">
     <use xlink:href="#m837af1ff89" x="0" y="432" style="fill: #b55d60; stroke: #4c4c4c; stroke-width: 1.5"/>
    </g>
   </g>
   <g id="line2d_9">
    <path d="M 145.960992 341.28 
L 237.439008 341.28 
" clip-path="url(#pca0c56a273)" style="fill: none; stroke-dasharray: 3.375,3.375; stroke-dashoffset: 0; stroke: #4c4c4c; stroke-width: 1.5"/>
   </g>
   <g id="line2d_10">
    <path d="M 143.17651 321.84 
L 240.22349 321.84 
" clip-path="url(#pca0c56a273)" style="fill: none; stroke-dasharray: 6.75,6.75; stroke-dashoffset: 0; stroke: #4c4c4c; stroke-width: 1.5"/>
   </g>
   <g id="line2d_11">
    <path d="M 154.070814 301.752 
L 229.329186 301.752 
" clip-path="url(#pca0c56a273)" style="fill: none; stroke-dasharray: 3.375,3.375; stroke-dashoffset: 0; stroke: #4c4c4c; stroke-width: 1.5"/>
   </g>
   <g id="line2d_12">
    <path d="M 304.856613 336.528 
L 413.343387 336.528 
" clip-path="url(#pca0c56a273)" style="fill: none; stroke-dasharray: 3.375,3.375; stroke-dashoffset: 0; stroke: #4c4c4c; stroke-width: 1.5"/>
   </g>
   <g id="line2d_13">
    <path d="M 297.033533 313.2 
L 421.166467 313.2 
" clip-path="url(#pca0c56a273)" style="fill: none; stroke-dasharray: 6.75,6.75; stroke-dashoffset: 0; stroke: #4c4c4c; stroke-width: 1.5"/>
   </g>
   <g id="line2d_14">
    <path d="M 312.287205 291.6 
L 405.912795 291.6 
" clip-path="url(#pca0c56a273)" style="fill: none; stroke-dasharray: 3.375,3.375; stroke-dashoffset: 0; stroke: #4c4c4c; stroke-width: 1.5"/>
   </g>
   <g id="line2d_15">
    <path d="M 488.362777 316.224 
L 564.637223 316.224 
" clip-path="url(#pca0c56a273)" style="fill: none; stroke-dasharray: 3.375,3.375; stroke-dashoffset: 0; stroke: #4c4c4c; stroke-width: 1.5"/>
   </g>
   <g id="line2d_16">
    <path d="M 484.009957 300.24 
L 568.990043 300.24 
" clip-path="url(#pca0c56a273)" style="fill: none; stroke-dasharray: 6.75,6.75; stroke-dashoffset: 0; stroke: #4c4c4c; stroke-width: 1.5"/>
   </g>
   <g id="line2d_17">
    <path d="M 493.806364 273.888 
L 559.193636 273.888 
" clip-path="url(#pca0c56a273)" style="fill: none; stroke-dasharray: 3.375,3.375; stroke-dashoffset: 0; stroke: #4c4c4c; stroke-width: 1.5"/>
   </g>
   <g id="line2d_18">
    <path d="M 641.584935 307.8 
L 746.215065 307.8 
" clip-path="url(#pca0c56a273)" style="fill: none; stroke-dasharray: 3.375,3.375; stroke-dashoffset: 0; stroke: #4c4c4c; stroke-width: 1.5"/>
   </g>
   <g id="line2d_19">
    <path d="M 627.6096 278.64 
L 760.1904 278.64 
" clip-path="url(#pca0c56a273)" style="fill: none; stroke-dasharray: 6.75,6.75; stroke-dashoffset: 0; stroke: #4c4c4c; stroke-width: 1.5"/>
   </g>
   <g id="line2d_20">
    <path d="M 636.201305 257.04 
L 751.598695 257.04 
" clip-path="url(#pca0c56a273)" style="fill: none; stroke-dasharray: 3.375,3.375; stroke-dashoffset: 0; stroke: #4c4c4c; stroke-width: 1.5"/>
   </g>
   <g id="patch_3">
    <path d="M 108 384.48 
L 108 51.84 
" style="fill: none; stroke: #ffffff; stroke-width: 1.25; stroke-linejoin: miter; stroke-linecap: square"/>
   </g>
   <g id="patch_4">
    <path d="M 777.6 384.48 
L 777.6 51.84 
" style="fill: none; stroke: #ffffff; stroke-width: 1.25; stroke-linejoin: miter; stroke-linecap: square"/>
   </g>
   <g id="patch_5">
    <path d="M 108 384.48 
L 777.6 384.48 
" style="fill: none; stroke: #ffffff; stroke-width: 1.25; stroke-linejoin: miter; stroke-linecap: square"/>
   </g>
   <g id="patch_6">
    <path d="M 108 51.84 
L 777.6 51.84 
" style="fill: none; stroke: #ffffff; stroke-width: 1.25; stroke-linejoin: miter; stroke-linecap: square"/>
   </g>
   <g id="text_15">
    <!-- Compensation by Year -->
    <g style="fill: #262626" transform="translate(382.422188 45.84)scale(0.12 -0.12)">
     <defs>
      <path id="ArialMT-43" d="M 3763 1606 
L 4369 1453 
Q 4178 706 3683 314 
Q 3188 -78 2472 -78 
Q 1731 -78 1267 223 
Q 803 525 561 1097 
Q 319 1669 319 2325 
Q 319 3041 592 3573 
Q 866 4106 1370 4382 
Q 1875 4659 2481 4659 
Q 3169 4659 3637 4309 
Q 4106 3959 4291 3325 
L 3694 3184 
Q 3534 3684 3231 3912 
Q 2928 4141 2469 4141 
Q 1941 4141 1586 3887 
Q 1231 3634 1087 3207 
Q 944 2781 944 2328 
Q 944 1744 1114 1308 
Q 1284 872 1643 656 
Q 2003 441 2422 441 
Q 2931 441 3284 734 
Q 3638 1028 3763 1606 
z
" transform="scale(0.015625)"/>
      <path id="ArialMT-70" d="M 422 -1272 
L 422 3319 
L 934 3319 
L 934 2888 
Q 1116 3141 1344 3267 
Q 1572 3394 1897 3394 
Q 2322 3394 2647 3175 
Q 2972 2956 3137 2557 
Q 3303 2159 3303 1684 
Q 3303 1175 3120 767 
Q 2938 359 2589 142 
Q 2241 -75 1856 -75 
Q 1575 -75 1351 44 
Q 1128 163 984 344 
L 984 -1272 
L 422 -1272 
z
M 931 1641 
Q 931 1000 1190 694 
Q 1450 388 1819 388 
Q 2194 388 2461 705 
Q 2728 1022 2728 1688 
Q 2728 2322 2467 2637 
Q 2206 2953 1844 2953 
Q 1484 2953 1207 2617 
Q 931 2281 931 1641 
z
" transform="scale(0.015625)"/>
      <path id="ArialMT-62" d="M 941 0 
L 419 0 
L 419 4581 
L 981 4581 
L 981 2947 
Q 1338 3394 1891 3394 
Q 2197 3394 2470 3270 
Q 2744 3147 2920 2923 
Q 3097 2700 3197 2384 
Q 3297 2069 3297 1709 
Q 3297 856 2875 390 
Q 2453 -75 1863 -75 
Q 1275 -75 941 416 
L 941 0 
z
M 934 1684 
Q 934 1088 1097 822 
Q 1363 388 1816 388 
Q 2184 388 2453 708 
Q 2722 1028 2722 1663 
Q 2722 2313 2464 2622 
Q 2206 2931 1841 2931 
Q 1472 2931 1203 2611 
Q 934 2291 934 1684 
z
" transform="scale(0.015625)"/>
      <path id="ArialMT-79" d="M 397 -1278 
L 334 -750 
Q 519 -800 656 -800 
Q 844 -800 956 -737 
Q 1069 -675 1141 -563 
Q 1194 -478 1313 -144 
Q 1328 -97 1363 -6 
L 103 3319 
L 709 3319 
L 1400 1397 
Q 1534 1031 1641 628 
Q 1738 1016 1872 1384 
L 2581 3319 
L 3144 3319 
L 1881 -56 
Q 1678 -603 1566 -809 
Q 1416 -1088 1222 -1217 
Q 1028 -1347 759 -1347 
Q 597 -1347 397 -1278 
z
" transform="scale(0.015625)"/>
     </defs>
     <use xlink:href="#ArialMT-43"/>
     <use xlink:href="#ArialMT-6f" x="72.216797"/>
     <use xlink:href="#ArialMT-6d" x="127.832031"/>
     <use xlink:href="#ArialMT-70" x="211.132812"/>
     <use xlink:href="#ArialMT-65" x="266.748047"/>
     <use xlink:href="#ArialMT-6e" x="322.363281"/>
     <use xlink:href="#ArialMT-73" x="377.978516"/>
     <use xlink:href="#ArialMT-61" x="427.978516"/>
     <use xlink:href="#ArialMT-74" x="483.59375"/>
     <use xlink:href="#ArialMT-69" x="511.376953"/>
     <use xlink:href="#ArialMT-6f" x="533.59375"/>
     <use xlink:href="#ArialMT-6e" x="589.208984"/>
     <use xlink:href="#ArialMT-20" x="644.824219"/>
     <use xlink:href="#ArialMT-62" x="672.607422"/>
     <use xlink:href="#ArialMT-79" x="728.222656"/>
     <use xlink:href="#ArialMT-20" x="778.222656"/>
     <use xlink:href="#ArialMT-59" x="804.255859"/>
     <use xlink:href="#ArialMT-65" x="861.830078"/>
     <use xlink:href="#ArialMT-61" x="917.445312"/>
     <use xlink:href="#ArialMT-72" x="973.060547"/>
    </g>
   </g>
  </g>
 </g>
 <defs>
  <clipPath id="pca0c56a273">
   <rect x="108" y="51.84" width="669.6" height="332.64"/>
  </clipPath>
 </defs>
</svg>
