<?xml version="1.0" encoding="utf-8" standalone="no"?>
<!DOCTYPE svg PUBLIC "-//W3C//DTD SVG 1.1//EN"
  "http://www.w3.org/Graphics/SVG/1.1/DTD/svg11.dtd">
<svg xmlns:xlink="http://www.w3.org/1999/xlink" width="864pt" height="432pt" viewBox="0 0 864 432" xmlns="http://www.w3.org/2000/svg" version="1.1">
 <metadata>
  <rdf:RDF xmlns:dc="http://purl.org/dc/elements/1.1/" xmlns:cc="http://creativecommons.org/ns#" xmlns:rdf="http://www.w3.org/1999/02/22-rdf-syntax-ns#">
   <cc:Work>
    <dc:type rdf:resource="http://purl.org/dc/dcmitype/StillImage"/>
    <dc:date>2023-02-27T12:19:07.288631</dc:date>
    <dc:format>image/svg+xml</dc:format>
    <dc:creator>
     <cc:Agent>
      <dc:title>Matplotlib v3.5.2, https://matplotlib.org/</dc:title>
     </cc:Agent>
    </dc:creator>
   </cc:Work>
  </rdf:RDF>
 </metadata>
 <defs>
  <style type="text/css">*{stroke-linejoin: round; stroke-linecap: butt}</style>
 </defs>
 <g id="figure_1">
  <g id="patch_1">
   <path d="M 0 432 
L 864 432 
L 864 0 
L 0 0 
z
" style="fill: #ffffff"/>
  </g>
  <g id="axes_1">
   <g id="patch_2">
    <path d="M 108 384.48 
L 777.6 384.48 
L 777.6 51.84 
L 108 51.84 
z
" style="fill: #eaeaf2"/>
   </g>
   <g id="matplotlib.axis_1">
    <g id="xtick_1">
     <g id="text_1">
      <!-- 1 -->
      <g style="fill: #262626" transform="translate(152.770056 401.853594)scale(0.11 -0.11)">
       <defs>
        <path id="ArialMT-31" d="M 2384 0 
L 1822 0 
L 1822 3584 
Q 1619 3391 1289 3197 
Q 959 3003 697 2906 
L 697 3450 
Q 1169 3672 1522 3987 
Q 1875 4303 2022 4600 
L 2384 4600 
L 2384 0 
z
" transform="scale(0.015625)"/>
       </defs>
       <use xlink:href="#ArialMT-31"/>
      </g>
     </g>
    </g>
    <g id="xtick_2">
     <g id="text_2">
      <!-- 2 -->
      <g style="fill: #262626" transform="translate(248.427199 401.853594)scale(0.11 -0.11)">
       <defs>
        <path id="ArialMT-32" d="M 3222 541 
L 3222 0 
L 194 0 
Q 188 203 259 391 
Q 375 700 629 1000 
Q 884 1300 1366 1694 
Q 2113 2306 2375 2664 
Q 2638 3022 2638 3341 
Q 2638 3675 2398 3904 
Q 2159 4134 1775 4134 
Q 1369 4134 1125 3890 
Q 881 3647 878 3216 
L 300 3275 
Q 359 3922 746 4261 
Q 1134 4600 1788 4600 
Q 2447 4600 2831 4234 
Q 3216 3869 3216 3328 
Q 3216 3053 3103 2787 
Q 2991 2522 2730 2228 
Q 2469 1934 1863 1422 
Q 1356 997 1212 845 
Q 1069 694 975 541 
L 3222 541 
z
" transform="scale(0.015625)"/>
       </defs>
       <use xlink:href="#ArialMT-32"/>
      </g>
     </g>
    </g>
    <g id="xtick_3">
     <g id="text_3">
      <!-- 3 -->
      <g style="fill: #262626" transform="translate(344.084342 401.853594)scale(0.11 -0.11)">
       <defs>
        <path id="ArialMT-33" d="M 269 1209 
L 831 1284 
Q 928 806 1161 595 
Q 1394 384 1728 384 
Q 2125 384 2398 659 
Q 2672 934 2672 1341 
Q 2672 1728 2419 1979 
Q 2166 2231 1775 2231 
Q 1616 2231 1378 2169 
L 1441 2663 
Q 1497 2656 1531 2656 
Q 1891 2656 2178 2843 
Q 2466 3031 2466 3422 
Q 2466 3731 2256 3934 
Q 2047 4138 1716 4138 
Q 1388 4138 1169 3931 
Q 950 3725 888 3313 
L 325 3413 
Q 428 3978 793 4289 
Q 1159 4600 1703 4600 
Q 2078 4600 2393 4439 
Q 2709 4278 2876 4000 
Q 3044 3722 3044 3409 
Q 3044 3113 2884 2869 
Q 2725 2625 2413 2481 
Q 2819 2388 3044 2092 
Q 3269 1797 3269 1353 
Q 3269 753 2831 336 
Q 2394 -81 1725 -81 
Q 1122 -81 723 278 
Q 325 638 269 1209 
z
" transform="scale(0.015625)"/>
       </defs>
       <use xlink:href="#ArialMT-33"/>
      </g>
     </g>
    </g>
    <g id="xtick_4">
     <g id="text_4">
      <!-- 4 -->
      <g style="fill: #262626" transform="translate(439.741484 401.853594)scale(0.11 -0.11)">
       <defs>
        <path id="ArialMT-34" d="M 2069 0 
L 2069 1097 
L 81 1097 
L 81 1613 
L 2172 4581 
L 2631 4581 
L 2631 1613 
L 3250 1613 
L 3250 1097 
L 2631 1097 
L 2631 0 
L 2069 0 
z
M 2069 1613 
L 2069 3678 
L 634 1613 
L 2069 1613 
z
" transform="scale(0.015625)"/>
       </defs>
       <use xlink:href="#ArialMT-34"/>
      </g>
     </g>
    </g>
    <g id="xtick_5">
     <g id="text_5">
      <!-- 5 -->
      <g style="fill: #262626" transform="translate(535.398627 401.853594)scale(0.11 -0.11)">
       <defs>
        <path id="ArialMT-35" d="M 266 1200 
L 856 1250 
Q 922 819 1161 601 
Q 1400 384 1738 384 
Q 2144 384 2425 690 
Q 2706 997 2706 1503 
Q 2706 1984 2436 2262 
Q 2166 2541 1728 2541 
Q 1456 2541 1237 2417 
Q 1019 2294 894 2097 
L 366 2166 
L 809 4519 
L 3088 4519 
L 3088 3981 
L 1259 3981 
L 1013 2750 
Q 1425 3038 1878 3038 
Q 2478 3038 2890 2622 
Q 3303 2206 3303 1553 
Q 3303 931 2941 478 
Q 2500 -78 1738 -78 
Q 1113 -78 717 272 
Q 322 622 266 1200 
z
" transform="scale(0.015625)"/>
       </defs>
       <use xlink:href="#ArialMT-35"/>
      </g>
     </g>
    </g>
    <g id="xtick_6">
     <g id="text_6">
      <!-- 6 -->
      <g style="fill: #262626" transform="translate(631.05577 401.853594)scale(0.11 -0.11)">
       <defs>
        <path id="ArialMT-36" d="M 3184 3459 
L 2625 3416 
Q 2550 3747 2413 3897 
Q 2184 4138 1850 4138 
Q 1581 4138 1378 3988 
Q 1113 3794 959 3422 
Q 806 3050 800 2363 
Q 1003 2672 1297 2822 
Q 1591 2972 1913 2972 
Q 2475 2972 2870 2558 
Q 3266 2144 3266 1488 
Q 3266 1056 3080 686 
Q 2894 316 2569 119 
Q 2244 -78 1831 -78 
Q 1128 -78 684 439 
Q 241 956 241 2144 
Q 241 3472 731 4075 
Q 1159 4600 1884 4600 
Q 2425 4600 2770 4297 
Q 3116 3994 3184 3459 
z
M 888 1484 
Q 888 1194 1011 928 
Q 1134 663 1356 523 
Q 1578 384 1822 384 
Q 2178 384 2434 671 
Q 2691 959 2691 1453 
Q 2691 1928 2437 2201 
Q 2184 2475 1800 2475 
Q 1419 2475 1153 2201 
Q 888 1928 888 1484 
z
" transform="scale(0.015625)"/>
       </defs>
       <use xlink:href="#ArialMT-36"/>
      </g>
     </g>
    </g>
    <g id="xtick_7">
     <g id="text_7">
      <!-- 7 -->
      <g style="fill: #262626" transform="translate(726.712913 401.853594)scale(0.11 -0.11)">
       <defs>
        <path id="ArialMT-37" d="M 303 3981 
L 303 4522 
L 3269 4522 
L 3269 4084 
Q 2831 3619 2401 2847 
Q 1972 2075 1738 1259 
Q 1569 684 1522 0 
L 944 0 
Q 953 541 1156 1306 
Q 1359 2072 1739 2783 
Q 2119 3494 2547 3981 
L 303 3981 
z
" transform="scale(0.015625)"/>
       </defs>
       <use xlink:href="#ArialMT-37"/>
      </g>
     </g>
    </g>
    <g id="text_8">
     <!-- Type of Work -->
     <g style="fill: #262626" transform="translate(407.562187 416.775469)scale(0.12 -0.12)">
      <defs>
       <path id="ArialMT-54" d="M 1659 0 
L 1659 4041 
L 150 4041 
L 150 4581 
L 3781 4581 
L 3781 4041 
L 2266 4041 
L 2266 0 
L 1659 0 
z
" transform="scale(0.015625)"/>
       <path id="ArialMT-79" d="M 397 -1278 
L 334 -750 
Q 519 -800 656 -800 
Q 844 -800 956 -737 
Q 1069 -675 1141 -563 
Q 1194 -478 1313 -144 
Q 1328 -97 1363 -6 
L 103 3319 
L 709 3319 
L 1400 1397 
Q 1534 1031 1641 628 
Q 1738 1016 1872 1384 
L 2581 3319 
L 3144 3319 
L 1881 -56 
Q 1678 -603 1566 -809 
Q 1416 -1088 1222 -1217 
Q 1028 -1347 759 -1347 
Q 597 -1347 397 -1278 
z
" transform="scale(0.015625)"/>
       <path id="ArialMT-70" d="M 422 -1272 
L 422 3319 
L 934 3319 
L 934 2888 
Q 1116 3141 1344 3267 
Q 1572 3394 1897 3394 
Q 2322 3394 2647 3175 
Q 2972 2956 3137 2557 
Q 3303 2159 3303 1684 
Q 3303 1175 3120 767 
Q 2938 359 2589 142 
Q 2241 -75 1856 -75 
Q 1575 -75 1351 44 
Q 1128 163 984 344 
L 984 -1272 
L 422 -1272 
z
M 931 1641 
Q 931 1000 1190 694 
Q 1450 388 1819 388 
Q 2194 388 2461 705 
Q 2728 1022 2728 1688 
Q 2728 2322 2467 2637 
Q 2206 2953 1844 2953 
Q 1484 2953 1207 2617 
Q 931 2281 931 1641 
z
" transform="scale(0.015625)"/>
       <path id="ArialMT-65" d="M 2694 1069 
L 3275 997 
Q 3138 488 2766 206 
Q 2394 -75 1816 -75 
Q 1088 -75 661 373 
Q 234 822 234 1631 
Q 234 2469 665 2931 
Q 1097 3394 1784 3394 
Q 2450 3394 2872 2941 
Q 3294 2488 3294 1666 
Q 3294 1616 3291 1516 
L 816 1516 
Q 847 969 1125 678 
Q 1403 388 1819 388 
Q 2128 388 2347 550 
Q 2566 713 2694 1069 
z
M 847 1978 
L 2700 1978 
Q 2663 2397 2488 2606 
Q 2219 2931 1791 2931 
Q 1403 2931 1139 2672 
Q 875 2413 847 1978 
z
" transform="scale(0.015625)"/>
       <path id="ArialMT-20" transform="scale(0.015625)"/>
       <path id="ArialMT-6f" d="M 213 1659 
Q 213 2581 725 3025 
Q 1153 3394 1769 3394 
Q 2453 3394 2887 2945 
Q 3322 2497 3322 1706 
Q 3322 1066 3130 698 
Q 2938 331 2570 128 
Q 2203 -75 1769 -75 
Q 1072 -75 642 372 
Q 213 819 213 1659 
z
M 791 1659 
Q 791 1022 1069 705 
Q 1347 388 1769 388 
Q 2188 388 2466 706 
Q 2744 1025 2744 1678 
Q 2744 2294 2464 2611 
Q 2184 2928 1769 2928 
Q 1347 2928 1069 2612 
Q 791 2297 791 1659 
z
" transform="scale(0.015625)"/>
       <path id="ArialMT-66" d="M 556 0 
L 556 2881 
L 59 2881 
L 59 3319 
L 556 3319 
L 556 3672 
Q 556 4006 616 4169 
Q 697 4388 901 4523 
Q 1106 4659 1475 4659 
Q 1713 4659 2000 4603 
L 1916 4113 
Q 1741 4144 1584 4144 
Q 1328 4144 1222 4034 
Q 1116 3925 1116 3625 
L 1116 3319 
L 1763 3319 
L 1763 2881 
L 1116 2881 
L 1116 0 
L 556 0 
z
" transform="scale(0.015625)"/>
       <path id="ArialMT-57" d="M 1294 0 
L 78 4581 
L 700 4581 
L 1397 1578 
Q 1509 1106 1591 641 
Q 1766 1375 1797 1488 
L 2669 4581 
L 3400 4581 
L 4056 2263 
Q 4303 1400 4413 641 
Q 4500 1075 4641 1638 
L 5359 4581 
L 5969 4581 
L 4713 0 
L 4128 0 
L 3163 3491 
Q 3041 3928 3019 4028 
Q 2947 3713 2884 3491 
L 1913 0 
L 1294 0 
z
" transform="scale(0.015625)"/>
       <path id="ArialMT-72" d="M 416 0 
L 416 3319 
L 922 3319 
L 922 2816 
Q 1116 3169 1280 3281 
Q 1444 3394 1641 3394 
Q 1925 3394 2219 3213 
L 2025 2691 
Q 1819 2813 1613 2813 
Q 1428 2813 1281 2702 
Q 1134 2591 1072 2394 
Q 978 2094 978 1738 
L 978 0 
L 416 0 
z
" transform="scale(0.015625)"/>
       <path id="ArialMT-6b" d="M 425 0 
L 425 4581 
L 988 4581 
L 988 1969 
L 2319 3319 
L 3047 3319 
L 1778 2088 
L 3175 0 
L 2481 0 
L 1384 1697 
L 988 1316 
L 988 0 
L 425 0 
z
" transform="scale(0.015625)"/>
      </defs>
      <use xlink:href="#ArialMT-54"/>
      <use xlink:href="#ArialMT-79" x="55.583984"/>
      <use xlink:href="#ArialMT-70" x="105.583984"/>
      <use xlink:href="#ArialMT-65" x="161.199219"/>
      <use xlink:href="#ArialMT-20" x="216.814453"/>
      <use xlink:href="#ArialMT-6f" x="244.597656"/>
      <use xlink:href="#ArialMT-66" x="300.212891"/>
      <use xlink:href="#ArialMT-20" x="327.996094"/>
      <use xlink:href="#ArialMT-57" x="355.779297"/>
      <use xlink:href="#ArialMT-6f" x="448.414062"/>
      <use xlink:href="#ArialMT-72" x="504.029297"/>
      <use xlink:href="#ArialMT-6b" x="537.330078"/>
     </g>
    </g>
   </g>
   <g id="matplotlib.axis_2">
    <g id="ytick_1">
     <g id="line2d_1">
      <path d="M 108 373.742609 
L 777.6 373.742609 
" clip-path="url(#p2c6c3f98f4)" style="fill: none; stroke: #ffffff; stroke-linecap: round"/>
     </g>
     <g id="text_9">
      <!-- 50 -->
      <g style="fill: #262626" transform="translate(86.265938 377.679406)scale(0.11 -0.11)">
       <defs>
        <path id="ArialMT-30" d="M 266 2259 
Q 266 3072 433 3567 
Q 600 4063 929 4331 
Q 1259 4600 1759 4600 
Q 2128 4600 2406 4451 
Q 2684 4303 2865 4023 
Q 3047 3744 3150 3342 
Q 3253 2941 3253 2259 
Q 3253 1453 3087 958 
Q 2922 463 2592 192 
Q 2263 -78 1759 -78 
Q 1097 -78 719 397 
Q 266 969 266 2259 
z
M 844 2259 
Q 844 1131 1108 757 
Q 1372 384 1759 384 
Q 2147 384 2411 759 
Q 2675 1134 2675 2259 
Q 2675 3391 2411 3762 
Q 2147 4134 1753 4134 
Q 1366 4134 1134 3806 
Q 844 3388 844 2259 
z
" transform="scale(0.015625)"/>
       </defs>
       <use xlink:href="#ArialMT-35"/>
       <use xlink:href="#ArialMT-30" x="55.615234"/>
      </g>
     </g>
    </g>
    <g id="ytick_2">
     <g id="line2d_2">
      <path d="M 108 329.916522 
L 777.6 329.916522 
" clip-path="url(#p2c6c3f98f4)" style="fill: none; stroke: #ffffff; stroke-linecap: round"/>
     </g>
     <g id="text_10">
      <!-- 100 -->
      <g style="fill: #262626" transform="translate(80.148906 333.853319)scale(0.11 -0.11)">
       <use xlink:href="#ArialMT-31"/>
       <use xlink:href="#ArialMT-30" x="55.615234"/>
       <use xlink:href="#ArialMT-30" x="111.230469"/>
      </g>
     </g>
    </g>
    <g id="ytick_3">
     <g id="line2d_3">
      <path d="M 108 286.090435 
L 777.6 286.090435 
" clip-path="url(#p2c6c3f98f4)" style="fill: none; stroke: #ffffff; stroke-linecap: round"/>
     </g>
     <g id="text_11">
      <!-- 150 -->
      <g style="fill: #262626" transform="translate(80.148906 290.027232)scale(0.11 -0.11)">
       <use xlink:href="#ArialMT-31"/>
       <use xlink:href="#ArialMT-35" x="55.615234"/>
       <use xlink:href="#ArialMT-30" x="111.230469"/>
      </g>
     </g>
    </g>
    <g id="ytick_4">
     <g id="line2d_4">
      <path d="M 108 242.264348 
L 777.6 242.264348 
" clip-path="url(#p2c6c3f98f4)" style="fill: none; stroke: #ffffff; stroke-linecap: round"/>
     </g>
     <g id="text_12">
      <!-- 200 -->
      <g style="fill: #262626" transform="translate(80.148906 246.201145)scale(0.11 -0.11)">
       <use xlink:href="#ArialMT-32"/>
       <use xlink:href="#ArialMT-30" x="55.615234"/>
       <use xlink:href="#ArialMT-30" x="111.230469"/>
      </g>
     </g>
    </g>
    <g id="ytick_5">
     <g id="line2d_5">
      <path d="M 108 198.438261 
L 777.6 198.438261 
" clip-path="url(#p2c6c3f98f4)" style="fill: none; stroke: #ffffff; stroke-linecap: round"/>
     </g>
     <g id="text_13">
      <!-- 250 -->
      <g style="fill: #262626" transform="translate(80.148906 202.375058)scale(0.11 -0.11)">
       <use xlink:href="#ArialMT-32"/>
       <use xlink:href="#ArialMT-35" x="55.615234"/>
       <use xlink:href="#ArialMT-30" x="111.230469"/>
      </g>
     </g>
    </g>
    <g id="ytick_6">
     <g id="line2d_6">
      <path d="M 108 154.612174 
L 777.6 154.612174 
" clip-path="url(#p2c6c3f98f4)" style="fill: none; stroke: #ffffff; stroke-linecap: round"/>
     </g>
     <g id="text_14">
      <!-- 300 -->
      <g style="fill: #262626" transform="translate(80.148906 158.548971)scale(0.11 -0.11)">
       <use xlink:href="#ArialMT-33"/>
       <use xlink:href="#ArialMT-30" x="55.615234"/>
       <use xlink:href="#ArialMT-30" x="111.230469"/>
      </g>
     </g>
    </g>
    <g id="ytick_7">
     <g id="line2d_7">
      <path d="M 108 110.786087 
L 777.6 110.786087 
" clip-path="url(#p2c6c3f98f4)" style="fill: none; stroke: #ffffff; stroke-linecap: round"/>
     </g>
     <g id="text_15">
      <!-- 350 -->
      <g style="fill: #262626" transform="translate(80.148906 114.722884)scale(0.11 -0.11)">
       <use xlink:href="#ArialMT-33"/>
       <use xlink:href="#ArialMT-35" x="55.615234"/>
       <use xlink:href="#ArialMT-30" x="111.230469"/>
      </g>
     </g>
    </g>
    <g id="ytick_8">
     <g id="line2d_8">
      <path d="M 108 66.96 
L 777.6 66.96 
" clip-path="url(#p2c6c3f98f4)" style="fill: none; stroke: #ffffff; stroke-linecap: round"/>
     </g>
     <g id="text_16">
      <!-- 400 -->
      <g style="fill: #262626" transform="translate(80.148906 70.896797)scale(0.11 -0.11)">
       <use xlink:href="#ArialMT-34"/>
       <use xlink:href="#ArialMT-30" x="55.615234"/>
       <use xlink:href="#ArialMT-30" x="111.230469"/>
      </g>
     </g>
    </g>
    <g id="text_17">
     <!-- Annual income (thousands) -->
     <g style="fill: #262626" transform="translate(73.623281 291.197812)rotate(-90)scale(0.12 -0.12)">
      <defs>
       <path id="ArialMT-41" d="M -9 0 
L 1750 4581 
L 2403 4581 
L 4278 0 
L 3588 0 
L 3053 1388 
L 1138 1388 
L 634 0 
L -9 0 
z
M 1313 1881 
L 2866 1881 
L 2388 3150 
Q 2169 3728 2063 4100 
Q 1975 3659 1816 3225 
L 1313 1881 
z
" transform="scale(0.015625)"/>
       <path id="ArialMT-6e" d="M 422 0 
L 422 3319 
L 928 3319 
L 928 2847 
Q 1294 3394 1984 3394 
Q 2284 3394 2536 3286 
Q 2788 3178 2913 3003 
Q 3038 2828 3088 2588 
Q 3119 2431 3119 2041 
L 3119 0 
L 2556 0 
L 2556 2019 
Q 2556 2363 2490 2533 
Q 2425 2703 2258 2804 
Q 2091 2906 1866 2906 
Q 1506 2906 1245 2678 
Q 984 2450 984 1813 
L 984 0 
L 422 0 
z
" transform="scale(0.015625)"/>
       <path id="ArialMT-75" d="M 2597 0 
L 2597 488 
Q 2209 -75 1544 -75 
Q 1250 -75 995 37 
Q 741 150 617 320 
Q 494 491 444 738 
Q 409 903 409 1263 
L 409 3319 
L 972 3319 
L 972 1478 
Q 972 1038 1006 884 
Q 1059 663 1231 536 
Q 1403 409 1656 409 
Q 1909 409 2131 539 
Q 2353 669 2445 892 
Q 2538 1116 2538 1541 
L 2538 3319 
L 3100 3319 
L 3100 0 
L 2597 0 
z
" transform="scale(0.015625)"/>
       <path id="ArialMT-61" d="M 2588 409 
Q 2275 144 1986 34 
Q 1697 -75 1366 -75 
Q 819 -75 525 192 
Q 231 459 231 875 
Q 231 1119 342 1320 
Q 453 1522 633 1644 
Q 813 1766 1038 1828 
Q 1203 1872 1538 1913 
Q 2219 1994 2541 2106 
Q 2544 2222 2544 2253 
Q 2544 2597 2384 2738 
Q 2169 2928 1744 2928 
Q 1347 2928 1158 2789 
Q 969 2650 878 2297 
L 328 2372 
Q 403 2725 575 2942 
Q 747 3159 1072 3276 
Q 1397 3394 1825 3394 
Q 2250 3394 2515 3294 
Q 2781 3194 2906 3042 
Q 3031 2891 3081 2659 
Q 3109 2516 3109 2141 
L 3109 1391 
Q 3109 606 3145 398 
Q 3181 191 3288 0 
L 2700 0 
Q 2613 175 2588 409 
z
M 2541 1666 
Q 2234 1541 1622 1453 
Q 1275 1403 1131 1340 
Q 988 1278 909 1158 
Q 831 1038 831 891 
Q 831 666 1001 516 
Q 1172 366 1500 366 
Q 1825 366 2078 508 
Q 2331 650 2450 897 
Q 2541 1088 2541 1459 
L 2541 1666 
z
" transform="scale(0.015625)"/>
       <path id="ArialMT-6c" d="M 409 0 
L 409 4581 
L 972 4581 
L 972 0 
L 409 0 
z
" transform="scale(0.015625)"/>
       <path id="ArialMT-69" d="M 425 3934 
L 425 4581 
L 988 4581 
L 988 3934 
L 425 3934 
z
M 425 0 
L 425 3319 
L 988 3319 
L 988 0 
L 425 0 
z
" transform="scale(0.015625)"/>
       <path id="ArialMT-63" d="M 2588 1216 
L 3141 1144 
Q 3050 572 2676 248 
Q 2303 -75 1759 -75 
Q 1078 -75 664 370 
Q 250 816 250 1647 
Q 250 2184 428 2587 
Q 606 2991 970 3192 
Q 1334 3394 1763 3394 
Q 2303 3394 2647 3120 
Q 2991 2847 3088 2344 
L 2541 2259 
Q 2463 2594 2264 2762 
Q 2066 2931 1784 2931 
Q 1359 2931 1093 2626 
Q 828 2322 828 1663 
Q 828 994 1084 691 
Q 1341 388 1753 388 
Q 2084 388 2306 591 
Q 2528 794 2588 1216 
z
" transform="scale(0.015625)"/>
       <path id="ArialMT-6d" d="M 422 0 
L 422 3319 
L 925 3319 
L 925 2853 
Q 1081 3097 1340 3245 
Q 1600 3394 1931 3394 
Q 2300 3394 2536 3241 
Q 2772 3088 2869 2813 
Q 3263 3394 3894 3394 
Q 4388 3394 4653 3120 
Q 4919 2847 4919 2278 
L 4919 0 
L 4359 0 
L 4359 2091 
Q 4359 2428 4304 2576 
Q 4250 2725 4106 2815 
Q 3963 2906 3769 2906 
Q 3419 2906 3187 2673 
Q 2956 2441 2956 1928 
L 2956 0 
L 2394 0 
L 2394 2156 
Q 2394 2531 2256 2718 
Q 2119 2906 1806 2906 
Q 1569 2906 1367 2781 
Q 1166 2656 1075 2415 
Q 984 2175 984 1722 
L 984 0 
L 422 0 
z
" transform="scale(0.015625)"/>
       <path id="ArialMT-28" d="M 1497 -1347 
Q 1031 -759 709 28 
Q 388 816 388 1659 
Q 388 2403 628 3084 
Q 909 3875 1497 4659 
L 1900 4659 
Q 1522 4009 1400 3731 
Q 1209 3300 1100 2831 
Q 966 2247 966 1656 
Q 966 153 1900 -1347 
L 1497 -1347 
z
" transform="scale(0.015625)"/>
       <path id="ArialMT-74" d="M 1650 503 
L 1731 6 
Q 1494 -44 1306 -44 
Q 1000 -44 831 53 
Q 663 150 594 308 
Q 525 466 525 972 
L 525 2881 
L 113 2881 
L 113 3319 
L 525 3319 
L 525 4141 
L 1084 4478 
L 1084 3319 
L 1650 3319 
L 1650 2881 
L 1084 2881 
L 1084 941 
Q 1084 700 1114 631 
Q 1144 563 1211 522 
Q 1278 481 1403 481 
Q 1497 481 1650 503 
z
" transform="scale(0.015625)"/>
       <path id="ArialMT-68" d="M 422 0 
L 422 4581 
L 984 4581 
L 984 2938 
Q 1378 3394 1978 3394 
Q 2347 3394 2619 3248 
Q 2891 3103 3008 2847 
Q 3125 2591 3125 2103 
L 3125 0 
L 2563 0 
L 2563 2103 
Q 2563 2525 2380 2717 
Q 2197 2909 1863 2909 
Q 1613 2909 1392 2779 
Q 1172 2650 1078 2428 
Q 984 2206 984 1816 
L 984 0 
L 422 0 
z
" transform="scale(0.015625)"/>
       <path id="ArialMT-73" d="M 197 991 
L 753 1078 
Q 800 744 1014 566 
Q 1228 388 1613 388 
Q 2000 388 2187 545 
Q 2375 703 2375 916 
Q 2375 1106 2209 1216 
Q 2094 1291 1634 1406 
Q 1016 1563 777 1677 
Q 538 1791 414 1992 
Q 291 2194 291 2438 
Q 291 2659 392 2848 
Q 494 3038 669 3163 
Q 800 3259 1026 3326 
Q 1253 3394 1513 3394 
Q 1903 3394 2198 3281 
Q 2494 3169 2634 2976 
Q 2775 2784 2828 2463 
L 2278 2388 
Q 2241 2644 2061 2787 
Q 1881 2931 1553 2931 
Q 1166 2931 1000 2803 
Q 834 2675 834 2503 
Q 834 2394 903 2306 
Q 972 2216 1119 2156 
Q 1203 2125 1616 2013 
Q 2213 1853 2448 1751 
Q 2684 1650 2818 1456 
Q 2953 1263 2953 975 
Q 2953 694 2789 445 
Q 2625 197 2315 61 
Q 2006 -75 1616 -75 
Q 969 -75 630 194 
Q 291 463 197 991 
z
" transform="scale(0.015625)"/>
       <path id="ArialMT-64" d="M 2575 0 
L 2575 419 
Q 2259 -75 1647 -75 
Q 1250 -75 917 144 
Q 584 363 401 755 
Q 219 1147 219 1656 
Q 219 2153 384 2558 
Q 550 2963 881 3178 
Q 1213 3394 1622 3394 
Q 1922 3394 2156 3267 
Q 2391 3141 2538 2938 
L 2538 4581 
L 3097 4581 
L 3097 0 
L 2575 0 
z
M 797 1656 
Q 797 1019 1065 703 
Q 1334 388 1700 388 
Q 2069 388 2326 689 
Q 2584 991 2584 1609 
Q 2584 2291 2321 2609 
Q 2059 2928 1675 2928 
Q 1300 2928 1048 2622 
Q 797 2316 797 1656 
z
" transform="scale(0.015625)"/>
       <path id="ArialMT-29" d="M 791 -1347 
L 388 -1347 
Q 1322 153 1322 1656 
Q 1322 2244 1188 2822 
Q 1081 3291 891 3722 
Q 769 4003 388 4659 
L 791 4659 
Q 1378 3875 1659 3084 
Q 1900 2403 1900 1659 
Q 1900 816 1576 28 
Q 1253 -759 791 -1347 
z
" transform="scale(0.015625)"/>
      </defs>
      <use xlink:href="#ArialMT-41"/>
      <use xlink:href="#ArialMT-6e" x="66.699219"/>
      <use xlink:href="#ArialMT-6e" x="122.314453"/>
      <use xlink:href="#ArialMT-75" x="177.929688"/>
      <use xlink:href="#ArialMT-61" x="233.544922"/>
      <use xlink:href="#ArialMT-6c" x="289.160156"/>
      <use xlink:href="#ArialMT-20" x="311.376953"/>
      <use xlink:href="#ArialMT-69" x="339.160156"/>
      <use xlink:href="#ArialMT-6e" x="361.376953"/>
      <use xlink:href="#ArialMT-63" x="416.992188"/>
      <use xlink:href="#ArialMT-6f" x="466.992188"/>
      <use xlink:href="#ArialMT-6d" x="522.607422"/>
      <use xlink:href="#ArialMT-65" x="605.908203"/>
      <use xlink:href="#ArialMT-20" x="661.523438"/>
      <use xlink:href="#ArialMT-28" x="689.306641"/>
      <use xlink:href="#ArialMT-74" x="722.607422"/>
      <use xlink:href="#ArialMT-68" x="750.390625"/>
      <use xlink:href="#ArialMT-6f" x="806.005859"/>
      <use xlink:href="#ArialMT-75" x="861.621094"/>
      <use xlink:href="#ArialMT-73" x="917.236328"/>
      <use xlink:href="#ArialMT-61" x="967.236328"/>
      <use xlink:href="#ArialMT-6e" x="1022.851562"/>
      <use xlink:href="#ArialMT-64" x="1078.466797"/>
      <use xlink:href="#ArialMT-73" x="1134.082031"/>
      <use xlink:href="#ArialMT-29" x="1184.082031"/>
     </g>
    </g>
   </g>
   <g id="PolyCollection_1">
    <defs>
     <path id="mdd9aea5aeb" d="M 157.268521 -62.64 
L 154.388622 -62.64 
L 154.382602 -63.481107 
L 154.378409 -64.322213 
L 154.376057 -65.16332 
L 154.375552 -66.004427 
L 154.376891 -66.845534 
L 154.380065 -67.68664 
L 154.385059 -68.527747 
L 154.391848 -69.368854 
L 154.400401 -70.20996 
L 154.410679 -71.051067 
L 154.422637 -71.892174 
L 154.436223 -72.733281 
L 154.451379 -73.574387 
L 154.46804 -74.415494 
L 154.486136 -75.256601 
L 154.505592 -76.097708 
L 154.526328 -76.938814 
L 154.548257 -77.779921 
L 154.571293 -78.621028 
L 154.595341 -79.462134 
L 154.620306 -80.303241 
L 154.646091 -81.144348 
L 154.672595 -81.985455 
L 154.699717 -82.826561 
L 154.727353 -83.667668 
L 154.7554 -84.508775 
L 154.783755 -85.349881 
L 154.812314 -86.190988 
L 154.840977 -87.032095 
L 154.86964 -87.873202 
L 154.898207 -88.714308 
L 154.926579 -89.555415 
L 154.954662 -90.396522 
L 154.982366 -91.237628 
L 155.009601 -92.078735 
L 155.036283 -92.919842 
L 155.062332 -93.760949 
L 155.087671 -94.602055 
L 155.112229 -95.443162 
L 155.135936 -96.284269 
L 155.158731 -97.125375 
L 155.180555 -97.966482 
L 155.201356 -98.807589 
L 155.221086 -99.648696 
L 155.239702 -100.489802 
L 155.257168 -101.330909 
L 155.27345 -102.172016 
L 155.288523 -103.013123 
L 155.302364 -103.854229 
L 155.314959 -104.695336 
L 155.326295 -105.536443 
L 155.336367 -106.377549 
L 155.345175 -107.218656 
L 155.352723 -108.059763 
L 155.359019 -108.90087 
L 155.364078 -109.741976 
L 155.367919 -110.583083 
L 155.370564 -111.42419 
L 155.37204 -112.265296 
L 155.37238 -113.106403 
L 155.371619 -113.94751 
L 155.369796 -114.788617 
L 155.366954 -115.629723 
L 155.363139 -116.47083 
L 155.358402 -117.311937 
L 155.352794 -118.153043 
L 155.346372 -118.99415 
L 155.339192 -119.835257 
L 155.331316 -120.676364 
L 155.322806 -121.51747 
L 155.313727 -122.358577 
L 155.304143 -123.199684 
L 155.294122 -124.040791 
L 155.283733 -124.881897 
L 155.273044 -125.723004 
L 155.262125 -126.564111 
L 155.251045 -127.405217 
L 155.239874 -128.246324 
L 155.228682 -129.087431 
L 155.217537 -129.928538 
L 155.206507 -130.769644 
L 155.195659 -131.610751 
L 155.185057 -132.451858 
L 155.174766 -133.292964 
L 155.164845 -134.134071 
L 155.155355 -134.975178 
L 155.146353 -135.816285 
L 155.137891 -136.657391 
L 155.13002 -137.498498 
L 155.122789 -138.339605 
L 155.116242 -139.180711 
L 155.110418 -140.021818 
L 155.105356 -140.862925 
L 155.101087 -141.704032 
L 155.097642 -142.545138 
L 155.095044 -143.386245 
L 155.093314 -144.227352 
L 155.092469 -145.068458 
L 155.092521 -145.909565 
L 156.564621 -145.909565 
L 156.564621 -145.909565 
L 156.564673 -145.068458 
L 156.563829 -144.227352 
L 156.562099 -143.386245 
L 156.559501 -142.545138 
L 156.556055 -141.704032 
L 156.551787 -140.862925 
L 156.546724 -140.021818 
L 156.540901 -139.180711 
L 156.534353 -138.339605 
L 156.527122 -137.498498 
L 156.519252 -136.657391 
L 156.51079 -135.816285 
L 156.501787 -134.975178 
L 156.492298 -134.134071 
L 156.482377 -133.292964 
L 156.472086 -132.451858 
L 156.461484 -131.610751 
L 156.450635 -130.769644 
L 156.439605 -129.928538 
L 156.428461 -129.087431 
L 156.417268 -128.246324 
L 156.406098 -127.405217 
L 156.395018 -126.564111 
L 156.384099 -125.723004 
L 156.37341 -124.881897 
L 156.363021 -124.040791 
L 156.353 -123.199684 
L 156.343416 -122.358577 
L 156.334336 -121.51747 
L 156.325826 -120.676364 
L 156.317951 -119.835257 
L 156.310771 -118.99415 
L 156.304349 -118.153043 
L 156.298741 -117.311937 
L 156.294004 -116.47083 
L 156.290189 -115.629723 
L 156.287347 -114.788617 
L 156.285524 -113.94751 
L 156.284763 -113.106403 
L 156.285103 -112.265296 
L 156.286579 -111.42419 
L 156.289224 -110.583083 
L 156.293065 -109.741976 
L 156.298124 -108.90087 
L 156.30442 -108.059763 
L 156.311968 -107.218656 
L 156.320776 -106.377549 
L 156.330848 -105.536443 
L 156.342184 -104.695336 
L 156.354779 -103.854229 
L 156.36862 -103.013123 
L 156.383693 -102.172016 
L 156.399975 -101.330909 
L 156.41744 -100.489802 
L 156.436057 -99.648696 
L 156.455787 -98.807589 
L 156.476588 -97.966482 
L 156.498412 -97.125375 
L 156.521207 -96.284269 
L 156.544914 -95.443162 
L 156.569471 -94.602055 
L 156.594811 -93.760949 
L 156.62086 -92.919842 
L 156.647542 -92.078735 
L 156.674777 -91.237628 
L 156.702481 -90.396522 
L 156.730564 -89.555415 
L 156.758936 -88.714308 
L 156.787503 -87.873202 
L 156.816166 -87.032095 
L 156.844828 -86.190988 
L 156.873388 -85.349881 
L 156.901743 -84.508775 
L 156.92979 -83.667668 
L 156.957426 -82.826561 
L 156.984547 -81.985455 
L 157.011052 -81.144348 
L 157.036836 -80.303241 
L 157.061802 -79.462134 
L 157.08585 -78.621028 
L 157.108885 -77.779921 
L 157.130815 -76.938814 
L 157.15155 -76.097708 
L 157.171007 -75.256601 
L 157.189103 -74.415494 
L 157.205764 -73.574387 
L 157.22092 -72.733281 
L 157.234506 -71.892174 
L 157.246464 -71.051067 
L 157.256742 -70.20996 
L 157.265295 -69.368854 
L 157.272084 -68.527747 
L 157.277077 -67.68664 
L 157.280252 -66.845534 
L 157.281591 -66.004427 
L 157.281086 -65.16332 
L 157.278734 -64.322213 
L 157.274541 -63.481107 
L 157.268521 -62.64 
z
" style="stroke: #494949; stroke-width: 1.5"/>
    </defs>
    <g clip-path="url(#p2c6c3f98f4)">
     <use xlink:href="#mdd9aea5aeb" x="0" y="432" style="fill: #5875a4; stroke: #494949; stroke-width: 1.5"/>
    </g>
   </g>
   <g id="PolyCollection_2">
    <defs>
     <path id="mc6b509a131" d="M 252.452925 -115.231304 
L 250.518503 -115.231304 
L 250.517434 -115.364111 
L 250.517034 -115.496917 
L 250.517294 -115.629723 
L 250.518203 -115.76253 
L 250.519748 -115.895336 
L 250.521914 -116.028142 
L 250.524684 -116.160949 
L 250.528037 -116.293755 
L 250.531955 -116.426561 
L 250.536413 -116.559368 
L 250.541388 -116.692174 
L 250.546853 -116.82498 
L 250.552779 -116.957787 
L 250.559139 -117.090593 
L 250.565901 -117.223399 
L 250.573032 -117.356206 
L 250.580501 -117.489012 
L 250.588272 -117.621818 
L 250.596311 -117.754625 
L 250.604581 -117.887431 
L 250.613047 -118.020237 
L 250.621669 -118.153043 
L 250.630413 -118.28585 
L 250.639238 -118.418656 
L 250.648108 -118.551462 
L 250.656984 -118.684269 
L 250.665829 -118.817075 
L 250.674605 -118.949881 
L 250.683275 -119.082688 
L 250.691803 -119.215494 
L 250.700153 -119.3483 
L 250.70829 -119.481107 
L 250.71618 -119.613913 
L 250.723791 -119.746719 
L 250.731091 -119.879526 
L 250.73805 -120.012332 
L 250.744638 -120.145138 
L 250.750829 -120.277945 
L 250.756598 -120.410751 
L 250.761921 -120.543557 
L 250.766775 -120.676364 
L 250.771141 -120.80917 
L 250.775002 -120.941976 
L 250.778341 -121.074783 
L 250.781144 -121.207589 
L 250.7834 -121.340395 
L 250.785101 -121.473202 
L 250.786239 -121.606008 
L 250.786808 -121.738814 
L 250.786808 -121.871621 
L 250.786239 -122.004427 
L 250.785101 -122.137233 
L 250.7834 -122.27004 
L 250.781144 -122.402846 
L 250.778341 -122.535652 
L 250.775002 -122.668458 
L 250.771141 -122.801265 
L 250.766775 -122.934071 
L 250.761921 -123.066877 
L 250.756598 -123.199684 
L 250.750829 -123.33249 
L 250.744638 -123.465296 
L 250.73805 -123.598103 
L 250.731091 -123.730909 
L 250.723791 -123.863715 
L 250.71618 -123.996522 
L 250.70829 -124.129328 
L 250.700153 -124.262134 
L 250.691803 -124.394941 
L 250.683275 -124.527747 
L 250.674605 -124.660553 
L 250.665829 -124.79336 
L 250.656984 -124.926166 
L 250.648108 -125.058972 
L 250.639238 -125.191779 
L 250.630413 -125.324585 
L 250.621669 -125.457391 
L 250.613047 -125.590198 
L 250.604581 -125.723004 
L 250.596311 -125.85581 
L 250.588272 -125.988617 
L 250.580501 -126.121423 
L 250.573032 -126.254229 
L 250.565901 -126.387036 
L 250.559139 -126.519842 
L 250.552779 -126.652648 
L 250.546853 -126.785455 
L 250.541388 -126.918261 
L 250.536413 -127.051067 
L 250.531955 -127.183874 
L 250.528037 -127.31668 
L 250.524684 -127.449486 
L 250.521914 -127.582292 
L 250.519748 -127.715099 
L 250.518203 -127.847905 
L 250.517294 -127.980711 
L 250.517034 -128.113518 
L 250.517434 -128.246324 
L 250.518503 -128.37913 
L 252.452925 -128.37913 
L 252.452925 -128.37913 
L 252.453994 -128.246324 
L 252.454394 -128.113518 
L 252.454134 -127.980711 
L 252.453225 -127.847905 
L 252.45168 -127.715099 
L 252.449514 -127.582292 
L 252.446745 -127.449486 
L 252.443391 -127.31668 
L 252.439473 -127.183874 
L 252.435015 -127.051067 
L 252.43004 -126.918261 
L 252.424576 -126.785455 
L 252.418649 -126.652648 
L 252.41229 -126.519842 
L 252.405528 -126.387036 
L 252.398396 -126.254229 
L 252.390928 -126.121423 
L 252.383156 -125.988617 
L 252.375118 -125.85581 
L 252.366847 -125.723004 
L 252.358382 -125.590198 
L 252.349759 -125.457391 
L 252.341016 -125.324585 
L 252.332191 -125.191779 
L 252.323321 -125.058972 
L 252.314445 -124.926166 
L 252.3056 -124.79336 
L 252.296824 -124.660553 
L 252.288153 -124.527747 
L 252.279626 -124.394941 
L 252.271276 -124.262134 
L 252.263138 -124.129328 
L 252.255248 -123.996522 
L 252.247637 -123.863715 
L 252.240338 -123.730909 
L 252.233379 -123.598103 
L 252.22679 -123.465296 
L 252.220599 -123.33249 
L 252.21483 -123.199684 
L 252.209508 -123.066877 
L 252.204653 -122.934071 
L 252.200287 -122.801265 
L 252.196427 -122.668458 
L 252.193088 -122.535652 
L 252.190285 -122.402846 
L 252.188028 -122.27004 
L 252.186328 -122.137233 
L 252.18519 -122.004427 
L 252.18462 -121.871621 
L 252.18462 -121.738814 
L 252.18519 -121.606008 
L 252.186328 -121.473202 
L 252.188028 -121.340395 
L 252.190285 -121.207589 
L 252.193088 -121.074783 
L 252.196427 -120.941976 
L 252.200287 -120.80917 
L 252.204653 -120.676364 
L 252.209508 -120.543557 
L 252.21483 -120.410751 
L 252.220599 -120.277945 
L 252.22679 -120.145138 
L 252.233379 -120.012332 
L 252.240338 -119.879526 
L 252.247637 -119.746719 
L 252.255248 -119.613913 
L 252.263138 -119.481107 
L 252.271276 -119.3483 
L 252.279626 -119.215494 
L 252.288153 -119.082688 
L 252.296824 -118.949881 
L 252.3056 -118.817075 
L 252.314445 -118.684269 
L 252.323321 -118.551462 
L 252.332191 -118.418656 
L 252.341016 -118.28585 
L 252.349759 -118.153043 
L 252.358382 -118.020237 
L 252.366847 -117.887431 
L 252.375118 -117.754625 
L 252.383156 -117.621818 
L 252.390928 -117.489012 
L 252.398396 -117.356206 
L 252.405528 -117.223399 
L 252.41229 -117.090593 
L 252.418649 -116.957787 
L 252.424576 -116.82498 
L 252.43004 -116.692174 
L 252.435015 -116.559368 
L 252.439473 -116.426561 
L 252.443391 -116.293755 
L 252.446745 -116.160949 
L 252.449514 -116.028142 
L 252.45168 -115.895336 
L 252.453225 -115.76253 
L 252.454134 -115.629723 
L 252.454394 -115.496917 
L 252.453994 -115.364111 
L 252.452925 -115.231304 
z
" style="stroke: #494949; stroke-width: 1.5"/>
    </defs>
    <g clip-path="url(#p2c6c3f98f4)">
     <use xlink:href="#mc6b509a131" x="0" y="432" style="fill: #cc8963; stroke: #494949; stroke-width: 1.5"/>
    </g>
   </g>
   <g id="PolyCollection_3">
    <defs>
     <path id="m55efed4f0b" d="M 443.718968 -75.787826 
L 441.881032 -75.787826 
L 441.878571 -76.628933 
L 441.878081 -77.47004 
L 441.879476 -78.311146 
L 441.882645 -79.152253 
L 441.887454 -79.99336 
L 441.893747 -80.834466 
L 441.901345 -81.675573 
L 441.910052 -82.51668 
L 441.919655 -83.357787 
L 441.929925 -84.198893 
L 441.94062 -85.04 
L 441.951487 -85.881107 
L 441.962269 -86.722213 
L 441.972701 -87.56332 
L 441.982517 -88.404427 
L 441.991454 -89.245534 
L 441.999252 -90.08664 
L 442.005657 -90.927747 
L 442.010427 -91.768854 
L 442.013331 -92.60996 
L 442.014154 -93.451067 
L 442.012698 -94.292174 
L 442.008785 -95.133281 
L 442.00226 -95.974387 
L 441.992989 -96.815494 
L 441.980863 -97.656601 
L 441.965802 -98.497708 
L 441.94775 -99.338814 
L 441.926678 -100.179921 
L 441.902589 -101.021028 
L 441.875509 -101.862134 
L 441.845493 -102.703241 
L 441.812623 -103.544348 
L 441.777008 -104.385455 
L 441.738779 -105.226561 
L 441.698093 -106.067668 
L 441.655125 -106.908775 
L 441.610073 -107.749881 
L 441.56315 -108.590988 
L 441.514585 -109.432095 
L 441.464619 -110.273202 
L 441.413504 -111.114308 
L 441.361497 -111.955415 
L 441.308863 -112.796522 
L 441.255866 -113.637628 
L 441.202771 -114.478735 
L 441.149839 -115.319842 
L 441.097326 -116.160949 
L 441.045477 -117.002055 
L 440.994531 -117.843162 
L 440.944712 -118.684269 
L 440.896229 -119.525375 
L 440.849277 -120.366482 
L 440.804034 -121.207589 
L 440.76066 -122.048696 
L 440.719296 -122.889802 
L 440.680065 -123.730909 
L 440.643071 -124.572016 
L 440.608397 -125.413123 
L 440.576112 -126.254229 
L 440.546265 -127.095336 
L 440.518888 -127.936443 
L 440.494 -128.777549 
L 440.471605 -129.618656 
L 440.451695 -130.459763 
L 440.434252 -131.30087 
L 440.419248 -132.141976 
L 440.406651 -132.983083 
L 440.39642 -133.82419 
L 440.388514 -134.665296 
L 440.382888 -135.506403 
L 440.379497 -136.34751 
L 440.3783 -137.188617 
L 440.379255 -138.029723 
L 440.382325 -138.87083 
L 440.387476 -139.711937 
L 440.394681 -140.553043 
L 440.403916 -141.39415 
L 440.415164 -142.235257 
L 440.428411 -143.076364 
L 440.44365 -143.91747 
L 440.460877 -144.758577 
L 440.48009 -145.599684 
L 440.501291 -146.440791 
L 440.524483 -147.281897 
L 440.54967 -148.123004 
L 440.576852 -148.964111 
L 440.606028 -149.805217 
L 440.637193 -150.646324 
L 440.670338 -151.487431 
L 440.705443 -152.328538 
L 440.742486 -153.169644 
L 440.781431 -154.010751 
L 440.822235 -154.851858 
L 440.864843 -155.692964 
L 440.909191 -156.534071 
L 440.9552 -157.375178 
L 441.002781 -158.216285 
L 441.051834 -159.057391 
L 444.548166 -159.057391 
L 444.548166 -159.057391 
L 444.597219 -158.216285 
L 444.6448 -157.375178 
L 444.690809 -156.534071 
L 444.735157 -155.692964 
L 444.777765 -154.851858 
L 444.818569 -154.010751 
L 444.857514 -153.169644 
L 444.894557 -152.328538 
L 444.929662 -151.487431 
L 444.962807 -150.646324 
L 444.993972 -149.805217 
L 445.023148 -148.964111 
L 445.05033 -148.123004 
L 445.075517 -147.281897 
L 445.098709 -146.440791 
L 445.11991 -145.599684 
L 445.139123 -144.758577 
L 445.15635 -143.91747 
L 445.171589 -143.076364 
L 445.184836 -142.235257 
L 445.196084 -141.39415 
L 445.205319 -140.553043 
L 445.212524 -139.711937 
L 445.217675 -138.87083 
L 445.220745 -138.029723 
L 445.2217 -137.188617 
L 445.220503 -136.34751 
L 445.217112 -135.506403 
L 445.211486 -134.665296 
L 445.20358 -133.82419 
L 445.193349 -132.983083 
L 445.180752 -132.141976 
L 445.165748 -131.30087 
L 445.148305 -130.459763 
L 445.128395 -129.618656 
L 445.106 -128.777549 
L 445.081112 -127.936443 
L 445.053735 -127.095336 
L 445.023888 -126.254229 
L 444.991603 -125.413123 
L 444.956929 -124.572016 
L 444.919935 -123.730909 
L 444.880704 -122.889802 
L 444.83934 -122.048696 
L 444.795966 -121.207589 
L 444.750723 -120.366482 
L 444.703771 -119.525375 
L 444.655288 -118.684269 
L 444.605469 -117.843162 
L 444.554523 -117.002055 
L 444.502674 -116.160949 
L 444.450161 -115.319842 
L 444.397229 -114.478735 
L 444.344134 -113.637628 
L 444.291137 -112.796522 
L 444.238503 -111.955415 
L 444.186496 -111.114308 
L 444.135381 -110.273202 
L 444.085415 -109.432095 
L 444.03685 -108.590988 
L 443.989927 -107.749881 
L 443.944875 -106.908775 
L 443.901907 -106.067668 
L 443.861221 -105.226561 
L 443.822992 -104.385455 
L 443.787377 -103.544348 
L 443.754507 -102.703241 
L 443.724491 -101.862134 
L 443.697411 -101.021028 
L 443.673322 -100.179921 
L 443.65225 -99.338814 
L 443.634198 -98.497708 
L 443.619137 -97.656601 
L 443.607011 -96.815494 
L 443.59774 -95.974387 
L 443.591215 -95.133281 
L 443.587302 -94.292174 
L 443.585846 -93.451067 
L 443.586669 -92.60996 
L 443.589573 -91.768854 
L 443.594343 -90.927747 
L 443.600748 -90.08664 
L 443.608546 -89.245534 
L 443.617483 -88.404427 
L 443.627299 -87.56332 
L 443.637731 -86.722213 
L 443.648513 -85.881107 
L 443.65938 -85.04 
L 443.670075 -84.198893 
L 443.680345 -83.357787 
L 443.689948 -82.51668 
L 443.698655 -81.675573 
L 443.706253 -80.834466 
L 443.712546 -79.99336 
L 443.717355 -79.152253 
L 443.720524 -78.311146 
L 443.721919 -77.47004 
L 443.721429 -76.628933 
L 443.718968 -75.787826 
z
" style="stroke: #494949; stroke-width: 1.5"/>
    </defs>
    <g clip-path="url(#p2c6c3f98f4)">
     <use xlink:href="#m55efed4f0b" x="0" y="432" style="fill: #b55d60; stroke: #494949; stroke-width: 1.5"/>
    </g>
   </g>
   <g id="PolyCollection_4">
    <defs>
     <path id="mca282e8878" d="M 540.070276 -71.405217 
L 536.84401 -71.405217 
L 536.812403 -72.290593 
L 536.782495 -73.175968 
L 536.75435 -74.061344 
L 536.728022 -74.946719 
L 536.703555 -75.832095 
L 536.680981 -76.71747 
L 536.660323 -77.602846 
L 536.641592 -78.488221 
L 536.62479 -79.373597 
L 536.609906 -80.258972 
L 536.596921 -81.144348 
L 536.585804 -82.029723 
L 536.576515 -82.915099 
L 536.569003 -83.800474 
L 536.563209 -84.68585 
L 536.559065 -85.571225 
L 536.556494 -86.456601 
L 536.555411 -87.341976 
L 536.555725 -88.227352 
L 536.557337 -89.112727 
L 536.560143 -89.998103 
L 536.564032 -90.883478 
L 536.568892 -91.768854 
L 536.574603 -92.654229 
L 536.581046 -93.539605 
L 536.588097 -94.42498 
L 536.595633 -95.310356 
L 536.603528 -96.195731 
L 536.61166 -97.081107 
L 536.619905 -97.966482 
L 536.628143 -98.851858 
L 536.636257 -99.737233 
L 536.644132 -100.622609 
L 536.651659 -101.507984 
L 536.658733 -102.39336 
L 536.665256 -103.278735 
L 536.671134 -104.164111 
L 536.676282 -105.049486 
L 536.680619 -105.934862 
L 536.684075 -106.820237 
L 536.686584 -107.705613 
L 536.68809 -108.590988 
L 536.688542 -109.476364 
L 536.687899 -110.361739 
L 536.686126 -111.247115 
L 536.683195 -112.13249 
L 536.679088 -113.017866 
L 536.67379 -113.903241 
L 536.667294 -114.788617 
L 536.659601 -115.673992 
L 536.650714 -116.559368 
L 536.640645 -117.444743 
L 536.629411 -118.330119 
L 536.617033 -119.215494 
L 536.603537 -120.10087 
L 536.588956 -120.986245 
L 536.573324 -121.871621 
L 536.556684 -122.756996 
L 536.539081 -123.642372 
L 536.520565 -124.527747 
L 536.501195 -125.413123 
L 536.48103 -126.298498 
L 536.460138 -127.183874 
L 536.438593 -128.069249 
L 536.416476 -128.954625 
L 536.393871 -129.84 
L 536.370875 -130.725375 
L 536.347587 -131.610751 
L 536.324117 -132.496126 
L 536.300581 -133.381502 
L 536.277105 -134.266877 
L 536.25382 -135.152253 
L 536.230867 -136.037628 
L 536.208393 -136.923004 
L 536.186553 -137.808379 
L 536.165507 -138.693755 
L 536.145422 -139.57913 
L 536.126467 -140.464506 
L 536.108817 -141.349881 
L 536.092648 -142.235257 
L 536.078136 -143.120632 
L 536.065457 -144.006008 
L 536.054786 -144.891383 
L 536.046289 -145.776759 
L 536.040132 -146.662134 
L 536.036468 -147.54751 
L 536.035443 -148.432885 
L 536.037191 -149.318261 
L 536.041833 -150.203636 
L 536.049475 -151.089012 
L 536.060205 -151.974387 
L 536.074095 -152.859763 
L 536.091197 -153.745138 
L 536.111545 -154.630514 
L 536.135148 -155.515889 
L 536.161998 -156.401265 
L 536.192063 -157.28664 
L 536.225289 -158.172016 
L 536.261601 -159.057391 
L 540.652685 -159.057391 
L 540.652685 -159.057391 
L 540.688997 -158.172016 
L 540.722223 -157.28664 
L 540.752287 -156.401265 
L 540.779137 -155.515889 
L 540.802741 -154.630514 
L 540.823088 -153.745138 
L 540.840191 -152.859763 
L 540.854081 -151.974387 
L 540.864811 -151.089012 
L 540.872452 -150.203636 
L 540.877094 -149.318261 
L 540.878843 -148.432885 
L 540.877818 -147.54751 
L 540.874154 -146.662134 
L 540.867996 -145.776759 
L 540.8595 -144.891383 
L 540.848828 -144.006008 
L 540.83615 -143.120632 
L 540.821638 -142.235257 
L 540.805469 -141.349881 
L 540.787819 -140.464506 
L 540.768864 -139.57913 
L 540.748778 -138.693755 
L 540.727732 -137.808379 
L 540.705892 -136.923004 
L 540.683419 -136.037628 
L 540.660466 -135.152253 
L 540.637181 -134.266877 
L 540.613704 -133.381502 
L 540.590169 -132.496126 
L 540.566699 -131.610751 
L 540.543411 -130.725375 
L 540.520414 -129.84 
L 540.49781 -128.954625 
L 540.475692 -128.069249 
L 540.454148 -127.183874 
L 540.433256 -126.298498 
L 540.413091 -125.413123 
L 540.39372 -124.527747 
L 540.375205 -123.642372 
L 540.357602 -122.756996 
L 540.340962 -121.871621 
L 540.32533 -120.986245 
L 540.310748 -120.10087 
L 540.297253 -119.215494 
L 540.284874 -118.330119 
L 540.27364 -117.444743 
L 540.263572 -116.559368 
L 540.254685 -115.673992 
L 540.246991 -114.788617 
L 540.240496 -113.903241 
L 540.235198 -113.017866 
L 540.23109 -112.13249 
L 540.22816 -111.247115 
L 540.226387 -110.361739 
L 540.225744 -109.476364 
L 540.226196 -108.590988 
L 540.227702 -107.705613 
L 540.230211 -106.820237 
L 540.233666 -105.934862 
L 540.238004 -105.049486 
L 540.243152 -104.164111 
L 540.24903 -103.278735 
L 540.255553 -102.39336 
L 540.262627 -101.507984 
L 540.270154 -100.622609 
L 540.278029 -99.737233 
L 540.286142 -98.851858 
L 540.294381 -97.966482 
L 540.302626 -97.081107 
L 540.310757 -96.195731 
L 540.318653 -95.310356 
L 540.326189 -94.42498 
L 540.33324 -93.539605 
L 540.339682 -92.654229 
L 540.345394 -91.768854 
L 540.350253 -90.883478 
L 540.354143 -89.998103 
L 540.356948 -89.112727 
L 540.35856 -88.227352 
L 540.358874 -87.341976 
L 540.357792 -86.456601 
L 540.355221 -85.571225 
L 540.351077 -84.68585 
L 540.345283 -83.800474 
L 540.337771 -82.915099 
L 540.328482 -82.029723 
L 540.317365 -81.144348 
L 540.30438 -80.258972 
L 540.289496 -79.373597 
L 540.272694 -78.488221 
L 540.253963 -77.602846 
L 540.233305 -76.71747 
L 540.210731 -75.832095 
L 540.186264 -74.946719 
L 540.159936 -74.061344 
L 540.131791 -73.175968 
L 540.101883 -72.290593 
L 540.070276 -71.405217 
z
" style="stroke: #494949; stroke-width: 1.5"/>
    </defs>
    <g clip-path="url(#p2c6c3f98f4)">
     <use xlink:href="#mca282e8878" x="0" y="432" style="fill: #857aab; stroke: #494949; stroke-width: 1.5"/>
    </g>
   </g>
   <g id="PolyCollection_5">
    <defs>
     <path id="mc88dffab16" d="M 635.268511 -80.170435 
L 632.96006 -80.170435 
L 632.947949 -81.277154 
L 632.938755 -82.383874 
L 632.93205 -83.490593 
L 632.927304 -84.597312 
L 632.923902 -85.704032 
L 632.921142 -86.810751 
L 632.918255 -87.91747 
L 632.914414 -89.02419 
L 632.90875 -90.130909 
L 632.900372 -91.237628 
L 632.888376 -92.344348 
L 632.871871 -93.451067 
L 632.849993 -94.557787 
L 632.821924 -95.664506 
L 632.786909 -96.771225 
L 632.744271 -97.877945 
L 632.693428 -98.984664 
L 632.633903 -100.091383 
L 632.565339 -101.198103 
L 632.487508 -102.304822 
L 632.400315 -103.411542 
L 632.303809 -104.518261 
L 632.198178 -105.62498 
L 632.083758 -106.7317 
L 631.961023 -107.838419 
L 631.830588 -108.945138 
L 631.693197 -110.051858 
L 631.549716 -111.158577 
L 631.401121 -112.265296 
L 631.248489 -113.372016 
L 631.092977 -114.478735 
L 630.93581 -115.585455 
L 630.778259 -116.692174 
L 630.621625 -117.798893 
L 630.467215 -118.905613 
L 630.316323 -120.012332 
L 630.170205 -121.119051 
L 630.030058 -122.225771 
L 629.896999 -123.33249 
L 629.772041 -124.439209 
L 629.656072 -125.545929 
L 629.549841 -126.652648 
L 629.453935 -127.759368 
L 629.368768 -128.866087 
L 629.29457 -129.972806 
L 629.231377 -131.079526 
L 629.179032 -132.186245 
L 629.137181 -133.292964 
L 629.105283 -134.399684 
L 629.082616 -135.506403 
L 629.068295 -136.613123 
L 629.061292 -137.719842 
L 629.060459 -138.826561 
L 629.064557 -139.933281 
L 629.072288 -141.04 
L 629.082327 -142.146719 
L 629.093364 -143.253439 
L 629.104133 -144.360158 
L 629.113457 -145.466877 
L 629.120276 -146.573597 
L 629.123684 -147.680316 
L 629.122956 -148.787036 
L 629.117576 -149.893755 
L 629.107247 -151.000474 
L 629.091914 -152.107194 
L 629.07176 -153.213913 
L 629.04721 -154.320632 
L 629.01892 -155.427352 
L 628.987755 -156.534071 
L 628.954777 -157.640791 
L 628.921204 -158.74751 
L 628.888382 -159.854229 
L 628.857746 -160.960949 
L 628.83078 -162.067668 
L 628.80897 -163.174387 
L 628.793767 -164.281107 
L 628.786546 -165.387826 
L 628.788566 -166.494545 
L 628.800937 -167.601265 
L 628.824594 -168.707984 
L 628.860274 -169.814704 
L 628.908497 -170.921423 
L 628.96956 -172.028142 
L 629.043533 -173.134862 
L 629.130267 -174.241581 
L 629.229396 -175.3483 
L 629.340363 -176.45502 
L 629.462433 -177.561739 
L 629.594718 -178.668458 
L 629.736206 -179.775178 
L 629.885788 -180.881897 
L 630.042285 -181.988617 
L 630.204477 -183.095336 
L 630.37113 -184.202055 
L 630.541018 -185.308775 
L 630.712947 -186.415494 
L 630.885774 -187.522213 
L 631.05842 -188.628933 
L 631.229884 -189.735652 
L 636.998687 -189.735652 
L 636.998687 -189.735652 
L 637.170151 -188.628933 
L 637.342797 -187.522213 
L 637.515624 -186.415494 
L 637.687554 -185.308775 
L 637.857442 -184.202055 
L 638.024094 -183.095336 
L 638.186286 -181.988617 
L 638.342784 -180.881897 
L 638.492366 -179.775178 
L 638.633854 -178.668458 
L 638.766139 -177.561739 
L 638.888208 -176.45502 
L 638.999175 -175.3483 
L 639.098305 -174.241581 
L 639.185038 -173.134862 
L 639.259012 -172.028142 
L 639.320075 -170.921423 
L 639.368298 -169.814704 
L 639.403977 -168.707984 
L 639.427635 -167.601265 
L 639.440006 -166.494545 
L 639.442025 -165.387826 
L 639.434804 -164.281107 
L 639.419602 -163.174387 
L 639.397791 -162.067668 
L 639.370825 -160.960949 
L 639.34019 -159.854229 
L 639.307368 -158.74751 
L 639.273795 -157.640791 
L 639.240816 -156.534071 
L 639.209652 -155.427352 
L 639.181361 -154.320632 
L 639.156811 -153.213913 
L 639.136658 -152.107194 
L 639.121324 -151.000474 
L 639.110996 -149.893755 
L 639.105615 -148.787036 
L 639.104888 -147.680316 
L 639.108296 -146.573597 
L 639.115114 -145.466877 
L 639.124438 -144.360158 
L 639.135208 -143.253439 
L 639.146244 -142.146719 
L 639.156284 -141.04 
L 639.164014 -139.933281 
L 639.168112 -138.826561 
L 639.167279 -137.719842 
L 639.160276 -136.613123 
L 639.145956 -135.506403 
L 639.123288 -134.399684 
L 639.09139 -133.292964 
L 639.04954 -132.186245 
L 638.997194 -131.079526 
L 638.934002 -129.972806 
L 638.859803 -128.866087 
L 638.774636 -127.759368 
L 638.67873 -126.652648 
L 638.572499 -125.545929 
L 638.456531 -124.439209 
L 638.331572 -123.33249 
L 638.198513 -122.225771 
L 638.058367 -121.119051 
L 637.912249 -120.012332 
L 637.761357 -118.905613 
L 637.606947 -117.798893 
L 637.450313 -116.692174 
L 637.292762 -115.585455 
L 637.135594 -114.478735 
L 636.980082 -113.372016 
L 636.82745 -112.265296 
L 636.678856 -111.158577 
L 636.535374 -110.051858 
L 636.397983 -108.945138 
L 636.267548 -107.838419 
L 636.144814 -106.7317 
L 636.030393 -105.62498 
L 635.924763 -104.518261 
L 635.828256 -103.411542 
L 635.741064 -102.304822 
L 635.663232 -101.198103 
L 635.594669 -100.091383 
L 635.535144 -98.984664 
L 635.4843 -97.877945 
L 635.441662 -96.771225 
L 635.406647 -95.664506 
L 635.378579 -94.557787 
L 635.356701 -93.451067 
L 635.340196 -92.344348 
L 635.3282 -91.237628 
L 635.319821 -90.130909 
L 635.314158 -89.02419 
L 635.310317 -87.91747 
L 635.30743 -86.810751 
L 635.30467 -85.704032 
L 635.301267 -84.597312 
L 635.296522 -83.490593 
L 635.289816 -82.383874 
L 635.280622 -81.277154 
L 635.268511 -80.170435 
z
" style="stroke: #494949; stroke-width: 1.5"/>
    </defs>
    <g clip-path="url(#p2c6c3f98f4)">
     <use xlink:href="#mc88dffab16" x="0" y="432" style="fill: #8d7866; stroke: #494949; stroke-width: 1.5"/>
    </g>
   </g>
   <g id="PolyCollection_6">
    <defs>
     <path id="m6ab55278ae" d="M 739.40316 -73.158261 
L 720.139697 -73.158261 
L 719.141122 -76.106561 
L 718.118767 -79.054862 
L 717.07761 -82.003162 
L 716.02136 -84.951462 
L 714.952265 -87.899763 
L 713.871072 -90.848063 
L 712.777126 -93.796364 
L 711.668633 -96.744664 
L 710.543044 -99.692964 
L 709.397551 -102.641265 
L 708.229651 -105.589565 
L 707.037735 -108.537866 
L 705.821654 -111.486166 
L 704.583234 -114.434466 
L 703.326686 -117.382767 
L 702.058896 -120.331067 
L 700.789565 -123.279368 
L 699.531192 -126.227668 
L 698.298895 -129.175968 
L 697.110069 -132.124269 
L 695.983896 -135.072569 
L 694.940715 -138.02087 
L 694.00128 -140.96917 
L 693.185929 -143.91747 
L 692.513707 -146.865771 
L 692.001475 -149.814071 
L 691.663073 -152.762372 
L 691.508571 -155.710672 
L 691.54368 -158.658972 
L 691.769363 -161.607273 
L 692.181691 -164.555573 
L 692.771973 -167.503874 
L 693.527146 -170.452174 
L 694.430432 -173.400474 
L 695.462202 -176.348775 
L 696.600985 -179.297075 
L 697.824554 -182.245375 
L 699.110996 -185.193676 
L 700.439678 -188.141976 
L 701.792049 -191.090277 
L 703.152206 -194.038577 
L 704.507199 -196.986877 
L 705.847074 -199.935178 
L 707.164659 -202.883478 
L 708.455162 -205.831779 
L 709.715612 -208.780079 
L 710.944247 -211.728379 
L 712.139888 -214.67668 
L 713.301401 -217.62498 
L 714.427268 -220.573281 
L 715.515327 -223.521581 
L 716.562681 -226.469881 
L 717.565777 -229.418182 
L 718.520635 -232.366482 
L 719.423173 -235.314783 
L 720.269603 -238.263083 
L 721.056827 -241.211383 
L 721.782793 -244.159684 
L 722.44678 -247.107984 
L 723.049555 -250.056285 
L 723.593419 -253.004585 
L 724.082114 -255.952885 
L 724.520612 -258.901186 
L 724.914809 -261.849486 
L 725.271156 -264.797787 
L 725.596258 -267.746087 
L 725.896475 -270.694387 
L 726.177573 -273.642688 
L 726.444431 -276.590988 
L 726.700842 -279.539289 
L 726.949409 -282.487589 
L 727.191531 -285.435889 
L 727.42749 -288.38419 
L 727.656594 -291.33249 
L 727.87739 -294.280791 
L 728.087891 -297.229091 
L 728.28582 -300.177391 
L 728.468838 -303.125692 
L 728.634749 -306.073992 
L 728.781659 -309.022292 
L 728.908104 -311.970593 
L 729.013125 -314.918893 
L 729.096316 -317.867194 
L 729.157829 -320.815494 
L 729.198367 -323.763794 
L 729.219149 -326.712095 
L 729.221868 -329.660395 
L 729.208643 -332.608696 
L 729.181952 -335.556996 
L 729.144576 -338.505296 
L 729.099511 -341.453597 
L 729.049888 -344.401897 
L 728.998872 -347.350198 
L 728.949553 -350.298498 
L 728.904832 -353.246798 
L 728.867308 -356.195099 
L 728.839168 -359.143399 
L 728.822099 -362.0917 
L 728.817214 -365.04 
L 730.725643 -365.04 
L 730.725643 -365.04 
L 730.720758 -362.0917 
L 730.703689 -359.143399 
L 730.675549 -356.195099 
L 730.638025 -353.246798 
L 730.593304 -350.298498 
L 730.543985 -347.350198 
L 730.492969 -344.401897 
L 730.443346 -341.453597 
L 730.398281 -338.505296 
L 730.360905 -335.556996 
L 730.334215 -332.608696 
L 730.320989 -329.660395 
L 730.323708 -326.712095 
L 730.34449 -323.763794 
L 730.385028 -320.815494 
L 730.446542 -317.867194 
L 730.529732 -314.918893 
L 730.634753 -311.970593 
L 730.761198 -309.022292 
L 730.908108 -306.073992 
L 731.074019 -303.125692 
L 731.257037 -300.177391 
L 731.454966 -297.229091 
L 731.665467 -294.280791 
L 731.886263 -291.33249 
L 732.115367 -288.38419 
L 732.351326 -285.435889 
L 732.593448 -282.487589 
L 732.842015 -279.539289 
L 733.098426 -276.590988 
L 733.365284 -273.642688 
L 733.646382 -270.694387 
L 733.9466 -267.746087 
L 734.271701 -264.797787 
L 734.628048 -261.849486 
L 735.022245 -258.901186 
L 735.460743 -255.952885 
L 735.949438 -253.004585 
L 736.493302 -250.056285 
L 737.096078 -247.107984 
L 737.760064 -244.159684 
L 738.48603 -241.211383 
L 739.273254 -238.263083 
L 740.119684 -235.314783 
L 741.022223 -232.366482 
L 741.97708 -229.418182 
L 742.980177 -226.469881 
L 744.02753 -223.521581 
L 745.115589 -220.573281 
L 746.241456 -217.62498 
L 747.402969 -214.67668 
L 748.59861 -211.728379 
L 749.827245 -208.780079 
L 751.087695 -205.831779 
L 752.378198 -202.883478 
L 753.695783 -199.935178 
L 755.035658 -196.986877 
L 756.390651 -194.038577 
L 757.750808 -191.090277 
L 759.10318 -188.141976 
L 760.431862 -185.193676 
L 761.718303 -182.245375 
L 762.941872 -179.297075 
L 764.080655 -176.348775 
L 765.112425 -173.400474 
L 766.015712 -170.452174 
L 766.770884 -167.503874 
L 767.361166 -164.555573 
L 767.773495 -161.607273 
L 767.999177 -158.658972 
L 768.034286 -155.710672 
L 767.879784 -152.762372 
L 767.541382 -149.814071 
L 767.02915 -146.865771 
L 766.356928 -143.91747 
L 765.541577 -140.96917 
L 764.602142 -138.02087 
L 763.558961 -135.072569 
L 762.432788 -132.124269 
L 761.243962 -129.175968 
L 760.011665 -126.227668 
L 758.753292 -123.279368 
L 757.483961 -120.331067 
L 756.216171 -117.382767 
L 754.959623 -114.434466 
L 753.721203 -111.486166 
L 752.505122 -108.537866 
L 751.313206 -105.589565 
L 750.145306 -102.641265 
L 748.999813 -99.692964 
L 747.874224 -96.744664 
L 746.765731 -93.796364 
L 745.671786 -90.848063 
L 744.590592 -87.899763 
L 743.521497 -84.951462 
L 742.465247 -82.003162 
L 741.42409 -79.054862 
L 740.401735 -76.106561 
L 739.40316 -73.158261 
z
" style="stroke: #494949; stroke-width: 1.5"/>
    </defs>
    <g clip-path="url(#p2c6c3f98f4)">
     <use xlink:href="#m6ab55278ae" x="0" y="432" style="fill: #d095bf; stroke: #494949; stroke-width: 1.5"/>
    </g>
   </g>
   <g id="line2d_9">
    <path d="M 154.390082 366.292174 
L 157.267061 366.292174 
" clip-path="url(#p2c6c3f98f4)" style="fill: none; stroke-dasharray: 3.375,3.375; stroke-dashoffset: 0; stroke: #494949; stroke-width: 1.5"/>
   </g>
   <g id="line2d_10">
    <path d="M 154.399494 363.224348 
L 157.257649 363.224348 
" clip-path="url(#p2c6c3f98f4)" style="fill: none; stroke-dasharray: 6.75,6.75; stroke-dashoffset: 0; stroke: #494949; stroke-width: 1.5"/>
   </g>
   <g id="line2d_11">
    <path d="M 155.350009 324.657391 
L 156.307134 324.657391 
" clip-path="url(#p2c6c3f98f4)" style="fill: none; stroke-dasharray: 3.375,3.375; stroke-dashoffset: 0; stroke: #494949; stroke-width: 1.5"/>
   </g>
   <g id="line2d_12">
    <path d="M 250.656484 313.481739 
L 252.314945 313.481739 
" clip-path="url(#p2c6c3f98f4)" style="fill: none; stroke-dasharray: 3.375,3.375; stroke-dashoffset: 0; stroke: #494949; stroke-width: 1.5"/>
   </g>
   <g id="line2d_13">
    <path d="M 250.793798 310.194783 
L 252.177631 310.194783 
" clip-path="url(#p2c6c3f98f4)" style="fill: none; stroke-dasharray: 6.75,6.75; stroke-dashoffset: 0; stroke: #494949; stroke-width: 1.5"/>
   </g>
   <g id="line2d_14">
    <path d="M 250.656484 306.907826 
L 252.314945 306.907826 
" clip-path="url(#p2c6c3f98f4)" style="fill: none; stroke-dasharray: 3.375,3.375; stroke-dashoffset: 0; stroke: #494949; stroke-width: 1.5"/>
   </g>
   <g id="line2d_15">
    <path d="M 346.658517 316.768696 
L 347.627197 316.768696 
" clip-path="url(#p2c6c3f98f4)" style="fill: none; stroke: #494949; stroke-width: 1.5; stroke-linecap: round"/>
   </g>
   <g id="line2d_16">
    <path d="M 440.915266 312.386087 
L 444.684734 312.386087 
" clip-path="url(#p2c6c3f98f4)" style="fill: none; stroke-dasharray: 3.375,3.375; stroke-dashoffset: 0; stroke: #494949; stroke-width: 1.5"/>
   </g>
   <g id="line2d_17">
    <path d="M 440.475178 301.867826 
L 445.124822 301.867826 
" clip-path="url(#p2c6c3f98f4)" style="fill: none; stroke-dasharray: 6.75,6.75; stroke-dashoffset: 0; stroke: #494949; stroke-width: 1.5"/>
   </g>
   <g id="line2d_18">
    <path d="M 440.503289 286.090435 
L 445.096711 286.090435 
" clip-path="url(#p2c6c3f98f4)" style="fill: none; stroke-dasharray: 3.375,3.375; stroke-dashoffset: 0; stroke: #494949; stroke-width: 1.5"/>
   </g>
   <g id="line2d_19">
    <path d="M 536.599807 338.681739 
L 540.314479 338.681739 
" clip-path="url(#p2c6c3f98f4)" style="fill: none; stroke-dasharray: 3.375,3.375; stroke-dashoffset: 0; stroke: #494949; stroke-width: 1.5"/>
   </g>
   <g id="line2d_20">
    <path d="M 536.558261 308.003478 
L 540.356025 308.003478 
" clip-path="url(#p2c6c3f98f4)" style="fill: none; stroke-dasharray: 6.75,6.75; stroke-dashoffset: 0; stroke: #494949; stroke-width: 1.5"/>
   </g>
   <g id="line2d_21">
    <path d="M 536.065986 281.707826 
L 540.848299 281.707826 
" clip-path="url(#p2c6c3f98f4)" style="fill: none; stroke-dasharray: 3.375,3.375; stroke-dashoffset: 0; stroke: #494949; stroke-width: 1.5"/>
   </g>
   <g id="line2d_22">
    <path d="M 629.342767 301.867826 
L 638.885805 301.867826 
" clip-path="url(#p2c6c3f98f4)" style="fill: none; stroke-dasharray: 3.375,3.375; stroke-dashoffset: 0; stroke: #494949; stroke-width: 1.5"/>
   </g>
   <g id="line2d_23">
    <path d="M 629.154235 287.843478 
L 639.074337 287.843478 
" clip-path="url(#p2c6c3f98f4)" style="fill: none; stroke-dasharray: 6.75,6.75; stroke-dashoffset: 0; stroke: #494949; stroke-width: 1.5"/>
   </g>
   <g id="line2d_24">
    <path d="M 628.85407 264.177391 
L 639.374501 264.177391 
" clip-path="url(#p2c6c3f98f4)" style="fill: none; stroke-dasharray: 3.375,3.375; stroke-dashoffset: 0; stroke: #494949; stroke-width: 1.5"/>
   </g>
   <g id="line2d_25">
    <path d="M 697.436682 299.238261 
L 762.106175 299.238261 
" clip-path="url(#p2c6c3f98f4)" style="fill: none; stroke-dasharray: 3.375,3.375; stroke-dashoffset: 0; stroke: #494949; stroke-width: 1.5"/>
   </g>
   <g id="line2d_26">
    <path d="M 691.925958 272.942609 
L 767.6169 272.942609 
" clip-path="url(#p2c6c3f98f4)" style="fill: none; stroke-dasharray: 6.75,6.75; stroke-dashoffset: 0; stroke: #494949; stroke-width: 1.5"/>
   </g>
   <g id="line2d_27">
    <path d="M 699.4176 245.551304 
L 760.125257 245.551304 
" clip-path="url(#p2c6c3f98f4)" style="fill: none; stroke-dasharray: 3.375,3.375; stroke-dashoffset: 0; stroke: #494949; stroke-width: 1.5"/>
   </g>
   <g id="patch_3">
    <path d="M 108 384.48 
L 108 51.84 
" style="fill: none; stroke: #ffffff; stroke-width: 1.25; stroke-linejoin: miter; stroke-linecap: square"/>
   </g>
   <g id="patch_4">
    <path d="M 777.6 384.48 
L 777.6 51.84 
" style="fill: none; stroke: #ffffff; stroke-width: 1.25; stroke-linejoin: miter; stroke-linecap: square"/>
   </g>
   <g id="patch_5">
    <path d="M 108 384.48 
L 777.6 384.48 
" style="fill: none; stroke: #ffffff; stroke-width: 1.25; stroke-linejoin: miter; stroke-linecap: square"/>
   </g>
   <g id="patch_6">
    <path d="M 108 51.84 
L 777.6 51.84 
" style="fill: none; stroke: #ffffff; stroke-width: 1.25; stroke-linejoin: miter; stroke-linecap: square"/>
   </g>
   <g id="text_18">
    <!-- Compensation by Type of Work -->
    <g style="fill: #262626" transform="translate(359.31 45.84)scale(0.12 -0.12)">
     <defs>
      <path id="ArialMT-43" d="M 3763 1606 
L 4369 1453 
Q 4178 706 3683 314 
Q 3188 -78 2472 -78 
Q 1731 -78 1267 223 
Q 803 525 561 1097 
Q 319 1669 319 2325 
Q 319 3041 592 3573 
Q 866 4106 1370 4382 
Q 1875 4659 2481 4659 
Q 3169 4659 3637 4309 
Q 4106 3959 4291 3325 
L 3694 3184 
Q 3534 3684 3231 3912 
Q 2928 4141 2469 4141 
Q 1941 4141 1586 3887 
Q 1231 3634 1087 3207 
Q 944 2781 944 2328 
Q 944 1744 1114 1308 
Q 1284 872 1643 656 
Q 2003 441 2422 441 
Q 2931 441 3284 734 
Q 3638 1028 3763 1606 
z
" transform="scale(0.015625)"/>
      <path id="ArialMT-62" d="M 941 0 
L 419 0 
L 419 4581 
L 981 4581 
L 981 2947 
Q 1338 3394 1891 3394 
Q 2197 3394 2470 3270 
Q 2744 3147 2920 2923 
Q 3097 2700 3197 2384 
Q 3297 2069 3297 1709 
Q 3297 856 2875 390 
Q 2453 -75 1863 -75 
Q 1275 -75 941 416 
L 941 0 
z
M 934 1684 
Q 934 1088 1097 822 
Q 1363 388 1816 388 
Q 2184 388 2453 708 
Q 2722 1028 2722 1663 
Q 2722 2313 2464 2622 
Q 2206 2931 1841 2931 
Q 1472 2931 1203 2611 
Q 934 2291 934 1684 
z
" transform="scale(0.015625)"/>
     </defs>
     <use xlink:href="#ArialMT-43"/>
     <use xlink:href="#ArialMT-6f" x="72.216797"/>
     <use xlink:href="#ArialMT-6d" x="127.832031"/>
     <use xlink:href="#ArialMT-70" x="211.132812"/>
     <use xlink:href="#ArialMT-65" x="266.748047"/>
     <use xlink:href="#ArialMT-6e" x="322.363281"/>
     <use xlink:href="#ArialMT-73" x="377.978516"/>
     <use xlink:href="#ArialMT-61" x="427.978516"/>
     <use xlink:href="#ArialMT-74" x="483.59375"/>
     <use xlink:href="#ArialMT-69" x="511.376953"/>
     <use xlink:href="#ArialMT-6f" x="533.59375"/>
     <use xlink:href="#ArialMT-6e" x="589.208984"/>
     <use xlink:href="#ArialMT-20" x="644.824219"/>
     <use xlink:href="#ArialMT-62" x="672.607422"/>
     <use xlink:href="#ArialMT-79" x="728.222656"/>
     <use xlink:href="#ArialMT-20" x="778.222656"/>
     <use xlink:href="#ArialMT-54" x="804.255859"/>
     <use xlink:href="#ArialMT-79" x="859.839844"/>
     <use xlink:href="#ArialMT-70" x="909.839844"/>
     <use xlink:href="#ArialMT-65" x="965.455078"/>
     <use xlink:href="#ArialMT-20" x="1021.070312"/>
     <use xlink:href="#ArialMT-6f" x="1048.853516"/>
     <use xlink:href="#ArialMT-66" x="1104.46875"/>
     <use xlink:href="#ArialMT-20" x="1132.251953"/>
     <use xlink:href="#ArialMT-57" x="1160.035156"/>
     <use xlink:href="#ArialMT-6f" x="1252.669922"/>
     <use xlink:href="#ArialMT-72" x="1308.285156"/>
     <use xlink:href="#ArialMT-6b" x="1341.585938"/>
    </g>
   </g>
  </g>
 </g>
 <defs>
  <clipPath id="p2c6c3f98f4">
   <rect x="108" y="51.84" width="669.6" height="332.64"/>
  </clipPath>
 </defs>
</svg>
