<?xml version="1.0" encoding="utf-8" standalone="no"?>
<!DOCTYPE svg PUBLIC "-//W3C//DTD SVG 1.1//EN"
  "http://www.w3.org/Graphics/SVG/1.1/DTD/svg11.dtd">
<svg xmlns:xlink="http://www.w3.org/1999/xlink" width="864pt" height="432pt" viewBox="0 0 864 432" xmlns="http://www.w3.org/2000/svg" version="1.1">
 <metadata>
  <rdf:RDF xmlns:dc="http://purl.org/dc/elements/1.1/" xmlns:cc="http://creativecommons.org/ns#" xmlns:rdf="http://www.w3.org/1999/02/22-rdf-syntax-ns#">
   <cc:Work>
    <dc:type rdf:resource="http://purl.org/dc/dcmitype/StillImage"/>
    <dc:date>2023-03-07T17:55:22.393393</dc:date>
    <dc:format>image/svg+xml</dc:format>
    <dc:creator>
     <cc:Agent>
      <dc:title>Matplotlib v3.5.2, https://matplotlib.org/</dc:title>
     </cc:Agent>
    </dc:creator>
   </cc:Work>
  </rdf:RDF>
 </metadata>
 <defs>
  <style type="text/css">*{stroke-linejoin: round; stroke-linecap: butt}</style>
 </defs>
 <g id="figure_1">
  <g id="patch_1">
   <path d="M 0 432 
L 864 432 
L 864 0 
L 0 0 
z
" style="fill: #ffffff"/>
  </g>
  <g id="axes_1">
   <g id="patch_2">
    <path d="M 108 384.48 
L 777.6 384.48 
L 777.6 51.84 
L 108 51.84 
z
" style="fill: #eaeaf2"/>
   </g>
   <g id="matplotlib.axis_1">
    <g id="xtick_1">
     <g id="text_1">
      <!-- Female -->
      <g style="fill: #262626" transform="translate(257.061797 401.853594)scale(0.11 -0.11)">
       <defs>
        <path id="ArialMT-46" d="M 525 0 
L 525 4581 
L 3616 4581 
L 3616 4041 
L 1131 4041 
L 1131 2622 
L 3281 2622 
L 3281 2081 
L 1131 2081 
L 1131 0 
L 525 0 
z
" transform="scale(0.015625)"/>
        <path id="ArialMT-65" d="M 2694 1069 
L 3275 997 
Q 3138 488 2766 206 
Q 2394 -75 1816 -75 
Q 1088 -75 661 373 
Q 234 822 234 1631 
Q 234 2469 665 2931 
Q 1097 3394 1784 3394 
Q 2450 3394 2872 2941 
Q 3294 2488 3294 1666 
Q 3294 1616 3291 1516 
L 816 1516 
Q 847 969 1125 678 
Q 1403 388 1819 388 
Q 2128 388 2347 550 
Q 2566 713 2694 1069 
z
M 847 1978 
L 2700 1978 
Q 2663 2397 2488 2606 
Q 2219 2931 1791 2931 
Q 1403 2931 1139 2672 
Q 875 2413 847 1978 
z
" transform="scale(0.015625)"/>
        <path id="ArialMT-6d" d="M 422 0 
L 422 3319 
L 925 3319 
L 925 2853 
Q 1081 3097 1340 3245 
Q 1600 3394 1931 3394 
Q 2300 3394 2536 3241 
Q 2772 3088 2869 2813 
Q 3263 3394 3894 3394 
Q 4388 3394 4653 3120 
Q 4919 2847 4919 2278 
L 4919 0 
L 4359 0 
L 4359 2091 
Q 4359 2428 4304 2576 
Q 4250 2725 4106 2815 
Q 3963 2906 3769 2906 
Q 3419 2906 3187 2673 
Q 2956 2441 2956 1928 
L 2956 0 
L 2394 0 
L 2394 2156 
Q 2394 2531 2256 2718 
Q 2119 2906 1806 2906 
Q 1569 2906 1367 2781 
Q 1166 2656 1075 2415 
Q 984 2175 984 1722 
L 984 0 
L 422 0 
z
" transform="scale(0.015625)"/>
        <path id="ArialMT-61" d="M 2588 409 
Q 2275 144 1986 34 
Q 1697 -75 1366 -75 
Q 819 -75 525 192 
Q 231 459 231 875 
Q 231 1119 342 1320 
Q 453 1522 633 1644 
Q 813 1766 1038 1828 
Q 1203 1872 1538 1913 
Q 2219 1994 2541 2106 
Q 2544 2222 2544 2253 
Q 2544 2597 2384 2738 
Q 2169 2928 1744 2928 
Q 1347 2928 1158 2789 
Q 969 2650 878 2297 
L 328 2372 
Q 403 2725 575 2942 
Q 747 3159 1072 3276 
Q 1397 3394 1825 3394 
Q 2250 3394 2515 3294 
Q 2781 3194 2906 3042 
Q 3031 2891 3081 2659 
Q 3109 2516 3109 2141 
L 3109 1391 
Q 3109 606 3145 398 
Q 3181 191 3288 0 
L 2700 0 
Q 2613 175 2588 409 
z
M 2541 1666 
Q 2234 1541 1622 1453 
Q 1275 1403 1131 1340 
Q 988 1278 909 1158 
Q 831 1038 831 891 
Q 831 666 1001 516 
Q 1172 366 1500 366 
Q 1825 366 2078 508 
Q 2331 650 2450 897 
Q 2541 1088 2541 1459 
L 2541 1666 
z
" transform="scale(0.015625)"/>
        <path id="ArialMT-6c" d="M 409 0 
L 409 4581 
L 972 4581 
L 972 0 
L 409 0 
z
" transform="scale(0.015625)"/>
       </defs>
       <use xlink:href="#ArialMT-46"/>
       <use xlink:href="#ArialMT-65" x="61.083984"/>
       <use xlink:href="#ArialMT-6d" x="116.699219"/>
       <use xlink:href="#ArialMT-61" x="200"/>
       <use xlink:href="#ArialMT-6c" x="255.615234"/>
       <use xlink:href="#ArialMT-65" x="277.832031"/>
      </g>
     </g>
    </g>
    <g id="xtick_2">
     <g id="text_2">
      <!-- Male -->
      <g style="fill: #262626" transform="translate(598.279609 401.853594)scale(0.11 -0.11)">
       <defs>
        <path id="ArialMT-4d" d="M 475 0 
L 475 4581 
L 1388 4581 
L 2472 1338 
Q 2622 884 2691 659 
Q 2769 909 2934 1394 
L 4031 4581 
L 4847 4581 
L 4847 0 
L 4263 0 
L 4263 3834 
L 2931 0 
L 2384 0 
L 1059 3900 
L 1059 0 
L 475 0 
z
" transform="scale(0.015625)"/>
       </defs>
       <use xlink:href="#ArialMT-4d"/>
       <use xlink:href="#ArialMT-61" x="83.300781"/>
       <use xlink:href="#ArialMT-6c" x="138.916016"/>
       <use xlink:href="#ArialMT-65" x="161.132812"/>
      </g>
     </g>
    </g>
    <g id="text_3">
     <!-- Gender -->
     <g style="fill: #262626" transform="translate(422.789062 416.629219)scale(0.12 -0.12)">
      <defs>
       <path id="ArialMT-47" d="M 2638 1797 
L 2638 2334 
L 4578 2338 
L 4578 638 
Q 4131 281 3656 101 
Q 3181 -78 2681 -78 
Q 2006 -78 1454 211 
Q 903 500 622 1047 
Q 341 1594 341 2269 
Q 341 2938 620 3517 
Q 900 4097 1425 4378 
Q 1950 4659 2634 4659 
Q 3131 4659 3532 4498 
Q 3934 4338 4162 4050 
Q 4391 3763 4509 3300 
L 3963 3150 
Q 3859 3500 3706 3700 
Q 3553 3900 3268 4020 
Q 2984 4141 2638 4141 
Q 2222 4141 1919 4014 
Q 1616 3888 1430 3681 
Q 1244 3475 1141 3228 
Q 966 2803 966 2306 
Q 966 1694 1177 1281 
Q 1388 869 1791 669 
Q 2194 469 2647 469 
Q 3041 469 3416 620 
Q 3791 772 3984 944 
L 3984 1797 
L 2638 1797 
z
" transform="scale(0.015625)"/>
       <path id="ArialMT-6e" d="M 422 0 
L 422 3319 
L 928 3319 
L 928 2847 
Q 1294 3394 1984 3394 
Q 2284 3394 2536 3286 
Q 2788 3178 2913 3003 
Q 3038 2828 3088 2588 
Q 3119 2431 3119 2041 
L 3119 0 
L 2556 0 
L 2556 2019 
Q 2556 2363 2490 2533 
Q 2425 2703 2258 2804 
Q 2091 2906 1866 2906 
Q 1506 2906 1245 2678 
Q 984 2450 984 1813 
L 984 0 
L 422 0 
z
" transform="scale(0.015625)"/>
       <path id="ArialMT-64" d="M 2575 0 
L 2575 419 
Q 2259 -75 1647 -75 
Q 1250 -75 917 144 
Q 584 363 401 755 
Q 219 1147 219 1656 
Q 219 2153 384 2558 
Q 550 2963 881 3178 
Q 1213 3394 1622 3394 
Q 1922 3394 2156 3267 
Q 2391 3141 2538 2938 
L 2538 4581 
L 3097 4581 
L 3097 0 
L 2575 0 
z
M 797 1656 
Q 797 1019 1065 703 
Q 1334 388 1700 388 
Q 2069 388 2326 689 
Q 2584 991 2584 1609 
Q 2584 2291 2321 2609 
Q 2059 2928 1675 2928 
Q 1300 2928 1048 2622 
Q 797 2316 797 1656 
z
" transform="scale(0.015625)"/>
       <path id="ArialMT-72" d="M 416 0 
L 416 3319 
L 922 3319 
L 922 2816 
Q 1116 3169 1280 3281 
Q 1444 3394 1641 3394 
Q 1925 3394 2219 3213 
L 2025 2691 
Q 1819 2813 1613 2813 
Q 1428 2813 1281 2702 
Q 1134 2591 1072 2394 
Q 978 2094 978 1738 
L 978 0 
L 416 0 
z
" transform="scale(0.015625)"/>
      </defs>
      <use xlink:href="#ArialMT-47"/>
      <use xlink:href="#ArialMT-65" x="77.783203"/>
      <use xlink:href="#ArialMT-6e" x="133.398438"/>
      <use xlink:href="#ArialMT-64" x="189.013672"/>
      <use xlink:href="#ArialMT-65" x="244.628906"/>
      <use xlink:href="#ArialMT-72" x="300.244141"/>
     </g>
    </g>
   </g>
   <g id="matplotlib.axis_2">
    <g id="ytick_1">
     <g id="line2d_1">
      <path d="M 108 373.742609 
L 777.6 373.742609 
" clip-path="url(#p143d469a39)" style="fill: none; stroke: #ffffff; stroke-linecap: round"/>
     </g>
     <g id="text_4">
      <!-- 50 -->
      <g style="fill: #262626" transform="translate(86.265938 377.679406)scale(0.11 -0.11)">
       <defs>
        <path id="ArialMT-35" d="M 266 1200 
L 856 1250 
Q 922 819 1161 601 
Q 1400 384 1738 384 
Q 2144 384 2425 690 
Q 2706 997 2706 1503 
Q 2706 1984 2436 2262 
Q 2166 2541 1728 2541 
Q 1456 2541 1237 2417 
Q 1019 2294 894 2097 
L 366 2166 
L 809 4519 
L 3088 4519 
L 3088 3981 
L 1259 3981 
L 1013 2750 
Q 1425 3038 1878 3038 
Q 2478 3038 2890 2622 
Q 3303 2206 3303 1553 
Q 3303 931 2941 478 
Q 2500 -78 1738 -78 
Q 1113 -78 717 272 
Q 322 622 266 1200 
z
" transform="scale(0.015625)"/>
        <path id="ArialMT-30" d="M 266 2259 
Q 266 3072 433 3567 
Q 600 4063 929 4331 
Q 1259 4600 1759 4600 
Q 2128 4600 2406 4451 
Q 2684 4303 2865 4023 
Q 3047 3744 3150 3342 
Q 3253 2941 3253 2259 
Q 3253 1453 3087 958 
Q 2922 463 2592 192 
Q 2263 -78 1759 -78 
Q 1097 -78 719 397 
Q 266 969 266 2259 
z
M 844 2259 
Q 844 1131 1108 757 
Q 1372 384 1759 384 
Q 2147 384 2411 759 
Q 2675 1134 2675 2259 
Q 2675 3391 2411 3762 
Q 2147 4134 1753 4134 
Q 1366 4134 1134 3806 
Q 844 3388 844 2259 
z
" transform="scale(0.015625)"/>
       </defs>
       <use xlink:href="#ArialMT-35"/>
       <use xlink:href="#ArialMT-30" x="55.615234"/>
      </g>
     </g>
    </g>
    <g id="ytick_2">
     <g id="line2d_2">
      <path d="M 108 329.916522 
L 777.6 329.916522 
" clip-path="url(#p143d469a39)" style="fill: none; stroke: #ffffff; stroke-linecap: round"/>
     </g>
     <g id="text_5">
      <!-- 100 -->
      <g style="fill: #262626" transform="translate(80.148906 333.853319)scale(0.11 -0.11)">
       <defs>
        <path id="ArialMT-31" d="M 2384 0 
L 1822 0 
L 1822 3584 
Q 1619 3391 1289 3197 
Q 959 3003 697 2906 
L 697 3450 
Q 1169 3672 1522 3987 
Q 1875 4303 2022 4600 
L 2384 4600 
L 2384 0 
z
" transform="scale(0.015625)"/>
       </defs>
       <use xlink:href="#ArialMT-31"/>
       <use xlink:href="#ArialMT-30" x="55.615234"/>
       <use xlink:href="#ArialMT-30" x="111.230469"/>
      </g>
     </g>
    </g>
    <g id="ytick_3">
     <g id="line2d_3">
      <path d="M 108 286.090435 
L 777.6 286.090435 
" clip-path="url(#p143d469a39)" style="fill: none; stroke: #ffffff; stroke-linecap: round"/>
     </g>
     <g id="text_6">
      <!-- 150 -->
      <g style="fill: #262626" transform="translate(80.148906 290.027232)scale(0.11 -0.11)">
       <use xlink:href="#ArialMT-31"/>
       <use xlink:href="#ArialMT-35" x="55.615234"/>
       <use xlink:href="#ArialMT-30" x="111.230469"/>
      </g>
     </g>
    </g>
    <g id="ytick_4">
     <g id="line2d_4">
      <path d="M 108 242.264348 
L 777.6 242.264348 
" clip-path="url(#p143d469a39)" style="fill: none; stroke: #ffffff; stroke-linecap: round"/>
     </g>
     <g id="text_7">
      <!-- 200 -->
      <g style="fill: #262626" transform="translate(80.148906 246.201145)scale(0.11 -0.11)">
       <defs>
        <path id="ArialMT-32" d="M 3222 541 
L 3222 0 
L 194 0 
Q 188 203 259 391 
Q 375 700 629 1000 
Q 884 1300 1366 1694 
Q 2113 2306 2375 2664 
Q 2638 3022 2638 3341 
Q 2638 3675 2398 3904 
Q 2159 4134 1775 4134 
Q 1369 4134 1125 3890 
Q 881 3647 878 3216 
L 300 3275 
Q 359 3922 746 4261 
Q 1134 4600 1788 4600 
Q 2447 4600 2831 4234 
Q 3216 3869 3216 3328 
Q 3216 3053 3103 2787 
Q 2991 2522 2730 2228 
Q 2469 1934 1863 1422 
Q 1356 997 1212 845 
Q 1069 694 975 541 
L 3222 541 
z
" transform="scale(0.015625)"/>
       </defs>
       <use xlink:href="#ArialMT-32"/>
       <use xlink:href="#ArialMT-30" x="55.615234"/>
       <use xlink:href="#ArialMT-30" x="111.230469"/>
      </g>
     </g>
    </g>
    <g id="ytick_5">
     <g id="line2d_5">
      <path d="M 108 198.438261 
L 777.6 198.438261 
" clip-path="url(#p143d469a39)" style="fill: none; stroke: #ffffff; stroke-linecap: round"/>
     </g>
     <g id="text_8">
      <!-- 250 -->
      <g style="fill: #262626" transform="translate(80.148906 202.375058)scale(0.11 -0.11)">
       <use xlink:href="#ArialMT-32"/>
       <use xlink:href="#ArialMT-35" x="55.615234"/>
       <use xlink:href="#ArialMT-30" x="111.230469"/>
      </g>
     </g>
    </g>
    <g id="ytick_6">
     <g id="line2d_6">
      <path d="M 108 154.612174 
L 777.6 154.612174 
" clip-path="url(#p143d469a39)" style="fill: none; stroke: #ffffff; stroke-linecap: round"/>
     </g>
     <g id="text_9">
      <!-- 300 -->
      <g style="fill: #262626" transform="translate(80.148906 158.548971)scale(0.11 -0.11)">
       <defs>
        <path id="ArialMT-33" d="M 269 1209 
L 831 1284 
Q 928 806 1161 595 
Q 1394 384 1728 384 
Q 2125 384 2398 659 
Q 2672 934 2672 1341 
Q 2672 1728 2419 1979 
Q 2166 2231 1775 2231 
Q 1616 2231 1378 2169 
L 1441 2663 
Q 1497 2656 1531 2656 
Q 1891 2656 2178 2843 
Q 2466 3031 2466 3422 
Q 2466 3731 2256 3934 
Q 2047 4138 1716 4138 
Q 1388 4138 1169 3931 
Q 950 3725 888 3313 
L 325 3413 
Q 428 3978 793 4289 
Q 1159 4600 1703 4600 
Q 2078 4600 2393 4439 
Q 2709 4278 2876 4000 
Q 3044 3722 3044 3409 
Q 3044 3113 2884 2869 
Q 2725 2625 2413 2481 
Q 2819 2388 3044 2092 
Q 3269 1797 3269 1353 
Q 3269 753 2831 336 
Q 2394 -81 1725 -81 
Q 1122 -81 723 278 
Q 325 638 269 1209 
z
" transform="scale(0.015625)"/>
       </defs>
       <use xlink:href="#ArialMT-33"/>
       <use xlink:href="#ArialMT-30" x="55.615234"/>
       <use xlink:href="#ArialMT-30" x="111.230469"/>
      </g>
     </g>
    </g>
    <g id="ytick_7">
     <g id="line2d_7">
      <path d="M 108 110.786087 
L 777.6 110.786087 
" clip-path="url(#p143d469a39)" style="fill: none; stroke: #ffffff; stroke-linecap: round"/>
     </g>
     <g id="text_10">
      <!-- 350 -->
      <g style="fill: #262626" transform="translate(80.148906 114.722884)scale(0.11 -0.11)">
       <use xlink:href="#ArialMT-33"/>
       <use xlink:href="#ArialMT-35" x="55.615234"/>
       <use xlink:href="#ArialMT-30" x="111.230469"/>
      </g>
     </g>
    </g>
    <g id="ytick_8">
     <g id="line2d_8">
      <path d="M 108 66.96 
L 777.6 66.96 
" clip-path="url(#p143d469a39)" style="fill: none; stroke: #ffffff; stroke-linecap: round"/>
     </g>
     <g id="text_11">
      <!-- 400 -->
      <g style="fill: #262626" transform="translate(80.148906 70.896797)scale(0.11 -0.11)">
       <defs>
        <path id="ArialMT-34" d="M 2069 0 
L 2069 1097 
L 81 1097 
L 81 1613 
L 2172 4581 
L 2631 4581 
L 2631 1613 
L 3250 1613 
L 3250 1097 
L 2631 1097 
L 2631 0 
L 2069 0 
z
M 2069 1613 
L 2069 3678 
L 634 1613 
L 2069 1613 
z
" transform="scale(0.015625)"/>
       </defs>
       <use xlink:href="#ArialMT-34"/>
       <use xlink:href="#ArialMT-30" x="55.615234"/>
       <use xlink:href="#ArialMT-30" x="111.230469"/>
      </g>
     </g>
    </g>
    <g id="text_12">
     <!-- Annual income (thousands) -->
     <g style="fill: #262626" transform="translate(73.623281 291.197812)rotate(-90)scale(0.12 -0.12)">
      <defs>
       <path id="ArialMT-41" d="M -9 0 
L 1750 4581 
L 2403 4581 
L 4278 0 
L 3588 0 
L 3053 1388 
L 1138 1388 
L 634 0 
L -9 0 
z
M 1313 1881 
L 2866 1881 
L 2388 3150 
Q 2169 3728 2063 4100 
Q 1975 3659 1816 3225 
L 1313 1881 
z
" transform="scale(0.015625)"/>
       <path id="ArialMT-75" d="M 2597 0 
L 2597 488 
Q 2209 -75 1544 -75 
Q 1250 -75 995 37 
Q 741 150 617 320 
Q 494 491 444 738 
Q 409 903 409 1263 
L 409 3319 
L 972 3319 
L 972 1478 
Q 972 1038 1006 884 
Q 1059 663 1231 536 
Q 1403 409 1656 409 
Q 1909 409 2131 539 
Q 2353 669 2445 892 
Q 2538 1116 2538 1541 
L 2538 3319 
L 3100 3319 
L 3100 0 
L 2597 0 
z
" transform="scale(0.015625)"/>
       <path id="ArialMT-20" transform="scale(0.015625)"/>
       <path id="ArialMT-69" d="M 425 3934 
L 425 4581 
L 988 4581 
L 988 3934 
L 425 3934 
z
M 425 0 
L 425 3319 
L 988 3319 
L 988 0 
L 425 0 
z
" transform="scale(0.015625)"/>
       <path id="ArialMT-63" d="M 2588 1216 
L 3141 1144 
Q 3050 572 2676 248 
Q 2303 -75 1759 -75 
Q 1078 -75 664 370 
Q 250 816 250 1647 
Q 250 2184 428 2587 
Q 606 2991 970 3192 
Q 1334 3394 1763 3394 
Q 2303 3394 2647 3120 
Q 2991 2847 3088 2344 
L 2541 2259 
Q 2463 2594 2264 2762 
Q 2066 2931 1784 2931 
Q 1359 2931 1093 2626 
Q 828 2322 828 1663 
Q 828 994 1084 691 
Q 1341 388 1753 388 
Q 2084 388 2306 591 
Q 2528 794 2588 1216 
z
" transform="scale(0.015625)"/>
       <path id="ArialMT-6f" d="M 213 1659 
Q 213 2581 725 3025 
Q 1153 3394 1769 3394 
Q 2453 3394 2887 2945 
Q 3322 2497 3322 1706 
Q 3322 1066 3130 698 
Q 2938 331 2570 128 
Q 2203 -75 1769 -75 
Q 1072 -75 642 372 
Q 213 819 213 1659 
z
M 791 1659 
Q 791 1022 1069 705 
Q 1347 388 1769 388 
Q 2188 388 2466 706 
Q 2744 1025 2744 1678 
Q 2744 2294 2464 2611 
Q 2184 2928 1769 2928 
Q 1347 2928 1069 2612 
Q 791 2297 791 1659 
z
" transform="scale(0.015625)"/>
       <path id="ArialMT-28" d="M 1497 -1347 
Q 1031 -759 709 28 
Q 388 816 388 1659 
Q 388 2403 628 3084 
Q 909 3875 1497 4659 
L 1900 4659 
Q 1522 4009 1400 3731 
Q 1209 3300 1100 2831 
Q 966 2247 966 1656 
Q 966 153 1900 -1347 
L 1497 -1347 
z
" transform="scale(0.015625)"/>
       <path id="ArialMT-74" d="M 1650 503 
L 1731 6 
Q 1494 -44 1306 -44 
Q 1000 -44 831 53 
Q 663 150 594 308 
Q 525 466 525 972 
L 525 2881 
L 113 2881 
L 113 3319 
L 525 3319 
L 525 4141 
L 1084 4478 
L 1084 3319 
L 1650 3319 
L 1650 2881 
L 1084 2881 
L 1084 941 
Q 1084 700 1114 631 
Q 1144 563 1211 522 
Q 1278 481 1403 481 
Q 1497 481 1650 503 
z
" transform="scale(0.015625)"/>
       <path id="ArialMT-68" d="M 422 0 
L 422 4581 
L 984 4581 
L 984 2938 
Q 1378 3394 1978 3394 
Q 2347 3394 2619 3248 
Q 2891 3103 3008 2847 
Q 3125 2591 3125 2103 
L 3125 0 
L 2563 0 
L 2563 2103 
Q 2563 2525 2380 2717 
Q 2197 2909 1863 2909 
Q 1613 2909 1392 2779 
Q 1172 2650 1078 2428 
Q 984 2206 984 1816 
L 984 0 
L 422 0 
z
" transform="scale(0.015625)"/>
       <path id="ArialMT-73" d="M 197 991 
L 753 1078 
Q 800 744 1014 566 
Q 1228 388 1613 388 
Q 2000 388 2187 545 
Q 2375 703 2375 916 
Q 2375 1106 2209 1216 
Q 2094 1291 1634 1406 
Q 1016 1563 777 1677 
Q 538 1791 414 1992 
Q 291 2194 291 2438 
Q 291 2659 392 2848 
Q 494 3038 669 3163 
Q 800 3259 1026 3326 
Q 1253 3394 1513 3394 
Q 1903 3394 2198 3281 
Q 2494 3169 2634 2976 
Q 2775 2784 2828 2463 
L 2278 2388 
Q 2241 2644 2061 2787 
Q 1881 2931 1553 2931 
Q 1166 2931 1000 2803 
Q 834 2675 834 2503 
Q 834 2394 903 2306 
Q 972 2216 1119 2156 
Q 1203 2125 1616 2013 
Q 2213 1853 2448 1751 
Q 2684 1650 2818 1456 
Q 2953 1263 2953 975 
Q 2953 694 2789 445 
Q 2625 197 2315 61 
Q 2006 -75 1616 -75 
Q 969 -75 630 194 
Q 291 463 197 991 
z
" transform="scale(0.015625)"/>
       <path id="ArialMT-29" d="M 791 -1347 
L 388 -1347 
Q 1322 153 1322 1656 
Q 1322 2244 1188 2822 
Q 1081 3291 891 3722 
Q 769 4003 388 4659 
L 791 4659 
Q 1378 3875 1659 3084 
Q 1900 2403 1900 1659 
Q 1900 816 1576 28 
Q 1253 -759 791 -1347 
z
" transform="scale(0.015625)"/>
      </defs>
      <use xlink:href="#ArialMT-41"/>
      <use xlink:href="#ArialMT-6e" x="66.699219"/>
      <use xlink:href="#ArialMT-6e" x="122.314453"/>
      <use xlink:href="#ArialMT-75" x="177.929688"/>
      <use xlink:href="#ArialMT-61" x="233.544922"/>
      <use xlink:href="#ArialMT-6c" x="289.160156"/>
      <use xlink:href="#ArialMT-20" x="311.376953"/>
      <use xlink:href="#ArialMT-69" x="339.160156"/>
      <use xlink:href="#ArialMT-6e" x="361.376953"/>
      <use xlink:href="#ArialMT-63" x="416.992188"/>
      <use xlink:href="#ArialMT-6f" x="466.992188"/>
      <use xlink:href="#ArialMT-6d" x="522.607422"/>
      <use xlink:href="#ArialMT-65" x="605.908203"/>
      <use xlink:href="#ArialMT-20" x="661.523438"/>
      <use xlink:href="#ArialMT-28" x="689.306641"/>
      <use xlink:href="#ArialMT-74" x="722.607422"/>
      <use xlink:href="#ArialMT-68" x="750.390625"/>
      <use xlink:href="#ArialMT-6f" x="806.005859"/>
      <use xlink:href="#ArialMT-75" x="861.621094"/>
      <use xlink:href="#ArialMT-73" x="917.236328"/>
      <use xlink:href="#ArialMT-61" x="967.236328"/>
      <use xlink:href="#ArialMT-6e" x="1022.851562"/>
      <use xlink:href="#ArialMT-64" x="1078.466797"/>
      <use xlink:href="#ArialMT-73" x="1134.082031"/>
      <use xlink:href="#ArialMT-29" x="1184.082031"/>
     </g>
    </g>
   </g>
   <g id="PolyCollection_1">
    <defs>
     <path id="mec03da3e64" d="M 284.118521 -71.405217 
L 266.681479 -71.405217 
L 266.286262 -73.459289 
L 265.897054 -75.51336 
L 265.5137 -77.567431 
L 265.135752 -79.621502 
L 264.762519 -81.675573 
L 264.393143 -83.729644 
L 264.026683 -85.783715 
L 263.662205 -87.837787 
L 263.298885 -89.891858 
L 262.936104 -91.945929 
L 262.573544 -94 
L 262.21127 -96.054071 
L 261.849804 -98.108142 
L 261.490177 -100.162213 
L 261.133961 -102.216285 
L 260.78328 -104.270356 
L 260.440795 -106.324427 
L 260.109669 -108.378498 
L 259.793505 -110.432569 
L 259.496264 -112.48664 
L 259.222172 -114.540711 
L 258.975603 -116.594783 
L 258.760963 -118.648854 
L 258.58256 -120.702925 
L 258.444482 -122.756996 
L 258.350474 -124.811067 
L 258.30383 -126.865138 
L 258.307292 -128.919209 
L 258.362969 -130.973281 
L 258.472272 -133.027352 
L 258.635874 -135.081423 
L 258.853684 -137.135494 
L 259.124845 -139.189565 
L 259.447756 -141.243636 
L 259.820107 -143.297708 
L 260.238932 -145.351779 
L 260.700676 -147.40585 
L 261.201277 -149.459921 
L 261.736253 -151.513992 
L 262.300792 -153.568063 
L 262.88985 -155.622134 
L 263.498249 -157.676206 
L 264.120765 -159.730277 
L 264.752222 -161.784348 
L 265.387568 -163.838419 
L 266.021955 -165.89249 
L 266.6508 -167.946561 
L 267.269838 -170.000632 
L 267.875171 -172.054704 
L 268.463297 -174.108775 
L 269.031137 -176.162846 
L 269.576044 -178.216917 
L 270.095812 -180.270988 
L 270.588665 -182.325059 
L 271.053248 -184.37913 
L 271.488606 -186.433202 
L 271.894157 -188.487273 
L 272.269662 -190.541344 
L 272.61519 -192.595415 
L 272.931084 -194.649486 
L 273.217915 -196.703557 
L 273.476452 -198.757628 
L 273.707616 -200.8117 
L 273.912446 -202.865771 
L 274.092063 -204.919842 
L 274.247639 -206.973913 
L 274.380368 -209.027984 
L 274.491442 -211.082055 
L 274.582033 -213.136126 
L 274.653275 -215.190198 
L 274.706259 -217.244269 
L 274.742026 -219.29834 
L 274.76157 -221.352411 
L 274.765838 -223.406482 
L 274.755743 -225.460553 
L 274.732175 -227.514625 
L 274.696017 -229.568696 
L 274.648156 -231.622767 
L 274.589508 -233.676838 
L 274.521026 -235.730909 
L 274.443723 -237.78498 
L 274.35868 -239.839051 
L 274.267057 -241.893123 
L 274.170099 -243.947194 
L 274.069139 -246.001265 
L 273.96559 -248.055336 
L 273.860939 -250.109407 
L 273.756729 -252.163478 
L 273.654545 -254.217549 
L 273.555983 -256.271621 
L 273.462627 -258.325692 
L 273.376015 -260.379763 
L 273.297608 -262.433834 
L 273.228757 -264.487905 
L 273.170672 -266.541976 
L 273.124388 -268.596047 
L 273.090743 -270.650119 
L 273.070356 -272.70419 
L 273.063609 -274.758261 
L 277.736391 -274.758261 
L 277.736391 -274.758261 
L 277.729644 -272.70419 
L 277.709257 -270.650119 
L 277.675612 -268.596047 
L 277.629328 -266.541976 
L 277.571243 -264.487905 
L 277.502392 -262.433834 
L 277.423985 -260.379763 
L 277.337373 -258.325692 
L 277.244017 -256.271621 
L 277.145455 -254.217549 
L 277.043271 -252.163478 
L 276.939061 -250.109407 
L 276.83441 -248.055336 
L 276.730861 -246.001265 
L 276.629901 -243.947194 
L 276.532943 -241.893123 
L 276.44132 -239.839051 
L 276.356277 -237.78498 
L 276.278974 -235.730909 
L 276.210492 -233.676838 
L 276.151844 -231.622767 
L 276.103983 -229.568696 
L 276.067825 -227.514625 
L 276.044257 -225.460553 
L 276.034162 -223.406482 
L 276.03843 -221.352411 
L 276.057974 -219.29834 
L 276.093741 -217.244269 
L 276.146725 -215.190198 
L 276.217967 -213.136126 
L 276.308558 -211.082055 
L 276.419632 -209.027984 
L 276.552361 -206.973913 
L 276.707937 -204.919842 
L 276.887554 -202.865771 
L 277.092384 -200.8117 
L 277.323548 -198.757628 
L 277.582085 -196.703557 
L 277.868916 -194.649486 
L 278.18481 -192.595415 
L 278.530338 -190.541344 
L 278.905843 -188.487273 
L 279.311394 -186.433202 
L 279.746752 -184.37913 
L 280.211335 -182.325059 
L 280.704188 -180.270988 
L 281.223956 -178.216917 
L 281.768863 -176.162846 
L 282.336703 -174.108775 
L 282.924829 -172.054704 
L 283.530162 -170.000632 
L 284.1492 -167.946561 
L 284.778045 -165.89249 
L 285.412432 -163.838419 
L 286.047778 -161.784348 
L 286.679235 -159.730277 
L 287.301751 -157.676206 
L 287.91015 -155.622134 
L 288.499208 -153.568063 
L 289.063747 -151.513992 
L 289.598723 -149.459921 
L 290.099324 -147.40585 
L 290.561068 -145.351779 
L 290.979893 -143.297708 
L 291.352244 -141.243636 
L 291.675155 -139.189565 
L 291.946316 -137.135494 
L 292.164126 -135.081423 
L 292.327728 -133.027352 
L 292.437031 -130.973281 
L 292.492708 -128.919209 
L 292.49617 -126.865138 
L 292.449526 -124.811067 
L 292.355518 -122.756996 
L 292.21744 -120.702925 
L 292.039037 -118.648854 
L 291.824397 -116.594783 
L 291.577828 -114.540711 
L 291.303736 -112.48664 
L 291.006495 -110.432569 
L 290.690331 -108.378498 
L 290.359205 -106.324427 
L 290.01672 -104.270356 
L 289.666039 -102.216285 
L 289.309823 -100.162213 
L 288.950196 -98.108142 
L 288.58873 -96.054071 
L 288.226456 -94 
L 287.863896 -91.945929 
L 287.501115 -89.891858 
L 287.137795 -87.837787 
L 286.773317 -85.783715 
L 286.406857 -83.729644 
L 286.037481 -81.675573 
L 285.664248 -79.621502 
L 285.2863 -77.567431 
L 284.902946 -75.51336 
L 284.513738 -73.459289 
L 284.118521 -71.405217 
z
" style="stroke: #4c4c4c; stroke-width: 1.5"/>
    </defs>
    <g clip-path="url(#p143d469a39)">
     <use xlink:href="#mec03da3e64" x="0" y="432" style="fill: #5875a4; stroke: #4c4c4c; stroke-width: 1.5"/>
    </g>
   </g>
   <g id="PolyCollection_2">
    <defs>
     <path id="m257cacc281" d="M 634.974609 -62.64 
L 585.425391 -62.64 
L 582.448321 -65.694545 
L 579.361564 -68.749091 
L 576.182392 -71.803636 
L 572.924462 -74.858182 
L 569.596651 -77.912727 
L 566.202333 -80.967273 
L 562.739174 -84.021818 
L 559.199526 -87.076364 
L 555.57139 -90.130909 
L 551.839923 -93.185455 
L 547.989351 -96.24 
L 544.005151 -99.294545 
L 539.876311 -102.349091 
L 535.597483 -105.403636 
L 531.170859 -108.458182 
L 526.607656 -111.512727 
L 521.929097 -114.567273 
L 517.166897 -117.621818 
L 512.363251 -120.676364 
L 507.570389 -123.730909 
L 502.849754 -126.785455 
L 498.270856 -129.84 
L 493.909823 -132.894545 
L 489.84764 -135.949091 
L 486.16803 -139.003636 
L 482.954944 -142.058182 
L 480.289619 -145.112727 
L 478.247242 -148.167273 
L 476.893328 -151.221818 
L 476.28 -154.276364 
L 476.442469 -157.330909 
L 477.396042 -160.385455 
L 479.134038 -163.44 
L 481.626913 -166.494545 
L 484.822843 -169.549091 
L 488.649832 -172.603636 
L 493.019282 -175.658182 
L 497.830748 -178.712727 
L 502.977499 -181.767273 
L 508.352359 -184.821818 
L 513.853298 -187.876364 
L 519.388265 -190.930909 
L 524.878842 -193.985455 
L 530.26246 -197.04 
L 535.493071 -200.094545 
L 540.540376 -203.149091 
L 545.387822 -206.203636 
L 550.029734 -209.258182 
L 554.467995 -212.312727 
L 558.708675 -215.367273 
L 562.759012 -218.421818 
L 566.625015 -221.476364 
L 570.309879 -224.530909 
L 573.81327 -227.585455 
L 577.131438 -230.64 
L 580.257998 -233.694545 
L 583.185195 -236.749091 
L 585.905396 -239.803636 
L 588.412583 -242.858182 
L 590.703652 -245.912727 
L 592.779344 -248.967273 
L 594.644742 -252.021818 
L 596.309292 -255.076364 
L 597.786379 -258.130909 
L 599.092558 -261.185455 
L 600.246525 -264.24 
L 601.267974 -267.294545 
L 602.176448 -270.349091 
L 602.99031 -273.403636 
L 603.725894 -276.458182 
L 604.396917 -279.512727 
L 605.014149 -282.567273 
L 605.585356 -285.621818 
L 606.115463 -288.676364 
L 606.606909 -291.730909 
L 607.060111 -294.785455 
L 607.474002 -297.84 
L 607.846563 -300.894545 
L 608.175324 -303.949091 
L 608.457786 -307.003636 
L 608.691768 -310.058182 
L 608.875668 -313.112727 
L 609.008646 -316.167273 
L 609.090763 -319.221818 
L 609.123077 -322.276364 
L 609.107719 -325.330909 
L 609.047962 -328.385455 
L 608.948267 -331.44 
L 608.814302 -334.494545 
L 608.65292 -337.549091 
L 608.472057 -340.603636 
L 608.280555 -343.658182 
L 608.087873 -346.712727 
L 607.903715 -349.767273 
L 607.737562 -352.821818 
L 607.598176 -355.876364 
L 607.493079 -358.930909 
L 607.428094 -361.985455 
L 607.406973 -365.04 
L 612.993027 -365.04 
L 612.993027 -365.04 
L 612.971906 -361.985455 
L 612.906921 -358.930909 
L 612.801824 -355.876364 
L 612.662438 -352.821818 
L 612.496285 -349.767273 
L 612.312127 -346.712727 
L 612.119445 -343.658182 
L 611.927943 -340.603636 
L 611.74708 -337.549091 
L 611.585698 -334.494545 
L 611.451733 -331.44 
L 611.352038 -328.385455 
L 611.292281 -325.330909 
L 611.276923 -322.276364 
L 611.309237 -319.221818 
L 611.391354 -316.167273 
L 611.524332 -313.112727 
L 611.708232 -310.058182 
L 611.942214 -307.003636 
L 612.224676 -303.949091 
L 612.553437 -300.894545 
L 612.925998 -297.84 
L 613.339889 -294.785455 
L 613.793091 -291.730909 
L 614.284537 -288.676364 
L 614.814644 -285.621818 
L 615.385851 -282.567273 
L 616.003083 -279.512727 
L 616.674106 -276.458182 
L 617.40969 -273.403636 
L 618.223552 -270.349091 
L 619.132026 -267.294545 
L 620.153475 -264.24 
L 621.307442 -261.185455 
L 622.613621 -258.130909 
L 624.090708 -255.076364 
L 625.755258 -252.021818 
L 627.620656 -248.967273 
L 629.696348 -245.912727 
L 631.987417 -242.858182 
L 634.494604 -239.803636 
L 637.214805 -236.749091 
L 640.142002 -233.694545 
L 643.268562 -230.64 
L 646.58673 -227.585455 
L 650.090121 -224.530909 
L 653.774985 -221.476364 
L 657.640988 -218.421818 
L 661.691325 -215.367273 
L 665.932005 -212.312727 
L 670.370266 -209.258182 
L 675.012178 -206.203636 
L 679.859624 -203.149091 
L 684.906929 -200.094545 
L 690.13754 -197.04 
L 695.521158 -193.985455 
L 701.011735 -190.930909 
L 706.546702 -187.876364 
L 712.047641 -184.821818 
L 717.422501 -181.767273 
L 722.569252 -178.712727 
L 727.380718 -175.658182 
L 731.750168 -172.603636 
L 735.577157 -169.549091 
L 738.773087 -166.494545 
L 741.265962 -163.44 
L 743.003958 -160.385455 
L 743.957531 -157.330909 
L 744.12 -154.276364 
L 743.506672 -151.221818 
L 742.152758 -148.167273 
L 740.110381 -145.112727 
L 737.445056 -142.058182 
L 734.23197 -139.003636 
L 730.55236 -135.949091 
L 726.490177 -132.894545 
L 722.129144 -129.84 
L 717.550246 -126.785455 
L 712.829611 -123.730909 
L 708.036749 -120.676364 
L 703.233103 -117.621818 
L 698.470903 -114.567273 
L 693.792344 -111.512727 
L 689.229141 -108.458182 
L 684.802517 -105.403636 
L 680.523689 -102.349091 
L 676.394849 -99.294545 
L 672.410649 -96.24 
L 668.560077 -93.185455 
L 664.82861 -90.130909 
L 661.200474 -87.076364 
L 657.660826 -84.021818 
L 654.197667 -80.967273 
L 650.803349 -77.912727 
L 647.475538 -74.858182 
L 644.217608 -71.803636 
L 641.038436 -68.749091 
L 637.951679 -65.694545 
L 634.974609 -62.64 
z
" style="stroke: #4c4c4c; stroke-width: 1.5"/>
    </defs>
    <g clip-path="url(#p143d469a39)">
     <use xlink:href="#m257cacc281" x="0" y="432" style="fill: #cc8963; stroke: #4c4c4c; stroke-width: 1.5"/>
    </g>
   </g>
   <g id="line2d_9">
    <path d="M 260.262573 324.21913 
L 290.537427 324.21913 
" clip-path="url(#p143d469a39)" style="fill: none; stroke-dasharray: 3.375,3.375; stroke-dashoffset: 0; stroke: #4c4c4c; stroke-width: 1.5"/>
   </g>
   <g id="line2d_10">
    <path d="M 258.474791 305.812174 
L 292.325209 305.812174 
" clip-path="url(#p143d469a39)" style="fill: none; stroke-dasharray: 6.75,6.75; stroke-dashoffset: 0; stroke: #4c4c4c; stroke-width: 1.5"/>
   </g>
   <g id="line2d_11">
    <path d="M 260.390542 287.405217 
L 290.409458 287.405217 
" clip-path="url(#p143d469a39)" style="fill: none; stroke-dasharray: 3.375,3.375; stroke-dashoffset: 0; stroke: #4c4c4c; stroke-width: 1.5"/>
   </g>
   <g id="line2d_12">
    <path d="M 499.390148 303.62087 
L 721.009852 303.62087 
" clip-path="url(#p143d469a39)" style="fill: none; stroke-dasharray: 3.375,3.375; stroke-dashoffset: 0; stroke: #4c4c4c; stroke-width: 1.5"/>
   </g>
   <g id="line2d_13">
    <path d="M 477.780044 274.695652 
L 742.619956 274.695652 
" clip-path="url(#p143d469a39)" style="fill: none; stroke-dasharray: 6.75,6.75; stroke-dashoffset: 0; stroke: #4c4c4c; stroke-width: 1.5"/>
   </g>
   <g id="line2d_14">
    <path d="M 489.865334 259.082609 
L 730.534666 259.082609 
" clip-path="url(#p143d469a39)" style="fill: none; stroke-dasharray: 3.375,3.375; stroke-dashoffset: 0; stroke: #4c4c4c; stroke-width: 1.5"/>
   </g>
   <g id="patch_3">
    <path d="M 108 384.48 
L 108 51.84 
" style="fill: none; stroke: #ffffff; stroke-width: 1.25; stroke-linejoin: miter; stroke-linecap: square"/>
   </g>
   <g id="patch_4">
    <path d="M 777.6 384.48 
L 777.6 51.84 
" style="fill: none; stroke: #ffffff; stroke-width: 1.25; stroke-linejoin: miter; stroke-linecap: square"/>
   </g>
   <g id="patch_5">
    <path d="M 108 384.48 
L 777.6 384.48 
" style="fill: none; stroke: #ffffff; stroke-width: 1.25; stroke-linejoin: miter; stroke-linecap: square"/>
   </g>
   <g id="patch_6">
    <path d="M 108 51.84 
L 777.6 51.84 
" style="fill: none; stroke: #ffffff; stroke-width: 1.25; stroke-linejoin: miter; stroke-linecap: square"/>
   </g>
   <g id="text_13">
    <!-- Compensation by Gender (2022) -->
    <g style="fill: #262626" transform="translate(355.423125 45.84)scale(0.12 -0.12)">
     <defs>
      <path id="ArialMT-43" d="M 3763 1606 
L 4369 1453 
Q 4178 706 3683 314 
Q 3188 -78 2472 -78 
Q 1731 -78 1267 223 
Q 803 525 561 1097 
Q 319 1669 319 2325 
Q 319 3041 592 3573 
Q 866 4106 1370 4382 
Q 1875 4659 2481 4659 
Q 3169 4659 3637 4309 
Q 4106 3959 4291 3325 
L 3694 3184 
Q 3534 3684 3231 3912 
Q 2928 4141 2469 4141 
Q 1941 4141 1586 3887 
Q 1231 3634 1087 3207 
Q 944 2781 944 2328 
Q 944 1744 1114 1308 
Q 1284 872 1643 656 
Q 2003 441 2422 441 
Q 2931 441 3284 734 
Q 3638 1028 3763 1606 
z
" transform="scale(0.015625)"/>
      <path id="ArialMT-70" d="M 422 -1272 
L 422 3319 
L 934 3319 
L 934 2888 
Q 1116 3141 1344 3267 
Q 1572 3394 1897 3394 
Q 2322 3394 2647 3175 
Q 2972 2956 3137 2557 
Q 3303 2159 3303 1684 
Q 3303 1175 3120 767 
Q 2938 359 2589 142 
Q 2241 -75 1856 -75 
Q 1575 -75 1351 44 
Q 1128 163 984 344 
L 984 -1272 
L 422 -1272 
z
M 931 1641 
Q 931 1000 1190 694 
Q 1450 388 1819 388 
Q 2194 388 2461 705 
Q 2728 1022 2728 1688 
Q 2728 2322 2467 2637 
Q 2206 2953 1844 2953 
Q 1484 2953 1207 2617 
Q 931 2281 931 1641 
z
" transform="scale(0.015625)"/>
      <path id="ArialMT-62" d="M 941 0 
L 419 0 
L 419 4581 
L 981 4581 
L 981 2947 
Q 1338 3394 1891 3394 
Q 2197 3394 2470 3270 
Q 2744 3147 2920 2923 
Q 3097 2700 3197 2384 
Q 3297 2069 3297 1709 
Q 3297 856 2875 390 
Q 2453 -75 1863 -75 
Q 1275 -75 941 416 
L 941 0 
z
M 934 1684 
Q 934 1088 1097 822 
Q 1363 388 1816 388 
Q 2184 388 2453 708 
Q 2722 1028 2722 1663 
Q 2722 2313 2464 2622 
Q 2206 2931 1841 2931 
Q 1472 2931 1203 2611 
Q 934 2291 934 1684 
z
" transform="scale(0.015625)"/>
      <path id="ArialMT-79" d="M 397 -1278 
L 334 -750 
Q 519 -800 656 -800 
Q 844 -800 956 -737 
Q 1069 -675 1141 -563 
Q 1194 -478 1313 -144 
Q 1328 -97 1363 -6 
L 103 3319 
L 709 3319 
L 1400 1397 
Q 1534 1031 1641 628 
Q 1738 1016 1872 1384 
L 2581 3319 
L 3144 3319 
L 1881 -56 
Q 1678 -603 1566 -809 
Q 1416 -1088 1222 -1217 
Q 1028 -1347 759 -1347 
Q 597 -1347 397 -1278 
z
" transform="scale(0.015625)"/>
     </defs>
     <use xlink:href="#ArialMT-43"/>
     <use xlink:href="#ArialMT-6f" x="72.216797"/>
     <use xlink:href="#ArialMT-6d" x="127.832031"/>
     <use xlink:href="#ArialMT-70" x="211.132812"/>
     <use xlink:href="#ArialMT-65" x="266.748047"/>
     <use xlink:href="#ArialMT-6e" x="322.363281"/>
     <use xlink:href="#ArialMT-73" x="377.978516"/>
     <use xlink:href="#ArialMT-61" x="427.978516"/>
     <use xlink:href="#ArialMT-74" x="483.59375"/>
     <use xlink:href="#ArialMT-69" x="511.376953"/>
     <use xlink:href="#ArialMT-6f" x="533.59375"/>
     <use xlink:href="#ArialMT-6e" x="589.208984"/>
     <use xlink:href="#ArialMT-20" x="644.824219"/>
     <use xlink:href="#ArialMT-62" x="672.607422"/>
     <use xlink:href="#ArialMT-79" x="728.222656"/>
     <use xlink:href="#ArialMT-20" x="778.222656"/>
     <use xlink:href="#ArialMT-47" x="806.005859"/>
     <use xlink:href="#ArialMT-65" x="883.789062"/>
     <use xlink:href="#ArialMT-6e" x="939.404297"/>
     <use xlink:href="#ArialMT-64" x="995.019531"/>
     <use xlink:href="#ArialMT-65" x="1050.634766"/>
     <use xlink:href="#ArialMT-72" x="1106.25"/>
     <use xlink:href="#ArialMT-20" x="1139.550781"/>
     <use xlink:href="#ArialMT-28" x="1167.333984"/>
     <use xlink:href="#ArialMT-32" x="1200.634766"/>
     <use xlink:href="#ArialMT-30" x="1256.25"/>
     <use xlink:href="#ArialMT-32" x="1311.865234"/>
     <use xlink:href="#ArialMT-32" x="1367.480469"/>
     <use xlink:href="#ArialMT-29" x="1423.095703"/>
    </g>
   </g>
  </g>
 </g>
 <defs>
  <clipPath id="p143d469a39">
   <rect x="108" y="51.84" width="669.6" height="332.64"/>
  </clipPath>
 </defs>
</svg>
