<?xml version="1.0" encoding="utf-8" standalone="no"?>
<!DOCTYPE svg PUBLIC "-//W3C//DTD SVG 1.1//EN"
  "http://www.w3.org/Graphics/SVG/1.1/DTD/svg11.dtd">
<svg xmlns:xlink="http://www.w3.org/1999/xlink" width="864pt" height="432pt" viewBox="0 0 864 432" xmlns="http://www.w3.org/2000/svg" version="1.1">
 <metadata>
  <rdf:RDF xmlns:dc="http://purl.org/dc/elements/1.1/" xmlns:cc="http://creativecommons.org/ns#" xmlns:rdf="http://www.w3.org/1999/02/22-rdf-syntax-ns#">
   <cc:Work>
    <dc:type rdf:resource="http://purl.org/dc/dcmitype/StillImage"/>
    <dc:date>2023-03-07T17:55:19.177660</dc:date>
    <dc:format>image/svg+xml</dc:format>
    <dc:creator>
     <cc:Agent>
      <dc:title>Matplotlib v3.5.2, https://matplotlib.org/</dc:title>
     </cc:Agent>
    </dc:creator>
   </cc:Work>
  </rdf:RDF>
 </metadata>
 <defs>
  <style type="text/css">*{stroke-linejoin: round; stroke-linecap: butt}</style>
 </defs>
 <g id="figure_1">
  <g id="patch_1">
   <path d="M 0 432 
L 864 432 
L 864 0 
L 0 0 
z
" style="fill: #ffffff"/>
  </g>
  <g id="axes_1">
   <g id="patch_2">
    <path d="M 108 384.48 
L 777.6 384.48 
L 777.6 51.84 
L 108 51.84 
z
" style="fill: #eaeaf2"/>
   </g>
   <g id="matplotlib.axis_1">
    <g id="xtick_1">
     <g id="line2d_1">
      <path d="M 148.636874 384.48 
L 148.636874 51.84 
" clip-path="url(#p240e3dc32b)" style="fill: none; stroke: #ffffff; stroke-linecap: round"/>
     </g>
     <g id="text_1">
      <!-- 0 -->
      <g style="fill: #262626" transform="translate(145.578358 401.853594)scale(0.11 -0.11)">
       <defs>
        <path id="ArialMT-30" d="M 266 2259 
Q 266 3072 433 3567 
Q 600 4063 929 4331 
Q 1259 4600 1759 4600 
Q 2128 4600 2406 4451 
Q 2684 4303 2865 4023 
Q 3047 3744 3150 3342 
Q 3253 2941 3253 2259 
Q 3253 1453 3087 958 
Q 2922 463 2592 192 
Q 2263 -78 1759 -78 
Q 1097 -78 719 397 
Q 266 969 266 2259 
z
M 844 2259 
Q 844 1131 1108 757 
Q 1372 384 1759 384 
Q 2147 384 2411 759 
Q 2675 1134 2675 2259 
Q 2675 3391 2411 3762 
Q 2147 4134 1753 4134 
Q 1366 4134 1134 3806 
Q 844 3388 844 2259 
z
" transform="scale(0.015625)"/>
       </defs>
       <use xlink:href="#ArialMT-30"/>
      </g>
     </g>
    </g>
    <g id="xtick_2">
     <g id="line2d_2">
      <path d="M 273.812672 384.48 
L 273.812672 51.84 
" clip-path="url(#p240e3dc32b)" style="fill: none; stroke: #ffffff; stroke-linecap: round"/>
     </g>
     <g id="text_2">
      <!-- 5 -->
      <g style="fill: #262626" transform="translate(270.754157 401.853594)scale(0.11 -0.11)">
       <defs>
        <path id="ArialMT-35" d="M 266 1200 
L 856 1250 
Q 922 819 1161 601 
Q 1400 384 1738 384 
Q 2144 384 2425 690 
Q 2706 997 2706 1503 
Q 2706 1984 2436 2262 
Q 2166 2541 1728 2541 
Q 1456 2541 1237 2417 
Q 1019 2294 894 2097 
L 366 2166 
L 809 4519 
L 3088 4519 
L 3088 3981 
L 1259 3981 
L 1013 2750 
Q 1425 3038 1878 3038 
Q 2478 3038 2890 2622 
Q 3303 2206 3303 1553 
Q 3303 931 2941 478 
Q 2500 -78 1738 -78 
Q 1113 -78 717 272 
Q 322 622 266 1200 
z
" transform="scale(0.015625)"/>
       </defs>
       <use xlink:href="#ArialMT-35"/>
      </g>
     </g>
    </g>
    <g id="xtick_3">
     <g id="line2d_3">
      <path d="M 398.988471 384.48 
L 398.988471 51.84 
" clip-path="url(#p240e3dc32b)" style="fill: none; stroke: #ffffff; stroke-linecap: round"/>
     </g>
     <g id="text_3">
      <!-- 10 -->
      <g style="fill: #262626" transform="translate(392.871439 401.853594)scale(0.11 -0.11)">
       <defs>
        <path id="ArialMT-31" d="M 2384 0 
L 1822 0 
L 1822 3584 
Q 1619 3391 1289 3197 
Q 959 3003 697 2906 
L 697 3450 
Q 1169 3672 1522 3987 
Q 1875 4303 2022 4600 
L 2384 4600 
L 2384 0 
z
" transform="scale(0.015625)"/>
       </defs>
       <use xlink:href="#ArialMT-31"/>
       <use xlink:href="#ArialMT-30" x="55.615234"/>
      </g>
     </g>
    </g>
    <g id="xtick_4">
     <g id="line2d_4">
      <path d="M 524.164269 384.48 
L 524.164269 51.84 
" clip-path="url(#p240e3dc32b)" style="fill: none; stroke: #ffffff; stroke-linecap: round"/>
     </g>
     <g id="text_4">
      <!-- 15 -->
      <g style="fill: #262626" transform="translate(518.047238 401.853594)scale(0.11 -0.11)">
       <use xlink:href="#ArialMT-31"/>
       <use xlink:href="#ArialMT-35" x="55.615234"/>
      </g>
     </g>
    </g>
    <g id="xtick_5">
     <g id="line2d_5">
      <path d="M 649.340067 384.48 
L 649.340067 51.84 
" clip-path="url(#p240e3dc32b)" style="fill: none; stroke: #ffffff; stroke-linecap: round"/>
     </g>
     <g id="text_5">
      <!-- 20 -->
      <g style="fill: #262626" transform="translate(643.223036 401.853594)scale(0.11 -0.11)">
       <defs>
        <path id="ArialMT-32" d="M 3222 541 
L 3222 0 
L 194 0 
Q 188 203 259 391 
Q 375 700 629 1000 
Q 884 1300 1366 1694 
Q 2113 2306 2375 2664 
Q 2638 3022 2638 3341 
Q 2638 3675 2398 3904 
Q 2159 4134 1775 4134 
Q 1369 4134 1125 3890 
Q 881 3647 878 3216 
L 300 3275 
Q 359 3922 746 4261 
Q 1134 4600 1788 4600 
Q 2447 4600 2831 4234 
Q 3216 3869 3216 3328 
Q 3216 3053 3103 2787 
Q 2991 2522 2730 2228 
Q 2469 1934 1863 1422 
Q 1356 997 1212 845 
Q 1069 694 975 541 
L 3222 541 
z
" transform="scale(0.015625)"/>
       </defs>
       <use xlink:href="#ArialMT-32"/>
       <use xlink:href="#ArialMT-30" x="55.615234"/>
      </g>
     </g>
    </g>
    <g id="xtick_6">
     <g id="line2d_6">
      <path d="M 774.515865 384.48 
L 774.515865 51.84 
" clip-path="url(#p240e3dc32b)" style="fill: none; stroke: #ffffff; stroke-linecap: round"/>
     </g>
     <g id="text_6">
      <!-- 25 -->
      <g style="fill: #262626" transform="translate(768.398834 401.853594)scale(0.11 -0.11)">
       <use xlink:href="#ArialMT-32"/>
       <use xlink:href="#ArialMT-35" x="55.615234"/>
      </g>
     </g>
    </g>
    <g id="text_7">
     <!-- Duration of Average Job (Years) -->
     <g style="fill: #262626" transform="translate(357.74625 416.775469)scale(0.12 -0.12)">
      <defs>
       <path id="ArialMT-44" d="M 494 0 
L 494 4581 
L 2072 4581 
Q 2606 4581 2888 4516 
Q 3281 4425 3559 4188 
Q 3922 3881 4101 3404 
Q 4281 2928 4281 2316 
Q 4281 1794 4159 1391 
Q 4038 988 3847 723 
Q 3656 459 3429 307 
Q 3203 156 2883 78 
Q 2563 0 2147 0 
L 494 0 
z
M 1100 541 
L 2078 541 
Q 2531 541 2789 625 
Q 3047 709 3200 863 
Q 3416 1078 3536 1442 
Q 3656 1806 3656 2325 
Q 3656 3044 3420 3430 
Q 3184 3816 2847 3947 
Q 2603 4041 2063 4041 
L 1100 4041 
L 1100 541 
z
" transform="scale(0.015625)"/>
       <path id="ArialMT-75" d="M 2597 0 
L 2597 488 
Q 2209 -75 1544 -75 
Q 1250 -75 995 37 
Q 741 150 617 320 
Q 494 491 444 738 
Q 409 903 409 1263 
L 409 3319 
L 972 3319 
L 972 1478 
Q 972 1038 1006 884 
Q 1059 663 1231 536 
Q 1403 409 1656 409 
Q 1909 409 2131 539 
Q 2353 669 2445 892 
Q 2538 1116 2538 1541 
L 2538 3319 
L 3100 3319 
L 3100 0 
L 2597 0 
z
" transform="scale(0.015625)"/>
       <path id="ArialMT-72" d="M 416 0 
L 416 3319 
L 922 3319 
L 922 2816 
Q 1116 3169 1280 3281 
Q 1444 3394 1641 3394 
Q 1925 3394 2219 3213 
L 2025 2691 
Q 1819 2813 1613 2813 
Q 1428 2813 1281 2702 
Q 1134 2591 1072 2394 
Q 978 2094 978 1738 
L 978 0 
L 416 0 
z
" transform="scale(0.015625)"/>
       <path id="ArialMT-61" d="M 2588 409 
Q 2275 144 1986 34 
Q 1697 -75 1366 -75 
Q 819 -75 525 192 
Q 231 459 231 875 
Q 231 1119 342 1320 
Q 453 1522 633 1644 
Q 813 1766 1038 1828 
Q 1203 1872 1538 1913 
Q 2219 1994 2541 2106 
Q 2544 2222 2544 2253 
Q 2544 2597 2384 2738 
Q 2169 2928 1744 2928 
Q 1347 2928 1158 2789 
Q 969 2650 878 2297 
L 328 2372 
Q 403 2725 575 2942 
Q 747 3159 1072 3276 
Q 1397 3394 1825 3394 
Q 2250 3394 2515 3294 
Q 2781 3194 2906 3042 
Q 3031 2891 3081 2659 
Q 3109 2516 3109 2141 
L 3109 1391 
Q 3109 606 3145 398 
Q 3181 191 3288 0 
L 2700 0 
Q 2613 175 2588 409 
z
M 2541 1666 
Q 2234 1541 1622 1453 
Q 1275 1403 1131 1340 
Q 988 1278 909 1158 
Q 831 1038 831 891 
Q 831 666 1001 516 
Q 1172 366 1500 366 
Q 1825 366 2078 508 
Q 2331 650 2450 897 
Q 2541 1088 2541 1459 
L 2541 1666 
z
" transform="scale(0.015625)"/>
       <path id="ArialMT-74" d="M 1650 503 
L 1731 6 
Q 1494 -44 1306 -44 
Q 1000 -44 831 53 
Q 663 150 594 308 
Q 525 466 525 972 
L 525 2881 
L 113 2881 
L 113 3319 
L 525 3319 
L 525 4141 
L 1084 4478 
L 1084 3319 
L 1650 3319 
L 1650 2881 
L 1084 2881 
L 1084 941 
Q 1084 700 1114 631 
Q 1144 563 1211 522 
Q 1278 481 1403 481 
Q 1497 481 1650 503 
z
" transform="scale(0.015625)"/>
       <path id="ArialMT-69" d="M 425 3934 
L 425 4581 
L 988 4581 
L 988 3934 
L 425 3934 
z
M 425 0 
L 425 3319 
L 988 3319 
L 988 0 
L 425 0 
z
" transform="scale(0.015625)"/>
       <path id="ArialMT-6f" d="M 213 1659 
Q 213 2581 725 3025 
Q 1153 3394 1769 3394 
Q 2453 3394 2887 2945 
Q 3322 2497 3322 1706 
Q 3322 1066 3130 698 
Q 2938 331 2570 128 
Q 2203 -75 1769 -75 
Q 1072 -75 642 372 
Q 213 819 213 1659 
z
M 791 1659 
Q 791 1022 1069 705 
Q 1347 388 1769 388 
Q 2188 388 2466 706 
Q 2744 1025 2744 1678 
Q 2744 2294 2464 2611 
Q 2184 2928 1769 2928 
Q 1347 2928 1069 2612 
Q 791 2297 791 1659 
z
" transform="scale(0.015625)"/>
       <path id="ArialMT-6e" d="M 422 0 
L 422 3319 
L 928 3319 
L 928 2847 
Q 1294 3394 1984 3394 
Q 2284 3394 2536 3286 
Q 2788 3178 2913 3003 
Q 3038 2828 3088 2588 
Q 3119 2431 3119 2041 
L 3119 0 
L 2556 0 
L 2556 2019 
Q 2556 2363 2490 2533 
Q 2425 2703 2258 2804 
Q 2091 2906 1866 2906 
Q 1506 2906 1245 2678 
Q 984 2450 984 1813 
L 984 0 
L 422 0 
z
" transform="scale(0.015625)"/>
       <path id="ArialMT-20" transform="scale(0.015625)"/>
       <path id="ArialMT-66" d="M 556 0 
L 556 2881 
L 59 2881 
L 59 3319 
L 556 3319 
L 556 3672 
Q 556 4006 616 4169 
Q 697 4388 901 4523 
Q 1106 4659 1475 4659 
Q 1713 4659 2000 4603 
L 1916 4113 
Q 1741 4144 1584 4144 
Q 1328 4144 1222 4034 
Q 1116 3925 1116 3625 
L 1116 3319 
L 1763 3319 
L 1763 2881 
L 1116 2881 
L 1116 0 
L 556 0 
z
" transform="scale(0.015625)"/>
       <path id="ArialMT-41" d="M -9 0 
L 1750 4581 
L 2403 4581 
L 4278 0 
L 3588 0 
L 3053 1388 
L 1138 1388 
L 634 0 
L -9 0 
z
M 1313 1881 
L 2866 1881 
L 2388 3150 
Q 2169 3728 2063 4100 
Q 1975 3659 1816 3225 
L 1313 1881 
z
" transform="scale(0.015625)"/>
       <path id="ArialMT-76" d="M 1344 0 
L 81 3319 
L 675 3319 
L 1388 1331 
Q 1503 1009 1600 663 
Q 1675 925 1809 1294 
L 2547 3319 
L 3125 3319 
L 1869 0 
L 1344 0 
z
" transform="scale(0.015625)"/>
       <path id="ArialMT-65" d="M 2694 1069 
L 3275 997 
Q 3138 488 2766 206 
Q 2394 -75 1816 -75 
Q 1088 -75 661 373 
Q 234 822 234 1631 
Q 234 2469 665 2931 
Q 1097 3394 1784 3394 
Q 2450 3394 2872 2941 
Q 3294 2488 3294 1666 
Q 3294 1616 3291 1516 
L 816 1516 
Q 847 969 1125 678 
Q 1403 388 1819 388 
Q 2128 388 2347 550 
Q 2566 713 2694 1069 
z
M 847 1978 
L 2700 1978 
Q 2663 2397 2488 2606 
Q 2219 2931 1791 2931 
Q 1403 2931 1139 2672 
Q 875 2413 847 1978 
z
" transform="scale(0.015625)"/>
       <path id="ArialMT-67" d="M 319 -275 
L 866 -356 
Q 900 -609 1056 -725 
Q 1266 -881 1628 -881 
Q 2019 -881 2231 -725 
Q 2444 -569 2519 -288 
Q 2563 -116 2559 434 
Q 2191 0 1641 0 
Q 956 0 581 494 
Q 206 988 206 1678 
Q 206 2153 378 2554 
Q 550 2956 876 3175 
Q 1203 3394 1644 3394 
Q 2231 3394 2613 2919 
L 2613 3319 
L 3131 3319 
L 3131 450 
Q 3131 -325 2973 -648 
Q 2816 -972 2473 -1159 
Q 2131 -1347 1631 -1347 
Q 1038 -1347 672 -1080 
Q 306 -813 319 -275 
z
M 784 1719 
Q 784 1066 1043 766 
Q 1303 466 1694 466 
Q 2081 466 2343 764 
Q 2606 1063 2606 1700 
Q 2606 2309 2336 2618 
Q 2066 2928 1684 2928 
Q 1309 2928 1046 2623 
Q 784 2319 784 1719 
z
" transform="scale(0.015625)"/>
       <path id="ArialMT-4a" d="M 184 1300 
L 731 1375 
Q 753 850 928 656 
Q 1103 463 1413 463 
Q 1641 463 1806 567 
Q 1972 672 2034 851 
Q 2097 1031 2097 1425 
L 2097 4581 
L 2703 4581 
L 2703 1459 
Q 2703 884 2564 568 
Q 2425 253 2123 87 
Q 1822 -78 1416 -78 
Q 813 -78 492 269 
Q 172 616 184 1300 
z
" transform="scale(0.015625)"/>
       <path id="ArialMT-62" d="M 941 0 
L 419 0 
L 419 4581 
L 981 4581 
L 981 2947 
Q 1338 3394 1891 3394 
Q 2197 3394 2470 3270 
Q 2744 3147 2920 2923 
Q 3097 2700 3197 2384 
Q 3297 2069 3297 1709 
Q 3297 856 2875 390 
Q 2453 -75 1863 -75 
Q 1275 -75 941 416 
L 941 0 
z
M 934 1684 
Q 934 1088 1097 822 
Q 1363 388 1816 388 
Q 2184 388 2453 708 
Q 2722 1028 2722 1663 
Q 2722 2313 2464 2622 
Q 2206 2931 1841 2931 
Q 1472 2931 1203 2611 
Q 934 2291 934 1684 
z
" transform="scale(0.015625)"/>
       <path id="ArialMT-28" d="M 1497 -1347 
Q 1031 -759 709 28 
Q 388 816 388 1659 
Q 388 2403 628 3084 
Q 909 3875 1497 4659 
L 1900 4659 
Q 1522 4009 1400 3731 
Q 1209 3300 1100 2831 
Q 966 2247 966 1656 
Q 966 153 1900 -1347 
L 1497 -1347 
z
" transform="scale(0.015625)"/>
       <path id="ArialMT-59" d="M 1784 0 
L 1784 1941 
L 19 4581 
L 756 4581 
L 1659 3200 
Q 1909 2813 2125 2425 
Q 2331 2784 2625 3234 
L 3513 4581 
L 4219 4581 
L 2391 1941 
L 2391 0 
L 1784 0 
z
" transform="scale(0.015625)"/>
       <path id="ArialMT-73" d="M 197 991 
L 753 1078 
Q 800 744 1014 566 
Q 1228 388 1613 388 
Q 2000 388 2187 545 
Q 2375 703 2375 916 
Q 2375 1106 2209 1216 
Q 2094 1291 1634 1406 
Q 1016 1563 777 1677 
Q 538 1791 414 1992 
Q 291 2194 291 2438 
Q 291 2659 392 2848 
Q 494 3038 669 3163 
Q 800 3259 1026 3326 
Q 1253 3394 1513 3394 
Q 1903 3394 2198 3281 
Q 2494 3169 2634 2976 
Q 2775 2784 2828 2463 
L 2278 2388 
Q 2241 2644 2061 2787 
Q 1881 2931 1553 2931 
Q 1166 2931 1000 2803 
Q 834 2675 834 2503 
Q 834 2394 903 2306 
Q 972 2216 1119 2156 
Q 1203 2125 1616 2013 
Q 2213 1853 2448 1751 
Q 2684 1650 2818 1456 
Q 2953 1263 2953 975 
Q 2953 694 2789 445 
Q 2625 197 2315 61 
Q 2006 -75 1616 -75 
Q 969 -75 630 194 
Q 291 463 197 991 
z
" transform="scale(0.015625)"/>
       <path id="ArialMT-29" d="M 791 -1347 
L 388 -1347 
Q 1322 153 1322 1656 
Q 1322 2244 1188 2822 
Q 1081 3291 891 3722 
Q 769 4003 388 4659 
L 791 4659 
Q 1378 3875 1659 3084 
Q 1900 2403 1900 1659 
Q 1900 816 1576 28 
Q 1253 -759 791 -1347 
z
" transform="scale(0.015625)"/>
      </defs>
      <use xlink:href="#ArialMT-44"/>
      <use xlink:href="#ArialMT-75" x="72.216797"/>
      <use xlink:href="#ArialMT-72" x="127.832031"/>
      <use xlink:href="#ArialMT-61" x="161.132812"/>
      <use xlink:href="#ArialMT-74" x="216.748047"/>
      <use xlink:href="#ArialMT-69" x="244.53125"/>
      <use xlink:href="#ArialMT-6f" x="266.748047"/>
      <use xlink:href="#ArialMT-6e" x="322.363281"/>
      <use xlink:href="#ArialMT-20" x="377.978516"/>
      <use xlink:href="#ArialMT-6f" x="405.761719"/>
      <use xlink:href="#ArialMT-66" x="461.376953"/>
      <use xlink:href="#ArialMT-20" x="489.160156"/>
      <use xlink:href="#ArialMT-41" x="511.443359"/>
      <use xlink:href="#ArialMT-76" x="576.392578"/>
      <use xlink:href="#ArialMT-65" x="626.392578"/>
      <use xlink:href="#ArialMT-72" x="682.007812"/>
      <use xlink:href="#ArialMT-61" x="715.308594"/>
      <use xlink:href="#ArialMT-67" x="770.923828"/>
      <use xlink:href="#ArialMT-65" x="826.539062"/>
      <use xlink:href="#ArialMT-20" x="882.154297"/>
      <use xlink:href="#ArialMT-4a" x="909.9375"/>
      <use xlink:href="#ArialMT-6f" x="959.9375"/>
      <use xlink:href="#ArialMT-62" x="1015.552734"/>
      <use xlink:href="#ArialMT-20" x="1071.167969"/>
      <use xlink:href="#ArialMT-28" x="1098.951172"/>
      <use xlink:href="#ArialMT-59" x="1132.251953"/>
      <use xlink:href="#ArialMT-65" x="1189.826172"/>
      <use xlink:href="#ArialMT-61" x="1245.441406"/>
      <use xlink:href="#ArialMT-72" x="1301.056641"/>
      <use xlink:href="#ArialMT-73" x="1334.357422"/>
      <use xlink:href="#ArialMT-29" x="1384.357422"/>
     </g>
    </g>
   </g>
   <g id="matplotlib.axis_2">
    <g id="ytick_1">
     <g id="line2d_7">
      <path d="M 108 384.48 
L 777.6 384.48 
" clip-path="url(#p240e3dc32b)" style="fill: none; stroke: #ffffff; stroke-linecap: round"/>
     </g>
     <g id="text_8">
      <!-- 0.00 -->
      <g style="fill: #262626" transform="translate(77.092969 388.416797)scale(0.11 -0.11)">
       <defs>
        <path id="ArialMT-2e" d="M 581 0 
L 581 641 
L 1222 641 
L 1222 0 
L 581 0 
z
" transform="scale(0.015625)"/>
       </defs>
       <use xlink:href="#ArialMT-30"/>
       <use xlink:href="#ArialMT-2e" x="55.615234"/>
       <use xlink:href="#ArialMT-30" x="83.398438"/>
       <use xlink:href="#ArialMT-30" x="139.013672"/>
      </g>
     </g>
    </g>
    <g id="ytick_2">
     <g id="line2d_8">
      <path d="M 108 340.850759 
L 777.6 340.850759 
" clip-path="url(#p240e3dc32b)" style="fill: none; stroke: #ffffff; stroke-linecap: round"/>
     </g>
     <g id="text_9">
      <!-- 0.05 -->
      <g style="fill: #262626" transform="translate(77.092969 344.787556)scale(0.11 -0.11)">
       <use xlink:href="#ArialMT-30"/>
       <use xlink:href="#ArialMT-2e" x="55.615234"/>
       <use xlink:href="#ArialMT-30" x="83.398438"/>
       <use xlink:href="#ArialMT-35" x="139.013672"/>
      </g>
     </g>
    </g>
    <g id="ytick_3">
     <g id="line2d_9">
      <path d="M 108 297.221517 
L 777.6 297.221517 
" clip-path="url(#p240e3dc32b)" style="fill: none; stroke: #ffffff; stroke-linecap: round"/>
     </g>
     <g id="text_10">
      <!-- 0.10 -->
      <g style="fill: #262626" transform="translate(77.092969 301.158314)scale(0.11 -0.11)">
       <use xlink:href="#ArialMT-30"/>
       <use xlink:href="#ArialMT-2e" x="55.615234"/>
       <use xlink:href="#ArialMT-31" x="83.398438"/>
       <use xlink:href="#ArialMT-30" x="139.013672"/>
      </g>
     </g>
    </g>
    <g id="ytick_4">
     <g id="line2d_10">
      <path d="M 108 253.592276 
L 777.6 253.592276 
" clip-path="url(#p240e3dc32b)" style="fill: none; stroke: #ffffff; stroke-linecap: round"/>
     </g>
     <g id="text_11">
      <!-- 0.15 -->
      <g style="fill: #262626" transform="translate(77.092969 257.529073)scale(0.11 -0.11)">
       <use xlink:href="#ArialMT-30"/>
       <use xlink:href="#ArialMT-2e" x="55.615234"/>
       <use xlink:href="#ArialMT-31" x="83.398438"/>
       <use xlink:href="#ArialMT-35" x="139.013672"/>
      </g>
     </g>
    </g>
    <g id="ytick_5">
     <g id="line2d_11">
      <path d="M 108 209.963035 
L 777.6 209.963035 
" clip-path="url(#p240e3dc32b)" style="fill: none; stroke: #ffffff; stroke-linecap: round"/>
     </g>
     <g id="text_12">
      <!-- 0.20 -->
      <g style="fill: #262626" transform="translate(77.092969 213.899831)scale(0.11 -0.11)">
       <use xlink:href="#ArialMT-30"/>
       <use xlink:href="#ArialMT-2e" x="55.615234"/>
       <use xlink:href="#ArialMT-32" x="83.398438"/>
       <use xlink:href="#ArialMT-30" x="139.013672"/>
      </g>
     </g>
    </g>
    <g id="ytick_6">
     <g id="line2d_12">
      <path d="M 108 166.333793 
L 777.6 166.333793 
" clip-path="url(#p240e3dc32b)" style="fill: none; stroke: #ffffff; stroke-linecap: round"/>
     </g>
     <g id="text_13">
      <!-- 0.25 -->
      <g style="fill: #262626" transform="translate(77.092969 170.27059)scale(0.11 -0.11)">
       <use xlink:href="#ArialMT-30"/>
       <use xlink:href="#ArialMT-2e" x="55.615234"/>
       <use xlink:href="#ArialMT-32" x="83.398438"/>
       <use xlink:href="#ArialMT-35" x="139.013672"/>
      </g>
     </g>
    </g>
    <g id="ytick_7">
     <g id="line2d_13">
      <path d="M 108 122.704552 
L 777.6 122.704552 
" clip-path="url(#p240e3dc32b)" style="fill: none; stroke: #ffffff; stroke-linecap: round"/>
     </g>
     <g id="text_14">
      <!-- 0.30 -->
      <g style="fill: #262626" transform="translate(77.092969 126.641349)scale(0.11 -0.11)">
       <defs>
        <path id="ArialMT-33" d="M 269 1209 
L 831 1284 
Q 928 806 1161 595 
Q 1394 384 1728 384 
Q 2125 384 2398 659 
Q 2672 934 2672 1341 
Q 2672 1728 2419 1979 
Q 2166 2231 1775 2231 
Q 1616 2231 1378 2169 
L 1441 2663 
Q 1497 2656 1531 2656 
Q 1891 2656 2178 2843 
Q 2466 3031 2466 3422 
Q 2466 3731 2256 3934 
Q 2047 4138 1716 4138 
Q 1388 4138 1169 3931 
Q 950 3725 888 3313 
L 325 3413 
Q 428 3978 793 4289 
Q 1159 4600 1703 4600 
Q 2078 4600 2393 4439 
Q 2709 4278 2876 4000 
Q 3044 3722 3044 3409 
Q 3044 3113 2884 2869 
Q 2725 2625 2413 2481 
Q 2819 2388 3044 2092 
Q 3269 1797 3269 1353 
Q 3269 753 2831 336 
Q 2394 -81 1725 -81 
Q 1122 -81 723 278 
Q 325 638 269 1209 
z
" transform="scale(0.015625)"/>
       </defs>
       <use xlink:href="#ArialMT-30"/>
       <use xlink:href="#ArialMT-2e" x="55.615234"/>
       <use xlink:href="#ArialMT-33" x="83.398438"/>
       <use xlink:href="#ArialMT-30" x="139.013672"/>
      </g>
     </g>
    </g>
    <g id="ytick_8">
     <g id="line2d_14">
      <path d="M 108 79.07531 
L 777.6 79.07531 
" clip-path="url(#p240e3dc32b)" style="fill: none; stroke: #ffffff; stroke-linecap: round"/>
     </g>
     <g id="text_15">
      <!-- 0.35 -->
      <g style="fill: #262626" transform="translate(77.092969 83.012107)scale(0.11 -0.11)">
       <use xlink:href="#ArialMT-30"/>
       <use xlink:href="#ArialMT-2e" x="55.615234"/>
       <use xlink:href="#ArialMT-33" x="83.398438"/>
       <use xlink:href="#ArialMT-35" x="139.013672"/>
      </g>
     </g>
    </g>
    <g id="text_16">
     <!-- Density -->
     <g style="fill: #262626" transform="translate(70.567344 238.16625)rotate(-90)scale(0.12 -0.12)">
      <defs>
       <path id="ArialMT-79" d="M 397 -1278 
L 334 -750 
Q 519 -800 656 -800 
Q 844 -800 956 -737 
Q 1069 -675 1141 -563 
Q 1194 -478 1313 -144 
Q 1328 -97 1363 -6 
L 103 3319 
L 709 3319 
L 1400 1397 
Q 1534 1031 1641 628 
Q 1738 1016 1872 1384 
L 2581 3319 
L 3144 3319 
L 1881 -56 
Q 1678 -603 1566 -809 
Q 1416 -1088 1222 -1217 
Q 1028 -1347 759 -1347 
Q 597 -1347 397 -1278 
z
" transform="scale(0.015625)"/>
      </defs>
      <use xlink:href="#ArialMT-44"/>
      <use xlink:href="#ArialMT-65" x="72.216797"/>
      <use xlink:href="#ArialMT-6e" x="127.832031"/>
      <use xlink:href="#ArialMT-73" x="183.447266"/>
      <use xlink:href="#ArialMT-69" x="233.447266"/>
      <use xlink:href="#ArialMT-74" x="255.664062"/>
      <use xlink:href="#ArialMT-79" x="283.447266"/>
     </g>
    </g>
   </g>
   <g id="line2d_15">
    <path d="M 138.436364 384.356592 
L 141.495295 384.09641 
L 144.554226 383.463251 
L 147.613157 382.172622 
L 150.672088 379.96033 
L 153.731019 376.714956 
L 156.78995 372.428649 
L 159.848881 366.787914 
L 162.907812 358.611478 
L 165.966743 345.755233 
L 169.025674 325.920332 
L 172.084605 297.974718 
L 175.143536 262.789223 
L 184.320329 143.33982 
L 187.37926 111.034656 
L 190.438191 89.37646 
L 193.497122 82.08 
L 196.556053 89.92104 
L 199.614984 109.00135 
L 202.673915 131.98197 
L 205.732846 152.144208 
L 208.791777 166.794921 
L 211.850708 176.847017 
L 214.909639 183.650093 
L 217.96857 186.983746 
L 221.027501 186.098962 
L 224.086432 182.038172 
L 227.145363 178.620222 
L 230.204294 181.163413 
L 233.263225 193.68158 
L 236.322156 216.204287 
L 239.381087 244.134159 
L 242.440018 270.472939 
L 245.498949 289.571415 
L 248.55788 299.791936 
L 251.616811 303.412871 
L 254.675742 304.211208 
L 257.734673 304.641739 
L 260.793604 304.625719 
L 263.852535 302.754112 
L 269.970397 294.873305 
L 273.029328 294.497314 
L 276.088259 299.448094 
L 279.14719 308.352671 
L 282.206122 317.687531 
L 285.265053 324.196063 
L 288.323984 326.507441 
L 291.382915 325.169719 
L 294.441846 321.889206 
L 297.500777 318.851182 
L 300.559708 318.17747 
L 303.618639 321.234592 
L 306.67757 327.958008 
L 312.795432 345.637439 
L 315.854363 352.942617 
L 318.913294 358.492606 
L 321.972225 363.000995 
L 328.090087 371.346055 
L 331.149018 374.671832 
L 334.207949 376.206437 
L 337.26688 375.198518 
L 340.325811 371.752921 
L 343.384742 367.119217 
L 346.443673 363.365393 
L 349.502604 362.377483 
L 352.561535 364.758571 
L 355.620466 369.518873 
L 358.679397 374.836614 
L 361.738328 379.199704 
L 364.797259 382.023988 
L 367.85619 383.509621 
L 370.915121 384.154322 
L 373.974052 384.387152 
L 380.091914 384.475375 
L 471.859845 384.48 
L 701.279671 384.377232 
L 704.338602 384.154096 
L 707.397533 383.602076 
L 710.456464 382.471086 
L 713.515395 380.575171 
L 719.633257 375.437409 
L 722.692188 373.706841 
L 725.751119 373.577407 
L 728.81005 375.107553 
L 734.927912 380.234694 
L 737.986843 382.243125 
L 741.045774 383.478823 
L 744.104705 384.099358 
L 747.163636 384.35707 
L 747.163636 384.35707 
" clip-path="url(#p240e3dc32b)" style="fill: none; stroke: #4c72b0; stroke-width: 1.5; stroke-linecap: round"/>
   </g>
   <g id="LineCollection_1">
    <path d="M 190.36214 384.48 
L 190.36214 376.164 
" clip-path="url(#p240e3dc32b)" style="fill: none; stroke: #dd8452"/>
    <path d="M 193.700161 384.48 
L 193.700161 376.164 
" clip-path="url(#p240e3dc32b)" style="fill: none; stroke: #dd8452"/>
    <path d="M 724.445546 384.48 
L 724.445546 376.164 
" clip-path="url(#p240e3dc32b)" style="fill: none; stroke: #dd8452"/>
    <path d="M 181.182582 384.48 
L 181.182582 376.164 
" clip-path="url(#p240e3dc32b)" style="fill: none; stroke: #dd8452"/>
    <path d="M 268.80564 384.48 
L 268.80564 376.164 
" clip-path="url(#p240e3dc32b)" style="fill: none; stroke: #dd8452"/>
    <path d="M 198.707193 384.48 
L 198.707193 376.164 
" clip-path="url(#p240e3dc32b)" style="fill: none; stroke: #dd8452"/>
    <path d="M 198.707193 384.48 
L 198.707193 376.164 
" clip-path="url(#p240e3dc32b)" style="fill: none; stroke: #dd8452"/>
    <path d="M 211.224773 384.48 
L 211.224773 376.164 
" clip-path="url(#p240e3dc32b)" style="fill: none; stroke: #dd8452"/>
    <path d="M 230.001143 384.48 
L 230.001143 376.164 
" clip-path="url(#p240e3dc32b)" style="fill: none; stroke: #dd8452"/>
    <path d="M 223.742353 384.48 
L 223.742353 376.164 
" clip-path="url(#p240e3dc32b)" style="fill: none; stroke: #dd8452"/>
    <path d="M 187.977839 384.48 
L 187.977839 376.164 
" clip-path="url(#p240e3dc32b)" style="fill: none; stroke: #dd8452"/>
    <path d="M 194.534667 384.48 
L 194.534667 376.164 
" clip-path="url(#p240e3dc32b)" style="fill: none; stroke: #dd8452"/>
    <path d="M 226.871748 384.48 
L 226.871748 376.164 
" clip-path="url(#p240e3dc32b)" style="fill: none; stroke: #dd8452"/>
    <path d="M 195.577798 384.48 
L 195.577798 376.164 
" clip-path="url(#p240e3dc32b)" style="fill: none; stroke: #dd8452"/>
    <path d="M 223.742353 384.48 
L 223.742353 376.164 
" clip-path="url(#p240e3dc32b)" style="fill: none; stroke: #dd8452"/>
    <path d="M 218.735321 384.48 
L 218.735321 376.164 
" clip-path="url(#p240e3dc32b)" style="fill: none; stroke: #dd8452"/>
    <path d="M 211.224773 384.48 
L 211.224773 376.164 
" clip-path="url(#p240e3dc32b)" style="fill: none; stroke: #dd8452"/>
    <path d="M 188.69313 384.48 
L 188.69313 376.164 
" clip-path="url(#p240e3dc32b)" style="fill: none; stroke: #dd8452"/>
    <path d="M 232.087406 384.48 
L 232.087406 376.164 
" clip-path="url(#p240e3dc32b)" style="fill: none; stroke: #dd8452"/>
    <path d="M 195.130742 384.48 
L 195.130742 376.164 
" clip-path="url(#p240e3dc32b)" style="fill: none; stroke: #dd8452"/>
    <path d="M 282.157726 384.48 
L 282.157726 376.164 
" clip-path="url(#p240e3dc32b)" style="fill: none; stroke: #dd8452"/>
    <path d="M 223.742353 384.48 
L 223.742353 376.164 
" clip-path="url(#p240e3dc32b)" style="fill: none; stroke: #dd8452"/>
    <path d="M 211.224773 384.48 
L 211.224773 376.164 
" clip-path="url(#p240e3dc32b)" style="fill: none; stroke: #dd8452"/>
    <path d="M 193.700161 384.48 
L 193.700161 376.164 
" clip-path="url(#p240e3dc32b)" style="fill: none; stroke: #dd8452"/>
    <path d="M 186.189614 384.48 
L 186.189614 376.164 
" clip-path="url(#p240e3dc32b)" style="fill: none; stroke: #dd8452"/>
    <path d="M 236.259933 384.48 
L 236.259933 376.164 
" clip-path="url(#p240e3dc32b)" style="fill: none; stroke: #dd8452"/>
    <path d="M 179.930824 384.48 
L 179.930824 376.164 
" clip-path="url(#p240e3dc32b)" style="fill: none; stroke: #dd8452"/>
    <path d="M 290.502779 384.48 
L 290.502779 376.164 
" clip-path="url(#p240e3dc32b)" style="fill: none; stroke: #dd8452"/>
    <path d="M 189.944887 384.48 
L 189.944887 376.164 
" clip-path="url(#p240e3dc32b)" style="fill: none; stroke: #dd8452"/>
    <path d="M 323.882992 384.48 
L 323.882992 376.164 
" clip-path="url(#p240e3dc32b)" style="fill: none; stroke: #dd8452"/>
    <path d="M 208.721257 384.48 
L 208.721257 376.164 
" clip-path="url(#p240e3dc32b)" style="fill: none; stroke: #dd8452"/>
    <path d="M 230.570124 384.48 
L 230.570124 376.164 
" clip-path="url(#p240e3dc32b)" style="fill: none; stroke: #dd8452"/>
    <path d="M 179.930824 384.48 
L 179.930824 376.164 
" clip-path="url(#p240e3dc32b)" style="fill: none; stroke: #dd8452"/>
    <path d="M 173.672034 384.48 
L 173.672034 376.164 
" clip-path="url(#p240e3dc32b)" style="fill: none; stroke: #dd8452"/>
    <path d="M 273.812672 384.48 
L 273.812672 376.164 
" clip-path="url(#p240e3dc32b)" style="fill: none; stroke: #dd8452"/>
    <path d="M 198.707193 384.48 
L 198.707193 376.164 
" clip-path="url(#p240e3dc32b)" style="fill: none; stroke: #dd8452"/>
    <path d="M 193.700161 384.48 
L 193.700161 376.164 
" clip-path="url(#p240e3dc32b)" style="fill: none; stroke: #dd8452"/>
    <path d="M 236.259933 384.48 
L 236.259933 376.164 
" clip-path="url(#p240e3dc32b)" style="fill: none; stroke: #dd8452"/>
    <path d="M 193.700161 384.48 
L 193.700161 376.164 
" clip-path="url(#p240e3dc32b)" style="fill: none; stroke: #dd8452"/>
    <path clip-path="url(#p240e3dc32b)" style="fill: none; stroke: #dd8452"/>
    <path d="M 232.087406 384.48 
L 232.087406 376.164 
" clip-path="url(#p240e3dc32b)" style="fill: none; stroke: #dd8452"/>
    <path d="M 242.518723 384.48 
L 242.518723 376.164 
" clip-path="url(#p240e3dc32b)" style="fill: none; stroke: #dd8452"/>
    <path d="M 177.248485 384.48 
L 177.248485 376.164 
" clip-path="url(#p240e3dc32b)" style="fill: none; stroke: #dd8452"/>
    <path d="M 236.259933 384.48 
L 236.259933 376.164 
" clip-path="url(#p240e3dc32b)" style="fill: none; stroke: #dd8452"/>
    <path d="M 248.777513 384.48 
L 248.777513 376.164 
" clip-path="url(#p240e3dc32b)" style="fill: none; stroke: #dd8452"/>
    <path d="M 198.707193 384.48 
L 198.707193 376.164 
" clip-path="url(#p240e3dc32b)" style="fill: none; stroke: #dd8452"/>
    <path d="M 179.930824 384.48 
L 179.930824 376.164 
" clip-path="url(#p240e3dc32b)" style="fill: none; stroke: #dd8452"/>
    <path d="M 273.812672 384.48 
L 273.812672 376.164 
" clip-path="url(#p240e3dc32b)" style="fill: none; stroke: #dd8452"/>
    <path d="M 161.154454 384.48 
L 161.154454 376.164 
" clip-path="url(#p240e3dc32b)" style="fill: none; stroke: #dd8452"/>
    <path d="M 273.812672 384.48 
L 273.812672 376.164 
" clip-path="url(#p240e3dc32b)" style="fill: none; stroke: #dd8452"/>
    <path d="M 294.675305 384.48 
L 294.675305 376.164 
" clip-path="url(#p240e3dc32b)" style="fill: none; stroke: #dd8452"/>
    <path d="M 230.895256 384.48 
L 230.895256 376.164 
" clip-path="url(#p240e3dc32b)" style="fill: none; stroke: #dd8452"/>
    <path d="M 186.189614 384.48 
L 186.189614 376.164 
" clip-path="url(#p240e3dc32b)" style="fill: none; stroke: #dd8452"/>
    <path d="M 261.295093 384.48 
L 261.295093 376.164 
" clip-path="url(#p240e3dc32b)" style="fill: none; stroke: #dd8452"/>
    <path d="M 211.224773 384.48 
L 211.224773 376.164 
" clip-path="url(#p240e3dc32b)" style="fill: none; stroke: #dd8452"/>
    <path d="M 236.259933 384.48 
L 236.259933 376.164 
" clip-path="url(#p240e3dc32b)" style="fill: none; stroke: #dd8452"/>
    <path d="M 216.58945 384.48 
L 216.58945 376.164 
" clip-path="url(#p240e3dc32b)" style="fill: none; stroke: #dd8452"/>
    <path d="M 348.918151 384.48 
L 348.918151 376.164 
" clip-path="url(#p240e3dc32b)" style="fill: none; stroke: #dd8452"/>
    <path d="M 305.106622 384.48 
L 305.106622 376.164 
" clip-path="url(#p240e3dc32b)" style="fill: none; stroke: #dd8452"/>
    <path d="M 238.048159 384.48 
L 238.048159 376.164 
" clip-path="url(#p240e3dc32b)" style="fill: none; stroke: #dd8452"/>
    <path d="M 273.812672 384.48 
L 273.812672 376.164 
" clip-path="url(#p240e3dc32b)" style="fill: none; stroke: #dd8452"/>
    <path d="M 232.087406 384.48 
L 232.087406 376.164 
" clip-path="url(#p240e3dc32b)" style="fill: none; stroke: #dd8452"/>
    <path d="M 189.319008 384.48 
L 189.319008 376.164 
" clip-path="url(#p240e3dc32b)" style="fill: none; stroke: #dd8452"/>
    <path d="M 223.742353 384.48 
L 223.742353 376.164 
" clip-path="url(#p240e3dc32b)" style="fill: none; stroke: #dd8452"/>
    <path d="M 220.612958 384.48 
L 220.612958 376.164 
" clip-path="url(#p240e3dc32b)" style="fill: none; stroke: #dd8452"/>
    <path d="M 183.060219 384.48 
L 183.060219 376.164 
" clip-path="url(#p240e3dc32b)" style="fill: none; stroke: #dd8452"/>
    <path d="M 268.80564 384.48 
L 268.80564 376.164 
" clip-path="url(#p240e3dc32b)" style="fill: none; stroke: #dd8452"/>
    <path d="M 211.224773 384.48 
L 211.224773 376.164 
" clip-path="url(#p240e3dc32b)" style="fill: none; stroke: #dd8452"/>
    <path d="M 189.319008 384.48 
L 189.319008 376.164 
" clip-path="url(#p240e3dc32b)" style="fill: none; stroke: #dd8452"/>
    <path d="M 211.224773 384.48 
L 211.224773 376.164 
" clip-path="url(#p240e3dc32b)" style="fill: none; stroke: #dd8452"/>
    <path d="M 348.918151 384.48 
L 348.918151 376.164 
" clip-path="url(#p240e3dc32b)" style="fill: none; stroke: #dd8452"/>
    <path d="M 298.847832 384.48 
L 298.847832 376.164 
" clip-path="url(#p240e3dc32b)" style="fill: none; stroke: #dd8452"/>
    <path d="M 211.224773 384.48 
L 211.224773 376.164 
" clip-path="url(#p240e3dc32b)" style="fill: none; stroke: #dd8452"/>
    <path d="M 273.812672 384.48 
L 273.812672 376.164 
" clip-path="url(#p240e3dc32b)" style="fill: none; stroke: #dd8452"/>
    <path d="M 186.189614 384.48 
L 186.189614 376.164 
" clip-path="url(#p240e3dc32b)" style="fill: none; stroke: #dd8452"/>
    <path d="M 198.707193 384.48 
L 198.707193 376.164 
" clip-path="url(#p240e3dc32b)" style="fill: none; stroke: #dd8452"/>
    <path clip-path="url(#p240e3dc32b)" style="fill: none; stroke: #dd8452"/>
    <path d="M 226.871748 384.48 
L 226.871748 376.164 
" clip-path="url(#p240e3dc32b)" style="fill: none; stroke: #dd8452"/>
    <path d="M 305.106622 384.48 
L 305.106622 376.164 
" clip-path="url(#p240e3dc32b)" style="fill: none; stroke: #dd8452"/>
    <path d="M 194.85563 384.48 
L 194.85563 376.164 
" clip-path="url(#p240e3dc32b)" style="fill: none; stroke: #dd8452"/>
    <path d="M 198.707193 384.48 
L 198.707193 376.164 
" clip-path="url(#p240e3dc32b)" style="fill: none; stroke: #dd8452"/>
    <path d="M 315.537938 384.48 
L 315.537938 376.164 
" clip-path="url(#p240e3dc32b)" style="fill: none; stroke: #dd8452"/>
    <path d="M 218.735321 384.48 
L 218.735321 376.164 
" clip-path="url(#p240e3dc32b)" style="fill: none; stroke: #dd8452"/>
    <path d="M 232.087406 384.48 
L 232.087406 376.164 
" clip-path="url(#p240e3dc32b)" style="fill: none; stroke: #dd8452"/>
    <path d="M 298.847832 384.48 
L 298.847832 376.164 
" clip-path="url(#p240e3dc32b)" style="fill: none; stroke: #dd8452"/>
    <path d="M 220.165902 384.48 
L 220.165902 376.164 
" clip-path="url(#p240e3dc32b)" style="fill: none; stroke: #dd8452"/>
    <path d="M 192.448403 384.48 
L 192.448403 376.164 
" clip-path="url(#p240e3dc32b)" style="fill: none; stroke: #dd8452"/>
    <path d="M 286.330252 384.48 
L 286.330252 376.164 
" clip-path="url(#p240e3dc32b)" style="fill: none; stroke: #dd8452"/>
    <path d="M 198.707193 384.48 
L 198.707193 376.164 
" clip-path="url(#p240e3dc32b)" style="fill: none; stroke: #dd8452"/>
    <path d="M 203.714225 384.48 
L 203.714225 376.164 
" clip-path="url(#p240e3dc32b)" style="fill: none; stroke: #dd8452"/>
    <path d="M 255.036303 384.48 
L 255.036303 376.164 
" clip-path="url(#p240e3dc32b)" style="fill: none; stroke: #dd8452"/>
    <path d="M 184.401388 384.48 
L 184.401388 376.164 
" clip-path="url(#p240e3dc32b)" style="fill: none; stroke: #dd8452"/>
    <path d="M 173.672034 384.48 
L 173.672034 376.164 
" clip-path="url(#p240e3dc32b)" style="fill: none; stroke: #dd8452"/>
    <path d="M 248.777513 384.48 
L 248.777513 376.164 
" clip-path="url(#p240e3dc32b)" style="fill: none; stroke: #dd8452"/>
    <path d="M 198.707193 384.48 
L 198.707193 376.164 
" clip-path="url(#p240e3dc32b)" style="fill: none; stroke: #dd8452"/>
    <path d="M 208.721257 384.48 
L 208.721257 376.164 
" clip-path="url(#p240e3dc32b)" style="fill: none; stroke: #dd8452"/>
    <path d="M 305.106622 384.48 
L 305.106622 376.164 
" clip-path="url(#p240e3dc32b)" style="fill: none; stroke: #dd8452"/>
    <path d="M 232.087406 384.48 
L 232.087406 376.164 
" clip-path="url(#p240e3dc32b)" style="fill: none; stroke: #dd8452"/>
    <path d="M 187.580456 384.48 
L 187.580456 376.164 
" clip-path="url(#p240e3dc32b)" style="fill: none; stroke: #dd8452"/>
    <path d="M 179.930824 384.48 
L 179.930824 376.164 
" clip-path="url(#p240e3dc32b)" style="fill: none; stroke: #dd8452"/>
    <path d="M 208.721257 384.48 
L 208.721257 376.164 
" clip-path="url(#p240e3dc32b)" style="fill: none; stroke: #dd8452"/>
    <path d="M 255.036303 384.48 
L 255.036303 376.164 
" clip-path="url(#p240e3dc32b)" style="fill: none; stroke: #dd8452"/>
    <path d="M 258.165698 384.48 
L 258.165698 376.164 
" clip-path="url(#p240e3dc32b)" style="fill: none; stroke: #dd8452"/>
    <path d="M 207.052247 384.48 
L 207.052247 376.164 
" clip-path="url(#p240e3dc32b)" style="fill: none; stroke: #dd8452"/>
    <path d="M 255.930415 384.48 
L 255.930415 376.164 
" clip-path="url(#p240e3dc32b)" style="fill: none; stroke: #dd8452"/>
    <path d="M 198.707193 384.48 
L 198.707193 376.164 
" clip-path="url(#p240e3dc32b)" style="fill: none; stroke: #dd8452"/>
   </g>
   <g id="patch_3">
    <path d="M 108 384.48 
L 108 51.84 
" style="fill: none; stroke: #ffffff; stroke-width: 1.25; stroke-linejoin: miter; stroke-linecap: square"/>
   </g>
   <g id="patch_4">
    <path d="M 777.6 384.48 
L 777.6 51.84 
" style="fill: none; stroke: #ffffff; stroke-width: 1.25; stroke-linejoin: miter; stroke-linecap: square"/>
   </g>
   <g id="patch_5">
    <path d="M 108 384.48 
L 777.6 384.48 
" style="fill: none; stroke: #ffffff; stroke-width: 1.25; stroke-linejoin: miter; stroke-linecap: square"/>
   </g>
   <g id="patch_6">
    <path d="M 108 51.84 
L 777.6 51.84 
" style="fill: none; stroke: #ffffff; stroke-width: 1.25; stroke-linejoin: miter; stroke-linecap: square"/>
   </g>
   <g id="text_17">
    <!-- Average Duration of Employment (2022) -->
    <g style="fill: #262626" transform="translate(335.524688 45.84)scale(0.12 -0.12)">
     <defs>
      <path id="ArialMT-45" d="M 506 0 
L 506 4581 
L 3819 4581 
L 3819 4041 
L 1113 4041 
L 1113 2638 
L 3647 2638 
L 3647 2100 
L 1113 2100 
L 1113 541 
L 3925 541 
L 3925 0 
L 506 0 
z
" transform="scale(0.015625)"/>
      <path id="ArialMT-6d" d="M 422 0 
L 422 3319 
L 925 3319 
L 925 2853 
Q 1081 3097 1340 3245 
Q 1600 3394 1931 3394 
Q 2300 3394 2536 3241 
Q 2772 3088 2869 2813 
Q 3263 3394 3894 3394 
Q 4388 3394 4653 3120 
Q 4919 2847 4919 2278 
L 4919 0 
L 4359 0 
L 4359 2091 
Q 4359 2428 4304 2576 
Q 4250 2725 4106 2815 
Q 3963 2906 3769 2906 
Q 3419 2906 3187 2673 
Q 2956 2441 2956 1928 
L 2956 0 
L 2394 0 
L 2394 2156 
Q 2394 2531 2256 2718 
Q 2119 2906 1806 2906 
Q 1569 2906 1367 2781 
Q 1166 2656 1075 2415 
Q 984 2175 984 1722 
L 984 0 
L 422 0 
z
" transform="scale(0.015625)"/>
      <path id="ArialMT-70" d="M 422 -1272 
L 422 3319 
L 934 3319 
L 934 2888 
Q 1116 3141 1344 3267 
Q 1572 3394 1897 3394 
Q 2322 3394 2647 3175 
Q 2972 2956 3137 2557 
Q 3303 2159 3303 1684 
Q 3303 1175 3120 767 
Q 2938 359 2589 142 
Q 2241 -75 1856 -75 
Q 1575 -75 1351 44 
Q 1128 163 984 344 
L 984 -1272 
L 422 -1272 
z
M 931 1641 
Q 931 1000 1190 694 
Q 1450 388 1819 388 
Q 2194 388 2461 705 
Q 2728 1022 2728 1688 
Q 2728 2322 2467 2637 
Q 2206 2953 1844 2953 
Q 1484 2953 1207 2617 
Q 931 2281 931 1641 
z
" transform="scale(0.015625)"/>
      <path id="ArialMT-6c" d="M 409 0 
L 409 4581 
L 972 4581 
L 972 0 
L 409 0 
z
" transform="scale(0.015625)"/>
     </defs>
     <use xlink:href="#ArialMT-41"/>
     <use xlink:href="#ArialMT-76" x="64.949219"/>
     <use xlink:href="#ArialMT-65" x="114.949219"/>
     <use xlink:href="#ArialMT-72" x="170.564453"/>
     <use xlink:href="#ArialMT-61" x="203.865234"/>
     <use xlink:href="#ArialMT-67" x="259.480469"/>
     <use xlink:href="#ArialMT-65" x="315.095703"/>
     <use xlink:href="#ArialMT-20" x="370.710938"/>
     <use xlink:href="#ArialMT-44" x="398.494141"/>
     <use xlink:href="#ArialMT-75" x="470.710938"/>
     <use xlink:href="#ArialMT-72" x="526.326172"/>
     <use xlink:href="#ArialMT-61" x="559.626953"/>
     <use xlink:href="#ArialMT-74" x="615.242188"/>
     <use xlink:href="#ArialMT-69" x="643.025391"/>
     <use xlink:href="#ArialMT-6f" x="665.242188"/>
     <use xlink:href="#ArialMT-6e" x="720.857422"/>
     <use xlink:href="#ArialMT-20" x="776.472656"/>
     <use xlink:href="#ArialMT-6f" x="804.255859"/>
     <use xlink:href="#ArialMT-66" x="859.871094"/>
     <use xlink:href="#ArialMT-20" x="887.654297"/>
     <use xlink:href="#ArialMT-45" x="915.4375"/>
     <use xlink:href="#ArialMT-6d" x="982.136719"/>
     <use xlink:href="#ArialMT-70" x="1065.4375"/>
     <use xlink:href="#ArialMT-6c" x="1121.052734"/>
     <use xlink:href="#ArialMT-6f" x="1143.269531"/>
     <use xlink:href="#ArialMT-79" x="1198.884766"/>
     <use xlink:href="#ArialMT-6d" x="1248.884766"/>
     <use xlink:href="#ArialMT-65" x="1332.185547"/>
     <use xlink:href="#ArialMT-6e" x="1387.800781"/>
     <use xlink:href="#ArialMT-74" x="1443.416016"/>
     <use xlink:href="#ArialMT-20" x="1471.199219"/>
     <use xlink:href="#ArialMT-28" x="1498.982422"/>
     <use xlink:href="#ArialMT-32" x="1532.283203"/>
     <use xlink:href="#ArialMT-30" x="1587.898438"/>
     <use xlink:href="#ArialMT-32" x="1643.513672"/>
     <use xlink:href="#ArialMT-32" x="1699.128906"/>
     <use xlink:href="#ArialMT-29" x="1754.744141"/>
    </g>
   </g>
  </g>
 </g>
 <defs>
  <clipPath id="p240e3dc32b">
   <rect x="108" y="51.84" width="669.6" height="332.64"/>
  </clipPath>
 </defs>
</svg>
