<?xml version="1.0" encoding="utf-8" standalone="no"?>
<!DOCTYPE svg PUBLIC "-//W3C//DTD SVG 1.1//EN"
  "http://www.w3.org/Graphics/SVG/1.1/DTD/svg11.dtd">
<svg xmlns:xlink="http://www.w3.org/1999/xlink" width="864pt" height="432pt" viewBox="0 0 864 432" xmlns="http://www.w3.org/2000/svg" version="1.1">
 <metadata>
  <rdf:RDF xmlns:dc="http://purl.org/dc/elements/1.1/" xmlns:cc="http://creativecommons.org/ns#" xmlns:rdf="http://www.w3.org/1999/02/22-rdf-syntax-ns#">
   <cc:Work>
    <dc:type rdf:resource="http://purl.org/dc/dcmitype/StillImage"/>
    <dc:date>2023-03-07T17:55:19.345914</dc:date>
    <dc:format>image/svg+xml</dc:format>
    <dc:creator>
     <cc:Agent>
      <dc:title>Matplotlib v3.5.2, https://matplotlib.org/</dc:title>
     </cc:Agent>
    </dc:creator>
   </cc:Work>
  </rdf:RDF>
 </metadata>
 <defs>
  <style type="text/css">*{stroke-linejoin: round; stroke-linecap: butt}</style>
 </defs>
 <g id="figure_1">
  <g id="patch_1">
   <path d="M 0 432 
L 864 432 
L 864 0 
L 0 0 
z
" style="fill: #ffffff"/>
  </g>
  <g id="axes_1">
   <g id="patch_2">
    <path d="M 108 384.48 
L 777.6 384.48 
L 777.6 51.84 
L 108 51.84 
z
" style="fill: #eaeaf2"/>
   </g>
   <g id="matplotlib.axis_1">
    <g id="xtick_1">
     <g id="line2d_1">
      <path d="M 138.436364 384.48 
L 138.436364 51.84 
" clip-path="url(#p2263d7c2a7)" style="fill: none; stroke: #ffffff; stroke-linecap: round"/>
     </g>
     <g id="text_1">
      <!-- 20 -->
      <g style="fill: #262626" transform="translate(132.319332 401.853594)scale(0.11 -0.11)">
       <defs>
        <path id="ArialMT-32" d="M 3222 541 
L 3222 0 
L 194 0 
Q 188 203 259 391 
Q 375 700 629 1000 
Q 884 1300 1366 1694 
Q 2113 2306 2375 2664 
Q 2638 3022 2638 3341 
Q 2638 3675 2398 3904 
Q 2159 4134 1775 4134 
Q 1369 4134 1125 3890 
Q 881 3647 878 3216 
L 300 3275 
Q 359 3922 746 4261 
Q 1134 4600 1788 4600 
Q 2447 4600 2831 4234 
Q 3216 3869 3216 3328 
Q 3216 3053 3103 2787 
Q 2991 2522 2730 2228 
Q 2469 1934 1863 1422 
Q 1356 997 1212 845 
Q 1069 694 975 541 
L 3222 541 
z
" transform="scale(0.015625)"/>
        <path id="ArialMT-30" d="M 266 2259 
Q 266 3072 433 3567 
Q 600 4063 929 4331 
Q 1259 4600 1759 4600 
Q 2128 4600 2406 4451 
Q 2684 4303 2865 4023 
Q 3047 3744 3150 3342 
Q 3253 2941 3253 2259 
Q 3253 1453 3087 958 
Q 2922 463 2592 192 
Q 2263 -78 1759 -78 
Q 1097 -78 719 397 
Q 266 969 266 2259 
z
M 844 2259 
Q 844 1131 1108 757 
Q 1372 384 1759 384 
Q 2147 384 2411 759 
Q 2675 1134 2675 2259 
Q 2675 3391 2411 3762 
Q 2147 4134 1753 4134 
Q 1366 4134 1134 3806 
Q 844 3388 844 2259 
z
" transform="scale(0.015625)"/>
       </defs>
       <use xlink:href="#ArialMT-32"/>
       <use xlink:href="#ArialMT-30" x="55.615234"/>
      </g>
     </g>
    </g>
    <g id="xtick_2">
     <g id="line2d_2">
      <path d="M 260.181818 384.48 
L 260.181818 51.84 
" clip-path="url(#p2263d7c2a7)" style="fill: none; stroke: #ffffff; stroke-linecap: round"/>
     </g>
     <g id="text_2">
      <!-- 30 -->
      <g style="fill: #262626" transform="translate(254.064787 401.853594)scale(0.11 -0.11)">
       <defs>
        <path id="ArialMT-33" d="M 269 1209 
L 831 1284 
Q 928 806 1161 595 
Q 1394 384 1728 384 
Q 2125 384 2398 659 
Q 2672 934 2672 1341 
Q 2672 1728 2419 1979 
Q 2166 2231 1775 2231 
Q 1616 2231 1378 2169 
L 1441 2663 
Q 1497 2656 1531 2656 
Q 1891 2656 2178 2843 
Q 2466 3031 2466 3422 
Q 2466 3731 2256 3934 
Q 2047 4138 1716 4138 
Q 1388 4138 1169 3931 
Q 950 3725 888 3313 
L 325 3413 
Q 428 3978 793 4289 
Q 1159 4600 1703 4600 
Q 2078 4600 2393 4439 
Q 2709 4278 2876 4000 
Q 3044 3722 3044 3409 
Q 3044 3113 2884 2869 
Q 2725 2625 2413 2481 
Q 2819 2388 3044 2092 
Q 3269 1797 3269 1353 
Q 3269 753 2831 336 
Q 2394 -81 1725 -81 
Q 1122 -81 723 278 
Q 325 638 269 1209 
z
" transform="scale(0.015625)"/>
       </defs>
       <use xlink:href="#ArialMT-33"/>
       <use xlink:href="#ArialMT-30" x="55.615234"/>
      </g>
     </g>
    </g>
    <g id="xtick_3">
     <g id="line2d_3">
      <path d="M 381.927273 384.48 
L 381.927273 51.84 
" clip-path="url(#p2263d7c2a7)" style="fill: none; stroke: #ffffff; stroke-linecap: round"/>
     </g>
     <g id="text_3">
      <!-- 40 -->
      <g style="fill: #262626" transform="translate(375.810241 401.853594)scale(0.11 -0.11)">
       <defs>
        <path id="ArialMT-34" d="M 2069 0 
L 2069 1097 
L 81 1097 
L 81 1613 
L 2172 4581 
L 2631 4581 
L 2631 1613 
L 3250 1613 
L 3250 1097 
L 2631 1097 
L 2631 0 
L 2069 0 
z
M 2069 1613 
L 2069 3678 
L 634 1613 
L 2069 1613 
z
" transform="scale(0.015625)"/>
       </defs>
       <use xlink:href="#ArialMT-34"/>
       <use xlink:href="#ArialMT-30" x="55.615234"/>
      </g>
     </g>
    </g>
    <g id="xtick_4">
     <g id="line2d_4">
      <path d="M 503.672727 384.48 
L 503.672727 51.84 
" clip-path="url(#p2263d7c2a7)" style="fill: none; stroke: #ffffff; stroke-linecap: round"/>
     </g>
     <g id="text_4">
      <!-- 50 -->
      <g style="fill: #262626" transform="translate(497.555696 401.853594)scale(0.11 -0.11)">
       <defs>
        <path id="ArialMT-35" d="M 266 1200 
L 856 1250 
Q 922 819 1161 601 
Q 1400 384 1738 384 
Q 2144 384 2425 690 
Q 2706 997 2706 1503 
Q 2706 1984 2436 2262 
Q 2166 2541 1728 2541 
Q 1456 2541 1237 2417 
Q 1019 2294 894 2097 
L 366 2166 
L 809 4519 
L 3088 4519 
L 3088 3981 
L 1259 3981 
L 1013 2750 
Q 1425 3038 1878 3038 
Q 2478 3038 2890 2622 
Q 3303 2206 3303 1553 
Q 3303 931 2941 478 
Q 2500 -78 1738 -78 
Q 1113 -78 717 272 
Q 322 622 266 1200 
z
" transform="scale(0.015625)"/>
       </defs>
       <use xlink:href="#ArialMT-35"/>
       <use xlink:href="#ArialMT-30" x="55.615234"/>
      </g>
     </g>
    </g>
    <g id="xtick_5">
     <g id="line2d_5">
      <path d="M 625.418182 384.48 
L 625.418182 51.84 
" clip-path="url(#p2263d7c2a7)" style="fill: none; stroke: #ffffff; stroke-linecap: round"/>
     </g>
     <g id="text_5">
      <!-- 60 -->
      <g style="fill: #262626" transform="translate(619.301151 401.853594)scale(0.11 -0.11)">
       <defs>
        <path id="ArialMT-36" d="M 3184 3459 
L 2625 3416 
Q 2550 3747 2413 3897 
Q 2184 4138 1850 4138 
Q 1581 4138 1378 3988 
Q 1113 3794 959 3422 
Q 806 3050 800 2363 
Q 1003 2672 1297 2822 
Q 1591 2972 1913 2972 
Q 2475 2972 2870 2558 
Q 3266 2144 3266 1488 
Q 3266 1056 3080 686 
Q 2894 316 2569 119 
Q 2244 -78 1831 -78 
Q 1128 -78 684 439 
Q 241 956 241 2144 
Q 241 3472 731 4075 
Q 1159 4600 1884 4600 
Q 2425 4600 2770 4297 
Q 3116 3994 3184 3459 
z
M 888 1484 
Q 888 1194 1011 928 
Q 1134 663 1356 523 
Q 1578 384 1822 384 
Q 2178 384 2434 671 
Q 2691 959 2691 1453 
Q 2691 1928 2437 2201 
Q 2184 2475 1800 2475 
Q 1419 2475 1153 2201 
Q 888 1928 888 1484 
z
" transform="scale(0.015625)"/>
       </defs>
       <use xlink:href="#ArialMT-36"/>
       <use xlink:href="#ArialMT-30" x="55.615234"/>
      </g>
     </g>
    </g>
    <g id="xtick_6">
     <g id="line2d_6">
      <path d="M 747.163636 384.48 
L 747.163636 51.84 
" clip-path="url(#p2263d7c2a7)" style="fill: none; stroke: #ffffff; stroke-linecap: round"/>
     </g>
     <g id="text_6">
      <!-- 70 -->
      <g style="fill: #262626" transform="translate(741.046605 401.853594)scale(0.11 -0.11)">
       <defs>
        <path id="ArialMT-37" d="M 303 3981 
L 303 4522 
L 3269 4522 
L 3269 4084 
Q 2831 3619 2401 2847 
Q 1972 2075 1738 1259 
Q 1569 684 1522 0 
L 944 0 
Q 953 541 1156 1306 
Q 1359 2072 1739 2783 
Q 2119 3494 2547 3981 
L 303 3981 
z
" transform="scale(0.015625)"/>
       </defs>
       <use xlink:href="#ArialMT-37"/>
       <use xlink:href="#ArialMT-30" x="55.615234"/>
      </g>
     </g>
    </g>
    <g id="text_7">
     <!-- Hours Worked Per Week -->
     <g style="fill: #262626" transform="translate(376.66125 416.629219)scale(0.12 -0.12)">
      <defs>
       <path id="ArialMT-48" d="M 513 0 
L 513 4581 
L 1119 4581 
L 1119 2700 
L 3500 2700 
L 3500 4581 
L 4106 4581 
L 4106 0 
L 3500 0 
L 3500 2159 
L 1119 2159 
L 1119 0 
L 513 0 
z
" transform="scale(0.015625)"/>
       <path id="ArialMT-6f" d="M 213 1659 
Q 213 2581 725 3025 
Q 1153 3394 1769 3394 
Q 2453 3394 2887 2945 
Q 3322 2497 3322 1706 
Q 3322 1066 3130 698 
Q 2938 331 2570 128 
Q 2203 -75 1769 -75 
Q 1072 -75 642 372 
Q 213 819 213 1659 
z
M 791 1659 
Q 791 1022 1069 705 
Q 1347 388 1769 388 
Q 2188 388 2466 706 
Q 2744 1025 2744 1678 
Q 2744 2294 2464 2611 
Q 2184 2928 1769 2928 
Q 1347 2928 1069 2612 
Q 791 2297 791 1659 
z
" transform="scale(0.015625)"/>
       <path id="ArialMT-75" d="M 2597 0 
L 2597 488 
Q 2209 -75 1544 -75 
Q 1250 -75 995 37 
Q 741 150 617 320 
Q 494 491 444 738 
Q 409 903 409 1263 
L 409 3319 
L 972 3319 
L 972 1478 
Q 972 1038 1006 884 
Q 1059 663 1231 536 
Q 1403 409 1656 409 
Q 1909 409 2131 539 
Q 2353 669 2445 892 
Q 2538 1116 2538 1541 
L 2538 3319 
L 3100 3319 
L 3100 0 
L 2597 0 
z
" transform="scale(0.015625)"/>
       <path id="ArialMT-72" d="M 416 0 
L 416 3319 
L 922 3319 
L 922 2816 
Q 1116 3169 1280 3281 
Q 1444 3394 1641 3394 
Q 1925 3394 2219 3213 
L 2025 2691 
Q 1819 2813 1613 2813 
Q 1428 2813 1281 2702 
Q 1134 2591 1072 2394 
Q 978 2094 978 1738 
L 978 0 
L 416 0 
z
" transform="scale(0.015625)"/>
       <path id="ArialMT-73" d="M 197 991 
L 753 1078 
Q 800 744 1014 566 
Q 1228 388 1613 388 
Q 2000 388 2187 545 
Q 2375 703 2375 916 
Q 2375 1106 2209 1216 
Q 2094 1291 1634 1406 
Q 1016 1563 777 1677 
Q 538 1791 414 1992 
Q 291 2194 291 2438 
Q 291 2659 392 2848 
Q 494 3038 669 3163 
Q 800 3259 1026 3326 
Q 1253 3394 1513 3394 
Q 1903 3394 2198 3281 
Q 2494 3169 2634 2976 
Q 2775 2784 2828 2463 
L 2278 2388 
Q 2241 2644 2061 2787 
Q 1881 2931 1553 2931 
Q 1166 2931 1000 2803 
Q 834 2675 834 2503 
Q 834 2394 903 2306 
Q 972 2216 1119 2156 
Q 1203 2125 1616 2013 
Q 2213 1853 2448 1751 
Q 2684 1650 2818 1456 
Q 2953 1263 2953 975 
Q 2953 694 2789 445 
Q 2625 197 2315 61 
Q 2006 -75 1616 -75 
Q 969 -75 630 194 
Q 291 463 197 991 
z
" transform="scale(0.015625)"/>
       <path id="ArialMT-20" transform="scale(0.015625)"/>
       <path id="ArialMT-57" d="M 1294 0 
L 78 4581 
L 700 4581 
L 1397 1578 
Q 1509 1106 1591 641 
Q 1766 1375 1797 1488 
L 2669 4581 
L 3400 4581 
L 4056 2263 
Q 4303 1400 4413 641 
Q 4500 1075 4641 1638 
L 5359 4581 
L 5969 4581 
L 4713 0 
L 4128 0 
L 3163 3491 
Q 3041 3928 3019 4028 
Q 2947 3713 2884 3491 
L 1913 0 
L 1294 0 
z
" transform="scale(0.015625)"/>
       <path id="ArialMT-6b" d="M 425 0 
L 425 4581 
L 988 4581 
L 988 1969 
L 2319 3319 
L 3047 3319 
L 1778 2088 
L 3175 0 
L 2481 0 
L 1384 1697 
L 988 1316 
L 988 0 
L 425 0 
z
" transform="scale(0.015625)"/>
       <path id="ArialMT-65" d="M 2694 1069 
L 3275 997 
Q 3138 488 2766 206 
Q 2394 -75 1816 -75 
Q 1088 -75 661 373 
Q 234 822 234 1631 
Q 234 2469 665 2931 
Q 1097 3394 1784 3394 
Q 2450 3394 2872 2941 
Q 3294 2488 3294 1666 
Q 3294 1616 3291 1516 
L 816 1516 
Q 847 969 1125 678 
Q 1403 388 1819 388 
Q 2128 388 2347 550 
Q 2566 713 2694 1069 
z
M 847 1978 
L 2700 1978 
Q 2663 2397 2488 2606 
Q 2219 2931 1791 2931 
Q 1403 2931 1139 2672 
Q 875 2413 847 1978 
z
" transform="scale(0.015625)"/>
       <path id="ArialMT-64" d="M 2575 0 
L 2575 419 
Q 2259 -75 1647 -75 
Q 1250 -75 917 144 
Q 584 363 401 755 
Q 219 1147 219 1656 
Q 219 2153 384 2558 
Q 550 2963 881 3178 
Q 1213 3394 1622 3394 
Q 1922 3394 2156 3267 
Q 2391 3141 2538 2938 
L 2538 4581 
L 3097 4581 
L 3097 0 
L 2575 0 
z
M 797 1656 
Q 797 1019 1065 703 
Q 1334 388 1700 388 
Q 2069 388 2326 689 
Q 2584 991 2584 1609 
Q 2584 2291 2321 2609 
Q 2059 2928 1675 2928 
Q 1300 2928 1048 2622 
Q 797 2316 797 1656 
z
" transform="scale(0.015625)"/>
       <path id="ArialMT-50" d="M 494 0 
L 494 4581 
L 2222 4581 
Q 2678 4581 2919 4538 
Q 3256 4481 3484 4323 
Q 3713 4166 3852 3881 
Q 3991 3597 3991 3256 
Q 3991 2672 3619 2267 
Q 3247 1863 2275 1863 
L 1100 1863 
L 1100 0 
L 494 0 
z
M 1100 2403 
L 2284 2403 
Q 2872 2403 3119 2622 
Q 3366 2841 3366 3238 
Q 3366 3525 3220 3729 
Q 3075 3934 2838 4000 
Q 2684 4041 2272 4041 
L 1100 4041 
L 1100 2403 
z
" transform="scale(0.015625)"/>
      </defs>
      <use xlink:href="#ArialMT-48"/>
      <use xlink:href="#ArialMT-6f" x="72.216797"/>
      <use xlink:href="#ArialMT-75" x="127.832031"/>
      <use xlink:href="#ArialMT-72" x="183.447266"/>
      <use xlink:href="#ArialMT-73" x="216.748047"/>
      <use xlink:href="#ArialMT-20" x="266.748047"/>
      <use xlink:href="#ArialMT-57" x="294.53125"/>
      <use xlink:href="#ArialMT-6f" x="387.166016"/>
      <use xlink:href="#ArialMT-72" x="442.78125"/>
      <use xlink:href="#ArialMT-6b" x="476.082031"/>
      <use xlink:href="#ArialMT-65" x="526.082031"/>
      <use xlink:href="#ArialMT-64" x="581.697266"/>
      <use xlink:href="#ArialMT-20" x="637.3125"/>
      <use xlink:href="#ArialMT-50" x="665.095703"/>
      <use xlink:href="#ArialMT-65" x="731.794922"/>
      <use xlink:href="#ArialMT-72" x="787.410156"/>
      <use xlink:href="#ArialMT-20" x="820.710938"/>
      <use xlink:href="#ArialMT-57" x="848.494141"/>
      <use xlink:href="#ArialMT-65" x="941.128906"/>
      <use xlink:href="#ArialMT-65" x="996.744141"/>
      <use xlink:href="#ArialMT-6b" x="1052.359375"/>
     </g>
    </g>
   </g>
   <g id="matplotlib.axis_2">
    <g id="ytick_1">
     <g id="line2d_7">
      <path d="M 108 384.48 
L 777.6 384.48 
" clip-path="url(#p2263d7c2a7)" style="fill: none; stroke: #ffffff; stroke-linecap: round"/>
     </g>
     <g id="text_8">
      <!-- 0 -->
      <g style="fill: #262626" transform="translate(92.382969 388.416797)scale(0.11 -0.11)">
       <use xlink:href="#ArialMT-30"/>
      </g>
     </g>
    </g>
    <g id="ytick_2">
     <g id="line2d_8">
      <path d="M 108 341.28 
L 777.6 341.28 
" clip-path="url(#p2263d7c2a7)" style="fill: none; stroke: #ffffff; stroke-linecap: round"/>
     </g>
     <g id="text_9">
      <!-- 10 -->
      <g style="fill: #262626" transform="translate(86.265938 345.216797)scale(0.11 -0.11)">
       <defs>
        <path id="ArialMT-31" d="M 2384 0 
L 1822 0 
L 1822 3584 
Q 1619 3391 1289 3197 
Q 959 3003 697 2906 
L 697 3450 
Q 1169 3672 1522 3987 
Q 1875 4303 2022 4600 
L 2384 4600 
L 2384 0 
z
" transform="scale(0.015625)"/>
       </defs>
       <use xlink:href="#ArialMT-31"/>
       <use xlink:href="#ArialMT-30" x="55.615234"/>
      </g>
     </g>
    </g>
    <g id="ytick_3">
     <g id="line2d_9">
      <path d="M 108 298.08 
L 777.6 298.08 
" clip-path="url(#p2263d7c2a7)" style="fill: none; stroke: #ffffff; stroke-linecap: round"/>
     </g>
     <g id="text_10">
      <!-- 20 -->
      <g style="fill: #262626" transform="translate(86.265938 302.016797)scale(0.11 -0.11)">
       <use xlink:href="#ArialMT-32"/>
       <use xlink:href="#ArialMT-30" x="55.615234"/>
      </g>
     </g>
    </g>
    <g id="ytick_4">
     <g id="line2d_10">
      <path d="M 108 254.88 
L 777.6 254.88 
" clip-path="url(#p2263d7c2a7)" style="fill: none; stroke: #ffffff; stroke-linecap: round"/>
     </g>
     <g id="text_11">
      <!-- 30 -->
      <g style="fill: #262626" transform="translate(86.265938 258.816797)scale(0.11 -0.11)">
       <use xlink:href="#ArialMT-33"/>
       <use xlink:href="#ArialMT-30" x="55.615234"/>
      </g>
     </g>
    </g>
    <g id="ytick_5">
     <g id="line2d_11">
      <path d="M 108 211.68 
L 777.6 211.68 
" clip-path="url(#p2263d7c2a7)" style="fill: none; stroke: #ffffff; stroke-linecap: round"/>
     </g>
     <g id="text_12">
      <!-- 40 -->
      <g style="fill: #262626" transform="translate(86.265938 215.616797)scale(0.11 -0.11)">
       <use xlink:href="#ArialMT-34"/>
       <use xlink:href="#ArialMT-30" x="55.615234"/>
      </g>
     </g>
    </g>
    <g id="ytick_6">
     <g id="line2d_12">
      <path d="M 108 168.48 
L 777.6 168.48 
" clip-path="url(#p2263d7c2a7)" style="fill: none; stroke: #ffffff; stroke-linecap: round"/>
     </g>
     <g id="text_13">
      <!-- 50 -->
      <g style="fill: #262626" transform="translate(86.265938 172.416797)scale(0.11 -0.11)">
       <use xlink:href="#ArialMT-35"/>
       <use xlink:href="#ArialMT-30" x="55.615234"/>
      </g>
     </g>
    </g>
    <g id="ytick_7">
     <g id="line2d_13">
      <path d="M 108 125.28 
L 777.6 125.28 
" clip-path="url(#p2263d7c2a7)" style="fill: none; stroke: #ffffff; stroke-linecap: round"/>
     </g>
     <g id="text_14">
      <!-- 60 -->
      <g style="fill: #262626" transform="translate(86.265938 129.216797)scale(0.11 -0.11)">
       <use xlink:href="#ArialMT-36"/>
       <use xlink:href="#ArialMT-30" x="55.615234"/>
      </g>
     </g>
    </g>
    <g id="ytick_8">
     <g id="line2d_14">
      <path d="M 108 82.08 
L 777.6 82.08 
" clip-path="url(#p2263d7c2a7)" style="fill: none; stroke: #ffffff; stroke-linecap: round"/>
     </g>
     <g id="text_15">
      <!-- 70 -->
      <g style="fill: #262626" transform="translate(86.265938 86.016797)scale(0.11 -0.11)">
       <use xlink:href="#ArialMT-37"/>
       <use xlink:href="#ArialMT-30" x="55.615234"/>
      </g>
     </g>
    </g>
    <g id="text_16">
     <!-- Respondents -->
     <g style="fill: #262626" transform="translate(79.880938 253.515937)rotate(-90)scale(0.12 -0.12)">
      <defs>
       <path id="ArialMT-52" d="M 503 0 
L 503 4581 
L 2534 4581 
Q 3147 4581 3465 4457 
Q 3784 4334 3975 4021 
Q 4166 3709 4166 3331 
Q 4166 2844 3850 2509 
Q 3534 2175 2875 2084 
Q 3116 1969 3241 1856 
Q 3506 1613 3744 1247 
L 4541 0 
L 3778 0 
L 3172 953 
Q 2906 1366 2734 1584 
Q 2563 1803 2427 1890 
Q 2291 1978 2150 2013 
Q 2047 2034 1813 2034 
L 1109 2034 
L 1109 0 
L 503 0 
z
M 1109 2559 
L 2413 2559 
Q 2828 2559 3062 2645 
Q 3297 2731 3419 2920 
Q 3541 3109 3541 3331 
Q 3541 3656 3305 3865 
Q 3069 4075 2559 4075 
L 1109 4075 
L 1109 2559 
z
" transform="scale(0.015625)"/>
       <path id="ArialMT-70" d="M 422 -1272 
L 422 3319 
L 934 3319 
L 934 2888 
Q 1116 3141 1344 3267 
Q 1572 3394 1897 3394 
Q 2322 3394 2647 3175 
Q 2972 2956 3137 2557 
Q 3303 2159 3303 1684 
Q 3303 1175 3120 767 
Q 2938 359 2589 142 
Q 2241 -75 1856 -75 
Q 1575 -75 1351 44 
Q 1128 163 984 344 
L 984 -1272 
L 422 -1272 
z
M 931 1641 
Q 931 1000 1190 694 
Q 1450 388 1819 388 
Q 2194 388 2461 705 
Q 2728 1022 2728 1688 
Q 2728 2322 2467 2637 
Q 2206 2953 1844 2953 
Q 1484 2953 1207 2617 
Q 931 2281 931 1641 
z
" transform="scale(0.015625)"/>
       <path id="ArialMT-6e" d="M 422 0 
L 422 3319 
L 928 3319 
L 928 2847 
Q 1294 3394 1984 3394 
Q 2284 3394 2536 3286 
Q 2788 3178 2913 3003 
Q 3038 2828 3088 2588 
Q 3119 2431 3119 2041 
L 3119 0 
L 2556 0 
L 2556 2019 
Q 2556 2363 2490 2533 
Q 2425 2703 2258 2804 
Q 2091 2906 1866 2906 
Q 1506 2906 1245 2678 
Q 984 2450 984 1813 
L 984 0 
L 422 0 
z
" transform="scale(0.015625)"/>
       <path id="ArialMT-74" d="M 1650 503 
L 1731 6 
Q 1494 -44 1306 -44 
Q 1000 -44 831 53 
Q 663 150 594 308 
Q 525 466 525 972 
L 525 2881 
L 113 2881 
L 113 3319 
L 525 3319 
L 525 4141 
L 1084 4478 
L 1084 3319 
L 1650 3319 
L 1650 2881 
L 1084 2881 
L 1084 941 
Q 1084 700 1114 631 
Q 1144 563 1211 522 
Q 1278 481 1403 481 
Q 1497 481 1650 503 
z
" transform="scale(0.015625)"/>
      </defs>
      <use xlink:href="#ArialMT-52"/>
      <use xlink:href="#ArialMT-65" x="72.216797"/>
      <use xlink:href="#ArialMT-73" x="127.832031"/>
      <use xlink:href="#ArialMT-70" x="177.832031"/>
      <use xlink:href="#ArialMT-6f" x="233.447266"/>
      <use xlink:href="#ArialMT-6e" x="289.0625"/>
      <use xlink:href="#ArialMT-64" x="344.677734"/>
      <use xlink:href="#ArialMT-65" x="400.292969"/>
      <use xlink:href="#ArialMT-6e" x="455.908203"/>
      <use xlink:href="#ArialMT-74" x="511.523438"/>
      <use xlink:href="#ArialMT-73" x="539.306641"/>
     </g>
    </g>
   </g>
   <g id="patch_3">
    <path d="M 138.436364 384.48 
L 260.181818 384.48 
L 260.181818 371.52 
L 138.436364 371.52 
z
" clip-path="url(#p2263d7c2a7)" style="fill: #4c72b0; fill-opacity: 0.75; stroke: #ffffff; stroke-linejoin: miter"/>
   </g>
   <g id="patch_4">
    <path d="M 260.181818 384.48 
L 381.927273 384.48 
L 381.927273 311.04 
L 260.181818 311.04 
z
" clip-path="url(#p2263d7c2a7)" style="fill: #4c72b0; fill-opacity: 0.75; stroke: #ffffff; stroke-linejoin: miter"/>
   </g>
   <g id="patch_5">
    <path d="M 381.927273 384.48 
L 503.672727 384.48 
L 503.672727 82.08 
L 381.927273 82.08 
z
" clip-path="url(#p2263d7c2a7)" style="fill: #4c72b0; fill-opacity: 0.75; stroke: #ffffff; stroke-linejoin: miter"/>
   </g>
   <g id="patch_6">
    <path d="M 503.672727 384.48 
L 625.418182 384.48 
L 625.418182 336.96 
L 503.672727 336.96 
z
" clip-path="url(#p2263d7c2a7)" style="fill: #4c72b0; fill-opacity: 0.75; stroke: #ffffff; stroke-linejoin: miter"/>
   </g>
   <g id="patch_7">
    <path d="M 625.418182 384.48 
L 747.163636 384.48 
L 747.163636 371.52 
L 625.418182 371.52 
z
" clip-path="url(#p2263d7c2a7)" style="fill: #4c72b0; fill-opacity: 0.75; stroke: #ffffff; stroke-linejoin: miter"/>
   </g>
   <g id="LineCollection_1">
    <path d="M 260.181818 384.48 
L 260.181818 376.164 
" clip-path="url(#p2263d7c2a7)" style="fill: none; stroke: #4c72b0"/>
    <path d="M 357.578182 384.48 
L 357.578182 376.164 
" clip-path="url(#p2263d7c2a7)" style="fill: none; stroke: #4c72b0"/>
    <path d="M 394.101818 384.48 
L 394.101818 376.164 
" clip-path="url(#p2263d7c2a7)" style="fill: none; stroke: #4c72b0"/>
    <path d="M 333.229091 384.48 
L 333.229091 376.164 
" clip-path="url(#p2263d7c2a7)" style="fill: none; stroke: #4c72b0"/>
    <path d="M 503.672727 384.48 
L 503.672727 376.164 
" clip-path="url(#p2263d7c2a7)" style="fill: none; stroke: #4c72b0"/>
    <path d="M 381.927273 384.48 
L 381.927273 376.164 
" clip-path="url(#p2263d7c2a7)" style="fill: none; stroke: #4c72b0"/>
    <path d="M 381.927273 384.48 
L 381.927273 376.164 
" clip-path="url(#p2263d7c2a7)" style="fill: none; stroke: #4c72b0"/>
    <path d="M 454.974545 384.48 
L 454.974545 376.164 
" clip-path="url(#p2263d7c2a7)" style="fill: none; stroke: #4c72b0"/>
    <path d="M 503.672727 384.48 
L 503.672727 376.164 
" clip-path="url(#p2263d7c2a7)" style="fill: none; stroke: #4c72b0"/>
    <path d="M 442.8 384.48 
L 442.8 376.164 
" clip-path="url(#p2263d7c2a7)" style="fill: none; stroke: #4c72b0"/>
    <path d="M 381.927273 384.48 
L 381.927273 376.164 
" clip-path="url(#p2263d7c2a7)" style="fill: none; stroke: #4c72b0"/>
    <path d="M 321.054545 384.48 
L 321.054545 376.164 
" clip-path="url(#p2263d7c2a7)" style="fill: none; stroke: #4c72b0"/>
    <path d="M 381.927273 384.48 
L 381.927273 376.164 
" clip-path="url(#p2263d7c2a7)" style="fill: none; stroke: #4c72b0"/>
    <path d="M 381.927273 384.48 
L 381.927273 376.164 
" clip-path="url(#p2263d7c2a7)" style="fill: none; stroke: #4c72b0"/>
    <path d="M 260.181818 384.48 
L 260.181818 376.164 
" clip-path="url(#p2263d7c2a7)" style="fill: none; stroke: #4c72b0"/>
    <path d="M 381.927273 384.48 
L 381.927273 376.164 
" clip-path="url(#p2263d7c2a7)" style="fill: none; stroke: #4c72b0"/>
    <path d="M 381.927273 384.48 
L 381.927273 376.164 
" clip-path="url(#p2263d7c2a7)" style="fill: none; stroke: #4c72b0"/>
    <path d="M 381.927273 384.48 
L 381.927273 376.164 
" clip-path="url(#p2263d7c2a7)" style="fill: none; stroke: #4c72b0"/>
    <path d="M 381.927273 384.48 
L 381.927273 376.164 
" clip-path="url(#p2263d7c2a7)" style="fill: none; stroke: #4c72b0"/>
    <path d="M 381.927273 384.48 
L 381.927273 376.164 
" clip-path="url(#p2263d7c2a7)" style="fill: none; stroke: #4c72b0"/>
    <path d="M 442.8 384.48 
L 442.8 376.164 
" clip-path="url(#p2263d7c2a7)" style="fill: none; stroke: #4c72b0"/>
    <path d="M 503.672727 384.48 
L 503.672727 376.164 
" clip-path="url(#p2263d7c2a7)" style="fill: none; stroke: #4c72b0"/>
    <path d="M 321.054545 384.48 
L 321.054545 376.164 
" clip-path="url(#p2263d7c2a7)" style="fill: none; stroke: #4c72b0"/>
    <path d="M 503.672727 384.48 
L 503.672727 376.164 
" clip-path="url(#p2263d7c2a7)" style="fill: none; stroke: #4c72b0"/>
    <path d="M 381.927273 384.48 
L 381.927273 376.164 
" clip-path="url(#p2263d7c2a7)" style="fill: none; stroke: #4c72b0"/>
    <path d="M 381.927273 384.48 
L 381.927273 376.164 
" clip-path="url(#p2263d7c2a7)" style="fill: none; stroke: #4c72b0"/>
    <path d="M 321.054545 384.48 
L 321.054545 376.164 
" clip-path="url(#p2263d7c2a7)" style="fill: none; stroke: #4c72b0"/>
    <path d="M 381.927273 384.48 
L 381.927273 376.164 
" clip-path="url(#p2263d7c2a7)" style="fill: none; stroke: #4c72b0"/>
    <path d="M 625.418182 384.48 
L 625.418182 376.164 
" clip-path="url(#p2263d7c2a7)" style="fill: none; stroke: #4c72b0"/>
    <path d="M 442.8 384.48 
L 442.8 376.164 
" clip-path="url(#p2263d7c2a7)" style="fill: none; stroke: #4c72b0"/>
    <path d="M 381.927273 384.48 
L 381.927273 376.164 
" clip-path="url(#p2263d7c2a7)" style="fill: none; stroke: #4c72b0"/>
    <path d="M 381.927273 384.48 
L 381.927273 376.164 
" clip-path="url(#p2263d7c2a7)" style="fill: none; stroke: #4c72b0"/>
    <path d="M 284.530909 384.48 
L 284.530909 376.164 
" clip-path="url(#p2263d7c2a7)" style="fill: none; stroke: #4c72b0"/>
    <path d="M 381.927273 384.48 
L 381.927273 376.164 
" clip-path="url(#p2263d7c2a7)" style="fill: none; stroke: #4c72b0"/>
    <path d="M 199.309091 384.48 
L 199.309091 376.164 
" clip-path="url(#p2263d7c2a7)" style="fill: none; stroke: #4c72b0"/>
    <path d="M 284.530909 384.48 
L 284.530909 376.164 
" clip-path="url(#p2263d7c2a7)" style="fill: none; stroke: #4c72b0"/>
    <path d="M 321.054545 384.48 
L 321.054545 376.164 
" clip-path="url(#p2263d7c2a7)" style="fill: none; stroke: #4c72b0"/>
    <path d="M 381.927273 384.48 
L 381.927273 376.164 
" clip-path="url(#p2263d7c2a7)" style="fill: none; stroke: #4c72b0"/>
    <path d="M 381.927273 384.48 
L 381.927273 376.164 
" clip-path="url(#p2263d7c2a7)" style="fill: none; stroke: #4c72b0"/>
    <path d="M 503.672727 384.48 
L 503.672727 376.164 
" clip-path="url(#p2263d7c2a7)" style="fill: none; stroke: #4c72b0"/>
    <path d="M 381.927273 384.48 
L 381.927273 376.164 
" clip-path="url(#p2263d7c2a7)" style="fill: none; stroke: #4c72b0"/>
    <path d="M 381.927273 384.48 
L 381.927273 376.164 
" clip-path="url(#p2263d7c2a7)" style="fill: none; stroke: #4c72b0"/>
    <path d="M 260.181818 384.48 
L 260.181818 376.164 
" clip-path="url(#p2263d7c2a7)" style="fill: none; stroke: #4c72b0"/>
    <path d="M 321.054545 384.48 
L 321.054545 376.164 
" clip-path="url(#p2263d7c2a7)" style="fill: none; stroke: #4c72b0"/>
    <path d="M 381.927273 384.48 
L 381.927273 376.164 
" clip-path="url(#p2263d7c2a7)" style="fill: none; stroke: #4c72b0"/>
    <path d="M 381.927273 384.48 
L 381.927273 376.164 
" clip-path="url(#p2263d7c2a7)" style="fill: none; stroke: #4c72b0"/>
    <path d="M 381.927273 384.48 
L 381.927273 376.164 
" clip-path="url(#p2263d7c2a7)" style="fill: none; stroke: #4c72b0"/>
    <path d="M 503.672727 384.48 
L 503.672727 376.164 
" clip-path="url(#p2263d7c2a7)" style="fill: none; stroke: #4c72b0"/>
    <path d="M 381.927273 384.48 
L 381.927273 376.164 
" clip-path="url(#p2263d7c2a7)" style="fill: none; stroke: #4c72b0"/>
    <path d="M 540.196364 384.48 
L 540.196364 376.164 
" clip-path="url(#p2263d7c2a7)" style="fill: none; stroke: #4c72b0"/>
    <path d="M 406.276364 384.48 
L 406.276364 376.164 
" clip-path="url(#p2263d7c2a7)" style="fill: none; stroke: #4c72b0"/>
    <path d="M 442.8 384.48 
L 442.8 376.164 
" clip-path="url(#p2263d7c2a7)" style="fill: none; stroke: #4c72b0"/>
    <path d="M 138.436364 384.48 
L 138.436364 376.164 
" clip-path="url(#p2263d7c2a7)" style="fill: none; stroke: #4c72b0"/>
    <path d="M 381.927273 384.48 
L 381.927273 376.164 
" clip-path="url(#p2263d7c2a7)" style="fill: none; stroke: #4c72b0"/>
    <path d="M 503.672727 384.48 
L 503.672727 376.164 
" clip-path="url(#p2263d7c2a7)" style="fill: none; stroke: #4c72b0"/>
    <path d="M 503.672727 384.48 
L 503.672727 376.164 
" clip-path="url(#p2263d7c2a7)" style="fill: none; stroke: #4c72b0"/>
    <path d="M 503.672727 384.48 
L 503.672727 376.164 
" clip-path="url(#p2263d7c2a7)" style="fill: none; stroke: #4c72b0"/>
    <path d="M 479.323636 384.48 
L 479.323636 376.164 
" clip-path="url(#p2263d7c2a7)" style="fill: none; stroke: #4c72b0"/>
    <path d="M 381.927273 384.48 
L 381.927273 376.164 
" clip-path="url(#p2263d7c2a7)" style="fill: none; stroke: #4c72b0"/>
    <path d="M 381.927273 384.48 
L 381.927273 376.164 
" clip-path="url(#p2263d7c2a7)" style="fill: none; stroke: #4c72b0"/>
    <path d="M 381.927273 384.48 
L 381.927273 376.164 
" clip-path="url(#p2263d7c2a7)" style="fill: none; stroke: #4c72b0"/>
    <path d="M 442.8 384.48 
L 442.8 376.164 
" clip-path="url(#p2263d7c2a7)" style="fill: none; stroke: #4c72b0"/>
    <path d="M 381.927273 384.48 
L 381.927273 376.164 
" clip-path="url(#p2263d7c2a7)" style="fill: none; stroke: #4c72b0"/>
    <path d="M 381.927273 384.48 
L 381.927273 376.164 
" clip-path="url(#p2263d7c2a7)" style="fill: none; stroke: #4c72b0"/>
    <path d="M 381.927273 384.48 
L 381.927273 376.164 
" clip-path="url(#p2263d7c2a7)" style="fill: none; stroke: #4c72b0"/>
    <path d="M 138.436364 384.48 
L 138.436364 376.164 
" clip-path="url(#p2263d7c2a7)" style="fill: none; stroke: #4c72b0"/>
    <path d="M 381.927273 384.48 
L 381.927273 376.164 
" clip-path="url(#p2263d7c2a7)" style="fill: none; stroke: #4c72b0"/>
    <path d="M 284.530909 384.48 
L 284.530909 376.164 
" clip-path="url(#p2263d7c2a7)" style="fill: none; stroke: #4c72b0"/>
    <path d="M 381.927273 384.48 
L 381.927273 376.164 
" clip-path="url(#p2263d7c2a7)" style="fill: none; stroke: #4c72b0"/>
    <path d="M 321.054545 384.48 
L 321.054545 376.164 
" clip-path="url(#p2263d7c2a7)" style="fill: none; stroke: #4c72b0"/>
    <path d="M 381.927273 384.48 
L 381.927273 376.164 
" clip-path="url(#p2263d7c2a7)" style="fill: none; stroke: #4c72b0"/>
    <path d="M 381.927273 384.48 
L 381.927273 376.164 
" clip-path="url(#p2263d7c2a7)" style="fill: none; stroke: #4c72b0"/>
    <path d="M 442.8 384.48 
L 442.8 376.164 
" clip-path="url(#p2263d7c2a7)" style="fill: none; stroke: #4c72b0"/>
    <path d="M 260.181818 384.48 
L 260.181818 376.164 
" clip-path="url(#p2263d7c2a7)" style="fill: none; stroke: #4c72b0"/>
    <path d="M 381.927273 384.48 
L 381.927273 376.164 
" clip-path="url(#p2263d7c2a7)" style="fill: none; stroke: #4c72b0"/>
    <path d="M 381.927273 384.48 
L 381.927273 376.164 
" clip-path="url(#p2263d7c2a7)" style="fill: none; stroke: #4c72b0"/>
    <path clip-path="url(#p2263d7c2a7)" style="fill: none; stroke: #4c72b0"/>
    <path d="M 381.927273 384.48 
L 381.927273 376.164 
" clip-path="url(#p2263d7c2a7)" style="fill: none; stroke: #4c72b0"/>
    <path d="M 381.927273 384.48 
L 381.927273 376.164 
" clip-path="url(#p2263d7c2a7)" style="fill: none; stroke: #4c72b0"/>
    <path d="M 381.927273 384.48 
L 381.927273 376.164 
" clip-path="url(#p2263d7c2a7)" style="fill: none; stroke: #4c72b0"/>
    <path d="M 381.927273 384.48 
L 381.927273 376.164 
" clip-path="url(#p2263d7c2a7)" style="fill: none; stroke: #4c72b0"/>
    <path clip-path="url(#p2263d7c2a7)" style="fill: none; stroke: #4c72b0"/>
    <path d="M 381.927273 384.48 
L 381.927273 376.164 
" clip-path="url(#p2263d7c2a7)" style="fill: none; stroke: #4c72b0"/>
    <path d="M 381.927273 384.48 
L 381.927273 376.164 
" clip-path="url(#p2263d7c2a7)" style="fill: none; stroke: #4c72b0"/>
    <path d="M 260.181818 384.48 
L 260.181818 376.164 
" clip-path="url(#p2263d7c2a7)" style="fill: none; stroke: #4c72b0"/>
    <path d="M 381.927273 384.48 
L 381.927273 376.164 
" clip-path="url(#p2263d7c2a7)" style="fill: none; stroke: #4c72b0"/>
    <path d="M 381.927273 384.48 
L 381.927273 376.164 
" clip-path="url(#p2263d7c2a7)" style="fill: none; stroke: #4c72b0"/>
    <path d="M 381.927273 384.48 
L 381.927273 376.164 
" clip-path="url(#p2263d7c2a7)" style="fill: none; stroke: #4c72b0"/>
    <path d="M 381.927273 384.48 
L 381.927273 376.164 
" clip-path="url(#p2263d7c2a7)" style="fill: none; stroke: #4c72b0"/>
    <path d="M 381.927273 384.48 
L 381.927273 376.164 
" clip-path="url(#p2263d7c2a7)" style="fill: none; stroke: #4c72b0"/>
    <path d="M 442.8 384.48 
L 442.8 376.164 
" clip-path="url(#p2263d7c2a7)" style="fill: none; stroke: #4c72b0"/>
    <path d="M 381.927273 384.48 
L 381.927273 376.164 
" clip-path="url(#p2263d7c2a7)" style="fill: none; stroke: #4c72b0"/>
    <path d="M 381.927273 384.48 
L 381.927273 376.164 
" clip-path="url(#p2263d7c2a7)" style="fill: none; stroke: #4c72b0"/>
    <path d="M 381.927273 384.48 
L 381.927273 376.164 
" clip-path="url(#p2263d7c2a7)" style="fill: none; stroke: #4c72b0"/>
    <path d="M 381.927273 384.48 
L 381.927273 376.164 
" clip-path="url(#p2263d7c2a7)" style="fill: none; stroke: #4c72b0"/>
    <path d="M 442.8 384.48 
L 442.8 376.164 
" clip-path="url(#p2263d7c2a7)" style="fill: none; stroke: #4c72b0"/>
    <path d="M 503.672727 384.48 
L 503.672727 376.164 
" clip-path="url(#p2263d7c2a7)" style="fill: none; stroke: #4c72b0"/>
    <path d="M 442.8 384.48 
L 442.8 376.164 
" clip-path="url(#p2263d7c2a7)" style="fill: none; stroke: #4c72b0"/>
    <path d="M 260.181818 384.48 
L 260.181818 376.164 
" clip-path="url(#p2263d7c2a7)" style="fill: none; stroke: #4c72b0"/>
    <path d="M 381.927273 384.48 
L 381.927273 376.164 
" clip-path="url(#p2263d7c2a7)" style="fill: none; stroke: #4c72b0"/>
    <path d="M 625.418182 384.48 
L 625.418182 376.164 
" clip-path="url(#p2263d7c2a7)" style="fill: none; stroke: #4c72b0"/>
    <path d="M 381.927273 384.48 
L 381.927273 376.164 
" clip-path="url(#p2263d7c2a7)" style="fill: none; stroke: #4c72b0"/>
    <path d="M 381.927273 384.48 
L 381.927273 376.164 
" clip-path="url(#p2263d7c2a7)" style="fill: none; stroke: #4c72b0"/>
    <path d="M 381.927273 384.48 
L 381.927273 376.164 
" clip-path="url(#p2263d7c2a7)" style="fill: none; stroke: #4c72b0"/>
    <path d="M 747.163636 384.48 
L 747.163636 376.164 
" clip-path="url(#p2263d7c2a7)" style="fill: none; stroke: #4c72b0"/>
    <path d="M 381.927273 384.48 
L 381.927273 376.164 
" clip-path="url(#p2263d7c2a7)" style="fill: none; stroke: #4c72b0"/>
   </g>
   <g id="patch_8">
    <path d="M 108 384.48 
L 108 51.84 
" style="fill: none; stroke: #ffffff; stroke-width: 1.25; stroke-linejoin: miter; stroke-linecap: square"/>
   </g>
   <g id="patch_9">
    <path d="M 777.6 384.48 
L 777.6 51.84 
" style="fill: none; stroke: #ffffff; stroke-width: 1.25; stroke-linejoin: miter; stroke-linecap: square"/>
   </g>
   <g id="patch_10">
    <path d="M 108 384.48 
L 777.6 384.48 
" style="fill: none; stroke: #ffffff; stroke-width: 1.25; stroke-linejoin: miter; stroke-linecap: square"/>
   </g>
   <g id="patch_11">
    <path d="M 108 51.84 
L 777.6 51.84 
" style="fill: none; stroke: #ffffff; stroke-width: 1.25; stroke-linejoin: miter; stroke-linecap: square"/>
   </g>
   <g id="text_17">
    <!-- Number of Hours Worked Per Week (2022) -->
    <g style="fill: #262626" transform="translate(327.976875 45.84)scale(0.12 -0.12)">
     <defs>
      <path id="ArialMT-4e" d="M 488 0 
L 488 4581 
L 1109 4581 
L 3516 984 
L 3516 4581 
L 4097 4581 
L 4097 0 
L 3475 0 
L 1069 3600 
L 1069 0 
L 488 0 
z
" transform="scale(0.015625)"/>
      <path id="ArialMT-6d" d="M 422 0 
L 422 3319 
L 925 3319 
L 925 2853 
Q 1081 3097 1340 3245 
Q 1600 3394 1931 3394 
Q 2300 3394 2536 3241 
Q 2772 3088 2869 2813 
Q 3263 3394 3894 3394 
Q 4388 3394 4653 3120 
Q 4919 2847 4919 2278 
L 4919 0 
L 4359 0 
L 4359 2091 
Q 4359 2428 4304 2576 
Q 4250 2725 4106 2815 
Q 3963 2906 3769 2906 
Q 3419 2906 3187 2673 
Q 2956 2441 2956 1928 
L 2956 0 
L 2394 0 
L 2394 2156 
Q 2394 2531 2256 2718 
Q 2119 2906 1806 2906 
Q 1569 2906 1367 2781 
Q 1166 2656 1075 2415 
Q 984 2175 984 1722 
L 984 0 
L 422 0 
z
" transform="scale(0.015625)"/>
      <path id="ArialMT-62" d="M 941 0 
L 419 0 
L 419 4581 
L 981 4581 
L 981 2947 
Q 1338 3394 1891 3394 
Q 2197 3394 2470 3270 
Q 2744 3147 2920 2923 
Q 3097 2700 3197 2384 
Q 3297 2069 3297 1709 
Q 3297 856 2875 390 
Q 2453 -75 1863 -75 
Q 1275 -75 941 416 
L 941 0 
z
M 934 1684 
Q 934 1088 1097 822 
Q 1363 388 1816 388 
Q 2184 388 2453 708 
Q 2722 1028 2722 1663 
Q 2722 2313 2464 2622 
Q 2206 2931 1841 2931 
Q 1472 2931 1203 2611 
Q 934 2291 934 1684 
z
" transform="scale(0.015625)"/>
      <path id="ArialMT-66" d="M 556 0 
L 556 2881 
L 59 2881 
L 59 3319 
L 556 3319 
L 556 3672 
Q 556 4006 616 4169 
Q 697 4388 901 4523 
Q 1106 4659 1475 4659 
Q 1713 4659 2000 4603 
L 1916 4113 
Q 1741 4144 1584 4144 
Q 1328 4144 1222 4034 
Q 1116 3925 1116 3625 
L 1116 3319 
L 1763 3319 
L 1763 2881 
L 1116 2881 
L 1116 0 
L 556 0 
z
" transform="scale(0.015625)"/>
      <path id="ArialMT-28" d="M 1497 -1347 
Q 1031 -759 709 28 
Q 388 816 388 1659 
Q 388 2403 628 3084 
Q 909 3875 1497 4659 
L 1900 4659 
Q 1522 4009 1400 3731 
Q 1209 3300 1100 2831 
Q 966 2247 966 1656 
Q 966 153 1900 -1347 
L 1497 -1347 
z
" transform="scale(0.015625)"/>
      <path id="ArialMT-29" d="M 791 -1347 
L 388 -1347 
Q 1322 153 1322 1656 
Q 1322 2244 1188 2822 
Q 1081 3291 891 3722 
Q 769 4003 388 4659 
L 791 4659 
Q 1378 3875 1659 3084 
Q 1900 2403 1900 1659 
Q 1900 816 1576 28 
Q 1253 -759 791 -1347 
z
" transform="scale(0.015625)"/>
     </defs>
     <use xlink:href="#ArialMT-4e"/>
     <use xlink:href="#ArialMT-75" x="72.216797"/>
     <use xlink:href="#ArialMT-6d" x="127.832031"/>
     <use xlink:href="#ArialMT-62" x="211.132812"/>
     <use xlink:href="#ArialMT-65" x="266.748047"/>
     <use xlink:href="#ArialMT-72" x="322.363281"/>
     <use xlink:href="#ArialMT-20" x="355.664062"/>
     <use xlink:href="#ArialMT-6f" x="383.447266"/>
     <use xlink:href="#ArialMT-66" x="439.0625"/>
     <use xlink:href="#ArialMT-20" x="466.845703"/>
     <use xlink:href="#ArialMT-48" x="494.628906"/>
     <use xlink:href="#ArialMT-6f" x="566.845703"/>
     <use xlink:href="#ArialMT-75" x="622.460938"/>
     <use xlink:href="#ArialMT-72" x="678.076172"/>
     <use xlink:href="#ArialMT-73" x="711.376953"/>
     <use xlink:href="#ArialMT-20" x="761.376953"/>
     <use xlink:href="#ArialMT-57" x="789.160156"/>
     <use xlink:href="#ArialMT-6f" x="881.794922"/>
     <use xlink:href="#ArialMT-72" x="937.410156"/>
     <use xlink:href="#ArialMT-6b" x="970.710938"/>
     <use xlink:href="#ArialMT-65" x="1020.710938"/>
     <use xlink:href="#ArialMT-64" x="1076.326172"/>
     <use xlink:href="#ArialMT-20" x="1131.941406"/>
     <use xlink:href="#ArialMT-50" x="1159.724609"/>
     <use xlink:href="#ArialMT-65" x="1226.423828"/>
     <use xlink:href="#ArialMT-72" x="1282.039062"/>
     <use xlink:href="#ArialMT-20" x="1315.339844"/>
     <use xlink:href="#ArialMT-57" x="1343.123047"/>
     <use xlink:href="#ArialMT-65" x="1435.757812"/>
     <use xlink:href="#ArialMT-65" x="1491.373047"/>
     <use xlink:href="#ArialMT-6b" x="1546.988281"/>
     <use xlink:href="#ArialMT-20" x="1596.988281"/>
     <use xlink:href="#ArialMT-28" x="1624.771484"/>
     <use xlink:href="#ArialMT-32" x="1658.072266"/>
     <use xlink:href="#ArialMT-30" x="1713.6875"/>
     <use xlink:href="#ArialMT-32" x="1769.302734"/>
     <use xlink:href="#ArialMT-32" x="1824.917969"/>
     <use xlink:href="#ArialMT-29" x="1880.533203"/>
    </g>
   </g>
  </g>
 </g>
 <defs>
  <clipPath id="p2263d7c2a7">
   <rect x="108" y="51.84" width="669.6" height="332.64"/>
  </clipPath>
 </defs>
</svg>
