<?xml version="1.0" encoding="utf-8" standalone="no"?>
<!DOCTYPE svg PUBLIC "-//W3C//DTD SVG 1.1//EN"
  "http://www.w3.org/Graphics/SVG/1.1/DTD/svg11.dtd">
<svg xmlns:xlink="http://www.w3.org/1999/xlink" width="864pt" height="432pt" viewBox="0 0 864 432" xmlns="http://www.w3.org/2000/svg" version="1.1">
 <metadata>
  <rdf:RDF xmlns:dc="http://purl.org/dc/elements/1.1/" xmlns:cc="http://creativecommons.org/ns#" xmlns:rdf="http://www.w3.org/1999/02/22-rdf-syntax-ns#">
   <cc:Work>
    <dc:type rdf:resource="http://purl.org/dc/dcmitype/StillImage"/>
    <dc:date>2023-03-07T17:55:20.786437</dc:date>
    <dc:format>image/svg+xml</dc:format>
    <dc:creator>
     <cc:Agent>
      <dc:title>Matplotlib v3.5.2, https://matplotlib.org/</dc:title>
     </cc:Agent>
    </dc:creator>
   </cc:Work>
  </rdf:RDF>
 </metadata>
 <defs>
  <style type="text/css">*{stroke-linejoin: round; stroke-linecap: butt}</style>
 </defs>
 <g id="figure_1">
  <g id="patch_1">
   <path d="M 0 432 
L 864 432 
L 864 0 
L 0 0 
z
" style="fill: #ffffff"/>
  </g>
  <g id="axes_1">
   <g id="patch_2">
    <path d="M 108 384.48 
L 777.6 384.48 
L 777.6 51.84 
L 108 51.84 
z
" style="fill: #eaeaf2"/>
   </g>
   <g id="matplotlib.axis_1">
    <g id="xtick_1">
     <g id="text_1">
      <!-- Privately owned company -->
      <g style="fill: #262626" transform="translate(129.033516 401.853594)scale(0.11 -0.11)">
       <defs>
        <path id="ArialMT-50" d="M 494 0 
L 494 4581 
L 2222 4581 
Q 2678 4581 2919 4538 
Q 3256 4481 3484 4323 
Q 3713 4166 3852 3881 
Q 3991 3597 3991 3256 
Q 3991 2672 3619 2267 
Q 3247 1863 2275 1863 
L 1100 1863 
L 1100 0 
L 494 0 
z
M 1100 2403 
L 2284 2403 
Q 2872 2403 3119 2622 
Q 3366 2841 3366 3238 
Q 3366 3525 3220 3729 
Q 3075 3934 2838 4000 
Q 2684 4041 2272 4041 
L 1100 4041 
L 1100 2403 
z
" transform="scale(0.015625)"/>
        <path id="ArialMT-72" d="M 416 0 
L 416 3319 
L 922 3319 
L 922 2816 
Q 1116 3169 1280 3281 
Q 1444 3394 1641 3394 
Q 1925 3394 2219 3213 
L 2025 2691 
Q 1819 2813 1613 2813 
Q 1428 2813 1281 2702 
Q 1134 2591 1072 2394 
Q 978 2094 978 1738 
L 978 0 
L 416 0 
z
" transform="scale(0.015625)"/>
        <path id="ArialMT-69" d="M 425 3934 
L 425 4581 
L 988 4581 
L 988 3934 
L 425 3934 
z
M 425 0 
L 425 3319 
L 988 3319 
L 988 0 
L 425 0 
z
" transform="scale(0.015625)"/>
        <path id="ArialMT-76" d="M 1344 0 
L 81 3319 
L 675 3319 
L 1388 1331 
Q 1503 1009 1600 663 
Q 1675 925 1809 1294 
L 2547 3319 
L 3125 3319 
L 1869 0 
L 1344 0 
z
" transform="scale(0.015625)"/>
        <path id="ArialMT-61" d="M 2588 409 
Q 2275 144 1986 34 
Q 1697 -75 1366 -75 
Q 819 -75 525 192 
Q 231 459 231 875 
Q 231 1119 342 1320 
Q 453 1522 633 1644 
Q 813 1766 1038 1828 
Q 1203 1872 1538 1913 
Q 2219 1994 2541 2106 
Q 2544 2222 2544 2253 
Q 2544 2597 2384 2738 
Q 2169 2928 1744 2928 
Q 1347 2928 1158 2789 
Q 969 2650 878 2297 
L 328 2372 
Q 403 2725 575 2942 
Q 747 3159 1072 3276 
Q 1397 3394 1825 3394 
Q 2250 3394 2515 3294 
Q 2781 3194 2906 3042 
Q 3031 2891 3081 2659 
Q 3109 2516 3109 2141 
L 3109 1391 
Q 3109 606 3145 398 
Q 3181 191 3288 0 
L 2700 0 
Q 2613 175 2588 409 
z
M 2541 1666 
Q 2234 1541 1622 1453 
Q 1275 1403 1131 1340 
Q 988 1278 909 1158 
Q 831 1038 831 891 
Q 831 666 1001 516 
Q 1172 366 1500 366 
Q 1825 366 2078 508 
Q 2331 650 2450 897 
Q 2541 1088 2541 1459 
L 2541 1666 
z
" transform="scale(0.015625)"/>
        <path id="ArialMT-74" d="M 1650 503 
L 1731 6 
Q 1494 -44 1306 -44 
Q 1000 -44 831 53 
Q 663 150 594 308 
Q 525 466 525 972 
L 525 2881 
L 113 2881 
L 113 3319 
L 525 3319 
L 525 4141 
L 1084 4478 
L 1084 3319 
L 1650 3319 
L 1650 2881 
L 1084 2881 
L 1084 941 
Q 1084 700 1114 631 
Q 1144 563 1211 522 
Q 1278 481 1403 481 
Q 1497 481 1650 503 
z
" transform="scale(0.015625)"/>
        <path id="ArialMT-65" d="M 2694 1069 
L 3275 997 
Q 3138 488 2766 206 
Q 2394 -75 1816 -75 
Q 1088 -75 661 373 
Q 234 822 234 1631 
Q 234 2469 665 2931 
Q 1097 3394 1784 3394 
Q 2450 3394 2872 2941 
Q 3294 2488 3294 1666 
Q 3294 1616 3291 1516 
L 816 1516 
Q 847 969 1125 678 
Q 1403 388 1819 388 
Q 2128 388 2347 550 
Q 2566 713 2694 1069 
z
M 847 1978 
L 2700 1978 
Q 2663 2397 2488 2606 
Q 2219 2931 1791 2931 
Q 1403 2931 1139 2672 
Q 875 2413 847 1978 
z
" transform="scale(0.015625)"/>
        <path id="ArialMT-6c" d="M 409 0 
L 409 4581 
L 972 4581 
L 972 0 
L 409 0 
z
" transform="scale(0.015625)"/>
        <path id="ArialMT-79" d="M 397 -1278 
L 334 -750 
Q 519 -800 656 -800 
Q 844 -800 956 -737 
Q 1069 -675 1141 -563 
Q 1194 -478 1313 -144 
Q 1328 -97 1363 -6 
L 103 3319 
L 709 3319 
L 1400 1397 
Q 1534 1031 1641 628 
Q 1738 1016 1872 1384 
L 2581 3319 
L 3144 3319 
L 1881 -56 
Q 1678 -603 1566 -809 
Q 1416 -1088 1222 -1217 
Q 1028 -1347 759 -1347 
Q 597 -1347 397 -1278 
z
" transform="scale(0.015625)"/>
        <path id="ArialMT-20" transform="scale(0.015625)"/>
        <path id="ArialMT-6f" d="M 213 1659 
Q 213 2581 725 3025 
Q 1153 3394 1769 3394 
Q 2453 3394 2887 2945 
Q 3322 2497 3322 1706 
Q 3322 1066 3130 698 
Q 2938 331 2570 128 
Q 2203 -75 1769 -75 
Q 1072 -75 642 372 
Q 213 819 213 1659 
z
M 791 1659 
Q 791 1022 1069 705 
Q 1347 388 1769 388 
Q 2188 388 2466 706 
Q 2744 1025 2744 1678 
Q 2744 2294 2464 2611 
Q 2184 2928 1769 2928 
Q 1347 2928 1069 2612 
Q 791 2297 791 1659 
z
" transform="scale(0.015625)"/>
        <path id="ArialMT-77" d="M 1034 0 
L 19 3319 
L 600 3319 
L 1128 1403 
L 1325 691 
Q 1338 744 1497 1375 
L 2025 3319 
L 2603 3319 
L 3100 1394 
L 3266 759 
L 3456 1400 
L 4025 3319 
L 4572 3319 
L 3534 0 
L 2950 0 
L 2422 1988 
L 2294 2553 
L 1622 0 
L 1034 0 
z
" transform="scale(0.015625)"/>
        <path id="ArialMT-6e" d="M 422 0 
L 422 3319 
L 928 3319 
L 928 2847 
Q 1294 3394 1984 3394 
Q 2284 3394 2536 3286 
Q 2788 3178 2913 3003 
Q 3038 2828 3088 2588 
Q 3119 2431 3119 2041 
L 3119 0 
L 2556 0 
L 2556 2019 
Q 2556 2363 2490 2533 
Q 2425 2703 2258 2804 
Q 2091 2906 1866 2906 
Q 1506 2906 1245 2678 
Q 984 2450 984 1813 
L 984 0 
L 422 0 
z
" transform="scale(0.015625)"/>
        <path id="ArialMT-64" d="M 2575 0 
L 2575 419 
Q 2259 -75 1647 -75 
Q 1250 -75 917 144 
Q 584 363 401 755 
Q 219 1147 219 1656 
Q 219 2153 384 2558 
Q 550 2963 881 3178 
Q 1213 3394 1622 3394 
Q 1922 3394 2156 3267 
Q 2391 3141 2538 2938 
L 2538 4581 
L 3097 4581 
L 3097 0 
L 2575 0 
z
M 797 1656 
Q 797 1019 1065 703 
Q 1334 388 1700 388 
Q 2069 388 2326 689 
Q 2584 991 2584 1609 
Q 2584 2291 2321 2609 
Q 2059 2928 1675 2928 
Q 1300 2928 1048 2622 
Q 797 2316 797 1656 
z
" transform="scale(0.015625)"/>
        <path id="ArialMT-63" d="M 2588 1216 
L 3141 1144 
Q 3050 572 2676 248 
Q 2303 -75 1759 -75 
Q 1078 -75 664 370 
Q 250 816 250 1647 
Q 250 2184 428 2587 
Q 606 2991 970 3192 
Q 1334 3394 1763 3394 
Q 2303 3394 2647 3120 
Q 2991 2847 3088 2344 
L 2541 2259 
Q 2463 2594 2264 2762 
Q 2066 2931 1784 2931 
Q 1359 2931 1093 2626 
Q 828 2322 828 1663 
Q 828 994 1084 691 
Q 1341 388 1753 388 
Q 2084 388 2306 591 
Q 2528 794 2588 1216 
z
" transform="scale(0.015625)"/>
        <path id="ArialMT-6d" d="M 422 0 
L 422 3319 
L 925 3319 
L 925 2853 
Q 1081 3097 1340 3245 
Q 1600 3394 1931 3394 
Q 2300 3394 2536 3241 
Q 2772 3088 2869 2813 
Q 3263 3394 3894 3394 
Q 4388 3394 4653 3120 
Q 4919 2847 4919 2278 
L 4919 0 
L 4359 0 
L 4359 2091 
Q 4359 2428 4304 2576 
Q 4250 2725 4106 2815 
Q 3963 2906 3769 2906 
Q 3419 2906 3187 2673 
Q 2956 2441 2956 1928 
L 2956 0 
L 2394 0 
L 2394 2156 
Q 2394 2531 2256 2718 
Q 2119 2906 1806 2906 
Q 1569 2906 1367 2781 
Q 1166 2656 1075 2415 
Q 984 2175 984 1722 
L 984 0 
L 422 0 
z
" transform="scale(0.015625)"/>
        <path id="ArialMT-70" d="M 422 -1272 
L 422 3319 
L 934 3319 
L 934 2888 
Q 1116 3141 1344 3267 
Q 1572 3394 1897 3394 
Q 2322 3394 2647 3175 
Q 2972 2956 3137 2557 
Q 3303 2159 3303 1684 
Q 3303 1175 3120 767 
Q 2938 359 2589 142 
Q 2241 -75 1856 -75 
Q 1575 -75 1351 44 
Q 1128 163 984 344 
L 984 -1272 
L 422 -1272 
z
M 931 1641 
Q 931 1000 1190 694 
Q 1450 388 1819 388 
Q 2194 388 2461 705 
Q 2728 1022 2728 1688 
Q 2728 2322 2467 2637 
Q 2206 2953 1844 2953 
Q 1484 2953 1207 2617 
Q 931 2281 931 1641 
z
" transform="scale(0.015625)"/>
       </defs>
       <use xlink:href="#ArialMT-50"/>
       <use xlink:href="#ArialMT-72" x="66.699219"/>
       <use xlink:href="#ArialMT-69" x="100"/>
       <use xlink:href="#ArialMT-76" x="122.216797"/>
       <use xlink:href="#ArialMT-61" x="172.216797"/>
       <use xlink:href="#ArialMT-74" x="227.832031"/>
       <use xlink:href="#ArialMT-65" x="255.615234"/>
       <use xlink:href="#ArialMT-6c" x="311.230469"/>
       <use xlink:href="#ArialMT-79" x="333.447266"/>
       <use xlink:href="#ArialMT-20" x="383.447266"/>
       <use xlink:href="#ArialMT-6f" x="411.230469"/>
       <use xlink:href="#ArialMT-77" x="466.845703"/>
       <use xlink:href="#ArialMT-6e" x="539.0625"/>
       <use xlink:href="#ArialMT-65" x="594.677734"/>
       <use xlink:href="#ArialMT-64" x="650.292969"/>
       <use xlink:href="#ArialMT-20" x="705.908203"/>
       <use xlink:href="#ArialMT-63" x="733.691406"/>
       <use xlink:href="#ArialMT-6f" x="783.691406"/>
       <use xlink:href="#ArialMT-6d" x="839.306641"/>
       <use xlink:href="#ArialMT-70" x="922.607422"/>
       <use xlink:href="#ArialMT-61" x="978.222656"/>
       <use xlink:href="#ArialMT-6e" x="1033.837891"/>
       <use xlink:href="#ArialMT-79" x="1089.453125"/>
      </g>
     </g>
    </g>
    <g id="xtick_2">
     <g id="text_2">
      <!-- Government -->
      <g style="fill: #262626" transform="translate(328.838828 401.853594)scale(0.11 -0.11)">
       <defs>
        <path id="ArialMT-47" d="M 2638 1797 
L 2638 2334 
L 4578 2338 
L 4578 638 
Q 4131 281 3656 101 
Q 3181 -78 2681 -78 
Q 2006 -78 1454 211 
Q 903 500 622 1047 
Q 341 1594 341 2269 
Q 341 2938 620 3517 
Q 900 4097 1425 4378 
Q 1950 4659 2634 4659 
Q 3131 4659 3532 4498 
Q 3934 4338 4162 4050 
Q 4391 3763 4509 3300 
L 3963 3150 
Q 3859 3500 3706 3700 
Q 3553 3900 3268 4020 
Q 2984 4141 2638 4141 
Q 2222 4141 1919 4014 
Q 1616 3888 1430 3681 
Q 1244 3475 1141 3228 
Q 966 2803 966 2306 
Q 966 1694 1177 1281 
Q 1388 869 1791 669 
Q 2194 469 2647 469 
Q 3041 469 3416 620 
Q 3791 772 3984 944 
L 3984 1797 
L 2638 1797 
z
" transform="scale(0.015625)"/>
       </defs>
       <use xlink:href="#ArialMT-47"/>
       <use xlink:href="#ArialMT-6f" x="77.783203"/>
       <use xlink:href="#ArialMT-76" x="133.398438"/>
       <use xlink:href="#ArialMT-65" x="183.398438"/>
       <use xlink:href="#ArialMT-72" x="239.013672"/>
       <use xlink:href="#ArialMT-6e" x="272.314453"/>
       <use xlink:href="#ArialMT-6d" x="327.929688"/>
       <use xlink:href="#ArialMT-65" x="411.230469"/>
       <use xlink:href="#ArialMT-6e" x="466.845703"/>
       <use xlink:href="#ArialMT-74" x="522.460938"/>
      </g>
     </g>
    </g>
    <g id="xtick_3">
     <g id="text_3">
      <!-- Publicly traded company -->
      <g style="fill: #262626" transform="translate(466.583516 401.853594)scale(0.11 -0.11)">
       <defs>
        <path id="ArialMT-75" d="M 2597 0 
L 2597 488 
Q 2209 -75 1544 -75 
Q 1250 -75 995 37 
Q 741 150 617 320 
Q 494 491 444 738 
Q 409 903 409 1263 
L 409 3319 
L 972 3319 
L 972 1478 
Q 972 1038 1006 884 
Q 1059 663 1231 536 
Q 1403 409 1656 409 
Q 1909 409 2131 539 
Q 2353 669 2445 892 
Q 2538 1116 2538 1541 
L 2538 3319 
L 3100 3319 
L 3100 0 
L 2597 0 
z
" transform="scale(0.015625)"/>
        <path id="ArialMT-62" d="M 941 0 
L 419 0 
L 419 4581 
L 981 4581 
L 981 2947 
Q 1338 3394 1891 3394 
Q 2197 3394 2470 3270 
Q 2744 3147 2920 2923 
Q 3097 2700 3197 2384 
Q 3297 2069 3297 1709 
Q 3297 856 2875 390 
Q 2453 -75 1863 -75 
Q 1275 -75 941 416 
L 941 0 
z
M 934 1684 
Q 934 1088 1097 822 
Q 1363 388 1816 388 
Q 2184 388 2453 708 
Q 2722 1028 2722 1663 
Q 2722 2313 2464 2622 
Q 2206 2931 1841 2931 
Q 1472 2931 1203 2611 
Q 934 2291 934 1684 
z
" transform="scale(0.015625)"/>
       </defs>
       <use xlink:href="#ArialMT-50"/>
       <use xlink:href="#ArialMT-75" x="66.699219"/>
       <use xlink:href="#ArialMT-62" x="122.314453"/>
       <use xlink:href="#ArialMT-6c" x="177.929688"/>
       <use xlink:href="#ArialMT-69" x="200.146484"/>
       <use xlink:href="#ArialMT-63" x="222.363281"/>
       <use xlink:href="#ArialMT-6c" x="272.363281"/>
       <use xlink:href="#ArialMT-79" x="294.580078"/>
       <use xlink:href="#ArialMT-20" x="344.580078"/>
       <use xlink:href="#ArialMT-74" x="372.363281"/>
       <use xlink:href="#ArialMT-72" x="400.146484"/>
       <use xlink:href="#ArialMT-61" x="433.447266"/>
       <use xlink:href="#ArialMT-64" x="489.0625"/>
       <use xlink:href="#ArialMT-65" x="544.677734"/>
       <use xlink:href="#ArialMT-64" x="600.292969"/>
       <use xlink:href="#ArialMT-20" x="655.908203"/>
       <use xlink:href="#ArialMT-63" x="683.691406"/>
       <use xlink:href="#ArialMT-6f" x="733.691406"/>
       <use xlink:href="#ArialMT-6d" x="789.306641"/>
       <use xlink:href="#ArialMT-70" x="872.607422"/>
       <use xlink:href="#ArialMT-61" x="928.222656"/>
       <use xlink:href="#ArialMT-6e" x="983.837891"/>
       <use xlink:href="#ArialMT-79" x="1039.453125"/>
      </g>
     </g>
    </g>
    <g id="xtick_4">
     <g id="text_4">
      <!-- Self-Employed -->
      <g style="fill: #262626" transform="translate(658.135391 401.987656)scale(0.11 -0.11)">
       <defs>
        <path id="ArialMT-53" d="M 288 1472 
L 859 1522 
Q 900 1178 1048 958 
Q 1197 738 1509 602 
Q 1822 466 2213 466 
Q 2559 466 2825 569 
Q 3091 672 3220 851 
Q 3350 1031 3350 1244 
Q 3350 1459 3225 1620 
Q 3100 1781 2813 1891 
Q 2628 1963 1997 2114 
Q 1366 2266 1113 2400 
Q 784 2572 623 2826 
Q 463 3081 463 3397 
Q 463 3744 659 4045 
Q 856 4347 1234 4503 
Q 1613 4659 2075 4659 
Q 2584 4659 2973 4495 
Q 3363 4331 3572 4012 
Q 3781 3694 3797 3291 
L 3216 3247 
Q 3169 3681 2898 3903 
Q 2628 4125 2100 4125 
Q 1550 4125 1298 3923 
Q 1047 3722 1047 3438 
Q 1047 3191 1225 3031 
Q 1400 2872 2139 2705 
Q 2878 2538 3153 2413 
Q 3553 2228 3743 1945 
Q 3934 1663 3934 1294 
Q 3934 928 3725 604 
Q 3516 281 3123 101 
Q 2731 -78 2241 -78 
Q 1619 -78 1198 103 
Q 778 284 539 648 
Q 300 1013 288 1472 
z
" transform="scale(0.015625)"/>
        <path id="ArialMT-66" d="M 556 0 
L 556 2881 
L 59 2881 
L 59 3319 
L 556 3319 
L 556 3672 
Q 556 4006 616 4169 
Q 697 4388 901 4523 
Q 1106 4659 1475 4659 
Q 1713 4659 2000 4603 
L 1916 4113 
Q 1741 4144 1584 4144 
Q 1328 4144 1222 4034 
Q 1116 3925 1116 3625 
L 1116 3319 
L 1763 3319 
L 1763 2881 
L 1116 2881 
L 1116 0 
L 556 0 
z
" transform="scale(0.015625)"/>
        <path id="ArialMT-2d" d="M 203 1375 
L 203 1941 
L 1931 1941 
L 1931 1375 
L 203 1375 
z
" transform="scale(0.015625)"/>
        <path id="ArialMT-45" d="M 506 0 
L 506 4581 
L 3819 4581 
L 3819 4041 
L 1113 4041 
L 1113 2638 
L 3647 2638 
L 3647 2100 
L 1113 2100 
L 1113 541 
L 3925 541 
L 3925 0 
L 506 0 
z
" transform="scale(0.015625)"/>
       </defs>
       <use xlink:href="#ArialMT-53"/>
       <use xlink:href="#ArialMT-65" x="66.699219"/>
       <use xlink:href="#ArialMT-6c" x="122.314453"/>
       <use xlink:href="#ArialMT-66" x="144.53125"/>
       <use xlink:href="#ArialMT-2d" x="172.314453"/>
       <use xlink:href="#ArialMT-45" x="205.615234"/>
       <use xlink:href="#ArialMT-6d" x="272.314453"/>
       <use xlink:href="#ArialMT-70" x="355.615234"/>
       <use xlink:href="#ArialMT-6c" x="411.230469"/>
       <use xlink:href="#ArialMT-6f" x="433.447266"/>
       <use xlink:href="#ArialMT-79" x="489.0625"/>
       <use xlink:href="#ArialMT-65" x="539.0625"/>
       <use xlink:href="#ArialMT-64" x="594.677734"/>
      </g>
     </g>
    </g>
    <g id="text_5">
     <!-- Employer Type -->
     <g style="fill: #262626" transform="translate(402.889688 416.892187)scale(0.12 -0.12)">
      <defs>
       <path id="ArialMT-54" d="M 1659 0 
L 1659 4041 
L 150 4041 
L 150 4581 
L 3781 4581 
L 3781 4041 
L 2266 4041 
L 2266 0 
L 1659 0 
z
" transform="scale(0.015625)"/>
      </defs>
      <use xlink:href="#ArialMT-45"/>
      <use xlink:href="#ArialMT-6d" x="66.699219"/>
      <use xlink:href="#ArialMT-70" x="150"/>
      <use xlink:href="#ArialMT-6c" x="205.615234"/>
      <use xlink:href="#ArialMT-6f" x="227.832031"/>
      <use xlink:href="#ArialMT-79" x="283.447266"/>
      <use xlink:href="#ArialMT-65" x="333.447266"/>
      <use xlink:href="#ArialMT-72" x="389.0625"/>
      <use xlink:href="#ArialMT-20" x="422.363281"/>
      <use xlink:href="#ArialMT-54" x="448.396484"/>
      <use xlink:href="#ArialMT-79" x="503.980469"/>
      <use xlink:href="#ArialMT-70" x="553.980469"/>
      <use xlink:href="#ArialMT-65" x="609.595703"/>
     </g>
    </g>
   </g>
   <g id="matplotlib.axis_2">
    <g id="ytick_1">
     <g id="line2d_1">
      <path d="M 108 373.742609 
L 777.6 373.742609 
" clip-path="url(#p32c2ace6e4)" style="fill: none; stroke: #ffffff; stroke-linecap: round"/>
     </g>
     <g id="text_6">
      <!-- 50 -->
      <g style="fill: #262626" transform="translate(86.265938 377.679406)scale(0.11 -0.11)">
       <defs>
        <path id="ArialMT-35" d="M 266 1200 
L 856 1250 
Q 922 819 1161 601 
Q 1400 384 1738 384 
Q 2144 384 2425 690 
Q 2706 997 2706 1503 
Q 2706 1984 2436 2262 
Q 2166 2541 1728 2541 
Q 1456 2541 1237 2417 
Q 1019 2294 894 2097 
L 366 2166 
L 809 4519 
L 3088 4519 
L 3088 3981 
L 1259 3981 
L 1013 2750 
Q 1425 3038 1878 3038 
Q 2478 3038 2890 2622 
Q 3303 2206 3303 1553 
Q 3303 931 2941 478 
Q 2500 -78 1738 -78 
Q 1113 -78 717 272 
Q 322 622 266 1200 
z
" transform="scale(0.015625)"/>
        <path id="ArialMT-30" d="M 266 2259 
Q 266 3072 433 3567 
Q 600 4063 929 4331 
Q 1259 4600 1759 4600 
Q 2128 4600 2406 4451 
Q 2684 4303 2865 4023 
Q 3047 3744 3150 3342 
Q 3253 2941 3253 2259 
Q 3253 1453 3087 958 
Q 2922 463 2592 192 
Q 2263 -78 1759 -78 
Q 1097 -78 719 397 
Q 266 969 266 2259 
z
M 844 2259 
Q 844 1131 1108 757 
Q 1372 384 1759 384 
Q 2147 384 2411 759 
Q 2675 1134 2675 2259 
Q 2675 3391 2411 3762 
Q 2147 4134 1753 4134 
Q 1366 4134 1134 3806 
Q 844 3388 844 2259 
z
" transform="scale(0.015625)"/>
       </defs>
       <use xlink:href="#ArialMT-35"/>
       <use xlink:href="#ArialMT-30" x="55.615234"/>
      </g>
     </g>
    </g>
    <g id="ytick_2">
     <g id="line2d_2">
      <path d="M 108 329.916522 
L 777.6 329.916522 
" clip-path="url(#p32c2ace6e4)" style="fill: none; stroke: #ffffff; stroke-linecap: round"/>
     </g>
     <g id="text_7">
      <!-- 100 -->
      <g style="fill: #262626" transform="translate(80.148906 333.853319)scale(0.11 -0.11)">
       <defs>
        <path id="ArialMT-31" d="M 2384 0 
L 1822 0 
L 1822 3584 
Q 1619 3391 1289 3197 
Q 959 3003 697 2906 
L 697 3450 
Q 1169 3672 1522 3987 
Q 1875 4303 2022 4600 
L 2384 4600 
L 2384 0 
z
" transform="scale(0.015625)"/>
       </defs>
       <use xlink:href="#ArialMT-31"/>
       <use xlink:href="#ArialMT-30" x="55.615234"/>
       <use xlink:href="#ArialMT-30" x="111.230469"/>
      </g>
     </g>
    </g>
    <g id="ytick_3">
     <g id="line2d_3">
      <path d="M 108 286.090435 
L 777.6 286.090435 
" clip-path="url(#p32c2ace6e4)" style="fill: none; stroke: #ffffff; stroke-linecap: round"/>
     </g>
     <g id="text_8">
      <!-- 150 -->
      <g style="fill: #262626" transform="translate(80.148906 290.027232)scale(0.11 -0.11)">
       <use xlink:href="#ArialMT-31"/>
       <use xlink:href="#ArialMT-35" x="55.615234"/>
       <use xlink:href="#ArialMT-30" x="111.230469"/>
      </g>
     </g>
    </g>
    <g id="ytick_4">
     <g id="line2d_4">
      <path d="M 108 242.264348 
L 777.6 242.264348 
" clip-path="url(#p32c2ace6e4)" style="fill: none; stroke: #ffffff; stroke-linecap: round"/>
     </g>
     <g id="text_9">
      <!-- 200 -->
      <g style="fill: #262626" transform="translate(80.148906 246.201145)scale(0.11 -0.11)">
       <defs>
        <path id="ArialMT-32" d="M 3222 541 
L 3222 0 
L 194 0 
Q 188 203 259 391 
Q 375 700 629 1000 
Q 884 1300 1366 1694 
Q 2113 2306 2375 2664 
Q 2638 3022 2638 3341 
Q 2638 3675 2398 3904 
Q 2159 4134 1775 4134 
Q 1369 4134 1125 3890 
Q 881 3647 878 3216 
L 300 3275 
Q 359 3922 746 4261 
Q 1134 4600 1788 4600 
Q 2447 4600 2831 4234 
Q 3216 3869 3216 3328 
Q 3216 3053 3103 2787 
Q 2991 2522 2730 2228 
Q 2469 1934 1863 1422 
Q 1356 997 1212 845 
Q 1069 694 975 541 
L 3222 541 
z
" transform="scale(0.015625)"/>
       </defs>
       <use xlink:href="#ArialMT-32"/>
       <use xlink:href="#ArialMT-30" x="55.615234"/>
       <use xlink:href="#ArialMT-30" x="111.230469"/>
      </g>
     </g>
    </g>
    <g id="ytick_5">
     <g id="line2d_5">
      <path d="M 108 198.438261 
L 777.6 198.438261 
" clip-path="url(#p32c2ace6e4)" style="fill: none; stroke: #ffffff; stroke-linecap: round"/>
     </g>
     <g id="text_10">
      <!-- 250 -->
      <g style="fill: #262626" transform="translate(80.148906 202.375058)scale(0.11 -0.11)">
       <use xlink:href="#ArialMT-32"/>
       <use xlink:href="#ArialMT-35" x="55.615234"/>
       <use xlink:href="#ArialMT-30" x="111.230469"/>
      </g>
     </g>
    </g>
    <g id="ytick_6">
     <g id="line2d_6">
      <path d="M 108 154.612174 
L 777.6 154.612174 
" clip-path="url(#p32c2ace6e4)" style="fill: none; stroke: #ffffff; stroke-linecap: round"/>
     </g>
     <g id="text_11">
      <!-- 300 -->
      <g style="fill: #262626" transform="translate(80.148906 158.548971)scale(0.11 -0.11)">
       <defs>
        <path id="ArialMT-33" d="M 269 1209 
L 831 1284 
Q 928 806 1161 595 
Q 1394 384 1728 384 
Q 2125 384 2398 659 
Q 2672 934 2672 1341 
Q 2672 1728 2419 1979 
Q 2166 2231 1775 2231 
Q 1616 2231 1378 2169 
L 1441 2663 
Q 1497 2656 1531 2656 
Q 1891 2656 2178 2843 
Q 2466 3031 2466 3422 
Q 2466 3731 2256 3934 
Q 2047 4138 1716 4138 
Q 1388 4138 1169 3931 
Q 950 3725 888 3313 
L 325 3413 
Q 428 3978 793 4289 
Q 1159 4600 1703 4600 
Q 2078 4600 2393 4439 
Q 2709 4278 2876 4000 
Q 3044 3722 3044 3409 
Q 3044 3113 2884 2869 
Q 2725 2625 2413 2481 
Q 2819 2388 3044 2092 
Q 3269 1797 3269 1353 
Q 3269 753 2831 336 
Q 2394 -81 1725 -81 
Q 1122 -81 723 278 
Q 325 638 269 1209 
z
" transform="scale(0.015625)"/>
       </defs>
       <use xlink:href="#ArialMT-33"/>
       <use xlink:href="#ArialMT-30" x="55.615234"/>
       <use xlink:href="#ArialMT-30" x="111.230469"/>
      </g>
     </g>
    </g>
    <g id="ytick_7">
     <g id="line2d_7">
      <path d="M 108 110.786087 
L 777.6 110.786087 
" clip-path="url(#p32c2ace6e4)" style="fill: none; stroke: #ffffff; stroke-linecap: round"/>
     </g>
     <g id="text_12">
      <!-- 350 -->
      <g style="fill: #262626" transform="translate(80.148906 114.722884)scale(0.11 -0.11)">
       <use xlink:href="#ArialMT-33"/>
       <use xlink:href="#ArialMT-35" x="55.615234"/>
       <use xlink:href="#ArialMT-30" x="111.230469"/>
      </g>
     </g>
    </g>
    <g id="ytick_8">
     <g id="line2d_8">
      <path d="M 108 66.96 
L 777.6 66.96 
" clip-path="url(#p32c2ace6e4)" style="fill: none; stroke: #ffffff; stroke-linecap: round"/>
     </g>
     <g id="text_13">
      <!-- 400 -->
      <g style="fill: #262626" transform="translate(80.148906 70.896797)scale(0.11 -0.11)">
       <defs>
        <path id="ArialMT-34" d="M 2069 0 
L 2069 1097 
L 81 1097 
L 81 1613 
L 2172 4581 
L 2631 4581 
L 2631 1613 
L 3250 1613 
L 3250 1097 
L 2631 1097 
L 2631 0 
L 2069 0 
z
M 2069 1613 
L 2069 3678 
L 634 1613 
L 2069 1613 
z
" transform="scale(0.015625)"/>
       </defs>
       <use xlink:href="#ArialMT-34"/>
       <use xlink:href="#ArialMT-30" x="55.615234"/>
       <use xlink:href="#ArialMT-30" x="111.230469"/>
      </g>
     </g>
    </g>
    <g id="text_14">
     <!-- Annual income (thousands) -->
     <g style="fill: #262626" transform="translate(73.623281 291.197812)rotate(-90)scale(0.12 -0.12)">
      <defs>
       <path id="ArialMT-41" d="M -9 0 
L 1750 4581 
L 2403 4581 
L 4278 0 
L 3588 0 
L 3053 1388 
L 1138 1388 
L 634 0 
L -9 0 
z
M 1313 1881 
L 2866 1881 
L 2388 3150 
Q 2169 3728 2063 4100 
Q 1975 3659 1816 3225 
L 1313 1881 
z
" transform="scale(0.015625)"/>
       <path id="ArialMT-28" d="M 1497 -1347 
Q 1031 -759 709 28 
Q 388 816 388 1659 
Q 388 2403 628 3084 
Q 909 3875 1497 4659 
L 1900 4659 
Q 1522 4009 1400 3731 
Q 1209 3300 1100 2831 
Q 966 2247 966 1656 
Q 966 153 1900 -1347 
L 1497 -1347 
z
" transform="scale(0.015625)"/>
       <path id="ArialMT-68" d="M 422 0 
L 422 4581 
L 984 4581 
L 984 2938 
Q 1378 3394 1978 3394 
Q 2347 3394 2619 3248 
Q 2891 3103 3008 2847 
Q 3125 2591 3125 2103 
L 3125 0 
L 2563 0 
L 2563 2103 
Q 2563 2525 2380 2717 
Q 2197 2909 1863 2909 
Q 1613 2909 1392 2779 
Q 1172 2650 1078 2428 
Q 984 2206 984 1816 
L 984 0 
L 422 0 
z
" transform="scale(0.015625)"/>
       <path id="ArialMT-73" d="M 197 991 
L 753 1078 
Q 800 744 1014 566 
Q 1228 388 1613 388 
Q 2000 388 2187 545 
Q 2375 703 2375 916 
Q 2375 1106 2209 1216 
Q 2094 1291 1634 1406 
Q 1016 1563 777 1677 
Q 538 1791 414 1992 
Q 291 2194 291 2438 
Q 291 2659 392 2848 
Q 494 3038 669 3163 
Q 800 3259 1026 3326 
Q 1253 3394 1513 3394 
Q 1903 3394 2198 3281 
Q 2494 3169 2634 2976 
Q 2775 2784 2828 2463 
L 2278 2388 
Q 2241 2644 2061 2787 
Q 1881 2931 1553 2931 
Q 1166 2931 1000 2803 
Q 834 2675 834 2503 
Q 834 2394 903 2306 
Q 972 2216 1119 2156 
Q 1203 2125 1616 2013 
Q 2213 1853 2448 1751 
Q 2684 1650 2818 1456 
Q 2953 1263 2953 975 
Q 2953 694 2789 445 
Q 2625 197 2315 61 
Q 2006 -75 1616 -75 
Q 969 -75 630 194 
Q 291 463 197 991 
z
" transform="scale(0.015625)"/>
       <path id="ArialMT-29" d="M 791 -1347 
L 388 -1347 
Q 1322 153 1322 1656 
Q 1322 2244 1188 2822 
Q 1081 3291 891 3722 
Q 769 4003 388 4659 
L 791 4659 
Q 1378 3875 1659 3084 
Q 1900 2403 1900 1659 
Q 1900 816 1576 28 
Q 1253 -759 791 -1347 
z
" transform="scale(0.015625)"/>
      </defs>
      <use xlink:href="#ArialMT-41"/>
      <use xlink:href="#ArialMT-6e" x="66.699219"/>
      <use xlink:href="#ArialMT-6e" x="122.314453"/>
      <use xlink:href="#ArialMT-75" x="177.929688"/>
      <use xlink:href="#ArialMT-61" x="233.544922"/>
      <use xlink:href="#ArialMT-6c" x="289.160156"/>
      <use xlink:href="#ArialMT-20" x="311.376953"/>
      <use xlink:href="#ArialMT-69" x="339.160156"/>
      <use xlink:href="#ArialMT-6e" x="361.376953"/>
      <use xlink:href="#ArialMT-63" x="416.992188"/>
      <use xlink:href="#ArialMT-6f" x="466.992188"/>
      <use xlink:href="#ArialMT-6d" x="522.607422"/>
      <use xlink:href="#ArialMT-65" x="605.908203"/>
      <use xlink:href="#ArialMT-20" x="661.523438"/>
      <use xlink:href="#ArialMT-28" x="689.306641"/>
      <use xlink:href="#ArialMT-74" x="722.607422"/>
      <use xlink:href="#ArialMT-68" x="750.390625"/>
      <use xlink:href="#ArialMT-6f" x="806.005859"/>
      <use xlink:href="#ArialMT-75" x="861.621094"/>
      <use xlink:href="#ArialMT-73" x="917.236328"/>
      <use xlink:href="#ArialMT-61" x="967.236328"/>
      <use xlink:href="#ArialMT-6e" x="1022.851562"/>
      <use xlink:href="#ArialMT-64" x="1078.466797"/>
      <use xlink:href="#ArialMT-73" x="1134.082031"/>
      <use xlink:href="#ArialMT-29" x="1184.082031"/>
     </g>
    </g>
   </g>
   <g id="PolyCollection_1">
    <defs>
     <path id="m9d22b75f5d" d="M 210.981061 -62.64 
L 172.418939 -62.64 
L 170.893832 -64.80917 
L 169.364662 -66.97834 
L 167.842394 -69.14751 
L 166.337207 -71.31668 
L 164.858121 -73.48585 
L 163.412669 -75.65502 
L 162.006613 -77.82419 
L 160.643733 -79.99336 
L 159.325686 -82.16253 
L 158.051965 -84.3317 
L 156.819939 -86.50087 
L 155.625001 -88.67004 
L 154.460799 -90.839209 
L 153.319556 -93.008379 
L 152.192463 -95.177549 
L 151.070123 -97.346719 
L 149.943044 -99.515889 
L 148.802138 -101.685059 
L 147.639219 -103.854229 
L 146.447476 -106.023399 
L 145.221893 -108.192569 
L 143.959601 -110.361739 
L 142.660147 -112.530909 
L 141.325669 -114.700079 
L 139.960969 -116.869249 
L 138.573472 -119.038419 
L 137.173099 -121.207589 
L 135.772034 -123.376759 
L 134.384411 -125.545929 
L 133.02594 -127.715099 
L 131.713477 -129.884269 
L 130.464568 -132.053439 
L 129.29698 -134.222609 
L 128.228238 -136.391779 
L 127.275183 -138.560949 
L 126.453572 -140.730119 
L 125.777711 -142.899289 
L 125.260159 -145.068458 
L 124.911468 -147.237628 
L 124.74 -149.406798 
L 124.751786 -151.575968 
L 124.950451 -153.745138 
L 125.33718 -155.914308 
L 125.910738 -158.083478 
L 126.667531 -160.252648 
L 127.601705 -162.421818 
L 128.705289 -164.590988 
L 129.968368 -166.760158 
L 131.379296 -168.929328 
L 132.924933 -171.098498 
L 134.590918 -173.267668 
L 136.361964 -175.436838 
L 138.222169 -177.606008 
L 140.155339 -179.775178 
L 142.145313 -181.944348 
L 144.176271 -184.113518 
L 146.233032 -186.282688 
L 148.301303 -188.451858 
L 150.367894 -190.621028 
L 152.420875 -192.790198 
L 154.449677 -194.959368 
L 156.445121 -197.128538 
L 158.399399 -199.297708 
L 160.305985 -201.466877 
L 162.159511 -203.636047 
L 163.955596 -205.805217 
L 165.69066 -207.974387 
L 167.361731 -210.143557 
L 168.966261 -212.312727 
L 170.50196 -214.481897 
L 171.966673 -216.651067 
L 173.358296 -218.820237 
L 174.67474 -220.989407 
L 175.913945 -223.158577 
L 177.073945 -225.327747 
L 178.152963 -227.496917 
L 179.149547 -229.666087 
L 180.062709 -231.835257 
L 180.892089 -234.004427 
L 181.638088 -236.173597 
L 182.302 -238.342767 
L 182.886098 -240.511937 
L 183.393692 -242.681107 
L 183.829133 -244.850277 
L 184.197773 -247.019447 
L 184.50588 -249.188617 
L 184.760504 -251.357787 
L 184.969314 -253.526957 
L 185.140392 -255.696126 
L 185.282023 -257.865296 
L 185.402458 -260.034466 
L 185.509689 -262.203636 
L 185.611229 -264.372806 
L 185.713913 -266.541976 
L 185.823726 -268.711146 
L 185.945668 -270.880316 
L 186.083654 -273.049486 
L 186.240465 -275.218656 
L 186.41773 -277.387826 
L 196.98227 -277.387826 
L 196.98227 -277.387826 
L 197.159535 -275.218656 
L 197.316346 -273.049486 
L 197.454332 -270.880316 
L 197.576274 -268.711146 
L 197.686087 -266.541976 
L 197.788771 -264.372806 
L 197.890311 -262.203636 
L 197.997542 -260.034466 
L 198.117977 -257.865296 
L 198.259608 -255.696126 
L 198.430686 -253.526957 
L 198.639496 -251.357787 
L 198.89412 -249.188617 
L 199.202227 -247.019447 
L 199.570867 -244.850277 
L 200.006308 -242.681107 
L 200.513902 -240.511937 
L 201.098 -238.342767 
L 201.761912 -236.173597 
L 202.507911 -234.004427 
L 203.337291 -231.835257 
L 204.250453 -229.666087 
L 205.247037 -227.496917 
L 206.326055 -225.327747 
L 207.486055 -223.158577 
L 208.72526 -220.989407 
L 210.041704 -218.820237 
L 211.433327 -216.651067 
L 212.89804 -214.481897 
L 214.433739 -212.312727 
L 216.038269 -210.143557 
L 217.70934 -207.974387 
L 219.444404 -205.805217 
L 221.240489 -203.636047 
L 223.094015 -201.466877 
L 225.000601 -199.297708 
L 226.954879 -197.128538 
L 228.950323 -194.959368 
L 230.979125 -192.790198 
L 233.032106 -190.621028 
L 235.098697 -188.451858 
L 237.166968 -186.282688 
L 239.223729 -184.113518 
L 241.254687 -181.944348 
L 243.244661 -179.775178 
L 245.177831 -177.606008 
L 247.038036 -175.436838 
L 248.809082 -173.267668 
L 250.475067 -171.098498 
L 252.020704 -168.929328 
L 253.431632 -166.760158 
L 254.694711 -164.590988 
L 255.798295 -162.421818 
L 256.732469 -160.252648 
L 257.489262 -158.083478 
L 258.06282 -155.914308 
L 258.449549 -153.745138 
L 258.648214 -151.575968 
L 258.66 -149.406798 
L 258.488532 -147.237628 
L 258.139841 -145.068458 
L 257.622289 -142.899289 
L 256.946428 -140.730119 
L 256.124817 -138.560949 
L 255.171762 -136.391779 
L 254.10302 -134.222609 
L 252.935432 -132.053439 
L 251.686523 -129.884269 
L 250.37406 -127.715099 
L 249.015589 -125.545929 
L 247.627966 -123.376759 
L 246.226901 -121.207589 
L 244.826528 -119.038419 
L 243.439031 -116.869249 
L 242.074331 -114.700079 
L 240.739853 -112.530909 
L 239.440399 -110.361739 
L 238.178107 -108.192569 
L 236.952524 -106.023399 
L 235.760781 -103.854229 
L 234.597862 -101.685059 
L 233.456956 -99.515889 
L 232.329877 -97.346719 
L 231.207537 -95.177549 
L 230.080444 -93.008379 
L 228.939201 -90.839209 
L 227.774999 -88.67004 
L 226.580061 -86.50087 
L 225.348035 -84.3317 
L 224.074314 -82.16253 
L 222.756267 -79.99336 
L 221.393387 -77.82419 
L 219.987331 -75.65502 
L 218.541879 -73.48585 
L 217.062793 -71.31668 
L 215.557606 -69.14751 
L 214.035338 -66.97834 
L 212.506168 -64.80917 
L 210.981061 -62.64 
z
" style="stroke: #4c4c4c; stroke-width: 1.5"/>
    </defs>
    <g clip-path="url(#p32c2ace6e4)">
     <use xlink:href="#m9d22b75f5d" x="0" y="432" style="fill: #5875a4; stroke: #4c4c4c; stroke-width: 1.5"/>
    </g>
   </g>
   <g id="PolyCollection_2">
    <defs>
     <path id="m63bf96c773" d="M 361.106245 -75.787826 
L 357.093755 -75.787826 
L 357.07605 -76.71747 
L 357.060787 -77.647115 
L 357.047792 -78.576759 
L 357.036864 -79.506403 
L 357.027771 -80.436047 
L 357.020253 -81.365692 
L 357.01403 -82.295336 
L 357.008798 -83.22498 
L 357.004239 -84.154625 
L 357.00002 -85.084269 
L 356.995801 -86.013913 
L 356.991236 -86.943557 
L 356.985982 -87.873202 
L 356.979697 -88.802846 
L 356.972051 -89.73249 
L 356.962728 -90.662134 
L 356.951429 -91.591779 
L 356.93788 -92.521423 
L 356.92183 -93.451067 
L 356.903063 -94.380711 
L 356.881392 -95.310356 
L 356.856671 -96.24 
L 356.828789 -97.169644 
L 356.797681 -98.099289 
L 356.763319 -99.028933 
L 356.725724 -99.958577 
L 356.684957 -100.888221 
L 356.641125 -101.817866 
L 356.594377 -102.74751 
L 356.544903 -103.677154 
L 356.492935 -104.606798 
L 356.43874 -105.536443 
L 356.38262 -106.466087 
L 356.32491 -107.395731 
L 356.265971 -108.325375 
L 356.206186 -109.25502 
L 356.145959 -110.184664 
L 356.085708 -111.114308 
L 356.025859 -112.043953 
L 355.966843 -112.973597 
L 355.90909 -113.903241 
L 355.853024 -114.832885 
L 355.79906 -115.76253 
L 355.747595 -116.692174 
L 355.699007 -117.621818 
L 355.653649 -118.551462 
L 355.611845 -119.481107 
L 355.573889 -120.410751 
L 355.540035 -121.340395 
L 355.510502 -122.27004 
L 355.485467 -123.199684 
L 355.465066 -124.129328 
L 355.449389 -125.058972 
L 355.438484 -125.988617 
L 355.432355 -126.918261 
L 355.430959 -127.847905 
L 355.434214 -128.777549 
L 355.441997 -129.707194 
L 355.454144 -130.636838 
L 355.470457 -131.566482 
L 355.490705 -132.496126 
L 355.514628 -133.425771 
L 355.54194 -134.355415 
L 355.572336 -135.285059 
L 355.605492 -136.214704 
L 355.641075 -137.144348 
L 355.678743 -138.073992 
L 355.718153 -139.003636 
L 355.758964 -139.933281 
L 355.800842 -140.862925 
L 355.843467 -141.792569 
L 355.886532 -142.722213 
L 355.929751 -143.651858 
L 355.972861 -144.581502 
L 356.015628 -145.511146 
L 356.057843 -146.440791 
L 356.099331 -147.370435 
L 356.13995 -148.300079 
L 356.17959 -149.229723 
L 356.218179 -150.159368 
L 356.255675 -151.089012 
L 356.292072 -152.018656 
L 356.327398 -152.9483 
L 356.36171 -153.877945 
L 356.395095 -154.807589 
L 356.427665 -155.737233 
L 356.459557 -156.666877 
L 356.490927 -157.596522 
L 356.521947 -158.526166 
L 356.552804 -159.45581 
L 356.583691 -160.385455 
L 356.614809 -161.315099 
L 356.646359 -162.244743 
L 356.678538 -163.174387 
L 356.711537 -164.104032 
L 356.745539 -165.033676 
L 356.780712 -165.96332 
L 356.817207 -166.892964 
L 356.855159 -167.822609 
L 361.344841 -167.822609 
L 361.344841 -167.822609 
L 361.382793 -166.892964 
L 361.419288 -165.96332 
L 361.454461 -165.033676 
L 361.488463 -164.104032 
L 361.521462 -163.174387 
L 361.553641 -162.244743 
L 361.585191 -161.315099 
L 361.616309 -160.385455 
L 361.647196 -159.45581 
L 361.678053 -158.526166 
L 361.709073 -157.596522 
L 361.740443 -156.666877 
L 361.772335 -155.737233 
L 361.804905 -154.807589 
L 361.83829 -153.877945 
L 361.872602 -152.9483 
L 361.907928 -152.018656 
L 361.944325 -151.089012 
L 361.981821 -150.159368 
L 362.02041 -149.229723 
L 362.06005 -148.300079 
L 362.100669 -147.370435 
L 362.142157 -146.440791 
L 362.184372 -145.511146 
L 362.227139 -144.581502 
L 362.270249 -143.651858 
L 362.313468 -142.722213 
L 362.356533 -141.792569 
L 362.399158 -140.862925 
L 362.441036 -139.933281 
L 362.481847 -139.003636 
L 362.521257 -138.073992 
L 362.558925 -137.144348 
L 362.594508 -136.214704 
L 362.627664 -135.285059 
L 362.65806 -134.355415 
L 362.685372 -133.425771 
L 362.709295 -132.496126 
L 362.729543 -131.566482 
L 362.745856 -130.636838 
L 362.758003 -129.707194 
L 362.765786 -128.777549 
L 362.769041 -127.847905 
L 362.767645 -126.918261 
L 362.761516 -125.988617 
L 362.750611 -125.058972 
L 362.734934 -124.129328 
L 362.714533 -123.199684 
L 362.689498 -122.27004 
L 362.659965 -121.340395 
L 362.626111 -120.410751 
L 362.588155 -119.481107 
L 362.546351 -118.551462 
L 362.500993 -117.621818 
L 362.452405 -116.692174 
L 362.40094 -115.76253 
L 362.346976 -114.832885 
L 362.29091 -113.903241 
L 362.233157 -112.973597 
L 362.174141 -112.043953 
L 362.114292 -111.114308 
L 362.054041 -110.184664 
L 361.993814 -109.25502 
L 361.934029 -108.325375 
L 361.87509 -107.395731 
L 361.81738 -106.466087 
L 361.76126 -105.536443 
L 361.707065 -104.606798 
L 361.655097 -103.677154 
L 361.605623 -102.74751 
L 361.558875 -101.817866 
L 361.515043 -100.888221 
L 361.474276 -99.958577 
L 361.436681 -99.028933 
L 361.402319 -98.099289 
L 361.371211 -97.169644 
L 361.343329 -96.24 
L 361.318608 -95.310356 
L 361.296937 -94.380711 
L 361.27817 -93.451067 
L 361.26212 -92.521423 
L 361.248571 -91.591779 
L 361.237272 -90.662134 
L 361.227949 -89.73249 
L 361.220303 -88.802846 
L 361.214018 -87.873202 
L 361.208764 -86.943557 
L 361.204199 -86.013913 
L 361.19998 -85.084269 
L 361.195761 -84.154625 
L 361.191202 -83.22498 
L 361.18597 -82.295336 
L 361.179747 -81.365692 
L 361.172229 -80.436047 
L 361.163136 -79.506403 
L 361.152208 -78.576759 
L 361.139213 -77.647115 
L 361.12395 -76.71747 
L 361.106245 -75.787826 
z
" style="stroke: #4c4c4c; stroke-width: 1.5"/>
    </defs>
    <g clip-path="url(#p32c2ace6e4)">
     <use xlink:href="#m63bf96c773" x="0" y="432" style="fill: #cc8963; stroke: #4c4c4c; stroke-width: 1.5"/>
    </g>
   </g>
   <g id="PolyCollection_3">
    <defs>
     <path id="mbe3d14af61" d="M 540.333145 -115.231304 
L 512.666855 -115.231304 
L 512.065963 -116.453123 
L 511.482526 -117.674941 
L 510.918569 -118.896759 
L 510.375655 -120.118577 
L 509.854852 -121.340395 
L 509.356716 -122.562213 
L 508.881291 -123.784032 
L 508.428123 -125.00585 
L 507.996293 -126.227668 
L 507.584462 -127.449486 
L 507.190937 -128.671304 
L 506.813745 -129.893123 
L 506.450722 -131.114941 
L 506.099611 -132.336759 
L 505.758162 -133.558577 
L 505.424241 -134.780395 
L 505.095932 -136.002213 
L 504.771637 -137.224032 
L 504.450166 -138.44585 
L 504.130822 -139.667668 
L 503.813458 -140.889486 
L 503.498528 -142.111304 
L 503.187111 -143.333123 
L 502.880916 -144.554941 
L 502.582264 -145.776759 
L 502.294046 -146.998577 
L 502.019659 -148.220395 
L 501.762922 -149.442213 
L 501.527977 -150.664032 
L 501.319166 -151.88585 
L 501.140907 -153.107668 
L 500.997557 -154.329486 
L 500.893271 -155.551304 
L 500.831871 -156.773123 
L 500.816712 -157.994941 
L 500.850566 -159.216759 
L 500.93552 -160.438577 
L 501.072893 -161.660395 
L 501.263174 -162.882213 
L 501.50599 -164.104032 
L 501.800091 -165.32585 
L 502.143367 -166.547668 
L 502.532888 -167.769486 
L 502.964971 -168.991304 
L 503.435262 -170.213123 
L 503.938841 -171.434941 
L 504.470339 -172.656759 
L 505.024066 -173.878577 
L 505.594144 -175.100395 
L 506.17464 -176.322213 
L 506.759697 -177.544032 
L 507.343658 -178.76585 
L 507.921176 -179.987668 
L 508.487312 -181.209486 
L 509.037619 -182.431304 
L 509.568202 -183.653123 
L 510.075765 -184.874941 
L 510.557635 -186.096759 
L 511.011773 -187.318577 
L 511.436762 -188.540395 
L 511.831784 -189.762213 
L 512.196589 -190.984032 
L 512.531441 -192.20585 
L 512.83707 -193.427668 
L 513.114613 -194.649486 
L 513.365553 -195.871304 
L 513.591658 -197.093123 
L 513.794927 -198.314941 
L 513.977529 -199.536759 
L 514.141759 -200.758577 
L 514.289992 -201.980395 
L 514.424643 -203.202213 
L 514.548134 -204.424032 
L 514.662873 -205.64585 
L 514.771223 -206.867668 
L 514.87549 -208.089486 
L 514.977905 -209.311304 
L 515.080611 -210.533123 
L 515.185653 -211.754941 
L 515.294966 -212.976759 
L 515.410365 -214.198577 
L 515.533532 -215.420395 
L 515.666006 -216.642213 
L 515.809169 -217.864032 
L 515.964233 -219.08585 
L 516.132228 -220.307668 
L 516.31399 -221.529486 
L 516.510145 -222.751304 
L 516.721103 -223.973123 
L 516.947049 -225.194941 
L 517.187937 -226.416759 
L 517.443489 -227.638577 
L 517.713196 -228.860395 
L 517.996325 -230.082213 
L 518.291931 -231.304032 
L 518.598866 -232.52585 
L 518.915805 -233.747668 
L 519.241261 -234.969486 
L 519.573618 -236.191304 
L 533.426382 -236.191304 
L 533.426382 -236.191304 
L 533.758739 -234.969486 
L 534.084195 -233.747668 
L 534.401134 -232.52585 
L 534.708069 -231.304032 
L 535.003675 -230.082213 
L 535.286804 -228.860395 
L 535.556511 -227.638577 
L 535.812063 -226.416759 
L 536.052951 -225.194941 
L 536.278897 -223.973123 
L 536.489855 -222.751304 
L 536.68601 -221.529486 
L 536.867772 -220.307668 
L 537.035767 -219.08585 
L 537.190831 -217.864032 
L 537.333994 -216.642213 
L 537.466468 -215.420395 
L 537.589635 -214.198577 
L 537.705034 -212.976759 
L 537.814347 -211.754941 
L 537.919389 -210.533123 
L 538.022095 -209.311304 
L 538.12451 -208.089486 
L 538.228777 -206.867668 
L 538.337127 -205.64585 
L 538.451866 -204.424032 
L 538.575357 -203.202213 
L 538.710008 -201.980395 
L 538.858241 -200.758577 
L 539.022471 -199.536759 
L 539.205073 -198.314941 
L 539.408342 -197.093123 
L 539.634447 -195.871304 
L 539.885387 -194.649486 
L 540.16293 -193.427668 
L 540.468559 -192.20585 
L 540.803411 -190.984032 
L 541.168216 -189.762213 
L 541.563238 -188.540395 
L 541.988227 -187.318577 
L 542.442365 -186.096759 
L 542.924235 -184.874941 
L 543.431798 -183.653123 
L 543.962381 -182.431304 
L 544.512688 -181.209486 
L 545.078824 -179.987668 
L 545.656342 -178.76585 
L 546.240303 -177.544032 
L 546.82536 -176.322213 
L 547.405856 -175.100395 
L 547.975934 -173.878577 
L 548.529661 -172.656759 
L 549.061159 -171.434941 
L 549.564738 -170.213123 
L 550.035029 -168.991304 
L 550.467112 -167.769486 
L 550.856633 -166.547668 
L 551.199909 -165.32585 
L 551.49401 -164.104032 
L 551.736826 -162.882213 
L 551.927107 -161.660395 
L 552.06448 -160.438577 
L 552.149434 -159.216759 
L 552.183288 -157.994941 
L 552.168129 -156.773123 
L 552.106729 -155.551304 
L 552.002443 -154.329486 
L 551.859093 -153.107668 
L 551.680834 -151.88585 
L 551.472023 -150.664032 
L 551.237078 -149.442213 
L 550.980341 -148.220395 
L 550.705954 -146.998577 
L 550.417736 -145.776759 
L 550.119084 -144.554941 
L 549.812889 -143.333123 
L 549.501472 -142.111304 
L 549.186542 -140.889486 
L 548.869178 -139.667668 
L 548.549834 -138.44585 
L 548.228363 -137.224032 
L 547.904068 -136.002213 
L 547.575759 -134.780395 
L 547.241838 -133.558577 
L 546.900389 -132.336759 
L 546.549278 -131.114941 
L 546.186255 -129.893123 
L 545.809063 -128.671304 
L 545.415538 -127.449486 
L 545.003707 -126.227668 
L 544.571877 -125.00585 
L 544.118709 -123.784032 
L 543.643284 -122.562213 
L 543.145148 -121.340395 
L 542.624345 -120.118577 
L 542.081431 -118.896759 
L 541.517474 -117.674941 
L 540.934037 -116.453123 
L 540.333145 -115.231304 
z
" style="stroke: #4c4c4c; stroke-width: 1.5"/>
    </defs>
    <g clip-path="url(#p32c2ace6e4)">
     <use xlink:href="#mbe3d14af61" x="0" y="432" style="fill: #5f9e6e; stroke: #4c4c4c; stroke-width: 1.5"/>
    </g>
   </g>
   <g id="line2d_9">
    <path d="M 140.478359 314.13913 
L 242.921641 314.13913 
" clip-path="url(#p32c2ace6e4)" style="fill: none; stroke-dasharray: 3.375,3.375; stroke-dashoffset: 0; stroke: #4c4c4c; stroke-width: 1.5"/>
   </g>
   <g id="line2d_10">
    <path d="M 125.924557 286.090435 
L 257.475443 286.090435 
" clip-path="url(#p32c2ace6e4)" style="fill: none; stroke-dasharray: 6.75,6.75; stroke-dashoffset: 0; stroke: #4c4c4c; stroke-width: 1.5"/>
   </g>
   <g id="line2d_11">
    <path d="M 135.162009 259.794783 
L 248.237991 259.794783 
" clip-path="url(#p32c2ace6e4)" style="fill: none; stroke-dasharray: 3.375,3.375; stroke-dashoffset: 0; stroke: #4c4c4c; stroke-width: 1.5"/>
   </g>
   <g id="line2d_12">
    <path d="M 356.294311 324 
L 361.905689 324 
" clip-path="url(#p32c2ace6e4)" style="fill: none; stroke-dasharray: 3.375,3.375; stroke-dashoffset: 0; stroke: #4c4c4c; stroke-width: 1.5"/>
   </g>
   <g id="line2d_13">
    <path d="M 355.4751 306.250435 
L 362.7249 306.250435 
" clip-path="url(#p32c2ace6e4)" style="fill: none; stroke-dasharray: 6.75,6.75; stroke-dashoffset: 0; stroke: #4c4c4c; stroke-width: 1.5"/>
   </g>
   <g id="line2d_14">
    <path d="M 355.876032 290.473043 
L 362.323968 290.473043 
" clip-path="url(#p32c2ace6e4)" style="fill: none; stroke-dasharray: 3.375,3.375; stroke-dashoffset: 0; stroke: #4c4c4c; stroke-width: 1.5"/>
   </g>
   <g id="line2d_15">
    <path d="M 505.309973 295.951304 
L 547.690027 295.951304 
" clip-path="url(#p32c2ace6e4)" style="fill: none; stroke-dasharray: 3.375,3.375; stroke-dashoffset: 0; stroke: #4c4c4c; stroke-width: 1.5"/>
   </g>
   <g id="line2d_16">
    <path d="M 501.515543 268.56 
L 551.484457 268.56 
" clip-path="url(#p32c2ace6e4)" style="fill: none; stroke-dasharray: 6.75,6.75; stroke-dashoffset: 0; stroke: #4c4c4c; stroke-width: 1.5"/>
   </g>
   <g id="line2d_17">
    <path d="M 512.339623 241.168696 
L 540.660377 241.168696 
" clip-path="url(#p32c2ace6e4)" style="fill: none; stroke-dasharray: 3.375,3.375; stroke-dashoffset: 0; stroke: #4c4c4c; stroke-width: 1.5"/>
   </g>
   <g id="line2d_18">
    <path d="M 692.98274 66.96 
L 694.81726 66.96 
" clip-path="url(#p32c2ace6e4)" style="fill: none; stroke: #4c4c4c; stroke-width: 1.5; stroke-linecap: round"/>
   </g>
   <g id="patch_3">
    <path d="M 108 384.48 
L 108 51.84 
" style="fill: none; stroke: #ffffff; stroke-width: 1.25; stroke-linejoin: miter; stroke-linecap: square"/>
   </g>
   <g id="patch_4">
    <path d="M 777.6 384.48 
L 777.6 51.84 
" style="fill: none; stroke: #ffffff; stroke-width: 1.25; stroke-linejoin: miter; stroke-linecap: square"/>
   </g>
   <g id="patch_5">
    <path d="M 108 384.48 
L 777.6 384.48 
" style="fill: none; stroke: #ffffff; stroke-width: 1.25; stroke-linejoin: miter; stroke-linecap: square"/>
   </g>
   <g id="patch_6">
    <path d="M 108 51.84 
L 777.6 51.84 
" style="fill: none; stroke: #ffffff; stroke-width: 1.25; stroke-linejoin: miter; stroke-linecap: square"/>
   </g>
   <g id="text_15">
    <!-- Compensation by Employer Type (2022) -->
    <g style="fill: #262626" transform="translate(335.52375 45.84)scale(0.12 -0.12)">
     <defs>
      <path id="ArialMT-43" d="M 3763 1606 
L 4369 1453 
Q 4178 706 3683 314 
Q 3188 -78 2472 -78 
Q 1731 -78 1267 223 
Q 803 525 561 1097 
Q 319 1669 319 2325 
Q 319 3041 592 3573 
Q 866 4106 1370 4382 
Q 1875 4659 2481 4659 
Q 3169 4659 3637 4309 
Q 4106 3959 4291 3325 
L 3694 3184 
Q 3534 3684 3231 3912 
Q 2928 4141 2469 4141 
Q 1941 4141 1586 3887 
Q 1231 3634 1087 3207 
Q 944 2781 944 2328 
Q 944 1744 1114 1308 
Q 1284 872 1643 656 
Q 2003 441 2422 441 
Q 2931 441 3284 734 
Q 3638 1028 3763 1606 
z
" transform="scale(0.015625)"/>
     </defs>
     <use xlink:href="#ArialMT-43"/>
     <use xlink:href="#ArialMT-6f" x="72.216797"/>
     <use xlink:href="#ArialMT-6d" x="127.832031"/>
     <use xlink:href="#ArialMT-70" x="211.132812"/>
     <use xlink:href="#ArialMT-65" x="266.748047"/>
     <use xlink:href="#ArialMT-6e" x="322.363281"/>
     <use xlink:href="#ArialMT-73" x="377.978516"/>
     <use xlink:href="#ArialMT-61" x="427.978516"/>
     <use xlink:href="#ArialMT-74" x="483.59375"/>
     <use xlink:href="#ArialMT-69" x="511.376953"/>
     <use xlink:href="#ArialMT-6f" x="533.59375"/>
     <use xlink:href="#ArialMT-6e" x="589.208984"/>
     <use xlink:href="#ArialMT-20" x="644.824219"/>
     <use xlink:href="#ArialMT-62" x="672.607422"/>
     <use xlink:href="#ArialMT-79" x="728.222656"/>
     <use xlink:href="#ArialMT-20" x="778.222656"/>
     <use xlink:href="#ArialMT-45" x="806.005859"/>
     <use xlink:href="#ArialMT-6d" x="872.705078"/>
     <use xlink:href="#ArialMT-70" x="956.005859"/>
     <use xlink:href="#ArialMT-6c" x="1011.621094"/>
     <use xlink:href="#ArialMT-6f" x="1033.837891"/>
     <use xlink:href="#ArialMT-79" x="1089.453125"/>
     <use xlink:href="#ArialMT-65" x="1139.453125"/>
     <use xlink:href="#ArialMT-72" x="1195.068359"/>
     <use xlink:href="#ArialMT-20" x="1228.369141"/>
     <use xlink:href="#ArialMT-54" x="1254.402344"/>
     <use xlink:href="#ArialMT-79" x="1309.986328"/>
     <use xlink:href="#ArialMT-70" x="1359.986328"/>
     <use xlink:href="#ArialMT-65" x="1415.601562"/>
     <use xlink:href="#ArialMT-20" x="1471.216797"/>
     <use xlink:href="#ArialMT-28" x="1499"/>
     <use xlink:href="#ArialMT-32" x="1532.300781"/>
     <use xlink:href="#ArialMT-30" x="1587.916016"/>
     <use xlink:href="#ArialMT-32" x="1643.53125"/>
     <use xlink:href="#ArialMT-32" x="1699.146484"/>
     <use xlink:href="#ArialMT-29" x="1754.761719"/>
    </g>
   </g>
  </g>
 </g>
 <defs>
  <clipPath id="p32c2ace6e4">
   <rect x="108" y="51.84" width="669.6" height="332.64"/>
  </clipPath>
 </defs>
</svg>
