<?xml version="1.0" encoding="utf-8" standalone="no"?>
<!DOCTYPE svg PUBLIC "-//W3C//DTD SVG 1.1//EN"
  "http://www.w3.org/Graphics/SVG/1.1/DTD/svg11.dtd">
<svg xmlns:xlink="http://www.w3.org/1999/xlink" width="864pt" height="432pt" viewBox="0 0 864 432" xmlns="http://www.w3.org/2000/svg" version="1.1">
 <metadata>
  <rdf:RDF xmlns:dc="http://purl.org/dc/elements/1.1/" xmlns:cc="http://creativecommons.org/ns#" xmlns:rdf="http://www.w3.org/1999/02/22-rdf-syntax-ns#">
   <cc:Work>
    <dc:type rdf:resource="http://purl.org/dc/dcmitype/StillImage"/>
    <dc:date>2023-03-07T17:55:20.198843</dc:date>
    <dc:format>image/svg+xml</dc:format>
    <dc:creator>
     <cc:Agent>
      <dc:title>Matplotlib v3.5.2, https://matplotlib.org/</dc:title>
     </cc:Agent>
    </dc:creator>
   </cc:Work>
  </rdf:RDF>
 </metadata>
 <defs>
  <style type="text/css">*{stroke-linejoin: round; stroke-linecap: butt}</style>
 </defs>
 <g id="figure_1">
  <g id="patch_1">
   <path d="M 0 432 
L 864 432 
L 864 0 
L 0 0 
z
" style="fill: #ffffff"/>
  </g>
  <g id="axes_1">
   <g id="patch_2">
    <path d="M 108 384.48 
L 777.6 384.48 
L 777.6 51.84 
L 108 51.84 
z
" style="fill: #eaeaf2"/>
   </g>
   <g id="matplotlib.axis_1">
    <g id="xtick_1">
     <g id="text_1">
      <!-- Associate's Degree -->
      <g style="fill: #262626" transform="translate(127.750234 401.853594)scale(0.11 -0.11)">
       <defs>
        <path id="ArialMT-41" d="M -9 0 
L 1750 4581 
L 2403 4581 
L 4278 0 
L 3588 0 
L 3053 1388 
L 1138 1388 
L 634 0 
L -9 0 
z
M 1313 1881 
L 2866 1881 
L 2388 3150 
Q 2169 3728 2063 4100 
Q 1975 3659 1816 3225 
L 1313 1881 
z
" transform="scale(0.015625)"/>
        <path id="ArialMT-73" d="M 197 991 
L 753 1078 
Q 800 744 1014 566 
Q 1228 388 1613 388 
Q 2000 388 2187 545 
Q 2375 703 2375 916 
Q 2375 1106 2209 1216 
Q 2094 1291 1634 1406 
Q 1016 1563 777 1677 
Q 538 1791 414 1992 
Q 291 2194 291 2438 
Q 291 2659 392 2848 
Q 494 3038 669 3163 
Q 800 3259 1026 3326 
Q 1253 3394 1513 3394 
Q 1903 3394 2198 3281 
Q 2494 3169 2634 2976 
Q 2775 2784 2828 2463 
L 2278 2388 
Q 2241 2644 2061 2787 
Q 1881 2931 1553 2931 
Q 1166 2931 1000 2803 
Q 834 2675 834 2503 
Q 834 2394 903 2306 
Q 972 2216 1119 2156 
Q 1203 2125 1616 2013 
Q 2213 1853 2448 1751 
Q 2684 1650 2818 1456 
Q 2953 1263 2953 975 
Q 2953 694 2789 445 
Q 2625 197 2315 61 
Q 2006 -75 1616 -75 
Q 969 -75 630 194 
Q 291 463 197 991 
z
" transform="scale(0.015625)"/>
        <path id="ArialMT-6f" d="M 213 1659 
Q 213 2581 725 3025 
Q 1153 3394 1769 3394 
Q 2453 3394 2887 2945 
Q 3322 2497 3322 1706 
Q 3322 1066 3130 698 
Q 2938 331 2570 128 
Q 2203 -75 1769 -75 
Q 1072 -75 642 372 
Q 213 819 213 1659 
z
M 791 1659 
Q 791 1022 1069 705 
Q 1347 388 1769 388 
Q 2188 388 2466 706 
Q 2744 1025 2744 1678 
Q 2744 2294 2464 2611 
Q 2184 2928 1769 2928 
Q 1347 2928 1069 2612 
Q 791 2297 791 1659 
z
" transform="scale(0.015625)"/>
        <path id="ArialMT-63" d="M 2588 1216 
L 3141 1144 
Q 3050 572 2676 248 
Q 2303 -75 1759 -75 
Q 1078 -75 664 370 
Q 250 816 250 1647 
Q 250 2184 428 2587 
Q 606 2991 970 3192 
Q 1334 3394 1763 3394 
Q 2303 3394 2647 3120 
Q 2991 2847 3088 2344 
L 2541 2259 
Q 2463 2594 2264 2762 
Q 2066 2931 1784 2931 
Q 1359 2931 1093 2626 
Q 828 2322 828 1663 
Q 828 994 1084 691 
Q 1341 388 1753 388 
Q 2084 388 2306 591 
Q 2528 794 2588 1216 
z
" transform="scale(0.015625)"/>
        <path id="ArialMT-69" d="M 425 3934 
L 425 4581 
L 988 4581 
L 988 3934 
L 425 3934 
z
M 425 0 
L 425 3319 
L 988 3319 
L 988 0 
L 425 0 
z
" transform="scale(0.015625)"/>
        <path id="ArialMT-61" d="M 2588 409 
Q 2275 144 1986 34 
Q 1697 -75 1366 -75 
Q 819 -75 525 192 
Q 231 459 231 875 
Q 231 1119 342 1320 
Q 453 1522 633 1644 
Q 813 1766 1038 1828 
Q 1203 1872 1538 1913 
Q 2219 1994 2541 2106 
Q 2544 2222 2544 2253 
Q 2544 2597 2384 2738 
Q 2169 2928 1744 2928 
Q 1347 2928 1158 2789 
Q 969 2650 878 2297 
L 328 2372 
Q 403 2725 575 2942 
Q 747 3159 1072 3276 
Q 1397 3394 1825 3394 
Q 2250 3394 2515 3294 
Q 2781 3194 2906 3042 
Q 3031 2891 3081 2659 
Q 3109 2516 3109 2141 
L 3109 1391 
Q 3109 606 3145 398 
Q 3181 191 3288 0 
L 2700 0 
Q 2613 175 2588 409 
z
M 2541 1666 
Q 2234 1541 1622 1453 
Q 1275 1403 1131 1340 
Q 988 1278 909 1158 
Q 831 1038 831 891 
Q 831 666 1001 516 
Q 1172 366 1500 366 
Q 1825 366 2078 508 
Q 2331 650 2450 897 
Q 2541 1088 2541 1459 
L 2541 1666 
z
" transform="scale(0.015625)"/>
        <path id="ArialMT-74" d="M 1650 503 
L 1731 6 
Q 1494 -44 1306 -44 
Q 1000 -44 831 53 
Q 663 150 594 308 
Q 525 466 525 972 
L 525 2881 
L 113 2881 
L 113 3319 
L 525 3319 
L 525 4141 
L 1084 4478 
L 1084 3319 
L 1650 3319 
L 1650 2881 
L 1084 2881 
L 1084 941 
Q 1084 700 1114 631 
Q 1144 563 1211 522 
Q 1278 481 1403 481 
Q 1497 481 1650 503 
z
" transform="scale(0.015625)"/>
        <path id="ArialMT-65" d="M 2694 1069 
L 3275 997 
Q 3138 488 2766 206 
Q 2394 -75 1816 -75 
Q 1088 -75 661 373 
Q 234 822 234 1631 
Q 234 2469 665 2931 
Q 1097 3394 1784 3394 
Q 2450 3394 2872 2941 
Q 3294 2488 3294 1666 
Q 3294 1616 3291 1516 
L 816 1516 
Q 847 969 1125 678 
Q 1403 388 1819 388 
Q 2128 388 2347 550 
Q 2566 713 2694 1069 
z
M 847 1978 
L 2700 1978 
Q 2663 2397 2488 2606 
Q 2219 2931 1791 2931 
Q 1403 2931 1139 2672 
Q 875 2413 847 1978 
z
" transform="scale(0.015625)"/>
        <path id="ArialMT-27" d="M 425 2959 
L 281 3816 
L 281 4581 
L 922 4581 
L 922 3816 
L 772 2959 
L 425 2959 
z
" transform="scale(0.015625)"/>
        <path id="ArialMT-20" transform="scale(0.015625)"/>
        <path id="ArialMT-44" d="M 494 0 
L 494 4581 
L 2072 4581 
Q 2606 4581 2888 4516 
Q 3281 4425 3559 4188 
Q 3922 3881 4101 3404 
Q 4281 2928 4281 2316 
Q 4281 1794 4159 1391 
Q 4038 988 3847 723 
Q 3656 459 3429 307 
Q 3203 156 2883 78 
Q 2563 0 2147 0 
L 494 0 
z
M 1100 541 
L 2078 541 
Q 2531 541 2789 625 
Q 3047 709 3200 863 
Q 3416 1078 3536 1442 
Q 3656 1806 3656 2325 
Q 3656 3044 3420 3430 
Q 3184 3816 2847 3947 
Q 2603 4041 2063 4041 
L 1100 4041 
L 1100 541 
z
" transform="scale(0.015625)"/>
        <path id="ArialMT-67" d="M 319 -275 
L 866 -356 
Q 900 -609 1056 -725 
Q 1266 -881 1628 -881 
Q 2019 -881 2231 -725 
Q 2444 -569 2519 -288 
Q 2563 -116 2559 434 
Q 2191 0 1641 0 
Q 956 0 581 494 
Q 206 988 206 1678 
Q 206 2153 378 2554 
Q 550 2956 876 3175 
Q 1203 3394 1644 3394 
Q 2231 3394 2613 2919 
L 2613 3319 
L 3131 3319 
L 3131 450 
Q 3131 -325 2973 -648 
Q 2816 -972 2473 -1159 
Q 2131 -1347 1631 -1347 
Q 1038 -1347 672 -1080 
Q 306 -813 319 -275 
z
M 784 1719 
Q 784 1066 1043 766 
Q 1303 466 1694 466 
Q 2081 466 2343 764 
Q 2606 1063 2606 1700 
Q 2606 2309 2336 2618 
Q 2066 2928 1684 2928 
Q 1309 2928 1046 2623 
Q 784 2319 784 1719 
z
" transform="scale(0.015625)"/>
        <path id="ArialMT-72" d="M 416 0 
L 416 3319 
L 922 3319 
L 922 2816 
Q 1116 3169 1280 3281 
Q 1444 3394 1641 3394 
Q 1925 3394 2219 3213 
L 2025 2691 
Q 1819 2813 1613 2813 
Q 1428 2813 1281 2702 
Q 1134 2591 1072 2394 
Q 978 2094 978 1738 
L 978 0 
L 416 0 
z
" transform="scale(0.015625)"/>
       </defs>
       <use xlink:href="#ArialMT-41"/>
       <use xlink:href="#ArialMT-73" x="66.699219"/>
       <use xlink:href="#ArialMT-73" x="116.699219"/>
       <use xlink:href="#ArialMT-6f" x="166.699219"/>
       <use xlink:href="#ArialMT-63" x="222.314453"/>
       <use xlink:href="#ArialMT-69" x="272.314453"/>
       <use xlink:href="#ArialMT-61" x="294.53125"/>
       <use xlink:href="#ArialMT-74" x="350.146484"/>
       <use xlink:href="#ArialMT-65" x="377.929688"/>
       <use xlink:href="#ArialMT-27" x="433.544922"/>
       <use xlink:href="#ArialMT-73" x="452.636719"/>
       <use xlink:href="#ArialMT-20" x="502.636719"/>
       <use xlink:href="#ArialMT-44" x="530.419922"/>
       <use xlink:href="#ArialMT-65" x="602.636719"/>
       <use xlink:href="#ArialMT-67" x="658.251953"/>
       <use xlink:href="#ArialMT-72" x="713.867188"/>
       <use xlink:href="#ArialMT-65" x="747.167969"/>
       <use xlink:href="#ArialMT-65" x="802.783203"/>
      </g>
     </g>
    </g>
    <g id="xtick_2">
     <g id="text_2">
      <!-- Bachelor's Degree -->
      <g style="fill: #262626" transform="translate(263.808359 401.853594)scale(0.11 -0.11)">
       <defs>
        <path id="ArialMT-42" d="M 469 0 
L 469 4581 
L 2188 4581 
Q 2713 4581 3030 4442 
Q 3347 4303 3526 4014 
Q 3706 3725 3706 3409 
Q 3706 3116 3547 2856 
Q 3388 2597 3066 2438 
Q 3481 2316 3704 2022 
Q 3928 1728 3928 1328 
Q 3928 1006 3792 729 
Q 3656 453 3456 303 
Q 3256 153 2954 76 
Q 2653 0 2216 0 
L 469 0 
z
M 1075 2656 
L 2066 2656 
Q 2469 2656 2644 2709 
Q 2875 2778 2992 2937 
Q 3109 3097 3109 3338 
Q 3109 3566 3000 3739 
Q 2891 3913 2687 3977 
Q 2484 4041 1991 4041 
L 1075 4041 
L 1075 2656 
z
M 1075 541 
L 2216 541 
Q 2509 541 2628 563 
Q 2838 600 2978 687 
Q 3119 775 3209 942 
Q 3300 1109 3300 1328 
Q 3300 1584 3169 1773 
Q 3038 1963 2805 2039 
Q 2572 2116 2134 2116 
L 1075 2116 
L 1075 541 
z
" transform="scale(0.015625)"/>
        <path id="ArialMT-68" d="M 422 0 
L 422 4581 
L 984 4581 
L 984 2938 
Q 1378 3394 1978 3394 
Q 2347 3394 2619 3248 
Q 2891 3103 3008 2847 
Q 3125 2591 3125 2103 
L 3125 0 
L 2563 0 
L 2563 2103 
Q 2563 2525 2380 2717 
Q 2197 2909 1863 2909 
Q 1613 2909 1392 2779 
Q 1172 2650 1078 2428 
Q 984 2206 984 1816 
L 984 0 
L 422 0 
z
" transform="scale(0.015625)"/>
        <path id="ArialMT-6c" d="M 409 0 
L 409 4581 
L 972 4581 
L 972 0 
L 409 0 
z
" transform="scale(0.015625)"/>
       </defs>
       <use xlink:href="#ArialMT-42"/>
       <use xlink:href="#ArialMT-61" x="66.699219"/>
       <use xlink:href="#ArialMT-63" x="122.314453"/>
       <use xlink:href="#ArialMT-68" x="172.314453"/>
       <use xlink:href="#ArialMT-65" x="227.929688"/>
       <use xlink:href="#ArialMT-6c" x="283.544922"/>
       <use xlink:href="#ArialMT-6f" x="305.761719"/>
       <use xlink:href="#ArialMT-72" x="361.376953"/>
       <use xlink:href="#ArialMT-27" x="394.677734"/>
       <use xlink:href="#ArialMT-73" x="413.769531"/>
       <use xlink:href="#ArialMT-20" x="463.769531"/>
       <use xlink:href="#ArialMT-44" x="491.552734"/>
       <use xlink:href="#ArialMT-65" x="563.769531"/>
       <use xlink:href="#ArialMT-67" x="619.384766"/>
       <use xlink:href="#ArialMT-72" x="675"/>
       <use xlink:href="#ArialMT-65" x="708.300781"/>
       <use xlink:href="#ArialMT-65" x="763.916016"/>
      </g>
     </g>
    </g>
    <g id="xtick_3">
     <g id="text_3">
      <!-- High School -->
      <g style="fill: #262626" transform="translate(413.144688 401.987656)scale(0.11 -0.11)">
       <defs>
        <path id="ArialMT-48" d="M 513 0 
L 513 4581 
L 1119 4581 
L 1119 2700 
L 3500 2700 
L 3500 4581 
L 4106 4581 
L 4106 0 
L 3500 0 
L 3500 2159 
L 1119 2159 
L 1119 0 
L 513 0 
z
" transform="scale(0.015625)"/>
        <path id="ArialMT-53" d="M 288 1472 
L 859 1522 
Q 900 1178 1048 958 
Q 1197 738 1509 602 
Q 1822 466 2213 466 
Q 2559 466 2825 569 
Q 3091 672 3220 851 
Q 3350 1031 3350 1244 
Q 3350 1459 3225 1620 
Q 3100 1781 2813 1891 
Q 2628 1963 1997 2114 
Q 1366 2266 1113 2400 
Q 784 2572 623 2826 
Q 463 3081 463 3397 
Q 463 3744 659 4045 
Q 856 4347 1234 4503 
Q 1613 4659 2075 4659 
Q 2584 4659 2973 4495 
Q 3363 4331 3572 4012 
Q 3781 3694 3797 3291 
L 3216 3247 
Q 3169 3681 2898 3903 
Q 2628 4125 2100 4125 
Q 1550 4125 1298 3923 
Q 1047 3722 1047 3438 
Q 1047 3191 1225 3031 
Q 1400 2872 2139 2705 
Q 2878 2538 3153 2413 
Q 3553 2228 3743 1945 
Q 3934 1663 3934 1294 
Q 3934 928 3725 604 
Q 3516 281 3123 101 
Q 2731 -78 2241 -78 
Q 1619 -78 1198 103 
Q 778 284 539 648 
Q 300 1013 288 1472 
z
" transform="scale(0.015625)"/>
       </defs>
       <use xlink:href="#ArialMT-48"/>
       <use xlink:href="#ArialMT-69" x="72.216797"/>
       <use xlink:href="#ArialMT-67" x="94.433594"/>
       <use xlink:href="#ArialMT-68" x="150.048828"/>
       <use xlink:href="#ArialMT-20" x="205.664062"/>
       <use xlink:href="#ArialMT-53" x="233.447266"/>
       <use xlink:href="#ArialMT-63" x="300.146484"/>
       <use xlink:href="#ArialMT-68" x="350.146484"/>
       <use xlink:href="#ArialMT-6f" x="405.761719"/>
       <use xlink:href="#ArialMT-6f" x="461.376953"/>
       <use xlink:href="#ArialMT-6c" x="516.992188"/>
      </g>
     </g>
    </g>
    <g id="xtick_4">
     <g id="text_4">
      <!-- Master's or Professional Degree -->
      <g style="fill: #262626" transform="translate(498.336406 401.987656)scale(0.11 -0.11)">
       <defs>
        <path id="ArialMT-4d" d="M 475 0 
L 475 4581 
L 1388 4581 
L 2472 1338 
Q 2622 884 2691 659 
Q 2769 909 2934 1394 
L 4031 4581 
L 4847 4581 
L 4847 0 
L 4263 0 
L 4263 3834 
L 2931 0 
L 2384 0 
L 1059 3900 
L 1059 0 
L 475 0 
z
" transform="scale(0.015625)"/>
        <path id="ArialMT-50" d="M 494 0 
L 494 4581 
L 2222 4581 
Q 2678 4581 2919 4538 
Q 3256 4481 3484 4323 
Q 3713 4166 3852 3881 
Q 3991 3597 3991 3256 
Q 3991 2672 3619 2267 
Q 3247 1863 2275 1863 
L 1100 1863 
L 1100 0 
L 494 0 
z
M 1100 2403 
L 2284 2403 
Q 2872 2403 3119 2622 
Q 3366 2841 3366 3238 
Q 3366 3525 3220 3729 
Q 3075 3934 2838 4000 
Q 2684 4041 2272 4041 
L 1100 4041 
L 1100 2403 
z
" transform="scale(0.015625)"/>
        <path id="ArialMT-66" d="M 556 0 
L 556 2881 
L 59 2881 
L 59 3319 
L 556 3319 
L 556 3672 
Q 556 4006 616 4169 
Q 697 4388 901 4523 
Q 1106 4659 1475 4659 
Q 1713 4659 2000 4603 
L 1916 4113 
Q 1741 4144 1584 4144 
Q 1328 4144 1222 4034 
Q 1116 3925 1116 3625 
L 1116 3319 
L 1763 3319 
L 1763 2881 
L 1116 2881 
L 1116 0 
L 556 0 
z
" transform="scale(0.015625)"/>
        <path id="ArialMT-6e" d="M 422 0 
L 422 3319 
L 928 3319 
L 928 2847 
Q 1294 3394 1984 3394 
Q 2284 3394 2536 3286 
Q 2788 3178 2913 3003 
Q 3038 2828 3088 2588 
Q 3119 2431 3119 2041 
L 3119 0 
L 2556 0 
L 2556 2019 
Q 2556 2363 2490 2533 
Q 2425 2703 2258 2804 
Q 2091 2906 1866 2906 
Q 1506 2906 1245 2678 
Q 984 2450 984 1813 
L 984 0 
L 422 0 
z
" transform="scale(0.015625)"/>
       </defs>
       <use xlink:href="#ArialMT-4d"/>
       <use xlink:href="#ArialMT-61" x="83.300781"/>
       <use xlink:href="#ArialMT-73" x="138.916016"/>
       <use xlink:href="#ArialMT-74" x="188.916016"/>
       <use xlink:href="#ArialMT-65" x="216.699219"/>
       <use xlink:href="#ArialMT-72" x="272.314453"/>
       <use xlink:href="#ArialMT-27" x="305.615234"/>
       <use xlink:href="#ArialMT-73" x="324.707031"/>
       <use xlink:href="#ArialMT-20" x="374.707031"/>
       <use xlink:href="#ArialMT-6f" x="402.490234"/>
       <use xlink:href="#ArialMT-72" x="458.105469"/>
       <use xlink:href="#ArialMT-20" x="491.40625"/>
       <use xlink:href="#ArialMT-50" x="519.189453"/>
       <use xlink:href="#ArialMT-72" x="585.888672"/>
       <use xlink:href="#ArialMT-6f" x="619.189453"/>
       <use xlink:href="#ArialMT-66" x="674.804688"/>
       <use xlink:href="#ArialMT-65" x="702.587891"/>
       <use xlink:href="#ArialMT-73" x="758.203125"/>
       <use xlink:href="#ArialMT-73" x="808.203125"/>
       <use xlink:href="#ArialMT-69" x="858.203125"/>
       <use xlink:href="#ArialMT-6f" x="880.419922"/>
       <use xlink:href="#ArialMT-6e" x="936.035156"/>
       <use xlink:href="#ArialMT-61" x="991.650391"/>
       <use xlink:href="#ArialMT-6c" x="1047.265625"/>
       <use xlink:href="#ArialMT-20" x="1069.482422"/>
       <use xlink:href="#ArialMT-44" x="1097.265625"/>
       <use xlink:href="#ArialMT-65" x="1169.482422"/>
       <use xlink:href="#ArialMT-67" x="1225.097656"/>
       <use xlink:href="#ArialMT-72" x="1280.712891"/>
       <use xlink:href="#ArialMT-65" x="1314.013672"/>
       <use xlink:href="#ArialMT-65" x="1369.628906"/>
      </g>
     </g>
    </g>
    <g id="xtick_5">
     <g id="text_5">
      <!-- PhD -->
      <g style="fill: #262626" transform="translate(699.940781 401.853594)scale(0.11 -0.11)">
       <use xlink:href="#ArialMT-50"/>
       <use xlink:href="#ArialMT-68" x="66.699219"/>
       <use xlink:href="#ArialMT-44" x="122.314453"/>
      </g>
     </g>
    </g>
    <g id="text_6">
     <!-- Education -->
     <g style="fill: #262626" transform="translate(416.115 416.892187)scale(0.12 -0.12)">
      <defs>
       <path id="ArialMT-45" d="M 506 0 
L 506 4581 
L 3819 4581 
L 3819 4041 
L 1113 4041 
L 1113 2638 
L 3647 2638 
L 3647 2100 
L 1113 2100 
L 1113 541 
L 3925 541 
L 3925 0 
L 506 0 
z
" transform="scale(0.015625)"/>
       <path id="ArialMT-64" d="M 2575 0 
L 2575 419 
Q 2259 -75 1647 -75 
Q 1250 -75 917 144 
Q 584 363 401 755 
Q 219 1147 219 1656 
Q 219 2153 384 2558 
Q 550 2963 881 3178 
Q 1213 3394 1622 3394 
Q 1922 3394 2156 3267 
Q 2391 3141 2538 2938 
L 2538 4581 
L 3097 4581 
L 3097 0 
L 2575 0 
z
M 797 1656 
Q 797 1019 1065 703 
Q 1334 388 1700 388 
Q 2069 388 2326 689 
Q 2584 991 2584 1609 
Q 2584 2291 2321 2609 
Q 2059 2928 1675 2928 
Q 1300 2928 1048 2622 
Q 797 2316 797 1656 
z
" transform="scale(0.015625)"/>
       <path id="ArialMT-75" d="M 2597 0 
L 2597 488 
Q 2209 -75 1544 -75 
Q 1250 -75 995 37 
Q 741 150 617 320 
Q 494 491 444 738 
Q 409 903 409 1263 
L 409 3319 
L 972 3319 
L 972 1478 
Q 972 1038 1006 884 
Q 1059 663 1231 536 
Q 1403 409 1656 409 
Q 1909 409 2131 539 
Q 2353 669 2445 892 
Q 2538 1116 2538 1541 
L 2538 3319 
L 3100 3319 
L 3100 0 
L 2597 0 
z
" transform="scale(0.015625)"/>
      </defs>
      <use xlink:href="#ArialMT-45"/>
      <use xlink:href="#ArialMT-64" x="66.699219"/>
      <use xlink:href="#ArialMT-75" x="122.314453"/>
      <use xlink:href="#ArialMT-63" x="177.929688"/>
      <use xlink:href="#ArialMT-61" x="227.929688"/>
      <use xlink:href="#ArialMT-74" x="283.544922"/>
      <use xlink:href="#ArialMT-69" x="311.328125"/>
      <use xlink:href="#ArialMT-6f" x="333.544922"/>
      <use xlink:href="#ArialMT-6e" x="389.160156"/>
     </g>
    </g>
   </g>
   <g id="matplotlib.axis_2">
    <g id="ytick_1">
     <g id="line2d_1">
      <path d="M 108 373.742609 
L 777.6 373.742609 
" clip-path="url(#p0098ee85ff)" style="fill: none; stroke: #ffffff; stroke-linecap: round"/>
     </g>
     <g id="text_7">
      <!-- 50 -->
      <g style="fill: #262626" transform="translate(86.265938 377.679406)scale(0.11 -0.11)">
       <defs>
        <path id="ArialMT-35" d="M 266 1200 
L 856 1250 
Q 922 819 1161 601 
Q 1400 384 1738 384 
Q 2144 384 2425 690 
Q 2706 997 2706 1503 
Q 2706 1984 2436 2262 
Q 2166 2541 1728 2541 
Q 1456 2541 1237 2417 
Q 1019 2294 894 2097 
L 366 2166 
L 809 4519 
L 3088 4519 
L 3088 3981 
L 1259 3981 
L 1013 2750 
Q 1425 3038 1878 3038 
Q 2478 3038 2890 2622 
Q 3303 2206 3303 1553 
Q 3303 931 2941 478 
Q 2500 -78 1738 -78 
Q 1113 -78 717 272 
Q 322 622 266 1200 
z
" transform="scale(0.015625)"/>
        <path id="ArialMT-30" d="M 266 2259 
Q 266 3072 433 3567 
Q 600 4063 929 4331 
Q 1259 4600 1759 4600 
Q 2128 4600 2406 4451 
Q 2684 4303 2865 4023 
Q 3047 3744 3150 3342 
Q 3253 2941 3253 2259 
Q 3253 1453 3087 958 
Q 2922 463 2592 192 
Q 2263 -78 1759 -78 
Q 1097 -78 719 397 
Q 266 969 266 2259 
z
M 844 2259 
Q 844 1131 1108 757 
Q 1372 384 1759 384 
Q 2147 384 2411 759 
Q 2675 1134 2675 2259 
Q 2675 3391 2411 3762 
Q 2147 4134 1753 4134 
Q 1366 4134 1134 3806 
Q 844 3388 844 2259 
z
" transform="scale(0.015625)"/>
       </defs>
       <use xlink:href="#ArialMT-35"/>
       <use xlink:href="#ArialMT-30" x="55.615234"/>
      </g>
     </g>
    </g>
    <g id="ytick_2">
     <g id="line2d_2">
      <path d="M 108 329.916522 
L 777.6 329.916522 
" clip-path="url(#p0098ee85ff)" style="fill: none; stroke: #ffffff; stroke-linecap: round"/>
     </g>
     <g id="text_8">
      <!-- 100 -->
      <g style="fill: #262626" transform="translate(80.148906 333.853319)scale(0.11 -0.11)">
       <defs>
        <path id="ArialMT-31" d="M 2384 0 
L 1822 0 
L 1822 3584 
Q 1619 3391 1289 3197 
Q 959 3003 697 2906 
L 697 3450 
Q 1169 3672 1522 3987 
Q 1875 4303 2022 4600 
L 2384 4600 
L 2384 0 
z
" transform="scale(0.015625)"/>
       </defs>
       <use xlink:href="#ArialMT-31"/>
       <use xlink:href="#ArialMT-30" x="55.615234"/>
       <use xlink:href="#ArialMT-30" x="111.230469"/>
      </g>
     </g>
    </g>
    <g id="ytick_3">
     <g id="line2d_3">
      <path d="M 108 286.090435 
L 777.6 286.090435 
" clip-path="url(#p0098ee85ff)" style="fill: none; stroke: #ffffff; stroke-linecap: round"/>
     </g>
     <g id="text_9">
      <!-- 150 -->
      <g style="fill: #262626" transform="translate(80.148906 290.027232)scale(0.11 -0.11)">
       <use xlink:href="#ArialMT-31"/>
       <use xlink:href="#ArialMT-35" x="55.615234"/>
       <use xlink:href="#ArialMT-30" x="111.230469"/>
      </g>
     </g>
    </g>
    <g id="ytick_4">
     <g id="line2d_4">
      <path d="M 108 242.264348 
L 777.6 242.264348 
" clip-path="url(#p0098ee85ff)" style="fill: none; stroke: #ffffff; stroke-linecap: round"/>
     </g>
     <g id="text_10">
      <!-- 200 -->
      <g style="fill: #262626" transform="translate(80.148906 246.201145)scale(0.11 -0.11)">
       <defs>
        <path id="ArialMT-32" d="M 3222 541 
L 3222 0 
L 194 0 
Q 188 203 259 391 
Q 375 700 629 1000 
Q 884 1300 1366 1694 
Q 2113 2306 2375 2664 
Q 2638 3022 2638 3341 
Q 2638 3675 2398 3904 
Q 2159 4134 1775 4134 
Q 1369 4134 1125 3890 
Q 881 3647 878 3216 
L 300 3275 
Q 359 3922 746 4261 
Q 1134 4600 1788 4600 
Q 2447 4600 2831 4234 
Q 3216 3869 3216 3328 
Q 3216 3053 3103 2787 
Q 2991 2522 2730 2228 
Q 2469 1934 1863 1422 
Q 1356 997 1212 845 
Q 1069 694 975 541 
L 3222 541 
z
" transform="scale(0.015625)"/>
       </defs>
       <use xlink:href="#ArialMT-32"/>
       <use xlink:href="#ArialMT-30" x="55.615234"/>
       <use xlink:href="#ArialMT-30" x="111.230469"/>
      </g>
     </g>
    </g>
    <g id="ytick_5">
     <g id="line2d_5">
      <path d="M 108 198.438261 
L 777.6 198.438261 
" clip-path="url(#p0098ee85ff)" style="fill: none; stroke: #ffffff; stroke-linecap: round"/>
     </g>
     <g id="text_11">
      <!-- 250 -->
      <g style="fill: #262626" transform="translate(80.148906 202.375058)scale(0.11 -0.11)">
       <use xlink:href="#ArialMT-32"/>
       <use xlink:href="#ArialMT-35" x="55.615234"/>
       <use xlink:href="#ArialMT-30" x="111.230469"/>
      </g>
     </g>
    </g>
    <g id="ytick_6">
     <g id="line2d_6">
      <path d="M 108 154.612174 
L 777.6 154.612174 
" clip-path="url(#p0098ee85ff)" style="fill: none; stroke: #ffffff; stroke-linecap: round"/>
     </g>
     <g id="text_12">
      <!-- 300 -->
      <g style="fill: #262626" transform="translate(80.148906 158.548971)scale(0.11 -0.11)">
       <defs>
        <path id="ArialMT-33" d="M 269 1209 
L 831 1284 
Q 928 806 1161 595 
Q 1394 384 1728 384 
Q 2125 384 2398 659 
Q 2672 934 2672 1341 
Q 2672 1728 2419 1979 
Q 2166 2231 1775 2231 
Q 1616 2231 1378 2169 
L 1441 2663 
Q 1497 2656 1531 2656 
Q 1891 2656 2178 2843 
Q 2466 3031 2466 3422 
Q 2466 3731 2256 3934 
Q 2047 4138 1716 4138 
Q 1388 4138 1169 3931 
Q 950 3725 888 3313 
L 325 3413 
Q 428 3978 793 4289 
Q 1159 4600 1703 4600 
Q 2078 4600 2393 4439 
Q 2709 4278 2876 4000 
Q 3044 3722 3044 3409 
Q 3044 3113 2884 2869 
Q 2725 2625 2413 2481 
Q 2819 2388 3044 2092 
Q 3269 1797 3269 1353 
Q 3269 753 2831 336 
Q 2394 -81 1725 -81 
Q 1122 -81 723 278 
Q 325 638 269 1209 
z
" transform="scale(0.015625)"/>
       </defs>
       <use xlink:href="#ArialMT-33"/>
       <use xlink:href="#ArialMT-30" x="55.615234"/>
       <use xlink:href="#ArialMT-30" x="111.230469"/>
      </g>
     </g>
    </g>
    <g id="ytick_7">
     <g id="line2d_7">
      <path d="M 108 110.786087 
L 777.6 110.786087 
" clip-path="url(#p0098ee85ff)" style="fill: none; stroke: #ffffff; stroke-linecap: round"/>
     </g>
     <g id="text_13">
      <!-- 350 -->
      <g style="fill: #262626" transform="translate(80.148906 114.722884)scale(0.11 -0.11)">
       <use xlink:href="#ArialMT-33"/>
       <use xlink:href="#ArialMT-35" x="55.615234"/>
       <use xlink:href="#ArialMT-30" x="111.230469"/>
      </g>
     </g>
    </g>
    <g id="ytick_8">
     <g id="line2d_8">
      <path d="M 108 66.96 
L 777.6 66.96 
" clip-path="url(#p0098ee85ff)" style="fill: none; stroke: #ffffff; stroke-linecap: round"/>
     </g>
     <g id="text_14">
      <!-- 400 -->
      <g style="fill: #262626" transform="translate(80.148906 70.896797)scale(0.11 -0.11)">
       <defs>
        <path id="ArialMT-34" d="M 2069 0 
L 2069 1097 
L 81 1097 
L 81 1613 
L 2172 4581 
L 2631 4581 
L 2631 1613 
L 3250 1613 
L 3250 1097 
L 2631 1097 
L 2631 0 
L 2069 0 
z
M 2069 1613 
L 2069 3678 
L 634 1613 
L 2069 1613 
z
" transform="scale(0.015625)"/>
       </defs>
       <use xlink:href="#ArialMT-34"/>
       <use xlink:href="#ArialMT-30" x="55.615234"/>
       <use xlink:href="#ArialMT-30" x="111.230469"/>
      </g>
     </g>
    </g>
    <g id="text_15">
     <!-- Annual income (thousands) -->
     <g style="fill: #262626" transform="translate(73.623281 291.197812)rotate(-90)scale(0.12 -0.12)">
      <defs>
       <path id="ArialMT-6d" d="M 422 0 
L 422 3319 
L 925 3319 
L 925 2853 
Q 1081 3097 1340 3245 
Q 1600 3394 1931 3394 
Q 2300 3394 2536 3241 
Q 2772 3088 2869 2813 
Q 3263 3394 3894 3394 
Q 4388 3394 4653 3120 
Q 4919 2847 4919 2278 
L 4919 0 
L 4359 0 
L 4359 2091 
Q 4359 2428 4304 2576 
Q 4250 2725 4106 2815 
Q 3963 2906 3769 2906 
Q 3419 2906 3187 2673 
Q 2956 2441 2956 1928 
L 2956 0 
L 2394 0 
L 2394 2156 
Q 2394 2531 2256 2718 
Q 2119 2906 1806 2906 
Q 1569 2906 1367 2781 
Q 1166 2656 1075 2415 
Q 984 2175 984 1722 
L 984 0 
L 422 0 
z
" transform="scale(0.015625)"/>
       <path id="ArialMT-28" d="M 1497 -1347 
Q 1031 -759 709 28 
Q 388 816 388 1659 
Q 388 2403 628 3084 
Q 909 3875 1497 4659 
L 1900 4659 
Q 1522 4009 1400 3731 
Q 1209 3300 1100 2831 
Q 966 2247 966 1656 
Q 966 153 1900 -1347 
L 1497 -1347 
z
" transform="scale(0.015625)"/>
       <path id="ArialMT-29" d="M 791 -1347 
L 388 -1347 
Q 1322 153 1322 1656 
Q 1322 2244 1188 2822 
Q 1081 3291 891 3722 
Q 769 4003 388 4659 
L 791 4659 
Q 1378 3875 1659 3084 
Q 1900 2403 1900 1659 
Q 1900 816 1576 28 
Q 1253 -759 791 -1347 
z
" transform="scale(0.015625)"/>
      </defs>
      <use xlink:href="#ArialMT-41"/>
      <use xlink:href="#ArialMT-6e" x="66.699219"/>
      <use xlink:href="#ArialMT-6e" x="122.314453"/>
      <use xlink:href="#ArialMT-75" x="177.929688"/>
      <use xlink:href="#ArialMT-61" x="233.544922"/>
      <use xlink:href="#ArialMT-6c" x="289.160156"/>
      <use xlink:href="#ArialMT-20" x="311.376953"/>
      <use xlink:href="#ArialMT-69" x="339.160156"/>
      <use xlink:href="#ArialMT-6e" x="361.376953"/>
      <use xlink:href="#ArialMT-63" x="416.992188"/>
      <use xlink:href="#ArialMT-6f" x="466.992188"/>
      <use xlink:href="#ArialMT-6d" x="522.607422"/>
      <use xlink:href="#ArialMT-65" x="605.908203"/>
      <use xlink:href="#ArialMT-20" x="661.523438"/>
      <use xlink:href="#ArialMT-28" x="689.306641"/>
      <use xlink:href="#ArialMT-74" x="722.607422"/>
      <use xlink:href="#ArialMT-68" x="750.390625"/>
      <use xlink:href="#ArialMT-6f" x="806.005859"/>
      <use xlink:href="#ArialMT-75" x="861.621094"/>
      <use xlink:href="#ArialMT-73" x="917.236328"/>
      <use xlink:href="#ArialMT-61" x="967.236328"/>
      <use xlink:href="#ArialMT-6e" x="1022.851562"/>
      <use xlink:href="#ArialMT-64" x="1078.466797"/>
      <use xlink:href="#ArialMT-73" x="1134.082031"/>
      <use xlink:href="#ArialMT-29" x="1184.082031"/>
     </g>
    </g>
   </g>
   <g id="PolyCollection_1">
    <defs>
     <path id="m0f2cc47131" d="M 177.01521 -80.170435 
L 172.90479 -80.170435 
L 172.855463 -81.05581 
L 172.806666 -81.941186 
L 172.758367 -82.826561 
L 172.710528 -83.711937 
L 172.663114 -84.597312 
L 172.616088 -85.482688 
L 172.569419 -86.368063 
L 172.523084 -87.253439 
L 172.477065 -88.138814 
L 172.431359 -89.02419 
L 172.385975 -89.909565 
L 172.340938 -90.794941 
L 172.29629 -91.680316 
L 172.252092 -92.565692 
L 172.208424 -93.451067 
L 172.165389 -94.336443 
L 172.12311 -95.221818 
L 172.08173 -96.107194 
L 172.041414 -96.992569 
L 172.002344 -97.877945 
L 171.964725 -98.76332 
L 171.928773 -99.648696 
L 171.89472 -100.534071 
L 171.86281 -101.419447 
L 171.833295 -102.304822 
L 171.806431 -103.190198 
L 171.782476 -104.075573 
L 171.761684 -104.960949 
L 171.744306 -105.846324 
L 171.730579 -106.7317 
L 171.720727 -107.617075 
L 171.714958 -108.502451 
L 171.713455 -109.387826 
L 171.716376 -110.273202 
L 171.723851 -111.158577 
L 171.73598 -112.043953 
L 171.752826 -112.929328 
L 171.774417 -113.814704 
L 171.800742 -114.700079 
L 171.831753 -115.585455 
L 171.867362 -116.47083 
L 171.907439 -117.356206 
L 171.951816 -118.241581 
L 172.000289 -119.126957 
L 172.052613 -120.012332 
L 172.108512 -120.897708 
L 172.167675 -121.783083 
L 172.229762 -122.668458 
L 172.294409 -123.553834 
L 172.361227 -124.439209 
L 172.429808 -125.324585 
L 172.499732 -126.20996 
L 172.570566 -127.095336 
L 172.641872 -127.980711 
L 172.713211 -128.866087 
L 172.784146 -129.751462 
L 172.854248 -130.636838 
L 172.923099 -131.522213 
L 172.990296 -132.407589 
L 173.055457 -133.292964 
L 173.118222 -134.17834 
L 173.178258 -135.063715 
L 173.23526 -135.949091 
L 173.288957 -136.834466 
L 173.339112 -137.719842 
L 173.385522 -138.605217 
L 173.428024 -139.490593 
L 173.466494 -140.375968 
L 173.500847 -141.261344 
L 173.531037 -142.146719 
L 173.557058 -143.032095 
L 173.578944 -143.91747 
L 173.596767 -144.802846 
L 173.610635 -145.688221 
L 173.620692 -146.573597 
L 173.627116 -147.458972 
L 173.630114 -148.344348 
L 173.629924 -149.229723 
L 173.626808 -150.115099 
L 173.621053 -151.000474 
L 173.612962 -151.88585 
L 173.602858 -152.771225 
L 173.591074 -153.656601 
L 173.577955 -154.541976 
L 173.56385 -155.427352 
L 173.549111 -156.312727 
L 173.534087 -157.198103 
L 173.519124 -158.083478 
L 173.504559 -158.968854 
L 173.490719 -159.854229 
L 173.477915 -160.739605 
L 173.466441 -161.62498 
L 173.456571 -162.510356 
L 173.448558 -163.395731 
L 173.442628 -164.281107 
L 173.438984 -165.166482 
L 173.437798 -166.051858 
L 173.439218 -166.937233 
L 173.443357 -167.822609 
L 176.476643 -167.822609 
L 176.476643 -167.822609 
L 176.480782 -166.937233 
L 176.482202 -166.051858 
L 176.481016 -165.166482 
L 176.477372 -164.281107 
L 176.471442 -163.395731 
L 176.463429 -162.510356 
L 176.453559 -161.62498 
L 176.442085 -160.739605 
L 176.429281 -159.854229 
L 176.415441 -158.968854 
L 176.400876 -158.083478 
L 176.385913 -157.198103 
L 176.370889 -156.312727 
L 176.35615 -155.427352 
L 176.342045 -154.541976 
L 176.328926 -153.656601 
L 176.317142 -152.771225 
L 176.307038 -151.88585 
L 176.298947 -151.000474 
L 176.293192 -150.115099 
L 176.290076 -149.229723 
L 176.289886 -148.344348 
L 176.292884 -147.458972 
L 176.299308 -146.573597 
L 176.309365 -145.688221 
L 176.323233 -144.802846 
L 176.341056 -143.91747 
L 176.362942 -143.032095 
L 176.388963 -142.146719 
L 176.419153 -141.261344 
L 176.453506 -140.375968 
L 176.491976 -139.490593 
L 176.534478 -138.605217 
L 176.580888 -137.719842 
L 176.631043 -136.834466 
L 176.68474 -135.949091 
L 176.741742 -135.063715 
L 176.801778 -134.17834 
L 176.864543 -133.292964 
L 176.929704 -132.407589 
L 176.996901 -131.522213 
L 177.065752 -130.636838 
L 177.135854 -129.751462 
L 177.206789 -128.866087 
L 177.278128 -127.980711 
L 177.349434 -127.095336 
L 177.420268 -126.20996 
L 177.490192 -125.324585 
L 177.558773 -124.439209 
L 177.625591 -123.553834 
L 177.690238 -122.668458 
L 177.752325 -121.783083 
L 177.811488 -120.897708 
L 177.867387 -120.012332 
L 177.919711 -119.126957 
L 177.968184 -118.241581 
L 178.012561 -117.356206 
L 178.052638 -116.47083 
L 178.088247 -115.585455 
L 178.119258 -114.700079 
L 178.145583 -113.814704 
L 178.167174 -112.929328 
L 178.18402 -112.043953 
L 178.196149 -111.158577 
L 178.203624 -110.273202 
L 178.206545 -109.387826 
L 178.205042 -108.502451 
L 178.199273 -107.617075 
L 178.189421 -106.7317 
L 178.175694 -105.846324 
L 178.158316 -104.960949 
L 178.137524 -104.075573 
L 178.113569 -103.190198 
L 178.086705 -102.304822 
L 178.05719 -101.419447 
L 178.02528 -100.534071 
L 177.991227 -99.648696 
L 177.955275 -98.76332 
L 177.917656 -97.877945 
L 177.878586 -96.992569 
L 177.83827 -96.107194 
L 177.79689 -95.221818 
L 177.754611 -94.336443 
L 177.711576 -93.451067 
L 177.667908 -92.565692 
L 177.62371 -91.680316 
L 177.579062 -90.794941 
L 177.534025 -89.909565 
L 177.488641 -89.02419 
L 177.442935 -88.138814 
L 177.396916 -87.253439 
L 177.350581 -86.368063 
L 177.303912 -85.482688 
L 177.256886 -84.597312 
L 177.209472 -83.711937 
L 177.161633 -82.826561 
L 177.113334 -81.941186 
L 177.064537 -81.05581 
L 177.01521 -80.170435 
z
" style="stroke: #4c4c4c; stroke-width: 1.5"/>
    </defs>
    <g clip-path="url(#p0098ee85ff)">
     <use xlink:href="#m0f2cc47131" x="0" y="432" style="fill: #5875a4; stroke: #4c4c4c; stroke-width: 1.5"/>
    </g>
   </g>
   <g id="PolyCollection_2">
    <defs>
     <path id="m26330b1d02" d="M 320.922322 -62.64 
L 296.837678 -62.64 
L 295.788183 -64.80917 
L 294.705479 -66.97834 
L 293.592934 -69.14751 
L 292.453801 -71.31668 
L 291.291122 -73.48585 
L 290.10765 -75.65502 
L 288.905792 -77.82419 
L 287.687567 -79.99336 
L 286.4546 -82.16253 
L 285.208138 -84.3317 
L 283.949103 -86.50087 
L 282.678169 -88.67004 
L 281.395864 -90.839209 
L 280.102698 -93.008379 
L 278.799306 -95.177549 
L 277.486591 -97.346719 
L 276.165875 -99.515889 
L 274.839026 -101.685059 
L 273.508584 -103.854229 
L 272.177835 -106.023399 
L 270.850871 -108.192569 
L 269.5326 -110.361739 
L 268.228721 -112.530909 
L 266.94566 -114.700079 
L 265.690473 -116.869249 
L 264.470721 -119.038419 
L 263.294324 -121.207589 
L 262.16941 -123.376759 
L 261.104158 -125.545929 
L 260.106646 -127.715099 
L 259.184719 -129.884269 
L 258.345863 -132.053439 
L 257.5971 -134.222609 
L 256.944907 -136.391779 
L 256.395137 -138.560949 
L 255.952953 -140.730119 
L 255.622774 -142.899289 
L 255.40821 -145.068458 
L 255.312 -147.237628 
L 255.335947 -149.406798 
L 255.480848 -151.575968 
L 255.746422 -153.745138 
L 256.131251 -155.914308 
L 256.63273 -158.083478 
L 257.247038 -160.252648 
L 257.969144 -162.421818 
L 258.792845 -164.590988 
L 259.710847 -166.760158 
L 260.714893 -168.929328 
L 261.795926 -171.098498 
L 262.944293 -173.267668 
L 264.149983 -175.436838 
L 265.402875 -177.606008 
L 266.692994 -179.775178 
L 268.010762 -181.944348 
L 269.347223 -184.113518 
L 270.694238 -186.282688 
L 272.044627 -188.451858 
L 273.392267 -190.621028 
L 274.732131 -192.790198 
L 276.060263 -194.959368 
L 277.37371 -197.128538 
L 278.670397 -199.297708 
L 279.948969 -201.466877 
L 281.208598 -203.636047 
L 282.448787 -205.805217 
L 283.669161 -207.974387 
L 284.869274 -210.143557 
L 286.04844 -212.312727 
L 287.205596 -214.481897 
L 288.339206 -216.651067 
L 289.44721 -218.820237 
L 290.527024 -220.989407 
L 291.575586 -223.158577 
L 292.589449 -225.327747 
L 293.564908 -227.496917 
L 294.498163 -229.666087 
L 295.385501 -231.835257 
L 296.223481 -234.004427 
L 297.00913 -236.173597 
L 297.740111 -238.342767 
L 298.414881 -240.511937 
L 299.032809 -242.681107 
L 299.594256 -244.850277 
L 300.100611 -247.019447 
L 300.554282 -249.188617 
L 300.958638 -251.357787 
L 301.317911 -253.526957 
L 301.637057 -255.696126 
L 301.921589 -257.865296 
L 302.177378 -260.034466 
L 302.410457 -262.203636 
L 302.626805 -264.372806 
L 302.832151 -266.541976 
L 303.031782 -268.711146 
L 303.230389 -270.880316 
L 303.43193 -273.049486 
L 303.639539 -275.218656 
L 303.85547 -277.387826 
L 313.90453 -277.387826 
L 313.90453 -277.387826 
L 314.120461 -275.218656 
L 314.32807 -273.049486 
L 314.529611 -270.880316 
L 314.728218 -268.711146 
L 314.927849 -266.541976 
L 315.133195 -264.372806 
L 315.349543 -262.203636 
L 315.582622 -260.034466 
L 315.838411 -257.865296 
L 316.122943 -255.696126 
L 316.442089 -253.526957 
L 316.801362 -251.357787 
L 317.205718 -249.188617 
L 317.659389 -247.019447 
L 318.165744 -244.850277 
L 318.727191 -242.681107 
L 319.345119 -240.511937 
L 320.019889 -238.342767 
L 320.75087 -236.173597 
L 321.536519 -234.004427 
L 322.374499 -231.835257 
L 323.261837 -229.666087 
L 324.195092 -227.496917 
L 325.170551 -225.327747 
L 326.184414 -223.158577 
L 327.232976 -220.989407 
L 328.31279 -218.820237 
L 329.420794 -216.651067 
L 330.554404 -214.481897 
L 331.71156 -212.312727 
L 332.890726 -210.143557 
L 334.090839 -207.974387 
L 335.311213 -205.805217 
L 336.551402 -203.636047 
L 337.811031 -201.466877 
L 339.089603 -199.297708 
L 340.38629 -197.128538 
L 341.699737 -194.959368 
L 343.027869 -192.790198 
L 344.367733 -190.621028 
L 345.715373 -188.451858 
L 347.065762 -186.282688 
L 348.412777 -184.113518 
L 349.749238 -181.944348 
L 351.067006 -179.775178 
L 352.357125 -177.606008 
L 353.610017 -175.436838 
L 354.815707 -173.267668 
L 355.964074 -171.098498 
L 357.045107 -168.929328 
L 358.049153 -166.760158 
L 358.967155 -164.590988 
L 359.790856 -162.421818 
L 360.512962 -160.252648 
L 361.12727 -158.083478 
L 361.628749 -155.914308 
L 362.013578 -153.745138 
L 362.279152 -151.575968 
L 362.424053 -149.406798 
L 362.448 -147.237628 
L 362.35179 -145.068458 
L 362.137226 -142.899289 
L 361.807047 -140.730119 
L 361.364863 -138.560949 
L 360.815093 -136.391779 
L 360.1629 -134.222609 
L 359.414137 -132.053439 
L 358.575281 -129.884269 
L 357.653354 -127.715099 
L 356.655842 -125.545929 
L 355.59059 -123.376759 
L 354.465676 -121.207589 
L 353.289279 -119.038419 
L 352.069527 -116.869249 
L 350.81434 -114.700079 
L 349.531279 -112.530909 
L 348.2274 -110.361739 
L 346.909129 -108.192569 
L 345.582165 -106.023399 
L 344.251416 -103.854229 
L 342.920974 -101.685059 
L 341.594125 -99.515889 
L 340.273409 -97.346719 
L 338.960694 -95.177549 
L 337.657302 -93.008379 
L 336.364136 -90.839209 
L 335.081831 -88.67004 
L 333.810897 -86.50087 
L 332.551862 -84.3317 
L 331.3054 -82.16253 
L 330.072433 -79.99336 
L 328.854208 -77.82419 
L 327.65235 -75.65502 
L 326.468878 -73.48585 
L 325.306199 -71.31668 
L 324.167066 -69.14751 
L 323.054521 -66.97834 
L 321.971817 -64.80917 
L 320.922322 -62.64 
z
" style="stroke: #4c4c4c; stroke-width: 1.5"/>
    </defs>
    <g clip-path="url(#p0098ee85ff)">
     <use xlink:href="#m26330b1d02" x="0" y="432" style="fill: #cc8963; stroke: #4c4c4c; stroke-width: 1.5"/>
    </g>
   </g>
   <g id="PolyCollection_3">
    <defs>
     <path id="m5edfb52561" d="M 446.433837 -68.775652 
L 439.166163 -68.775652 
L 439.113525 -70.218814 
L 439.067329 -71.661976 
L 439.027671 -73.105138 
L 438.994584 -74.5483 
L 438.968041 -75.991462 
L 438.947955 -77.434625 
L 438.934174 -78.877787 
L 438.926488 -80.320949 
L 438.924628 -81.764111 
L 438.928269 -83.207273 
L 438.937031 -84.650435 
L 438.950487 -86.093597 
L 438.968167 -87.536759 
L 438.989561 -88.979921 
L 439.014126 -90.423083 
L 439.041295 -91.866245 
L 439.07048 -93.309407 
L 439.101082 -94.752569 
L 439.132496 -96.195731 
L 439.164124 -97.638893 
L 439.195374 -99.082055 
L 439.225675 -100.525217 
L 439.254481 -101.968379 
L 439.281277 -103.411542 
L 439.305588 -104.854704 
L 439.326984 -106.297866 
L 439.345083 -107.741028 
L 439.359561 -109.18419 
L 439.370151 -110.627352 
L 439.376648 -112.070514 
L 439.378913 -113.513676 
L 439.376872 -114.956838 
L 439.370515 -116.4 
L 439.359902 -117.843162 
L 439.345154 -119.286324 
L 439.326457 -120.729486 
L 439.304056 -122.172648 
L 439.278249 -123.61581 
L 439.249388 -125.058972 
L 439.217868 -126.502134 
L 439.184124 -127.945296 
L 439.148625 -129.388458 
L 439.111866 -130.831621 
L 439.074359 -132.274783 
L 439.036631 -133.717945 
L 438.999209 -135.161107 
L 438.962619 -136.604269 
L 438.927377 -138.047431 
L 438.893979 -139.490593 
L 438.862898 -140.933755 
L 438.834574 -142.376917 
L 438.809414 -143.820079 
L 438.78778 -145.263241 
L 438.76999 -146.706403 
L 438.75631 -148.149565 
L 438.746957 -149.592727 
L 438.742092 -151.035889 
L 438.741818 -152.479051 
L 438.746187 -153.922213 
L 438.755193 -155.365375 
L 438.768777 -156.808538 
L 438.786831 -158.2517 
L 438.809197 -159.694862 
L 438.835674 -161.138024 
L 438.866022 -162.581186 
L 438.899965 -164.024348 
L 438.9372 -165.46751 
L 438.9774 -166.910672 
L 439.02022 -168.353834 
L 439.065305 -169.796996 
L 439.112296 -171.240158 
L 439.160834 -172.68332 
L 439.210567 -174.126482 
L 439.261157 -175.569644 
L 439.312285 -177.012806 
L 439.363651 -178.455968 
L 439.414987 -179.89913 
L 439.466051 -181.342292 
L 439.516639 -182.785455 
L 439.566578 -184.228617 
L 439.615736 -185.671779 
L 439.664018 -187.114941 
L 439.711364 -188.558103 
L 439.757756 -190.001265 
L 439.803208 -191.444427 
L 439.84777 -192.887589 
L 439.891522 -194.330751 
L 439.934572 -195.773913 
L 439.977053 -197.217075 
L 440.019118 -198.660237 
L 440.060938 -200.103399 
L 440.102692 -201.546561 
L 440.144571 -202.989723 
L 440.186766 -204.432885 
L 440.229466 -205.876047 
L 440.272857 -207.319209 
L 440.317112 -208.762372 
L 440.362393 -210.205534 
L 440.408844 -211.648696 
L 445.191156 -211.648696 
L 445.191156 -211.648696 
L 445.237607 -210.205534 
L 445.282888 -208.762372 
L 445.327143 -207.319209 
L 445.370534 -205.876047 
L 445.413234 -204.432885 
L 445.455429 -202.989723 
L 445.497308 -201.546561 
L 445.539062 -200.103399 
L 445.580882 -198.660237 
L 445.622947 -197.217075 
L 445.665428 -195.773913 
L 445.708478 -194.330751 
L 445.75223 -192.887589 
L 445.796792 -191.444427 
L 445.842244 -190.001265 
L 445.888636 -188.558103 
L 445.935982 -187.114941 
L 445.984264 -185.671779 
L 446.033422 -184.228617 
L 446.083361 -182.785455 
L 446.133949 -181.342292 
L 446.185013 -179.89913 
L 446.236349 -178.455968 
L 446.287715 -177.012806 
L 446.338843 -175.569644 
L 446.389433 -174.126482 
L 446.439166 -172.68332 
L 446.487704 -171.240158 
L 446.534695 -169.796996 
L 446.57978 -168.353834 
L 446.6226 -166.910672 
L 446.6628 -165.46751 
L 446.700035 -164.024348 
L 446.733978 -162.581186 
L 446.764326 -161.138024 
L 446.790803 -159.694862 
L 446.813169 -158.2517 
L 446.831223 -156.808538 
L 446.844807 -155.365375 
L 446.853813 -153.922213 
L 446.858182 -152.479051 
L 446.857908 -151.035889 
L 446.853043 -149.592727 
L 446.84369 -148.149565 
L 446.83001 -146.706403 
L 446.81222 -145.263241 
L 446.790586 -143.820079 
L 446.765426 -142.376917 
L 446.737102 -140.933755 
L 446.706021 -139.490593 
L 446.672623 -138.047431 
L 446.637381 -136.604269 
L 446.600791 -135.161107 
L 446.563369 -133.717945 
L 446.525641 -132.274783 
L 446.488134 -130.831621 
L 446.451375 -129.388458 
L 446.415876 -127.945296 
L 446.382132 -126.502134 
L 446.350612 -125.058972 
L 446.321751 -123.61581 
L 446.295944 -122.172648 
L 446.273543 -120.729486 
L 446.254846 -119.286324 
L 446.240098 -117.843162 
L 446.229485 -116.4 
L 446.223128 -114.956838 
L 446.221087 -113.513676 
L 446.223352 -112.070514 
L 446.229849 -110.627352 
L 446.240439 -109.18419 
L 446.254917 -107.741028 
L 446.273016 -106.297866 
L 446.294412 -104.854704 
L 446.318723 -103.411542 
L 446.345519 -101.968379 
L 446.374325 -100.525217 
L 446.404626 -99.082055 
L 446.435876 -97.638893 
L 446.467504 -96.195731 
L 446.498918 -94.752569 
L 446.52952 -93.309407 
L 446.558705 -91.866245 
L 446.585874 -90.423083 
L 446.610439 -88.979921 
L 446.631833 -87.536759 
L 446.649513 -86.093597 
L 446.662969 -84.650435 
L 446.671731 -83.207273 
L 446.675372 -81.764111 
L 446.673512 -80.320949 
L 446.665826 -78.877787 
L 446.652045 -77.434625 
L 446.631959 -75.991462 
L 446.605416 -74.5483 
L 446.572329 -73.105138 
L 446.532671 -71.661976 
L 446.486475 -70.218814 
L 446.433837 -68.775652 
z
" style="stroke: #4c4c4c; stroke-width: 1.5"/>
    </defs>
    <g clip-path="url(#p0098ee85ff)">
     <use xlink:href="#m5edfb52561" x="0" y="432" style="fill: #5f9e6e; stroke: #4c4c4c; stroke-width: 1.5"/>
    </g>
   </g>
   <g id="PolyCollection_4">
    <defs>
     <path id="m9fd587f67a" d="M 580.910421 -75.787826 
L 572.529579 -75.787826 
L 572.190706 -78.709565 
L 571.830685 -81.631304 
L 571.445694 -84.553043 
L 571.031653 -87.474783 
L 570.58446 -90.396522 
L 570.10026 -93.318261 
L 569.575723 -96.24 
L 569.00833 -99.161739 
L 568.396636 -102.083478 
L 567.740499 -105.005217 
L 567.041267 -107.926957 
L 566.3019 -110.848696 
L 565.527044 -113.770435 
L 564.72302 -116.692174 
L 563.897766 -119.613913 
L 563.060705 -122.535652 
L 562.222557 -125.457391 
L 561.395111 -128.37913 
L 560.590938 -131.30087 
L 559.823081 -134.222609 
L 559.104716 -137.144348 
L 558.448789 -140.066087 
L 557.867647 -142.987826 
L 557.372675 -145.909565 
L 556.97393 -148.831304 
L 556.679817 -151.753043 
L 556.496786 -154.674783 
L 556.429091 -157.596522 
L 556.478607 -160.518261 
L 556.644727 -163.44 
L 556.924347 -166.361739 
L 557.311935 -169.283478 
L 557.799708 -172.205217 
L 558.377888 -175.126957 
L 559.035042 -178.048696 
L 559.758486 -180.970435 
L 560.534739 -183.892174 
L 561.349991 -186.813913 
L 562.190581 -189.735652 
L 563.043431 -192.657391 
L 563.896451 -195.57913 
L 564.738853 -198.50087 
L 565.561402 -201.422609 
L 566.356561 -204.344348 
L 567.118555 -207.266087 
L 567.843334 -210.187826 
L 568.528468 -213.109565 
L 569.172968 -216.031304 
L 569.777069 -218.953043 
L 570.341968 -221.874783 
L 570.869567 -224.796522 
L 571.362214 -227.718261 
L 571.822465 -230.64 
L 572.252882 -233.561739 
L 572.655872 -236.483478 
L 573.033569 -239.405217 
L 573.387767 -242.326957 
L 573.719885 -245.248696 
L 574.030984 -248.170435 
L 574.321803 -251.092174 
L 574.592819 -254.013913 
L 574.844321 -256.935652 
L 575.076489 -259.857391 
L 575.289465 -262.77913 
L 575.483417 -265.70087 
L 575.65859 -268.622609 
L 575.81534 -271.544348 
L 575.954147 -274.466087 
L 576.075619 -277.387826 
L 576.180475 -280.309565 
L 576.269517 -283.231304 
L 576.343602 -286.153043 
L 576.403602 -289.074783 
L 576.450368 -291.996522 
L 576.484699 -294.918261 
L 576.507317 -297.84 
L 576.518851 -300.761739 
L 576.519836 -303.683478 
L 576.510717 -306.605217 
L 576.491876 -309.526957 
L 576.463654 -312.448696 
L 576.426399 -315.370435 
L 576.380507 -318.292174 
L 576.32647 -321.213913 
L 576.264926 -324.135652 
L 576.196696 -327.057391 
L 576.12282 -329.97913 
L 576.044572 -332.90087 
L 575.963463 -335.822609 
L 575.881224 -338.744348 
L 575.799774 -341.666087 
L 575.721158 -344.587826 
L 575.647487 -347.509565 
L 575.580846 -350.431304 
L 575.52321 -353.353043 
L 575.476352 -356.274783 
L 575.441755 -359.196522 
L 575.420537 -362.118261 
L 575.413395 -365.04 
L 578.026605 -365.04 
L 578.026605 -365.04 
L 578.019463 -362.118261 
L 577.998245 -359.196522 
L 577.963648 -356.274783 
L 577.91679 -353.353043 
L 577.859154 -350.431304 
L 577.792513 -347.509565 
L 577.718842 -344.587826 
L 577.640226 -341.666087 
L 577.558776 -338.744348 
L 577.476537 -335.822609 
L 577.395428 -332.90087 
L 577.31718 -329.97913 
L 577.243304 -327.057391 
L 577.175074 -324.135652 
L 577.11353 -321.213913 
L 577.059493 -318.292174 
L 577.013601 -315.370435 
L 576.976346 -312.448696 
L 576.948124 -309.526957 
L 576.929283 -306.605217 
L 576.920164 -303.683478 
L 576.921149 -300.761739 
L 576.932683 -297.84 
L 576.955301 -294.918261 
L 576.989632 -291.996522 
L 577.036398 -289.074783 
L 577.096398 -286.153043 
L 577.170483 -283.231304 
L 577.259525 -280.309565 
L 577.364381 -277.387826 
L 577.485853 -274.466087 
L 577.62466 -271.544348 
L 577.78141 -268.622609 
L 577.956583 -265.70087 
L 578.150535 -262.77913 
L 578.363511 -259.857391 
L 578.595679 -256.935652 
L 578.847181 -254.013913 
L 579.118197 -251.092174 
L 579.409016 -248.170435 
L 579.720115 -245.248696 
L 580.052233 -242.326957 
L 580.406431 -239.405217 
L 580.784128 -236.483478 
L 581.187118 -233.561739 
L 581.617535 -230.64 
L 582.077786 -227.718261 
L 582.570433 -224.796522 
L 583.098032 -221.874783 
L 583.662931 -218.953043 
L 584.267032 -216.031304 
L 584.911532 -213.109565 
L 585.596666 -210.187826 
L 586.321445 -207.266087 
L 587.083439 -204.344348 
L 587.878598 -201.422609 
L 588.701147 -198.50087 
L 589.543549 -195.57913 
L 590.396569 -192.657391 
L 591.249419 -189.735652 
L 592.090009 -186.813913 
L 592.905261 -183.892174 
L 593.681514 -180.970435 
L 594.404958 -178.048696 
L 595.062112 -175.126957 
L 595.640292 -172.205217 
L 596.128065 -169.283478 
L 596.515653 -166.361739 
L 596.795273 -163.44 
L 596.961393 -160.518261 
L 597.010909 -157.596522 
L 596.943214 -154.674783 
L 596.760183 -151.753043 
L 596.46607 -148.831304 
L 596.067325 -145.909565 
L 595.572353 -142.987826 
L 594.991211 -140.066087 
L 594.335284 -137.144348 
L 593.616919 -134.222609 
L 592.849062 -131.30087 
L 592.044889 -128.37913 
L 591.217443 -125.457391 
L 590.379295 -122.535652 
L 589.542234 -119.613913 
L 588.71698 -116.692174 
L 587.912956 -113.770435 
L 587.1381 -110.848696 
L 586.398733 -107.926957 
L 585.699501 -105.005217 
L 585.043364 -102.083478 
L 584.43167 -99.161739 
L 583.864277 -96.24 
L 583.33974 -93.318261 
L 582.85554 -90.396522 
L 582.408347 -87.474783 
L 581.994306 -84.553043 
L 581.609315 -81.631304 
L 581.249294 -78.709565 
L 580.910421 -75.787826 
z
" style="stroke: #4c4c4c; stroke-width: 1.5"/>
    </defs>
    <g clip-path="url(#p0098ee85ff)">
     <use xlink:href="#m9fd587f67a" x="0" y="432" style="fill: #b55d60; stroke: #4c4c4c; stroke-width: 1.5"/>
    </g>
   </g>
   <g id="PolyCollection_5">
    <defs>
     <path id="me44941c6a7" d="M 712.96512 -119.613913 
L 708.31488 -119.613913 
L 708.256813 -120.145138 
L 708.199426 -120.676364 
L 708.142547 -121.207589 
L 708.085982 -121.738814 
L 708.029521 -122.27004 
L 707.972937 -122.801265 
L 707.915999 -123.33249 
L 707.85847 -123.863715 
L 707.800118 -124.394941 
L 707.740719 -124.926166 
L 707.680063 -125.457391 
L 707.617962 -125.988617 
L 707.554255 -126.519842 
L 707.48881 -127.051067 
L 707.421534 -127.582292 
L 707.352373 -128.113518 
L 707.281321 -128.644743 
L 707.208418 -129.175968 
L 707.133756 -129.707194 
L 707.057477 -130.238419 
L 706.979779 -130.769644 
L 706.90091 -131.30087 
L 706.821171 -131.832095 
L 706.740913 -132.36332 
L 706.660533 -132.894545 
L 706.58047 -133.425771 
L 706.501203 -133.956996 
L 706.423241 -134.488221 
L 706.347122 -135.019447 
L 706.273402 -135.550672 
L 706.202648 -136.081897 
L 706.135432 -136.613123 
L 706.072324 -137.144348 
L 706.013879 -137.675573 
L 705.960632 -138.206798 
L 705.913087 -138.738024 
L 705.871713 -139.269249 
L 705.836933 -139.800474 
L 705.809114 -140.3317 
L 705.788566 -140.862925 
L 705.775532 -141.39415 
L 705.770182 -141.925375 
L 705.772611 -142.456601 
L 705.782834 -142.987826 
L 705.800785 -143.519051 
L 705.826311 -144.050277 
L 705.859181 -144.581502 
L 705.899077 -145.112727 
L 705.945605 -145.643953 
L 705.998293 -146.175178 
L 706.056599 -146.706403 
L 706.119915 -147.237628 
L 706.187577 -147.768854 
L 706.25887 -148.300079 
L 706.33304 -148.831304 
L 706.409301 -149.36253 
L 706.486847 -149.893755 
L 706.564864 -150.42498 
L 706.642539 -150.956206 
L 706.719072 -151.487431 
L 706.793687 -152.018656 
L 706.865644 -152.549881 
L 706.93425 -153.081107 
L 706.998865 -153.612332 
L 707.058916 -154.143557 
L 707.113904 -154.674783 
L 707.163407 -155.206008 
L 707.207093 -155.737233 
L 707.244719 -156.268458 
L 707.276137 -156.799684 
L 707.301297 -157.330909 
L 707.320244 -157.862134 
L 707.333119 -158.39336 
L 707.340158 -158.924585 
L 707.341687 -159.45581 
L 707.338114 -159.987036 
L 707.329929 -160.518261 
L 707.317689 -161.049486 
L 707.302017 -161.580711 
L 707.283586 -162.111937 
L 707.263113 -162.643162 
L 707.241346 -163.174387 
L 707.219055 -163.705613 
L 707.197018 -164.236838 
L 707.176014 -164.768063 
L 707.156807 -165.299289 
L 707.140138 -165.830514 
L 707.126716 -166.361739 
L 707.117206 -166.892964 
L 707.112219 -167.42419 
L 707.11231 -167.955415 
L 707.117965 -168.48664 
L 707.129598 -169.017866 
L 707.147547 -169.549091 
L 707.172071 -170.080316 
L 707.203347 -170.611542 
L 707.241468 -171.142767 
L 707.286448 -171.673992 
L 707.338219 -172.205217 
L 713.941781 -172.205217 
L 713.941781 -172.205217 
L 713.993552 -171.673992 
L 714.038532 -171.142767 
L 714.076653 -170.611542 
L 714.107929 -170.080316 
L 714.132453 -169.549091 
L 714.150402 -169.017866 
L 714.162035 -168.48664 
L 714.16769 -167.955415 
L 714.167781 -167.42419 
L 714.162794 -166.892964 
L 714.153284 -166.361739 
L 714.139862 -165.830514 
L 714.123193 -165.299289 
L 714.103986 -164.768063 
L 714.082982 -164.236838 
L 714.060945 -163.705613 
L 714.038654 -163.174387 
L 714.016887 -162.643162 
L 713.996414 -162.111937 
L 713.977983 -161.580711 
L 713.962311 -161.049486 
L 713.950071 -160.518261 
L 713.941886 -159.987036 
L 713.938313 -159.45581 
L 713.939842 -158.924585 
L 713.946881 -158.39336 
L 713.959756 -157.862134 
L 713.978703 -157.330909 
L 714.003863 -156.799684 
L 714.035281 -156.268458 
L 714.072907 -155.737233 
L 714.116593 -155.206008 
L 714.166096 -154.674783 
L 714.221084 -154.143557 
L 714.281135 -153.612332 
L 714.34575 -153.081107 
L 714.414356 -152.549881 
L 714.486313 -152.018656 
L 714.560928 -151.487431 
L 714.637461 -150.956206 
L 714.715136 -150.42498 
L 714.793153 -149.893755 
L 714.870699 -149.36253 
L 714.94696 -148.831304 
L 715.02113 -148.300079 
L 715.092423 -147.768854 
L 715.160085 -147.237628 
L 715.223401 -146.706403 
L 715.281707 -146.175178 
L 715.334395 -145.643953 
L 715.380923 -145.112727 
L 715.420819 -144.581502 
L 715.453689 -144.050277 
L 715.479215 -143.519051 
L 715.497166 -142.987826 
L 715.507389 -142.456601 
L 715.509818 -141.925375 
L 715.504468 -141.39415 
L 715.491434 -140.862925 
L 715.470886 -140.3317 
L 715.443067 -139.800474 
L 715.408287 -139.269249 
L 715.366913 -138.738024 
L 715.319368 -138.206798 
L 715.266121 -137.675573 
L 715.207676 -137.144348 
L 715.144568 -136.613123 
L 715.077352 -136.081897 
L 715.006598 -135.550672 
L 714.932878 -135.019447 
L 714.856759 -134.488221 
L 714.778797 -133.956996 
L 714.69953 -133.425771 
L 714.619467 -132.894545 
L 714.539087 -132.36332 
L 714.458829 -131.832095 
L 714.37909 -131.30087 
L 714.300221 -130.769644 
L 714.222523 -130.238419 
L 714.146244 -129.707194 
L 714.071582 -129.175968 
L 713.998679 -128.644743 
L 713.927627 -128.113518 
L 713.858466 -127.582292 
L 713.79119 -127.051067 
L 713.725745 -126.519842 
L 713.662038 -125.988617 
L 713.599937 -125.457391 
L 713.539281 -124.926166 
L 713.479882 -124.394941 
L 713.42153 -123.863715 
L 713.364001 -123.33249 
L 713.307063 -122.801265 
L 713.250479 -122.27004 
L 713.194018 -121.738814 
L 713.137453 -121.207589 
L 713.080574 -120.676364 
L 713.023187 -120.145138 
L 712.96512 -119.613913 
z
" style="stroke: #4c4c4c; stroke-width: 1.5"/>
    </defs>
    <g clip-path="url(#p0098ee85ff)">
     <use xlink:href="#me44941c6a7" x="0" y="432" style="fill: #857aab; stroke: #4c4c4c; stroke-width: 1.5"/>
    </g>
   </g>
   <g id="line2d_9">
    <path d="M 171.864562 329.478261 
L 178.055438 329.478261 
" clip-path="url(#p0098ee85ff)" style="fill: none; stroke-dasharray: 3.375,3.375; stroke-dashoffset: 0; stroke: #4c4c4c; stroke-width: 1.5"/>
   </g>
   <g id="line2d_10">
    <path d="M 171.806272 318.521739 
L 178.113728 318.521739 
" clip-path="url(#p0098ee85ff)" style="fill: none; stroke-dasharray: 6.75,6.75; stroke-dashoffset: 0; stroke: #4c4c4c; stroke-width: 1.5"/>
   </g>
   <g id="line2d_11">
    <path d="M 172.805904 302.306087 
L 177.114096 302.306087 
" clip-path="url(#p0098ee85ff)" style="fill: none; stroke-dasharray: 3.375,3.375; stroke-dashoffset: 0; stroke: #4c4c4c; stroke-width: 1.5"/>
   </g>
   <g id="line2d_12">
    <path d="M 263.750181 311.290435 
L 354.009819 311.290435 
" clip-path="url(#p0098ee85ff)" style="fill: none; stroke-dasharray: 3.375,3.375; stroke-dashoffset: 0; stroke: #4c4c4c; stroke-width: 1.5"/>
   </g>
   <g id="line2d_13">
    <path d="M 255.871388 281.707826 
L 361.888612 281.707826 
" clip-path="url(#p0098ee85ff)" style="fill: none; stroke-dasharray: 6.75,6.75; stroke-dashoffset: 0; stroke: #4c4c4c; stroke-width: 1.5"/>
   </g>
   <g id="line2d_14">
    <path d="M 264.597284 256.453043 
L 353.162716 256.453043 
" clip-path="url(#p0098ee85ff)" style="fill: none; stroke-dasharray: 3.375,3.375; stroke-dashoffset: 0; stroke: #4c4c4c; stroke-width: 1.5"/>
   </g>
   <g id="line2d_15">
    <path d="M 438.97566 347.446957 
L 446.62434 347.446957 
" clip-path="url(#p0098ee85ff)" style="fill: none; stroke-dasharray: 3.375,3.375; stroke-dashoffset: 0; stroke: #4c4c4c; stroke-width: 1.5"/>
   </g>
   <g id="line2d_16">
    <path d="M 438.84932 288.72 
L 446.75068 288.72 
" clip-path="url(#p0098ee85ff)" style="fill: none; stroke-dasharray: 6.75,6.75; stroke-dashoffset: 0; stroke: #4c4c4c; stroke-width: 1.5"/>
   </g>
   <g id="line2d_17">
    <path d="M 438.849105 272.942609 
L 446.750895 272.942609 
" clip-path="url(#p0098ee85ff)" style="fill: none; stroke-dasharray: 3.375,3.375; stroke-dashoffset: 0; stroke: #4c4c4c; stroke-width: 1.5"/>
   </g>
   <g id="line2d_18">
    <path d="M 559.280869 294.855652 
L 594.159131 294.855652 
" clip-path="url(#p0098ee85ff)" style="fill: none; stroke-dasharray: 3.375,3.375; stroke-dashoffset: 0; stroke: #4c4c4c; stroke-width: 1.5"/>
   </g>
   <g id="line2d_19">
    <path d="M 556.84548 268.56 
L 596.59452 268.56 
" clip-path="url(#p0098ee85ff)" style="fill: none; stroke-dasharray: 6.75,6.75; stroke-dashoffset: 0; stroke: #4c4c4c; stroke-width: 1.5"/>
   </g>
   <g id="line2d_20">
    <path d="M 557.988911 258.918261 
L 595.451089 258.918261 
" clip-path="url(#p0098ee85ff)" style="fill: none; stroke-dasharray: 3.375,3.375; stroke-dashoffset: 0; stroke: #4c4c4c; stroke-width: 1.5"/>
   </g>
   <g id="line2d_21">
    <path d="M 706.06014 294.417391 
L 715.21986 294.417391 
" clip-path="url(#p0098ee85ff)" style="fill: none; stroke-dasharray: 3.375,3.375; stroke-dashoffset: 0; stroke: #4c4c4c; stroke-width: 1.5"/>
   </g>
   <g id="line2d_22">
    <path d="M 705.946487 286.966957 
L 715.333513 286.966957 
" clip-path="url(#p0098ee85ff)" style="fill: none; stroke-dasharray: 6.75,6.75; stroke-dashoffset: 0; stroke: #4c4c4c; stroke-width: 1.5"/>
   </g>
   <g id="line2d_23">
    <path d="M 707.335397 270.313043 
L 713.944603 270.313043 
" clip-path="url(#p0098ee85ff)" style="fill: none; stroke-dasharray: 3.375,3.375; stroke-dashoffset: 0; stroke: #4c4c4c; stroke-width: 1.5"/>
   </g>
   <g id="patch_3">
    <path d="M 108 384.48 
L 108 51.84 
" style="fill: none; stroke: #ffffff; stroke-width: 1.25; stroke-linejoin: miter; stroke-linecap: square"/>
   </g>
   <g id="patch_4">
    <path d="M 777.6 384.48 
L 777.6 51.84 
" style="fill: none; stroke: #ffffff; stroke-width: 1.25; stroke-linejoin: miter; stroke-linecap: square"/>
   </g>
   <g id="patch_5">
    <path d="M 108 384.48 
L 777.6 384.48 
" style="fill: none; stroke: #ffffff; stroke-width: 1.25; stroke-linejoin: miter; stroke-linecap: square"/>
   </g>
   <g id="patch_6">
    <path d="M 108 51.84 
L 777.6 51.84 
" style="fill: none; stroke: #ffffff; stroke-width: 1.25; stroke-linejoin: miter; stroke-linecap: square"/>
   </g>
   <g id="text_16">
    <!-- Compensation by Education (2022) -->
    <g style="fill: #262626" transform="translate(348.749063 45.84)scale(0.12 -0.12)">
     <defs>
      <path id="ArialMT-43" d="M 3763 1606 
L 4369 1453 
Q 4178 706 3683 314 
Q 3188 -78 2472 -78 
Q 1731 -78 1267 223 
Q 803 525 561 1097 
Q 319 1669 319 2325 
Q 319 3041 592 3573 
Q 866 4106 1370 4382 
Q 1875 4659 2481 4659 
Q 3169 4659 3637 4309 
Q 4106 3959 4291 3325 
L 3694 3184 
Q 3534 3684 3231 3912 
Q 2928 4141 2469 4141 
Q 1941 4141 1586 3887 
Q 1231 3634 1087 3207 
Q 944 2781 944 2328 
Q 944 1744 1114 1308 
Q 1284 872 1643 656 
Q 2003 441 2422 441 
Q 2931 441 3284 734 
Q 3638 1028 3763 1606 
z
" transform="scale(0.015625)"/>
      <path id="ArialMT-70" d="M 422 -1272 
L 422 3319 
L 934 3319 
L 934 2888 
Q 1116 3141 1344 3267 
Q 1572 3394 1897 3394 
Q 2322 3394 2647 3175 
Q 2972 2956 3137 2557 
Q 3303 2159 3303 1684 
Q 3303 1175 3120 767 
Q 2938 359 2589 142 
Q 2241 -75 1856 -75 
Q 1575 -75 1351 44 
Q 1128 163 984 344 
L 984 -1272 
L 422 -1272 
z
M 931 1641 
Q 931 1000 1190 694 
Q 1450 388 1819 388 
Q 2194 388 2461 705 
Q 2728 1022 2728 1688 
Q 2728 2322 2467 2637 
Q 2206 2953 1844 2953 
Q 1484 2953 1207 2617 
Q 931 2281 931 1641 
z
" transform="scale(0.015625)"/>
      <path id="ArialMT-62" d="M 941 0 
L 419 0 
L 419 4581 
L 981 4581 
L 981 2947 
Q 1338 3394 1891 3394 
Q 2197 3394 2470 3270 
Q 2744 3147 2920 2923 
Q 3097 2700 3197 2384 
Q 3297 2069 3297 1709 
Q 3297 856 2875 390 
Q 2453 -75 1863 -75 
Q 1275 -75 941 416 
L 941 0 
z
M 934 1684 
Q 934 1088 1097 822 
Q 1363 388 1816 388 
Q 2184 388 2453 708 
Q 2722 1028 2722 1663 
Q 2722 2313 2464 2622 
Q 2206 2931 1841 2931 
Q 1472 2931 1203 2611 
Q 934 2291 934 1684 
z
" transform="scale(0.015625)"/>
      <path id="ArialMT-79" d="M 397 -1278 
L 334 -750 
Q 519 -800 656 -800 
Q 844 -800 956 -737 
Q 1069 -675 1141 -563 
Q 1194 -478 1313 -144 
Q 1328 -97 1363 -6 
L 103 3319 
L 709 3319 
L 1400 1397 
Q 1534 1031 1641 628 
Q 1738 1016 1872 1384 
L 2581 3319 
L 3144 3319 
L 1881 -56 
Q 1678 -603 1566 -809 
Q 1416 -1088 1222 -1217 
Q 1028 -1347 759 -1347 
Q 597 -1347 397 -1278 
z
" transform="scale(0.015625)"/>
     </defs>
     <use xlink:href="#ArialMT-43"/>
     <use xlink:href="#ArialMT-6f" x="72.216797"/>
     <use xlink:href="#ArialMT-6d" x="127.832031"/>
     <use xlink:href="#ArialMT-70" x="211.132812"/>
     <use xlink:href="#ArialMT-65" x="266.748047"/>
     <use xlink:href="#ArialMT-6e" x="322.363281"/>
     <use xlink:href="#ArialMT-73" x="377.978516"/>
     <use xlink:href="#ArialMT-61" x="427.978516"/>
     <use xlink:href="#ArialMT-74" x="483.59375"/>
     <use xlink:href="#ArialMT-69" x="511.376953"/>
     <use xlink:href="#ArialMT-6f" x="533.59375"/>
     <use xlink:href="#ArialMT-6e" x="589.208984"/>
     <use xlink:href="#ArialMT-20" x="644.824219"/>
     <use xlink:href="#ArialMT-62" x="672.607422"/>
     <use xlink:href="#ArialMT-79" x="728.222656"/>
     <use xlink:href="#ArialMT-20" x="778.222656"/>
     <use xlink:href="#ArialMT-45" x="806.005859"/>
     <use xlink:href="#ArialMT-64" x="872.705078"/>
     <use xlink:href="#ArialMT-75" x="928.320312"/>
     <use xlink:href="#ArialMT-63" x="983.935547"/>
     <use xlink:href="#ArialMT-61" x="1033.935547"/>
     <use xlink:href="#ArialMT-74" x="1089.550781"/>
     <use xlink:href="#ArialMT-69" x="1117.333984"/>
     <use xlink:href="#ArialMT-6f" x="1139.550781"/>
     <use xlink:href="#ArialMT-6e" x="1195.166016"/>
     <use xlink:href="#ArialMT-20" x="1250.78125"/>
     <use xlink:href="#ArialMT-28" x="1278.564453"/>
     <use xlink:href="#ArialMT-32" x="1311.865234"/>
     <use xlink:href="#ArialMT-30" x="1367.480469"/>
     <use xlink:href="#ArialMT-32" x="1423.095703"/>
     <use xlink:href="#ArialMT-32" x="1478.710938"/>
     <use xlink:href="#ArialMT-29" x="1534.326172"/>
    </g>
   </g>
  </g>
 </g>
 <defs>
  <clipPath id="p0098ee85ff">
   <rect x="108" y="51.84" width="669.6" height="332.64"/>
  </clipPath>
 </defs>
</svg>
