<?xml version="1.0" encoding="utf-8" standalone="no"?>
<!DOCTYPE svg PUBLIC "-//W3C//DTD SVG 1.1//EN"
  "http://www.w3.org/Graphics/SVG/1.1/DTD/svg11.dtd">
<svg xmlns:xlink="http://www.w3.org/1999/xlink" width="864pt" height="432pt" viewBox="0 0 864 432" xmlns="http://www.w3.org/2000/svg" version="1.1">
 <metadata>
  <rdf:RDF xmlns:dc="http://purl.org/dc/elements/1.1/" xmlns:cc="http://creativecommons.org/ns#" xmlns:rdf="http://www.w3.org/1999/02/22-rdf-syntax-ns#">
   <cc:Work>
    <dc:type rdf:resource="http://purl.org/dc/dcmitype/StillImage"/>
    <dc:date>2023-03-07T17:55:21.238811</dc:date>
    <dc:format>image/svg+xml</dc:format>
    <dc:creator>
     <cc:Agent>
      <dc:title>Matplotlib v3.5.2, https://matplotlib.org/</dc:title>
     </cc:Agent>
    </dc:creator>
   </cc:Work>
  </rdf:RDF>
 </metadata>
 <defs>
  <style type="text/css">*{stroke-linejoin: round; stroke-linecap: butt}</style>
 </defs>
 <g id="figure_1">
  <g id="patch_1">
   <path d="M 0 432 
L 864 432 
L 864 0 
L 0 0 
z
" style="fill: #ffffff"/>
  </g>
  <g id="axes_1">
   <g id="patch_2">
    <path d="M 108 384.48 
L 777.6 384.48 
L 777.6 51.84 
L 108 51.84 
z
" style="fill: #eaeaf2"/>
   </g>
   <g id="matplotlib.axis_1">
    <g id="xtick_1">
     <g id="line2d_1">
      <path d="M 139.255657 384.48 
L 139.255657 51.84 
" clip-path="url(#p98e6843c67)" style="fill: none; stroke: #ffffff; stroke-linecap: round"/>
     </g>
     <g id="text_1">
      <!-- 20 -->
      <g style="fill: #262626" transform="translate(133.138625 401.853594)scale(0.11 -0.11)">
       <defs>
        <path id="ArialMT-32" d="M 3222 541 
L 3222 0 
L 194 0 
Q 188 203 259 391 
Q 375 700 629 1000 
Q 884 1300 1366 1694 
Q 2113 2306 2375 2664 
Q 2638 3022 2638 3341 
Q 2638 3675 2398 3904 
Q 2159 4134 1775 4134 
Q 1369 4134 1125 3890 
Q 881 3647 878 3216 
L 300 3275 
Q 359 3922 746 4261 
Q 1134 4600 1788 4600 
Q 2447 4600 2831 4234 
Q 3216 3869 3216 3328 
Q 3216 3053 3103 2787 
Q 2991 2522 2730 2228 
Q 2469 1934 1863 1422 
Q 1356 997 1212 845 
Q 1069 694 975 541 
L 3222 541 
z
" transform="scale(0.015625)"/>
        <path id="ArialMT-30" d="M 266 2259 
Q 266 3072 433 3567 
Q 600 4063 929 4331 
Q 1259 4600 1759 4600 
Q 2128 4600 2406 4451 
Q 2684 4303 2865 4023 
Q 3047 3744 3150 3342 
Q 3253 2941 3253 2259 
Q 3253 1453 3087 958 
Q 2922 463 2592 192 
Q 2263 -78 1759 -78 
Q 1097 -78 719 397 
Q 266 969 266 2259 
z
M 844 2259 
Q 844 1131 1108 757 
Q 1372 384 1759 384 
Q 2147 384 2411 759 
Q 2675 1134 2675 2259 
Q 2675 3391 2411 3762 
Q 2147 4134 1753 4134 
Q 1366 4134 1134 3806 
Q 844 3388 844 2259 
z
" transform="scale(0.015625)"/>
       </defs>
       <use xlink:href="#ArialMT-32"/>
       <use xlink:href="#ArialMT-30" x="55.615234"/>
      </g>
     </g>
    </g>
    <g id="xtick_2">
     <g id="line2d_2">
      <path d="M 260.726825 384.48 
L 260.726825 51.84 
" clip-path="url(#p98e6843c67)" style="fill: none; stroke: #ffffff; stroke-linecap: round"/>
     </g>
     <g id="text_2">
      <!-- 30 -->
      <g style="fill: #262626" transform="translate(254.609793 401.853594)scale(0.11 -0.11)">
       <defs>
        <path id="ArialMT-33" d="M 269 1209 
L 831 1284 
Q 928 806 1161 595 
Q 1394 384 1728 384 
Q 2125 384 2398 659 
Q 2672 934 2672 1341 
Q 2672 1728 2419 1979 
Q 2166 2231 1775 2231 
Q 1616 2231 1378 2169 
L 1441 2663 
Q 1497 2656 1531 2656 
Q 1891 2656 2178 2843 
Q 2466 3031 2466 3422 
Q 2466 3731 2256 3934 
Q 2047 4138 1716 4138 
Q 1388 4138 1169 3931 
Q 950 3725 888 3313 
L 325 3413 
Q 428 3978 793 4289 
Q 1159 4600 1703 4600 
Q 2078 4600 2393 4439 
Q 2709 4278 2876 4000 
Q 3044 3722 3044 3409 
Q 3044 3113 2884 2869 
Q 2725 2625 2413 2481 
Q 2819 2388 3044 2092 
Q 3269 1797 3269 1353 
Q 3269 753 2831 336 
Q 2394 -81 1725 -81 
Q 1122 -81 723 278 
Q 325 638 269 1209 
z
" transform="scale(0.015625)"/>
       </defs>
       <use xlink:href="#ArialMT-33"/>
       <use xlink:href="#ArialMT-30" x="55.615234"/>
      </g>
     </g>
    </g>
    <g id="xtick_3">
     <g id="line2d_3">
      <path d="M 382.197993 384.48 
L 382.197993 51.84 
" clip-path="url(#p98e6843c67)" style="fill: none; stroke: #ffffff; stroke-linecap: round"/>
     </g>
     <g id="text_3">
      <!-- 40 -->
      <g style="fill: #262626" transform="translate(376.080961 401.853594)scale(0.11 -0.11)">
       <defs>
        <path id="ArialMT-34" d="M 2069 0 
L 2069 1097 
L 81 1097 
L 81 1613 
L 2172 4581 
L 2631 4581 
L 2631 1613 
L 3250 1613 
L 3250 1097 
L 2631 1097 
L 2631 0 
L 2069 0 
z
M 2069 1613 
L 2069 3678 
L 634 1613 
L 2069 1613 
z
" transform="scale(0.015625)"/>
       </defs>
       <use xlink:href="#ArialMT-34"/>
       <use xlink:href="#ArialMT-30" x="55.615234"/>
      </g>
     </g>
    </g>
    <g id="xtick_4">
     <g id="line2d_4">
      <path d="M 503.669161 384.48 
L 503.669161 51.84 
" clip-path="url(#p98e6843c67)" style="fill: none; stroke: #ffffff; stroke-linecap: round"/>
     </g>
     <g id="text_4">
      <!-- 50 -->
      <g style="fill: #262626" transform="translate(497.552129 401.853594)scale(0.11 -0.11)">
       <defs>
        <path id="ArialMT-35" d="M 266 1200 
L 856 1250 
Q 922 819 1161 601 
Q 1400 384 1738 384 
Q 2144 384 2425 690 
Q 2706 997 2706 1503 
Q 2706 1984 2436 2262 
Q 2166 2541 1728 2541 
Q 1456 2541 1237 2417 
Q 1019 2294 894 2097 
L 366 2166 
L 809 4519 
L 3088 4519 
L 3088 3981 
L 1259 3981 
L 1013 2750 
Q 1425 3038 1878 3038 
Q 2478 3038 2890 2622 
Q 3303 2206 3303 1553 
Q 3303 931 2941 478 
Q 2500 -78 1738 -78 
Q 1113 -78 717 272 
Q 322 622 266 1200 
z
" transform="scale(0.015625)"/>
       </defs>
       <use xlink:href="#ArialMT-35"/>
       <use xlink:href="#ArialMT-30" x="55.615234"/>
      </g>
     </g>
    </g>
    <g id="xtick_5">
     <g id="line2d_5">
      <path d="M 625.140329 384.48 
L 625.140329 51.84 
" clip-path="url(#p98e6843c67)" style="fill: none; stroke: #ffffff; stroke-linecap: round"/>
     </g>
     <g id="text_5">
      <!-- 60 -->
      <g style="fill: #262626" transform="translate(619.023297 401.853594)scale(0.11 -0.11)">
       <defs>
        <path id="ArialMT-36" d="M 3184 3459 
L 2625 3416 
Q 2550 3747 2413 3897 
Q 2184 4138 1850 4138 
Q 1581 4138 1378 3988 
Q 1113 3794 959 3422 
Q 806 3050 800 2363 
Q 1003 2672 1297 2822 
Q 1591 2972 1913 2972 
Q 2475 2972 2870 2558 
Q 3266 2144 3266 1488 
Q 3266 1056 3080 686 
Q 2894 316 2569 119 
Q 2244 -78 1831 -78 
Q 1128 -78 684 439 
Q 241 956 241 2144 
Q 241 3472 731 4075 
Q 1159 4600 1884 4600 
Q 2425 4600 2770 4297 
Q 3116 3994 3184 3459 
z
M 888 1484 
Q 888 1194 1011 928 
Q 1134 663 1356 523 
Q 1578 384 1822 384 
Q 2178 384 2434 671 
Q 2691 959 2691 1453 
Q 2691 1928 2437 2201 
Q 2184 2475 1800 2475 
Q 1419 2475 1153 2201 
Q 888 1928 888 1484 
z
" transform="scale(0.015625)"/>
       </defs>
       <use xlink:href="#ArialMT-36"/>
       <use xlink:href="#ArialMT-30" x="55.615234"/>
      </g>
     </g>
    </g>
    <g id="xtick_6">
     <g id="line2d_6">
      <path d="M 746.611497 384.48 
L 746.611497 51.84 
" clip-path="url(#p98e6843c67)" style="fill: none; stroke: #ffffff; stroke-linecap: round"/>
     </g>
     <g id="text_6">
      <!-- 70 -->
      <g style="fill: #262626" transform="translate(740.494465 401.853594)scale(0.11 -0.11)">
       <defs>
        <path id="ArialMT-37" d="M 303 3981 
L 303 4522 
L 3269 4522 
L 3269 4084 
Q 2831 3619 2401 2847 
Q 1972 2075 1738 1259 
Q 1569 684 1522 0 
L 944 0 
Q 953 541 1156 1306 
Q 1359 2072 1739 2783 
Q 2119 3494 2547 3981 
L 303 3981 
z
" transform="scale(0.015625)"/>
       </defs>
       <use xlink:href="#ArialMT-37"/>
       <use xlink:href="#ArialMT-30" x="55.615234"/>
      </g>
     </g>
    </g>
    <g id="text_7">
     <!-- Average Hours Per Week -->
     <g style="fill: #262626" transform="translate(374.985938 416.629219)scale(0.12 -0.12)">
      <defs>
       <path id="ArialMT-41" d="M -9 0 
L 1750 4581 
L 2403 4581 
L 4278 0 
L 3588 0 
L 3053 1388 
L 1138 1388 
L 634 0 
L -9 0 
z
M 1313 1881 
L 2866 1881 
L 2388 3150 
Q 2169 3728 2063 4100 
Q 1975 3659 1816 3225 
L 1313 1881 
z
" transform="scale(0.015625)"/>
       <path id="ArialMT-76" d="M 1344 0 
L 81 3319 
L 675 3319 
L 1388 1331 
Q 1503 1009 1600 663 
Q 1675 925 1809 1294 
L 2547 3319 
L 3125 3319 
L 1869 0 
L 1344 0 
z
" transform="scale(0.015625)"/>
       <path id="ArialMT-65" d="M 2694 1069 
L 3275 997 
Q 3138 488 2766 206 
Q 2394 -75 1816 -75 
Q 1088 -75 661 373 
Q 234 822 234 1631 
Q 234 2469 665 2931 
Q 1097 3394 1784 3394 
Q 2450 3394 2872 2941 
Q 3294 2488 3294 1666 
Q 3294 1616 3291 1516 
L 816 1516 
Q 847 969 1125 678 
Q 1403 388 1819 388 
Q 2128 388 2347 550 
Q 2566 713 2694 1069 
z
M 847 1978 
L 2700 1978 
Q 2663 2397 2488 2606 
Q 2219 2931 1791 2931 
Q 1403 2931 1139 2672 
Q 875 2413 847 1978 
z
" transform="scale(0.015625)"/>
       <path id="ArialMT-72" d="M 416 0 
L 416 3319 
L 922 3319 
L 922 2816 
Q 1116 3169 1280 3281 
Q 1444 3394 1641 3394 
Q 1925 3394 2219 3213 
L 2025 2691 
Q 1819 2813 1613 2813 
Q 1428 2813 1281 2702 
Q 1134 2591 1072 2394 
Q 978 2094 978 1738 
L 978 0 
L 416 0 
z
" transform="scale(0.015625)"/>
       <path id="ArialMT-61" d="M 2588 409 
Q 2275 144 1986 34 
Q 1697 -75 1366 -75 
Q 819 -75 525 192 
Q 231 459 231 875 
Q 231 1119 342 1320 
Q 453 1522 633 1644 
Q 813 1766 1038 1828 
Q 1203 1872 1538 1913 
Q 2219 1994 2541 2106 
Q 2544 2222 2544 2253 
Q 2544 2597 2384 2738 
Q 2169 2928 1744 2928 
Q 1347 2928 1158 2789 
Q 969 2650 878 2297 
L 328 2372 
Q 403 2725 575 2942 
Q 747 3159 1072 3276 
Q 1397 3394 1825 3394 
Q 2250 3394 2515 3294 
Q 2781 3194 2906 3042 
Q 3031 2891 3081 2659 
Q 3109 2516 3109 2141 
L 3109 1391 
Q 3109 606 3145 398 
Q 3181 191 3288 0 
L 2700 0 
Q 2613 175 2588 409 
z
M 2541 1666 
Q 2234 1541 1622 1453 
Q 1275 1403 1131 1340 
Q 988 1278 909 1158 
Q 831 1038 831 891 
Q 831 666 1001 516 
Q 1172 366 1500 366 
Q 1825 366 2078 508 
Q 2331 650 2450 897 
Q 2541 1088 2541 1459 
L 2541 1666 
z
" transform="scale(0.015625)"/>
       <path id="ArialMT-67" d="M 319 -275 
L 866 -356 
Q 900 -609 1056 -725 
Q 1266 -881 1628 -881 
Q 2019 -881 2231 -725 
Q 2444 -569 2519 -288 
Q 2563 -116 2559 434 
Q 2191 0 1641 0 
Q 956 0 581 494 
Q 206 988 206 1678 
Q 206 2153 378 2554 
Q 550 2956 876 3175 
Q 1203 3394 1644 3394 
Q 2231 3394 2613 2919 
L 2613 3319 
L 3131 3319 
L 3131 450 
Q 3131 -325 2973 -648 
Q 2816 -972 2473 -1159 
Q 2131 -1347 1631 -1347 
Q 1038 -1347 672 -1080 
Q 306 -813 319 -275 
z
M 784 1719 
Q 784 1066 1043 766 
Q 1303 466 1694 466 
Q 2081 466 2343 764 
Q 2606 1063 2606 1700 
Q 2606 2309 2336 2618 
Q 2066 2928 1684 2928 
Q 1309 2928 1046 2623 
Q 784 2319 784 1719 
z
" transform="scale(0.015625)"/>
       <path id="ArialMT-20" transform="scale(0.015625)"/>
       <path id="ArialMT-48" d="M 513 0 
L 513 4581 
L 1119 4581 
L 1119 2700 
L 3500 2700 
L 3500 4581 
L 4106 4581 
L 4106 0 
L 3500 0 
L 3500 2159 
L 1119 2159 
L 1119 0 
L 513 0 
z
" transform="scale(0.015625)"/>
       <path id="ArialMT-6f" d="M 213 1659 
Q 213 2581 725 3025 
Q 1153 3394 1769 3394 
Q 2453 3394 2887 2945 
Q 3322 2497 3322 1706 
Q 3322 1066 3130 698 
Q 2938 331 2570 128 
Q 2203 -75 1769 -75 
Q 1072 -75 642 372 
Q 213 819 213 1659 
z
M 791 1659 
Q 791 1022 1069 705 
Q 1347 388 1769 388 
Q 2188 388 2466 706 
Q 2744 1025 2744 1678 
Q 2744 2294 2464 2611 
Q 2184 2928 1769 2928 
Q 1347 2928 1069 2612 
Q 791 2297 791 1659 
z
" transform="scale(0.015625)"/>
       <path id="ArialMT-75" d="M 2597 0 
L 2597 488 
Q 2209 -75 1544 -75 
Q 1250 -75 995 37 
Q 741 150 617 320 
Q 494 491 444 738 
Q 409 903 409 1263 
L 409 3319 
L 972 3319 
L 972 1478 
Q 972 1038 1006 884 
Q 1059 663 1231 536 
Q 1403 409 1656 409 
Q 1909 409 2131 539 
Q 2353 669 2445 892 
Q 2538 1116 2538 1541 
L 2538 3319 
L 3100 3319 
L 3100 0 
L 2597 0 
z
" transform="scale(0.015625)"/>
       <path id="ArialMT-73" d="M 197 991 
L 753 1078 
Q 800 744 1014 566 
Q 1228 388 1613 388 
Q 2000 388 2187 545 
Q 2375 703 2375 916 
Q 2375 1106 2209 1216 
Q 2094 1291 1634 1406 
Q 1016 1563 777 1677 
Q 538 1791 414 1992 
Q 291 2194 291 2438 
Q 291 2659 392 2848 
Q 494 3038 669 3163 
Q 800 3259 1026 3326 
Q 1253 3394 1513 3394 
Q 1903 3394 2198 3281 
Q 2494 3169 2634 2976 
Q 2775 2784 2828 2463 
L 2278 2388 
Q 2241 2644 2061 2787 
Q 1881 2931 1553 2931 
Q 1166 2931 1000 2803 
Q 834 2675 834 2503 
Q 834 2394 903 2306 
Q 972 2216 1119 2156 
Q 1203 2125 1616 2013 
Q 2213 1853 2448 1751 
Q 2684 1650 2818 1456 
Q 2953 1263 2953 975 
Q 2953 694 2789 445 
Q 2625 197 2315 61 
Q 2006 -75 1616 -75 
Q 969 -75 630 194 
Q 291 463 197 991 
z
" transform="scale(0.015625)"/>
       <path id="ArialMT-50" d="M 494 0 
L 494 4581 
L 2222 4581 
Q 2678 4581 2919 4538 
Q 3256 4481 3484 4323 
Q 3713 4166 3852 3881 
Q 3991 3597 3991 3256 
Q 3991 2672 3619 2267 
Q 3247 1863 2275 1863 
L 1100 1863 
L 1100 0 
L 494 0 
z
M 1100 2403 
L 2284 2403 
Q 2872 2403 3119 2622 
Q 3366 2841 3366 3238 
Q 3366 3525 3220 3729 
Q 3075 3934 2838 4000 
Q 2684 4041 2272 4041 
L 1100 4041 
L 1100 2403 
z
" transform="scale(0.015625)"/>
       <path id="ArialMT-57" d="M 1294 0 
L 78 4581 
L 700 4581 
L 1397 1578 
Q 1509 1106 1591 641 
Q 1766 1375 1797 1488 
L 2669 4581 
L 3400 4581 
L 4056 2263 
Q 4303 1400 4413 641 
Q 4500 1075 4641 1638 
L 5359 4581 
L 5969 4581 
L 4713 0 
L 4128 0 
L 3163 3491 
Q 3041 3928 3019 4028 
Q 2947 3713 2884 3491 
L 1913 0 
L 1294 0 
z
" transform="scale(0.015625)"/>
       <path id="ArialMT-6b" d="M 425 0 
L 425 4581 
L 988 4581 
L 988 1969 
L 2319 3319 
L 3047 3319 
L 1778 2088 
L 3175 0 
L 2481 0 
L 1384 1697 
L 988 1316 
L 988 0 
L 425 0 
z
" transform="scale(0.015625)"/>
      </defs>
      <use xlink:href="#ArialMT-41"/>
      <use xlink:href="#ArialMT-76" x="64.949219"/>
      <use xlink:href="#ArialMT-65" x="114.949219"/>
      <use xlink:href="#ArialMT-72" x="170.564453"/>
      <use xlink:href="#ArialMT-61" x="203.865234"/>
      <use xlink:href="#ArialMT-67" x="259.480469"/>
      <use xlink:href="#ArialMT-65" x="315.095703"/>
      <use xlink:href="#ArialMT-20" x="370.710938"/>
      <use xlink:href="#ArialMT-48" x="398.494141"/>
      <use xlink:href="#ArialMT-6f" x="470.710938"/>
      <use xlink:href="#ArialMT-75" x="526.326172"/>
      <use xlink:href="#ArialMT-72" x="581.941406"/>
      <use xlink:href="#ArialMT-73" x="615.242188"/>
      <use xlink:href="#ArialMT-20" x="665.242188"/>
      <use xlink:href="#ArialMT-50" x="693.025391"/>
      <use xlink:href="#ArialMT-65" x="759.724609"/>
      <use xlink:href="#ArialMT-72" x="815.339844"/>
      <use xlink:href="#ArialMT-20" x="848.640625"/>
      <use xlink:href="#ArialMT-57" x="876.423828"/>
      <use xlink:href="#ArialMT-65" x="969.058594"/>
      <use xlink:href="#ArialMT-65" x="1024.673828"/>
      <use xlink:href="#ArialMT-6b" x="1080.289062"/>
     </g>
    </g>
   </g>
   <g id="matplotlib.axis_2">
    <g id="ytick_1">
     <g id="line2d_7">
      <path d="M 108 373.653883 
L 777.6 373.653883 
" clip-path="url(#p98e6843c67)" style="fill: none; stroke: #ffffff; stroke-linecap: round"/>
     </g>
     <g id="text_8">
      <!-- 50 -->
      <g style="fill: #262626" transform="translate(86.265938 377.59068)scale(0.11 -0.11)">
       <use xlink:href="#ArialMT-35"/>
       <use xlink:href="#ArialMT-30" x="55.615234"/>
      </g>
     </g>
    </g>
    <g id="ytick_2">
     <g id="line2d_8">
      <path d="M 108 329.83967 
L 777.6 329.83967 
" clip-path="url(#p98e6843c67)" style="fill: none; stroke: #ffffff; stroke-linecap: round"/>
     </g>
     <g id="text_9">
      <!-- 100 -->
      <g style="fill: #262626" transform="translate(80.148906 333.776467)scale(0.11 -0.11)">
       <defs>
        <path id="ArialMT-31" d="M 2384 0 
L 1822 0 
L 1822 3584 
Q 1619 3391 1289 3197 
Q 959 3003 697 2906 
L 697 3450 
Q 1169 3672 1522 3987 
Q 1875 4303 2022 4600 
L 2384 4600 
L 2384 0 
z
" transform="scale(0.015625)"/>
       </defs>
       <use xlink:href="#ArialMT-31"/>
       <use xlink:href="#ArialMT-30" x="55.615234"/>
       <use xlink:href="#ArialMT-30" x="111.230469"/>
      </g>
     </g>
    </g>
    <g id="ytick_3">
     <g id="line2d_9">
      <path d="M 108 286.025457 
L 777.6 286.025457 
" clip-path="url(#p98e6843c67)" style="fill: none; stroke: #ffffff; stroke-linecap: round"/>
     </g>
     <g id="text_10">
      <!-- 150 -->
      <g style="fill: #262626" transform="translate(80.148906 289.962254)scale(0.11 -0.11)">
       <use xlink:href="#ArialMT-31"/>
       <use xlink:href="#ArialMT-35" x="55.615234"/>
       <use xlink:href="#ArialMT-30" x="111.230469"/>
      </g>
     </g>
    </g>
    <g id="ytick_4">
     <g id="line2d_10">
      <path d="M 108 242.211243 
L 777.6 242.211243 
" clip-path="url(#p98e6843c67)" style="fill: none; stroke: #ffffff; stroke-linecap: round"/>
     </g>
     <g id="text_11">
      <!-- 200 -->
      <g style="fill: #262626" transform="translate(80.148906 246.14804)scale(0.11 -0.11)">
       <use xlink:href="#ArialMT-32"/>
       <use xlink:href="#ArialMT-30" x="55.615234"/>
       <use xlink:href="#ArialMT-30" x="111.230469"/>
      </g>
     </g>
    </g>
    <g id="ytick_5">
     <g id="line2d_11">
      <path d="M 108 198.39703 
L 777.6 198.39703 
" clip-path="url(#p98e6843c67)" style="fill: none; stroke: #ffffff; stroke-linecap: round"/>
     </g>
     <g id="text_12">
      <!-- 250 -->
      <g style="fill: #262626" transform="translate(80.148906 202.333827)scale(0.11 -0.11)">
       <use xlink:href="#ArialMT-32"/>
       <use xlink:href="#ArialMT-35" x="55.615234"/>
       <use xlink:href="#ArialMT-30" x="111.230469"/>
      </g>
     </g>
    </g>
    <g id="ytick_6">
     <g id="line2d_12">
      <path d="M 108 154.582817 
L 777.6 154.582817 
" clip-path="url(#p98e6843c67)" style="fill: none; stroke: #ffffff; stroke-linecap: round"/>
     </g>
     <g id="text_13">
      <!-- 300 -->
      <g style="fill: #262626" transform="translate(80.148906 158.519614)scale(0.11 -0.11)">
       <use xlink:href="#ArialMT-33"/>
       <use xlink:href="#ArialMT-30" x="55.615234"/>
       <use xlink:href="#ArialMT-30" x="111.230469"/>
      </g>
     </g>
    </g>
    <g id="ytick_7">
     <g id="line2d_13">
      <path d="M 108 110.768604 
L 777.6 110.768604 
" clip-path="url(#p98e6843c67)" style="fill: none; stroke: #ffffff; stroke-linecap: round"/>
     </g>
     <g id="text_14">
      <!-- 350 -->
      <g style="fill: #262626" transform="translate(80.148906 114.705401)scale(0.11 -0.11)">
       <use xlink:href="#ArialMT-33"/>
       <use xlink:href="#ArialMT-35" x="55.615234"/>
       <use xlink:href="#ArialMT-30" x="111.230469"/>
      </g>
     </g>
    </g>
    <g id="ytick_8">
     <g id="line2d_14">
      <path d="M 108 66.95439 
L 777.6 66.95439 
" clip-path="url(#p98e6843c67)" style="fill: none; stroke: #ffffff; stroke-linecap: round"/>
     </g>
     <g id="text_15">
      <!-- 400 -->
      <g style="fill: #262626" transform="translate(80.148906 70.891187)scale(0.11 -0.11)">
       <use xlink:href="#ArialMT-34"/>
       <use xlink:href="#ArialMT-30" x="55.615234"/>
       <use xlink:href="#ArialMT-30" x="111.230469"/>
      </g>
     </g>
    </g>
    <g id="text_16">
     <!-- Annual income (thousands) -->
     <g style="fill: #262626" transform="translate(73.623281 291.197812)rotate(-90)scale(0.12 -0.12)">
      <defs>
       <path id="ArialMT-6e" d="M 422 0 
L 422 3319 
L 928 3319 
L 928 2847 
Q 1294 3394 1984 3394 
Q 2284 3394 2536 3286 
Q 2788 3178 2913 3003 
Q 3038 2828 3088 2588 
Q 3119 2431 3119 2041 
L 3119 0 
L 2556 0 
L 2556 2019 
Q 2556 2363 2490 2533 
Q 2425 2703 2258 2804 
Q 2091 2906 1866 2906 
Q 1506 2906 1245 2678 
Q 984 2450 984 1813 
L 984 0 
L 422 0 
z
" transform="scale(0.015625)"/>
       <path id="ArialMT-6c" d="M 409 0 
L 409 4581 
L 972 4581 
L 972 0 
L 409 0 
z
" transform="scale(0.015625)"/>
       <path id="ArialMT-69" d="M 425 3934 
L 425 4581 
L 988 4581 
L 988 3934 
L 425 3934 
z
M 425 0 
L 425 3319 
L 988 3319 
L 988 0 
L 425 0 
z
" transform="scale(0.015625)"/>
       <path id="ArialMT-63" d="M 2588 1216 
L 3141 1144 
Q 3050 572 2676 248 
Q 2303 -75 1759 -75 
Q 1078 -75 664 370 
Q 250 816 250 1647 
Q 250 2184 428 2587 
Q 606 2991 970 3192 
Q 1334 3394 1763 3394 
Q 2303 3394 2647 3120 
Q 2991 2847 3088 2344 
L 2541 2259 
Q 2463 2594 2264 2762 
Q 2066 2931 1784 2931 
Q 1359 2931 1093 2626 
Q 828 2322 828 1663 
Q 828 994 1084 691 
Q 1341 388 1753 388 
Q 2084 388 2306 591 
Q 2528 794 2588 1216 
z
" transform="scale(0.015625)"/>
       <path id="ArialMT-6d" d="M 422 0 
L 422 3319 
L 925 3319 
L 925 2853 
Q 1081 3097 1340 3245 
Q 1600 3394 1931 3394 
Q 2300 3394 2536 3241 
Q 2772 3088 2869 2813 
Q 3263 3394 3894 3394 
Q 4388 3394 4653 3120 
Q 4919 2847 4919 2278 
L 4919 0 
L 4359 0 
L 4359 2091 
Q 4359 2428 4304 2576 
Q 4250 2725 4106 2815 
Q 3963 2906 3769 2906 
Q 3419 2906 3187 2673 
Q 2956 2441 2956 1928 
L 2956 0 
L 2394 0 
L 2394 2156 
Q 2394 2531 2256 2718 
Q 2119 2906 1806 2906 
Q 1569 2906 1367 2781 
Q 1166 2656 1075 2415 
Q 984 2175 984 1722 
L 984 0 
L 422 0 
z
" transform="scale(0.015625)"/>
       <path id="ArialMT-28" d="M 1497 -1347 
Q 1031 -759 709 28 
Q 388 816 388 1659 
Q 388 2403 628 3084 
Q 909 3875 1497 4659 
L 1900 4659 
Q 1522 4009 1400 3731 
Q 1209 3300 1100 2831 
Q 966 2247 966 1656 
Q 966 153 1900 -1347 
L 1497 -1347 
z
" transform="scale(0.015625)"/>
       <path id="ArialMT-74" d="M 1650 503 
L 1731 6 
Q 1494 -44 1306 -44 
Q 1000 -44 831 53 
Q 663 150 594 308 
Q 525 466 525 972 
L 525 2881 
L 113 2881 
L 113 3319 
L 525 3319 
L 525 4141 
L 1084 4478 
L 1084 3319 
L 1650 3319 
L 1650 2881 
L 1084 2881 
L 1084 941 
Q 1084 700 1114 631 
Q 1144 563 1211 522 
Q 1278 481 1403 481 
Q 1497 481 1650 503 
z
" transform="scale(0.015625)"/>
       <path id="ArialMT-68" d="M 422 0 
L 422 4581 
L 984 4581 
L 984 2938 
Q 1378 3394 1978 3394 
Q 2347 3394 2619 3248 
Q 2891 3103 3008 2847 
Q 3125 2591 3125 2103 
L 3125 0 
L 2563 0 
L 2563 2103 
Q 2563 2525 2380 2717 
Q 2197 2909 1863 2909 
Q 1613 2909 1392 2779 
Q 1172 2650 1078 2428 
Q 984 2206 984 1816 
L 984 0 
L 422 0 
z
" transform="scale(0.015625)"/>
       <path id="ArialMT-64" d="M 2575 0 
L 2575 419 
Q 2259 -75 1647 -75 
Q 1250 -75 917 144 
Q 584 363 401 755 
Q 219 1147 219 1656 
Q 219 2153 384 2558 
Q 550 2963 881 3178 
Q 1213 3394 1622 3394 
Q 1922 3394 2156 3267 
Q 2391 3141 2538 2938 
L 2538 4581 
L 3097 4581 
L 3097 0 
L 2575 0 
z
M 797 1656 
Q 797 1019 1065 703 
Q 1334 388 1700 388 
Q 2069 388 2326 689 
Q 2584 991 2584 1609 
Q 2584 2291 2321 2609 
Q 2059 2928 1675 2928 
Q 1300 2928 1048 2622 
Q 797 2316 797 1656 
z
" transform="scale(0.015625)"/>
       <path id="ArialMT-29" d="M 791 -1347 
L 388 -1347 
Q 1322 153 1322 1656 
Q 1322 2244 1188 2822 
Q 1081 3291 891 3722 
Q 769 4003 388 4659 
L 791 4659 
Q 1378 3875 1659 3084 
Q 1900 2403 1900 1659 
Q 1900 816 1576 28 
Q 1253 -759 791 -1347 
z
" transform="scale(0.015625)"/>
      </defs>
      <use xlink:href="#ArialMT-41"/>
      <use xlink:href="#ArialMT-6e" x="66.699219"/>
      <use xlink:href="#ArialMT-6e" x="122.314453"/>
      <use xlink:href="#ArialMT-75" x="177.929688"/>
      <use xlink:href="#ArialMT-61" x="233.544922"/>
      <use xlink:href="#ArialMT-6c" x="289.160156"/>
      <use xlink:href="#ArialMT-20" x="311.376953"/>
      <use xlink:href="#ArialMT-69" x="339.160156"/>
      <use xlink:href="#ArialMT-6e" x="361.376953"/>
      <use xlink:href="#ArialMT-63" x="416.992188"/>
      <use xlink:href="#ArialMT-6f" x="466.992188"/>
      <use xlink:href="#ArialMT-6d" x="522.607422"/>
      <use xlink:href="#ArialMT-65" x="605.908203"/>
      <use xlink:href="#ArialMT-20" x="661.523438"/>
      <use xlink:href="#ArialMT-28" x="689.306641"/>
      <use xlink:href="#ArialMT-74" x="722.607422"/>
      <use xlink:href="#ArialMT-68" x="750.390625"/>
      <use xlink:href="#ArialMT-6f" x="806.005859"/>
      <use xlink:href="#ArialMT-75" x="861.621094"/>
      <use xlink:href="#ArialMT-73" x="917.236328"/>
      <use xlink:href="#ArialMT-61" x="967.236328"/>
      <use xlink:href="#ArialMT-6e" x="1022.851562"/>
      <use xlink:href="#ArialMT-64" x="1078.466797"/>
      <use xlink:href="#ArialMT-73" x="1134.082031"/>
      <use xlink:href="#ArialMT-29" x="1184.082031"/>
     </g>
    </g>
   </g>
   <g id="PathCollection_1">
    <defs>
     <path id="m38077eb4f4" d="M 0 3 
C 0.795609 3 1.55874 2.683901 2.12132 2.12132 
C 2.683901 1.55874 3 0.795609 3 0 
C 3 -0.795609 2.683901 -1.55874 2.12132 -2.12132 
C 1.55874 -2.683901 0.795609 -3 0 -3 
C -0.795609 -3 -1.55874 -2.683901 -2.12132 -2.12132 
C -2.683901 -1.55874 -3 -0.795609 -3 0 
C -3 0.795609 -2.683901 1.55874 -2.12132 2.12132 
C -1.55874 2.683901 -0.795609 3 0 3 
z
" style="stroke: #4c72b0; stroke-opacity: 0.8"/>
    </defs>
    <g clip-path="url(#p98e6843c67)">
     <use xlink:href="#m38077eb4f4" x="261.539049" y="229.026812" style="fill: #4c72b0; fill-opacity: 0.8; stroke: #4c72b0; stroke-opacity: 0.8"/>
     <use xlink:href="#m38077eb4f4" x="357.063376" y="313.19695" style="fill: #4c72b0; fill-opacity: 0.8; stroke: #4c72b0; stroke-opacity: 0.8"/>
     <use xlink:href="#m38077eb4f4" x="394.78811" y="329.759279" style="fill: #4c72b0; fill-opacity: 0.8; stroke: #4c72b0; stroke-opacity: 0.8"/>
     <use xlink:href="#m38077eb4f4" x="332.536387" y="259.526488" style="fill: #4c72b0; fill-opacity: 0.8; stroke: #4c72b0; stroke-opacity: 0.8"/>
     <use xlink:href="#m38077eb4f4" x="502.455996" y="265.022152" style="fill: #4c72b0; fill-opacity: 0.8; stroke: #4c72b0; stroke-opacity: 0.8"/>
     <use xlink:href="#m38077eb4f4" x="382.451637" y="242.232709" style="fill: #4c72b0; fill-opacity: 0.8; stroke: #4c72b0; stroke-opacity: 0.8"/>
     <use xlink:href="#m38077eb4f4" x="382.199372" y="336.771445" style="fill: #4c72b0; fill-opacity: 0.8; stroke: #4c72b0; stroke-opacity: 0.8"/>
     <use xlink:href="#m38077eb4f4" x="454.56804" y="292.089782" style="fill: #4c72b0; fill-opacity: 0.8; stroke: #4c72b0; stroke-opacity: 0.8"/>
     <use xlink:href="#m38077eb4f4" x="504.64921" y="249.212228" style="fill: #4c72b0; fill-opacity: 0.8; stroke: #4c72b0; stroke-opacity: 0.8"/>
     <use xlink:href="#m38077eb4f4" x="443.772141" y="312.31901" style="fill: #4c72b0; fill-opacity: 0.8; stroke: #4c72b0; stroke-opacity: 0.8"/>
     <use xlink:href="#m38077eb4f4" x="382.807611" y="224.659235" style="fill: #4c72b0; fill-opacity: 0.8; stroke: #4c72b0; stroke-opacity: 0.8"/>
     <use xlink:href="#m38077eb4f4" x="320.560286" y="248.790136" style="fill: #4c72b0; fill-opacity: 0.8; stroke: #4c72b0; stroke-opacity: 0.8"/>
     <use xlink:href="#m38077eb4f4" x="383.195887" y="321.010669" style="fill: #4c72b0; fill-opacity: 0.8; stroke: #4c72b0; stroke-opacity: 0.8"/>
     <use xlink:href="#m38077eb4f4" x="382.128607" y="268.486731" style="fill: #4c72b0; fill-opacity: 0.8; stroke: #4c72b0; stroke-opacity: 0.8"/>
     <use xlink:href="#m38077eb4f4" x="259.948704" y="268.561647" style="fill: #4c72b0; fill-opacity: 0.8; stroke: #4c72b0; stroke-opacity: 0.8"/>
     <use xlink:href="#m38077eb4f4" x="381.702697" y="356.148057" style="fill: #4c72b0; fill-opacity: 0.8; stroke: #4c72b0; stroke-opacity: 0.8"/>
     <use xlink:href="#m38077eb4f4" x="381.092984" y="294.736352" style="fill: #4c72b0; fill-opacity: 0.8; stroke: #4c72b0; stroke-opacity: 0.8"/>
     <use xlink:href="#m38077eb4f4" x="382.225408" y="277.180129" style="fill: #4c72b0; fill-opacity: 0.8; stroke: #4c72b0; stroke-opacity: 0.8"/>
     <use xlink:href="#m38077eb4f4" x="382.601098" y="259.689949" style="fill: #4c72b0; fill-opacity: 0.8; stroke: #4c72b0; stroke-opacity: 0.8"/>
     <use xlink:href="#m38077eb4f4" x="383.142722" y="281.614283" style="fill: #4c72b0; fill-opacity: 0.8; stroke: #4c72b0; stroke-opacity: 0.8"/>
     <use xlink:href="#m38077eb4f4" x="443.834062" y="312.288229" style="fill: #4c72b0; fill-opacity: 0.8; stroke: #4c72b0; stroke-opacity: 0.8"/>
     <use xlink:href="#m38077eb4f4" x="503.748085" y="207.226701" style="fill: #4c72b0; fill-opacity: 0.8; stroke: #4c72b0; stroke-opacity: 0.8"/>
     <use xlink:href="#m38077eb4f4" x="321.966942" y="338.606383" style="fill: #4c72b0; fill-opacity: 0.8; stroke: #4c72b0; stroke-opacity: 0.8"/>
     <use xlink:href="#m38077eb4f4" x="504.595861" y="272.841206" style="fill: #4c72b0; fill-opacity: 0.8; stroke: #4c72b0; stroke-opacity: 0.8"/>
     <use xlink:href="#m38077eb4f4" x="382.236496" y="303.633946" style="fill: #4c72b0; fill-opacity: 0.8; stroke: #4c72b0; stroke-opacity: 0.8"/>
     <use xlink:href="#m38077eb4f4" x="381.768781" y="259.722823" style="fill: #4c72b0; fill-opacity: 0.8; stroke: #4c72b0; stroke-opacity: 0.8"/>
     <use xlink:href="#m38077eb4f4" x="320.871932" y="303.4651" style="fill: #4c72b0; fill-opacity: 0.8; stroke: #4c72b0; stroke-opacity: 0.8"/>
     <use xlink:href="#m38077eb4f4" x="382.972524" y="338.673678" style="fill: #4c72b0; fill-opacity: 0.8; stroke: #4c72b0; stroke-opacity: 0.8"/>
     <use xlink:href="#m38077eb4f4" x="625.214915" y="220.360268" style="fill: #4c72b0; fill-opacity: 0.8; stroke: #4c72b0; stroke-opacity: 0.8"/>
     <use xlink:href="#m38077eb4f4" x="442.858929" y="259.768588" style="fill: #4c72b0; fill-opacity: 0.8; stroke: #4c72b0; stroke-opacity: 0.8"/>
     <use xlink:href="#m38077eb4f4" x="381.607138" y="216.009926" style="fill: #4c72b0; fill-opacity: 0.8; stroke: #4c72b0; stroke-opacity: 0.8"/>
     <use xlink:href="#m38077eb4f4" x="381.803255" y="281.7255" style="fill: #4c72b0; fill-opacity: 0.8; stroke: #4c72b0; stroke-opacity: 0.8"/>
     <use xlink:href="#m38077eb4f4" x="284.544433" y="288.64914" style="fill: #4c72b0; fill-opacity: 0.8; stroke: #4c72b0; stroke-opacity: 0.8"/>
     <use xlink:href="#m38077eb4f4" x="382.362081" y="351.681275" style="fill: #4c72b0; fill-opacity: 0.8; stroke: #4c72b0; stroke-opacity: 0.8"/>
     <use xlink:href="#m38077eb4f4" x="200.730857" y="338.533955" style="fill: #4c72b0; fill-opacity: 0.8; stroke: #4c72b0; stroke-opacity: 0.8"/>
     <use xlink:href="#m38077eb4f4" x="285.076113" y="277.312762" style="fill: #4c72b0; fill-opacity: 0.8; stroke: #4c72b0; stroke-opacity: 0.8"/>
     <use xlink:href="#m38077eb4f4" x="320.761178" y="295.695002" style="fill: #4c72b0; fill-opacity: 0.8; stroke: #4c72b0; stroke-opacity: 0.8"/>
     <use xlink:href="#m38077eb4f4" x="383.112183" y="304.490873" style="fill: #4c72b0; fill-opacity: 0.8; stroke: #4c72b0; stroke-opacity: 0.8"/>
     <use xlink:href="#m38077eb4f4" x="382.862405" y="258.887472" style="fill: #4c72b0; fill-opacity: 0.8; stroke: #4c72b0; stroke-opacity: 0.8"/>
     <use xlink:href="#m38077eb4f4" x="503.248821" y="360.574256" style="fill: #4c72b0; fill-opacity: 0.8; stroke: #4c72b0; stroke-opacity: 0.8"/>
     <use xlink:href="#m38077eb4f4" x="381.223653" y="207.235924" style="fill: #4c72b0; fill-opacity: 0.8; stroke: #4c72b0; stroke-opacity: 0.8"/>
     <use xlink:href="#m38077eb4f4" x="383.256697" y="336.866786" style="fill: #4c72b0; fill-opacity: 0.8; stroke: #4c72b0; stroke-opacity: 0.8"/>
     <use xlink:href="#m38077eb4f4" x="260.643396" y="259.769322" style="fill: #4c72b0; fill-opacity: 0.8; stroke: #4c72b0; stroke-opacity: 0.8"/>
     <use xlink:href="#m38077eb4f4" x="321.976998" y="272.819297" style="fill: #4c72b0; fill-opacity: 0.8; stroke: #4c72b0; stroke-opacity: 0.8"/>
     <use xlink:href="#m38077eb4f4" x="381.999417" y="236.143529" style="fill: #4c72b0; fill-opacity: 0.8; stroke: #4c72b0; stroke-opacity: 0.8"/>
     <use xlink:href="#m38077eb4f4" x="382.987625" y="282.587198" style="fill: #4c72b0; fill-opacity: 0.8; stroke: #4c72b0; stroke-opacity: 0.8"/>
     <use xlink:href="#m38077eb4f4" x="381.724996" y="286.066209" style="fill: #4c72b0; fill-opacity: 0.8; stroke: #4c72b0; stroke-opacity: 0.8"/>
     <use xlink:href="#m38077eb4f4" x="502.616514" y="176.488975" style="fill: #4c72b0; fill-opacity: 0.8; stroke: #4c72b0; stroke-opacity: 0.8"/>
     <use xlink:href="#m38077eb4f4" x="381.402212" y="354.347453" style="fill: #4c72b0; fill-opacity: 0.8; stroke: #4c72b0; stroke-opacity: 0.8"/>
     <use xlink:href="#m38077eb4f4" x="539.359715" y="264.052607" style="fill: #4c72b0; fill-opacity: 0.8; stroke: #4c72b0; stroke-opacity: 0.8"/>
     <use xlink:href="#m38077eb4f4" x="407.619454" y="316.777998" style="fill: #4c72b0; fill-opacity: 0.8; stroke: #4c72b0; stroke-opacity: 0.8"/>
     <use xlink:href="#m38077eb4f4" x="442.240243" y="272.81794" style="fill: #4c72b0; fill-opacity: 0.8; stroke: #4c72b0; stroke-opacity: 0.8"/>
     <use xlink:href="#m38077eb4f4" x="139.581041" y="351.813427" style="fill: #4c72b0; fill-opacity: 0.8; stroke: #4c72b0; stroke-opacity: 0.8"/>
     <use xlink:href="#m38077eb4f4" x="381.436766" y="259.710105" style="fill: #4c72b0; fill-opacity: 0.8; stroke: #4c72b0; stroke-opacity: 0.8"/>
     <use xlink:href="#m38077eb4f4" x="502.721307" y="299.205474" style="fill: #4c72b0; fill-opacity: 0.8; stroke: #4c72b0; stroke-opacity: 0.8"/>
     <use xlink:href="#m38077eb4f4" x="504.506298" y="259.779627" style="fill: #4c72b0; fill-opacity: 0.8; stroke: #4c72b0; stroke-opacity: 0.8"/>
     <use xlink:href="#m38077eb4f4" x="503.491964" y="303.51665" style="fill: #4c72b0; fill-opacity: 0.8; stroke: #4c72b0; stroke-opacity: 0.8"/>
     <use xlink:href="#m38077eb4f4" x="479.081006" y="358.718311" style="fill: #4c72b0; fill-opacity: 0.8; stroke: #4c72b0; stroke-opacity: 0.8"/>
     <use xlink:href="#m38077eb4f4" x="381.586923" y="220.262937" style="fill: #4c72b0; fill-opacity: 0.8; stroke: #4c72b0; stroke-opacity: 0.8"/>
     <use xlink:href="#m38077eb4f4" x="381.979103" y="290.37972" style="fill: #4c72b0; fill-opacity: 0.8; stroke: #4c72b0; stroke-opacity: 0.8"/>
     <use xlink:href="#m38077eb4f4" x="382.28379" y="299.123973" style="fill: #4c72b0; fill-opacity: 0.8; stroke: #4c72b0; stroke-opacity: 0.8"/>
     <use xlink:href="#m38077eb4f4" x="444.021915" y="154.658376" style="fill: #4c72b0; fill-opacity: 0.8; stroke: #4c72b0; stroke-opacity: 0.8"/>
     <use xlink:href="#m38077eb4f4" x="383.186904" y="272.805626" style="fill: #4c72b0; fill-opacity: 0.8; stroke: #4c72b0; stroke-opacity: 0.8"/>
     <use xlink:href="#m38077eb4f4" x="382.205861" y="315.025465" style="fill: #4c72b0; fill-opacity: 0.8; stroke: #4c72b0; stroke-opacity: 0.8"/>
     <use xlink:href="#m38077eb4f4" x="383.214613" y="272.822931" style="fill: #4c72b0; fill-opacity: 0.8; stroke: #4c72b0; stroke-opacity: 0.8"/>
     <use xlink:href="#m38077eb4f4" x="138.436364" y="294.792084" style="fill: #4c72b0; fill-opacity: 0.8; stroke: #4c72b0; stroke-opacity: 0.8"/>
     <use xlink:href="#m38077eb4f4" x="383.16635" y="271.13017" style="fill: #4c72b0; fill-opacity: 0.8; stroke: #4c72b0; stroke-opacity: 0.8"/>
     <use xlink:href="#m38077eb4f4" x="285.765383" y="264.174266" style="fill: #4c72b0; fill-opacity: 0.8; stroke: #4c72b0; stroke-opacity: 0.8"/>
     <use xlink:href="#m38077eb4f4" x="381.055627" y="272.935905" style="fill: #4c72b0; fill-opacity: 0.8; stroke: #4c72b0; stroke-opacity: 0.8"/>
     <use xlink:href="#m38077eb4f4" x="321.386422" y="242.16291" style="fill: #4c72b0; fill-opacity: 0.8; stroke: #4c72b0; stroke-opacity: 0.8"/>
     <use xlink:href="#m38077eb4f4" x="381.106941" y="213.35676" style="fill: #4c72b0; fill-opacity: 0.8; stroke: #4c72b0; stroke-opacity: 0.8"/>
     <use xlink:href="#m38077eb4f4" x="381.035603" y="242.13491" style="fill: #4c72b0; fill-opacity: 0.8; stroke: #4c72b0; stroke-opacity: 0.8"/>
     <use xlink:href="#m38077eb4f4" x="442.552677" y="237.909393" style="fill: #4c72b0; fill-opacity: 0.8; stroke: #4c72b0; stroke-opacity: 0.8"/>
     <use xlink:href="#m38077eb4f4" x="260.565549" y="316.727072" style="fill: #4c72b0; fill-opacity: 0.8; stroke: #4c72b0; stroke-opacity: 0.8"/>
     <use xlink:href="#m38077eb4f4" x="381.294557" y="268.58568" style="fill: #4c72b0; fill-opacity: 0.8; stroke: #4c72b0; stroke-opacity: 0.8"/>
     <use xlink:href="#m38077eb4f4" x="382.200864" y="307.862854" style="fill: #4c72b0; fill-opacity: 0.8; stroke: #4c72b0; stroke-opacity: 0.8"/>
     <use xlink:href="#m38077eb4f4" x="381.17779" y="195.810024" style="fill: #4c72b0; fill-opacity: 0.8; stroke: #4c72b0; stroke-opacity: 0.8"/>
     <use xlink:href="#m38077eb4f4" x="382.66238" y="287.721672" style="fill: #4c72b0; fill-opacity: 0.8; stroke: #4c72b0; stroke-opacity: 0.8"/>
     <use xlink:href="#m38077eb4f4" x="382.768725" y="321.893222" style="fill: #4c72b0; fill-opacity: 0.8; stroke: #4c72b0; stroke-opacity: 0.8"/>
     <use xlink:href="#m38077eb4f4" x="381.794743" y="299.213624" style="fill: #4c72b0; fill-opacity: 0.8; stroke: #4c72b0; stroke-opacity: 0.8"/>
     <use xlink:href="#m38077eb4f4" x="382.177835" y="233.368458" style="fill: #4c72b0; fill-opacity: 0.8; stroke: #4c72b0; stroke-opacity: 0.8"/>
     <use xlink:href="#m38077eb4f4" x="383.269821" y="314.072398" style="fill: #4c72b0; fill-opacity: 0.8; stroke: #4c72b0; stroke-opacity: 0.8"/>
     <use xlink:href="#m38077eb4f4" x="259.569936" y="347.404213" style="fill: #4c72b0; fill-opacity: 0.8; stroke: #4c72b0; stroke-opacity: 0.8"/>
     <use xlink:href="#m38077eb4f4" x="382.58057" y="215.925889" style="fill: #4c72b0; fill-opacity: 0.8; stroke: #4c72b0; stroke-opacity: 0.8"/>
     <use xlink:href="#m38077eb4f4" x="382.656521" y="286.098756" style="fill: #4c72b0; fill-opacity: 0.8; stroke: #4c72b0; stroke-opacity: 0.8"/>
     <use xlink:href="#m38077eb4f4" x="382.438892" y="312.308144" style="fill: #4c72b0; fill-opacity: 0.8; stroke: #4c72b0; stroke-opacity: 0.8"/>
     <use xlink:href="#m38077eb4f4" x="381.306622" y="276.446527" style="fill: #4c72b0; fill-opacity: 0.8; stroke: #4c72b0; stroke-opacity: 0.8"/>
     <use xlink:href="#m38077eb4f4" x="382.626524" y="255.433719" style="fill: #4c72b0; fill-opacity: 0.8; stroke: #4c72b0; stroke-opacity: 0.8"/>
     <use xlink:href="#m38077eb4f4" x="443.680542" y="281.560998" style="fill: #4c72b0; fill-opacity: 0.8; stroke: #4c72b0; stroke-opacity: 0.8"/>
     <use xlink:href="#m38077eb4f4" x="381.375601" y="296.475656" style="fill: #4c72b0; fill-opacity: 0.8; stroke: #4c72b0; stroke-opacity: 0.8"/>
     <use xlink:href="#m38077eb4f4" x="383.094377" y="363.121417" style="fill: #4c72b0; fill-opacity: 0.8; stroke: #4c72b0; stroke-opacity: 0.8"/>
     <use xlink:href="#m38077eb4f4" x="381.807369" y="66.96" style="fill: #4c72b0; fill-opacity: 0.8; stroke: #4c72b0; stroke-opacity: 0.8"/>
     <use xlink:href="#m38077eb4f4" x="381.486493" y="294.832982" style="fill: #4c72b0; fill-opacity: 0.8; stroke: #4c72b0; stroke-opacity: 0.8"/>
     <use xlink:href="#m38077eb4f4" x="443.744932" y="301.739577" style="fill: #4c72b0; fill-opacity: 0.8; stroke: #4c72b0; stroke-opacity: 0.8"/>
     <use xlink:href="#m38077eb4f4" x="502.703228" y="285.981776" style="fill: #4c72b0; fill-opacity: 0.8; stroke: #4c72b0; stroke-opacity: 0.8"/>
     <use xlink:href="#m38077eb4f4" x="442.567259" y="268.415392" style="fill: #4c72b0; fill-opacity: 0.8; stroke: #4c72b0; stroke-opacity: 0.8"/>
     <use xlink:href="#m38077eb4f4" x="261.498677" y="157.23159" style="fill: #4c72b0; fill-opacity: 0.8; stroke: #4c72b0; stroke-opacity: 0.8"/>
     <use xlink:href="#m38077eb4f4" x="381.281526" y="369.36" style="fill: #4c72b0; fill-opacity: 0.8; stroke: #4c72b0; stroke-opacity: 0.8"/>
     <use xlink:href="#m38077eb4f4" x="626.014572" y="285.982445" style="fill: #4c72b0; fill-opacity: 0.8; stroke: #4c72b0; stroke-opacity: 0.8"/>
     <use xlink:href="#m38077eb4f4" x="381.489876" y="237.765565" style="fill: #4c72b0; fill-opacity: 0.8; stroke: #4c72b0; stroke-opacity: 0.8"/>
     <use xlink:href="#m38077eb4f4" x="382.46475" y="312.257221" style="fill: #4c72b0; fill-opacity: 0.8; stroke: #4c72b0; stroke-opacity: 0.8"/>
     <use xlink:href="#m38077eb4f4" x="382.96876" y="268.548301" style="fill: #4c72b0; fill-opacity: 0.8; stroke: #4c72b0; stroke-opacity: 0.8"/>
     <use xlink:href="#m38077eb4f4" x="747.163636" y="264.150122" style="fill: #4c72b0; fill-opacity: 0.8; stroke: #4c72b0; stroke-opacity: 0.8"/>
     <use xlink:href="#m38077eb4f4" x="381.751812" y="338.583619" style="fill: #4c72b0; fill-opacity: 0.8; stroke: #4c72b0; stroke-opacity: 0.8"/>
    </g>
   </g>
   <g id="PolyCollection_1">
    <defs>
     <path id="m709d8296f0" d="M 139.255657 -164.604414 
L 139.255657 -110.16174 
L 145.390564 -111.115386 
L 151.525472 -112.065256 
L 157.660379 -112.927944 
L 163.795287 -113.765409 
L 169.930194 -114.616198 
L 176.065101 -115.670645 
L 182.200009 -116.745723 
L 188.334916 -117.814154 
L 194.469824 -118.751417 
L 200.604731 -119.731362 
L 206.739639 -120.812972 
L 212.874546 -121.716793 
L 219.009454 -122.621707 
L 225.144361 -123.617715 
L 231.279269 -124.569151 
L 237.414176 -125.472977 
L 243.549084 -126.427747 
L 249.683991 -127.382458 
L 255.818899 -128.246374 
L 261.953806 -129.223537 
L 268.088714 -129.985244 
L 274.223621 -130.756326 
L 280.358529 -131.85293 
L 286.493436 -132.95953 
L 292.628344 -133.679412 
L 298.763251 -134.215463 
L 304.898158 -134.999703 
L 311.033066 -135.836574 
L 317.167973 -136.481778 
L 323.302881 -136.999351 
L 329.437788 -137.910744 
L 335.572696 -138.531586 
L 341.707603 -139.291153 
L 347.842511 -139.982879 
L 353.977418 -140.57697 
L 360.112326 -141.211395 
L 366.247233 -141.81048 
L 372.382141 -142.142043 
L 378.517048 -142.75711 
L 384.651956 -143.173788 
L 390.786863 -143.60711 
L 396.921771 -143.831664 
L 403.056678 -144.371062 
L 409.191586 -144.819495 
L 415.326493 -145.155176 
L 421.4614 -145.389331 
L 427.596308 -145.525997 
L 433.731215 -145.863476 
L 439.866123 -146.097254 
L 446.00103 -146.210633 
L 452.135938 -146.44124 
L 458.270845 -146.467915 
L 464.405753 -146.469333 
L 470.54066 -146.479184 
L 476.675568 -146.46875 
L 482.810475 -146.596873 
L 488.945383 -146.513333 
L 495.08029 -146.510477 
L 501.215198 -146.44743 
L 507.350105 -146.301439 
L 513.485013 -146.250821 
L 519.61992 -146.198471 
L 525.754828 -146.146121 
L 531.889735 -146.093772 
L 538.024643 -145.875474 
L 544.15955 -145.628778 
L 550.294457 -145.380163 
L 556.429365 -145.128409 
L 562.564272 -144.876676 
L 568.69918 -144.701957 
L 574.834087 -144.493561 
L 580.968995 -144.560924 
L 587.103902 -144.575752 
L 593.23881 -144.438662 
L 599.373717 -144.302349 
L 605.508625 -144.169658 
L 611.643532 -144.036967 
L 617.77844 -143.904275 
L 623.913347 -143.771584 
L 630.048255 -143.638893 
L 636.183162 -143.506202 
L 642.31807 -143.34572 
L 648.452977 -143.010796 
L 654.587885 -142.751105 
L 660.722792 -142.677057 
L 666.8577 -142.554074 
L 672.992607 -142.514822 
L 679.127514 -142.432503 
L 685.262422 -142.350184 
L 691.397329 -142.170042 
L 697.532237 -141.935386 
L 703.667144 -141.70073 
L 709.802052 -141.466073 
L 715.936959 -141.231417 
L 722.071867 -140.996761 
L 728.206774 -140.722368 
L 734.341682 -140.52149 
L 740.476589 -140.279533 
L 746.611497 -140.037577 
L 746.611497 -213.905455 
L 746.611497 -213.905455 
L 740.476589 -212.911999 
L 734.341682 -211.918544 
L 728.206774 -210.925089 
L 722.071867 -209.931634 
L 715.936959 -208.824673 
L 709.802052 -207.711751 
L 703.667144 -206.726213 
L 697.532237 -205.740676 
L 691.397329 -204.755138 
L 685.262422 -203.769601 
L 679.127514 -202.784064 
L 672.992607 -201.798526 
L 666.8577 -200.812989 
L 660.722792 -199.972508 
L 654.587885 -198.90044 
L 648.452977 -197.853867 
L 642.31807 -196.866789 
L 636.183162 -195.7966 
L 630.048255 -194.695574 
L 623.913347 -193.750506 
L 617.77844 -192.705283 
L 611.643532 -191.832763 
L 605.508625 -190.954294 
L 599.373717 -189.971607 
L 593.23881 -189.075275 
L 587.103902 -188.001003 
L 580.968995 -186.937648 
L 574.834087 -185.729107 
L 568.69918 -184.636981 
L 562.564272 -183.823267 
L 556.429365 -183.009554 
L 550.294457 -182.116652 
L 544.15955 -181.221609 
L 538.024643 -180.333984 
L 531.889735 -179.499474 
L 525.754828 -178.663976 
L 519.61992 -177.804936 
L 513.485013 -176.921168 
L 507.350105 -176.128283 
L 501.215198 -175.317217 
L 495.08029 -174.356668 
L 488.945383 -173.287376 
L 482.810475 -172.474913 
L 476.675568 -171.60772 
L 470.54066 -170.774063 
L 464.405753 -169.910962 
L 458.270845 -168.980489 
L 452.135938 -168.260838 
L 446.00103 -167.423876 
L 439.866123 -166.677789 
L 433.731215 -166.163051 
L 427.596308 -165.747294 
L 421.4614 -165.184829 
L 415.326493 -164.408129 
L 409.191586 -163.799893 
L 403.056678 -163.017554 
L 396.921771 -162.290567 
L 390.786863 -162.151178 
L 384.651956 -161.881497 
L 378.517048 -161.575717 
L 372.382141 -161.267281 
L 366.247233 -161.038205 
L 360.112326 -160.911289 
L 353.977418 -160.670665 
L 347.842511 -160.328968 
L 341.707603 -160.314096 
L 335.572696 -160.419627 
L 329.437788 -160.297878 
L 323.302881 -160.171248 
L 317.167973 -160.122098 
L 311.033066 -160.226834 
L 304.898158 -160.336398 
L 298.763251 -160.442992 
L 292.628344 -160.496819 
L 286.493436 -160.392557 
L 280.358529 -160.484078 
L 274.223621 -160.636778 
L 268.088714 -160.790996 
L 261.953806 -160.786264 
L 255.818899 -160.764076 
L 249.683991 -160.741889 
L 243.549084 -160.930122 
L 237.414176 -161.409633 
L 231.279269 -161.730336 
L 225.144361 -161.911656 
L 219.009454 -162.069942 
L 212.874546 -162.333851 
L 206.739639 -162.632872 
L 200.604731 -162.762399 
L 194.469824 -162.891354 
L 188.334916 -163.139096 
L 182.200009 -163.292969 
L 176.065101 -163.439525 
L 169.930194 -163.585547 
L 163.795287 -163.740322 
L 157.660379 -164.03883 
L 151.525472 -164.43007 
L 145.390564 -164.517242 
L 139.255657 -164.604414 
z
" style="stroke: #ffffff; stroke-opacity: 0.15"/>
    </defs>
    <g clip-path="url(#p98e6843c67)">
     <use xlink:href="#m709d8296f0" x="0" y="432" style="fill: #4c72b0; fill-opacity: 0.15; stroke: #ffffff; stroke-opacity: 0.15"/>
    </g>
   </g>
   <g id="line2d_15">
    <path d="M 139.255657 296.129975 
L 145.390564 295.711083 
L 151.525472 295.292191 
L 157.660379 294.873299 
L 163.795287 294.454406 
L 169.930194 294.035514 
L 176.065101 293.616622 
L 182.200009 293.197729 
L 188.334916 292.778837 
L 194.469824 292.359945 
L 200.604731 291.941052 
L 206.739639 291.52216 
L 212.874546 291.103268 
L 219.009454 290.684376 
L 225.144361 290.265483 
L 231.279269 289.846591 
L 237.414176 289.427699 
L 243.549084 289.008806 
L 249.683991 288.589914 
L 255.818899 288.171022 
L 261.953806 287.752129 
L 268.088714 287.333237 
L 274.223621 286.914345 
L 280.358529 286.495453 
L 286.493436 286.07656 
L 292.628344 285.657668 
L 298.763251 285.238776 
L 304.898158 284.819883 
L 311.033066 284.400991 
L 317.167973 283.982099 
L 323.302881 283.563206 
L 329.437788 283.144314 
L 335.572696 282.725422 
L 341.707603 282.30653 
L 347.842511 281.887637 
L 353.977418 281.468745 
L 360.112326 281.049853 
L 366.247233 280.63096 
L 372.382141 280.212068 
L 378.517048 279.793176 
L 384.651956 279.374283 
L 390.786863 278.955391 
L 396.921771 278.536499 
L 403.056678 278.117607 
L 409.191586 277.698714 
L 415.326493 277.279822 
L 421.4614 276.86093 
L 427.596308 276.442037 
L 433.731215 276.023145 
L 439.866123 275.604253 
L 446.00103 275.18536 
L 452.135938 274.766468 
L 458.270845 274.347576 
L 464.405753 273.928684 
L 470.54066 273.509791 
L 476.675568 273.090899 
L 482.810475 272.672007 
L 488.945383 272.253114 
L 495.08029 271.834222 
L 501.215198 271.41533 
L 507.350105 270.996437 
L 513.485013 270.577545 
L 519.61992 270.158653 
L 525.754828 269.739761 
L 531.889735 269.320868 
L 538.024643 268.901976 
L 544.15955 268.483084 
L 550.294457 268.064191 
L 556.429365 267.645299 
L 562.564272 267.226407 
L 568.69918 266.807515 
L 574.834087 266.388622 
L 580.968995 265.96973 
L 587.103902 265.550838 
L 593.23881 265.131945 
L 599.373717 264.713053 
L 605.508625 264.294161 
L 611.643532 263.875268 
L 617.77844 263.456376 
L 623.913347 263.037484 
L 630.048255 262.618592 
L 636.183162 262.199699 
L 642.31807 261.780807 
L 648.452977 261.361915 
L 654.587885 260.943022 
L 660.722792 260.52413 
L 666.8577 260.105238 
L 672.992607 259.686345 
L 679.127514 259.267453 
L 685.262422 258.848561 
L 691.397329 258.429669 
L 697.532237 258.010776 
L 703.667144 257.591884 
L 709.802052 257.172992 
L 715.936959 256.754099 
L 722.071867 256.335207 
L 728.206774 255.916315 
L 734.341682 255.497422 
L 740.476589 255.07853 
L 746.611497 254.659638 
" clip-path="url(#p98e6843c67)" style="fill: none; stroke: #4c72b0; stroke-width: 2.25; stroke-linecap: round"/>
   </g>
   <g id="patch_3">
    <path d="M 108 384.48 
L 108 51.84 
" style="fill: none; stroke: #ffffff; stroke-width: 1.25; stroke-linejoin: miter; stroke-linecap: square"/>
   </g>
   <g id="patch_4">
    <path d="M 777.6 384.48 
L 777.6 51.84 
" style="fill: none; stroke: #ffffff; stroke-width: 1.25; stroke-linejoin: miter; stroke-linecap: square"/>
   </g>
   <g id="patch_5">
    <path d="M 108 384.48 
L 777.6 384.48 
" style="fill: none; stroke: #ffffff; stroke-width: 1.25; stroke-linejoin: miter; stroke-linecap: square"/>
   </g>
   <g id="patch_6">
    <path d="M 108 51.84 
L 777.6 51.84 
" style="fill: none; stroke: #ffffff; stroke-width: 1.25; stroke-linejoin: miter; stroke-linecap: square"/>
   </g>
   <g id="text_17">
    <!-- Compensation by Hours Worked (2022) -->
    <g style="fill: #262626" transform="translate(337.197188 45.84)scale(0.12 -0.12)">
     <defs>
      <path id="ArialMT-43" d="M 3763 1606 
L 4369 1453 
Q 4178 706 3683 314 
Q 3188 -78 2472 -78 
Q 1731 -78 1267 223 
Q 803 525 561 1097 
Q 319 1669 319 2325 
Q 319 3041 592 3573 
Q 866 4106 1370 4382 
Q 1875 4659 2481 4659 
Q 3169 4659 3637 4309 
Q 4106 3959 4291 3325 
L 3694 3184 
Q 3534 3684 3231 3912 
Q 2928 4141 2469 4141 
Q 1941 4141 1586 3887 
Q 1231 3634 1087 3207 
Q 944 2781 944 2328 
Q 944 1744 1114 1308 
Q 1284 872 1643 656 
Q 2003 441 2422 441 
Q 2931 441 3284 734 
Q 3638 1028 3763 1606 
z
" transform="scale(0.015625)"/>
      <path id="ArialMT-70" d="M 422 -1272 
L 422 3319 
L 934 3319 
L 934 2888 
Q 1116 3141 1344 3267 
Q 1572 3394 1897 3394 
Q 2322 3394 2647 3175 
Q 2972 2956 3137 2557 
Q 3303 2159 3303 1684 
Q 3303 1175 3120 767 
Q 2938 359 2589 142 
Q 2241 -75 1856 -75 
Q 1575 -75 1351 44 
Q 1128 163 984 344 
L 984 -1272 
L 422 -1272 
z
M 931 1641 
Q 931 1000 1190 694 
Q 1450 388 1819 388 
Q 2194 388 2461 705 
Q 2728 1022 2728 1688 
Q 2728 2322 2467 2637 
Q 2206 2953 1844 2953 
Q 1484 2953 1207 2617 
Q 931 2281 931 1641 
z
" transform="scale(0.015625)"/>
      <path id="ArialMT-62" d="M 941 0 
L 419 0 
L 419 4581 
L 981 4581 
L 981 2947 
Q 1338 3394 1891 3394 
Q 2197 3394 2470 3270 
Q 2744 3147 2920 2923 
Q 3097 2700 3197 2384 
Q 3297 2069 3297 1709 
Q 3297 856 2875 390 
Q 2453 -75 1863 -75 
Q 1275 -75 941 416 
L 941 0 
z
M 934 1684 
Q 934 1088 1097 822 
Q 1363 388 1816 388 
Q 2184 388 2453 708 
Q 2722 1028 2722 1663 
Q 2722 2313 2464 2622 
Q 2206 2931 1841 2931 
Q 1472 2931 1203 2611 
Q 934 2291 934 1684 
z
" transform="scale(0.015625)"/>
      <path id="ArialMT-79" d="M 397 -1278 
L 334 -750 
Q 519 -800 656 -800 
Q 844 -800 956 -737 
Q 1069 -675 1141 -563 
Q 1194 -478 1313 -144 
Q 1328 -97 1363 -6 
L 103 3319 
L 709 3319 
L 1400 1397 
Q 1534 1031 1641 628 
Q 1738 1016 1872 1384 
L 2581 3319 
L 3144 3319 
L 1881 -56 
Q 1678 -603 1566 -809 
Q 1416 -1088 1222 -1217 
Q 1028 -1347 759 -1347 
Q 597 -1347 397 -1278 
z
" transform="scale(0.015625)"/>
     </defs>
     <use xlink:href="#ArialMT-43"/>
     <use xlink:href="#ArialMT-6f" x="72.216797"/>
     <use xlink:href="#ArialMT-6d" x="127.832031"/>
     <use xlink:href="#ArialMT-70" x="211.132812"/>
     <use xlink:href="#ArialMT-65" x="266.748047"/>
     <use xlink:href="#ArialMT-6e" x="322.363281"/>
     <use xlink:href="#ArialMT-73" x="377.978516"/>
     <use xlink:href="#ArialMT-61" x="427.978516"/>
     <use xlink:href="#ArialMT-74" x="483.59375"/>
     <use xlink:href="#ArialMT-69" x="511.376953"/>
     <use xlink:href="#ArialMT-6f" x="533.59375"/>
     <use xlink:href="#ArialMT-6e" x="589.208984"/>
     <use xlink:href="#ArialMT-20" x="644.824219"/>
     <use xlink:href="#ArialMT-62" x="672.607422"/>
     <use xlink:href="#ArialMT-79" x="728.222656"/>
     <use xlink:href="#ArialMT-20" x="778.222656"/>
     <use xlink:href="#ArialMT-48" x="806.005859"/>
     <use xlink:href="#ArialMT-6f" x="878.222656"/>
     <use xlink:href="#ArialMT-75" x="933.837891"/>
     <use xlink:href="#ArialMT-72" x="989.453125"/>
     <use xlink:href="#ArialMT-73" x="1022.753906"/>
     <use xlink:href="#ArialMT-20" x="1072.753906"/>
     <use xlink:href="#ArialMT-57" x="1100.537109"/>
     <use xlink:href="#ArialMT-6f" x="1193.171875"/>
     <use xlink:href="#ArialMT-72" x="1248.787109"/>
     <use xlink:href="#ArialMT-6b" x="1282.087891"/>
     <use xlink:href="#ArialMT-65" x="1332.087891"/>
     <use xlink:href="#ArialMT-64" x="1387.703125"/>
     <use xlink:href="#ArialMT-20" x="1443.318359"/>
     <use xlink:href="#ArialMT-28" x="1471.101562"/>
     <use xlink:href="#ArialMT-32" x="1504.402344"/>
     <use xlink:href="#ArialMT-30" x="1560.017578"/>
     <use xlink:href="#ArialMT-32" x="1615.632812"/>
     <use xlink:href="#ArialMT-32" x="1671.248047"/>
     <use xlink:href="#ArialMT-29" x="1726.863281"/>
    </g>
   </g>
  </g>
 </g>
 <defs>
  <clipPath id="p98e6843c67">
   <rect x="108" y="51.84" width="669.6" height="332.64"/>
  </clipPath>
 </defs>
</svg>
