<?xml version="1.0" encoding="utf-8" standalone="no"?>
<!DOCTYPE svg PUBLIC "-//W3C//DTD SVG 1.1//EN"
  "http://www.w3.org/Graphics/SVG/1.1/DTD/svg11.dtd">
<svg xmlns:xlink="http://www.w3.org/1999/xlink" width="460.8pt" height="345.6pt" viewBox="0 0 460.8 345.6" xmlns="http://www.w3.org/2000/svg" version="1.1">
 <metadata>
  <rdf:RDF xmlns:dc="http://purl.org/dc/elements/1.1/" xmlns:cc="http://creativecommons.org/ns#" xmlns:rdf="http://www.w3.org/1999/02/22-rdf-syntax-ns#">
   <cc:Work>
    <dc:type rdf:resource="http://purl.org/dc/dcmitype/StillImage"/>
    <dc:date>2023-02-27T12:51:00.722041</dc:date>
    <dc:format>image/svg+xml</dc:format>
    <dc:creator>
     <cc:Agent>
      <dc:title>Matplotlib v3.5.2, https://matplotlib.org/</dc:title>
     </cc:Agent>
    </dc:creator>
   </cc:Work>
  </rdf:RDF>
 </metadata>
 <defs>
  <style type="text/css">*{stroke-linejoin: round; stroke-linecap: butt}</style>
 </defs>
 <g id="figure_1">
  <g id="patch_1">
   <path d="M 0 345.6 
L 460.8 345.6 
L 460.8 0 
L 0 0 
z
" style="fill: #ffffff"/>
  </g>
  <g id="axes_1">
   <g id="matplotlib.axis_1"/>
   <g id="matplotlib.axis_2"/>
   <g id="patch_2">
    <path d="M 160.438738 266.591103 
C 173.936876 277.917386 189.794339 286.089472 206.851469 290.509737 
C 223.9086 294.930001 241.739213 295.488 259.039355 292.142927 
C 276.339497 288.797854 292.676911 281.633289 306.856843 271.173175 
C 321.036775 260.713062 332.704927 247.218755 341.008008 231.677092 
C 349.311089 216.135429 354.04164 198.934731 354.853715 181.332886 
C 355.665791 163.73104 352.5391 146.167842 345.702299 129.927689 
C 338.865498 113.687536 328.489409 99.176199 315.332835 87.454894 
C 302.176261 75.733589 286.56793 67.09518 269.649278 62.171395 
L 236.558389 175.875235 
L 160.438738 266.591103 
z
" style="fill: #4c72b0; stroke: #ffffff; stroke-linejoin: miter"/>
   </g>
   <g id="patch_3">
    <path d="M 269.649278 62.171395 
C 240.08709 53.568 208.304603 56.823838 181.100815 71.242413 
C 153.897026 85.660987 133.360719 110.135199 123.885077 139.429458 
L 236.558389 175.875235 
L 269.649278 62.171395 
z
" style="fill: #dd8452; stroke: #ffffff; stroke-linejoin: miter"/>
   </g>
   <g id="patch_4">
    <path d="M 123.885077 139.429458 
C 118.09733 157.322466 116.654209 176.339424 119.67557 194.900921 
C 122.696931 213.462417 130.096748 231.039959 141.260446 246.173684 
L 236.558389 175.875235 
L 123.885077 139.429458 
z
" style="fill: #55a868; stroke: #ffffff; stroke-linejoin: miter"/>
   </g>
   <g id="patch_5">
    <path d="M 141.260446 246.173684 
C 144.039235 249.940665 147.038935 253.539572 150.243753 256.951456 
C 153.448571 260.363341 156.852871 263.582203 160.438729 266.591096 
L 236.558389 175.875235 
L 141.260446 246.173684 
z
" style="fill: #c44e52; stroke: #ffffff; stroke-linejoin: miter"/>
   </g>
   <g id="text_1">
    <!-- Hiring for Growth -->
    <g style="fill: #262626" transform="translate(346.230489 237.313435)scale(0.11 -0.11)">
     <defs>
      <path id="ArialMT-48" d="M 513 0 
L 513 4581 
L 1119 4581 
L 1119 2700 
L 3500 2700 
L 3500 4581 
L 4106 4581 
L 4106 0 
L 3500 0 
L 3500 2159 
L 1119 2159 
L 1119 0 
L 513 0 
z
" transform="scale(0.015625)"/>
      <path id="ArialMT-69" d="M 425 3934 
L 425 4581 
L 988 4581 
L 988 3934 
L 425 3934 
z
M 425 0 
L 425 3319 
L 988 3319 
L 988 0 
L 425 0 
z
" transform="scale(0.015625)"/>
      <path id="ArialMT-72" d="M 416 0 
L 416 3319 
L 922 3319 
L 922 2816 
Q 1116 3169 1280 3281 
Q 1444 3394 1641 3394 
Q 1925 3394 2219 3213 
L 2025 2691 
Q 1819 2813 1613 2813 
Q 1428 2813 1281 2702 
Q 1134 2591 1072 2394 
Q 978 2094 978 1738 
L 978 0 
L 416 0 
z
" transform="scale(0.015625)"/>
      <path id="ArialMT-6e" d="M 422 0 
L 422 3319 
L 928 3319 
L 928 2847 
Q 1294 3394 1984 3394 
Q 2284 3394 2536 3286 
Q 2788 3178 2913 3003 
Q 3038 2828 3088 2588 
Q 3119 2431 3119 2041 
L 3119 0 
L 2556 0 
L 2556 2019 
Q 2556 2363 2490 2533 
Q 2425 2703 2258 2804 
Q 2091 2906 1866 2906 
Q 1506 2906 1245 2678 
Q 984 2450 984 1813 
L 984 0 
L 422 0 
z
" transform="scale(0.015625)"/>
      <path id="ArialMT-67" d="M 319 -275 
L 866 -356 
Q 900 -609 1056 -725 
Q 1266 -881 1628 -881 
Q 2019 -881 2231 -725 
Q 2444 -569 2519 -288 
Q 2563 -116 2559 434 
Q 2191 0 1641 0 
Q 956 0 581 494 
Q 206 988 206 1678 
Q 206 2153 378 2554 
Q 550 2956 876 3175 
Q 1203 3394 1644 3394 
Q 2231 3394 2613 2919 
L 2613 3319 
L 3131 3319 
L 3131 450 
Q 3131 -325 2973 -648 
Q 2816 -972 2473 -1159 
Q 2131 -1347 1631 -1347 
Q 1038 -1347 672 -1080 
Q 306 -813 319 -275 
z
M 784 1719 
Q 784 1066 1043 766 
Q 1303 466 1694 466 
Q 2081 466 2343 764 
Q 2606 1063 2606 1700 
Q 2606 2309 2336 2618 
Q 2066 2928 1684 2928 
Q 1309 2928 1046 2623 
Q 784 2319 784 1719 
z
" transform="scale(0.015625)"/>
      <path id="ArialMT-20" transform="scale(0.015625)"/>
      <path id="ArialMT-66" d="M 556 0 
L 556 2881 
L 59 2881 
L 59 3319 
L 556 3319 
L 556 3672 
Q 556 4006 616 4169 
Q 697 4388 901 4523 
Q 1106 4659 1475 4659 
Q 1713 4659 2000 4603 
L 1916 4113 
Q 1741 4144 1584 4144 
Q 1328 4144 1222 4034 
Q 1116 3925 1116 3625 
L 1116 3319 
L 1763 3319 
L 1763 2881 
L 1116 2881 
L 1116 0 
L 556 0 
z
" transform="scale(0.015625)"/>
      <path id="ArialMT-6f" d="M 213 1659 
Q 213 2581 725 3025 
Q 1153 3394 1769 3394 
Q 2453 3394 2887 2945 
Q 3322 2497 3322 1706 
Q 3322 1066 3130 698 
Q 2938 331 2570 128 
Q 2203 -75 1769 -75 
Q 1072 -75 642 372 
Q 213 819 213 1659 
z
M 791 1659 
Q 791 1022 1069 705 
Q 1347 388 1769 388 
Q 2188 388 2466 706 
Q 2744 1025 2744 1678 
Q 2744 2294 2464 2611 
Q 2184 2928 1769 2928 
Q 1347 2928 1069 2612 
Q 791 2297 791 1659 
z
" transform="scale(0.015625)"/>
      <path id="ArialMT-47" d="M 2638 1797 
L 2638 2334 
L 4578 2338 
L 4578 638 
Q 4131 281 3656 101 
Q 3181 -78 2681 -78 
Q 2006 -78 1454 211 
Q 903 500 622 1047 
Q 341 1594 341 2269 
Q 341 2938 620 3517 
Q 900 4097 1425 4378 
Q 1950 4659 2634 4659 
Q 3131 4659 3532 4498 
Q 3934 4338 4162 4050 
Q 4391 3763 4509 3300 
L 3963 3150 
Q 3859 3500 3706 3700 
Q 3553 3900 3268 4020 
Q 2984 4141 2638 4141 
Q 2222 4141 1919 4014 
Q 1616 3888 1430 3681 
Q 1244 3475 1141 3228 
Q 966 2803 966 2306 
Q 966 1694 1177 1281 
Q 1388 869 1791 669 
Q 2194 469 2647 469 
Q 3041 469 3416 620 
Q 3791 772 3984 944 
L 3984 1797 
L 2638 1797 
z
" transform="scale(0.015625)"/>
      <path id="ArialMT-77" d="M 1034 0 
L 19 3319 
L 600 3319 
L 1128 1403 
L 1325 691 
Q 1338 744 1497 1375 
L 2025 3319 
L 2603 3319 
L 3100 1394 
L 3266 759 
L 3456 1400 
L 4025 3319 
L 4572 3319 
L 3534 0 
L 2950 0 
L 2422 1988 
L 2294 2553 
L 1622 0 
L 1034 0 
z
" transform="scale(0.015625)"/>
      <path id="ArialMT-74" d="M 1650 503 
L 1731 6 
Q 1494 -44 1306 -44 
Q 1000 -44 831 53 
Q 663 150 594 308 
Q 525 466 525 972 
L 525 2881 
L 113 2881 
L 113 3319 
L 525 3319 
L 525 4141 
L 1084 4478 
L 1084 3319 
L 1650 3319 
L 1650 2881 
L 1084 2881 
L 1084 941 
Q 1084 700 1114 631 
Q 1144 563 1211 522 
Q 1278 481 1403 481 
Q 1497 481 1650 503 
z
" transform="scale(0.015625)"/>
      <path id="ArialMT-68" d="M 422 0 
L 422 4581 
L 984 4581 
L 984 2938 
Q 1378 3394 1978 3394 
Q 2347 3394 2619 3248 
Q 2891 3103 3008 2847 
Q 3125 2591 3125 2103 
L 3125 0 
L 2563 0 
L 2563 2103 
Q 2563 2525 2380 2717 
Q 2197 2909 1863 2909 
Q 1613 2909 1392 2779 
Q 1172 2650 1078 2428 
Q 984 2206 984 1816 
L 984 0 
L 422 0 
z
" transform="scale(0.015625)"/>
     </defs>
     <use xlink:href="#ArialMT-48"/>
     <use xlink:href="#ArialMT-69" x="72.216797"/>
     <use xlink:href="#ArialMT-72" x="94.433594"/>
     <use xlink:href="#ArialMT-69" x="127.734375"/>
     <use xlink:href="#ArialMT-6e" x="149.951172"/>
     <use xlink:href="#ArialMT-67" x="205.566406"/>
     <use xlink:href="#ArialMT-20" x="261.181641"/>
     <use xlink:href="#ArialMT-66" x="288.964844"/>
     <use xlink:href="#ArialMT-6f" x="316.748047"/>
     <use xlink:href="#ArialMT-72" x="372.363281"/>
     <use xlink:href="#ArialMT-20" x="405.664062"/>
     <use xlink:href="#ArialMT-47" x="433.447266"/>
     <use xlink:href="#ArialMT-72" x="511.230469"/>
     <use xlink:href="#ArialMT-6f" x="544.53125"/>
     <use xlink:href="#ArialMT-77" x="600.146484"/>
     <use xlink:href="#ArialMT-74" x="672.363281"/>
     <use xlink:href="#ArialMT-68" x="700.146484"/>
    </g>
   </g>
   <g id="text_2">
    <!-- Hiring Replacements -->
    <g style="fill: #262626" transform="translate(76.234186 68.78999)scale(0.11 -0.11)">
     <defs>
      <path id="ArialMT-52" d="M 503 0 
L 503 4581 
L 2534 4581 
Q 3147 4581 3465 4457 
Q 3784 4334 3975 4021 
Q 4166 3709 4166 3331 
Q 4166 2844 3850 2509 
Q 3534 2175 2875 2084 
Q 3116 1969 3241 1856 
Q 3506 1613 3744 1247 
L 4541 0 
L 3778 0 
L 3172 953 
Q 2906 1366 2734 1584 
Q 2563 1803 2427 1890 
Q 2291 1978 2150 2013 
Q 2047 2034 1813 2034 
L 1109 2034 
L 1109 0 
L 503 0 
z
M 1109 2559 
L 2413 2559 
Q 2828 2559 3062 2645 
Q 3297 2731 3419 2920 
Q 3541 3109 3541 3331 
Q 3541 3656 3305 3865 
Q 3069 4075 2559 4075 
L 1109 4075 
L 1109 2559 
z
" transform="scale(0.015625)"/>
      <path id="ArialMT-65" d="M 2694 1069 
L 3275 997 
Q 3138 488 2766 206 
Q 2394 -75 1816 -75 
Q 1088 -75 661 373 
Q 234 822 234 1631 
Q 234 2469 665 2931 
Q 1097 3394 1784 3394 
Q 2450 3394 2872 2941 
Q 3294 2488 3294 1666 
Q 3294 1616 3291 1516 
L 816 1516 
Q 847 969 1125 678 
Q 1403 388 1819 388 
Q 2128 388 2347 550 
Q 2566 713 2694 1069 
z
M 847 1978 
L 2700 1978 
Q 2663 2397 2488 2606 
Q 2219 2931 1791 2931 
Q 1403 2931 1139 2672 
Q 875 2413 847 1978 
z
" transform="scale(0.015625)"/>
      <path id="ArialMT-70" d="M 422 -1272 
L 422 3319 
L 934 3319 
L 934 2888 
Q 1116 3141 1344 3267 
Q 1572 3394 1897 3394 
Q 2322 3394 2647 3175 
Q 2972 2956 3137 2557 
Q 3303 2159 3303 1684 
Q 3303 1175 3120 767 
Q 2938 359 2589 142 
Q 2241 -75 1856 -75 
Q 1575 -75 1351 44 
Q 1128 163 984 344 
L 984 -1272 
L 422 -1272 
z
M 931 1641 
Q 931 1000 1190 694 
Q 1450 388 1819 388 
Q 2194 388 2461 705 
Q 2728 1022 2728 1688 
Q 2728 2322 2467 2637 
Q 2206 2953 1844 2953 
Q 1484 2953 1207 2617 
Q 931 2281 931 1641 
z
" transform="scale(0.015625)"/>
      <path id="ArialMT-6c" d="M 409 0 
L 409 4581 
L 972 4581 
L 972 0 
L 409 0 
z
" transform="scale(0.015625)"/>
      <path id="ArialMT-61" d="M 2588 409 
Q 2275 144 1986 34 
Q 1697 -75 1366 -75 
Q 819 -75 525 192 
Q 231 459 231 875 
Q 231 1119 342 1320 
Q 453 1522 633 1644 
Q 813 1766 1038 1828 
Q 1203 1872 1538 1913 
Q 2219 1994 2541 2106 
Q 2544 2222 2544 2253 
Q 2544 2597 2384 2738 
Q 2169 2928 1744 2928 
Q 1347 2928 1158 2789 
Q 969 2650 878 2297 
L 328 2372 
Q 403 2725 575 2942 
Q 747 3159 1072 3276 
Q 1397 3394 1825 3394 
Q 2250 3394 2515 3294 
Q 2781 3194 2906 3042 
Q 3031 2891 3081 2659 
Q 3109 2516 3109 2141 
L 3109 1391 
Q 3109 606 3145 398 
Q 3181 191 3288 0 
L 2700 0 
Q 2613 175 2588 409 
z
M 2541 1666 
Q 2234 1541 1622 1453 
Q 1275 1403 1131 1340 
Q 988 1278 909 1158 
Q 831 1038 831 891 
Q 831 666 1001 516 
Q 1172 366 1500 366 
Q 1825 366 2078 508 
Q 2331 650 2450 897 
Q 2541 1088 2541 1459 
L 2541 1666 
z
" transform="scale(0.015625)"/>
      <path id="ArialMT-63" d="M 2588 1216 
L 3141 1144 
Q 3050 572 2676 248 
Q 2303 -75 1759 -75 
Q 1078 -75 664 370 
Q 250 816 250 1647 
Q 250 2184 428 2587 
Q 606 2991 970 3192 
Q 1334 3394 1763 3394 
Q 2303 3394 2647 3120 
Q 2991 2847 3088 2344 
L 2541 2259 
Q 2463 2594 2264 2762 
Q 2066 2931 1784 2931 
Q 1359 2931 1093 2626 
Q 828 2322 828 1663 
Q 828 994 1084 691 
Q 1341 388 1753 388 
Q 2084 388 2306 591 
Q 2528 794 2588 1216 
z
" transform="scale(0.015625)"/>
      <path id="ArialMT-6d" d="M 422 0 
L 422 3319 
L 925 3319 
L 925 2853 
Q 1081 3097 1340 3245 
Q 1600 3394 1931 3394 
Q 2300 3394 2536 3241 
Q 2772 3088 2869 2813 
Q 3263 3394 3894 3394 
Q 4388 3394 4653 3120 
Q 4919 2847 4919 2278 
L 4919 0 
L 4359 0 
L 4359 2091 
Q 4359 2428 4304 2576 
Q 4250 2725 4106 2815 
Q 3963 2906 3769 2906 
Q 3419 2906 3187 2673 
Q 2956 2441 2956 1928 
L 2956 0 
L 2394 0 
L 2394 2156 
Q 2394 2531 2256 2718 
Q 2119 2906 1806 2906 
Q 1569 2906 1367 2781 
Q 1166 2656 1075 2415 
Q 984 2175 984 1722 
L 984 0 
L 422 0 
z
" transform="scale(0.015625)"/>
      <path id="ArialMT-73" d="M 197 991 
L 753 1078 
Q 800 744 1014 566 
Q 1228 388 1613 388 
Q 2000 388 2187 545 
Q 2375 703 2375 916 
Q 2375 1106 2209 1216 
Q 2094 1291 1634 1406 
Q 1016 1563 777 1677 
Q 538 1791 414 1992 
Q 291 2194 291 2438 
Q 291 2659 392 2848 
Q 494 3038 669 3163 
Q 800 3259 1026 3326 
Q 1253 3394 1513 3394 
Q 1903 3394 2198 3281 
Q 2494 3169 2634 2976 
Q 2775 2784 2828 2463 
L 2278 2388 
Q 2241 2644 2061 2787 
Q 1881 2931 1553 2931 
Q 1166 2931 1000 2803 
Q 834 2675 834 2503 
Q 834 2394 903 2306 
Q 972 2216 1119 2156 
Q 1203 2125 1616 2013 
Q 2213 1853 2448 1751 
Q 2684 1650 2818 1456 
Q 2953 1263 2953 975 
Q 2953 694 2789 445 
Q 2625 197 2315 61 
Q 2006 -75 1616 -75 
Q 969 -75 630 194 
Q 291 463 197 991 
z
" transform="scale(0.015625)"/>
     </defs>
     <use xlink:href="#ArialMT-48"/>
     <use xlink:href="#ArialMT-69" x="72.216797"/>
     <use xlink:href="#ArialMT-72" x="94.433594"/>
     <use xlink:href="#ArialMT-69" x="127.734375"/>
     <use xlink:href="#ArialMT-6e" x="149.951172"/>
     <use xlink:href="#ArialMT-67" x="205.566406"/>
     <use xlink:href="#ArialMT-20" x="261.181641"/>
     <use xlink:href="#ArialMT-52" x="288.964844"/>
     <use xlink:href="#ArialMT-65" x="361.181641"/>
     <use xlink:href="#ArialMT-70" x="416.796875"/>
     <use xlink:href="#ArialMT-6c" x="472.412109"/>
     <use xlink:href="#ArialMT-61" x="494.628906"/>
     <use xlink:href="#ArialMT-63" x="550.244141"/>
     <use xlink:href="#ArialMT-65" x="600.244141"/>
     <use xlink:href="#ArialMT-6d" x="655.859375"/>
     <use xlink:href="#ArialMT-65" x="739.160156"/>
     <use xlink:href="#ArialMT-6e" x="794.775391"/>
     <use xlink:href="#ArialMT-74" x="850.390625"/>
     <use xlink:href="#ArialMT-73" x="878.173828"/>
    </g>
   </g>
   <g id="text_3">
    <!-- Hiring Freeze -->
    <g style="fill: #262626" transform="translate(47.814242 198.631424)scale(0.11 -0.11)">
     <defs>
      <path id="ArialMT-46" d="M 525 0 
L 525 4581 
L 3616 4581 
L 3616 4041 
L 1131 4041 
L 1131 2622 
L 3281 2622 
L 3281 2081 
L 1131 2081 
L 1131 0 
L 525 0 
z
" transform="scale(0.015625)"/>
      <path id="ArialMT-7a" d="M 125 0 
L 125 456 
L 2238 2881 
Q 1878 2863 1603 2863 
L 250 2863 
L 250 3319 
L 2963 3319 
L 2963 2947 
L 1166 841 
L 819 456 
Q 1197 484 1528 484 
L 3063 484 
L 3063 0 
L 125 0 
z
" transform="scale(0.015625)"/>
     </defs>
     <use xlink:href="#ArialMT-48"/>
     <use xlink:href="#ArialMT-69" x="72.216797"/>
     <use xlink:href="#ArialMT-72" x="94.433594"/>
     <use xlink:href="#ArialMT-69" x="127.734375"/>
     <use xlink:href="#ArialMT-6e" x="149.951172"/>
     <use xlink:href="#ArialMT-67" x="205.566406"/>
     <use xlink:href="#ArialMT-20" x="261.181641"/>
     <use xlink:href="#ArialMT-46" x="288.964844"/>
     <use xlink:href="#ArialMT-72" x="350.048828"/>
     <use xlink:href="#ArialMT-65" x="383.349609"/>
     <use xlink:href="#ArialMT-65" x="438.964844"/>
     <use xlink:href="#ArialMT-7a" x="494.580078"/>
     <use xlink:href="#ArialMT-65" x="544.580078"/>
    </g>
   </g>
   <g id="text_4">
    <!-- Recent Layoffs -->
    <g style="fill: #262626" transform="translate(72.750521 263.851517)scale(0.11 -0.11)">
     <defs>
      <path id="ArialMT-4c" d="M 469 0 
L 469 4581 
L 1075 4581 
L 1075 541 
L 3331 541 
L 3331 0 
L 469 0 
z
" transform="scale(0.015625)"/>
      <path id="ArialMT-79" d="M 397 -1278 
L 334 -750 
Q 519 -800 656 -800 
Q 844 -800 956 -737 
Q 1069 -675 1141 -563 
Q 1194 -478 1313 -144 
Q 1328 -97 1363 -6 
L 103 3319 
L 709 3319 
L 1400 1397 
Q 1534 1031 1641 628 
Q 1738 1016 1872 1384 
L 2581 3319 
L 3144 3319 
L 1881 -56 
Q 1678 -603 1566 -809 
Q 1416 -1088 1222 -1217 
Q 1028 -1347 759 -1347 
Q 597 -1347 397 -1278 
z
" transform="scale(0.015625)"/>
     </defs>
     <use xlink:href="#ArialMT-52"/>
     <use xlink:href="#ArialMT-65" x="72.216797"/>
     <use xlink:href="#ArialMT-63" x="127.832031"/>
     <use xlink:href="#ArialMT-65" x="177.832031"/>
     <use xlink:href="#ArialMT-6e" x="233.447266"/>
     <use xlink:href="#ArialMT-74" x="289.0625"/>
     <use xlink:href="#ArialMT-20" x="316.845703"/>
     <use xlink:href="#ArialMT-4c" x="344.628906"/>
     <use xlink:href="#ArialMT-61" x="400.244141"/>
     <use xlink:href="#ArialMT-79" x="455.859375"/>
     <use xlink:href="#ArialMT-6f" x="505.859375"/>
     <use xlink:href="#ArialMT-66" x="561.474609"/>
     <use xlink:href="#ArialMT-66" x="587.507812"/>
     <use xlink:href="#ArialMT-73" x="615.291016"/>
    </g>
   </g>
   <g id="text_5">
    <!-- Are Our Employers Hiring? -->
    <g style="fill: #262626" transform="translate(164.474063 35.472)scale(0.12 -0.12)">
     <defs>
      <path id="ArialMT-41" d="M -9 0 
L 1750 4581 
L 2403 4581 
L 4278 0 
L 3588 0 
L 3053 1388 
L 1138 1388 
L 634 0 
L -9 0 
z
M 1313 1881 
L 2866 1881 
L 2388 3150 
Q 2169 3728 2063 4100 
Q 1975 3659 1816 3225 
L 1313 1881 
z
" transform="scale(0.015625)"/>
      <path id="ArialMT-4f" d="M 309 2231 
Q 309 3372 921 4017 
Q 1534 4663 2503 4663 
Q 3138 4663 3647 4359 
Q 4156 4056 4423 3514 
Q 4691 2972 4691 2284 
Q 4691 1588 4409 1038 
Q 4128 488 3612 205 
Q 3097 -78 2500 -78 
Q 1853 -78 1343 234 
Q 834 547 571 1087 
Q 309 1628 309 2231 
z
M 934 2222 
Q 934 1394 1379 917 
Q 1825 441 2497 441 
Q 3181 441 3623 922 
Q 4066 1403 4066 2288 
Q 4066 2847 3877 3264 
Q 3688 3681 3323 3911 
Q 2959 4141 2506 4141 
Q 1863 4141 1398 3698 
Q 934 3256 934 2222 
z
" transform="scale(0.015625)"/>
      <path id="ArialMT-75" d="M 2597 0 
L 2597 488 
Q 2209 -75 1544 -75 
Q 1250 -75 995 37 
Q 741 150 617 320 
Q 494 491 444 738 
Q 409 903 409 1263 
L 409 3319 
L 972 3319 
L 972 1478 
Q 972 1038 1006 884 
Q 1059 663 1231 536 
Q 1403 409 1656 409 
Q 1909 409 2131 539 
Q 2353 669 2445 892 
Q 2538 1116 2538 1541 
L 2538 3319 
L 3100 3319 
L 3100 0 
L 2597 0 
z
" transform="scale(0.015625)"/>
      <path id="ArialMT-45" d="M 506 0 
L 506 4581 
L 3819 4581 
L 3819 4041 
L 1113 4041 
L 1113 2638 
L 3647 2638 
L 3647 2100 
L 1113 2100 
L 1113 541 
L 3925 541 
L 3925 0 
L 506 0 
z
" transform="scale(0.015625)"/>
      <path id="ArialMT-3f" d="M 1475 1128 
Q 1472 1241 1472 1297 
Q 1472 1628 1566 1869 
Q 1634 2050 1788 2234 
Q 1900 2369 2192 2626 
Q 2484 2884 2571 3037 
Q 2659 3191 2659 3372 
Q 2659 3700 2403 3948 
Q 2147 4197 1775 4197 
Q 1416 4197 1175 3972 
Q 934 3747 859 3269 
L 281 3338 
Q 359 3978 745 4318 
Q 1131 4659 1766 4659 
Q 2438 4659 2838 4293 
Q 3238 3928 3238 3409 
Q 3238 3109 3097 2856 
Q 2956 2603 2547 2241 
Q 2272 1997 2187 1881 
Q 2103 1766 2062 1616 
Q 2022 1466 2016 1128 
L 1475 1128 
z
M 1441 0 
L 1441 641 
L 2081 641 
L 2081 0 
L 1441 0 
z
" transform="scale(0.015625)"/>
     </defs>
     <use xlink:href="#ArialMT-41"/>
     <use xlink:href="#ArialMT-72" x="66.699219"/>
     <use xlink:href="#ArialMT-65" x="100"/>
     <use xlink:href="#ArialMT-20" x="155.615234"/>
     <use xlink:href="#ArialMT-4f" x="183.398438"/>
     <use xlink:href="#ArialMT-75" x="261.181641"/>
     <use xlink:href="#ArialMT-72" x="316.796875"/>
     <use xlink:href="#ArialMT-20" x="350.097656"/>
     <use xlink:href="#ArialMT-45" x="377.880859"/>
     <use xlink:href="#ArialMT-6d" x="444.580078"/>
     <use xlink:href="#ArialMT-70" x="527.880859"/>
     <use xlink:href="#ArialMT-6c" x="583.496094"/>
     <use xlink:href="#ArialMT-6f" x="605.712891"/>
     <use xlink:href="#ArialMT-79" x="661.328125"/>
     <use xlink:href="#ArialMT-65" x="711.328125"/>
     <use xlink:href="#ArialMT-72" x="766.943359"/>
     <use xlink:href="#ArialMT-73" x="800.244141"/>
     <use xlink:href="#ArialMT-20" x="850.244141"/>
     <use xlink:href="#ArialMT-48" x="878.027344"/>
     <use xlink:href="#ArialMT-69" x="950.244141"/>
     <use xlink:href="#ArialMT-72" x="972.460938"/>
     <use xlink:href="#ArialMT-69" x="1005.761719"/>
     <use xlink:href="#ArialMT-6e" x="1027.978516"/>
     <use xlink:href="#ArialMT-67" x="1083.59375"/>
     <use xlink:href="#ArialMT-3f" x="1139.208984"/>
    </g>
   </g>
   <g id="legend_1">
    <g id="patch_6">
     <path d="M 272.8075 93.902 
L 409.12 93.902 
Q 410.72 93.902 410.72 92.302 
L 410.72 47.072 
Q 410.72 45.472 409.12 45.472 
L 272.8075 45.472 
Q 271.2075 45.472 271.2075 47.072 
L 271.2075 92.302 
Q 271.2075 93.902 272.8075 93.902 
z
" style="fill: #eaeaf2; opacity: 0.8; stroke: #cccccc; stroke-linejoin: miter"/>
    </g>
    <g id="patch_7">
     <path d="M 274.4075 54.49575 
L 290.4075 54.49575 
L 290.4075 48.89575 
L 274.4075 48.89575 
z
" style="fill: #4c72b0; stroke: #ffffff; stroke-linejoin: miter"/>
    </g>
    <g id="text_6">
     <!-- Hiring for Growth - 56.60 % -->
     <g style="fill: #262626" transform="translate(296.8075 54.49575)scale(0.08 -0.08)">
      <defs>
       <path id="ArialMT-2d" d="M 203 1375 
L 203 1941 
L 1931 1941 
L 1931 1375 
L 203 1375 
z
" transform="scale(0.015625)"/>
       <path id="ArialMT-35" d="M 266 1200 
L 856 1250 
Q 922 819 1161 601 
Q 1400 384 1738 384 
Q 2144 384 2425 690 
Q 2706 997 2706 1503 
Q 2706 1984 2436 2262 
Q 2166 2541 1728 2541 
Q 1456 2541 1237 2417 
Q 1019 2294 894 2097 
L 366 2166 
L 809 4519 
L 3088 4519 
L 3088 3981 
L 1259 3981 
L 1013 2750 
Q 1425 3038 1878 3038 
Q 2478 3038 2890 2622 
Q 3303 2206 3303 1553 
Q 3303 931 2941 478 
Q 2500 -78 1738 -78 
Q 1113 -78 717 272 
Q 322 622 266 1200 
z
" transform="scale(0.015625)"/>
       <path id="ArialMT-36" d="M 3184 3459 
L 2625 3416 
Q 2550 3747 2413 3897 
Q 2184 4138 1850 4138 
Q 1581 4138 1378 3988 
Q 1113 3794 959 3422 
Q 806 3050 800 2363 
Q 1003 2672 1297 2822 
Q 1591 2972 1913 2972 
Q 2475 2972 2870 2558 
Q 3266 2144 3266 1488 
Q 3266 1056 3080 686 
Q 2894 316 2569 119 
Q 2244 -78 1831 -78 
Q 1128 -78 684 439 
Q 241 956 241 2144 
Q 241 3472 731 4075 
Q 1159 4600 1884 4600 
Q 2425 4600 2770 4297 
Q 3116 3994 3184 3459 
z
M 888 1484 
Q 888 1194 1011 928 
Q 1134 663 1356 523 
Q 1578 384 1822 384 
Q 2178 384 2434 671 
Q 2691 959 2691 1453 
Q 2691 1928 2437 2201 
Q 2184 2475 1800 2475 
Q 1419 2475 1153 2201 
Q 888 1928 888 1484 
z
" transform="scale(0.015625)"/>
       <path id="ArialMT-2e" d="M 581 0 
L 581 641 
L 1222 641 
L 1222 0 
L 581 0 
z
" transform="scale(0.015625)"/>
       <path id="ArialMT-30" d="M 266 2259 
Q 266 3072 433 3567 
Q 600 4063 929 4331 
Q 1259 4600 1759 4600 
Q 2128 4600 2406 4451 
Q 2684 4303 2865 4023 
Q 3047 3744 3150 3342 
Q 3253 2941 3253 2259 
Q 3253 1453 3087 958 
Q 2922 463 2592 192 
Q 2263 -78 1759 -78 
Q 1097 -78 719 397 
Q 266 969 266 2259 
z
M 844 2259 
Q 844 1131 1108 757 
Q 1372 384 1759 384 
Q 2147 384 2411 759 
Q 2675 1134 2675 2259 
Q 2675 3391 2411 3762 
Q 2147 4134 1753 4134 
Q 1366 4134 1134 3806 
Q 844 3388 844 2259 
z
" transform="scale(0.015625)"/>
       <path id="ArialMT-25" d="M 372 3481 
Q 372 3972 619 4315 
Q 866 4659 1334 4659 
Q 1766 4659 2048 4351 
Q 2331 4044 2331 3447 
Q 2331 2866 2045 2552 
Q 1759 2238 1341 2238 
Q 925 2238 648 2547 
Q 372 2856 372 3481 
z
M 1350 4272 
Q 1141 4272 1002 4090 
Q 863 3909 863 3425 
Q 863 2984 1003 2804 
Q 1144 2625 1350 2625 
Q 1563 2625 1702 2806 
Q 1841 2988 1841 3469 
Q 1841 3913 1700 4092 
Q 1559 4272 1350 4272 
z
M 1353 -169 
L 3859 4659 
L 4316 4659 
L 1819 -169 
L 1353 -169 
z
M 3334 1075 
Q 3334 1569 3581 1911 
Q 3828 2253 4300 2253 
Q 4731 2253 5014 1945 
Q 5297 1638 5297 1041 
Q 5297 459 5011 145 
Q 4725 -169 4303 -169 
Q 3888 -169 3611 142 
Q 3334 453 3334 1075 
z
M 4316 1866 
Q 4103 1866 3964 1684 
Q 3825 1503 3825 1019 
Q 3825 581 3965 400 
Q 4106 219 4313 219 
Q 4528 219 4667 400 
Q 4806 581 4806 1063 
Q 4806 1506 4665 1686 
Q 4525 1866 4316 1866 
z
" transform="scale(0.015625)"/>
      </defs>
      <use xlink:href="#ArialMT-48"/>
      <use xlink:href="#ArialMT-69" x="72.216797"/>
      <use xlink:href="#ArialMT-72" x="94.433594"/>
      <use xlink:href="#ArialMT-69" x="127.734375"/>
      <use xlink:href="#ArialMT-6e" x="149.951172"/>
      <use xlink:href="#ArialMT-67" x="205.566406"/>
      <use xlink:href="#ArialMT-20" x="261.181641"/>
      <use xlink:href="#ArialMT-66" x="288.964844"/>
      <use xlink:href="#ArialMT-6f" x="316.748047"/>
      <use xlink:href="#ArialMT-72" x="372.363281"/>
      <use xlink:href="#ArialMT-20" x="405.664062"/>
      <use xlink:href="#ArialMT-47" x="433.447266"/>
      <use xlink:href="#ArialMT-72" x="511.230469"/>
      <use xlink:href="#ArialMT-6f" x="544.53125"/>
      <use xlink:href="#ArialMT-77" x="600.146484"/>
      <use xlink:href="#ArialMT-74" x="672.363281"/>
      <use xlink:href="#ArialMT-68" x="700.146484"/>
      <use xlink:href="#ArialMT-20" x="755.761719"/>
      <use xlink:href="#ArialMT-2d" x="783.544922"/>
      <use xlink:href="#ArialMT-20" x="816.845703"/>
      <use xlink:href="#ArialMT-35" x="844.628906"/>
      <use xlink:href="#ArialMT-36" x="900.244141"/>
      <use xlink:href="#ArialMT-2e" x="955.859375"/>
      <use xlink:href="#ArialMT-36" x="983.642578"/>
      <use xlink:href="#ArialMT-30" x="1039.257812"/>
      <use xlink:href="#ArialMT-20" x="1094.873047"/>
      <use xlink:href="#ArialMT-25" x="1122.65625"/>
     </g>
    </g>
    <g id="patch_8">
     <path d="M 274.4075 66.00325 
L 290.4075 66.00325 
L 290.4075 60.40325 
L 274.4075 60.40325 
z
" style="fill: #dd8452; stroke: #ffffff; stroke-linejoin: miter"/>
    </g>
    <g id="text_7">
     <!-- Hiring Replacements - 24.53 % -->
     <g style="fill: #262626" transform="translate(296.8075 66.00325)scale(0.08 -0.08)">
      <defs>
       <path id="ArialMT-32" d="M 3222 541 
L 3222 0 
L 194 0 
Q 188 203 259 391 
Q 375 700 629 1000 
Q 884 1300 1366 1694 
Q 2113 2306 2375 2664 
Q 2638 3022 2638 3341 
Q 2638 3675 2398 3904 
Q 2159 4134 1775 4134 
Q 1369 4134 1125 3890 
Q 881 3647 878 3216 
L 300 3275 
Q 359 3922 746 4261 
Q 1134 4600 1788 4600 
Q 2447 4600 2831 4234 
Q 3216 3869 3216 3328 
Q 3216 3053 3103 2787 
Q 2991 2522 2730 2228 
Q 2469 1934 1863 1422 
Q 1356 997 1212 845 
Q 1069 694 975 541 
L 3222 541 
z
" transform="scale(0.015625)"/>
       <path id="ArialMT-34" d="M 2069 0 
L 2069 1097 
L 81 1097 
L 81 1613 
L 2172 4581 
L 2631 4581 
L 2631 1613 
L 3250 1613 
L 3250 1097 
L 2631 1097 
L 2631 0 
L 2069 0 
z
M 2069 1613 
L 2069 3678 
L 634 1613 
L 2069 1613 
z
" transform="scale(0.015625)"/>
       <path id="ArialMT-33" d="M 269 1209 
L 831 1284 
Q 928 806 1161 595 
Q 1394 384 1728 384 
Q 2125 384 2398 659 
Q 2672 934 2672 1341 
Q 2672 1728 2419 1979 
Q 2166 2231 1775 2231 
Q 1616 2231 1378 2169 
L 1441 2663 
Q 1497 2656 1531 2656 
Q 1891 2656 2178 2843 
Q 2466 3031 2466 3422 
Q 2466 3731 2256 3934 
Q 2047 4138 1716 4138 
Q 1388 4138 1169 3931 
Q 950 3725 888 3313 
L 325 3413 
Q 428 3978 793 4289 
Q 1159 4600 1703 4600 
Q 2078 4600 2393 4439 
Q 2709 4278 2876 4000 
Q 3044 3722 3044 3409 
Q 3044 3113 2884 2869 
Q 2725 2625 2413 2481 
Q 2819 2388 3044 2092 
Q 3269 1797 3269 1353 
Q 3269 753 2831 336 
Q 2394 -81 1725 -81 
Q 1122 -81 723 278 
Q 325 638 269 1209 
z
" transform="scale(0.015625)"/>
      </defs>
      <use xlink:href="#ArialMT-48"/>
      <use xlink:href="#ArialMT-69" x="72.216797"/>
      <use xlink:href="#ArialMT-72" x="94.433594"/>
      <use xlink:href="#ArialMT-69" x="127.734375"/>
      <use xlink:href="#ArialMT-6e" x="149.951172"/>
      <use xlink:href="#ArialMT-67" x="205.566406"/>
      <use xlink:href="#ArialMT-20" x="261.181641"/>
      <use xlink:href="#ArialMT-52" x="288.964844"/>
      <use xlink:href="#ArialMT-65" x="361.181641"/>
      <use xlink:href="#ArialMT-70" x="416.796875"/>
      <use xlink:href="#ArialMT-6c" x="472.412109"/>
      <use xlink:href="#ArialMT-61" x="494.628906"/>
      <use xlink:href="#ArialMT-63" x="550.244141"/>
      <use xlink:href="#ArialMT-65" x="600.244141"/>
      <use xlink:href="#ArialMT-6d" x="655.859375"/>
      <use xlink:href="#ArialMT-65" x="739.160156"/>
      <use xlink:href="#ArialMT-6e" x="794.775391"/>
      <use xlink:href="#ArialMT-74" x="850.390625"/>
      <use xlink:href="#ArialMT-73" x="878.173828"/>
      <use xlink:href="#ArialMT-20" x="928.173828"/>
      <use xlink:href="#ArialMT-2d" x="955.957031"/>
      <use xlink:href="#ArialMT-20" x="989.257812"/>
      <use xlink:href="#ArialMT-32" x="1017.041016"/>
      <use xlink:href="#ArialMT-34" x="1072.65625"/>
      <use xlink:href="#ArialMT-2e" x="1128.271484"/>
      <use xlink:href="#ArialMT-35" x="1156.054688"/>
      <use xlink:href="#ArialMT-33" x="1211.669922"/>
      <use xlink:href="#ArialMT-20" x="1267.285156"/>
      <use xlink:href="#ArialMT-25" x="1295.068359"/>
     </g>
    </g>
    <g id="patch_9">
     <path d="M 274.4075 77.51075 
L 290.4075 77.51075 
L 290.4075 71.91075 
L 274.4075 71.91075 
z
" style="fill: #55a868; stroke: #ffffff; stroke-linejoin: miter"/>
    </g>
    <g id="text_8">
     <!-- Hiring Freeze - 15.09 % -->
     <g style="fill: #262626" transform="translate(296.8075 77.51075)scale(0.08 -0.08)">
      <defs>
       <path id="ArialMT-31" d="M 2384 0 
L 1822 0 
L 1822 3584 
Q 1619 3391 1289 3197 
Q 959 3003 697 2906 
L 697 3450 
Q 1169 3672 1522 3987 
Q 1875 4303 2022 4600 
L 2384 4600 
L 2384 0 
z
" transform="scale(0.015625)"/>
       <path id="ArialMT-39" d="M 350 1059 
L 891 1109 
Q 959 728 1153 556 
Q 1347 384 1650 384 
Q 1909 384 2104 503 
Q 2300 622 2425 820 
Q 2550 1019 2634 1356 
Q 2719 1694 2719 2044 
Q 2719 2081 2716 2156 
Q 2547 1888 2255 1720 
Q 1963 1553 1622 1553 
Q 1053 1553 659 1965 
Q 266 2378 266 3053 
Q 266 3750 677 4175 
Q 1088 4600 1706 4600 
Q 2153 4600 2523 4359 
Q 2894 4119 3086 3673 
Q 3278 3228 3278 2384 
Q 3278 1506 3087 986 
Q 2897 466 2520 194 
Q 2144 -78 1638 -78 
Q 1100 -78 759 220 
Q 419 519 350 1059 
z
M 2653 3081 
Q 2653 3566 2395 3850 
Q 2138 4134 1775 4134 
Q 1400 4134 1122 3828 
Q 844 3522 844 3034 
Q 844 2597 1108 2323 
Q 1372 2050 1759 2050 
Q 2150 2050 2401 2323 
Q 2653 2597 2653 3081 
z
" transform="scale(0.015625)"/>
      </defs>
      <use xlink:href="#ArialMT-48"/>
      <use xlink:href="#ArialMT-69" x="72.216797"/>
      <use xlink:href="#ArialMT-72" x="94.433594"/>
      <use xlink:href="#ArialMT-69" x="127.734375"/>
      <use xlink:href="#ArialMT-6e" x="149.951172"/>
      <use xlink:href="#ArialMT-67" x="205.566406"/>
      <use xlink:href="#ArialMT-20" x="261.181641"/>
      <use xlink:href="#ArialMT-46" x="288.964844"/>
      <use xlink:href="#ArialMT-72" x="350.048828"/>
      <use xlink:href="#ArialMT-65" x="383.349609"/>
      <use xlink:href="#ArialMT-65" x="438.964844"/>
      <use xlink:href="#ArialMT-7a" x="494.580078"/>
      <use xlink:href="#ArialMT-65" x="544.580078"/>
      <use xlink:href="#ArialMT-20" x="600.195312"/>
      <use xlink:href="#ArialMT-2d" x="627.978516"/>
      <use xlink:href="#ArialMT-20" x="661.279297"/>
      <use xlink:href="#ArialMT-31" x="689.0625"/>
      <use xlink:href="#ArialMT-35" x="744.677734"/>
      <use xlink:href="#ArialMT-2e" x="800.292969"/>
      <use xlink:href="#ArialMT-30" x="828.076172"/>
      <use xlink:href="#ArialMT-39" x="883.691406"/>
      <use xlink:href="#ArialMT-20" x="939.306641"/>
      <use xlink:href="#ArialMT-25" x="967.089844"/>
     </g>
    </g>
    <g id="patch_10">
     <path d="M 274.4075 89.01825 
L 290.4075 89.01825 
L 290.4075 83.41825 
L 274.4075 83.41825 
z
" style="fill: #c44e52; stroke: #ffffff; stroke-linejoin: miter"/>
    </g>
    <g id="text_9">
     <!-- Recent Layoffs - 3.77 % -->
     <g style="fill: #262626" transform="translate(296.8075 89.01825)scale(0.08 -0.08)">
      <defs>
       <path id="ArialMT-37" d="M 303 3981 
L 303 4522 
L 3269 4522 
L 3269 4084 
Q 2831 3619 2401 2847 
Q 1972 2075 1738 1259 
Q 1569 684 1522 0 
L 944 0 
Q 953 541 1156 1306 
Q 1359 2072 1739 2783 
Q 2119 3494 2547 3981 
L 303 3981 
z
" transform="scale(0.015625)"/>
      </defs>
      <use xlink:href="#ArialMT-52"/>
      <use xlink:href="#ArialMT-65" x="72.216797"/>
      <use xlink:href="#ArialMT-63" x="127.832031"/>
      <use xlink:href="#ArialMT-65" x="177.832031"/>
      <use xlink:href="#ArialMT-6e" x="233.447266"/>
      <use xlink:href="#ArialMT-74" x="289.0625"/>
      <use xlink:href="#ArialMT-20" x="316.845703"/>
      <use xlink:href="#ArialMT-4c" x="344.628906"/>
      <use xlink:href="#ArialMT-61" x="400.244141"/>
      <use xlink:href="#ArialMT-79" x="455.859375"/>
      <use xlink:href="#ArialMT-6f" x="505.859375"/>
      <use xlink:href="#ArialMT-66" x="561.474609"/>
      <use xlink:href="#ArialMT-66" x="587.507812"/>
      <use xlink:href="#ArialMT-73" x="615.291016"/>
      <use xlink:href="#ArialMT-20" x="665.291016"/>
      <use xlink:href="#ArialMT-2d" x="693.074219"/>
      <use xlink:href="#ArialMT-20" x="726.375"/>
      <use xlink:href="#ArialMT-33" x="754.158203"/>
      <use xlink:href="#ArialMT-2e" x="809.773438"/>
      <use xlink:href="#ArialMT-37" x="837.556641"/>
      <use xlink:href="#ArialMT-37" x="893.171875"/>
      <use xlink:href="#ArialMT-20" x="948.787109"/>
      <use xlink:href="#ArialMT-25" x="976.570312"/>
     </g>
    </g>
   </g>
  </g>
 </g>
</svg>
