<?xml version="1.0" encoding="utf-8" standalone="no"?>
<!DOCTYPE svg PUBLIC "-//W3C//DTD SVG 1.1//EN"
  "http://www.w3.org/Graphics/SVG/1.1/DTD/svg11.dtd">
<svg xmlns:xlink="http://www.w3.org/1999/xlink" width="864pt" height="432pt" viewBox="0 0 864 432" xmlns="http://www.w3.org/2000/svg" version="1.1">
 <metadata>
  <rdf:RDF xmlns:dc="http://purl.org/dc/elements/1.1/" xmlns:cc="http://creativecommons.org/ns#" xmlns:rdf="http://www.w3.org/1999/02/22-rdf-syntax-ns#">
   <cc:Work>
    <dc:type rdf:resource="http://purl.org/dc/dcmitype/StillImage"/>
    <dc:date>2023-03-07T17:55:18.886939</dc:date>
    <dc:format>image/svg+xml</dc:format>
    <dc:creator>
     <cc:Agent>
      <dc:title>Matplotlib v3.5.2, https://matplotlib.org/</dc:title>
     </cc:Agent>
    </dc:creator>
   </cc:Work>
  </rdf:RDF>
 </metadata>
 <defs>
  <style type="text/css">*{stroke-linejoin: round; stroke-linecap: butt}</style>
 </defs>
 <g id="figure_1">
  <g id="patch_1">
   <path d="M 0 432 
L 864 432 
L 864 0 
L 0 0 
z
" style="fill: #ffffff"/>
  </g>
  <g id="axes_1">
   <g id="patch_2">
    <path d="M 108 384.48 
L 777.6 384.48 
L 777.6 51.84 
L 108 51.84 
z
" style="fill: #eaeaf2"/>
   </g>
   <g id="matplotlib.axis_1">
    <g id="xtick_1">
     <g id="text_1">
      <!-- 1 -->
      <g style="fill: #262626" transform="translate(152.770056 401.853594)scale(0.11 -0.11)">
       <defs>
        <path id="ArialMT-31" d="M 2384 0 
L 1822 0 
L 1822 3584 
Q 1619 3391 1289 3197 
Q 959 3003 697 2906 
L 697 3450 
Q 1169 3672 1522 3987 
Q 1875 4303 2022 4600 
L 2384 4600 
L 2384 0 
z
" transform="scale(0.015625)"/>
       </defs>
       <use xlink:href="#ArialMT-31"/>
      </g>
     </g>
    </g>
    <g id="xtick_2">
     <g id="text_2">
      <!-- 2 -->
      <g style="fill: #262626" transform="translate(248.427199 401.853594)scale(0.11 -0.11)">
       <defs>
        <path id="ArialMT-32" d="M 3222 541 
L 3222 0 
L 194 0 
Q 188 203 259 391 
Q 375 700 629 1000 
Q 884 1300 1366 1694 
Q 2113 2306 2375 2664 
Q 2638 3022 2638 3341 
Q 2638 3675 2398 3904 
Q 2159 4134 1775 4134 
Q 1369 4134 1125 3890 
Q 881 3647 878 3216 
L 300 3275 
Q 359 3922 746 4261 
Q 1134 4600 1788 4600 
Q 2447 4600 2831 4234 
Q 3216 3869 3216 3328 
Q 3216 3053 3103 2787 
Q 2991 2522 2730 2228 
Q 2469 1934 1863 1422 
Q 1356 997 1212 845 
Q 1069 694 975 541 
L 3222 541 
z
" transform="scale(0.015625)"/>
       </defs>
       <use xlink:href="#ArialMT-32"/>
      </g>
     </g>
    </g>
    <g id="xtick_3">
     <g id="text_3">
      <!-- 3 -->
      <g style="fill: #262626" transform="translate(344.084342 401.853594)scale(0.11 -0.11)">
       <defs>
        <path id="ArialMT-33" d="M 269 1209 
L 831 1284 
Q 928 806 1161 595 
Q 1394 384 1728 384 
Q 2125 384 2398 659 
Q 2672 934 2672 1341 
Q 2672 1728 2419 1979 
Q 2166 2231 1775 2231 
Q 1616 2231 1378 2169 
L 1441 2663 
Q 1497 2656 1531 2656 
Q 1891 2656 2178 2843 
Q 2466 3031 2466 3422 
Q 2466 3731 2256 3934 
Q 2047 4138 1716 4138 
Q 1388 4138 1169 3931 
Q 950 3725 888 3313 
L 325 3413 
Q 428 3978 793 4289 
Q 1159 4600 1703 4600 
Q 2078 4600 2393 4439 
Q 2709 4278 2876 4000 
Q 3044 3722 3044 3409 
Q 3044 3113 2884 2869 
Q 2725 2625 2413 2481 
Q 2819 2388 3044 2092 
Q 3269 1797 3269 1353 
Q 3269 753 2831 336 
Q 2394 -81 1725 -81 
Q 1122 -81 723 278 
Q 325 638 269 1209 
z
" transform="scale(0.015625)"/>
       </defs>
       <use xlink:href="#ArialMT-33"/>
      </g>
     </g>
    </g>
    <g id="xtick_4">
     <g id="text_4">
      <!-- 4 -->
      <g style="fill: #262626" transform="translate(439.741484 401.853594)scale(0.11 -0.11)">
       <defs>
        <path id="ArialMT-34" d="M 2069 0 
L 2069 1097 
L 81 1097 
L 81 1613 
L 2172 4581 
L 2631 4581 
L 2631 1613 
L 3250 1613 
L 3250 1097 
L 2631 1097 
L 2631 0 
L 2069 0 
z
M 2069 1613 
L 2069 3678 
L 634 1613 
L 2069 1613 
z
" transform="scale(0.015625)"/>
       </defs>
       <use xlink:href="#ArialMT-34"/>
      </g>
     </g>
    </g>
    <g id="xtick_5">
     <g id="text_5">
      <!-- 5 -->
      <g style="fill: #262626" transform="translate(535.398627 401.853594)scale(0.11 -0.11)">
       <defs>
        <path id="ArialMT-35" d="M 266 1200 
L 856 1250 
Q 922 819 1161 601 
Q 1400 384 1738 384 
Q 2144 384 2425 690 
Q 2706 997 2706 1503 
Q 2706 1984 2436 2262 
Q 2166 2541 1728 2541 
Q 1456 2541 1237 2417 
Q 1019 2294 894 2097 
L 366 2166 
L 809 4519 
L 3088 4519 
L 3088 3981 
L 1259 3981 
L 1013 2750 
Q 1425 3038 1878 3038 
Q 2478 3038 2890 2622 
Q 3303 2206 3303 1553 
Q 3303 931 2941 478 
Q 2500 -78 1738 -78 
Q 1113 -78 717 272 
Q 322 622 266 1200 
z
" transform="scale(0.015625)"/>
       </defs>
       <use xlink:href="#ArialMT-35"/>
      </g>
     </g>
    </g>
    <g id="xtick_6">
     <g id="text_6">
      <!-- 6 -->
      <g style="fill: #262626" transform="translate(631.05577 401.853594)scale(0.11 -0.11)">
       <defs>
        <path id="ArialMT-36" d="M 3184 3459 
L 2625 3416 
Q 2550 3747 2413 3897 
Q 2184 4138 1850 4138 
Q 1581 4138 1378 3988 
Q 1113 3794 959 3422 
Q 806 3050 800 2363 
Q 1003 2672 1297 2822 
Q 1591 2972 1913 2972 
Q 2475 2972 2870 2558 
Q 3266 2144 3266 1488 
Q 3266 1056 3080 686 
Q 2894 316 2569 119 
Q 2244 -78 1831 -78 
Q 1128 -78 684 439 
Q 241 956 241 2144 
Q 241 3472 731 4075 
Q 1159 4600 1884 4600 
Q 2425 4600 2770 4297 
Q 3116 3994 3184 3459 
z
M 888 1484 
Q 888 1194 1011 928 
Q 1134 663 1356 523 
Q 1578 384 1822 384 
Q 2178 384 2434 671 
Q 2691 959 2691 1453 
Q 2691 1928 2437 2201 
Q 2184 2475 1800 2475 
Q 1419 2475 1153 2201 
Q 888 1928 888 1484 
z
" transform="scale(0.015625)"/>
       </defs>
       <use xlink:href="#ArialMT-36"/>
      </g>
     </g>
    </g>
    <g id="xtick_7">
     <g id="text_7">
      <!-- 7 -->
      <g style="fill: #262626" transform="translate(726.712913 401.853594)scale(0.11 -0.11)">
       <defs>
        <path id="ArialMT-37" d="M 303 3981 
L 303 4522 
L 3269 4522 
L 3269 4084 
Q 2831 3619 2401 2847 
Q 1972 2075 1738 1259 
Q 1569 684 1522 0 
L 944 0 
Q 953 541 1156 1306 
Q 1359 2072 1739 2783 
Q 2119 3494 2547 3981 
L 303 3981 
z
" transform="scale(0.015625)"/>
       </defs>
       <use xlink:href="#ArialMT-37"/>
      </g>
     </g>
    </g>
    <g id="text_8">
     <!-- Do you work remotely? (1=Never, 7=Always) -->
     <g style="fill: #262626" transform="translate(324.09 416.775469)scale(0.12 -0.12)">
      <defs>
       <path id="ArialMT-44" d="M 494 0 
L 494 4581 
L 2072 4581 
Q 2606 4581 2888 4516 
Q 3281 4425 3559 4188 
Q 3922 3881 4101 3404 
Q 4281 2928 4281 2316 
Q 4281 1794 4159 1391 
Q 4038 988 3847 723 
Q 3656 459 3429 307 
Q 3203 156 2883 78 
Q 2563 0 2147 0 
L 494 0 
z
M 1100 541 
L 2078 541 
Q 2531 541 2789 625 
Q 3047 709 3200 863 
Q 3416 1078 3536 1442 
Q 3656 1806 3656 2325 
Q 3656 3044 3420 3430 
Q 3184 3816 2847 3947 
Q 2603 4041 2063 4041 
L 1100 4041 
L 1100 541 
z
" transform="scale(0.015625)"/>
       <path id="ArialMT-6f" d="M 213 1659 
Q 213 2581 725 3025 
Q 1153 3394 1769 3394 
Q 2453 3394 2887 2945 
Q 3322 2497 3322 1706 
Q 3322 1066 3130 698 
Q 2938 331 2570 128 
Q 2203 -75 1769 -75 
Q 1072 -75 642 372 
Q 213 819 213 1659 
z
M 791 1659 
Q 791 1022 1069 705 
Q 1347 388 1769 388 
Q 2188 388 2466 706 
Q 2744 1025 2744 1678 
Q 2744 2294 2464 2611 
Q 2184 2928 1769 2928 
Q 1347 2928 1069 2612 
Q 791 2297 791 1659 
z
" transform="scale(0.015625)"/>
       <path id="ArialMT-20" transform="scale(0.015625)"/>
       <path id="ArialMT-79" d="M 397 -1278 
L 334 -750 
Q 519 -800 656 -800 
Q 844 -800 956 -737 
Q 1069 -675 1141 -563 
Q 1194 -478 1313 -144 
Q 1328 -97 1363 -6 
L 103 3319 
L 709 3319 
L 1400 1397 
Q 1534 1031 1641 628 
Q 1738 1016 1872 1384 
L 2581 3319 
L 3144 3319 
L 1881 -56 
Q 1678 -603 1566 -809 
Q 1416 -1088 1222 -1217 
Q 1028 -1347 759 -1347 
Q 597 -1347 397 -1278 
z
" transform="scale(0.015625)"/>
       <path id="ArialMT-75" d="M 2597 0 
L 2597 488 
Q 2209 -75 1544 -75 
Q 1250 -75 995 37 
Q 741 150 617 320 
Q 494 491 444 738 
Q 409 903 409 1263 
L 409 3319 
L 972 3319 
L 972 1478 
Q 972 1038 1006 884 
Q 1059 663 1231 536 
Q 1403 409 1656 409 
Q 1909 409 2131 539 
Q 2353 669 2445 892 
Q 2538 1116 2538 1541 
L 2538 3319 
L 3100 3319 
L 3100 0 
L 2597 0 
z
" transform="scale(0.015625)"/>
       <path id="ArialMT-77" d="M 1034 0 
L 19 3319 
L 600 3319 
L 1128 1403 
L 1325 691 
Q 1338 744 1497 1375 
L 2025 3319 
L 2603 3319 
L 3100 1394 
L 3266 759 
L 3456 1400 
L 4025 3319 
L 4572 3319 
L 3534 0 
L 2950 0 
L 2422 1988 
L 2294 2553 
L 1622 0 
L 1034 0 
z
" transform="scale(0.015625)"/>
       <path id="ArialMT-72" d="M 416 0 
L 416 3319 
L 922 3319 
L 922 2816 
Q 1116 3169 1280 3281 
Q 1444 3394 1641 3394 
Q 1925 3394 2219 3213 
L 2025 2691 
Q 1819 2813 1613 2813 
Q 1428 2813 1281 2702 
Q 1134 2591 1072 2394 
Q 978 2094 978 1738 
L 978 0 
L 416 0 
z
" transform="scale(0.015625)"/>
       <path id="ArialMT-6b" d="M 425 0 
L 425 4581 
L 988 4581 
L 988 1969 
L 2319 3319 
L 3047 3319 
L 1778 2088 
L 3175 0 
L 2481 0 
L 1384 1697 
L 988 1316 
L 988 0 
L 425 0 
z
" transform="scale(0.015625)"/>
       <path id="ArialMT-65" d="M 2694 1069 
L 3275 997 
Q 3138 488 2766 206 
Q 2394 -75 1816 -75 
Q 1088 -75 661 373 
Q 234 822 234 1631 
Q 234 2469 665 2931 
Q 1097 3394 1784 3394 
Q 2450 3394 2872 2941 
Q 3294 2488 3294 1666 
Q 3294 1616 3291 1516 
L 816 1516 
Q 847 969 1125 678 
Q 1403 388 1819 388 
Q 2128 388 2347 550 
Q 2566 713 2694 1069 
z
M 847 1978 
L 2700 1978 
Q 2663 2397 2488 2606 
Q 2219 2931 1791 2931 
Q 1403 2931 1139 2672 
Q 875 2413 847 1978 
z
" transform="scale(0.015625)"/>
       <path id="ArialMT-6d" d="M 422 0 
L 422 3319 
L 925 3319 
L 925 2853 
Q 1081 3097 1340 3245 
Q 1600 3394 1931 3394 
Q 2300 3394 2536 3241 
Q 2772 3088 2869 2813 
Q 3263 3394 3894 3394 
Q 4388 3394 4653 3120 
Q 4919 2847 4919 2278 
L 4919 0 
L 4359 0 
L 4359 2091 
Q 4359 2428 4304 2576 
Q 4250 2725 4106 2815 
Q 3963 2906 3769 2906 
Q 3419 2906 3187 2673 
Q 2956 2441 2956 1928 
L 2956 0 
L 2394 0 
L 2394 2156 
Q 2394 2531 2256 2718 
Q 2119 2906 1806 2906 
Q 1569 2906 1367 2781 
Q 1166 2656 1075 2415 
Q 984 2175 984 1722 
L 984 0 
L 422 0 
z
" transform="scale(0.015625)"/>
       <path id="ArialMT-74" d="M 1650 503 
L 1731 6 
Q 1494 -44 1306 -44 
Q 1000 -44 831 53 
Q 663 150 594 308 
Q 525 466 525 972 
L 525 2881 
L 113 2881 
L 113 3319 
L 525 3319 
L 525 4141 
L 1084 4478 
L 1084 3319 
L 1650 3319 
L 1650 2881 
L 1084 2881 
L 1084 941 
Q 1084 700 1114 631 
Q 1144 563 1211 522 
Q 1278 481 1403 481 
Q 1497 481 1650 503 
z
" transform="scale(0.015625)"/>
       <path id="ArialMT-6c" d="M 409 0 
L 409 4581 
L 972 4581 
L 972 0 
L 409 0 
z
" transform="scale(0.015625)"/>
       <path id="ArialMT-3f" d="M 1475 1128 
Q 1472 1241 1472 1297 
Q 1472 1628 1566 1869 
Q 1634 2050 1788 2234 
Q 1900 2369 2192 2626 
Q 2484 2884 2571 3037 
Q 2659 3191 2659 3372 
Q 2659 3700 2403 3948 
Q 2147 4197 1775 4197 
Q 1416 4197 1175 3972 
Q 934 3747 859 3269 
L 281 3338 
Q 359 3978 745 4318 
Q 1131 4659 1766 4659 
Q 2438 4659 2838 4293 
Q 3238 3928 3238 3409 
Q 3238 3109 3097 2856 
Q 2956 2603 2547 2241 
Q 2272 1997 2187 1881 
Q 2103 1766 2062 1616 
Q 2022 1466 2016 1128 
L 1475 1128 
z
M 1441 0 
L 1441 641 
L 2081 641 
L 2081 0 
L 1441 0 
z
" transform="scale(0.015625)"/>
       <path id="ArialMT-28" d="M 1497 -1347 
Q 1031 -759 709 28 
Q 388 816 388 1659 
Q 388 2403 628 3084 
Q 909 3875 1497 4659 
L 1900 4659 
Q 1522 4009 1400 3731 
Q 1209 3300 1100 2831 
Q 966 2247 966 1656 
Q 966 153 1900 -1347 
L 1497 -1347 
z
" transform="scale(0.015625)"/>
       <path id="ArialMT-3d" d="M 3381 2694 
L 356 2694 
L 356 3219 
L 3381 3219 
L 3381 2694 
z
M 3381 1303 
L 356 1303 
L 356 1828 
L 3381 1828 
L 3381 1303 
z
" transform="scale(0.015625)"/>
       <path id="ArialMT-4e" d="M 488 0 
L 488 4581 
L 1109 4581 
L 3516 984 
L 3516 4581 
L 4097 4581 
L 4097 0 
L 3475 0 
L 1069 3600 
L 1069 0 
L 488 0 
z
" transform="scale(0.015625)"/>
       <path id="ArialMT-76" d="M 1344 0 
L 81 3319 
L 675 3319 
L 1388 1331 
Q 1503 1009 1600 663 
Q 1675 925 1809 1294 
L 2547 3319 
L 3125 3319 
L 1869 0 
L 1344 0 
z
" transform="scale(0.015625)"/>
       <path id="ArialMT-2c" d="M 569 0 
L 569 641 
L 1209 641 
L 1209 0 
Q 1209 -353 1084 -570 
Q 959 -788 688 -906 
L 531 -666 
Q 709 -588 793 -436 
Q 878 -284 888 0 
L 569 0 
z
" transform="scale(0.015625)"/>
       <path id="ArialMT-41" d="M -9 0 
L 1750 4581 
L 2403 4581 
L 4278 0 
L 3588 0 
L 3053 1388 
L 1138 1388 
L 634 0 
L -9 0 
z
M 1313 1881 
L 2866 1881 
L 2388 3150 
Q 2169 3728 2063 4100 
Q 1975 3659 1816 3225 
L 1313 1881 
z
" transform="scale(0.015625)"/>
       <path id="ArialMT-61" d="M 2588 409 
Q 2275 144 1986 34 
Q 1697 -75 1366 -75 
Q 819 -75 525 192 
Q 231 459 231 875 
Q 231 1119 342 1320 
Q 453 1522 633 1644 
Q 813 1766 1038 1828 
Q 1203 1872 1538 1913 
Q 2219 1994 2541 2106 
Q 2544 2222 2544 2253 
Q 2544 2597 2384 2738 
Q 2169 2928 1744 2928 
Q 1347 2928 1158 2789 
Q 969 2650 878 2297 
L 328 2372 
Q 403 2725 575 2942 
Q 747 3159 1072 3276 
Q 1397 3394 1825 3394 
Q 2250 3394 2515 3294 
Q 2781 3194 2906 3042 
Q 3031 2891 3081 2659 
Q 3109 2516 3109 2141 
L 3109 1391 
Q 3109 606 3145 398 
Q 3181 191 3288 0 
L 2700 0 
Q 2613 175 2588 409 
z
M 2541 1666 
Q 2234 1541 1622 1453 
Q 1275 1403 1131 1340 
Q 988 1278 909 1158 
Q 831 1038 831 891 
Q 831 666 1001 516 
Q 1172 366 1500 366 
Q 1825 366 2078 508 
Q 2331 650 2450 897 
Q 2541 1088 2541 1459 
L 2541 1666 
z
" transform="scale(0.015625)"/>
       <path id="ArialMT-73" d="M 197 991 
L 753 1078 
Q 800 744 1014 566 
Q 1228 388 1613 388 
Q 2000 388 2187 545 
Q 2375 703 2375 916 
Q 2375 1106 2209 1216 
Q 2094 1291 1634 1406 
Q 1016 1563 777 1677 
Q 538 1791 414 1992 
Q 291 2194 291 2438 
Q 291 2659 392 2848 
Q 494 3038 669 3163 
Q 800 3259 1026 3326 
Q 1253 3394 1513 3394 
Q 1903 3394 2198 3281 
Q 2494 3169 2634 2976 
Q 2775 2784 2828 2463 
L 2278 2388 
Q 2241 2644 2061 2787 
Q 1881 2931 1553 2931 
Q 1166 2931 1000 2803 
Q 834 2675 834 2503 
Q 834 2394 903 2306 
Q 972 2216 1119 2156 
Q 1203 2125 1616 2013 
Q 2213 1853 2448 1751 
Q 2684 1650 2818 1456 
Q 2953 1263 2953 975 
Q 2953 694 2789 445 
Q 2625 197 2315 61 
Q 2006 -75 1616 -75 
Q 969 -75 630 194 
Q 291 463 197 991 
z
" transform="scale(0.015625)"/>
       <path id="ArialMT-29" d="M 791 -1347 
L 388 -1347 
Q 1322 153 1322 1656 
Q 1322 2244 1188 2822 
Q 1081 3291 891 3722 
Q 769 4003 388 4659 
L 791 4659 
Q 1378 3875 1659 3084 
Q 1900 2403 1900 1659 
Q 1900 816 1576 28 
Q 1253 -759 791 -1347 
z
" transform="scale(0.015625)"/>
      </defs>
      <use xlink:href="#ArialMT-44"/>
      <use xlink:href="#ArialMT-6f" x="72.216797"/>
      <use xlink:href="#ArialMT-20" x="127.832031"/>
      <use xlink:href="#ArialMT-79" x="155.615234"/>
      <use xlink:href="#ArialMT-6f" x="205.615234"/>
      <use xlink:href="#ArialMT-75" x="261.230469"/>
      <use xlink:href="#ArialMT-20" x="316.845703"/>
      <use xlink:href="#ArialMT-77" x="344.628906"/>
      <use xlink:href="#ArialMT-6f" x="416.845703"/>
      <use xlink:href="#ArialMT-72" x="472.460938"/>
      <use xlink:href="#ArialMT-6b" x="505.761719"/>
      <use xlink:href="#ArialMT-20" x="555.761719"/>
      <use xlink:href="#ArialMT-72" x="583.544922"/>
      <use xlink:href="#ArialMT-65" x="616.845703"/>
      <use xlink:href="#ArialMT-6d" x="672.460938"/>
      <use xlink:href="#ArialMT-6f" x="755.761719"/>
      <use xlink:href="#ArialMT-74" x="811.376953"/>
      <use xlink:href="#ArialMT-65" x="839.160156"/>
      <use xlink:href="#ArialMT-6c" x="894.775391"/>
      <use xlink:href="#ArialMT-79" x="916.992188"/>
      <use xlink:href="#ArialMT-3f" x="966.992188"/>
      <use xlink:href="#ArialMT-20" x="1022.607422"/>
      <use xlink:href="#ArialMT-28" x="1050.390625"/>
      <use xlink:href="#ArialMT-31" x="1083.691406"/>
      <use xlink:href="#ArialMT-3d" x="1139.306641"/>
      <use xlink:href="#ArialMT-4e" x="1197.705078"/>
      <use xlink:href="#ArialMT-65" x="1269.921875"/>
      <use xlink:href="#ArialMT-76" x="1325.537109"/>
      <use xlink:href="#ArialMT-65" x="1375.537109"/>
      <use xlink:href="#ArialMT-72" x="1431.152344"/>
      <use xlink:href="#ArialMT-2c" x="1458.953125"/>
      <use xlink:href="#ArialMT-20" x="1486.736328"/>
      <use xlink:href="#ArialMT-37" x="1514.519531"/>
      <use xlink:href="#ArialMT-3d" x="1570.134766"/>
      <use xlink:href="#ArialMT-41" x="1628.533203"/>
      <use xlink:href="#ArialMT-6c" x="1695.232422"/>
      <use xlink:href="#ArialMT-77" x="1717.449219"/>
      <use xlink:href="#ArialMT-61" x="1789.666016"/>
      <use xlink:href="#ArialMT-79" x="1845.28125"/>
      <use xlink:href="#ArialMT-73" x="1895.28125"/>
      <use xlink:href="#ArialMT-29" x="1945.28125"/>
     </g>
    </g>
   </g>
   <g id="matplotlib.axis_2">
    <g id="ytick_1">
     <g id="line2d_1">
      <path d="M 108 369.36 
L 777.6 369.36 
" clip-path="url(#p91a2b1b7d2)" style="fill: none; stroke: #ffffff; stroke-linecap: round"/>
     </g>
     <g id="text_9">
      <!-- 1 -->
      <g style="fill: #262626" transform="translate(92.382969 373.296797)scale(0.11 -0.11)">
       <use xlink:href="#ArialMT-31"/>
      </g>
     </g>
    </g>
    <g id="ytick_2">
     <g id="line2d_2">
      <path d="M 108 318.96 
L 777.6 318.96 
" clip-path="url(#p91a2b1b7d2)" style="fill: none; stroke: #ffffff; stroke-linecap: round"/>
     </g>
     <g id="text_10">
      <!-- 2 -->
      <g style="fill: #262626" transform="translate(92.382969 322.896797)scale(0.11 -0.11)">
       <use xlink:href="#ArialMT-32"/>
      </g>
     </g>
    </g>
    <g id="ytick_3">
     <g id="line2d_3">
      <path d="M 108 268.56 
L 777.6 268.56 
" clip-path="url(#p91a2b1b7d2)" style="fill: none; stroke: #ffffff; stroke-linecap: round"/>
     </g>
     <g id="text_11">
      <!-- 3 -->
      <g style="fill: #262626" transform="translate(92.382969 272.496797)scale(0.11 -0.11)">
       <use xlink:href="#ArialMT-33"/>
      </g>
     </g>
    </g>
    <g id="ytick_4">
     <g id="line2d_4">
      <path d="M 108 218.16 
L 777.6 218.16 
" clip-path="url(#p91a2b1b7d2)" style="fill: none; stroke: #ffffff; stroke-linecap: round"/>
     </g>
     <g id="text_12">
      <!-- 4 -->
      <g style="fill: #262626" transform="translate(92.382969 222.096797)scale(0.11 -0.11)">
       <use xlink:href="#ArialMT-34"/>
      </g>
     </g>
    </g>
    <g id="ytick_5">
     <g id="line2d_5">
      <path d="M 108 167.76 
L 777.6 167.76 
" clip-path="url(#p91a2b1b7d2)" style="fill: none; stroke: #ffffff; stroke-linecap: round"/>
     </g>
     <g id="text_13">
      <!-- 5 -->
      <g style="fill: #262626" transform="translate(92.382969 171.696797)scale(0.11 -0.11)">
       <use xlink:href="#ArialMT-35"/>
      </g>
     </g>
    </g>
    <g id="ytick_6">
     <g id="line2d_6">
      <path d="M 108 117.36 
L 777.6 117.36 
" clip-path="url(#p91a2b1b7d2)" style="fill: none; stroke: #ffffff; stroke-linecap: round"/>
     </g>
     <g id="text_14">
      <!-- 6 -->
      <g style="fill: #262626" transform="translate(92.382969 121.296797)scale(0.11 -0.11)">
       <use xlink:href="#ArialMT-36"/>
      </g>
     </g>
    </g>
    <g id="ytick_7">
     <g id="line2d_7">
      <path d="M 108 66.96 
L 777.6 66.96 
" clip-path="url(#p91a2b1b7d2)" style="fill: none; stroke: #ffffff; stroke-linecap: round"/>
     </g>
     <g id="text_15">
      <!-- 7 -->
      <g style="fill: #262626" transform="translate(92.382969 70.896797)scale(0.11 -0.11)">
       <use xlink:href="#ArialMT-37"/>
      </g>
     </g>
    </g>
    <g id="text_16">
     <!-- (1=Very Dissatisfied, 7=Very Satisfied) -->
     <g style="fill: #262626" transform="translate(85.857344 320.205937)rotate(-90)scale(0.12 -0.12)">
      <defs>
       <path id="ArialMT-56" d="M 1803 0 
L 28 4581 
L 684 4581 
L 1875 1253 
Q 2019 853 2116 503 
Q 2222 878 2363 1253 
L 3600 4581 
L 4219 4581 
L 2425 0 
L 1803 0 
z
" transform="scale(0.015625)"/>
       <path id="ArialMT-69" d="M 425 3934 
L 425 4581 
L 988 4581 
L 988 3934 
L 425 3934 
z
M 425 0 
L 425 3319 
L 988 3319 
L 988 0 
L 425 0 
z
" transform="scale(0.015625)"/>
       <path id="ArialMT-66" d="M 556 0 
L 556 2881 
L 59 2881 
L 59 3319 
L 556 3319 
L 556 3672 
Q 556 4006 616 4169 
Q 697 4388 901 4523 
Q 1106 4659 1475 4659 
Q 1713 4659 2000 4603 
L 1916 4113 
Q 1741 4144 1584 4144 
Q 1328 4144 1222 4034 
Q 1116 3925 1116 3625 
L 1116 3319 
L 1763 3319 
L 1763 2881 
L 1116 2881 
L 1116 0 
L 556 0 
z
" transform="scale(0.015625)"/>
       <path id="ArialMT-64" d="M 2575 0 
L 2575 419 
Q 2259 -75 1647 -75 
Q 1250 -75 917 144 
Q 584 363 401 755 
Q 219 1147 219 1656 
Q 219 2153 384 2558 
Q 550 2963 881 3178 
Q 1213 3394 1622 3394 
Q 1922 3394 2156 3267 
Q 2391 3141 2538 2938 
L 2538 4581 
L 3097 4581 
L 3097 0 
L 2575 0 
z
M 797 1656 
Q 797 1019 1065 703 
Q 1334 388 1700 388 
Q 2069 388 2326 689 
Q 2584 991 2584 1609 
Q 2584 2291 2321 2609 
Q 2059 2928 1675 2928 
Q 1300 2928 1048 2622 
Q 797 2316 797 1656 
z
" transform="scale(0.015625)"/>
       <path id="ArialMT-53" d="M 288 1472 
L 859 1522 
Q 900 1178 1048 958 
Q 1197 738 1509 602 
Q 1822 466 2213 466 
Q 2559 466 2825 569 
Q 3091 672 3220 851 
Q 3350 1031 3350 1244 
Q 3350 1459 3225 1620 
Q 3100 1781 2813 1891 
Q 2628 1963 1997 2114 
Q 1366 2266 1113 2400 
Q 784 2572 623 2826 
Q 463 3081 463 3397 
Q 463 3744 659 4045 
Q 856 4347 1234 4503 
Q 1613 4659 2075 4659 
Q 2584 4659 2973 4495 
Q 3363 4331 3572 4012 
Q 3781 3694 3797 3291 
L 3216 3247 
Q 3169 3681 2898 3903 
Q 2628 4125 2100 4125 
Q 1550 4125 1298 3923 
Q 1047 3722 1047 3438 
Q 1047 3191 1225 3031 
Q 1400 2872 2139 2705 
Q 2878 2538 3153 2413 
Q 3553 2228 3743 1945 
Q 3934 1663 3934 1294 
Q 3934 928 3725 604 
Q 3516 281 3123 101 
Q 2731 -78 2241 -78 
Q 1619 -78 1198 103 
Q 778 284 539 648 
Q 300 1013 288 1472 
z
" transform="scale(0.015625)"/>
      </defs>
      <use xlink:href="#ArialMT-28"/>
      <use xlink:href="#ArialMT-31" x="33.300781"/>
      <use xlink:href="#ArialMT-3d" x="88.916016"/>
      <use xlink:href="#ArialMT-56" x="147.314453"/>
      <use xlink:href="#ArialMT-65" x="208.513672"/>
      <use xlink:href="#ArialMT-72" x="264.128906"/>
      <use xlink:href="#ArialMT-79" x="297.429688"/>
      <use xlink:href="#ArialMT-20" x="347.429688"/>
      <use xlink:href="#ArialMT-44" x="375.212891"/>
      <use xlink:href="#ArialMT-69" x="447.429688"/>
      <use xlink:href="#ArialMT-73" x="469.646484"/>
      <use xlink:href="#ArialMT-73" x="519.646484"/>
      <use xlink:href="#ArialMT-61" x="569.646484"/>
      <use xlink:href="#ArialMT-74" x="625.261719"/>
      <use xlink:href="#ArialMT-69" x="653.044922"/>
      <use xlink:href="#ArialMT-73" x="675.261719"/>
      <use xlink:href="#ArialMT-66" x="725.261719"/>
      <use xlink:href="#ArialMT-69" x="753.044922"/>
      <use xlink:href="#ArialMT-65" x="775.261719"/>
      <use xlink:href="#ArialMT-64" x="830.876953"/>
      <use xlink:href="#ArialMT-2c" x="886.492188"/>
      <use xlink:href="#ArialMT-20" x="914.275391"/>
      <use xlink:href="#ArialMT-37" x="942.058594"/>
      <use xlink:href="#ArialMT-3d" x="997.673828"/>
      <use xlink:href="#ArialMT-56" x="1056.072266"/>
      <use xlink:href="#ArialMT-65" x="1117.271484"/>
      <use xlink:href="#ArialMT-72" x="1172.886719"/>
      <use xlink:href="#ArialMT-79" x="1206.1875"/>
      <use xlink:href="#ArialMT-20" x="1256.1875"/>
      <use xlink:href="#ArialMT-53" x="1283.970703"/>
      <use xlink:href="#ArialMT-61" x="1350.669922"/>
      <use xlink:href="#ArialMT-74" x="1406.285156"/>
      <use xlink:href="#ArialMT-69" x="1434.068359"/>
      <use xlink:href="#ArialMT-73" x="1456.285156"/>
      <use xlink:href="#ArialMT-66" x="1506.285156"/>
      <use xlink:href="#ArialMT-69" x="1534.068359"/>
      <use xlink:href="#ArialMT-65" x="1556.285156"/>
      <use xlink:href="#ArialMT-64" x="1611.900391"/>
      <use xlink:href="#ArialMT-29" x="1667.515625"/>
     </g>
    </g>
   </g>
   <g id="PolyCollection_1">
    <defs>
     <path id="mccc05c71f6" d="M 156.666275 -163.44 
L 154.990868 -163.44 
L 154.989886 -165.476364 
L 154.989975 -167.512727 
L 154.991115 -169.549091 
L 154.993275 -171.585455 
L 154.99642 -173.621818 
L 155.00051 -175.658182 
L 155.005497 -177.694545 
L 155.011329 -179.730909 
L 155.017946 -181.767273 
L 155.025285 -183.803636 
L 155.033278 -185.84 
L 155.041853 -187.876364 
L 155.050933 -189.912727 
L 155.060438 -191.949091 
L 155.070283 -193.985455 
L 155.080385 -196.021818 
L 155.090654 -198.058182 
L 155.101002 -200.094545 
L 155.111337 -202.130909 
L 155.12157 -204.167273 
L 155.131608 -206.203636 
L 155.141361 -208.24 
L 155.15074 -210.276364 
L 155.159658 -212.312727 
L 155.168028 -214.349091 
L 155.175768 -216.385455 
L 155.182797 -218.421818 
L 155.18904 -220.458182 
L 155.194424 -222.494545 
L 155.19888 -224.530909 
L 155.202346 -226.567273 
L 155.204764 -228.603636 
L 155.206079 -230.64 
L 155.206246 -232.676364 
L 155.205224 -234.712727 
L 155.202977 -236.749091 
L 155.199477 -238.785455 
L 155.194701 -240.821818 
L 155.188635 -242.858182 
L 155.18127 -244.894545 
L 155.172604 -246.930909 
L 155.162641 -248.967273 
L 155.151393 -251.003636 
L 155.138879 -253.04 
L 155.125122 -255.076364 
L 155.110155 -257.112727 
L 155.094015 -259.149091 
L 155.076746 -261.185455 
L 155.058396 -263.221818 
L 155.039022 -265.258182 
L 155.018684 -267.294545 
L 154.997448 -269.330909 
L 154.975383 -271.367273 
L 154.952566 -273.403636 
L 154.929075 -275.44 
L 154.904993 -277.476364 
L 154.880406 -279.512727 
L 154.855403 -281.549091 
L 154.830076 -283.585455 
L 154.804518 -285.621818 
L 154.778825 -287.658182 
L 154.753093 -289.694545 
L 154.727421 -291.730909 
L 154.701906 -293.767273 
L 154.676645 -295.803636 
L 154.651737 -297.84 
L 154.627278 -299.876364 
L 154.603362 -301.912727 
L 154.580085 -303.949091 
L 154.557536 -305.985455 
L 154.535805 -308.021818 
L 154.514978 -310.058182 
L 154.495138 -312.094545 
L 154.476364 -314.130909 
L 154.45873 -316.167273 
L 154.44231 -318.203636 
L 154.427168 -320.24 
L 154.413367 -322.276364 
L 154.400963 -324.312727 
L 154.39001 -326.349091 
L 154.380552 -328.385455 
L 154.37263 -330.421818 
L 154.36628 -332.458182 
L 154.361531 -334.494545 
L 154.358406 -336.530909 
L 154.356923 -338.567273 
L 154.357093 -340.603636 
L 154.358922 -342.64 
L 154.362409 -344.676364 
L 154.367547 -346.712727 
L 154.374325 -348.749091 
L 154.382725 -350.785455 
L 154.392722 -352.821818 
L 154.404288 -354.858182 
L 154.417389 -356.894545 
L 154.431985 -358.930909 
L 154.448032 -360.967273 
L 154.46548 -363.003636 
L 154.484278 -365.04 
L 157.172865 -365.04 
L 157.172865 -365.04 
L 157.191662 -363.003636 
L 157.209111 -360.967273 
L 157.225158 -358.930909 
L 157.239754 -356.894545 
L 157.252854 -354.858182 
L 157.264421 -352.821818 
L 157.274418 -350.785455 
L 157.282818 -348.749091 
L 157.289596 -346.712727 
L 157.294734 -344.676364 
L 157.298221 -342.64 
L 157.30005 -340.603636 
L 157.30022 -338.567273 
L 157.298737 -336.530909 
L 157.295612 -334.494545 
L 157.290863 -332.458182 
L 157.284513 -330.421818 
L 157.276591 -328.385455 
L 157.267133 -326.349091 
L 157.256179 -324.312727 
L 157.243776 -322.276364 
L 157.229975 -320.24 
L 157.214833 -318.203636 
L 157.198412 -316.167273 
L 157.180779 -314.130909 
L 157.162005 -312.094545 
L 157.142165 -310.058182 
L 157.121338 -308.021818 
L 157.099607 -305.985455 
L 157.077058 -303.949091 
L 157.05378 -301.912727 
L 157.029865 -299.876364 
L 157.005406 -297.84 
L 156.980498 -295.803636 
L 156.955237 -293.767273 
L 156.929722 -291.730909 
L 156.904049 -289.694545 
L 156.878318 -287.658182 
L 156.852625 -285.621818 
L 156.827067 -283.585455 
L 156.80174 -281.549091 
L 156.776737 -279.512727 
L 156.75215 -277.476364 
L 156.728068 -275.44 
L 156.704577 -273.403636 
L 156.68176 -271.367273 
L 156.659695 -269.330909 
L 156.638459 -267.294545 
L 156.618121 -265.258182 
L 156.598747 -263.221818 
L 156.580397 -261.185455 
L 156.563128 -259.149091 
L 156.546988 -257.112727 
L 156.532021 -255.076364 
L 156.518264 -253.04 
L 156.50575 -251.003636 
L 156.494502 -248.967273 
L 156.484539 -246.930909 
L 156.475873 -244.894545 
L 156.468507 -242.858182 
L 156.462441 -240.821818 
L 156.457666 -238.785455 
L 156.454166 -236.749091 
L 156.451919 -234.712727 
L 156.450896 -232.676364 
L 156.451064 -230.64 
L 156.452379 -228.603636 
L 156.454797 -226.567273 
L 156.458262 -224.530909 
L 156.462719 -222.494545 
L 156.468103 -220.458182 
L 156.474345 -218.421818 
L 156.481375 -216.385455 
L 156.489115 -214.349091 
L 156.497485 -212.312727 
L 156.506403 -210.276364 
L 156.515782 -208.24 
L 156.525535 -206.203636 
L 156.535573 -204.167273 
L 156.545805 -202.130909 
L 156.556141 -200.094545 
L 156.566488 -198.058182 
L 156.576758 -196.021818 
L 156.586859 -193.985455 
L 156.596705 -191.949091 
L 156.60621 -189.912727 
L 156.61529 -187.876364 
L 156.623864 -185.84 
L 156.631858 -183.803636 
L 156.639197 -181.767273 
L 156.645814 -179.730909 
L 156.651645 -177.694545 
L 156.656633 -175.658182 
L 156.660723 -173.621818 
L 156.663868 -171.585455 
L 156.666028 -169.549091 
L 156.667168 -167.512727 
L 156.667257 -165.476364 
L 156.666275 -163.44 
z
" style="stroke: #494949; stroke-width: 1.5"/>
    </defs>
    <g clip-path="url(#p91a2b1b7d2)">
     <use xlink:href="#mccc05c71f6" x="0" y="432" style="fill: #5875a4; stroke: #494949; stroke-width: 1.5"/>
    </g>
   </g>
   <g id="PolyCollection_2">
    <defs>
     <path id="me4e2c64e14" d="M 252.465326 -163.44 
L 250.506103 -163.44 
L 250.50502 -165.476364 
L 250.504615 -167.512727 
L 250.504879 -169.549091 
L 250.505799 -171.585455 
L 250.507364 -173.621818 
L 250.509558 -175.658182 
L 250.512363 -177.694545 
L 250.51576 -179.730909 
L 250.519727 -181.767273 
L 250.524243 -183.803636 
L 250.529281 -185.84 
L 250.534816 -187.876364 
L 250.540819 -189.912727 
L 250.54726 -191.949091 
L 250.554108 -193.985455 
L 250.561331 -196.021818 
L 250.568896 -198.058182 
L 250.576767 -200.094545 
L 250.584908 -202.130909 
L 250.593285 -204.167273 
L 250.601858 -206.203636 
L 250.610592 -208.24 
L 250.619447 -210.276364 
L 250.628386 -212.312727 
L 250.637369 -214.349091 
L 250.646359 -216.385455 
L 250.655317 -218.421818 
L 250.664206 -220.458182 
L 250.672987 -222.494545 
L 250.681625 -224.530909 
L 250.690082 -226.567273 
L 250.698323 -228.603636 
L 250.706315 -230.64 
L 250.714023 -232.676364 
L 250.721416 -234.712727 
L 250.728464 -236.749091 
L 250.735137 -238.785455 
L 250.741408 -240.821818 
L 250.747251 -242.858182 
L 250.752641 -244.894545 
L 250.757558 -246.930909 
L 250.76198 -248.967273 
L 250.76589 -251.003636 
L 250.769272 -253.04 
L 250.772111 -255.076364 
L 250.774396 -257.112727 
L 250.776119 -259.149091 
L 250.777271 -261.185455 
L 250.777848 -263.221818 
L 250.777848 -265.258182 
L 250.777271 -267.294545 
L 250.776119 -269.330909 
L 250.774396 -271.367273 
L 250.772111 -273.403636 
L 250.769272 -275.44 
L 250.76589 -277.476364 
L 250.76198 -279.512727 
L 250.757558 -281.549091 
L 250.752641 -283.585455 
L 250.747251 -285.621818 
L 250.741408 -287.658182 
L 250.735137 -289.694545 
L 250.728464 -291.730909 
L 250.721416 -293.767273 
L 250.714023 -295.803636 
L 250.706315 -297.84 
L 250.698323 -299.876364 
L 250.690082 -301.912727 
L 250.681625 -303.949091 
L 250.672987 -305.985455 
L 250.664206 -308.021818 
L 250.655317 -310.058182 
L 250.646359 -312.094545 
L 250.637369 -314.130909 
L 250.628386 -316.167273 
L 250.619447 -318.203636 
L 250.610592 -320.24 
L 250.601858 -322.276364 
L 250.593285 -324.312727 
L 250.584908 -326.349091 
L 250.576767 -328.385455 
L 250.568896 -330.421818 
L 250.561331 -332.458182 
L 250.554108 -334.494545 
L 250.54726 -336.530909 
L 250.540819 -338.567273 
L 250.534816 -340.603636 
L 250.529281 -342.64 
L 250.524243 -344.676364 
L 250.519727 -346.712727 
L 250.51576 -348.749091 
L 250.512363 -350.785455 
L 250.509558 -352.821818 
L 250.507364 -354.858182 
L 250.505799 -356.894545 
L 250.504879 -358.930909 
L 250.504615 -360.967273 
L 250.50502 -363.003636 
L 250.506103 -365.04 
L 252.465326 -365.04 
L 252.465326 -365.04 
L 252.466408 -363.003636 
L 252.466813 -360.967273 
L 252.46655 -358.930909 
L 252.465629 -356.894545 
L 252.464064 -354.858182 
L 252.461871 -352.821818 
L 252.459066 -350.785455 
L 252.455669 -348.749091 
L 252.451701 -346.712727 
L 252.447186 -344.676364 
L 252.442147 -342.64 
L 252.436613 -340.603636 
L 252.43061 -338.567273 
L 252.424169 -336.530909 
L 252.41732 -334.494545 
L 252.410097 -332.458182 
L 252.402533 -330.421818 
L 252.394662 -328.385455 
L 252.38652 -326.349091 
L 252.378144 -324.312727 
L 252.36957 -322.276364 
L 252.360837 -320.24 
L 252.351981 -318.203636 
L 252.343043 -316.167273 
L 252.334059 -314.130909 
L 252.325069 -312.094545 
L 252.316111 -310.058182 
L 252.307223 -308.021818 
L 252.298441 -305.985455 
L 252.289804 -303.949091 
L 252.281347 -301.912727 
L 252.273105 -299.876364 
L 252.265114 -297.84 
L 252.257406 -295.803636 
L 252.250012 -293.767273 
L 252.242964 -291.730909 
L 252.236291 -289.694545 
L 252.230021 -287.658182 
L 252.224178 -285.621818 
L 252.218787 -283.585455 
L 252.213871 -281.549091 
L 252.209448 -279.512727 
L 252.205538 -277.476364 
L 252.202157 -275.44 
L 252.199318 -273.403636 
L 252.197032 -271.367273 
L 252.19531 -269.330909 
L 252.194158 -267.294545 
L 252.19358 -265.258182 
L 252.19358 -263.221818 
L 252.194158 -261.185455 
L 252.19531 -259.149091 
L 252.197032 -257.112727 
L 252.199318 -255.076364 
L 252.202157 -253.04 
L 252.205538 -251.003636 
L 252.209448 -248.967273 
L 252.213871 -246.930909 
L 252.218787 -244.894545 
L 252.224178 -242.858182 
L 252.230021 -240.821818 
L 252.236291 -238.785455 
L 252.242964 -236.749091 
L 252.250012 -234.712727 
L 252.257406 -232.676364 
L 252.265114 -230.64 
L 252.273105 -228.603636 
L 252.281347 -226.567273 
L 252.289804 -224.530909 
L 252.298441 -222.494545 
L 252.307223 -220.458182 
L 252.316111 -218.421818 
L 252.325069 -216.385455 
L 252.334059 -214.349091 
L 252.343043 -212.312727 
L 252.351981 -210.276364 
L 252.360837 -208.24 
L 252.36957 -206.203636 
L 252.378144 -204.167273 
L 252.38652 -202.130909 
L 252.394662 -200.094545 
L 252.402533 -198.058182 
L 252.410097 -196.021818 
L 252.41732 -193.985455 
L 252.424169 -191.949091 
L 252.43061 -189.912727 
L 252.436613 -187.876364 
L 252.442147 -185.84 
L 252.447186 -183.803636 
L 252.451701 -181.767273 
L 252.455669 -179.730909 
L 252.459066 -177.694545 
L 252.461871 -175.658182 
L 252.464064 -173.621818 
L 252.465629 -171.585455 
L 252.46655 -169.549091 
L 252.466813 -167.512727 
L 252.466408 -165.476364 
L 252.465326 -163.44 
z
" style="stroke: #494949; stroke-width: 1.5"/>
    </defs>
    <g clip-path="url(#p91a2b1b7d2)">
     <use xlink:href="#me4e2c64e14" x="0" y="432" style="fill: #cc8963; stroke: #494949; stroke-width: 1.5"/>
    </g>
   </g>
   <g id="PolyCollection_3">
    <defs>
     <path id="me2d2662e48" d="M 443.911823 -163.44 
L 441.688177 -163.44 
L 441.670477 -164.967273 
L 441.653741 -166.494545 
L 441.637995 -168.021818 
L 441.623264 -169.549091 
L 441.609566 -171.076364 
L 441.59692 -172.603636 
L 441.585339 -174.130909 
L 441.574836 -175.658182 
L 441.565417 -177.185455 
L 441.557091 -178.712727 
L 441.54986 -180.24 
L 441.543725 -181.767273 
L 441.538686 -183.294545 
L 441.534738 -184.821818 
L 441.531877 -186.349091 
L 441.530095 -187.876364 
L 441.529382 -189.403636 
L 441.529724 -190.930909 
L 441.531108 -192.458182 
L 441.533516 -193.985455 
L 441.536926 -195.512727 
L 441.541317 -197.04 
L 441.546661 -198.567273 
L 441.552929 -200.094545 
L 441.560086 -201.621818 
L 441.568094 -203.149091 
L 441.576912 -204.676364 
L 441.586493 -206.203636 
L 441.596784 -207.730909 
L 441.607728 -209.258182 
L 441.619263 -210.785455 
L 441.631321 -212.312727 
L 441.643828 -213.84 
L 441.656704 -215.367273 
L 441.669863 -216.894545 
L 441.683212 -218.421818 
L 441.696655 -219.949091 
L 441.710086 -221.476364 
L 441.723396 -223.003636 
L 441.736471 -224.530909 
L 441.749191 -226.058182 
L 441.761431 -227.585455 
L 441.773063 -229.112727 
L 441.783954 -230.64 
L 441.793972 -232.167273 
L 441.802979 -233.694545 
L 441.810839 -235.221818 
L 441.817414 -236.749091 
L 441.822569 -238.276364 
L 441.826168 -239.803636 
L 441.828083 -241.330909 
L 441.828185 -242.858182 
L 441.826354 -244.385455 
L 441.822476 -245.912727 
L 441.816446 -247.44 
L 441.808167 -248.967273 
L 441.797552 -250.494545 
L 441.784527 -252.021818 
L 441.769032 -253.549091 
L 441.751017 -255.076364 
L 441.730452 -256.603636 
L 441.707319 -258.130909 
L 441.681618 -259.658182 
L 441.653367 -261.185455 
L 441.622603 -262.712727 
L 441.589379 -264.24 
L 441.55377 -265.767273 
L 441.515867 -267.294545 
L 441.475784 -268.821818 
L 441.43365 -270.349091 
L 441.389616 -271.876364 
L 441.34385 -273.403636 
L 441.296538 -274.930909 
L 441.247882 -276.458182 
L 441.1981 -277.985455 
L 441.147426 -279.512727 
L 441.096105 -281.04 
L 441.044396 -282.567273 
L 440.992566 -284.094545 
L 440.940892 -285.621818 
L 440.889656 -287.149091 
L 440.839145 -288.676364 
L 440.78965 -290.203636 
L 440.741459 -291.730909 
L 440.694859 -293.258182 
L 440.650134 -294.785455 
L 440.607561 -296.312727 
L 440.567406 -297.84 
L 440.529928 -299.367273 
L 440.495369 -300.894545 
L 440.46396 -302.421818 
L 440.435912 -303.949091 
L 440.411419 -305.476364 
L 440.390654 -307.003636 
L 440.37377 -308.530909 
L 440.360894 -310.058182 
L 440.352134 -311.585455 
L 440.347568 -313.112727 
L 440.347253 -314.64 
L 445.252747 -314.64 
L 445.252747 -314.64 
L 445.252432 -313.112727 
L 445.247866 -311.585455 
L 445.239106 -310.058182 
L 445.22623 -308.530909 
L 445.209346 -307.003636 
L 445.188581 -305.476364 
L 445.164088 -303.949091 
L 445.13604 -302.421818 
L 445.104631 -300.894545 
L 445.070072 -299.367273 
L 445.032594 -297.84 
L 444.992439 -296.312727 
L 444.949866 -294.785455 
L 444.905141 -293.258182 
L 444.858541 -291.730909 
L 444.81035 -290.203636 
L 444.760855 -288.676364 
L 444.710344 -287.149091 
L 444.659108 -285.621818 
L 444.607434 -284.094545 
L 444.555604 -282.567273 
L 444.503895 -281.04 
L 444.452574 -279.512727 
L 444.4019 -277.985455 
L 444.352118 -276.458182 
L 444.303462 -274.930909 
L 444.25615 -273.403636 
L 444.210384 -271.876364 
L 444.16635 -270.349091 
L 444.124216 -268.821818 
L 444.084133 -267.294545 
L 444.04623 -265.767273 
L 444.010621 -264.24 
L 443.977397 -262.712727 
L 443.946633 -261.185455 
L 443.918382 -259.658182 
L 443.892681 -258.130909 
L 443.869548 -256.603636 
L 443.848983 -255.076364 
L 443.830968 -253.549091 
L 443.815473 -252.021818 
L 443.802448 -250.494545 
L 443.791833 -248.967273 
L 443.783554 -247.44 
L 443.777524 -245.912727 
L 443.773646 -244.385455 
L 443.771815 -242.858182 
L 443.771917 -241.330909 
L 443.773832 -239.803636 
L 443.777431 -238.276364 
L 443.782586 -236.749091 
L 443.789161 -235.221818 
L 443.797021 -233.694545 
L 443.806028 -232.167273 
L 443.816046 -230.64 
L 443.826937 -229.112727 
L 443.838569 -227.585455 
L 443.850809 -226.058182 
L 443.863529 -224.530909 
L 443.876604 -223.003636 
L 443.889914 -221.476364 
L 443.903345 -219.949091 
L 443.916788 -218.421818 
L 443.930137 -216.894545 
L 443.943296 -215.367273 
L 443.956172 -213.84 
L 443.968679 -212.312727 
L 443.980737 -210.785455 
L 443.992272 -209.258182 
L 444.003216 -207.730909 
L 444.013507 -206.203636 
L 444.023088 -204.676364 
L 444.031906 -203.149091 
L 444.039914 -201.621818 
L 444.047071 -200.094545 
L 444.053339 -198.567273 
L 444.058683 -197.04 
L 444.063074 -195.512727 
L 444.066484 -193.985455 
L 444.068892 -192.458182 
L 444.070276 -190.930909 
L 444.070618 -189.403636 
L 444.069905 -187.876364 
L 444.068123 -186.349091 
L 444.065262 -184.821818 
L 444.061314 -183.294545 
L 444.056275 -181.767273 
L 444.05014 -180.24 
L 444.042909 -178.712727 
L 444.034583 -177.185455 
L 444.025164 -175.658182 
L 444.014661 -174.130909 
L 444.00308 -172.603636 
L 443.990434 -171.076364 
L 443.976736 -169.549091 
L 443.962005 -168.021818 
L 443.946259 -166.494545 
L 443.929523 -164.967273 
L 443.911823 -163.44 
z
" style="stroke: #494949; stroke-width: 1.5"/>
    </defs>
    <g clip-path="url(#p91a2b1b7d2)">
     <use xlink:href="#me2d2662e48" x="0" y="432" style="fill: #b55d60; stroke: #494949; stroke-width: 1.5"/>
    </g>
   </g>
   <g id="PolyCollection_4">
    <defs>
     <path id="m5658f73383" d="M 539.686733 -163.44 
L 537.227553 -163.44 
L 537.207275 -164.967273 
L 537.188404 -166.494545 
L 537.170891 -168.021818 
L 537.154673 -169.549091 
L 537.139672 -171.076364 
L 537.1258 -172.603636 
L 537.112958 -174.130909 
L 537.101041 -175.658182 
L 537.089934 -177.185455 
L 537.07952 -178.712727 
L 537.06968 -180.24 
L 537.060291 -181.767273 
L 537.051234 -183.294545 
L 537.04239 -184.821818 
L 537.033645 -186.349091 
L 537.024887 -187.876364 
L 537.016013 -189.403636 
L 537.006923 -190.930909 
L 536.997525 -192.458182 
L 536.987733 -193.985455 
L 536.977469 -195.512727 
L 536.96666 -197.04 
L 536.95524 -198.567273 
L 536.943149 -200.094545 
L 536.930332 -201.621818 
L 536.916738 -203.149091 
L 536.902324 -204.676364 
L 536.887046 -206.203636 
L 536.870868 -207.730909 
L 536.853756 -209.258182 
L 536.83568 -210.785455 
L 536.816612 -212.312727 
L 536.796531 -213.84 
L 536.775419 -215.367273 
L 536.753264 -216.894545 
L 536.730062 -218.421818 
L 536.705813 -219.949091 
L 536.68053 -221.476364 
L 536.654234 -223.003636 
L 536.626957 -224.530909 
L 536.598746 -226.058182 
L 536.56966 -227.585455 
L 536.539774 -229.112727 
L 536.509179 -230.64 
L 536.477983 -232.167273 
L 536.44631 -233.694545 
L 536.414302 -235.221818 
L 536.382117 -236.749091 
L 536.349928 -238.276364 
L 536.317925 -239.803636 
L 536.286309 -241.330909 
L 536.255292 -242.858182 
L 536.225095 -244.385455 
L 536.195946 -245.912727 
L 536.168075 -247.44 
L 536.141709 -248.967273 
L 536.117076 -250.494545 
L 536.094393 -252.021818 
L 536.073869 -253.549091 
L 536.055697 -255.076364 
L 536.040054 -256.603636 
L 536.027095 -258.130909 
L 536.016955 -259.658182 
L 536.009742 -261.185455 
L 536.005538 -262.712727 
L 536.004396 -264.24 
L 536.006341 -265.767273 
L 536.011369 -267.294545 
L 536.019449 -268.821818 
L 536.03052 -270.349091 
L 536.044497 -271.876364 
L 536.061269 -273.403636 
L 536.080707 -274.930909 
L 536.102659 -276.458182 
L 536.126961 -277.985455 
L 536.153435 -279.512727 
L 536.181897 -281.04 
L 536.212154 -282.567273 
L 536.244015 -284.094545 
L 536.277291 -285.621818 
L 536.311797 -287.149091 
L 536.347356 -288.676364 
L 536.383804 -290.203636 
L 536.420989 -291.730909 
L 536.458775 -293.258182 
L 536.497041 -294.785455 
L 536.535684 -296.312727 
L 536.574619 -297.84 
L 536.613778 -299.367273 
L 536.653111 -300.894545 
L 536.692582 -302.421818 
L 536.732173 -303.949091 
L 536.771874 -305.476364 
L 536.811691 -307.003636 
L 536.851636 -308.530909 
L 536.891727 -310.058182 
L 536.931987 -311.585455 
L 536.972441 -313.112727 
L 537.013113 -314.64 
L 539.901173 -314.64 
L 539.901173 -314.64 
L 539.941845 -313.112727 
L 539.982299 -311.585455 
L 540.022559 -310.058182 
L 540.06265 -308.530909 
L 540.102594 -307.003636 
L 540.142411 -305.476364 
L 540.182113 -303.949091 
L 540.221703 -302.421818 
L 540.261175 -300.894545 
L 540.300508 -299.367273 
L 540.339667 -297.84 
L 540.378602 -296.312727 
L 540.417245 -294.785455 
L 540.455511 -293.258182 
L 540.493296 -291.730909 
L 540.530482 -290.203636 
L 540.56693 -288.676364 
L 540.602489 -287.149091 
L 540.636995 -285.621818 
L 540.67027 -284.094545 
L 540.702132 -282.567273 
L 540.732389 -281.04 
L 540.76085 -279.512727 
L 540.787325 -277.985455 
L 540.811627 -276.458182 
L 540.833579 -274.930909 
L 540.853016 -273.403636 
L 540.869789 -271.876364 
L 540.883765 -270.349091 
L 540.894836 -268.821818 
L 540.902916 -267.294545 
L 540.907945 -265.767273 
L 540.90989 -264.24 
L 540.908748 -262.712727 
L 540.904543 -261.185455 
L 540.89733 -259.658182 
L 540.88719 -258.130909 
L 540.874232 -256.603636 
L 540.858588 -255.076364 
L 540.840416 -253.549091 
L 540.819892 -252.021818 
L 540.79721 -250.494545 
L 540.772577 -248.967273 
L 540.746211 -247.44 
L 540.718339 -245.912727 
L 540.68919 -244.385455 
L 540.658994 -242.858182 
L 540.627977 -241.330909 
L 540.596361 -239.803636 
L 540.564358 -238.276364 
L 540.532169 -236.749091 
L 540.499984 -235.221818 
L 540.467976 -233.694545 
L 540.436303 -232.167273 
L 540.405106 -230.64 
L 540.374511 -229.112727 
L 540.344626 -227.585455 
L 540.31554 -226.058182 
L 540.287328 -224.530909 
L 540.260052 -223.003636 
L 540.233756 -221.476364 
L 540.208472 -219.949091 
L 540.184224 -218.421818 
L 540.161021 -216.894545 
L 540.138867 -215.367273 
L 540.117755 -213.84 
L 540.097674 -212.312727 
L 540.078606 -210.785455 
L 540.060529 -209.258182 
L 540.043417 -207.730909 
L 540.027239 -206.203636 
L 540.011962 -204.676364 
L 539.997547 -203.149091 
L 539.983954 -201.621818 
L 539.971137 -200.094545 
L 539.959046 -198.567273 
L 539.947626 -197.04 
L 539.936817 -195.512727 
L 539.926552 -193.985455 
L 539.916761 -192.458182 
L 539.907363 -190.930909 
L 539.898273 -189.403636 
L 539.889398 -187.876364 
L 539.880641 -186.349091 
L 539.871895 -184.821818 
L 539.863051 -183.294545 
L 539.853994 -181.767273 
L 539.844606 -180.24 
L 539.834765 -178.712727 
L 539.824352 -177.185455 
L 539.813245 -175.658182 
L 539.801327 -174.130909 
L 539.788486 -172.603636 
L 539.774614 -171.076364 
L 539.759613 -169.549091 
L 539.743395 -168.021818 
L 539.725882 -166.494545 
L 539.707011 -164.967273 
L 539.686733 -163.44 
z
" style="stroke: #494949; stroke-width: 1.5"/>
    </defs>
    <g clip-path="url(#p91a2b1b7d2)">
     <use xlink:href="#m5658f73383" x="0" y="432" style="fill: #857aab; stroke: #494949; stroke-width: 1.5"/>
    </g>
   </g>
   <g id="PolyCollection_5">
    <defs>
     <path id="m9f1b7e15a2" d="M 634.762389 -62.64 
L 633.466182 -62.64 
L 633.467614 -65.694545 
L 633.471912 -68.749091 
L 633.479018 -71.803636 
L 633.488836 -74.858182 
L 633.501235 -77.912727 
L 633.516051 -80.967273 
L 633.533091 -84.021818 
L 633.552137 -87.076364 
L 633.572951 -90.130909 
L 633.595276 -93.185455 
L 633.618847 -96.24 
L 633.643389 -99.294545 
L 633.668628 -102.349091 
L 633.694288 -105.403636 
L 633.720102 -108.458182 
L 633.745813 -111.512727 
L 633.771175 -114.567273 
L 633.795958 -117.621818 
L 633.819949 -120.676364 
L 633.842954 -123.730909 
L 633.864796 -126.785455 
L 633.885318 -129.84 
L 633.904383 -132.894545 
L 633.921867 -135.949091 
L 633.937667 -139.003636 
L 633.95169 -142.058182 
L 633.963859 -145.112727 
L 633.974105 -148.167273 
L 633.982368 -151.221818 
L 633.988593 -154.276364 
L 633.992731 -157.330909 
L 633.994734 -160.385455 
L 633.994554 -163.44 
L 633.992144 -166.494545 
L 633.987454 -169.549091 
L 633.980431 -172.603636 
L 633.97102 -175.658182 
L 633.959163 -178.712727 
L 633.944797 -181.767273 
L 633.927858 -184.821818 
L 633.908278 -187.876364 
L 633.88599 -190.930909 
L 633.860923 -193.985455 
L 633.833008 -197.04 
L 633.802174 -200.094545 
L 633.768355 -203.149091 
L 633.731482 -206.203636 
L 633.691491 -209.258182 
L 633.648318 -212.312727 
L 633.601902 -215.367273 
L 633.552181 -218.421818 
L 633.499095 -221.476364 
L 633.442582 -224.530909 
L 633.382581 -227.585455 
L 633.319024 -230.64 
L 633.251843 -233.694545 
L 633.180963 -236.749091 
L 633.106302 -239.803636 
L 633.027774 -242.858182 
L 632.945284 -245.912727 
L 632.858733 -248.967273 
L 632.768014 -252.021818 
L 632.673021 -255.076364 
L 632.573645 -258.130909 
L 632.469781 -261.185455 
L 632.361333 -264.24 
L 632.248218 -267.294545 
L 632.130376 -270.349091 
L 632.007773 -273.403636 
L 631.880414 -276.458182 
L 631.74835 -279.512727 
L 631.611687 -282.567273 
L 631.470597 -285.621818 
L 631.325326 -288.676364 
L 631.176206 -291.730909 
L 631.023658 -294.785455 
L 630.868206 -297.84 
L 630.710475 -300.894545 
L 630.551202 -303.949091 
L 630.391231 -307.003636 
L 630.231514 -310.058182 
L 630.07311 -313.112727 
L 629.917173 -316.167273 
L 629.764944 -319.221818 
L 629.617738 -322.276364 
L 629.476924 -325.330909 
L 629.343914 -328.385455 
L 629.22013 -331.44 
L 629.10699 -334.494545 
L 629.005876 -337.549091 
L 628.91811 -340.603636 
L 628.844927 -343.658182 
L 628.78745 -346.712727 
L 628.74666 -349.767273 
L 628.723378 -352.821818 
L 628.718242 -355.876364 
L 628.731687 -358.930909 
L 628.763935 -361.985455 
L 628.814986 -365.04 
L 639.413586 -365.04 
L 639.413586 -365.04 
L 639.464636 -361.985455 
L 639.496885 -358.930909 
L 639.51033 -355.876364 
L 639.505193 -352.821818 
L 639.481911 -349.767273 
L 639.441121 -346.712727 
L 639.383644 -343.658182 
L 639.310462 -340.603636 
L 639.222696 -337.549091 
L 639.121582 -334.494545 
L 639.008441 -331.44 
L 638.884658 -328.385455 
L 638.751647 -325.330909 
L 638.610834 -322.276364 
L 638.463627 -319.221818 
L 638.311398 -316.167273 
L 638.155461 -313.112727 
L 637.997057 -310.058182 
L 637.837341 -307.003636 
L 637.677369 -303.949091 
L 637.518096 -300.894545 
L 637.360365 -297.84 
L 637.204913 -294.785455 
L 637.052366 -291.730909 
L 636.903245 -288.676364 
L 636.757975 -285.621818 
L 636.616885 -282.567273 
L 636.480222 -279.512727 
L 636.348158 -276.458182 
L 636.220799 -273.403636 
L 636.098196 -270.349091 
L 635.980353 -267.294545 
L 635.867238 -264.24 
L 635.75879 -261.185455 
L 635.654926 -258.130909 
L 635.55555 -255.076364 
L 635.460557 -252.021818 
L 635.369839 -248.967273 
L 635.283287 -245.912727 
L 635.200798 -242.858182 
L 635.122269 -239.803636 
L 635.047608 -236.749091 
L 634.976728 -233.694545 
L 634.909547 -230.64 
L 634.845991 -227.585455 
L 634.785989 -224.530909 
L 634.729477 -221.476364 
L 634.676391 -218.421818 
L 634.62667 -215.367273 
L 634.580253 -212.312727 
L 634.53708 -209.258182 
L 634.497089 -206.203636 
L 634.460217 -203.149091 
L 634.426397 -200.094545 
L 634.395564 -197.04 
L 634.367648 -193.985455 
L 634.342581 -190.930909 
L 634.320293 -187.876364 
L 634.300714 -184.821818 
L 634.283774 -181.767273 
L 634.269408 -178.712727 
L 634.257551 -175.658182 
L 634.24814 -172.603636 
L 634.241118 -169.549091 
L 634.236428 -166.494545 
L 634.234018 -163.44 
L 634.233838 -160.385455 
L 634.235841 -157.330909 
L 634.239979 -154.276364 
L 634.246204 -151.221818 
L 634.254466 -148.167273 
L 634.264712 -145.112727 
L 634.276881 -142.058182 
L 634.290905 -139.003636 
L 634.306704 -135.949091 
L 634.324189 -132.894545 
L 634.343253 -129.84 
L 634.363776 -126.785455 
L 634.385618 -123.730909 
L 634.408623 -120.676364 
L 634.432614 -117.621818 
L 634.457397 -114.567273 
L 634.482759 -111.512727 
L 634.50847 -108.458182 
L 634.534284 -105.403636 
L 634.559944 -102.349091 
L 634.585182 -99.294545 
L 634.609724 -96.24 
L 634.633295 -93.185455 
L 634.655621 -90.130909 
L 634.676434 -87.076364 
L 634.695481 -84.021818 
L 634.712521 -80.967273 
L 634.727336 -77.912727 
L 634.739735 -74.858182 
L 634.749553 -71.803636 
L 634.756659 -68.749091 
L 634.760957 -65.694545 
L 634.762389 -62.64 
z
" style="stroke: #494949; stroke-width: 1.5"/>
    </defs>
    <g clip-path="url(#p91a2b1b7d2)">
     <use xlink:href="#m9f1b7e15a2" x="0" y="432" style="fill: #8d7866; stroke: #494949; stroke-width: 1.5"/>
    </g>
   </g>
   <g id="PolyCollection_6">
    <defs>
     <path id="me80368e17e" d="M 730.722843 -113.04 
L 728.820014 -113.04 
L 728.76135 -115.585455 
L 728.700645 -118.130909 
L 728.637645 -120.676364 
L 728.57217 -123.221818 
L 728.504155 -125.767273 
L 728.433689 -128.312727 
L 728.36105 -130.858182 
L 728.286731 -133.403636 
L 728.211449 -135.949091 
L 728.136145 -138.494545 
L 728.061964 -141.04 
L 727.990226 -143.585455 
L 727.922371 -146.130909 
L 727.859901 -148.676364 
L 727.804311 -151.221818 
L 727.757014 -153.767273 
L 727.719262 -156.312727 
L 727.692086 -158.858182 
L 727.676226 -161.403636 
L 727.672093 -163.949091 
L 727.67974 -166.494545 
L 727.69885 -169.04 
L 727.728747 -171.585455 
L 727.768426 -174.130909 
L 727.816595 -176.676364 
L 727.871735 -179.221818 
L 727.932163 -181.767273 
L 727.996101 -184.312727 
L 728.061747 -186.858182 
L 728.127332 -189.403636 
L 728.191181 -191.949091 
L 728.251748 -194.494545 
L 728.307649 -197.04 
L 728.357681 -199.585455 
L 728.400821 -202.130909 
L 728.436224 -204.676364 
L 728.46321 -207.221818 
L 728.481244 -209.767273 
L 728.48992 -212.312727 
L 728.48894 -214.858182 
L 728.4781 -217.403636 
L 728.457275 -219.949091 
L 728.426415 -222.494545 
L 728.385539 -225.04 
L 728.334726 -227.585455 
L 728.27412 -230.130909 
L 728.203911 -232.676364 
L 728.124332 -235.221818 
L 728.035629 -237.767273 
L 727.938042 -240.312727 
L 727.831761 -242.858182 
L 727.716884 -245.403636 
L 727.593374 -247.949091 
L 727.461009 -250.494545 
L 727.319342 -253.04 
L 727.167662 -255.585455 
L 727.004977 -258.130909 
L 726.830007 -260.676364 
L 726.6412 -263.221818 
L 726.436755 -265.767273 
L 726.214678 -268.312727 
L 725.97283 -270.858182 
L 725.708992 -273.403636 
L 725.42092 -275.949091 
L 725.106386 -278.494545 
L 724.7632 -281.04 
L 724.389204 -283.585455 
L 723.982224 -286.130909 
L 723.539997 -288.676364 
L 723.060062 -291.221818 
L 722.53963 -293.767273 
L 721.97545 -296.312727 
L 721.363685 -298.858182 
L 720.69982 -301.403636 
L 719.978633 -303.949091 
L 719.194248 -306.494545 
L 718.340285 -309.04 
L 717.410135 -311.585455 
L 716.397352 -314.130909 
L 715.296167 -316.676364 
L 714.102105 -319.221818 
L 712.812669 -321.767273 
L 711.428072 -324.312727 
L 709.951933 -326.858182 
L 708.391921 -329.403636 
L 706.760246 -331.949091 
L 705.073978 -334.494545 
L 703.35512 -337.04 
L 701.630402 -339.585455 
L 699.93079 -342.130909 
L 698.290684 -344.676364 
L 696.746853 -347.221818 
L 695.337127 -349.767273 
L 694.09893 -352.312727 
L 693.067709 -354.858182 
L 692.275369 -357.403636 
L 691.748798 -359.949091 
L 691.508571 -362.494545 
L 691.567926 -365.04 
L 767.974931 -365.04 
L 767.974931 -365.04 
L 768.034286 -362.494545 
L 767.794059 -359.949091 
L 767.267488 -357.403636 
L 766.475148 -354.858182 
L 765.443927 -352.312727 
L 764.20573 -349.767273 
L 762.796004 -347.221818 
L 761.252173 -344.676364 
L 759.612067 -342.130909 
L 757.912455 -339.585455 
L 756.187738 -337.04 
L 754.468879 -334.494545 
L 752.782611 -331.949091 
L 751.150936 -329.403636 
L 749.590924 -326.858182 
L 748.114786 -324.312727 
L 746.730188 -321.767273 
L 745.440753 -319.221818 
L 744.24669 -316.676364 
L 743.145505 -314.130909 
L 742.132722 -311.585455 
L 741.202572 -309.04 
L 740.348609 -306.494545 
L 739.564224 -303.949091 
L 738.843037 -301.403636 
L 738.179172 -298.858182 
L 737.567407 -296.312727 
L 737.003227 -293.767273 
L 736.482795 -291.221818 
L 736.00286 -288.676364 
L 735.560633 -286.130909 
L 735.153653 -283.585455 
L 734.779657 -281.04 
L 734.436472 -278.494545 
L 734.121937 -275.949091 
L 733.833865 -273.403636 
L 733.570027 -270.858182 
L 733.328179 -268.312727 
L 733.106102 -265.767273 
L 732.901658 -263.221818 
L 732.71285 -260.676364 
L 732.53788 -258.130909 
L 732.375195 -255.585455 
L 732.223515 -253.04 
L 732.081848 -250.494545 
L 731.949483 -247.949091 
L 731.825974 -245.403636 
L 731.711097 -242.858182 
L 731.604815 -240.312727 
L 731.507228 -237.767273 
L 731.418526 -235.221818 
L 731.338946 -232.676364 
L 731.268737 -230.130909 
L 731.208131 -227.585455 
L 731.157318 -225.04 
L 731.116442 -222.494545 
L 731.085582 -219.949091 
L 731.064757 -217.403636 
L 731.053917 -214.858182 
L 731.052937 -212.312727 
L 731.061613 -209.767273 
L 731.079647 -207.221818 
L 731.106633 -204.676364 
L 731.142036 -202.130909 
L 731.185176 -199.585455 
L 731.235208 -197.04 
L 731.291109 -194.494545 
L 731.351676 -191.949091 
L 731.415525 -189.403636 
L 731.48111 -186.858182 
L 731.546756 -184.312727 
L 731.610694 -181.767273 
L 731.671122 -179.221818 
L 731.726262 -176.676364 
L 731.774431 -174.130909 
L 731.81411 -171.585455 
L 731.844007 -169.04 
L 731.863117 -166.494545 
L 731.870764 -163.949091 
L 731.866631 -161.403636 
L 731.850771 -158.858182 
L 731.823595 -156.312727 
L 731.785843 -153.767273 
L 731.738546 -151.221818 
L 731.682956 -148.676364 
L 731.620487 -146.130909 
L 731.552631 -143.585455 
L 731.480893 -141.04 
L 731.406712 -138.494545 
L 731.331408 -135.949091 
L 731.256126 -133.403636 
L 731.181807 -130.858182 
L 731.109168 -128.312727 
L 731.038702 -125.767273 
L 730.970687 -123.221818 
L 730.905212 -120.676364 
L 730.842212 -118.130909 
L 730.781507 -115.585455 
L 730.722843 -113.04 
z
" style="stroke: #494949; stroke-width: 1.5"/>
    </defs>
    <g clip-path="url(#p91a2b1b7d2)">
     <use xlink:href="#me80368e17e" x="0" y="432" style="fill: #d095bf; stroke: #494949; stroke-width: 1.5"/>
    </g>
   </g>
   <g id="line2d_8">
    <path d="M 155.205768 192.96 
L 156.451375 192.96 
" clip-path="url(#p91a2b1b7d2)" style="fill: none; stroke-dasharray: 3.375,3.375; stroke-dashoffset: 0; stroke: #494949; stroke-width: 1.5"/>
   </g>
   <g id="line2d_9">
    <path d="M 154.489886 117.36 
L 157.167257 117.36 
" clip-path="url(#p91a2b1b7d2)" style="fill: none; stroke-dasharray: 6.75,6.75; stroke-dashoffset: 0; stroke: #494949; stroke-width: 1.5"/>
   </g>
   <g id="line2d_10">
    <path d="M 154.371808 92.16 
L 157.285335 92.16 
" clip-path="url(#p91a2b1b7d2)" style="fill: none; stroke-dasharray: 3.375,3.375; stroke-dashoffset: 0; stroke: #494949; stroke-width: 1.5"/>
   </g>
   <g id="line2d_11">
    <path d="M 250.645853 218.16 
L 252.325576 218.16 
" clip-path="url(#p91a2b1b7d2)" style="fill: none; stroke-dasharray: 3.375,3.375; stroke-dashoffset: 0; stroke: #494949; stroke-width: 1.5"/>
   </g>
   <g id="line2d_12">
    <path d="M 250.784927 167.76 
L 252.186502 167.76 
" clip-path="url(#p91a2b1b7d2)" style="fill: none; stroke-dasharray: 6.75,6.75; stroke-dashoffset: 0; stroke: #494949; stroke-width: 1.5"/>
   </g>
   <g id="line2d_13">
    <path d="M 250.645853 117.36 
L 252.325576 117.36 
" clip-path="url(#p91a2b1b7d2)" style="fill: none; stroke-dasharray: 3.375,3.375; stroke-dashoffset: 0; stroke: #494949; stroke-width: 1.5"/>
   </g>
   <g id="line2d_14">
    <path d="M 346.652308 218.16 
L 347.633407 218.16 
" clip-path="url(#p91a2b1b7d2)" style="fill: none; stroke: #494949; stroke-width: 1.5; stroke-linecap: round"/>
   </g>
   <g id="line2d_15">
    <path d="M 441.65539 218.16 
L 443.94461 218.16 
" clip-path="url(#p91a2b1b7d2)" style="fill: none; stroke-dasharray: 3.375,3.375; stroke-dashoffset: 0; stroke: #494949; stroke-width: 1.5"/>
   </g>
   <g id="line2d_16">
    <path d="M 440.37178 117.36 
L 445.22822 117.36 
" clip-path="url(#p91a2b1b7d2)" style="fill: none; stroke-dasharray: 6.75,6.75; stroke-dashoffset: 0; stroke: #494949; stroke-width: 1.5"/>
   </g>
   <g id="line2d_17">
    <path d="M 440.37178 117.36 
L 445.22822 117.36 
" clip-path="url(#p91a2b1b7d2)" style="fill: none; stroke-dasharray: 3.375,3.375; stroke-dashoffset: 0; stroke: #494949; stroke-width: 1.5"/>
   </g>
   <g id="line2d_18">
    <path d="M 536.813137 218.16 
L 540.101149 218.16 
" clip-path="url(#p91a2b1b7d2)" style="fill: none; stroke-dasharray: 3.375,3.375; stroke-dashoffset: 0; stroke: #494949; stroke-width: 1.5"/>
   </g>
   <g id="line2d_19">
    <path d="M 536.028923 167.76 
L 540.885363 167.76 
" clip-path="url(#p91a2b1b7d2)" style="fill: none; stroke-dasharray: 6.75,6.75; stroke-dashoffset: 0; stroke: #494949; stroke-width: 1.5"/>
   </g>
   <g id="line2d_20">
    <path d="M 536.028923 167.76 
L 540.885363 167.76 
" clip-path="url(#p91a2b1b7d2)" style="fill: none; stroke-dasharray: 3.375,3.375; stroke-dashoffset: 0; stroke: #494949; stroke-width: 1.5"/>
   </g>
   <g id="line2d_21">
    <path d="M 630.113522 117.36 
L 638.115049 117.36 
" clip-path="url(#p91a2b1b7d2)" style="fill: none; stroke-dasharray: 3.375,3.375; stroke-dashoffset: 0; stroke: #494949; stroke-width: 1.5"/>
   </g>
   <g id="line2d_22">
    <path d="M 628.867979 66.96 
L 639.360593 66.96 
" clip-path="url(#p91a2b1b7d2)" style="fill: none; stroke-dasharray: 6.75,6.75; stroke-dashoffset: 0; stroke: #494949; stroke-width: 1.5"/>
   </g>
   <g id="line2d_23">
    <path d="M 628.867979 66.96 
L 639.360593 66.96 
" clip-path="url(#p91a2b1b7d2)" style="fill: none; stroke-dasharray: 3.375,3.375; stroke-dashoffset: 0; stroke: #494949; stroke-width: 1.5"/>
   </g>
   <g id="line2d_24">
    <path d="M 691.949961 66.96 
L 767.592896 66.96 
" clip-path="url(#p91a2b1b7d2)" style="fill: none; stroke-dasharray: 3.375,3.375; stroke-dashoffset: 0; stroke: #494949; stroke-width: 1.5"/>
   </g>
   <g id="line2d_25">
    <path d="M 691.949961 66.96 
L 767.592896 66.96 
" clip-path="url(#p91a2b1b7d2)" style="fill: none; stroke-dasharray: 6.75,6.75; stroke-dashoffset: 0; stroke: #494949; stroke-width: 1.5"/>
   </g>
   <g id="line2d_26">
    <path d="M 691.949961 66.96 
L 767.592896 66.96 
" clip-path="url(#p91a2b1b7d2)" style="fill: none; stroke-dasharray: 3.375,3.375; stroke-dashoffset: 0; stroke: #494949; stroke-width: 1.5"/>
   </g>
   <g id="patch_3">
    <path d="M 108 384.48 
L 108 51.84 
" style="fill: none; stroke: #ffffff; stroke-width: 1.25; stroke-linejoin: miter; stroke-linecap: square"/>
   </g>
   <g id="patch_4">
    <path d="M 777.6 384.48 
L 777.6 51.84 
" style="fill: none; stroke: #ffffff; stroke-width: 1.25; stroke-linejoin: miter; stroke-linecap: square"/>
   </g>
   <g id="patch_5">
    <path d="M 108 384.48 
L 777.6 384.48 
" style="fill: none; stroke: #ffffff; stroke-width: 1.25; stroke-linejoin: miter; stroke-linecap: square"/>
   </g>
   <g id="patch_6">
    <path d="M 108 51.84 
L 777.6 51.84 
" style="fill: none; stroke: #ffffff; stroke-width: 1.25; stroke-linejoin: miter; stroke-linecap: square"/>
   </g>
   <g id="text_17">
    <!-- Satisfaction with Remote Work Policies (2022) -->
    <g style="fill: #262626" transform="translate(319.86375 45.84)scale(0.12 -0.12)">
     <defs>
      <path id="ArialMT-63" d="M 2588 1216 
L 3141 1144 
Q 3050 572 2676 248 
Q 2303 -75 1759 -75 
Q 1078 -75 664 370 
Q 250 816 250 1647 
Q 250 2184 428 2587 
Q 606 2991 970 3192 
Q 1334 3394 1763 3394 
Q 2303 3394 2647 3120 
Q 2991 2847 3088 2344 
L 2541 2259 
Q 2463 2594 2264 2762 
Q 2066 2931 1784 2931 
Q 1359 2931 1093 2626 
Q 828 2322 828 1663 
Q 828 994 1084 691 
Q 1341 388 1753 388 
Q 2084 388 2306 591 
Q 2528 794 2588 1216 
z
" transform="scale(0.015625)"/>
      <path id="ArialMT-6e" d="M 422 0 
L 422 3319 
L 928 3319 
L 928 2847 
Q 1294 3394 1984 3394 
Q 2284 3394 2536 3286 
Q 2788 3178 2913 3003 
Q 3038 2828 3088 2588 
Q 3119 2431 3119 2041 
L 3119 0 
L 2556 0 
L 2556 2019 
Q 2556 2363 2490 2533 
Q 2425 2703 2258 2804 
Q 2091 2906 1866 2906 
Q 1506 2906 1245 2678 
Q 984 2450 984 1813 
L 984 0 
L 422 0 
z
" transform="scale(0.015625)"/>
      <path id="ArialMT-68" d="M 422 0 
L 422 4581 
L 984 4581 
L 984 2938 
Q 1378 3394 1978 3394 
Q 2347 3394 2619 3248 
Q 2891 3103 3008 2847 
Q 3125 2591 3125 2103 
L 3125 0 
L 2563 0 
L 2563 2103 
Q 2563 2525 2380 2717 
Q 2197 2909 1863 2909 
Q 1613 2909 1392 2779 
Q 1172 2650 1078 2428 
Q 984 2206 984 1816 
L 984 0 
L 422 0 
z
" transform="scale(0.015625)"/>
      <path id="ArialMT-52" d="M 503 0 
L 503 4581 
L 2534 4581 
Q 3147 4581 3465 4457 
Q 3784 4334 3975 4021 
Q 4166 3709 4166 3331 
Q 4166 2844 3850 2509 
Q 3534 2175 2875 2084 
Q 3116 1969 3241 1856 
Q 3506 1613 3744 1247 
L 4541 0 
L 3778 0 
L 3172 953 
Q 2906 1366 2734 1584 
Q 2563 1803 2427 1890 
Q 2291 1978 2150 2013 
Q 2047 2034 1813 2034 
L 1109 2034 
L 1109 0 
L 503 0 
z
M 1109 2559 
L 2413 2559 
Q 2828 2559 3062 2645 
Q 3297 2731 3419 2920 
Q 3541 3109 3541 3331 
Q 3541 3656 3305 3865 
Q 3069 4075 2559 4075 
L 1109 4075 
L 1109 2559 
z
" transform="scale(0.015625)"/>
      <path id="ArialMT-57" d="M 1294 0 
L 78 4581 
L 700 4581 
L 1397 1578 
Q 1509 1106 1591 641 
Q 1766 1375 1797 1488 
L 2669 4581 
L 3400 4581 
L 4056 2263 
Q 4303 1400 4413 641 
Q 4500 1075 4641 1638 
L 5359 4581 
L 5969 4581 
L 4713 0 
L 4128 0 
L 3163 3491 
Q 3041 3928 3019 4028 
Q 2947 3713 2884 3491 
L 1913 0 
L 1294 0 
z
" transform="scale(0.015625)"/>
      <path id="ArialMT-50" d="M 494 0 
L 494 4581 
L 2222 4581 
Q 2678 4581 2919 4538 
Q 3256 4481 3484 4323 
Q 3713 4166 3852 3881 
Q 3991 3597 3991 3256 
Q 3991 2672 3619 2267 
Q 3247 1863 2275 1863 
L 1100 1863 
L 1100 0 
L 494 0 
z
M 1100 2403 
L 2284 2403 
Q 2872 2403 3119 2622 
Q 3366 2841 3366 3238 
Q 3366 3525 3220 3729 
Q 3075 3934 2838 4000 
Q 2684 4041 2272 4041 
L 1100 4041 
L 1100 2403 
z
" transform="scale(0.015625)"/>
      <path id="ArialMT-30" d="M 266 2259 
Q 266 3072 433 3567 
Q 600 4063 929 4331 
Q 1259 4600 1759 4600 
Q 2128 4600 2406 4451 
Q 2684 4303 2865 4023 
Q 3047 3744 3150 3342 
Q 3253 2941 3253 2259 
Q 3253 1453 3087 958 
Q 2922 463 2592 192 
Q 2263 -78 1759 -78 
Q 1097 -78 719 397 
Q 266 969 266 2259 
z
M 844 2259 
Q 844 1131 1108 757 
Q 1372 384 1759 384 
Q 2147 384 2411 759 
Q 2675 1134 2675 2259 
Q 2675 3391 2411 3762 
Q 2147 4134 1753 4134 
Q 1366 4134 1134 3806 
Q 844 3388 844 2259 
z
" transform="scale(0.015625)"/>
     </defs>
     <use xlink:href="#ArialMT-53"/>
     <use xlink:href="#ArialMT-61" x="66.699219"/>
     <use xlink:href="#ArialMT-74" x="122.314453"/>
     <use xlink:href="#ArialMT-69" x="150.097656"/>
     <use xlink:href="#ArialMT-73" x="172.314453"/>
     <use xlink:href="#ArialMT-66" x="222.314453"/>
     <use xlink:href="#ArialMT-61" x="250.097656"/>
     <use xlink:href="#ArialMT-63" x="305.712891"/>
     <use xlink:href="#ArialMT-74" x="355.712891"/>
     <use xlink:href="#ArialMT-69" x="383.496094"/>
     <use xlink:href="#ArialMT-6f" x="405.712891"/>
     <use xlink:href="#ArialMT-6e" x="461.328125"/>
     <use xlink:href="#ArialMT-20" x="516.943359"/>
     <use xlink:href="#ArialMT-77" x="544.726562"/>
     <use xlink:href="#ArialMT-69" x="616.943359"/>
     <use xlink:href="#ArialMT-74" x="639.160156"/>
     <use xlink:href="#ArialMT-68" x="666.943359"/>
     <use xlink:href="#ArialMT-20" x="722.558594"/>
     <use xlink:href="#ArialMT-52" x="750.341797"/>
     <use xlink:href="#ArialMT-65" x="822.558594"/>
     <use xlink:href="#ArialMT-6d" x="878.173828"/>
     <use xlink:href="#ArialMT-6f" x="961.474609"/>
     <use xlink:href="#ArialMT-74" x="1017.089844"/>
     <use xlink:href="#ArialMT-65" x="1044.873047"/>
     <use xlink:href="#ArialMT-20" x="1100.488281"/>
     <use xlink:href="#ArialMT-57" x="1128.271484"/>
     <use xlink:href="#ArialMT-6f" x="1220.90625"/>
     <use xlink:href="#ArialMT-72" x="1276.521484"/>
     <use xlink:href="#ArialMT-6b" x="1309.822266"/>
     <use xlink:href="#ArialMT-20" x="1359.822266"/>
     <use xlink:href="#ArialMT-50" x="1387.605469"/>
     <use xlink:href="#ArialMT-6f" x="1454.304688"/>
     <use xlink:href="#ArialMT-6c" x="1509.919922"/>
     <use xlink:href="#ArialMT-69" x="1532.136719"/>
     <use xlink:href="#ArialMT-63" x="1554.353516"/>
     <use xlink:href="#ArialMT-69" x="1604.353516"/>
     <use xlink:href="#ArialMT-65" x="1626.570312"/>
     <use xlink:href="#ArialMT-73" x="1682.185547"/>
     <use xlink:href="#ArialMT-20" x="1732.185547"/>
     <use xlink:href="#ArialMT-28" x="1759.96875"/>
     <use xlink:href="#ArialMT-32" x="1793.269531"/>
     <use xlink:href="#ArialMT-30" x="1848.884766"/>
     <use xlink:href="#ArialMT-32" x="1904.5"/>
     <use xlink:href="#ArialMT-32" x="1960.115234"/>
     <use xlink:href="#ArialMT-29" x="2015.730469"/>
    </g>
   </g>
  </g>
 </g>
 <defs>
  <clipPath id="p91a2b1b7d2">
   <rect x="108" y="51.84" width="669.6" height="332.64"/>
  </clipPath>
 </defs>
</svg>
